<?xml version="1.0" encoding="utf-8"?>
<!-- Generator: Adobe Illustrator 23.0.4, SVG Export Plug-In . SVG Version: 6.00 Build 0)  -->
<svg version="1.1" id="Слой_1" xmlns="http://www.w3.org/2000/svg" xmlns:xlink="http://www.w3.org/1999/xlink" x="0px" y="0px"
	 viewBox="0 0 1280 1024" style="enable-background:new 0 0 1280 1024;" xml:space="preserve">
<style type="text/css">
	.st0{fill:url(#SVGID_1_);}
	.st1{opacity:0.74;clip-path:url(#SVGID_3_);fill:url(#SVGID_4_);enable-background:new    ;}
	.st2{opacity:0.74;clip-path:url(#SVGID_6_);fill:url(#SVGID_7_);enable-background:new    ;}
	.st3{clip-path:url(#SVGID_9_);fill:url(#SVGID_10_);}
	.st4{opacity:0.56;clip-path:url(#SVGID_12_);}
	.st5{fill:url(#SVGID_13_);}
	.st6{clip-path:url(#SVGID_15_);fill:url(#SVGID_16_);}
	.st7{clip-path:url(#SVGID_18_);fill:url(#SVGID_19_);}
	.st8{opacity:0.56;clip-path:url(#SVGID_21_);fill:url(#SVGID_22_);enable-background:new    ;}
	.st9{opacity:0.74;clip-path:url(#SVGID_24_);fill:#263238;enable-background:new    ;}
	.st10{opacity:0.91;clip-path:url(#SVGID_26_);fill:url(#SVGID_27_);enable-background:new    ;}
</style>
<g>
	
		<linearGradient id="SVGID_1_" gradientUnits="userSpaceOnUse" x1="176.8516" y1="492.5035" x2="1171.0515" y2="492.5035" gradientTransform="matrix(0 -1 -1 0 1132.6035 1171.3516)">
		<stop  offset="0" style="stop-color:#37474F"/>
		<stop  offset="1" style="stop-color:#263238"/>
	</linearGradient>
	<rect x="0.2" y="0.3" class="st0" width="1279.8" height="994.2"/>
	<g>
		<g>
			<defs>
				<rect id="SVGID_2_" x="0.2" y="0.3" width="1279.8" height="1023.7"/>
			</defs>
			<clipPath id="SVGID_3_">
				<use xlink:href="#SVGID_2_"  style="overflow:visible;"/>
			</clipPath>
			
				<linearGradient id="SVGID_4_" gradientUnits="userSpaceOnUse" x1="812.5655" y1="-271.924" x2="83.0961" y2="991.554" gradientTransform="matrix(1 0 0 -1 0 1024)">
				<stop  offset="0" style="stop-color:#263238"/>
				<stop  offset="1" style="stop-color:#37474F"/>
			</linearGradient>
			<path class="st1" d="M-3.6,82.5c0,0,418.7,328.2,873.6,388.6c608.6,80.9,664.2,632.8,246.7,560.5
				C928.3,999.1-244,951.8-244,951.8L-3.6,82.5z"/>
		</g>
		<g>
			<defs>
				<rect id="SVGID_5_" x="0.2" y="0.3" width="1279.8" height="1023.7"/>
			</defs>
			<clipPath id="SVGID_6_">
				<use xlink:href="#SVGID_5_"  style="overflow:visible;"/>
			</clipPath>
			
				<linearGradient id="SVGID_7_" gradientUnits="userSpaceOnUse" x1="1021.3163" y1="-232.2729" x2="-102.1283" y2="891.1717" gradientTransform="matrix(1 0 0 -1 0 1024)">
				<stop  offset="0" style="stop-color:#263238"/>
				<stop  offset="1" style="stop-color:#37474F"/>
			</linearGradient>
			<path class="st2" d="M-3.6,34.3c0,0,418.7,328.2,873.6,388.6c608.6,80.9,664.2,632.8,246.7,560.5
				C928.3,950.9-244,903.6-244,903.6L-3.6,34.3z"/>
		</g>
		<g>
			<defs>
				<rect id="SVGID_8_" x="0.2" y="0.3" width="1279.8" height="1023.7"/>
			</defs>
			<clipPath id="SVGID_9_">
				<use xlink:href="#SVGID_8_"  style="overflow:visible;"/>
			</clipPath>
			
				<linearGradient id="SVGID_10_" gradientUnits="userSpaceOnUse" x1="571.2596" y1="-39.6116" x2="571.2596" y2="916" gradientTransform="matrix(1 0 0 -1 0 1024)">
				<stop  offset="0" style="stop-color:#263238"/>
				<stop  offset="1" style="stop-color:#37474F"/>
			</linearGradient>
			<path class="st3" d="M-3.6,108c0,0,418.7,328.2,873.6,388.6c608.6,80.9,664.2,632.8,246.7,560.5
				C928.3,1024.6-244,977.3-244,977.3L-3.6,108z"/>
		</g>
		<g>
			<defs>
				<rect id="SVGID_11_" x="0.2" y="0.3" width="1279.8" height="1023.7"/>
			</defs>
			<clipPath id="SVGID_12_">
				<use xlink:href="#SVGID_11_"  style="overflow:visible;"/>
			</clipPath>
			<g class="st4">
				
					<linearGradient id="SVGID_13_" gradientUnits="userSpaceOnUse" x1="630.9515" y1="395.5035" x2="1447.8516" y2="395.5035" gradientTransform="matrix(0 -1 -1 0 1132.6035 1171.3516)">
					<stop  offset="0" style="stop-color:#263238"/>
					<stop  offset="1" style="stop-color:#37474F"/>
				</linearGradient>
				<path class="st5" d="M1530.3,540.4c0,0-662.2-93.2-622.6-377C947.4-120.4,106.4-125.3-56.1-141v-135.5h1485.3h101.1V540.4z"/>
			</g>
		</g>
		<g>
			<defs>
				<rect id="SVGID_14_" x="0.2" y="0.3" width="1279.8" height="1023.7"/>
			</defs>
			<clipPath id="SVGID_15_">
				<use xlink:href="#SVGID_14_"  style="overflow:visible;"/>
			</clipPath>
			
				<linearGradient id="SVGID_16_" gradientUnits="userSpaceOnUse" x1="638.1516" y1="339.2535" x2="1455.1516" y2="339.2535" gradientTransform="matrix(0 -1 -1 0 1132.6035 1171.3516)">
				<stop  offset="0" style="stop-color:#263238"/>
				<stop  offset="1" style="stop-color:#37474F"/>
			</linearGradient>
			<path class="st6" d="M1586.6,533.2c0,0-662.2-93.2-622.6-377c39.6-283.8-801.4-288.7-963.9-304.5v-135.5h1485.3h101.1
				L1586.6,533.2z"/>
		</g>
		<g>
			<defs>
				<rect id="SVGID_17_" x="0.2" y="0.3" width="1279.8" height="1023.7"/>
			</defs>
			<clipPath id="SVGID_18_">
				<use xlink:href="#SVGID_17_"  style="overflow:visible;"/>
			</clipPath>
			
				<linearGradient id="SVGID_19_" gradientUnits="userSpaceOnUse" x1="115.9515" y1="787.4035" x2="912.7515" y2="787.4035" gradientTransform="matrix(0 -1 -1 0 1132.6035 1171.3516)">
				<stop  offset="0" style="stop-color:#263238"/>
				<stop  offset="1" style="stop-color:#37474F"/>
			</linearGradient>
			<path class="st7" d="M-160.9,1055.4h991c0,0,261-175.6-334-360.6s-523-260-692.8-436.2L-160.9,1055.4z"/>
		</g>
		<g>
			<defs>
				<rect id="SVGID_20_" x="0.2" y="0.3" width="1279.8" height="1023.7"/>
			</defs>
			<clipPath id="SVGID_21_">
				<use xlink:href="#SVGID_20_"  style="overflow:visible;"/>
			</clipPath>
			
				<linearGradient id="SVGID_22_" gradientUnits="userSpaceOnUse" x1="129.1516" y1="735.7035" x2="925.9516" y2="735.7035" gradientTransform="matrix(0 -1 -1 0 1132.6035 1171.3516)">
				<stop  offset="0" style="stop-color:#263238"/>
				<stop  offset="1" style="stop-color:#37474F"/>
			</linearGradient>
			<path class="st8" d="M-109.2,1042.2h991c0,0,261-175.6-334-360.6s-523-260-692.8-436.2L-109.2,1042.2z"/>
		</g>
		<g>
			<defs>
				<rect id="SVGID_23_" x="0.2" y="0.3" width="1279.8" height="1023.7"/>
			</defs>
			<clipPath id="SVGID_24_">
				<use xlink:href="#SVGID_23_"  style="overflow:visible;"/>
			</clipPath>
			<path class="st9" d="M-149.4,1098.2h991c0,0,261-175.6-334-360.6s-523-260-692.8-436.2L-149.4,1098.2z"/>
		</g>
		<g>
			<defs>
				<rect id="SVGID_25_" x="0.2" y="0.3" width="1279.8" height="1023.7"/>
			</defs>
			<clipPath id="SVGID_26_">
				<use xlink:href="#SVGID_25_"  style="overflow:visible;"/>
			</clipPath>
			
				<linearGradient id="SVGID_27_" gradientUnits="userSpaceOnUse" x1="41.1516" y1="816.1035" x2="837.9516" y2="816.1035" gradientTransform="matrix(0 -1 -1 0 1132.6035 1171.3516)">
				<stop  offset="0" style="stop-color:#37474F"/>
				<stop  offset="1" style="stop-color:#263238"/>
			</linearGradient>
			<path class="st10" d="M-189.6,1130.2h991c0,0,261-175.6-334-360.6s-523-260-692.8-436.2L-189.6,1130.2z"/>
		</g>
	</g>
</g>
</svg>
