<svg width="469" height="482" viewBox="0 0 469 482" fill="none" xmlns="http://www.w3.org/2000/svg">
<path d="M302.661 63.9804L95.7642 109.751C17.2476 127.054 -12.8938 222.874 41.2492 282.227L184.328 438.516C238.657 497.868 336.71 476.099 360.897 399.443L424.715 197.57C448.903 120.728 380.991 46.677 302.661 63.9804Z" fill="url(#paint0_linear)"/>
<path opacity="0.7" d="M232.145 27.5123L43.854 182.499C-27.5924 241.293 -8.61445 355.347 78.0887 387.907L306.568 473.494C393.271 505.868 482.393 432.375 467.322 341.206L427.134 100.633C411.877 9.27858 303.591 -31.2821 232.145 27.5123Z" fill="url(#paint1_linear)"/>
<path opacity="0.8" d="M145.814 87.4227L39.9467 270.876C-0.241863 340.462 49.9939 427.351 130.371 427.351H342.105C422.482 427.351 472.718 340.462 432.529 270.876L326.662 87.4227C286.474 17.837 186.002 17.837 145.814 87.4227Z" fill="url(#paint2_radial)"/>
<path d="M280.493 278.649C263.905 278.649 250.403 292.152 250.403 308.74C250.403 325.329 263.905 338.831 280.493 338.831C297.082 338.831 310.584 325.329 310.584 308.74C310.584 292.152 297.082 278.649 280.493 278.649ZM280.493 330.234C268.642 330.234 259 320.592 259 308.74C259 296.889 268.642 287.247 280.493 287.247C292.345 287.247 301.987 296.889 301.987 308.74C301.987 320.592 292.345 330.234 280.493 330.234Z" fill="#D75AE4"/>
<path d="M332.078 201.272C315.489 201.272 301.987 214.775 301.987 231.363C301.987 247.952 315.489 261.454 332.078 261.454C348.666 261.454 362.169 247.952 362.169 231.363C362.169 214.775 348.666 201.272 332.078 201.272ZM332.078 252.857C320.226 252.857 310.584 243.215 310.584 231.363C310.584 219.512 320.226 209.87 332.078 209.87C343.929 209.87 353.571 219.512 353.571 231.363C353.571 243.215 343.929 252.857 332.078 252.857Z" fill="#D75AE4"/>
<path d="M181.623 192.676C165.035 192.676 151.533 206.178 151.533 222.767C151.533 239.355 165.035 252.858 181.623 252.858C198.212 252.858 211.714 239.355 211.714 222.767C211.714 206.178 198.212 192.676 181.623 192.676ZM181.623 244.26C169.772 244.26 160.13 234.618 160.13 222.767C160.13 210.915 169.772 201.273 181.623 201.273C193.475 201.273 203.117 210.915 203.117 222.767C203.117 234.618 193.475 244.26 181.623 244.26Z" fill="#D75AE4"/>
<path d="M391 294.584L384.922 288.506L366.467 306.96L348.013 288.506L341.935 294.584L360.389 313.039L341.935 331.493L348.013 337.571L366.467 319.117L384.922 337.571L391 331.493L372.546 313.039L391 294.584Z" fill="#FF4081"/>
<path d="M176.065 126.935L169.987 120.856L151.533 139.311L133.078 120.856L127 126.935L145.454 145.389L127 163.843L133.078 169.922L151.533 151.467L169.987 169.922L176.065 163.843L157.611 145.389L176.065 126.935Z" fill="#FF4081"/>
<path d="M373.805 148.429L367.727 142.351L349.273 160.805L330.818 142.351L324.74 148.429L343.194 166.883L324.74 185.338L330.818 191.416L349.273 172.962L367.727 191.416L373.805 185.338L355.351 166.883L373.805 148.429Z" fill="#FF4081"/>
<path d="M286.718 193.131L260.926 180.235C259.808 179.676 258.51 179.633 257.358 180.11C256.206 180.587 255.316 181.541 254.929 182.719L246.332 208.511L254.482 211.233L259.825 195.198C260.234 196.015 260.608 196.755 260.917 197.331C263.367 201.909 264.266 207.071 263.918 214.581C263.144 231.295 257.186 248.132 247.136 261.996C245.132 264.756 242.579 267.429 239.918 270.15C232.034 278.219 221.958 283.954 211.289 290.023C196.106 298.664 180.523 307.678 171.599 323.914C168.057 322.453 164.188 321.636 160.13 321.636C143.541 321.636 130.039 335.138 130.039 351.727C130.039 368.315 143.541 381.818 160.13 381.818C176.719 381.818 190.221 368.315 190.221 351.727C190.221 342.265 185.823 333.823 178.976 328.303C186.696 314.036 200.688 305.95 215.54 297.499C226.257 291.399 237.339 285.093 246.07 276.164C248.963 273.202 251.752 270.275 254.095 267.042C265.117 251.838 271.66 233.345 272.506 214.977C272.782 209.014 272.571 201.247 268.719 193.745L282.871 200.821L286.718 193.131ZM181.624 351.727C181.624 363.578 171.982 373.22 160.13 373.22C148.279 373.22 138.637 363.578 138.637 351.727C138.637 339.875 148.279 330.233 160.13 330.233C171.982 330.233 181.624 339.875 181.624 351.727Z" fill="#D75AE4"/>
<path d="M229.3 120.183L222.435 125.345C223.648 126.966 225.229 129.309 227.009 132.129L234.278 127.538C232.352 124.486 230.676 122.01 229.3 120.183Z" fill="#FF4081"/>
<path d="M255.209 165.748L247.419 169.385C248.834 172.42 249.93 174.977 250.682 176.985L258.729 173.976C257.904 171.758 256.717 168.994 255.209 165.748Z" fill="#D75AE4"/>
<path d="M238.818 135.009L231.415 139.376C232.799 141.732 234.227 144.217 235.654 146.761L243.151 142.553C241.698 139.957 240.236 137.416 238.818 135.009Z" fill="#FF4081"/>
<path d="M247.329 150.187L239.75 154.232C241.113 156.794 242.446 159.338 243.692 161.789L251.357 157.894C250.085 155.392 248.73 152.796 247.329 150.187Z" fill="#D75AE4"/>
<defs>
<linearGradient id="paint0_linear" x1="32.6688" y1="147.9" x2="399.946" y2="315.71" gradientUnits="userSpaceOnUse">
<stop stop-color="#9CDCFF"/>
<stop offset="0.1337" stop-color="#96D3F8"/>
<stop offset="0.3499" stop-color="#84BBE6"/>
<stop offset="0.6216" stop-color="#6894C9"/>
<stop offset="0.9354" stop-color="#425FA1"/>
<stop offset="1" stop-color="#395398"/>
</linearGradient>
<linearGradient id="paint1_linear" x1="-0.852463" y1="254.737" x2="463.694" y2="234.883" gradientUnits="userSpaceOnUse">
<stop stop-color="#B620B4"/>
<stop offset="0.2281" stop-color="#AD23B5"/>
<stop offset="0.5966" stop-color="#952BB8"/>
<stop offset="1" stop-color="#7437BC"/>
</linearGradient>
<radialGradient id="paint2_radial" cx="0" cy="0" r="1" gradientUnits="userSpaceOnUse" gradientTransform="translate(1.71676 481.34) scale(628.12)">
<stop stop-color="#B620B4"/>
<stop offset="0.1576" stop-color="#A227B6"/>
<stop offset="0.4486" stop-color="#7437BC"/>
<stop offset="0.5839" stop-color="#623FB1"/>
<stop offset="0.8496" stop-color="#444E9F"/>
<stop offset="1" stop-color="#395398"/>
</radialGradient>
</defs>
</svg>
