<svg width="469" height="482" viewBox="0 0 469 482" fill="none" xmlns="http://www.w3.org/2000/svg">
<path d="M302.661 63.9804L95.7642 109.751C17.2477 127.054 -12.8937 222.874 41.2492 282.227L184.328 438.516C238.657 497.868 336.71 476.099 360.897 399.443L424.715 197.57C448.903 120.728 380.991 46.677 302.661 63.9804Z" fill="url(#paint0_linear)"/>
<path opacity="0.7" d="M232.145 27.5123L43.854 182.499C-27.5924 241.293 -8.61445 355.347 78.0887 387.907L306.568 473.494C393.271 505.868 482.393 432.375 467.322 341.206L427.134 100.633C411.877 9.27858 303.591 -31.2821 232.145 27.5123Z" fill="url(#paint1_linear)"/>
<path opacity="0.8" d="M145.814 87.4227L39.9468 270.876C-0.241802 340.462 49.9939 427.351 130.371 427.351H342.105C422.482 427.351 472.718 340.462 432.53 270.876L326.662 87.4227C286.474 17.837 186.002 17.837 145.814 87.4227Z" fill="url(#paint2_radial)"/>
<g clip-path="url(#clip0)">
<path d="M240.529 234.478C238.513 232.462 235.249 232.462 233.233 234.478C231.222 236.489 231.222 239.753 233.233 241.769C235.249 243.78 238.513 243.78 240.529 241.769C242.54 239.753 242.54 236.489 240.529 234.478Z" fill="#D75AE4"/>
<path d="M306.153 168.848C296.077 158.773 279.767 158.773 269.691 168.848C259.642 178.897 259.642 195.253 269.693 205.31C279.745 215.357 296.101 215.361 306.153 205.309C316.227 195.235 316.229 178.924 306.153 168.848ZM298.861 198.017C292.831 204.046 283.017 204.046 276.985 198.018C270.955 191.984 270.954 182.169 276.984 176.14C283.028 170.096 292.815 170.095 298.861 176.14C304.905 182.184 304.906 191.971 298.861 198.017Z" fill="#D75AE4"/>
<path d="M364.489 110.51C363.476 109.498 362.094 108.95 360.658 109.004C359.492 109.045 331.733 110.161 298.736 121.824C272.295 131.16 250.255 144.527 233.23 161.552C229.415 165.368 225.702 169.413 222.15 173.616C205.316 163.707 191.826 166.814 183.299 171.378C163.663 181.886 151.509 210.419 151.509 230.827C151.511 232.912 152.767 234.793 154.694 235.59C155.332 235.855 156.002 235.983 156.666 235.983C158.008 235.983 159.327 235.459 160.313 234.473C170.668 224.118 183.441 224.765 187.613 225.314L189.419 227.12C185.865 235.576 183.003 243.985 180.903 252.163C180.145 255.123 180.401 258.255 181.527 261.119C176.563 263.407 171.773 266.767 167.603 270.937C154.33 284.21 151.635 316.557 151.527 317.928C151.408 319.432 151.954 320.913 153.021 321.98C153.991 322.95 155.305 323.49 156.666 323.49C156.801 323.49 156.937 323.485 157.072 323.474C158.443 323.366 190.791 320.671 204.064 307.398C208.233 303.229 211.591 298.44 213.879 293.477C216.912 294.67 220.034 294.817 222.841 294.097C231.015 291.998 239.423 289.136 247.88 285.582L249.686 287.388C250.234 291.561 250.882 304.333 240.527 314.688C239.053 316.162 238.612 318.38 239.41 320.306C240.207 322.233 242.087 323.489 244.173 323.489C264.581 323.489 293.114 311.336 303.622 291.7C308.186 283.173 311.293 269.683 301.384 252.849C305.584 249.298 309.631 245.586 313.447 241.769C330.473 224.743 343.839 202.704 353.175 176.265C364.838 143.266 365.954 115.507 365.995 114.341C366.047 112.911 365.501 111.523 364.489 110.51ZM163.038 219.736C166.241 204.235 175.544 187.225 188.167 180.47C196.602 175.956 205.822 176.398 215.625 181.764C207.273 192.748 200.012 204.582 193.961 217.078C193.884 217.031 192.956 215.864 191.231 215.475C190.522 215.315 176.88 212.38 163.038 219.736ZM196.772 300.106C189.682 307.196 173.05 310.935 162.538 312.462C164.066 301.949 167.806 285.318 174.895 278.229C178.865 274.259 183.469 271.248 188.096 269.553L205.448 286.905C203.752 291.532 200.743 296.135 196.772 300.106ZM220.279 284.108C218.787 284.49 217.058 283.929 215.774 282.646C209.103 275.975 206.493 273.366 205.675 272.547C204.173 271.046 200.491 267.364 192.358 259.23C191.072 257.942 190.511 256.214 190.892 254.724C192.544 248.292 194.704 241.693 197.33 235.031L239.97 277.67C233.306 280.298 226.708 282.457 220.279 284.108ZM294.531 286.834C287.775 299.456 270.766 308.76 255.265 311.963C260.207 302.662 261.297 290.823 259.491 283.644C259.072 281.976 257.984 281.138 257.923 281.04C270.418 274.988 282.251 267.727 293.236 259.376C298.602 269.18 299.044 278.401 294.531 286.834ZM306.156 234.477C301.51 239.123 296.507 243.611 291.286 247.817C278.734 257.924 264.92 266.484 250.181 273.299L201.702 224.821C208.517 210.081 217.077 196.266 227.182 183.717C231.392 178.492 235.88 173.488 240.524 168.844C255.799 153.569 275.514 141.411 299.136 132.66L342.341 175.865C333.591 199.486 321.433 219.201 306.156 234.477ZM346.051 164.99L310.011 128.95C329.646 122.851 346.728 120.568 355.254 119.747C354.433 128.275 352.149 145.357 346.051 164.99Z" fill="#D75AE4"/>
<path d="M225.941 321.978C223.926 319.965 220.662 319.966 218.649 321.979L204.067 336.566C202.054 338.58 202.054 341.845 204.068 343.858C206.082 345.871 209.347 345.871 211.36 343.857L225.942 329.27C227.955 327.256 227.955 323.991 225.941 321.978Z" fill="#FF4081"/>
<path d="M153.023 249.059C151.01 247.045 147.746 247.045 145.731 249.058L131.144 263.64C129.13 265.653 129.13 268.918 131.143 270.932C133.155 272.945 136.419 272.947 138.434 270.933L153.021 256.351C155.036 254.338 155.036 251.074 153.023 249.059Z" fill="#FF4081"/>
<path d="M189.482 329.275C187.47 327.261 184.204 327.261 182.19 329.274L147.262 364.198C145.248 366.211 145.248 369.476 147.262 371.489C149.274 373.503 152.539 373.504 154.553 371.49L189.482 336.567C191.496 334.553 191.496 331.288 189.482 329.275Z" fill="#FF4081"/>
<path d="M148.232 329.275C146.219 327.261 142.954 327.261 140.94 329.274L106.012 364.198C103.998 366.211 103.998 369.476 106.012 371.489C108.024 373.503 111.289 373.504 113.303 371.49L148.232 336.567C150.246 334.553 150.246 331.288 148.232 329.275Z" fill="#FF4081"/>
<path d="M145.726 285.517C143.713 283.505 140.448 283.504 138.434 285.518L103.511 320.446C101.497 322.46 101.497 325.725 103.511 327.739C105.525 329.752 108.79 329.752 110.803 327.738L145.726 292.81C147.74 290.796 147.74 287.532 145.726 285.517Z" fill="#FF4081"/>
<path d="M262.402 212.598C260.388 210.585 257.124 210.585 255.109 212.598L247.818 219.889C245.805 221.902 245.805 225.167 247.818 227.181C249.833 229.195 253.097 229.195 255.111 227.181L262.402 219.89C264.415 217.877 264.415 214.612 262.402 212.598Z" fill="#D75AE4"/>
</g>
<defs>
<linearGradient id="paint0_linear" x1="32.6689" y1="147.9" x2="399.946" y2="315.71" gradientUnits="userSpaceOnUse">
<stop stop-color="#9CDCFF"/>
<stop offset="0.1337" stop-color="#96D3F8"/>
<stop offset="0.3499" stop-color="#84BBE6"/>
<stop offset="0.6216" stop-color="#6894C9"/>
<stop offset="0.9354" stop-color="#425FA1"/>
<stop offset="1" stop-color="#395398"/>
</linearGradient>
<linearGradient id="paint1_linear" x1="-0.852463" y1="254.737" x2="463.694" y2="234.883" gradientUnits="userSpaceOnUse">
<stop stop-color="#B620B4"/>
<stop offset="0.2281" stop-color="#AD23B5"/>
<stop offset="0.5966" stop-color="#952BB8"/>
<stop offset="1" stop-color="#7437BC"/>
</linearGradient>
<radialGradient id="paint2_radial" cx="0" cy="0" r="1" gradientUnits="userSpaceOnUse" gradientTransform="translate(1.71682 481.34) scale(628.12)">
<stop stop-color="#B620B4"/>
<stop offset="0.1576" stop-color="#A227B6"/>
<stop offset="0.4486" stop-color="#7437BC"/>
<stop offset="0.5839" stop-color="#623FB1"/>
<stop offset="0.8496" stop-color="#444E9F"/>
<stop offset="1" stop-color="#395398"/>
</radialGradient>
<clipPath id="clip0">
<rect width="264" height="264" fill="white" transform="translate(102 109)"/>
</clipPath>
</defs>
</svg>
