<svg width="469" height="482" viewBox="0 0 469 482" fill="none" xmlns="http://www.w3.org/2000/svg">
<path d="M302.661 63.9804L95.7642 109.751C17.2477 127.054 -12.8937 222.874 41.2492 282.227L184.328 438.516C238.657 497.868 336.71 476.099 360.897 399.443L424.715 197.57C448.903 120.728 380.991 46.677 302.661 63.9804Z" fill="url(#paint0_linear)"/>
<path opacity="0.7" d="M232.145 27.5123L43.854 182.499C-27.5924 241.293 -8.61445 355.347 78.0887 387.907L306.568 473.494C393.271 505.868 482.393 432.375 467.322 341.206L427.134 100.633C411.877 9.27858 303.591 -31.2821 232.145 27.5123Z" fill="url(#paint1_linear)"/>
<path opacity="0.8" d="M145.814 87.4227L39.9467 270.876C-0.241833 340.462 49.9939 427.351 130.371 427.351H342.105C422.482 427.351 472.718 340.462 432.529 270.876L326.662 87.4227C286.474 17.837 186.002 17.837 145.814 87.4227Z" fill="url(#paint2_radial)"/>
<path d="M243.216 150.214C203.02 150.214 170.18 183.054 170.18 223.25C170.18 244.268 179.375 264.497 194.876 278.158C206.435 289.718 205.384 314.414 205.122 314.676C205.122 315.99 205.384 317.041 206.435 318.092C207.223 318.88 208.537 319.405 209.588 319.405H276.581C277.895 319.405 278.946 318.88 279.734 318.092C280.522 317.304 281.048 315.99 281.048 314.676C281.048 314.414 279.734 289.718 291.294 278.158C291.557 277.896 291.819 277.633 292.082 277.37C307.32 263.446 316.252 243.742 316.252 223.25C316.252 183.054 283.412 150.214 243.216 150.214ZM285.251 271.328C284.989 271.59 284.463 272.116 284.463 272.379C274.217 283.413 272.378 301.54 272.115 310.21H214.054C213.791 301.54 211.952 282.625 200.918 271.328C186.994 259.243 178.85 241.64 178.85 222.987C178.85 187.52 207.486 158.884 242.953 158.884C278.421 158.884 307.057 187.52 307.057 222.987C307.057 241.64 299.175 259.243 285.251 271.328Z" fill="#D75AE4"/>
<path d="M242.953 168.867C240.589 168.867 238.487 170.969 238.487 173.333C238.487 175.698 240.589 177.8 242.953 177.8C269.488 177.8 290.768 199.343 290.768 225.615C290.768 227.979 292.87 230.081 295.235 230.081C297.599 230.081 299.701 227.979 299.701 225.615C299.964 194.351 274.48 168.867 242.953 168.867Z" fill="#FF4081"/>
<path d="M272.115 324.396H213.791C207.749 324.396 202.757 329.388 202.757 335.431C202.757 341.473 207.749 346.465 213.791 346.465H271.853C278.158 346.202 283.149 341.473 283.149 335.431C283.149 329.388 278.158 324.396 272.115 324.396ZM272.115 337.27H213.791C212.741 337.27 211.69 336.482 211.69 335.168C211.69 333.854 212.478 333.066 213.791 333.066H271.853C272.903 333.066 273.954 333.854 273.954 335.168C273.954 336.482 273.166 337.27 272.115 337.27Z" fill="#D75AE4"/>
<path d="M263.446 350.932H222.461C216.419 350.932 211.427 355.923 211.427 361.966C211.427 368.008 216.419 373 222.461 373H263.446C269.488 373 274.48 368.008 274.48 361.966C274.48 355.661 269.488 350.932 263.446 350.932ZM263.446 363.805H222.461C221.41 363.805 220.359 363.017 220.359 361.703C220.359 360.39 221.148 359.601 222.461 359.601H263.446C264.496 359.601 265.547 360.39 265.547 361.703C265.547 363.017 264.496 363.805 263.446 363.805Z" fill="#D75AE4"/>
<path d="M242.953 128.408C245.581 128.408 247.42 126.306 247.42 123.942V93.4662C247.42 91.1018 245.318 89 242.953 89C240.589 89 238.487 91.1018 238.487 93.4662V123.942C238.487 126.306 240.589 128.408 242.953 128.408Z" fill="#FF4081"/>
<path d="M317.303 111.594C315.201 110.018 312.574 110.806 311.26 112.645L294.446 137.866C292.87 139.968 293.396 142.858 295.497 144.171C296.285 144.697 297.074 144.96 297.862 144.96C299.438 144.96 300.752 144.171 301.54 142.858L318.354 117.637C319.93 115.798 319.405 112.908 317.303 111.594Z" fill="#FF4081"/>
<path d="M189.621 143.909C190.409 143.909 191.198 143.646 191.986 143.121C194.087 141.807 194.613 138.917 193.299 136.815L177.011 111.332C175.697 109.23 172.807 108.704 170.705 110.018C168.604 111.332 168.078 114.221 169.392 116.323L185.68 141.807C186.731 143.383 188.045 143.909 189.621 143.909Z" fill="#FF4081"/>
<path d="M157.832 171.757L131.297 157.307C129.196 156.256 126.306 157.044 125.255 159.146C123.941 161.248 124.729 164.138 127.094 165.189L153.629 179.638C154.417 179.901 154.942 180.164 155.73 180.164C157.307 180.164 158.883 179.376 159.671 177.799C160.722 175.698 159.934 172.808 157.832 171.757Z" fill="#FF4081"/>
<path d="M360.915 159.146C359.864 157.044 356.974 156.256 354.872 157.307L328.075 171.757C325.973 172.808 325.185 175.698 326.235 177.799C327.024 179.376 328.6 180.164 330.176 180.164C330.964 180.164 331.753 179.901 332.278 179.638L359.075 165.189C361.177 164.138 361.965 161.248 360.915 159.146Z" fill="#FF4081"/>
<defs>
<linearGradient id="paint0_linear" x1="32.6689" y1="147.9" x2="399.946" y2="315.71" gradientUnits="userSpaceOnUse">
<stop stop-color="#9CDCFF"/>
<stop offset="0.1337" stop-color="#96D3F8"/>
<stop offset="0.3499" stop-color="#84BBE6"/>
<stop offset="0.6216" stop-color="#6894C9"/>
<stop offset="0.9354" stop-color="#425FA1"/>
<stop offset="1" stop-color="#395398"/>
</linearGradient>
<linearGradient id="paint1_linear" x1="-0.852463" y1="254.737" x2="463.694" y2="234.883" gradientUnits="userSpaceOnUse">
<stop stop-color="#B620B4"/>
<stop offset="0.2281" stop-color="#AD23B5"/>
<stop offset="0.5966" stop-color="#952BB8"/>
<stop offset="1" stop-color="#7437BC"/>
</linearGradient>
<radialGradient id="paint2_radial" cx="0" cy="0" r="1" gradientUnits="userSpaceOnUse" gradientTransform="translate(1.71679 481.34) scale(628.12)">
<stop stop-color="#B620B4"/>
<stop offset="0.1576" stop-color="#A227B6"/>
<stop offset="0.4486" stop-color="#7437BC"/>
<stop offset="0.5839" stop-color="#623FB1"/>
<stop offset="0.8496" stop-color="#444E9F"/>
<stop offset="1" stop-color="#395398"/>
</radialGradient>
</defs>
</svg>
