<?xml version="1.0" encoding="utf-8"?>
<!-- Generator: Adobe Illustrator 23.0.4, SVG Export Plug-In . SVG Version: 6.00 Build 0)  -->
<svg version="1.1" id="Calculator" xmlns="http://www.w3.org/2000/svg" xmlns:xlink="http://www.w3.org/1999/xlink" x="0px" y="0px"
	 viewBox="0 0 236.6 333.5" style="enable-background:new 0 0 236.6 333.5;" xml:space="preserve">
<style type="text/css">
	.st0{fill:#FFC727;}
	.st1{opacity:0.1;}
	.st2{fill:#FFFFFF;}
	.st3{fill:#37474F;}
	.st4{fill:#455A64;}
</style>
<g>
	<rect x="25.1" y="9" class="st0" width="202" height="314.1"/>
	<rect x="10.4" y="9" class="st0" width="202" height="314.1"/>
	<rect x="10.4" y="9" class="st1" width="202" height="314.1"/>
	<g>
		<rect x="26" y="89.1" class="st2" width="38.9" height="38.9"/>
		<rect x="70" y="89.1" class="st2" width="38.9" height="38.9"/>
		<rect x="114.1" y="89.1" class="st0" width="38.9" height="38.9"/>
		<rect x="158.1" y="89.1" class="st0" width="38.9" height="38.9"/>
		<rect x="26" y="133.7" class="st3" width="38.9" height="38.9"/>
		<rect x="70" y="133.7" class="st3" width="38.9" height="38.9"/>
		<rect x="114.1" y="133.7" class="st3" width="38.9" height="38.9"/>
		<rect x="158.1" y="133.9" class="st2" width="38.9" height="38.9"/>
		<rect x="26" y="178.2" class="st3" width="38.9" height="38.9"/>
		<rect x="70" y="178.2" class="st3" width="38.9" height="38.9"/>
		<rect x="114.1" y="178.2" class="st3" width="38.9" height="38.9"/>
		<rect x="158.1" y="178.2" class="st2" width="38.9" height="38.9"/>
		<rect x="26" y="222.8" class="st3" width="38.9" height="38.9"/>
		<rect x="70" y="222.8" class="st3" width="38.9" height="38.9"/>
		<rect x="114.1" y="222.8" class="st3" width="38.9" height="38.9"/>
		<rect x="158.1" y="222.8" class="st2" width="38.9" height="38.9"/>
		<rect x="26" y="267.3" class="st3" width="38.9" height="38.9"/>
		<rect x="70" y="267.3" class="st3" width="38.9" height="38.9"/>
		<rect x="114.1" y="267.3" class="st2" width="38.9" height="38.9"/>
		<rect x="158.1" y="267.3" class="st2" width="38.9" height="38.9"/>
		<g>
			<path class="st3" d="M39.7,104.8L39.7,104.8c0-1.6,1.1-2.9,2.7-2.9c1.6,0,2.7,1.3,2.7,2.9v0c0,1.6-1.1,2.9-2.7,2.9
				C40.7,107.6,39.7,106.3,39.7,104.8z M43.6,104.8L43.6,104.8c0-0.9-0.5-1.7-1.2-1.7c-0.8,0-1.2,0.7-1.2,1.6v0
				c0,0.9,0.5,1.6,1.2,1.6C43.1,106.4,43.6,105.6,43.6,104.8z M41.5,112.3l7.4-10.1c0.1-0.2,0.3-0.3,0.5-0.3c0.4,0,0.6,0.3,0.6,0.6
				c0,0.2-0.1,0.3-0.1,0.4l-7.4,10.1c-0.1,0.2-0.3,0.3-0.6,0.3c-0.4,0-0.6-0.3-0.6-0.6C41.4,112.6,41.4,112.4,41.5,112.3z
				 M46.5,110.5L46.5,110.5c0-1.6,1.1-2.9,2.7-2.9c1.6,0,2.7,1.3,2.7,2.9v0c0,1.6-1.1,2.9-2.7,2.9C47.6,113.4,46.5,112.1,46.5,110.5
				z M50.4,110.5L50.4,110.5c0-0.9-0.5-1.7-1.2-1.7c-0.8,0-1.2,0.7-1.2,1.6v0c0,0.9,0.5,1.6,1.2,1.6C50,112.2,50.4,111.4,50.4,110.5
				z"/>
		</g>
		<g>
			<path class="st3" d="M123.6,107.5c0-3.2,2.7-5.8,5.9-5.8c1.4,0,2.7,0.5,3.7,1.3c0.4,0.3,0.5,0.9,0.2,1.3
				c-0.3,0.4-0.9,0.5-1.3,0.2c-0.7-0.6-1.6-0.9-2.6-0.9c-1.1,0-2.2,0.5-2.9,1.2c-0.7,0.7-1.2,1.7-1.2,2.8s0.5,2.1,1.2,2.8
				c0.8,0.7,1.8,1.2,2.9,1.2c1,0,1.9-0.3,2.6-0.9c0.4-0.3,1-0.2,1.3,0.2c0.3,0.4,0.2,1-0.2,1.3c-1,0.8-2.3,1.3-3.7,1.3
				C126.3,113.3,123.7,110.7,123.6,107.5z"/>
			<path class="st3" d="M136.6,112.4v-9.5c0-0.5,0.4-0.9,0.9-0.9h0c0,0,0,0,0,0h5.2c0.5,0,0.9,0.4,0.9,0.9c0,0.5-0.4,0.9-0.9,0.9
				h-4.4v3h3.8c0.5,0,0.9,0.4,0.9,0.9c0,0.5-0.4,0.9-0.9,0.9h-3.8v3h4.4c0.5,0,0.9,0.4,0.9,0.9c0,0.5-0.4,0.9-0.9,0.9h-5.2
				c0,0,0,0,0,0l0,0C137,113.3,136.6,112.9,136.6,112.4z"/>
		</g>
		<g>
			<path class="st3" d="M172.5,107.5c0-3.2,2.7-5.8,5.9-5.8c1.4,0,2.7,0.5,3.7,1.3c0.4,0.3,0.5,0.9,0.2,1.3
				c-0.3,0.4-0.9,0.5-1.3,0.2c-0.7-0.6-1.6-0.9-2.6-0.9c-1.1,0-2.2,0.5-2.9,1.2c-0.7,0.7-1.2,1.7-1.2,2.8s0.5,2.1,1.2,2.8
				c0.8,0.7,1.8,1.2,2.9,1.2c1,0,1.9-0.3,2.6-0.9c0.4-0.3,1-0.2,1.3,0.2c0.3,0.4,0.2,1-0.2,1.3c-1,0.8-2.3,1.3-3.7,1.3
				C175.2,113.3,172.5,110.7,172.5,107.5z"/>
		</g>
		<g>
			<path class="st2" d="M49,148.6l-4,9.6c-0.1,0.3-0.5,0.5-0.8,0.5c-0.1,0-0.2,0-0.3-0.1c-0.5-0.2-0.7-0.7-0.5-1.2l3.5-8.3h-4.2
				c-0.5,0-0.9-0.4-0.9-0.9c0-0.5,0.4-0.9,0.9-0.9h5.5c0,0,0.1,0,0.2,0c0.1,0,0.2,0.1,0.3,0.1c0,0,0,0,0,0c0,0,0,0,0.1,0.1
				c0,0,0,0,0.1,0.1c0,0,0,0,0,0.1c0,0,0,0.1,0,0.1c0,0,0,0,0.1,0.1c0,0,0,0.1,0,0.1c0,0,0,0,0,0.1c0,0.1,0,0.2,0,0.4
				C49,148.5,49,148.6,49,148.6z"/>
		</g>
		<g>
			<path class="st2" d="M93,154.9c0,2.1-1.7,3.8-3.8,3.8c-2.1,0-3.9-1.7-3.9-3.8c0-1.3,0.7-2.5,1.7-3.2c-0.3-0.4-0.5-1-0.5-1.6
				c0-1.5,1.2-2.7,2.7-2.7c1.5,0,2.7,1.2,2.7,2.7c0,0.6-0.2,1.2-0.5,1.6C92.3,152.4,93,153.5,93,154.9z M91.2,154.9
				c0-1.1-0.9-2.1-2.1-2.1c-1.2,0-2.1,1-2.1,2.1c0,1.1,1,2.1,2.1,2.1C90.3,157,91.2,156,91.2,154.9z M88.2,150.1
				c0,0.5,0.4,0.9,0.9,0.9c0.5,0,0.9-0.4,0.9-0.9c0-0.5-0.4-0.9-0.9-0.9C88.6,149.2,88.2,149.6,88.2,150.1z"/>
		</g>
		<g>
			<path class="st2" d="M129.4,151.3c0-2.2,1.8-3.9,3.9-3.9c2,0,3.7,1.5,3.9,3.5c0,0,0,0,0,0c0,0.3,0,0.6,0,0.9
				c0,1.1-0.2,2.2-0.6,3.3c-0.4,1.1-1.1,2.1-2.1,2.8c-0.7,0.5-1.5,0.7-2.4,0.8c-0.5,0-0.9-0.4-0.9-0.9c0-0.5,0.4-0.9,0.9-0.9
				c0.6,0,1.1-0.2,1.5-0.5c0.4-0.3,0.7-0.6,1-1.1c0.1-0.1,0.1-0.3,0.2-0.4c-0.5,0.2-1,0.3-1.6,0.3
				C131.1,155.2,129.4,153.5,129.4,151.3z M131.2,151.3c0,1.2,1,2.1,2.1,2.1c1.2,0,2.1-1,2.1-2.1c0-1.2-0.9-2.1-2.1-2.1
				C132.1,149.2,131.2,150.1,131.2,151.3z"/>
		</g>
		<g>
			<path class="st3" d="M174,153.4c0-0.5,0.4-1,1-1h5c0.5,0,1,0.4,1,1c0,0.5-0.4,1-1,1h-5C174.5,154.3,174,153.9,174,153.4z"/>
		</g>
		<g>
			<path class="st2" d="M49.8,200c0,0.5-0.4,0.9-0.9,0.9h-0.2v1.2c0,0.5-0.4,0.9-0.9,0.9c-0.5,0-0.9-0.4-0.9-0.9v-1.2h-5.1h0h0
				c-0.2,0-0.4,0-0.6-0.2c-0.4-0.3-0.5-0.9-0.1-1.2l6-7.4c0,0,0,0,0,0c0,0,0,0,0-0.1c0,0,0.1,0,0.1,0c0,0,0,0,0.1,0c0,0,0,0,0.1,0
				c0,0,0,0,0.1,0c0,0,0,0,0.1,0c0,0,0,0,0.1,0c0,0,0.1,0,0.1,0c0,0,0,0,0,0c0,0,0,0,0,0c0,0,0.1,0,0.1,0c0,0,0,0,0.1,0
				c0,0,0.1,0,0.1,0c0,0,0,0,0.1,0c0,0,0.1,0,0.1,0.1c0,0,0,0,0.1,0c0,0,0,0,0,0c0,0,0,0,0,0c0,0,0,0,0.1,0.1c0,0,0,0,0,0.1
				c0,0,0,0,0.1,0.1c0,0,0,0,0,0.1c0,0,0,0,0,0.1c0,0,0,0,0,0.1c0,0,0,0,0,0.1c0,0,0,0,0,0.1c0,0,0,0,0,0v6.5h0.2
				C49.4,199.1,49.8,199.5,49.8,200z M46.9,195.1l-3.2,4h3.2V195.1z"/>
		</g>
		<g>
			<path class="st2" d="M91.6,196.1c0.8,0.8,1.2,1.8,1.2,2.8c0,1-0.4,2.1-1.2,2.8c-0.8,0.8-1.8,1.2-2.8,1.2c0,0,0,0,0,0
				c-1,0-2.1-0.4-2.8-1.2c-0.4-0.3-0.4-0.9,0-1.3c0.3-0.4,0.9-0.4,1.3,0c0.4,0.4,1,0.6,1.6,0.6c0.6,0,1.1-0.2,1.5-0.6
				c0.4-0.4,0.6-1,0.6-1.5c0-0.6-0.2-1.1-0.6-1.6c-0.4-0.4-1-0.6-1.5-0.6c-0.5,0-1.1,0.2-1.6,0.6c-0.4,0.4-0.9,0.4-1.3,0
				c-0.1-0.1-0.1-0.1-0.2-0.2c0,0,0,0,0,0c0,0,0-0.1,0-0.1c0,0,0-0.1,0-0.1c0,0,0,0,0,0c0-0.1,0-0.2,0-0.3l0.5-4.2
				c0-0.3,0.2-0.5,0.4-0.6c0,0,0,0,0.1,0c0,0,0,0,0,0c0.1-0.1,0.3-0.1,0.4-0.1h4.8c0.5,0,0.9,0.4,0.9,0.9c0,0.5-0.4,0.9-0.9,0.9h-4
				l-0.2,1.6c0.4-0.1,0.7-0.1,1.1-0.1C89.8,195,90.8,195.4,91.6,196.1z"/>
		</g>
		<g>
			<path class="st2" d="M137.2,199.1c0,2.2-1.8,3.9-3.9,3.9c-2,0-3.7-1.5-3.9-3.5c0,0,0,0,0,0c0-0.3,0-0.6,0-0.9
				c0-1.1,0.2-2.2,0.6-3.3c0.4-1.1,1.1-2.1,2.1-2.8c0.7-0.5,1.5-0.7,2.4-0.8c0.5,0,0.9,0.4,0.9,0.9c0,0.5-0.4,0.9-0.9,0.9
				c-0.6,0-1.1,0.2-1.5,0.5c-0.4,0.3-0.7,0.6-1,1.1c-0.1,0.1-0.1,0.3-0.2,0.4c0.5-0.2,1-0.3,1.6-0.3
				C135.4,195.2,137.2,196.9,137.2,199.1z M135.4,199.1c0-1.2-1-2.1-2.1-2.1c-1.2,0-2.1,1-2.1,2.1c0,1.2,0.9,2.1,2.1,2.1
				C134.5,201.2,135.4,200.3,135.4,199.1z"/>
		</g>
		<g>
			<path class="st3" d="M174.4,198.2c-0.5,0-0.8-0.4-0.8-0.8c0-0.5,0.4-0.8,0.8-0.8h6.5c0.5,0,0.8,0.4,0.8,0.8
				c0,0.5-0.4,0.8-0.8,0.8H174.4z M178.8,193.9L178.8,193.9c0,0.7-0.5,1.2-1.1,1.2c-0.6,0-1.1-0.5-1.1-1.1v-0.1
				c0-0.6,0.5-1.1,1.1-1.1C178.3,192.8,178.8,193.3,178.8,193.9z M178.8,200.6L178.8,200.6c0,0.7-0.5,1.1-1.1,1.1
				c-0.6,0-1.1-0.5-1.1-1.1v-0.1c0-0.6,0.5-1.1,1.1-1.1C178.3,199.6,178.8,200,178.8,200.6z"/>
		</g>
		<g>
			<path class="st2" d="M47.1,237.1v9.5c0,0.5-0.4,0.9-0.9,0.9c-0.5,0-0.9-0.4-0.9-0.9v-8l-0.6,0.4c-0.1,0.1-0.3,0.1-0.5,0.1
				c-0.3,0-0.6-0.2-0.8-0.5c-0.3-0.4-0.1-1,0.3-1.2l2-1.2c0,0,0,0,0.1,0c0,0,0,0,0.1,0c0,0,0.1,0,0.1,0c0,0,0,0,0.1,0
				c0,0,0.1,0,0.1,0c0,0,0,0,0,0h0c0,0,0.1,0,0.1,0c0,0,0,0,0.1,0c0,0,0.1,0,0.1,0c0,0,0,0,0.1,0c0,0,0.1,0,0.1,0c0,0,0,0,0.1,0
				c0,0,0,0,0.1,0c0,0,0,0,0.1,0.1c0,0,0,0,0,0.1c0,0,0,0,0.1,0.1l0,0c0,0,0,0,0,0c0,0,0,0,0,0.1c0,0,0,0.1,0,0.1c0,0,0,0.1,0,0.1
				C47.1,237,47.1,237.1,47.1,237.1C47.1,237.1,47.1,237.1,47.1,237.1z"/>
		</g>
		<g>
			<path class="st2" d="M93.1,246.7c0,0.5-0.4,0.9-0.9,0.9h-5.7c0,0,0,0,0,0h0c-0.2,0-0.5-0.1-0.7-0.3c-0.3-0.4-0.3-0.9,0-1.3
				l4.8-4.3c0.5-0.4,0.7-1,0.7-1.6c0-0.5-0.2-1-0.5-1.4c-0.4-0.5-1-0.7-1.6-0.7c-0.5,0-1,0.2-1.4,0.5l-0.5,0.5
				c-0.4,0.3-0.9,0.3-1.3-0.1c-0.3-0.4-0.3-0.9,0.1-1.3l0.5-0.5c0.7-0.7,1.7-1,2.6-1c1.1,0,2.1,0.4,2.9,1.3c0.7,0.7,1,1.7,1,2.6
				c0,1.1-0.4,2.1-1.3,2.9l-3.1,2.8h3.4C92.7,245.8,93.1,246.2,93.1,246.7z"/>
		</g>
		<g>
			<path class="st2" d="M135.7,240.7c0.8,0.8,1.2,1.8,1.2,2.8c0,1-0.4,2.1-1.2,2.8c-0.8,0.8-1.8,1.2-2.8,1.2c-1,0-2.1-0.4-2.8-1.2
				c-0.4-0.4-0.4-0.9,0-1.3c0.4-0.4,0.9-0.4,1.3,0c0.4,0.4,1,0.6,1.5,0.6c0.6,0,1.1-0.2,1.6-0.6c0.4-0.4,0.6-1,0.6-1.6
				c0-0.6-0.2-1.1-0.6-1.5c-0.4-0.4-1-0.6-1.5-0.6c-0.3,0-0.5-0.1-0.7-0.3c0,0,0,0,0,0c-0.4-0.4-0.4-0.9,0-1.3l1.7-1.7h-2.6
				c-0.5,0-0.9-0.4-0.9-0.9c0-0.5,0.4-0.9,0.9-0.9h4.8c0.5,0,0.9,0.4,0.9,0.9c0,0.2,0,0.3-0.1,0.4c0,0.1-0.1,0.2-0.2,0.2l-2,2.1
				C135,240.1,135.4,240.4,135.7,240.7z"/>
		</g>
		<g>
			<path class="st3" d="M180.2,240.9l-1.9,2.7l1.9,2.7c0.3,0.4,0.2,0.9-0.2,1.2c-0.2,0.1-0.3,0.2-0.5,0.2c-0.3,0-0.5-0.1-0.7-0.4
				l-1.6-2.2l-1.6,2.2c-0.2,0.2-0.4,0.4-0.7,0.4c-0.2,0-0.4-0.1-0.5-0.2c-0.4-0.2-0.5-0.8-0.2-1.2l1.9-2.7l-1.9-2.7
				c-0.3-0.3-0.2-0.9,0.2-1.1c0.4-0.3,0.9-0.2,1.2,0.2l1.6,2.2l1.6-2.2c0.3-0.4,0.8-0.5,1.2-0.2C180.4,240,180.5,240.6,180.2,240.9z
				"/>
		</g>
		<g>
			<path class="st2" d="M46.1,289.8c0.7,0,1.2,0.5,1.2,1.2c0,0.7-0.5,1.2-1.2,1.2c-0.7,0-1.2-0.5-1.2-1.2
				C44.9,290.4,45.4,289.8,46.1,289.8z"/>
		</g>
		<g>
			<path class="st2" d="M84.8,286.5c0-1.5,0.4-2.8,1.1-3.9c0.7-1,1.7-1.8,3-1.8c1.2,0,2.3,0.8,3,1.8c0.7,1,1.1,2.4,1.1,3.9
				c0,1.5-0.4,2.8-1.1,3.9c-0.7,1-1.7,1.8-3,1.8c-1.3,0-2.3-0.8-3-1.8C85.2,289.3,84.8,287.9,84.8,286.5z M91.2,286.5
				c0-1.2-0.3-2.2-0.8-2.9c-0.5-0.7-1-1-1.5-1c-0.5,0-1.1,0.3-1.5,1c-0.5,0.7-0.8,1.7-0.8,2.9c0,1.1,0.3,2.2,0.8,2.9
				c0.5,0.7,1,1,1.5,1c0.5,0,1-0.3,1.5-1C90.8,288.6,91.2,287.6,91.2,286.5z"/>
		</g>
		<g>
			<path class="st3" d="M130.1,285.3c0-0.5,0.4-0.9,1-0.9h5c0.5,0,0.9,0.4,0.9,0.9c0,0.5-0.4,0.9-0.9,0.9h-5
				C130.5,286.2,130.1,285.8,130.1,285.3z M130.1,288.3c0-0.5,0.4-1,1-1h5c0.5,0,0.9,0.4,0.9,1c0,0.5-0.4,1-0.9,1h-5
				C130.5,289.2,130.1,288.8,130.1,288.3z"/>
		</g>
		<g>
			<path class="st3" d="M176.7,287.3h-2.3c-0.5,0-0.9-0.4-0.9-0.9c0-0.5,0.4-0.9,0.9-0.9h2.3v-2.2c0-0.5,0.4-0.9,0.9-0.9
				c0.5,0,0.9,0.4,0.9,0.9v2.2h2.3c0.5,0,0.9,0.4,0.9,0.9c0,0.5-0.4,0.9-0.9,0.9h-2.3v2.2c0,0.5-0.4,0.9-0.9,0.9
				c-0.5,0-0.9-0.4-0.9-0.9V287.3z"/>
		</g>
		<g>
			<path class="st3" d="M95,103c0,0.4-0.3,0.7-0.7,0.7h-2c-0.8,2.4-3,8.5-3.5,10.2c-0.1,0.2-0.2,0.4-0.4,0.5
				c-0.1,0.1-0.3,0.2-0.5,0.2c-0.2,0-0.5-0.1-0.6-0.3c0,0-2.2-2.1-2.8-2.9c-1-1.1-0.5-1.6-0.4-1.7c0.1-0.1,0.3-0.1,0.4-0.1
				c0.2,0,0.4,0.1,0.6,0.2c0.3,0.3,0.5,0.5,0.7,0.7c0.2,0.2,0.4,0.4,0.6,0.6c0.2,0.2,0.4,0.4,0.6,0.6c0.2,0.2,0.4,0.4,0.6,0.6
				c0.5-1.6,2.8-8.1,3.4-9.7v0c0.1-0.1,0.1-0.2,0.2-0.2c0.1-0.1,0.3-0.2,0.5-0.2h2.7C94.7,102.4,95,102.7,95,103z"/>
		</g>
	</g>
	<g>
		<rect x="26" y="25.6" class="st4" width="170.9" height="40.9"/>
		<g>
			<path class="st2" d="M119.8,37.9v15.9c0,0.8-0.7,1.5-1.5,1.5c-0.8,0-1.5-0.6-1.5-1.5V40.5l-1.1,0.6c-0.2,0.2-0.5,0.2-0.8,0.2
				c-0.5,0-1-0.3-1.3-0.8c-0.5-0.7-0.2-1.6,0.5-2l3.3-2c0,0,0.1,0,0.1-0.1c0.1,0,0.1-0.1,0.1-0.1c0.1,0,0.1,0,0.2,0c0,0,0.1,0,0.1,0
				c0.1,0,0.1,0,0.2,0c0,0,0.1,0,0.1,0h0c0.1,0,0.1,0,0.2,0c0,0,0.1,0,0.1,0c0.1,0,0.1,0,0.2,0.1c0,0,0.1,0,0.1,0
				c0.1,0.1,0.1,0.1,0.2,0.1c0,0,0.1,0.1,0.1,0.1c0,0,0.1,0.1,0.1,0.1c0.1,0,0.1,0.1,0.1,0.1c0,0,0.1,0.1,0.1,0.1
				c0,0,0.1,0.1,0.1,0.1l0,0.1c0,0,0,0.1,0,0.1c0,0.1,0.1,0.1,0.1,0.1c0,0.1,0,0.1,0.1,0.1c0,0.1,0,0.1,0,0.1
				C119.7,37.7,119.7,37.7,119.8,37.9C119.8,37.8,119.8,37.8,119.8,37.9z"/>
			<path class="st2" d="M135.4,53.8c0,0.8-0.6,1.5-1.5,1.5h-9.6c0,0,0,0,0,0h0c-0.4,0-0.8-0.2-1.1-0.5c-0.6-0.6-0.5-1.5,0.1-2.1
				l8-7.2c0.8-0.7,1.1-1.6,1.1-2.6c0-0.9-0.3-1.7-0.9-2.3c-0.7-0.8-1.6-1.1-2.6-1.1c-0.8,0-1.7,0.3-2.3,0.9l-0.8,0.8
				c-0.6,0.6-1.5,0.5-2.1-0.1c-0.5-0.6-0.5-1.5,0.1-2.1l0.8-0.8c1.2-1.1,2.8-1.7,4.3-1.7c1.8,0,3.5,0.7,4.8,2.1
				c1.1,1.2,1.7,2.8,1.7,4.3c0,1.8-0.7,3.5-2.1,4.8l-5.1,4.6h5.8C134.8,52.3,135.4,52.9,135.4,53.8z"/>
			<path class="st2" d="M149.4,43.8c1.3,1.3,2,3,2,4.7c0,1.7-0.6,3.4-2,4.8c-1.3,1.3-3,2-4.8,2c-1.7,0-3.4-0.7-4.7-2
				c-0.6-0.6-0.6-1.6,0-2.2c0.6-0.6,1.6-0.6,2.2,0c0.7,0.7,1.6,1.1,2.6,1.1c0.9,0,1.9-0.4,2.6-1.1c0.7-0.7,1.1-1.6,1.1-2.6
				s-0.4-1.9-1.1-2.6c-0.7-0.7-1.6-1.1-2.6-1.1c-0.4,0-0.8-0.2-1.1-0.5c0,0,0,0,0,0c-0.6-0.6-0.6-1.5-0.1-2.2l2.8-2.8h-4.4
				c-0.8,0-1.5-0.7-1.5-1.5c0-0.8,0.7-1.5,1.5-1.5h8c0.9,0,1.5,0.7,1.5,1.5c0,0.3-0.1,0.5-0.2,0.7c-0.1,0.1-0.2,0.3-0.3,0.4
				l-3.4,3.5C148.2,42.8,148.8,43.2,149.4,43.8z"/>
			<path class="st2" d="M170,50.2c0,0.8-0.7,1.5-1.5,1.5h-0.3v2.1c0,0.8-0.6,1.5-1.5,1.5c-0.8,0-1.5-0.6-1.5-1.5v-2.1h-8.4h0h0
				c-0.3,0-0.6-0.1-0.9-0.3c-0.7-0.5-0.8-1.4-0.2-2.1l10-12.4c0,0,0,0,0.1-0.1c0,0,0.1-0.1,0.1-0.1c0.1,0,0.1-0.1,0.1-0.1
				c0,0,0.1-0.1,0.1-0.1c0.1,0,0.1-0.1,0.2-0.1c0-0.1,0.1-0.1,0.1-0.1c0,0,0.1,0,0.2-0.1c0,0,0.1,0,0.1,0c0.1,0,0.1,0,0.2,0
				c0,0,0,0,0.1,0c0,0,0,0,0.1,0c0.1,0,0.1,0,0.2,0c0.1,0,0.1,0,0.1,0c0,0,0.1,0,0.2,0.1c0,0,0.1,0,0.1,0c0.1,0.1,0.1,0.1,0.1,0.1
				c0.1,0,0.1,0.1,0.1,0.1c0,0,0,0,0,0c0,0,0.1,0,0.1,0.1c0.1,0.1,0.1,0.1,0.1,0.1c0,0,0.1,0.1,0.1,0.1c0,0,0.1,0.1,0.1,0.1
				c0,0,0,0.1,0.1,0.1c0,0.1,0,0.1,0.1,0.2c0,0,0,0.1,0,0.1c0,0.1,0,0.1,0,0.2c0,0.1,0,0.1,0,0.1c0,0,0,0.1,0,0.1v10.9h0.3
				C169.4,48.8,170,49.4,170,50.2z M165.3,42.1l-5.4,6.7h5.4V42.1z"/>
			<path class="st2" d="M183.5,43.8c1.3,1.3,2,3,2,4.8c0,1.7-0.7,3.4-2,4.7c-1.3,1.3-3,2-4.7,2c-0.1,0-0.1,0-0.1,0
				c-1.7,0-3.4-0.6-4.7-2c-0.6-0.6-0.6-1.5,0-2.2c0.6-0.6,1.6-0.6,2.2,0c0.7,0.7,1.6,1.1,2.6,1.1c0.9,0,1.9-0.4,2.6-1.1
				c0.7-0.7,1.1-1.6,1.1-2.6c0-1-0.4-1.9-1.1-2.6c-0.7-0.7-1.6-1.1-2.6-1.1c-0.9,0-1.9,0.3-2.6,1.1c-0.6,0.6-1.6,0.6-2.2,0
				c-0.1-0.1-0.2-0.2-0.3-0.4c0-0.1,0-0.1,0-0.1c0-0.1,0-0.1-0.1-0.1c0-0.1,0-0.1,0-0.2c0,0,0,0,0-0.1c0-0.2,0-0.3,0-0.5l0.8-7
				c0.1-0.5,0.3-0.8,0.7-1.1c0.1,0,0.1,0,0.1-0.1c0,0,0.1,0,0.1-0.1c0.2-0.1,0.4-0.2,0.7-0.2h8c0.9,0,1.5,0.7,1.5,1.5
				c0,0.8-0.7,1.5-1.5,1.5h-6.6l-0.3,2.7c0.6-0.2,1.2-0.2,1.8-0.2C180.5,41.9,182.2,42.5,183.5,43.8z"/>
		</g>
	</g>
</g>
</svg>
