<?xml version="1.0" encoding="utf-8"?>
<!-- Generator: Adobe Illustrator 23.0.4, SVG Export Plug-In . SVG Version: 6.00 Build 0)  -->
<svg version="1.1" id="PRINT_2" xmlns="http://www.w3.org/2000/svg" xmlns:xlink="http://www.w3.org/1999/xlink" x="0px" y="0px"
	 viewBox="0 0 240.9 153.1" style="enable-background:new 0 0 240.9 153.1;" xml:space="preserve">
<style type="text/css">
	.st0{display:none;clip-path:url(#SVGID_2_);fill-rule:evenodd;clip-rule:evenodd;fill:url(#SVGID_3_);}
	.st1{clip-path:url(#SVGID_2_);}
	.st2{clip-path:url(#SVGID_2_);fill-rule:evenodd;clip-rule:evenodd;fill:url(#SVGID_4_);}
	.st3{display:none;}
	.st4{display:inline;}
	.st5{fill:#F2F2F1;}
	.st6{fill:#263238;}
	.st7{fill:#E4E3E2;}
	.st8{fill:#B3B1AD;}
	.st9{fill:#DF9D87;}
	.st10{fill:#395865;}
	.st11{fill:#343F46;}
	.st12{fill:#344B55;}
	.st13{fill:#F0C813;}
	.st14{opacity:0.6;fill:#070809;}
	.st15{fill:#DB93B2;}
	.st16{opacity:0.2;}
	.st17{fill:#070809;}
	.st18{opacity:0.3;fill:#070809;}
	.st19{opacity:0.2;fill:#070809;}
	.st20{opacity:0.1;}
	.st21{fill:#C97061;}
	.st22{fill:#FFFEFE;}
</style>
<g>
	<g>
		<defs>
			<rect id="SVGID_1_" x="-8.8" y="-8.6" width="258.3" height="170.1"/>
		</defs>
		<clipPath id="SVGID_2_">
			<use xlink:href="#SVGID_1_"  style="overflow:visible;"/>
		</clipPath>
		<linearGradient id="SVGID_3_" gradientUnits="userSpaceOnUse" x1="-6.9412" y1="158.7657" x2="251.1788" y2="-8.4485">
			<stop  offset="0" style="stop-color:#F2D039"/>
			<stop  offset="1" style="stop-color:#D88428"/>
		</linearGradient>
		<rect x="-8.8" y="-8.5" class="st0" width="258.3" height="169.7"/>
		<g class="st1">
			
				<image style="overflow:visible;" width="711" height="530" xlink:href="A34A1BB705E8E67A.png"  transform="matrix(0.24 0 0 0.24 -58.7425 38.1931)">
			</image>
		</g>
		<g class="st1">
			
				<image style="overflow:visible;" width="986" height="547" xlink:href="A34A1BB705E8E679.png"  transform="matrix(0.24 0 0 0.24 49.2575 79.2331)">
			</image>
		</g>
		
			<linearGradient id="SVGID_4_" gradientUnits="userSpaceOnUse" x1="74.2344" y1="417.0152" x2="381.5814" y2="417.0152" gradientTransform="matrix(0.9763 0.2166 -0.2166 0.9763 -5.6734 -332.5381)">
			<stop  offset="0" style="stop-color:#F2D039"/>
			<stop  offset="1" style="stop-color:#D88428"/>
		</linearGradient>
		<path class="st2" d="M269.2,110.9c-31.2,11.2-71.1,24.6-90.8,29.9c-204.8,54.9-8.9-119.1-196-76.4l-15.9,71.6
			c32.4-25.4,99.4-63,106-14.3c2.5,18.3,4.2,32.6,34.6,43.7c13.1,4.8,34,9.6,64.5,12c18.9,1.5,71.9,2.7,100.2,1.8L269.2,110.9z"/>
	</g>
</g>
<g class="st3">
	<g class="st4">
		<ellipse class="st5" cx="130" cy="143.4" rx="95.2" ry="8.3"/>
	</g>
	<g class="st4">
		<polygon class="st6" points="33.6,126.1 57.7,125.9 81.8,125.7 130.1,125.6 178.3,125.7 202.4,125.9 226.5,126.1 202.4,126.4 
			178.3,126.5 130.1,126.6 81.8,126.5 57.7,126.4 		"/>
	</g>
	<g class="st4">
		<g>
			<g>
				<g>
					<polygon class="st7" points="80.7,92.4 81.7,98.5 88.6,135.6 89.7,135.6 84.7,98.5 84,92.4 					"/>
				</g>
			</g>
			<polygon class="st8" points="84,92.4 80.7,92.4 81.7,98.5 84.7,98.5 			"/>
		</g>
		<g>
			<g>
				<g>
					<polygon class="st7" points="59.1,135.6 60.2,135.6 67.1,98.5 68.1,92.4 64.8,92.4 64.1,98.5 					"/>
				</g>
			</g>
			<polygon class="st8" points="64.8,92.4 64.1,98.5 67.1,98.5 68.1,92.4 			"/>
		</g>
		<g>
			<g>
				<g>
					<polygon class="st7" points="38.5,135.6 39.6,135.6 46.4,98.5 47.5,92.4 44.2,92.4 43.5,98.5 					"/>
				</g>
			</g>
			<polygon class="st8" points="43.5,98.5 46.4,98.5 47.5,92.4 44.2,92.4 			"/>
		</g>
		<polygon class="st7" points="40.2,95.3 90.6,95.3 90.6,89.9 71.8,89.9 65.4,53 42.1,53 		"/>
		<polygon class="st8" points="40.2,95.3 43,95.3 44.8,53 42.1,53 		"/>
	</g>
	<g class="st4">
		<g>
			<g>
				<g>
					<g>
						<g>
							<path class="st9" d="M92.5,142.2c-1,0.1-28.4-6.3-29.3-7.1c-0.1-0.1,1.2-5.4,1.2-5.4c0.4-2.2,7.6-19.8,7.6-19.8l17.9,4.4
								l-7.6,16.4c0,0,3.4,2.3,6.3,4.5c0,0,0,0,0,0c1.8,1.4,3.4,2.6,3.7,3C93.3,139.2,93.5,142,92.5,142.2z"/>
							<path class="st5" d="M92.5,142.2c-1,0.1-28.4-6.3-29.3-7.1c-0.1-0.1,1.2-5.4,1.2-5.4c0.1-0.7,1-3.1,2.1-6l17.1,4l-1.4,3
								c0,0,3.4,2.3,6.3,4.5c0,0,0,0,0,0c1.8,1.3,3.4,2.6,3.7,3C93.3,139.2,93.5,142,92.5,142.2z"/>
						</g>
						<g>
							<path class="st10" d="M92.6,142.2c-1,0.1-28.6-6.1-29.5-7c-0.3-0.3,2.1-9.2,2.1-9.3l17.7,3.9l-0.1,0.3c0,0,8.9,6.8,9.8,7.9
								C93.4,139.2,93.6,142.1,92.6,142.2z"/>
							<g>
								<g>
									<path class="st11" d="M92.5,141.1c-4.6-1.2-23.4-5.4-28-6.2c0,0,0,0,0,0C69,136.2,87.8,140.3,92.5,141.1
										C92.6,141.2,92.6,141.1,92.5,141.1z"/>
									<path class="st11" d="M84.2,130.1c-1.8-0.8-4.1-1-5.7,0c-0.1,0,0,0.1,0.1,0.1c1.9-0.2,3.7-0.2,5.6,0.1
										C84.3,130.3,84.3,130.1,84.2,130.1z"/>
									<path class="st11" d="M85.3,131.2c-1.8-0.8-4.1-1-5.7,0c-0.1,0,0,0.1,0.1,0.1c1.9-0.2,3.7-0.2,5.6,0.1
										C85.4,131.4,85.5,131.2,85.3,131.2z"/>
									<path class="st11" d="M86.5,132.3c-1.8-0.8-4.1-1-5.7,0c-0.1,0,0,0.1,0.1,0.1c1.9-0.2,3.7-0.2,5.6,0.1
										C86.6,132.5,86.6,132.3,86.5,132.3z"/>
									<g>
										<path class="st11" d="M87.5,126.6c-0.5-1.2-1.9-1-2.8-0.5c-1.5,0.8-2.9,2.1-3.8,3.6c0,0,0,0.1,0,0.1
											c0,0.1,0.1,0.3,0.2,0.3c1.6-0.2,3.4-0.3,4.9-1C87,128.6,87.9,127.7,87.5,126.6z M83.6,129.2c-0.8,0.1-1.6,0.2-2.4,0.4
											c0.7-0.7,1.4-1.4,2.2-2c0.4-0.3,0.8-0.6,1.2-0.8c0.7-0.4,3-0.9,2.3,1C86.4,128.8,84.5,129,83.6,129.2z"/>
										<path class="st11" d="M76.3,128.1c1.4,1,3.1,1.3,4.7,1.9c0.2,0.1,0.3-0.1,0.3-0.2c0,0,0.1,0,0-0.1c-0.6-1.5-1.7-3.2-3-4.2
											c-0.8-0.6-2.2-1-2.9,0C74.7,126.5,75.5,127.6,76.3,128.1z M75.8,126.7c-0.4-2,1.8-1,2.4-0.6c0.4,0.3,0.7,0.7,1,1
											c0.7,0.8,1.2,1.6,1.8,2.4c-0.8-0.3-1.5-0.5-2.3-0.8C77.9,128.4,76,127.8,75.8,126.7z"/>
									</g>
								</g>
							</g>
						</g>
					</g>
					<g>
						<path class="st11" d="M83.7,130l-19.1-4.3c0,0,15.7-36.5,14.3-38.4c-0.7-0.9-18.4-1.2-24-6c-7.3-6.2-2.4-15.6-2.4-15.6
							l19.7-0.6c0,0-0.2,4.1,0.5,4.7c0.5,0.4,24,2.4,26.6,10.3C102.6,90,83.7,130,83.7,130z"/>
						<g>
							<path class="st12" d="M84.3,126.6c-0.5-0.2-5.4-1.6-6.5-1.9c-2.2-0.6-4.4-1.1-6.7-1.7c-1.2-0.3-3.7-0.9-3.8-0.9
								c-0.1,0-0.1,0.1,0,0.1c2.2,0.7,4.4,1.3,6.6,1.9c2.2,0.6,9.8,2.4,10.4,2.5C84.3,126.7,84.3,126.6,84.3,126.6z"/>
						</g>
						<path class="st12" d="M82.4,85.8c-0.4-0.3-1-0.4-1.5-0.5c-2.9-0.5-5.7-1-8.6-1.4c-2.7-0.4-5.3-0.8-8-1.4
							c-2.2-0.4-4.4-1-6.3-2.2c-1.9-1.2-3.2-3-3.9-5.1c-0.7-2.1-0.7-4.3-0.5-6.5c0.1-0.5,0.1-1.1,0.2-1.6c0,0-0.1-0.1-0.1,0
							c-0.7,4-0.8,8.7,2.2,12c1.5,1.6,3.5,2.5,5.6,3.1c2.3,0.7,4.8,1,7.2,1.4c2.9,0.5,5.7,1,8.6,1.4c1.4,0.2,2.8,0.4,4.1,0.7
							c0.3,0.1,0.6,0.1,0.7,0.3c0.3,0.3,0.2,0.7,0.1,1c-0.1,0.7-0.3,1.3-0.5,2c-1.6,5.3-12.1,30.6-12.4,31.2c0,0.1,0.1,0.1,0.1,0
							c2.6-4.7,10.2-24.2,12-29.2c0.4-1.3,0.8-2.6,1.1-3.9C82.7,86.7,82.8,86.1,82.4,85.8z"/>
					</g>
				</g>
				<g>
					<g>
						<path class="st9" d="M129.8,142.4c-1,0.3-28.3-0.1-29.4-0.7c-0.4-0.4-0.7-3.9-1-8.2l-4.7-18.7l17.6-0.1l5.2,18.6
							c0,0,3.8,1.6,7.1,3.2c0,0,0,0,0,0c2,1,3.8,1.8,4.2,2.2C129.9,139.4,130.8,142.1,129.8,142.4z"/>
						<g>
							<path class="st10" d="M130.4,142.5c-1,0.3-29.3,0.2-30.3-0.5c-0.4-0.3-0.6-4.4-0.8-9.3c0-0.1,0-0.1,0-0.2l18.2-0.1l0,0.3
								c0,0,10.8,4.9,11.9,5.8C130.5,139.3,131.4,142.1,130.4,142.5z"/>
							<g>
								<g>
									<path class="st11" d="M130.1,141.4c-4.8-0.1-24-0.3-28.7,0c0,0,0,0,0,0C106.1,141.6,125.3,141.6,130.1,141.4
										C130.2,141.4,130.2,141.4,130.1,141.4z"/>
									<path class="st11" d="M119.5,132.4c-1.9-0.4-4.2-0.1-5.6,1.2c-0.1,0.1,0,0.1,0.1,0.1c1.9-0.6,3.6-0.9,5.5-1.1
										C119.7,132.6,119.7,132.4,119.5,132.4z"/>
									<path class="st11" d="M120.9,133.2c-1.9-0.4-4.2-0.1-5.6,1.2c-0.1,0.1,0,0.1,0.1,0.1c1.9-0.6,3.6-0.9,5.5-1.1
										C121,133.5,121,133.3,120.9,133.2z"/>
									<path class="st11" d="M122.2,134.1c-1.9-0.4-4.2-0.1-5.6,1.2c-0.1,0.1,0,0.1,0.1,0.1c1.9-0.6,3.6-0.9,5.5-1.1
										C122.4,134.3,122.4,134.1,122.2,134.1z"/>
									<g>
										<path class="st11" d="M122,128.3c-0.7-1-2.1-0.6-2.9,0.1c-1.3,1.1-2.4,2.7-2.9,4.3c0,0,0,0.1,0,0.1c0,0.1,0.1,0.3,0.3,0.2
											c1.6-0.6,3.3-1,4.6-2C121.9,130.4,122.7,129.3,122,128.3z M118.7,131.7c-0.8,0.3-1.5,0.6-2.3,0.9c0.6-0.8,1.1-1.7,1.8-2.5
											c0.3-0.4,0.6-0.7,1-1.1c0.6-0.5,2.8-1.6,2.4,0.5C121.4,130.6,119.6,131.3,118.7,131.7z"/>
										<path class="st11" d="M111.4,132.2c1.5,0.7,3.3,0.6,5,0.8c0.2,0,0.3-0.2,0.2-0.3c0,0,0,0,0-0.1c-0.9-1.4-2.4-2.7-3.9-3.4
											c-0.9-0.4-2.4-0.5-2.8,0.6C109.5,130.9,110.5,131.8,111.4,132.2z M110.6,130.8c-0.8-1.9,1.6-1.4,2.2-1.1
											c0.4,0.2,0.8,0.5,1.2,0.8c0.8,0.6,1.5,1.3,2.3,2c-0.8-0.1-1.6-0.2-2.4-0.3C113,132.1,111.1,131.9,110.6,130.8z"/>
									</g>
								</g>
							</g>
						</g>
						<path class="st9" d="M99.5,135.9"/>
					</g>
					<g>
						<path class="st11" d="M119.2,132.5l-20.6,0c0,0-8.8-34.9-10.4-36.9C86.2,93,57.2,93,51,84.4c-5.6-7.8-0.9-18.8-0.9-18.8
							l22-0.7c0,0-0.7,3.5-2,6.9c0,0,26.5,4.9,33.9,13C109,90.4,119.2,132.5,119.2,132.5z"/>
						<g>
							<path class="st12" d="M73.9,70.4c-0.6,0.1-1.3,0.4-1.9,0.6c-0.6,0.2-1.3,0.5-1.9,0.8c-1.2,0.6-2.3,1.3-3.5,2c0,0,0,0.1,0,0.1
								c1.2-0.6,2.4-1.2,3.7-1.7c0.6-0.3,1.2-0.5,1.8-0.8c0.6-0.3,1.2-0.5,1.8-0.8C74,70.5,74,70.4,73.9,70.4z"/>
							<path class="st12" d="M72.6,65c-0.3,1-0.5,2-0.8,3c-0.1,0.5-0.3,0.9-0.4,1.4c-0.1,0.4-0.4,0.8-0.8,0.9
								c-0.5,0.1-0.6-0.3-0.6-0.7c0-0.5,0.2-0.9,0.3-1.4c0.1-0.5,0.2-1,0.3-1.6c0-0.3,0.1-0.5,0.1-0.8c0-0.1,0.1-0.6,0.1-0.7
								c0,0,0,0,0,0c0,0,0,0,0,0c0,0,0,0,0,0c0,0,0,0,0-0.1c0,0,0,0,0,0c-0.1,0.1-0.1,0.2-0.1,0.3c-0.1,0.3-0.2,0.5-0.2,0.8
								c-0.1,0.5-0.3,1-0.4,1.4c-0.1,0.5-0.2,1-0.4,1.5c-0.1,0.4-0.2,0.7-0.1,1.1c0.1,0.4,0.4,0.6,0.8,0.6c0,0,0,0.1-0.1,0.1
								c0,0.1-0.1,0.2-0.1,0.3c0,0.1-0.1,0.2-0.1,0.3c0,0.1,0,0.1,0,0.2c0,0.1,0,0.1,0,0.2c0,0.1,0.1,0.1,0.2,0.1
								c0-0.1,0.1-0.1,0.1-0.1c0-0.1,0.1-0.1,0.1-0.2c0-0.1,0.1-0.2,0.1-0.3c0-0.1,0.1-0.2,0.1-0.3c0-0.1,0-0.1,0-0.2
								c0.2,0,0.4-0.1,0.6-0.2c0.3-0.2,0.5-0.6,0.6-0.9c0.2-0.4,0.3-0.8,0.4-1.3c0.3-1.1,0.5-2.1,0.6-3.2
								C72.8,64.9,72.6,64.8,72.6,65z"/>
							<g>
								<path class="st12" d="M117.1,128.9c-0.5-0.1-1.1-0.1-1.6-0.1c-0.6,0-1.2,0-1.7-0.1c-1.1,0-2.3-0.1-3.4-0.1
									c-2.3,0-4.6,0-6.9,0c-1.2,0-3.8,0.1-3.9,0.1c-0.1,0-0.1,0.1,0,0.1c2.3,0.1,4.6,0.2,6.8,0.2c2.3,0,4.6,0.1,6.8,0
									c0.6,0,1.3,0,1.9-0.1c0.7,0,1.3,0,2-0.1C117.2,129,117.2,128.9,117.1,128.9z"/>
							</g>
							<path class="st12" d="M90.7,95.9c-0.2-0.6-0.4-1.3-0.9-1.8c-0.4-0.5-1.1-0.7-1.7-0.9c-5.5-1.5-11.1-2.2-16.7-3.2
								c-2.7-0.5-5.5-1.1-8.1-2c-2.7-0.9-5.4-1.9-7.7-3.5c-1.2-0.8-2.1-1.8-2.8-3c-0.7-1.2-1.1-2.4-1.3-3.7c-0.6-3-0.6-6.1,0-9
								c0.1-0.7,0.3-1.5,0.6-2.2c0,0-0.1-0.1-0.1,0c-1,2.9-1.5,5.9-1.2,9c0.2,2.6,0.8,5.4,2.5,7.5c0.9,1.1,2,1.8,3.2,2.5
								c1.2,0.7,2.5,1.3,3.9,1.8c2.6,1,5.3,1.8,8,2.4c5.6,1.2,11.2,1.9,16.8,3.1c0.7,0.2,1.4,0.3,2.1,0.5c0.7,0.2,1.4,0.3,2,0.7
								c0.7,0.4,0.9,1.2,1.1,1.9c0.3,0.8,9.2,31,9.4,31.8c0,0.1,0.2,0.1,0.2-0.1C99.2,124.6,91.3,97.4,90.7,95.9z"/>
							<path class="st12" d="M89.1,96.7c-0.2-0.7-0.4-1.4-1-1.8c-0.6-0.4-9.4-1.6-10.4-1.7c0,0-0.1,0.1,0,0.1c0.8,0.1,9,1.6,9.7,1.8
								c0.3,0.1,0.6,0.3,0.8,0.5c0.2,0.3,0.3,0.7,0.5,1.1c0.2,0.8,0.5,1.6,0.7,2.4c0.5,1.6,1,3.2,1.5,4.7c0.5,1.8,1.2,3.7,1.6,5.5
								c0,0.1,0.2,0.1,0.2-0.1C92.1,105.9,89.4,97.5,89.1,96.7z"/>
							<path class="st12" d="M70.2,72c4.1,0.4,8.1,1.4,12,2.5c4,1.1,7.8,2.5,11.6,4.2c2.1,0.9,4.1,2,6.2,3.1c0,0,0,0.1,0,0.1
								c-3.6-1.9-7.4-3.5-11.3-4.9c-3.8-1.4-7.7-2.5-11.7-3.4c-2.2-0.5-4.5-0.9-6.8-1.2C70,72.2,70,71.9,70.2,72z"/>
						</g>
					</g>
				</g>
			</g>
			<g>
				<g>
					<path class="st9" d="M69.4,46.4C71.5,51,79.7,66,84.7,66.8c3.3,0.6,16.4-1.2,18.5-4.4c0.9-1.4-1.1-10.8-2.8-10.3
						c-1.7,0.4-12.2,2.3-13.5,1.9c-1.3-0.3-11.4-11.1-15.2-13.7C65.2,35.8,68.3,43.9,69.4,46.4z"/>
					<g>
						<g>
							<path class="st13" d="M96.3,51.6l0.8,14.2c0,0-10.3,2.3-14.9,0.8c-5.5-1.9-13.6-18.8-14.7-21.6c-1.8-4.6-1.3-7.3,1.2-6.7
								c1,0.3,2.3,1,3.9,2.4c1.7,1.5,11.3,11,14.4,12.7C88.8,54.4,96.3,51.6,96.3,51.6z"/>
							<path class="st14" d="M96.3,51.6l0.8,14.2c0,0-10.3,2.3-14.9,0.8c-5.5-1.9-13.6-18.8-14.7-21.6c-1.8-4.6-1.3-7.3,1.2-6.7
								c1,0.3,2.3,1,3.9,2.4c1.7,1.5,11.3,11,14.4,12.7C88.8,54.4,96.3,51.6,96.3,51.6z"/>
							<path class="st11" d="M94.5,65.3c-0.2-2.1-0.6-10.7-0.6-12.5c0-0.1,0.1-0.2,0.1,0C94.7,59,94.5,63.2,94.5,65.3
								C94.6,65.3,94.5,65.3,94.5,65.3z"/>
						</g>
						<path class="st7" d="M66,38.5"/>
						<path class="st14" d="M92.8,66.5c-3.4,0.5-7.9,0.9-10.5,0c-5.5-1.9-13.6-18.8-14.7-21.6c-1.8-4.6-1.3-7.3,1.2-6.7
							c0.1,0,0.2,0,0.2,0.1L92.8,66.5z"/>
					</g>
				</g>
				<g>
					<path class="st5" d="M76.3,69.9c-0.6,0.6-27.3,3.4-27.4,3.2c-0.4-0.5,4.6-25.5,15.3-34.1c1.9-1.5,5-0.9,6.4,0
						c0.7,0.5,2.7,4,3.2,7.2C74.5,49.4,76.7,69.5,76.3,69.9z"/>
					<path class="st13" d="M64.9,38.4c0,0,2.9,15.1,3,15.7c0.1,0.6-0.3,17.4-0.3,17.4L47.8,74c0,0,2.2-8.4,2.4-8.8
						c0.1-0.4,4.3-14.3,8.8-20.5C63.1,39,64.9,38.4,64.9,38.4z"/>
					<path class="st14" d="M64.9,38.4c0,0,2.9,15.1,3,15.7c0.1,0.6-0.3,17.4-0.3,17.4L47.8,74c0,0,2.2-8.4,2.4-8.8
						c0.1-0.4,4.3-14.3,8.8-20.5C63.1,39,64.9,38.4,64.9,38.4z"/>
					<path class="st13" d="M71.1,39.2c0,0,2,13.4,2.1,14.3c0.1,0.8,1.6,17.2,1.6,17.2l2.4-0.9c0,0-1.4-10.6-1.5-11.5
						c-0.2-0.9-1.3-10.8-1.7-12.6C73.2,42.6,71.1,39.2,71.1,39.2z"/>
					<path class="st14" d="M71.1,39.2c0,0,2,13.4,2.1,14.3c0.1,0.8,1.6,17.2,1.6,17.2l2.4-0.9c0,0-1.4-10.6-1.5-11.5
						c-0.2-0.9-1.3-10.8-1.7-12.6C73.2,42.6,71.1,39.2,71.1,39.2z"/>
				</g>
				<g>
					<g>
						<polygon class="st5" points="95.3,65.5 78.8,67.2 84.4,45.3 100.8,43.7 						"/>
					</g>
					<g>
						<g>
							<path class="st9" d="M101.5,47.5c0.9,1.8,3.2,3.9,3.4,5.3c0.2,1.3-0.9,1.8-0.9,1.8s1.5,0.7,1.5,2c0,0.7-1.1,1.3-1.1,1.3
								s1.2,0.6,1.1,1.8c-0.1,1-1.2,1.4-1.2,1.4s0.9,1.1,0.5,2c-0.8,1.9-9,2.3-10.4-0.7c-0.7-1.4,1.4-1.4,1.4-1.4s-2.9-0.7-3-2.4
								c-0.1-1.7,2.5-1.5,2.5-1.5s-2.8-0.7-2.7-2.5c0.1-1.8,2.7-1.2,2.7-1.2s-1.9-1.2-1.5-2.5c0.6-2.2,4.2,0.4,6-0.1l0.9-3
								L101.5,47.5z"/>
							<path class="st9" d="M103.3,50.1c-0.7-1.7,1.4-4,0.9-5.8c-0.6-2.4-3.2,0.1-3.7,3.6l0.1,2.8L103.3,50.1z"/>
							<g>
								<path class="st11" d="M104.1,61.4C104.2,61.3,104.2,61.4,104.1,61.4c-2.7,0.8-5.9,0.8-8.5-0.1c-0.1,0-0.1-0.2,0-0.2
									C98.6,61.5,101.2,61.7,104.1,61.4z"/>
								<path class="st11" d="M104.4,58C104.5,58,104.5,58.1,104.4,58c-2.8,0.8-6.4,0.8-9.3-0.7c-0.1-0.1-0.1-0.2,0-0.1
									C97.1,58,101.8,58.4,104.4,58z"/>
								<path class="st11" d="M95,53.4c2.9,1.3,5.8,1.5,8.9,1.4c0,0,0,0.1,0,0.1c-1.5,0.5-3.5,0.4-5,0.2
									C97.4,54.8,96.1,54.4,95,53.4C94.9,53.4,94.9,53.3,95,53.4z"/>
							</g>
						</g>
					</g>
				</g>
				<g>
					<g>
						<g>
							<path class="st9" d="M58.9,44c-7.9,9-16.8,24-12.9,27.2c3.6,2.9,16.5,0,24.6-3.3c1.5-0.6-2-14.4-3.8-13.9
								c-3,0.8-7.6,2.8-7.8,2.9c-0.4,0.1,1.7-5.2,4.3-11.7C66.2,37.9,63.4,38.8,58.9,44z"/>
							<g>
								<path class="st9" d="M84,53.6c-0.1,1.2-1.1,1.7-1.1,1.7s0.9,0.6,1.1,1.7c0.2,1.2-1.6,2-1.6,2s0.8,0.8,0.9,2
									c0.1,1.2-1.6,2.3-1.6,2.3s0.3,1.2-0.3,2.2c-1.1,1.7-11.3,3.1-12.7,3.2l-2.5-14.3c0,0,8.7-4.4,11.1-4.1
									C79.2,50.4,84.2,51.4,84,53.6z"/>
								<g>
									<path class="st11" d="M82.9,55.2c-2-0.8-4.2-1-6.4-1.3c0,0-0.1,0.1,0,0.1c2.1,0.2,4.2,1,6.4,1.3
										C82.9,55.3,83,55.2,82.9,55.2z"/>
									<path class="st11" d="M82.4,58.8c-0.5-0.2-1-0.2-1.5-0.2c-0.5,0-1-0.1-1.6-0.1c-1,0-2.1,0-3.1,0c0,0-0.1,0.1,0,0.1
										c1,0,2.1,0.1,3.1,0.1c0.5,0,1,0.1,1.6,0.1c0.5,0,1,0.1,1.5,0.1C82.5,58.9,82.5,58.8,82.4,58.8z"/>
									<path class="st11" d="M81.7,63.2c-0.4-0.2-0.9-0.1-1.3-0.1c-0.5,0-1,0-1.4,0C78,63,77,63,76,63c0,0-0.1,0.1,0,0.1
										c1,0.1,1.9,0.1,2.9,0.2c0.5,0,1,0,1.4,0.1C80.8,63.3,81.3,63.4,81.7,63.2C81.7,63.2,81.7,63.2,81.7,63.2z"/>
								</g>
							</g>
						</g>
					</g>
					<g>
						<path class="st13" d="M62.8,40C57,43.6,42.1,64.6,44.9,70.3c2.7,5.8,21.4-0.6,21.4-0.6l-1.6-15.7c0,0-4.9,2.8-5.1,2.5
							c-0.2-0.2,2.7-7.4,3.9-10.3C64.5,43.3,65.8,38.1,62.8,40z"/>
						<path class="st14" d="M62.8,40C57,43.6,42.1,64.6,44.9,70.3c2.7,5.8,21.4-0.6,21.4-0.6l-1.6-15.7c0,0-4.9,2.8-5.1,2.5
							c-0.2-0.2,2.7-7.4,3.9-10.3C64.5,43.3,65.8,38.1,62.8,40z"/>
						<g>
							<path class="st11" d="M63.9,68.9c-0.3-2.1-1.4-10.6-1.6-12.5c0-0.1,0.1-0.2,0.1,0C63.6,62.6,63.7,66.8,63.9,68.9
								C64,68.9,63.9,68.9,63.9,68.9z"/>
							<path class="st11" d="M64.5,54.1c-0.5,0.2-1.1,0.5-1.6,0.7c-0.5,0.2-0.9,0.5-1.4,0.7c-1,0.5-2,1.1-3,1.6
								c-1,0.5-1.9,1.1-2.9,1.7c-1,0.6-1.9,1.2-2.9,1.8c0,0,0,0.1,0,0.1c1-0.6,2-1,3-1.6c1-0.5,1.9-1,2.9-1.6c1-0.5,1.9-1,2.9-1.6
								c0.5-0.3,0.9-0.5,1.4-0.8c0.5-0.3,1-0.5,1.5-0.9C64.7,54.2,64.6,54,64.5,54.1z"/>
							<path class="st11" d="M62.8,49.6c-0.3,0.4-0.6,0.8-0.9,1.2c-0.1,0.1-0.1,0.2-0.1,0.2c0.1-0.2,0.2-0.4,0.2-0.6
								c0.3-0.7,0.6-1.4,0.8-2.2c0,0,0,0-0.1,0c-0.4,0.7-0.7,1.5-1,2.2c-0.3,0.7-0.6,1.4-0.9,2.2c-0.3,0.7-0.6,1.5-0.9,2.2
								c-0.3,0.7-0.6,1.4-0.7,2.2c0,0,0.1,0.1,0.1,0c0.4-0.7,0.7-1.5,1-2.2c0.3-0.7,0.6-1.5,0.9-2.2c0.1-0.3,0.2-0.6,0.4-0.9
								c0.1-0.1,0.1-0.1,0.2-0.2c0.1-0.2,0.3-0.4,0.4-0.6C62.4,50.4,62.6,50,62.8,49.6C62.9,49.6,62.8,49.6,62.8,49.6z"/>
							<path class="st11" d="M66.3,69.4C66.3,69.3,66.2,69.3,66.3,69.4c-0.1,0-0.1,0.2-0.1,0.2c-0.6,0.2-3,0.9-3.5,1
								c-1.2,0.4-2.4,0.7-3.6,0.9c-1.2,0.3-2.4,0.5-3.7,0.7c-1.2,0.2-2.5,0.4-3.7,0.5c0,0,0,0.1,0,0.1c1.3-0.1,2.5-0.1,3.8-0.2
								c1.2-0.1,2.5-0.3,3.7-0.6c1.2-0.3,2.5-0.6,3.7-0.9c0.6-0.2,1.2-0.4,1.8-0.6c0.6-0.2,1.2-0.4,1.7-0.7c0,0,0.1-0.1,0.1-0.1
								C66.3,69.6,66.3,69.5,66.3,69.4z"/>
						</g>
					</g>
				</g>
				<g>
					<g>
						<g>
							<g>
								<path class="st9" d="M69.8,43.3c-1.5,0.3-4.1-2-5.1-4c-0.1-0.1,0.6-5.3,0.6-6.4c0-0.2,6.5,1.7,6.5,1.7s-0.7,2.2-0.7,4
									C71.1,38.8,71.3,42.9,69.8,43.3z"/>
							</g>
							<path class="st11" d="M71.8,34.6C71.8,34.6,71.8,34.6,71.8,34.6c0,0-0.1,0.2-0.1,0.4c-0.1,0.3-0.2,0.9-0.4,1.6
								c-0.1,0.6-0.2,1.4-0.2,2.1c0,0,0,0.1,0,0.1l0,0c0,0.1,0,0.2,0,0.3c-0.2,0-0.4,0-0.6,0c-3.6-0.1-4.7-4.5-5-6.2
								c0,0,0.1,0,0.1,0c0.2,0,0.4,0.1,0.7,0.1c0.1,0,0.1,0,0.2,0.1c0.4,0.1,1,0.2,1.5,0.4c0.2,0,0.4,0.1,0.5,0.1
								c0.4,0.1,0.8,0.2,1.1,0.3c0.2,0,0.3,0.1,0.5,0.1c0.2,0,0.3,0.1,0.5,0.1c0.1,0,0.1,0,0.2,0.1c0,0,0.1,0,0.1,0
								c0.2,0.1,0.4,0.1,0.5,0.2c0.1,0,0.2,0.1,0.3,0.1C71.7,34.6,71.7,34.6,71.8,34.6C71.8,34.6,71.8,34.6,71.8,34.6
								C71.8,34.6,71.8,34.6,71.8,34.6z"/>
						</g>
						<g>
							<g>
								<path class="st9" d="M64.9,25.2c-0.9,2.2-0.3,9,1.3,10.6c2.2,2.4,6.1,2.9,8.1,0.2c2-2.6,1-11.4-0.7-12.9
									C71.1,20.8,66.2,21.8,64.9,25.2z"/>
							</g>
							<g>
								<g>
									<path class="st11" d="M71.1,29.6C71.1,29.6,71,29.6,71.1,29.6c0,0.5,0,1-0.4,1.2c0,0,0,0,0,0C71.2,30.7,71.2,30,71.1,29.6z
										"/>
									<path class="st11" d="M70.6,29.2c-0.7,0-0.6,1.5,0.1,1.5C71.3,30.6,71.2,29.2,70.6,29.2z"/>
								</g>
								<g>
									<path class="st11" d="M73.7,29.5C73.7,29.5,73.7,29.5,73.7,29.5c0.1,0.5,0.2,1,0.6,1.1c0,0,0,0,0,0
										C73.8,30.6,73.7,29.9,73.7,29.5z"/>
									<path class="st11" d="M74.1,29c0.7-0.1,0.9,1.4,0.2,1.5C73.6,30.5,73.5,29.1,74.1,29z"/>
								</g>
								<path class="st8" d="M70,28.6c0.2-0.1,0.4-0.2,0.6-0.2c0.2-0.1,0.4-0.2,0.5-0.4c0.1-0.1,0-0.3-0.1-0.4
									c-0.2-0.2-0.5-0.1-0.8,0c-0.3,0.1-0.5,0.3-0.6,0.5C69.4,28.4,69.7,28.7,70,28.6z"/>
								<path class="st8" d="M74.6,28.2c-0.2,0-0.4-0.1-0.6-0.1c-0.2,0-0.4-0.1-0.6-0.2c-0.1-0.1-0.1-0.3,0-0.4
									c0.2-0.2,0.5-0.2,0.8-0.2c0.3,0,0.5,0.2,0.7,0.4C75.1,27.9,74.9,28.2,74.6,28.2z"/>
								<path class="st11" d="M71,33.9c0.1,0.1,0.2,0.2,0.4,0.2c0.2,0,0.3-0.1,0.5-0.2c0,0,0,0,0,0c-0.1,0.2-0.3,0.3-0.6,0.3
									C71.1,34.3,71,34.1,71,33.9C70.9,33.9,71,33.9,71,33.9z"/>
								<g>
									<g>
										<path class="st11" d="M71.4,32.5c0.3,0.4,0.7,0.6,1.1,0.6c0.2,0,0.4,0,0.6,0c0,0,0.1,0,0.1,0c0,0,0.1,0,0.1,0
											c0.1,0,0.1-0.1,0.1-0.1l0,0c0,0,0,0,0,0c0,0,0,0,0,0l0,0c0-0.4-0.1-0.9-0.1-0.9C73.3,32,74,32.2,74,32
											c-0.2-1.5-0.5-3.2-1-4.7c0,0-0.1,0-0.1,0c0.1,1.5,0.6,2.9,0.7,4.4c-0.2-0.1-0.6-0.2-0.8-0.2c0,0,0.2,1,0.2,1.2
											c0,0,0,0,0,0C72.5,32.9,72,32.8,71.4,32.5C71.4,32.4,71.3,32.4,71.4,32.5z"/>
									</g>
								</g>
								<g>
									<path class="st11" d="M72.8,32.9c0,0-0.3,0.4-0.7,0.6c-0.2,0.1-0.3,0.1-0.5,0.1c-0.4-0.1-0.4-0.4-0.4-0.7
										c0-0.2,0.1-0.5,0.1-0.5S71.9,32.9,72.8,32.9z"/>
									<path class="st15" d="M72.1,33.5c-0.2,0.1-0.3,0.1-0.5,0.1c-0.4-0.1-0.4-0.4-0.4-0.7C71.6,32.9,72,33.2,72.1,33.5z"/>
								</g>
							</g>
							<g class="st16">
								<path class="st17" d="M71.9,26.5c0.3,0,0.5,0,0.8,0c0.3,0,0.5-0.1,0.8-0.1c0.5,0,0.9,0.1,1.4,0.2c0,0,0,0,0,0
									c-0.5-0.1-1-0.2-1.5-0.1c-0.4,0.1-0.8,0.1-1.2,0.1c-0.9-0.1-1.9-0.1-2.7,0.4c0,0,0,0,0,0C70.1,26.5,71,26.4,71.9,26.5z"/>
								<path class="st17" d="M71.9,25.8c0.2,0,0.5,0,0.7,0c0.2,0,0.5-0.1,0.7-0.1c0.5,0,0.9,0.1,1.3,0.2c0,0,0,0,0,0
									c-0.5-0.1-0.9-0.2-1.4-0.1c-0.4,0.1-0.8,0.1-1.2,0.1c-0.9-0.1-1.8-0.1-2.6,0.4c0,0,0,0,0,0C70.2,25.9,71,25.8,71.9,25.8z"/>
							</g>
							<path class="st8" d="M74.6,25.8c-2.3,1.6-5.5-0.8-5.5-0.8c-0.7,1.8-2.6,1.6-2.6,1.6s-0.4,3.9-1.5,3.9c-1.6,0-2.1-5.4-1.6-6.4
								c0.5-1.1,1.8-1.3,1.8-1.3s0.1-0.8,1.1-1.6c1.1-0.8,4.8,0.2,4.8,0.2s0.2-0.7,0.9-1.3c0.4-0.4,1-0.3,1.4,0.1
								c-0.2,0.3-0.3,0.6-0.4,1c-0.2,1.2,0.8,1.1,0.7,0.1c0-0.5-0.2-0.8-0.4-1.1c0.5-0.7,1.2-0.9,1.7-0.6
								C76,20.4,76.5,24.4,74.6,25.8z"/>
							<g>
								<path class="st10" d="M70.2,32.4c-0.9,0-1.8-0.7-2-1.7c-0.2-1.1,0.5-2.3,1.6-2.5c1.1-0.2,2.3,0.5,2.5,1.6l0,0
									c0.2,1.1-0.5,2.3-1.6,2.5C70.5,32.4,70.3,32.4,70.2,32.4z M70.3,28.5c-0.1,0-0.3,0-0.5,0c-1,0.2-1.6,1.2-1.4,2.2
									c0.2,1,1.2,1.6,2.2,1.4c1-0.2,1.6-1.2,1.4-2.2C71.9,29.1,71.1,28.5,70.3,28.5z"/>
								<path class="st10" d="M75,32c-0.8,0-1.5-0.9-1.6-2c0-0.6,0.1-1.1,0.3-1.5c0.3-0.4,0.7-0.7,1.1-0.7c0.4,0,0.8,0.2,1.2,0.6
									c0.3,0.4,0.5,0.9,0.6,1.4C76.6,31,76,32,75.1,32C75.1,32,75,32,75,32z M75,28.1c0,0-0.1,0-0.1,0c-0.3,0-0.6,0.2-0.9,0.6
									c-0.2,0.4-0.3,0.8-0.3,1.3c0.1,1,0.7,1.8,1.4,1.7c0.7-0.1,1.2-0.9,1.2-1.9c0-0.5-0.2-1-0.5-1.3C75.6,28.3,75.3,28.1,75,28.1
									z"/>
								<path class="st10" d="M72.3,30.1l-0.2-0.2c0.3-0.3,1-0.7,1.6-0.2l-0.2,0.2C73,29.5,72.3,30.1,72.3,30.1z"/>
								<path class="st10" d="M62.9,31.3l-0.3-0.1c0.1-0.1,0.5-1.2,1.2-1.3c0.6-0.1,4.4-0.1,4.6-0.1l0,0.3c-1.1,0-4-0.1-4.5,0
									C63.4,30.3,63,31,62.9,31.3z"/>
							</g>
							<g>
								<path class="st9" d="M65.9,30.7c0,0-1.4-2.3-2.4-1.8c-1,0.5-0.1,3.7,1,4.2c1.1,0.5,1.6-0.5,1.6-0.5L65.9,30.7z"/>
								<path class="st11" d="M63.8,29.8C63.8,29.8,63.8,29.9,63.8,29.8c0.8,0.4,1.2,1.2,1.4,2c-0.2-0.3-0.5-0.5-1-0.2c0,0,0,0,0,0
									c0.3,0,0.6,0,0.8,0.3c0.1,0.2,0.2,0.4,0.3,0.7c0,0.1,0.2,0,0.1,0c0,0,0,0,0,0C65.6,31.5,64.9,30,63.8,29.8z"/>
							</g>
						</g>
					</g>
					<g>
						<g>
							<path class="st5" d="M71.1,39.2l-1.6,3.9l-4.8-4.9l-1.4,1.6c0,0,4.7,7.8,4.7,7.5l1.6-3.3l2.3,2.3l-0.2-5.8L71.1,39.2z"/>
							<path class="st11" d="M72.1,43.3c-0.1-1-0.1-1.9-0.2-2.9c0,0-0.1,0-0.1,0c-0.2,0.9,0.1,4.6,0.1,5.5c0,0,0,0,0,0
								c-0.1-0.1-2.1-2-2.2-2c-0.3,0.5-1.5,3-1.6,3.2c-0.7-1.2-3.6-5.7-4.5-6.9c0,0-0.1,0-0.1,0c0.7,1.3,4.4,7.4,4.5,7.4
								c0,0,1.5-3,1.7-3.5c0.3,0.4,2.4,2.6,2.4,2.5C72.2,45.5,72.1,44.2,72.1,43.3z"/>
						</g>
					</g>
				</g>
			</g>
		</g>
	</g>
	<g class="st4">
		<rect x="132.8" y="72" class="st13" width="31.6" height="70.7"/>
		<rect x="132.8" y="72" class="st18" width="31.6" height="70.7"/>
		<rect x="43.5" y="72" class="st13" width="31.6" height="70.7"/>
		<g>
			<rect x="75.1" y="72" class="st13" width="89.3" height="9.8"/>
			<rect x="75.1" y="72" class="st19" width="89.3" height="9.8"/>
			<g class="st20">
				<polygon class="st17" points="75.3,76.9 86.5,76.7 97.6,76.6 119.9,76.5 142.2,76.6 153.3,76.7 164.4,76.9 153.3,77 142.2,77.2 
					119.9,77.2 97.6,77.2 86.5,77 				"/>
			</g>
		</g>
		<g>
			<rect x="75.1" y="72" class="st13" width="4.3" height="70.7"/>
			<rect x="75.1" y="72" class="st19" width="4.3" height="70.7"/>
		</g>
		<g>
			<rect x="160.2" y="72" class="st13" width="4.3" height="70.7"/>
			<rect x="160.2" y="72" class="st19" width="4.3" height="70.7"/>
		</g>
	</g>
	<g class="st4">
		<g>
			<rect x="91.2" y="70.8" class="st10" width="25.9" height="1.2"/>
			<rect x="104.1" y="70.8" class="st11" width="13" height="1.2"/>
		</g>
		<g>
			<polygon class="st10" points="105.5,72 130.7,72 134,54.8 108.8,54.8 			"/>
			<path class="st11" d="M118.2,63.4c-0.1,0.8,0.6,1.5,1.4,1.5c0.8,0,1.6-0.7,1.7-1.5c0.1-0.8-0.6-1.5-1.4-1.5
				C119,61.9,118.3,62.5,118.2,63.4z"/>
		</g>
	</g>
	<g class="st4">
		<g>
			<g>
				<g>
					<polygon class="st7" points="181.6,92.4 180.6,98.5 173.7,135.6 172.6,135.6 177.6,98.5 178.3,92.4 					"/>
				</g>
			</g>
			<polygon class="st8" points="178.3,92.4 181.6,92.4 180.6,98.5 177.6,98.5 			"/>
		</g>
		<g>
			<g>
				<g>
					<polygon class="st7" points="203.2,135.6 202.1,135.6 195.2,98.5 194.2,92.4 197.5,92.4 198.2,98.5 					"/>
				</g>
			</g>
			<polygon class="st8" points="197.5,92.4 198.2,98.5 195.2,98.5 194.2,92.4 			"/>
		</g>
		<g>
			<g>
				<g>
					<polygon class="st7" points="223.9,135.6 222.7,135.6 215.9,98.5 214.8,92.4 218.1,92.4 218.8,98.5 					"/>
				</g>
			</g>
			<polygon class="st8" points="218.8,98.5 215.9,98.5 214.8,92.4 218.1,92.4 			"/>
		</g>
		<polygon class="st7" points="222.1,95.3 171.7,95.3 171.7,89.9 190.5,89.9 196.9,53 220.2,53 		"/>
		<polygon class="st8" points="222.1,95.3 219.3,95.3 217.6,53 220.2,53 		"/>
	</g>
	<g class="st4">
		<g>
			<g>
				<g>
					<path class="st21" d="M141.1,130.5c0.9,0.5,29.6,6.5,30.8,6.1c0.5-0.2,1.6-4.3,2.8-9.3c0.3-1.1,0.5-2.2,0.8-3.3
						c1.7-7.4,3.3-15.3,3.3-15.3l-19.2-4.1l-2.8,15.4l-0.6,3.4c0,0-12,2.6-13.3,3.3C141.6,127.2,140.2,129.9,141.1,130.5z"/>
					<path class="st11" d="M174.3,129.1c-1,4.1-1.9,7.3-2.3,7.4c-1.2,0.5-29.9-5.5-30.8-6.1c-0.9-0.5,0.6-3.2,1.9-3.9
						c0.8-0.4,5.7-1.6,9.3-2.4c-3.2,0.8-9.1,2.9,3.1,3.8C165.5,128.7,172.1,129.1,174.3,129.1z"/>
				</g>
				<g>
					<g>
						<path class="st21" d="M167,145.1c1,0.3,30.3-1.2,31.4-2c0.4-0.3-0.7-12-1-13.2c-1-3.8-6-15.4-6-15.4l-19.6,1l8,18.8
							c0,0-10.9,5.6-12,6.6C166.7,141.9,165.9,144.9,167,145.1z"/>
						<path class="st11" d="M198.3,143.2c-1.1,0.8-30.3,2.3-31.4,2c-1-0.3-0.3-3.3,0.8-4.2c0.5-0.4,3.2-1.9,5.8-3.3
							c-3.4,1.9-8.7,6.1,24.4-1.4C198.3,139.5,198.6,143,198.3,143.2z"/>
					</g>
					<g>
						<path class="st12" d="M212.3,87.3c-5.8,6.5-25.4,1.4-26.6,3.9c-1,2.3,12.3,38.9,12.3,38.9l-21.4,2.3c0,0-18.5-40.4-11.9-52.1
							c3.6-6.3,19.3-3.8,28.8-4.9c2.9-0.3,4.2-6.2,4.2-6.2h16.9C214.7,69.1,219,79.9,212.3,87.3z"/>
						<path class="st11" d="M170.8,76.7l18,13.7c6-0.1,19,1.9,23.6-3.2c6.7-7.4,2.4-18.2,2.4-18.2h-16.9c0,0-1.3,5.9-4.2,6.2
							C186.9,76.2,177.2,75.2,170.8,76.7z"/>
						<path class="st11" d="M175.9,127.7c0.6-0.2,6.1-0.8,7.4-0.9c2.4-0.3,10.2-1,11.6-1c0,0,0,0.1,0,0.1c-1.2,0.3-6.1,0.8-7.4,1
							c-2.5,0.3-10.9,1.1-11.6,1C175.8,127.8,175.8,127.7,175.9,127.7z"/>
						<path class="st11" d="M183.2,89.1c1.4-0.7,11.8-0.3,19.3-1c2.4-0.2,4.9-0.7,6.7-2.3c1.7-1.4,2.8-3.4,3.3-5.5
							c0.7-2.6,0.6-5.2,0.5-7.8c0-0.6-0.1-1.3-0.1-1.9c0,0,0.1,0,0.1,0c0.6,4.7,1,9.9-2,14c-1.3,1.8-3.2,3-5.5,3.6
							c-4.5,1.2-21.5,0.9-22.1,1.4c-0.7,0.5,10.3,33.9,10.5,34.6c0,0.1-0.2,0.2-0.2,0.1C192.6,121.4,182,89.7,183.2,89.1z"/>
						<path class="st11" d="M164.1,81.5c1-2.6,3.3-4.2,6.7-4.8c0.1,0,0.1,0.1,0,0.1c-3,0.9-5.1,2.1-6.2,4.5c-0.5,1.2-0.8,2.8-1,5
							c-0.7,10.9,8.8,35.7,9,36.2c0,0,0,0.1-0.1,0C171.2,120.3,159.9,92,164.1,81.5z"/>
					</g>
				</g>
				<g>
					<g>
						<path class="st12" d="M156.3,119l16.2,3.4c0,0-12.8-38.1-6.8-43.1c1.7-1.4,5.3-1.8,9.6,0c6.4,2.8,13.9,8.4,20.9,10.5
							c6.6,1.9,14.4,0.2,17.1-2.8c5.6-6.2,1.4-18,1.4-18l-23.3-0.9c0,0,0.3,0.3-0.8,1.3c0,0-13.7-3.1-19.6,0.5
							C160.3,76.6,156.3,119,156.3,119z"/>
						<g>
							<path class="st11" d="M204.7,70.5C204.7,70.4,204.8,70.5,204.7,70.5c0.1,0.9,0.1,1.8,0.3,2.6c0.2,0.8,0.6,1.6,1.2,2.2
								c1.3,1.3,3.1,1.7,4.8,2.3c0.1,0,0.1,0.2,0,0.2c-1.9-0.3-3.8-0.8-5.2-2.1c-0.6-0.6-1-1.5-1.2-2.3
								C204.4,72.3,204.4,71.3,204.7,70.5z"/>
							<path class="st11" d="M166.2,78.6c2.5-1.6,6.4-0.4,8.2,0.3c0,0,0,0.1,0,0.1c-1.7-0.6-6-1.6-8.3,0.1
								c-5.3,3.7,1.8,29.3,6.4,43.3c0.1,0.2-0.1,0.2-0.2-0.1c-0.8-1.7-6.7-19.4-8.3-31.2C163.8,89.4,162.6,80.9,166.2,78.6z"/>
							<path class="st11" d="M158.2,114.6c0.5,0,4.7,0.9,5.6,1.1c1.9,0.4,6.1,1.5,7.1,1.9c0,0,0,0.1,0,0.1c-1-0.1-3.2-0.6-4.1-0.8
								c-1.8-0.4-8.2-1.9-8.6-2.2C158.1,114.7,158.1,114.6,158.2,114.6z"/>
							<path class="st11" d="M167,77.9c1.7-0.9,3.7-1.1,5.5-0.8c2,0.2,3.8,0.9,5.7,1.8c3.8,1.7,7.4,3.8,11.2,5.6
								c3.8,1.7,7.8,3.1,12,3.2c3.6,0.1,8.1-0.5,10.3-3.7c3.5-4.9,1.5-13.4,1.4-14c0,0,0.1,0,0.1,0c2.7,10.4-0.8,14.5-3.2,16.2
								c-1.9,1.4-4.6,1.7-6.4,1.8c-4.1,0.3-8.3-0.7-12.1-2.2c-3.9-1.6-7.6-3.7-11.4-5.6c-3.6-1.8-7.6-3.7-11.8-2.7
								C167.9,77.6,167.4,77.8,167,77.9C166.9,78,166.9,78,167,77.9z"/>
						</g>
					</g>
				</g>
			</g>
			<g>
				<g>
					<path class="st11" d="M191.5,41.5c-0.1,5.2,0,10.6,0.7,15.8c0.6,4,2.4,7.3,6.7,8.1c4,0.8,9.5,0.4,12.7-2.3c1.5-1.3,2-3,1.8-4.9
						c-0.3-2.7-3-17.1-3.8-21.6c-0.5-2.8-1-5.5-2-8.2c-2.1-5.5-4.8-5.4-5.2-5.5c-0.3-0.2-2.5-1.1-5.5,0c-1.7,0.6-2.8,1.8-3.5,3.4
						C191.4,31,191.6,36.6,191.5,41.5z"/>
					<path class="st11" d="M203.3,23.7c3.4,1.4,4.4,5,5.3,8.3c1.3,4.5,2.6,9,3.6,13.6c0.5,2.2,0.9,4.4,1.3,6.6
						c0.4,2.1,0.9,4.4,0.8,6.6c-0.1,3.6-3.3,5.4-6.4,6c-0.2,0-0.2-0.2-0.1-0.2c1.8-0.4,3.6-1,4.9-2.4c1.6-1.8,1.3-4,1-6.2
						c-0.5-3.8-1.2-7.5-2.1-11.3c-0.9-3.7-1.9-7.4-2.9-11.1C207.8,30,207,25.4,203.3,23.7C203.2,23.7,203.3,23.7,203.3,23.7z"/>
					<path class="st11" d="M192.1,30.2c0.5-2.8,1.8-5.5,4.7-6.4c0,0,0,0,0,0c-3.7,1.3-4.4,5.4-4.7,8.9c-0.4,3.6-0.6,7.2-0.7,10.8
						c-0.1,3.5-0.1,7,0.1,10.4c0.2,3.7,1.1,7.2,3.4,10.2c0,0.1,0,0.1-0.1,0.1c-2.3-2.4-3.2-5.8-3.5-9c-0.4-4.2-0.3-8.6-0.2-12.8
						C191.2,38.4,191.3,34.2,192.1,30.2z"/>
				</g>
				<g>
					<g>
						<g>
							<path class="st21" d="M200,46.6c-5.2,6.3-12.2,12.3-15.2,12.2c-2.4-0.1-16.6-8.6-17.7-9.9c-0.9-1.1,5.8-9.8,7.2-9.2
								c2.3,1,10.6,7.9,11.3,7.8c0.7-0.1,6.5-2.6,12.3-5.4C203.6,39.5,203.6,42.2,200,46.6z"/>
							<g>
								<g>
									<path class="st21" d="M168.8,50.1c-1.1-0.6-6.1-4.1-7.3-5.3s-4.3-5.1-3.4-6.1c0.9-1,1.9,0.1,1.9,0.1s-1.1-1.8-0.1-2.8
										c1-0.9,2.5,0.8,2.5,0.8s-0.9-2,0.1-2.8c1-0.9,2.3,1.1,2.3,1.1s-1-1.8,0.2-2.1c1.4-0.4,2.8,3,4.2,4.3
										c0.3,0.3,6.9,5.5,6.9,5.5L168.8,50.1z"/>
									<g>
										<path class="st11" d="M164.6,34.8c1,2.5,1.9,3.5,4.1,5c0,0,0,0.1,0,0.1c-2.3-1.3-3.6-2.4-4.2-5.1
											C164.4,34.7,164.5,34.7,164.6,34.8z"/>
										<path class="st11" d="M162.2,36.5c1.3,2.5,2.2,3.6,4.4,5.4c0,0,0,0.1,0,0.1c-2.3-1.6-3.5-2.6-4.5-5.3
											C162.1,36.5,162.2,36.4,162.2,36.5z"/>
										<path class="st11" d="M160,38.8c1.4,2.4,2.4,3.5,4.8,5c0.1,0,0,0.1,0,0.1C162.2,42.6,161,41.2,160,38.8
											C159.9,38.7,160,38.6,160,38.8z"/>
									</g>
								</g>
								<g>
									<path class="st21" d="M178.1,42.7c0,0-1.1-3.2-1.9-4.6c-0.8-1.3-5.6-5.1-6.5-4.1c-1.1,1.3,1.2,4,2.5,5.2
										c0,0-2.6,2.9-1.4,5.3C172.1,46.8,178.1,42.7,178.1,42.7z"/>
									<path class="st11" d="M169.5,34.5c-0.2,1.9,1.6,3.4,2.8,4.6c0.1,0.1,0,0.2,0,0.3c-1,1.3-2.1,3.5-1.6,5.1c0,0-0.1,0.1-0.1,0
										c-0.8-1.7,0.1-3.9,1.3-5.3C170.7,38,168.9,36.4,169.5,34.5C169.5,34.4,169.5,34.4,169.5,34.5z"/>
								</g>
							</g>
						</g>
						<g>
							<path class="st13" d="M179.2,42.4l-8.9,11c0,0,11.8,6.3,14.8,5.7c3.1-0.6,6.9-3.2,14.5-12c6-6.9,1.3-7-2.5-5.1
								c-3.1,1.5-10.9,5.1-11.5,4.8C185.1,46.6,179.2,42.4,179.2,42.4z"/>
							<path class="st13" d="M170.4,53.4c0,0,10.6,5.7,14.3,5.8c0.2,0,0.4,0,0.5,0c3.1-0.6,6.9-3.2,14.5-12c2.7-3.1,3.2-4.8,2.7-5.6
								c-0.7-1-3.1-0.6-5.2,0.5c-3.1,1.5-10.9,5.1-11.5,4.8c-0.6-0.3-6.4-4.4-6.4-4.4L170.4,53.4z"/>
							<path class="st11" d="M181.1,44.6c-1.2,1.7-2.5,3.3-3.8,5c-0.6,0.8-1.3,1.6-2,2.4c-0.7,0.8-1.4,1.6-2.1,2.4c0,0-0.1,0-0.1,0
								c0.7-0.8,1.3-1.7,1.9-2.5c0.6-0.8,1.3-1.6,1.9-2.4c1.3-1.6,2.6-3.2,4-4.8C181.1,44.4,181.2,44.5,181.1,44.6z"/>
						</g>
					</g>
					<g>
						<path class="st13" d="M191.7,62.3l-0.3,5.9c0,0,7,0.8,24.3,0.8c0,0-3.7-18.5-9.5-25.4c-2.9-3.4-6.5-3.3-8.9-1.1
							c-0.6,0.6-6.2,9.9-7.1,13.4C189.5,59,191.7,62.3,191.7,62.3z"/>
						<g>
							<g>
								<path class="st11" d="M198.5,44.5c-0.4,1.5-0.8,3-1.3,4.5c-0.4,1.5-0.9,3-1.3,4.5c-0.2,0.8-0.4,1.5-0.5,2.2
									c-0.2,0.7-0.1,1.4,0,2.2c0.2,1.4,0.8,2.9,1.6,4.2l0.1,0.1l0,0.1c-0.1,1-0.2,2.1-0.3,3.1c-0.1,1-0.3,2.1-0.4,3.1
									c-0.1-1.1-0.1-2.1-0.1-3.1c0-1,0-2.1,0-3.1l0.1,0.3c-0.9-1.4-1.6-2.9-1.9-4.5c-0.1-0.8-0.1-1.7,0.1-2.5
									c0.2-0.8,0.4-1.6,0.6-2.3c0.5-1.5,1-3,1.6-4.4C197.2,47.3,197.8,45.9,198.5,44.5z"/>
							</g>
							<g>
								<path class="st11" d="M195.1,50.4c0,0.2,0.1,0.4,0.3,0.4c0.2,0,0.4-0.1,0.4-0.3c0-0.2-0.1-0.4-0.3-0.4
									C195.3,50,195.1,50.1,195.1,50.4z"/>
								<path class="st11" d="M193.7,54.7c0,0.2,0.1,0.4,0.3,0.4c0.2,0,0.4-0.1,0.4-0.3c0-0.2-0.1-0.4-0.3-0.4
									C193.9,54.3,193.8,54.5,193.7,54.7z"/>
								<path class="st11" d="M193.7,59.1c0,0.2,0.1,0.4,0.3,0.4s0.4-0.1,0.4-0.3c0-0.2-0.1-0.4-0.3-0.4
									C193.9,58.7,193.8,58.9,193.7,59.1z"/>
								<path class="st11" d="M195.1,62.6c0,0.2,0.1,0.4,0.3,0.4c0.2,0,0.4-0.1,0.4-0.3c0-0.2-0.1-0.4-0.3-0.4
									C195.3,62.3,195.1,62.4,195.1,62.6z"/>
								<path class="st11" d="M194.8,66.6c0,0.2,0.1,0.4,0.3,0.4c0.2,0,0.4-0.1,0.4-0.3c0-0.2-0.1-0.4-0.3-0.4
									C195,66.2,194.9,66.4,194.8,66.6z"/>
							</g>
						</g>
						<path class="st11" d="M193.9,48.1c-0.6,1-1.1,2-1.7,3c0.1-0.5,0.3-1,0.5-1.4c0,0,0-0.1-0.1,0c-0.3,0.6-0.5,1.2-0.6,1.8
							c-0.2,0.3-0.4,0.7-0.5,1c-0.3,0.7-0.7,1.3-0.9,2c-0.3,0.7-0.4,1.4-0.4,2.2c0,0,0.1,0,0.1,0c0.1-0.8,0.4-1.5,0.7-2.2
							c0.3-0.7,0.6-1.4,1-2C192.5,51.1,193.2,49.6,193.9,48.1C193.9,48.1,193.9,48.1,193.9,48.1z"/>
					</g>
					<g>
						<g>
							<path class="st21" d="M206.7,44.6c3.8,6.6,10.5,20.1,8.2,23.8c-2.2,3.7-14.9,6.2-19.2,6.9c-1.4,0.3-6.6-9.9-5.1-10.5
								c2.4-1.1,13.8-3.1,14.2-3.9c0.2-0.5-2-9.3-2.3-14.5C202.1,39.6,205.5,42.6,206.7,44.6z"/>
							<g>
								<path class="st21" d="M191.8,64.4c0,0-4.5,0.6-7.4,1.2c-1.6,0.3-4.4,1.1-5.5,1.8c-1.6,1.2-7.7,7-6.3,8.5
									c1.3,1.4,5.8-4.3,5.8-4.3s-5.1,5.3-3.3,6.7c1.8,1.4,6.1-5.8,6.1-5.8s-5.2,5.6-3.1,6.7c1.6,0.8,5.9-5.4,5.9-5.4
									s-4.4,4.8-2.8,5.8c1.8,1,6.1-4.5,6.1-4.5c4.4,1.7,7.2,0.7,9.2-0.3C197,74.7,191.8,64.4,191.8,64.4z"/>
								<g>
									<path class="st11" d="M180.2,69.6c-0.6,0.6-1.3,1.2-1.8,1.9c-0.6,0.7-1.1,1.3-1.6,2c-1.2,1.7-1.7,3-1.7,2.9
										c0.9-1.8,3-4.2,3.5-4.8C179.1,71,179.6,70.3,180.2,69.6C180.2,69.6,180.2,69.6,180.2,69.6z"/>
									<path class="st11" d="M182.6,71.7c-0.8,0.8-1.6,1.6-2.3,2.4c-0.7,0.8-1.3,1.7-2,2.6c-0.1,0.1,0,0.1,0.1,0
										c0.7-0.9,1.4-1.6,2.1-2.4C181.2,73.4,181.9,72.5,182.6,71.7C182.6,71.7,182.6,71.6,182.6,71.7z"/>
									<path class="st11" d="M185,73c-1.2,1.2-2.3,2.6-3.2,4c0,0.1,0,0.1,0.1,0C182.9,75.6,183.7,74.6,185,73
										C185,73,185,73,185,73z"/>
								</g>
							</g>
						</g>
						<path class="st13" d="M191.4,64.2l9.1,11.3c0,0,13.2-3,15-7.5c1.9-4.5-4.5-17.1-8-22.3c-3.5-5.2-5.7-5.1-5.3,0.9
							c0.4,5.4,2.4,14,2.1,14.3C204.2,61.1,191.4,64.2,191.4,64.2z"/>
						<g>
							<path class="st11" d="M194.9,64c1.4,1.5,2.8,3.1,4.1,4.7c0.6,0.8,1.3,1.6,1.9,2.4c0.6,0.8,1.2,1.7,1.9,2.6c0,0,0,0.1-0.1,0
								c-0.7-0.8-1.4-1.6-2.1-2.4c-0.7-0.8-1.3-1.6-1.9-2.4c-1.3-1.6-2.6-3.2-3.9-4.9C194.7,64,194.8,63.9,194.9,64z"/>
							<path class="st11" d="M191.4,64.2c1-0.1,13.1-3.2,13.1-3.2c0,0-0.6-3.8-0.7-4.6c-0.3-1.5-0.5-3-0.9-4.4c0,0-0.1,0-0.1,0
								c0.1,0.9,0.2,1.8,0.3,2.7c-0.1-0.4-0.3-0.8-0.4-1.1c0,0-0.1,0-0.1,0c0.2,0.8,0.4,1.5,0.7,2.2c0,0.2,0.1,0.4,0.1,0.6
								c0.1,0.7,0.3,1.5,0.4,2.2c0.1,0.4,0.3,1.8,0.4,2.1C202.6,61.1,192.3,63.7,191.4,64.2C191.4,64.1,191.4,64.2,191.4,64.2z"/>
							<path class="st11" d="M215.6,68c0,0.1-0.3,0.7-0.6,1c0,0,0,0,0.1,0C215.4,68.7,215.6,68.1,215.6,68
								C215.6,68,215.6,68,215.6,68z"/>
						</g>
					</g>
				</g>
				<g>
					<g>
						<g>
							<g>
								<path class="st21" d="M202.6,41.9c-0.1,0.5-2,3.5-4.1,3.6c-0.7,0-0.9-3.6-0.9-3.6l-0.1-0.3l-1.1-3.7l4.2-3.2l0.6-0.4
									c0,0,0.2,1,0.5,2.3c0,0.1,0,0.1,0,0.2c0,0.1,0,0.1,0.1,0.2c0,0.2,0.1,0.4,0.1,0.6c0,0.2,0.1,0.3,0.1,0.5
									c0,0.2,0.1,0.3,0.1,0.5C202.5,40.1,202.7,41.7,202.6,41.9z"/>
								<path class="st11" d="M201.8,36.6c-0.9,3.1-3.2,4.5-4.2,5l-1.1-3.7l4.2-3.2l0.6-0.4C201.3,34.3,201.5,35.3,201.8,36.6z"/>
							</g>
							<g>
								<path class="st21" d="M190.9,31.7c-0.9,6.8,3.1,8.1,4.6,8.2c1.3,0.2,5.9,0.6,7.4-6.1c1.5-6.7-1.3-9.2-4.4-9.7
									C195.6,23.5,191.8,24.9,190.9,31.7z"/>
								<g>
									<path class="st11" d="M192.3,29.9c0.2,0,0.3,0,0.5,0c0.2,0,0.3,0,0.5-0.1c0.1-0.1,0.1-0.2,0-0.3c-0.1-0.2-0.4-0.2-0.6-0.2
										c-0.2,0-0.4,0.1-0.6,0.2C192,29.6,192.1,29.9,192.3,29.9z"/>
									<path class="st11" d="M196.8,30.5c-0.2,0-0.3-0.1-0.4-0.2c-0.2-0.1-0.3-0.1-0.4-0.2c-0.1-0.1,0-0.2,0-0.3
										c0.2-0.2,0.4-0.1,0.6-0.1c0.2,0.1,0.4,0.2,0.5,0.4C197.2,30.3,197,30.5,196.8,30.5z"/>
									<g>
										<g>
											<path class="st11" d="M195.6,32.1C195.6,32.1,195.6,32.1,195.6,32.1c-0.1,0.5-0.1,1,0.3,1.3c0,0,0,0,0,0
												C195.4,33.2,195.4,32.5,195.6,32.1z"/>
											<path class="st11" d="M196.1,31.7c0.8,0.1,0.6,1.6-0.1,1.5C195.3,33.1,195.4,31.6,196.1,31.7z"/>
										</g>
										<path class="st11" d="M196.4,31.8c0.1,0.1,0.2,0.3,0.4,0.3c0.2,0,0.3-0.1,0.5-0.2c0,0,0,0,0,0c0,0.3-0.2,0.6-0.5,0.6
											C196.5,32.4,196.3,32.2,196.4,31.8C196.3,31.8,196.3,31.7,196.4,31.8z"/>
									</g>
									<g>
										<g>
											<path class="st11" d="M193,31.7C193,31.7,193,31.7,193,31.7c-0.1,0.5-0.2,1-0.6,1.1c0,0,0,0,0,0
												C192.9,32.8,193.1,32.1,193,31.7z"/>
											<path class="st11" d="M192.7,31.2c-0.7-0.1-1,1.4-0.3,1.5C193.1,32.8,193.3,31.3,192.7,31.2z"/>
										</g>
										<path class="st11" d="M192.3,31.2c-0.1,0.1-0.3,0.2-0.4,0.2c-0.2,0-0.3-0.2-0.3-0.4c0,0,0,0,0,0c0,0.3,0,0.6,0.3,0.7
											c0.2,0.1,0.5-0.1,0.6-0.4C192.4,31.3,192.4,31.2,192.3,31.2z"/>
									</g>
									<path class="st11" d="M195.1,35.8c-0.1,0.1-0.2,0.2-0.4,0.3c-0.2,0-0.3-0.1-0.5-0.1c0,0,0,0,0,0c0.1,0.2,0.4,0.3,0.6,0.3
										C195,36.2,195.1,36,195.1,35.8C195.2,35.8,195.2,35.8,195.1,35.8z"/>
									<g>
										<path class="st11" d="M193.4,33.9c0,0-0.2,0.7-0.2,1c0,0,0.1,0.1,0.2,0.1c0,0,0,0,0,0c0.6,0.2,1.2,0,1.6-0.4
											c0,0,0-0.1,0-0.1c-0.5,0.3-1,0.3-1.5,0.2c0-0.1,0.3-1.2,0.3-1.2c-0.2,0-0.5,0-0.8,0.1c0.3-1.4,0.9-2.8,1.2-4.2
											c0-0.1-0.1-0.1-0.1,0c-0.7,1.4-1.1,3-1.5,4.5C192.6,34.1,193.3,33.9,193.4,33.9z"/>
									</g>
									<g>
										<path class="st11" d="M193.5,34.9c0,0,0.2,0.5,0.6,0.7c0.1,0.1,0.3,0.1,0.5,0.1c0.4,0,0.4-0.4,0.4-0.7
											c0-0.2-0.1-0.5-0.1-0.5S194.3,35,193.5,34.9z"/>
										<path class="st15" d="M194.1,35.6c0.1,0.1,0.3,0.1,0.5,0.1c0.4,0,0.4-0.4,0.4-0.7C194.6,35,194.2,35.2,194.1,35.6z"/>
									</g>
								</g>
								<g>
									<g>
										<path class="st11" d="M202.7,33.4c-1.3,0.2-1.7-2.7-1.7-2.7s-5.5-0.8-6-5.2c0,0-0.9,2.8-3.7,4.2c0,0,0.1-4.9,3.9-5.9
											c0,0,4.7-1.8,7.5,1.9C205.5,29.4,203.6,33.3,202.7,33.4z"/>
									</g>
									<path class="st11" d="M195,25.2c-0.1,0.7,0.1,1.4,0.3,2c0.2,0.6,0.6,1.3,1.1,1.8c0.1,0.1,0.3,0.2,0.4,0.4l0.2,0.2
										c0.1,0.1,0.1,0.1,0.2,0.2c0.1,0.1,0.3,0.2,0.4,0.3c0.2,0.1,0.3,0.2,0.5,0.2c0.1,0,0.2,0.1,0.2,0.1l0.2,0.1l0.5,0.2
										c0.3,0.1,0.7,0.2,1,0.2c-0.3-0.1-0.6-0.2-0.9-0.4l-0.5-0.2l-0.2-0.1c-0.1,0-0.1-0.1-0.2-0.1c-0.1-0.1-0.3-0.2-0.4-0.3
										c-0.1-0.1-0.3-0.2-0.4-0.3l-0.2-0.1l-0.2-0.2c-0.1-0.1-0.2-0.2-0.4-0.3c-0.5-0.5-0.8-1-1.1-1.6c-0.1-0.3-0.2-0.6-0.3-0.9
										C195.1,25.8,195,25.5,195,25.2z"/>
								</g>
								<g>
									<g>
										<path class="st21" d="M201.8,33.6c0,0,1.6-2.1,2.5-1.5c0.9,0.6-0.3,3.6-1.4,4c-1.2,0.4-1.5-0.7-1.5-0.7L201.8,33.6z"/>
										<path class="st11" d="M203.9,32.9C203.9,32.9,203.9,33,203.9,32.9c-0.8,0.3-1.3,1-1.6,1.8c0.2-0.3,0.6-0.4,1-0.1
											c0,0,0,0,0,0c-0.3-0.1-0.6,0-0.8,0.2c-0.2,0.2-0.3,0.4-0.4,0.6c0,0.1-0.2,0-0.1-0.1c0,0,0,0,0,0
											C202,34.4,202.8,33,203.9,32.9z"/>
									</g>
								</g>
							</g>
						</g>
					</g>
					<g>
						<path class="st13" d="M197.5,41.5l1,3.1l4.1-3.6l1,1.3c0,0-4.1,5.9-4.1,5.6l-1.1-2.7l-1.9,1.7l0.5-4.6L197.5,41.5z"/>
						<path class="st11" d="M196.5,44.7c0.1-0.8,0.2-1.5,0.3-2.3c0,0,0,0,0.1,0c0.1,0.7-0.3,3.6-0.3,4.3c0,0,0,0,0,0
							c0.1-0.1,1.8-1.5,1.8-1.5c0.2,0.4,1,2.4,1.1,2.6c0.7-0.9,3.4-4.6,4.2-5.5c0,0,0.1,0,0,0c-0.6,1-4.2,5.8-4.2,5.8
							c0,0-1-2.4-1.1-2.9c-0.3,0.3-2,1.9-2,1.8C196.3,46.4,196.4,45.4,196.5,44.7z"/>
					</g>
				</g>
			</g>
		</g>
	</g>
	<g class="st4">
		<g>
			<g>
				<path class="st11" d="M49.2,102.8c0.1-1.9,0.4-3.7,0.8-5.5c0.4-1.6,0.9-3.3,2-4.7c0.9-1.2,2.3-2.2,3.9-2.4
					c1.5-0.2,2.9,0.5,4.1,1.4c1.4,1.2,2.5,2.7,3.5,4.3c1.1,1.7,2.1,3.5,3,5.3c0,0.1-0.1,0.1-0.1,0.1c-0.8-1.5-1.7-3-2.7-4.4
					c-0.9-1.3-1.9-2.6-3.1-3.8c-1-1-2.4-2-3.9-2c-1.5,0-2.9,0.8-3.8,1.9c-1,1.3-1.5,2.9-1.9,4.5c-0.4,1.7-0.6,3.5-0.8,5.3
					c-0.3,3.6-0.4,7.3-0.5,10.9c0,2.1-0.1,4.1-0.1,6.2c0,1,0,2.1,0,3.1c0,1,0,2-0.1,3c0,0.2-0.4,0.2-0.4,0c-0.2-0.9-0.1-1.9-0.1-2.9
					c0-1,0-2,0-3c0-1.9,0-3.9,0-5.8C48.8,110.6,48.9,106.7,49.2,102.8z"/>
				<g>
					<path class="st13" d="M54.4,100.1c0.2-1,0.5-2.4,1.1-3.2c1.1-1.4,2.2-0.8,1.1,0.8c-1.1,1.7-1.3,3.1-1.5,3.9
						c0,0,1.8,2.5,3.9,3.8c-0.1-1-0.4-2.5-0.2-3.9c0.4-3.1,2.3-2.9,1.8-0.5c-0.4,2-0.5,4.1-0.4,5c0.6,0.5,1.7,0.9,2.3,1.1
						c-0.1-0.4-0.3-0.8-0.4-1.3c-0.8-2.8,1.1-3.7,1.2-2.1c0,1.3,0.5,3.3,0.7,4c1,0.3,1.9,0.6,2.4,0.8c2.2,0.8,3.5,2.4,3.5,2.4
						c1-0.9,1.8-1.9,2.4-3.1c-0.7-0.6-1.7-1.4-3.1-2.4c-2.7-1.9-1.8-4.3,0.4-2.8c1.5,1.1,2.7,3.1,3.3,4.1c0.7-1.8,1.1-3.7,1.2-5.6
						c-2.1-2-7.3-4.7-5.8-4.7c1.4,0,4.6,2.1,5.7,2.9c0-0.6-0.1-1.1-0.2-1.6c-2-1.3-8.4-3.3-7.4-3.9c1.1-0.6,5.6,1.4,7,2.1
						c-0.3-1-0.7-1.8-1.2-2.5c-2.7-3.7-7.7-4.9-9.9-4.2c-1.5,0.5-1.1,4.4-1.4,4.2C54.9,90.8,52.1,92.5,54.4,100.1z M69.4,99.6
						c0.4-0.5,2.5,1,1.9,1.9C70.7,102.4,68.8,100.3,69.4,99.6z M58.9,96.3c0.5,0.3-0.3,2.3-1.1,1.7C57.1,97.5,58.3,96,58.9,96.3z"/>
					<path class="st19" d="M54.4,100.1c0.2-1,0.5-2.4,1.1-3.2c1.1-1.4,2.2-0.8,1.1,0.8c-1.1,1.7-1.3,3.1-1.5,3.9
						c0,0,1.8,2.5,3.9,3.8c-0.1-1-0.4-2.5-0.2-3.9c0.4-3.1,2.3-2.9,1.8-0.5c-0.4,2-0.5,4.1-0.4,5c0.6,0.5,1.7,0.9,2.3,1.1
						c-0.1-0.4-0.3-0.8-0.4-1.3c-0.8-2.8,1.1-3.7,1.2-2.1c0,1.3,0.5,3.3,0.7,4c1,0.3,1.9,0.6,2.4,0.8c2.2,0.8,3.5,2.4,3.5,2.4
						c1-0.9,1.8-1.9,2.4-3.1c-0.7-0.6-1.7-1.4-3.1-2.4c-2.7-1.9-1.8-4.3,0.4-2.8c1.5,1.1,2.7,3.1,3.3,4.1c0.7-1.8,1.1-3.7,1.2-5.6
						c-2.1-2-7.3-4.7-5.8-4.7c1.4,0,4.6,2.1,5.7,2.9c0-0.6-0.1-1.1-0.2-1.6c-2-1.3-8.4-3.3-7.4-3.9c1.1-0.6,5.6,1.4,7,2.1
						c-0.3-1-0.7-1.8-1.2-2.5c-2.7-3.7-7.7-4.9-9.9-4.2c-1.5,0.5-1.1,4.4-1.4,4.2C54.9,90.8,52.1,92.5,54.4,100.1z M69.4,99.6
						c0.4-0.5,2.5,1,1.9,1.9C70.7,102.4,68.8,100.3,69.4,99.6z M58.9,96.3c0.5,0.3-0.3,2.3-1.1,1.7C57.1,97.5,58.3,96,58.9,96.3z"/>
					<path class="st11" d="M59.7,96.9c0.3-0.5,0.6-1.1,0.9-1.6c0.3-0.5,0.6-1,1-1.5c-0.1-0.1-0.2-0.2-0.3-0.3c0,0,0-0.1,0.1-0.1
						c0.1,0.1,0.2,0.2,0.3,0.4c0,0,0,0,0,0.1c0.4,0.5,0.7,0.9,1.1,1.4c0.6,0.1,1.2,0.3,1.8,0.5c0.6,0.2,1.2,0.4,1.8,0.7
						c0.1,0,0,0.1,0,0.1c-0.6-0.3-1.2-0.5-1.8-0.7c-0.6-0.2-1.1-0.3-1.7-0.5c0.2,0.3,0.4,0.5,0.5,0.8c1.1,0.3,2.1,0.8,3.2,1.3
						c1.1,0.5,2.1,1.1,3.1,1.7c0.1,0,0,0.1-0.1,0.1c-1-0.6-2-1.1-3.1-1.6c-1-0.5-2-0.8-3-1.3c2.5,3.9,4,8.4,6,12.6
						c0,0.1-0.1,0.1-0.1,0.1c-0.6-1.5-1.3-2.9-2-4.3c-0.6-1.3-1.2-2.6-1.8-3.9c-0.2-0.4-0.4-0.8-0.5-1.1c0.1,2.1,0.1,4.2,0.4,6.3
						c0,0.1-0.1,0.1-0.1,0c-0.1-2.2-0.5-4.4-0.5-6.7c0,0,0,0,0,0c-0.4-0.9-0.9-1.7-1.4-2.5c-0.8,2-1.7,3.9-2.1,6c0,0.1-0.1,0-0.1,0
						c0.6-2.1,1.1-4.2,2.1-6.2c-0.5-0.9-1.1-1.7-1.8-2.5c-0.3,0.5-0.6,1-1,1.5c-0.3,0.5-0.6,1-0.9,1.5c-0.6,1.1-1.1,2.2-1.6,3.3
						c0,0.1-0.1,0-0.1,0C58.6,99.1,59.1,98,59.7,96.9z"/>
				</g>
			</g>
			<g>
				<path class="st11" d="M39.9,101.7c1.6-1.6,3.5-3.7,6-3.7c2.4,0,4.2,1.9,5.2,3.9c1.1,2.1,1.4,4.4,1.7,6.7
					c0.4,2.7,0.6,5.5,0.6,8.3c0,1.5,0,3.1,0,4.6c0,1.6-0.1,3.1-0.4,4.7c0,0.2-0.4,0.3-0.5,0c-0.1-1.3,0-2.6,0-3.9
					c0-1.3,0-2.6-0.1-3.8c-0.1-2.6-0.3-5.2-0.6-7.7c-0.3-2.2-0.5-4.5-1.1-6.7c-0.6-2-1.7-4.2-3.7-5C44.4,97.8,41.8,100,39.9,101.7
					C39.9,101.8,39.9,101.7,39.9,101.7z"/>
				<g>
					<path class="st13" d="M31.7,105.3L31.7,105.3c0,0.3,0,0.7,0.1,1c0.7-0.5,1.7-1,2.6-1.1c2.3-0.2,2.1,1.5,0.6,1.6
						c-1.5,0.1-2.4,0.3-3.1,0.6c0.4,3,1.2,5.4,1.3,5.5c0.1,0,2.9-0.2,6-0.8c-0.6-1.2-1.9-2.8-1.2-2.9c0.7-0.1,1.4,1.3,1.7,2.8
						c1.5-0.3,3.1-0.7,4.4-1.2c-1-0.9-2.6-2-2-2.4c0.6-0.5,1.8,1.1,2.6,2.2c0.7-0.3,1.4-0.7,1.9-1.1c-1.4-2-4.7-2.4-4.2-3.8
						c0.4-1.5,3.5,0.6,4.9,3.2c1.6-1.7,2.1-4.1,1.9-6.1c-1.4-0.2-4.1,0.1-3.9-0.9c0.2-1,2.2-0.8,3.8-0.2c-0.2-0.9-0.5-1.7-0.9-2.2
						c-1.5-1.9-6.1,0.5-6.1,0.5s0.5-4.6-1.3-5.4c-1-0.5-2.8-0.5-4.5,0.6c1,0.1,2.2,0.4,2.7,1.1c0.6,0.9-0.4,1.4-1,1
						c-0.4-0.3-1.3-1.2-2.7-1.3c-0.6,0.5-1.1,1.1-1.6,1.8c-0.2,0.2-0.3,0.5-0.5,0.8c1.4-0.6,3.3-0.9,5.3,0.1c2,1,0.9,3-0.8,2.2
						c-1.7-0.8-3.3-1.6-5.1-1.1c-0.7,1.5-0.9,3.3-0.9,5.1c0.7-0.5,1.7-1.1,2.9-1.4c2-0.5,2.6,0.7,0.4,0.9
						C33.6,104.4,32.5,104.9,31.7,105.3z M34.1,102.1c-0.1-0.6,1.3-0.8,1.5-0.3C35.8,102.3,34.2,102.8,34.1,102.1z M46,105.7
						c0.1-0.3,1.1,0,1,0.5C46.9,106.7,45.9,106,46,105.7z M39.4,107.9c0.7-0.3,1.7,1.4,1,1.8C39.7,110.1,38.9,108.1,39.4,107.9z"/>
					<path class="st19" d="M31.7,105.3L31.7,105.3c0,0.3,0,0.7,0.1,1c0.7-0.5,1.7-1,2.6-1.1c2.3-0.2,2.1,1.5,0.6,1.6
						c-1.5,0.1-2.4,0.3-3.1,0.6c0.4,3,1.2,5.4,1.3,5.5c0.1,0,2.9-0.2,6-0.8c-0.6-1.2-1.9-2.8-1.2-2.9c0.7-0.1,1.4,1.3,1.7,2.8
						c1.5-0.3,3.1-0.7,4.4-1.2c-1-0.9-2.6-2-2-2.4c0.6-0.5,1.8,1.1,2.6,2.2c0.7-0.3,1.4-0.7,1.9-1.1c-1.4-2-4.7-2.4-4.2-3.8
						c0.4-1.5,3.5,0.6,4.9,3.2c1.6-1.7,2.1-4.1,1.9-6.1c-1.4-0.2-4.1,0.1-3.9-0.9c0.2-1,2.2-0.8,3.8-0.2c-0.2-0.9-0.5-1.7-0.9-2.2
						c-1.5-1.9-6.1,0.5-6.1,0.5s0.5-4.6-1.3-5.4c-1-0.5-2.8-0.5-4.5,0.6c1,0.1,2.2,0.4,2.7,1.1c0.6,0.9-0.4,1.4-1,1
						c-0.4-0.3-1.3-1.2-2.7-1.3c-0.6,0.5-1.1,1.1-1.6,1.8c-0.2,0.2-0.3,0.5-0.5,0.8c1.4-0.6,3.3-0.9,5.3,0.1c2,1,0.9,3-0.8,2.2
						c-1.7-0.8-3.3-1.6-5.1-1.1c-0.7,1.5-0.9,3.3-0.9,5.1c0.7-0.5,1.7-1.1,2.9-1.4c2-0.5,2.6,0.7,0.4,0.9
						C33.6,104.4,32.5,104.9,31.7,105.3z M34.1,102.1c-0.1-0.6,1.3-0.8,1.5-0.3C35.8,102.3,34.2,102.8,34.1,102.1z M46,105.7
						c0.1-0.3,1.1,0,1,0.5C46.9,106.7,45.9,106,46,105.7z M39.4,107.9c0.7-0.3,1.7,1.4,1,1.8C39.7,110.1,38.9,108.1,39.4,107.9z"/>
					<path class="st11" d="M33.5,112.5c1-1.7,2-3.4,3.1-5.1c0.5-0.8,1-1.6,1.6-2.3c-0.1,0-0.2,0-0.2-0.1c-0.1,0-0.3-0.1-0.4-0.1
						c-0.3-0.1-0.6-0.1-0.9-0.1c-0.3,0-0.6,0-0.9-0.1c-0.3,0-0.7,0-1,0.1c0,0,0-0.1,0-0.1c0.3,0,0.6,0,1,0c0.3,0,0.6,0,0.9,0
						c0.3,0,0.6,0,0.9,0.1c0.2,0,0.3,0.1,0.5,0.1c0.1,0,0.2,0,0.3,0.1c0.6-0.8,1.1-1.5,1.7-2.2c-1.8-0.8-3.6-1.5-5.6-1.8
						c0,0,0-0.1,0-0.1c2,0.3,3.9,0.8,5.7,1.7c0.3-0.4,0.7-0.8,1-1.2c0.4-0.4,0.8-0.9,1.1-1.4c0,0,0.1,0,0,0c-0.5,0.5-0.9,1-1.3,1.6
						c0,0,0,0,0,0c0.7,0.5,1.4,1.1,2.1,1.7c0.7,0.6,1.3,1.2,2,1.9c0,0,0,0.1,0,0c-0.6-0.6-1.3-1.2-2-1.8c-0.7-0.6-1.4-1.1-2.1-1.7
						c0,0,0,0,0,0c-0.2,0.2-0.3,0.4-0.5,0.6c-0.1,0.1-0.2,0.2-0.2,0.3c0,0,0,0,0,0c-0.3,0.3-0.5,0.7-0.8,1c0.3,0.4,0.6,0.9,0.8,1.4
						c0.2,0.5,0.4,1,0.6,1.5c0.4,1,0.6,2.1,0.9,3.2c0,0,0,0,0,0c-0.2-1.1-0.5-2.1-0.9-3.1c-0.2-0.5-0.4-1-0.7-1.5
						c-0.2-0.5-0.5-0.9-0.7-1.4c-0.2,0.3-0.5,0.6-0.7,0.9c-0.1,0.1-0.1,0.2-0.2,0.3c0,0,0,0,0,0c0,0,0,0,0,0c-0.7,1-1.4,2-2,3
						c0,0.1,0.1,0.1,0.1,0.2c0,0.1,0.1,0.2,0.1,0.4c0.1,0.3,0.1,0.5,0.2,0.8c0,0.2,0.1,0.5,0.1,0.7c0,0.3,0,0.6,0.1,0.8
						c0,0-0.1,0-0.1,0c0-0.2,0-0.5-0.1-0.8c0-0.3-0.1-0.5-0.1-0.8c-0.1-0.2-0.1-0.5-0.2-0.7c0-0.1-0.1-0.2-0.1-0.3
						c0-0.1-0.1-0.1-0.1-0.2c-0.3,0.5-0.6,1-0.9,1.4C34.7,110.6,34.1,111.6,33.5,112.5C33.5,112.6,33.4,112.6,33.5,112.5z"/>
				</g>
			</g>
			<g>
				<path class="st11" d="M49.3,125.7c0-1,0.2-1.9,0.3-2.9c0.1-1,0.2-1.9,0.3-2.9c0.2-1.9,0.3-3.8,0.8-5.6c0.4-1.6,1.1-3.1,2.3-4.2
					c0.6-0.6,1.4-1,2.2-1.1c0.9,0,1.7,0.3,2.4,0.7c0.8,0.5,1.4,1.3,2,2.1c0.6,0.8,1.1,1.6,1.6,2.5c0,0,0,0.1-0.1,0
					c-0.9-1.5-2-2.7-3.4-3.8c-0.6-0.5-1.3-0.8-2.1-0.9c-0.8-0.1-1.5,0.3-2.1,0.8c-1.1,1-1.8,2.4-2.2,3.9c-0.5,1.7-0.6,3.5-0.8,5.2
					c-0.1,1-0.3,2.1-0.4,3.1c-0.1,1-0.2,2.1-0.4,3.1C49.6,125.9,49.3,125.9,49.3,125.7z"/>
				<g>
					<path class="st13" d="M54,118.1c0.3,0.4,0.6,0.7,1.1,1.1c-0.2-0.9-0.4-2.6,0.1-3.5c0.7-1.4,1.6-0.7,1.2,0.5
						c-0.6,1.7-0.7,2.9-0.7,3.4c0.9,0.6,2.1,1.1,3.2,1.5c-0.1-0.5-0.2-1-0.1-1.7c0.1-1.5,1.3-1.5,1,0.1c-0.1,0.7-0.2,1.3-0.2,1.8
						c2.6,0.8,5,1.1,5,1.1c1-1.3,1.6-2.5,2.1-3.7c-1.2-0.3-3.7-0.4-3.6-1.2c0.1-1.2,2.4-0.3,3.8,0.6c0.3-1.1,0.5-2.2,0.4-3.1
						c-0.5-0.2-1.5-0.4-3.3-0.6c-2.5-0.2-2.4-1.6-0.6-1.6c1.3,0,3,0.8,3.8,1.3c-0.5-3.4-3.1-5.6-5.2-5.6c-3.5-0.1-2.2,4.2-2.2,4.2
						s-2.4-1.7-4.6-1.6C53.1,111.1,51.7,114.8,54,118.1z M63.3,111.8c-0.1-0.5,1.5-0.6,1.6,0C65,112.6,63.4,112.3,63.3,111.8z
						 M65.8,116.9c0-0.3,0.6-0.4,0.8,0C66.7,117.2,65.9,117.2,65.8,116.9z M57.5,117.2c0.5,0.1,0.8,2-0.1,1.9
						C56.7,119.1,57,117.2,57.5,117.2z"/>
					<path class="st19" d="M54,118.1c0.3,0.4,0.6,0.7,1.1,1.1c-0.2-0.9-0.4-2.6,0.1-3.5c0.7-1.4,1.6-0.7,1.2,0.5
						c-0.6,1.7-0.7,2.9-0.7,3.4c0.9,0.6,2.1,1.1,3.2,1.5c-0.1-0.5-0.2-1-0.1-1.7c0.1-1.5,1.3-1.5,1,0.1c-0.1,0.7-0.2,1.3-0.2,1.8
						c2.6,0.8,5,1.1,5,1.1c1-1.3,1.6-2.5,2.1-3.7c-1.2-0.3-3.7-0.4-3.6-1.2c0.1-1.2,2.4-0.3,3.8,0.6c0.3-1.1,0.5-2.2,0.4-3.1
						c-0.5-0.2-1.5-0.4-3.3-0.6c-2.5-0.2-2.4-1.6-0.6-1.6c1.3,0,3,0.8,3.8,1.3c-0.5-3.4-3.1-5.6-5.2-5.6c-3.5-0.1-2.2,4.2-2.2,4.2
						s-2.4-1.7-4.6-1.6C53.1,111.1,51.7,114.8,54,118.1z M63.3,111.8c-0.1-0.5,1.5-0.6,1.6,0C65,112.6,63.4,112.3,63.3,111.8z
						 M65.8,116.9c0-0.3,0.6-0.4,0.8,0C66.7,117.2,65.9,117.2,65.8,116.9z M57.5,117.2c0.5,0.1,0.8,2-0.1,1.9
						C56.7,119.1,57,117.2,57.5,117.2z"/>
					<g>
						<path class="st11" d="M58.2,119.3c0.1-0.2,0.2-0.5,0.2-0.7C58.4,118.8,58.3,119.1,58.2,119.3
							C58.3,119.4,58.2,119.4,58.2,119.3z"/>
						<path class="st11" d="M59.1,116.3c0.2-0.5,0.3-1,0.5-1.4c0.1-0.3,0.2-0.5,0.3-0.8c0.1-0.2,0.2-0.4,0.3-0.6
							c-0.1-0.2-0.2-0.4-0.3-0.6c0,0,0,0,0,0c0.3,0.3,0.5,0.7,0.7,1.1c0.1,0.2,0.2,0.3,0.3,0.5c0.2,0,0.4,0.1,0.6,0.1
							c0.2,0,0.4,0.1,0.6,0.1c0.2,0,0.4,0.1,0.6,0.1c0.2,0,0.4,0.1,0.6,0.1c0,0,0,0.1,0,0.1c-0.2-0.1-0.4-0.1-0.7-0.2
							c-0.2,0-0.4-0.1-0.6-0.1c-0.2,0-0.4-0.1-0.6-0.1c-0.2,0-0.3,0-0.5,0c0.1,0.1,0.2,0.3,0.3,0.4c0,0,0,0,0,0.1
							c0.2,0,0.3,0,0.5,0.1c0.2,0,0.4,0.1,0.5,0.1c0.4,0.1,0.7,0.2,1.1,0.3c0.8,0.2,1.5,0.5,2.2,0.7c0,0,0,0.1,0,0.1
							c-0.7-0.3-1.5-0.5-2.3-0.6c-0.4-0.1-0.7-0.2-1.1-0.2c-0.2,0-0.4-0.1-0.5-0.1c-0.1,0-0.3,0-0.4-0.1c0.4,0.7,0.7,1.4,1.1,2.2
							c0.7,1.6,1.3,3.2,2,4.9c0,0,0,0.1-0.1,0c-0.6-1.6-1.3-3.2-2.1-4.8c-0.1-0.3-0.3-0.6-0.4-0.8c0,0.1,0,0.1,0,0.2
							c0,0.2-0.1,0.4-0.1,0.6c-0.1,0.4-0.1,0.8-0.2,1.2c-0.1,0.8-0.3,1.6-0.3,2.4c0,0.1-0.1,0-0.1,0c0.1-0.4,0.1-0.8,0.1-1.2
							c0-0.4,0.1-0.8,0.1-1.2c0-0.4,0.1-0.8,0.2-1.2c0-0.2,0.1-0.4,0.1-0.6c0-0.1,0-0.3,0.1-0.4c-0.2-0.4-0.4-0.8-0.6-1.2
							c-0.2-0.4-0.4-0.8-0.6-1.1c-0.1-0.2-0.2-0.3-0.3-0.5c-0.1,0.2-0.2,0.4-0.2,0.6c-0.1,0.2-0.2,0.4-0.3,0.7
							c-0.2,0.5-0.4,1-0.6,1.5c-0.3,0.7-0.6,1.4-0.8,2.1C58.7,117.7,58.9,117,59.1,116.3z"/>
						<path class="st11" d="M58.4,118.6c0-0.1,0-0.1,0.1-0.2C58.5,118.5,58.5,118.6,58.4,118.6z"/>
					</g>
				</g>
			</g>
		</g>
		<g>
			<g>
				<polygon class="st12" points="43.4,123.8 43.7,129 44.3,142.3 58.1,142.3 58.7,129 59,123.8 				"/>
				<polygon class="st11" points="43.4,123.8 43.7,129 58.7,129 59,123.8 				"/>
			</g>
			
				<rect x="42.5" y="121.7" transform="matrix(-1 -1.224647e-16 1.224647e-16 -1 102.4154 247.5285)" class="st12" width="17.5" height="4.2"/>
			<g>
				<rect x="54.6" y="142.3" class="st12" width="2.4" height="2.2"/>
				<rect x="54.6" y="142.3" class="st11" width="2.4" height="1.1"/>
			</g>
			<g>
				<rect x="45.4" y="142.3" class="st12" width="2.4" height="2.2"/>
				<rect x="45.4" y="142.3" class="st11" width="2.4" height="1.1"/>
			</g>
		</g>
	</g>
	<g class="st4">
		<g>
			<path class="st22" d="M185.7,25.6c0.6-0.9,0.9-1.9,0.9-3c0-3.8-4.2-6.9-9.4-6.9c-5.2,0-9.4,3.1-9.4,6.9s4.2,6.9,9.4,6.9
				c2.5,0,4.8-0.7,6.5-1.9l3.2,0.8L185.7,25.6z"/>
			<path class="st11" d="M185.7,25.6c0.5-0.9,0.8-1.9,0.8-2.9c0-1-0.3-2-0.8-2.8c-1.1-1.7-2.8-2.8-4.7-3.3c-1.9-0.6-3.9-0.7-5.8-0.3
				c-1.9,0.3-3.8,1.2-5.1,2.5c-1.3,1.3-2,3.3-1.5,5.1c0.5,1.8,2,3.2,3.7,4.1c3.5,1.6,8,1.6,11.3-0.6l0.1-0.1l0.1,0l3.2,0.9l-0.1,0.2
				L185.7,25.6z M185.7,25.6l1.4,2.8l0.1,0.2l-0.2-0.1l-3.3-0.7l0.2,0c-1.7,1.2-3.7,1.9-5.8,2.1c-2.1,0.2-4.2-0.2-6.1-1.1
				c-1.9-0.9-3.6-2.4-4.3-4.6c-0.3-1.1-0.3-2.2,0-3.3c0.3-1.1,1-2,1.7-2.7c1.5-1.5,3.6-2.4,5.6-2.7c2.1-0.4,4.2-0.2,6.2,0.5
				c2,0.7,3.8,1.9,4.8,3.8c0.5,0.9,0.7,2,0.7,3C186.7,23.8,186.3,24.8,185.7,25.6z"/>
		</g>
		<g>
			<path class="st11" d="M173.9,22.6c0,0.5-0.4,1-1,1c-0.5,0-1-0.4-1-1c0-0.5,0.4-1,1-1C173.5,21.6,173.9,22.1,173.9,22.6z"/>
			<path class="st11" d="M178.3,22.6c0,0.5-0.4,1-1,1c-0.5,0-1-0.4-1-1c0-0.5,0.4-1,1-1C177.8,21.6,178.3,22.1,178.3,22.6z"/>
			<path class="st11" d="M182.6,22.6c0,0.5-0.4,1-1,1c-0.5,0-1-0.4-1-1c0-0.5,0.4-1,1-1C182.2,21.6,182.6,22.1,182.6,22.6z"/>
		</g>
	</g>
</g>
</svg>
