<svg width="116" height="43" viewBox="0 0 116 43" fill="none" xmlns="http://www.w3.org/2000/svg">
<path d="M24.176 24.56C24.224 24.752 24.248 24.896 24.248 24.992C24.248 25.304 24.14 25.556 23.924 25.748C23.708 25.94 23.456 26.036 23.168 26.036C22.928 26.036 22.712 25.976 22.52 25.856C22.352 25.712 22.22 25.532 22.124 25.316L19.424 18.728H7.724L5.06 25.316C4.868 25.796 4.544 26.036 4.088 26.036C3.752 26.036 3.5 25.952 3.332 25.784C3.164 25.616 3.068 25.388 3.044 25.1V24.992C3.044 24.848 3.056 24.74 3.08 24.668L12.584 1.412C12.776 0.931999 13.136 0.692 13.664 0.692C13.904 0.692 14.108 0.763999 14.276 0.907999C14.468 1.028 14.612 1.196 14.708 1.412L24.176 24.56ZM18.56 16.604L13.52 4.292L8.552 16.604H18.56ZM36.7566 7.172C37.2366 7.172 37.6686 7.268 38.0526 7.46C38.4366 7.652 38.6286 7.94 38.6286 8.324C38.6286 8.66 38.5326 8.936 38.3406 9.152C38.1486 9.344 37.9206 9.44 37.6566 9.44C37.5366 9.44 37.2966 9.38 36.9366 9.26C36.6006 9.14 36.2766 9.08 35.9646 9.08C35.0766 9.08 34.1886 9.428 33.3006 10.124C32.4366 10.796 31.7166 11.672 31.1406 12.752C30.5886 13.832 30.3126 14.924 30.3126 16.028V24.92C30.3126 25.232 30.2046 25.496 29.9886 25.712C29.7966 25.904 29.5446 26 29.2326 26C28.9206 26 28.6566 25.904 28.4406 25.712C28.2486 25.496 28.1526 25.232 28.1526 24.92V8.792C28.1526 8.48 28.2486 8.228 28.4406 8.036C28.6566 7.82 28.9206 7.712 29.2326 7.712C29.5446 7.712 29.7966 7.82 29.9886 8.036C30.2046 8.228 30.3126 8.48 30.3126 8.792V11.96C30.8646 10.592 31.6926 9.464 32.7966 8.576C33.9246 7.664 35.2446 7.196 36.7566 7.172Z" fill="#FFFCF6"/>
<path d="M74.5952 19.74C74.5952 20.028 74.4872 20.28 74.2712 20.496C74.0552 20.688 73.8032 20.784 73.5152 20.784H59.9072C59.9072 22.224 60.1952 23.52 60.7712 24.672C61.3712 25.8 62.2112 26.7 63.2912 27.372C64.3952 28.02 65.6912 28.344 67.1792 28.344C68.3312 28.344 69.3632 28.104 70.2752 27.624C71.1872 27.144 71.9192 26.532 72.4712 25.788C72.7352 25.572 72.9872 25.464 73.2272 25.464C73.4672 25.464 73.6832 25.56 73.8752 25.752C74.0672 25.944 74.1632 26.16 74.1632 26.4C74.1632 26.664 74.0432 26.916 73.8032 27.156C73.0352 28.092 72.0632 28.86 70.8872 29.46C69.7352 30.06 68.5112 30.36 67.2152 30.36C65.3672 30.36 63.7352 29.964 62.3192 29.172C60.9032 28.38 59.7992 27.276 59.0072 25.86C58.2152 24.42 57.8192 22.764 57.8192 20.892C57.8192 18.924 58.2032 17.208 58.9712 15.744C59.7632 14.256 60.8072 13.128 62.1032 12.36C63.3992 11.568 64.7792 11.172 66.2432 11.172C67.6832 11.172 69.0272 11.508 70.2752 12.18C71.5472 12.852 72.5792 13.836 73.3712 15.132C74.1632 16.428 74.5712 17.964 74.5952 19.74ZM66.2432 13.26C64.8512 13.26 63.5552 13.74 62.3552 14.7C61.1792 15.66 60.4232 17.04 60.0872 18.84H72.3632V18.552C72.2432 17.472 71.8832 16.536 71.2832 15.744C70.6832 14.928 69.9272 14.316 69.0152 13.908C68.1272 13.476 67.2032 13.26 66.2432 13.26ZM87.0031 11.172C88.1311 11.172 89.1751 11.304 90.1351 11.568C91.1191 11.808 91.8991 12.144 92.4751 12.576C93.0751 13.008 93.3751 13.476 93.3751 13.98C93.3751 14.244 93.2791 14.484 93.0871 14.7C92.9191 14.916 92.7031 15.024 92.4391 15.024C92.1991 15.024 91.9951 14.976 91.8271 14.88C91.6831 14.784 91.5151 14.64 91.3231 14.448C91.0111 14.136 90.7111 13.908 90.4231 13.764C90.0631 13.596 89.5831 13.464 88.9831 13.368C88.4071 13.248 87.7831 13.188 87.1111 13.188C85.7911 13.188 84.5791 13.524 83.4751 14.196C82.3951 14.868 81.5431 15.78 80.9191 16.932C80.2951 18.084 79.9831 19.356 79.9831 20.748C79.9831 22.188 80.2831 23.484 80.8831 24.636C81.4831 25.788 82.3111 26.7 83.3671 27.372C84.4471 28.02 85.6711 28.344 87.0391 28.344C87.9031 28.344 88.5871 28.272 89.0911 28.128C89.6191 27.984 90.1351 27.78 90.6391 27.516C90.8071 27.42 91.0951 27.204 91.5031 26.868C91.6951 26.7 91.8631 26.58 92.0071 26.508C92.1511 26.412 92.3071 26.364 92.4751 26.364C92.7631 26.364 92.9911 26.46 93.1591 26.652C93.3271 26.82 93.4111 27.048 93.4111 27.336C93.4111 27.744 93.1231 28.188 92.5471 28.668C91.9711 29.124 91.1791 29.52 90.1711 29.856C89.1631 30.192 88.0471 30.36 86.8231 30.36C85.0711 30.36 83.5111 29.952 82.1431 29.136C80.7751 28.296 79.7071 27.144 78.9391 25.68C78.1951 24.216 77.8231 22.572 77.8231 20.748C77.8231 18.996 78.2071 17.4 78.9751 15.96C79.7431 14.496 80.8231 13.332 82.2151 12.468C83.6071 11.604 85.2031 11.172 87.0031 11.172ZM105.927 11.46C108.087 11.46 109.695 12.144 110.751 13.512C111.807 14.856 112.335 16.596 112.335 18.732V28.92C112.335 29.232 112.227 29.496 112.011 29.712C111.819 29.904 111.567 30 111.255 30C110.943 30 110.679 29.904 110.463 29.712C110.271 29.496 110.175 29.232 110.175 28.92V18.732C110.175 17.172 109.803 15.912 109.059 14.952C108.315 13.968 107.151 13.476 105.567 13.476C104.559 13.476 103.599 13.716 102.687 14.196C101.799 14.676 101.079 15.324 100.527 16.14C99.9753 16.932 99.6993 17.796 99.6993 18.732V28.92C99.6993 29.232 99.5913 29.496 99.3753 29.712C99.1833 29.904 98.9313 30 98.6193 30C98.3073 30 98.0433 29.904 97.8273 29.712C97.6353 29.496 97.5393 29.232 97.5393 28.92V4.44C97.5393 4.128 97.6353 3.876 97.8273 3.684C98.0433 3.468 98.3073 3.36 98.6193 3.36C98.9313 3.36 99.1833 3.468 99.3753 3.684C99.5913 3.876 99.6993 4.128 99.6993 4.44V14.988C100.347 13.956 101.247 13.116 102.399 12.468C103.551 11.796 104.727 11.46 105.927 11.46Z" fill="#FFFCF6"/>
<path d="M6.75702 36.898C6.74968 37.03 6.69468 37.1437 6.59202 37.239C6.48935 37.327 6.36835 37.371 6.22902 37.371H2.35702C2.40835 37.9063 2.61002 38.3353 2.96202 38.658C3.32135 38.9807 3.75768 39.142 4.27102 39.142C4.62302 39.142 4.90902 39.0907 5.12902 38.988C5.34902 38.8853 5.54335 38.7533 5.71202 38.592C5.82202 38.526 5.92835 38.493 6.03102 38.493C6.15568 38.493 6.25835 38.537 6.33902 38.625C6.42702 38.713 6.47102 38.8157 6.47102 38.933C6.47102 39.087 6.39768 39.2263 6.25102 39.351C6.03835 39.5637 5.75602 39.7433 5.40402 39.89C5.05202 40.0367 4.69268 40.11 4.32602 40.11C3.73202 40.11 3.20768 39.9853 2.75302 39.736C2.30568 39.4867 1.95735 39.1383 1.70802 38.691C1.46602 38.2437 1.34502 37.7377 1.34502 37.173C1.34502 36.557 1.46968 36.018 1.71902 35.556C1.97568 35.0867 2.30935 34.7273 2.72002 34.478C3.13802 34.2287 3.58535 34.104 4.06202 34.104C4.53135 34.104 4.97135 34.225 5.38202 34.467C5.79268 34.709 6.12268 35.0427 6.37202 35.468C6.62135 35.8933 6.74968 36.37 6.75702 36.898ZM4.06202 35.072C3.65135 35.072 3.29568 35.1893 2.99502 35.424C2.69435 35.6513 2.49635 36.007 2.40102 36.491H5.64602V36.403C5.60935 36.0143 5.43335 35.6953 5.11802 35.446C4.81002 35.1967 4.45802 35.072 4.06202 35.072ZM12.3167 34.181C12.4561 34.181 12.5734 34.2287 12.6687 34.324C12.7641 34.412 12.8117 34.5183 12.8117 34.643C12.8117 34.709 12.7861 34.8007 12.7347 34.918L10.6447 39.67C10.6007 39.7653 10.5384 39.8423 10.4577 39.901C10.3771 39.9597 10.2891 39.9927 10.1937 40C10.0764 40.0147 9.96641 39.9927 9.86374 39.934C9.76841 39.8753 9.69508 39.7873 9.64374 39.67L7.55374 34.918C7.51708 34.808 7.49874 34.7163 7.49874 34.643C7.49874 34.5257 7.54641 34.4193 7.64174 34.324C7.73708 34.2287 7.86174 34.181 8.01574 34.181C8.12574 34.181 8.22474 34.2103 8.31274 34.269C8.40074 34.3203 8.47041 34.401 8.52174 34.511L10.1827 38.372L11.8437 34.511C11.9464 34.291 12.1041 34.181 12.3167 34.181ZM18.9494 36.898C18.9421 37.03 18.8871 37.1437 18.7844 37.239C18.6817 37.327 18.5607 37.371 18.4214 37.371H14.5494C14.6007 37.9063 14.8024 38.3353 15.1544 38.658C15.5137 38.9807 15.9501 39.142 16.4634 39.142C16.8154 39.142 17.1014 39.0907 17.3214 38.988C17.5414 38.8853 17.7357 38.7533 17.9044 38.592C18.0144 38.526 18.1207 38.493 18.2234 38.493C18.3481 38.493 18.4507 38.537 18.5314 38.625C18.6194 38.713 18.6634 38.8157 18.6634 38.933C18.6634 39.087 18.5901 39.2263 18.4434 39.351C18.2307 39.5637 17.9484 39.7433 17.5964 39.89C17.2444 40.0367 16.8851 40.11 16.5184 40.11C15.9244 40.11 15.4001 39.9853 14.9454 39.736C14.4981 39.4867 14.1497 39.1383 13.9004 38.691C13.6584 38.2437 13.5374 37.7377 13.5374 37.173C13.5374 36.557 13.6621 36.018 13.9114 35.556C14.1681 35.0867 14.5017 34.7273 14.9124 34.478C15.3304 34.2287 15.7777 34.104 16.2544 34.104C16.7237 34.104 17.1637 34.225 17.5744 34.467C17.9851 34.709 18.3151 35.0427 18.5644 35.468C18.8137 35.8933 18.9421 36.37 18.9494 36.898ZM16.2544 35.072C15.8437 35.072 15.4881 35.1893 15.1874 35.424C14.8867 35.6513 14.6887 36.007 14.5934 36.491H17.8384V36.403C17.8017 36.0143 17.6257 35.6953 17.3104 35.446C17.0024 35.1967 16.6504 35.072 16.2544 35.072ZM23.0338 34.104C23.2245 34.104 23.3895 34.1553 23.5288 34.258C23.6682 34.3533 23.7378 34.4743 23.7378 34.621C23.7378 34.797 23.6902 34.9327 23.5948 35.028C23.5068 35.116 23.3968 35.16 23.2648 35.16C23.1988 35.16 23.0998 35.138 22.9678 35.094C22.8138 35.0427 22.6928 35.017 22.6048 35.017C22.3775 35.017 22.1538 35.0977 21.9338 35.259C21.7212 35.413 21.5452 35.6293 21.4058 35.908C21.2738 36.1793 21.2078 36.4837 21.2078 36.821V39.472C21.2078 39.6187 21.1565 39.7433 21.0538 39.846C20.9585 39.9487 20.8338 40 20.6798 40C20.5258 40 20.4012 39.9523 20.3058 39.857C20.2105 39.7543 20.1628 39.626 20.1628 39.472V34.764C20.1628 34.6173 20.2105 34.4927 20.3058 34.39C20.4085 34.2873 20.5332 34.236 20.6798 34.236C20.8338 34.236 20.9585 34.2873 21.0538 34.39C21.1565 34.4927 21.2078 34.6173 21.2078 34.764V35.325C21.3692 34.9657 21.6112 34.676 21.9338 34.456C22.2565 34.2287 22.6232 34.1113 23.0338 34.104ZM28.9968 34.181C29.1508 34.181 29.2754 34.2323 29.3708 34.335C29.4734 34.4377 29.5248 34.5623 29.5248 34.709V39.461C29.5248 40.3777 29.2718 41.0633 28.7658 41.518C28.2598 41.9727 27.5924 42.2 26.7638 42.2C26.4924 42.2 26.2248 42.1743 25.9608 42.123C25.6968 42.0717 25.4804 42.002 25.3118 41.914C25.0404 41.7893 24.9048 41.6207 24.9048 41.408C24.9048 41.3713 24.9121 41.3237 24.9268 41.265C24.9708 41.1403 25.0331 41.045 25.1138 40.979C25.1944 40.913 25.2861 40.88 25.3888 40.88C25.4474 40.88 25.5024 40.891 25.5538 40.913C25.7811 41.0157 25.9828 41.0963 26.1588 41.155C26.3348 41.2137 26.5401 41.243 26.7748 41.243C27.9114 41.243 28.4798 40.66 28.4798 39.494V39.274C28.2818 39.538 28.0251 39.7433 27.7098 39.89C27.4018 40.0367 27.0461 40.11 26.6428 40.11C26.0341 40.11 25.5574 39.9157 25.2128 39.527C24.8754 39.1383 24.7068 38.6287 24.7068 37.998V34.709C24.7068 34.555 24.7544 34.4303 24.8498 34.335C24.9451 34.2323 25.0698 34.181 25.2238 34.181C25.3778 34.181 25.5024 34.2323 25.5978 34.335C25.7004 34.4377 25.7518 34.5623 25.7518 34.709V37.723C25.7518 38.207 25.8581 38.5663 26.0708 38.801C26.2834 39.0283 26.6061 39.142 27.0388 39.142C27.4568 39.142 27.8014 39.01 28.0728 38.746C28.3441 38.482 28.4798 38.141 28.4798 37.723V34.709C28.4798 34.555 28.5274 34.4303 28.6228 34.335C28.7181 34.2323 28.8428 34.181 28.9968 34.181ZM32.6389 35.259V38.537C32.6389 38.9037 32.8039 39.087 33.1339 39.087C33.1852 39.087 33.2549 39.076 33.3429 39.054C33.4309 39.0247 33.5006 39.01 33.5519 39.01C33.6472 39.01 33.7279 39.0503 33.7939 39.131C33.8599 39.2117 33.8929 39.3143 33.8929 39.439C33.8929 39.593 33.8049 39.725 33.6289 39.835C33.4529 39.945 33.2549 40 33.0349 40C32.7929 40 32.5692 39.9743 32.3639 39.923C32.1659 39.8717 31.9862 39.7433 31.8249 39.538C31.6709 39.3253 31.5939 39.0063 31.5939 38.581V35.259H30.9559C30.8166 35.259 30.6992 35.215 30.6039 35.127C30.5159 35.0317 30.4719 34.9143 30.4719 34.775C30.4719 34.6357 30.5159 34.522 30.6039 34.434C30.6992 34.346 30.8166 34.302 30.9559 34.302H31.5939V33.378C31.5939 33.2313 31.6416 33.1067 31.7369 33.004C31.8396 32.9013 31.9679 32.85 32.1219 32.85C32.2686 32.85 32.3896 32.9013 32.4849 33.004C32.5876 33.1067 32.6389 33.2313 32.6389 33.378V34.302H33.5519C33.6912 34.302 33.8049 34.3497 33.8929 34.445C33.9882 34.533 34.0359 34.6467 34.0359 34.786C34.0359 34.9253 33.9882 35.039 33.8929 35.127C33.8049 35.215 33.6912 35.259 33.5519 35.259H32.6389ZM38.1266 34.137C39.4173 34.137 40.0626 34.9363 40.0626 36.535V39.472C40.0626 39.6187 40.0113 39.7433 39.9086 39.846C39.8133 39.9487 39.6886 40 39.5346 40C39.3879 40 39.2633 39.9487 39.1606 39.846C39.0653 39.7433 39.0176 39.6187 39.0176 39.472V36.535C39.0176 35.5817 38.6143 35.105 37.8076 35.105C37.3749 35.105 37.0156 35.2443 36.7296 35.523C36.4436 35.7943 36.3006 36.1317 36.3006 36.535V39.472C36.3006 39.6187 36.2493 39.7433 36.1466 39.846C36.0513 39.9487 35.9266 40 35.7726 40C35.6186 40 35.4939 39.9523 35.3986 39.857C35.3033 39.7543 35.2556 39.626 35.2556 39.472V32.388C35.2556 32.2413 35.3033 32.1167 35.3986 32.014C35.5013 31.9113 35.6259 31.86 35.7726 31.86C35.9266 31.86 36.0513 31.9113 36.1466 32.014C36.2493 32.1167 36.3006 32.2413 36.3006 32.388V35.171C36.4839 34.885 36.7406 34.643 37.0706 34.445C37.4006 34.2397 37.7526 34.137 38.1266 34.137ZM42.6157 39.472C42.6157 39.6187 42.5644 39.7433 42.4617 39.846C42.3664 39.9487 42.2417 40 42.0877 40C41.9411 40 41.8164 39.9487 41.7137 39.846C41.6184 39.7433 41.5707 39.6187 41.5707 39.472V34.709C41.5707 34.5623 41.6184 34.4377 41.7137 34.335C41.8164 34.2323 41.9411 34.181 42.0877 34.181C42.2417 34.181 42.3664 34.2323 42.4617 34.335C42.5644 34.4377 42.6157 34.5623 42.6157 34.709V39.472ZM42.0877 33.455C41.8751 33.455 41.7211 33.4183 41.6257 33.345C41.5377 33.2643 41.4937 33.1397 41.4937 32.971V32.795C41.4937 32.619 41.5414 32.4943 41.6367 32.421C41.7394 32.3477 41.8934 32.311 42.0987 32.311C42.3041 32.311 42.4507 32.3513 42.5387 32.432C42.6341 32.5053 42.6817 32.6263 42.6817 32.795V32.971C42.6817 33.147 42.6341 33.2717 42.5387 33.345C42.4434 33.4183 42.2931 33.455 42.0877 33.455ZM47.0549 34.104C48.3749 34.104 49.0349 34.896 49.0349 36.48V39.472C49.0349 39.6187 48.9836 39.7433 48.8809 39.846C48.7856 39.9487 48.6609 40 48.5069 40C48.3602 40 48.2356 39.9487 48.1329 39.846C48.0376 39.7433 47.9899 39.6187 47.9899 39.472V36.491C47.9899 36.0583 47.8909 35.7137 47.6929 35.457C47.4949 35.2003 47.1722 35.072 46.7249 35.072C46.4316 35.072 46.1639 35.138 45.9219 35.27C45.6872 35.3947 45.5002 35.567 45.3609 35.787C45.2289 35.9997 45.1629 36.2343 45.1629 36.491V39.472C45.1629 39.6187 45.1116 39.7433 45.0089 39.846C44.9136 39.9487 44.7889 40 44.6349 40C44.4809 40 44.3562 39.9523 44.2609 39.857C44.1656 39.7543 44.1179 39.626 44.1179 39.472V34.764C44.1179 34.6173 44.1656 34.4927 44.2609 34.39C44.3636 34.2873 44.4882 34.236 44.6349 34.236C44.7889 34.236 44.9136 34.2873 45.0089 34.39C45.1116 34.4927 45.1629 34.6173 45.1629 34.764V35.149C45.3536 34.8557 45.6176 34.61 45.9549 34.412C46.2996 34.2067 46.6662 34.104 47.0549 34.104ZM55.4135 34.159C55.5675 34.159 55.6921 34.2103 55.7875 34.313C55.8901 34.4083 55.9415 34.5367 55.9415 34.698V39.538C55.9415 40.132 55.8131 40.627 55.5565 41.023C55.3071 41.4263 54.9661 41.7233 54.5335 41.914C54.1008 42.1047 53.6131 42.2 53.0705 42.2C52.7771 42.2 52.4325 42.1487 52.0365 42.046C51.6478 41.9433 51.3985 41.837 51.2885 41.727C51.0611 41.6097 50.9475 41.463 50.9475 41.287C50.9475 41.243 50.9621 41.1843 50.9915 41.111C51.0721 40.9277 51.2078 40.836 51.3985 40.836C51.4938 40.836 51.5965 40.858 51.7065 40.902C52.2931 41.1293 52.7515 41.243 53.0815 41.243C53.6681 41.243 54.1155 41.1 54.4235 40.814C54.7388 40.5353 54.8965 40.1503 54.8965 39.659V39.065C54.7425 39.351 54.4821 39.5967 54.1155 39.802C53.7561 40.0073 53.3748 40.11 52.9715 40.11C52.4655 40.11 52.0035 39.9817 51.5855 39.725C51.1675 39.4683 50.8375 39.1127 50.5955 38.658C50.3608 38.196 50.2435 37.679 50.2435 37.107C50.2435 36.535 50.3608 36.0217 50.5955 35.567C50.8375 35.105 51.1638 34.7457 51.5745 34.489C51.9925 34.2323 52.4508 34.104 52.9495 34.104C53.3528 34.104 53.7268 34.1957 54.0715 34.379C54.4235 34.5623 54.6985 34.786 54.8965 35.05V34.698C54.8965 34.544 54.9441 34.4157 55.0395 34.313C55.1348 34.2103 55.2595 34.159 55.4135 34.159ZM53.0925 39.142C53.4518 39.142 53.7708 39.0577 54.0495 38.889C54.3281 38.713 54.5445 38.471 54.6985 38.163C54.8598 37.8477 54.9405 37.4957 54.9405 37.107C54.9405 36.7183 54.8598 36.37 54.6985 36.062C54.5445 35.754 54.3281 35.512 54.0495 35.336C53.7708 35.16 53.4518 35.072 53.0925 35.072C52.7405 35.072 52.4251 35.16 52.1465 35.336C51.8678 35.512 51.6478 35.7577 51.4865 36.073C51.3325 36.381 51.2555 36.7257 51.2555 37.107C51.2555 37.4883 51.3325 37.8367 51.4865 38.152C51.6478 38.46 51.8678 38.702 52.1465 38.878C52.4251 39.054 52.7405 39.142 53.0925 39.142ZM61.5327 39.472C61.5327 39.6187 61.4814 39.7433 61.3787 39.846C61.2834 39.9487 61.1587 40 61.0047 40C60.8581 40 60.7334 39.9487 60.6307 39.846C60.5354 39.7433 60.4877 39.6187 60.4877 39.472V34.709C60.4877 34.5623 60.5354 34.4377 60.6307 34.335C60.7334 34.2323 60.8581 34.181 61.0047 34.181C61.1587 34.181 61.2834 34.2323 61.3787 34.335C61.4814 34.4377 61.5327 34.5623 61.5327 34.709V39.472ZM61.0047 33.455C60.7921 33.455 60.6381 33.4183 60.5427 33.345C60.4547 33.2643 60.4107 33.1397 60.4107 32.971V32.795C60.4107 32.619 60.4584 32.4943 60.5537 32.421C60.6564 32.3477 60.8104 32.311 61.0157 32.311C61.2211 32.311 61.3677 32.3513 61.4557 32.432C61.5511 32.5053 61.5987 32.6263 61.5987 32.795V32.971C61.5987 33.147 61.5511 33.2717 61.4557 33.345C61.3604 33.4183 61.2101 33.455 61.0047 33.455ZM62.7049 39.098C62.6389 38.9953 62.6059 38.8963 62.6059 38.801C62.6059 38.6543 62.6829 38.5297 62.8369 38.427C62.9102 38.3757 62.9946 38.35 63.0899 38.35C63.2219 38.35 63.3429 38.405 63.4529 38.515C63.6729 38.7643 63.9076 38.9513 64.1569 39.076C64.4136 39.2007 64.7179 39.263 65.0699 39.263C65.3486 39.2557 65.5942 39.1933 65.8069 39.076C66.0196 38.9513 66.1259 38.7533 66.1259 38.482C66.1259 38.2327 66.0159 38.042 65.7959 37.91C65.5832 37.778 65.2679 37.657 64.8499 37.547C64.4392 37.437 64.0982 37.3233 63.8269 37.206C63.5556 37.0813 63.3246 36.9053 63.1339 36.678C62.9506 36.4433 62.8589 36.139 62.8589 35.765C62.8589 35.435 62.9506 35.1453 63.1339 34.896C63.3246 34.6467 63.5739 34.4523 63.8819 34.313C64.1972 34.1737 64.5382 34.104 64.9049 34.104C65.2569 34.104 65.6052 34.17 65.9499 34.302C66.3019 34.434 66.5879 34.6357 66.8079 34.907C66.8959 35.0097 66.9399 35.116 66.9399 35.226C66.9399 35.3433 66.8812 35.457 66.7639 35.567C66.6906 35.633 66.5989 35.666 66.4889 35.666C66.3569 35.666 66.2506 35.622 66.1699 35.534C66.0159 35.358 65.8252 35.2223 65.5979 35.127C65.3779 35.0317 65.1322 34.984 64.8609 34.984C64.5822 34.984 64.3439 35.0427 64.1459 35.16C63.9552 35.27 63.8599 35.4607 63.8599 35.732C63.8672 35.9887 63.9772 36.1793 64.1899 36.304C64.4099 36.4287 64.7436 36.5497 65.1909 36.667C65.5796 36.7697 65.9022 36.8797 66.1589 36.997C66.4156 37.1143 66.6319 37.2903 66.8079 37.525C66.9839 37.7523 67.0719 38.053 67.0719 38.427C67.0719 38.7717 66.9729 39.0723 66.7749 39.329C66.5769 39.5783 66.3166 39.7727 65.9939 39.912C65.6786 40.044 65.3412 40.11 64.9819 40.11C64.5199 40.11 64.0909 40.0293 63.6949 39.868C63.3062 39.7067 62.9762 39.45 62.7049 39.098ZM74.2209 34.137C74.7195 34.137 75.1705 34.2653 75.5739 34.522C75.9772 34.7713 76.2925 35.1233 76.5199 35.578C76.7545 36.0327 76.8719 36.546 76.8719 37.118C76.8719 37.69 76.7545 38.2033 76.5199 38.658C76.2925 39.1053 75.9772 39.4573 75.5739 39.714C75.1705 39.9707 74.7269 40.099 74.2429 40.099C73.8615 40.099 73.5059 40.0147 73.1759 39.846C72.8459 39.6773 72.5782 39.472 72.3729 39.23V41.672C72.3729 41.8187 72.3215 41.9433 72.2189 42.046C72.1235 42.1487 71.9989 42.2 71.8449 42.2C71.6982 42.2 71.5735 42.1487 71.4709 42.046C71.3755 41.9507 71.3279 41.826 71.3279 41.672V34.753C71.3279 34.599 71.3755 34.4707 71.4709 34.368C71.5662 34.2653 71.6909 34.214 71.8449 34.214C71.9989 34.214 72.1235 34.2653 72.2189 34.368C72.3215 34.4707 72.3729 34.599 72.3729 34.753V35.072C72.5489 34.8153 72.8055 34.5953 73.1429 34.412C73.4802 34.2287 73.8395 34.137 74.2209 34.137ZM74.0999 39.131C74.4372 39.131 74.7415 39.043 75.0129 38.867C75.2842 38.691 75.4932 38.4527 75.6399 38.152C75.7939 37.844 75.8709 37.4993 75.8709 37.118C75.8709 36.7367 75.7939 36.3957 75.6399 36.095C75.4932 35.787 75.2842 35.545 75.0129 35.369C74.7415 35.193 74.4372 35.105 74.0999 35.105C73.7552 35.105 73.4472 35.193 73.1759 35.369C72.9045 35.5377 72.6919 35.776 72.5379 36.084C72.3912 36.392 72.3179 36.7367 72.3179 37.118C72.3179 37.4993 72.3912 37.844 72.5379 38.152C72.6919 38.46 72.9045 38.702 73.1759 38.878C73.4472 39.0467 73.7552 39.131 74.0999 39.131ZM83.5407 37.118C83.5407 37.69 83.4124 38.2033 83.1557 38.658C82.899 39.1127 82.547 39.4683 82.0997 39.725C81.6597 39.9817 81.172 40.11 80.6367 40.11C80.1014 40.11 79.61 39.9817 79.1627 39.725C78.7227 39.4683 78.3744 39.1127 78.1177 38.658C77.861 38.2033 77.7327 37.69 77.7327 37.118C77.7327 36.546 77.861 36.029 78.1177 35.567C78.3744 35.105 78.7227 34.7457 79.1627 34.489C79.61 34.2323 80.1014 34.104 80.6367 34.104C81.172 34.104 81.6597 34.2323 82.0997 34.489C82.547 34.7457 82.899 35.105 83.1557 35.567C83.4124 36.029 83.5407 36.546 83.5407 37.118ZM82.4957 37.118C82.4957 36.722 82.4114 36.37 82.2427 36.062C82.0814 35.7467 81.8577 35.5047 81.5717 35.336C81.293 35.16 80.9814 35.072 80.6367 35.072C80.292 35.072 79.9767 35.16 79.6907 35.336C79.412 35.5047 79.1884 35.7467 79.0197 36.062C78.8584 36.37 78.7777 36.722 78.7777 37.118C78.7777 37.5067 78.8584 37.855 79.0197 38.163C79.1884 38.471 79.412 38.713 79.6907 38.889C79.9767 39.0577 80.292 39.142 80.6367 39.142C80.9814 39.142 81.293 39.0577 81.5717 38.889C81.8577 38.713 82.0814 38.471 82.2427 38.163C82.4114 37.855 82.4957 37.5067 82.4957 37.118ZM84.4256 39.098C84.3596 38.9953 84.3266 38.8963 84.3266 38.801C84.3266 38.6543 84.4036 38.5297 84.5576 38.427C84.6309 38.3757 84.7153 38.35 84.8106 38.35C84.9426 38.35 85.0636 38.405 85.1736 38.515C85.3936 38.7643 85.6283 38.9513 85.8776 39.076C86.1343 39.2007 86.4386 39.263 86.7906 39.263C87.0693 39.2557 87.3149 39.1933 87.5276 39.076C87.7403 38.9513 87.8466 38.7533 87.8466 38.482C87.8466 38.2327 87.7366 38.042 87.5166 37.91C87.3039 37.778 86.9886 37.657 86.5706 37.547C86.1599 37.437 85.8189 37.3233 85.5476 37.206C85.2763 37.0813 85.0453 36.9053 84.8546 36.678C84.6713 36.4433 84.5796 36.139 84.5796 35.765C84.5796 35.435 84.6713 35.1453 84.8546 34.896C85.0453 34.6467 85.2946 34.4523 85.6026 34.313C85.9179 34.1737 86.2589 34.104 86.6256 34.104C86.9776 34.104 87.3259 34.17 87.6706 34.302C88.0226 34.434 88.3086 34.6357 88.5286 34.907C88.6166 35.0097 88.6606 35.116 88.6606 35.226C88.6606 35.3433 88.6019 35.457 88.4846 35.567C88.4113 35.633 88.3196 35.666 88.2096 35.666C88.0776 35.666 87.9713 35.622 87.8906 35.534C87.7366 35.358 87.5459 35.2223 87.3186 35.127C87.0986 35.0317 86.8529 34.984 86.5816 34.984C86.3029 34.984 86.0646 35.0427 85.8666 35.16C85.6759 35.27 85.5806 35.4607 85.5806 35.732C85.5879 35.9887 85.6979 36.1793 85.9106 36.304C86.1306 36.4287 86.4643 36.5497 86.9116 36.667C87.3003 36.7697 87.6229 36.8797 87.8796 36.997C88.1363 37.1143 88.3526 37.2903 88.5286 37.525C88.7046 37.7523 88.7926 38.053 88.7926 38.427C88.7926 38.7717 88.6936 39.0723 88.4956 39.329C88.2976 39.5783 88.0373 39.7727 87.7146 39.912C87.3993 40.044 87.0619 40.11 86.7026 40.11C86.2406 40.11 85.8116 40.0293 85.4156 39.868C85.0269 39.7067 84.6969 39.45 84.4256 39.098ZM89.6678 39.098C89.6018 38.9953 89.5688 38.8963 89.5688 38.801C89.5688 38.6543 89.6458 38.5297 89.7998 38.427C89.8731 38.3757 89.9575 38.35 90.0528 38.35C90.1848 38.35 90.3058 38.405 90.4158 38.515C90.6358 38.7643 90.8705 38.9513 91.1198 39.076C91.3765 39.2007 91.6808 39.263 92.0328 39.263C92.3115 39.2557 92.5571 39.1933 92.7698 39.076C92.9825 38.9513 93.0888 38.7533 93.0888 38.482C93.0888 38.2327 92.9788 38.042 92.7588 37.91C92.5461 37.778 92.2308 37.657 91.8128 37.547C91.4021 37.437 91.0611 37.3233 90.7898 37.206C90.5185 37.0813 90.2875 36.9053 90.0968 36.678C89.9135 36.4433 89.8218 36.139 89.8218 35.765C89.8218 35.435 89.9135 35.1453 90.0968 34.896C90.2875 34.6467 90.5368 34.4523 90.8448 34.313C91.1601 34.1737 91.5011 34.104 91.8678 34.104C92.2198 34.104 92.5681 34.17 92.9128 34.302C93.2648 34.434 93.5508 34.6357 93.7708 34.907C93.8588 35.0097 93.9028 35.116 93.9028 35.226C93.9028 35.3433 93.8441 35.457 93.7268 35.567C93.6535 35.633 93.5618 35.666 93.4518 35.666C93.3198 35.666 93.2135 35.622 93.1328 35.534C92.9788 35.358 92.7881 35.2223 92.5608 35.127C92.3408 35.0317 92.0951 34.984 91.8238 34.984C91.5451 34.984 91.3068 35.0427 91.1088 35.16C90.9181 35.27 90.8228 35.4607 90.8228 35.732C90.8301 35.9887 90.9401 36.1793 91.1528 36.304C91.3728 36.4287 91.7065 36.5497 92.1538 36.667C92.5425 36.7697 92.8651 36.8797 93.1218 36.997C93.3785 37.1143 93.5948 37.2903 93.7708 37.525C93.9468 37.7523 94.0348 38.053 94.0348 38.427C94.0348 38.7717 93.9358 39.0723 93.7378 39.329C93.5398 39.5783 93.2795 39.7727 92.9568 39.912C92.6415 40.044 92.3041 40.11 91.9448 40.11C91.4828 40.11 91.0538 40.0293 90.6578 39.868C90.2691 39.7067 89.9391 39.45 89.6678 39.098ZM96.23 39.472C96.23 39.6187 96.1787 39.7433 96.076 39.846C95.9807 39.9487 95.856 40 95.702 40C95.5553 40 95.4307 39.9487 95.328 39.846C95.2327 39.7433 95.185 39.6187 95.185 39.472V34.709C95.185 34.5623 95.2327 34.4377 95.328 34.335C95.4307 34.2323 95.5553 34.181 95.702 34.181C95.856 34.181 95.9807 34.2323 96.076 34.335C96.1787 34.4377 96.23 34.5623 96.23 34.709V39.472ZM95.702 33.455C95.4893 33.455 95.3353 33.4183 95.24 33.345C95.152 33.2643 95.108 33.1397 95.108 32.971V32.795C95.108 32.619 95.1557 32.4943 95.251 32.421C95.3537 32.3477 95.5077 32.311 95.713 32.311C95.9183 32.311 96.065 32.3513 96.153 32.432C96.2483 32.5053 96.296 32.6263 96.296 32.795V32.971C96.296 33.147 96.2483 33.2717 96.153 33.345C96.0577 33.4183 95.9073 33.455 95.702 33.455ZM100.625 34.104C101.124 34.104 101.575 34.2323 101.978 34.489C102.382 34.7457 102.697 35.1013 102.924 35.556C103.159 36.0107 103.276 36.524 103.276 37.096C103.276 37.668 103.159 38.185 102.924 38.647C102.697 39.109 102.382 39.4683 101.978 39.725C101.575 39.9817 101.131 40.11 100.647 40.11C100.266 40.11 99.9102 40.0257 99.5802 39.857C99.2502 39.6883 98.9825 39.4793 98.7772 39.23V39.549C98.7772 39.6957 98.7258 39.8203 98.6232 39.923C98.5278 40.0257 98.4032 40.077 98.2492 40.077C98.1025 40.077 97.9778 40.0293 97.8752 39.934C97.7798 39.8313 97.7322 39.703 97.7322 39.549V32.388C97.7322 32.234 97.7798 32.1093 97.8752 32.014C97.9705 31.9113 98.0952 31.86 98.2492 31.86C98.4032 31.86 98.5278 31.9113 98.6232 32.014C98.7258 32.1167 98.7772 32.2413 98.7772 32.388V35.072C98.9532 34.808 99.2098 34.5807 99.5472 34.39C99.8845 34.1993 100.244 34.104 100.625 34.104ZM100.504 39.142C100.842 39.142 101.146 39.054 101.417 38.878C101.689 38.6947 101.898 38.449 102.044 38.141C102.198 37.8257 102.275 37.4773 102.275 37.096C102.275 36.7147 102.198 36.37 102.044 36.062C101.898 35.754 101.689 35.512 101.417 35.336C101.146 35.16 100.842 35.072 100.504 35.072C100.16 35.072 99.8515 35.16 99.5802 35.336C99.3088 35.512 99.0962 35.754 98.9422 36.062C98.7955 36.3627 98.7222 36.7073 98.7222 37.096C98.7222 37.4847 98.7955 37.833 98.9422 38.141C99.0962 38.449 99.3088 38.6947 99.5802 38.878C99.8515 39.054 100.16 39.142 100.504 39.142ZM105.622 39.472C105.622 39.6187 105.571 39.7433 105.468 39.846C105.365 39.9487 105.241 40 105.094 40C104.947 40 104.823 39.9487 104.72 39.846C104.625 39.7433 104.577 39.6187 104.577 39.472V32.388C104.577 32.2413 104.628 32.1167 104.731 32.014C104.834 31.9113 104.958 31.86 105.105 31.86C105.252 31.86 105.373 31.9113 105.468 32.014C105.571 32.1167 105.622 32.2413 105.622 32.388V39.472ZM112.224 36.898C112.216 37.03 112.161 37.1437 112.059 37.239C111.956 37.327 111.835 37.371 111.696 37.371H107.824C107.875 37.9063 108.077 38.3353 108.429 38.658C108.788 38.9807 109.224 39.142 109.738 39.142C110.09 39.142 110.376 39.0907 110.596 38.988C110.816 38.8853 111.01 38.7533 111.179 38.592C111.289 38.526 111.395 38.493 111.498 38.493C111.622 38.493 111.725 38.537 111.806 38.625C111.894 38.713 111.938 38.8157 111.938 38.933C111.938 39.087 111.864 39.2263 111.718 39.351C111.505 39.5637 111.223 39.7433 110.871 39.89C110.519 40.0367 110.159 40.11 109.793 40.11C109.199 40.11 108.674 39.9853 108.22 39.736C107.772 39.4867 107.424 39.1383 107.175 38.691C106.933 38.2437 106.812 37.7377 106.812 37.173C106.812 36.557 106.936 36.018 107.186 35.556C107.442 35.0867 107.776 34.7273 108.187 34.478C108.605 34.2287 109.052 34.104 109.529 34.104C109.998 34.104 110.438 34.225 110.849 34.467C111.259 34.709 111.589 35.0427 111.839 35.468C112.088 35.8933 112.216 36.37 112.224 36.898ZM109.529 35.072C109.118 35.072 108.762 35.1893 108.462 35.424C108.161 35.6513 107.963 36.007 107.868 36.491H111.113V36.403C111.076 36.0143 110.9 35.6953 110.585 35.446C110.277 35.1967 109.925 35.072 109.529 35.072Z" fill="#FFFCF6"/>
<path d="M113.811 39.989C113.635 39.989 113.5 39.9413 113.404 39.846C113.316 39.7507 113.272 39.6113 113.272 39.428V39.219C113.272 39.043 113.316 38.9073 113.404 38.812C113.5 38.7167 113.635 38.669 113.811 38.669H113.921C114.105 38.669 114.24 38.7167 114.328 38.812C114.424 38.9073 114.471 39.043 114.471 39.219V39.428C114.471 39.802 114.288 39.989 113.921 39.989H113.811Z" fill="#FF4081"/>
<path d="M47.668 10.484V21.212C47.668 22.412 48.208 23.012 49.288 23.012C49.456 23.012 49.684 22.976 49.972 22.904C50.26 22.808 50.488 22.76 50.656 22.76C50.968 22.76 51.232 22.892 51.448 23.156C51.664 23.42 51.772 23.756 51.772 24.164C51.772 24.668 51.484 25.1 50.908 25.46C50.332 25.82 49.684 26 48.964 26C48.172 26 47.44 25.916 46.768 25.748C46.12 25.58 45.532 25.16 45.004 24.488C44.5 23.792 44.248 22.748 44.248 21.356V10.484H42.16C41.704 10.484 41.32 10.34 41.008 10.052C40.72 9.74 40.576 9.356 40.576 8.9C40.576 8.444 40.72 8.072 41.008 7.784C41.32 7.496 41.704 7.352 42.16 7.352H44.248V4.328C44.248 3.848 44.404 3.44 44.716 3.104C45.052 2.768 45.472 2.6 45.976 2.6C46.456 2.6 46.852 2.768 47.164 3.104C47.5 3.44 47.668 3.848 47.668 4.328V7.352H50.656C51.112 7.352 51.484 7.508 51.772 7.82C52.084 8.108 52.24 8.48 52.24 8.936C52.24 9.392 52.084 9.764 51.772 10.052C51.484 10.34 51.112 10.484 50.656 10.484H47.668Z" fill="#D75AE4"/>
<path d="M52.668 14.484V25.212C52.668 26.412 53.208 27.012 54.288 27.012C54.456 27.012 54.684 26.976 54.972 26.904C55.26 26.808 55.488 26.76 55.656 26.76C55.968 26.76 56.232 26.892 56.448 27.156C56.664 27.42 56.772 27.756 56.772 28.164C56.772 28.668 56.484 29.1 55.908 29.46C55.332 29.82 54.684 30 53.964 30C53.172 30 52.44 29.916 51.768 29.748C51.12 29.58 50.532 29.16 50.004 28.488C49.5 27.792 49.248 26.748 49.248 25.356V14.484H47.16C46.704 14.484 46.32 14.34 46.008 14.052C45.72 13.74 45.576 13.356 45.576 12.9C45.576 12.444 45.72 12.072 46.008 11.784C46.32 11.496 46.704 11.352 47.16 11.352H49.248V8.328C49.248 7.848 49.404 7.44 49.716 7.104C50.052 6.768 50.472 6.6 50.976 6.6C51.456 6.6 51.852 6.768 52.164 7.104C52.5 7.44 52.668 7.848 52.668 8.328V11.352H55.656C56.112 11.352 56.484 11.508 56.772 11.82C57.084 12.108 57.24 12.48 57.24 12.936C57.24 13.392 57.084 13.764 56.772 14.052C56.484 14.34 56.112 14.484 55.656 14.484H52.668Z" fill="#FF4081"/>
</svg>
