<?xml version="1.0" encoding="utf-8"?>
<!-- Generator: Adobe Illustrator 23.0.4, SVG Export Plug-In . SVG Version: 6.00 Build 0)  -->
<svg version="1.1" id="Слой_1" xmlns="http://www.w3.org/2000/svg" xmlns:xlink="http://www.w3.org/1999/xlink" x="0px" y="0px"
	 viewBox="0 0 1044.3 935" style="enable-background:new 0 0 1044.3 935;" xml:space="preserve">
<style type="text/css">
	.st0{fill:#D75AE4;}
	.st1{fill:#FF4081;}
</style>
<path class="st0" d="M908.6,0H316.4c-43,0.1-77.9,34.9-77.9,77.9v389.6h31.2V77.9c0-25.8,20.9-46.7,46.8-46.7h592.1
	c25.8,0,46.7,20.9,46.7,46.7v498.6c0,25.8-20.9,46.8-46.7,46.8H519v31.2h389.6c43-0.1,77.9-34.9,77.9-77.9V77.9
	C986.4,34.9,951.6,0.1,908.6,0z"/>
<path class="st1" d="M300.9,62.3H332v31.2h-31.2V62.3z"/>
<path class="st0" d="M363.2,62.3h31.2v31.2h-31.2V62.3z"/>
<path class="st0" d="M425.5,62.3h31.2v31.2h-31.2V62.3z"/>
<path class="st0" d="M300.9,124.7h623.3v31.2H300.9V124.7z"/>
<path class="st1" d="M300.9,358.4c0,8.6,7,15.6,15.6,15.6h155.8c8.6,0,15.6-7,15.6-15.6V202.6c0-8.6-7-15.6-15.6-15.6H316.4
	c-8.6,0-15.6,7-15.6,15.6V358.4z M332,218.2h124.7v124.7H332V218.2z"/>
<path class="st0" d="M706,202.6c0-8.6-7-15.6-15.6-15.6H534.6c-8.6,0-15.6,7-15.6,15.6v155.8c0,8.6,7,15.6,15.6,15.6h155.8
	c8.6,0,15.6-7,15.6-15.6V202.6z M674.8,342.8H550.2V218.2h124.7V342.8z"/>
<path class="st0" d="M924.2,202.6c0-8.6-7-15.6-15.6-15.6H752.8c-8.6,0-15.6,7-15.6,15.6v155.8c0,8.6,7,15.6,15.6,15.6h155.8
	c8.6,0,15.6-7,15.6-15.6V202.6z M893,342.8H768.3V218.2H893V342.8z"/>
<path class="st0" d="M300.9,467.5H332v-31.2h155.8v-15.6c0-8.6-7-15.6-15.6-15.6H316.4c-8.6,0-15.6,7-15.6,15.6V467.5z"/>
<path class="st0" d="M690.4,405.2h-15.6V561H550.2v31.2h140.2c8.6,0,15.6-7,15.6-15.6V420.7C706,412.1,699,405.2,690.4,405.2z"/>
<path class="st0" d="M908.6,405.2H752.8c-8.6,0-15.6,7-15.6,15.6v155.8c0,8.6,7,15.6,15.6,15.6h155.8c8.6,0,15.6-7,15.6-15.6V420.7
	C924.2,412.1,917.2,405.2,908.6,405.2z M893,561H768.3V436.3H893V561z"/>
<path class="st1" d="M55,504.5c-3,3.7-4.1,8.5-3.1,13.1l62.3,280.5c1.6,7.1,7.9,12.2,15.3,12.2h342.8c8.6,0,15.6,7,15.6,15.6
	c0,8.6-7,15.6-15.6,15.6H113.9c-25.8,0-46.8,20.9-46.8,46.8c0,25.8,20.9,46.8,46.8,46.8c25.8,0,46.8-20.9,46.8-46.8
	c-0.1-5.3-1-10.6-2.9-15.6h223.9c-1.8,5-2.8,10.3-2.9,15.6c0,25.8,20.9,46.8,46.8,46.8c25.8,0,46.7-20.9,46.7-46.8
	c0-5.3-1-10.6-2.9-15.6h2.9c25.8,0,46.8-20.9,46.8-46.8s-20.9-46.7-46.8-46.7h-11.7l57.7-259.7l26-52h8.8
	c7.6,21.5,29.5,34.3,52,30.5c22.4-3.8,38.8-23.3,38.8-46.1c0-22.8-16.4-42.2-38.8-46.1c-22.4-3.9-44.4,9-52,30.5h-18.4
	c-5.9,0-11.4,3.3-14,8.6l-26.8,53.7H67.1C62.4,498.6,57.9,500.8,55,504.5z M113.9,903.8c-8.6,0-15.6-7-15.6-15.6
	c0-8.6,7-15.6,15.6-15.6c8.6,0,15.6,7,15.6,15.6C129.5,896.8,122.5,903.8,113.9,903.8z M425.5,903.8c-8.6,0-15.6-7-15.6-15.6
	c0-8.6,7-15.6,15.6-15.6c8.6,0,15.6,7,15.6,15.6C441.1,896.8,434.1,903.8,425.5,903.8z M596.9,436.3c8.6,0,15.6,7,15.6,15.6
	c0,8.6-7,15.6-15.6,15.6c-8.6,0-15.6-7-15.6-15.6C581.4,443.3,588.3,436.3,596.9,436.3z M269.7,779.1h-63.2l-3.5-62.3h66.6V779.1z
	 M269.7,685.6h-68.4l-3.5-62.3h71.8V685.6z M409.1,529.8H484l-13.9,62.3h-64.5L409.1,529.8z M403.9,623.3h59.3l-13.9,62.3h-48.9
	L403.9,623.3z M398.7,716.8h43.8l-13.8,62.3h-33.4L398.7,716.8z M300.9,529.8h77l-3.5,62.3h-73.6V529.8z M300.9,623.3h71.8
	l-3.5,62.3h-68.4V623.3z M300.9,716.8h66.6l-3.5,62.3h-63.2V716.8z M269.7,529.8v62.3h-73.6l-3.5-62.3H269.7z M175.3,779.1h-33.4
	l-13.9-62.3h43.8L175.3,779.1z M170.1,685.6h-48.9l-13.9-62.3h59.3L170.1,685.6z M161.5,529.8l3.5,62.3h-64.5l-13.9-62.3H161.5z"/>
</svg>
