<?xml version="1.0" encoding="utf-8"?>
<!-- Generator: Adobe Illustrator 23.0.4, SVG Export Plug-In . SVG Version: 6.00 Build 0)  -->
<svg version="1.1" id="Слой_1" xmlns="http://www.w3.org/2000/svg" xmlns:xlink="http://www.w3.org/1999/xlink" x="0px" y="0px"
	 viewBox="0 0 1043.8 938" style="enable-background:new 0 0 1043.8 938;" xml:space="preserve">
<style type="text/css">
	.st0{clip-path:url(#SVGID_2_);}
	.st1{fill:#D75AE4;}
	.st2{fill:#FF4081;}
</style>
<g>
	<defs>
		<rect id="SVGID_1_" x="49.3" width="937.5" height="937.5"/>
	</defs>
	<clipPath id="SVGID_2_">
		<use xlink:href="#SVGID_1_"  style="overflow:visible;"/>
	</clipPath>
	<g class="st0">
		<path class="st1" d="M924.3,125v31.2c17.3,0,31.2,14,31.2,31.2v468.8h-875V187.5c0-17.3,14-31.2,31.2-31.2V125
			c-34.5,0-62.5,28-62.5,62.5v531.2c0,34.5,28,62.5,62.5,62.5h307.1l-37.5,125h-35.2v31.2h343.8v-31.2h-35.2l-37.5-125h307.1
			c34.5,0,62.5-28,62.5-62.5V187.5C986.8,153,958.8,125,924.3,125z M622.1,906.2h-208l37.5-125h133L622.1,906.2z M955.6,718.8
			c0,17.3-14,31.2-31.2,31.2H111.8c-17.3,0-31.2-14-31.2-31.2v-31.2h875V718.8z"/>
		<path class="st1" d="M893.1,625V62.5c0-34.5-28-62.5-62.5-62.5h-625c-34.5,0-62.5,28-62.5,62.5V625h31.2V62.5
			c0-17.3,14-31.2,31.2-31.2h625c17.3,0,31.2,14,31.2,31.2V625H893.1z"/>
		<path class="st2" d="M205.6,62.5h31.2v31.2h-31.2V62.5z"/>
		<path class="st1" d="M268.1,62.5h31.2v31.2h-31.2V62.5z"/>
		<path class="st1" d="M330.6,62.5h31.2v31.2h-31.2V62.5z"/>
		<path class="st1" d="M205.6,125h625v31.2h-625V125z"/>
		<path class="st2" d="M377.4,343.8c8.6,0,15.6-7,15.6-15.6v-125c0-8.6-7-15.6-15.6-15.6H221.2c-8.6,0-15.6,7-15.6,15.6v125
			c0,8.6,7,15.6,15.6,15.6H377.4z M236.8,218.8h125v93.8h-125V218.8z"/>
		<path class="st1" d="M424.3,187.5h125v31.2h-125V187.5z"/>
		<path class="st2" d="M424.3,250h250v31.2h-250V250z"/>
		<path class="st1" d="M424.3,312.5h125v31.2h-125V312.5z"/>
		<path class="st2" d="M205.6,375h625v31.2h-625V375z"/>
		<path class="st1" d="M705.6,250h125v31.2h-125V250z"/>
		<path class="st2" d="M580.6,312.5h218.8v31.2H580.6V312.5z"/>
		<path class="st2" d="M221.2,437.5c-8.6,0-15.6,7-15.6,15.6v125c0,8.6,7,15.6,15.6,15.6h156.2c8.6,0,15.6-7,15.6-15.6v-125
			c0-8.6-7-15.6-15.6-15.6H221.2z M361.8,562.5h-125v-93.8h125V562.5z"/>
		<path class="st1" d="M424.3,437.5h125v31.2h-125V437.5z"/>
		<path class="st1" d="M424.3,500h250v31.2h-250V500z"/>
		<path class="st2" d="M424.3,562.5h125v31.2h-125V562.5z"/>
		<path class="st2" d="M705.6,500h125v31.2h-125V500z"/>
		<path class="st1" d="M580.6,562.5h218.8v31.2H580.6V562.5z"/>
	</g>
</g>
</svg>
