<?xml version="1.0" encoding="utf-8"?>
<!-- Generator: Adobe Illustrator 23.0.4, SVG Export Plug-In . SVG Version: 6.00 Build 0)  -->
<svg version="1.1" id="Слой_1" xmlns="http://www.w3.org/2000/svg" xmlns:xlink="http://www.w3.org/1999/xlink" x="0px" y="0px"
	 viewBox="0 0 1046.6 938" style="enable-background:new 0 0 1046.6 938;" xml:space="preserve">
<style type="text/css">
	.st0{clip-path:url(#SVGID_2_);}
	.st1{fill:#D75AE4;}
	.st2{fill:#FF4081;}
</style>
<g>
	<defs>
		<rect id="SVGID_1_" x="54.9" width="937.5" height="937.5"/>
	</defs>
	<clipPath id="SVGID_2_">
		<use xlink:href="#SVGID_1_"  style="overflow:visible;"/>
	</clipPath>
	<g class="st0">
		<path class="st1" d="M914.3,0H258.1c-43.1,0.1-78.1,35-78.1,78.1v250h31.2v-250c0-25.9,21-46.9,46.9-46.9h656.2
			c25.9,0,46.9,21,46.9,46.9v484.4c0,25.9-21,46.9-46.9,46.9H711.2v31.2h203.1c43.1-0.1,78.1-35,78.1-78.1V78.1
			C992.4,35,957.4,0.1,914.3,0z"/>
		<path class="st2" d="M242.4,62.5h31.3v31.2h-31.3V62.5z"/>
		<path class="st1" d="M304.9,62.5h31.2v31.2h-31.2V62.5z"/>
		<path class="st1" d="M367.4,62.5h31.2v31.2h-31.2V62.5z"/>
		<path class="st1" d="M242.4,125h687.5v31.2H242.4V125z"/>
		<path class="st2" d="M242.4,187.5h156.3v31.2H242.4V187.5z"/>
		<path class="st2" d="M242.4,250h93.8v31.2h-93.8V250z"/>
		<path class="st2" d="M508.1,296.9v-31.2c0-8.6-7-15.6-15.6-15.6h-62.5c-8.6,0-15.6,7-15.6,15.6v15.6h62.5v15.6H508.1z"/>
		<path class="st2" d="M633.1,375V218.8c0-8.6-7-15.6-15.6-15.6h-62.5c-8.6,0-15.6,7-15.6,15.6v109.4h31.2v-93.8h31.2V375H633.1z"/>
		<path class="st2" d="M726.8,531.2h-15.6v31.2h218.8v-31.2h-46.9V218.8c0-8.6-7-15.6-15.6-15.6h-62.5c-8.6,0-15.6,7-15.6,15.6
			v312.5h-31.2V328.1c0-8.6-7-15.6-15.6-15.6h-62.5c-8.6,0-15.6,7-15.6,15.6v140.6h31.2v-125h31.2V531.2z M820.6,234.4h31.2v296.9
			h-31.2V234.4z"/>
		<path class="st2" d="M367.4,312.5C194.8,312.5,54.9,452.4,54.9,625s139.9,312.5,312.5,312.5S679.9,797.6,679.9,625
			C679.8,452.5,540,312.7,367.4,312.5z M367.4,906.2C215.1,906.4,90.3,785.1,86.1,632.8c-4.2-152.3,113.6-280.3,265.7-288.6V625
			c0,0.3,0.2,0.6,0.2,1c0.1,1.4,0.4,2.7,0.8,4c0.1,0.3,0,0.7,0.2,1c0.1,0.2,0.2,0.4,0.3,0.5c0.7,1.6,1.7,3.1,2.9,4.4l0.1,0.1
			l198.5,198.5C503.5,880.9,436.7,906.4,367.4,906.2z M577.1,812.5L405.2,640.6h243.1C644.9,704.4,619.8,765,577.1,812.5z
			 M383.1,609.4V344.2c143,8.1,257.1,122.2,265.2,265.2H383.1z"/>
	</g>
</g>
</svg>
