<?xml version="1.0" encoding="utf-8"?>
<!-- Generator: Adobe Illustrator 23.0.4, SVG Export Plug-In . SVG Version: 6.00 Build 0)  -->
<svg version="1.1" id="Слой_1" xmlns="http://www.w3.org/2000/svg" xmlns:xlink="http://www.w3.org/1999/xlink" x="0px" y="0px"
	 viewBox="0 0 1080.4 1118.1" style="enable-background:new 0 0 1080.4 1118.1;" xml:space="preserve">
<style type="text/css">
	.st0{fill:#D75AE4;}
	.st1{fill:#FF4081;}
</style>
<path class="st0" d="M806.6,420.7l-21.1,23l95.8,87.8c22.5,20.7,35.4,50,35.4,80.6v382.3H948V612.1c0-39.4-16.6-77-45.6-103.6
	L806.6,420.7z"/>
<path class="st0" d="M682.5,57.4h-406c-43.1,0.1-78,35-78.1,78.1v780.8c0.1,43.1,35,78,78.1,78.1h390.4v-27.9
	c-0.1-70.3,20.8-139.2,59.8-197.6c4.1-6.2,3.3-14.4-2-19.7L615.5,639.8c-10.1-10.1-15.5-24-14.8-38.3c0.7-14.3,7.4-27.6,18.5-36.7
	c21.3-16.3,51.4-13.9,69.9,5.4l154.2,154.2l22.1-22.1L760.6,597.5v-462C760.5,92.4,725.6,57.5,682.5,57.4z M729.4,566.3l-18.2-18.2
	c-30-30.6-78.1-33.8-111.9-7.4c-17.8,14.7-28.7,36.2-29.8,59.3c-1.1,23.1,7.5,45.5,23.9,61.9l100.4,100.4
	c-37.4,60.3-57.5,129.9-58,200.9H276.5c-25.9,0-46.9-21-46.9-46.9v-46.8H620v-31.2H229.6V182.3h499.7V566.3z M729.4,151.1H229.6
	v-15.6c0-25.9,21-46.8,46.9-46.8h406c25.9,0,46.9,21,46.9,46.8V151.1z"/>
<path class="st1" d="M292.1,338.5h62.5c17.3,0,31.2-14,31.2-31.2v-62.5c0-17.3-14-31.2-31.2-31.2h-62.5c-17.3,0-31.2,14-31.2,31.2
	v62.5C260.9,324.5,274.8,338.5,292.1,338.5z M292.1,244.8h62.5v62.5h-62.5V244.8z"/>
<path class="st1" d="M448.2,338.5h62.5c17.3,0,31.2-14,31.2-31.2v-62.5c0-17.3-14-31.2-31.2-31.2h-62.5c-17.3,0-31.2,14-31.2,31.2
	v62.5C417,324.5,431,338.5,448.2,338.5z M448.2,244.8h62.5v62.5h-62.5V244.8z"/>
<path class="st1" d="M604.4,338.5h62.5c17.3,0,31.2-14,31.2-31.2v-62.5c0-17.3-14-31.2-31.2-31.2h-62.5c-17.3,0-31.2,14-31.2,31.2
	v62.5C573.2,324.5,587.2,338.5,604.4,338.5z M604.4,244.8h62.5v62.5h-62.5V244.8z"/>
<path class="st1" d="M292.1,494.7h62.5c17.3,0,31.2-14,31.2-31.2V401c0-17.3-14-31.2-31.2-31.2h-62.5c-17.3,0-31.2,14-31.2,31.2
	v62.5C260.9,480.7,274.8,494.7,292.1,494.7z M292.1,401h62.5v62.5h-62.5V401z"/>
<path class="st1" d="M292.1,650.8h62.5c17.3,0,31.2-14,31.2-31.2v-62.5c0-17.3-14-31.2-31.2-31.2h-62.5c-17.3,0-31.2,14-31.2,31.2
	v62.5C260.9,636.9,274.8,650.8,292.1,650.8z M292.1,557.1h62.5v62.5h-62.5V557.1z"/>
<path class="st1" d="M448.2,494.7h62.5c17.3,0,31.2-14,31.2-31.2V401c0-17.3-14-31.2-31.2-31.2h-62.5c-17.3,0-31.2,14-31.2,31.2
	v62.5C417,480.7,431,494.7,448.2,494.7z M448.2,401h62.5v62.5h-62.5V401z"/>
<path class="st1" d="M604.4,494.7h62.5c17.3,0,31.2-14,31.2-31.2V401c0-17.3-14-31.2-31.2-31.2h-62.5c-17.3,0-31.2,14-31.2,31.2
	v62.5C573.2,480.7,587.2,494.7,604.4,494.7z M604.4,401h62.5v62.5h-62.5V401z"/>
<path class="st1" d="M448.2,650.8h62.5c17.3,0,31.2-14,31.2-31.2v-62.5c0-17.3-14-31.2-31.2-31.2h-62.5c-17.3,0-31.2,14-31.2,31.2
	v62.5C417,636.9,431,650.8,448.2,650.8z M448.2,557.1h62.5v62.5h-62.5V557.1z"/>
<path class="st1" d="M292.1,807h62.5c17.3,0,31.2-14,31.2-31.2v-62.5c0-17.3-14-31.2-31.2-31.2h-62.5c-17.3,0-31.2,14-31.2,31.2
	v62.5C260.9,793,274.8,807,292.1,807z M292.1,713.3h62.5v62.5h-62.5V713.3z"/>
<path class="st1" d="M448.2,807h62.5c17.3,0,31.2-14,31.2-31.2v-62.5c0-17.3-14-31.2-31.2-31.2h-62.5c-17.3,0-31.2,14-31.2,31.2
	v62.5C417,793,431,807,448.2,807z M448.2,713.3h62.5v62.5h-62.5V713.3z"/>
<path class="st1" d="M463.9,900.7h31.2v31.2h-31.2V900.7z"/>
</svg>
