<?xml version="1.0" encoding="utf-8"?>
<!-- Generator: Adobe Illustrator 23.0.4, SVG Export Plug-In . SVG Version: 6.00 Build 0)  -->
<svg version="1.1" id="Слой_1" xmlns="http://www.w3.org/2000/svg" xmlns:xlink="http://www.w3.org/1999/xlink" x="0px" y="0px"
	 viewBox="0 0 947.2 988.1" style="enable-background:new 0 0 947.2 988.1;" xml:space="preserve">
<style type="text/css">
	.st0{fill:#FF4081;}
	.st1{fill:#D75AE4;}
</style>
<path class="st0" d="M429.4,391.4c6.1,6.1,15.9,6.1,22,0l46.7-46.7c6.1-6.1,6.1-15.9,0-22L179,3.6c-6.1-6.1-15.9-6.1-22,0
	l-46.7,46.7c-6.1,6.1-6.1,15.9,0,22L429.4,391.4z M465.1,333.7l-24.7,24.7l-48-48l24.7-24.7L465.1,333.7z M168,36.6l227.1,227.1
	l-24.7,24.7l-227.1-227L168,36.6z"/>
<path class="st1" d="M823.7,435c-166.7-20.8-335.3-20.8-502,0c-7.8,1-13.6,7.6-13.6,15.4v62.3c0,4.5,1.9,8.7,5.3,11.7
	c3.3,2.9,7.8,4.3,12.2,3.8c29.9-3.7,59.8-6.5,89.8-8.9l-29.4,397.1c-0.3,4.3,1.2,8.6,4.1,11.8c3,3.2,7.1,5,11.4,5H744
	c4.3,0,8.5-1.8,11.4-5c3-3.2,4.5-7.4,4.1-11.8l-29.4-397.1c30,2.4,59.9,5.2,89.8,8.9c0.6,0.1,1.3,0.1,1.9,0.1
	c8.6,0,15.6-7,15.6-15.6v-62.3C837.4,442.6,831.5,436,823.7,435z M418.3,901.9l21.9-295.8h265.1l21.9,295.8H418.3z M442.5,575
	l4.3-58.2c83.9-5.3,168-5.3,251.9,0L703,575H442.5z M806.2,495.1c-155.1-18-311.9-18-467,0v-30.9c155.1-18.3,311.9-18.3,467,0V495.1
	z"/>
<path class="st0" d="M588.1,167.7c-1.3-7.5-7.8-13-15.3-13c-7.6,0-14.1,5.5-15.4,13c-4.2,25.4-24.1,45.2-49.5,49.5
	c-7.5,1.3-13,7.8-13,15.3c0,7.6,5.5,14.1,13,15.3c25.4,4.2,45.2,24.1,49.5,49.5c1.3,7.5,7.8,13,15.4,13c7.6,0,14.1-5.5,15.3-13
	c4.2-25.4,24.1-45.2,49.5-49.5c7.5-1.3,13-7.7,13-15.3c0-7.6-5.5-14.1-13-15.3C612.2,212.9,592.3,193,588.1,167.7z M572.7,254.7
	c-6.1-8.6-13.6-16.1-22.2-22.2c8.6-6.1,16.2-13.6,22.2-22.2c6.1,8.6,13.6,16.2,22.2,22.2C586.3,238.6,578.8,246.1,572.7,254.7z"/>
<path class="st0" d="M648,123.3c25.4,4.2,45.2,24.1,49.5,49.5c1.3,7.5,7.8,13,15.3,13c7.6,0,14.1-5.5,15.3-13
	c4.2-25.4,24.1-45.2,49.5-49.5c7.5-1.3,13-7.7,13-15.3c0-7.6-5.5-14.1-13-15.4c-25.4-4.2-45.2-24.1-49.5-49.5
	c-1.3-7.5-7.8-13-15.3-13c-7.6,0-14.1,5.5-15.3,13c-4.2,25.4-24.1,45.2-49.5,49.5c-7.5,1.3-13,7.8-13,15.4
	C635,115.6,640.5,122.1,648,123.3z M712.8,85.7c6.1,8.6,13.6,16.2,22.2,22.2c-8.6,6.1-16.2,13.6-22.2,22.2
	c-6.1-8.6-13.6-16.2-22.2-22.2C699.2,101.9,706.8,94.4,712.8,85.7z"/>
<path class="st0" d="M463.8,853.9l11.7-140.1l31,2.6l-11.7,140.1L463.8,853.9z"/>
<path class="st0" d="M477.4,682.9l1.9-31.1l31.1,2l-2,31.1L477.4,682.9z"/>
<path class="st0" d="M432.6,45.7v46.7h-46.7v31.1h46.7v46.7h31.1v-46.7h46.7V92.4h-46.7V45.7H432.6z"/>
</svg>
