<?xml version="1.0" encoding="utf-8"?>
<!-- Generator: Adobe Illustrator 23.0.4, SVG Export Plug-In . SVG Version: 6.00 Build 0)  -->
<svg version="1.1" xmlns="http://www.w3.org/2000/svg" xmlns:xlink="http://www.w3.org/1999/xlink" x="0px" y="0px"
	 viewBox="0 0 500 500" style="enable-background:new 0 0 500 500;" xml:space="preserve">
<style type="text/css">
	.st0{fill:#EBEBEB;}
	.st1{fill:#263238;}
	.st2{fill:#DBDBDB;}
	.st3{fill:#A6A6A6;}
	.st4{fill:#C7C7C7;}
	.st5{fill:#FFC727;}
	.st6{opacity:0.1;}
	.st7{fill:#455A64;}
</style>
<g id="Background_Complete">
	<g>
		<rect x="58.7" y="294.4" class="st0" width="26.5" height="11.2"/>
		<rect x="44" y="308.5" class="st0" width="26.5" height="11.2"/>
		<rect x="73.5" y="308.5" class="st0" width="26.5" height="11.2"/>
		<rect x="414.8" y="308.5" class="st0" width="26.5" height="11.2"/>
		<rect x="414.8" y="42.6" class="st0" width="26.5" height="11.2"/>
		<rect x="429.6" y="56.7" class="st0" width="26.5" height="11.2"/>
		<rect x="44" y="42.6" class="st0" width="26.5" height="11.2"/>
		
			<rect x="327.4" y="122.8" transform="matrix(-1 -1.224647e-16 1.224647e-16 -1 681.288 256.8546)" class="st0" width="26.5" height="11.2"/>
		
			<rect x="342.2" y="108.7" transform="matrix(-1 -1.224647e-16 1.224647e-16 -1 710.8315 228.635)" class="st0" width="26.5" height="11.2"/>
	</g>
	<g>
		<path class="st0" d="M43.1,67.9H208v215.5H43.1V67.9z M203.6,72.2H47.4V279h156.2V72.2z"/>
		<rect x="125.1" y="73.4" class="st0" width="4.3" height="207.8"/>
		<g>
			<g>
				
					<rect x="39.1" y="76.7" transform="matrix(-1 -1.224647e-16 1.224647e-16 -1 251.0654 159.3833)" class="st0" width="172.8" height="6.1"/>
				
					<rect x="39.1" y="83.5" transform="matrix(-1 -1.224647e-16 1.224647e-16 -1 251.0654 173.0057)" class="st0" width="172.8" height="6.1"/>
				
					<rect x="39.1" y="90.3" transform="matrix(-1 -1.224647e-16 1.224647e-16 -1 251.0654 186.6282)" class="st0" width="172.8" height="6.1"/>
				
					<rect x="39.1" y="97.1" transform="matrix(-1 -1.224647e-16 1.224647e-16 -1 251.0654 200.2506)" class="st0" width="172.8" height="6.1"/>
				
					<rect x="39.1" y="103.9" transform="matrix(-1 -1.224647e-16 1.224647e-16 -1 251.0654 213.8731)" class="st0" width="172.8" height="6.1"/>
				
					<rect x="39.1" y="110.7" transform="matrix(-1 -1.224647e-16 1.224647e-16 -1 251.0654 227.4955)" class="st0" width="172.8" height="6.1"/>
				
					<rect x="39.1" y="117.5" transform="matrix(-1 -1.224647e-16 1.224647e-16 -1 251.0654 241.1179)" class="st0" width="172.8" height="6.1"/>
				
					<rect x="39.1" y="124.3" transform="matrix(-1 -1.224647e-16 1.224647e-16 -1 251.0654 254.7404)" class="st0" width="172.8" height="6.1"/>
				
					<rect x="39.1" y="131.2" transform="matrix(-1 -1.224647e-16 1.224647e-16 -1 251.0654 268.3628)" class="st0" width="172.8" height="6.1"/>
			</g>
			<g>
				<g>
					<rect x="52.1" y="75.4" class="st1" width="1.1" height="139.6"/>
					<polygon class="st1" points="50.7,220.1 54.5,220.1 53.6,214.5 51.6,214.5 					"/>
				</g>
				<g>
					<rect x="48.1" y="75.4" class="st1" width="1.1" height="201.9"/>
					<polygon class="st1" points="46.8,281.4 50.6,281.4 49.7,275.9 47.7,275.9 					"/>
				</g>
			</g>
			
				<rect x="32.4" y="67" transform="matrix(-1 -1.224647e-16 1.224647e-16 -1 251.0654 146.7171)" class="st2" width="186.3" height="12.7"/>
		</g>
	</g>
	<g>
		<g>
			<g>
				<path class="st2" d="M416.9,205c0,0-24.2-3.4-18.5-32.6C398.4,172.4,425.4,178.5,416.9,205z"/>
				<path class="st3" d="M415.7,198.9c-0.5-1.5-1-2.9-1.6-4.4c0-0.2,0-0.4-0.1-0.6c0-0.4-0.1-0.8-0.1-1.2c-0.1-0.9-0.1-1.7-0.2-2.6
					c-0.1-1.7-0.2-3.5-0.2-5.2c0-0.1-0.1-0.1-0.1,0c0,1.8,0,3.5,0,5.2c0,0.9,0.1,1.7,0.1,2.6c0,0.2,0,0.4,0,0.6
					c-1.4-2.9-3-5.7-4.9-8.3c-0.8-1.2-1.7-2.3-2.6-3.4c-1-1.1-2-2.2-3-3.2c-0.1-0.1-0.2,0-0.1,0.1c1.8,1.9,3.3,4.1,4.7,6.2
					c0.7,1.1,1.4,2.3,2.1,3.4c-0.1,0-0.2-0.1-0.2-0.1c-0.3-0.1-0.6-0.2-0.9-0.3c-0.7-0.3-1.3-0.5-2-0.7c-1.3-0.5-2.6-1-3.9-1.4
					c-0.1,0-0.1,0.1-0.1,0.1c1.3,0.5,2.6,1.1,3.8,1.6c0.6,0.3,1.3,0.5,1.9,0.8c0.3,0.1,0.6,0.3,0.9,0.4c0.2,0.1,0.4,0.2,0.6,0.2
					c0.5,0.9,1,1.8,1.4,2.7c1.1,2.3,2.1,4.6,3,7c0.1,0.2,0.1,0.3,0.2,0.5c-0.6-0.4-1.4-0.7-2-1c-0.8-0.4-1.7-0.8-2.5-1.1
					c-1.7-0.8-3.4-1.6-5-2.5c-0.1,0-0.2,0.1-0.1,0.1c1.7,0.9,3.3,1.9,5,2.8c0.8,0.5,1.7,0.9,2.5,1.3c0.7,0.3,1.5,0.8,2.3,0.9
					c0.8,2.2,1.4,4.5,1.6,6.9c0.3,3.3,0.2,6.6,0.3,9.9c0,0.1,0.1,0.1,0.1,0c0.2-3,0.4-6,0.4-9.1
					C417.1,204.3,416.6,201.6,415.7,198.9z"/>
				<path class="st3" d="M412,181.7c-0.2,1.7-0.4,3.4-0.2,5.2c0,0,0.1,0,0.1,0c0.1-1.7,0.1-3.4,0.3-5.1
					C412.1,181.7,412,181.6,412,181.7z"/>
				<path class="st3" d="M405,183.2c-1.1-0.5-2.1-0.9-3.1-1.5c-0.1-0.1-0.2,0.1-0.1,0.1c1,0.6,2,1.2,3.1,1.5
					C405.1,183.3,405.1,183.2,405,183.2z"/>
			</g>
			<path class="st3" d="M417.7,251.4c0-2.7-0.1-5.3-0.1-8c-0.1-8.9-0.1-17.8-0.3-26.7c-0.1-7.1-0.3-14.1-0.5-21.2c0,0,0-0.1-0.1-0.1
				c0-1.9,0-3.9,0-5.8c0,0-0.1-0.1-0.1-0.1c-0.1,0-0.1,0-0.1,0.1c0,1.9,0,3.9,0,5.8c0,0-0.1,0-0.1,0.1c-0.4,12.6-0.7,25.1-0.7,37.7
				c0,2.6,0,5.1,0,7.7c-0.1,8.2-0.1,16.4-0.1,24.6c0,1.3,0,2.6,0,3.9c0,7.5,0.1,15,0.1,22.5c0,0.4,0.4,0.6,0.9,0.6
				c0.5,0,1.1-0.2,1.1-0.7c0-8.3,0.1-16.5,0.1-24.8C417.7,261.8,417.7,256.6,417.7,251.4z"/>
			<g>
				<path class="st0" d="M407.6,243.3c0,0-11.6-8.6-22.7-2.8c-11.1,5.8-12.8,28.3-12.8,28.3s16.2,2.3,26.4-7.4
					C408.4,252,407.6,243.3,407.6,243.3z"/>
				<path class="st3" d="M410.7,243.8c-2.1-0.9-4.5-1.1-6.7-0.9c-0.5-0.1-1-0.1-1.4-0.1c-0.5,0-1.1-0.1-1.6-0.1
					c-1.1-0.1-2.3-0.2-3.4-0.2c-2.3-0.2-4.6-0.3-6.9-0.5c-0.1,0-0.1,0.1,0,0.1c2.3,0.3,4.5,0.6,6.8,0.8c1.2,0.1,2.3,0.2,3.5,0.3
					c0.3,0,0.6,0.1,0.9,0.1c-0.3,0.1-0.7,0.2-1,0.3c-1.8,0.5-3.6,1.3-5.3,2.1c-0.9,0.2-1.8,0.4-2.7,0.6c-1.4,0.3-2.9,0.7-4.3,1.1
					c-2.8,0.7-5.6,1.6-8.4,2.4c-0.1,0,0,0.2,0,0.1c2.8-0.7,5.6-1.3,8.4-2c1.4-0.3,2.7-0.6,4.1-1c0.4-0.1,0.7-0.2,1.1-0.2
					c-3.1,1.9-6,4.4-8.3,7.2c-2.3,2.8-4.2,5.8-5.8,9.1c0,0.1,0.1,0.2,0.1,0.1c1.9-3.3,4.2-6.4,7-9.1c-0.1,0.2-0.1,0.3-0.2,0.5
					c-0.2,0.7-0.4,1.4-0.6,2.1c-0.4,1.4-0.9,2.7-1.3,4.1c0,0.1,0.1,0.1,0.1,0c0.5-1.3,1-2.7,1.4-4c0.2-0.7,0.5-1.3,0.7-2
					c0.1-0.3,0.2-0.7,0.3-1c0-0.1,0.1-0.2,0.1-0.3c1.3-1.3,2.7-2.5,4.1-3.5c1.9-1.4,4-2.6,6.2-3.5c0,0.2-0.1,0.4-0.1,0.6
					c-0.1,0.5-0.2,1.1-0.3,1.6c-0.2,1.1-0.4,2.2-0.7,3.3c-0.4,2.3-0.7,4.5-1.1,6.8c0,0.1,0.1,0.1,0.1,0c0.5-2.3,1.2-4.5,1.7-6.8
					c0.3-1.1,0.5-2.3,0.7-3.4c0.1-0.5,0.2-1.1,0.3-1.6c0.1-0.3,0.1-0.6,0.2-0.9c0.2-0.1,0.4-0.2,0.6-0.3c3.1-1.1,6.4-2,9.7-1.3
					c3.1,0.6,5.8,2.7,7,5.6c0.1,0.3,0.5,0.1,0.4-0.2C415.6,247,413.3,244.9,410.7,243.8z"/>
				<path class="st3" d="M392.9,253.4c-0.3,1.5-0.7,3-1,4.4c-0.3,1.4-0.7,2.9-0.8,4.3c0,0.1,0.1,0.1,0.1,0c0.5-1.4,0.7-2.9,1-4.3
					c0.3-1.5,0.6-2.9,0.9-4.4C393.1,253.4,392.9,253.3,392.9,253.4z"/>
				<path class="st3" d="M381.7,257.2c-1.5,0.8-2.9,1.6-4.5,2.2c-0.1,0,0,0.2,0.1,0.1C378.7,258.8,380.3,258.1,381.7,257.2
					C381.7,257.2,381.7,257.1,381.7,257.2z"/>
			</g>
			<g>
				<path class="st0" d="M410.2,227.4c0,0-14.2,0.9-20.9-8.5c-6.6-9.4-5.1-22.8-5.1-22.8s14.9,1.8,20.9,8.6
					C411,211.5,410.2,227.4,410.2,227.4z"/>
				<path class="st3" d="M416.9,241.5c-0.5-1.5-1.1-3-1.7-4.5c-0.6-1.4-1.1-2.9-1.8-4.3c-1.3-2.9-2.7-5.7-4.3-8.4
					c-1-1.7-2.1-3.4-3.2-5.1c0-0.3-0.1-0.5-0.1-0.8c-0.1-0.4-0.1-0.9-0.2-1.3c-0.1-0.9-0.3-1.8-0.4-2.7c-0.3-2-0.7-3.9-1-5.9
					c0-0.1-0.2-0.1-0.1,0c0.3,1.9,0.5,3.9,0.8,5.8c0.1,1,0.3,1.9,0.4,2.9c0.1,0.3,0.1,0.7,0.2,1c-2.2-3.2-4.5-6.2-7-9.1
					c-0.3-0.4-0.7-0.8-1-1.2c0-0.1-0.1-0.2-0.1-0.3c-0.1-0.3-0.2-0.5-0.3-0.8c-0.2-0.6-0.4-1.1-0.6-1.7c-0.4-1.1-0.8-2.2-1.1-3.4
					c0-0.1-0.2,0-0.1,0c0.3,1.2,0.6,2.3,0.9,3.5c0.2,0.6,0.3,1.1,0.5,1.7c0,0.1,0.1,0.2,0.1,0.3c-1.8-2-3.7-3.9-5.6-5.8
					c-0.1-0.1-0.2,0-0.1,0.1c3.7,3.8,7,8,10.1,12.4c-0.3-0.1-0.7-0.2-1.1-0.3c-1.1-0.2-2.2-0.4-3.3-0.5c-2.3-0.3-4.6-0.6-6.9-1
					c-0.1,0-0.1,0.1,0,0.1c2.2,0.4,4.4,0.9,6.6,1.4c1,0.2,2.1,0.4,3.1,0.6c0.9,0.2,1.7,0.4,2.5,0.7c0.2,0.3,0.5,0.7,0.7,1
					c1,1.5,2,3.1,3,4.6c-0.5-0.1-1-0.2-1.5-0.3c-1.1-0.2-2.2-0.4-3.3-0.6c-2.2-0.4-4.3-0.7-6.5-1.2c-0.1,0-0.1,0.1,0,0.1
					c2.2,0.5,4.3,1.1,6.5,1.7c1,0.3,2.1,0.5,3.1,0.8c0.5,0.1,1.1,0.2,1.6,0.3c0.2,0,0.4,0.1,0.6,0.1c2.1,3.4,4,6.8,5.8,10.3
					c0.8,1.5,1.6,3.1,2.3,4.7c0.8,1.6,1.4,3.3,2.1,4.9C416.5,242,417,241.8,416.9,241.5z"/>
				<path class="st3" d="M402.3,208.8c-0.3-1.4-0.6-2.7-0.9-4.1c0-0.1-0.2,0-0.1,0c0.3,1.3,0.5,2.7,0.8,4c0.2,1.3,0.4,2.7,0.8,4
					c0,0,0,0,0,0C402.9,211.4,402.6,210.1,402.3,208.8z"/>
				<path class="st3" d="M394,208.4c-0.7-0.3-1.4-0.6-2-0.9c-0.4-0.1-0.7-0.3-1.1-0.4c-0.2-0.1-0.4-0.1-0.5-0.2
					c-0.2-0.1-0.4-0.1-0.6-0.3c-0.1-0.1-0.2,0.1-0.1,0.1c0.2,0,0.4,0.2,0.6,0.2c0.2,0.1,0.4,0.2,0.5,0.2c0.3,0.2,0.7,0.3,1,0.5
					c0.7,0.3,1.4,0.6,2.1,0.8C394,208.6,394.1,208.4,394,208.4z"/>
			</g>
			<g>
				<path class="st0" d="M424.8,216.3c0,0,8.6-16.1,21.7-18.6c13.1-2.5,21.1,11,21.1,11S458,220.9,446,223
					C434,225.1,424.8,216.3,424.8,216.3z"/>
				<path class="st3" d="M455.3,204.9c-3.4-0.5-6.9-0.4-10.3,0.1c0.2-0.1,0.4-0.2,0.6-0.3c1-0.5,1.9-1,2.9-1.5c2-1,4-2.2,6.2-3
					c0.1,0,0-0.2-0.1-0.1c-2,1-4.2,1.8-6.2,2.7c-1,0.5-2,1-3,1.5c-0.6,0.3-1.4,0.7-2,1.1c-2.9,0.6-5.7,1.5-8.3,2.8
					c0.5-0.6,1.1-1.2,1.6-1.8c1.2-1.3,2.4-2.7,3.8-4c0.1-0.1,0-0.2-0.1-0.1c-1.4,1.2-2.8,2.4-4.1,3.7c-0.6,0.6-1.3,1.3-1.9,1.9
					c-0.3,0.3-0.6,0.7-0.9,1c-5.7,3.1-10.5,7.8-13.7,13.4c-1.8,3.2-3.1,6.7-3.8,10.3c0,0.1,0.1,0.1,0.1,0c1.8-6.1,5.2-11.8,9.6-16.3
					c4.8-4.9,10.9-8.4,17.6-10.2c4-1,8-1.4,12.1-1.1C455.4,205.2,455.4,204.9,455.3,204.9z"/>
				<path class="st2" d="M467.6,208.7c0,0-9.6,12.2-21.6,14.3c-9.2,1.6-16.7-3.2-19.8-5.5l-0.7-1.1c0,0,6.2-5.2,17.9-8.2
					C455.2,205.1,467.6,208.7,467.6,208.7z"/>
				<path class="st3" d="M447.6,199.1c-1,0.6-2,1.2-2.9,1.9c-0.9,0.7-1.8,1.5-2.5,2.3c-0.1,0.1,0,0.2,0.1,0.1
					c0.9-0.8,1.7-1.5,2.6-2.2c0.9-0.7,1.8-1.4,2.8-2C447.8,199.2,447.7,199.1,447.6,199.1z"/>
				<path class="st3" d="M454.8,201.9c-0.5,0.2-1,0.4-1.5,0.6c-0.5,0.2-1,0.4-1.5,0.6c-0.1,0-0.1,0.2,0.1,0.2c0.5-0.2,1-0.4,1.5-0.6
					c0.5-0.2,1-0.4,1.5-0.6C455,202,454.9,201.8,454.8,201.9z"/>
			</g>
			<g>
				<path class="st0" d="M423,236.5c0,0,2.3,16,14.3,21.5c12,5.6,26.6,0,26.6,0S458.2,223.5,423,236.5z"/>
				<path class="st3" d="M455.7,247.7c-1.1-0.1-2.2-0.3-3.3-0.5c-0.5-0.1-1.1-0.2-1.6-0.3c-0.3-0.1-0.6-0.1-0.8-0.2
					c-0.3-0.3-0.6-0.6-1-0.9c-2.3-2-4.7-3.8-7.3-5.3c-1.4-0.8-2.9-1.6-4.4-2.3c0.1,0,0.2,0,0.2,0c1.3,0.1,2.6,0.1,3.9,0.2
					c2.6,0.1,5.3,0.2,7.9,0.4c0.1,0,0.1-0.1,0-0.1c-2.6-0.2-5.3-0.5-7.9-0.7c-1.3-0.1-2.6-0.2-3.8-0.3c-0.7-0.1-1.3-0.1-2-0.2
					c-0.2,0-0.3,0-0.5-0.1c-0.7-0.3-1.4-0.5-2.1-0.7c-3.3-1-6.8-1.4-10.2-0.6c-3,0.8-6,2.8-6.8,5.9c0,0.1,0.1,0.2,0.2,0.1
					c1.1-2.7,4.1-4,6.7-4.6c1.8-0.4,3.6-0.4,5.4-0.1c0.1,0.8,0.4,1.7,0.6,2.4c0.3,1.1,0.7,2.2,1,3.4c0.7,2.2,1.4,4.5,2.1,6.7
					c0,0.1,0.2,0,0.1,0c-0.6-2.2-1-4.5-1.6-6.7c-0.3-1.1-0.5-2.2-0.8-3.3c-0.2-0.7-0.3-1.5-0.6-2.3c1.1,0.2,2.1,0.4,3.1,0.7
					c1.8,0.5,3.7,1.2,5.4,2c0.2,1.1,0.4,2.3,0.7,3.4c0.3,1.4,0.7,2.8,1.1,4.2c0,0.1,0.2,0,0.1,0c0-0.1,0-0.2-0.1-0.3c0,0,0,0,0,0
					c-0.3-1.3-0.6-2.6-0.8-3.9c-0.2-1.1-0.4-2.1-0.7-3.2c1.5,0.7,3,1.4,4.4,2.2c0,0.3,0.1,0.7,0.2,1c0.1,0.5,0.2,1.1,0.3,1.6
					c0.2,1.2,0.5,2.5,0.8,3.7c0.6,2.3,1.2,4.7,2.1,6.9c0,0,0,0.1,0,0.1c0,0,0,0.1,0.1,0.1c0.1,0.1,0.1,0,0.1-0.1
					c-0.6-2.4-1.2-4.7-1.7-7.1c-0.3-1.2-0.5-2.4-0.8-3.6c-0.1-0.6-0.2-1.2-0.3-1.8c0-0.2-0.1-0.3-0.1-0.5c1.6,1,3.2,2,4.7,3.1
					c2.6,1.9,5,4.1,7.2,6.5c0.1,0.1,0.3,0,0.2-0.1c-0.9-1.2-1.8-2.4-2.9-3.5c-0.6-0.6-1.2-1.3-1.9-1.9c0.1,0,0.1,0,0.2,0
					c0.6,0.1,1.1,0.2,1.7,0.3c1.1,0.1,2.2,0.3,3.3,0.4C455.8,247.8,455.8,247.7,455.7,247.7z"/>
				<path class="st3" d="M447.3,253.1L447.3,253.1C447.3,253.1,447.3,253.1,447.3,253.1c0-0.1,0-0.3-0.1-0.4c0-0.2-0.1-0.3-0.1-0.5
					c0,0,0,0,0,0c-0.2-1.1-0.5-2.1-0.6-3.2c0-0.1-0.1-0.1-0.1,0C446.3,250.4,446.7,251.8,447.3,253.1
					C447.2,253.1,447.3,253.1,447.3,253.1C447.3,253.1,447.3,253.1,447.3,253.1z"/>
				<path class="st3" d="M437.2,252.8C437.2,252.8,437.2,252.7,437.2,252.8c-0.4-1.5-0.7-2.9-1-4.3c-0.2-0.7-0.3-1.5-0.5-2.2
					c-0.1-0.4-0.2-0.8-0.2-1.2c-0.1-0.3-0.1-0.7-0.3-1c0-0.1-0.1,0-0.1,0c-0.1,0.7,0.2,1.5,0.3,2.1c0.1,0.8,0.3,1.6,0.5,2.3
					c0.3,1.6,0.7,3.1,1.2,4.7c0,0.1,0.2,0.1,0.2,0C437.2,253,437.2,252.9,437.2,252.8z"/>
				<path class="st3" d="M454.6,243.1c-2.2-0.3-4.4-0.6-6.6-0.9c-0.1,0-0.1,0.1,0,0.1c2.2,0.3,4.4,0.6,6.6,0.9
					C454.7,243.2,454.7,243.1,454.6,243.1z"/>
			</g>
			<g>
				<path class="st0" d="M416.9,199.1c0,0-7.3-32.2,27.3-45.3C444.2,153.8,453.8,196.2,416.9,199.1z"/>
				<path class="st3" d="M424.4,180.8c0.1-0.1,0.3-0.2,0.4-0.2c0.7-0.4,1.3-0.7,2-1.1l4-2.2c2.6-1.5,5.2-3,7.9-4.5
					c0.1,0,0-0.2-0.1-0.1c-2.7,1.4-5.4,2.8-8.1,4.2l-4,2.1c-0.5,0.3-1.1,0.6-1.6,0.9c1.2-2.2,2.4-4.3,3.7-6.4c1.8-2.8,3.8-5.4,5.9-8
					c0.1-0.1-0.1-0.3-0.2-0.2c-3.1,2.9-5.7,6.3-8,9.8c0-0.1,0-0.2,0-0.3c0-0.8,0.1-1.6,0.1-2.4c0-1.6-0.1-3.1,0-4.7
					c0-0.1-0.1-0.1-0.1,0c-0.1,1.5-0.3,3.1-0.3,4.6c0,0.8-0.1,1.5-0.1,2.3c0,0.4-0.1,0.9,0,1.4c-0.7,1.1-1.4,2.3-2,3.5
					c-1.2,2.1-2.2,4.3-3.1,6.5c0-0.8-0.1-1.6-0.1-2.4c-0.1-1.8-0.3-3.5-0.4-5.3c0-0.1-0.1-0.1-0.1,0c0,1.8,0,3.5,0,5.3
					c0,0.9,0.1,1.8,0.1,2.6c0,0.3,0,0.7,0.1,1c-1.1,2.9-2,5.9-2.6,8.9c-0.7,3.2-0.9,6.5-1.3,9.7c0,0,0,0,0,0c0.3-2.9,1-5.9,1.8-8.7
					c0.4-1.5,0.9-3,1.4-4.5c1.4-0.7,2.8-1.5,4.2-2.3c1.4-0.8,2.9-1.6,4.3-2.4c2.9-1.6,5.8-3.2,8.7-4.6c0.1,0,0-0.2-0.1-0.1
					c-3,1.4-6.1,2.7-9,4.2c-1.5,0.7-2.9,1.5-4.4,2.3c-1.2,0.7-2.4,1.4-3.6,2.1c0.3-1,0.7-2,1.1-3C421.9,186.1,423,183.4,424.4,180.8
					z"/>
				<path class="st3" d="M421.4,173.4c0-0.1-0.2-0.1-0.1,0c0.1,1.8,0.2,3.7,0.4,5.5c0,0.1,0.2,0.1,0.2,0
					C421.8,177.1,421.6,175.3,421.4,173.4z"/>
				<path class="st3" d="M438,179.6c-2.2,0.9-4.4,1.7-6.5,2.6c-0.1,0,0,0.1,0,0.1c2.2-0.8,4.3-1.7,6.5-2.6
					C438.2,179.7,438.1,179.6,438,179.6z"/>
				<path class="st3" d="M441.3,164.7c-2.1,1-4.2,2.1-6.2,3.3c-0.1,0.1,0,0.2,0.1,0.2c2-1.2,4.1-2.3,6.1-3.3
					C441.5,164.8,441.4,164.7,441.3,164.7z"/>
			</g>
		</g>
		<g>
			<rect x="390.9" y="268.7" class="st4" width="49.9" height="52.6"/>
			<g>
				<rect x="387.5" y="287.4" class="st3" width="2.6" height="90.1"/>
				<rect x="441.4" y="287.4" class="st3" width="2.6" height="90.1"/>
				<rect x="415.8" y="287.4" class="st3" width="2.6" height="90.1"/>
				<rect x="388.7" y="318" class="st3" width="54" height="7.3"/>
			</g>
		</g>
	</g>
</g>
<g id="Floor">
	<g>
		<polygon class="st1" points="31.2,377.5 85.9,377.2 140.6,377.1 250,377 359.4,377.1 414.1,377.2 468.8,377.5 414.1,377.7 
			359.4,377.8 250,378 140.6,377.8 85.9,377.7 		"/>
	</g>
</g>
<g id="Shadow">
	<g>
		<ellipse class="st0" cx="250" cy="416.4" rx="214.9" ry="20.2"/>
	</g>
</g>
<g id="Light_Bulb">
	<g>
		<g>
			<path class="st5" d="M301.3,201.7c0,3.7,5.9,6.8,5.9,13.8c0,3.6-2.7,10.6-10.9,10.6c-8.2,0-10.9-7-10.9-10.6
				c0-7,5.9-10.1,5.9-13.8c0-3.2-4-6.1-4-6.1h-37v-40.6c0,0,2.9-4,6.1-4c3.7,0,6.8,5.9,13.8,5.9c3.6,0,10.6-2.7,10.6-10.9
				c0-8.2-7-10.9-10.6-10.9c-7,0-10.1,5.9-13.8,5.9c-3.2,0-6.1-4-6.1-4V96.9c54.2,0,96.5,43.7,96.5,90.7c0,2.7-0.1,5.4-0.4,8h-41
				C305.3,195.6,301.3,198.5,301.3,201.7z"/>
		</g>
		<g>
			<path class="st5" d="M219.6,235.7c0,8.2,7,10.9,10.6,10.9c7,0,10.1-5.9,13.8-5.9c3.2,0,6.1,4,6.1,4V339h-37c0,0,4.3-33.3-12.5-58
				c-9.7-14.4-42.8-42.8-46.6-85.4h43.9c0,0,4-2.9,4-6.1c0-3.7-5.9-6.8-5.9-13.8c0-3.6,2.7-10.6,10.9-10.6c8.2,0,10.9,7,10.9,10.6
				c0,7-5.9,10.1-5.9,13.8c0,3.2,4,6.1,4,6.1h34.1v31.1c0,0-2.9,4-6.1,4c-3.7,0-6.8-5.9-13.8-5.9
				C226.6,224.8,219.6,227.6,219.6,235.7z"/>
		</g>
		<g>
			<path class="st5" d="M280.8,145.9c0,8.2-7,10.9-10.6,10.9c-7,0-10.1-5.9-13.8-5.9c-3.2,0-6.1,4-6.1,4v40.6h-34.1c0,0-4-2.9-4-6.1
				c0-3.7,5.9-6.8,5.9-13.8c0-3.6-2.7-10.6-10.9-10.6c-8.2,0-10.9,7-10.9,10.6c0,7,5.9,10.1,5.9,13.8c0,3.2-4,6.1-4,6.1h-43.9
				c-0.2-2.6-0.4-5.2-0.4-8c0-47,42.3-90.7,96.5-90.7v39.9c0,0,2.9,4,6.1,4c3.7,0,6.8-5.9,13.8-5.9
				C273.7,135,280.8,137.7,280.8,145.9z"/>
			<path class="st6" d="M280.8,145.9c0,8.2-7,10.9-10.6,10.9c-7,0-10.1-5.9-13.8-5.9c-3.2,0-6.1,4-6.1,4v40.6h-34.1c0,0-4-2.9-4-6.1
				c0-3.7,5.9-6.8,5.9-13.8c0-3.6-2.7-10.6-10.9-10.6c-8.2,0-10.9,7-10.9,10.6c0,7,5.9,10.1,5.9,13.8c0,3.2-4,6.1-4,6.1h-43.9
				c-0.2-2.6-0.4-5.2-0.4-8c0-47,42.3-90.7,96.5-90.7v39.9c0,0,2.9,4,6.1,4c3.7,0,6.8-5.9,13.8-5.9
				C273.7,135,280.8,137.7,280.8,145.9z"/>
		</g>
		<rect x="204.4" y="339" class="st7" width="91.5" height="14.2"/>
		<rect x="204.4" y="355.7" class="st7" width="91.5" height="14.2"/>
		<rect x="218.7" y="372.5" class="st7" width="63" height="14.2"/>
	</g>
	<g>
		<g>
			<path class="st5" d="M312.3,279.2c-12.9,26.9-3.7,59.2-3.7,59.2L272,344l-14-93.1c0,0-3.5-3.6-6.7-3.1c-3.7,0.5-5.9,6.8-12.8,7.9
				c-3.6,0.5-10.9-1.1-12.1-9.2c-1.2-8.1,5.3-11.8,8.9-12.4c6.9-1,10.9,4.3,14.6,3.8c3.2-0.5,5.5-4.9,5.5-4.9l-4.6-30.8l36.6-5.5
				c0,0,4.4,2.3,4.9,5.5c0.5,3.7-4.8,7.6-3.8,14.6c0.5,3.6,4.3,10.1,12.4,8.9c8.1-1.2,9.7-8.6,9.2-12.1c-1-6.9-7.3-9.2-7.9-12.8
				c-0.5-3.2,3.1-6.7,3.1-6.7l40.5-6.1C348.4,230.6,319.8,263.6,312.3,279.2z"/>
			<path class="st6" d="M312.3,279.2c-12.9,26.9-3.7,59.2-3.7,59.2L272,344l-14-93.1c0,0-3.5-3.6-6.7-3.1c-3.7,0.5-5.9,6.8-12.8,7.9
				c-3.6,0.5-10.9-1.1-12.1-9.2c-1.2-8.1,5.3-11.8,8.9-12.4c6.9-1,10.9,4.3,14.6,3.8c3.2-0.5,5.5-4.9,5.5-4.9l-4.6-30.8l36.6-5.5
				c0,0,4.4,2.3,4.9,5.5c0.5,3.7-4.8,7.6-3.8,14.6c0.5,3.6,4.3,10.1,12.4,8.9c8.1-1.2,9.7-8.6,9.2-12.1c-1-6.9-7.3-9.2-7.9-12.8
				c-0.5-3.2,3.1-6.7,3.1-6.7l40.5-6.1C348.4,230.6,319.8,263.6,312.3,279.2z"/>
		</g>
	</g>
</g>
</svg>
