<?xml version="1.0" encoding="utf-8"?>
<!-- Generator: Adobe Illustrator 23.0.4, SVG Export Plug-In . SVG Version: 6.00 Build 0)  -->
<svg version="1.1" xmlns="http://www.w3.org/2000/svg" xmlns:xlink="http://www.w3.org/1999/xlink" x="0px" y="0px"
	 viewBox="0 0 305.2 288.7" style="enable-background:new 0 0 305.2 288.7;" xml:space="preserve">
<style type="text/css">
	.st0{fill:#EBEBEB;}
	.st1{fill:#FFFFFF;}
	.st2{fill:#FFC727;}
	.st3{fill:#A6A6A6;}
	.st4{fill:#455A64;}
	.st5{fill:#263238;}
</style>
<g id="Background_Complete">
	<g>
		<path class="st0" d="M38.7,142.9c0-0.8,0.1-3.1,0.1-4c0-4.1-1.4-5.9-5.2-6c-1.8-0.1-2.8-1.2-2.8-2.7c0-1.5,1.1-2.6,2.8-2.7
			c3.8-0.2,5.2-2,5.2-6.1c0-0.9-0.1-3.2-0.1-4c0-5.4,2.3-8.9,10.9-10.8c1.7-0.4,3.1,0.7,3.1,2.3c0,1.3-0.9,2.1-1.6,2.3
			c-5.4,1.7-6.2,3.4-6.2,7.2c0,1.1,0.1,3,0.1,4.1c0,4.3-2.1,6.5-5.8,7.6c3.7,1.2,5.8,3.3,5.8,7.6c0,1.2-0.1,3-0.1,4.1
			c0,3.8,0.8,5.5,6.2,7.2c0.7,0.2,1.6,0.9,1.6,2.3c0,1.6-1.3,2.7-3.1,2.3C41,151.8,38.7,148.3,38.7,142.9z"/>
		<path class="st0" d="M71.4,117.4c0,0.8-0.1,3.1-0.1,4c0,4.1,1.5,5.9,5.3,6.1c1.7,0.1,2.8,1.2,2.8,2.7c0,1.5-1.1,2.6-2.8,2.7
			c-3.8,0.1-5.3,2-5.3,6c0,0.9,0.1,3.2,0.1,4c0,5.5-2.3,8.9-10.9,10.8c-1.7,0.4-3.1-0.7-3.1-2.3c0-1.3,0.9-2.1,1.6-2.3
			c5.4-1.7,6.1-3.4,6.1-7.2c0-1.1-0.1-3-0.1-4.1c0-4.3,2.1-6.5,5.8-7.6c-3.7-1.2-5.8-3.3-5.8-7.6c0-1.2,0.1-3,0.1-4.1
			c0-3.8-0.8-5.5-6.1-7.2c-0.7-0.2-1.6-0.9-1.6-2.3c0-1.6,1.3-2.7,3.1-2.3C69.1,108.5,71.4,112,71.4,117.4z"/>
	</g>
	<g>
		<path class="st0" d="M186.3,65.1c1.3,1.3,1.3,3.4,0,4.7c-0.7,0.6-1.5,0.9-2.3,0.9c-0.9,0-1.7-0.3-2.4-0.9l-14.6-14.8
			c-0.2-0.1-0.2-0.2-0.3-0.3c-0.1-0.1-0.2-0.1-0.2-0.1c-0.1-0.2-0.1-0.3-0.2-0.4c-0.1-0.1-0.2-0.2-0.2-0.2c-0.1-0.1-0.1-0.3-0.1-0.3
			c0-0.2-0.1-0.2-0.1-0.3c0-0.2,0-0.3,0-0.4c0-0.1-0.1-0.2-0.1-0.3c0-0.1,0.1-0.2,0.1-0.3c0-0.1,0-0.3,0-0.4c0-0.1,0.1-0.2,0.1-0.2
			c0.1-0.2,0.1-0.3,0.1-0.4c0-0.1,0.1-0.1,0.1-0.1c0.1-0.2,0.2-0.4,0.3-0.5c0,0,0-0.1,0.1-0.1c0.1-0.1,0.2-0.3,0.3-0.4l14.6-14.8
			c1.3-1.2,3.4-1.2,4.7,0c1.3,1.3,1.3,3.4,0,4.7L174,52.7L186.3,65.1z"/>
		<path class="st0" d="M199.6,66.7l12.7-30.2c0.6-1.5,2.3-2.1,3.8-1.5c1.4,0.6,2.1,2.3,1.5,3.7l-12.7,30.3c-0.5,1.1-1.6,1.7-2.6,1.7
			c-0.3,0-0.7-0.1-1-0.2C199.6,69.9,199,68.2,199.6,66.7z"/>
		<path class="st0" d="M242.6,54.5C242.6,54.5,242.6,54.6,242.6,54.5c-0.2,0.2-0.3,0.3-0.4,0.4l-14.6,14.8c-0.6,0.6-1.5,0.9-2.3,0.9
			c-0.9,0-1.7-0.3-2.3-0.9c-1.3-1.3-1.3-3.3,0-4.7l12.3-12.4L223,40.3c-1.3-1.3-1.3-3.4,0-4.7c1.2-1.2,3.4-1.2,4.7,0l14.6,14.8
			c0.2,0.1,0.3,0.3,0.4,0.4c0.1,0,0.1,0.1,0.1,0.1c0.1,0.2,0.2,0.3,0.3,0.5c0,0.1,0.1,0.1,0.1,0.1c0.1,0.2,0.1,0.3,0.2,0.5
			c0,0.1,0.1,0.1,0.1,0.2c0,0.1,0,0.3,0,0.4c0,0.1,0.1,0.2,0.1,0.3c0,0.1-0.1,0.2-0.1,0.3c0,0.2,0,0.3,0,0.4c0,0.1-0.1,0.1-0.1,0.1
			c-0.1,0.2-0.1,0.4-0.2,0.5c0,0.1-0.1,0.1-0.1,0.2C242.8,54.2,242.7,54.3,242.6,54.5z"/>
	</g>
</g>
<g id="Screens">
	<g>
		<g>
			<g>
				<rect x="27.8" y="28.5" class="st1" width="99.4" height="63.4"/>
				<path class="st0" d="M127.8,92.5H27.2V27.8h100.6V92.5z M28.4,91.2h98.1V29.1H28.4V91.2z"/>
			</g>
			<g>
				<rect x="27.8" y="28.5" class="st2" width="99.4" height="12"/>
				<path class="st0" d="M127.8,41.1H27.2V27.8h100.6V41.1z M28.4,39.8h98.1V29.1H28.4V39.8z"/>
			</g>
		</g>
		<g>
			<path class="st3" d="M39.1,34.6c0,1.7-1.4,3-3,3s-3-1.4-3-3s1.4-3,3-3S39.1,32.9,39.1,34.6z"/>
			<path class="st0" d="M51.4,34.6c0,1.7-1.4,3-3,3s-3-1.4-3-3s1.4-3,3-3S51.4,32.9,51.4,34.6z"/>
			<path class="st1" d="M63.7,34.6c0,1.7-1.4,3-3,3s-3-1.4-3-3s1.4-3,3-3S63.7,32.9,63.7,34.6z"/>
		</g>
		<g>
			<path class="st0" d="M45,64.2c0-6.6,5.6-12,12.3-12c2.9,0,5.6,1,7.7,2.6c0.8,0.7,0.9,1.8,0.3,2.7c-0.7,0.8-1.9,1-2.7,0.4
				c-1.5-1.2-3.3-1.8-5.4-1.8c-2.3,0-4.4,0.9-6,2.4c-1.5,1.5-2.4,3.5-2.4,5.8c0,2.3,0.9,4.3,2.4,5.8c1.6,1.5,3.7,2.4,6,2.4
				c2.1,0,3.9-0.6,5.4-1.8c0.8-0.6,2-0.4,2.7,0.4c0.6,0.8,0.5,2-0.3,2.7c-2.1,1.6-4.8,2.6-7.7,2.6C50.5,76.2,45,70.8,45,64.2z"/>
			<path class="st0" d="M71,70.4c0.6-0.7,1.7-0.8,2.4-0.2c1.5,1.2,4,2.6,6.4,2.6c1.7,0,3.2-0.5,4.2-1.2c1-0.7,1.4-1.6,1.4-2.4
				c0-0.4-0.1-0.7-0.3-1.1c-0.2-0.3-0.5-0.7-1-1c-1-0.6-2.6-1.2-4.6-1.6h-0.1c-1.6-0.3-3-0.7-4.3-1.3c-1.3-0.6-2.4-1.4-3.1-2.6
				c-0.5-0.8-0.8-1.7-0.8-2.7c0-2,1.1-3.7,2.7-4.9c1.6-1.1,3.6-1.8,5.8-1.8c3.2,0,5.6,1.6,7.3,2.7c0.8,0.5,1,1.6,0.5,2.4
				c-0.5,0.8-1.6,1-2.4,0.5c-1.7-1.1-3.3-2.1-5.4-2.1c-1.5,0-2.8,0.5-3.7,1.1c-0.9,0.7-1.3,1.4-1.3,2.1c0,0.4,0.1,0.7,0.2,0.9
				c0.2,0.3,0.5,0.6,0.9,0.9c0.9,0.6,2.4,1.1,4.2,1.5h0.1c1.7,0.3,3.3,0.8,4.6,1.4c1.4,0.7,2.6,1.5,3.3,2.8c0.5,0.8,0.8,1.8,0.8,2.8
				c0,2.1-1.2,4-2.9,5.2c-1.6,1.2-3.8,1.9-6.2,1.9c-3.6,0-6.6-1.8-8.5-3.3C70.5,72.2,70.4,71.1,71,70.4z"/>
			<path class="st0" d="M92.9,70.4c0.6-0.7,1.7-0.8,2.4-0.2c1.5,1.2,4,2.6,6.4,2.6c1.7,0,3.2-0.5,4.2-1.2c1-0.7,1.4-1.6,1.4-2.4
				c0-0.4-0.1-0.7-0.3-1.1c-0.2-0.3-0.5-0.7-1-1c-1-0.6-2.6-1.2-4.6-1.6h-0.1c-1.6-0.3-3-0.7-4.3-1.3c-1.3-0.6-2.4-1.4-3.1-2.6
				c-0.5-0.8-0.8-1.7-0.8-2.7c0-2,1.1-3.7,2.7-4.9c1.6-1.1,3.6-1.8,5.8-1.8c3.2,0,5.6,1.6,7.3,2.7c0.8,0.5,1,1.6,0.5,2.4
				c-0.5,0.8-1.6,1-2.4,0.5c-1.7-1.1-3.3-2.1-5.4-2.1c-1.5,0-2.8,0.5-3.7,1.1c-0.9,0.7-1.3,1.4-1.3,2.1c0,0.4,0.1,0.7,0.2,0.9
				c0.2,0.3,0.5,0.6,0.9,0.9c0.9,0.6,2.4,1.1,4.2,1.5h0.1c1.7,0.3,3.3,0.8,4.6,1.4c1.4,0.7,2.6,1.5,3.3,2.8c0.5,0.8,0.8,1.8,0.8,2.8
				c0,2.1-1.2,4-2.9,5.2c-1.6,1.2-3.8,1.9-6.2,1.9c-3.6,0-6.6-1.8-8.5-3.3C92.5,72.2,92.4,71.1,92.9,70.4z"/>
		</g>
	</g>
	<g>
		<g>
			<g>
				<rect x="192" y="209.9" class="st1" width="99.4" height="63.4"/>
				<path class="st0" d="M292,273.9H191.3v-64.7H292V273.9z M192.6,272.6h98.1v-62.1h-98.1V272.6z"/>
			</g>
			<g>
				<rect x="192" y="209.9" class="st2" width="99.4" height="12"/>
				<path class="st0" d="M292,222.5H191.3v-13.2H292V222.5z M192.6,221.2h98.1v-10.7h-98.1V221.2z"/>
			</g>
		</g>
		<g>
			<path class="st3" d="M203.2,215.9c0,1.7-1.4,3-3,3c-1.7,0-3-1.4-3-3c0-1.7,1.4-3,3-3C201.9,212.9,203.2,214.3,203.2,215.9z"/>
			<path class="st0" d="M215.5,215.9c0,1.7-1.4,3-3,3c-1.7,0-3-1.4-3-3c0-1.7,1.4-3,3-3C214.2,212.9,215.5,214.3,215.5,215.9z"/>
			<path class="st1" d="M227.9,215.9c0,1.7-1.4,3-3,3c-1.7,0-3-1.4-3-3c0-1.7,1.4-3,3-3C226.5,212.9,227.9,214.3,227.9,215.9z"/>
		</g>
		<g>
			<path class="st0" d="M210.5,245.5c0-6.6,5.6-12,12.3-12c2.9,0,5.6,1,7.7,2.6c0.8,0.7,0.9,1.8,0.3,2.7c-0.7,0.8-1.9,1-2.7,0.4
				c-1.5-1.2-3.3-1.8-5.4-1.8c-2.3,0-4.4,0.9-6,2.4c-1.5,1.5-2.4,3.5-2.4,5.8c0,2.3,0.9,4.3,2.4,5.8c1.6,1.5,3.7,2.4,6,2.4
				c2.1,0,3.9-0.6,5.4-1.8c0.8-0.6,2-0.4,2.7,0.4c0.6,0.8,0.5,2-0.3,2.7c-2.1,1.6-4.8,2.6-7.7,2.6
				C216.1,257.6,210.5,252.2,210.5,245.5z"/>
			<path class="st0" d="M242.5,247.7h-4.7c-1,0-1.8-0.8-1.8-1.8c0-1,0.8-1.8,1.8-1.8h4.7v-4.6c0-1.1,0.8-1.9,1.9-1.9
				c1,0,1.9,0.8,1.9,1.9v4.6h4.7c1,0,1.8,0.8,1.8,1.8c0,1-0.8,1.8-1.8,1.8h-4.7v4.6c0,1.1-0.9,1.9-1.9,1.9c-1.1,0-1.9-0.8-1.9-1.9
				V247.7z"/>
			<path class="st0" d="M263.2,247.7h-4.7c-1,0-1.8-0.8-1.8-1.8c0-1,0.8-1.8,1.8-1.8h4.7v-4.6c0-1.1,0.8-1.9,1.9-1.9
				c1,0,1.9,0.8,1.9,1.9v4.6h4.7c1,0,1.8,0.8,1.8,1.8c0,1-0.8,1.8-1.8,1.8H267v4.6c0,1.1-0.9,1.9-1.9,1.9c-1.1,0-1.9-0.8-1.9-1.9
				V247.7z"/>
		</g>
	</g>
	<g>
		<g>
			<g>
				<rect x="79.2" y="88" class="st1" width="165.7" height="136.1"/>
				<path class="st0" d="M245.6,224.8h-167V87.4h167V224.8z M79.9,223.5h164.5V88.7H79.9V223.5z"/>
			</g>
			<g>
				<rect x="79.2" y="88" class="st2" width="165.7" height="12"/>
				<path class="st0" d="M245.6,100.7h-167V87.4h167V100.7z M79.9,99.4h164.5V88.7H79.9V99.4z"/>
			</g>
		</g>
		<g>
			<path class="st3" d="M90.5,94.1c0,1.7-1.4,3-3,3c-1.7,0-3-1.4-3-3c0-1.7,1.4-3,3-3C89.2,91.1,90.5,92.5,90.5,94.1z"/>
			<path class="st0" d="M102.8,94.1c0,1.7-1.4,3-3,3c-1.7,0-3-1.4-3-3c0-1.7,1.4-3,3-3C101.5,91.1,102.8,92.5,102.8,94.1z"/>
			<path class="st1" d="M115.1,94.1c0,1.7-1.4,3-3,3c-1.7,0-3-1.4-3-3c0-1.7,1.4-3,3-3C113.8,91.1,115.1,92.5,115.1,94.1z"/>
		</g>
		<g>
			<rect x="92.1" y="123.9" class="st0" width="6.4" height="2.3"/>
			<rect x="103.2" y="123.9" class="st0" width="73.5" height="2.3"/>
			<rect x="180.7" y="123.9" class="st2" width="12.2" height="2.3"/>
			<rect x="208.5" y="155.2" class="st0" width="12.2" height="2.3"/>
			<rect x="195.5" y="123.9" class="st3" width="21" height="2.3"/>
			<rect x="98.5" y="130.1" class="st0" width="6.4" height="2.3"/>
			<rect x="109.4" y="130.1" class="st3" width="48.3" height="2.3"/>
			<rect x="177.4" y="155.2" class="st3" width="28.3" height="2.3"/>
			<rect x="103.2" y="148.9" class="st3" width="46.1" height="2.3"/>
			<rect x="109.4" y="136.4" class="st2" width="32.3" height="2.3"/>
			<rect x="188.8" y="142.7" class="st3" width="12.3" height="2.3"/>
			<rect x="145.4" y="136.4" class="st3" width="51.6" height="2.3"/>
			<rect x="103.2" y="155.2" class="st2" width="61.6" height="2.3"/>
			<rect x="194.1" y="130.1" class="st2" width="33.4" height="2.3"/>
			<rect x="160.7" y="130.1" class="st0" width="30.8" height="2.3"/>
			<rect x="199.4" y="136.4" class="st0" width="20.8" height="2.3"/>
			<rect x="98.5" y="136.4" class="st0" width="6.4" height="2.3"/>
			<rect x="92.1" y="142.7" class="st3" width="6.4" height="2.3"/>
			<rect x="103.2" y="142.7" class="st0" width="37.9" height="2.3"/>
			<rect x="109.4" y="161.5" class="st0" width="37.9" height="2.3"/>
			<rect x="180.1" y="167.7" class="st2" width="28.8" height="2.3"/>
			<rect x="150.4" y="161.5" class="st2" width="38" height="2.3"/>
			<rect x="143.7" y="167.7" class="st0" width="33.1" height="2.3"/>
			<rect x="109.4" y="167.7" class="st3" width="11" height="2.3"/>
			<rect x="151.9" y="148.9" class="st0" width="40.9" height="2.3"/>
			<rect x="195.5" y="148.9" class="st2" width="26.1" height="2.3"/>
			<rect x="144.9" y="142.7" class="st2" width="40.9" height="2.3"/>
			<rect x="92.1" y="148.9" class="st0" width="6.4" height="2.3"/>
			<rect x="92.1" y="155.2" class="st0" width="6.4" height="2.3"/>
			<rect x="98.5" y="161.5" class="st3" width="6.4" height="2.3"/>
			<rect x="98.5" y="167.7" class="st0" width="6.4" height="2.3"/>
			<rect x="92.1" y="173" class="st0" width="6.4" height="2.3"/>
			<rect x="103.2" y="173" class="st0" width="73.5" height="2.3"/>
			<rect x="98.5" y="179.3" class="st0" width="6.4" height="2.3"/>
			<rect x="109.4" y="179.3" class="st3" width="48.3" height="2.3"/>
			<rect x="103.2" y="198.1" class="st3" width="46.1" height="2.3"/>
			<rect x="109.4" y="185.5" class="st2" width="32.3" height="2.3"/>
			<rect x="145.4" y="185.5" class="st3" width="51.6" height="2.3"/>
			<rect x="103.2" y="204.3" class="st2" width="61.6" height="2.3"/>
			<rect x="194.1" y="179.3" class="st2" width="33.4" height="2.3"/>
			<rect x="160.7" y="179.3" class="st0" width="30.8" height="2.3"/>
			<rect x="199.4" y="185.5" class="st0" width="20.8" height="2.3"/>
			<rect x="98.5" y="185.5" class="st0" width="6.4" height="2.3"/>
			<rect x="92.1" y="191.8" class="st3" width="6.4" height="2.3"/>
			<rect x="103.2" y="191.8" class="st0" width="37.9" height="2.3"/>
			<rect x="151.9" y="198.1" class="st0" width="40.9" height="2.3"/>
			<rect x="144.9" y="191.8" class="st2" width="40.9" height="2.3"/>
			<rect x="92.1" y="198.1" class="st0" width="6.4" height="2.3"/>
			<g>
				<path class="st2" d="M96.1,117.7c0.2,0.2,0.2,0.6,0,0.8c-0.1,0.1-0.2,0.2-0.4,0.2c-0.1,0-0.3-0.1-0.4-0.2l-2.5-2.5
					c0,0,0,0,0-0.1c0,0,0,0,0,0c0,0,0,0,0-0.1c0,0,0,0,0,0c0,0,0,0,0-0.1c0,0,0,0,0,0c0,0,0,0,0-0.1c0,0,0,0,0-0.1c0,0,0,0,0,0
					c0,0,0,0,0-0.1c0,0,0,0,0,0c0,0,0,0,0-0.1c0,0,0,0,0,0c0,0,0-0.1,0-0.1c0,0,0,0,0,0c0,0,0,0,0.1-0.1l2.5-2.5
					c0.2-0.2,0.6-0.2,0.8,0c0.2,0.2,0.2,0.6,0,0.8l-2.1,2.1L96.1,117.7z"/>
				<path class="st2" d="M98.3,118l2.2-5.1c0.1-0.2,0.4-0.4,0.6-0.3c0.2,0.1,0.4,0.4,0.2,0.6l-2.2,5.1c-0.1,0.2-0.3,0.3-0.4,0.3
					c-0.1,0-0.1,0-0.2,0C98.3,118.5,98.2,118.2,98.3,118z"/>
				<path class="st2" d="M105.6,115.9C105.6,115.9,105.6,115.9,105.6,115.9C105.6,116,105.6,116,105.6,115.9l-2.5,2.6
					c-0.1,0.1-0.3,0.2-0.4,0.2c-0.1,0-0.3-0.1-0.4-0.2c-0.2-0.2-0.2-0.6,0-0.8l2.1-2.1l-2.1-2.1c-0.2-0.2-0.2-0.6,0-0.8
					c0.2-0.2,0.6-0.2,0.8,0l2.5,2.5c0,0,0,0,0.1,0.1c0,0,0,0,0,0c0,0,0,0.1,0,0.1c0,0,0,0,0,0c0,0,0,0,0,0.1c0,0,0,0,0,0
					c0,0,0,0,0,0.1c0,0,0,0,0,0c0,0,0,0,0,0c0,0,0,0,0,0.1c0,0,0,0,0,0c0,0,0,0.1,0,0.1C105.7,115.8,105.7,115.8,105.6,115.9
					C105.6,115.9,105.6,115.9,105.6,115.9z"/>
			</g>
		</g>
	</g>
	<g>
		<rect x="196.2" y="69" class="st4" width="67.7" height="25.1"/>
		<g>
			<path class="st1" d="M206,86.7V75.6c0-0.6,0.5-1,1-1c0.6,0,1.1,0.5,1.1,1v4.5h4.9v-4.5c0-0.6,0.5-1,1-1c0.6,0,1.1,0.5,1.1,1v11.1
				c0,0.6-0.5,1-1.1,1c-0.6,0-1-0.5-1-1v-4.5H208v4.5c0,0.6-0.5,1-1.1,1C206.4,87.7,206,87.3,206,86.7z"/>
			<path class="st1" d="M227.4,76.6h-3v10.1c0,0.6-0.5,1-1,1c-0.6,0-1-0.5-1-1V76.6h-3c-0.6,0-1-0.5-1-1.1c0-0.6,0.5-1,1-1h8
				c0.6,0,1,0.5,1,1C228.4,76.1,227.9,76.6,227.4,76.6z"/>
			<path class="st1" d="M242.9,75.6v11.1c0,0.6-0.5,1-1.1,1c-0.6,0-1-0.5-1-1v-7.9l-2.7,3.8c-0.2,0.3-0.5,0.4-0.8,0.4h0h0
				c-0.3,0-0.7-0.2-0.9-0.4l-2.7-3.8v7.9c0,0.6-0.5,1-1.1,1c-0.6,0-1-0.5-1-1V75.6c0-0.6,0.5-1,1-1c0,0,0,0,0.1,0
				c0.3,0,0.6,0.2,0.8,0.4l3.8,5.2l3.7-5.2c0.2-0.3,0.5-0.4,0.8-0.4c0,0,0,0,0,0C242.4,74.6,242.9,75,242.9,75.6z"/>
			<path class="st1" d="M247.4,86.7V75.6c0-0.6,0.5-1,1-1c0.6,0,1.1,0.5,1.1,1v10.1h5.1c0.5,0,1,0.5,1,1.1c0,0.6-0.5,1-1,1h-6.1
				c0,0,0,0,0,0c0,0,0,0,0,0C247.9,87.7,247.4,87.3,247.4,86.7z"/>
		</g>
	</g>
	<g>
		<rect x="27.2" y="164.7" class="st4" width="55.8" height="25.1"/>
		<g>
			<path class="st1" d="M43.8,178.4h-2.3v4.1c0,0.6-0.5,1-1.1,1c-0.6,0-1-0.5-1-1v-11.1c0-0.6,0.5-1,1-1h0h3.4
				c2.2,0,4.1,1.8,4.1,4.1C47.8,176.6,46,178.4,43.8,178.4z M41.5,176.3h2.3c1.1,0,1.9-0.9,2-1.9c0-1.1-0.9-2-2-2h-2.3V176.3z"/>
			<path class="st1" d="M50.4,182.5v-11.1c0-0.6,0.5-1,1-1c0.6,0,1.1,0.5,1.1,1v4.5h4.9v-4.5c0-0.6,0.5-1,1-1c0.6,0,1.1,0.5,1.1,1
				v11.1c0,0.6-0.5,1-1.1,1c-0.6,0-1-0.5-1-1v-4.5h-4.9v4.5c0,0.6-0.5,1-1.1,1C50.8,183.5,50.4,183,50.4,182.5z"/>
			<path class="st1" d="M68.1,178.4h-2.3v4.1c0,0.6-0.5,1-1.1,1c-0.6,0-1-0.5-1-1v-11.1c0-0.6,0.5-1,1-1h0h3.4
				c2.2,0,4.1,1.8,4.1,4.1C72.2,176.6,70.4,178.4,68.1,178.4z M65.8,176.3h2.3c1.1,0,1.9-0.9,2-1.9c0-1.1-0.9-2-2-2h-2.3V176.3z"/>
		</g>
	</g>
	<g>
		<polygon class="st5" points="247.4,163.1 251.7,173.3 247.4,175.1 243.2,164.8 236.2,170.2 236.2,141.4 256.3,161.8 		"/>
		<g>
			<path class="st5" d="M236.2,138.3c-0.2-0.5-0.2-1-0.3-1.4c0-0.5,0.1-1,0.3-1.4c0.2,0.5,0.2,1,0.3,1.4
				C236.4,137.3,236.4,137.8,236.2,138.3z"/>
			<path class="st5" d="M233.7,139.3c-0.5-0.2-0.9-0.5-1.2-0.8c-0.3-0.3-0.6-0.7-0.8-1.2c0.5,0.2,0.9,0.5,1.2,0.8
				C233.2,138.4,233.5,138.8,233.7,139.3z"/>
			<path class="st5" d="M232.7,141.8c-0.5,0.2-1,0.2-1.4,0.3c-0.5,0-1-0.1-1.4-0.3c0.5-0.2,1-0.2,1.4-0.3
				C231.7,141.5,232.2,141.6,232.7,141.8z"/>
			<path class="st5" d="M233.7,144.3c-0.2,0.5-0.5,0.9-0.8,1.2c-0.3,0.3-0.7,0.6-1.2,0.8c0.2-0.5,0.5-0.9,0.8-1.2
				C232.8,144.8,233.2,144.5,233.7,144.3z"/>
			<path class="st5" d="M239.7,141.8c0.5-0.2,1-0.2,1.4-0.3c0.5,0,1,0.1,1.4,0.3c-0.5,0.2-1,0.2-1.4,0.3
				C240.7,142,240.2,142,239.7,141.8z"/>
			<path class="st5" d="M238.7,139.3c0.2-0.5,0.5-0.9,0.8-1.2c0.3-0.3,0.7-0.6,1.2-0.8c-0.2,0.5-0.5,0.9-0.8,1.2
				C239.5,138.8,239.2,139.1,238.7,139.3z"/>
		</g>
	</g>
</g>
<g id="Coffee">
</g>
</svg>
