<?xml version="1.0" encoding="utf-8"?>
<!-- Generator: Adobe Illustrator 23.0.4, SVG Export Plug-In . SVG Version: 6.00 Build 0)  -->
<svg version="1.1" id="Rocket" xmlns="http://www.w3.org/2000/svg" xmlns:xlink="http://www.w3.org/1999/xlink" x="0px" y="0px"
	 viewBox="0 0 236.8 239" style="enable-background:new 0 0 236.8 239;" xml:space="preserve">
<style type="text/css">
	.st0{fill:#FFC727;}
	.st1{opacity:0.1;enable-background:new    ;}
	.st2{fill:#EBEBEB;}
	.st3{opacity:0.2;enable-background:new    ;}
	.st4{fill:#455A64;}
	.st5{opacity:0.4;}
	.st6{fill:#FFFFFF;}
	.st7{opacity:0.1;}
</style>
<g>
	<g>
		<g>
			<path class="st0" d="M82,113.1l-35.5,38.7c0,0,35.5,81.2,35.5,81.8l-5-67.7l11-11.3L82,113.1z"/>
			<path class="st1" d="M82,113.1l-35.5,38.7c0,0,35.5,81.2,35.5,81.8l-5-67.7l11-11.3L82,113.1z"/>
			<polygon class="st1" points="88,154.5 80.5,162.3 66.3,130.2 82,113.1 			"/>
		</g>
		<g>
			<path class="st0" d="M149.6,113.1l35.5,38.7c0,0-35.5,81.2-35.5,81.8l5.1-67.7l-11-11.3L149.6,113.1z"/>
			<path class="st1" d="M149.6,113.1l35.5,38.7c0,0-35.5,81.2-35.5,81.8l5.1-67.7l-11-11.3L149.6,113.1z"/>
			<polygon class="st1" points="143.7,154.5 151.2,162.3 165.4,130.2 149.6,113.1 			"/>
		</g>
		<path class="st2" d="M136.3,181H95.1c0,0-19.4-34.7-17.1-76c1.2-20.6,6.6-41.4,13-58.6c8.9-23.7,20-40.6,24.8-40.6
			c4.8,0,15.8,16.9,24.7,40.6c6.4,17.2,11.8,38,12.9,58.6C155.8,146.4,136.3,181,136.3,181z"/>
		<g>
			<path class="st3" d="M140.5,99.7c0,13.1-10.6,23.7-23.8,23.7c-13.1,0-23.7-10.6-23.7-23.8c0-13.1,10.6-23.7,23.8-23.7
				C129.8,76,140.5,86.6,140.5,99.7z"/>
			<path class="st0" d="M139.6,97.3c0,13.1-10.6,23.7-23.8,23.7c-13.1,0-23.7-10.6-23.7-23.8c0-13.1,10.6-23.7,23.8-23.7
				C129,73.5,139.6,84.2,139.6,97.3z"/>
			<path class="st1" d="M139.6,97.3c0,13.1-10.6,23.7-23.8,23.7c-13.1,0-23.7-10.6-23.7-23.8c0-13.1,10.6-23.7,23.8-23.7
				C129,73.5,139.6,84.2,139.6,97.3z"/>
			<path class="st4" d="M132.3,97.3c0,9.1-7.4,16.5-16.5,16.5s-16.5-7.4-16.5-16.5s7.4-16.5,16.5-16.5
				C125,80.8,132.3,88.2,132.3,97.3z"/>
			<g class="st5">
				<path class="st6" d="M132.3,97.3c0,2.1-0.4,4.1-1.1,6l-9.4,9.4c-1.8,0.7-3.9,1.1-6,1.1c-1.5,0-3-0.2-4.4-0.6l20.3-20.3
					C132.1,94.3,132.3,95.7,132.3,97.3z"/>
				<path class="st6" d="M118.3,81L99.6,99.7c-0.1-0.8-0.2-1.6-0.2-2.4c0-9.1,7.4-16.5,16.5-16.5C116.7,80.8,117.5,80.9,118.3,81z"
					/>
				<path class="st6" d="M130.3,89.3l-22.4,22.4c-0.4-0.2-0.8-0.5-1.3-0.8L129.5,88C129.8,88.4,130,88.9,130.3,89.3z"/>
			</g>
		</g>
		<path class="st0" d="M140.6,46.4H91.1c8.9-23.7,20-40.6,24.8-40.6C120.7,5.8,131.7,22.7,140.6,46.4z"/>
		<g class="st7">
			<path d="M99.7,41.3c0,0.8-0.6,1.4-1.4,1.4s-1.4-0.6-1.4-1.4c0-0.8,0.6-1.4,1.4-1.4C99,39.9,99.7,40.5,99.7,41.3z"/>
			<path d="M108.5,41.3c0,0.8-0.6,1.4-1.4,1.4s-1.4-0.6-1.4-1.4c0-0.8,0.6-1.4,1.4-1.4C107.8,39.9,108.5,40.5,108.5,41.3z"/>
			<path d="M117.3,41.3c0,0.8-0.6,1.4-1.4,1.4s-1.4-0.6-1.4-1.4c0-0.8,0.6-1.4,1.4-1.4C116.6,39.9,117.3,40.5,117.3,41.3z"/>
			<path d="M126.1,41.3c0,0.8-0.6,1.4-1.4,1.4s-1.4-0.6-1.4-1.4c0-0.8,0.6-1.4,1.4-1.4C125.4,39.9,126.1,40.6,126.1,41.3z"/>
			<path d="M134.9,41.3c0,0.8-0.6,1.4-1.4,1.4c-0.8,0-1.4-0.6-1.4-1.4c0-0.8,0.6-1.4,1.4-1.4C134.2,39.9,134.9,40.6,134.9,41.3z"/>
		</g>
		<g>
			<path class="st0" d="M99.6,174.7c0,0.8-0.6,1.4-1.4,1.4s-1.4-0.6-1.4-1.4c0-0.8,0.6-1.4,1.4-1.4S99.6,173.9,99.6,174.7z"/>
			<path class="st0" d="M108.4,174.7c0,0.8-0.6,1.4-1.4,1.4s-1.4-0.6-1.4-1.4c0-0.8,0.6-1.4,1.4-1.4S108.4,173.9,108.4,174.7z"/>
			<path class="st0" d="M117.2,174.7c0,0.8-0.6,1.4-1.4,1.4s-1.4-0.6-1.4-1.4c0-0.8,0.6-1.4,1.4-1.4S117.2,173.9,117.2,174.7z"/>
			<path class="st0" d="M126,174.7c0,0.8-0.6,1.4-1.4,1.4s-1.4-0.6-1.4-1.4c0-0.8,0.6-1.4,1.4-1.4S126,173.9,126,174.7z"/>
			<path class="st0" d="M134.8,174.7c0,0.8-0.6,1.4-1.4,1.4c-0.8,0-1.4-0.6-1.4-1.4c0-0.8,0.6-1.4,1.4-1.4S134.8,173.9,134.8,174.7z
				"/>
		</g>
		<g>
			<polygon class="st0" points="132.5,193.4 99.1,193.4 97.5,181 134.1,181 			"/>
			<polygon class="st1" points="132.5,193.4 99.1,193.4 97.5,181 134.1,181 			"/>
			<polygon class="st1" points="134.1,181 133.4,187.1 98.1,185.7 97.5,181 			"/>
		</g>
	</g>
</g>
</svg>
