<?xml version="1.0" encoding="utf-8"?>
<!-- Generator: Adobe Illustrator 23.0.4, SVG Export Plug-In . SVG Version: 6.00 Build 0)  -->
<svg version="1.1" xmlns="http://www.w3.org/2000/svg" xmlns:xlink="http://www.w3.org/1999/xlink" x="0px" y="0px"
	 viewBox="0 0 750 500" style="enable-background:new 0 0 750 500;" xml:space="preserve">
<style type="text/css">
	.st0{fill:#EBEBEB;}
	.st1{fill:#DBDBDB;}
	.st2{fill:#C7C7C7;}
	.st3{fill:#263238;}
	.st4{fill:#FFFFFF;}
	.st5{fill:#455A64;}
	.st6{fill:#FFC727;}
	.st7{opacity:0.6;fill:#FFC727;}
	.st8{fill:#FCFCFC;}
	.st9{opacity:0.1;}
	.st10{fill:#D3766A;}
	.st11{fill:#37474F;}
	.st12{fill:#F291B8;}
	.st13{fill:#A6A6A6;}
</style>
<g id="Background_Complete">
	<g>
		<path class="st0" d="M134,111.9l-10.5-6.5l-2,3.2c-0.6,0.9-1.7,1.5-2.8,1.4c-0.6-0.1-1.2-0.1-1.9-0.1c-1.1,0-2.1-0.6-2.7-1.5
			l-1.8-3.3l-10.9,5.9l1.8,3.3c0.5,1,0.4,2.2-0.2,3.1c-0.4,0.5-0.7,1-1,1.6c-0.5,1-1.6,1.6-2.7,1.6l-3.8-0.1l-0.4,12.4l3.8,0.1
			c1.1,0,2.1,0.7,2.6,1.7c0.1,0.3,0.3,0.5,0.4,0.8c0.1,0.3,0.3,0.5,0.5,0.8c0.6,1,0.6,2.1,0,3.1l-2,3.2L111,149l2-3.2
			c0.6-0.9,1.7-1.5,2.8-1.4c0.6,0.1,1.2,0.1,1.8,0.1c1.1,0,2.1,0.6,2.7,1.5l1.8,3.3l10.9-5.9l-1.8-3.3c-0.5-1-0.4-2.2,0.2-3.1
			c0.4-0.5,0.7-1,1-1.6c0.5-1,1.6-1.6,2.7-1.6l3.8,0.1l0.4-12.4l-3.8-0.1c-1.1,0-2.1-0.7-2.6-1.7c-0.1-0.3-0.3-0.5-0.4-0.8
			c-0.1-0.3-0.3-0.5-0.5-0.8c-0.6-1-0.6-2.1,0-3.1L134,111.9z M126.2,122.4c2.6,4.9,0.8,11.1-4.1,13.7c-4.9,2.6-11.1,0.8-13.7-4.1
			c-2.6-4.9-0.8-11.1,4.2-13.8C117.4,115.6,123.5,117.5,126.2,122.4z"/>
		<path class="st0" d="M101.7,171.4l-4.3-7.5l-2.3,1.3c-0.7,0.4-1.5,0.4-2.2-0.1c-0.4-0.2-0.7-0.5-1.1-0.6c-0.7-0.4-1.1-1.1-1.1-1.8
			V160h-8.7v2.7c0,0.8-0.4,1.5-1.1,1.8c-0.4,0.2-0.8,0.4-1.1,0.6c-0.7,0.4-1.5,0.5-2.2,0.1l-2.3-1.3l-4.3,7.5l2.3,1.3
			c0.7,0.4,1.1,1.1,1,1.9c0,0.2,0,0.4,0,0.6c0,0.2,0,0.4,0,0.6c0,0.8-0.3,1.5-1,1.9l-2.3,1.3l4.3,7.5l2.3-1.3
			c0.7-0.4,1.5-0.4,2.2,0.1c0.4,0.2,0.7,0.5,1.1,0.6c0.7,0.4,1.1,1.1,1.1,1.8v2.7h8.7v-2.7c0-0.8,0.4-1.5,1.1-1.8
			c0.4-0.2,0.8-0.4,1.1-0.6c0.7-0.4,1.5-0.5,2.2-0.1l2.3,1.3l4.3-7.5l-2.3-1.3c-0.7-0.4-1-1.1-1-1.9c0-0.2,0-0.4,0-0.6
			c0-0.2,0-0.4,0-0.6c0-0.8,0.3-1.5,1-1.9L101.7,171.4z M93.4,175.3c0,3.9-3.2,7.1-7.1,7.1c-3.9,0-7.1-3.2-7.1-7.1s3.2-7.1,7.1-7.1
			C90.2,168.2,93.4,171.3,93.4,175.3z"/>
		<path class="st0" d="M652.7,224.9l-4.3-7.5l-2.3,1.3c-0.7,0.4-1.5,0.4-2.2-0.1c-0.4-0.2-0.7-0.5-1.1-0.6c-0.7-0.4-1.1-1.1-1.1-1.8
			v-2.7h-8.7v2.7c0,0.8-0.4,1.5-1.1,1.8c-0.4,0.2-0.8,0.4-1.1,0.6c-0.7,0.4-1.5,0.5-2.2,0.1l-2.3-1.3l-4.3,7.5l2.3,1.3
			c0.7,0.4,1.1,1.1,1,1.9c0,0.2,0,0.4,0,0.6c0,0.2,0,0.4,0,0.6c0,0.8-0.3,1.5-1,1.9l-2.3,1.3l4.3,7.5l2.3-1.3
			c0.7-0.4,1.5-0.4,2.2,0.1c0.4,0.2,0.7,0.5,1.1,0.6c0.7,0.4,1.1,1.1,1.1,1.8v2.7h8.7v-2.7c0-0.8,0.4-1.5,1.1-1.8
			c0.4-0.2,0.8-0.4,1.1-0.6c0.7-0.4,1.5-0.5,2.2-0.1l2.3,1.3l4.3-7.5l-2.3-1.3c-0.7-0.4-1-1.1-1-1.9c0-0.2,0-0.4,0-0.6
			c0-0.2,0-0.4,0-0.6c0-0.8,0.3-1.5,1-1.9L652.7,224.9z M644.4,228.8c0,3.9-3.2,7.1-7.1,7.1c-3.9,0-7.1-3.2-7.1-7.1s3.2-7.1,7.1-7.1
			C641.2,221.7,644.4,224.9,644.4,228.8z"/>
	</g>
	<g>
		<g id="aiZGp2_2_">
			<g>
				<path class="st0" d="M570.9,91.3c-2.7,6.8-4.2,13.8-4.6,21.1c-0.1,0-0.2,0-0.3,0c-6.1,0-12.1,0-18.2,0c-0.1,0-0.2,0-0.2,0v-0.5
					c0.1-0.5,0.1-1,0.2-1.4c0.2-2.5,0.6-4.9,1.2-7.4c1-4,2.4-7.8,4.1-11.5c0.1-0.2,0.2-0.3,0.4-0.3c5.7,0,11.3,0,17,0H570.9z"/>
				<path class="st0" d="M570.3,138.4h-0.3c-5.6,0-11.2,0-16.8,0c-0.2,0-0.3-0.1-0.4-0.3c-2-4.1-3.4-8.5-4.3-13
					c-0.4-2.2-0.7-4.4-0.8-6.6c0-0.1,0-0.1,0-0.2v-0.5c0.1,0,0.2,0,0.3,0c6,0,12,0,18.1,0c0.3,0,0.3,0,0.3,0.3
					c0.1,1.5,0.2,3,0.4,4.5c0.2,2.4,0.6,4.7,1.1,7.1c0.6,2.9,1.4,5.6,2.4,8.4C570.3,138.2,570.3,138.3,570.3,138.4z"/>
				<path class="st0" d="M642.4,143.8c-0.1,0.1-0.1,0.2-0.1,0.3c-1.4,2.2-3.1,4.3-4.9,6.3c-2.1,2.4-4.5,4.6-7.1,6.6
					c-2.5,1.9-5.2,3.6-8.1,5c-2.8,1.4-5.6,2.5-8.6,3.3c-2.3,0.7-4.7,1.2-7.1,1.5c-0.2,0-0.5,0.1-0.7,0.1h-0.4
					c-0.1-0.1-0.2-0.2-0.4-0.3c0.2-0.1,0.3-0.2,0.5-0.3c5.3-3.6,9.8-8,13.5-13.1c2.1-2.9,3.9-6,5.5-9.2c0.1-0.2,0.2-0.3,0.4-0.3
					c5.7,0,11.5,0,17.2,0H642.4z"/>
				<path class="st0" d="M625.3,112.4h-24.1v-21c0.1,0,0.2,0,0.3,0c6.2,0,12.3,0,18.5,0c0.2,0,0.3,0.1,0.4,0.2c1.7,4,3,8.1,3.8,12.3
					c0.4,2.2,0.7,4.4,0.9,6.7C625.2,111.2,625.2,111.7,625.3,112.4z"/>
				<path class="st0" d="M625.1,118c0,0.5,0,1-0.1,1.5c-0.1,1.2-0.2,2.3-0.4,3.5c-0.2,1.6-0.5,3.2-0.8,4.8
					c-0.7,3.5-1.8,6.9-3.1,10.3c-0.1,0.2-0.2,0.3-0.4,0.3c-6.3,0-12.6,0-19,0h-0.3V118H625.1z"/>
				<path class="st0" d="M595.8,91.5v21.1h-23.5c0-0.5,0.1-1.1,0.1-1.6c0.1-1.2,0.2-2.4,0.4-3.5c0.3-1.8,0.6-3.6,1-5.3
					c0.8-3.6,1.9-7,3.4-10.4c0.1-0.2,0.2-0.3,0.4-0.3c6,0,12,0,17.9,0H595.8z"/>
				<path class="st0" d="M595.8,118.3c0,6.6,0,13.2,0,19.8v0.3h-0.3c-6.2,0-12.3,0-18.5,0c-0.2,0-0.3-0.1-0.4-0.3
					c-1.4-3.4-2.5-7-3.2-10.6c-0.4-1.9-0.6-3.8-0.9-5.6c-0.2-1.2-0.2-2.5-0.3-3.7c0,0,0-0.1,0-0.1c0.1,0,0.2,0,0.3,0
					c7.7,0,15.3,0,23,0C595.8,118,595.8,118,595.8,118.3z"/>
				<path class="st0" d="M650.8,112.5h-19.7c-0.4-7.3-1.9-14.4-4.6-21.2h0.3c6,0,12.1,0,18.1,0c0.2,0,0.3,0.1,0.4,0.3
					c2.1,4.2,3.6,8.6,4.5,13.2c0.5,2.4,0.8,4.9,1,7.4C650.8,112.3,650.8,112.4,650.8,112.5z"/>
				<path class="st0" d="M650.8,117.8c0,0.5,0,0.9-0.1,1.4c-0.1,1.8-0.3,3.6-0.6,5.3c-0.7,4.1-2,8-3.6,11.8
					c-0.3,0.6-0.6,1.2-0.8,1.8c-0.1,0.1-0.1,0.2-0.3,0.2c-6,0-12.1,0-18.1,0c-0.1,0-0.1,0-0.2,0c0.2-0.6,0.4-1.2,0.6-1.9
					c1.1-3.1,1.9-6.3,2.4-9.6c0.4-2.4,0.7-4.8,0.8-7.2c0-0.6,0.1-1.1,0.1-1.7c0-0.2,0-0.2,0.2-0.2c0.1,0,0.1,0,0.2,0H650.8z"/>
				<path class="st0" d="M641.9,85.9C641.9,86,641.9,86,641.9,85.9l-0.3,0.1c-5.8,0-11.5,0-17.3,0c-0.2,0-0.3-0.1-0.4-0.2
					c-2.3-4.6-5.1-8.8-8.6-12.7c-2-2.2-4.2-4.2-6.6-6.1c-1.2-0.9-2.4-1.8-3.6-2.6c-0.1,0-0.1-0.1-0.2-0.2c0.1-0.1,0.2-0.1,0.2-0.2
					c0-0.1-0.1-0.2-0.1-0.4c6.1,0.7,12,2.4,17.4,5.2C630.4,73,637,78.6,641.9,85.9z"/>
				<path class="st0" d="M592.4,166.7c-0.2,0-0.4,0.1-0.5,0.1c-1.9-0.2-3.8-0.6-5.6-1.1c-3.5-0.9-6.8-2.1-10-3.7
					c-3.7-1.8-7.1-4.1-10.2-6.7c-2.2-1.9-4.3-3.9-6.1-6.1c-1.4-1.7-2.7-3.5-3.8-5.3c0,0,0-0.1-0.1-0.2h0.3c5.4,0,10.7,0,16.1,0
					c0.2,0,0.3,0.1,0.4,0.3c1.7,3.4,3.6,6.6,5.9,9.6c2.1,2.8,4.4,5.3,6.9,7.7c2.1,2,4.3,3.8,6.7,5.4
					C592.3,166.6,592.3,166.6,592.4,166.7z"/>
				<path class="st0" d="M592.2,64.2c-0.7,0.5-1.6,1.1-2.4,1.8c-2.8,2.2-5.4,4.6-7.8,7.2c-3.2,3.5-6,7.4-8.2,11.7
					c-0.1,0.3-0.3,0.5-0.4,0.8c0,0.1-0.2,0.1-0.2,0.2c-0.3,0-0.6,0-0.9,0h-15.7c8.8-12.4,20.5-19.8,35.5-22.1c0,0.1-0.1,0.1-0.1,0.2
					C592,64.1,592.2,64.2,592.2,64.2z"/>
				<path class="st0" d="M618.1,143.8c-2.2,3.9-4.9,7.5-8,10.8c-2.7,2.9-5.7,5.5-9.1,7.7v-18.5H618.1z"/>
				<path class="st0" d="M595.8,143.8v18.1c-6.9-4.8-12.3-10.8-16.3-18.1H595.8z"/>
				<path class="st0" d="M617.6,85.9h-16.4V68.6c3.4,2.2,6.4,4.8,9.2,7.7C613.1,79.2,615.5,82.4,617.6,85.9z"/>
				<path class="st0" d="M595.8,69.2V86h-15.7C584.1,79.2,589.2,73.5,595.8,69.2z"/>
			</g>
		</g>
	</g>
	<g>
		<g>
			<g>
				<path class="st1" d="M103.5,335.8c-2,14-14.1,24.7-28.6,24.7c-16,0-29-13-29-29c0-16,13-29,29-29v29L103.5,335.8z"/>
				<path class="st0" d="M109.8,325.6c0,1.4-0.1,2.9-0.3,4.2l-28.6-4.2v-29c10.7,0,20.1,5.9,25.1,14.6
					C108.4,315.5,109.8,320.4,109.8,325.6z"/>
			</g>
		</g>
		<g>
			<rect x="89.6" y="347.1" class="st2" width="30.8" height="1"/>
			<path class="st2" d="M122.5,350.2c-1.5,0-2.7-1.2-2.7-2.7c0-1.5,1.2-2.7,2.7-2.7c1.5,0,2.7,1.2,2.7,2.7
				C125.2,349,124,350.2,122.5,350.2z M122.5,345.9c-0.9,0-1.7,0.7-1.7,1.7c0,0.9,0.7,1.7,1.7,1.7c0.9,0,1.7-0.7,1.7-1.7
				C124.2,346.6,123.5,345.9,122.5,345.9z"/>
			<rect x="130.4" y="345.9" class="st2" width="23.9" height="1.1"/>
			<rect x="130.4" y="348.1" class="st2" width="13.5" height="1.1"/>
		</g>
	</g>
	<g>
		<g>
			<rect x="173.6" y="83" class="st0" width="9.4" height="67.1"/>
		</g>
		<g>
			<rect x="189.8" y="99.2" class="st0" width="9.4" height="50.9"/>
		</g>
		<g>
			<rect x="206" y="124.6" class="st0" width="9.4" height="25.4"/>
		</g>
		<g>
			<rect x="222.2" y="110.1" class="st0" width="9.4" height="40"/>
		</g>
		<g>
			<rect x="238.4" y="94.8" class="st0" width="9.4" height="55.2"/>
		</g>
		<g>
			<rect x="254.6" y="85.9" class="st0" width="9.4" height="64.2"/>
		</g>
		<g>
			<path class="st0" d="M168.1,74.4l0.1,18.9l0.1,18.9l0.1,37.8l-0.2-0.2c8.7,0,17.3,0,26,0l26,0.1l26,0.1l26,0.1l-26,0.1l-26,0.1
				l-26,0.1c-8.7,0-17.3,0-26,0l-0.2,0l0-0.2l0.1-37.8l0.1-18.9L168.1,74.4z"/>
			<path class="st0" d="M166.1,78.2c0.7-0.2,1.4-0.3,2.1-0.3c0.7,0,1.4,0.1,2.1,0.3c-0.7,0.2-1.4,0.3-2.1,0.3
				C167.4,78.5,166.8,78.4,166.1,78.2z"/>
			<path class="st0" d="M166.1,84c0.7-0.2,1.4-0.3,2.1-0.3c0.7,0,1.4,0.1,2.1,0.3c-0.7,0.2-1.4,0.3-2.1,0.3
				C167.4,84.2,166.8,84.2,166.1,84z"/>
			<path class="st0" d="M166.1,89.7c0.7-0.2,1.4-0.3,2.1-0.3c0.7,0,1.4,0.1,2.1,0.3c-0.7,0.2-1.4,0.3-2.1,0.3
				C167.4,90,166.8,89.9,166.1,89.7z"/>
			<path class="st0" d="M166.1,95.5c0.7-0.2,1.4-0.3,2.1-0.3c0.7,0,1.4,0.1,2.1,0.3c-0.7,0.2-1.4,0.3-2.1,0.3
				C167.4,95.7,166.8,95.7,166.1,95.5z"/>
			<path class="st0" d="M166.1,101.2c0.7-0.2,1.4-0.3,2.1-0.3c0.7,0,1.4,0.1,2.1,0.3c-0.7,0.2-1.4,0.3-2.1,0.3
				C167.4,101.5,166.8,101.4,166.1,101.2z"/>
			<path class="st0" d="M166.1,107c0.7-0.2,1.4-0.3,2.1-0.3c0.7,0,1.4,0.1,2.1,0.3c-0.7,0.2-1.4,0.3-2.1,0.3
				C167.4,107.2,166.8,107.2,166.1,107z"/>
			<path class="st0" d="M166.1,112.7c0.7-0.2,1.4-0.3,2.1-0.3c0.7,0,1.4,0.1,2.1,0.3c-0.7,0.2-1.4,0.3-2.1,0.3
				C167.4,113,166.8,112.9,166.1,112.7z"/>
			<path class="st0" d="M166.1,118.4c0.7-0.2,1.4-0.3,2.1-0.3c0.7,0,1.4,0.1,2.1,0.3c-0.7,0.2-1.4,0.3-2.1,0.3
				C167.4,118.7,166.8,118.7,166.1,118.4z"/>
			<path class="st0" d="M166.1,124.2c0.7-0.2,1.4-0.3,2.1-0.3c0.7,0,1.4,0.1,2.1,0.3c-0.7,0.2-1.4,0.3-2.1,0.3
				C167.4,124.5,166.8,124.4,166.1,124.2z"/>
			<path class="st0" d="M166.1,129.9c0.7-0.2,1.4-0.3,2.1-0.3c0.7,0,1.4,0.1,2.1,0.3c-0.7,0.2-1.4,0.3-2.1,0.3
				C167.4,130.2,166.8,130.2,166.1,129.9z"/>
			<path class="st0" d="M166.1,135.7c0.7-0.2,1.4-0.3,2.1-0.3c0.7,0,1.4,0.1,2.1,0.3c-0.7,0.2-1.4,0.3-2.1,0.3
				C167.4,135.9,166.8,135.9,166.1,135.7z"/>
			<path class="st0" d="M166.1,141.4c0.7-0.2,1.4-0.3,2.1-0.3c0.7,0,1.4,0.1,2.1,0.3c-0.7,0.2-1.4,0.3-2.1,0.3
				C167.4,141.7,166.8,141.6,166.1,141.4z"/>
		</g>
	</g>
</g>
<g id="Shadow">
	<ellipse class="st0" cx="158.5" cy="450.5" rx="110.7" ry="16.8"/>
</g>
<g id="Floor">
	<polygon class="st3" points="46.5,390.5 128.7,390.3 210.8,390.2 375,390 539.2,390.2 621.3,390.3 703.5,390.5 621.3,390.7 
		539.2,390.8 375,391 210.8,390.8 128.7,390.7 	"/>
</g>
<g id="Device">
	<g>
		<rect x="212.3" y="140.2" class="st1" width="381.7" height="255.4"/>
		<rect x="215.1" y="143.3" class="st3" width="376.2" height="249.1"/>
		<g>
			<rect x="162.6" y="414.7" class="st2" width="481.2" height="17.5"/>
			<polygon class="st1" points="162.6,414.7 212.3,395.6 594.1,395.6 643.8,414.7 			"/>
			<polygon class="st3" points="216.8,407.9 248.8,395.6 557.5,395.6 589.6,407.9 			"/>
		</g>
		<g>
			<rect x="236.4" y="162.3" class="st4" width="333.7" height="211.3"/>
			<g>
				<rect x="236.1" y="162.3" class="st5" width="334" height="8.1"/>
				<g>
					<circle class="st2" cx="240.5" cy="166.3" r="2"/>
					<circle class="st4" cx="248.8" cy="166.3" r="2"/>
					<circle class="st6" cx="257" cy="166.3" r="2"/>
				</g>
			</g>
		</g>
	</g>
	<g>
		<g>
			<rect x="251.2" y="299.3" class="st0" width="50.7" height="34.7"/>
			<path class="st4" d="M251.2,301.9c2.2,1.2,4.3,2.5,6.5,3.8c2.1,1.3,4.3,2.6,6.4,3.9c4.3,2.6,8.5,5.3,12.7,7.9h-0.6
				c4.2-2.7,8.5-5.3,12.7-7.9c2.1-1.3,4.3-2.6,6.4-3.9c2.2-1.3,4.3-2.6,6.5-3.8c-2,1.4-4.1,2.8-6.2,4.2c-2.1,1.4-4.2,2.8-6.3,4.1
				c-4.2,2.7-8.4,5.4-12.6,8.1l-0.3,0.2l-0.3-0.2c-4.2-2.7-8.4-5.4-12.6-8.1c-2.1-1.4-4.2-2.8-6.3-4.1
				C255.3,304.7,253.2,303.3,251.2,301.9z"/>
			<path class="st4" d="M251.3,327.9c1.5-1.3,3.1-2.6,4.8-3.8c1.6-1.2,3.3-2.4,4.9-3.6c1.7-1.2,3.3-2.3,5.1-3.4
				c1.7-1.1,3.4-2.2,5.2-3.1c-1.5,1.3-3.1,2.6-4.8,3.8c-1.6,1.2-3.3,2.4-4.9,3.6c-1.7,1.2-3.3,2.3-5.1,3.4
				C254.8,325.8,253.1,326.9,251.3,327.9z"/>
			<path class="st4" d="M301.7,327.9c-1.8-1-3.5-2.1-5.2-3.2c-1.7-1.1-3.4-2.2-5.1-3.4c-1.7-1.2-3.3-2.4-4.9-3.6
				c-1.6-1.2-3.2-2.5-4.8-3.8c1.8,1,3.5,2.1,5.2,3.1c1.7,1.1,3.4,2.2,5.1,3.4c1.7,1.2,3.3,2.4,4.9,3.6
				C298.6,325.3,300.2,326.5,301.7,327.9z"/>
		</g>
		<g>
			<polygon class="st3" points="305.1,341.9 308.3,349.7 305.1,351 301.8,343.2 296.5,347.3 296.5,325.4 311.9,340.9 			"/>
			<g>
				<path class="st3" d="M296.5,323c-0.2-0.4-0.2-0.7-0.2-1.1c0-0.4,0-0.7,0.2-1.1c0.2,0.4,0.2,0.7,0.2,1.1
					C296.7,322.2,296.7,322.6,296.5,323z"/>
				<path class="st3" d="M294.6,323.8c-0.4-0.2-0.7-0.4-0.9-0.6c-0.3-0.3-0.5-0.5-0.6-0.9c0.4,0.2,0.7,0.4,0.9,0.6
					C294.2,323.1,294.5,323.4,294.6,323.8z"/>
				<path class="st3" d="M293.8,325.7c-0.4,0.2-0.7,0.2-1.1,0.2c-0.4,0-0.7,0-1.1-0.2c0.4-0.2,0.7-0.2,1.1-0.2
					C293.1,325.5,293.5,325.5,293.8,325.7z"/>
				<path class="st3" d="M294.6,327.6c-0.2,0.4-0.4,0.7-0.6,0.9c-0.3,0.3-0.5,0.5-0.9,0.6c0.2-0.4,0.4-0.7,0.6-0.9
					C294,327.9,294.3,327.7,294.6,327.6z"/>
				<path class="st3" d="M299.2,325.7c0.4-0.2,0.7-0.2,1.1-0.2c0.4,0,0.7,0,1.1,0.2c-0.4,0.2-0.7,0.2-1.1,0.2
					C299.9,325.9,299.6,325.8,299.2,325.7z"/>
				<path class="st3" d="M298.4,323.8c0.2-0.4,0.4-0.7,0.6-0.9c0.3-0.3,0.5-0.5,0.9-0.6c-0.2,0.4-0.4,0.7-0.6,0.9
					C299.1,323.4,298.8,323.6,298.4,323.8z"/>
			</g>
		</g>
		<g>
			<g>
				<polygon class="st0" points="450.9,348.1 413.2,338.4 425.6,290 453.6,297.2 460.9,308.9 				"/>
				<polygon class="st1" points="453.6,297.2 460.9,308.9 451.2,306.4 				"/>
				<g>
					
						<rect x="426.7" y="301.8" transform="matrix(-0.9686 -0.2487 0.2487 -0.9686 786.1029 704.1151)" class="st1" width="21.6" height="1.3"/>
				</g>
				<g>
					
						<rect x="425.9" y="304.9" transform="matrix(-0.9686 -0.2487 0.2487 -0.9686 783.7373 710.0894)" class="st1" width="21.6" height="1.3"/>
				</g>
				<g>
					
						<rect x="425.1" y="308" transform="matrix(-0.9686 -0.2487 0.2487 -0.9686 781.3717 716.0636)" class="st1" width="21.6" height="1.3"/>
				</g>
				<g>
					
						<rect x="424.1" y="312.4" transform="matrix(-0.9686 -0.2487 0.2487 -0.9686 788.2917 725.7147)" class="st1" width="31.7" height="1.3"/>
				</g>
				<g>
					
						<rect x="423.3" y="315.6" transform="matrix(-0.9686 -0.2487 0.2487 -0.9686 785.9261 731.6891)" class="st1" width="31.7" height="1.3"/>
				</g>
				<g>
					
						<rect x="422.5" y="318.7" transform="matrix(-0.9686 -0.2487 0.2487 -0.9686 783.5602 737.6636)" class="st1" width="31.7" height="1.3"/>
				</g>
				<g>
					
						<rect x="421.7" y="321.8" transform="matrix(-0.9686 -0.2487 0.2487 -0.9686 781.1947 743.6378)" class="st1" width="31.7" height="1.3"/>
				</g>
				<g>
					
						<rect x="420.9" y="325" transform="matrix(-0.9686 -0.2487 0.2487 -0.9686 778.8296 749.6118)" class="st1" width="31.7" height="1.3"/>
				</g>
				<g>
					
						<rect x="420.1" y="328.1" transform="matrix(-0.9686 -0.2487 0.2487 -0.9686 776.4653 755.5851)" class="st1" width="31.7" height="1.3"/>
				</g>
				<g>
					
						<rect x="419.3" y="331.2" transform="matrix(-0.9686 -0.2487 0.2487 -0.9686 774.0984 761.5604)" class="st1" width="31.7" height="1.3"/>
				</g>
				<g>
					
						<rect x="418.5" y="334.4" transform="matrix(-0.9686 -0.2487 0.2487 -0.9686 771.7328 767.5346)" class="st1" width="31.7" height="1.3"/>
				</g>
				<g>
					
						<rect x="417.7" y="337.5" transform="matrix(-0.9686 -0.2487 0.2487 -0.9686 769.3673 773.5089)" class="st1" width="31.7" height="1.3"/>
				</g>
			</g>
		</g>
		<g>
			<g>
				<polygon class="st0" points="334.5,279.8 383.2,281.6 384.4,249 335.7,247.2 				"/>
				<polygon class="st4" points="336.6,277.8 381.3,279.5 382.3,251 337.6,249.3 				"/>
				<path class="st1" d="M341.4,258.4c-0.1,2.7,2,4.9,4.7,5c2.7,0.1,4.9-2,5-4.7c0.1-2.7-2-4.9-4.7-5
					C343.7,253.6,341.5,255.7,341.4,258.4z"/>
				<polygon class="st1" points="350.5,278.4 381.2,279.5 366.6,258.1 				"/>
				<polygon class="st0" points="338.4,278 363.8,278.9 351.6,264.9 				"/>
			</g>
		</g>
		<g>
			<g>
				<polygon class="st0" points="316.1,303 363.8,293 357.1,261.1 309.4,271.1 				"/>
				<polygon class="st4" points="317.7,300.6 361.4,291.4 355.6,263.5 311.8,272.6 				"/>
				<path class="st1" d="M317.6,280.5c0.5,2.6,3.1,4.3,5.8,3.8c2.6-0.5,4.3-3.1,3.8-5.8c-0.5-2.6-3.1-4.3-5.8-3.8
					C318.8,275.3,317.1,277.9,317.6,280.5z"/>
				<polygon class="st1" points="331.3,297.8 361.4,291.5 342.1,274.2 				"/>
				<polygon class="st0" points="319.5,300.3 344.3,295.1 329.1,284.4 				"/>
			</g>
		</g>
	</g>
</g>
<g id="Plant">
	<g>
		<g>
			<g>
				<path class="st6" d="M651.5,300.9c7.5-15.5,20.7-23.4,35.6-19c14.9,4.4,17.2,25.1,6.1,30.3c-11.1,5.2-22.2-10-28-13.2
					C659.2,295.9,651.5,300.9,651.5,300.9z"/>
				<path class="st3" d="M644.2,342.2c0-1.9,0.1-3.7,0.2-5.6c0.1-3.7,0.3-7.5,0.4-11.2c0.3-6.8,1-13.5,3.8-19.8
					c2.5-5.6,6.6-10.6,12-13.8c2-1.2,4.1-2.1,6.3-2.7c1.8-2.1,4.7-3.4,7.3-4c3.4-0.8,7-0.7,10.5-0.3c0.1,0,0.1,0.2,0,0.2
					c-3.3-0.4-6.7-0.2-9.9,0.7c-1.4,0.4-2.7,0.9-4,1.5c-0.8,0.4-1.6,0.9-2.3,1.5c3-0.6,6-0.6,9.1,0.1c1.1,0.3,2.1,0.6,3.2,1
					c0.8-0.2,1.7-0.2,2.5-0.2c1.1,0,2.2,0.2,3.2,0.5c2.2,0.5,4.2,1.6,6.1,2.7c0.1,0.1,0,0.2-0.1,0.2c-1.9-1-3.9-1.8-6-2.2
					c-1-0.2-2-0.4-3.1-0.4c-0.6,0-1.1,0-1.7,0c4.2,2,7.7,5.3,9.6,9.6c0.1,0.1-0.1,0.2-0.2,0.1c-2.2-5-7-8.5-12.2-9.8
					c-0.3-0.1-0.7-0.1-1-0.2c0.1,0.5,0.1,1,0.2,1.5c0.1,0.8,0.2,1.5,0.4,2.2c0.3,1.5,0.7,3.1,1.2,4.5c0.5,1.5,1.1,3,1.8,4.4
					c0.7,1.4,1.5,3,2.5,4.2c0.1,0.1-0.1,0.2-0.2,0.1c-0.9-1.4-1.9-2.7-2.7-4.1c-0.8-1.4-1.5-2.8-2-4.3c-0.6-1.5-1-3.1-1.3-4.6
					c-0.2-0.8-0.3-1.7-0.4-2.5c-0.1-0.5-0.2-1-0.1-1.5c-1.7-0.3-3.5-0.3-5.3-0.1c0.7,3.7,1.4,7.5,3.4,10.8c0.1,0.1-0.1,0.2-0.2,0.1
					c-0.9-1.7-1.9-3.4-2.6-5.3c-0.6-1.8-1.1-3.6-1.3-5.5c-3.1,0.4-6.1,1.4-8.7,2.9c-5.1,2.9-9,7.4-11.6,12.7
					c-2.8,5.7-3.9,11.9-4.3,18.2c-0.5,7.9-0.6,15.9-1.4,23.8c-0.1,0.5-0.9,0.7-1,0.1C644,345.7,644.1,343.9,644.2,342.2z"/>
				<path class="st3" d="M661.6,290.6c0.4-0.6,1.1-1.1,1.7-1.6c0.6-0.5,1.2-1,1.9-1.5c1.3-0.9,2.7-1.6,4.3-2c0.1,0,0.2,0.2,0,0.2
					c-1.5,0.3-3,1.1-4.2,2.1c-0.6,0.5-1.2,1-1.8,1.5c-0.5,0.5-1.1,1.1-1.7,1.5C661.6,290.8,661.5,290.7,661.6,290.6z"/>
				<path class="st3" d="M685.6,296.2c1.2,1.5,2.4,3,3.5,4.6c1,1.6,1.9,3.3,2.6,5.1c0,0.1-0.1,0.1-0.1,0c-1.8-3.3-3.7-6.7-6.1-9.6
					C685.4,296.2,685.5,296.1,685.6,296.2z"/>
				<path class="st3" d="M669.4,294.6c0.2,1,0.4,1.9,0.9,2.8c0.4,0.9,0.9,1.7,1.4,2.5c0,0.1,0,0.1-0.1,0.1c-1.3-1.4-2.1-3.4-2.4-5.3
					C669.2,294.6,669.4,294.5,669.4,294.6z"/>
			</g>
			<g>
				<path class="st6" d="M645.2,301.3c0,0-10.7-13.4-31.3-8.7c-19.6,4.5-28.6,40.4-8.8,44.7c19.8,4.3,16.3-28.9,23.5-34.6
					C633.9,298.7,641.5,299.6,645.2,301.3z"/>
				<path class="st3" d="M598.1,312.3c1.4-1.2,2.7-2.3,4.2-3.3c1.4-0.9,2.9-1.8,4.5-2.3c0.8-1.2,1.7-2.4,2.7-3.5
					c1.8-2,3.9-3.6,6.2-5c-0.2,0-0.4,0-0.6,0c-1.1,0-2.2,0-3.3,0c-2.2,0.2-4.3,0.7-6.4,1.6c-0.1,0.1-0.2-0.1-0.1-0.2
					c2-0.9,4.2-1.5,6.3-1.9c1.1-0.2,2.1-0.3,3.2-0.3c0.6,0,1.2,0,1.7,0.1c0.1,0,0.2,0,0.3,0c1.9-1,3.9-1.7,5.9-2.2
					c-0.2-0.1-0.4-0.1-0.6-0.2c-1-0.2-2-0.4-3.1-0.5c-2.1-0.2-4.1-0.2-6.2,0.1c-0.1,0-0.2-0.2,0-0.2c2.1-0.3,4.2-0.3,6.2-0.3
					c1.7,0.1,3.5,0.3,5.2,0.7c1.2-0.2,2.5-0.4,3.8-0.4c7.2-0.3,15,2.4,19.4,8.3c4.4,5.9,5.3,13.8,6.1,20.9c1.1,9.9,1.6,20,0.8,29.9
					c0,0.6-0.9,0.5-0.9-0.1c-0.3-8.5-0.6-16.9-1.4-25.4c-0.4-3.9-0.8-7.8-1.4-11.7c-0.6-3.3-1.3-6.6-2.8-9.6
					c-1.6-3.2-3.9-5.7-6.9-7.5c-3-1.8-6.4-2.7-9.8-3c-3.1-0.3-6.2,0.1-9.2,0.9c0.1,0.6,0.1,1.2,0.1,1.8c-0.1,0.8-0.2,1.5-0.5,2.2
					c-0.2,0.7-0.5,1.4-0.9,2c-0.4,0.7-0.9,1.3-1.3,2c-0.1,0.1-0.2,0-0.2-0.1c0.9-1.1,1.3-2.7,1.6-4.1c0.1-0.7,0.2-1.4,0.2-2.1
					c0-0.5,0-1.1,0-1.6c-3.2,1-6.3,2.6-9,4.7c-0.5,0.4-1,0.8-1.5,1.3c0.7,0.6,1.3,1.4,1.7,2.1c0.7,1,1.3,2.1,1.8,3.3
					c1,2.3,1.5,4.7,1.9,7.2c0,0.1-0.2,0.2-0.2,0c-0.3-2.4-1.2-4.6-2.3-6.8c-0.5-1-1.2-2.1-1.8-3c-0.3-0.5-0.7-1-1.1-1.5
					c-0.2-0.3-0.4-0.5-0.6-0.8c-2.4,2.4-4.4,5.2-5.8,8.2c0,0,0,0,0,0c1,0.9,1.7,2.3,2.4,3.5c0.7,1.3,1.4,2.7,1.9,4.1
					c1.1,2.7,1.8,5.6,2.5,8.4c0,0.1-0.2,0.2-0.2,0c-0.6-2.9-1.7-5.6-2.9-8.3c-0.6-1.3-1.3-2.6-1.9-3.8c-0.6-1.2-1.4-2.3-1.9-3.6
					c-1.4,3-2.2,6.2-2.3,9.5c0,0.1-0.2,0.1-0.2,0c0.4-5.1,1.9-10.2,4.6-14.6c-1.3,0.5-2.5,1.1-3.7,1.7c-1.5,0.8-3,1.8-4.3,3
					C598.1,312.5,598,312.3,598.1,312.3z"/>
				<path class="st3" d="M613.2,313c0.6,2,1.4,4,2,6.1c0.5,2,0.9,4,0.9,6.1c0,0.1-0.1,0.1-0.1,0c-0.6-4.1-1.5-8.2-3-12.1
					C612.9,312.9,613.1,312.9,613.2,313z"/>
				<path class="st3" d="M600.1,308c0.8-0.8,1.7-1.4,2.7-1.9c1-0.5,2.1-0.8,3.2-1.1c0.1,0,0.2,0.2,0,0.2c-1.1,0.2-2.1,0.7-3,1.3
					C602,306.9,601.1,307.4,600.1,308C600.1,308.1,600.1,308,600.1,308z"/>
			</g>
			<g>
				<path class="st6" d="M635.1,283.4c0,0-2-24.1-19.9-31.9c-15-6.5-23.5,10.3-12.9,20.6C610.8,280.4,624.5,276.6,635.1,283.4z"/>
				<path class="st3" d="M605.6,256.2c2.7,1.2,5.4,2.3,8,3.8c2.1,1.2,4.2,2.6,6.2,4.1c-0.3-0.6-0.6-1.2-0.9-1.8
					c-0.5-0.9-1-1.8-1.5-2.7c-1.1-1.8-2.4-3.5-3.9-5c-0.1-0.1,0.1-0.2,0.1-0.1c1.5,1.5,2.9,3.1,4.2,4.8c0.6,0.9,1.2,1.8,1.7,2.7
					c0.5,0.9,1,1.8,1.2,2.8c0.1,0.1,0.1,0.1,0.2,0.1c3.1,2.5,6,5.3,8.6,8.4c0-0.2-0.1-0.5-0.2-0.7c-0.3-1.2-0.7-2.3-1.1-3.5
					c-0.8-2.4-1.8-4.9-3.2-7c-0.1-0.1,0.1-0.2,0.2-0.1c1.4,2.2,2.7,4.4,3.7,6.9c0.5,1.2,0.9,2.3,1.2,3.6c0.2,0.7,0.5,1.6,0.6,2.4
					c0.8,1,1.5,2,2.3,3c7.7,10.9,11.5,24.2,12.5,37.4c0.3,4,0.3,7.9,0.2,11.9c-0.1,4-0.3,8-1,11.9c0,0.2-0.4,0.2-0.4-0.1
					c0.1-3.5,0.4-6.9,0.5-10.4c0.1-3.5-0.1-7-0.3-10.5c-0.6-6.9-1.9-13.9-3.9-20.5c-2.1-6.8-5.1-13.3-9.1-19.3
					c-0.8-0.1-1.5-0.4-2.2-0.5c-0.9-0.2-1.8-0.5-2.7-0.7c-1.7-0.5-3.4-1-5-1.8c-0.1-0.1,0-0.2,0.1-0.2c1.6,0.9,3.3,1.4,5.1,1.7
					c1.4,0.3,2.9,0.5,4.3,0.8c-1.3-1.9-2.7-3.7-4.2-5.5c-3.4,0.3-6.9,0-10.2-0.8c-1.8-0.4-3.5-1-5.2-1.6c-1.8-0.7-3.5-1.6-5.3-2.3
					c-0.1-0.1,0-0.3,0.1-0.2c3,1.8,6.9,2.8,10.3,3.4c3.2,0.5,6.4,0.7,9.7,0.8c-1.3-1.5-2.6-2.9-4-4.2c-4.7-4.5-10.3-8.6-16.5-10.7
					C605.4,256.3,605.5,256.1,605.6,256.2z"/>
				<path class="st3" d="M620.1,256.3c0.8,1,1.5,2.1,2.2,3.2c0.7,1.2,1.2,2.4,1.6,3.7c0,0-0.1,0.1-0.1,0c-0.6-1.2-1.1-2.4-1.7-3.6
					c-0.6-1.2-1.3-2.2-2.1-3.3C619.9,256.3,620.1,256.2,620.1,256.3z"/>
				<path class="st3" d="M603.5,264.3c1.2,0.7,2.4,1.1,3.7,1.5c1.2,0.4,2.5,0.8,3.7,1c0.1,0,0,0.1,0,0.1c-1.3-0.2-2.6-0.4-3.9-0.8
					c-1.2-0.4-2.4-1-3.6-1.6C603.3,264.4,603.4,264.2,603.5,264.3z"/>
			</g>
			<g>
				<path class="st6" d="M649,279.1c0.1,1,2.7-8.7,17.9-17.4c13.8-7.9,30.2-28.4,16.7-41.4C672.7,209.8,644,232.6,649,279.1z"/>
				<path class="st3" d="M638.6,335.2c0.2-10.2,1-20.4,2.4-30.4c1.3-9.3,3.3-18.4,6.4-27.3c1.1-3.2,2.4-6.3,3.8-9.4
					c-0.1-1.2,0-2.5,0.1-3.6c0.1-1.5,0.2-3.1,0.4-4.6c0.1-1.5,0.3-3.1,0.5-4.6c0.2-1.5,0.5-3.1,0.6-4.6c0-0.1,0.2-0.1,0.2,0
					c-0.4,1.6-0.4,3.3-0.5,4.9c-0.1,1.5-0.2,3-0.2,4.5c0,1.5,0,3,0,4.5c0,0.5,0,1.1,0,1.7c1.4-3,3-6,4.6-8.9c-1-6.3,0.3-12.8,1.6-19
					c0-0.1,0.2-0.1,0.2,0.1c-0.7,3.2-0.9,6.5-1,9.7c-0.1,2.6,0.1,5.2,0.1,7.7c0.4-0.6,0.7-1.2,1.1-1.8c2-3.2,4.1-6.3,6.3-9.4
					c-0.2-1.5-0.1-3,0.1-4.5c0.2-1.6,0.6-3.3,1.1-4.9c0.5-1.6,1-3.2,1.7-4.7c0.7-1.6,1.5-3.1,2.2-4.7c0.1-0.1,0.3,0,0.2,0.1
					c-0.9,1.4-1.4,3.2-1.9,4.8c-0.5,1.5-0.9,3.1-1.2,4.7c-0.3,1.6-0.6,3.2-0.8,4.8c-0.1,1.1-0.2,2.2-0.4,3.2
					c3.3-4.3,6.8-8.5,10.6-12.3c0.1-0.1,0.2,0,0.1,0.1c-5.7,6.5-10.9,13.5-15.4,20.9c-0.2,0.3-0.3,0.6-0.5,0.8
					c0.8-0.5,1.8-0.9,2.6-1.4c1.5-0.8,2.9-1.6,4.4-2.4c1.4-0.8,2.9-1.6,4.3-2.3c0.7-0.4,1.5-0.8,2.2-1.2c0.8-0.4,1.8-0.8,2.6-1.4
					c0.1-0.1,0.2,0.1,0.1,0.2c-1.5,0.8-2.7,2-4.2,2.9c-1.4,0.9-2.9,1.8-4.3,2.6c-2.7,1.5-5.6,2.6-8.3,4.1c-1.8,3.2-3.5,6.5-5.1,9.9
					c1.6-1,3.3-2,4.9-2.9c1.1-0.6,2.1-1.2,3.2-1.8c1.1-0.6,2.1-1.1,3-1.8c0.1-0.1,0.2,0.1,0.1,0.1c-1.7,1.7-3.8,2.8-5.8,4
					c-1.9,1.1-3.9,2.2-5.9,3.2c-1.6,3.5-3.1,7.2-4.4,10.8c-6.4,18-8.7,37.2-9.8,56.2c-0.3,5.7-0.5,11.3-0.6,17
					c-0.1,5.7,0.2,11.3,0.2,17c0,0.2-0.3,0.2-0.3,0c-0.7-5-0.8-10.1-1-15.2C638.5,345.5,638.5,340.3,638.6,335.2z"/>
				<path class="st3" d="M666.1,253.5c2.8-1.1,5.4-2.7,8-4.2c2.6-1.5,5.2-3.1,7.6-4.9c0,0,0.1,0,0.1,0.1c-2.3,1.9-4.8,3.6-7.3,5.1
					c-2.7,1.6-5.5,2.7-8.3,4C666.1,253.7,666,253.5,666.1,253.5z"/>
				<path class="st3" d="M661.7,233.1c0.2-0.9,0.5-1.7,0.8-2.6c0,0-0.1-0.1,0-0.1c0.2-0.5,0.4-1,0.6-1.5c0-0.1,0-0.1,0.1-0.2
					c0-0.1,0.1-0.2,0.1-0.3c0,0,0.1,0,0,0c-0.1,0.2-0.1,0.3-0.1,0.5c0,0.1,0,0.2-0.1,0.3c-1,3.4-1.7,6.8-2.2,10.3
					c0,0.1-0.2,0.1-0.2,0C660.8,237.4,661.2,235.2,661.7,233.1z"/>
			</g>
		</g>
		<g>
			<g>
				<polygon class="st5" points="622.6,338.8 623.7,351.6 627,390.7 662.4,390.7 665.7,351.6 666.8,338.8 				"/>
				<polygon class="st3" points="622.6,338.8 623.7,351.6 665.7,351.6 666.8,338.8 				"/>
			</g>
			
				<rect x="619.1" y="333.7" transform="matrix(-1 -1.224647e-16 1.224647e-16 -1 1289.368 679.6836)" class="st5" width="51.2" height="12.3"/>
		</g>
	</g>
</g>
<g id="Arrows">
	<g>
		<g>
			<rect x="465.8" y="300.3" class="st6" width="16.1" height="62.9"/>
			<rect x="465.8" y="366.3" class="st6" width="16.1" height="10.4"/>
			<rect x="465.8" y="379.8" class="st6" width="16.1" height="6.4"/>
			<rect x="465.8" y="389.3" class="st6" width="16.1" height="3.2"/>
			<polygon class="st6" points="487.3,300.3 460.4,300.3 473.9,281.7 			"/>
		</g>
		<g>
			<rect x="497.9" y="280.3" class="st6" width="16.1" height="82.9"/>
			<rect x="497.9" y="366.3" class="st6" width="16.1" height="10.4"/>
			<rect x="497.9" y="379.8" class="st6" width="16.1" height="6.4"/>
			<rect x="497.9" y="389.3" class="st6" width="16.1" height="3.2"/>
			<polygon class="st6" points="519.4,280.3 492.5,280.3 506,261.7 			"/>
		</g>
		<g>
			<rect x="530" y="260.3" class="st6" width="16.1" height="102.9"/>
			<rect x="530" y="366.3" class="st6" width="16.1" height="10.4"/>
			<rect x="530" y="379.8" class="st6" width="16.1" height="6.4"/>
			<rect x="530" y="389.3" class="st6" width="16.1" height="3.2"/>
			<polygon class="st6" points="551.5,260.3 524.6,260.3 538.1,241.7 			"/>
		</g>
		<g>
			<rect x="562.1" y="240.3" class="st6" width="16.1" height="122.9"/>
			<rect x="562.1" y="366.3" class="st6" width="16.1" height="10.4"/>
			<rect x="562.1" y="379.8" class="st6" width="16.1" height="6.4"/>
			<rect x="562.1" y="389.3" class="st6" width="16.1" height="3.2"/>
			<polygon class="st6" points="583.6,240.3 556.7,240.3 570.2,221.7 			"/>
		</g>
	</g>
</g>
<g id="Rocket">
	<g>
		<g>
			<path class="st7" d="M308.9,350.1c0,3.9-3.2,7.1-7.1,7.1s-7.1-3.2-7.1-7.1c0-3.9,3.2-7.1,7.1-7.1S308.9,346.2,308.9,350.1z"/>
			<path class="st7" d="M317.5,336.6c0,1.9-1.5,3.5-3.5,3.5c-1.9,0-3.5-1.5-3.5-3.5c0-1.9,1.5-3.5,3.5-3.5
				C315.9,333.1,317.5,334.7,317.5,336.6z"/>
			<path class="st7" d="M469.2,346.7c0,1.9-1.5,3.5-3.5,3.5c-1.9,0-3.5-1.5-3.5-3.5c0-1.9,1.5-3.5,3.5-3.5
				C467.7,343.2,469.2,344.8,469.2,346.7z"/>
			<path class="st7" d="M538.5,378.2c0,1.9-1.5,3.5-3.5,3.5s-3.5-1.5-3.5-3.5c0-1.9,1.5-3.5,3.5-3.5S538.5,376.3,538.5,378.2z"/>
			<path class="st7" d="M533.2,388.3c0,2.3-1.8,4.1-4.1,4.1H272c-2.3,0-4.1-1.8-4.1-4.1s1.8-4.1,4.1-4.1c0.3,0,0.7,0,1,0.1
				c0-4.5,3.6-8.1,8.1-8.1c2.3,0,4.3,0.9,5.8,2.4l0.1,0c0-0.5-0.1-1-0.1-1.5c0-8.5,6.9-15.3,15.3-15.3c2.4,0,4.7,0.6,6.8,1.6
				c0.3-5.8,5.1-10.3,10.9-10.3c4.7,0,8.6,2.9,10.2,7c2.7-4.3,7.5-7.2,13-7.2c1,0,2,0.1,2.9,0.3c-0.2-1.2-0.3-2.4-0.3-3.6
				c0-11.5,9.3-20.8,20.8-20.8c5.2,0,9.9,1.9,13.6,5c0.7-1.3,2.1-2.2,3.7-2.2c0.6,0,1.1,0.1,1.6,0.3l3.9-103.1h22.6l3.9,103.1
				c0.5-0.2,1-0.3,1.6-0.3c1.6,0,3,0.9,3.7,2.2c3.6-3.1,8.4-5,13.6-5c11.5,0,20.8,9.3,20.8,20.8c0,1.2-0.1,2.4-0.3,3.6
				c0.9-0.2,1.9-0.3,2.9-0.3c5.5,0,10.3,2.9,13,7.2c1.6-4.1,5.6-7,10.2-7c5.8,0,10.6,4.6,10.9,10.3c2-1,4.3-1.6,6.8-1.6
				c8.5,0,15.3,6.9,15.3,15.3c0,0.5,0,1-0.1,1.5l0.1,0c1.5-1.5,3.5-2.4,5.8-2.4c4.5,0,8.1,3.6,8.1,8.1c0.3-0.1,0.6-0.1,1-0.1
				C531.3,384.2,533.2,386.1,533.2,388.3z"/>
		</g>
		<g>
			<polygon class="st8" points="468,354.4 462.7,355.4 461.5,361 460.3,355.4 454.9,354.4 460.3,353.1 461.5,347.8 462.7,353.1 			
				"/>
			<polygon class="st8" points="416,309.2 410.7,310.2 409.5,315.9 408.3,310.2 402.9,309.2 408.3,307.9 409.5,302.6 410.7,307.9 
							"/>
			<polygon class="st8" points="338.3,365.1 335.4,365.7 334.7,368.8 334,365.7 331,365.1 334,364.4 334.7,361.4 335.4,364.4 			"/>
			<polygon class="st8" points="499.1,374.5 496.1,375.1 495.4,378.2 494.8,375.1 491.8,374.5 494.8,373.8 495.4,370.8 496.1,373.8 
							"/>
			<polygon class="st8" points="297.2,385.6 294.2,386.1 293.6,389.3 292.9,386.1 289.9,385.6 292.9,384.8 293.6,381.9 294.2,384.8 
							"/>
			<polygon class="st8" points="427.2,383 424.2,383.5 423.5,386.7 422.9,383.5 419.9,383 422.8,382.2 423.5,379.3 424.2,382.2 			
				"/>
			<polygon class="st8" points="405.3,300.7 402.3,301.2 401.7,304.4 401,301.2 398,300.7 401,299.9 401.7,297 402.3,299.9 			"/>
			<path class="st8" d="M506.2,381.4c-1.1,0-1.1,1.7,0,1.7C507.3,383.1,507.3,381.4,506.2,381.4z"/>
			<path class="st8" d="M393.7,289.7c-1.1,0-1.1,1.7,0,1.7C394.9,291.5,394.9,289.7,393.7,289.7z"/>
			<path class="st8" d="M319.9,385.6c-1.1,0-1.1,1.7,0,1.7C321,387.3,321,385.6,319.9,385.6z"/>
			<path class="st8" d="M374.7,373.7c-1.1,0-1.1,1.7,0,1.7C375.9,375.4,375.9,373.7,374.7,373.7z"/>
			<path class="st8" d="M484.5,365.8c-0.8,0-0.8,1.2,0,1.2C485.3,367,485.3,365.8,484.5,365.8z"/>
			<path class="st8" d="M408.8,356.6c-0.8,0-0.8,1.2,0,1.2C409.5,357.8,409.6,356.6,408.8,356.6z"/>
			<path class="st8" d="M353.3,344.6c-0.8,0-0.8,1.2,0,1.2C354.1,345.8,354.1,344.6,353.3,344.6z"/>
			<path class="st8" d="M448.2,347.1c-2.1,0-2.1,3.3,0,3.3C450.3,350.4,450.3,347.1,448.2,347.1z"/>
			<path class="st8" d="M361.2,339c-2.1,0-2.1,3.3,0,3.3C363.3,342.3,363.3,339,361.2,339z"/>
		</g>
		<g>
			<g>
				<path class="st6" d="M362,147.3c-0.8,0-31,13.9-32.8,48.3c-1.6,31.6,20.2,61.5,23,59.6c3.4-2.4-2.4-22.1,4.3-44.6
					c2.4-8,12.8-15.1,12.8-15.1L362,147.3z"/>
				<path class="st9" d="M369.3,195.5c0,0-4.5,3.1-8.3,7.4c-4.5-10-12.9-28.8-18.3-40.9c8.8-10.2,18.8-14.7,19.3-14.7L369.3,195.5z"
					/>
			</g>
			<g>
				<path class="st6" d="M438.9,147.4c0.8,0,31,14,32.7,48.3c1.6,31.6-20.3,61.5-23.1,59.5c-3.4-2.4,2.4-22.1-4.2-44.6
					c-2.4-8-12.8-15.1-12.8-15.1L438.9,147.4z"/>
				<path class="st9" d="M458.3,162.3c-5.5,12.2-13.9,31-18.3,40.9c-3.8-4.5-8.4-7.6-8.4-7.6l7.3-48.2
					C439.3,147.4,449.4,151.9,458.3,162.3z"/>
			</g>
			<path class="st0" d="M423.3,226.3l-45.6,0c0,0-21.5-38.4-18.9-84.2c1.3-22.8,7.3-45.9,14.4-64.9c9.9-26.3,22.1-44.9,27.4-44.9
				c5.3,0,17.5,18.7,27.4,45c7.1,19,13.1,42.1,14.3,64.9C444.8,187.9,423.3,226.3,423.3,226.3z"/>
			<g>
				<path class="st2" d="M427.8,136.2c0,14.5-11.8,26.3-26.3,26.3c-14.5,0-26.3-11.8-26.3-26.3c0-14.5,11.8-26.3,26.3-26.3
					C416.1,110,427.8,121.7,427.8,136.2z"/>
				<path class="st6" d="M426.9,133.6c0,14.5-11.8,26.3-26.3,26.3c-14.5,0-26.3-11.8-26.3-26.3c0-14.5,11.8-26.3,26.3-26.3
					C415.2,107.3,426.9,119,426.9,133.6z"/>
				<path class="st4" d="M418.9,133.5c0,10.1-8.2,18.2-18.2,18.2c-10.1,0-18.2-8.2-18.2-18.2s8.2-18.2,18.2-18.2
					C410.7,115.3,418.9,123.5,418.9,133.5z"/>
				<g>
					<path class="st0" d="M418.9,133.5c0,2.3-0.4,4.6-1.2,6.6l-10.4,10.4c-2,0.8-4.3,1.2-6.6,1.2c-1.7,0-3.3-0.2-4.9-0.7l22.4-22.4
						C418.6,130.2,418.9,131.9,418.9,133.5z"/>
					<path class="st0" d="M403.3,115.5l-20.7,20.7c-0.1-0.9-0.2-1.8-0.2-2.7c0-10.1,8.2-18.2,18.2-18.2
						C401.5,115.3,402.4,115.4,403.3,115.5z"/>
					<path class="st0" d="M416.6,124.7l-24.8,24.8c-0.5-0.3-0.9-0.5-1.4-0.9l25.3-25.3C416,123.8,416.3,124.2,416.6,124.7z"/>
				</g>
			</g>
			<path class="st6" d="M428,77.3l-54.8,0c9.9-26.3,22.1-44.9,27.4-44.9C406,32.3,418.1,51,428,77.3z"/>
			<g>
				<path class="st4" d="M382.7,71.6c0,0.8-0.7,1.5-1.5,1.5c-0.8,0-1.5-0.7-1.5-1.5c0-0.8,0.7-1.5,1.5-1.5
					C382,70,382.7,70.7,382.7,71.6z"/>
				<path class="st4" d="M392.4,71.6c0,0.8-0.7,1.5-1.5,1.5c-0.8,0-1.5-0.7-1.5-1.5c0-0.8,0.7-1.5,1.5-1.5
					C391.7,70,392.4,70.7,392.4,71.6z"/>
				<path class="st4" d="M402.1,71.6c0,0.8-0.7,1.5-1.5,1.5c-0.8,0-1.5-0.7-1.5-1.5c0-0.8,0.7-1.5,1.5-1.5
					C401.5,70,402.1,70.7,402.1,71.6z"/>
				<path class="st4" d="M411.9,71.6c0,0.8-0.7,1.5-1.5,1.5c-0.8,0-1.5-0.7-1.5-1.5c0-0.8,0.7-1.5,1.5-1.5
					C411.2,70.1,411.9,70.7,411.9,71.6z"/>
				<path class="st4" d="M421.6,71.6c0,0.8-0.7,1.5-1.5,1.5c-0.8,0-1.5-0.7-1.5-1.5c0-0.8,0.7-1.5,1.5-1.5
					C421,70.1,421.6,70.7,421.6,71.6z"/>
			</g>
			<g>
				<path class="st2" d="M382.6,219.3c0,0.8-0.7,1.5-1.5,1.5c-0.8,0-1.5-0.7-1.5-1.5c0-0.8,0.7-1.5,1.5-1.5
					C381.9,217.7,382.6,218.4,382.6,219.3z"/>
				<path class="st2" d="M392.3,219.3c0,0.8-0.7,1.5-1.5,1.5c-0.8,0-1.5-0.7-1.5-1.5c0-0.8,0.7-1.5,1.5-1.5
					C391.7,217.7,392.3,218.4,392.3,219.3z"/>
				<path class="st2" d="M402.1,219.3c0,0.8-0.7,1.5-1.5,1.5c-0.8,0-1.5-0.7-1.5-1.5c0-0.8,0.7-1.5,1.5-1.5
					C401.4,217.7,402.1,218.4,402.1,219.3z"/>
				<path class="st2" d="M411.8,219.3c0,0.8-0.7,1.5-1.5,1.5c-0.8,0-1.5-0.7-1.5-1.5c0-0.8,0.7-1.5,1.5-1.5
					C411.1,217.8,411.8,218.4,411.8,219.3z"/>
				<path class="st2" d="M421.6,219.3c0,0.8-0.7,1.5-1.5,1.5c-0.8,0-1.5-0.7-1.5-1.5c0-0.8,0.7-1.5,1.5-1.5
					C420.9,217.8,421.6,218.4,421.6,219.3z"/>
			</g>
			<g>
				<polygon class="st6" points="419.1,240 382,240 380.3,226.3 420.8,226.3 				"/>
				<polygon class="st9" points="420.8,226.3 420,233 380.9,231.5 380.3,226.3 				"/>
			</g>
		</g>
	</g>
</g>
<g id="Character">
	<g>
		<g>
			<g>
				<g>
					<g>
						<path class="st10" d="M223.9,443.7c-2.1,0.7-63.5,0.9-65.8-0.5c-0.9-0.6-1.4-9.5-1.8-20.3c-0.1-2.3-0.1-4.7-0.2-7.2l-5-32.7
							l41-0.3l3.9,32.7l-0.2,7.2c0,0,23.5,10.4,25.9,12.3C224.2,436.8,226.1,443,223.9,443.7z"/>
						<path class="st4" d="M223.9,443.7c-2.1,0.7-63.5,0.9-65.8-0.5c-1.1-0.7-1.7-13.7-2-27.5l39.9-0.3l-0.2,7.2
							c0,0,23.5,10.4,25.9,12.3C224.2,436.8,226.1,443,223.9,443.7z"/>
						<g>
							<path class="st6" d="M223.9,443.7c-2.1,0.7-63.5,0.9-65.8-0.5c-0.9-0.6-1.4-9.5-1.8-20.3l39.6-0.3c0,0,23.5,10.4,25.9,12.3
								C224.2,436.8,226.1,443,223.9,443.7z"/>
							<g>
								<g>
									<path class="st3" d="M223.1,441.2c-10.3-0.2-51.8-0.1-62,0.4c-0.1,0-0.1,0.1,0,0.1c10.2,0.4,51.7,0,62-0.3
										C223.3,441.4,223.3,441.2,223.1,441.2z"/>
									<path class="st3" d="M199.8,423.6c-4.1,0-8.9,1.4-11.4,4.8c-0.1,0.1,0.1,0.3,0.2,0.2c3.7-1.9,7.2-3.4,11.3-4.5
										C200.2,424,200.1,423.6,199.8,423.6z"/>
									<path class="st3" d="M203,424.8c-4.1,0-8.9,1.4-11.4,4.8c-0.1,0.1,0.1,0.3,0.2,0.2c3.7-1.9,7.2-3.4,11.3-4.5
										C203.4,425.3,203.3,424.8,203,424.8z"/>
									<path class="st3" d="M206.2,426.1c-4.1,0-8.9,1.4-11.4,4.8c-0.1,0.1,0.1,0.3,0.2,0.2c3.7-1.9,7.2-3.4,11.3-4.5
										C206.6,426.5,206.5,426.1,206.2,426.1z"/>
								</g>
							</g>
						</g>
					</g>
					<g>
						<path class="st11" d="M86.3,238.5c0,0,53.8,81,55.1,86.7c2,8.7,12.4,96.4,12.4,96.4l44.9-0.9c0,0-10.2-77.5-18.2-102.6
							c-5.8-18.1-47.9-78-47.9-78L86.3,238.5z"/>
						<g>
							<path class="st3" d="M197.4,413.1c-7.1-0.1-32.3-0.3-41.8,0.5c-0.1,0-0.1,0.1,0,0.1c3.3,0.5,34.7-0.3,41.8-0.5
								C197.5,413.3,197.5,413.1,197.4,413.1z"/>
						</g>
					</g>
				</g>
				<g>
					<g>
						<path class="st10" d="M128.4,457.4c-2.3,0.1-63.1-15.9-65-17.9c-0.1-0.1-0.1-0.2-0.1-0.4c-0.2-2,2.9-9.5,5.1-19
							c0.1-0.6,1.3-3.5,2.9-7.4c4.4-10.8,12.3-29.3,12.3-29.3l39.8,10.2l-14.6,29.4l-2,6.9c0,0,20.1,16.1,21.9,18.5
							C130.3,450.8,130.6,457.2,128.4,457.4z"/>
						<path class="st4" d="M128.4,457.4c-2.3,0.1-63.1-15.9-65-17.9c-0.1-0.1-0.1-0.2-0.1-0.4c-0.2-2,2.9-9.5,5.1-19
							c0.1-0.6,1.3-3.5,2.9-7.4l37.4,10.3l-2,6.9c0,0,20.1,16.1,21.9,18.5C130.3,450.8,130.6,457.2,128.4,457.4z"/>
						<g>
							<path class="st6" d="M128.4,457.4c-2.3,0.2-63.1-15.9-65-17.9c-0.7-0.8,0.9-9,4.9-19.5l38.3,9.8c0,0,20.1,16.1,21.9,18.5
								C130.3,450.8,130.6,457.2,128.4,457.4z"/>
							<g>
								<g>
									<path class="st3" d="M128.1,454.8c-9.9-2.8-50.1-13.3-60.1-15.3c-0.1,0-0.1,0,0,0.1c9.7,3,50,13.2,60,15.4
										C128.3,455,128.3,454.8,128.1,454.8z"/>
									<path class="st3" d="M110.2,431.8c-4-1.1-9-0.9-12.3,1.7c-0.1,0.1,0,0.3,0.2,0.3c4.1-0.9,7.9-1.4,12.1-1.5
										C110.4,432.3,110.5,431.9,110.2,431.8z"/>
									<path class="st3" d="M112.9,433.8c-4-1.1-9-0.9-12.3,1.7c-0.1,0.1,0,0.3,0.2,0.3c4.1-0.9,7.9-1.4,12.1-1.5
										C113.2,434.3,113.2,433.9,112.9,433.8z"/>
									<path class="st3" d="M115.7,435.8c-4-1.1-9-0.9-12.3,1.7c-0.1,0.1,0,0.3,0.2,0.3c4.1-0.9,7.9-1.4,12.1-1.5
										C115.9,436.3,116,435.9,115.7,435.8z"/>
								</g>
							</g>
						</g>
					</g>
					<g>
						<path class="st11" d="M109.3,429.9l-44.5-11.7c0,0,44.6-92.8,44.3-98.6c-0.3-5.1-31.2-50.2-32.9-58.6
							c-2.8-13.8,3.9-26.1,10.4-33.8l46.1,13c0,0-3.7,8-10.4,13c0,0,28.9,48.3,29.7,64.2C152.6,333.5,109.3,429.9,109.3,429.9z"/>
						<g>
							<path class="st3" d="M110,421.9c-6.5-1.9-4.6-1.4-11.1-3.2c-3.2-0.9-24-6.6-27.1-6.9c-0.1,0-0.1,0.1,0,0.1
								c2.8,1.3,23.8,6.6,27,7.4c6.5,1.7,4.7,1.1,11.2,2.7C110.1,422.1,110.1,421.9,110,421.9z"/>
							<g>
								<path class="st3" d="M129.2,251.4c-4.4,1.6-8.7,3.7-12.8,6c-0.2,0.1,0,0.3,0.1,0.3c4.3-1.9,8.7-3.7,12.9-5.8
									C129.8,251.7,129.6,251.3,129.2,251.4z"/>
								<path class="st3" d="M123.8,250.2c-0.3,0.8-0.6,1.6-0.8,2.5c-0.2,0.7-0.4,1.4-0.3,2c0,0.1,0.2,0.1,0.3,0.1
									c0.4-0.6,0.6-1.3,0.9-2c0.3-0.8,0.6-1.5,0.8-2.3C124.8,250,124,249.7,123.8,250.2z"/>
								<path class="st3" d="M123.8,246.1c0.2-0.7,0.4-1.4,0.6-2.1c0.2-0.7,0.5-1.5,0.6-2.2c0-0.1,0.2-0.1,0.2,0.1
									c-0.2,0.7-0.3,1.4-0.4,2.2c-0.1,0.7-0.3,1.4-0.4,2.2c-0.3,1.3-0.6,2.7-1,4c0.7-0.1,1.4-0.2,2.1-0.6c0.7-0.4,1-1.2,1.3-2
									c0.3-0.8,0.5-1.6,0.8-2.4c0.3-0.9,0.7-1.8,0.9-2.7c0-0.1,0.2-0.1,0.2,0.1c-0.4,1.9-0.8,3.9-1.6,5.7
									c-0.3,0.7-0.6,1.5-1.3,1.8c-0.8,0.4-1.6,0.4-2.5,0.5c-0.1,0-0.2,0-0.2-0.1C123.2,248.9,123.5,247.5,123.8,246.1z"/>
							</g>
							<path class="st3" d="M123.1,254.8c1.8,3.2,3.8,6.2,5.6,9.3c1.8,3,3.6,6.1,5.3,9.2c3.4,6.3,6.6,12.7,9.6,19.2
								c1.4,3.2,2.8,6.5,4.1,9.8c1.3,3.3,2.5,6.6,3.3,10.1c0.8,3.5,1,7,0.4,10.5c-0.6,3.6-1.6,7-2.7,10.5
								c-2.5,7.9-5.2,15.6-8.7,23.1c-0.1,0.2-0.5,0.1-0.4-0.2c2.4-6.9,5-13.7,7.1-20.7c2.1-6.7,4.6-13.7,3.5-20.9
								c-0.6-3.5-1.7-6.8-2.9-10c-1.2-3.3-2.6-6.6-4-9.9c-2.8-6.4-5.9-12.7-9.1-18.9c-1.8-3.5-3.7-6.9-5.5-10.4
								c-1.8-3.5-3.6-7.1-5.7-10.5C122.9,254.8,123,254.7,123.1,254.8z"/>
							<path class="st3" d="M89.5,248.1c0.8-0.1,2.1,0.2,5.7-0.1c1-0.1,2-0.3,3-0.5c1-0.2,2-0.5,2.8-1.1c1.3-1.1,2.3-2.8,3.1-4.3
								c0.9-1.6,1.8-3.5,2.2-5.3c0-0.1,0.2-0.1,0.2,0.1c-0.2,1.1-0.3,2.1-0.6,3.2c-0.3,1-0.6,1.9-1.1,2.9c-0.8,1.7-1.7,3.6-3.2,4.8
								c-1.6,1.2-3.9,1.5-5.9,1.6c-1.1,0.1-5.6,0-6.2-0.7C89.4,248.3,89.4,248.1,89.5,248.1z"/>
							<path class="st3" d="M73.8,410.6c4.8-12.6,31-68.6,36.1-80.3c1.2-2.8,2.7-5.6,3.3-8.6c0.7-3.3-0.3-6.2-1.7-9.1
								c-2.5-5.4-5.5-10.6-8.6-15.6c-3.1-5.1-6.4-10-9.7-15c-3.2-4.9-6.6-9.9-9.3-15.2c-2.5-5.1-3.9-10.4-3.2-16.1
								c0.7-5.6,3.2-10.9,5.8-15.9c0.7-1.3,1.4-2.6,2.1-3.9c0.1-0.1,0.2,0,0.2,0.1c-2.9,5.2-5.7,10.7-7.1,16.5
								c-0.7,2.9-1,5.9-0.6,8.8c0.3,3,1.3,5.9,2.5,8.6c2.4,5.3,5.8,10.2,9,15.1c3.3,5,6.6,9.9,9.7,15c3.2,5.1,6.2,10.3,8.9,15.6
								c1.2,2.4,2.5,4.9,2.8,7.6c0.3,3-0.8,5.8-1.9,8.4c-5,11.6-37.2,82.7-37.9,84.1C74,410.9,73.7,410.8,73.8,410.6z"/>
						</g>
					</g>
				</g>
			</g>
			<g>
				<g>
					<g>
						<g>
							<g>
								<path class="st10" d="M135.5,188.2c7.1,4,33.1,18.4,42.8,17.1c15.4-2.1,38.1-25,43.7-30.8c2.4-2.5-17-23.7-19.8-21.2
									c-1.9,1.7-23.7,26-26.3,27c-2.6,1-24.6-1.9-37.8-4.5C125.6,173.3,120.5,179.8,135.5,188.2z"/>
							</g>
						</g>
						<g>
							<path class="st10" d="M229.3,165.7c-2.7,5.3-12.6,13.9-15.8,15.1c-3.2,1.2-18.4-15.1-17.9-18.5c0.6-3.4,11.2-20.6,16.8-23
								C218,136.8,232.2,160.2,229.3,165.7z"/>
							<g>
								<path class="st10" d="M204.6,144.8c0.2,3.2,3.8,1.1,3.8,1.1s-4.5,4.2-3,7.4c1.4,3.1,5.7,0.4,6,0.2c-0.2,0.2-4.2,4.2-2.4,7.2
									c1.9,3.2,5.7-0.2,6-0.4c-0.2,0.3-2.1,4-0.2,6c3.3,3.4,8.6-6,12.3-6.9c0,0,2.2,6.2,2.3,6.3c0,0,5.3-8.9,3.8-13.9
									c-0.8-2.6-3.4-2.4-3.4-2.4s2-2.7,0.7-5.1c-0.7-1.2-3.3-1.2-3.3-1.2s1.5-2.2,0.2-4.3c-1.1-1.7-3.5-1.4-3.5-1.4
									s0.5-2.8-1.2-4.2C219.4,130.5,204.2,138,204.6,144.8z"/>
								<g>
									<path class="st3" d="M223.4,137.4C223.5,137.3,223.5,137.3,223.4,137.4c-5.6,1.2-11.4,4.3-15.2,8.6
										c-0.1,0.1,0.1,0.4,0.2,0.3C213.2,142.5,217.8,139.6,223.4,137.4z"/>
									<path class="st3" d="M227.2,143c0.1,0,0-0.1,0-0.1c-5.8,1.3-12.2,5-16,10.5c-0.1,0.2-0.1,0.5,0.1,0.3
										C214.1,150.2,222.1,145,227.2,143z"/>
									<path class="st3" d="M214.8,160.8c3.9-5.2,9-8.5,14.7-11.3c0.1,0,0-0.1-0.1-0.1c-3.2,0.6-6.7,2.7-9.3,4.6
										c-2.5,1.8-4.3,3.9-5.6,6.7C214.6,160.7,214.7,160.9,214.8,160.8z"/>
								</g>
								<path class="st3" d="M208.4,145.9c-0.8,0.9-1.5,1.8-2.1,2.9c-0.6,1-1.1,2.1-1.1,3.2c0,0.5,0.2,1,0.5,1.4
									c0.4,0.4,0.8,0.7,1.3,0.8c1,0.3,2.2,0,3-0.6l2.2-1.4l-1.6,2.1c-0.7,0.9-1.3,2-1.6,3c-0.4,1.1-0.4,2.2,0.1,3.1
									c0.5,0.9,1.5,1.4,2.5,1.1c1-0.2,2-0.9,2.8-1.7l2.3-2.1l-1.4,2.7c-0.4,0.7-0.7,1.6-0.9,2.4c-0.2,0.8-0.2,1.7,0,2.4
									c0.3,0.7,0.9,1.2,1.6,1.3c0.7,0,1.6-0.3,2.3-0.8c1.5-0.9,2.8-2.1,4.2-3.3c0.7-0.6,1.4-1.2,2.1-1.7c0.7-0.5,1.5-1.1,2.4-1.3
									c-0.9,0.3-1.5,0.9-2.2,1.5c-0.7,0.6-1.3,1.2-1.9,1.9c-1.3,1.3-2.6,2.5-4.1,3.6c-0.8,0.5-1.6,1-2.7,1c-1.1,0-2.1-0.8-2.5-1.8
									c-0.4-1-0.3-2-0.1-2.9c0.2-0.9,0.5-1.8,1-2.7l0.8,0.6c-0.9,0.9-2,1.6-3.3,2c-0.7,0.2-1.5,0.1-2.1-0.2
									c-0.7-0.3-1.2-0.9-1.5-1.5c-0.7-1.3-0.5-2.7-0.1-3.9c0.4-1.2,1.1-2.3,1.9-3.3l0.6,0.7c-1.1,0.7-2.5,1-3.8,0.5
									c-0.6-0.2-1.2-0.6-1.6-1.1c-0.4-0.5-0.6-1.2-0.6-1.8c0.1-1.3,0.7-2.4,1.4-3.4C206.8,147.6,207.6,146.7,208.4,145.9z"/>
							</g>
							<g>
								<path class="st10" d="M197,159.1c0,0,1.9-25.3,11.4-19.7c2.8,1.7,12.5,11.8,10.5,13.8c-2.6,2.5-7.4-0.9-10.1-3.6
									c0,0,0.6,8.7-5.4,10.9C199.7,161.8,197,159.1,197,159.1z"/>
								<path class="st3" d="M207.5,139c1.2,0.5,2.3,1.3,3.3,2c1,0.8,2,1.7,2.9,2.6c1.8,1.9,3.5,3.8,4.9,6c0.4,0.6,0.7,1.1,0.9,1.8
									c0.1,0.4,0.2,0.8,0.1,1.2c0,0.2-0.1,0.4-0.2,0.6c-0.1,0.2-0.2,0.4-0.4,0.5c-0.6,0.6-1.3,0.8-2.1,0.9c-0.7,0-1.4-0.1-2.1-0.3
									c-1.3-0.4-2.5-1.1-3.5-1.9c-1.1-0.8-2-1.7-2.9-2.6l0.8-0.4c0,1,0,2-0.2,3c-0.2,1-0.4,1.9-0.7,2.9c-0.4,0.9-0.8,1.8-1.4,2.6
									c-0.6,0.8-1.3,1.4-2.2,1.9c0.8-0.6,1.4-1.3,1.9-2.1c0.5-0.8,0.9-1.7,1.2-2.6c0.3-0.9,0.5-1.8,0.6-2.8c0.1-0.9,0.1-1.9,0-2.8
									l-0.1-1.1l0.9,0.8c0.9,0.9,1.9,1.7,2.9,2.4c1,0.7,2.1,1.4,3.2,1.7c1.1,0.3,2.4,0.4,3.1-0.3c0.7-0.6,0.1-1.8-0.5-2.9
									c-0.6-1.1-1.4-2.1-2.2-3.1c-0.8-1-1.6-2-2.4-3C211.5,142.2,209.8,140.3,207.5,139z"/>
							</g>
						</g>
					</g>
					<g>
						<path class="st6" d="M195.5,159.8l18.6,26.9c0,0-19.9,16.1-35.9,20c-6.6,1.6-31.9-10.3-43-17.2s-14.8-16.6,4.8-14.2
							c19.6,2.5,34,5.1,35.3,4.7C176.5,179.6,195.5,159.8,195.5,159.8z"/>
						<path class="st4" d="M128.3,177.5c-0.2,0.1-0.4,0.1-0.6,0.1c-0.2,0-0.5,0-0.7-0.1c-0.2-0.1-0.3-0.2-0.4-0.3
							c0.1-0.1,0.2-0.2,0.3-0.4c0.1,0.1,0.2,0.2,0.3,0.3c0.2,0.1,0.3,0.2,0.5,0.2C127.9,177.4,128.1,177.4,128.3,177.5z
							 M154.6,193.6c0.2,0,0.4,0.1,0.5,0.2c0.3,0.2,0.5,0.5,0.5,0.8c0,0.5,0.3,1,0.8,1.1c0.2,0.1,0.5,0.1,0.7,0.1
							c0.2,0,0.4-0.1,0.6-0.1c-0.2-0.1-0.4-0.1-0.6-0.1c-0.2,0-0.4-0.1-0.5-0.2c-0.3-0.2-0.4-0.5-0.4-0.8c0-0.5-0.3-1-0.8-1.1
							c-0.2-0.1-0.5-0.1-0.7,0c-0.2,0-0.4,0.1-0.6,0.1C154.2,193.6,154.4,193.6,154.6,193.6z M176.6,193.6c0.2,0,0.4,0.1,0.5,0.2
							c0.3,0.2,0.5,0.5,0.5,0.8c0,0.5,0.3,1,0.8,1.1c0.2,0.1,0.5,0.1,0.7,0.1c0.2,0,0.4-0.1,0.6-0.1c-0.2-0.1-0.4-0.1-0.6-0.1
							c-0.2,0-0.4-0.1-0.5-0.2c-0.3-0.2-0.4-0.5-0.4-0.8c0-0.5-0.3-1-0.8-1.1c-0.2-0.1-0.5-0.1-0.7,0c-0.2,0-0.4,0.1-0.6,0.1
							C176.2,193.6,176.4,193.6,176.6,193.6z M142.5,176.7c0.2,0,0.4,0.1,0.5,0.2c0.3,0.2,0.5,0.5,0.5,0.8c0,0.5,0.3,1,0.8,1.1
							c0.2,0.1,0.5,0.1,0.7,0.1c0.2,0,0.4-0.1,0.6-0.1c-0.2-0.1-0.4-0.1-0.6-0.1c-0.2,0-0.4-0.1-0.5-0.2c-0.3-0.2-0.4-0.5-0.4-0.8
							c0-0.5-0.3-1-0.8-1.1c-0.2-0.1-0.5-0.1-0.7,0c-0.2,0-0.4,0.1-0.6,0.1C142.1,176.6,142.3,176.6,142.5,176.7z M148.9,187.1
							c-0.2,0.1-0.3,0.2-0.5,0.2c-0.3,0.1-0.7,0-0.9-0.2c-0.3-0.3-0.9-0.5-1.3-0.3c-0.2,0.1-0.4,0.3-0.5,0.4
							c-0.1,0.2-0.2,0.3-0.3,0.5c0.2-0.1,0.3-0.2,0.5-0.3c0.2-0.1,0.3-0.2,0.5-0.2c0.3-0.1,0.6,0,0.9,0.3c0.4,0.3,0.9,0.4,1.4,0.2
							c0.2-0.1,0.4-0.3,0.5-0.4c0.1-0.2,0.2-0.3,0.3-0.5C149.2,186.9,149.1,187,148.9,187.1z M209.7,187.6c-0.2,0.1-0.3,0.2-0.5,0.2
							c-0.3,0.1-0.7,0-0.9-0.2c-0.3-0.3-0.9-0.5-1.3-0.3c-0.2,0.1-0.4,0.3-0.5,0.4c-0.1,0.2-0.2,0.3-0.3,0.5
							c0.2-0.1,0.3-0.2,0.5-0.3c0.2-0.1,0.3-0.2,0.5-0.2c0.3-0.1,0.6,0,0.9,0.3c0.4,0.3,0.9,0.4,1.4,0.2c0.2-0.1,0.4-0.3,0.5-0.4
							c0.1-0.2,0.2-0.3,0.3-0.5C210,187.4,209.9,187.5,209.7,187.6z M136.2,185c0,0.2-0.1,0.4-0.2,0.5c-0.2,0.3-0.5,0.5-0.8,0.5
							c-0.5,0-1,0.3-1.1,0.8c-0.1,0.2-0.1,0.5-0.1,0.7c0,0.2,0.1,0.4,0.1,0.6c0.1-0.2,0.1-0.4,0.1-0.6c0-0.2,0.1-0.4,0.2-0.5
							c0.2-0.3,0.5-0.4,0.8-0.4c0.5,0,1-0.3,1.1-0.8c0.1-0.2,0.1-0.5,0-0.7c0-0.2-0.1-0.4-0.1-0.6
							C136.3,184.6,136.3,184.8,136.2,185z M158.9,179.7c0,0.2-0.1,0.4-0.2,0.5c-0.2,0.3-0.5,0.5-0.8,0.5c-0.5,0-1,0.3-1.1,0.8
							c-0.1,0.2-0.1,0.5-0.1,0.7c0,0.2,0.1,0.4,0.1,0.6c0.1-0.2,0.1-0.4,0.1-0.6c0-0.2,0.1-0.4,0.2-0.5c0.2-0.3,0.5-0.4,0.8-0.4
							c0.5,0,1-0.3,1.1-0.8c0.1-0.2,0.1-0.5,0-0.7c0-0.2-0.1-0.4-0.1-0.6C159,179.3,158.9,179.5,158.9,179.7z M167.6,200.5
							c0,0.2-0.1,0.4-0.2,0.5c-0.2,0.3-0.5,0.5-0.8,0.5c-0.5,0-1,0.3-1.1,0.8c-0.1,0.2-0.1,0.5-0.1,0.7c0,0.2,0.1,0.4,0.1,0.6
							c0.1-0.2,0.1-0.4,0.1-0.6c0-0.2,0.1-0.4,0.2-0.5c0.2-0.3,0.5-0.4,0.8-0.4c0.5,0,1-0.3,1.1-0.8c0.1-0.2,0.1-0.5,0-0.7
							c0-0.2-0.1-0.4-0.1-0.6C167.6,200.1,167.6,200.3,167.6,200.5z M178,204.7c0.2-0.1,0.3-0.2,0.5-0.2c0.3-0.1,0.7,0,0.9,0.2
							c0.3,0.3,0.9,0.5,1.3,0.3c0.2-0.1,0.4-0.3,0.5-0.4c0.1-0.2,0.2-0.3,0.3-0.5c-0.2,0.1-0.3,0.2-0.5,0.3
							c-0.2,0.1-0.3,0.2-0.5,0.2c-0.3,0.1-0.6,0-0.9-0.3c-0.4-0.3-0.9-0.4-1.4-0.2c-0.2,0.1-0.4,0.3-0.5,0.4
							c-0.1,0.2-0.2,0.3-0.3,0.5C177.7,204.9,177.9,204.8,178,204.7z M164.3,190c0.2-0.1,0.3-0.2,0.5-0.2c0.3-0.1,0.7,0,0.9,0.2
							c0.3,0.3,0.9,0.5,1.3,0.3c0.2-0.1,0.4-0.3,0.5-0.4c0.1-0.2,0.2-0.3,0.3-0.5c-0.2,0.1-0.3,0.2-0.5,0.3
							c-0.2,0.1-0.3,0.2-0.5,0.2c-0.3,0.1-0.6,0-0.9-0.3c-0.4-0.3-0.9-0.4-1.4-0.2c-0.2,0.1-0.4,0.3-0.5,0.4
							c-0.1,0.2-0.2,0.3-0.3,0.5C164,190.3,164.1,190.1,164.3,190z M183.6,172.9c0.2,0,0.4,0.1,0.5,0.2c0.3,0.2,0.5,0.5,0.5,0.8
							c0,0.5,0.3,1,0.8,1.1c0.2,0.1,0.5,0.1,0.7,0.1c0.2,0,0.4-0.1,0.6-0.1c-0.2-0.1-0.4-0.1-0.6-0.1c-0.2,0-0.4-0.1-0.5-0.2
							c-0.3-0.2-0.4-0.5-0.4-0.8c0-0.5-0.3-1-0.8-1.1c-0.2-0.1-0.5-0.1-0.7,0c-0.2,0-0.4,0.1-0.6,0.1
							C183.2,172.8,183.4,172.8,183.6,172.9z M195.7,189.7c0.2,0,0.4,0.1,0.5,0.2c0.3,0.2,0.5,0.5,0.5,0.8c0,0.5,0.3,1,0.8,1.1
							c0.2,0.1,0.5,0.1,0.7,0.1c0.2,0,0.4-0.1,0.6-0.1c-0.2-0.1-0.4-0.1-0.6-0.1c-0.2,0-0.4-0.1-0.5-0.2c-0.3-0.2-0.4-0.5-0.4-0.8
							c0-0.5-0.3-1-0.8-1.1c-0.2-0.1-0.5-0.1-0.7,0c-0.2,0-0.4,0.1-0.6,0.1C195.3,189.6,195.5,189.6,195.7,189.7z M205.2,177.8
							c0.2,0,0.4,0.1,0.5,0.2c0.3,0.2,0.5,0.5,0.5,0.8c0,0.5,0.3,1,0.8,1.1c0.2,0.1,0.5,0.1,0.7,0.1c0.2,0,0.4-0.1,0.6-0.1
							c-0.2-0.1-0.4-0.1-0.6-0.1c-0.2,0-0.4-0.1-0.5-0.2c-0.3-0.2-0.4-0.5-0.4-0.8c0-0.5-0.3-1-0.8-1.1c-0.2-0.1-0.5-0.1-0.7,0
							c-0.2,0-0.4,0.1-0.6,0.1C204.8,177.8,205,177.8,205.2,177.8z M196.7,177.7c0,0.2-0.1,0.4-0.2,0.5c-0.2,0.3-0.5,0.5-0.8,0.5
							c-0.5,0-1,0.3-1.1,0.8c-0.1,0.2-0.1,0.5-0.1,0.7c0,0.2,0.1,0.4,0.1,0.6c0.1-0.2,0.1-0.4,0.1-0.6c0-0.2,0.1-0.4,0.2-0.5
							c0.2-0.3,0.5-0.4,0.8-0.4c0.5,0,1-0.3,1.1-0.8c0.1-0.2,0.1-0.5,0-0.7c0-0.2-0.1-0.4-0.1-0.6
							C196.8,177.3,196.8,177.5,196.7,177.7z M175.2,181.2c0,0.2-0.1,0.4-0.2,0.5c-0.2,0.3-0.5,0.5-0.8,0.5c-0.5,0-1,0.3-1.1,0.8
							c-0.1,0.2-0.1,0.5-0.1,0.7c0,0.2,0.1,0.4,0.1,0.6c0.1-0.2,0.1-0.4,0.1-0.6c0-0.2,0.1-0.4,0.2-0.5c0.2-0.3,0.5-0.4,0.8-0.4
							c0.5,0,1-0.3,1.1-0.8c0.1-0.2,0.1-0.5,0-0.7c0-0.2-0.1-0.4-0.1-0.6C175.2,180.8,175.2,181,175.2,181.2z M190.2,197.6
							c0,0.2-0.1,0.4-0.2,0.5c-0.2,0.3-0.5,0.5-0.8,0.5c-0.5,0-1,0.3-1.1,0.8c-0.1,0.2-0.1,0.5-0.1,0.7c0,0.2,0.1,0.4,0.1,0.6
							c0.1-0.2,0.1-0.4,0.1-0.6c0-0.2,0.1-0.4,0.2-0.5c0.2-0.3,0.5-0.4,0.8-0.4c0.5,0,1-0.3,1.1-0.8c0.1-0.2,0.1-0.5,0-0.7
							c0-0.2-0.1-0.4-0.1-0.6C190.2,197.2,190.2,197.4,190.2,197.6z M194.3,166.5c0.2-0.1,0.3-0.2,0.5-0.2c0.3-0.1,0.7,0,0.9,0.2
							c0.3,0.3,0.9,0.5,1.3,0.3c0.2-0.1,0.4-0.3,0.5-0.4c0.1-0.2,0.2-0.3,0.3-0.5c-0.2,0.1-0.3,0.2-0.5,0.3
							c-0.2,0.1-0.3,0.2-0.5,0.2c-0.3,0.1-0.6,0-0.9-0.3c-0.4-0.3-0.9-0.4-1.4-0.2c-0.2,0.1-0.4,0.3-0.5,0.4
							c-0.1,0.2-0.2,0.3-0.3,0.5C193.9,166.8,194.1,166.6,194.3,166.5z M183.3,188.2c0.2-0.1,0.3-0.2,0.5-0.2c0.3-0.1,0.7,0,0.9,0.2
							c0.3,0.3,0.9,0.5,1.3,0.3c0.2-0.1,0.4-0.3,0.5-0.4c0.1-0.2,0.2-0.3,0.3-0.5c-0.2,0.1-0.3,0.2-0.5,0.3
							c-0.2,0.1-0.3,0.2-0.5,0.2c-0.3,0.1-0.6,0-0.9-0.3c-0.4-0.3-0.9-0.4-1.4-0.2c-0.2,0.1-0.4,0.3-0.5,0.4
							c-0.1,0.2-0.2,0.3-0.3,0.5C182.9,188.4,183.1,188.3,183.3,188.2z"/>
						<path class="st3" d="M192.3,166.6c0.9,1.9,2.1,3.8,3.3,5.6c1.2,1.9,2.4,3.8,3.6,5.7c1.2,1.9,6.3,9.3,7.6,11.1
							c0.1,0.1,0.2,0,0.1-0.1c-1.2-1.9-5.7-9.6-6.9-11.4c-1.2-1.8-2.4-3.7-3.6-5.5C195,170.2,193.8,168.2,192.3,166.6
							C192.3,166.5,192.2,166.5,192.3,166.6z"/>
						<path class="st3" d="M166.8,204.5c-10.3-3.5-24.2-10.4-31.6-15.1c-7.1-4.4-11.1-10-8.1-12.8c0.2-0.1,0.3-0.2,0.3-0.2
							L166.8,204.5z"/>
					</g>
				</g>
				<g>
					<path class="st6" d="M137.9,249.7c-1.2,0.8-57.4-13.8-57.6-14.3c-0.6-1.2,29.8-57.1,46.3-64.5c3.5-1.6,12.1,2.3,13.8,4.9
						c1.1,1.6,2,10.7,2.5,18.1C143.8,208.7,138.9,249,137.9,249.7z"/>
					<path class="st4" d="M113.4,193.8c0.2-0.1,0.4-0.1,0.6-0.1c0.2,0,0.5,0,0.7,0c0.5,0.2,0.8,0.6,0.8,1.1c0,0.3,0.2,0.6,0.4,0.8
						c0.1,0.1,0.3,0.1,0.5,0.2c0.2,0,0.4,0.1,0.6,0.1c-0.2,0.1-0.4,0.1-0.6,0.1c-0.2,0-0.5,0-0.7-0.1c-0.4-0.2-0.8-0.7-0.8-1.1
						c0-0.3-0.2-0.6-0.5-0.8c-0.1-0.1-0.3-0.1-0.5-0.2C113.8,193.9,113.6,193.9,113.4,193.8z M125.1,233.6c0.2,0,0.4,0.1,0.5,0.2
						c0.3,0.2,0.5,0.5,0.5,0.8c0,0.5,0.3,1,0.8,1.1c0.2,0.1,0.5,0.1,0.7,0.1c0.2,0,0.4-0.1,0.6-0.1c-0.2-0.1-0.4-0.1-0.6-0.1
						c-0.2,0-0.4-0.1-0.5-0.2c-0.3-0.2-0.4-0.5-0.4-0.8c0-0.5-0.3-1-0.8-1.1c-0.2-0.1-0.5-0.1-0.7,0c-0.2,0-0.4,0.1-0.6,0.1
						C124.7,233.5,124.9,233.5,125.1,233.6z M138.9,196.1c0.2,0,0.4,0.1,0.5,0.2c0.3,0.2,0.5,0.5,0.5,0.8c0,0.5,0.3,1,0.8,1.1
						c0.2,0.1,0.5,0.1,0.7,0.1c0.2,0,0.4-0.1,0.6-0.1c-0.2-0.1-0.4-0.1-0.6-0.1c-0.2,0-0.4-0.1-0.5-0.2c-0.3-0.2-0.4-0.5-0.4-0.8
						c0-0.5-0.3-1-0.8-1.1c-0.2-0.1-0.5-0.1-0.7,0c-0.2,0-0.4,0.1-0.6,0.1C138.5,196,138.7,196,138.9,196.1z M125.4,175.4
						c0.2,0,0.4,0.1,0.5,0.2c0.3,0.2,0.5,0.5,0.5,0.8c0,0.5,0.3,1,0.8,1.1c0.2,0.1,0.5,0.1,0.7,0.1c0.2,0,0.4-0.1,0.6-0.1
						c-0.2-0.1-0.4-0.1-0.6-0.1c-0.2,0-0.4-0.1-0.5-0.2c-0.3-0.2-0.4-0.5-0.4-0.8c0-0.5-0.3-1-0.8-1.1c-0.2-0.1-0.5-0.1-0.7,0
						c-0.2,0-0.4,0.1-0.6,0.1C125,175.4,125.2,175.4,125.4,175.4z M98.3,210.5c0.2,0,0.4,0.1,0.5,0.2c0.3,0.2,0.5,0.5,0.5,0.8
						c0,0.5,0.3,1,0.8,1.1c0.2,0.1,0.5,0.1,0.7,0.1c0.2,0,0.4-0.1,0.6-0.1c-0.2-0.1-0.4-0.1-0.6-0.1c-0.2,0-0.4-0.1-0.5-0.2
						c-0.3-0.2-0.4-0.5-0.4-0.8c0-0.5-0.3-1-0.8-1.1c-0.2-0.1-0.5-0.1-0.7,0c-0.2,0-0.4,0.1-0.6,0.1
						C97.9,210.4,98.1,210.5,98.3,210.5z M110.3,227.3c0.2,0,0.4,0.1,0.5,0.2c0.3,0.2,0.5,0.5,0.5,0.8c0,0.5,0.3,1,0.8,1.1
						c0.2,0.1,0.5,0.1,0.7,0.1c0.2,0,0.4-0.1,0.6-0.1c-0.2-0.1-0.4-0.1-0.6-0.1c-0.2,0-0.4-0.1-0.5-0.2c-0.3-0.2-0.4-0.5-0.4-0.8
						c0-0.5-0.3-1-0.8-1.1c-0.2-0.1-0.5-0.1-0.7,0c-0.2,0-0.4,0.1-0.6,0.1C109.9,227.2,110.1,227.3,110.3,227.3z M88.8,230.9
						c0.2,0,0.4,0.1,0.5,0.2c0.3,0.2,0.5,0.5,0.5,0.8c0,0.5,0.3,1,0.8,1.1c0.2,0.1,0.5,0.1,0.7,0.1c0.2,0,0.4-0.1,0.6-0.1
						c-0.2-0.1-0.4-0.1-0.6-0.1c-0.2,0-0.4-0.1-0.5-0.2c-0.3-0.2-0.4-0.5-0.4-0.8c0-0.5-0.3-1-0.8-1.1c-0.2-0.1-0.5-0.1-0.7,0
						c-0.2,0-0.4,0.1-0.6,0.1C88.4,230.8,88.6,230.8,88.8,230.9z M120.3,211c0.2,0,0.4,0.1,0.5,0.2c0.3,0.2,0.5,0.5,0.5,0.8
						c0,0.5,0.3,1,0.8,1.1c0.2,0.1,0.5,0.1,0.7,0.1c0.2,0,0.4-0.1,0.6-0.1c-0.2-0.1-0.4-0.1-0.6-0.1c-0.2,0-0.4-0.1-0.5-0.2
						c-0.3-0.2-0.4-0.5-0.4-0.8c0-0.5-0.3-1-0.8-1.1c-0.2-0.1-0.5-0.1-0.7,0c-0.2,0-0.4,0.1-0.6,0.1
						C119.9,210.9,120.1,210.9,120.3,211z M136.9,221.4c0.2,0,0.4,0.1,0.5,0.2c0.3,0.2,0.5,0.5,0.5,0.8c0,0.5,0.3,1,0.8,1.1
						c0.2,0.1,0.5,0.1,0.7,0.1c0.2,0,0.4-0.1,0.6-0.1c-0.2-0.1-0.4-0.1-0.6-0.1c-0.2,0-0.4-0.1-0.5-0.2c-0.3-0.2-0.4-0.5-0.4-0.8
						c0-0.5-0.3-1-0.8-1.1c-0.2-0.1-0.5-0.1-0.7,0c-0.2,0-0.4,0.1-0.6,0.1C136.5,221.3,136.7,221.4,136.9,221.4z M136.8,210.7
						c-0.2,0.1-0.3,0.2-0.5,0.2c-0.3,0.1-0.7,0-0.9-0.2c-0.3-0.3-0.9-0.5-1.3-0.3c-0.2,0.1-0.4,0.3-0.5,0.4
						c-0.1,0.2-0.2,0.3-0.3,0.5c0.2-0.1,0.3-0.2,0.5-0.3c0.2-0.1,0.3-0.2,0.5-0.2c0.3-0.1,0.6,0,0.9,0.3c0.4,0.3,0.9,0.4,1.4,0.2
						c0.2-0.1,0.4-0.3,0.5-0.4c0.1-0.2,0.2-0.3,0.3-0.5C137.1,210.5,137,210.6,136.8,210.7z M116.3,180.3c0,0.2-0.1,0.4-0.2,0.5
						c-0.2,0.3-0.5,0.5-0.8,0.5c-0.5,0-1,0.3-1.1,0.8c-0.1,0.2-0.1,0.5-0.1,0.7c0,0.2,0.1,0.4,0.1,0.6c0.1-0.2,0.1-0.4,0.1-0.6
						c0-0.2,0.1-0.4,0.2-0.5c0.2-0.3,0.5-0.4,0.8-0.4c0.5,0,1-0.3,1.1-0.8c0.1-0.2,0.1-0.5,0-0.7c0-0.2-0.1-0.4-0.1-0.6
						C116.4,179.9,116.4,180.1,116.3,180.3z M111.4,215.4c0,0.2-0.1,0.4-0.2,0.5c-0.2,0.3-0.5,0.5-0.8,0.5c-0.5,0-1,0.3-1.1,0.8
						c-0.1,0.2-0.1,0.5-0.1,0.7c0,0.2,0.1,0.4,0.1,0.6c0.1-0.2,0.1-0.4,0.1-0.6c0-0.2,0.1-0.4,0.2-0.5c0.2-0.3,0.5-0.4,0.8-0.4
						c0.5,0,1-0.3,1.1-0.8c0.1-0.2,0.1-0.5,0-0.7c0-0.2-0.1-0.4-0.1-0.6C111.5,215,111.4,215.2,111.4,215.4z M136.2,185
						c0,0.2-0.1,0.4-0.2,0.5c-0.2,0.3-0.5,0.5-0.8,0.5c-0.5,0-1,0.3-1.1,0.8c-0.1,0.2-0.1,0.5-0.1,0.7c0,0.2,0.1,0.4,0.1,0.6
						c0.1-0.2,0.1-0.4,0.1-0.6c0-0.2,0.1-0.4,0.2-0.5c0.2-0.3,0.5-0.4,0.8-0.4c0.5,0,1-0.3,1.1-0.8c0.1-0.2,0.1-0.5,0-0.7
						c0-0.2-0.1-0.4-0.1-0.6C136.3,184.6,136.3,184.8,136.2,185z M136.2,241.6c0,0.2-0.1,0.4-0.2,0.5c-0.2,0.3-0.5,0.5-0.8,0.5
						c-0.5,0-1,0.3-1.1,0.8c-0.1,0.2-0.1,0.5-0.1,0.7c0,0.2,0.1,0.4,0.1,0.6c0.1-0.2,0.1-0.4,0.1-0.6c0-0.2,0.1-0.4,0.2-0.5
						c0.2-0.3,0.5-0.4,0.8-0.4c0.5,0,1-0.3,1.1-0.8c0.1-0.2,0.1-0.5,0-0.7c0-0.2-0.1-0.4-0.1-0.6
						C136.3,241.2,136.3,241.4,136.2,241.6z M92,216.6c0,0.2-0.1,0.4-0.2,0.5c-0.2,0.3-0.5,0.5-0.8,0.5c-0.5,0-1,0.3-1.1,0.8
						c-0.1,0.2-0.1,0.5-0.1,0.7c0,0.2,0.1,0.4,0.1,0.6c0.1-0.2,0.1-0.4,0.1-0.6c0-0.2,0.1-0.4,0.2-0.5c0.2-0.3,0.5-0.4,0.8-0.4
						c0.5,0,1-0.3,1.1-0.8c0.1-0.2,0.1-0.5,0-0.7c0-0.2-0.1-0.4-0.1-0.6C92,216.2,92,216.4,92,216.6z M129.3,200.5
						c0,0.2-0.1,0.4-0.2,0.5c-0.2,0.3-0.5,0.5-0.8,0.5c-0.5,0-1,0.3-1.1,0.8c-0.1,0.2-0.1,0.5-0.1,0.7c0,0.2,0.1,0.4,0.1,0.6
						c0.1-0.2,0.1-0.4,0.1-0.6c0-0.2,0.1-0.4,0.2-0.5c0.2-0.3,0.5-0.4,0.8-0.4c0.5,0,1-0.3,1.1-0.8c0.1-0.2,0.1-0.5,0-0.7
						c0-0.2-0.1-0.4-0.1-0.6C129.4,200.1,129.3,200.3,129.3,200.5z M103.6,197.1c0,0.2-0.1,0.4-0.2,0.5c-0.2,0.3-0.5,0.5-0.8,0.5
						c-0.5,0-1,0.3-1.1,0.8c-0.1,0.2-0.1,0.5-0.1,0.7c0,0.2,0.1,0.4,0.1,0.6c0.1-0.2,0.1-0.4,0.1-0.6c0-0.2,0.1-0.4,0.2-0.5
						c0.2-0.3,0.5-0.4,0.8-0.4c0.5,0,1-0.3,1.1-0.8c0.1-0.2,0.1-0.5,0-0.7c0-0.2-0.1-0.4-0.1-0.6
						C103.7,196.7,103.6,196.9,103.6,197.1z M103.6,236.2c0,0.2-0.1,0.4-0.2,0.5c-0.2,0.3-0.5,0.5-0.8,0.5c-0.5,0-1,0.3-1.1,0.8
						c-0.1,0.2-0.1,0.5-0.1,0.7c0,0.2,0.1,0.4,0.1,0.6c0.1-0.2,0.1-0.4,0.1-0.6c0-0.2,0.1-0.4,0.2-0.5c0.2-0.3,0.5-0.4,0.8-0.4
						c0.5,0,1-0.3,1.1-0.8c0.1-0.2,0.1-0.5,0-0.7c0-0.2-0.1-0.4-0.1-0.6C103.7,235.8,103.6,236,103.6,236.2z M123.5,188.9
						c0.2-0.1,0.3-0.2,0.5-0.2c0.3-0.1,0.7,0,0.9,0.2c0.3,0.3,0.9,0.5,1.3,0.3c0.2-0.1,0.4-0.3,0.5-0.4c0.1-0.2,0.2-0.3,0.3-0.5
						c-0.2,0.1-0.3,0.2-0.5,0.3c-0.2,0.1-0.3,0.2-0.5,0.2c-0.3,0.1-0.6,0-0.9-0.3c-0.4-0.3-0.9-0.4-1.4-0.2
						c-0.2,0.1-0.4,0.3-0.5,0.4c-0.1,0.2-0.2,0.3-0.3,0.5C123.1,189.2,123.3,189.1,123.5,188.9z M108.9,204.2
						c0.2-0.1,0.3-0.2,0.5-0.2c0.3-0.1,0.7,0,0.9,0.2c0.3,0.3,0.9,0.5,1.3,0.3c0.2-0.1,0.4-0.3,0.5-0.4c0.1-0.2,0.2-0.3,0.3-0.5
						c-0.2,0.1-0.3,0.2-0.5,0.3c-0.2,0.1-0.3,0.2-0.5,0.2c-0.3,0.1-0.6,0-0.9-0.3c-0.4-0.3-0.9-0.4-1.4-0.2
						c-0.2,0.1-0.4,0.3-0.5,0.4c-0.1,0.2-0.2,0.3-0.3,0.5C108.6,204.4,108.8,204.3,108.9,204.2z M98,225.8c0.2-0.1,0.3-0.2,0.5-0.2
						c0.3-0.1,0.7,0,0.9,0.2c0.3,0.3,0.9,0.5,1.3,0.3c0.2-0.1,0.4-0.3,0.5-0.4c0.1-0.2,0.2-0.3,0.3-0.5c-0.2,0.1-0.3,0.2-0.5,0.3
						c-0.2,0.1-0.3,0.2-0.5,0.2c-0.3,0.1-0.6,0-0.9-0.3c-0.4-0.3-0.9-0.4-1.4-0.2c-0.2,0.1-0.4,0.3-0.5,0.4
						c-0.1,0.2-0.2,0.3-0.3,0.5C97.6,226,97.8,225.9,98,225.8z M124,223.6c0.2-0.1,0.3-0.2,0.5-0.2c0.3-0.1,0.7,0,0.9,0.2
						c0.3,0.3,0.9,0.5,1.3,0.3c0.2-0.1,0.4-0.3,0.5-0.4c0.1-0.2,0.2-0.3,0.3-0.5c-0.2,0.1-0.3,0.2-0.5,0.3c-0.2,0.1-0.3,0.2-0.5,0.2
						c-0.3,0.1-0.6,0-0.9-0.3c-0.4-0.3-0.9-0.4-1.4-0.2c-0.2,0.1-0.4,0.3-0.5,0.4c-0.1,0.2-0.2,0.3-0.3,0.5
						C123.6,223.8,123.8,223.7,124,223.6z M114,239.3c0.2-0.1,0.3-0.2,0.5-0.2c0.3-0.1,0.7,0,0.9,0.2c0.3,0.3,0.9,0.5,1.3,0.3
						c0.2-0.1,0.4-0.3,0.5-0.4c0.1-0.2,0.2-0.3,0.3-0.5c-0.2,0.1-0.3,0.2-0.5,0.3c-0.2,0.1-0.3,0.2-0.5,0.2c-0.3,0.1-0.6,0-0.9-0.3
						c-0.4-0.3-0.9-0.4-1.4-0.2c-0.2,0.1-0.4,0.3-0.5,0.4c-0.1,0.2-0.2,0.3-0.3,0.5C113.7,239.6,113.8,239.5,114,239.3z
						 M140.6,232.4c-0.1-0.1-0.2-0.1-0.3-0.2c-0.4-0.3-0.9-0.4-1.4-0.2c-0.2,0.1-0.4,0.3-0.5,0.4c-0.1,0.2-0.2,0.3-0.3,0.5
						c0.2-0.1,0.3-0.2,0.5-0.3c0.2-0.1,0.3-0.2,0.5-0.2c0.3-0.1,0.7,0,0.9,0.2c0.1,0.2,0.3,0.3,0.6,0.3L140.6,232.4z"/>
					<g>
						<path class="st3" d="M138,182c-0.4,5.6-0.9,11.2-1.4,16.8c-0.5,5.6-1.1,11.2-1.7,16.8c-0.6,5.6-1.2,11.2-1.9,16.8l-1,8.4
							c-0.4,2.8-0.7,5.6-1.1,8.4c0.2-2.8,0.4-5.6,0.6-8.4l0.8-8.4c0.5-5.6,1.1-11.2,1.7-16.8c0.6-5.6,1.2-11.2,1.9-16.8
							C136.5,193.2,137.2,187.6,138,182z"/>
						<g>
							<path class="st3" d="M140.3,199.6c-0.1,0.6-0.6,1-1.1,1c-0.6-0.1-1-0.6-1-1.1c0.1-0.6,0.6-1,1.1-1
								C139.9,198.5,140.4,199,140.3,199.6z"/>
							<path class="st3" d="M138.9,210.4c-0.1,0.6-0.6,1-1.1,1c-0.6-0.1-1-0.6-1-1.1c0.1-0.6,0.6-1,1.1-1
								C138.6,209.3,139,209.8,138.9,210.4z"/>
							<path class="st3" d="M137.6,221.2c-0.1,0.6-0.6,1-1.1,1c-0.6-0.1-1-0.6-1-1.1c0.1-0.6,0.6-1,1.1-1
								C137.2,220.1,137.6,220.6,137.6,221.2z"/>
							<path class="st3" d="M136.2,232c-0.1,0.6-0.6,1-1.1,1c-0.6-0.1-1-0.6-1-1.1c0.1-0.6,0.6-1,1.1-1
								C135.8,230.9,136.3,231.4,136.2,232z"/>
							<path class="st3" d="M134.9,242.8c-0.1,0.6-0.6,1-1.1,1c-0.6-0.1-1-0.6-1-1.1c0.1-0.6,0.6-1,1.1-1
								C134.5,241.7,134.9,242.2,134.9,242.8z"/>
						</g>
					</g>
				</g>
				<g>
					<g>
						<g>
							<g>
								<g>
									<path class="st10" d="M135.1,183c-3.5-0.3-7.6-7.1-8.5-11.9c-0.1-0.3,1.3-3.1,2.8-6.6c0.9-2.1,1.8-4.5,2.6-6.7l13,7.9
										c0,0-2.9,4.3-4.1,8.2c-0.1,0.3-0.2,0.6-0.2,0.9c0,0,0,0.1,0,0.2C140.3,176.7,138.5,183.2,135.1,183z"/>
								</g>
								<path class="st3" d="M132.5,158.1c-0.4,2.9-1.5,13.6,6.6,16.4c0.5,0.2,1,0.3,1.5,0.4c0-0.1,0-0.1,0-0.2
									c0-0.3,0.1-0.6,0.2-0.9c1.2-3.9,4.1-8.2,4.1-8.2L132.5,158.1z"/>
							</g>
							<g>
								<g>
									<path class="st10" d="M132.3,143.7c-2.2,5-1.1,20.3,2.2,24.1c4.8,5.4,13.5,6.9,18.4,0.9c4.7-5.8,2.9-25.7-0.8-29.2
										C146.5,134.3,135.5,136.2,132.3,143.7z"/>
								</g>
								<g>
									<g>
										<path class="st3" d="M145.9,154.4C145.9,154.4,145.8,154.5,145.9,154.4c0,1.1,0,2.3-0.9,2.7c0,0,0,0.1,0,0.1
											C146.1,157,146.1,155.4,145.9,154.4z"/>
										<path class="st3" d="M144.9,153.4c-1.7,0-1.6,3.3,0,3.3C146.4,156.8,146.3,153.4,144.9,153.4z"/>
									</g>
									<g>
										<path class="st3" d="M151.6,154.3C151.6,154.3,151.7,154.4,151.6,154.3c0.1,1.1,0.2,2.3,1.2,2.6c0,0,0,0.1,0,0.1
											C151.6,156.9,151.4,155.3,151.6,154.3z"/>
										<path class="st3" d="M152.5,153.2c1.7-0.2,1.9,3.2,0.3,3.3C151.3,156.7,151.1,153.3,152.5,153.2z"/>
									</g>
									<path class="st3" d="M143.5,151.9c0.5-0.1,0.8-0.3,1.3-0.5c0.5-0.2,0.9-0.3,1.2-0.7c0.2-0.2,0.1-0.7-0.1-0.9
										c-0.5-0.4-1.2-0.3-1.8-0.1c-0.6,0.2-1.1,0.6-1.5,1.1C142.3,151.4,142.9,152.1,143.5,151.9z"/>
									<path class="st3" d="M153.7,151.5c-0.5-0.1-0.9-0.2-1.3-0.3c-0.5-0.1-0.9-0.2-1.3-0.6c-0.2-0.2-0.2-0.6,0-0.9
										c0.4-0.5,1.1-0.5,1.7-0.4c0.7,0.1,1.2,0.4,1.6,0.9C154.9,150.8,154.4,151.6,153.7,151.5z"/>
									<path class="st3" d="M144.9,164.1c0.3,0.2,0.5,0.6,0.9,0.6c0.4,0,0.8-0.2,1.1-0.3c0,0,0.1,0,0,0.1
										c-0.3,0.4-0.8,0.7-1.3,0.6C145.1,164.9,144.9,164.5,144.9,164.1C144.8,164,144.8,164,144.9,164.1z"/>
									<g>
										<g>
											<path class="st3" d="M145.9,160.9c0.6,0.9,1.5,1.3,2.4,1.5c0.4,0.1,0.8,0.1,1.3,0c0.1,0,0.2,0,0.2,0c0.1,0,0.1,0,0.2,0
												c0.1,0,0.2-0.1,0.2-0.2l0,0c0,0,0-0.1,0-0.1c0,0,0,0,0,0l0-0.1c0-0.8-0.1-2-0.1-2c0.3,0.1,1.8,0.8,1.8,0.4
												c-0.3-3.4-0.6-7.2-1.6-10.6c0-0.1-0.2-0.1-0.2,0c0.2,3.3,0.9,6.6,1.1,9.9c-0.5-0.2-1.3-0.5-1.7-0.5
												c-0.1,0,0.3,2.3,0.2,2.7c0,0,0,0,0,0C148.3,162.1,147.3,161.7,145.9,160.9C145.9,160.8,145.8,160.9,145.9,160.9z"/>
										</g>
									</g>
									<g>
										<path class="st3" d="M148.9,162.3c0,0-0.8,0.9-1.7,1.2c-0.4,0.1-0.7,0.1-1.1,0c-0.8-0.3-0.8-1-0.6-1.6
											c0.2-0.5,0.4-1,0.4-1S147,162,148.9,162.3z"/>
										<path class="st12" d="M147.2,163.4c-0.4,0.1-0.7,0.1-1.1,0c-0.8-0.3-0.8-1-0.6-1.6C146.4,161.9,147.2,162.6,147.2,163.4z"
											/>
									</g>
								</g>
								<path class="st3" d="M154.7,145.4C154.6,145.4,154.6,145.4,154.7,145.4C154.6,145.4,154.7,145.4,154.7,145.4
									C154.7,145.4,154.7,145.4,154.7,145.4z"/>
								<path class="st3" d="M154.7,145.5c-5,3.7-12.3-1.3-12.3-1.3c-1.5,4.1-5.5,3.8-5.5,3.8s-0.6,8.8-2.9,8.8
									c-3.5,0.1-5.1-11.7-4.1-14.1c1-2.4,4-3.1,4-3.1s0.1-1.8,2.2-3.6c2.3-1.9,10.7,0.2,10.7,0.2s0.5-1.6,2-2.9
									c0.9-0.9,2.3-0.8,3.1,0.2c-0.4,0.6-0.6,1.3-0.7,2.2c-0.3,2.6,1.8,2.5,1.7,0.2c-0.1-1-0.4-1.8-0.9-2.3c1-1.6,2.6-2.1,3.7-1.4
									C157.4,133.5,158.8,142.3,154.7,145.5z"/>
								<g>
									<path class="st10" d="M135.2,155.8c0,0-3-5.2-5.3-4.2c-2.3,1-0.4,8.3,2.1,9.5c2.5,1.2,3.7-1.1,3.7-1.1L135.2,155.8z"/>
									<path class="st3" d="M130.5,153.8C130.5,153.7,130.5,153.8,130.5,153.8c1.7,1,2.5,2.7,3,4.5c-0.5-0.7-1.2-1.2-2.1-0.6
										c-0.1,0,0,0.1,0,0.1c0.8-0.1,1.3,0.1,1.7,0.7c0.3,0.5,0.5,1,0.7,1.5c0.1,0.2,0.4,0.1,0.3-0.1c0,0,0,0,0,0
										C134.5,157.6,133,154.2,130.5,153.8z"/>
								</g>
							</g>
						</g>
					</g>
					<g>
						<path class="st6" d="M140.6,174.9l-3,6.7L127,169.7l-3.3,3.2c0,0,8.8,18.2,8.9,17.4l5.2-7l3.6,5.6l0.8-10.9L140.6,174.9z"/>
						<path class="st3" d="M142.1,182.6c0.1-2.1,0.2-2.3,0.2-4.4c0-0.1-0.1-0.1-0.1,0c-0.6,2-0.8,8.2-1,10.1c0,0,0,0,0,0
							c-0.2-0.2-3.3-5-3.3-4.9c-0.9,1.1-5,6.2-5.2,6.7c-1.4-2.9-6.7-13.4-8.4-16.2c0-0.1-0.2,0-0.1,0.1c1.2,3,8.2,17.2,8.4,17.2
							c0.1,0.1,4.9-6.2,5.4-7.4c0.7,1,3.8,6.3,3.8,6C141.9,187.4,142,184.7,142.1,182.6z"/>
					</g>
				</g>
				<g>
					<g>
						
							<rect x="157.1" y="259" transform="matrix(0.9397 0.342 -0.342 0.9397 128.9551 -34.1395)" class="st1" width="8.4" height="179.1"/>
						<polygon class="st13" points="195.8,265.9 191.1,278.9 182.6,277.9 188,263 						"/>
						
							<rect x="190" y="229" transform="matrix(0.9397 0.342 -0.342 0.9397 97.5314 -52.282)" class="st6" width="14.1" height="42.9"/>
					</g>
					<polygon class="st3" points="190.4,459.6 74.9,459.6 79.9,450.5 185.4,450.5 					"/>
					<g>
						<path class="st13" d="M176.4,455.4H88.9c0,0,6.1-36.5,43.8-36.5S176.4,455.4,176.4,455.4z"/>
						<path class="st2" d="M157.5,455.4h-49.7c0,0,3.5-20.8,24.9-20.8S157.5,455.4,157.5,455.4z"/>
					</g>
				</g>
				<g>
					<g>
						<path class="st10" d="M114.4,191c-0.7,8.1,0.3,43.3,3.7,49c6,10.4,38.5,24.4,46.1,27.1c3.3,1.2,14.6-25.2,11.2-26.7
							c-2.3-1-33.4-10.9-35.4-12.8c-2-2-10-26.1-13-39.3C123.9,175.8,115.9,173.8,114.4,191z"/>
						<g>
							<path class="st10" d="M205.8,249.1c0.4,3-2.4,4.3-2.4,4.3s1.6,1.8,1.5,4.1c-0.1,2.6-4.3,3.6-4.3,3.6s1.2,2.1,0.9,4.5
								c-0.4,2.5-4.4,4.1-4.4,4.1s0.1,2.6-1.7,4.5c-3.1,3.2-9.7,1.8-13.9,0.9c-4.2-0.9-15.3-7.2-17.6-8.2l5.2-27.1
								c0,0,20-1.5,24.8,0.2C197.9,241.4,205.3,245.8,205.8,249.1z"/>
							<g>
								<path class="st3" d="M203.3,253c-3.9-2.6-8.4-3.8-12.8-5.3c-0.1,0-0.1,0.1-0.1,0.2c4.4,1.4,8.4,3.8,12.8,5.4
									C203.3,253.2,203.4,253,203.3,253z"/>
								<path class="st3" d="M200.6,260.7c-0.9-0.6-2-0.8-3-1.1c-1.1-0.3-2.2-0.6-3.3-0.9c-2.2-0.6-4.4-1.1-6.6-1.5
									c-0.1,0-0.2,0.1-0.1,0.2c2.2,0.6,4.4,1.1,6.5,1.8c1.1,0.3,2.2,0.7,3.2,1c1,0.3,2,0.7,3.1,0.8
									C200.6,261,200.7,260.8,200.6,260.7z"/>
								<path class="st3" d="M196.9,269.7c-0.8-0.5-1.9-0.6-2.8-0.8c-1-0.2-2-0.5-3-0.7c-2-0.5-4-1-6-1.5c-0.1,0-0.2,0.1-0.1,0.2
									c2,0.6,4,1.2,6.1,1.7c1,0.3,2,0.5,3,0.8c0.8,0.2,1.9,0.6,2.8,0.5C197,269.8,197,269.7,196.9,269.7z"/>
							</g>
						</g>
					</g>
					<path class="st6" d="M170,237.8l-7.5,30.8c0,0-36.2-15-45.9-28.3c-4-5.5-5.2-37.7-3.1-50.6c2.2-12.9,9.3-18.8,14.5,0.2
						c5.2,19,10.5,35.8,11.7,36.3C140.9,226.8,170,237.8,170,237.8z"/>
					<path class="st4" d="M113.4,193.8c0.2-0.1,0.4-0.1,0.6-0.1c0.2,0,0.5,0,0.7,0c0.5,0.2,0.8,0.6,0.8,1.1c0,0.3,0.2,0.6,0.4,0.8
						c0.1,0.1,0.3,0.1,0.5,0.2c0.2,0,0.4,0.1,0.6,0.1c-0.2,0.1-0.4,0.1-0.6,0.1c-0.2,0-0.5,0-0.7-0.1c-0.4-0.2-0.8-0.7-0.8-1.1
						c0-0.3-0.2-0.6-0.5-0.8c-0.1-0.1-0.3-0.1-0.5-0.2C113.8,193.9,113.6,193.9,113.4,193.8z M125.1,233.6c0.2,0,0.4,0.1,0.5,0.2
						c0.3,0.2,0.5,0.5,0.5,0.8c0,0.5,0.3,1,0.8,1.1c0.2,0.1,0.5,0.1,0.7,0.1c0.2,0,0.4-0.1,0.6-0.1c-0.2-0.1-0.4-0.1-0.6-0.1
						c-0.2,0-0.4-0.1-0.5-0.2c-0.3-0.2-0.4-0.5-0.4-0.8c0-0.5-0.3-1-0.8-1.1c-0.2-0.1-0.5-0.1-0.7,0c-0.2,0-0.4,0.1-0.6,0.1
						C124.7,233.5,124.9,233.5,125.1,233.6z M156,263c0.2,0,0.4,0.1,0.5,0.2c0.3,0.2,0.5,0.5,0.5,0.8c0,0.5,0.3,1,0.8,1.1
						c0.2,0.1,0.5,0.1,0.7,0.1c0.2,0,0.4-0.1,0.6-0.1c-0.2-0.1-0.4-0.1-0.6-0.1c-0.2,0-0.4-0.1-0.5-0.2c-0.3-0.2-0.4-0.5-0.4-0.8
						c0-0.5-0.3-1-0.8-1.1c-0.2-0.1-0.5-0.1-0.7,0c-0.2,0-0.4,0.1-0.6,0.1C155.6,263,155.8,263,156,263z M120.3,211
						c0.2,0,0.4,0.1,0.5,0.2c0.3,0.2,0.5,0.5,0.5,0.8c0,0.5,0.3,1,0.8,1.1c0.2,0.1,0.5,0.1,0.7,0.1c0.2,0,0.4-0.1,0.6-0.1
						c-0.2-0.1-0.4-0.1-0.6-0.1c-0.2,0-0.4-0.1-0.5-0.2c-0.3-0.2-0.4-0.5-0.4-0.8c0-0.5-0.3-1-0.8-1.1c-0.2-0.1-0.5-0.1-0.7,0
						c-0.2,0-0.4,0.1-0.6,0.1C119.9,210.9,120.1,210.9,120.3,211z M145.2,257.5c0.2,0,0.4,0.1,0.5,0.2c0.3,0.2,0.5,0.5,0.5,0.8
						c0,0.5,0.3,1,0.8,1.1c0.2,0.1,0.5,0.1,0.7,0.1c0.2,0,0.4-0.1,0.6-0.1c-0.2-0.1-0.4-0.1-0.6-0.1c-0.2,0-0.4-0.1-0.5-0.2
						c-0.3-0.2-0.4-0.5-0.4-0.8c0-0.5-0.3-1-0.8-1.1c-0.2-0.1-0.5-0.1-0.7,0c-0.2,0-0.4,0.1-0.6,0.1
						C144.8,257.4,145,257.4,145.2,257.5z M152.1,238.8c0.2,0,0.4,0.1,0.5,0.2c0.3,0.2,0.5,0.5,0.5,0.8c0,0.5,0.3,1,0.8,1.1
						c0.2,0.1,0.5,0.1,0.7,0.1c0.2,0,0.4-0.1,0.6-0.1c-0.2-0.1-0.4-0.1-0.6-0.1c-0.2,0-0.4-0.1-0.5-0.2c-0.3-0.2-0.4-0.5-0.4-0.8
						c0-0.5-0.3-1-0.8-1.1c-0.2-0.1-0.5-0.1-0.7,0c-0.2,0-0.4,0.1-0.6,0.1C151.7,238.8,151.9,238.8,152.1,238.8z M136.9,221.1
						c-0.2,0-0.4,0.1-0.6,0.1c0.2,0.1,0.4,0.1,0.6,0.1c0.2,0,0.4,0.1,0.5,0.2c0.1,0,0.1,0.1,0.2,0.1c-0.1-0.2-0.1-0.4-0.2-0.5
						C137.2,221.1,137,221.1,136.9,221.1z M137.9,222.4c0,0.2,0.1,0.4,0.2,0.6C138,222.9,137.9,222.7,137.9,222.4z M167.3,239.5
						c-0.2,0.1-0.3,0.2-0.5,0.2c-0.3,0.1-0.7,0-0.9-0.2c-0.3-0.3-0.9-0.5-1.3-0.3c-0.2,0.1-0.4,0.3-0.5,0.4
						c-0.1,0.2-0.2,0.3-0.3,0.5c0.2-0.1,0.3-0.2,0.5-0.3c0.2-0.1,0.3-0.2,0.5-0.2c0.3-0.1,0.6,0,0.9,0.3c0.4,0.3,0.9,0.4,1.4,0.2
						c0.2-0.1,0.4-0.3,0.5-0.4c0.1-0.2,0.2-0.3,0.3-0.5C167.7,239.3,167.5,239.4,167.3,239.5z M137.2,252.6
						c-0.2,0.1-0.3,0.2-0.5,0.2c-0.3,0.1-0.7,0-0.9-0.2c-0.3-0.3-0.9-0.5-1.3-0.3c-0.2,0.1-0.4,0.3-0.5,0.4
						c-0.1,0.2-0.2,0.3-0.3,0.5c0.2-0.1,0.3-0.2,0.5-0.3c0.2-0.1,0.3-0.2,0.5-0.2c0.3-0.1,0.6,0,0.9,0.3c0.4,0.3,0.9,0.4,1.4,0.2
						c0.2-0.1,0.4-0.3,0.5-0.4c0.1-0.2,0.2-0.3,0.3-0.5C137.6,252.4,137.4,252.5,137.2,252.6z M133.9,210.5
						c-0.1,0.1-0.2,0.2-0.3,0.3c-0.1,0.2-0.2,0.3-0.3,0.5c0.2-0.1,0.3-0.2,0.5-0.3c0.1-0.1,0.2-0.1,0.2-0.2
						C134,210.8,134,210.6,133.9,210.5z M151.1,230.7c-0.1,0.1-0.2,0.3-0.3,0.4c-0.1,0.2-0.1,0.5-0.1,0.7c0,0.2,0.1,0.4,0.1,0.6
						c0.1-0.2,0.1-0.4,0.1-0.6c0-0.2,0.1-0.4,0.2-0.5c0.1-0.2,0.3-0.3,0.6-0.4C151.4,230.8,151.3,230.7,151.1,230.7z M136.2,241.6
						c0,0.2-0.1,0.4-0.2,0.5c-0.2,0.3-0.5,0.5-0.8,0.5c-0.5,0-1,0.3-1.1,0.8c-0.1,0.2-0.1,0.5-0.1,0.7c0,0.2,0.1,0.4,0.1,0.6
						c0.1-0.2,0.1-0.4,0.1-0.6c0-0.2,0.1-0.4,0.2-0.5c0.2-0.3,0.5-0.4,0.8-0.4c0.5,0,1-0.3,1.1-0.8c0.1-0.2,0.1-0.5,0-0.7
						c0-0.2-0.1-0.4-0.1-0.6C136.3,241.2,136.3,241.4,136.2,241.6z M158.9,252c0,0.2-0.1,0.4-0.2,0.5c-0.2,0.3-0.5,0.5-0.8,0.5
						c-0.5,0-1,0.3-1.1,0.8c-0.1,0.2-0.1,0.5-0.1,0.7c0,0.2,0.1,0.4,0.1,0.6c0.1-0.2,0.1-0.4,0.1-0.6c0-0.2,0.1-0.4,0.2-0.5
						c0.2-0.3,0.5-0.4,0.8-0.4c0.5,0,1-0.3,1.1-0.8c0.1-0.2,0.1-0.5,0-0.7c0-0.2-0.1-0.4-0.1-0.6C159,251.6,158.9,251.8,158.9,252z
						 M129.3,200.5c0,0.2-0.1,0.4-0.2,0.5c-0.2,0.3-0.5,0.5-0.8,0.5c-0.5,0-1,0.3-1.1,0.8c-0.1,0.2-0.1,0.5-0.1,0.7
						c0,0.2,0.1,0.4,0.1,0.6c0.1-0.2,0.1-0.4,0.1-0.6c0-0.2,0.1-0.4,0.2-0.5c0.2-0.3,0.5-0.4,0.8-0.4c0.5,0,1-0.3,1.1-0.8
						c0.1-0.2,0.1-0.5,0-0.7c0-0.2-0.1-0.4-0.1-0.6C129.4,200.1,129.3,200.3,129.3,200.5z M123.5,188.9c0.2-0.1,0.3-0.2,0.5-0.2
						c0.3-0.1,0.7,0,0.9,0.2c0.3,0.3,0.9,0.5,1.3,0.3c0.2-0.1,0.4-0.3,0.5-0.4c0.1-0.2,0.2-0.3,0.3-0.5c-0.2,0.1-0.3,0.2-0.5,0.3
						c-0.2,0.1-0.3,0.2-0.5,0.2c-0.3,0.1-0.6,0-0.9-0.3c-0.4-0.3-0.9-0.4-1.4-0.2c-0.2,0.1-0.4,0.3-0.5,0.4
						c-0.1,0.2-0.2,0.3-0.3,0.5C123.1,189.2,123.3,189.1,123.5,188.9z M124,223.6c0.2-0.1,0.3-0.2,0.5-0.2c0.3-0.1,0.7,0,0.9,0.2
						c0.3,0.3,0.9,0.5,1.3,0.3c0.2-0.1,0.4-0.3,0.5-0.4c0.1-0.2,0.2-0.3,0.3-0.5c-0.2,0.1-0.3,0.2-0.5,0.3c-0.2,0.1-0.3,0.2-0.5,0.2
						c-0.3,0.1-0.6,0-0.9-0.3c-0.4-0.3-0.9-0.4-1.4-0.2c-0.2,0.1-0.4,0.3-0.5,0.4c-0.1,0.2-0.2,0.3-0.3,0.5
						C123.6,223.8,123.8,223.7,124,223.6z M138.6,232.5c0.2-0.1,0.3-0.2,0.5-0.2c0.3-0.1,0.7,0,0.9,0.2c0.3,0.3,0.9,0.5,1.3,0.3
						c0.2-0.1,0.4-0.3,0.5-0.4c0.1-0.2,0.2-0.3,0.3-0.5c-0.2,0.1-0.3,0.2-0.5,0.3c-0.2,0.1-0.3,0.2-0.5,0.2c-0.3,0.1-0.6,0-0.9-0.3
						c-0.4-0.3-0.9-0.4-1.4-0.2c-0.2,0.1-0.4,0.3-0.5,0.4c-0.1,0.2-0.2,0.3-0.3,0.5C138.3,232.8,138.4,232.7,138.6,232.5z M117,239
						c-0.2,0.1-0.3,0.2-0.5,0.2c-0.2,0.1-0.4,0-0.6-0.1c0.1,0.2,0.2,0.4,0.2,0.5c0.2,0,0.3,0,0.5-0.1c0.2-0.1,0.4-0.3,0.5-0.4
						s0.2-0.3,0.3-0.5C117.3,238.8,117.2,238.9,117,239z M145.7,248.3c0.2-0.1,0.3-0.2,0.5-0.2c0.3-0.1,0.7,0,0.9,0.2
						c0.3,0.3,0.9,0.5,1.3,0.3c0.2-0.1,0.4-0.3,0.5-0.4c0.1-0.2,0.2-0.3,0.3-0.5c-0.2,0.1-0.3,0.2-0.5,0.3c-0.2,0.1-0.3,0.2-0.5,0.2
						c-0.3,0.1-0.6,0-0.9-0.3c-0.4-0.3-0.9-0.4-1.4-0.2c-0.2,0.1-0.4,0.3-0.5,0.4c-0.1,0.2-0.2,0.3-0.3,0.5
						C145.4,248.5,145.6,248.4,145.7,248.3z"/>
					<g>
						<path class="st3" d="M122.9,246.5c-2.5-1.9-5.2-4.2-6.7-6.8c-0.9-1.5-1-2.8-1.3-4.5c-0.3-1.8-0.6-3.7-0.8-5.5
							c-0.9-7.2-1.3-14.4-1.2-21.6c0.1-4.1,0.3-8.2,0.7-12.2c0-0.1-0.1-0.1-0.1,0c-0.5,3.3-0.9,6.6-1.1,9.9c0-0.5-0.1-1-0.1-1.4
							c-0.1-1.3-0.1-2.6-0.1-3.9c0-0.1-0.1-0.1-0.1,0c-0.1,1.3-0.1,2.7,0,4c0.1,0.7,0.1,1.5,0.3,2.2c-0.3,3.8-0.3,7.6-0.2,11.5
							c0.1,3.8,0.4,7.5,0.8,11.2c0.2,1.8,0.5,3.6,0.8,5.4c0.3,1.7,0.6,3.5,1.4,5.1c1.5,3.1,4.7,5.1,7.7,6.8
							C122.8,246.7,122.9,246.6,122.9,246.5z"/>
						<path class="st3" d="M140.4,226.3c-1.2-0.2-1.5-2-1.9-2.9c-0.4-1.2-0.9-2.4-1.3-3.6c-0.8-2.3-1.6-4.7-2.3-7.1
							c-0.6-1.9-1.2-3.9-1.7-5.9c-0.2-1.2-0.3-2.5-0.5-3.7c0-0.1-0.1-0.1-0.1,0c0.1,0.9,0.2,1.7,0.4,2.6c-0.7-2.5-1.4-5-2.2-7.5
							c0-0.1-0.1,0-0.1,0c0.9,4.1,1.8,8.1,2.9,12.1c1.1,4,2.3,8,3.9,11.8c0.4,1,0.8,2,1.3,2.9c0.4,0.7,0.8,1.1,1.6,1.3
							C140.4,226.5,140.5,226.3,140.4,226.3z"/>
						<path class="st3" d="M163.9,238.1c-0.8,2-1.4,4.1-2,6.2c-0.6,2.2-1.2,4.3-1.8,6.5c-0.6,2.2-2.6,10.9-3.1,13.1
							c0,0.1,0.1,0.1,0.2,0c0.6-2.2,3.2-10.7,3.8-12.8c0.6-2.1,1.1-4.3,1.6-6.4C163.1,242.5,163.7,240.3,163.9,238.1
							C164,238.1,163.9,238,163.9,238.1z"/>
					</g>
				</g>
			</g>
		</g>
	</g>
</g>
</svg>
