<?xml version="1.0" encoding="utf-8"?>
<!-- Generator: Adobe Illustrator 23.0.4, SVG Export Plug-In . SVG Version: 6.00 Build 0)  -->
<svg version="1.1" xmlns="http://www.w3.org/2000/svg" xmlns:xlink="http://www.w3.org/1999/xlink" x="0px" y="0px"
	 viewBox="0 0 399.74 334.86" style="enable-background:new 0 0 399.74 334.86;" xml:space="preserve">
<style type="text/css">
	.st0{display:none;}
	.st1{display:inline;fill:#FFFFFF;}
	.st2{opacity:0.1;fill:#569B94;}
	.st3{fill:#E97B7E;}
	.st4{fill:#861F5A;}
	.st5{fill:#26354D;}
	.st6{fill:#32476D;}
	.st7{fill:#F2AC8D;}
	.st8{opacity:0.6;fill:#F2AC8D;}
	.st9{opacity:0.6;}
	.st10{fill:#6D4C52;}
	.st11{fill:#EBD239;}
	.st12{fill:#D78C1B;}
	.st13{display:inline;}
	.st14{fill:#1D2626;}
</style>
<g id="BACKGROUND" class="st0">
	<rect x="-62.17" y="-68.06" class="st1" width="500" height="500"/>
</g>
<g id="OBJECTS_1_">
	<path id="BG" class="st2" d="M343.74,245.43c-5.46-11.34-12.58-21.8-18.44-32.93c-3.39-6.43-6.18-13.02-7.39-20.23
		c-1.16-6.93-0.6-14.04,0.72-20.9c2.55-13.26,7.99-25.76,11.04-38.9c5.01-21.58,3.15-44.52-4.99-65.1
		c-7.56-19.1-20.78-35.96-38.11-47.09c-18.23-11.71-40.17-15.6-61.45-12.29c-21.72,3.37-41.68,14.73-55.06,32.2
		c-6.67,8.7-11.5,18.7-15.04,29.04c-3.49,10.19-6.54,20.47-13.49,28.94c-11.51,14.02-30.36,14.92-47.14,15.52
		c-10.26,0.37-20.22,1.04-30.26,3.39c-10.36,2.43-20.46,6.25-29.67,11.6C25.82,133.7,7.7,161.5,5.62,193.33
		c-2.53,38.73,41.29,73.57,49.37,81.13c17.52,16.37,55.55,27.59,79.81,30.76c12.57,1.64,25.15,0.09,37.47-2.54
		c14.97-3.2,30.15-5.72,45.5-5.43c7.77,0.14,15.5,1.14,23.08,2.83c6.84,1.53,13.3,3.97,19.85,6.4c11.46,4.25,23.19,8.23,35.42,9.4
		c11.92,1.14,23.72-1.35,33.59-8.27c10.17-7.13,18.65-18.4,20.65-30.84C352.11,265.9,348.39,255.1,343.74,245.43z"/>
	<g id="_x30_1">
		<g>
			<path class="st3" d="M123.19,96.91c0,0-9.67-0.13-14,1.65c-4.33,1.78-32.67,15.15-43,15.63s-40-8.18-40-8.18l-4,17.77
				c0,0,7.67,25.02,39,31.56c26.33,5.5,38.33-8.35,38.33-8.35l-4.33,22.67c0,0,31.12,10.34,74.56,0
				c-4.56-10.34-8.44-26.34-8.44-26.34s24,32.06,59.77,5.86c20.1-13.86,2.28-29.82,2.28-29.82s-25.51,2.22-44.85-8.75
				c-19.33-10.96-22.81-12.68-29-13.73c-6.19-1.05-12.67-0.24-12.67-0.24S123.86,111.81,123.19,96.91z"/>
			<g>
				<g>
					<path class="st4" d="M102.71,119.2c-1.34,3.63-3.39,6.9-5.17,10.32c-1.22-3.52-3.61-6.32-6.77-8.28
						c-0.55-0.34-1.05,0.52-0.5,0.86c3.04,1.89,5.34,4.6,6.44,8.03c0.06,0.19,0.2,0.29,0.36,0.33c-0.52,1.04-1.01,2.1-1.43,3.19
						c-1.9,4.91-0.68,9.53,2.46,13.6c0.39,0.5,1.26,0.01,0.86-0.5c-3.58-4.64-4-9.29-1.63-14.57c1.95-4.34,4.69-8.23,6.35-12.71
						C103.9,118.86,102.93,118.6,102.71,119.2z"/>
					<path class="st4" d="M134.52,147.5c-6.08-0.7-12.11-2.9-14.9-8.75c-0.28-0.58-1.14-0.07-0.86,0.5
						c2.95,6.17,9.35,8.51,15.77,9.25C135.16,148.57,135.16,147.57,134.52,147.5z"/>
					<path class="st4" d="M164.21,147.65c-6.27-6.47-8.77-16.05-7.2-24.85c0.11-0.63-0.85-0.9-0.96-0.27
						c-0.76,4.27-0.6,8.71,0.45,12.92c-1.7-2.03-2.95-4.32-2.8-7.12c0.03-0.64-0.97-0.64-1,0c-0.2,3.75,1.91,6.72,4.42,9.29
						c1.31,3.98,3.44,7.68,6.39,10.73C163.95,148.82,164.66,148.11,164.21,147.65z"/>
					<path class="st4" d="M139.44,99.74c-1.11-0.03-2.21-0.15-3.32-0.2c-0.08,0.3-0.16,0.63-0.27,1c1.14,0.05,2.27,0.15,3.4,0.2
						c-0.25,1.38-0.53,2.77-0.86,4.14c-1.02-0.72-2.17-1.21-3.36-1.57c-0.1,0.31-0.2,0.63-0.31,0.95c1.14,0.35,2.24,0.82,3.22,1.52
						c0.06,0.05,0.13,0.07,0.19,0.08c-0.35,1.33-0.75,2.63-1.23,3.9c-1-0.71-2.24-1.49-3.49-1.92c-0.12,0.3-0.25,0.6-0.37,0.91
						c1.24,0.41,2.5,1.25,3.46,1.95c-0.5,1.19-1.04,2.35-1.7,3.44c-0.17,0.28-0.35,0.58-0.55,0.9c-0.01-0.02-0.02-0.03-0.03-0.05
						c-0.88-0.86-1.9-1.71-2.97-2.4c-0.15,0.3-0.31,0.59-0.47,0.89c0.98,0.65,1.92,1.43,2.73,2.22c0.08,0.08,0.16,0.11,0.25,0.13
						c-0.93,1.46-2.11,3.15-3.45,4.63c-0.48-1.15-1.08-2.26-1.86-3.22c-0.2,0.28-0.41,0.56-0.62,0.84c0.64,0.83,1.15,1.76,1.55,2.74
						c0.06,0.16,0.18,0.25,0.31,0.3c-1.51,1.53-3.2,2.72-4.96,2.98c0.04-0.96,0.12-1.92,0.26-2.87c-0.15,0.14-0.3,0.28-0.45,0.41
						c-0.15-0.39-0.3-0.78-0.43-1.18c-0.21,1.22-0.34,2.45-0.38,3.69c-0.59-0.04-1.19-0.18-1.79-0.47c-1.04-0.5-1.83-1.3-2.44-2.27
						c0.05-0.03,0.09-0.07,0.13-0.13c0.91-1.41,2.21-2.68,3.68-3.58c-0.08-0.34-0.16-0.68-0.23-1.03c-1.61,0.92-3.05,2.28-4.09,3.79
						c-0.6-1.28-0.96-2.77-1.18-4.27c1.47-0.94,3.09-1.79,4.82-2.08c-0.05-0.33-0.09-0.66-0.13-0.99c-1.73,0.29-3.34,1.06-4.83,1.97
						c-0.12-1.18-0.18-2.33-0.2-3.37c1.55-0.65,3.16-1.02,4.81-1.32c-0.02-0.34-0.03-0.67-0.05-1c-1.64,0.3-3.23,0.67-4.78,1.27
						c0-0.09,0-0.19,0-0.28c-0.02-1.31,0.02-2.63,0.09-3.94c1.53-0.59,3.12-0.86,4.7-1.19c0.01-0.35,0.03-0.7,0.05-1.03
						c-1.57,0.34-3.16,0.6-4.68,1.14c0.1-1.48,0.25-2.96,0.43-4.43c1.5-0.37,3.04-0.23,4.58-0.35c0.04-0.36,0.09-0.7,0.13-1.01
						c-1.54,0.17-3.07,0.01-4.58,0.3c0.13-0.95,0.28-1.89,0.43-2.83c-0.33,0.02-0.67,0.04-1.02,0.06
						c-0.74,4.65-1.21,9.37-1.11,14.08c-0.04,0.11-0.04,0.22,0.01,0.33c0,0.16,0,0.33,0.01,0.49c0.15,4.2,0.82,10.91,5.42,12.74
						c0.62,0.25,1.23,0.37,1.83,0.4c0.12,0.47,0.85,0.46,0.95-0.03c4.06-0.47,7.41-5.27,9.56-8.3c4.22-5.95,5.64-13.3,6.75-20.41
						c-0.35,0.01-0.69,0.02-1.01,0.04C139.8,97.52,139.63,98.62,139.44,99.74z"/>
				</g>
			</g>
		</g>
		<path class="st5" d="M148.37,248.6c-1.09-1.62-1.25-11.19-0.96-14.53c10.06-5.28,16.91-9.52,18.27-11.74
			c5.5-9-4.83-52.66-4.83-52.66c-1.82-0.37-8.64,0.17-16.27,0.97l-0.05-0.97c0,0-31.89,5.12-42.12,1.39c0,0-0.06,20.49,0.86,42.34
			c-24.89,16.49-69.15,44.67-81.09,53.26c0.33,5.33,5.33,15,8.67,18c16.71-5.68,47.8-18.47,75.95-31.14
			c0.68,3.76,1.47,6.8,2.39,8.81c7,15.33,70.64,19.37,73.33,19.67c1.33-8.33,4.14-18.67,4.14-18.67S149.71,250.6,148.37,248.6z"/>
		<g>
			<path class="st6" d="M149.53,66.07c0,0,1.16,13.89,11.79,18.52c0,3.41-12.23,12.71-28.18,12.31c-5.28-5.39,0-15.57,0-15.57
				l8.72-19.99L149.53,66.07z"/>
			<path class="st7" d="M146.18,66.16c0,0,6.68,19.51-9.65,23.17c1,4,0,8.5,0,8.5s-3.39,16.36-11.99,23.78
				c-4.34-10.98-1.34-24.7-1.34-24.7l-7.67-16.94L109.19,73l1.33-11.66l7.33-12.94L146.18,66.16z"/>
			<path class="st6" d="M117.52,57c0,0,3.33,13.67,23,12.33c-3-1.67-6-4.67-6-4.67s18.33,5.02,29.33-3.32
				c-4.67-3.68-16.67-38.22-46.33-19.78c-1.33-1.89-3-3.44-3.33,0c-4.67-1.23-5.33,1.63-1.67,3.37c-4.67,1.74-14,17.25-8.33,26.16
				s7,15.58,0,20.58c2,4.67,10.13,5.81,19,5.24c-1.33-9.24-3.67-19.2-3.67-19.2s-10,1.3-8.67-6.7s5.67-2,5.67-2S119.19,67,117.52,57
				z"/>
			<path class="st8" d="M113.19,71.07c-0.57,0.3-0.07,1.16,0.5,0.86c0.46-0.24,0.92-0.21,1.31-0.02c-0.63,0.54-1.04,1.18-1.07,2.09
				c-0.02,0.64,0.98,0.64,1,0c0.02-0.66,0.34-1.07,0.82-1.43c0.25,0.35,0.41,0.76,0.43,1.18c0.02,0.64,1.02,0.64,1,0
				C117.11,71.75,115.09,70.08,113.19,71.07z"/>
			<g class="st9">
				<g>
					<path class="st7" d="M130.82,91.19c-0.93-0.17-1.8-0.49-2.67-0.83c-0.6-0.24-0.86,0.73-0.27,0.96
						c0.87,0.35,1.74,0.67,2.67,0.83C131.19,92.26,131.46,91.3,130.82,91.19z"/>
					<g class="st9">
						<path class="st7" d="M136.52,89.33c0.21-0.05,0.41-0.11,0.62-0.16c-3.46,0.02-6.74,0.03-9.86-1.77
							c-0.56-0.32-1.06,0.54-0.5,0.86c3.15,1.82,6.44,1.92,9.93,1.91C136.65,89.89,136.59,89.61,136.52,89.33z"/>
					</g>
				</g>
			</g>
		</g>
		<path class="st7" d="M25.92,107.19c0,0-5.73-3.94-12.73-2.69c-6.58,1.18-6.28,13.29,9.99,14.89L25.92,107.19z"/>
		<g class="st9">
			<path class="st5" d="M154.7,219.81c3.25-2.81,3.06-7.71,2.9-11.64c-0.26-6.7-1.12-13.45-1.91-20.1
				c-0.72-6.1-1.66-12.17-2.84-18.2c-0.33,0.03-0.67,0.05-1.02,0.08c2.33,11.85,3.68,23.9,4.62,35.94
				c0.37,4.7,0.93,10.35-3.02,13.67c-1.92,1.62-4.01,3.05-6.11,4.43c-13.24,8.75-27.67,15.8-41.86,22.83
				c-25.22,12.5-50.96,23.86-76.44,35.77c0.2,0.27,0.4,0.53,0.6,0.77c5.25-2.38,10.54-4.69,15.77-7.08
				c16.82-7.7,33.61-15.47,50.26-23.53c15.48-7.5,30.99-15.11,45.79-23.9C146.03,226.13,150.66,223.3,154.7,219.81z"/>
			<path class="st5" d="M26.72,279.04c22.28-10.11,44.32-20.8,65.93-32.29c9.97-5.3,19.85-10.78,29.44-16.72
				c6.28-3.89,12.75-7.94,18.11-13.07c6.94-6.63,5.94-17.92,5.3-26.68c-0.5-6.83-1.51-13.6-2.74-20.33c-0.3,0.04-0.63,0.09-1,0.14
				c0.71,3.86,1.35,7.74,1.85,11.64c1.15,8.83,2.27,18.5,0.16,27.26c-1.5,6.23-7.14,10-12.08,13.52
				c-7.96,5.67-16.45,10.6-24.95,15.4c-26.11,14.74-53.19,27.89-80.5,40.26C26.4,278.46,26.56,278.75,26.72,279.04z"/>
			<path class="st5" d="M133.08,210.76c4.09-5.3,4.56-11.95,4.14-18.39c-0.47-7.14-1.59-14.26-2.81-21.33
				c-0.33,0.04-0.67,0.08-1.01,0.12c0.95,5.68,1.81,11.38,2.44,17.11c0.61,5.52,1.04,11.26-0.74,16.61
				c-1.68,5.08-5.68,8.81-9.86,11.9c-4.4,3.26-9.1,6.1-13.54,9.31C95.86,237.55,78.3,246.84,61.1,256.1
				c-9.79,5.27-19.64,10.41-29.52,15.5c-2.28,1.18-4.57,2.35-6.85,3.53c0.13,0.28,0.26,0.56,0.39,0.83c0.98-0.46,1.95-0.92,2.88-1.4
				c7.44-3.83,14.87-7.67,22.27-11.57c18.07-9.52,36.15-19.21,53.36-30.24c4.98-3.19,9.7-6.72,14.61-10
				C123.52,219.23,129.14,215.87,133.08,210.76z"/>
			<path class="st5" d="M23.14,271.06c30.02-18.23,60.01-36.6,89.41-55.82c2.92-1.91,5.84-3.81,8.66-5.86
				c3.05-2.22,4.15-5.54,4.84-9.16c1.22-6.33,1.03-12.97,0.67-19.38c-0.17-2.96-0.36-5.98-0.72-8.97c-0.32,0.03-0.64,0.05-0.96,0.08
				c0.79,5.74,0.94,11.68,0.91,17.37c-0.04,6.17,0.15,15.26-5.39,19.3c-11.83,8.62-24.59,16.1-36.98,23.88
				c-20.16,12.65-40.41,25.17-60.74,37.56C22.92,270.39,23.03,270.72,23.14,271.06z"/>
			<path class="st5" d="M118.42,200.68c0.42-0.76,0.74-1.57,1.01-2.4c0.01-0.02,0.01-0.04,0.02-0.06c1.11-3.49,1.05-7.47,1.15-11.02
				c0.14-4.98-0.1-9.97-0.6-14.93c-0.33,0.02-0.66,0.03-0.99,0.04c0.4,4.07,0.61,8.16,0.62,12.25c0.02,4.11,0.17,8.8-1.02,12.88
				c-3.11-0.86-3.03-9.46-3.15-11.61c-0.25-4.47-0.15-8.95-0.12-13.43c-0.33,0-0.67,0-1,0c-0.04,5.44-0.15,10.89,0.32,16.32
				c0.22,2.51,0.46,8.7,3.63,9.68c-0.14,0.41-0.28,0.82-0.46,1.21c-1.19,2.63-3.09,4.78-5.32,6.64
				c-0.04-11.29-0.51-22.58-0.49-33.87c-0.34-0.01-0.67-0.02-1-0.03c-0.02,11.57,0.48,23.13,0.5,34.7c-1.16,0.89-2.4,1.72-3.67,2.5
				c-0.02-12.49-0.43-24.98-0.48-37.47c-0.34-0.04-0.67-0.08-1-0.13c0.05,12.68,0.47,25.35,0.48,38.03c0,0.06,0.02,0.1,0.03,0.15
				c-1.21,0.72-2.44,1.41-3.65,2.08c0.01,0.36,0.03,0.72,0.04,1.09C109.08,210.01,115.13,206.6,118.42,200.68z"/>
			<path class="st5" d="M162.6,177.69c-1.4,0.51-2.83,0.95-4.21,1.49c-0.25,0.1-0.43,0.33-0.35,0.61
				c1.47,5.06,2.03,10.38,3.04,15.54c0.29,1.5,0.96,3.01,2.07,4.1c1.08,1.06,2.46,1.67,3.48,2.72c-0.06-0.51-0.11-1.02-0.17-1.53
				c-0.29-0.22-0.59-0.44-0.92-0.65c-2.14-1.37-3.14-3.15-3.62-5.62c-0.93-4.79-1.46-9.69-2.78-14.39c1.22-0.45,2.45-0.86,3.68-1.3
				C162.73,178.34,162.67,178.01,162.6,177.69z"/>
			<path class="st5" d="M141.77,252.63c-1.19-0.58-2.6-1.28-3.39-2.38c-1.95-2.71-1.77-6.25-2.45-9.4c3.79-1.81,7.59-3.59,11.4-5.33
				c0.02-0.42,0.04-0.79,0.06-1.12c-8.3,3.77-16.51,7.76-24.72,11.74c-5.23,2.54-10.68,4.88-15.82,7.67
				c0.07,0.35,0.13,0.71,0.2,1.05c1.31-0.72,2.64-1.41,3.98-2.08c0.23,3.17,1.48,6.22,3.21,8.87c1.64,2.51,4.48,3.57,7.1,4.79
				c7.16,3.34,14.84,5.54,22.52,7.29c12.87,2.93,26.02,4.3,39.16,5.38c0.06-0.33,0.12-0.66,0.19-0.99c-12.11-1-24.2-2.28-36.12-4.72
				c-7.06-1.45-14.05-3.34-20.78-5.94c-3.18-1.22-7.26-2.59-9.92-4.79c-2.63-2.19-4.16-6.71-4.37-10c-0.01-0.14-0.07-0.24-0.15-0.32
				c1.85-0.91,3.72-1.78,5.58-2.65c0.73,3.84,1.58,7.8,4.37,10.7c1.39,1.44,3.47,2.24,5.29,2.97c6.13,2.47,12.74,3.9,19.19,5.29
				c12.36,2.67,24.97,4.91,37.58,6.22c0.07-0.33,0.14-0.65,0.21-0.97c-11.79-1.23-23.56-3.32-35.15-5.71
				c-6.49-1.34-13-2.81-19.27-4.95c-2.04-0.7-4.09-1.48-5.93-2.63c-3.74-2.33-4.59-7.33-5.34-11.36c1.61-0.75,3.21-1.5,4.79-2.26
				c0.96-0.46,1.92-0.93,2.88-1.39c0.66,3.48,0.78,7.2,2.96,10.14c0.75,1.02,2.08,1.61,3.19,2.14c4.77,2.25,10.06,3.55,15.14,4.86
				c12.34,3.19,24.93,5.76,37.55,7.62c0.08-0.33,0.16-0.65,0.23-0.97c-11.62-1.73-23.18-4.09-34.59-6.88
				c-5.38-1.32-10.79-2.72-15.96-4.71c-1.51-0.58-3.18-1.23-4.43-2.3c-2.63-2.25-2.57-7.1-3.17-10.36c2.67-1.29,5.35-2.59,8.02-3.87
				c0.95,4.41,0.71,8.98,5.02,11.54c4.09,2.43,8.92,3.8,13.43,5.2c10.66,3.31,21.56,5.78,32.33,8.67c0.09-0.35,0.17-0.67,0.25-0.97
				c-10-2.69-20.09-5.03-30.02-7.96C151.2,256.33,146.29,254.85,141.77,252.63z"/>
		</g>
		<path class="st4" d="M22.62,269.17l-3.14,0.46c0,0-16.79-11.66-19.26-11.55c-2.47,0.11,16.19,30.44,17.58,30.02
			c1.4-0.41,10.27-6.89,10.27-6.89L22.62,269.17z"/>
		<path class="st4" d="M183.54,276.5l1.77,1.17c0,0,4.78,19.87,6.69,21.44c1.92,1.57,8.17-33.49,6.85-34.11
			c-1.32-0.62-12.25-1.69-12.25-1.69L183.54,276.5z"/>
		<g>
			<g>
				<path class="st5" d="M161.74,161.03c-9.64-10.97-20.54-21.08-32.51-29.45c-9.93-6.93-20.6-12.46-31.23-18.18
					c-6.27-3.37-21.46-10.81-16.5-20.16c1.94-3.66,6.63-5.34,10.36-6.38c4.09-1.13,8.4-1.57,12.64-1.59c1.41-0.01,2.81,0.1,4.2,0.27
					c0.06-0.26,0.11-0.53,0.14-0.8c-2.93-0.41-5.93-0.51-9-0.26c-6.61,0.56-16.41,2.2-19.57,8.97c-3.69,7.9,6.22,14.28,11.73,17.68
					c9.49,5.86,19.7,10.43,29.18,16.34c12.97,8.09,24.38,17.97,34.96,28.95c10.06,10.45,19.84,22.64,25.04,36.34
					c0.23,0.6,1.19,0.34,0.96-0.27C177.71,180.82,169.94,170.36,161.74,161.03z"/>
				<path class="st5" d="M185.79,158.71c-0.41-0.08-0.84-0.18-1.28-0.29c1.24,2.38,2.45,4.76,3.61,7.16
					c3.63,7.48,6.41,15.31,7.76,23.54c0.1,0.63,1.07,0.37,0.96-0.27C195.07,178.13,190.77,168.27,185.79,158.71z"/>
			</g>
			<g>
				<g>
					<path class="st10" d="M190.84,218.53C190.84,218.53,190.84,218.53,190.84,218.53c-6.35,0-11.7-3.97-13.96-10.37
						c-1.43-4.04-1.24-8.04,0.54-11.56c1.83-3.62,5.23-6.48,9.09-7.65c2.1-0.64,4.12-0.96,6.02-0.96c6.54,0,11.61,3.82,13.54,10.22
						c2.01,6.65-0.16,13.67-5.28,17.08C197.62,217.41,194.17,218.53,190.84,218.53z"/>
				</g>
			</g>
			<path class="st11" d="M203.32,199.16c-1.57-5.2-5.68-8.3-11-8.3c-1.54,0-3.19,0.26-4.89,0.78c-3.13,0.95-5.89,3.28-7.38,6.21
				c-1.45,2.86-1.6,6.11-0.44,9.39c1.83,5.19,6.18,8.42,11.33,8.42c2.71,0,5.5-0.91,8.09-2.63
				C203.19,210.26,204.95,204.56,203.32,199.16z M180.77,198.22c1.37-2.7,4.01-4.93,6.89-5.8c1.63-0.49,3.19-0.74,4.65-0.74
				c3.94,0,7.16,1.84,9.05,5.03c-0.03,0.01-0.06,0.01-0.09,0.03c-6.79,3.59-13.98,6.3-21.45,8.09
				C179.43,202.51,179.74,200.25,180.77,198.22z M193.46,201.48c0.93,1.49,2.23,4.55,0.4,5.77c-3.03,2.02-4.36-1.84-5.16-3.97
				C190.3,202.72,191.89,202.12,193.46,201.48z M198.58,212.36c-2.45,1.63-5.09,2.5-7.64,2.5c-4.8,0-8.85-3.02-10.57-7.88
				c-0.14-0.39-0.25-0.78-0.35-1.17c2.61-0.62,5.19-1.37,7.73-2.22c1.1,2.91,2.46,6.26,6.22,4.71c2.9-1.2,1.67-5.14,0.42-7.21
				c2.51-1.06,4.97-2.22,7.38-3.49c0.02-0.01,0.03-0.03,0.05-0.04c0.28,0.58,0.52,1.19,0.72,1.84
				C204.07,204.46,202.44,209.79,198.58,212.36z"/>
		</g>
	</g>
	<g id="_x30_2">
		<path class="st6" d="M229.64,173.6c0,0-0.55,5.73,0,12.07c-5.12,10.67-55.48,129.83-55.48,129.83s17.27,8.5,22.65,9
			c7.88-9,58.76-106,60.32-105c6.56,11,26.26,39,34.66,39.5c8.4,0.5,58.18-35.5,58.18-35.5l-6.78-16.5c0,0-39.5,14-41.5,12
			s-16.5-44.5-21-51.25C275.69,161.5,229.64,173.6,229.64,173.6z"/>
		<g>
			<g>
				<path class="st5" d="M247.15,179.15c0.87,0.04,1.24-0.93,1.32-1.63c0.08-0.71-0.18-1.59-0.82-1.97
					c-0.06-0.18-0.21-0.32-0.46-0.31C245.07,175.37,244.93,179.06,247.15,179.15z M246.98,176.32c0.02,0.01,0.03,0.02,0.04,0.03
					c0.52,0.24,0.69,1.45,0.18,1.79c-0.3,0.2-0.65-0.46-0.68-0.69C246.49,177.09,246.62,176.51,246.98,176.32z"/>
				<path class="st5" d="M241.72,210.82c0.59,0.25,0.85-0.72,0.27-0.96c-3.22-1.34-6.69-1.67-10.13-2.02c-0.64-0.06-0.64,0.94,0,1
					C235.22,209.17,238.58,209.51,241.72,210.82z"/>
				<path class="st5" d="M246.44,215.5c-21.35,33.93-37.22,71.97-56.78,106.88c0.32,0.12,0.63,0.24,0.95,0.36
					c19.52-34.87,35.03-71.94,56.35-105.82C247.3,216.37,246.78,214.96,246.44,215.5z"/>
				<path class="st5" d="M345.84,213.44c-7.29,3.44-14.77,6.52-22.18,9.7c-4.68,2.01-9.71,3.54-14.22,5.89
					c-2.16,1.12-5.38,3.89-7.53,1.57c-0.81-0.87-1.6-0.67-2.46,0.01c-2.06,1.63-1.91-1.17-2.98-1.97c-0.74-0.56-2.31,1.08-2.41,0.96
					c-3.9-4.44-6.57-9.95-8.94-15.32c-1.74-3.93-3.28-7.94-4.81-11.95c0.49-0.19,0.98-0.37,1.46-0.57c0.59-0.25,0.08-1.12-0.5-0.86
					c-0.43,0.19-0.87,0.35-1.31,0.51c-0.57-1.49-1.13-2.98-1.71-4.47c-2.62-6.77-5.51-13.44-7.83-20.33c0,0,0,0,0,0
					c4.4-0.95,8.72-2.2,13.11-3.17c-0.14-0.32-0.28-0.63-0.41-0.93c-3.93,0.88-7.82,1.96-11.75,2.87c-1.91,0.44-3.83,0.83-5.75,1.17
					c-0.21-2.19-0.47-4.36-0.95-6.52c-0.14-0.63-1.11-0.36-0.96,0.27c0.47,2.12,0.73,4.26,0.93,6.42c-0.43,0.07-0.86,0.15-1.29,0.22
					c-0.5-1.87-1.01-3.85-1.16-5.77c-0.05-0.64-1.05-0.64-1,0c0.15,1.98,0.65,4,1.16,5.92c-3.76,0.57-7.55,0.97-11.35,1.22
					c-0.2-2.41-0.33-4.81-0.31-7.19c0-0.65-1-0.64-1,0c-0.05,7.38,1.23,14.97,2.07,22.29c0.53,4.57,1.09,9.14,1.77,13.7
					c0.6,4.06,1.65,7.87,2.78,11.75c-0.77-0.9-1.62-1.72-2.53-2.52c-1.96-1.72-2.87-3.47-3.48-6c-0.73-3-1.21-6.07-1.75-9.11
					c-1.71-9.55-3.3-19.12-4.87-28.7c-0.1-0.64-1.07-0.36-0.96,0.27c0.35,2.14,0.71,4.27,1.06,6.41c-2.34,0.46-4.71,0.7-7.08,0.85
					c-0.03-2.13,0.15-4.26,0.17-6.39c0-0.65-1-0.64-1,0c-0.01,2.02-0.17,4.04-0.17,6.07c-0.55,0.08-1.1,0.14-1.65,0.21
					c0.12-2.15,0.15-4.29,0.14-6.44c0-0.65-1-0.65-1,0c0,2.24-0.02,4.48-0.16,6.72c-1.21,0.04-2.42,0.07-3.63,0.11
					c0,0.33,0.01,0.66,0.01,1c2.42-0.08,4.85-0.13,7.27-0.28c-0.17,6.85-4.7,12.34-11.19,13.93c-0.16,0.37-0.32,0.73-0.49,1.12
					c7.34-1.41,12.51-7.56,12.68-15.1c0-0.01,0-0.01,0-0.02c2.09-0.15,4.18-0.39,6.25-0.79c1.18,7.11,2.38,14.22,3.64,21.31
					c0.54,3.04,1.05,6.1,1.75,9.11c0.44,1.89,0.99,3.46,2.24,4.97c0.11,0.14,0.24,0.27,0.35,0.4c-4.22-1.5-9.2-0.9-13.36,0.37
					c-0.62,0.19-0.35,1.15,0.27,0.96c4.59-1.39,10.29-2.03,14.62,0.45c0.12,0.07,0.24,0.08,0.34,0.05c0.88,0.81,1.75,1.62,2.49,2.61
					c0.46-0.67,0.76-0.99,0.86-0.93c0.24,0.41,0.51,0.84,0.79,1.3c-0.15-0.52-0.31-1.04-0.46-1.55c1.81-4.15,8.2-5.78,12.2-6.76
					c0.63-0.15,0.36-1.12-0.27-0.96c-3.94,0.97-9.97,2.57-12.33,6.36c-0.97-3.34-1.88-6.64-2.42-10.12
					c-0.75-4.76-1.32-9.55-1.88-14.34c-0.54-4.63-1.24-9.38-1.68-14.11c2.81-0.19,5.61-0.46,8.4-0.82
					c0.98,4.06,2.31,8.95,5.88,11.54c2.57,1.86,6.93,4.22,10.21,3.72c0.06-0.01,0.11-0.03,0.16-0.06c1.08,2.71,2.17,5.42,3.25,8.12
					c-2.14,0.78-4.32,1.45-6.38,2.44c-0.58,0.28-0.07,1.14,0.5,0.86c2.01-0.97,4.14-1.64,6.24-2.39c0.61,1.53,1.22,3.05,1.82,4.58
					c3.25,8.28,6.73,16.82,12.67,23.57c0.17,0.19,0.54,0.2,0.71,0c2.21-2.6,1.33,0.38,2.9,1.2c0.55,0.29,1.28,0.31,1.82-0.05
					c1.13-0.76,1.72-0.73,2.64,0.3c1.29,1.45,4.43-0.47,5.63-1.09c3.39-1.76,6.83-3.19,10.39-4.6c9.51-3.78,19.03-7.82,28.29-12.25
					L345.84,213.44z M275.31,192.77c-2.86,0.44-6.51-1.78-8.87-3.2c-3.7-2.24-5.01-7.26-5.96-11.21c0.77-0.1,1.53-0.24,2.3-0.35
					c0.05,0.01,0.1,0.02,0.16,0.02c0.81-0.09,1.59-0.19,2.37-0.39c0.02-0.01,0.04-0.02,0.06-0.03c1.36-0.24,2.71-0.51,4.07-0.79
					c0,0.03,0,0.05,0.01,0.08c1.8,5.34,3.83,10.63,5.92,15.89C275.35,192.77,275.33,192.76,275.31,192.77z"/>
			</g>
		</g>
		<path class="st5" d="M178.44,317.54l-2,2.46c0,0-20.25,2.75-22,4.5s32.5,11.5,33.25,10.25s2.92-12.01,2.92-12.01L178.44,317.54z"
			/>
		<path class="st5" d="M348.36,219.58l2.18-0.08c0,0,15.4,13.43,17.87,13.6c2.47,0.16-12.74-32.04-14.17-31.78
			c-1.43,0.26-11.04,5.68-11.04,5.68L348.36,219.58z"/>
		<g>
			<path class="st10" d="M269,61.34c0,0,5.61,14.74-4.56,27.24c-1.75,1.87-3.5,2.42-3.75,0.17c-1,5.21-2.94,6.84-4.67,3.75
				c-1.72-3.09,1.89-11.75,1.89-11.75l1.28-6L269,61.34z"/>
			<path class="st7" d="M231.52,72.67c0,0-8.83,21.67,11.75,26.33c0.25,4.67,0,9.33,0,9.33s6.91,4.67,12.91,0
				c1.33-12,2.33-23.33,2.33-23.33s7,1.51,8-7.24c1-8.76-9.67-16.41-9.67-16.41L231.52,72.67z"/>
			<path class="st10" d="M257.69,54c0,0-4-10-8-9s0,7.5,0,7.5s-11.23-10.45-24.5-0.5c-11.33,8.5,0,10,0,10s-8.58,2.62-6.78,7.52
				c1.28,3.48,5.78-0.02,5.78-0.02s-7.5,13.17,9,5c-2.5,6.5,7,2,11.5-2.5c-5,9,5,7,12-4c0.5,3.5,5,7,5,7s4.33-0.99,4.83,2.76
				c3.67-4.42,5.83-20.09-3.33-22.59c2.46-2.25,3.67-6,1.33-7C263.29,47.64,259.88,49.83,257.69,54z"/>
			<g class="st9">
				<g>
					<path class="st7" d="M263.49,77.18c-2.6-0.7-4.23,1.88-4.47,4.15c-0.07,0.64,0.93,0.63,1,0c0.05-0.52,0.21-1.09,0.46-1.61
						c0.78,0.51,0.97,1.47,0.35,2.25c-0.4,0.5,0.31,1.21,0.71,0.71c0.98-1.24,0.84-2.96-0.52-3.8c0.54-0.62,1.28-0.99,2.2-0.74
						C263.85,78.32,264.11,77.35,263.49,77.18z"/>
					<g>
						<path class="st7" d="M252.94,96.98c-3.04,1.8-6.16,2.66-9.66,2.04c0.02,0.34,0.03,0.67,0.04,1.01
							c3.63,0.57,6.94-0.31,10.12-2.19C254,97.52,253.49,96.65,252.94,96.98z"/>
					</g>
				</g>
			</g>
		</g>
		<g>
			<path class="st11" d="M243.28,106.75c0,0-4.84,0.5-12.09,0s-28.26-13-30.38-17.25S192.47,62,192.83,49
				c-4.39-1.75-15.64,0-15.64,0s-7.5,23.25-3,42.5s26.5,33.5,50,44.75c-1,11.25-3.25,32.5-1,34s5,3.5,10.5,4.25s14.5-0.75,21-3.75
				c5,2,21.5-1.25,26-3s5.5-5.25,5-9s-6.25-26-6.25-26s38.75-27.67,43.08-46.87c4.33-19.21-8-48.54-8-48.54l-15.33,5.33
				c0,0,3,29.72-4.33,40.19c-7.33,10.47-15.67,15.21-21.33,17.34c-5.67,2.13-17.08,5.81-17.08,5.81s0.12,3.24-6.25,3.49
				S243.28,106.75,243.28,106.75z"/>
			<g class="st9">
				<g>
					<path class="st12" d="M266.5,149.31c-8,6.25-17.66,11.05-27.98,11.19c-0.64,0.01-0.65,1.01,0,1
						c10.6-0.14,20.47-5.07,28.69-11.48C267.72,149.62,267,148.92,266.5,149.31z"/>
					<g>
						<path class="st12" d="M220.34,114.53c-0.2-0.61-1.17-0.35-0.96,0.27c2.26,6.77,2.64,13.87,3.63,20.88
							c0.36,0.18,0.72,0.35,1.08,0.52C223.01,128.93,222.69,121.56,220.34,114.53z"/>
					</g>
					<g>
						<path class="st12" d="M200.28,122.93c0.29,0.19,0.57,0.39,0.87,0.58c2.85-8.76,7.6-16.66,14.08-23.32
							c-0.3-0.17-0.6-0.34-0.9-0.51C207.91,106.33,203.15,114.22,200.28,122.93z"/>
					</g>
					<g>
						<path class="st12" d="M279.27,97.48c-0.3,0.17-0.59,0.34-0.89,0.5c5.94,7.33,10,16.45,12.58,25.81
							c0.27-0.23,0.55-0.46,0.83-0.69C289.19,113.81,285.15,104.78,279.27,97.48z"/>
					</g>
					<g>
						<path class="st12" d="M278.02,120.33c0.3,4.14,0.59,8.29,1.54,12.32c0.16-0.11,0.46-0.33,0.88-0.65
							c-0.86-3.83-1.15-7.76-1.43-11.68C278.98,119.69,277.98,119.69,278.02,120.33z"/>
					</g>
					<g>
						<path class="st12" d="M272.27,160.9c-6.15,2.9-12.57,5.55-17.81,9.95c0.08-0.03,0.16-0.07,0.23-0.1
							c0.31,0.12,0.67,0.23,1.07,0.32c5.07-4.04,11.19-6.55,17.02-9.3C273.36,161.49,272.85,160.63,272.27,160.9z"/>
					</g>
				</g>
			</g>
			<path class="st7" d="M190.23,48.4c0.15,0.02,4.99-8.4,2.6-9.65c-2.39-1.25-3.89,2.5-3.89,2.5s1.75-9.25-4.25-8.75
				s-7,8.06-4.75,15.9C182.93,48.38,190.23,48.4,190.23,48.4z"/>
			<path class="st7" d="M302.48,41.56c-0.13,0.07-7.54-6.22-5.72-8.2c1.82-1.99,4.51,1.03,4.51,1.03s-4.78-8.11,1.03-9.67
				c5.81-1.56,9.32,5.21,9.86,13.35C309.34,39.06,302.48,41.56,302.48,41.56z"/>
		</g>
		<g>
			<path class="st3" d="M375.86,97.48c-1.77-0.56-26.99,19.14-45.67,22.38c-2.33,0.81-6.33,3.2-3.33,5.34
				c3,2.14,18.67,22.14,18.67,26.81s0.48,4.65,7.42,4.04c7.83-0.69,41.92-20.22,46.58-28.96
				C402.08,122.67,381.52,99.29,375.86,97.48z M346.36,142c-1.33-3.17-7.33-10.83-7.33-10.83l5-2c2.17,2.67,6.15,10.67,6.15,10.67
				S349.36,140.67,346.36,142z"/>
			<g>
				<path class="st5" d="M261.5,104.35c-1.54-0.76-3.09-1.51-4.64-2.24c-0.04,0.36-0.08,0.72-0.11,1.08c1.1,0.54,2.18,1.1,3.27,1.65
					L261.5,104.35z"/>
				<path class="st5" d="M325.81,123.32c0.06-0.37,0.24-0.73,0.52-1.07c-10.23,1.49-20.39,0.04-30.21-2.87l-0.9,0.78
					C305.15,123.18,315.38,124.72,325.81,123.32z"/>
				<path class="st5" d="M396.57,122.34c-1.19-2.23-2.59-4.34-4.04-6.4c-4.83-6.84-10.79-13.2-17.59-18.2
					c-0.28,0.13-0.61,0.3-1,0.52c6.43,4.67,12.02,10.57,16.78,16.9c1.25,1.66,2.41,3.39,3.51,5.15c0.79,1.27,2.26,3.08,2.28,4.62
					c0.04,2.59-3.29,5.26-4.99,6.82c-5.92,5.42-12.98,9.28-19.94,13.17c-3.74,2.09-7.45,4.24-11.28,6.17
					c-3.53,1.78-7.45,3.65-11.47,3.75c-0.06,0-0.1,0.02-0.15,0.03c-10.23,0.31-20.47,0.34-30.66-0.67
					c-10.67-1.05-21.13-3.44-31.29-6.82c-13.23-4.4-25.87-10.44-38.21-16.9c-5.71-2.99-10.75-6.78-14.95-11.69
					c-3.97-4.64-7.41-11.11-5.84-17.37c1.08-4.31,5-5.23,9.04-4.95c-0.6-0.36-1.13-0.75-1.64-1.16c-1.97,0.1-3.83,0.58-5.47,1.64
					c-3.07,1.99-3.54,6.07-3.21,9.4c0.54,5.45,3.88,10.33,7.41,14.31c7.83,8.82,19.27,13.55,29.73,18.44
					c9.89,4.62,20.07,8.67,30.59,11.63c18.14,5.11,36.78,5.73,55.5,5.12c0.1,0,0.18-0.04,0.25-0.08c3.08-0.32,6-1.54,8.8-2.82
					c4.59-2.09,8.95-4.7,13.35-7.17c7.57-4.25,15.22-8.49,21.5-14.6c1.54-1.5,3.69-3.66,3.9-5.94
					C397.59,124.11,397.1,123.32,396.57,122.34z"/>
			</g>
			<g>
				<path class="st4" d="M375.29,107.4c-0.46-0.45-1.17,0.25-0.71,0.71c5.4,5.32,8.97,14.05,6.37,21.51
					c-0.21,0.61,0.75,0.87,0.96,0.27C384.64,122.09,380.93,112.96,375.29,107.4z"/>
				<path class="st4" d="M367.19,132c-5.71-0.53-11.75-1.18-16.5-4.68c-0.52-0.38-1.02,0.49-0.5,0.86c4.89,3.6,11.13,4.28,17,4.82
					C367.83,133.06,367.83,132.06,367.19,132z"/>
				<path class="st4" d="M375.44,131.32c-5.49,3.39-11.69,5.06-18.12,3.95c-0.63-0.11-0.9,0.85-0.27,0.96
					c6.7,1.16,13.15-0.51,18.88-4.05C376.49,131.84,375.99,130.98,375.44,131.32z"/>
			</g>
		</g>
	</g>
</g>
<g id="DESIGNED_BY_FREEPIK" class="st0">
	<g class="st13">
		<g id="XMLID_319_">
			<g id="XMLID_338_">
				<path id="XMLID_346_" class="st14" d="M198.13,394.41c-0.43,0.44-0.8,0.93-1.11,1.45l-0.46-0.24c-0.07-0.3-0.35-0.5-0.66-0.47
					c-0.33,0.04-0.57,0.34-0.53,0.67c0.04,0.33,0.34,0.57,0.67,0.53c0.06-0.01,0.13-0.03,0.18-0.05l0.45,0.23
					c-0.25,0.55-0.43,1.14-0.54,1.74l0.75,0.13c0.23-1.31,0.85-2.51,1.79-3.47L198.13,394.41z"/>
				<path id="XMLID_345_" class="st14" d="M203.62,392.11c-0.17,0-0.34,0.01-0.51,0.02l-0.07-0.63c0.19-0.15,0.29-0.39,0.27-0.64
					c-0.05-0.39-0.4-0.67-0.79-0.63c-0.39,0.05-0.68,0.4-0.63,0.8c0.03,0.25,0.19,0.46,0.4,0.56l0.07,0.62
					c-0.71,0.12-1.4,0.33-2.06,0.65l0.33,0.68c0.93-0.45,1.94-0.67,2.99-0.67c0.5,0,0.99,0.05,1.48,0.16l0.16-0.74
					C204.72,392.17,204.17,392.11,203.62,392.11z"/>
				<path id="XMLID_344_" class="st14" d="M210.22,394.66c0.33-0.04,0.57-0.34,0.53-0.67c-0.04-0.33-0.34-0.57-0.67-0.53
					c-0.31,0.04-0.54,0.3-0.53,0.61l-0.42,0.36c-0.42-0.43-0.89-0.81-1.41-1.14l-0.4,0.64c1.13,0.71,2.02,1.73,2.56,2.92l0.69-0.31
					c-0.25-0.55-0.57-1.07-0.94-1.54l0.4-0.35C210.09,394.66,210.16,394.66,210.22,394.66z"/>
				<path id="XMLID_343_" class="st14" d="M203.07,402.32c-0.38,0.02-0.78,0.04-1.16,0.04c-0.88,0-1.73-0.06-2.48-0.18
					c-0.39-0.06-0.85-0.15-1.27-0.29c1.05,1.86,3.07,3.12,5.39,3.12c2.86,0,5.26-1.92,5.95-4.5c-0.68,0.45-1.5,0.83-2.46,1.12
					C205.87,401.99,204.49,402.23,203.07,402.32z"/>
				<path id="XMLID_339_" class="st14" d="M203.62,393.62c-3.35,0-6.08,2.67-6.08,5.94c0,0.42,0.04,0.85,0.14,1.26
					c0.67,0.48,2.71,0.89,5.35,0.73c2.88-0.17,5.3-0.96,6.67-2.16c-0.01-0.19-0.02-0.39-0.04-0.58
					C209.27,395.86,206.68,393.62,203.62,393.62z M201.46,400.14c-1.02,0-1.85-0.83-1.85-1.85c0-1.02,0.83-1.85,1.85-1.85
					s1.85,0.83,1.85,1.85C203.31,399.31,202.48,400.14,201.46,400.14z M206.2,399.23c-0.75,0-1.36-0.61-1.36-1.36
					s0.61-1.36,1.36-1.36s1.36,0.61,1.36,1.36S206.95,399.23,206.2,399.23z"/>
			</g>
			<path id="XMLID_336_" class="st14" d="M219.62,395.49c-0.29-0.12-0.8-0.31-1.38-0.24c-0.55,0.07-0.84,0.34-0.84,1.01v0.87h2.23
				v1.72h-2.23v5.45h-1.93v-5.45h-1.34v-1.72h1.34v-0.89c0-1.68,0.9-2.78,2.57-2.78c0.64,0,1.16,0.12,1.59,0.31V395.49z"/>
			<path id="XMLID_334_" class="st14" d="M224.33,398.82c-0.18-0.03-0.36-0.05-0.53-0.05c-0.9,0-1.51,0.55-1.51,1.61v3.91h-1.93
				v-7.17h1.87v0.78c0.45-0.67,1.14-0.98,2.02-0.98c0.41,0,0.85,0.13,1.09,0.34L224.33,398.82z"/>
			<path id="XMLID_331_" class="st14" d="M231.99,400.7c0,0.22-0.02,0.49-0.04,0.65h-5.09c0.21,1.04,0.93,1.49,1.84,1.49
				c0.62,0,1.29-0.25,1.81-0.69l1.13,1.24c-0.81,0.75-1.85,1.09-3.06,1.09c-2.2,0-3.72-1.5-3.72-3.75c0-2.26,1.48-3.8,3.63-3.8
				C230.57,396.93,231.99,398.47,231.99,400.7z M226.88,400.04h3.18c-0.18-0.92-0.73-1.44-1.56-1.44
				C227.58,398.6,227.05,399.15,226.88,400.04z"/>
			<path id="XMLID_328_" class="st14" d="M239.65,400.7c0,0.22-0.02,0.49-0.04,0.65h-5.08c0.21,1.04,0.93,1.49,1.84,1.49
				c0.62,0,1.3-0.25,1.81-0.69l1.13,1.24c-0.81,0.75-1.85,1.09-3.06,1.09c-2.2,0-3.72-1.5-3.72-3.75c0-2.26,1.48-3.8,3.63-3.8
				C238.22,396.93,239.64,398.47,239.65,400.7z M234.53,400.04h3.17c-0.18-0.92-0.73-1.44-1.56-1.44
				C235.24,398.6,234.7,399.15,234.53,400.04z"/>
			<path id="XMLID_325_" class="st14" d="M247.99,400.71c0,2.15-1.49,3.78-3.47,3.78c-0.96,0-1.64-0.38-2.11-0.93v3.71h-1.93v-10.13
				h1.89v0.79c0.47-0.58,1.15-0.98,2.14-0.98C246.5,396.93,247.99,398.56,247.99,400.71z M242.31,400.71c0,1.13,0.75,1.98,1.84,1.98
				c1.14,0,1.85-0.88,1.85-1.98c0-1.09-0.71-1.98-1.85-1.98C243.06,398.73,242.31,399.58,242.31,400.71z"/>
			<path id="XMLID_322_" class="st14" d="M251.1,394.78c0,0.7-0.54,1.23-1.24,1.23s-1.23-0.53-1.23-1.23c0-0.7,0.53-1.24,1.23-1.24
				S251.1,394.08,251.1,394.78z M250.84,404.3h-1.93v-7.17h1.93V404.3z"/>
			<path id="XMLID_320_" class="st14" d="M254.06,399.68l2.7-2.55h2.37l-3.48,3.38l3.5,3.8h-2.38l-2.72-2.9v2.9h-1.93v-10.66h1.93
				V399.68z"/>
		</g>
		<g>
			<path class="st14" d="M122.44,404.23v-1.05c-0.53,0.72-1.39,1.23-2.39,1.23c-1.85,0-3.15-1.41-3.15-3.71
				c0-2.26,1.29-3.72,3.15-3.72c0.95,0,1.82,0.47,2.39,1.25v-3.76h1.1v9.77H122.44z M122.44,402.32v-3.21
				c-0.39-0.62-1.24-1.14-2.12-1.14c-1.42,0-2.27,1.17-2.27,2.74s0.85,2.72,2.27,2.72C121.2,403.43,122.05,402.93,122.44,402.32z"/>
			<path class="st14" d="M124.96,400.69c0-2.05,1.46-3.71,3.49-3.71c2.14,0,3.4,1.67,3.4,3.79v0.28h-5.73
				c0.09,1.33,1.03,2.45,2.55,2.45c0.81,0,1.63-0.32,2.18-0.89l0.53,0.72c-0.7,0.7-1.65,1.08-2.81,1.08
				C126.47,404.41,124.96,402.9,124.96,400.69z M128.43,397.89c-1.51,0-2.26,1.27-2.31,2.36h4.64
				C130.75,399.2,130.04,397.89,128.43,397.89z"/>
			<path class="st14" d="M132.64,403.3l0.57-0.79c0.47,0.54,1.36,1.01,2.33,1.01c1.08,0,1.67-0.51,1.67-1.22
				c0-1.71-4.38-0.66-4.38-3.28c0-1.1,0.95-2.04,2.64-2.04c1.2,0,2.05,0.45,2.62,1.03l-0.51,0.76c-0.42-0.51-1.2-0.89-2.11-0.89
				c-0.97,0-1.57,0.48-1.57,1.11c0,1.55,4.38,0.53,4.38,3.28c0,1.19-0.95,2.14-2.78,2.14C134.33,404.41,133.35,404.06,132.64,403.3z
				"/>
			<path class="st14" d="M139.51,395.42c0-0.41,0.34-0.75,0.73-0.75c0.41,0,0.75,0.34,0.75,0.75c0,0.41-0.34,0.73-0.75,0.73
				C139.84,396.15,139.51,395.83,139.51,395.42z M139.7,404.23v-7.08h1.1v7.08H139.7z"/>
			<path class="st14" d="M142.61,406.05l0.56-0.82c0.59,0.7,1.29,0.97,2.3,0.97c1.17,0,2.27-0.57,2.27-2.12v-1.01
				c-0.51,0.72-1.38,1.26-2.37,1.26c-1.85,0-3.15-1.38-3.15-3.66c0-2.27,1.29-3.68,3.15-3.68c0.95,0,1.8,0.47,2.37,1.25v-1.07h1.1
				v6.87c0,2.34-1.64,3.08-3.37,3.08C144.26,407.11,143.44,406.87,142.61,406.05z M147.74,402.2v-3.09
				c-0.38-0.62-1.23-1.14-2.11-1.14c-1.42,0-2.27,1.13-2.27,2.7c0,1.55,0.85,2.7,2.27,2.7C146.51,403.36,147.36,402.81,147.74,402.2
				z"/>
			<path class="st14" d="M155.44,404.23v-4.63c0-1.25-0.63-1.64-1.58-1.64c-0.86,0-1.68,0.53-2.09,1.1v5.17h-1.1v-7.08h1.1v1.03
				c0.5-0.59,1.46-1.2,2.52-1.2c1.48,0,2.26,0.75,2.26,2.29v4.97H155.44z"/>
			<path class="st14" d="M157.96,400.69c0-2.05,1.46-3.71,3.49-3.71c2.14,0,3.4,1.67,3.4,3.79v0.28h-5.73
				c0.09,1.33,1.02,2.45,2.55,2.45c0.81,0,1.63-0.32,2.18-0.89l0.53,0.72c-0.7,0.7-1.66,1.08-2.81,1.08
				C159.47,404.41,157.96,402.9,157.96,400.69z M161.43,397.89c-1.51,0-2.26,1.27-2.31,2.36h4.64
				C163.75,399.2,163.04,397.89,161.43,397.89z"/>
			<path class="st14" d="M171.38,404.23v-1.05c-0.53,0.72-1.39,1.23-2.39,1.23c-1.85,0-3.15-1.41-3.15-3.71
				c0-2.26,1.29-3.72,3.15-3.72c0.95,0,1.82,0.47,2.39,1.25v-3.76h1.1v9.77H171.38z M171.38,402.32v-3.21
				c-0.4-0.62-1.25-1.14-2.12-1.14c-1.42,0-2.27,1.17-2.27,2.74s0.85,2.72,2.27,2.72C170.13,403.43,170.98,402.93,171.38,402.32z"/>
			<path class="st14" d="M177.72,404.23v-9.77h1.1v3.76c0.57-0.78,1.42-1.25,2.39-1.25c1.85,0,3.15,1.46,3.15,3.72
				c0,2.3-1.3,3.71-3.15,3.71c-1,0-1.86-0.51-2.39-1.23v1.05H177.72z M180.93,403.43c1.44,0,2.29-1.16,2.29-2.72
				s-0.85-2.74-2.29-2.74c-0.86,0-1.73,0.53-2.11,1.14v3.21C179.2,402.93,180.06,403.43,180.93,403.43z"/>
			<path class="st14" d="M185.56,406.01c0.16,0.07,0.43,0.12,0.6,0.12c0.48,0,0.81-0.16,1.05-0.75l0.47-1.07l-2.96-7.15h1.19
				l2.36,5.8l2.34-5.8h1.2l-3.54,8.51c-0.42,1.02-1.14,1.42-2.08,1.44c-0.23,0-0.6-0.04-0.81-0.1L185.56,406.01z"/>
		</g>
	</g>
</g>
</svg>
