<svg width="51" height="55" viewBox="0 0 51 55" fill="none" xmlns="http://www.w3.org/2000/svg">
<path d="M48.5538 27.5147C51.2029 22.5741 51.7438 17.6294 49.5357 13.8054C47.3273 9.98101 42.8063 7.98993 37.2259 7.80278C36.8205 7.13601 36.3816 6.4898 35.9112 5.86708C36.3967 5.2364 36.6615 4.46305 36.6648 3.66704C36.6678 1.6449 35.0313 0.00294257 33.0091 5.25151e-06C32.018 -0.00167322 31.068 0.399061 30.3773 1.11031C28.9372 0.391927 27.3519 0.0121741 25.7426 0.000424868C21.298 0.000424868 17.2618 2.9776 14.2984 7.799C8.67934 7.96769 4.11307 9.97261 1.90043 13.805C-0.312206 17.6378 0.236653 22.572 2.88485 27.513C0.593327 31.7415 -0.125476 35.9784 1.11029 39.5451C-0.339481 40.9521 -0.373889 43.2684 1.03309 44.7181C2.29361 46.0164 4.31323 46.1985 5.78524 45.147C8.41792 46.5905 11.375 47.3391 14.3773 47.3227C17.3306 52.0711 21.3346 55 25.7439 55C30.1528 55 34.1366 52.0849 37.0874 47.3558C38.3811 47.3231 39.6693 47.1767 40.9374 46.9186C42.0523 48.6088 44.3266 49.0754 46.0173 47.9605C47.0407 47.2853 47.6592 46.1427 47.6647 44.9166C47.6609 44.5427 47.5992 44.1718 47.4817 43.8168C48.2962 43.0925 48.9902 42.2432 49.5387 41.3012C51.7043 37.5486 51.3468 32.6684 48.5538 27.5147ZM47.9479 14.7218C49.7145 17.7817 49.4145 21.7005 47.4796 25.7338C45.7432 23.0961 43.6577 20.706 41.2802 18.6276C40.6718 15.5053 39.6496 12.4777 38.2405 9.62517C42.67 9.97891 46.1897 11.6767 47.9479 14.7218ZM36.1147 45.5242C33.5555 45.4659 31.013 45.0924 28.5448 44.4122C30.3962 43.6548 32.1951 42.774 33.9294 41.777C35.6716 40.7712 37.3455 39.65 38.9392 38.4218C38.2946 40.8971 37.3463 43.2826 36.1147 45.5242ZM33.0129 40.1896C30.6924 41.5295 28.2528 42.6519 25.7254 43.5415C23.1922 42.654 20.7475 41.5316 18.4233 40.1896C16.1124 38.8594 13.9283 37.3203 11.8986 35.5915C10.913 30.2976 10.9025 24.8686 11.8672 19.5709C13.9015 17.8186 16.0969 16.2614 18.4233 14.9207C20.7463 13.5746 23.1884 12.4467 25.7191 11.5504C30.8015 13.3543 35.5084 16.0776 39.6055 19.5848C40.0897 22.1952 40.3327 24.8451 40.3314 27.5C40.3365 30.1981 40.091 32.8912 39.598 35.5436C37.5515 37.2922 35.3477 38.8477 33.0146 40.1896H33.0129ZM12.5566 38.4663C14.1323 39.6773 15.7855 40.783 17.5064 41.777C19.2365 42.7728 21.0291 43.6561 22.8729 44.4206C20.4244 45.0924 17.9034 45.4617 15.3651 45.5209C14.1427 43.2935 13.1995 40.924 12.5566 38.4663ZM9.733 33.5924C7.90557 31.8002 6.30641 29.7894 4.97203 27.6057C6.29802 25.4103 7.8892 23.3869 9.7095 21.5805C9.18456 25.5664 9.19295 29.6048 9.733 33.5886V33.5924ZM15.3248 9.56013C17.8891 9.61762 20.4366 9.99276 22.9085 10.6776C21.0526 11.4434 19.2495 12.3313 17.511 13.3358C15.778 14.3362 14.1125 15.4482 12.5243 16.6651C13.1617 14.191 14.1016 11.8047 15.3231 9.56013H15.3248ZM38.9564 16.7028C37.358 15.4704 35.6804 14.345 33.934 13.3329C32.1951 12.3283 30.3911 11.4404 28.5348 10.6746C31.0147 9.9873 33.5702 9.61174 36.1432 9.55635C37.3715 11.8139 38.3164 14.2141 38.9564 16.7028ZM41.78 21.6132C43.5877 23.4029 45.1675 25.4095 46.4822 27.5873C45.1596 29.7592 43.5747 31.7604 41.7632 33.5454C42.0317 31.5413 42.1656 29.5217 42.1647 27.5C42.1635 25.5316 42.0338 23.5653 41.777 21.6132H41.78ZM32.9982 1.83331C34.0108 1.83331 34.8315 2.65408 34.8315 3.66662C34.8315 4.67915 34.0108 5.49992 32.9982 5.49992C31.9857 5.49992 31.1649 4.67915 31.1649 3.66662C31.1649 2.65408 31.9857 1.83331 32.9982 1.83331ZM25.7426 1.83331C27.0359 1.84506 28.3107 2.14509 29.4734 2.71073C29.3836 3.02166 29.3358 3.34351 29.3316 3.66704C29.3249 5.68539 30.9559 7.32693 32.9743 7.33364C33.493 7.33532 34.0061 7.22664 34.4795 7.01474C34.6771 7.27616 34.8697 7.54429 35.0577 7.81956C31.8778 7.99916 28.737 8.60886 25.7208 9.63272C22.7071 8.60886 19.5688 7.99874 16.3911 7.81956C18.9255 4.08581 22.1868 1.83331 25.7426 1.83331ZM3.49246 14.7218C5.26072 11.6582 8.81362 9.96087 13.2809 9.62056C11.8634 12.4488 10.8328 15.4549 10.2172 18.558C7.81409 20.6493 5.70594 23.0575 3.95068 25.7162C2.02674 21.6896 1.72797 17.7771 3.49246 14.7218ZM3.66492 44.0002C2.65239 44.0002 1.83162 43.1794 1.83162 42.1669C1.83162 41.1543 2.65239 40.3336 3.66492 40.3336C4.67746 40.3336 5.49823 41.1543 5.49823 42.1669C5.49823 43.1794 4.67746 44.0002 3.66492 44.0002ZM6.97779 43.7132C7.20816 43.2302 7.32901 42.7019 7.33153 42.1669C7.33153 40.1418 5.68999 38.4998 3.66492 38.4998C3.35105 38.504 3.03885 38.5489 2.73631 38.6337C1.9168 35.9167 2.42747 32.702 4.00607 29.4084C5.75293 32.0612 7.84934 34.4665 10.2391 36.5587C10.8634 39.6529 11.902 42.6494 13.3266 45.4667C11.1081 45.3505 8.9416 44.7521 6.97779 43.7132ZM25.7426 53.1667C22.2183 53.1667 18.9813 50.9557 16.4569 47.2816C19.5973 47.0877 22.6979 46.4788 25.6784 45.4713C28.6867 46.5107 31.8233 47.133 35.0002 47.321C32.48 50.9721 29.2544 53.1667 25.7426 53.1667ZM43.9981 46.7499C42.9855 46.7499 42.1647 45.9291 42.1647 44.9166C42.1647 43.9041 42.9855 43.0833 43.9981 43.0833C45.0106 43.0833 45.8314 43.9041 45.8314 44.9166C45.8314 45.9291 45.0106 46.7499 43.9981 46.7499ZM47.9479 40.3885C47.5447 41.0679 47.0478 41.6868 46.4721 42.2281C44.9951 40.8543 42.6834 40.9378 41.3096 42.4149C40.6776 43.0946 40.3281 43.9888 40.3314 44.9166C40.3314 45.0026 40.3507 45.0836 40.357 45.168C39.6328 45.3052 38.9006 45.4013 38.1654 45.4546C39.5942 42.6242 40.634 39.6135 41.2563 36.5041C43.6313 34.4186 45.7147 32.0231 47.4511 29.382C49.4623 33.5723 49.6511 37.4378 47.9479 40.3885Z" fill="url(#paint0_linear)"/>
<path d="M25.665 18.3335C20.6023 18.3335 16.498 22.4373 16.498 27.5C16.498 32.5627 20.6023 36.6665 25.665 36.6665C30.7272 36.6665 34.8315 32.5627 34.8315 27.5C34.8261 22.4399 30.7252 18.339 25.665 18.3335ZM25.665 34.8332C21.6149 34.8332 18.3314 31.5502 18.3314 27.5C18.3314 23.4499 21.6149 20.1668 25.665 20.1668C29.7147 20.1668 32.9982 23.4499 32.9982 27.5C32.9936 31.5485 29.713 34.829 25.665 34.8332Z" fill="url(#paint1_linear)"/>
<defs>
<linearGradient id="paint0_linear" x1="8.06147" y1="11.7983" x2="44.8096" y2="48.5455" gradientUnits="userSpaceOnUse">
<stop stop-color="#662D91"/>
<stop offset="0.437" stop-color="#3873B3"/>
<stop offset="1" stop-color="#00C9DD"/>
</linearGradient>
<linearGradient id="paint1_linear" x1="9.01032" y1="10.8486" x2="45.7584" y2="47.5967" gradientUnits="userSpaceOnUse">
<stop stop-color="#662D91"/>
<stop offset="0.437" stop-color="#3873B3"/>
<stop offset="1" stop-color="#00C9DD"/>
</linearGradient>
</defs>
</svg>
