<svg width="30" height="30" viewBox="0 0 30 30" fill="none" xmlns="http://www.w3.org/2000/svg">
<path d="M17.7488 15.0002L29.4305 3.31823C30.1907 2.55836 30.1907 1.32976 29.4305 0.569899C28.6706 -0.189966 27.442 -0.189966 26.6821 0.569899L15.0001 12.2519L3.31849 0.569899C2.55827 -0.189966 1.33003 -0.189966 0.570166 0.569899C-0.190055 1.32976 -0.190055 2.55836 0.570166 3.31823L12.2518 15.0002L0.570166 26.6822C-0.190055 27.4421 -0.190055 28.6707 0.570166 29.4305C0.948853 29.8096 1.44677 30 1.94433 30C2.44189 30 2.93945 29.8096 3.31849 29.4305L15.0001 17.7486L26.6821 29.4305C27.0612 29.8096 27.5587 30 28.0563 30C28.5539 30 29.0514 29.8096 29.4305 29.4305C30.1907 28.6707 30.1907 27.4421 29.4305 26.6822L17.7488 15.0002Z" fill="#2C5076"/>
</svg>
