<svg width="797" height="292" viewBox="0 0 797 292" fill="none" xmlns="http://www.w3.org/2000/svg">
<rect x="33.4336" y="44.9111" width="732.333" height="68.4916" rx="30" fill="#00E668"/>
<rect x="33.4336" y="44.9111" width="732.333" height="68.4916" rx="30" fill="url(#paint0_linear)"/>
<path d="M52.4623 10.0873V26.8873H50.7103V19.1353H40.1983V26.8873H38.4223V10.0873H40.1983V17.5753H50.7103V10.0873H52.4623ZM57.5857 14.2633H59.2897V26.8873H57.5857V14.2633ZM58.4497 11.5033C58.0977 11.5033 57.8017 11.3833 57.5617 11.1433C57.3217 10.9033 57.2017 10.6153 57.2017 10.2793C57.2017 9.95933 57.3217 9.67933 57.5617 9.43933C57.8017 9.19933 58.0977 9.07933 58.4497 9.07933C58.8017 9.07933 59.0977 9.19933 59.3377 9.43933C59.5777 9.66333 59.6977 9.93533 59.6977 10.2553C59.6977 10.6073 59.5777 10.9033 59.3377 11.1433C59.0977 11.3833 58.8017 11.5033 58.4497 11.5033ZM75.719 14.2633V25.3513C75.719 27.4953 75.191 29.0793 74.135 30.1033C73.095 31.1433 71.519 31.6633 69.407 31.6633C68.239 31.6633 67.127 31.4873 66.071 31.1353C65.031 30.7993 64.183 30.3273 63.527 29.7193L64.391 28.4233C64.999 28.9673 65.735 29.3913 66.599 29.6953C67.479 29.9993 68.399 30.1513 69.359 30.1513C70.959 30.1513 72.135 29.7753 72.887 29.0233C73.639 28.2873 74.015 27.1353 74.015 25.5673V23.9593C73.487 24.7593 72.791 25.3673 71.927 25.7833C71.079 26.1993 70.135 26.4073 69.095 26.4073C67.911 26.4073 66.831 26.1513 65.855 25.6393C64.895 25.1113 64.135 24.3833 63.575 23.4553C63.031 22.5113 62.759 21.4473 62.759 20.2633C62.759 19.0793 63.031 18.0233 63.575 17.0953C64.135 16.1673 64.895 15.4473 65.855 14.9353C66.815 14.4233 67.895 14.1673 69.095 14.1673C70.167 14.1673 71.135 14.3833 71.999 14.8153C72.863 15.2473 73.559 15.8713 74.087 16.6873V14.2633H75.719ZM69.263 24.8953C70.175 24.8953 70.999 24.7033 71.735 24.3193C72.471 23.9193 73.039 23.3673 73.439 22.6633C73.855 21.9593 74.063 21.1593 74.063 20.2633C74.063 19.3673 73.855 18.5753 73.439 17.8873C73.039 17.1833 72.471 16.6393 71.735 16.2553C71.015 15.8553 70.191 15.6553 69.263 15.6553C68.351 15.6553 67.527 15.8473 66.791 16.2313C66.071 16.6153 65.503 17.1593 65.087 17.8633C64.687 18.5673 64.487 19.3673 64.487 20.2633C64.487 21.1593 64.687 21.9593 65.087 22.6633C65.503 23.3673 66.071 23.9193 66.791 24.3193C67.527 24.7033 68.351 24.8953 69.263 24.8953ZM86.9161 14.1673C88.5001 14.1673 89.7561 14.6313 90.6841 15.5593C91.6281 16.4713 92.1001 17.8073 92.1001 19.5673V26.8873H90.3961V19.7353C90.3961 18.4233 90.0681 17.4233 89.4121 16.7353C88.7561 16.0473 87.8201 15.7033 86.6041 15.7033C85.2441 15.7033 84.1641 16.1113 83.3641 16.9273C82.5801 17.7273 82.1881 18.8393 82.1881 20.2633V26.8873H80.4841V9.07933H82.1881V16.4713C82.6521 15.7353 83.2921 15.1673 84.1081 14.7673C84.9241 14.3673 85.8601 14.1673 86.9161 14.1673Z" fill="white"/>
<path d="M35.2904 242.048V248H31.4024V242L24.8984 231.2H29.0264L33.5144 238.664L38.0024 231.2H41.8184L35.2904 242.048ZM47.8954 248.192C46.5354 248.192 45.3114 247.912 44.2234 247.352C43.1514 246.776 42.3114 245.984 41.7034 244.976C41.0954 243.968 40.7914 242.824 40.7914 241.544C40.7914 240.264 41.0954 239.12 41.7034 238.112C42.3114 237.104 43.1514 236.32 44.2234 235.76C45.3114 235.184 46.5354 234.896 47.8954 234.896C49.2554 234.896 50.4714 235.184 51.5434 235.76C52.6154 236.32 53.4554 237.104 54.0634 238.112C54.6714 239.12 54.9754 240.264 54.9754 241.544C54.9754 242.824 54.6714 243.968 54.0634 244.976C53.4554 245.984 52.6154 246.776 51.5434 247.352C50.4714 247.912 49.2554 248.192 47.8954 248.192ZM47.8954 245.12C48.8554 245.12 49.6394 244.8 50.2474 244.16C50.8714 243.504 51.1834 242.632 51.1834 241.544C51.1834 240.456 50.8714 239.592 50.2474 238.952C49.6394 238.296 48.8554 237.968 47.8954 237.968C46.9354 237.968 46.1434 238.296 45.5194 238.952C44.8954 239.592 44.5834 240.456 44.5834 241.544C44.5834 242.632 44.8954 243.504 45.5194 244.16C46.1434 244.8 46.9354 245.12 47.8954 245.12ZM70.486 235.088V248H66.934V246.464C66.438 247.024 65.846 247.456 65.158 247.76C64.47 248.048 63.726 248.192 62.926 248.192C61.23 248.192 59.886 247.704 58.894 246.728C57.902 245.752 57.406 244.304 57.406 242.384V235.088H61.15V241.832C61.15 243.912 62.022 244.952 63.766 244.952C64.662 244.952 65.382 244.664 65.926 244.088C66.47 243.496 66.742 242.624 66.742 241.472V235.088H70.486ZM81.8026 234.896C83.4026 234.896 84.6906 235.376 85.6666 236.336C86.6586 237.296 87.1546 238.72 87.1546 240.608V248H83.4106V241.184C83.4106 240.16 83.1866 239.4 82.7386 238.904C82.2906 238.392 81.6426 238.136 80.7946 238.136C79.8506 238.136 79.0986 238.432 78.5386 239.024C77.9786 239.6 77.6986 240.464 77.6986 241.616V248H73.9546V235.088H77.5306V236.6C78.0266 236.056 78.6426 235.64 79.3786 235.352C80.1146 235.048 80.9226 234.896 81.8026 234.896ZM104.009 235.088V245.84C104.009 248.208 103.393 249.968 102.161 251.12C100.929 252.272 99.1289 252.848 96.7609 252.848C95.5129 252.848 94.3289 252.696 93.2089 252.392C92.0889 252.088 91.1609 251.648 90.4249 251.072L91.9129 248.384C92.4569 248.832 93.1449 249.184 93.9769 249.44C94.8089 249.712 95.6409 249.848 96.4729 249.848C97.7689 249.848 98.7209 249.552 99.3289 248.96C99.9529 248.384 100.265 247.504 100.265 246.32V245.768C99.2889 246.84 97.9289 247.376 96.1849 247.376C95.0009 247.376 93.9129 247.12 92.9209 246.608C91.9449 246.08 91.1689 245.344 90.5929 244.4C90.0169 243.456 89.7289 242.368 89.7289 241.136C89.7289 239.904 90.0169 238.816 90.5929 237.872C91.1689 236.928 91.9449 236.2 92.9209 235.688C93.9129 235.16 95.0009 234.896 96.1849 234.896C98.0569 234.896 99.4809 235.512 100.457 236.744V235.088H104.009ZM96.9289 244.304C97.9209 244.304 98.7289 244.016 99.3529 243.44C99.9929 242.848 100.313 242.08 100.313 241.136C100.313 240.192 99.9929 239.432 99.3529 238.856C98.7289 238.264 97.9209 237.968 96.9289 237.968C95.9369 237.968 95.1209 238.264 94.4809 238.856C93.8409 239.432 93.5209 240.192 93.5209 241.136C93.5209 242.08 93.8409 242.848 94.4809 243.44C95.1209 244.016 95.9369 244.304 96.9289 244.304ZM47.6297 272.144C45.9657 272.144 44.4617 271.776 43.1177 271.04C41.7897 270.304 40.7417 269.288 39.9737 267.992C39.2217 266.68 38.8457 265.216 38.8457 263.6C38.8457 261.984 39.2217 260.528 39.9737 259.232C40.7417 257.92 41.7977 256.896 43.1417 256.16C44.4857 255.424 45.9897 255.056 47.6537 255.056C48.9017 255.056 50.0537 255.264 51.1097 255.68C52.1657 256.096 53.0617 256.704 53.7977 257.504L52.6697 258.632C51.3577 257.304 49.7017 256.64 47.7017 256.64C46.3737 256.64 45.1657 256.944 44.0777 257.552C42.9897 258.16 42.1337 258.992 41.5097 260.048C40.9017 261.104 40.5977 262.288 40.5977 263.6C40.5977 264.912 40.9017 266.096 41.5097 267.152C42.1337 268.208 42.9897 269.04 44.0777 269.648C45.1657 270.256 46.3737 270.56 47.7017 270.56C49.7177 270.56 51.3737 269.888 52.6697 268.544L53.7977 269.672C53.0617 270.472 52.1577 271.088 51.0857 271.52C50.0297 271.936 48.8777 272.144 47.6297 272.144ZM67.6532 266.216H57.0932C57.1892 267.528 57.6932 268.592 58.6052 269.408C59.5172 270.208 60.6692 270.608 62.0612 270.608C62.8452 270.608 63.5652 270.472 64.2212 270.2C64.8772 269.912 65.4452 269.496 65.9252 268.952L66.8852 270.056C66.3252 270.728 65.6212 271.24 64.7732 271.592C63.9412 271.944 63.0212 272.12 62.0132 272.12C60.7172 272.12 59.5652 271.848 58.5572 271.304C57.5652 270.744 56.7892 269.976 56.2292 269C55.6692 268.024 55.3892 266.92 55.3892 265.688C55.3892 264.456 55.6532 263.352 56.1812 262.376C56.7252 261.4 57.4612 260.64 58.3892 260.096C59.3332 259.552 60.3892 259.28 61.5572 259.28C62.7252 259.28 63.7732 259.552 64.7012 260.096C65.6292 260.64 66.3572 261.4 66.8852 262.376C67.4132 263.336 67.6772 264.44 67.6772 265.688L67.6532 266.216ZM61.5572 260.744C60.3412 260.744 59.3172 261.136 58.4852 261.92C57.6692 262.688 57.2052 263.696 57.0932 264.944H66.0452C65.9332 263.696 65.4612 262.688 64.6292 261.92C63.8132 261.136 62.7892 260.744 61.5572 260.744ZM71.1455 254.192H72.8495V272H71.1455V254.192ZM77.5908 254.192H79.2948V272H77.5908V254.192ZM87.4202 272.12C86.3962 272.12 85.4122 271.976 84.4682 271.688C83.5402 271.384 82.8122 271.008 82.2842 270.56L83.0522 269.216C83.5802 269.632 84.2442 269.976 85.0442 270.248C85.8442 270.504 86.6762 270.632 87.5402 270.632C88.6922 270.632 89.5402 270.456 90.0842 270.104C90.6442 269.736 90.9242 269.224 90.9242 268.568C90.9242 268.104 90.7722 267.744 90.4682 267.488C90.1642 267.216 89.7802 267.016 89.3162 266.888C88.8522 266.744 88.2362 266.608 87.4682 266.48C86.4442 266.288 85.6202 266.096 84.9962 265.904C84.3722 265.696 83.8362 265.352 83.3882 264.872C82.9562 264.392 82.7402 263.728 82.7402 262.88C82.7402 261.824 83.1802 260.96 84.0602 260.288C84.9402 259.616 86.1642 259.28 87.7322 259.28C88.5482 259.28 89.3642 259.392 90.1802 259.616C90.9962 259.824 91.6682 260.104 92.1962 260.456L91.4522 261.824C90.4122 261.104 89.1722 260.744 87.7322 260.744C86.6442 260.744 85.8202 260.936 85.2602 261.32C84.7162 261.704 84.4442 262.208 84.4442 262.832C84.4442 263.312 84.5962 263.696 84.9002 263.984C85.2202 264.272 85.6122 264.488 86.0762 264.632C86.5402 264.76 87.1802 264.896 87.9962 265.04C89.0042 265.232 89.8122 265.424 90.4202 265.616C91.0282 265.808 91.5482 266.136 91.9802 266.6C92.4122 267.064 92.6282 267.704 92.6282 268.52C92.6282 269.624 92.1642 270.504 91.2362 271.16C90.3242 271.8 89.0522 272.12 87.4202 272.12Z" fill="white"/>
<path d="M353.551 270.288H347.791V268.2H361.687V270.288H355.927V285H353.551V270.288ZM363.661 272.28H365.965V285H363.661V272.28ZM364.813 269.832C364.365 269.832 363.989 269.688 363.685 269.4C363.397 269.112 363.253 268.76 363.253 268.344C363.253 267.928 363.397 267.576 363.685 267.288C363.989 266.984 364.365 266.832 364.813 266.832C365.261 266.832 365.629 266.976 365.917 267.264C366.221 267.536 366.373 267.88 366.373 268.296C366.373 268.728 366.221 269.096 365.917 269.4C365.629 269.688 365.261 269.832 364.813 269.832ZM386.276 272.16C387.876 272.16 389.14 272.624 390.068 273.552C391.012 274.48 391.484 275.856 391.484 277.68V285H389.18V277.944C389.18 276.712 388.892 275.784 388.316 275.16C387.756 274.536 386.948 274.224 385.892 274.224C384.724 274.224 383.796 274.592 383.108 275.328C382.42 276.048 382.076 277.088 382.076 278.448V285H379.772V277.944C379.772 276.712 379.484 275.784 378.908 275.16C378.348 274.536 377.54 274.224 376.484 274.224C375.316 274.224 374.388 274.592 373.7 275.328C373.012 276.048 372.668 277.088 372.668 278.448V285H370.364V272.28H372.572V274.176C373.036 273.52 373.644 273.024 374.396 272.688C375.148 272.336 376.004 272.16 376.964 272.16C377.956 272.16 378.836 272.36 379.604 272.76C380.372 273.16 380.964 273.744 381.38 274.512C381.86 273.776 382.524 273.2 383.372 272.784C384.236 272.368 385.204 272.16 386.276 272.16ZM407.289 278.712C407.289 278.888 407.273 279.12 407.241 279.408H396.921C397.065 280.528 397.553 281.432 398.385 282.12C399.233 282.792 400.281 283.128 401.529 283.128C403.049 283.128 404.273 282.616 405.201 281.592L406.473 283.08C405.897 283.752 405.177 284.264 404.313 284.616C403.465 284.968 402.513 285.144 401.457 285.144C400.113 285.144 398.921 284.872 397.881 284.328C396.841 283.768 396.033 282.992 395.457 282C394.897 281.008 394.617 279.888 394.617 278.64C394.617 277.408 394.889 276.296 395.433 275.304C395.993 274.312 396.753 273.544 397.713 273C398.689 272.44 399.785 272.16 401.001 272.16C402.217 272.16 403.297 272.44 404.241 273C405.201 273.544 405.945 274.312 406.473 275.304C407.017 276.296 407.289 277.432 407.289 278.712ZM401.001 274.104C399.897 274.104 398.969 274.44 398.217 275.112C397.481 275.784 397.049 276.664 396.921 277.752H405.081C404.953 276.68 404.513 275.808 403.761 275.136C403.025 274.448 402.105 274.104 401.001 274.104Z" fill="white"/>
<path d="M736.795 240.24C735.083 240.24 733.539 239.872 732.163 239.136C730.787 238.384 729.707 237.352 728.923 236.04C728.139 234.712 727.747 233.232 727.747 231.6C727.747 229.968 728.139 228.496 728.923 227.184C729.707 225.856 730.787 224.824 732.163 224.088C733.539 223.336 735.083 222.96 736.795 222.96C738.507 222.96 740.051 223.336 741.427 224.088C742.803 224.824 743.883 225.848 744.667 227.16C745.451 228.472 745.843 229.952 745.843 231.6C745.843 233.248 745.451 234.728 744.667 236.04C743.883 237.352 742.803 238.384 741.427 239.136C740.051 239.872 738.507 240.24 736.795 240.24ZM736.795 237.504C737.915 237.504 738.923 237.256 739.819 236.76C740.715 236.248 741.419 235.544 741.931 234.648C742.443 233.736 742.699 232.72 742.699 231.6C742.699 230.48 742.443 229.472 741.931 228.576C741.419 227.664 740.715 226.96 739.819 226.464C738.923 225.952 737.915 225.696 736.795 225.696C735.675 225.696 734.667 225.952 733.771 226.464C732.875 226.96 732.171 227.664 731.659 228.576C731.147 229.472 730.891 230.48 730.891 231.6C730.891 232.72 731.147 233.736 731.659 234.648C732.171 235.544 732.875 236.248 733.771 236.76C734.667 237.256 735.675 237.504 736.795 237.504ZM748.863 222.192H751.863V240H748.863V222.192ZM768.352 222.192V240H765.472V238.344C764.976 238.952 764.36 239.408 763.624 239.712C762.904 240.016 762.104 240.168 761.224 240.168C759.992 240.168 758.88 239.896 757.888 239.352C756.912 238.808 756.144 238.04 755.584 237.048C755.024 236.04 754.744 234.888 754.744 233.592C754.744 232.296 755.024 231.152 755.584 230.16C756.144 229.168 756.912 228.4 757.888 227.856C758.88 227.312 759.992 227.04 761.224 227.04C762.072 227.04 762.848 227.184 763.552 227.472C764.256 227.76 764.856 228.192 765.352 228.768V222.192H768.352ZM761.584 237.6C762.304 237.6 762.952 237.44 763.528 237.12C764.104 236.784 764.56 236.312 764.896 235.704C765.232 235.096 765.4 234.392 765.4 233.592C765.4 232.792 765.232 232.088 764.896 231.48C764.56 230.872 764.104 230.408 763.528 230.088C762.952 229.752 762.304 229.584 761.584 229.584C760.864 229.584 760.216 229.752 759.64 230.088C759.064 230.408 758.608 230.872 758.272 231.48C757.936 232.088 757.768 232.792 757.768 233.592C757.768 234.392 757.936 235.096 758.272 235.704C758.608 236.312 759.064 236.784 759.64 237.12C760.216 237.44 760.864 237.6 761.584 237.6ZM730.63 264.144C728.966 264.144 727.462 263.776 726.118 263.04C724.79 262.304 723.742 261.288 722.974 259.992C722.222 258.68 721.846 257.216 721.846 255.6C721.846 253.984 722.222 252.528 722.974 251.232C723.742 249.92 724.798 248.896 726.142 248.16C727.486 247.424 728.99 247.056 730.654 247.056C731.902 247.056 733.054 247.264 734.11 247.68C735.166 248.096 736.062 248.704 736.798 249.504L735.67 250.632C734.358 249.304 732.702 248.64 730.702 248.64C729.374 248.64 728.166 248.944 727.078 249.552C725.99 250.16 725.134 250.992 724.51 252.048C723.902 253.104 723.598 254.288 723.598 255.6C723.598 256.912 723.902 258.096 724.51 259.152C725.134 260.208 725.99 261.04 727.078 261.648C728.166 262.256 729.374 262.56 730.702 262.56C732.718 262.56 734.374 261.888 735.67 260.544L736.798 261.672C736.062 262.472 735.158 263.088 734.086 263.52C733.03 263.936 731.878 264.144 730.63 264.144ZM750.653 258.216H740.093C740.189 259.528 740.693 260.592 741.605 261.408C742.517 262.208 743.669 262.608 745.061 262.608C745.845 262.608 746.565 262.472 747.221 262.2C747.877 261.912 748.445 261.496 748.925 260.952L749.885 262.056C749.325 262.728 748.621 263.24 747.773 263.592C746.941 263.944 746.021 264.12 745.013 264.12C743.717 264.12 742.565 263.848 741.557 263.304C740.565 262.744 739.789 261.976 739.229 261C738.669 260.024 738.389 258.92 738.389 257.688C738.389 256.456 738.653 255.352 739.181 254.376C739.725 253.4 740.461 252.64 741.389 252.096C742.333 251.552 743.389 251.28 744.557 251.28C745.725 251.28 746.773 251.552 747.701 252.096C748.629 252.64 749.357 253.4 749.885 254.376C750.413 255.336 750.677 256.44 750.677 257.688L750.653 258.216ZM744.557 252.744C743.341 252.744 742.317 253.136 741.485 253.92C740.669 254.688 740.205 255.696 740.093 256.944H749.045C748.933 255.696 748.461 254.688 747.629 253.92C746.813 253.136 745.789 252.744 744.557 252.744ZM754.146 246.192H755.85V264H754.146V246.192ZM760.591 246.192H762.295V264H760.591V246.192ZM770.42 264.12C769.396 264.12 768.412 263.976 767.468 263.688C766.54 263.384 765.812 263.008 765.284 262.56L766.052 261.216C766.58 261.632 767.244 261.976 768.044 262.248C768.844 262.504 769.676 262.632 770.54 262.632C771.692 262.632 772.54 262.456 773.084 262.104C773.644 261.736 773.924 261.224 773.924 260.568C773.924 260.104 773.772 259.744 773.468 259.488C773.164 259.216 772.78 259.016 772.316 258.888C771.852 258.744 771.236 258.608 770.468 258.48C769.444 258.288 768.62 258.096 767.996 257.904C767.372 257.696 766.836 257.352 766.388 256.872C765.956 256.392 765.74 255.728 765.74 254.88C765.74 253.824 766.18 252.96 767.06 252.288C767.94 251.616 769.164 251.28 770.732 251.28C771.548 251.28 772.364 251.392 773.18 251.616C773.996 251.824 774.668 252.104 775.196 252.456L774.452 253.824C773.412 253.104 772.172 252.744 770.732 252.744C769.644 252.744 768.82 252.936 768.26 253.32C767.716 253.704 767.444 254.208 767.444 254.832C767.444 255.312 767.596 255.696 767.9 255.984C768.22 256.272 768.612 256.488 769.076 256.632C769.54 256.76 770.18 256.896 770.996 257.04C772.004 257.232 772.812 257.424 773.42 257.616C774.028 257.808 774.548 258.136 774.98 258.6C775.412 259.064 775.628 259.704 775.628 260.52C775.628 261.624 775.164 262.504 774.236 263.16C773.324 263.8 772.052 264.12 770.42 264.12Z" fill="white"/>
<path d="M324.722 10.0873C326.178 10.0873 327.442 10.3273 328.514 10.8073C329.602 11.2873 330.434 11.9753 331.01 12.8713C331.586 13.7673 331.874 14.8313 331.874 16.0633C331.874 17.2793 331.586 18.3433 331.01 19.2553C330.434 20.1513 329.602 20.8393 328.514 21.3193C327.442 21.7993 326.178 22.0393 324.722 22.0393H320.93V26.8873H317.81V10.0873H324.722ZM324.578 19.3993C325.938 19.3993 326.97 19.1113 327.674 18.5353C328.378 17.9593 328.73 17.1353 328.73 16.0633C328.73 14.9913 328.378 14.1673 327.674 13.5913C326.97 13.0153 325.938 12.7273 324.578 12.7273H320.93V19.3993H324.578ZM337.44 15.9433C338.304 14.5993 339.824 13.9273 342 13.9273V16.7833C341.744 16.7353 341.512 16.7113 341.304 16.7113C340.136 16.7113 339.224 17.0553 338.568 17.7433C337.912 18.4153 337.584 19.3913 337.584 20.6713V26.8873H334.584V14.0713H337.44V15.9433ZM350.188 27.0553C348.892 27.0553 347.724 26.7753 346.684 26.2153C345.644 25.6553 344.828 24.8793 344.236 23.8873C343.66 22.8793 343.372 21.7433 343.372 20.4793C343.372 19.2153 343.66 18.0873 344.236 17.0953C344.828 16.1033 345.644 15.3273 346.684 14.7673C347.724 14.2073 348.892 13.9273 350.188 13.9273C351.5 13.9273 352.676 14.2073 353.716 14.7673C354.756 15.3273 355.564 16.1033 356.14 17.0953C356.732 18.0873 357.028 19.2153 357.028 20.4793C357.028 21.7433 356.732 22.8793 356.14 23.8873C355.564 24.8793 354.756 25.6553 353.716 26.2153C352.676 26.7753 351.5 27.0553 350.188 27.0553ZM350.188 24.4873C351.292 24.4873 352.204 24.1193 352.924 23.3833C353.644 22.6473 354.004 21.6793 354.004 20.4793C354.004 19.2793 353.644 18.3113 352.924 17.5753C352.204 16.8393 351.292 16.4713 350.188 16.4713C349.084 16.4713 348.172 16.8393 347.452 17.5753C346.748 18.3113 346.396 19.2793 346.396 20.4793C346.396 21.6793 346.748 22.6473 347.452 23.3833C348.172 24.1193 349.084 24.4873 350.188 24.4873ZM372.449 9.07933V26.8873H369.569V25.2313C369.073 25.8393 368.457 26.2953 367.721 26.5993C367.001 26.9033 366.201 27.0553 365.321 27.0553C364.089 27.0553 362.977 26.7833 361.985 26.2393C361.009 25.6953 360.241 24.9273 359.681 23.9353C359.121 22.9273 358.841 21.7753 358.841 20.4793C358.841 19.1833 359.121 18.0393 359.681 17.0473C360.241 16.0553 361.009 15.2873 361.985 14.7433C362.977 14.1993 364.089 13.9273 365.321 13.9273C366.169 13.9273 366.945 14.0713 367.649 14.3593C368.353 14.6473 368.953 15.0793 369.449 15.6553V9.07933H372.449ZM365.681 24.4873C366.401 24.4873 367.049 24.3273 367.625 24.0073C368.201 23.6713 368.657 23.1993 368.993 22.5913C369.329 21.9833 369.497 21.2793 369.497 20.4793C369.497 19.6793 369.329 18.9753 368.993 18.3673C368.657 17.7593 368.201 17.2953 367.625 16.9753C367.049 16.6393 366.401 16.4713 365.681 16.4713C364.961 16.4713 364.313 16.6393 363.737 16.9753C363.161 17.2953 362.705 17.7593 362.369 18.3673C362.033 18.9753 361.865 19.6793 361.865 20.4793C361.865 21.2793 362.033 21.9833 362.369 22.5913C362.705 23.1993 363.161 23.6713 363.737 24.0073C364.313 24.3273 364.961 24.4873 365.681 24.4873ZM388.781 14.0713V26.8873H385.925V25.2553C385.445 25.8313 384.845 26.2793 384.125 26.5993C383.405 26.9033 382.629 27.0553 381.797 27.0553C380.085 27.0553 378.733 26.5833 377.741 25.6393C376.765 24.6793 376.277 23.2633 376.277 21.3913V14.0713H379.277V20.9833C379.277 22.1353 379.533 22.9993 380.045 23.5753C380.573 24.1353 381.317 24.4153 382.277 24.4153C383.349 24.4153 384.197 24.0873 384.821 23.4313C385.461 22.7593 385.781 21.7993 385.781 20.5513V14.0713H388.781ZM398.589 27.0553C397.261 27.0553 396.069 26.7753 395.013 26.2153C393.957 25.6553 393.133 24.8793 392.541 23.8873C391.949 22.8793 391.653 21.7433 391.653 20.4793C391.653 19.2153 391.949 18.0873 392.541 17.0953C393.133 16.1033 393.949 15.3273 394.989 14.7673C396.045 14.2073 397.245 13.9273 398.589 13.9273C399.853 13.9273 400.957 14.1833 401.901 14.6953C402.861 15.2073 403.581 15.9433 404.061 16.9033L401.757 18.2473C401.389 17.6553 400.925 17.2153 400.365 16.9273C399.821 16.6233 399.221 16.4713 398.565 16.4713C397.445 16.4713 396.517 16.8393 395.781 17.5753C395.045 18.2953 394.677 19.2633 394.677 20.4793C394.677 21.6953 395.037 22.6713 395.757 23.4073C396.493 24.1273 397.429 24.4873 398.565 24.4873C399.221 24.4873 399.821 24.3433 400.365 24.0553C400.925 23.7513 401.389 23.3033 401.757 22.7113L404.061 24.0553C403.565 25.0153 402.837 25.7593 401.877 26.2873C400.933 26.7993 399.837 27.0553 398.589 27.0553ZM414.523 26.1913C414.171 26.4793 413.739 26.6953 413.227 26.8393C412.731 26.9833 412.203 27.0553 411.643 27.0553C410.235 27.0553 409.147 26.6873 408.379 25.9513C407.611 25.2153 407.227 24.1433 407.227 22.7353V16.5673H405.115V14.1673H407.227V11.2393H410.227V14.1673H413.659V16.5673H410.227V22.6633C410.227 23.2873 410.379 23.7673 410.683 24.1033C410.987 24.4233 411.427 24.5833 412.003 24.5833C412.675 24.5833 413.235 24.4073 413.683 24.0553L414.523 26.1913ZM416.99 14.0713H419.99V26.8873H416.99V14.0713ZM418.502 11.9593C417.958 11.9593 417.502 11.7913 417.134 11.4553C416.766 11.1033 416.582 10.6713 416.582 10.1593C416.582 9.64733 416.766 9.22333 417.134 8.88733C417.502 8.53533 417.958 8.35933 418.502 8.35933C419.046 8.35933 419.502 8.52733 419.87 8.86333C420.238 9.18333 420.422 9.59133 420.422 10.0873C420.422 10.6153 420.238 11.0633 419.87 11.4313C419.518 11.7833 419.062 11.9593 418.502 11.9593ZM429.688 27.0553C428.392 27.0553 427.224 26.7753 426.184 26.2153C425.144 25.6553 424.328 24.8793 423.736 23.8873C423.16 22.8793 422.872 21.7433 422.872 20.4793C422.872 19.2153 423.16 18.0873 423.736 17.0953C424.328 16.1033 425.144 15.3273 426.184 14.7673C427.224 14.2073 428.392 13.9273 429.688 13.9273C431 13.9273 432.176 14.2073 433.216 14.7673C434.256 15.3273 435.064 16.1033 435.64 17.0953C436.232 18.0873 436.528 19.2153 436.528 20.4793C436.528 21.7433 436.232 22.8793 435.64 23.8873C435.064 24.8793 434.256 25.6553 433.216 26.2153C432.176 26.7753 431 27.0553 429.688 27.0553ZM429.688 24.4873C430.792 24.4873 431.704 24.1193 432.424 23.3833C433.144 22.6473 433.504 21.6793 433.504 20.4793C433.504 19.2793 433.144 18.3113 432.424 17.5753C431.704 16.8393 430.792 16.4713 429.688 16.4713C428.584 16.4713 427.672 16.8393 426.952 17.5753C426.248 18.3113 425.896 19.2793 425.896 20.4793C425.896 21.6793 426.248 22.6473 426.952 23.3833C427.672 24.1193 428.584 24.4873 429.688 24.4873ZM446.669 13.9273C448.285 13.9273 449.581 14.3993 450.557 15.3433C451.533 16.2873 452.021 17.6873 452.021 19.5433V26.8873H449.021V19.9273C449.021 18.8073 448.757 17.9673 448.229 17.4073C447.701 16.8313 446.949 16.5433 445.973 16.5433C444.869 16.5433 443.997 16.8793 443.357 17.5513C442.717 18.2073 442.397 19.1593 442.397 20.4073V26.8873H439.397V14.0713H442.253V15.7273C442.749 15.1353 443.373 14.6873 444.125 14.3833C444.877 14.0793 445.725 13.9273 446.669 13.9273ZM473.739 26.8873L470.307 21.9673C470.163 21.9833 469.947 21.9913 469.659 21.9913H465.867V26.8873H462.747V10.0873H469.659C471.115 10.0873 472.379 10.3273 473.451 10.8073C474.539 11.2873 475.371 11.9753 475.947 12.8713C476.523 13.7673 476.811 14.8313 476.811 16.0633C476.811 17.3273 476.499 18.4153 475.875 19.3273C475.267 20.2393 474.387 20.9193 473.235 21.3673L477.099 26.8873H473.739ZM473.667 16.0633C473.667 14.9913 473.315 14.1673 472.611 13.5913C471.907 13.0153 470.875 12.7273 469.515 12.7273H465.867V19.4233H469.515C470.875 19.4233 471.907 19.1353 472.611 18.5593C473.315 17.9673 473.667 17.1353 473.667 16.0633ZM484.793 13.9273C486.681 13.9273 488.121 14.3833 489.113 15.2953C490.121 16.1913 490.625 17.5513 490.625 19.3753V26.8873H487.793V25.3273C487.425 25.8873 486.897 26.3193 486.209 26.6233C485.537 26.9113 484.721 27.0553 483.761 27.0553C482.801 27.0553 481.961 26.8953 481.241 26.5753C480.521 26.2393 479.961 25.7833 479.561 25.2073C479.177 24.6153 478.985 23.9513 478.985 23.2153C478.985 22.0633 479.409 21.1433 480.257 20.4553C481.121 19.7513 482.473 19.3993 484.313 19.3993H487.625V19.2073C487.625 18.3113 487.353 17.6233 486.809 17.1433C486.281 16.6633 485.489 16.4233 484.433 16.4233C483.713 16.4233 483.001 16.5353 482.297 16.7593C481.609 16.9833 481.025 17.2953 480.545 17.6953L479.369 15.5113C480.041 14.9993 480.849 14.6073 481.793 14.3353C482.737 14.0633 483.737 13.9273 484.793 13.9273ZM484.385 24.8713C485.137 24.8713 485.801 24.7033 486.377 24.3673C486.969 24.0153 487.385 23.5193 487.625 22.8793V21.3913H484.529C482.801 21.3913 481.937 21.9593 481.937 23.0953C481.937 23.6393 482.153 24.0713 482.585 24.3913C483.017 24.7113 483.617 24.8713 484.385 24.8713ZM502.179 26.1913C501.827 26.4793 501.395 26.6953 500.883 26.8393C500.387 26.9833 499.859 27.0553 499.299 27.0553C497.891 27.0553 496.803 26.6873 496.035 25.9513C495.267 25.2153 494.883 24.1433 494.883 22.7353V16.5673H492.771V14.1673H494.883V11.2393H497.883V14.1673H501.315V16.5673H497.883V22.6633C497.883 23.2873 498.035 23.7673 498.339 24.1033C498.643 24.4233 499.083 24.5833 499.659 24.5833C500.331 24.5833 500.891 24.4073 501.339 24.0553L502.179 26.1913ZM516.273 20.5513C516.273 20.7593 516.257 21.0553 516.225 21.4393H506.169C506.345 22.3833 506.801 23.1353 507.537 23.6953C508.289 24.2393 509.217 24.5113 510.321 24.5113C511.729 24.5113 512.889 24.0473 513.801 23.1193L515.409 24.9673C514.833 25.6553 514.105 26.1753 513.225 26.5273C512.345 26.8793 511.353 27.0553 510.249 27.0553C508.841 27.0553 507.601 26.7753 506.529 26.2153C505.457 25.6553 504.625 24.8793 504.033 23.8873C503.457 22.8793 503.169 21.7433 503.169 20.4793C503.169 19.2313 503.449 18.1113 504.009 17.1193C504.585 16.1113 505.377 15.3273 506.385 14.7673C507.393 14.2073 508.529 13.9273 509.793 13.9273C511.041 13.9273 512.153 14.2073 513.129 14.7673C514.121 15.3113 514.889 16.0873 515.433 17.0953C515.993 18.0873 516.273 19.2393 516.273 20.5513ZM509.793 16.3273C508.833 16.3273 508.017 16.6153 507.345 17.1913C506.689 17.7513 506.289 18.5033 506.145 19.4473H513.417C513.289 18.5193 512.897 17.7673 512.241 17.1913C511.585 16.6153 510.769 16.3273 509.793 16.3273Z" fill="white"/>
<path d="M716.948 6.2H718.724V21.464H728.132V23H716.948V6.2ZM735.693 23.12C734.477 23.12 733.381 22.848 732.405 22.304C731.429 21.744 730.661 20.976 730.101 20C729.541 19.024 729.261 17.92 729.261 16.688C729.261 15.456 729.541 14.352 730.101 13.376C730.661 12.4 731.429 11.64 732.405 11.096C733.381 10.552 734.477 10.28 735.693 10.28C736.909 10.28 738.005 10.552 738.981 11.096C739.957 11.64 740.717 12.4 741.261 13.376C741.821 14.352 742.101 15.456 742.101 16.688C742.101 17.92 741.821 19.024 741.261 20C740.717 20.976 739.957 21.744 738.981 22.304C738.005 22.848 736.909 23.12 735.693 23.12ZM735.693 21.608C736.589 21.608 737.389 21.408 738.093 21.008C738.813 20.592 739.373 20.008 739.773 19.256C740.173 18.504 740.373 17.648 740.373 16.688C740.373 15.728 740.173 14.872 739.773 14.12C739.373 13.368 738.813 12.792 738.093 12.392C737.389 11.976 736.589 11.768 735.693 11.768C734.797 11.768 733.989 11.976 733.269 12.392C732.565 12.792 732.005 13.368 731.589 14.12C731.189 14.872 730.989 15.728 730.989 16.688C730.989 17.648 731.189 18.504 731.589 19.256C732.005 20.008 732.565 20.592 733.269 21.008C733.989 21.408 734.797 21.608 735.693 21.608ZM763.756 10.376L758.98 23H757.372L753.388 12.656L749.404 23H747.796L743.044 10.376H744.676L748.636 21.104L752.692 10.376H754.156L758.188 21.104L762.196 10.376H763.756Z" fill="white"/>
<path d="M683.774 255.291C684.36 254.706 684.36 253.756 683.774 253.17L674.228 243.624C673.642 243.038 672.692 243.038 672.107 243.624C671.521 244.21 671.521 245.16 672.107 245.745L680.592 254.231L672.107 262.716C671.521 263.302 671.521 264.252 672.107 264.837C672.692 265.423 673.642 265.423 674.228 264.837L683.774 255.291ZM137.711 255.731H682.713V252.731H137.711V255.731Z" fill="white"/>
<path d="M437.797 262.24C429.795 262.24 423.309 268.727 423.309 276.729C423.309 284.731 429.795 291.218 437.797 291.218C445.799 291.218 452.286 284.731 452.286 276.729C452.277 268.731 445.796 262.249 437.797 262.24ZM438.832 276.729C438.832 277.3 438.369 277.764 437.797 277.764H429.518C428.946 277.764 428.483 277.3 428.483 276.729C428.483 276.157 428.946 275.694 429.518 275.694H436.762V268.45C436.762 267.878 437.226 267.415 437.797 267.415C438.369 267.415 438.832 267.878 438.832 268.45V276.729Z" fill="white"/>
<path d="M73.7441 191.985C73.0431 193.363 71.5475 194.146 70.0159 193.937C68.485 193.729 67.2536 192.573 66.9469 191.059C65.1329 182.091 54.0194 179.786 53.908 179.764C51.9402 179.373 50.6616 177.461 51.0521 175.494C51.4424 173.526 53.3541 172.247 55.3219 172.638C55.9747 172.768 71.304 175.961 74.0673 189.616C74.2309 190.42 74.1176 191.255 73.7441 191.985Z" fill="#8AEF53"/>
<path d="M63.2525 174.554C60.8157 173.244 58.2136 172.271 55.5161 171.66C53.014 171.171 50.5878 172.799 50.0915 175.299C49.5944 177.8 51.2138 180.231 53.7124 180.736C53.8196 180.758 64.2999 182.985 65.9726 191.253C66.363 193.182 67.931 194.655 69.8819 194.921C71.8323 195.189 73.7381 194.192 74.6322 192.437C75.1048 191.506 75.2499 190.443 75.0444 189.419C73.4651 181.62 68.0059 177.089 63.2525 174.554ZM71.0304 192.919C69.603 193.209 68.2118 192.286 67.923 190.858C65.9769 181.239 54.2195 178.809 54.1026 178.785C52.6738 178.502 51.7455 177.114 52.0288 175.686C52.3117 174.256 53.6999 173.328 55.1284 173.611C55.7528 173.735 70.4582 176.798 73.0923 189.812C73.3811 191.24 72.4578 192.631 71.0301 192.92L71.0304 192.919Z" fill="black"/>
<path d="M81.7215 193.894C80.2014 193.614 79.0247 192.404 78.7884 190.876C78.5519 189.349 79.3083 187.84 80.6729 187.114C88.7518 182.82 87.7942 171.51 87.784 171.397C87.5973 169.4 89.066 167.629 91.0625 167.443C93.0599 167.256 94.8307 168.724 95.0173 170.722C95.0783 171.385 96.3864 186.988 84.0845 193.528C83.361 193.914 82.5279 194.044 81.7215 193.894Z" fill="#8AEF53"/>
<path d="M95.4401 178.869C96.0012 176.16 96.1927 173.388 96.0097 170.629C95.7649 168.091 93.5134 166.229 90.9751 166.466C88.437 166.702 86.5678 168.947 86.7957 171.486C86.8053 171.595 87.657 182.276 80.2086 186.235C78.4704 187.159 77.5062 189.082 77.8065 191.027C78.106 192.973 79.6046 194.516 81.5412 194.873C82.5684 195.061 83.6291 194.897 84.552 194.408C91.5773 190.672 94.3653 184.148 95.4401 178.869ZM80.053 191.558C79.3684 190.272 79.8569 188.676 81.1431 187.992C89.8084 183.385 88.7878 171.423 88.7771 171.304C88.6408 169.854 89.7069 168.569 91.1569 168.433C92.6077 168.297 93.8931 169.363 94.0287 170.813C94.0876 171.447 95.3425 186.415 83.6187 192.649C82.3324 193.332 80.7359 192.844 80.0522 191.558L80.053 191.558Z" fill="black"/>
<path d="M50.7032 167.181C49.1675 167.355 47.6898 166.539 47.0196 165.146C46.3496 163.754 46.6345 162.09 47.7293 160.999C54.2112 154.542 50.0077 143.999 49.965 143.893C49.2058 142.037 50.0964 139.916 51.9527 139.157C53.8096 138.398 55.9306 139.288 56.6897 141.145C56.9408 141.761 62.7278 156.311 52.858 166.144C52.2779 166.724 51.5184 167.09 50.7032 167.181Z" fill="#8AEF53"/>
<path d="M59.4621 148.817C59.2116 146.062 58.5892 143.355 57.612 140.767C56.6401 138.41 53.9447 137.283 51.5848 138.248C49.2249 139.211 48.089 141.903 49.045 144.266C49.0859 144.368 53.0052 154.339 47.0293 160.293C45.6347 161.682 45.271 163.802 46.1239 165.576C46.9761 167.351 48.8583 168.392 50.8151 168.17C51.8525 168.051 52.8197 167.586 53.5608 166.85C59.1967 161.233 59.968 154.181 59.4621 148.817ZM48.4275 165.431C47.3988 164.4 47.4021 162.73 48.4342 161.702C55.3864 154.776 50.9328 143.626 50.888 143.516C50.3361 142.168 50.9825 140.628 52.3305 140.077C53.6791 139.525 55.2189 140.172 55.77 141.52C56.0107 142.109 61.5623 156.066 52.1565 165.438C51.1244 166.466 49.4548 166.463 48.4268 165.431L48.4275 165.431Z" fill="black"/>
<path d="M91.6501 158.896C92.2659 160.313 91.9172 161.965 90.781 163.013C89.6455 164.061 87.9707 164.275 86.6074 163.547C78.5376 159.235 69.6838 166.337 69.5956 166.408C68.0417 167.677 65.7529 167.446 64.4851 165.892C63.2163 164.338 63.4474 162.05 65.0013 160.781C65.5175 160.361 77.7402 150.573 90.0291 157.138C90.7528 157.523 91.3248 158.143 91.6501 158.896Z" fill="#8AEF53"/>
<path d="M71.5282 155.887C68.9666 156.932 66.5592 158.318 64.3704 160.009C62.4006 161.628 62.1107 164.535 63.7227 166.51C65.3341 168.485 68.2401 168.784 70.2204 167.179C70.3056 167.111 78.6962 160.448 86.1363 164.422C87.8727 165.35 90.0062 165.078 91.4541 163.744C92.9022 162.41 93.347 160.306 92.5634 158.499C92.1465 157.542 91.4188 156.753 90.4985 156.259C83.4795 152.511 76.5092 153.835 71.5282 155.887ZM90.6416 161.583C89.9561 162.868 88.3585 163.353 87.0737 162.667C78.4178 158.043 69.0571 165.561 68.9644 165.636C67.8367 166.558 66.1752 166.39 65.2542 165.262C64.3321 164.133 64.5003 162.472 65.6282 161.551C66.1216 161.148 77.8467 151.759 89.5587 158.015C90.8435 158.701 91.3283 160.299 90.6419 161.584L90.6416 161.583Z" fill="black"/>
<path d="M60.9432 135.213C60.8936 133.669 61.8269 132.262 63.2696 131.707C64.7114 131.152 66.347 131.571 67.3457 132.75C73.2566 139.734 84.1054 136.398 84.2138 136.364C86.1261 135.758 88.168 136.817 88.7735 138.729C89.3798 140.641 88.321 142.683 86.4087 143.289C85.7739 143.49 70.8032 148.079 61.8016 137.445C61.2711 136.82 60.9678 136.033 60.9432 135.213Z" fill="#8AEF53"/>
<path d="M78.5365 145.431C81.3029 145.405 84.052 145.004 86.7101 144.239C89.138 143.461 90.4795 140.866 89.7095 138.436C88.9403 136.006 86.3496 134.655 83.9169 135.417C83.8124 135.449 73.556 138.548 68.1062 132.11C66.8343 130.607 64.751 130.073 62.913 130.779C61.0751 131.485 59.8856 133.276 59.9476 135.245C59.9822 136.288 60.3675 137.29 61.041 138.088C66.1828 144.161 73.1501 145.501 78.5365 145.431ZM62.8714 133.087C63.9826 132.145 65.6464 132.284 66.5875 133.396C72.9278 140.886 84.4014 137.35 84.5152 137.315C85.9033 136.874 87.3857 137.643 87.8258 139.031C88.2667 140.42 87.4977 141.902 86.1095 142.342C85.5025 142.534 71.1413 146.937 62.562 136.803C61.6209 135.691 61.7595 134.027 62.8714 133.086L62.8714 133.087Z" fill="black"/>
<path d="M240.686 191.985C239.986 193.363 238.49 194.146 236.958 193.937C235.427 193.729 234.196 192.573 233.889 191.059C232.075 182.091 220.962 179.786 220.85 179.764C218.883 179.373 217.604 177.461 217.995 175.494C218.385 173.526 220.297 172.247 222.264 172.638C222.917 172.768 238.246 175.961 241.01 189.616C241.173 190.42 241.06 191.255 240.686 191.985Z" fill="#8AEF53"/>
<path d="M230.194 174.554C227.757 173.244 225.155 172.271 222.458 171.66C219.955 171.171 217.529 172.799 217.033 175.299C216.536 177.8 218.155 180.231 220.654 180.736C220.761 180.758 231.241 182.985 232.914 191.253C233.304 193.182 234.872 194.655 236.823 194.921C238.774 195.189 240.679 194.192 241.574 192.437C242.046 191.506 242.191 190.443 241.986 189.419C240.407 181.62 234.947 177.089 230.194 174.554ZM237.972 192.919C236.544 193.209 235.153 192.286 234.864 190.858C232.918 181.239 221.161 178.809 221.044 178.785C219.615 178.502 218.687 177.114 218.97 175.686C219.253 174.256 220.641 173.328 222.07 173.611C222.694 173.735 237.4 176.798 240.034 189.812C240.322 191.24 239.399 192.631 237.971 192.92L237.972 192.919Z" fill="black"/>
<path d="M248.664 193.894C247.144 193.614 245.967 192.404 245.731 190.876C245.494 189.349 246.251 187.84 247.615 187.114C255.694 182.82 254.737 171.51 254.726 171.397C254.54 169.4 256.008 167.629 258.005 167.443C260.002 167.256 261.773 168.724 261.96 170.722C262.021 171.385 263.329 186.988 251.027 193.528C250.303 193.914 249.47 194.044 248.664 193.894Z" fill="#8AEF53"/>
<path d="M262.381 178.869C262.943 176.16 263.134 173.388 262.951 170.629C262.706 168.091 260.455 166.229 257.917 166.466C255.378 166.702 253.509 168.947 253.737 171.486C253.747 171.595 254.598 182.276 247.15 186.235C245.412 187.159 244.448 189.082 244.748 191.027C245.047 192.973 246.546 194.516 248.483 194.873C249.51 195.061 250.57 194.897 251.493 194.408C258.519 190.672 261.307 184.148 262.381 178.869ZM246.994 191.558C246.31 190.272 246.798 188.676 248.085 187.992C256.75 183.385 255.729 171.423 255.719 171.304C255.582 169.854 256.648 168.569 258.098 168.433C259.549 168.297 260.835 169.363 260.97 170.813C261.029 171.447 262.284 186.415 250.56 192.649C249.274 193.332 247.677 192.844 246.994 191.558L246.994 191.558Z" fill="black"/>
<path d="M233.069 149.727C233.747 151.116 233.473 152.782 232.385 153.879C231.297 154.977 229.634 155.265 228.239 154.599C219.985 150.653 211.457 158.143 211.372 158.219C209.877 159.556 207.58 159.427 206.244 157.932C204.907 156.436 205.035 154.139 206.531 152.802C207.028 152.36 218.801 142.035 231.371 148.044C232.111 148.396 232.71 148.989 233.069 149.727Z" fill="#8AEF53"/>
<path d="M212.832 147.621C210.32 148.78 207.977 150.273 205.866 152.06C203.97 153.765 203.811 156.682 205.509 158.583C207.208 160.484 210.124 160.653 212.031 158.961C212.113 158.889 220.197 151.857 227.807 155.495C229.583 156.344 231.703 155.977 233.089 154.579C234.476 153.182 234.827 151.06 233.963 149.29C233.504 148.353 232.742 147.597 231.8 147.145C224.62 143.715 217.716 145.349 212.832 147.621ZM232.181 152.457C231.554 153.772 229.979 154.328 228.665 153.699C219.811 149.467 210.796 157.396 210.707 157.476C209.622 158.447 207.954 158.353 206.984 157.267C206.012 156.181 206.106 154.514 207.191 153.544C207.666 153.119 218.96 143.216 230.94 148.941C232.254 149.569 232.81 151.144 232.181 152.458L232.181 152.457Z" fill="black"/>
<path d="M252.578 149.75C254.017 150.313 254.942 151.725 254.884 153.27C254.826 154.814 253.796 156.152 252.319 156.605C243.571 159.286 242.362 170.571 242.35 170.684C242.154 172.681 240.375 174.14 238.38 173.943C236.384 173.747 234.924 171.969 235.12 169.973C235.187 169.31 236.868 153.743 250.188 149.66C250.972 149.418 251.814 149.45 252.578 149.75Z" fill="#FFFF00"/>
<path d="M236.255 161.894C235.189 164.447 234.475 167.131 234.13 169.876C233.888 172.413 235.745 174.669 238.282 174.919C240.818 175.17 243.08 173.321 243.339 170.785C243.35 170.676 244.544 160.028 252.609 157.557C254.491 156.98 255.803 155.276 255.878 153.308C255.954 151.341 254.776 149.541 252.942 148.823C251.97 148.443 250.897 148.403 249.898 148.707C242.291 151.04 238.314 156.916 236.255 161.894ZM253.773 152.36C254.201 153.753 253.418 155.227 252.025 155.654C242.643 158.53 241.371 170.468 241.359 170.587C241.217 172.037 239.926 173.096 238.477 172.953C237.027 172.811 235.967 171.52 236.11 170.071C236.173 169.437 237.785 154.503 250.48 150.612C251.873 150.185 253.347 150.968 253.774 152.361L253.773 152.36Z" fill="black"/>
<path d="M227.885 135.213C227.835 133.669 228.768 132.262 230.211 131.707C231.653 131.152 233.288 131.571 234.287 132.75C240.198 139.734 251.047 136.398 251.155 136.364C253.068 135.758 255.109 136.817 255.715 138.729C256.321 140.641 255.262 142.683 253.35 143.289C252.715 143.49 237.745 148.079 228.743 137.445C228.212 136.82 227.909 136.033 227.885 135.213Z" fill="#8AEF53"/>
<path d="M245.479 145.431C248.245 145.405 250.994 145.004 253.653 144.239C256.08 143.461 257.422 140.866 256.652 138.436C255.883 136.006 253.292 134.655 250.859 135.417C250.755 135.449 240.498 138.548 235.049 132.11C233.777 130.607 231.693 130.073 229.855 130.779C228.017 131.485 226.828 133.276 226.89 135.245C226.925 136.288 227.31 137.29 227.983 138.088C233.125 144.161 240.092 145.501 245.479 145.431ZM229.814 133.087C230.925 132.145 232.589 132.284 233.53 133.396C239.87 140.886 251.344 137.35 251.458 137.315C252.846 136.874 254.328 137.643 254.768 139.031C255.209 140.42 254.44 141.902 253.052 142.342C252.445 142.534 238.084 146.937 229.504 136.803C228.563 135.691 228.702 134.027 229.814 133.086L229.814 133.087Z" fill="black"/>
<path d="M378.725 172.84C379.545 171.53 381.104 170.882 382.611 171.225C384.118 171.568 385.242 172.828 385.414 174.364C386.429 183.456 397.296 186.734 397.405 186.766C399.331 187.328 400.435 189.346 399.873 191.271C399.31 193.196 397.293 194.301 395.367 193.739C394.729 193.551 379.741 189.018 378.194 175.172C378.102 174.357 378.289 173.535 378.725 172.84Z" fill="#FFFF00"/>
<path d="M387.638 191.13C389.949 192.65 392.455 193.849 395.088 194.696C397.538 195.403 400.098 193.996 400.813 191.549C401.529 189.103 400.131 186.538 397.686 185.814C397.581 185.783 387.339 182.639 386.403 174.256C386.184 172.3 384.752 170.695 382.832 170.257C380.913 169.818 378.927 170.643 377.881 172.312C377.328 173.198 377.09 174.244 377.204 175.282C378.089 183.19 383.127 188.186 387.638 191.13ZM381.512 172.15C382.959 171.987 384.263 173.03 384.425 174.477C385.514 184.23 397.011 187.689 397.125 187.723C398.524 188.131 399.326 189.596 398.917 190.993C398.509 192.392 397.045 193.194 395.647 192.786C395.036 192.607 380.658 188.258 379.183 175.063C379.022 173.615 380.064 172.311 381.512 172.149L381.512 172.15Z" fill="black"/>
<path d="M411.673 166.634C413.129 166.114 414.754 166.572 415.724 167.775C416.693 168.978 416.795 170.663 415.978 171.975C411.138 179.74 417.634 189.047 417.7 189.14C418.862 190.775 418.479 193.043 416.844 194.205C415.209 195.367 412.941 194.984 411.779 193.349C411.394 192.806 402.443 179.958 409.812 168.134C410.244 167.438 410.9 166.908 411.673 166.634Z" fill="#FFFF00"/>
<path d="M407.33 186.51C408.202 189.136 409.425 191.63 410.966 193.927C412.449 196 415.331 196.483 417.409 195.006C419.487 193.53 419.979 190.651 418.51 188.568C418.447 188.478 412.358 179.662 416.82 172.503C417.861 170.833 417.732 168.686 416.497 167.152C415.263 165.619 413.193 165.034 411.338 165.696C410.355 166.048 409.52 166.722 408.966 167.607C404.758 174.361 405.615 181.404 407.33 186.51ZM414.287 167.819C415.524 168.589 415.901 170.215 415.131 171.451C409.94 179.78 416.818 189.621 416.887 189.718C417.731 190.905 417.453 192.551 416.266 193.395C415.078 194.24 413.432 193.961 412.588 192.775C412.219 192.256 403.633 179.931 410.655 168.662C411.425 167.426 413.052 167.048 414.288 167.819L414.287 167.819Z" fill="black"/>
<path d="M376.772 167.181C375.236 167.355 373.758 166.539 373.088 165.146C372.418 163.754 372.703 162.09 373.798 160.999C380.28 154.542 376.076 143.999 376.033 143.893C375.274 142.037 376.165 139.916 378.021 139.157C379.878 138.398 381.999 139.288 382.758 141.145C383.009 141.761 388.796 156.311 378.926 166.144C378.346 166.724 377.587 167.09 376.772 167.181Z" fill="#FFFF00"/>
<path d="M385.531 148.817C385.281 146.062 384.659 143.355 383.681 140.767C382.709 138.41 380.014 137.283 377.654 138.248C375.294 139.211 374.158 141.903 375.114 144.266C375.155 144.368 379.075 154.339 373.099 160.293C371.704 161.682 371.34 163.802 372.193 165.576C373.045 167.351 374.928 168.392 376.884 168.17C377.922 168.051 378.889 167.586 379.63 166.85C385.266 161.233 386.037 154.181 385.531 148.817ZM374.497 165.431C373.468 164.4 373.471 162.73 374.504 161.702C381.456 154.776 377.002 143.626 376.957 143.516C376.405 142.168 377.052 140.628 378.4 140.077C379.748 139.525 381.288 140.172 381.839 141.52C382.08 142.109 387.632 156.066 378.226 165.438C377.194 166.466 375.524 166.463 374.496 165.431L374.497 165.431Z" fill="black"/>
<path d="M411.706 149.75C413.145 150.313 414.07 151.725 414.012 153.27C413.954 154.814 412.924 156.152 411.447 156.605C402.699 159.286 401.49 170.571 401.478 170.684C401.282 172.681 399.503 174.14 397.508 173.943C395.511 173.747 394.052 171.969 394.248 169.973C394.314 169.31 395.996 153.743 409.316 149.66C410.1 149.418 410.942 149.45 411.706 149.75Z" fill="#FFFF00"/>
<path d="M395.382 161.894C394.316 164.447 393.602 167.131 393.257 169.876C393.015 172.413 394.872 174.669 397.409 174.919C399.945 175.17 402.207 173.321 402.466 170.785C402.477 170.676 403.671 160.028 411.736 157.557C413.618 156.98 414.93 155.276 415.005 153.308C415.081 151.341 413.903 149.541 412.069 148.823C411.096 148.443 410.024 148.403 409.025 148.707C401.418 151.04 397.441 156.916 395.382 161.894ZM412.9 152.36C413.328 153.753 412.545 155.227 411.152 155.654C401.77 158.53 400.498 170.468 400.486 170.587C400.344 172.037 399.053 173.096 397.604 172.953C396.154 172.811 395.094 171.52 395.237 170.071C395.299 169.437 396.912 154.503 409.607 150.612C411 150.185 412.474 150.968 412.901 152.361L412.9 152.36Z" fill="black"/>
<path d="M387.012 135.213C386.962 133.669 387.895 132.262 389.338 131.707C390.78 131.152 392.415 131.571 393.414 132.75C399.325 139.734 410.174 136.398 410.282 136.364C412.194 135.758 414.236 136.817 414.842 138.729C415.448 140.641 414.389 142.683 412.477 143.289C411.842 143.49 396.872 148.079 387.87 137.445C387.339 136.82 387.036 136.033 387.012 135.213Z" fill="#6C4616"/>
<path d="M404.606 145.431C407.372 145.405 410.121 145.004 412.779 144.239C415.207 143.461 416.549 140.866 415.779 138.436C415.01 136.006 412.419 134.655 409.986 135.417C409.882 135.449 399.625 138.548 394.175 132.11C392.904 130.607 390.82 130.073 388.982 130.779C387.144 131.485 385.955 133.276 386.017 135.245C386.051 136.288 386.437 137.29 387.11 138.088C392.252 144.161 399.219 145.501 404.606 145.431ZM388.941 133.087C390.052 132.145 391.716 132.284 392.657 133.396C398.997 140.886 410.471 137.35 410.585 137.315C411.973 136.874 413.455 137.643 413.895 139.031C414.336 140.42 413.567 141.902 412.179 142.342C411.572 142.534 397.211 146.937 388.631 136.803C387.69 135.691 387.829 134.027 388.941 133.086L388.941 133.087Z" fill="black"/>
<path d="M560.477 191.985C559.776 193.363 558.28 194.146 556.748 193.937C555.217 193.729 553.986 192.573 553.679 191.059C551.865 182.091 540.752 179.786 540.64 179.764C538.673 179.373 537.394 177.461 537.785 175.494C538.175 173.526 540.087 172.247 542.054 172.638C542.707 172.768 558.036 175.961 560.8 189.616C560.963 190.42 560.85 191.255 560.477 191.985Z" fill="#6C4616"/>
<path d="M549.985 174.554C547.548 173.244 544.946 172.271 542.249 171.66C539.746 171.171 537.32 172.799 536.824 175.299C536.327 177.8 537.946 180.231 540.445 180.736C540.552 180.758 551.032 182.985 552.705 191.253C553.095 193.182 554.663 194.655 556.614 194.921C558.565 195.189 560.47 194.192 561.365 192.437C561.837 191.506 561.982 190.443 561.777 189.419C560.198 181.62 554.738 177.089 549.985 174.554ZM557.763 192.919C556.335 193.209 554.944 192.286 554.655 190.858C552.709 181.239 540.952 178.809 540.835 178.785C539.406 178.502 538.478 177.114 538.761 175.686C539.044 174.256 540.432 173.328 541.861 173.611C542.485 173.735 557.191 176.798 559.825 189.812C560.113 191.24 559.19 192.631 557.762 192.92L557.763 192.919Z" fill="black"/>
<path d="M568.453 193.894C566.933 193.614 565.756 192.404 565.52 190.876C565.283 189.349 566.04 187.84 567.404 187.114C575.483 182.82 574.526 171.51 574.515 171.397C574.329 169.4 575.797 167.629 577.794 167.443C579.791 167.256 581.562 168.724 581.749 170.722C581.81 171.385 583.118 186.988 570.816 193.528C570.092 193.914 569.259 194.044 568.453 193.894Z" fill="#FFFF00"/>
<path d="M582.173 178.869C582.734 176.16 582.925 173.388 582.742 170.628C582.497 168.091 580.246 166.229 577.708 166.466C575.169 166.702 573.3 168.947 573.528 171.486C573.538 171.595 574.389 182.275 566.941 186.235C565.203 187.159 564.239 189.081 564.539 191.027C564.838 192.973 566.337 194.516 568.274 194.873C569.301 195.061 570.361 194.897 571.284 194.408C578.31 190.672 581.098 184.147 582.173 178.869ZM566.785 191.558C566.101 190.272 566.589 188.676 567.876 187.992C576.541 183.385 575.52 171.423 575.51 171.304C575.373 169.854 576.439 168.569 577.889 168.433C579.34 168.297 580.626 169.363 580.761 170.813C580.82 171.447 582.075 186.415 570.351 192.649C569.065 193.332 567.468 192.844 566.785 191.558L566.785 191.558Z" fill="black"/>
<path d="M537.436 167.181C535.9 167.355 534.422 166.539 533.752 165.146C533.082 163.754 533.367 162.09 534.462 160.999C540.944 154.541 536.74 143.999 536.697 143.893C535.938 142.036 536.829 139.915 538.685 139.157C540.542 138.398 542.663 139.288 543.422 141.145C543.673 141.761 549.46 156.311 539.59 166.144C539.01 166.724 538.251 167.09 537.436 167.181Z" fill="#FFFF00"/>
<path d="M546.195 148.817C545.944 146.062 545.322 143.355 544.344 140.767C543.373 138.41 540.677 137.283 538.317 138.248C535.957 139.211 534.821 141.903 535.777 144.266C535.818 144.367 539.738 154.339 533.762 160.293C532.367 161.682 532.003 163.802 532.856 165.576C533.708 167.351 535.591 168.392 537.548 168.17C538.585 168.051 539.552 167.586 540.293 166.85C545.929 161.233 546.7 154.18 546.195 148.817ZM535.16 165.431C534.131 164.4 534.135 162.73 535.167 161.702C542.119 154.776 537.665 143.626 537.62 143.516C537.069 142.168 537.715 140.628 539.063 140.077C540.412 139.525 541.951 140.171 542.502 141.519C542.743 142.109 548.295 156.066 538.889 165.438C537.857 166.466 536.187 166.463 535.159 165.431L535.16 165.431Z" fill="black"/>
<path d="M578.167 157.943C578.879 159.315 578.644 160.987 577.582 162.11C576.521 163.233 574.865 163.561 573.455 162.928C565.109 159.179 556.762 166.87 556.679 166.948C555.215 168.32 552.916 168.246 551.545 166.782C550.173 165.319 550.246 163.02 551.71 161.648C552.196 161.193 563.72 150.592 576.43 156.3C577.178 156.635 577.791 157.214 578.167 157.943Z" fill="#FFFF00"/>
<path d="M557.887 156.318C555.403 157.536 553.096 159.084 551.028 160.921C549.174 162.671 549.083 165.591 550.827 167.451C552.57 169.311 555.489 169.411 557.355 167.674C557.435 167.6 565.35 160.378 573.045 163.834C574.841 164.641 576.951 164.223 578.304 162.793C579.657 161.363 579.957 159.234 579.052 157.485C578.57 156.558 577.79 155.821 576.838 155.392C569.579 152.133 562.716 153.931 557.887 156.318ZM577.345 160.693C576.749 162.022 575.189 162.615 573.86 162.019C564.908 157.998 556.084 166.139 555.996 166.22C554.934 167.217 553.265 167.163 552.269 166.101C551.272 165.038 551.326 163.369 552.388 162.373C552.853 161.938 563.908 151.768 576.021 157.208C577.349 157.804 577.943 159.365 577.346 160.694L577.345 160.693Z" fill="black"/>
<path d="M575.818 136.124C576.344 137.577 575.894 139.204 574.694 140.179C573.496 141.154 571.811 141.264 570.496 140.452C562.709 135.648 553.431 142.185 553.339 142.251C551.709 143.421 549.439 143.047 548.27 141.418C547.101 139.788 547.473 137.519 549.103 136.349C549.645 135.962 562.452 126.953 574.309 134.269C575.008 134.698 575.54 135.352 575.818 136.124Z" fill="#6C4616"/>
<path d="M555.923 131.87C553.301 132.754 550.812 133.988 548.522 135.539C546.456 137.032 545.986 139.916 547.472 141.987C548.957 144.058 551.839 144.538 553.915 143.059C554.005 142.996 562.793 136.868 569.972 141.297C571.647 142.331 573.794 142.192 575.322 140.95C576.85 139.709 577.425 137.637 576.755 135.785C576.398 134.804 575.721 133.971 574.833 133.421C568.061 129.244 561.022 130.132 555.923 131.87ZM574.645 138.744C573.881 139.984 572.256 140.368 571.017 139.603C562.665 134.45 552.855 141.372 552.758 141.441C551.575 142.291 549.927 142.02 549.078 140.837C548.228 139.653 548.499 138.005 549.682 137.156C550.199 136.785 562.486 128.143 573.786 135.115C575.026 135.88 575.41 137.505 574.645 138.744L574.645 138.744Z" fill="black"/>
<path d="M726.849 191.985C726.148 193.363 724.652 194.146 723.12 193.937C721.589 193.729 720.358 192.573 720.051 191.059C718.237 182.091 707.124 179.786 707.012 179.764C705.045 179.373 703.766 177.461 704.157 175.494C704.547 173.526 706.459 172.247 708.426 172.638C709.079 172.768 724.409 175.961 727.172 189.616C727.335 190.42 727.222 191.255 726.849 191.985Z" fill="#6C4616"/>
<path d="M716.356 174.554C713.919 173.244 711.317 172.271 708.62 171.66C706.117 171.171 703.691 172.799 703.195 175.299C702.698 177.8 704.317 180.231 706.816 180.736C706.923 180.758 717.403 182.985 719.076 191.253C719.466 193.182 721.035 194.655 722.985 194.921C724.936 195.189 726.842 194.192 727.736 192.437C728.208 191.506 728.353 190.443 728.148 189.419C726.569 181.62 721.109 177.089 716.356 174.554ZM724.134 192.919C722.706 193.209 721.315 192.286 721.027 190.858C719.08 181.239 707.323 178.809 707.206 178.785C705.777 178.502 704.849 177.114 705.132 175.686C705.415 174.256 706.803 173.328 708.232 173.611C708.856 173.735 723.562 176.798 726.196 189.812C726.485 191.24 725.561 192.631 724.134 192.92L724.134 192.919Z" fill="black"/>
<path d="M738.699 166.635C740.154 166.115 741.779 166.571 742.75 167.774C743.72 168.976 743.823 170.662 743.007 171.974C738.173 179.742 744.675 189.045 744.741 189.137C745.904 190.772 745.522 193.04 743.888 194.203C742.254 195.366 739.986 194.985 738.822 193.351C738.437 192.808 729.477 179.966 736.838 168.137C737.27 167.44 737.926 166.91 738.699 166.635Z" fill="#6C4616"/>
<path d="M734.37 186.515C735.243 189.14 736.468 191.633 738.011 193.929C739.496 196.001 742.377 196.482 744.454 195.004C746.532 193.526 747.022 190.646 745.551 188.564C745.488 188.475 739.393 179.663 743.85 172.501C744.89 170.83 744.76 168.683 743.524 167.15C742.288 165.617 740.218 165.035 738.364 165.697C737.381 166.05 736.546 166.724 735.992 167.61C731.79 174.367 732.651 181.409 734.37 186.515ZM741.314 167.819C742.551 168.587 742.93 170.213 742.16 171.45C736.975 179.782 743.86 189.618 743.929 189.716C744.774 190.902 744.497 192.549 743.31 193.393C742.124 194.239 740.477 193.962 739.632 192.775C739.263 192.256 730.668 179.938 737.682 168.664C738.452 167.427 740.078 167.049 741.315 167.818L741.314 167.819Z" fill="black"/>
<path d="M691.102 153.03C690.759 151.523 691.408 149.964 692.718 149.145C694.028 148.325 695.714 148.425 696.919 149.393C704.051 155.124 714.066 149.784 714.166 149.73C715.928 148.771 718.134 149.423 719.093 151.184C720.052 152.946 719.401 155.152 717.639 156.111C717.054 156.429 703.23 163.784 692.369 155.057C691.73 154.545 691.282 153.83 691.102 153.03Z" fill="#6C4616"/>
<path d="M710.319 159.712C713.029 159.16 715.652 158.243 718.116 156.986C720.351 155.761 721.174 152.958 719.956 150.718C718.738 148.479 715.938 147.647 713.695 148.857C713.598 148.909 704.119 153.903 697.543 148.619C696.009 147.386 693.862 147.258 692.192 148.302C690.522 149.344 689.695 151.33 690.131 153.25C690.363 154.268 690.932 155.178 691.745 155.834C697.949 160.816 705.044 160.806 710.319 159.712ZM692.59 150.575C693.502 149.439 695.162 149.259 696.297 150.171C703.947 156.318 714.538 150.663 714.643 150.606C715.922 149.909 717.524 150.382 718.22 151.661C718.917 152.941 718.444 154.542 717.165 155.239C716.606 155.543 703.345 162.598 692.994 154.282C691.858 153.37 691.678 151.71 692.59 150.575L692.59 150.575Z" fill="black"/>
<path d="M738.74 149.75C740.179 150.313 741.104 151.725 741.046 153.27C740.988 154.814 739.958 156.152 738.481 156.605C729.733 159.286 728.524 170.571 728.512 170.684C728.316 172.681 726.538 174.14 724.542 173.943C722.546 173.747 721.086 171.969 721.282 169.973C721.349 169.31 723.03 153.743 736.35 149.66C737.134 149.418 737.977 149.45 738.74 149.75Z" fill="#6C4616"/>
<path d="M722.416 161.894C721.351 164.447 720.636 167.131 720.291 169.876C720.049 172.413 721.906 174.669 724.443 174.919C726.98 175.17 729.241 173.321 729.5 170.785C729.511 170.676 730.705 160.028 738.77 157.557C740.652 156.98 741.964 155.276 742.039 153.308C742.115 151.341 740.937 149.541 739.103 148.823C738.131 148.443 737.058 148.403 736.059 148.707C728.452 151.04 724.475 156.916 722.416 161.894ZM739.935 152.36C740.362 153.753 739.579 155.227 738.186 155.654C728.804 158.53 727.532 170.468 727.52 170.587C727.378 172.037 726.087 173.096 724.638 172.953C723.188 172.811 722.129 171.52 722.271 170.071C722.334 169.437 723.946 154.503 736.641 150.612C738.034 150.185 739.508 150.968 739.935 152.361L739.935 152.36Z" fill="black"/>
<path d="M714.047 135.213C713.997 133.669 714.93 132.262 716.373 131.707C717.815 131.152 719.451 131.571 720.449 132.75C726.36 139.734 737.209 136.398 737.317 136.364C739.23 135.758 741.272 136.817 741.877 138.729C742.483 140.641 741.425 142.683 739.512 143.289C738.877 143.49 723.907 148.079 714.905 137.445C714.375 136.82 714.071 136.033 714.047 135.213Z" fill="#6C4616"/>
<path d="M731.64 145.431C734.406 145.405 737.156 145.004 739.814 144.239C742.241 143.461 743.583 140.866 742.813 138.436C742.044 136.006 739.453 134.655 737.02 135.417C736.916 135.449 726.659 138.548 721.21 132.11C719.938 130.607 717.854 130.073 716.017 130.779C714.179 131.485 712.989 133.276 713.051 135.245C713.086 136.288 713.471 137.29 714.144 138.088C719.286 144.161 726.254 145.501 731.64 145.431ZM715.975 133.087C717.086 132.145 718.75 132.284 719.691 133.396C726.031 140.886 737.505 137.35 737.619 137.315C739.007 136.874 740.489 137.643 740.929 139.031C741.37 140.42 740.601 141.902 739.213 142.342C738.606 142.534 724.245 146.937 715.666 136.803C714.724 135.691 714.863 134.027 715.975 133.086L715.975 133.087Z" fill="black"/>
<defs>
<linearGradient id="paint0_linear" x1="765.767" y1="79.157" x2="33.4336" y2="79.157" gradientUnits="userSpaceOnUse">
<stop stop-color="#5E3E00"/>
<stop offset="0.481354" stop-color="#FFF500"/>
<stop offset="1" stop-color="#84EF58"/>
</linearGradient>
</defs>
</svg>
