<svg width="37" height="55" viewBox="0 0 37 55" fill="none" xmlns="http://www.w3.org/2000/svg">
<path d="M36.6582 12.1038V2.69431C36.6276 1.17656 35.3717 -0.0294255 33.8535 0.00120664C32.7071 0.0247052 31.695 0.757357 31.3152 1.83955H5.34299C4.83987 0.406557 3.27092 -0.347076 1.83792 0.156045C0.755731 0.535799 0.023079 1.5475 0 2.69431V12.1038C0.00335694 17.5601 2.49001 22.718 6.7571 26.119C7.14944 26.4384 7.72684 26.3792 8.04616 25.9869C8.36591 25.5941 8.30675 25.0171 7.91399 24.6974C7.91147 24.6953 7.90895 24.6932 7.90643 24.6911C4.07323 21.6371 1.83792 17.0045 1.83289 12.1038V2.69431C1.83289 2.18825 2.24327 1.77787 2.74933 1.77787C3.25539 1.77787 3.66578 2.18825 3.66578 2.69431V12.1038C3.69096 17.258 6.43274 22.0173 10.8794 24.6244C11.3079 24.8938 11.8735 24.7645 12.1429 24.3361C12.4123 23.9077 12.2835 23.3416 11.8546 23.0722C11.8391 23.0625 11.8231 23.0533 11.8068 23.0441C11.2802 22.7331 10.7762 22.3844 10.2991 22.0013H26.3574C24.0785 23.8233 21.2469 24.8149 18.3289 24.8119C8.27863 24.7561 0.0793077 32.8459 0 42.8966V52.3057C0.030632 53.8239 1.28655 55.0294 2.80472 54.9988C3.95112 54.9753 4.96324 54.2426 5.34299 53.1609H31.3152C31.8183 54.5934 33.3873 55.3471 34.8203 54.844C35.9025 54.4642 36.6351 53.4525 36.6582 52.3057V42.8966C36.6402 37.8893 34.5425 33.1149 30.8662 29.7152C30.4949 29.3711 29.9149 29.3929 29.5709 29.7643C29.2268 30.1352 29.2486 30.7155 29.62 31.0596C32.9446 34.096 34.8345 38.3937 34.8253 42.8966V52.3057C34.8253 52.8117 34.4149 53.2221 33.9089 53.2221C33.4028 53.2221 32.9924 52.8117 32.9924 52.3057V42.8966C33.0004 38.3555 30.8679 34.0762 27.2369 31.3491C26.832 31.0428 26.2555 31.1226 25.9487 31.5275C25.6424 31.9324 25.7221 32.509 26.1271 32.8153C26.2051 32.874 26.271 32.942 26.3461 32.9987H10.3008C12.5797 31.1767 15.4113 30.1851 18.3289 30.1881C28.3796 30.2439 36.5789 22.1541 36.6582 12.1038ZM28.2369 20.1684H8.44144C7.74698 19.3292 7.16203 18.4056 6.70003 17.4191H29.9682C29.5109 18.4056 28.9288 19.3296 28.2369 20.1684ZM5.49867 11.004V8.25466H31.1595V11.004H5.49867ZM31.1595 6.42177H5.49867V3.67244H31.1595V6.42177ZM30.6581 15.5862H6.00557C5.74414 14.6903 5.58385 13.768 5.5272 12.8369H31.1218C31.0697 13.7676 30.9145 14.6899 30.6581 15.5862ZM3.66578 52.3057C3.66578 52.8117 3.25539 53.2221 2.74933 53.2221C2.24327 53.2221 1.83289 52.8117 1.83289 52.3057V42.8966C1.91094 33.858 9.29033 26.5882 18.3289 26.6448C26.3897 26.6692 32.9492 20.1642 32.9924 12.1038V2.69431C32.9924 2.18825 33.4028 1.77787 33.9089 1.77787C34.4149 1.77787 34.8253 2.18825 34.8253 2.69431V12.1038C34.7473 21.1424 27.3679 28.4122 18.3289 28.3552C10.268 28.3308 3.70858 34.8358 3.66578 42.8966V52.3057ZM29.9737 37.5809H6.68996C7.14734 36.5944 7.72935 35.6704 8.4213 34.8316H28.2415C28.9356 35.6691 29.5176 36.5935 29.9737 37.5809ZM6.00011 39.4138H30.6526C30.909 40.3105 31.0651 41.2324 31.1172 42.1631H5.53643C5.58847 41.2324 5.74372 40.3105 6.00011 39.4138ZM5.49867 43.9964H31.1595V46.7458H5.49867V43.9964ZM5.49867 48.5786H31.1595V51.328H5.49867V48.5786Z" fill="url(#paint0_linear)"/>
<defs>
<linearGradient id="paint0_linear" x1="0.153073" y1="9.32404" x2="41.8517" y2="51.0227" gradientUnits="userSpaceOnUse">
<stop stop-color="#662D91"/>
<stop offset="0.437" stop-color="#3873B3"/>
<stop offset="1" stop-color="#00C9DD"/>
</linearGradient>
</defs>
</svg>
