<svg width="34" height="25" viewBox="0 0 34 25" fill="none" xmlns="http://www.w3.org/2000/svg">
<path d="M0.695919 2.02839C5.27079 5.9028 13.2983 12.7191 15.6576 14.8444C15.9744 15.1313 16.3141 15.2771 16.6668 15.2771C17.0187 15.2771 17.3578 15.1326 17.6738 14.8471C20.0352 12.7197 28.0627 5.9028 32.6376 2.02839C32.9225 1.78763 32.9659 1.36445 32.7353 1.07012C32.2022 0.389974 31.4074 0 30.5556 0H2.77789C1.92613 0 1.13127 0.389974 0.598263 1.07018C0.367664 1.36445 0.411089 1.78763 0.695919 2.02839Z" fill="white"/>
<path d="M32.9305 4.12797C32.6844 4.01339 32.3948 4.05337 32.19 4.22837C27.1165 8.52928 20.6414 14.0422 18.6042 15.8779C17.4607 16.9101 15.8738 16.9101 14.7277 15.8765C12.5563 13.92 5.2849 7.73852 1.14336 4.2283C0.937175 4.0533 0.64694 4.01469 0.402799 4.12791C0.157357 4.24191 0 4.48741 0 4.75799V22.2222C0 23.7542 1.24577 25 2.7778 25H30.5556C32.0876 25 33.3333 23.7542 33.3333 22.2222V4.75799C33.3333 4.48741 33.176 4.24126 32.9305 4.12797Z" fill="white"/>
</svg>
