<svg width="54" height="55" viewBox="0 0 54 55" fill="none" xmlns="http://www.w3.org/2000/svg">
<path d="M17.3392 40.2408C19.1167 41.4208 20.1796 43.4177 20.1662 45.5511V51.3325C20.1662 51.351 20.1754 51.3665 20.1763 51.3846C20.1821 51.4471 20.1943 51.5084 20.2132 51.568C20.2258 51.628 20.2451 51.6859 20.2707 51.7413C20.2753 51.7585 20.2807 51.7752 20.287 51.7916L21.8585 54.5414C22.0221 54.8259 22.3259 55.0004 22.6541 55H30.5114C30.8396 55.0004 31.1429 54.8259 31.3074 54.5414L32.8785 51.7916C32.8848 51.7752 32.8902 51.7585 32.8948 51.7413C32.9204 51.6859 32.9397 51.6275 32.9527 51.568C32.9712 51.5084 32.9834 51.4471 32.9892 51.3846C32.9892 51.3665 32.9993 51.351 32.9993 51.3325V45.5494C32.9855 43.39 34.074 41.3725 35.8867 40.1989C40.9309 36.8982 43.979 31.2837 43.9992 25.2555C44.0122 15.637 36.2253 7.82878 26.6065 7.81535C17.3254 7.80277 9.66485 15.0701 9.18901 24.339C8.85835 30.7176 11.9677 36.7849 17.3392 40.2408ZM31.2055 44.9158C31.1887 45.1268 31.166 45.3358 31.166 45.5494V46.7491H21.9995V45.5511C21.9995 45.3366 21.9764 45.1268 21.9609 44.9158H31.2055ZM21.9995 48.5824H31.166V50.4157H21.9995V48.5824ZM23.1853 53.1659L22.6621 52.249H30.5034L29.9798 53.1659H23.1853ZM11.0206 24.4288C11.4629 16.3726 17.9326 9.9596 25.9926 9.58824C30.2168 9.41409 34.327 10.9847 37.3587 13.9313C40.4458 16.8875 42.1835 20.9817 42.1658 25.2555C42.1486 30.6618 39.4161 35.6972 34.893 38.658C33.2939 39.6941 32.1114 41.2609 31.5537 43.0825H27.4994V29.2238L31.8857 25.5471C32.2738 25.2219 32.3246 24.6432 31.9994 24.2555C31.6742 23.8674 31.0955 23.8166 30.7078 24.1418L26.5825 27.5986L22.4577 24.1418C22.0696 23.8166 21.4913 23.8674 21.1661 24.2555C20.8409 24.6432 20.8917 25.2219 21.2798 25.5471L25.6661 29.2229V43.0825H21.6189C21.0797 41.2735 19.9115 39.7167 18.3253 38.6929C13.509 35.5919 10.7219 30.1495 11.0206 24.4288Z" fill="url(#paint0_linear)"/>
<path d="M0.916443 25.6663H4.58305C5.08953 25.6663 5.49992 25.2559 5.49992 24.7494C5.49992 24.2434 5.08953 23.833 4.58305 23.833H0.916443C0.410385 23.833 0 24.2434 0 24.7494C0 25.2559 0.410385 25.6663 0.916443 25.6663Z" fill="url(#paint1_linear)"/>
<path d="M10.3788 9.84126C10.743 10.1929 11.3229 10.1828 11.675 9.8186C12.0178 9.4636 12.0178 8.90006 11.675 8.54506L8.89836 5.76846C8.53413 5.41682 7.9538 5.42689 7.60216 5.79112C7.25891 6.14612 7.25891 6.70924 7.60216 7.06466L10.3788 9.84126Z" fill="url(#paint2_linear)"/>
<path d="M26.5829 5.49992C27.0894 5.49992 27.4998 5.08953 27.4998 4.58305V0.916862C27.4998 0.410385 27.0894 0 26.5829 0C26.0769 0 25.6665 0.410385 25.6665 0.916862V4.58347C25.6665 5.08953 26.0769 5.49992 26.5829 5.49992Z" fill="url(#paint3_linear)"/>
<path d="M42.1389 10.1098C42.3823 10.1098 42.6152 10.0129 42.7872 9.84128L45.5639 7.06468C45.9155 6.70045 45.9054 6.12012 45.5412 5.76848C45.1862 5.42524 44.6227 5.42524 44.2677 5.76848L41.4911 8.54509C41.1331 8.90302 41.1331 9.48335 41.4915 9.84128C41.6631 10.0133 41.896 10.1098 42.1389 10.1098Z" fill="url(#paint4_linear)"/>
<path d="M48.5825 25.6663H52.2491C52.7555 25.6663 53.1659 25.2559 53.1659 24.7494C53.1659 24.2434 52.7555 23.833 52.2491 23.833H48.5825C48.0764 23.833 47.666 24.2434 47.666 24.7494C47.666 25.2559 48.0764 25.6663 48.5825 25.6663Z" fill="url(#paint5_linear)"/>
<path d="M42.787 39.658C42.4228 39.3063 41.8425 39.3164 41.4908 39.6806C41.1476 40.0356 41.1476 40.5992 41.4908 40.9542L44.2674 43.7308C44.6317 44.0824 45.212 44.0724 45.5636 43.7081C45.9065 43.3531 45.9065 42.7896 45.5636 42.4346L42.787 39.658Z" fill="url(#paint6_linear)"/>
<path d="M8.24978 43.9993C8.49316 43.9993 8.72605 43.9028 8.89809 43.7308L11.6747 40.9542C12.0263 40.5899 12.0163 40.0096 11.652 39.658C11.297 39.3151 10.7335 39.3151 10.3785 39.658L7.60189 42.4346C7.24396 42.7925 7.24396 43.3728 7.60231 43.7308C7.77394 43.9028 8.00682 43.9993 8.24978 43.9993Z" fill="url(#paint7_linear)"/>
<defs>
<linearGradient id="paint0_linear" x1="10.9938" y1="14.367" x2="45.3765" y2="48.7496" gradientUnits="userSpaceOnUse">
<stop stop-color="#662D91"/>
<stop offset="0.437" stop-color="#3873B3"/>
<stop offset="1" stop-color="#00C9DD"/>
</linearGradient>
<linearGradient id="paint1_linear" x1="1.68017" y1="23.6799" x2="36.0638" y2="58.0635" gradientUnits="userSpaceOnUse">
<stop stop-color="#662D91"/>
<stop offset="0.437" stop-color="#3873B3"/>
<stop offset="1" stop-color="#00C9DD"/>
</linearGradient>
<linearGradient id="paint2_linear" x1="13.597" y1="11.7634" x2="47.9806" y2="46.147" gradientUnits="userSpaceOnUse">
<stop stop-color="#662D91"/>
<stop offset="0.437" stop-color="#3873B3"/>
<stop offset="1" stop-color="#00C9DD"/>
</linearGradient>
<linearGradient id="paint3_linear" x1="24.5967" y1="0.763575" x2="58.9803" y2="35.1472" gradientUnits="userSpaceOnUse">
<stop stop-color="#662D91"/>
<stop offset="0.437" stop-color="#3873B3"/>
<stop offset="1" stop-color="#00C9DD"/>
</linearGradient>
<linearGradient id="paint4_linear" x1="30.5361" y1="-5.17532" x2="64.9187" y2="29.2074" gradientUnits="userSpaceOnUse">
<stop stop-color="#662D91"/>
<stop offset="0.437" stop-color="#3873B3"/>
<stop offset="1" stop-color="#00C9DD"/>
</linearGradient>
<linearGradient id="paint5_linear" x1="25.5132" y1="-0.153061" x2="59.8968" y2="34.2305" gradientUnits="userSpaceOnUse">
<stop stop-color="#662D91"/>
<stop offset="0.437" stop-color="#3873B3"/>
<stop offset="1" stop-color="#00C9DD"/>
</linearGradient>
<linearGradient id="paint6_linear" x1="13.5962" y1="11.7634" x2="47.9798" y2="46.147" gradientUnits="userSpaceOnUse">
<stop stop-color="#662D91"/>
<stop offset="0.437" stop-color="#3873B3"/>
<stop offset="1" stop-color="#00C9DD"/>
</linearGradient>
<linearGradient id="paint7_linear" x1="-3.35312" y1="28.7142" x2="31.0296" y2="63.0969" gradientUnits="userSpaceOnUse">
<stop stop-color="#662D91"/>
<stop offset="0.437" stop-color="#3873B3"/>
<stop offset="1" stop-color="#00C9DD"/>
</linearGradient>
</defs>
</svg>
