<svg width="13" height="13" viewBox="0 0 13 13" fill="none" xmlns="http://www.w3.org/2000/svg">
<path d="M12.4088 0H7.68157C7.35522 0 7.09065 0.26457 7.09065 0.590914C7.09065 0.917259 7.35522 1.18183 7.68157 1.18183H10.9823L4.90013 7.26399C4.66936 7.49476 4.66936 7.86887 4.90013 8.09964C5.01548 8.21501 5.16671 8.2727 5.31793 8.2727C5.46916 8.2727 5.62041 8.21504 5.73579 8.09961L11.8179 2.01748V5.31818C11.8179 5.64452 12.0825 5.90909 12.4089 5.90909C12.7352 5.90909 12.9998 5.64452 12.9998 5.31818V0.590914C12.9997 0.26457 12.7352 0 12.4088 0Z" fill="#053658"/>
<path d="M10.0454 5.90896C9.71908 5.90896 9.45451 6.17353 9.45451 6.49988V11.8181H1.1818V3.54533H6.49998C6.82633 3.54533 7.0909 3.28076 7.0909 2.95441C7.0909 2.62807 6.82633 2.36353 6.49998 2.36353H0.590915C0.26457 2.36353 0 2.62809 0 2.95444V12.409C0 12.7353 0.26457 12.9999 0.590915 12.9999H10.0454C10.3718 12.9999 10.6364 12.7353 10.6364 12.4089V6.49988C10.6363 6.17353 10.3718 5.90896 10.0454 5.90896Z" fill="#053658"/>
</svg>
