<svg width="138" height="55" viewBox="0 0 138 55" fill="none" xmlns="http://www.w3.org/2000/svg">
<path d="M17.1189 39.4308H4.49376L2.38728 43.1075H0.0522461L9.26019 27.062H12.1569L21.3346 43.1075H19.2171L17.1189 39.4308ZM16.1662 37.7581L10.8187 28.387L5.452 37.7581H16.1662Z" fill="white"/>
<path d="M35.7 34.0814C36.807 34.0814 37.7569 34.1279 38.5472 34.2183C39.3402 34.3086 40.0066 34.4428 40.5491 34.6234C41.0915 34.8014 41.5238 35.0231 41.846 35.2887C42.1682 35.5543 42.416 35.8581 42.5922 36.1976C42.7684 36.5371 42.8813 36.9149 42.9337 37.3365C42.986 37.7554 43.0135 38.2098 43.0135 38.6999C43.0135 39.1844 42.9695 39.6416 42.8813 40.0687C42.7932 40.4958 42.639 40.8845 42.4132 41.2377C42.1874 41.5908 41.8845 41.9057 41.499 42.1849C41.1135 42.4614 40.6234 42.6996 40.0286 42.8912C39.4339 43.0856 38.7179 43.2335 37.8809 43.332C37.0438 43.4333 36.0662 43.4826 34.9455 43.4826H32.2553C31.2475 43.4826 30.3636 43.4443 29.6091 43.3676C28.8519 43.2909 28.202 43.1732 27.6541 43.0172C27.1089 42.8611 26.6545 42.6613 26.2993 42.4231C25.9414 42.1822 25.6577 41.9002 25.443 41.5772C25.2282 41.2541 25.0795 40.8845 24.9969 40.4711C24.9143 40.0577 24.8702 39.5978 24.8702 39.0968H26.8886C26.8886 39.7347 26.9795 40.233 27.1612 40.5916C27.3429 40.953 27.6431 41.224 28.0644 41.4019C28.4857 41.5826 29.0364 41.6949 29.7193 41.7414C30.4021 41.788 31.2475 41.8099 32.2553 41.8099H34.9455C36.1213 41.8099 37.0988 41.7551 37.8781 41.6429C38.6574 41.5306 39.2742 41.3527 39.7368 41.1063C40.1994 40.8599 40.5243 40.5396 40.7143 40.1426C40.9043 39.7456 40.9979 39.2638 40.9979 38.6971C40.9979 38.1277 40.9318 37.6568 40.8024 37.2763C40.673 36.8985 40.4169 36.5973 40.0341 36.3728C39.6542 36.1483 39.1145 35.9896 38.4205 35.8937C37.7266 35.7979 36.8207 35.7514 35.7 35.7514H32.9272C31.6936 35.7514 30.639 35.7048 29.7606 35.6145C28.8822 35.5241 28.1442 35.3927 27.5494 35.223C26.9547 35.0533 26.4783 34.8397 26.1203 34.5851C25.7624 34.3305 25.4925 34.0403 25.3053 33.7118C25.1208 33.3833 24.9996 33.0219 24.9418 32.6195C24.884 32.217 24.8564 31.7845 24.8564 31.3191C24.8564 30.8318 24.9005 30.38 24.9886 29.9612C25.0767 29.5423 25.2392 29.1645 25.476 28.8278C25.7128 28.491 26.0405 28.1899 26.4535 27.9243C26.8666 27.6588 27.398 27.4398 28.0451 27.2618C28.6922 27.0839 29.4714 26.9497 30.3829 26.8594C31.2943 26.769 32.3654 26.7225 33.599 26.7225H35.6174C36.6252 26.7225 37.5091 26.7581 38.2636 26.832C39.0208 26.9059 39.6707 27.0209 40.2186 27.177C40.7638 27.333 41.2182 27.5274 41.5789 27.7628C41.9396 27.9955 42.226 28.2748 42.4408 28.5978C42.6555 28.9209 42.8042 29.2877 42.8868 29.7011C42.9722 30.1118 43.0135 30.5689 43.0135 31.0699H40.9951C40.9951 30.443 40.9043 29.953 40.7225 29.5971C40.5408 29.2412 40.2379 28.9756 39.8194 28.7977C39.3981 28.6197 38.8446 28.5075 38.159 28.4637C37.4733 28.4171 36.6252 28.3952 35.6174 28.3952H33.599C32.2553 28.3952 31.1484 28.4418 30.2782 28.5376C29.4109 28.6307 28.7225 28.7895 28.2186 29.0139C27.7147 29.2384 27.365 29.5368 27.1667 29.9119C26.9712 30.287 26.8721 30.7578 26.8721 31.3218C26.8721 31.6695 26.8968 31.9788 26.9464 32.2526C26.996 32.5236 27.0951 32.7618 27.2465 32.9672C27.398 33.1725 27.61 33.345 27.8826 33.4846C28.1552 33.6242 28.5159 33.7392 28.9648 33.8295C29.4136 33.9199 29.9616 33.9856 30.6087 34.0239C31.2558 34.0622 32.0295 34.0814 32.9244 34.0814H35.7Z" fill="white"/>
<path d="M47.6421 27.062H49.6605V43.1075H47.6421V27.062Z" fill="white"/>
<path d="M56.9822 28.398V43.1048H54.9639V27.062H58.2103L67.611 41.1035L77.0227 27.062H80.3491V43.1075H78.3307V28.6197L68.751 43.1075H66.7106L56.9822 28.398Z" fill="white"/>
<path d="M85.6499 27.062H87.6683V43.1075H85.6499V27.062Z" fill="white"/>
<path d="M109.771 32.0774C109.771 31.2424 109.68 30.5799 109.499 30.0926C109.317 29.6053 109.014 29.2357 108.595 28.9866C108.174 28.7347 107.623 28.5759 106.941 28.5075C106.258 28.439 105.412 28.4034 104.405 28.4034H99.6876C98.79 28.4034 98.0355 28.4308 97.4242 28.4828C96.8102 28.5349 96.3062 28.6416 95.907 28.8004C95.5077 28.9619 95.1993 29.1892 94.9818 29.4903C94.7642 29.7887 94.6073 30.1857 94.5082 30.6812C94.409 31.1767 94.354 31.7845 94.3402 32.5045C94.3264 33.2245 94.3182 34.0869 94.3182 35.0889C94.3182 36.0908 94.3264 36.9532 94.3429 37.6732C94.3595 38.3932 94.4173 39.001 94.5164 39.4965C94.6156 39.992 94.7698 40.389 94.9845 40.6874C95.1993 40.9858 95.505 41.2158 95.9042 41.3773C96.3035 41.5388 96.8101 41.6429 97.4214 41.6949C98.0355 41.7469 98.79 41.7743 99.6849 41.7743H104.402C105.187 41.7743 105.861 41.7524 106.428 41.7113C106.996 41.6702 107.48 41.5936 107.88 41.4813C108.279 41.3691 108.601 41.2158 108.846 41.0214C109.091 40.827 109.281 40.5806 109.419 40.285C109.556 39.9893 109.647 39.6334 109.697 39.22C109.746 38.8066 109.771 38.3193 109.771 37.7636H111.79C111.79 38.4316 111.748 39.0366 111.663 39.5759C111.58 40.1152 111.429 40.5971 111.217 41.0159C111.002 41.4375 110.718 41.8016 110.36 42.1083C110.003 42.4149 109.551 42.6668 109.006 42.8666C108.461 43.0637 107.808 43.2115 107.051 43.3046C106.293 43.3977 105.412 43.4443 104.402 43.4443H99.6849C98.4513 43.4443 97.4132 43.3703 96.5706 43.2198C95.728 43.0692 95.0313 42.8447 94.4861 42.5408C93.9409 42.2369 93.5169 41.8564 93.2195 41.3965C92.9221 40.9365 92.7046 40.3972 92.5669 39.7785C92.4292 39.1598 92.3521 38.4589 92.3301 37.6787C92.3081 36.8985 92.2998 36.0361 92.2998 35.0889C92.2998 34.1416 92.3108 33.2793 92.3301 32.499C92.3521 31.7188 92.4292 31.0207 92.5669 30.3992C92.7046 29.7805 92.9194 29.2412 93.2195 28.7812C93.5169 28.3213 93.9382 27.9408 94.4861 27.6369C95.0313 27.333 95.728 27.1085 96.5706 26.9579C97.4159 26.8074 98.454 26.7335 99.6849 26.7335H104.402C105.41 26.7335 106.293 26.78 107.051 26.8758C107.808 26.9689 108.458 27.1113 109.006 27.3029C109.551 27.4945 110.005 27.7354 110.36 28.0284C110.718 28.3213 111.002 28.6663 111.217 29.0632C111.432 29.4602 111.58 29.9092 111.663 30.4102C111.748 30.9112 111.79 31.4696 111.79 32.0801H109.771V32.0774Z" fill="white"/>
<path d="M132.141 39.4308H119.516L117.41 43.1075H115.075L124.283 27.062H127.179L136.357 43.1075H134.24L132.141 39.4308ZM131.189 37.7581L125.841 28.387L120.474 37.7581H131.189Z" fill="white"/>
<path d="M0 50.3104H0.4626V53.9898H0V50.3104Z" fill="white"/>
<path d="M4.30099 53.9925V52.4594C4.30099 52.2897 4.28723 52.1446 4.26244 52.0269C4.23766 51.9092 4.18534 51.8161 4.10824 51.7422C4.03114 51.6682 3.921 51.619 3.78057 51.5861C3.64014 51.5533 3.45289 51.5368 3.22159 51.5368C2.97102 51.5368 2.7645 51.556 2.60479 51.5916C2.44508 51.6272 2.31842 51.6792 2.22755 51.7476C2.13668 51.8161 2.07335 51.8955 2.03756 51.9886C2.00176 52.0816 1.98524 52.1884 1.98524 52.3034V53.9898H1.52539V51.2302H1.98799V51.6901C2.02103 51.6108 2.0706 51.5451 2.13393 51.4876C2.19726 51.4301 2.2661 51.3835 2.34596 51.3425C2.42581 51.3014 2.50842 51.2713 2.60204 51.2466C2.69291 51.222 2.78653 51.2028 2.8774 51.1892C2.96826 51.1755 3.05913 51.1673 3.14449 51.1618C3.22985 51.1563 3.30971 51.1536 3.37855 51.1536C3.58506 51.1536 3.76129 51.1673 3.90999 51.1919C4.05868 51.2165 4.18534 51.2549 4.28723 51.3041C4.38911 51.3534 4.47447 51.4164 4.5378 51.4876C4.60113 51.5587 4.64794 51.6463 4.68374 51.7422C4.71954 51.838 4.74156 51.9475 4.75258 52.0652C4.76359 52.1857 4.7691 52.3143 4.7691 52.454L4.76635 53.9871H4.30099V53.9925Z" fill="white"/>
<path d="M8.45072 53.9925V52.4594C8.45072 52.2897 8.43695 52.1446 8.41217 52.0269C8.38739 51.9092 8.33507 51.8161 8.25797 51.7422C8.18087 51.6682 8.07073 51.619 7.93029 51.5861C7.78986 51.5533 7.60262 51.5368 7.37132 51.5368C7.12074 51.5368 6.91423 51.556 6.75452 51.5916C6.59481 51.6272 6.46815 51.6792 6.37728 51.7476C6.28641 51.8161 6.22308 51.8955 6.18728 51.9886C6.15148 52.0816 6.13496 52.1884 6.13496 52.3034V53.9898H5.67236V51.2302H6.13496V51.6901C6.16801 51.6108 6.21757 51.5451 6.2809 51.4876C6.34424 51.4301 6.41307 51.3835 6.49293 51.3425C6.57278 51.3014 6.65539 51.2713 6.74901 51.2466C6.83988 51.222 6.9335 51.2028 7.02437 51.1892C7.11524 51.1755 7.2061 51.1673 7.29146 51.1618C7.37683 51.1563 7.45668 51.1536 7.52552 51.1536C7.73204 51.1536 7.90827 51.1673 8.05696 51.1919C8.20565 51.2165 8.33232 51.2549 8.4342 51.3041C8.53608 51.3534 8.62144 51.4164 8.68477 51.4876C8.74811 51.5587 8.79492 51.6463 8.83071 51.7422C8.86651 51.838 8.88854 51.9475 8.89955 52.0652C8.91057 52.1857 8.91607 52.3143 8.91607 52.454L8.91332 53.9871H8.45072V53.9925Z" fill="white"/>
<path d="M9.74756 52.5799C9.74756 52.3006 9.77785 52.0679 9.83843 51.8845C9.899 51.7011 9.99813 51.556 10.1331 51.4465C10.268 51.3397 10.4442 51.2631 10.659 51.2193C10.8738 51.1755 11.1354 51.1536 11.4438 51.1536C11.7522 51.1536 12.0137 51.1755 12.2285 51.2193C12.4433 51.2631 12.6195 51.3397 12.7545 51.4465C12.8894 51.5533 12.9885 51.7011 13.0491 51.8845C13.1097 52.0679 13.14 52.3006 13.14 52.5799C13.14 52.8646 13.1097 53.1028 13.0491 53.289C12.9885 53.4779 12.8894 53.6284 12.7545 53.7379C12.6195 53.8502 12.4433 53.9268 12.2285 53.9734C12.0137 54.0199 11.7522 54.0418 11.4438 54.0418C11.1354 54.0418 10.8738 54.0199 10.659 53.9734C10.4442 53.9268 10.268 53.8474 10.1331 53.7379C9.99813 53.6257 9.899 53.4779 9.83843 53.289C9.77785 53.1028 9.74756 52.8646 9.74756 52.5799ZM10.2102 52.5799C10.2102 52.7305 10.2157 52.8646 10.2267 52.9769C10.2377 53.0891 10.2597 53.1849 10.29 53.2671C10.3203 53.3464 10.3644 53.4121 10.4222 53.4642C10.48 53.5162 10.5516 53.5545 10.6452 53.5846C10.7361 53.6147 10.849 53.6339 10.9784 53.6449C11.1106 53.6558 11.2648 53.6613 11.4438 53.6613C11.598 53.6613 11.7356 53.6585 11.8568 53.6503C11.978 53.6421 12.0853 53.6284 12.1762 53.601C12.2671 53.5764 12.3442 53.5408 12.4075 53.4943C12.4708 53.4477 12.5232 53.3848 12.5617 53.3026C12.6003 53.2232 12.6305 53.122 12.6498 53.0042C12.6691 52.8865 12.6774 52.7442 12.6774 52.5799C12.6774 52.4184 12.6691 52.2787 12.6498 52.1638C12.6305 52.0488 12.603 51.953 12.5617 51.8763C12.5232 51.7997 12.4708 51.7367 12.4075 51.6929C12.3442 51.6491 12.2671 51.6135 12.1762 51.5916C12.0853 51.5697 11.9807 51.5533 11.8568 51.5478C11.7356 51.5423 11.598 51.5368 11.4438 51.5368C11.2896 51.5368 11.1519 51.5396 11.0307 51.5478C10.9096 51.5533 10.8022 51.5697 10.7113 51.5916C10.6204 51.6135 10.5433 51.6491 10.48 51.6929C10.4167 51.7367 10.3644 51.7997 10.3258 51.8763C10.2873 51.953 10.257 52.0488 10.2377 52.1638C10.2184 52.2787 10.2102 52.4184 10.2102 52.5799Z" fill="white"/>
<path d="M13.8174 51.2302L14.4094 51.2028L15.6595 53.6832L16.8794 51.2576H17.4163L15.9652 53.9898H15.2823L13.8174 51.2302Z" fill="white"/>
<path d="M20.883 53.612C20.8775 53.6312 20.8417 53.6804 20.7756 53.7571C20.7288 53.8146 20.6627 53.8666 20.5829 53.9104C20.503 53.9542 20.3956 53.9898 20.2607 54.0144C20.1258 54.0391 19.9496 54.0528 19.732 54.0528C19.4402 54.0528 19.1923 54.0391 18.9886 54.009C18.782 53.9788 18.6141 53.935 18.4847 53.8721C18.3552 53.8118 18.2589 53.7325 18.1983 53.6366C18.1377 53.5408 18.1074 53.4258 18.1074 53.2944C18.1074 53.1548 18.1239 53.0371 18.157 52.9413C18.19 52.8454 18.2368 52.7633 18.3029 52.6976C18.369 52.6319 18.4434 52.5799 18.5342 52.5443C18.6251 52.5087 18.727 52.4786 18.8426 52.4594C18.9583 52.4403 19.0822 52.4293 19.2199 52.4238C19.3575 52.4184 19.5007 52.4156 19.6549 52.4156C19.8752 52.4156 20.0597 52.4238 20.2056 52.443C20.3543 52.4622 20.4755 52.4841 20.5691 52.5115C20.6627 52.5388 20.7343 52.5689 20.7811 52.6018C20.828 52.6346 20.8638 52.662 20.8858 52.6894C20.8858 52.5115 20.8775 52.3581 20.8638 52.2322C20.8472 52.1063 20.8224 51.9995 20.7894 51.9146C20.7536 51.8298 20.7096 51.7613 20.6545 51.712C20.5994 51.6628 20.5333 51.6244 20.4535 51.5971C20.3736 51.5724 20.28 51.556 20.1754 51.5478C20.0707 51.5396 19.9468 51.5368 19.8119 51.5368C19.5999 51.5368 19.4236 51.5423 19.2832 51.5533C19.1428 51.5642 19.0326 51.5834 18.95 51.6135C18.8674 51.6436 18.8096 51.6847 18.7765 51.7394C18.7435 51.7942 18.727 51.8626 18.727 51.9502H18.2644C18.2644 51.8051 18.2892 51.6819 18.3415 51.5806C18.3938 51.4793 18.4792 51.3972 18.6031 51.3342C18.727 51.2713 18.8839 51.2247 19.0822 51.1974C19.2804 51.1672 19.5228 51.1536 19.8119 51.1536C20.0955 51.1536 20.3351 51.1755 20.5306 51.222C20.7261 51.2685 20.8858 51.3507 21.0069 51.4657C21.1281 51.5834 21.2162 51.7394 21.2685 51.9365C21.3236 52.1337 21.3484 52.3828 21.3484 52.6867V53.9898H20.8858V53.612H20.883ZM19.8091 53.6668C20.0129 53.6668 20.1836 53.6585 20.3213 53.6394C20.459 53.6202 20.5691 53.5928 20.6517 53.5545C20.7343 53.5162 20.7949 53.4696 20.8307 53.4121C20.8665 53.3547 20.883 53.289 20.883 53.215C20.883 53.1411 20.8638 53.0754 20.8224 53.0234C20.7811 52.9714 20.7123 52.9276 20.6187 52.8947C20.5223 52.8619 20.3956 52.8372 20.2387 52.8235C20.0817 52.8099 19.8862 52.8016 19.6549 52.8016C19.4236 52.8016 19.2364 52.8044 19.096 52.8126C18.9528 52.8208 18.8426 52.8372 18.7655 52.8673C18.6884 52.8975 18.6361 52.9385 18.6113 52.9933C18.5838 53.048 18.5728 53.122 18.5728 53.2178C18.5728 53.3109 18.5865 53.3902 18.6141 53.4477C18.6416 53.5052 18.6994 53.5518 18.7876 53.5846C18.8757 53.6175 18.9996 53.6394 19.162 53.6531C19.3217 53.6585 19.5393 53.6668 19.8091 53.6668Z" fill="white"/>
<path d="M24.953 52.7633C24.953 52.9987 24.9337 53.1931 24.8952 53.3519C24.8566 53.5107 24.7905 53.6366 24.7024 53.7297C24.6115 53.8228 24.4931 53.8912 24.3444 53.9323C24.1957 53.9734 24.014 53.9925 23.7965 53.9925C23.5872 53.9925 23.4082 53.9761 23.2678 53.946C23.1246 53.9131 23.009 53.8611 22.9208 53.7845C22.8327 53.7078 22.7694 53.6065 22.7308 53.4778C22.6923 53.3492 22.673 53.1904 22.673 52.9987V51.6162H22.103V51.2329H22.673V50.4828H23.1356V51.2329H24.8786V51.6162H23.1356V52.9987C23.1356 53.1521 23.1466 53.2698 23.1714 53.3519C23.1934 53.434 23.232 53.4943 23.2843 53.5326C23.3366 53.5709 23.4027 53.5928 23.4881 53.5983C23.5734 53.6038 23.6753 53.6093 23.7965 53.6093C23.8928 53.6093 23.9782 53.6065 24.0553 53.6038C24.1324 53.601 24.1985 53.5901 24.2563 53.5737C24.3141 53.5572 24.361 53.5326 24.4023 53.497C24.4436 53.4614 24.4739 53.4149 24.4986 53.3519C24.5234 53.2889 24.5427 53.2123 24.5537 53.1165C24.5647 53.0207 24.5702 52.9057 24.5702 52.766H24.953V52.7633Z" fill="white"/>
<path d="M26.4782 50.7703H26.0156V50.3104H26.4782V50.7703ZM26.0156 51.2302H26.4782V53.9898H26.0156V51.2302Z" fill="white"/>
<path d="M27.4644 52.5799C27.4644 52.3006 27.4946 52.0679 27.5552 51.8845C27.6158 51.7011 27.7149 51.556 27.8499 51.4465C27.9848 51.3397 28.161 51.2631 28.3758 51.2193C28.5906 51.1755 28.8522 51.1536 29.1606 51.1536C29.469 51.1536 29.7305 51.1755 29.9453 51.2193C30.1601 51.2631 30.3363 51.3397 30.4713 51.4465C30.6062 51.5533 30.7053 51.7011 30.7659 51.8845C30.8265 52.0679 30.8568 52.3006 30.8568 52.5799C30.8568 52.8646 30.8265 53.1028 30.7659 53.289C30.7053 53.4779 30.6062 53.6284 30.4713 53.7379C30.3363 53.8502 30.1601 53.9268 29.9453 53.9734C29.7305 54.0199 29.469 54.0418 29.1606 54.0418C28.8522 54.0418 28.5906 54.0199 28.3758 53.9734C28.161 53.9268 27.9848 53.8474 27.8499 53.7379C27.7149 53.6257 27.6158 53.4779 27.5552 53.289C27.4946 53.1028 27.4644 52.8646 27.4644 52.5799ZM27.927 52.5799C27.927 52.7305 27.9325 52.8646 27.9435 52.9769C27.9545 53.0891 27.9765 53.1849 28.0068 53.2671C28.0371 53.3464 28.0812 53.4121 28.139 53.4642C28.1968 53.5162 28.2684 53.5545 28.362 53.5846C28.4529 53.6147 28.5658 53.6339 28.6952 53.6449C28.8274 53.6558 28.9816 53.6613 29.1606 53.6613C29.3148 53.6613 29.4524 53.6585 29.5736 53.6503C29.6947 53.6421 29.8021 53.6284 29.893 53.601C29.9839 53.5764 30.061 53.5408 30.1243 53.4943C30.1876 53.4477 30.24 53.3848 30.2785 53.3026C30.3171 53.2232 30.3473 53.122 30.3666 53.0042C30.3859 52.8865 30.3942 52.7442 30.3942 52.5799C30.3942 52.4184 30.3859 52.2787 30.3666 52.1638C30.3473 52.0488 30.3198 51.953 30.2785 51.8763C30.24 51.7997 30.1876 51.7367 30.1243 51.6929C30.061 51.6491 29.9839 51.6135 29.893 51.5916C29.8021 51.5697 29.6975 51.5533 29.5736 51.5478C29.4524 51.5423 29.3148 51.5368 29.1606 51.5368C29.0064 51.5368 28.8687 51.5396 28.7475 51.5478C28.6264 51.5533 28.519 51.5697 28.4281 51.5916C28.3372 51.6135 28.2601 51.6491 28.1968 51.6929C28.1335 51.7367 28.0812 51.7997 28.0426 51.8763C28.0041 51.953 27.9738 52.0488 27.9545 52.1638C27.938 52.2787 27.927 52.4184 27.927 52.5799Z" fill="white"/>
<path d="M34.4663 53.9925V52.4594C34.4663 52.2897 34.4526 52.1446 34.4278 52.0269C34.403 51.9092 34.3507 51.8161 34.2736 51.7422C34.1965 51.6682 34.0864 51.619 33.9459 51.5861C33.8055 51.5533 33.6182 51.5368 33.3869 51.5368C33.1364 51.5368 32.9299 51.556 32.7701 51.5916C32.6104 51.6272 32.4838 51.6792 32.3929 51.7476C32.302 51.8161 32.2387 51.8955 32.2029 51.9886C32.1671 52.0816 32.1506 52.1884 32.1506 52.3034V53.9898H31.688V51.2302H32.1506V51.6901C32.1836 51.6108 32.2332 51.5451 32.2965 51.4876C32.3599 51.4301 32.4287 51.3835 32.5086 51.3425C32.5884 51.3014 32.671 51.2713 32.7646 51.2466C32.8555 51.222 32.9491 51.2028 33.04 51.1892C33.1309 51.1755 33.2217 51.1673 33.3071 51.1618C33.3924 51.1563 33.4723 51.1536 33.5411 51.1536C33.7477 51.1536 33.9239 51.1673 34.0726 51.1919C34.2213 51.2165 34.3479 51.2549 34.4498 51.3041C34.5517 51.3534 34.6371 51.4164 34.7004 51.4876C34.7637 51.5587 34.8105 51.6463 34.8463 51.7422C34.8821 51.838 34.9042 51.9475 34.9152 52.0652C34.9262 52.1857 34.9317 52.3143 34.9317 52.454L34.9289 53.9871H34.4663V53.9925Z" fill="white"/>
<path d="M36.8811 52.725C36.7159 52.7195 36.5727 52.7058 36.4543 52.6867C36.3359 52.6675 36.2341 52.6374 36.157 52.6018C36.0771 52.5662 36.0138 52.5169 35.967 52.454C35.9201 52.391 35.8871 52.3171 35.8678 52.2267C35.8485 52.1364 35.8375 52.0378 35.8375 51.9338C35.8375 51.7887 35.8678 51.6682 35.9284 51.5697C35.989 51.4711 36.0881 51.3917 36.223 51.3288C36.358 51.2658 36.5342 51.222 36.749 51.1946C36.9637 51.1673 37.2253 51.1536 37.5337 51.1536C37.8394 51.1536 38.09 51.17 38.2882 51.2001C38.4865 51.233 38.6434 51.2822 38.7591 51.3479C38.8747 51.4136 38.9573 51.4985 39.0041 51.5971C39.051 51.6984 39.073 51.8188 39.073 51.9557H38.6104C38.6104 51.8681 38.5939 51.7997 38.5608 51.7449C38.5278 51.6901 38.47 51.6491 38.3873 51.6162C38.3047 51.5861 38.1946 51.5642 38.0569 51.5505C37.9192 51.5396 37.743 51.5314 37.531 51.5314C37.2997 51.5314 37.1042 51.5341 36.9472 51.5423C36.7903 51.5478 36.6636 51.5642 36.5672 51.5889C36.4709 51.6135 36.402 51.6546 36.3607 51.7066C36.3194 51.7586 36.2974 51.8325 36.2974 51.9256C36.2974 51.9803 36.3001 52.0324 36.3084 52.0844C36.3167 52.1364 36.3332 52.1802 36.358 52.213C36.3827 52.2459 36.4213 52.2733 36.4709 52.2897C36.5204 52.3061 36.5893 52.3198 36.6746 52.328C36.76 52.3362 36.8674 52.3417 36.994 52.3417C37.1207 52.3417 37.2749 52.3417 37.4539 52.3417C37.6714 52.3417 37.8642 52.3472 38.0294 52.3554C38.1946 52.3664 38.3378 52.3828 38.4562 52.4047C38.5773 52.4293 38.6765 52.4649 38.7536 52.5142C38.8307 52.5635 38.894 52.6182 38.9436 52.6757C38.9904 52.7332 39.0234 52.8016 39.0427 52.881C39.062 52.9604 39.073 53.0508 39.073 53.1548C39.073 53.2588 39.062 53.3519 39.0427 53.434C39.0234 53.5162 38.9904 53.5901 38.9408 53.6531C38.8912 53.716 38.8279 53.7708 38.7453 53.8146C38.6627 53.8611 38.5581 53.8967 38.4342 53.9241C38.3075 53.9515 38.1588 53.9734 37.9853 53.9871C37.8118 54.0007 37.6081 54.009 37.3768 54.009C37.0877 54.009 36.8453 53.9953 36.6471 53.9652C36.4516 53.9378 36.2919 53.8912 36.1707 53.8283C36.0496 53.7653 35.9642 53.6832 35.9119 53.5819C35.8596 53.4806 35.832 53.3574 35.832 53.2123H36.2946C36.2946 53.3081 36.3112 53.3848 36.3442 53.445C36.3772 53.5052 36.4351 53.5518 36.5177 53.5846C36.6003 53.6175 36.7104 53.6421 36.8481 53.6531C36.9858 53.664 37.162 53.6722 37.374 53.6722C37.5668 53.6722 37.732 53.6668 37.8669 53.6585C38.0018 53.6503 38.1175 53.6366 38.2084 53.6175C38.2992 53.5983 38.3736 53.5737 38.4259 53.549C38.4782 53.5217 38.5195 53.4888 38.5471 53.4505C38.5746 53.4121 38.5911 53.3683 38.5994 53.3218C38.6076 53.2753 38.6104 53.2232 38.6104 53.1658C38.6104 53.1137 38.6076 53.0672 38.5994 53.0261C38.5911 52.9851 38.5746 52.944 38.5498 52.9029C38.525 52.8619 38.4865 52.8318 38.4369 52.8099C38.3873 52.788 38.3185 52.7715 38.2331 52.7578C38.1478 52.7442 38.0404 52.7359 37.9137 52.7277C37.7871 52.7195 37.6329 52.7195 37.4539 52.7195C37.2391 52.7332 37.0464 52.7305 36.8811 52.725Z" fill="white"/>
<path d="M41.9729 50.7703H41.5103V50.3104H41.9729V50.7703ZM41.5103 51.2302H41.9729V53.9898H41.5103V51.2302Z" fill="white"/>
<path d="M45.814 53.9925V52.4594C45.814 52.2897 45.8002 52.1446 45.7755 52.0269C45.7507 51.9092 45.6983 51.8161 45.6212 51.7422C45.5441 51.6682 45.434 51.619 45.2936 51.5861C45.1531 51.5533 44.9659 51.5368 44.7346 51.5368C44.484 51.5368 44.2775 51.556 44.1178 51.5916C43.9581 51.6272 43.8314 51.6792 43.7406 51.7476C43.6497 51.8161 43.5864 51.8955 43.5506 51.9886C43.5148 52.0816 43.4982 52.1884 43.4982 52.3034V53.9898H43.0356V51.2302H43.4982V51.6901C43.5313 51.6108 43.5809 51.5451 43.6442 51.4876C43.7075 51.4301 43.7764 51.3835 43.8562 51.3425C43.9361 51.3014 44.0187 51.2713 44.1123 51.2466C44.2032 51.222 44.2968 51.2028 44.3877 51.1892C44.4785 51.1755 44.5694 51.1673 44.6547 51.1618C44.7401 51.1563 44.82 51.1536 44.8888 51.1536C45.0953 51.1536 45.2715 51.1673 45.4202 51.1919C45.5689 51.2165 45.6956 51.2549 45.7975 51.3041C45.8994 51.3534 45.9847 51.4164 46.0481 51.4876C46.1114 51.5587 46.1582 51.6463 46.194 51.7422C46.2298 51.838 46.2518 51.9475 46.2628 52.0652C46.2738 52.1857 46.2794 52.3143 46.2794 52.454L46.2766 53.9871H45.814V53.9925Z" fill="white"/>
<path d="M49.1731 50.617V53.9898H48.7104V50.3104H49.4539L51.61 53.5299L53.7688 50.3104H54.5315V53.9898H54.0689V50.6663L51.8716 53.9898H51.4034L49.1731 50.617Z" fill="white"/>
<path d="M56.2141 50.7703H55.7515V50.3104H56.2141V50.7703ZM55.7515 51.2302H56.2141V53.9898H55.7515V51.2302Z" fill="white"/>
<path d="M57.2002 52.6045C57.2002 52.4156 57.2112 52.2459 57.2305 52.1008C57.2498 51.9557 57.2828 51.827 57.3324 51.7203C57.3819 51.6135 57.448 51.5231 57.5306 51.4492C57.6132 51.3753 57.7179 51.3178 57.8445 51.274C57.9712 51.2302 58.1199 51.1974 58.2934 51.1782C58.4668 51.159 58.6679 51.1508 58.8992 51.1508C59.2076 51.1508 59.4609 51.17 59.6619 51.2083C59.8601 51.2466 60.0199 51.3041 60.1355 51.3808C60.2512 51.4574 60.331 51.556 60.3778 51.6765C60.4219 51.7942 60.4467 51.9365 60.4467 52.1008H59.9841C59.9841 52.0406 59.9813 51.9858 59.9786 51.9365C59.9758 51.8873 59.9648 51.838 59.9428 51.7969C59.9235 51.7558 59.8904 51.7175 59.8464 51.6847C59.8023 51.6518 59.7417 51.6244 59.6619 51.6025C59.582 51.5806 59.4802 51.5642 59.3562 51.5533C59.2323 51.5423 59.0809 51.5368 58.9019 51.5368C58.6954 51.5368 58.5219 51.545 58.3815 51.5587C58.241 51.5724 58.1254 51.5971 58.0318 51.6299C57.9409 51.6628 57.8693 51.7066 57.8197 51.7613C57.7702 51.8161 57.7344 51.8818 57.7124 51.9612C57.6903 52.0406 57.6766 52.1336 57.6738 52.2404C57.6711 52.3472 57.6683 52.4704 57.6683 52.61C57.6683 52.7469 57.6711 52.8673 57.6738 52.9714C57.6766 53.0754 57.6903 53.1685 57.7124 53.2451C57.7344 53.3245 57.7702 53.3902 57.8197 53.4423C57.8693 53.497 57.9409 53.5381 58.0318 53.5737C58.1226 53.6065 58.2383 53.6312 58.3815 53.6448C58.5219 53.6585 58.6954 53.6667 58.9019 53.6667C59.0809 53.6667 59.2323 53.6613 59.3562 53.6476C59.4802 53.6339 59.582 53.6175 59.6619 53.5956C59.7417 53.5737 59.8051 53.5436 59.8464 53.5107C59.8904 53.4779 59.9207 53.4368 59.9428 53.3957C59.962 53.3519 59.9758 53.3026 59.9786 53.2506C59.9813 53.1986 59.9841 53.1411 59.9841 53.0781H60.4467C60.4467 53.2451 60.4246 53.3902 60.3778 53.5134C60.3338 53.6366 60.2512 53.7379 60.1355 53.8173C60.0199 53.8967 59.8629 53.9542 59.6619 53.9925C59.4636 54.0309 59.2076 54.05 58.8992 54.05C58.6679 54.05 58.4668 54.0391 58.2934 54.0199C58.1199 54.0007 57.9712 53.9679 57.8445 53.9241C57.7179 53.8803 57.6132 53.8201 57.5306 53.7489C57.448 53.6777 57.3819 53.5874 57.3324 53.4806C57.2828 53.3738 57.2498 53.2479 57.2305 53.1055C57.2112 52.9632 57.2002 52.7907 57.2002 52.6045Z" fill="white"/>
<path d="M63.7399 52.1309C63.7399 52.0159 63.7316 51.9201 63.7151 51.8435C63.6986 51.7668 63.6573 51.7066 63.5967 51.66C63.5361 51.6135 63.4425 51.5834 63.3186 51.5642C63.1947 51.5451 63.0295 51.5368 62.8174 51.5368C62.6109 51.5368 62.4402 51.556 62.3108 51.5916C62.1814 51.6272 62.0795 51.6792 62.0051 51.7449C61.9308 51.8106 61.8812 51.89 61.8537 51.9804C61.8262 52.0707 61.8151 52.172 61.8151 52.2842V53.9925H61.3525V51.233H61.8151V51.671C61.8317 51.6217 61.862 51.567 61.9033 51.5067C61.9473 51.4465 62.0134 51.3918 62.1015 51.3397C62.1896 51.2877 62.3053 51.2439 62.4457 51.2083C62.5861 51.1727 62.7624 51.1563 62.9716 51.1563C63.214 51.1563 63.4095 51.1782 63.5609 51.2193C63.7124 51.2603 63.8308 51.3233 63.9134 51.4054C63.996 51.4876 64.0538 51.5889 64.0841 51.7121C64.1144 51.8325 64.1281 51.9721 64.1281 52.1309H63.7399Z" fill="white"/>
<path d="M64.6484 52.5799C64.6484 52.3006 64.6787 52.0679 64.7393 51.8845C64.7999 51.7011 64.899 51.556 65.0339 51.4465C65.1689 51.3397 65.3451 51.2631 65.5599 51.2193C65.7746 51.1755 66.0362 51.1536 66.3446 51.1536C66.653 51.1536 66.9146 51.1755 67.1294 51.2193C67.3442 51.2631 67.5204 51.3397 67.6553 51.4465C67.7903 51.5533 67.8894 51.7011 67.95 51.8845C68.0106 52.0679 68.0408 52.3006 68.0408 52.5799C68.0408 52.8646 68.0106 53.1028 67.95 53.289C67.8894 53.4779 67.7903 53.6284 67.6553 53.7379C67.5204 53.8502 67.3442 53.9268 67.1294 53.9734C66.9146 54.0199 66.653 54.0418 66.3446 54.0418C66.0362 54.0418 65.7746 54.0199 65.5599 53.9734C65.3451 53.9268 65.1689 53.8474 65.0339 53.7379C64.899 53.6257 64.7999 53.4779 64.7393 53.289C64.6787 53.1028 64.6484 52.8646 64.6484 52.5799ZM65.111 52.5799C65.111 52.7305 65.1165 52.8646 65.1276 52.9769C65.1386 53.0891 65.1606 53.1849 65.1909 53.2671C65.2212 53.3464 65.2652 53.4121 65.3231 53.4642C65.3809 53.5162 65.4525 53.5545 65.5461 53.5846C65.637 53.6147 65.7499 53.6339 65.8793 53.6449C66.0115 53.6558 66.1657 53.6613 66.3446 53.6613C66.4988 53.6613 66.6365 53.6585 66.7577 53.6503C66.8788 53.6421 66.9862 53.6284 67.0771 53.601C67.168 53.5764 67.2451 53.5408 67.3084 53.4943C67.3717 53.4477 67.424 53.3848 67.4626 53.3026C67.5011 53.2232 67.5314 53.122 67.5507 53.0042C67.57 52.8865 67.5782 52.7442 67.5782 52.5799C67.5782 52.4184 67.57 52.2787 67.5507 52.1638C67.5314 52.0488 67.5039 51.953 67.4626 51.8763C67.424 51.7997 67.3717 51.7367 67.3084 51.6929C67.2451 51.6491 67.168 51.6135 67.0771 51.5916C66.9862 51.5697 66.8816 51.5533 66.7577 51.5478C66.6365 51.5423 66.4988 51.5368 66.3446 51.5368C66.1904 51.5368 66.0528 51.5396 65.9316 51.5478C65.8104 51.5533 65.7031 51.5697 65.6122 51.5916C65.5213 51.6135 65.4442 51.6491 65.3809 51.6929C65.3176 51.7367 65.2652 51.7997 65.2267 51.8763C65.1881 51.953 65.1578 52.0488 65.1386 52.1638C65.1193 52.2787 65.111 52.4184 65.111 52.5799Z" fill="white"/>
<path d="M70.5688 54.0446C70.3457 54.0446 70.164 54.0281 70.0153 53.998C69.8694 53.9679 69.7482 53.9323 69.6546 53.8967C69.561 53.8611 69.4921 53.8036 69.4426 53.727C69.3957 53.6503 69.3572 53.5874 69.3352 53.5436V53.9898H68.8726V50.3104H69.3352V51.4903C69.3572 51.4575 69.3902 51.4219 69.4398 51.3808C69.4894 51.3425 69.561 51.3041 69.6546 51.2713C69.7482 51.2384 69.8694 51.2083 70.018 51.1864C70.1667 51.1645 70.3512 51.1536 70.5688 51.1536C70.8772 51.1536 71.1388 51.1755 71.3535 51.222C71.5683 51.2686 71.7445 51.3452 71.8795 51.4575C72.0144 51.5697 72.1135 51.7175 72.1741 51.9037C72.2347 52.0899 72.265 52.3226 72.265 52.6018C72.265 52.881 72.2347 53.1165 72.1741 53.2999C72.1135 53.4861 72.0144 53.6339 71.8795 53.7434C71.7445 53.8529 71.5683 53.9296 71.3535 53.9761C71.1388 54.0227 70.8772 54.0446 70.5688 54.0446ZM70.5688 53.6613C70.7477 53.6613 70.9047 53.6558 71.0341 53.6449C71.1663 53.6339 71.2764 53.6147 71.3673 53.5846C71.4582 53.5573 71.5325 53.5162 71.5903 53.4669C71.6482 53.4149 71.6922 53.3519 71.7225 53.2725C71.7528 53.1931 71.7748 53.1001 71.7858 52.9906C71.7969 52.881 71.8024 52.7524 71.8024 52.6018C71.8024 52.4512 71.7969 52.3226 71.7858 52.2131C71.7748 52.1035 71.7555 52.0077 71.7225 51.9283C71.6922 51.8489 71.6482 51.786 71.5903 51.734C71.5325 51.6819 71.4582 51.6436 71.3673 51.6135C71.2764 51.5834 71.1635 51.5642 71.0341 51.5533C70.9019 51.5423 70.7477 51.5368 70.5688 51.5368C70.4146 51.5368 70.2769 51.5396 70.1557 51.5478C70.0346 51.556 69.9299 51.5697 69.8363 51.5971C69.7454 51.6217 69.6683 51.66 69.605 51.7066C69.5417 51.7531 69.4894 51.8161 69.4508 51.8955C69.4095 51.9749 69.382 52.0734 69.3627 52.1884C69.3434 52.3061 69.3352 52.4458 69.3352 52.6073C69.3352 52.7688 69.3434 52.9057 69.3627 53.0207C69.382 53.1356 69.4095 53.2315 69.4508 53.3081C69.4921 53.3848 69.5417 53.4477 69.605 53.4943C69.6683 53.5408 69.7454 53.5764 69.8363 53.6011C69.9272 53.6257 70.0346 53.6394 70.1557 53.6476C70.2769 53.6585 70.4146 53.6613 70.5688 53.6613Z" fill="white"/>
<path d="M73.7131 50.7703H73.2505V50.3104H73.7131V50.7703ZM73.2505 51.2302H73.7131V53.9898H73.2505V51.2302Z" fill="white"/>
<path d="M77.5407 53.612C77.5352 53.6312 77.4994 53.6804 77.4333 53.7571C77.3865 53.8146 77.3205 53.8666 77.2406 53.9104C77.1607 53.9542 77.0534 53.9898 76.9184 54.0144C76.7835 54.0391 76.6073 54.0528 76.3897 54.0528C76.0979 54.0528 75.85 54.0391 75.6463 54.009C75.4398 53.9788 75.2718 53.935 75.1424 53.8721C75.013 53.8118 74.9166 53.7325 74.856 53.6366C74.7954 53.5408 74.7651 53.4258 74.7651 53.2944C74.7651 53.1548 74.7817 53.0371 74.8147 52.9413C74.8478 52.8454 74.8946 52.7633 74.9606 52.6976C75.0267 52.6319 75.1011 52.5799 75.1919 52.5443C75.2828 52.5087 75.3847 52.4786 75.5003 52.4594C75.616 52.4403 75.7399 52.4293 75.8776 52.4238C76.0153 52.4184 76.1584 52.4156 76.3126 52.4156C76.5329 52.4156 76.7174 52.4238 76.8634 52.443C77.0121 52.4622 77.1332 52.4841 77.2268 52.5115C77.3204 52.5388 77.392 52.5689 77.4389 52.6018C77.4857 52.6346 77.5215 52.662 77.5435 52.6894C77.5435 52.5115 77.5352 52.3581 77.5215 52.2322C77.5049 52.1063 77.4802 51.9995 77.4471 51.9146C77.4113 51.8298 77.3673 51.7613 77.3122 51.712C77.2571 51.6628 77.191 51.6244 77.1112 51.5971C77.0313 51.5724 76.9377 51.556 76.8331 51.5478C76.7284 51.5396 76.6045 51.5368 76.4696 51.5368C76.2576 51.5368 76.0813 51.5423 75.9409 51.5533C75.8005 51.5642 75.6903 51.5834 75.6077 51.6135C75.5251 51.6436 75.4673 51.6847 75.4343 51.7394C75.4012 51.7942 75.3847 51.8626 75.3847 51.9502H74.9221C74.9221 51.8051 74.9469 51.6819 74.9992 51.5806C75.0515 51.4793 75.1369 51.3972 75.2608 51.3342C75.3847 51.2713 75.5416 51.2247 75.7399 51.1974C75.9382 51.1672 76.1805 51.1536 76.4696 51.1536C76.7532 51.1536 76.9928 51.1755 77.1883 51.222C77.3838 51.2685 77.5435 51.3507 77.6646 51.4657C77.7858 51.5834 77.8739 51.7394 77.9262 51.9365C77.9813 52.1337 78.0061 52.3828 78.0061 52.6867V53.9898H77.5435V53.612H77.5407ZM76.4668 53.6668C76.6706 53.6668 76.8413 53.6585 76.979 53.6394C77.1167 53.6202 77.2268 53.5928 77.3094 53.5545C77.392 53.5162 77.4526 53.4696 77.4884 53.4121C77.5242 53.3547 77.5407 53.289 77.5407 53.215C77.5407 53.1411 77.5215 53.0754 77.4802 53.0234C77.4389 52.9714 77.37 52.9276 77.2764 52.8947C77.18 52.8619 77.0534 52.8372 76.8964 52.8235C76.7394 52.8099 76.5439 52.8016 76.3126 52.8016C76.0813 52.8016 75.8941 52.8044 75.7537 52.8126C75.6105 52.8208 75.5003 52.8372 75.4232 52.8673C75.3461 52.8975 75.2938 52.9385 75.269 52.9933C75.2415 53.048 75.2305 53.122 75.2305 53.2178C75.2305 53.3109 75.2443 53.3902 75.2718 53.4477C75.2993 53.5052 75.3572 53.5518 75.4453 53.5846C75.5334 53.6175 75.6573 53.6394 75.8198 53.6531C75.9795 53.6585 76.1942 53.6668 76.4668 53.6668Z" fill="white"/>
<path d="M79.0659 50.3104H79.5285V53.9898H79.0659V50.3104Z" fill="white"/>
<path d="M83.4883 53.9925V50.3131H86.575C86.8063 50.3131 86.9936 50.3323 87.134 50.3706C87.2744 50.4089 87.3846 50.4637 87.4617 50.5349C87.5388 50.6088 87.5883 50.6991 87.6159 50.8059C87.6407 50.9154 87.6544 51.0386 87.6544 51.181C87.6544 51.2822 87.6462 51.3726 87.6269 51.452C87.6104 51.5314 87.5856 51.5971 87.5581 51.6546C87.5278 51.7121 87.4975 51.7613 87.4589 51.7997C87.4231 51.838 87.3846 51.8708 87.346 51.8955C87.2552 51.9557 87.1533 51.9913 87.0376 51.9995C87.1836 52.0077 87.3102 52.0433 87.4231 52.1036C87.4699 52.1309 87.5195 52.1638 87.5636 52.2048C87.6104 52.2459 87.6517 52.2952 87.6875 52.3554C87.7233 52.4156 87.7536 52.4868 87.7756 52.5662C87.7976 52.6456 87.8086 52.7387 87.8086 52.8455C87.8086 52.9741 87.8031 53.0891 87.7894 53.1959C87.7783 53.3027 87.7536 53.3985 87.715 53.4833C87.6792 53.5682 87.6241 53.6421 87.5553 53.7051C87.4865 53.7681 87.3956 53.8228 87.2799 53.8639C87.1643 53.9077 87.0239 53.9378 86.8586 53.9597C86.6934 53.9816 86.4924 53.9898 86.2611 53.9898H83.4883V53.9925ZM86.1069 51.8435C86.2639 51.8435 86.4016 51.8407 86.5145 51.8353C86.6273 51.8298 86.7265 51.8161 86.8063 51.7997C86.8862 51.7832 86.9523 51.7586 87.0018 51.7258C87.0514 51.6956 87.0899 51.6546 87.1175 51.6053C87.145 51.556 87.1643 51.4958 87.1753 51.4273C87.1863 51.3589 87.1891 51.274 87.1891 51.1782C87.1891 51.0769 87.1781 50.9921 87.156 50.9291C87.134 50.8661 87.0927 50.8168 87.0349 50.7813C86.977 50.7457 86.8972 50.7238 86.8008 50.7128C86.7017 50.7019 86.575 50.6936 86.4208 50.6936H83.9509V51.8435H86.1069ZM86.1069 53.6093C86.2859 53.6093 86.4429 53.6065 86.575 53.6011C86.7072 53.5956 86.8173 53.5846 86.911 53.5655C87.0018 53.5463 87.0762 53.5217 87.1312 53.4861C87.1863 53.4505 87.2304 53.4067 87.2634 53.3492C87.2937 53.2917 87.3157 53.2233 87.3268 53.1411C87.3378 53.059 87.3433 52.9604 87.3433 52.8455C87.3433 52.7551 87.3378 52.6785 87.3268 52.6128C87.3157 52.5471 87.2937 52.4896 87.2634 52.4458C87.2331 52.3992 87.1891 52.3636 87.1312 52.3363C87.0762 52.3089 87.0018 52.287 86.911 52.2705C86.8201 52.2541 86.7072 52.2432 86.575 52.2377C86.4429 52.2322 86.2887 52.2295 86.1069 52.2295H83.9509V53.6093H86.1069Z" fill="white"/>
<path d="M89.3313 50.7703H88.8687V50.3104H89.3313V50.7703ZM88.8687 51.2302H89.3313V53.9898H88.8687V51.2302Z" fill="white"/>
<path d="M90.3174 52.5799C90.3174 52.3006 90.3477 52.0679 90.4082 51.8845C90.4688 51.7011 90.568 51.556 90.7029 51.4465C90.8378 51.3397 91.014 51.2631 91.2288 51.2193C91.4436 51.1755 91.7052 51.1536 92.0136 51.1536C92.322 51.1536 92.5836 51.1755 92.7984 51.2193C93.0131 51.2631 93.1894 51.3397 93.3243 51.4465C93.4592 51.5533 93.5583 51.7011 93.6189 51.8845C93.6795 52.0679 93.7098 52.3006 93.7098 52.5799C93.7098 52.8646 93.6795 53.1028 93.6189 53.289C93.5583 53.4779 93.4592 53.6284 93.3243 53.7379C93.1894 53.8502 93.0131 53.9268 92.7984 53.9734C92.5836 54.0199 92.322 54.0418 92.0136 54.0418C91.7052 54.0418 91.4436 54.0199 91.2288 53.9734C91.014 53.9268 90.8378 53.8474 90.7029 53.7379C90.568 53.6257 90.4688 53.4779 90.4082 53.289C90.3477 53.1028 90.3174 52.8646 90.3174 52.5799ZM90.78 52.5799C90.78 52.7305 90.7855 52.8646 90.7965 52.9769C90.8075 53.0891 90.8295 53.1849 90.8598 53.2671C90.8901 53.3464 90.9342 53.4121 90.992 53.4642C91.0498 53.5162 91.1214 53.5545 91.2151 53.5846C91.3059 53.6147 91.4188 53.6339 91.5482 53.6449C91.6804 53.6558 91.8346 53.6613 92.0136 53.6613C92.1678 53.6613 92.3055 53.6585 92.4266 53.6503C92.5478 53.6421 92.6552 53.6284 92.746 53.601C92.8369 53.5764 92.914 53.5408 92.9773 53.4943C93.0407 53.4477 93.093 53.3848 93.1315 53.3026C93.1701 53.2232 93.2004 53.122 93.2197 53.0042C93.2389 52.8865 93.2472 52.7442 93.2472 52.5799C93.2472 52.4184 93.2389 52.2787 93.2197 52.1638C93.2004 52.0488 93.1728 51.953 93.1315 51.8763C93.093 51.7997 93.0407 51.7367 92.9773 51.6929C92.914 51.6491 92.8369 51.6135 92.746 51.5916C92.6552 51.5697 92.5505 51.5533 92.4266 51.5478C92.3055 51.5423 92.1678 51.5368 92.0136 51.5368C91.8594 51.5368 91.7217 51.5396 91.6006 51.5478C91.4794 51.5533 91.372 51.5697 91.2811 51.5916C91.1903 51.6135 91.1132 51.6491 91.0498 51.6929C90.9865 51.7367 90.9342 51.7997 90.8956 51.8763C90.8571 51.953 90.8268 52.0488 90.8075 52.1638C90.7882 52.2787 90.78 52.4184 90.78 52.5799Z" fill="white"/>
<path d="M97.2396 52.7633C97.2396 52.9987 97.2203 53.1931 97.1818 53.3519C97.1432 53.5107 97.0771 53.6366 96.989 53.7297C96.8982 53.8228 96.7797 53.8912 96.631 53.9323C96.4824 53.9734 96.3006 53.9925 96.0831 53.9925C95.8738 53.9925 95.6948 53.9761 95.5544 53.946C95.4112 53.9131 95.2956 53.8611 95.2075 53.7845C95.1193 53.7078 95.056 53.6065 95.0175 53.4778C94.9789 53.3492 94.9596 53.1904 94.9596 52.9987V51.6162H94.3896V51.2329H94.9596V50.4828H95.4222V51.2329H97.1652V51.6162H95.4222V52.9987C95.4222 53.1521 95.4333 53.2698 95.458 53.3519C95.4801 53.434 95.5186 53.4943 95.5709 53.5326C95.6232 53.5709 95.6893 53.5928 95.7747 53.5983C95.8601 53.6038 95.9619 53.6093 96.0831 53.6093C96.1795 53.6093 96.2648 53.6065 96.3419 53.6038C96.419 53.601 96.4851 53.5901 96.5429 53.5737C96.6008 53.5572 96.6476 53.5326 96.6889 53.497C96.7302 53.4614 96.7605 53.4149 96.7852 53.3519C96.81 53.2889 96.8293 53.2123 96.8403 53.1165C96.8513 53.0207 96.8568 52.9057 96.8568 52.766H97.2396V52.7633Z" fill="white"/>
<path d="M99.7675 54.0446C99.4591 54.0446 99.1975 54.0227 98.9827 53.9816C98.7679 53.9378 98.5917 53.8666 98.4568 53.7626C98.3219 53.6586 98.2227 53.5189 98.1622 53.3465C98.1016 53.174 98.0713 52.9522 98.0713 52.6894C98.0713 52.3883 98.1016 52.1391 98.1622 51.9393C98.2227 51.7422 98.3219 51.5861 98.4568 51.4684C98.5917 51.3507 98.7679 51.2713 98.9827 51.2248C99.1975 51.1782 99.4591 51.1563 99.7675 51.1563C99.9878 51.1563 100.178 51.1727 100.34 51.2029C100.503 51.2357 100.64 51.2822 100.753 51.3425C100.866 51.4027 100.963 51.4766 101.034 51.5642C101.106 51.6518 101.161 51.7422 101.202 51.8353C101.243 51.9311 101.271 52.0406 101.287 52.1693C101.304 52.2979 101.31 52.4321 101.31 52.5744L101.271 52.7277H98.5339C98.5339 52.9331 98.5559 53.1028 98.5972 53.2342C98.6385 53.3656 98.7074 53.4614 98.8037 53.5217C98.9001 53.5819 99.0268 53.6202 99.1837 53.6366C99.3407 53.6531 99.5362 53.6613 99.7675 53.6613C99.9795 53.6613 100.156 53.6558 100.293 53.6449C100.431 53.6339 100.544 53.612 100.624 53.5792C100.704 53.5463 100.764 53.5025 100.797 53.445C100.83 53.3875 100.847 53.3136 100.847 53.2233H101.31C101.31 53.3711 101.285 53.497 101.232 53.6038C101.18 53.7078 101.095 53.7927 100.974 53.8584C100.852 53.9241 100.695 53.9706 100.497 54.0008C100.299 54.0281 100.057 54.0446 99.7675 54.0446ZM99.7675 51.5368C99.6133 51.5368 99.4756 51.5396 99.3545 51.5478C99.2333 51.556 99.1259 51.567 99.035 51.5889C98.9442 51.6108 98.8671 51.6409 98.8037 51.6819C98.7404 51.723 98.6881 51.7696 98.6495 51.827C98.611 51.8818 98.5807 51.9585 98.5614 52.0597C98.5422 52.1583 98.5339 52.2788 98.5339 52.4211H100.847C100.847 52.235 100.828 52.0871 100.786 51.9804C100.745 51.8736 100.682 51.786 100.596 51.7175C100.511 51.6491 100.398 51.6026 100.26 51.5752C100.125 51.5505 99.9602 51.5368 99.7675 51.5368Z" fill="white"/>
<path d="M102.141 52.6045C102.141 52.4156 102.152 52.2459 102.171 52.1008C102.191 51.9557 102.224 51.827 102.273 51.7203C102.323 51.6135 102.389 51.5231 102.472 51.4492C102.554 51.3753 102.659 51.3178 102.785 51.274C102.912 51.2302 103.061 51.1974 103.234 51.1782C103.408 51.159 103.609 51.1508 103.84 51.1508C104.148 51.1508 104.402 51.17 104.603 51.2083C104.801 51.2466 104.961 51.3041 105.076 51.3808C105.192 51.4574 105.272 51.556 105.319 51.6765C105.363 51.7942 105.388 51.9365 105.388 52.1008H104.925C104.925 52.0406 104.922 51.9858 104.919 51.9365C104.917 51.8873 104.906 51.838 104.884 51.7969C104.864 51.7558 104.831 51.7175 104.787 51.6847C104.743 51.6518 104.683 51.6244 104.603 51.6025C104.523 51.5806 104.421 51.5642 104.297 51.5533C104.173 51.5423 104.022 51.5368 103.843 51.5368C103.636 51.5368 103.463 51.545 103.322 51.5587C103.182 51.5724 103.066 51.5971 102.973 51.6299C102.882 51.6628 102.81 51.7066 102.761 51.7613C102.711 51.8161 102.675 51.8818 102.653 51.9612C102.631 52.0406 102.617 52.1336 102.615 52.2404C102.612 52.3472 102.609 52.4704 102.609 52.61C102.609 52.7469 102.612 52.8673 102.615 52.9714C102.617 53.0754 102.631 53.1685 102.653 53.2451C102.675 53.3245 102.711 53.3902 102.761 53.4423C102.81 53.497 102.882 53.5381 102.973 53.5737C103.064 53.6065 103.179 53.6312 103.322 53.6448C103.463 53.6585 103.636 53.6667 103.843 53.6667C104.022 53.6667 104.173 53.6613 104.297 53.6476C104.421 53.6339 104.523 53.6175 104.603 53.5956C104.683 53.5737 104.746 53.5436 104.787 53.5107C104.831 53.4779 104.862 53.4368 104.884 53.3957C104.903 53.3519 104.917 53.3026 104.919 53.2506C104.922 53.1986 104.925 53.1411 104.925 53.0781H105.388C105.388 53.2451 105.366 53.3902 105.319 53.5134C105.275 53.6366 105.192 53.7379 105.076 53.8173C104.961 53.8967 104.804 53.9542 104.603 53.9925C104.405 54.0309 104.148 54.05 103.84 54.05C103.609 54.05 103.408 54.0391 103.234 54.0199C103.061 54.0007 102.912 53.9679 102.785 53.9241C102.659 53.8803 102.554 53.8201 102.472 53.7489C102.389 53.6777 102.323 53.5874 102.273 53.4806C102.224 53.3738 102.191 53.2479 102.171 53.1055C102.152 52.9632 102.141 52.7907 102.141 52.6045Z" fill="white"/>
<path d="M109.066 53.9925V52.4348C109.066 52.2678 109.053 52.1282 109.028 52.0132C109.003 51.8982 108.951 51.8079 108.874 51.7367C108.797 51.6655 108.686 51.6162 108.546 51.5834C108.406 51.5533 108.218 51.5368 107.987 51.5368C107.736 51.5368 107.53 51.556 107.37 51.5916C107.211 51.6272 107.084 51.6792 106.993 51.7422C106.902 51.8079 106.839 51.8845 106.803 51.9749C106.767 52.0652 106.751 52.1665 106.751 52.2788V53.9898H106.288V50.3104H106.751V51.6655C106.784 51.5916 106.828 51.5259 106.888 51.4711C106.949 51.4164 107.015 51.3698 107.095 51.3315C107.172 51.2932 107.257 51.2631 107.348 51.2384C107.439 51.2165 107.53 51.1974 107.621 51.1837C107.712 51.17 107.805 51.1618 107.893 51.1563C107.982 51.1508 108.064 51.1481 108.141 51.1481C108.348 51.1481 108.524 51.1618 108.673 51.1864C108.821 51.2111 108.948 51.2466 109.05 51.2959C109.155 51.3452 109.237 51.4054 109.3 51.4766C109.364 51.5478 109.411 51.6327 109.446 51.7285C109.482 51.8243 109.504 51.9311 109.515 52.0461C109.526 52.161 109.532 52.2897 109.532 52.4293L109.529 53.9871H109.066V53.9925Z" fill="white"/>
<path d="M113.219 53.9925V52.4594C113.219 52.2897 113.205 52.1446 113.18 52.0269C113.155 51.9092 113.103 51.8161 113.026 51.7422C112.949 51.6682 112.839 51.619 112.698 51.5861C112.558 51.5533 112.371 51.5368 112.139 51.5368C111.889 51.5368 111.682 51.556 111.523 51.5916C111.363 51.6272 111.236 51.6792 111.145 51.7476C111.054 51.8161 110.991 51.8955 110.955 51.9886C110.92 52.0816 110.903 52.1884 110.903 52.3034V53.9898H110.44V51.2302H110.903V51.6901C110.936 51.6108 110.986 51.5451 111.049 51.4876C111.112 51.4301 111.181 51.3835 111.261 51.3425C111.341 51.3014 111.423 51.2713 111.517 51.2466C111.608 51.222 111.702 51.2028 111.792 51.1892C111.883 51.1755 111.974 51.1673 112.06 51.1618C112.145 51.1563 112.225 51.1536 112.294 51.1536C112.5 51.1536 112.676 51.1673 112.825 51.1919C112.974 51.2165 113.1 51.2549 113.202 51.3041C113.304 51.3534 113.39 51.4164 113.453 51.4876C113.516 51.5587 113.563 51.6463 113.599 51.7422C113.635 51.838 113.657 51.9475 113.668 52.0652C113.679 52.1857 113.684 52.3143 113.684 52.454L113.681 53.9871H113.219V53.9925Z" fill="white"/>
<path d="M114.513 52.5799C114.513 52.3006 114.543 52.0679 114.604 51.8845C114.664 51.7011 114.763 51.556 114.898 51.4465C115.033 51.3397 115.209 51.2631 115.424 51.2193C115.639 51.1755 115.9 51.1536 116.209 51.1536C116.517 51.1536 116.779 51.1755 116.994 51.2193C117.208 51.2631 117.385 51.3397 117.52 51.4465C117.655 51.5533 117.754 51.7011 117.814 51.8845C117.875 52.0679 117.905 52.3006 117.905 52.5799C117.905 52.8646 117.875 53.1028 117.814 53.289C117.754 53.4779 117.655 53.6284 117.52 53.7379C117.385 53.8502 117.208 53.9268 116.994 53.9734C116.779 54.0199 116.517 54.0418 116.209 54.0418C115.9 54.0418 115.639 54.0199 115.424 53.9734C115.209 53.9268 115.033 53.8474 114.898 53.7379C114.763 53.6257 114.664 53.4779 114.604 53.289C114.543 53.1028 114.513 52.8646 114.513 52.5799ZM114.975 52.5799C114.975 52.7305 114.981 52.8646 114.992 52.9769C115.003 53.0891 115.025 53.1849 115.055 53.2671C115.085 53.3464 115.13 53.4121 115.187 53.4642C115.245 53.5162 115.317 53.5545 115.41 53.5846C115.501 53.6147 115.614 53.6339 115.744 53.6449C115.876 53.6558 116.03 53.6613 116.209 53.6613C116.363 53.6613 116.501 53.6585 116.622 53.6503C116.743 53.6421 116.85 53.6284 116.941 53.601C117.032 53.5764 117.109 53.5408 117.173 53.4943C117.236 53.4477 117.288 53.3848 117.327 53.3026C117.365 53.2232 117.396 53.122 117.415 53.0042C117.434 52.8865 117.443 52.7442 117.443 52.5799C117.443 52.4184 117.434 52.2787 117.415 52.1638C117.396 52.0488 117.368 51.953 117.327 51.8763C117.288 51.7997 117.236 51.7367 117.173 51.6929C117.109 51.6491 117.032 51.6135 116.941 51.5916C116.85 51.5697 116.746 51.5533 116.622 51.5478C116.501 51.5423 116.363 51.5368 116.209 51.5368C116.055 51.5368 115.917 51.5396 115.796 51.5478C115.675 51.5533 115.567 51.5697 115.476 51.5916C115.386 51.6135 115.308 51.6491 115.245 51.6929C115.182 51.7367 115.129 51.7997 115.091 51.8763C115.052 51.953 115.022 52.0488 115.003 52.1638C114.986 52.2787 114.975 52.4184 114.975 52.5799Z" fill="white"/>
<path d="M118.891 50.3104H119.354V53.9898H118.891V50.3104Z" fill="white"/>
<path d="M120.339 52.5799C120.339 52.3006 120.37 52.0679 120.43 51.8845C120.491 51.7011 120.59 51.556 120.725 51.4465C120.86 51.3397 121.036 51.2631 121.251 51.2193C121.466 51.1755 121.727 51.1536 122.036 51.1536C122.344 51.1536 122.606 51.1755 122.82 51.2193C123.035 51.2631 123.211 51.3397 123.346 51.4465C123.481 51.5533 123.58 51.7011 123.641 51.8845C123.701 52.0679 123.732 52.3006 123.732 52.5799C123.732 52.8646 123.701 53.1028 123.641 53.289C123.58 53.4779 123.481 53.6284 123.346 53.7379C123.211 53.8502 123.035 53.9268 122.82 53.9734C122.606 54.0199 122.344 54.0418 122.036 54.0418C121.727 54.0418 121.466 54.0199 121.251 53.9734C121.036 53.9268 120.86 53.8474 120.725 53.7379C120.59 53.6257 120.491 53.4779 120.43 53.289C120.37 53.1028 120.339 52.8646 120.339 52.5799ZM120.802 52.5799C120.802 52.7305 120.807 52.8646 120.818 52.9769C120.829 53.0891 120.852 53.1849 120.882 53.2671C120.912 53.3464 120.956 53.4121 121.014 53.4642C121.072 53.5162 121.143 53.5545 121.237 53.5846C121.328 53.6147 121.441 53.6339 121.57 53.6449C121.702 53.6558 121.857 53.6613 122.036 53.6613C122.19 53.6613 122.327 53.6585 122.449 53.6503C122.57 53.6421 122.677 53.6284 122.768 53.601C122.859 53.5764 122.936 53.5408 122.999 53.4943C123.063 53.4477 123.115 53.3848 123.153 53.3026C123.192 53.2232 123.222 53.122 123.242 53.0042C123.261 52.8865 123.269 52.7442 123.269 52.5799C123.269 52.4184 123.261 52.2787 123.242 52.1638C123.222 52.0488 123.195 51.953 123.153 51.8763C123.115 51.7997 123.063 51.7367 122.999 51.6929C122.936 51.6491 122.859 51.6135 122.768 51.5916C122.677 51.5697 122.572 51.5533 122.449 51.5478C122.327 51.5423 122.19 51.5368 122.036 51.5368C121.881 51.5368 121.744 51.5396 121.623 51.5478C121.501 51.5533 121.394 51.5697 121.303 51.5916C121.212 51.6135 121.135 51.6491 121.072 51.6929C121.008 51.7367 120.956 51.7997 120.918 51.8763C120.879 51.953 120.849 52.0488 120.829 52.1638C120.813 52.2787 120.802 52.4184 120.802 52.5799Z" fill="white"/>
<path d="M127.881 53.6093C127.881 53.8776 127.851 54.0993 127.791 54.2773C127.73 54.4552 127.631 54.5976 127.496 54.7071C127.361 54.8166 127.185 54.8933 126.97 54.9371C126.755 54.9809 126.494 55.0028 126.185 55.0028C125.896 55.0028 125.654 54.9891 125.456 54.9644C125.26 54.9398 125.1 54.8987 124.979 54.844C124.858 54.7892 124.773 54.718 124.72 54.6304C124.668 54.5428 124.643 54.4361 124.643 54.3129H125.106C125.106 54.3758 125.122 54.4251 125.155 54.4662C125.188 54.5072 125.246 54.5374 125.329 54.5593C125.412 54.5812 125.522 54.5976 125.659 54.6058C125.797 54.614 125.973 54.6195 126.185 54.6195C126.417 54.6195 126.612 54.6113 126.769 54.5948C126.926 54.5784 127.053 54.5374 127.149 54.4771C127.245 54.4142 127.314 54.3211 127.356 54.1951C127.397 54.0692 127.419 53.8995 127.419 53.6887C127.397 53.727 127.361 53.7681 127.312 53.8146C127.262 53.8612 127.19 53.8995 127.097 53.9405C127.003 53.9789 126.882 54.0117 126.733 54.0364C126.585 54.061 126.403 54.0747 126.183 54.0747C125.874 54.0747 125.613 54.0528 125.398 54.0062C125.183 53.9597 125.007 53.883 124.872 53.7735C124.737 53.664 124.638 53.5135 124.577 53.3273C124.517 53.1411 124.486 52.9057 124.486 52.6237C124.486 52.3363 124.517 52.0981 124.577 51.9092C124.638 51.7203 124.737 51.5724 124.872 51.4602C125.007 51.3507 125.183 51.2713 125.398 51.2275C125.613 51.1837 125.874 51.1591 126.183 51.1591C126.4 51.1591 126.585 51.17 126.733 51.1919C126.882 51.2138 127.003 51.2412 127.097 51.2768C127.19 51.3096 127.262 51.348 127.312 51.3863C127.361 51.4246 127.397 51.4602 127.419 51.4931V51.2357H127.881V53.6093ZM126.185 51.5369C126.006 51.5369 125.849 51.5423 125.72 51.5533C125.591 51.5642 125.478 51.5834 125.387 51.6135C125.296 51.6436 125.222 51.682 125.164 51.734C125.106 51.786 125.062 51.8517 125.032 51.9311C125.001 52.0105 124.979 52.1063 124.968 52.2185C124.957 52.3308 124.952 52.4622 124.952 52.6155C124.952 52.7661 124.957 52.8975 124.968 53.007C124.979 53.1192 124.998 53.2123 125.032 53.2917C125.062 53.3711 125.106 53.4368 125.164 53.4861C125.222 53.5354 125.296 53.5764 125.387 53.6065C125.478 53.6367 125.591 53.6558 125.72 53.6668C125.849 53.6777 126.006 53.6832 126.185 53.6832C126.339 53.6832 126.477 53.6805 126.598 53.6722C126.719 53.664 126.824 53.6503 126.918 53.6257C127.009 53.6011 127.086 53.5655 127.149 53.5189C127.212 53.4724 127.265 53.4094 127.303 53.33C127.345 53.2506 127.372 53.1521 127.391 53.0344C127.411 52.9166 127.419 52.7743 127.419 52.61C127.419 52.443 127.411 52.3007 127.391 52.183C127.372 52.0652 127.345 51.9667 127.303 51.8873C127.262 51.8079 127.212 51.7449 127.149 51.6984C127.086 51.6518 127.009 51.6163 126.918 51.5916C126.827 51.567 126.719 51.5533 126.598 51.5451C126.477 51.5369 126.339 51.5369 126.185 51.5369Z" fill="white"/>
<path d="M129.407 50.7703H128.944V50.3104H129.407V50.7703ZM128.944 51.2302H129.407V53.9898H128.944V51.2302Z" fill="white"/>
<path d="M132.089 54.0446C131.78 54.0446 131.519 54.0227 131.304 53.9816C131.089 53.9378 130.913 53.8666 130.778 53.7626C130.643 53.6586 130.544 53.5189 130.483 53.3465C130.423 53.174 130.393 52.9522 130.393 52.6894C130.393 52.3883 130.423 52.1391 130.483 51.9393C130.544 51.7422 130.643 51.5861 130.778 51.4684C130.913 51.3507 131.089 51.2713 131.304 51.2248C131.519 51.1782 131.78 51.1563 132.089 51.1563C132.309 51.1563 132.499 51.1727 132.662 51.2029C132.824 51.2357 132.962 51.2822 133.075 51.3425C133.187 51.4027 133.284 51.4766 133.355 51.5642C133.427 51.6518 133.482 51.7422 133.523 51.8353C133.565 51.9311 133.592 52.0406 133.609 52.1693C133.625 52.2979 133.631 52.4321 133.631 52.5744L133.592 52.7277H130.855C130.855 52.9331 130.877 53.1028 130.919 53.2342C130.96 53.3656 131.029 53.4614 131.125 53.5217C131.221 53.5819 131.348 53.6202 131.505 53.6366C131.662 53.6531 131.857 53.6613 132.089 53.6613C132.301 53.6613 132.477 53.6558 132.615 53.6449C132.752 53.6339 132.865 53.612 132.945 53.5792C133.025 53.5463 133.086 53.5025 133.119 53.445C133.152 53.3875 133.168 53.3136 133.168 53.2233H133.631C133.631 53.3711 133.606 53.497 133.554 53.6038C133.501 53.7078 133.416 53.7927 133.295 53.8584C133.174 53.9241 133.017 53.9706 132.818 54.0008C132.62 54.0281 132.378 54.0446 132.089 54.0446ZM132.089 51.5368C131.935 51.5368 131.797 51.5396 131.676 51.5478C131.555 51.556 131.447 51.567 131.356 51.5889C131.265 51.6108 131.188 51.6409 131.125 51.6819C131.062 51.723 131.009 51.7696 130.971 51.827C130.932 51.8818 130.902 51.9585 130.883 52.0597C130.863 52.1583 130.855 52.2788 130.855 52.4211H133.168C133.168 52.235 133.149 52.0871 133.108 51.9804C133.066 51.8736 133.003 51.786 132.918 51.7175C132.832 51.6491 132.719 51.6026 132.582 51.5752C132.447 51.5505 132.282 51.5368 132.089 51.5368Z" fill="white"/>
<path d="M135.583 52.725C135.418 52.7195 135.275 52.7058 135.156 52.6867C135.038 52.6675 134.936 52.6374 134.859 52.6018C134.779 52.5662 134.716 52.5169 134.669 52.454C134.622 52.391 134.589 52.3171 134.57 52.2267C134.551 52.1364 134.54 52.0378 134.54 51.9338C134.54 51.7887 134.57 51.6682 134.631 51.5697C134.691 51.4711 134.79 51.3917 134.925 51.3288C135.06 51.2658 135.236 51.222 135.451 51.1946C135.666 51.1673 135.927 51.1536 136.236 51.1536C136.542 51.1536 136.792 51.17 136.99 51.2001C137.189 51.233 137.346 51.2822 137.461 51.3479C137.577 51.4136 137.659 51.4985 137.706 51.5971C137.753 51.6984 137.775 51.8188 137.775 51.9557H137.313C137.313 51.8681 137.296 51.7997 137.263 51.7449C137.23 51.6901 137.172 51.6491 137.089 51.6162C137.007 51.5861 136.897 51.5642 136.759 51.5505C136.621 51.5396 136.445 51.5314 136.233 51.5314C136.002 51.5314 135.806 51.5341 135.649 51.5423C135.492 51.5478 135.366 51.5642 135.269 51.5889C135.173 51.6135 135.104 51.6546 135.063 51.7066C135.022 51.7586 135 51.8325 135 51.9256C135 51.9803 135.002 52.0324 135.011 52.0844C135.019 52.1364 135.035 52.1802 135.06 52.213C135.085 52.2459 135.123 52.2733 135.173 52.2897C135.223 52.3061 135.291 52.3198 135.377 52.328C135.462 52.3362 135.57 52.3417 135.696 52.3417C135.823 52.3417 135.977 52.3417 136.156 52.3417C136.374 52.3417 136.566 52.3472 136.732 52.3554C136.897 52.3664 137.04 52.3828 137.158 52.4047C137.279 52.4293 137.379 52.4649 137.456 52.5142C137.533 52.5635 137.596 52.6182 137.646 52.6757C137.693 52.7332 137.726 52.8016 137.745 52.881C137.764 52.9604 137.775 53.0508 137.775 53.1548C137.775 53.2588 137.764 53.3519 137.745 53.434C137.726 53.5162 137.693 53.5901 137.643 53.6531C137.593 53.716 137.53 53.7708 137.447 53.8146C137.365 53.8611 137.26 53.8967 137.136 53.9241C137.01 53.9515 136.861 53.9734 136.687 53.9871C136.514 54.0007 136.31 54.009 136.079 54.009C135.79 54.009 135.548 53.9953 135.349 53.9652C135.154 53.9378 134.994 53.8912 134.873 53.8283C134.752 53.7653 134.666 53.6832 134.614 53.5819C134.562 53.4806 134.534 53.3574 134.534 53.2123H134.997C134.997 53.3081 135.013 53.3848 135.046 53.445C135.079 53.5052 135.137 53.5518 135.22 53.5846C135.302 53.6175 135.413 53.6421 135.55 53.6531C135.688 53.664 135.864 53.6722 136.076 53.6722C136.269 53.6722 136.434 53.6668 136.569 53.6585C136.704 53.6503 136.82 53.6366 136.911 53.6175C137.001 53.5983 137.076 53.5737 137.128 53.549C137.18 53.5217 137.222 53.4888 137.249 53.4505C137.277 53.4121 137.293 53.3683 137.302 53.3218C137.31 53.2753 137.313 53.2232 137.313 53.1658C137.313 53.1137 137.31 53.0672 137.302 53.0261C137.293 52.9851 137.277 52.944 137.252 52.9029C137.227 52.8619 137.189 52.8318 137.139 52.8099C137.09 52.788 137.021 52.7715 136.935 52.7578C136.85 52.7442 136.743 52.7359 136.616 52.7277C136.489 52.7195 136.335 52.7195 136.156 52.7195C135.941 52.7332 135.749 52.7305 135.583 52.725Z" fill="white"/>
<path d="M67.2036 8.50597L69.3432 5.31658C66.4078 2.64186 63.8746 0 59.7167 0C54.2315 0 50.4784 3.47138 50.0902 8.65928C49.7845 12.7603 52.0177 13.9238 54.3692 15.6458C53.2898 14.2797 52.5353 12.9985 52.5353 11.0876C52.5353 6.72648 55.545 3.60826 59.7167 3.79716C63.0788 3.95047 65.3697 6.07491 67.2036 8.50597Z" fill="white"/>
<path d="M72.0472 11.6023L70.0288 14.507C73.0357 17.0996 76.1004 20.2807 79.9609 19.9741C83.4552 19.6976 87.525 17.012 87.8307 12.3031C88.0977 8.19936 85.95 6.06123 83.5516 4.40494C84.6695 5.74093 85.1156 6.74839 85.0798 8.65929C85.0027 12.837 84.0004 15.1175 80.1151 16.0264C76.8384 16.7929 73.9499 13.9813 72.0472 11.6023Z" fill="white"/>
<path d="M59.893 19.2623C59.7443 19.2623 59.6011 19.1747 59.5405 19.0269L55.2257 8.71675C55.1458 8.52237 55.2367 8.30062 55.4322 8.22123C55.6277 8.14184 55.8508 8.23218 55.9306 8.42656L60.2455 18.7367C60.3253 18.931 60.2344 19.1528 60.0389 19.2322C59.9894 19.2541 59.9398 19.2623 59.893 19.2623Z" fill="white"/>
<path d="M61.2148 17.2857C61.0661 17.2857 60.9229 17.1981 60.8623 17.0503L56.5475 6.74016C56.4676 6.54578 56.5585 6.32403 56.754 6.24464C56.9495 6.16524 57.1725 6.25559 57.2524 6.44996L61.5672 16.7601C61.6471 16.9544 61.5562 17.1762 61.3607 17.2556C61.3139 17.2775 61.2643 17.2857 61.2148 17.2857Z" fill="white"/>
<path d="M63.0488 16.5274C62.9001 16.5274 62.7569 16.4398 62.6963 16.2919L58.3815 5.98182C58.3016 5.78745 58.3925 5.5657 58.588 5.4863C58.7835 5.40691 59.0065 5.49726 59.0864 5.69163L63.4012 16.0017C63.4811 16.1961 63.3902 16.4179 63.1947 16.4973C63.1479 16.5192 63.0983 16.5274 63.0488 16.5274Z" fill="white"/>
<path d="M65.392 16.9873C65.2433 16.9873 65.1001 16.8997 65.0396 16.7519L60.7247 6.44176C60.6449 6.24738 60.7357 6.02563 60.9312 5.94624C61.1267 5.86684 61.3498 5.95719 61.4296 6.15156L65.7445 16.4617C65.8243 16.656 65.7335 16.8778 65.538 16.9572C65.4911 16.9763 65.4416 16.9873 65.392 16.9873Z" fill="white"/>
<path d="M82.9125 12.2758C82.7638 12.2758 82.6206 12.1881 82.5601 12.0403L78.2452 1.73021C78.1654 1.53583 78.2562 1.31408 78.4517 1.23469C78.6473 1.15529 78.8703 1.24564 78.9501 1.44001L83.265 11.7501C83.3448 11.9445 83.254 12.1662 83.0585 12.2456C83.0117 12.2648 82.9621 12.2758 82.9125 12.2758Z" fill="white"/>
<path d="M81.5883 14.2523C81.4396 14.2523 81.2964 14.1647 81.2359 14.0169L76.921 3.7068C76.8412 3.51243 76.932 3.29067 77.1275 3.21128C77.3203 3.13189 77.5461 3.22223 77.6259 3.41661L81.9408 13.7267C82.0206 13.9211 81.9298 14.1428 81.7343 14.2222C81.6875 14.2414 81.6379 14.2523 81.5883 14.2523Z" fill="white"/>
<path d="M79.7543 15.0107C79.6056 15.0107 79.4625 14.9231 79.4019 14.7753L75.087 4.46516C75.0072 4.27079 75.098 4.04903 75.2935 3.96964C75.489 3.89025 75.7121 3.98059 75.7919 4.17497L80.1068 14.4851C80.1867 14.6794 80.0958 14.9012 79.9003 14.9806C79.8535 14.9998 79.8039 15.0107 79.7543 15.0107Z" fill="white"/>
<path d="M77.4111 14.5508C77.2624 14.5508 77.1192 14.4632 77.0586 14.3153L72.7438 4.00523C72.6639 3.81086 72.7548 3.5891 72.9503 3.50971C73.143 3.43032 73.3688 3.52066 73.4487 3.71504L77.7635 14.0251C77.8434 14.2195 77.7525 14.4413 77.557 14.5207C77.5102 14.5426 77.4606 14.5508 77.4111 14.5508Z" fill="white"/>
<path d="M50.8555 15.0381C50.8555 15.0381 60.0992 20.278 66.0579 11.6215C72.0167 2.96491 77.8212 -5.0866 87.2962 5.39323C87.2962 5.39323 78.6555 0.323051 74.8446 6.07765C70.717 12.3031 62.1616 28.2529 50.8555 15.0381Z" fill="white"/>
</svg>
