<svg width="72" height="72" viewBox="0 0 72 72" fill="none" xmlns="http://www.w3.org/2000/svg">
<path d="M10.5441 10.547C24.6127 -3.51462 47.3833 -3.51673 61.4538 10.547C72.767 21.8545 74.9048 38.6679 68.2164 52.0577L71.9245 68.3601C72.4064 70.479 70.5064 72.3789 68.3857 71.8971L52.0752 68.1909C28.36 80.0255 0 62.8919 0 35.9895C0 26.3788 3.74464 17.3432 10.5441 10.547ZM28.4896 44.9494H51.018C52.651 44.9494 53.9748 43.6262 53.9748 41.994C53.9748 40.3618 52.651 39.0386 51.018 39.0386H28.4896C26.8565 39.0386 25.5327 40.3618 25.5327 41.994C25.5327 43.6262 26.8565 44.9494 28.4896 44.9494ZM20.98 32.9402H51.018C52.651 32.9402 53.9748 31.617 53.9748 29.9848C53.9748 28.3526 52.651 27.0294 51.018 27.0294H20.98C19.347 27.0294 18.0231 28.3526 18.0231 29.9848C18.0231 31.617 19.3471 32.9402 20.98 32.9402Z" fill="white"/>
</svg>
