<svg width="52" height="55" viewBox="0 0 52 55" fill="none" xmlns="http://www.w3.org/2000/svg">
<path d="M0.916864 55H50.417C50.9231 55 51.3335 54.5896 51.3335 54.0831V48.5832C51.3335 48.0772 50.9231 47.6668 50.417 47.6668H48.2766C51.0889 42.0519 51.3335 36.7831 51.3335 30.5846C51.3293 25.8131 50.0344 21.1314 47.5863 17.0359C47.9086 14.9815 47.2611 12.8935 45.8336 11.3812L47.4 9.81433C47.7579 9.4564 47.7579 8.87606 47.4 8.51813L39.1503 0.26845C38.7924 -0.0894834 38.212 -0.0894834 37.8541 0.26845L36.0208 2.10134C35.6629 2.45927 35.6629 3.0396 36.0208 3.39754L36.2873 3.66609L35.7502 4.2032L35.4816 3.93465C35.1237 3.57713 34.5433 3.57713 34.1854 3.93465L16.042 22.0785L13.4815 19.5184C13.1235 19.1605 12.5432 19.1605 12.1853 19.5184L9.43552 22.2686C9.07759 22.6261 9.07759 23.2064 9.43552 23.5644L11.9956 26.1249L11.2688 26.8516C11.0968 27.0237 11.0003 27.2566 11.0003 27.4999V35.75C11.0003 36.2561 11.4107 36.6665 11.9167 36.6665V37.7197C11.9171 37.9887 12.0355 38.2443 12.2402 38.4184L13.1571 39.1985C13.3229 39.339 13.5331 39.4167 13.7504 39.4167H15.5838C15.8007 39.4167 16.0109 39.3395 16.1767 39.1985L17.0935 38.4184C17.2987 38.2443 17.4166 37.9887 17.4171 37.7197V36.6665H18.3335V38.6026C18.3335 38.8644 18.4455 39.1141 18.6415 39.2883L19.5584 40.1023C19.7262 40.2513 19.9427 40.3335 20.1668 40.3331H22.0001C22.2246 40.3335 22.4411 40.2513 22.609 40.1023L23.5254 39.2883C23.7214 39.1141 23.8334 38.8644 23.8334 38.6026V36.6665C24.3399 36.6665 24.7503 36.2561 24.7503 35.75V34.1916L26.3793 31.7477L36.6293 21.5003C37.547 22.2027 38.6275 22.6609 39.7697 22.8321C41.2862 25.2915 42.673 27.6518 42.673 30.6924C42.673 37.9178 37.1546 45.3454 30.0878 47.6663H0.916864C0.410386 47.6663 0 48.0772 0 48.5832V54.0831C0 54.5896 0.410386 55 0.916864 55ZM40.7919 21.0832C38.0073 21.0832 35.7502 18.826 35.7502 16.0415C35.7502 13.2569 38.0073 10.9997 40.7919 10.9997C43.5764 10.9997 45.8336 13.2569 45.8336 16.0415C45.8306 18.8248 43.5752 21.0802 40.7919 21.0832ZM38.5003 2.21254L45.4542 9.16644L44.9171 9.70355L37.9632 2.74965L38.5003 2.21254ZM37.5835 4.96271L41.8829 9.26169C41.5224 9.20085 41.1578 9.16896 40.7919 9.16644C40.7663 9.16644 40.7423 9.16644 40.7167 9.16644L37.0501 5.49982L37.5835 4.96271ZM34.8337 5.87916L38.5159 9.5613C35.4216 10.62 33.519 13.7306 33.9865 16.9671L26.8522 24.1019C26.4879 24.4535 26.4779 25.0339 26.8295 25.3981C27.1816 25.7619 27.7615 25.772 28.1257 25.4203C28.1337 25.4132 28.1412 25.4056 28.1484 25.3981L34.5798 18.9666C34.7863 19.4047 35.0389 19.8193 35.3331 20.2041L25.6667 29.8704L24.9895 29.1931C26.0368 27.6523 25.9676 25.6108 24.8183 24.1447L32.7318 16.2311C33.0835 15.8669 33.0734 15.287 32.7092 14.9349C32.3542 14.5921 31.7906 14.5921 31.4356 14.9349L23.41 22.9605C22.7928 22.6253 22.1025 22.4473 21.4001 22.4427C20.3166 22.4503 19.2756 22.8649 18.4837 23.6042L17.7964 22.9165L34.8337 5.87916ZM23.071 33.4077C22.9707 33.5584 22.917 33.7355 22.917 33.9163V34.8332H12.8336V32.9999H23.3429L23.071 33.4077ZM16.5002 24.2127L17.4078 25.1203C16.4826 27.3124 17.5102 29.8397 19.7023 30.7646C20.9926 31.3088 22.4672 31.1922 23.6555 30.4515L24.3705 31.1666H12.8336V27.8793L16.5002 24.2127ZM23.8968 26.7728C23.8968 28.152 22.7785 29.2699 21.3997 29.2699C20.0208 29.2699 18.9025 28.152 18.9025 26.7728C18.9025 25.3939 20.0208 24.276 21.3997 24.276C22.7781 24.2773 23.8951 25.3943 23.8968 26.7728ZM12.8336 21.4625L14.2871 22.9165L12.8336 24.3704L11.3796 22.9165L12.8336 21.4625ZM15.5833 37.2963L15.246 37.5834H14.0874L13.75 37.2963V36.6665H15.5833V37.2963ZM22.0001 38.191L21.6518 38.4998H20.5151L20.1668 38.191V36.6665H22.0001V38.191ZM44.5063 30.6928C44.5063 27.5759 43.2814 25.119 41.9055 22.8183C43.973 22.4771 45.7723 21.2128 46.7941 19.3837C48.5699 22.8506 49.4972 26.6892 49.5002 30.5846C49.5002 37.0462 49.2593 42.0926 46.2121 47.6668H34.467C40.397 44.1155 44.5063 37.4327 44.5063 30.6928ZM1.83331 49.5001H49.5002V53.1667H1.83331V49.5001Z" fill="url(#paint0_linear)"/>
<defs>
<linearGradient id="paint0_linear" x1="11.9566" y1="19.7471" x2="48.0139" y2="55.8044" gradientUnits="userSpaceOnUse">
<stop stop-color="#662D91"/>
<stop offset="0.437" stop-color="#3873B3"/>
<stop offset="1" stop-color="#00C9DD"/>
</linearGradient>
</defs>
</svg>
