<svg width="450" height="347" viewBox="0 0 450 347" fill="none" xmlns="http://www.w3.org/2000/svg">
<path d="M257.873 41.1284C257.054 40.0815 255.982 39.258 254.757 38.7409C214.363 21.6036 173.923 45.6767 172.216 46.7059C168.577 48.9767 167.44 53.7505 169.663 57.4207C171.886 61.0885 176.644 62.2907 180.343 60.1158C180.937 59.7611 215.852 39.273 248.63 53.1778C251.923 54.5744 255.739 53.5678 257.915 50.7313C260.091 47.8949 260.073 43.9457 257.871 41.1305L257.873 41.1284Z" fill="white"/>
<path d="M199.416 35.798C211.739 33.4334 215.747 47.2644 201.641 51.5093C187.535 55.7543 180.634 59.942 180.343 60.1158C176.644 62.2907 171.886 61.0885 169.663 57.4207C167.44 53.7505 168.577 48.9767 172.216 46.7059C173.078 46.1864 187.093 38.1625 199.416 35.798Z" fill="#FF0000"/>
<path d="M247.797 55.1585C230.39 47.7732 212.256 50.5545 200.114 54.1846C198.978 54.5238 197.78 53.8786 197.439 52.7424C197.099 51.6051 197.744 50.4078 198.881 50.0676C211.705 46.2335 230.887 43.3173 249.48 51.1995C251.354 52.006 253.517 51.747 255.149 50.5209C256.78 49.2947 257.63 47.2905 257.378 45.265C257.125 43.2405 255.808 41.5055 253.926 40.7172C214.542 24.0119 174.997 47.5332 173.328 48.5371C170.643 50.1724 169.792 53.6759 171.426 56.3623C173.061 59.0476 176.563 59.8998 179.25 58.2634C179.399 58.1767 180.798 57.3581 183.143 56.2057C184.208 55.6832 185.495 56.1243 186.017 57.1896C186.54 58.2549 186.1 59.541 185.035 60.0634C182.828 61.1468 181.57 61.8834 181.454 61.9504C176.742 64.7415 170.66 63.2181 167.82 58.5331C164.98 53.8481 166.444 47.7504 171.1 44.865C172.841 43.809 214.218 19.2095 255.593 36.7585C260.671 38.9136 263.043 44.7772 260.889 49.857C258.733 54.9355 252.871 57.3061 247.791 55.1519L247.797 55.1585Z" fill="#2C2B2B"/>
<path d="M188.061 56.2836C187.611 55.1877 188.134 53.9323 189.231 53.4807C189.651 53.3089 190.081 53.1372 190.521 52.9644C191.626 52.5281 192.874 53.0696 193.31 54.1745C193.745 55.278 193.204 56.5264 192.099 56.9627C191.679 57.1285 191.268 57.2941 190.866 57.4585C190.339 57.678 189.746 57.6765 189.22 57.4549C188.692 57.2343 188.277 56.8136 188.061 56.2836Z" fill="#2C2B2B"/>
<path d="M187.013 99.9561C186.194 98.9092 185.121 98.0856 183.896 97.5685C143.503 80.4312 103.062 104.504 101.356 105.534C97.7167 107.804 96.5796 112.578 98.8023 116.248C101.025 119.916 105.784 121.118 109.483 118.943C110.077 118.589 144.992 98.1006 177.77 112.005C181.062 113.402 184.879 112.395 187.055 109.559C189.231 106.723 189.213 102.773 187.01 99.9581L187.013 99.9561Z" fill="white"/>
<path d="M128.556 94.6256C140.879 92.2611 144.887 106.092 130.78 110.337C116.674 114.582 109.774 118.77 109.483 118.943C105.784 121.118 101.025 119.916 98.8023 116.248C96.5796 112.578 97.7167 107.804 101.356 105.534C102.217 105.014 116.232 96.9902 128.556 94.6256Z" fill="#FF0000"/>
<path d="M176.936 113.986C159.529 106.601 141.395 109.382 129.253 113.012C128.117 113.351 126.92 112.706 126.579 111.57C126.238 110.433 126.884 109.235 128.021 108.895C140.844 105.061 160.027 102.145 178.62 110.027C180.494 110.834 182.657 110.575 184.288 109.348C185.92 108.122 186.77 106.118 186.518 104.093C186.265 102.068 184.947 100.333 183.066 99.5447C143.682 82.8394 104.137 106.361 102.468 107.365C99.7828 109 98.9317 112.503 100.566 115.19C102.201 117.875 105.703 118.727 108.39 117.091C108.539 117.004 109.938 116.186 112.282 115.033C113.348 114.511 114.635 114.952 115.157 116.017C115.68 117.082 115.24 118.368 114.175 118.891C111.967 119.974 110.71 120.711 110.594 120.778C105.881 123.569 99.7992 122.046 96.9593 117.361C94.1193 112.676 95.5837 106.578 100.24 103.693C101.981 102.637 143.358 78.037 184.732 95.586C189.811 97.7412 192.182 103.605 190.028 108.685C187.873 113.763 182.011 116.134 176.931 113.979L176.936 113.986Z" fill="#2C2B2B"/>
<path d="M117.201 115.111C116.75 114.015 117.274 112.76 118.371 112.308C118.79 112.136 119.22 111.965 119.66 111.792C120.765 111.356 122.014 111.897 122.45 113.002C122.885 114.106 122.344 115.354 121.239 115.79C120.819 115.956 120.407 116.122 120.006 116.286C119.479 116.506 118.886 116.504 118.36 116.282C117.832 116.062 117.417 115.641 117.201 115.111Z" fill="#2C2B2B"/>
<path d="M152.216 143.701C151.048 143.066 149.737 142.737 148.407 142.751C104.53 143.104 77.0105 181.283 75.8545 182.906C73.4197 186.438 74.2764 191.27 77.7761 193.752C81.2752 196.233 86.1192 195.442 88.647 191.974C89.0506 191.413 112.928 158.722 148.532 158.433C152.109 158.404 155.209 155.962 156.077 152.494C156.944 149.025 155.356 145.41 152.215 143.704L152.216 143.701Z" fill="white"/>
<path d="M96.4666 162.075C106.831 155.001 116.012 166.095 104.76 175.603C93.5086 185.111 88.8447 191.699 88.647 191.975C86.1192 195.442 81.2752 196.233 77.7761 193.753C74.2764 191.27 73.4197 186.438 75.8545 182.907C76.4379 182.087 86.1022 169.149 96.4666 162.075Z" fill="#FF0000"/>
<path d="M148.555 160.582C129.647 160.734 114.118 170.503 104.424 178.665C103.517 179.428 102.161 179.313 101.396 178.407C100.631 177.499 100.747 176.143 101.654 175.379C111.893 166.758 128.33 156.449 148.524 156.28C150.565 156.274 152.446 155.176 153.455 153.402C154.463 151.627 154.446 149.45 153.408 147.693C152.37 145.936 150.471 144.869 148.431 144.894C105.652 145.243 78.7348 182.559 77.6034 184.144C75.7907 186.713 76.4042 190.266 78.9723 192.08C81.5412 193.893 85.0931 193.281 86.9067 190.71C87.0092 190.571 87.9663 189.264 89.6588 187.273C90.4281 186.37 91.7844 186.262 92.6877 187.032C93.591 187.801 93.6994 189.156 92.93 190.059C91.3364 191.932 90.4755 193.108 90.3958 193.216C87.1834 197.652 80.9975 198.674 76.5277 195.507C72.0579 192.339 70.9746 186.162 74.0977 181.662C75.2746 180 103.444 140.966 148.385 140.599C153.902 140.555 158.411 144.991 158.456 150.508C158.5 156.025 154.066 160.533 148.548 160.578L148.555 160.582Z" fill="#2C2B2B"/>
<path d="M94.2018 185.388C93.3523 184.562 93.3327 183.202 94.1596 182.351C94.476 182.026 94.8022 181.697 95.1369 181.364C95.9769 180.524 97.3377 180.524 98.1776 181.364C99.0161 182.203 99.0161 183.564 98.1762 184.404C97.857 184.723 97.5454 185.039 97.2423 185.349C96.8463 185.76 96.3018 185.995 95.7309 186.001C95.1591 186.009 94.6104 185.788 94.2018 185.388Z" fill="#2C2B2B"/>
<path d="M117.075 219.614C116.363 218.492 115.376 217.567 114.208 216.932C75.695 195.906 33.0838 215.887 31.2843 216.743C27.4396 218.645 25.8387 223.284 27.6898 227.155C29.5414 231.023 34.1587 232.688 38.0536 230.887C38.6794 230.592 75.4394 213.636 106.692 230.696C109.831 232.41 113.728 231.783 116.172 229.175C118.617 226.566 118.987 222.634 117.072 219.616L117.075 219.614Z" fill="white"/>
<path d="M59.4249 208.562C71.9211 207.421 74.5494 221.579 60.0941 224.416C45.6389 227.254 38.3602 230.743 38.0536 230.887C34.1587 232.688 29.5414 231.024 27.6898 227.155C25.8387 223.284 27.4396 218.645 31.2843 216.743C32.1925 216.311 46.9287 209.704 59.4249 208.562Z" fill="#FF0000"/>
<path d="M105.667 232.586C89.0704 223.525 70.7509 224.51 58.3108 226.928C57.147 227.154 56.019 226.394 55.7908 225.23C55.564 224.065 56.3239 222.937 57.4891 222.71C70.6275 220.155 90.0037 219.139 107.731 228.811C109.517 229.798 111.695 229.753 113.439 228.693C115.184 227.633 116.227 225.722 116.175 223.682C116.122 221.642 114.981 219.786 113.187 218.817C75.6358 198.32 33.97 217.84 32.2106 218.675C29.3775 220.038 28.1861 223.441 29.548 226.275C30.9113 229.108 34.3127 230.3 37.1472 228.936C37.3045 228.864 38.7766 228.187 41.2232 227.271C42.3348 226.856 43.5722 227.421 43.9874 228.533C44.4027 229.644 43.8386 230.881 42.7271 231.296C40.4242 232.157 39.0999 232.767 38.978 232.822C34.0139 235.136 28.1112 233.022 25.7456 228.081C23.3801 223.139 25.4369 217.215 30.354 214.801C32.1904 213.922 75.7854 193.509 115.234 215.041C120.076 217.685 121.86 223.753 119.217 228.597C116.573 233.439 110.506 235.222 105.662 232.578L105.667 232.586Z" fill="#2C2B2B"/>
<path d="M46.1105 227.832C45.7699 226.697 46.4141 225.499 47.5504 225.158C47.9846 225.028 48.4295 224.899 48.8842 224.771C50.0266 224.445 51.2157 225.107 51.5413 226.249C51.8659 227.39 51.2043 228.579 50.0618 228.905C49.6278 229.028 49.202 229.153 48.7861 229.277C48.2402 229.444 47.6503 229.384 47.1484 229.112C46.6451 228.84 46.2729 228.381 46.1105 227.832Z" fill="#2C2B2B"/>
<path d="M238.37 87.0472C239.476 86.3782 240.701 85.9435 241.928 85.7884C282.414 80.6055 306.123 108.657 307.118 109.852C309.209 112.46 308.204 116.552 304.863 119.036C301.523 121.518 297.087 121.47 294.908 118.926C294.56 118.513 273.969 94.5327 241.117 98.7371C237.817 99.1593 235.063 97.5321 234.416 94.7802C233.769 92.0283 235.396 88.8483 238.371 87.0494L238.37 87.0472Z" fill="#90F04F"/>
<path d="M241.001 100.512C258.447 98.2782 272.348 104.396 280.935 109.918C281.738 110.434 282.995 110.17 283.741 109.327C284.487 108.483 284.441 107.38 283.637 106.862C274.568 101.031 259.853 94.5795 241.22 96.9603C239.337 97.21 237.649 96.5389 236.797 95.2016C235.944 93.8643 236.057 92.0668 237.092 90.4877C238.129 88.9097 239.929 87.7925 241.811 87.5591C281.283 82.5087 304.475 109.924 305.449 111.09C307.008 112.982 306.284 115.989 303.833 117.805C301.382 119.621 298.13 119.559 296.57 117.666C296.482 117.564 295.656 116.605 294.182 115.175C293.512 114.526 292.265 114.607 291.397 115.354C290.529 116.101 290.369 117.232 291.039 117.881C292.427 119.226 293.17 120.089 293.238 120.167C296.007 123.425 301.672 123.496 305.938 120.326C310.204 117.156 311.478 111.927 308.795 108.606C307.782 107.382 283.511 78.7062 242.044 84.0113C236.954 84.6634 232.595 88.8837 232.308 93.4396C232.023 97.9946 235.916 101.159 241.007 100.508L241.001 100.512Z" fill="#2C2B2B"/>
<path d="M290.072 114.186C290.893 113.399 290.972 112.275 290.246 111.677C289.968 111.448 289.682 111.218 289.388 110.985C288.65 110.397 287.394 110.567 286.581 111.364C285.77 112.161 285.709 113.283 286.448 113.871C286.728 114.094 287.002 114.316 287.268 114.534C287.615 114.824 288.107 114.949 288.634 114.883C289.161 114.818 289.678 114.568 290.072 114.186Z" fill="#2C2B2B"/>
<path d="M193.244 131.139C194.024 130.107 195.001 129.25 196.083 128.651C231.765 108.833 264.182 126.1 265.548 126.841C268.457 128.489 269.04 132.661 266.858 136.206C264.676 139.749 260.538 141.349 257.571 139.794C257.095 139.539 229.083 124.898 200.128 140.978C197.22 142.593 194.059 142.102 192.438 139.786C190.818 137.47 191.15 133.914 193.246 131.14L193.244 131.139Z" fill="#90F04F"/>
<path d="M200.677 142.67C216.054 134.129 231.232 134.66 241.254 136.606C242.191 136.788 243.26 136.077 243.641 135.017C244.021 133.957 243.569 132.949 242.631 132.767C232.047 130.711 215.988 130.173 199.565 139.29C197.908 140.22 196.092 140.222 194.805 139.296C193.517 138.37 192.956 136.658 193.332 134.808C193.71 132.958 194.968 131.253 196.629 130.339C231.419 111.02 263.12 127.888 264.456 128.61C266.606 129.789 267.048 132.85 265.445 135.446C263.841 138.04 260.798 139.188 258.647 138.008C258.527 137.946 257.405 137.361 255.506 136.579C254.643 136.225 253.515 136.762 252.985 137.778C252.456 138.793 252.727 139.903 253.589 140.257C255.377 140.992 256.386 141.518 256.48 141.566C260.258 143.565 265.546 141.533 268.334 137.007C271.121 132.482 270.367 127.153 266.644 125.062C265.25 124.301 232.079 106.662 195.531 126.957C191.045 129.45 188.56 134.985 189.983 139.323C191.406 143.659 196.195 145.155 200.682 142.663L200.677 142.67Z" fill="#2C2B2B"/>
<path d="M251.323 137.184C251.793 136.149 251.45 135.076 250.554 134.789C250.212 134.68 249.86 134.572 249.5 134.464C248.597 134.192 247.493 134.815 247.034 135.857C246.576 136.897 246.936 137.962 247.839 138.234C248.182 138.338 248.519 138.442 248.847 138.547C249.276 138.687 249.78 138.621 250.245 138.364C250.711 138.108 251.097 137.684 251.323 137.184Z" fill="#2C2B2B"/>
<path d="M152.148 183.268C152.927 182.237 153.904 181.379 154.986 180.781C190.668 160.963 223.085 178.23 224.452 178.97C227.36 180.618 227.943 184.791 225.761 188.336C223.579 191.879 219.441 193.479 216.474 191.924C215.998 191.669 187.986 177.027 159.032 193.108C156.123 194.723 152.963 194.232 151.342 191.916C149.721 189.6 150.053 186.043 152.15 183.27L152.148 183.268Z" fill="#90F04F"/>
<path d="M159.58 194.8C174.957 186.259 190.136 186.79 200.157 188.736C201.095 188.918 202.163 188.207 202.545 187.147C202.925 186.087 202.473 185.079 201.534 184.897C190.95 182.841 174.892 182.303 158.468 191.42C156.811 192.349 154.995 192.351 153.708 191.425C152.42 190.499 151.859 188.788 152.236 186.938C152.613 185.088 153.871 183.383 155.532 182.469C190.322 163.15 222.023 180.017 223.36 180.74C225.509 181.919 225.951 184.98 224.348 187.575C222.744 190.17 219.701 191.318 217.55 190.138C217.43 190.076 216.308 189.491 214.409 188.709C213.546 188.355 212.418 188.892 211.889 189.907C211.359 190.923 211.63 192.033 212.493 192.387C214.28 193.122 215.29 193.648 215.383 193.696C219.161 195.695 224.449 193.662 227.237 189.137C230.025 184.611 229.27 179.283 225.547 177.192C224.153 176.431 190.982 158.792 154.434 179.087C149.948 181.579 147.464 187.115 148.886 191.452C150.309 195.789 155.098 197.285 159.585 194.793L159.58 194.8Z" fill="#2C2B2B"/>
<path d="M210.226 189.314C210.697 188.278 210.353 187.205 209.457 186.918C209.115 186.809 208.763 186.702 208.404 186.594C207.5 186.321 206.396 186.945 205.937 187.987C205.479 189.027 205.839 190.092 206.742 190.364C207.086 190.468 207.422 190.572 207.75 190.676C208.18 190.817 208.683 190.751 209.148 190.494C209.614 190.238 210.001 189.814 210.226 189.314Z" fill="#2C2B2B"/>
<path d="M122.734 242.096C123.513 241.065 124.49 240.207 125.572 239.608C161.254 219.79 193.671 237.057 195.038 237.798C197.946 239.446 198.529 243.619 196.347 247.164C194.165 250.707 190.027 252.306 187.06 250.751C186.584 250.497 158.572 235.855 129.618 251.935C126.709 253.55 123.548 253.06 121.928 250.744C120.307 248.427 120.639 244.871 122.736 242.098L122.734 242.096Z" fill="#90F04F"/>
<path d="M130.166 253.627C145.543 245.087 160.722 245.617 170.743 247.564C171.681 247.745 172.749 247.035 173.131 245.975C173.511 244.914 173.059 243.907 172.12 243.724C161.536 241.668 145.478 241.131 129.054 250.247C127.397 251.177 125.581 251.179 124.294 250.253C123.006 249.327 122.445 247.616 122.821 245.765C123.199 243.916 124.457 242.211 126.118 241.297C160.908 221.977 192.609 238.845 193.946 239.567C196.095 240.747 196.537 243.807 194.934 246.403C193.33 248.998 190.287 250.146 188.136 248.965C188.016 248.903 186.894 248.319 184.995 247.537C184.132 247.182 183.004 247.719 182.475 248.735C181.945 249.751 182.216 250.86 183.079 251.215C184.866 251.949 185.876 252.476 185.969 252.523C189.747 254.523 195.035 252.49 197.823 247.964C200.611 243.439 199.856 238.11 196.133 236.02C194.739 235.259 161.568 217.62 125.02 237.915C120.534 240.407 118.05 245.942 119.472 250.28C120.895 254.616 125.684 256.112 130.171 253.621L130.166 253.627Z" fill="#2C2B2B"/>
<path d="M180.812 248.141C181.283 247.106 180.939 246.033 180.043 245.746C179.701 245.637 179.349 245.529 178.99 245.422C178.086 245.149 176.982 245.772 176.523 246.814C176.065 247.855 176.425 248.919 177.328 249.192C177.672 249.295 178.008 249.4 178.336 249.504C178.766 249.644 179.269 249.578 179.734 249.322C180.2 249.066 180.587 248.642 180.812 248.141Z" fill="#2C2B2B"/>
<path d="M111.921 276.968C112.62 275.88 113.529 274.951 114.563 274.271C148.637 251.802 182.271 266.558 183.691 267.193C186.716 268.615 187.614 272.731 185.708 276.432C183.801 280.13 179.796 282.039 176.719 280.714C176.225 280.496 147.183 268.024 119.533 286.256C116.755 288.087 113.566 287.838 111.774 285.651C109.983 283.465 110.044 279.894 111.924 276.969L111.921 276.968Z" fill="#90F04F"/>
<path d="M120.209 287.901C134.892 278.218 150.068 277.595 160.208 278.774C161.157 278.885 162.168 278.094 162.468 277.009C162.766 275.922 162.239 274.952 161.289 274.842C150.58 273.595 134.527 274.278 118.843 284.615C117.262 285.668 115.451 285.808 114.097 284.983C112.743 284.157 112.053 282.493 112.288 280.619C112.524 278.746 113.649 276.951 115.236 275.913C148.459 254.008 181.349 268.421 182.736 269.039C184.969 270.052 185.642 273.071 184.241 275.78C182.838 278.49 179.891 279.865 177.657 278.851C177.533 278.799 176.37 278.301 174.417 277.665C173.53 277.378 172.445 277.999 171.995 279.052C171.544 280.104 171.898 281.19 172.785 281.478C174.623 282.075 175.67 282.523 175.766 282.564C179.686 284.271 184.804 281.842 187.24 277.118C189.676 272.394 188.519 267.138 184.648 265.336C183.2 264.683 148.786 249.613 113.885 272.625C109.601 275.45 107.544 281.158 109.291 285.375C111.039 289.591 115.928 290.719 120.213 287.894L120.209 287.901Z" fill="#2C2B2B"/>
<path d="M170.292 278.586C170.683 277.518 170.259 276.474 169.344 276.256C168.994 276.173 168.635 276.093 168.268 276.012C167.347 275.809 166.294 276.515 165.915 277.588C165.537 278.661 165.977 279.695 166.898 279.898C167.248 279.975 167.592 280.054 167.927 280.133C168.366 280.24 168.863 280.136 169.307 279.845C169.752 279.554 170.105 279.102 170.292 278.586Z" fill="#2C2B2B"/>
<path d="M7.55448 292.778C8.39045 291.792 9.41385 290.99 10.5276 290.453C47.263 272.664 78.6626 291.718 79.9859 292.534C82.7978 294.342 83.1463 298.541 80.7691 301.959C78.3921 305.374 74.171 306.74 71.2954 305.021C70.8345 304.74 43.6865 288.553 13.8772 302.987C10.8828 304.437 7.75441 303.77 6.26586 301.367C4.7773 298.964 5.3079 295.432 7.55647 292.78L7.55448 292.778Z" fill="#90F04F"/>
<path d="M14.3302 304.707C30.1608 297.041 45.286 298.42 55.1828 300.925C56.1088 301.159 57.2155 300.508 57.6555 299.472C58.0944 298.434 57.6995 297.403 56.7725 297.168C46.3201 294.523 30.317 293.087 13.4089 301.27C11.7028 302.106 9.88941 302.006 8.65577 301.01C7.42213 300.013 6.95749 298.273 7.43698 296.446C7.91748 294.621 9.26899 292.989 10.9788 292.169C46.7955 274.828 77.5022 293.444 78.7965 294.239C80.8768 295.537 81.1467 298.618 79.4007 301.12C77.6537 303.621 74.5514 304.596 72.4702 303.297C72.3539 303.229 71.2664 302.583 69.4141 301.695C68.5723 301.293 67.4155 301.766 66.8303 302.751C66.2451 303.735 66.453 304.858 67.2947 305.26C69.0384 306.094 70.0167 306.676 70.107 306.729C73.7678 308.936 79.1611 307.203 82.1977 302.841C85.2344 298.478 84.7791 293.115 81.1788 290.82C79.8296 289.982 47.6987 270.514 10.0718 288.731C5.45309 290.969 2.66272 296.356 3.83995 300.767C5.01823 305.176 9.71585 306.937 14.3355 304.701L14.3302 304.707Z" fill="#2C2B2B"/>
<path d="M65.2036 302.065C65.7313 301.058 65.4482 299.967 64.57 299.63C64.2342 299.502 63.8892 299.375 63.5361 299.248C62.6494 298.925 61.5125 299.485 60.9957 300.5C60.48 301.513 60.7797 302.596 61.6665 302.919C62.0034 303.042 62.3332 303.164 62.6549 303.287C63.0763 303.451 63.5828 303.414 64.0612 303.183C64.5405 302.954 64.9503 302.552 65.2036 302.065Z" fill="#2C2B2B"/>
<path d="M12.1297 263.181C12.9656 262.195 13.989 261.393 15.1028 260.856C51.8382 243.067 83.2378 262.121 84.5611 262.937C87.373 264.745 87.7215 268.944 85.3443 272.362C82.9672 275.777 78.7461 277.142 75.8706 275.424C75.4097 275.143 48.2617 258.956 18.4524 273.39C15.458 274.84 12.3296 274.173 10.8411 271.77C9.35249 269.367 9.8831 265.835 12.1317 263.183L12.1297 263.181Z" fill="#90F04F"/>
<path d="M18.9064 275.11C34.7369 267.444 49.8621 268.823 59.759 271.328C60.6849 271.562 61.7917 270.912 62.2316 269.875C62.6706 268.837 62.2756 267.806 61.3487 267.571C50.8963 264.926 34.8931 263.49 17.9851 271.673C16.2789 272.509 14.4656 272.409 13.2319 271.413C11.9983 270.416 11.5337 268.676 12.0132 266.849C12.4937 265.024 13.8452 263.392 15.555 262.572C51.3716 245.231 82.0784 263.847 83.3727 264.642C85.4529 265.941 85.7229 269.021 83.9769 271.523C82.2299 274.024 79.1276 275 77.0464 273.701C76.9301 273.632 75.8425 272.986 73.9902 272.098C73.1485 271.696 71.9917 272.169 71.4065 273.154C70.8213 274.138 71.0291 275.261 71.8709 275.663C73.6146 276.497 74.5929 277.079 74.6831 277.132C78.3439 279.34 83.7372 277.606 86.7739 273.244C89.8106 268.881 89.3552 263.519 85.755 261.223C84.4058 260.385 52.2749 240.917 14.6479 259.134C10.0293 261.372 7.2389 266.759 8.41612 271.17C9.5944 275.579 14.292 277.34 18.9117 275.104L18.9064 275.11Z" fill="#2C2B2B"/>
<path d="M69.7788 272.468C70.3065 271.461 70.0234 270.37 69.1452 270.033C68.8094 269.905 68.4644 269.778 68.1113 269.65C67.2245 269.328 66.0877 269.888 65.5709 270.903C65.0552 271.916 65.3549 272.999 66.2417 273.322C66.5786 273.444 66.9084 273.567 67.2301 273.69C67.6515 273.854 68.158 273.816 68.6364 273.586C69.1157 273.357 69.5255 272.955 69.7788 272.468Z" fill="#2C2B2B"/>
<path d="M360.253 294.686C360.963 293.605 361.881 292.685 362.92 292.016C397.209 269.874 430.7 284.953 432.113 285.601C435.125 287.053 435.983 291.178 434.041 294.86C432.099 298.54 428.076 300.41 425.012 299.055C424.52 298.833 395.599 286.082 367.775 304.047C364.98 305.852 361.794 305.572 360.023 303.368C358.252 301.164 358.348 297.594 360.256 294.688L360.253 294.686Z" fill="#623802"/>
<path d="M368.435 305.699C383.211 296.157 398.391 295.68 408.52 296.957C409.468 297.076 410.487 296.296 410.797 295.213C411.106 294.13 410.588 293.154 409.639 293.035C398.942 291.685 382.883 292.214 367.101 302.4C365.509 303.438 363.697 303.56 362.351 302.722C361.005 301.883 360.332 300.213 360.585 298.341C360.839 296.471 361.981 294.686 363.578 293.664C397.009 272.079 429.759 286.807 431.141 287.439C433.364 288.473 434.008 291.498 432.581 294.194C431.152 296.89 428.192 298.237 425.968 297.202C425.844 297.148 424.686 296.639 422.739 295.985C421.854 295.688 420.764 296.299 420.303 297.347C419.843 298.396 420.186 299.485 421.071 299.781C422.903 300.396 423.945 300.854 424.041 300.896C427.944 302.64 433.085 300.261 435.567 295.56C438.048 290.86 436.941 285.593 433.088 283.754C431.646 283.087 397.379 267.687 362.258 290.362C357.947 293.147 355.835 298.834 357.542 303.068C359.25 307.301 364.127 308.476 368.439 305.692L368.435 305.699Z" fill="#2C2B2B"/>
<path d="M418.605 296.866C419.006 295.801 418.592 294.753 417.679 294.526C417.33 294.44 416.973 294.356 416.606 294.273C415.687 294.061 414.627 294.756 414.238 295.826C413.85 296.894 414.28 297.933 415.199 298.145C415.548 298.225 415.891 298.307 416.225 298.389C416.663 298.501 417.161 298.402 417.608 298.115C418.056 297.828 418.414 297.38 418.605 296.866Z" fill="#2C2B2B"/>
<path d="M251.957 304.045C252.667 302.964 253.585 302.044 254.625 301.375C288.913 279.233 322.404 294.312 323.817 294.96C326.829 296.412 327.687 300.537 325.745 304.219C323.803 307.899 319.78 309.769 316.716 308.414C316.224 308.192 287.303 295.441 259.479 313.406C256.684 315.211 253.498 314.931 251.727 312.727C249.956 310.523 250.052 306.953 251.96 304.047L251.957 304.045Z" fill="#623802"/>
<path d="M260.139 315.058C274.915 305.516 290.096 305.039 300.224 306.316C301.172 306.435 302.191 305.655 302.501 304.572C302.81 303.489 302.292 302.513 301.343 302.394C290.646 301.044 274.587 301.573 258.805 311.759C257.213 312.797 255.402 312.919 254.055 312.081C252.709 311.242 252.036 309.572 252.289 307.7C252.543 305.83 253.685 304.045 255.282 303.023C288.713 281.438 321.463 296.166 322.845 296.798C325.068 297.832 325.712 300.857 324.285 303.553C322.856 306.249 319.896 307.596 317.672 306.561C317.548 306.507 316.39 305.998 314.443 305.344C313.558 305.047 312.468 305.658 312.007 306.706C311.547 307.755 311.89 308.844 312.775 309.14C314.607 309.755 315.649 310.213 315.745 310.255C319.648 311.999 324.789 309.62 327.271 304.92C329.752 300.219 328.646 294.952 324.792 293.113C323.351 292.446 289.083 277.046 253.962 299.721C249.651 302.506 247.539 308.193 249.246 312.427C250.954 316.66 255.831 317.835 260.143 315.051L260.139 315.058Z" fill="#2C2B2B"/>
<path d="M310.31 306.225C310.71 305.16 310.296 304.112 309.383 303.885C309.035 303.799 308.677 303.715 308.311 303.632C307.391 303.42 306.331 304.115 305.942 305.185C305.554 306.253 305.984 307.292 306.903 307.504C307.253 307.584 307.595 307.666 307.929 307.748C308.367 307.86 308.866 307.761 309.312 307.474C309.76 307.187 310.118 306.739 310.31 306.225Z" fill="#2C2B2B"/>
<path d="M328.165 263.935C328.875 262.855 329.793 261.934 330.833 261.265C365.121 239.124 398.612 254.202 400.025 254.851C403.037 256.302 403.895 260.427 401.953 264.109C400.011 267.789 395.988 269.659 392.924 268.305C392.432 268.082 363.511 255.331 335.687 273.296C332.892 275.101 329.706 274.821 327.935 272.617C326.164 270.414 326.26 266.843 328.168 263.937L328.165 263.935Z" fill="#623802"/>
<path d="M336.348 274.948C351.124 265.406 366.305 264.929 376.433 266.206C377.381 266.325 378.4 265.545 378.71 264.462C379.019 263.379 378.501 262.404 377.552 262.284C366.855 260.935 350.796 261.463 335.014 271.649C333.422 272.687 331.61 272.809 330.264 271.971C328.918 271.132 328.245 269.462 328.498 267.591C328.752 265.72 329.894 263.935 331.491 262.913C364.922 241.328 397.672 256.056 399.054 256.688C401.277 257.723 401.921 260.747 400.494 263.443C399.065 266.139 396.105 267.486 393.881 266.451C393.757 266.397 392.599 265.888 390.652 265.234C389.767 264.937 388.677 265.548 388.216 266.597C387.756 267.645 388.099 268.734 388.984 269.031C390.816 269.645 391.858 270.104 391.954 270.145C395.857 271.889 400.998 269.51 403.48 264.81C405.961 260.109 404.855 254.842 401.001 253.004C399.56 252.337 365.292 236.937 330.171 259.612C325.86 262.396 323.748 268.084 325.455 272.318C327.163 276.55 332.04 277.725 336.352 274.941L336.348 274.948Z" fill="#2C2B2B"/>
<path d="M386.518 266.115C386.918 265.051 386.504 264.003 385.591 263.776C385.243 263.69 384.885 263.605 384.519 263.522C383.599 263.31 382.539 264.005 382.15 265.075C381.762 266.144 382.192 267.182 383.111 267.394C383.461 267.475 383.803 267.556 384.137 267.639C384.575 267.75 385.074 267.651 385.52 267.364C385.968 267.078 386.326 266.629 386.518 266.115Z" fill="#2C2B2B"/>
<path d="M369.613 233.185C370.322 232.104 371.24 231.183 372.28 230.514C406.568 208.373 440.06 223.452 441.473 224.1C444.484 225.551 445.343 229.676 443.401 233.358C441.458 237.038 437.435 238.909 434.371 237.554C433.88 237.331 404.959 224.58 377.134 242.546C374.34 244.35 371.153 244.07 369.382 241.867C367.611 239.663 367.707 236.093 369.615 233.186L369.613 233.185Z" fill="#BD6B02"/>
<path d="M377.794 244.197C392.57 234.656 407.751 234.178 417.879 235.456C418.827 235.575 419.846 234.794 420.156 233.712C420.465 232.628 419.947 231.653 418.999 231.533C408.301 230.184 392.243 230.712 376.46 240.898C374.869 241.936 373.057 242.059 371.711 241.22C370.365 240.381 369.691 238.711 369.944 236.84C370.198 234.969 371.34 233.185 372.937 232.162C406.369 210.578 439.118 225.306 440.5 225.937C442.723 226.972 443.367 229.996 441.94 232.693C440.511 235.388 437.551 236.735 435.327 235.7C435.203 235.646 434.045 235.138 432.098 234.483C431.214 234.187 430.123 234.797 429.663 235.846C429.202 236.894 429.545 237.984 430.43 238.28C432.262 238.895 433.304 239.353 433.4 239.394C437.303 241.139 442.445 238.76 444.926 234.059C447.407 229.359 446.301 224.092 442.447 222.253C441.006 221.586 406.739 206.186 371.617 228.861C367.306 231.645 365.194 237.333 366.901 241.567C368.609 245.799 373.487 246.974 377.799 244.19L377.794 244.197Z" fill="#2C2B2B"/>
<path d="M427.964 235.364C428.365 234.3 427.95 233.252 427.038 233.025C426.689 232.939 426.331 232.855 425.965 232.771C425.045 232.559 423.985 233.254 423.596 234.324C423.208 235.393 423.638 236.431 424.557 236.643C424.907 236.724 425.249 236.806 425.583 236.888C426.022 236.999 426.52 236.9 426.967 236.613C427.414 236.327 427.772 235.878 427.964 235.364Z" fill="#2C2B2B"/>
<path d="M345.546 209.119C346.256 208.038 347.173 207.117 348.213 206.448C382.502 184.307 415.993 199.386 417.406 200.034C420.418 201.485 421.276 205.61 419.334 209.292C417.392 212.972 413.369 214.843 410.305 213.488C409.813 213.265 380.892 200.514 353.068 218.48C350.273 220.284 347.087 220.004 345.316 217.801C343.545 215.597 343.64 212.027 345.548 209.12L345.546 209.119Z" fill="#BD6B02"/>
<path d="M353.729 220.131C368.505 210.59 383.685 210.112 393.814 211.39C394.761 211.509 395.781 210.728 396.091 209.646C396.4 208.562 395.882 207.587 394.933 207.467C384.236 206.118 368.177 206.647 352.395 216.832C350.803 217.87 348.991 217.993 347.645 217.154C346.299 216.316 345.626 214.645 345.878 212.774C346.133 210.903 347.275 209.119 348.872 208.096C382.303 186.512 415.053 201.24 416.435 201.872C418.658 202.906 419.302 205.931 417.874 208.627C416.446 211.322 413.486 212.669 411.262 211.634C411.138 211.58 409.98 211.072 408.033 210.417C407.148 210.121 406.058 210.731 405.597 211.78C405.137 212.828 405.48 213.918 406.364 214.214C408.197 214.829 409.239 215.287 409.335 215.328C413.238 217.073 418.379 214.694 420.861 209.993C423.342 205.293 422.235 200.026 418.382 198.187C416.94 197.52 382.673 182.12 347.552 204.795C343.241 207.579 341.129 213.267 342.836 217.501C344.544 221.733 349.421 222.908 353.733 220.125L353.729 220.131Z" fill="#2C2B2B"/>
<path d="M403.898 211.298C404.299 210.234 403.885 209.186 402.972 208.959C402.623 208.873 402.265 208.789 401.899 208.705C400.98 208.493 399.92 209.188 399.531 210.258C399.143 211.327 399.572 212.365 400.492 212.577C400.841 212.658 401.184 212.74 401.518 212.822C401.956 212.933 402.454 212.834 402.901 212.547C403.349 212.261 403.707 211.812 403.898 211.298Z" fill="#2C2B2B"/>
<path d="M262.654 183.716C263.363 182.635 264.281 181.715 265.321 181.045C299.61 158.904 333.101 173.983 334.514 174.631C337.525 176.083 338.384 180.208 336.442 183.89C334.499 187.57 330.476 189.44 327.412 188.085C326.921 187.863 298 175.111 270.175 193.077C267.381 194.882 264.194 194.601 262.423 192.398C260.652 190.194 260.748 186.624 262.656 183.718L262.654 183.716Z" fill="#BD6B02"/>
<path d="M270.835 194.729C285.611 185.187 300.792 184.71 310.92 185.987C311.868 186.106 312.887 185.326 313.197 184.243C313.506 183.16 312.988 182.184 312.04 182.065C301.342 180.715 285.284 181.244 269.501 191.43C267.91 192.467 266.098 192.59 264.752 191.751C263.406 190.913 262.732 189.242 262.985 187.371C263.239 185.501 264.381 183.716 265.978 182.694C299.41 161.109 332.159 175.837 333.541 176.469C335.764 177.503 336.408 180.528 334.981 183.224C333.552 185.919 330.592 187.267 328.368 186.232C328.244 186.178 327.086 185.669 325.139 185.014C324.255 184.718 323.164 185.329 322.704 186.377C322.243 187.426 322.586 188.515 323.471 188.811C325.303 189.426 326.345 189.884 326.441 189.926C330.344 191.67 335.486 189.291 337.967 184.59C340.448 179.89 339.342 174.623 335.488 172.784C334.047 172.117 299.78 156.717 264.658 179.392C260.347 182.177 258.235 187.864 259.942 192.098C261.65 196.331 266.528 197.505 270.84 194.722L270.835 194.729Z" fill="#2C2B2B"/>
<path d="M321.005 185.895C321.406 184.831 320.991 183.783 320.079 183.556C319.73 183.47 319.372 183.386 319.006 183.302C318.086 183.091 317.026 183.786 316.637 184.856C316.249 185.924 316.679 186.963 317.598 187.175C317.948 187.255 318.29 187.337 318.624 187.419C319.063 187.531 319.561 187.432 320.008 187.145C320.455 186.858 320.813 186.41 321.005 185.895Z" fill="#2C2B2B"/>
<path d="M240.316 223.196C241.296 222.353 242.432 221.721 243.616 221.364C282.677 209.525 310.718 233.246 311.898 234.259C314.393 236.484 314.082 240.685 311.201 243.69C308.32 246.692 303.938 247.382 301.365 245.236C300.954 244.887 276.665 224.662 244.968 234.267C241.784 235.232 238.798 234.085 237.703 231.479C236.608 228.873 237.683 225.467 240.318 223.198L240.316 223.196Z" fill="#BD6B02"/>
<path d="M245.147 236.037C261.98 230.935 276.705 234.658 286.09 238.676C286.968 239.051 288.162 238.582 288.759 237.627C289.354 236.67 289.125 235.59 288.246 235.214C278.334 230.97 262.751 227.054 244.774 232.498C242.958 233.057 241.182 232.676 240.119 231.499C239.056 230.322 238.869 228.531 239.628 226.801C240.387 225.073 241.977 223.672 243.793 223.129C281.878 211.59 309.303 234.77 310.457 235.758C312.309 237.364 312.095 240.449 309.98 242.648C307.864 244.846 304.648 245.325 302.795 243.717C302.691 243.632 301.717 242.823 300.026 241.658C299.258 241.129 298.041 241.416 297.309 242.297C296.578 243.178 296.608 244.32 297.376 244.848C298.969 245.944 299.844 246.672 299.925 246.738C303.196 249.49 308.794 248.619 312.474 244.784C316.155 240.949 316.542 235.581 313.344 232.752C312.142 231.714 283.443 207.47 243.434 219.592C238.523 221.081 234.926 225.967 235.4 230.507C235.876 235.046 240.241 237.52 245.153 236.032L245.147 236.037Z" fill="#2C2B2B"/>
<path d="M295.808 241.366C296.487 240.453 296.377 239.332 295.562 238.862C295.251 238.684 294.93 238.504 294.601 238.323C293.775 237.866 292.565 238.242 291.896 239.163C291.229 240.084 291.356 241.2 292.181 241.657C292.495 241.831 292.802 242.004 293.1 242.175C293.491 242.403 293.997 242.445 294.505 242.292C295.015 242.14 295.482 241.808 295.808 241.366Z" fill="#2C2B2B"/>
<path d="M224.383 278.519C224.969 277.367 225.78 276.351 226.74 275.571C258.385 249.793 293.332 261.097 294.808 261.586C297.96 262.697 299.267 266.703 297.742 270.576C296.216 274.447 292.423 276.749 289.229 275.739C288.716 275.572 258.568 266.079 232.888 286.996C230.309 289.097 227.111 289.169 225.109 287.173C223.106 285.178 222.808 281.619 224.385 278.52L224.383 278.519Z" fill="#BD6B02"/>
<path d="M233.727 288.565C247.364 277.456 262.4 275.312 272.607 275.467C273.562 275.482 274.489 274.594 274.678 273.484C274.866 272.373 274.244 271.461 273.288 271.446C262.508 271.281 246.604 273.573 232.038 285.433C230.57 286.639 228.783 286.96 227.353 286.275C225.922 285.589 225.069 284.003 225.115 282.115C225.162 280.228 226.101 278.329 227.575 277.137C258.43 252.006 292.601 263.043 294.044 263.519C296.368 264.303 297.34 267.238 296.218 270.075C295.095 272.911 292.301 274.576 289.976 273.792C289.847 273.752 288.64 273.373 286.633 272.937C285.721 272.74 284.705 273.467 284.362 274.56C284.019 275.652 284.481 276.697 285.392 276.894C287.281 277.304 288.367 277.645 288.467 277.675C292.538 278.98 297.387 276.05 299.336 271.105C301.286 266.16 299.606 261.047 295.574 259.643C294.068 259.138 258.315 247.601 225.9 274.001C221.922 277.242 220.448 283.128 222.61 287.148C224.773 291.167 229.751 291.798 233.73 288.558L233.727 288.565Z" fill="#2C2B2B"/>
<path d="M282.622 274.267C282.903 273.166 282.376 272.17 281.444 272.044C281.088 271.997 280.723 271.953 280.349 271.91C279.412 271.801 278.435 272.608 278.166 273.714C277.898 274.819 278.439 275.804 279.376 275.914C279.733 275.955 280.082 275.999 280.423 276.044C280.871 276.106 281.355 275.953 281.768 275.619C282.181 275.285 282.487 274.8 282.622 274.267Z" fill="#2C2B2B"/>
<path d="M323.368 145.826C324.373 145.013 325.528 144.416 326.722 144.095C366.127 133.454 393.431 158.021 394.579 159.069C397.005 161.369 396.566 165.559 393.594 168.474C390.623 171.388 386.222 171.943 383.716 169.719C383.316 169.358 359.655 148.401 327.68 157.034C324.468 157.901 321.519 156.663 320.503 154.025C319.488 151.387 320.667 148.015 323.37 145.828L323.368 145.826Z" fill="#BD6B02"/>
<path d="M327.806 158.808C344.787 154.222 359.391 158.393 368.649 162.696C369.515 163.098 370.724 162.665 371.349 161.729C371.973 160.791 371.777 159.704 370.91 159.301C361.133 154.757 345.677 150.367 327.541 155.26C325.709 155.763 323.946 155.328 322.919 154.119C321.893 152.91 321.76 151.114 322.571 149.408C323.383 147.704 325.015 146.352 326.847 145.865C365.266 135.494 391.971 159.5 393.094 160.523C394.897 162.186 394.588 165.263 392.407 167.396C390.225 169.528 386.996 169.909 385.193 168.245C385.091 168.156 384.143 167.319 382.488 166.102C381.736 165.55 380.511 165.8 379.753 166.658C378.995 167.516 378.99 168.658 379.742 169.21C381.3 170.354 382.153 171.108 382.232 171.177C385.418 174.027 391.039 173.328 394.835 169.607C398.631 165.886 399.182 160.532 396.072 157.607C394.902 156.532 366.956 131.424 326.596 142.319C321.642 143.657 317.897 148.431 318.233 152.984C318.57 157.535 322.857 160.14 327.813 158.803L327.806 158.808Z" fill="#2C2B2B"/>
<path d="M378.282 165.682C378.988 164.79 378.913 163.666 378.113 163.172C377.806 162.983 377.491 162.794 377.168 162.603C376.357 162.121 375.135 162.46 374.439 163.361C373.744 164.26 373.836 165.38 374.648 165.862C374.956 166.045 375.257 166.228 375.55 166.408C375.934 166.647 376.438 166.705 376.951 166.568C377.465 166.431 377.942 166.113 378.282 165.682Z" fill="#2C2B2B"/>
<path d="M32.6533 199.88C38.2241 155.091 70.4901 62.0363 154.988 48.1316" stroke="white" stroke-linecap="round" stroke-dasharray="5 5"/>
<path d="M159.772 47.6521L146.465 45.6806C145.753 45.5752 145.167 46.2326 145.352 46.9274L147.323 54.3206C147.485 54.9257 148.156 55.2353 148.721 54.9651L160.057 49.5434C160.948 49.1177 160.749 47.7967 159.772 47.6521Z" fill="white"/>
</svg>
