<svg width="741" height="278" viewBox="0 0 741 278" fill="none" xmlns="http://www.w3.org/2000/svg">
<rect width="732.333" height="68.4916" rx="30" fill="#00E668"/>
<rect width="732.333" height="68.4916" rx="30" fill="url(#paint0_linear)"/>
<path d="M355.421 36.0136C356.397 35.0373 356.397 33.4544 355.421 32.4781L339.511 16.5682C338.535 15.5919 336.952 15.5919 335.975 16.5682C334.999 17.5445 334.999 19.1274 335.975 20.1037L350.118 34.2458L335.975 48.388C334.999 49.3643 334.999 50.9472 335.975 51.9235C336.952 52.8998 338.535 52.8998 339.511 51.9235L355.421 36.0136ZM21.7324 36.7458H353.653V31.7458H21.7324V36.7458Z" fill="white"/>
<path d="M30.7972 254.304C30.1425 254.303 29.4977 254.136 28.9257 253.817C10.0311 243.322 7.12709 220.323 7.0097 219.348C6.78899 217.247 8.29844 215.359 10.3973 215.11C12.4953 214.862 14.404 216.346 14.6801 218.441C14.7223 218.779 17.3444 238.547 32.6761 247.064C34.2162 247.919 34.9816 249.706 34.5394 251.411C34.0971 253.116 32.5579 254.305 30.7972 254.303V254.304Z" fill="white"/>
<path d="M11.0149 233.217C13.8305 238.719 20.4162 236.085 17.7907 229.32C15.1652 222.556 14.7008 218.607 14.6801 218.441C14.404 216.346 12.4953 214.862 10.3973 215.11C8.29844 215.359 6.78899 217.247 7.0097 219.348C7.06895 219.84 8.19926 227.714 11.0149 233.217Z" fill="#FF0000"/>
<path d="M33.1919 246.14C25.0495 241.617 20.6352 233.732 18.3661 227.917C18.1536 227.373 17.5403 227.103 16.9955 227.315C16.4507 227.527 16.1813 228.141 16.3937 228.685C18.7901 234.827 23.4698 243.161 32.1644 247.993C33.0456 248.477 33.6003 249.395 33.6185 250.401C33.6367 251.406 33.1159 252.343 32.2529 252.859C31.3898 253.374 30.3169 253.388 29.4406 252.896C11.0197 242.662 8.17275 220.178 8.05702 219.225C7.87846 217.687 8.98121 216.295 10.5196 216.115C12.058 215.937 13.45 217.039 13.6286 218.578C13.6402 218.662 13.746 219.453 14.0088 220.713C14.1287 221.285 14.69 221.652 15.262 221.532C15.8341 221.412 16.2003 220.851 16.0804 220.279C15.8324 219.094 15.7374 218.382 15.7283 218.317C15.3844 215.641 12.9499 213.741 10.2699 214.057C7.58997 214.374 5.66554 216.79 5.95569 219.472C6.07308 220.469 9.05643 243.992 28.4081 254.743C30.7839 256.062 33.7797 255.207 35.0998 252.831C36.4191 250.455 35.5636 247.46 33.1878 246.14H33.1919Z" fill="#2F2754"/>
<path d="M15.5291 222.599C14.967 222.756 14.638 223.34 14.7951 223.903C14.8554 224.118 14.9191 224.337 14.9852 224.56C15.1505 225.121 15.7391 225.442 16.3004 225.277C16.8608 225.112 17.1816 224.523 17.0163 223.962C16.9534 223.748 16.8931 223.538 16.8352 223.333C16.7608 223.061 16.5806 222.832 16.3351 222.694C16.0896 222.556 15.8003 222.523 15.5291 222.599Z" fill="#2F2754"/>
<path d="M51.469 217.608C50.8393 217.513 50.2381 217.292 49.7244 216.965C32.7517 206.188 32.5952 188.097 32.5941 187.331C32.6227 185.685 34.2912 184.45 36.3388 184.56C38.3854 184.671 40.0514 186.085 40.0768 187.735C40.0786 188.001 40.3345 203.568 54.1066 212.313C55.49 213.192 56.0215 214.675 55.4006 215.922C54.7797 217.168 53.1627 217.861 51.4692 217.607L51.469 217.608Z" fill="#90F04F"/>
<path d="M54.7099 211.678C47.3957 207.033 44.0534 200.34 42.5373 195.546C42.3953 195.097 41.8362 194.802 41.2878 194.886C40.7394 194.972 40.4099 195.404 40.5518 195.853C42.1529 200.917 45.6991 207.993 53.509 212.954C54.3012 213.452 54.7295 214.238 54.6317 215.013C54.534 215.788 53.9255 216.434 53.0362 216.706C52.1469 216.978 51.1131 216.835 50.3266 216.331C33.7796 205.823 33.6189 188.135 33.6168 187.387C33.6214 186.179 34.8418 185.268 36.3423 185.351C37.8426 185.434 39.0554 186.481 39.0507 187.689C39.0522 187.756 39.0632 188.379 39.1717 189.385C39.2214 189.842 39.7194 190.204 40.2834 190.193C40.8474 190.183 41.2639 189.805 41.2142 189.349C41.1116 188.402 41.1017 187.841 41.1005 187.79C41.0765 185.684 38.9525 183.874 36.3381 183.733C33.7238 183.592 31.5955 185.172 31.567 187.275C31.5658 188.058 31.7386 206.562 49.1217 217.602C51.2558 218.957 54.2357 218.729 55.7781 217.093C57.3196 215.457 56.84 213.032 54.7059 211.677L54.7099 211.678Z" fill="#2F2754"/>
<path d="M40.4179 191.053C39.8592 191.093 39.4758 191.494 39.5623 191.949C39.5957 192.123 39.6319 192.3 39.6699 192.481C39.7646 192.936 40.294 193.267 40.8529 193.221C41.411 193.174 41.787 192.768 41.6923 192.313C41.6563 192.14 41.6224 191.97 41.5903 191.804C41.5498 191.584 41.4028 191.382 41.1824 191.241C40.962 191.1 40.6876 191.032 40.4179 191.053Z" fill="#2F2754"/>
<path d="M37.0341 259.448L38.3733 260.665C48.7274 270.077 63.1147 271.113 70.5105 262.976L79.031 253.602L78.9453 253.524C71.2592 260.248 57.8893 258.841 48.111 249.952L46.7719 248.735C46.0327 248.063 44.8874 248.118 44.2155 248.857L36.9122 256.892C36.2403 257.631 36.2949 258.776 37.0341 259.448Z" fill="url(#paint1_linear)"/>
<path d="M56.4024 220.092L57.1338 235.43C57.1711 236.158 57.6423 236.797 58.3306 237.046C59.0189 237.295 59.7911 237.102 60.2829 236.561L62.7173 233.883C72.4956 242.771 75.1686 255.946 69.2073 264.237L69.293 264.315L77.8135 254.941C85.2093 246.804 82.8092 232.581 72.455 223.17L74.8895 220.491C75.3812 219.95 75.5 219.163 75.1866 218.502C74.8757 217.838 74.1952 217.429 73.464 217.464L58.1259 218.196C57.1265 218.246 56.3572 219.092 56.4024 220.092Z" fill="url(#paint2_linear)"/>
<path d="M192.147 254.304C191.492 254.303 190.847 254.136 190.275 253.817C171.381 243.322 168.477 220.323 168.359 219.348C168.139 217.247 169.648 215.359 171.747 215.11C173.845 214.862 175.754 216.346 176.03 218.441C176.072 218.779 178.694 238.547 194.026 247.064C195.566 247.919 196.331 249.706 195.889 251.411C195.447 253.116 193.908 254.305 192.147 254.303V254.304Z" fill="white"/>
<path d="M172.364 233.217C175.18 238.719 181.766 236.085 179.14 229.32C176.515 222.556 176.05 218.607 176.03 218.441C175.754 216.346 173.845 214.862 171.747 215.11C169.648 215.359 168.139 217.247 168.359 219.348C168.419 219.84 169.549 227.714 172.364 233.217Z" fill="#FF0000"/>
<path d="M194.543 246.14C186.4 241.617 181.986 233.732 179.717 227.917C179.504 227.373 178.891 227.103 178.346 227.315C177.801 227.527 177.532 228.141 177.744 228.685C180.141 234.827 184.82 243.161 193.515 247.993C194.396 248.477 194.951 249.395 194.969 250.401C194.987 251.406 194.466 252.343 193.603 252.859C192.74 253.374 191.667 253.388 190.791 252.896C172.37 242.662 169.523 220.178 169.408 219.225C169.229 217.687 170.332 216.295 171.87 216.115C173.409 215.937 174.801 217.039 174.979 218.578C174.991 218.662 175.097 219.453 175.359 220.713C175.479 221.285 176.041 221.652 176.613 221.532C177.185 221.412 177.551 220.851 177.431 220.279C177.183 219.094 177.088 218.382 177.079 218.317C176.735 215.641 174.301 213.741 171.621 214.057C168.941 214.374 167.016 216.79 167.306 219.472C167.424 220.469 170.407 243.992 189.759 254.743C192.134 256.062 195.13 255.207 196.45 252.831C197.77 250.455 196.914 247.46 194.538 246.14H194.543Z" fill="#2F2754"/>
<path d="M176.88 222.599C176.318 222.756 175.989 223.34 176.146 223.903C176.206 224.118 176.27 224.337 176.336 224.56C176.501 225.121 177.09 225.442 177.651 225.277C178.211 225.112 178.532 224.523 178.367 223.962C178.304 223.748 178.244 223.538 178.186 223.333C178.111 223.061 177.931 222.832 177.686 222.694C177.44 222.556 177.151 222.523 176.88 222.599Z" fill="#2F2754"/>
<path d="M212.822 217.608C212.192 217.513 211.591 217.292 211.077 216.965C194.104 206.188 193.948 188.097 193.947 187.331C193.975 185.685 195.644 184.45 197.691 184.56C199.738 184.671 201.404 186.085 201.429 187.735C201.431 188.001 201.687 203.568 215.459 212.313C216.843 213.192 217.374 214.675 216.753 215.922C216.132 217.168 214.515 217.861 212.822 217.607L212.822 217.608Z" fill="#90F04F"/>
<path d="M216.06 211.678C208.746 207.033 205.404 200.34 203.888 195.546C203.746 195.097 203.187 194.802 202.638 194.886C202.09 194.972 201.76 195.404 201.902 195.853C203.503 200.917 207.05 207.993 214.86 212.954C215.652 213.452 216.08 214.238 215.982 215.013C215.885 215.788 215.276 216.434 214.387 216.706C213.498 216.978 212.464 216.835 211.677 216.331C195.13 205.823 194.97 188.135 194.967 187.387C194.972 186.179 196.192 185.268 197.693 185.351C199.193 185.434 200.406 186.481 200.401 187.689C200.403 187.756 200.414 188.379 200.522 189.385C200.572 189.842 201.07 190.204 201.634 190.193C202.198 190.183 202.615 189.805 202.565 189.349C202.462 188.402 202.452 187.841 202.451 187.79C202.427 185.684 200.303 183.874 197.689 183.733C195.074 183.592 192.946 185.172 192.918 187.275C192.916 188.058 193.089 206.562 210.472 217.602C212.606 218.957 215.586 218.729 217.129 217.093C218.67 215.457 218.191 213.032 216.057 211.677L216.06 211.678Z" fill="#2F2754"/>
<path d="M201.77 191.053C201.211 191.093 200.827 191.494 200.914 191.949C200.947 192.123 200.983 192.3 201.021 192.481C201.116 192.936 201.646 193.267 202.204 193.221C202.763 193.174 203.139 192.768 203.044 192.313C203.008 192.14 202.974 191.97 202.942 191.804C202.901 191.584 202.754 191.382 202.534 191.241C202.314 191.1 202.039 191.032 201.77 191.053Z" fill="#2F2754"/>
<path d="M198.385 259.448L199.724 260.665C210.078 270.077 224.465 271.113 231.861 262.976L240.382 253.602L240.296 253.524C232.61 260.248 219.24 258.841 209.462 249.952L208.122 248.735C207.383 248.063 206.238 248.118 205.566 248.857L198.263 256.892C197.591 257.631 197.646 258.776 198.385 259.448Z" fill="url(#paint3_linear)"/>
<path d="M217.754 220.092L218.485 235.43C218.523 236.159 218.994 236.797 219.682 237.046C220.37 237.295 221.143 237.102 221.634 236.561L224.069 233.883C233.847 242.771 236.52 255.946 230.559 264.237L230.645 264.315L239.165 254.941C246.561 246.805 244.161 232.581 233.807 223.17L236.241 220.492C236.733 219.95 236.852 219.163 236.538 218.502C236.227 217.838 235.547 217.43 234.816 217.464L219.478 218.196C218.478 218.246 217.709 219.092 217.754 220.092Z" fill="url(#paint4_linear)"/>
<path d="M353.497 254.304C352.843 254.303 352.198 254.136 351.626 253.817C332.731 243.322 329.827 220.323 329.71 219.348C329.489 217.247 330.999 215.359 333.097 215.11C335.196 214.862 337.104 216.346 337.38 218.441C337.422 218.779 340.045 238.547 355.376 247.064C356.916 247.919 357.682 249.706 357.24 251.411C356.797 253.116 355.258 254.305 353.497 254.303V254.304Z" fill="white"/>
<path d="M333.715 233.217C336.531 238.719 343.116 236.085 340.491 229.32C337.865 222.556 337.401 218.607 337.38 218.441C337.104 216.346 335.196 214.862 333.097 215.11C330.999 215.359 329.489 217.247 329.71 219.348C329.769 219.84 330.899 227.714 333.715 233.217Z" fill="#FF0000"/>
<path d="M355.893 246.14C347.751 241.617 343.336 233.732 341.067 227.917C340.855 227.373 340.241 227.103 339.697 227.315C339.152 227.527 338.882 228.141 339.095 228.685C341.491 234.827 346.171 243.161 354.866 247.993C355.747 248.477 356.301 249.395 356.32 250.401C356.338 251.406 355.817 252.343 354.954 252.859C354.091 253.374 353.018 253.388 352.142 252.896C333.721 242.662 330.874 220.178 330.758 219.225C330.58 217.687 331.682 216.295 333.221 216.115C334.759 215.937 336.151 217.039 336.33 218.578C336.341 218.662 336.447 219.453 336.71 220.713C336.83 221.285 337.391 221.652 337.963 221.532C338.535 221.412 338.901 220.851 338.782 220.279C338.534 219.094 338.439 218.382 338.429 218.317C338.086 215.641 335.651 213.741 332.971 214.057C330.291 214.374 328.367 216.79 328.657 219.472C328.774 220.469 331.758 243.992 351.109 254.743C353.485 256.062 356.481 255.207 357.801 252.831C359.12 250.455 358.265 247.46 355.889 246.14H355.893Z" fill="#2F2754"/>
<path d="M338.23 222.599C337.668 222.756 337.339 223.34 337.496 223.903C337.557 224.118 337.62 224.337 337.686 224.56C337.852 225.121 338.44 225.442 339.002 225.277C339.562 225.112 339.883 224.523 339.717 223.962C339.655 223.748 339.594 223.538 339.536 223.333C339.462 223.061 339.282 222.832 339.036 222.694C338.791 222.556 338.501 222.523 338.23 222.599Z" fill="#2F2754"/>
<path d="M374.171 217.608C373.541 217.513 372.94 217.292 372.427 216.965C355.454 206.188 355.297 188.097 355.296 187.331C355.325 185.685 356.993 184.45 359.041 184.56C361.088 184.671 362.754 186.085 362.779 187.735C362.781 188.001 363.037 203.568 376.809 212.313C378.192 213.192 378.724 214.675 378.103 215.922C377.482 217.168 375.865 217.861 374.171 217.607L374.171 217.608Z" fill="#90F04F"/>
<path d="M377.411 211.678C370.097 207.033 366.755 200.34 365.238 195.546C365.096 195.097 364.537 194.802 363.989 194.886C363.441 194.972 363.111 195.404 363.253 195.853C364.854 200.917 368.4 207.993 376.21 212.954C377.002 213.452 377.431 214.238 377.333 215.013C377.235 215.788 376.627 216.434 375.737 216.706C374.848 216.978 373.814 216.835 373.028 216.331C356.481 205.823 356.32 188.135 356.318 187.387C356.323 186.179 357.543 185.268 359.043 185.351C360.544 185.434 361.757 186.481 361.752 187.689C361.753 187.756 361.764 188.379 361.873 189.385C361.923 189.842 362.421 190.204 362.985 190.193C363.549 190.183 363.965 189.805 363.915 189.349C363.813 188.402 363.803 187.841 363.802 187.79C363.778 185.684 361.654 183.874 359.039 183.733C356.425 183.592 354.297 185.172 354.268 187.275C354.267 188.058 354.44 206.562 371.823 217.602C373.957 218.957 376.937 218.729 378.479 217.093C380.021 215.457 379.541 213.032 377.407 211.677L377.411 211.678Z" fill="#2F2754"/>
<path d="M363.12 191.053C362.561 191.093 362.178 191.494 362.264 191.949C362.298 192.123 362.334 192.3 362.372 192.481C362.467 192.936 362.996 193.267 363.555 193.221C364.113 193.174 364.489 192.768 364.394 192.313C364.358 192.14 364.325 191.97 364.292 191.804C364.252 191.584 364.105 191.382 363.885 191.241C363.664 191.1 363.39 191.032 363.12 191.053Z" fill="#2F2754"/>
<path d="M359.735 259.448L361.074 260.665C371.429 270.077 385.816 271.112 393.212 262.976L401.732 253.602L401.646 253.524C393.96 260.247 380.591 258.84 370.812 249.952L369.473 248.735C368.734 248.063 367.589 248.117 366.917 248.857L359.613 256.891C358.941 257.631 358.996 258.776 359.735 259.448Z" fill="url(#paint5_linear)"/>
<path d="M379.104 220.092L379.835 235.43C379.872 236.159 380.343 236.797 381.032 237.046C381.72 237.295 382.492 237.102 382.984 236.561L385.418 233.883C395.197 242.771 397.87 255.946 391.908 264.237L391.994 264.315L400.515 254.941C407.91 246.805 405.51 232.581 395.156 223.17L397.591 220.492C398.082 219.95 398.201 219.163 397.888 218.502C397.577 217.838 396.896 217.43 396.165 217.464L380.827 218.196C379.828 218.246 379.058 219.092 379.104 220.092Z" fill="url(#paint6_linear)"/>
<path d="M514.848 254.304C514.193 254.303 513.548 254.136 512.976 253.817C494.082 243.322 491.178 220.323 491.06 219.348C490.84 217.247 492.349 215.359 494.448 215.11C496.546 214.862 498.455 216.346 498.731 218.441C498.773 218.779 501.395 238.547 516.727 247.064C518.267 247.919 519.032 249.706 518.59 251.411C518.148 253.116 516.609 254.305 514.848 254.303V254.304Z" fill="white"/>
<path d="M495.066 233.217C497.881 238.719 504.467 236.085 501.841 229.32C499.216 222.556 498.752 218.607 498.731 218.441C498.455 216.346 496.546 214.862 494.448 215.11C492.349 215.359 490.84 217.247 491.06 219.348C491.12 219.84 492.25 227.714 495.066 233.217Z" fill="#FF0000"/>
<path d="M517.244 246.14C509.101 241.617 504.687 233.732 502.418 227.917C502.205 227.373 501.592 227.103 501.047 227.315C500.503 227.527 500.233 228.141 500.445 228.685C502.842 234.827 507.522 243.161 516.216 247.993C517.097 248.477 517.652 249.395 517.67 250.401C517.688 251.406 517.168 252.343 516.305 252.859C515.442 253.374 514.369 253.388 513.492 252.896C495.071 242.662 492.225 220.178 492.109 219.225C491.93 217.687 493.033 216.295 494.571 216.115C496.11 215.937 497.502 217.039 497.68 218.578C497.692 218.662 497.798 219.453 498.061 220.713C498.18 221.285 498.742 221.652 499.314 221.532C499.886 221.412 500.252 220.851 500.132 220.279C499.884 219.094 499.789 218.382 499.78 218.317C499.436 215.641 497.002 213.741 494.322 214.057C491.642 214.374 489.717 216.79 490.007 219.472C490.125 220.469 493.108 243.992 512.46 254.743C514.836 256.062 517.831 255.207 519.152 252.831C520.471 250.455 519.615 247.46 517.24 246.14H517.244Z" fill="#2F2754"/>
<path d="M499.581 222.599C499.019 222.756 498.69 223.34 498.847 223.903C498.907 224.118 498.971 224.337 499.037 224.56C499.202 225.121 499.791 225.442 500.352 225.277C500.913 225.112 501.233 224.523 501.068 223.962C501.005 223.748 500.945 223.538 500.887 223.333C500.813 223.061 500.632 222.832 500.387 222.694C500.141 222.556 499.852 222.523 499.581 222.599Z" fill="#2F2754"/>
<path d="M535.521 217.608C534.891 217.513 534.29 217.292 533.776 216.965C516.803 206.188 516.647 188.097 516.646 187.331C516.674 185.685 518.343 184.45 520.391 184.56C522.437 184.671 524.103 186.085 524.129 187.735C524.13 188.001 524.386 203.568 538.158 212.313C539.542 213.192 540.073 214.675 539.452 215.922C538.831 217.168 537.214 217.861 535.521 217.607L535.521 217.608Z" fill="#90F04F"/>
<path d="M538.762 211.678C531.447 207.033 528.105 200.34 526.589 195.546C526.447 195.097 525.888 194.802 525.34 194.886C524.791 194.972 524.462 195.404 524.604 195.853C526.205 200.917 529.751 207.993 537.561 212.954C538.353 213.452 538.781 214.238 538.683 215.013C538.586 215.788 537.977 216.434 537.088 216.706C536.199 216.978 535.165 216.835 534.378 216.331C517.831 205.823 517.671 188.135 517.669 187.387C517.673 186.179 518.894 185.268 520.394 185.351C521.894 185.434 523.107 186.481 523.102 187.689C523.104 187.756 523.115 188.379 523.223 189.385C523.273 189.842 523.771 190.204 524.335 190.193C524.899 190.183 525.316 189.805 525.266 189.349C525.163 188.402 525.153 187.841 525.152 187.79C525.128 185.684 523.004 183.874 520.39 183.733C517.776 183.592 515.647 185.172 515.619 187.275C515.618 188.058 515.79 206.562 533.173 217.602C535.308 218.957 538.288 218.729 539.83 217.093C541.371 215.457 540.892 213.032 538.758 211.677L538.762 211.678Z" fill="#2F2754"/>
<path d="M524.47 191.053C523.911 191.093 523.528 191.494 523.614 191.949C523.648 192.123 523.684 192.3 523.722 192.481C523.816 192.936 524.346 193.267 524.905 193.221C525.463 193.174 525.839 192.768 525.744 192.313C525.708 192.14 525.674 191.97 525.642 191.804C525.602 191.584 525.455 191.382 525.234 191.241C525.014 191.1 524.739 191.032 524.47 191.053Z" fill="#2F2754"/>
<path d="M521.086 259.448L522.425 260.665C532.779 270.077 547.166 271.112 554.562 262.976L563.083 253.602L562.997 253.524C555.311 260.247 541.941 258.84 532.163 249.952L530.824 248.735C530.084 248.063 528.939 248.118 528.267 248.857L520.964 256.892C520.292 257.631 520.347 258.776 521.086 259.448Z" fill="url(#paint7_linear)"/>
<path d="M540.454 220.092L541.186 235.43C541.223 236.159 541.694 236.797 542.382 237.046C543.071 237.295 543.843 237.102 544.335 236.561L546.769 233.883C556.547 242.771 559.22 255.946 553.259 264.237L553.345 264.315L561.865 254.941C569.261 246.805 566.861 232.581 556.507 223.17L558.941 220.492C559.433 219.95 559.552 219.163 559.238 218.502C558.927 217.838 558.247 217.43 557.516 217.464L542.178 218.196C541.178 218.246 540.409 219.092 540.454 220.092Z" fill="url(#paint8_linear)"/>
<path d="M676.199 254.304C675.544 254.303 674.899 254.136 674.327 253.817C655.432 243.322 652.528 220.323 652.411 219.348C652.19 217.247 653.7 215.359 655.799 215.11C657.897 214.862 659.805 216.346 660.081 218.441C660.124 218.779 662.746 238.547 678.078 247.064C679.618 247.919 680.383 249.706 679.941 251.411C679.498 253.116 677.959 254.305 676.199 254.303V254.304Z" fill="white"/>
<path d="M656.416 233.217C659.232 238.719 665.818 236.085 663.192 229.32C660.567 222.556 660.102 218.607 660.081 218.441C659.805 216.346 657.897 214.862 655.799 215.11C653.7 215.359 652.19 217.247 652.411 219.348C652.47 219.84 653.601 227.714 656.416 233.217Z" fill="#FF0000"/>
<path d="M678.594 246.14C670.452 241.617 666.038 233.732 663.768 227.917C663.556 227.373 662.943 227.103 662.398 227.315C661.853 227.527 661.584 228.141 661.796 228.685C664.192 234.827 668.872 243.161 677.567 247.993C678.448 248.477 679.003 249.395 679.021 250.401C679.039 251.406 678.518 252.343 677.655 252.859C676.792 253.374 675.719 253.388 674.843 252.896C656.422 242.662 653.575 220.178 653.459 219.225C653.281 217.687 654.384 216.295 655.922 216.115C657.46 215.937 658.852 217.039 659.031 218.578C659.043 218.662 659.148 219.453 659.411 220.713C659.531 221.285 660.092 221.652 660.664 221.532C661.236 221.412 661.603 220.851 661.483 220.279C661.235 219.094 661.14 218.382 661.131 218.317C660.787 215.641 658.352 213.741 655.672 214.057C652.992 214.374 651.068 216.79 651.358 219.472C651.475 220.469 654.459 243.992 673.81 254.743C676.186 256.062 679.182 255.207 680.502 252.831C681.821 250.455 680.966 247.46 678.59 246.14H678.594Z" fill="#2F2754"/>
<path d="M660.931 222.599C660.369 222.756 660.04 223.34 660.197 223.903C660.258 224.118 660.321 224.337 660.388 224.56C660.553 225.121 661.141 225.442 661.703 225.277C662.263 225.112 662.584 224.523 662.419 223.962C662.356 223.748 662.295 223.538 662.238 223.333C662.163 223.061 661.983 222.832 661.737 222.694C661.492 222.556 661.203 222.523 660.931 222.599Z" fill="#2F2754"/>
<path d="M696.871 217.608C696.242 217.513 695.64 217.292 695.127 216.965C678.154 206.188 677.998 188.097 677.996 187.331C678.025 185.685 679.694 184.45 681.741 184.56C683.788 184.671 685.454 186.085 685.479 187.735C685.481 188.001 685.737 203.568 699.509 212.313C700.892 213.192 701.424 214.675 700.803 215.922C700.182 217.168 698.565 217.861 696.871 217.607L696.871 217.608Z" fill="#90F04F"/>
<path d="M700.112 211.678C692.798 207.033 689.456 200.34 687.94 195.546C687.798 195.097 687.238 194.802 686.69 194.886C686.142 194.972 685.812 195.404 685.954 195.853C687.555 200.917 691.101 207.993 698.911 212.954C699.704 213.452 700.132 214.238 700.034 215.013C699.936 215.788 699.328 216.434 698.439 216.706C697.549 216.978 696.515 216.835 695.729 216.331C679.182 205.823 679.021 188.135 679.019 187.387C679.024 186.179 680.244 185.268 681.745 185.351C683.245 185.434 684.458 186.481 684.453 187.689C684.455 187.756 684.466 188.379 684.574 189.385C684.624 189.842 685.122 190.204 685.686 190.193C686.25 190.183 686.666 189.805 686.617 189.349C686.514 188.402 686.504 187.841 686.503 187.79C686.479 185.684 684.355 183.874 681.74 183.733C679.126 183.592 676.998 185.172 676.969 187.275C676.968 188.058 677.141 206.562 694.524 217.602C696.658 218.957 699.638 218.729 701.18 217.093C702.722 215.457 702.242 213.032 700.108 211.677L700.112 211.678Z" fill="#2F2754"/>
<path d="M685.82 191.053C685.262 191.093 684.878 191.494 684.965 191.949C684.998 192.123 685.034 192.3 685.072 192.481C685.167 192.936 685.696 193.267 686.255 193.221C686.813 193.174 687.189 192.768 687.095 192.313C687.059 192.14 687.025 191.97 686.993 191.804C686.952 191.584 686.805 191.382 686.585 191.241C686.364 191.1 686.09 191.032 685.82 191.053Z" fill="#2F2754"/>
<path d="M682.436 259.448L683.776 260.665C694.13 270.077 708.517 271.113 715.913 262.976L724.433 253.602L724.348 253.524C716.662 260.248 703.292 258.841 693.513 249.952L692.174 248.735C691.435 248.063 690.29 248.118 689.618 248.857L682.315 256.892C681.643 257.631 681.697 258.776 682.436 259.448Z" fill="url(#paint9_linear)"/>
<path d="M701.805 220.092L702.536 235.43C702.573 236.159 703.045 236.797 703.733 237.046C704.421 237.295 705.193 237.102 705.685 236.561L708.12 233.883C717.898 242.771 720.571 255.946 714.61 264.237L714.695 264.315L723.216 254.941C730.612 246.805 728.212 232.581 717.857 223.17L720.292 220.492C720.784 219.95 720.902 219.163 720.589 218.502C720.278 217.838 719.598 217.43 718.866 217.464L703.528 218.196C702.529 218.246 701.76 219.092 701.805 220.092Z" fill="url(#paint10_linear)"/>
<path d="M37.6767 146.797C36.9757 148.175 35.4801 148.958 33.9485 148.749C32.4176 148.541 31.1862 147.385 30.8795 145.871C29.0655 136.903 17.952 134.598 17.8406 134.576C15.8728 134.185 14.5942 132.273 14.9848 130.306C15.375 128.338 17.2867 127.059 19.2545 127.45C19.9073 127.58 35.2367 130.773 38 144.428C38.1636 145.232 38.0502 146.067 37.6767 146.797Z" fill="#8AEF53"/>
<path d="M27.1841 129.366C24.7473 128.056 22.1452 127.083 19.4478 126.472C16.9456 125.983 14.5195 127.611 14.0231 130.112C13.5261 132.612 15.1455 135.043 17.644 135.548C17.7513 135.57 28.2315 137.797 29.9042 146.065C30.2946 147.995 31.8627 149.467 33.8135 149.733C35.764 150.001 37.6697 149.004 38.5638 147.249C39.0365 146.318 39.1815 145.255 38.9761 144.231C37.3968 136.432 31.9376 131.901 27.1841 129.366ZM34.9621 147.731C33.5346 148.021 32.1435 147.098 31.8547 145.67C29.9085 136.051 18.1511 133.621 18.0342 133.597C16.6054 133.315 15.6771 131.926 15.9604 130.498C16.2434 129.068 17.6316 128.14 19.06 128.423C19.6844 128.548 34.3899 131.61 37.0239 144.624C37.3127 146.052 36.3895 147.443 34.9617 147.732L34.9621 147.731Z" fill="black"/>
<path d="M45.6522 148.706C44.132 148.426 42.9554 147.216 42.7191 145.688C42.4826 144.161 43.2389 142.652 44.6036 141.926C52.6825 137.632 51.7249 126.322 51.7146 126.209C51.5279 124.212 52.9967 122.441 54.9932 122.255C56.9906 122.069 58.7613 123.536 58.948 125.534C59.009 126.197 60.3171 141.8 48.0152 148.34C47.2917 148.726 46.4586 148.856 45.6522 148.706Z" fill="#8AEF53"/>
<path d="M59.3708 133.681C59.9319 130.972 60.1234 128.2 59.9404 125.441C59.6955 122.903 57.4441 121.041 54.9058 121.278C52.3676 121.514 50.4985 123.759 50.7264 126.298C50.7359 126.407 51.5876 137.088 44.1393 141.047C42.4011 141.971 41.4369 143.894 41.7372 145.84C42.0367 147.785 43.5352 149.328 45.4719 149.685C46.499 149.873 47.5597 149.709 48.4827 149.22C55.5079 145.484 58.296 138.96 59.3708 133.681ZM43.9836 146.37C43.299 145.084 43.7875 143.488 45.0738 142.804C53.7391 138.198 52.7185 126.235 52.7078 126.116C52.5715 124.666 53.6376 123.381 55.0875 123.245C56.5384 123.109 57.8238 124.175 57.9593 125.625C58.0182 126.259 59.2732 141.228 47.5494 147.461C46.2631 148.145 44.6665 147.656 43.9829 146.37L43.9836 146.37Z" fill="black"/>
<path d="M14.6349 121.993C13.0991 122.167 11.6214 121.351 10.9513 119.958C10.2812 118.566 10.5662 116.902 11.661 115.811C18.1429 109.354 13.9393 98.8109 13.8966 98.7056C13.1374 96.8487 14.0281 94.7276 15.8843 93.9693C17.7412 93.2101 19.8622 94.1 20.6214 95.9569C20.8724 96.5735 26.6594 111.123 16.7896 120.957C16.2095 121.536 15.45 121.902 14.6349 121.993Z" fill="#8AEF53"/>
<path d="M23.3938 103.63C23.1432 100.874 22.5208 98.1668 21.5436 95.5794C20.5717 93.2225 17.8764 92.0956 15.5165 93.06C13.1565 94.0235 12.0206 96.7151 12.9767 99.0781C13.0175 99.1796 16.9368 109.151 10.961 115.105C9.56638 116.494 9.20262 118.614 10.0556 120.389C10.9077 122.163 12.7899 123.204 14.7468 122.983C15.7841 122.864 16.7514 122.398 17.4924 121.662C23.1283 116.046 23.8997 108.993 23.3938 103.63ZM12.3592 120.243C11.3304 119.212 11.3338 117.542 12.3658 116.514C19.318 109.588 14.8644 98.4386 14.8196 98.328C14.2677 96.9802 14.9142 95.4404 16.2621 94.8893C17.6108 94.3373 19.1506 94.9838 19.7017 96.3317C19.9423 96.9211 25.4939 110.879 16.0881 120.251C15.0561 121.279 13.3864 121.275 12.3584 120.243L12.3592 120.243Z" fill="black"/>
<path d="M55.5817 113.707C56.1975 115.125 55.8489 116.777 54.7126 117.825C53.5771 118.872 51.9024 119.086 50.539 118.358C42.4692 114.047 33.6154 121.149 33.5272 121.22C31.9733 122.489 29.6846 122.257 28.4168 120.704C27.148 119.15 27.379 116.861 28.9329 115.593C29.4492 115.172 41.6718 105.385 53.9608 111.95C54.6845 112.335 55.2565 112.954 55.5817 113.707Z" fill="#8AEF53"/>
<path d="M35.4598 110.699C32.8982 111.744 30.4908 113.13 28.302 114.821C26.3322 116.44 26.0423 119.347 27.6544 121.322C29.2657 123.297 32.1717 123.596 34.1521 121.991C34.2373 121.923 42.6278 115.26 50.068 119.234C51.8043 120.162 53.9379 119.89 55.3857 118.556C56.8339 117.222 57.2787 115.118 56.4951 113.311C56.0781 112.354 55.3505 111.565 54.4301 111.071C47.4111 107.323 40.4408 108.647 35.4598 110.699ZM54.5732 116.395C53.8878 117.68 52.2901 118.165 51.0053 117.479C42.3494 112.855 32.9887 120.373 32.8961 120.448C31.7684 121.37 30.1069 121.202 29.1858 120.074C28.2638 118.945 28.4319 117.284 29.5599 116.363C30.0532 115.96 41.7783 106.571 53.4903 112.827C54.7751 113.514 55.26 115.111 54.5735 116.396L54.5732 116.395Z" fill="black"/>
<path d="M24.8748 90.0255C24.8253 88.4807 25.7586 87.0739 27.2012 86.5188C28.6431 85.9637 30.2787 86.3825 31.2774 87.5621C37.1882 94.5458 48.037 91.2101 48.1454 91.176C50.0577 90.5698 52.0997 91.6293 52.7052 93.5409C53.3114 95.4532 52.2527 97.4951 50.3404 98.1014C49.7055 98.3016 34.7349 102.891 25.7332 92.2571C25.2027 91.632 24.8994 90.8453 24.8748 90.0255Z" fill="#8AEF53"/>
<path d="M42.4682 100.243C45.2346 100.217 47.9837 99.8158 50.6418 99.0514C53.0696 98.2736 54.4112 95.6784 53.6411 93.2481C52.8719 90.8179 50.2812 89.4677 47.8485 90.2292C47.744 90.2616 37.4876 93.3603 32.0378 86.9218C30.766 85.4193 28.6826 84.885 26.8447 85.5914C25.0067 86.297 23.8172 88.0887 23.8793 90.0571C23.9138 91.1007 24.2991 92.1024 24.9726 92.9006C30.1145 98.973 37.0817 100.313 42.4682 100.243ZM26.8031 87.8992C27.9142 86.9574 29.5781 87.096 30.5191 88.2079C36.8594 95.6983 48.333 92.1625 48.4468 92.1268C49.835 91.6859 51.3173 92.455 51.7575 93.8431C52.1984 95.2321 51.4293 96.7144 50.0411 97.1545C49.4341 97.3466 35.0729 101.749 26.4936 91.6153C25.5526 90.5034 25.6911 88.8395 26.8031 87.8985L26.8031 87.8992Z" fill="black"/>
<path d="M186.179 146.797C185.478 148.175 183.982 148.958 182.45 148.749C180.92 148.541 179.688 147.385 179.381 145.871C177.567 136.903 166.454 134.598 166.343 134.576C164.375 134.185 163.096 132.273 163.487 130.306C163.877 128.338 165.789 127.059 167.756 127.45C168.409 127.58 183.739 130.773 186.502 144.428C186.666 145.232 186.552 146.067 186.179 146.797Z" fill="#8AEF53"/>
<path d="M175.686 129.366C173.249 128.056 170.647 127.083 167.95 126.472C165.448 125.983 163.021 127.611 162.525 130.112C162.028 132.612 163.647 135.043 166.146 135.548C166.253 135.57 176.733 137.797 178.406 146.065C178.797 147.995 180.365 149.467 182.315 149.733C184.266 150.001 186.172 149.004 187.066 147.249C187.538 146.318 187.683 145.255 187.478 144.231C185.899 136.432 180.44 131.901 175.686 129.366ZM183.464 147.731C182.037 148.021 180.645 147.098 180.357 145.67C178.41 136.051 166.653 133.621 166.536 133.597C165.107 133.315 164.179 131.926 164.462 130.498C164.745 129.068 166.134 128.14 167.562 128.423C168.186 128.548 182.892 131.61 185.526 144.624C185.815 146.052 184.891 147.443 183.464 147.732L183.464 147.731Z" fill="black"/>
<path d="M194.156 148.706C192.636 148.426 191.459 147.216 191.223 145.688C190.986 144.161 191.743 142.652 193.107 141.926C201.186 137.632 200.229 126.322 200.219 126.209C200.032 124.212 201.501 122.441 203.497 122.255C205.494 122.069 207.265 123.536 207.452 125.534C207.513 126.197 208.821 141.8 196.519 148.34C195.796 148.726 194.962 148.856 194.156 148.706Z" fill="#8AEF53"/>
<path d="M207.874 133.681C208.435 130.972 208.626 128.2 208.443 125.441C208.198 122.903 205.947 121.041 203.409 121.278C200.871 121.514 199.001 123.759 199.229 126.298C199.239 126.407 200.091 137.088 192.642 141.047C190.904 141.971 189.94 143.894 190.24 145.84C190.54 147.785 192.038 149.328 193.975 149.685C195.002 149.873 196.063 149.709 196.986 149.22C204.011 145.484 206.799 138.96 207.874 133.681ZM192.487 146.37C191.802 145.084 192.29 143.488 193.577 142.804C202.242 138.198 201.221 126.235 201.211 126.116C201.074 124.666 202.141 123.381 203.59 123.245C205.041 123.109 206.327 124.175 206.462 125.625C206.521 126.259 207.776 141.228 196.052 147.461C194.766 148.145 193.169 147.656 192.486 146.37L192.487 146.37Z" fill="black"/>
<path d="M178.562 104.539C179.24 105.928 178.966 107.594 177.878 108.691C176.79 109.789 175.127 110.077 173.732 109.411C165.478 105.465 156.95 112.955 156.865 113.031C155.37 114.368 153.073 114.239 151.737 112.744C150.4 111.248 150.528 108.951 152.024 107.614C152.521 107.172 164.294 96.8475 176.864 102.856C177.604 103.208 178.203 103.802 178.562 104.539Z" fill="#8AEF53"/>
<path d="M158.324 102.433C155.812 103.592 153.469 105.085 151.358 106.872C149.462 108.577 149.303 111.494 151.002 113.395C152.7 115.296 155.616 115.465 157.523 113.773C157.605 113.701 165.689 106.669 173.3 110.307C175.076 111.156 177.195 110.789 178.582 109.391C179.969 107.994 180.319 105.872 179.455 104.102C178.996 103.165 178.234 102.409 177.292 101.957C170.113 98.5269 163.208 100.161 158.324 102.433ZM177.673 107.269C177.046 108.584 175.472 109.14 174.157 108.511C165.303 104.279 156.288 112.208 156.199 112.288C155.114 113.259 153.446 113.165 152.476 112.08C151.504 110.994 151.598 109.326 152.684 108.356C153.158 107.932 164.452 98.0277 176.432 103.753C177.746 104.381 178.302 105.956 177.674 107.27L177.673 107.269Z" fill="black"/>
<path d="M198.07 104.562C199.509 105.125 200.434 106.537 200.376 108.082C200.318 109.626 199.289 110.964 197.811 111.417C189.063 114.098 187.854 125.383 187.842 125.496C187.646 127.493 185.868 128.952 183.872 128.755C181.876 128.559 180.416 126.781 180.613 124.785C180.679 124.122 182.36 108.554 195.68 104.471C196.464 104.23 197.307 104.261 198.07 104.562Z" fill="#8AEF53"/>
<path d="M181.747 116.706C180.682 119.259 179.967 121.943 179.622 124.688C179.38 127.225 181.237 129.481 183.774 129.731C186.311 129.982 188.572 128.133 188.831 125.597C188.842 125.488 190.036 114.84 198.101 112.369C199.983 111.792 201.295 110.088 201.37 108.12C201.446 106.153 200.268 104.353 198.434 103.635C197.462 103.255 196.389 103.215 195.39 103.519C187.783 105.852 183.806 111.728 181.747 116.706ZM199.266 107.172C199.693 108.565 198.91 110.039 197.518 110.466C188.135 113.342 186.863 125.28 186.851 125.399C186.709 126.849 185.418 127.908 183.969 127.765C182.519 127.623 181.46 126.332 181.602 124.883C181.665 124.249 183.277 109.315 195.972 105.424C197.365 104.997 198.84 105.78 199.266 107.173L199.266 107.172Z" fill="black"/>
<path d="M173.377 90.0255C173.327 88.4807 174.261 87.0739 175.703 86.5188C177.145 85.9637 178.781 86.3825 179.779 87.5621C185.69 94.5458 196.539 91.2101 196.647 91.176C198.56 90.5698 200.602 91.6293 201.207 93.5409C201.813 95.4532 200.755 97.4951 198.842 98.1014C198.207 98.3016 183.237 102.891 174.235 92.2571C173.705 91.632 173.401 90.8453 173.377 90.0255Z" fill="#8AEF53"/>
<path d="M190.971 100.243C193.737 100.217 196.487 99.8158 199.145 99.0514C201.573 98.2736 202.914 95.6784 202.144 93.2481C201.375 90.8179 198.784 89.4677 196.351 90.2292C196.247 90.2616 185.991 93.3603 180.541 86.9218C179.269 85.4193 177.186 84.885 175.348 85.5914C173.51 86.297 172.32 88.0887 172.382 90.0571C172.417 91.1007 172.802 92.1024 173.476 92.9006C178.617 98.973 185.585 100.313 190.971 100.243ZM175.306 87.8992C176.417 86.9574 178.081 87.096 179.022 88.2079C185.362 95.6983 196.836 92.1625 196.95 92.1268C198.338 91.6859 199.82 92.455 200.26 93.8431C200.701 95.2321 199.932 96.7144 198.544 97.1545C197.937 97.3466 183.576 101.749 174.997 91.6153C174.055 90.5034 174.194 88.8395 175.306 87.8985L175.306 87.8992Z" fill="black"/>
<path d="M323.445 127.652C324.265 126.342 325.824 125.694 327.331 126.037C328.837 126.38 329.962 127.64 330.134 129.176C331.149 138.268 342.016 141.546 342.125 141.578C344.05 142.14 345.155 144.158 344.592 146.083C344.03 148.008 342.013 149.113 340.087 148.551C339.448 148.363 324.461 143.83 322.914 129.984C322.822 129.169 323.008 128.347 323.445 127.652Z" fill="#FFFF00"/>
<path d="M332.356 145.942C334.668 147.462 337.174 148.661 339.807 149.508C342.256 150.216 344.817 148.809 345.532 146.362C346.248 143.915 344.849 141.35 342.405 140.626C342.3 140.595 332.058 137.451 331.121 129.068C330.903 127.112 329.471 125.507 327.551 125.069C325.632 124.631 323.646 125.455 322.6 127.124C322.047 128.01 321.809 129.056 321.923 130.094C322.808 138.002 327.845 142.998 332.356 145.942ZM326.23 126.962C327.678 126.799 328.982 127.842 329.144 129.29C330.233 139.042 341.73 142.502 341.844 142.535C343.242 142.943 344.045 144.408 343.636 145.806C343.228 147.205 341.763 148.007 340.366 147.598C339.755 147.42 325.377 143.071 323.902 129.875C323.741 128.427 324.783 127.123 326.231 126.961L326.23 126.962Z" fill="black"/>
<path d="M356.394 121.446C357.85 120.926 359.474 121.384 360.444 122.588C361.414 123.791 361.516 125.476 360.699 126.788C355.859 134.552 362.355 143.86 362.421 143.952C363.583 145.587 363.199 147.856 361.565 149.017C359.93 150.18 357.662 149.797 356.499 148.162C356.114 147.618 347.163 134.771 354.532 122.947C354.965 122.25 355.621 121.721 356.394 121.446Z" fill="#00B050"/>
<path d="M352.051 141.323C352.923 143.948 354.146 146.443 355.688 148.739C357.171 150.813 360.052 151.296 362.13 149.819C364.209 148.343 364.701 145.463 363.232 143.38C363.169 143.291 357.08 134.475 361.542 127.316C362.583 125.645 362.454 123.498 361.219 121.965C359.985 120.431 357.915 119.847 356.06 120.508C355.077 120.861 354.241 121.534 353.687 122.419C349.48 129.173 350.336 136.216 352.051 141.323ZM359.009 122.631C360.246 123.401 360.623 125.027 359.852 126.264C354.662 134.592 361.539 144.433 361.608 144.53C362.453 145.717 362.174 147.364 360.987 148.208C359.8 149.052 358.153 148.774 357.31 147.587C356.941 147.068 348.354 134.743 355.377 123.474C356.147 122.238 357.774 121.861 359.01 122.631L359.009 122.631Z" fill="black"/>
<path d="M372.697 132.215C371.224 132.683 369.617 132.168 368.69 130.93C367.764 129.694 367.722 128.006 368.585 126.724C373.698 119.136 367.537 109.604 367.475 109.509C366.372 107.834 366.836 105.58 368.511 104.478C370.186 103.374 372.439 103.838 373.542 105.513C373.908 106.07 382.396 119.227 374.611 130.782C374.154 131.463 373.48 131.968 372.697 132.215Z" fill="#00B050"/>
<path d="M377.745 112.506C376.967 109.851 375.833 107.314 374.375 104.964C372.966 102.84 370.103 102.254 367.974 103.656C365.845 105.058 365.25 107.918 366.645 110.052C366.704 110.144 372.476 119.171 367.762 126.166C366.662 127.799 366.715 129.949 367.895 131.525C369.074 133.102 371.121 133.759 372.999 133.164C373.993 132.847 374.853 132.204 375.437 131.339C379.882 124.739 379.277 117.67 377.745 112.506ZM370.127 130.938C368.918 130.125 368.599 128.486 369.413 127.278C374.897 119.139 368.373 109.06 368.308 108.96C367.506 107.744 367.843 106.108 369.059 105.307C370.276 104.505 371.911 104.842 372.713 106.058C373.063 106.59 381.205 119.212 373.787 130.225C372.973 131.433 371.334 131.752 370.126 130.938L370.127 130.938Z" fill="black"/>
<path d="M305.322 111.116C306.529 110.151 308.215 110.055 309.523 110.878C310.832 111.7 311.476 113.26 311.13 114.767C309.08 123.683 318.25 130.371 318.342 130.438C319.973 131.606 320.348 133.875 319.18 135.505C318.012 137.136 315.743 137.512 314.112 136.344C313.571 135.956 300.928 126.718 304.049 113.14C304.232 112.341 304.68 111.627 305.322 111.116Z" fill="#00B050"/>
<path d="M307.681 131.324C309.36 133.523 311.328 135.484 313.532 137.155C315.609 138.633 318.491 138.152 319.976 136.079C321.461 134.008 320.99 131.124 318.923 129.633C318.834 129.569 310.208 123.213 312.099 114.992C312.54 113.074 311.719 111.085 310.053 110.037C308.387 108.988 306.239 109.109 304.701 110.338C303.886 110.991 303.314 111.9 303.079 112.917C301.297 120.672 304.398 127.053 307.681 131.324ZM308.18 111.386C309.6 111.712 310.486 113.127 310.159 114.547C307.96 124.111 317.665 131.179 317.762 131.249C318.946 132.096 319.219 133.744 318.371 134.928C317.523 136.113 315.875 136.385 314.691 135.537C314.174 135.166 302.045 126.305 305.019 113.365C305.346 111.945 306.761 111.059 308.181 111.386L308.18 111.386Z" fill="black"/>
<path d="M321.492 121.993C319.957 122.167 318.479 121.351 317.809 119.958C317.139 118.566 317.424 116.902 318.518 115.811C325 109.354 320.797 98.8109 320.754 98.7056C319.995 96.8487 320.886 94.7276 322.742 93.9693C324.599 93.2101 326.72 94.1 327.479 95.9569C327.73 96.5735 333.517 111.123 323.647 120.957C323.067 121.536 322.307 121.902 321.492 121.993Z" fill="#FFFF00"/>
<path d="M330.252 103.63C330.002 100.874 329.379 98.1668 328.402 95.5794C327.43 93.2225 324.735 92.0956 322.375 93.06C320.015 94.0235 318.879 96.7151 319.835 99.0781C319.876 99.1796 323.795 109.151 317.819 115.105C316.425 116.494 316.061 118.614 316.914 120.389C317.766 122.163 319.648 123.204 321.605 122.983C322.643 122.864 323.61 122.398 324.351 121.662C329.987 116.046 330.758 108.993 330.252 103.63ZM319.218 120.243C318.189 119.212 318.192 117.542 319.224 116.514C326.176 109.588 321.723 98.4386 321.678 98.328C321.126 96.9802 321.773 95.4404 323.121 94.8893C324.469 94.3373 326.009 94.9838 326.56 96.3317C326.801 96.9211 332.352 110.879 322.946 120.251C321.914 121.279 320.245 121.275 319.217 120.243L319.218 120.243Z" fill="black"/>
<path d="M356.426 104.562C357.866 105.125 358.791 106.537 358.732 108.082C358.674 109.626 357.645 110.964 356.167 111.417C347.42 114.098 346.21 125.383 346.199 125.496C346.003 127.493 344.224 128.952 342.229 128.755C340.232 128.559 338.773 126.781 338.969 124.785C339.035 124.122 340.716 108.555 354.037 104.472C354.821 104.23 355.663 104.262 356.426 104.562Z" fill="#FFFF00"/>
<path d="M340.102 116.706C339.036 119.259 338.321 121.944 337.977 124.688C337.735 127.226 339.591 129.481 342.128 129.731C344.665 129.982 346.927 128.133 347.186 125.597C347.197 125.488 348.391 114.841 356.456 112.369C358.338 111.792 359.65 110.088 359.725 108.12C359.801 106.153 358.622 104.354 356.789 103.635C355.816 103.256 354.744 103.215 353.745 103.519C346.137 105.852 342.16 111.728 340.102 116.706ZM357.62 107.173C358.048 108.565 357.265 110.04 355.872 110.466C346.489 113.342 345.218 125.281 345.206 125.399C345.064 126.849 343.773 127.908 342.324 127.766C340.873 127.624 339.814 126.333 339.957 124.883C340.019 124.25 341.632 109.316 354.327 105.424C355.719 104.997 357.194 105.78 357.621 107.173L357.62 107.173Z" fill="black"/>
<path d="M331.733 90.0257C331.684 88.4809 332.617 87.0742 334.06 86.5191C335.501 85.964 337.137 86.3828 338.136 87.5624C344.047 94.546 354.895 91.2103 355.004 91.1763C356.916 90.57 358.958 91.6296 359.564 93.5411C360.17 95.4534 359.111 97.4953 357.199 98.1016C356.564 98.3019 341.593 102.891 332.592 92.2574C332.061 91.6322 331.758 90.8456 331.733 90.0257Z" fill="#00B050"/>
<path d="M349.327 100.244C352.093 100.217 354.842 99.816 357.5 99.0516C359.928 98.2738 361.27 95.6786 360.5 93.2484C359.73 90.8181 357.14 89.4679 354.707 90.2294C354.602 90.2619 344.346 93.3606 338.896 86.9221C337.624 85.4195 335.541 84.8853 333.703 85.5916C331.865 86.2972 330.676 88.089 330.738 90.0573C330.772 91.1009 331.158 92.1026 331.831 92.9008C336.973 98.9733 343.94 100.313 349.327 100.244ZM333.661 87.8995C334.773 86.9576 336.436 87.0962 337.378 88.2081C343.718 95.6985 355.191 92.1627 355.305 92.1271C356.693 91.6862 358.176 92.4552 358.616 93.8434C359.057 95.2323 358.288 96.7147 356.9 97.1548C356.293 97.3469 341.931 101.75 333.352 91.6155C332.411 90.5036 332.55 88.8398 333.661 87.8987L333.661 87.8995Z" fill="black"/>
<path d="M479.723 95.3387C481.238 95.0327 482.781 95.7188 483.568 97.0489C484.356 98.3783 484.215 100.061 483.218 101.242C477.316 108.233 482.411 118.375 482.462 118.476C483.379 120.261 482.674 122.451 480.89 123.366C479.105 124.282 476.915 123.578 475.999 121.793C475.696 121.201 468.679 107.203 477.666 96.5566C478.194 95.9295 478.919 95.4995 479.723 95.3387Z" fill="#00B050"/>
<path d="M472.577 114.388C473.063 117.111 473.916 119.755 475.113 122.249C476.284 124.514 479.066 125.404 481.334 124.241C483.603 123.078 484.503 120.298 483.347 118.026C483.297 117.929 478.535 108.331 483.976 101.886C485.246 100.381 485.426 98.2381 484.424 96.5434C483.422 94.8486 481.457 93.9739 479.527 94.3627C478.503 94.5705 477.58 95.1172 476.905 95.9142C471.773 101.995 471.611 109.088 472.577 114.388ZM482.141 96.8866C483.255 97.8254 483.395 99.4891 482.455 100.602C476.125 108.101 481.521 118.826 481.575 118.932C482.241 120.227 481.729 121.817 480.434 122.482C479.138 123.148 477.548 122.637 476.883 121.341C476.593 120.775 469.861 107.347 478.425 97.2C479.365 96.087 481.029 95.9467 482.142 96.8864L482.141 96.8866Z" fill="black"/>
<path d="M548.046 122.116C546.782 123.004 545.094 122.995 543.838 122.093C542.583 121.192 542.037 119.595 542.475 118.113C545.074 109.34 536.335 102.098 536.247 102.026C534.691 100.759 534.457 98.4704 535.724 96.9158C536.99 95.3601 539.278 95.1257 540.834 96.3923C541.35 96.8134 553.397 106.815 549.442 120.174C549.21 120.961 548.718 121.646 548.046 122.116Z" fill="#00B050"/>
<path d="M546.941 101.8C545.402 99.5012 543.559 97.4223 541.462 95.6188C539.48 94.0151 536.574 94.3165 534.965 96.2932C533.354 98.2692 533.646 101.176 535.617 102.793C535.701 102.862 543.917 109.739 541.522 117.828C540.963 119.715 541.658 121.75 543.257 122.9C544.855 124.05 547.006 124.062 548.618 122.93C549.471 122.329 550.098 121.458 550.396 120.457C552.654 112.827 549.954 106.266 546.941 101.8ZM545.21 121.669C543.813 121.256 543.016 119.789 543.43 118.392C546.217 108.983 536.968 101.327 536.875 101.252C535.745 100.333 535.576 98.6713 536.495 97.542C537.415 96.4116 539.076 96.2418 540.205 97.1612C540.699 97.5635 552.256 107.158 548.487 119.89C548.073 121.286 546.606 122.083 545.209 121.669L545.21 121.669Z" fill="black"/>
<path d="M493.705 142.422C494.13 140.937 495.449 139.883 496.992 139.796C498.535 139.708 499.964 140.608 500.554 142.036C504.044 150.494 515.393 150.637 515.507 150.638C517.513 150.646 519.133 152.28 519.125 154.285C519.117 156.291 517.484 157.911 515.478 157.903C514.812 157.899 499.155 157.688 493.839 144.81C493.525 144.052 493.477 143.21 493.705 142.422Z" fill="#00B050"/>
<path d="M507.328 157.534C509.97 158.355 512.71 158.814 515.474 158.9C518.024 158.902 520.095 156.842 520.105 154.293C520.117 151.744 518.063 149.665 515.514 149.646C515.405 149.645 504.692 149.457 501.474 141.66C500.723 139.84 498.903 138.694 496.937 138.804C494.971 138.913 493.291 140.255 492.748 142.148C492.461 143.152 492.521 144.224 492.918 145.19C495.955 152.544 502.179 155.952 507.328 157.534ZM496.191 140.988C497.537 140.432 499.079 141.073 499.635 142.419C503.379 151.49 515.384 151.635 515.503 151.636C516.96 151.641 518.136 152.827 518.13 154.283C518.125 155.74 516.939 156.916 515.483 156.91C514.846 156.907 499.827 156.705 494.76 144.431C494.204 143.085 494.845 141.543 496.192 140.988L496.191 140.988Z" fill="black"/>
<path d="M514.848 141.805C514.147 143.183 512.651 143.966 511.119 143.757C509.588 143.548 508.357 142.393 508.05 140.878C506.236 131.911 495.123 129.606 495.012 129.583C493.044 129.193 491.765 127.281 492.156 125.314C492.546 123.346 494.458 122.067 496.425 122.457C497.078 122.588 512.408 125.781 515.171 139.436C515.334 140.24 515.221 141.075 514.848 141.805Z" fill="#6C4616"/>
<path d="M504.356 124.374C501.919 123.064 499.317 122.091 496.62 121.48C494.117 120.991 491.691 122.619 491.195 125.119C490.698 127.62 492.317 130.051 494.816 130.556C494.923 130.578 505.403 132.805 507.076 141.073C507.466 143.002 509.035 144.475 510.985 144.741C512.936 145.009 514.842 144.012 515.736 142.257C516.208 141.326 516.353 140.263 516.148 139.239C514.569 131.44 509.109 126.908 504.356 124.374ZM512.134 142.739C510.706 143.029 509.315 142.106 509.027 140.678C507.08 131.059 495.323 128.629 495.206 128.605C493.777 128.322 492.849 126.934 493.132 125.506C493.415 124.076 494.803 123.148 496.232 123.431C496.856 123.555 511.562 126.618 514.196 139.632C514.485 141.06 513.561 142.451 512.134 142.74L512.134 142.739Z" fill="black"/>
<path d="M522.824 143.714C521.304 143.434 520.127 142.224 519.891 140.696C519.654 139.169 520.411 137.66 521.775 136.934C529.854 132.64 528.897 121.33 528.886 121.217C528.7 119.22 530.169 117.449 532.165 117.263C534.162 117.077 535.933 118.545 536.12 120.542C536.181 121.205 537.489 136.808 525.187 143.349C524.464 143.734 523.63 143.864 522.824 143.714Z" fill="#FFFF00"/>
<path d="M536.543 128.689C537.104 125.98 537.295 123.209 537.112 120.449C536.867 117.911 534.616 116.049 532.078 116.286C529.54 116.522 527.67 118.767 527.898 121.306C527.908 121.415 528.759 132.096 521.311 136.055C519.573 136.979 518.609 138.902 518.909 140.848C519.209 142.793 520.707 144.336 522.644 144.693C523.671 144.881 524.732 144.717 525.655 144.228C532.68 140.492 535.468 133.968 536.543 128.689ZM521.156 141.378C520.471 140.092 520.959 138.496 522.246 137.812C530.911 133.206 529.89 121.243 529.88 121.124C529.743 119.674 530.809 118.389 532.259 118.253C533.71 118.117 534.996 119.183 535.131 120.633C535.19 121.267 536.445 136.236 524.721 142.469C523.435 143.153 521.838 142.664 521.155 141.378L521.156 141.378Z" fill="black"/>
<path d="M491.807 117.001C490.271 117.175 488.793 116.359 488.123 114.966C487.453 113.574 487.738 111.91 488.833 110.819C495.315 104.361 491.111 93.8185 491.068 93.7132C490.309 91.8563 491.2 89.7352 493.056 88.9769C494.913 88.2177 497.034 89.1076 497.793 90.9645C498.044 91.581 503.831 106.131 493.962 115.964C493.381 116.544 492.622 116.91 491.807 117.001Z" fill="#FFFF00"/>
<path d="M500.566 98.6372C500.315 95.882 499.693 93.1744 498.715 90.587C497.744 88.2301 495.048 87.1032 492.688 88.0675C490.328 89.0311 489.193 91.7226 490.149 94.0857C490.189 94.1872 494.109 104.159 488.133 110.112C486.738 111.502 486.374 113.621 487.227 115.396C488.08 117.171 489.962 118.211 491.919 117.99C492.956 117.871 493.923 117.406 494.664 116.67C500.3 111.053 501.072 104 500.566 98.6372ZM489.531 115.251C488.502 114.22 488.506 112.55 489.538 111.522C496.49 104.596 492.036 93.4461 491.991 93.3356C491.44 91.9877 492.086 90.4479 493.434 89.8968C494.783 89.3449 496.322 89.9913 496.874 91.3393C497.114 91.9287 502.666 105.886 493.26 115.258C492.228 116.286 490.558 116.283 489.53 115.251L489.531 115.251Z" fill="black"/>
<path d="M532.538 107.763C533.25 109.135 533.015 110.807 531.953 111.93C530.892 113.053 529.236 113.381 527.826 112.748C519.48 108.999 511.133 116.69 511.05 116.768C509.586 118.14 507.287 118.066 505.916 116.603C504.544 115.139 504.618 112.84 506.081 111.468C506.567 111.013 518.091 100.413 530.801 106.12C531.549 106.455 532.162 107.034 532.538 107.763Z" fill="#FFFF00"/>
<path d="M512.258 106.139C509.774 107.356 507.467 108.905 505.399 110.741C503.545 112.491 503.454 115.411 505.198 117.271C506.941 119.131 509.86 119.231 511.726 117.494C511.806 117.42 519.721 110.198 527.416 113.654C529.212 114.461 531.322 114.044 532.675 112.613C534.028 111.183 534.328 109.054 533.423 107.305C532.941 106.378 532.161 105.641 531.209 105.212C523.95 101.953 517.087 103.751 512.258 106.139ZM531.716 110.513C531.121 111.842 529.56 112.436 528.231 111.839C519.279 107.818 510.455 115.959 510.367 116.04C509.306 117.037 507.636 116.983 506.64 115.921C505.643 114.858 505.697 113.189 506.759 112.193C507.224 111.758 518.279 101.588 530.392 107.028C531.721 107.625 532.314 109.185 531.717 110.514L531.716 110.513Z" fill="black"/>
<path d="M530.189 85.9438C530.715 87.397 530.265 89.0239 529.065 89.9993C527.867 90.9744 526.182 91.0838 524.867 90.2724C517.081 85.4677 507.802 92.0053 507.71 92.0713C506.08 93.241 503.81 92.8674 502.641 91.2381C501.472 89.6084 501.845 87.3387 503.474 86.1689C504.016 85.7816 516.823 76.7731 528.68 84.0887C529.379 84.5184 529.911 85.1721 530.189 85.9438Z" fill="#6C4616"/>
<path d="M510.293 81.69C507.671 82.5736 505.182 83.8079 502.893 85.3595C500.826 86.8522 500.356 89.7356 501.842 91.807C503.328 93.8786 506.209 94.3582 508.286 92.8794C508.375 92.8161 517.163 86.6877 524.342 91.1171C526.017 92.1508 528.164 92.0123 529.692 90.7704C531.22 89.5293 531.795 87.4569 531.125 85.605C530.768 84.6236 530.091 83.7909 529.203 83.2411C522.431 79.064 515.392 79.9521 510.293 81.69ZM529.015 88.5636C528.251 89.8037 526.626 90.1883 525.387 89.4233C517.035 84.2702 507.225 91.1918 507.128 91.2611C505.945 92.111 504.297 91.8399 503.448 90.6568C502.598 89.4733 502.869 87.8254 504.052 86.9763C504.57 86.6053 516.856 77.9634 528.156 84.935C529.396 85.7 529.78 87.3247 529.015 88.5643L529.015 88.5636Z" fill="black"/>
<path d="M703.114 126.629C701.849 127.517 700.161 127.508 698.906 126.606C697.651 125.705 697.104 124.108 697.543 122.626C700.141 113.853 691.402 106.61 691.314 106.539C689.759 105.272 689.525 102.983 690.791 101.429C692.058 99.873 694.346 99.6386 695.902 100.905C696.417 101.326 708.465 111.328 704.509 124.687C704.277 125.474 703.786 126.159 703.114 126.629Z" fill="#00B050"/>
<path d="M702.01 106.313C700.47 104.014 698.627 101.935 696.531 100.132C694.549 98.5281 691.643 98.8294 690.033 100.806C688.423 102.782 688.714 105.689 690.685 107.306C690.77 107.375 698.985 114.252 696.59 122.34C696.031 124.228 696.727 126.263 698.325 127.413C699.923 128.563 702.074 128.575 703.686 127.443C704.54 126.842 705.166 125.971 705.464 124.97C707.722 117.34 705.022 110.779 702.01 106.313ZM700.278 126.182C698.881 125.769 698.085 124.302 698.498 122.905C701.285 113.496 692.036 105.84 691.944 105.765C690.814 104.846 690.644 103.184 691.563 102.055C692.483 100.925 694.144 100.755 695.274 101.674C695.767 102.076 707.325 111.671 703.555 124.403C703.142 125.799 701.674 126.596 700.277 126.182L700.278 126.182Z" fill="black"/>
<path d="M671.26 138.471C671.686 136.985 673.005 135.932 674.548 135.845C676.091 135.757 677.52 136.657 678.11 138.085C681.6 146.542 692.949 146.686 693.063 146.687C695.069 146.695 696.689 148.329 696.68 150.334C696.672 152.34 695.039 153.96 693.033 153.952C692.368 153.948 676.711 153.737 671.395 140.858C671.081 140.101 671.033 139.259 671.26 138.471Z" fill="#00B050"/>
<path d="M684.885 153.582C687.526 154.404 690.266 154.863 693.031 154.949C695.58 154.951 697.652 152.891 697.662 150.342C697.673 147.792 695.62 145.714 693.071 145.695C692.962 145.694 682.249 145.506 679.031 137.708C678.28 135.889 676.46 134.743 674.494 134.853C672.528 134.962 670.847 136.304 670.304 138.197C670.018 139.201 670.078 140.273 670.475 141.239C673.512 148.593 679.735 152.001 684.885 153.582ZM673.748 137.037C675.094 136.48 676.636 137.122 677.191 138.468C680.936 147.539 692.941 147.684 693.06 147.685C694.517 147.69 695.692 148.875 695.687 150.332C695.681 151.789 694.496 152.965 693.039 152.959C692.403 152.956 677.383 152.753 672.316 140.48C671.761 139.134 672.402 137.592 673.748 137.036L673.748 137.037Z" fill="black"/>
<path d="M706.288 145.186C704.768 144.907 703.591 143.696 703.355 142.169C703.118 140.642 703.875 139.132 705.239 138.407C713.318 134.112 712.361 122.803 712.35 122.69C712.164 120.692 713.632 118.922 715.629 118.736C717.626 118.549 719.397 120.017 719.584 122.014C719.645 122.677 720.953 138.281 708.651 144.821C707.927 145.207 707.094 145.336 706.288 145.186Z" fill="#FFFF00"/>
<path d="M720.006 130.161C720.568 127.452 720.759 124.681 720.576 121.921C720.331 119.383 718.08 117.522 715.542 117.758C713.003 117.994 711.134 120.24 711.362 122.778C711.372 122.888 712.223 133.568 704.775 137.527C703.037 138.451 702.073 140.374 702.373 142.32C702.672 144.266 704.171 145.808 706.108 146.165C707.135 146.353 708.195 146.189 709.118 145.7C716.144 141.964 718.932 135.44 720.006 130.161ZM704.619 142.85C703.935 141.565 704.423 139.968 705.71 139.284C714.375 134.678 713.354 122.715 713.344 122.596C713.207 121.146 714.273 119.861 715.723 119.725C717.174 119.589 718.46 120.655 718.595 122.105C718.654 122.739 719.909 137.708 708.185 143.941C706.899 144.625 705.302 144.136 704.619 142.85L704.619 142.85Z" fill="black"/>
<path d="M650.013 113.154C650.823 111.838 652.377 111.178 653.886 111.51C655.395 111.841 656.53 113.091 656.713 114.626C657.799 123.711 668.691 126.903 668.8 126.935C670.73 127.482 671.85 129.491 671.303 131.42C670.755 133.35 668.747 134.471 666.817 133.923C666.177 133.741 651.154 129.324 649.5 115.49C649.402 114.676 649.582 113.852 650.013 113.154Z" fill="#FFFF00"/>
<path d="M659.067 131.374C661.39 132.876 663.906 134.056 666.545 134.883C669 135.571 671.549 134.144 672.245 131.692C672.942 129.24 671.524 126.686 669.074 125.981C668.969 125.951 658.702 122.886 657.701 114.511C657.467 112.556 656.023 110.962 654.1 110.539C652.177 110.116 650.197 110.956 649.165 112.633C648.619 113.523 648.389 114.571 648.511 115.608C649.457 123.509 654.533 128.465 659.067 131.374ZM652.794 112.443C654.24 112.269 655.552 113.301 655.725 114.747C656.89 124.491 668.413 127.861 668.528 127.894C669.929 128.291 670.743 129.75 670.345 131.151C669.948 132.553 668.49 133.366 667.089 132.969C666.476 132.795 652.065 128.557 650.488 115.373C650.316 113.927 651.348 112.615 652.794 112.442L652.794 112.443Z" fill="black"/>
<path d="M694.312 134.782C693.611 136.159 692.116 136.942 690.584 136.733C689.053 136.525 687.822 135.37 687.515 133.855C685.701 124.887 674.588 122.582 674.476 122.56C672.509 122.169 671.23 120.257 671.621 118.29C672.011 116.323 673.922 115.043 675.89 115.434C676.543 115.564 691.872 118.757 694.636 132.412C694.799 133.216 694.686 134.051 694.312 134.782Z" fill="#6C4616"/>
<path d="M683.821 117.351C681.384 116.041 678.782 115.067 676.084 114.456C673.582 113.968 671.156 115.595 670.66 118.096C670.163 120.596 671.782 123.028 674.281 123.533C674.388 123.555 684.868 125.782 686.541 134.05C686.931 135.979 688.499 137.451 690.45 137.718C692.401 137.985 694.306 136.988 695.201 135.234C695.673 134.303 695.818 133.239 695.613 132.215C694.033 124.417 688.574 119.885 683.821 117.351ZM691.599 135.716C690.171 136.005 688.78 135.082 688.491 133.654C686.545 124.036 674.788 121.605 674.671 121.582C673.242 121.299 672.314 119.911 672.597 118.482C672.88 117.053 674.268 116.125 675.697 116.408C676.321 116.532 691.027 119.595 693.661 132.609C693.949 134.036 693.026 135.428 691.598 135.716L691.599 135.716Z" fill="black"/>
<path d="M654.026 103.232C653.683 101.725 654.332 100.166 655.642 99.3467C656.952 98.5273 658.637 98.6272 659.842 99.5951C666.974 105.326 676.99 99.9866 677.09 99.9326C678.852 98.9734 681.058 99.625 682.016 101.386C682.976 103.148 682.325 105.354 680.563 106.314C679.978 106.631 666.154 113.986 655.293 105.259C654.653 104.747 654.206 104.032 654.026 103.232Z" fill="#6C4616"/>
<path d="M673.241 109.915C675.952 109.362 678.575 108.445 681.039 107.189C683.274 105.963 684.097 103.16 682.879 100.921C681.661 98.6814 678.861 97.849 676.617 99.0596C676.521 99.1113 667.042 104.105 660.466 98.8218C658.932 97.5888 656.785 97.4608 655.115 98.5041C653.445 99.5466 652.618 101.532 653.054 103.453C653.286 104.47 653.855 105.381 654.668 106.036C660.872 111.019 667.967 111.008 673.241 109.915ZM655.513 100.778C656.425 99.6416 658.085 99.461 659.22 100.373C666.87 106.52 677.461 100.865 677.566 100.809C678.845 100.112 680.446 100.584 681.143 101.864C681.84 103.143 681.367 104.745 680.088 105.441C679.529 105.745 666.268 112.801 655.917 104.485C654.781 103.572 654.601 101.912 655.513 100.777L655.513 100.778Z" fill="black"/>
<path d="M676.971 85.4156C676.921 83.8708 677.854 82.4641 679.297 81.909C680.739 81.3539 682.374 81.7727 683.373 82.9523C689.284 89.9359 700.133 86.6002 700.241 86.5662C702.153 85.9599 704.195 87.0195 704.801 88.931C705.407 90.8433 704.348 92.8852 702.436 93.4915C701.801 93.6918 686.831 98.2812 677.829 87.6473C677.298 87.0221 676.995 86.2355 676.971 85.4156Z" fill="#6C4616"/>
<path d="M694.563 95.6335C697.329 95.6069 700.078 95.2059 702.736 94.4415C705.164 93.6637 706.506 91.0685 705.736 88.6383C704.967 86.208 702.376 84.8578 699.943 85.6193C699.839 85.6518 689.582 88.7504 684.133 82.312C682.861 80.8094 680.777 80.2752 678.939 80.9815C677.101 81.6871 675.912 83.4789 675.974 85.4472C676.009 86.4908 676.394 87.4925 677.067 88.2907C682.209 94.3632 689.176 95.7033 694.563 95.6335ZM678.898 83.2894C680.009 82.3475 681.673 82.4861 682.614 83.598C688.954 91.0884 700.428 87.5526 700.542 87.5169C701.93 87.0761 703.412 87.8451 703.852 89.2333C704.293 90.6222 703.524 92.1046 702.136 92.5447C701.529 92.7368 687.168 97.1395 678.588 87.0054C677.647 85.8935 677.786 84.2297 678.898 83.2886L678.898 83.2894Z" fill="black"/>
<defs>
<linearGradient id="paint0_linear" x1="732.333" y1="34.2459" x2="-6.61e-08" y2="34.2459" gradientUnits="userSpaceOnUse">
<stop stop-color="#BF871A"/>
<stop offset="0.0989583" stop-color="#FFF500"/>
<stop offset="0.473958" stop-color="#FFF500"/>
<stop offset="0.671875" stop-color="#84EF58"/>
</linearGradient>
<linearGradient id="paint1_linear" x1="50.0685" y1="285.465" x2="73.8877" y2="250.135" gradientUnits="userSpaceOnUse">
<stop offset="3.40978e-07" stop-color="#00F260"/>
<stop offset="1" stop-color="#0575E6"/>
</linearGradient>
<linearGradient id="paint2_linear" x1="61.0646" y1="273.367" x2="89.8249" y2="232.64" gradientUnits="userSpaceOnUse">
<stop offset="3.40978e-07" stop-color="#00F260"/>
<stop offset="1" stop-color="#0575E6"/>
</linearGradient>
<linearGradient id="paint3_linear" x1="211.419" y1="285.465" x2="235.238" y2="250.135" gradientUnits="userSpaceOnUse">
<stop offset="3.40978e-07" stop-color="#00F260"/>
<stop offset="1" stop-color="#0575E6"/>
</linearGradient>
<linearGradient id="paint4_linear" x1="222.416" y1="273.368" x2="251.176" y2="232.64" gradientUnits="userSpaceOnUse">
<stop offset="3.40978e-07" stop-color="#00F260"/>
<stop offset="1" stop-color="#0575E6"/>
</linearGradient>
<linearGradient id="paint5_linear" x1="372.77" y1="285.465" x2="396.589" y2="250.134" gradientUnits="userSpaceOnUse">
<stop offset="3.40978e-07" stop-color="#00F260"/>
<stop offset="1" stop-color="#0575E6"/>
</linearGradient>
<linearGradient id="paint6_linear" x1="383.766" y1="273.368" x2="412.526" y2="232.64" gradientUnits="userSpaceOnUse">
<stop offset="3.40978e-07" stop-color="#00F260"/>
<stop offset="1" stop-color="#0575E6"/>
</linearGradient>
<linearGradient id="paint7_linear" x1="534.12" y1="285.465" x2="557.939" y2="250.134" gradientUnits="userSpaceOnUse">
<stop offset="3.40978e-07" stop-color="#00F260"/>
<stop offset="1" stop-color="#0575E6"/>
</linearGradient>
<linearGradient id="paint8_linear" x1="545.116" y1="273.368" x2="573.877" y2="232.64" gradientUnits="userSpaceOnUse">
<stop offset="3.40978e-07" stop-color="#00F260"/>
<stop offset="1" stop-color="#0575E6"/>
</linearGradient>
<linearGradient id="paint9_linear" x1="695.471" y1="285.465" x2="719.29" y2="250.135" gradientUnits="userSpaceOnUse">
<stop offset="3.40978e-07" stop-color="#00F260"/>
<stop offset="1" stop-color="#0575E6"/>
</linearGradient>
<linearGradient id="paint10_linear" x1="706.467" y1="273.368" x2="735.227" y2="232.64" gradientUnits="userSpaceOnUse">
<stop offset="3.40978e-07" stop-color="#00F260"/>
<stop offset="1" stop-color="#0575E6"/>
</linearGradient>
</defs>
</svg>
