<svg width="48" height="55" viewBox="0 0 48 55" fill="none" xmlns="http://www.w3.org/2000/svg">
<path d="M0.916862 48.5832C0.410385 48.5832 0 48.9936 0 49.5001V54.0831C0 54.5896 0.410385 55 0.916862 55H46.7499C47.2564 55 47.6668 54.5896 47.6668 54.0831V49.5001C47.6668 48.9936 47.2564 48.5832 46.7499 48.5832H26.5836V16.4998H30.2502V36.6665C30.2502 40.2106 33.1229 43.0833 36.6665 43.0833C40.2106 43.0833 43.0833 40.2106 43.0833 36.6665V5.33123C44.5125 4.82811 45.2628 3.26127 44.7597 1.83205C44.3724 0.732656 43.3326 -0.00209281 42.1664 5.26653e-06H31.1666C29.6514 -0.00293206 28.4206 1.22319 28.4177 2.73842C28.4156 3.90412 29.1504 4.94393 30.2497 5.33123V10.9998H26.5836V10.0834C26.5836 8.56438 25.352 7.33323 23.8334 7.33323C22.3148 7.33323 21.0832 8.56438 21.0832 10.0834V10.9998H17.4166V5.33123C18.8458 4.82811 19.5965 3.26127 19.093 1.83205C18.7057 0.732656 17.6659 -0.00209281 16.4997 5.26653e-06H5.49992C3.98468 -0.00293206 2.75394 1.22319 2.75143 2.73842C2.74891 3.90412 3.48366 4.94393 4.58347 5.33123V36.7979C4.58347 40.3415 7.45617 43.2142 10.9998 43.2142C14.5439 43.2142 17.4166 40.3415 17.4166 36.7979V16.4998H21.0832V48.5832H0.916862ZM45.8335 53.1667H1.83331V50.4165H45.8335V53.1667ZM36.6665 41.25C34.1367 41.2471 32.0864 39.1968 32.0835 36.6665V32.0831H41.25V36.6665C41.2471 39.1968 39.1968 41.2471 36.6665 41.25ZM31.1666 1.83331H42.1664C42.6729 1.83331 43.0833 2.2437 43.0833 2.75017C43.0833 3.25623 42.6729 3.66662 42.1664 3.66662H31.1666C30.6606 3.66662 30.2497 3.25623 30.2497 2.75017C30.2497 2.2437 30.6606 1.83331 31.1666 1.83331ZM32.0835 5.49992H41.25V30.2502H32.0835V16.4998H38.4998C39.0063 16.4998 39.4167 16.0894 39.4167 15.5833V11.9167C39.4167 11.4102 39.0063 10.9998 38.4998 10.9998H32.0835V5.49992ZM22.9165 10.0834C22.9165 9.57692 23.3273 9.16653 23.8334 9.16653C24.3394 9.16653 24.7502 9.57692 24.7502 10.0834V10.9998H22.9169V10.0834H22.9165ZM5.49992 1.83331H16.4997C17.0062 1.83331 17.4166 2.2437 17.4166 2.75017C17.4166 3.25623 17.0062 3.66662 16.4997 3.66662H5.49992C4.99386 3.66662 4.58305 3.25623 4.58305 2.75017C4.58305 2.2437 4.99386 1.83331 5.49992 1.83331ZM10.9998 41.25C8.50647 41.2827 6.45622 39.2912 6.41678 36.7979V20.1668H15.5833V36.7979C15.5434 39.2912 13.4936 41.2827 10.9998 41.25ZM15.5833 18.3335H6.41678V5.49992H15.5833V10.9998H9.16653C8.66047 10.9998 8.25008 11.4106 8.25008 11.9167V15.5833C8.25008 16.0898 8.66047 16.5002 9.16653 16.5002H15.5833V18.3335ZM10.0834 14.6669V12.8331H37.5834V14.6664H10.0834V14.6669ZM22.9165 16.4998H24.7498V48.5832H22.9165V16.4998Z" fill="url(#paint0_linear)"/>
<path d="M12.8329 24.7499C12.8329 23.2313 11.6018 22.0001 10.0832 22.0001C8.56416 22.0001 7.33301 23.2313 7.33301 24.7499C7.33301 26.2689 8.56416 27.5 10.0832 27.5C11.6018 27.5 12.8329 26.2689 12.8329 24.7499ZM9.16631 24.7499C9.16631 24.2438 9.5767 23.8334 10.0832 23.8334C10.5892 23.8334 10.9996 24.2438 10.9996 24.7499C10.9996 25.2563 10.5892 25.6667 10.0832 25.6667C9.5767 25.6667 9.16631 25.2563 9.16631 24.7499Z" fill="url(#paint1_linear)"/>
<path d="M35.75 20.625C35.75 21.8906 36.776 22.9165 38.0415 22.9165C39.3071 22.9165 40.3331 21.8906 40.3331 20.625C40.3331 19.3595 39.3071 18.3335 38.0415 18.3335C36.776 18.3335 35.75 19.3595 35.75 20.625ZM38.4997 20.625C38.4997 20.8781 38.2946 21.0832 38.0415 21.0832C37.7885 21.0832 37.5833 20.8781 37.5833 20.625C37.5833 20.372 37.7885 20.1668 38.0415 20.1668C38.2946 20.1668 38.4997 20.372 38.4997 20.625Z" fill="url(#paint2_linear)"/>
<path d="M14.6666 30.2502C14.6666 31.2627 13.8458 32.0835 12.8333 32.0835C11.8208 32.0835 11 31.2627 11 30.2502C11 29.2376 11.8208 28.4169 12.8333 28.4169C13.8458 28.4169 14.6666 29.2376 14.6666 30.2502Z" fill="url(#paint3_linear)"/>
<path d="M34.3751 23.8334C33.6156 23.8334 33 24.449 33 25.2085C33 25.9675 33.6156 26.5835 34.3751 26.5835C35.1346 26.5835 35.7502 25.9675 35.7502 25.2085C35.7502 24.449 35.1346 23.8334 34.3751 23.8334ZM34.3751 25.6667C34.1216 25.6667 33.9169 25.4615 33.9169 25.2085C33.9169 24.955 34.1216 24.7498 34.3751 24.7498C34.6281 24.7498 34.8333 24.955 34.8333 25.2085C34.8333 25.4615 34.6281 25.6667 34.3751 25.6667Z" fill="url(#paint4_linear)"/>
<path d="M9.62508 32.9999C8.86558 32.9999 8.25 33.6155 8.25 34.375C8.25 35.1345 8.86558 35.75 9.62508 35.75C10.3842 35.75 10.9997 35.1345 10.9997 34.375C10.9997 33.6155 10.3842 32.9999 9.62508 32.9999ZM9.62508 34.8332C9.37164 34.8332 9.16644 34.628 9.16644 34.375C9.16644 34.1215 9.37164 33.9167 9.62508 33.9167C9.87811 33.9167 10.0833 34.1215 10.0833 34.375C10.0833 34.628 9.87811 34.8332 9.62508 34.8332Z" fill="url(#paint5_linear)"/>
<path d="M38.0416 26.5836C37.2821 26.5836 36.6665 27.1992 36.6665 27.9583C36.6665 28.7178 37.2821 29.3334 38.0416 29.3334C38.8011 29.3334 39.4167 28.7178 39.4167 27.9583C39.4167 27.1992 38.8011 26.5836 38.0416 26.5836ZM38.0416 28.4165C37.7886 28.4165 37.5834 28.2117 37.5834 27.9583C37.5834 27.7053 37.7886 27.5001 38.0416 27.5001C38.2946 27.5001 38.4998 27.7053 38.4998 27.9583C38.4998 28.2117 38.2946 28.4165 38.0416 28.4165Z" fill="url(#paint6_linear)"/>
<defs>
<linearGradient id="paint0_linear" x1="1.33661" y1="6.9134" x2="39.5396" y2="45.1173" gradientUnits="userSpaceOnUse">
<stop stop-color="#662D91"/>
<stop offset="0.437" stop-color="#3873B3"/>
<stop offset="1" stop-color="#00C9DD"/>
</linearGradient>
<linearGradient id="paint1_linear" x1="-3.20854" y1="11.4584" x2="34.9953" y2="49.6622" gradientUnits="userSpaceOnUse">
<stop stop-color="#662D91"/>
<stop offset="0.437" stop-color="#3873B3"/>
<stop offset="1" stop-color="#00C9DD"/>
</linearGradient>
<linearGradient id="paint2_linear" x1="12.8332" y1="-4.58331" x2="51.0371" y2="33.6206" gradientUnits="userSpaceOnUse">
<stop stop-color="#662D91"/>
<stop offset="0.437" stop-color="#3873B3"/>
<stop offset="1" stop-color="#00C9DD"/>
</linearGradient>
<linearGradient id="paint3_linear" x1="-4.58316" y1="12.8333" x2="33.6207" y2="51.0372" gradientUnits="userSpaceOnUse">
<stop stop-color="#662D91"/>
<stop offset="0.437" stop-color="#3873B3"/>
<stop offset="1" stop-color="#00C9DD"/>
</linearGradient>
<linearGradient id="paint4_linear" x1="8.70842" y1="-0.458343" x2="46.9123" y2="37.7455" gradientUnits="userSpaceOnUse">
<stop stop-color="#662D91"/>
<stop offset="0.437" stop-color="#3873B3"/>
<stop offset="1" stop-color="#00C9DD"/>
</linearGradient>
<linearGradient id="paint5_linear" x1="-8.25007" y1="16.4999" x2="29.9538" y2="54.7038" gradientUnits="userSpaceOnUse">
<stop stop-color="#662D91"/>
<stop offset="0.437" stop-color="#3873B3"/>
<stop offset="1" stop-color="#00C9DD"/>
</linearGradient>
<linearGradient id="paint6_linear" x1="9.16664" y1="-0.916603" x2="47.3705" y2="37.2873" gradientUnits="userSpaceOnUse">
<stop stop-color="#662D91"/>
<stop offset="0.437" stop-color="#3873B3"/>
<stop offset="1" stop-color="#00C9DD"/>
</linearGradient>
</defs>
</svg>
