<svg width="57" height="55" viewBox="0 0 57 55" fill="none" xmlns="http://www.w3.org/2000/svg">
<path d="M48.0854 12.2769C43.4044 12.2821 39.6112 16.0753 39.606 20.7563C39.606 20.8439 39.6164 20.9276 39.619 21.0144L34.6349 22.6766C32.1721 19.8689 28.1514 19.0242 24.767 20.6035L16.2112 12.0477C18.1725 7.78665 16.3088 2.74218 12.0477 0.780416C7.78665 -1.18135 2.74218 0.682867 0.780416 4.94393C-1.18135 9.20499 0.682867 14.2495 4.94393 16.2112C7.42365 17.3524 10.3009 17.2329 12.677 15.8888L20.919 24.1304C19.8291 26.0407 19.5361 28.3042 20.1032 30.4296L14.7976 33.9664C11.1383 30.9708 5.74288 31.5086 2.74736 35.1684C-0.248592 38.8282 0.289652 44.2236 3.94945 47.2191C7.60925 50.2147 13.0042 49.6769 16.0002 46.0171C17.7392 43.8921 18.3543 41.0628 17.6537 38.4078L22.9589 34.8706C25.1878 36.6938 28.1933 37.2511 30.9277 36.349L33.5658 40.2544C30.1952 43.634 30.2025 49.1062 33.5822 52.4768C36.9619 55.8474 42.4341 55.8401 45.8047 52.4604C49.1753 49.0808 49.168 43.6086 45.7883 40.2379C43.8239 38.2792 41.0391 37.3823 38.3012 37.8264L35.2116 33.1929C36.4776 31.4383 37.0063 29.2581 36.6852 27.1185L41.1552 25.629C43.8464 29.4619 49.1347 30.3873 52.9676 27.6956C56.8001 25.0044 57.7255 19.7161 55.0343 15.8832C53.4446 13.6197 50.8513 12.2739 48.0854 12.2769ZM1.91949 8.5079C1.91949 4.8658 4.87184 1.91302 8.51438 1.91302C12.1569 1.91302 15.1097 4.8658 15.1097 8.5079C15.1097 12.1504 12.1569 15.1032 8.51438 15.1032C4.87357 15.0989 1.92337 12.1487 1.91949 8.5079ZM15.2038 13.7021L25.2547 23.7544C25.5375 24.0367 25.5375 24.4951 25.2547 24.7774C25.2215 24.811 25.1844 24.8412 25.1447 24.868C24.8568 25.0566 24.4761 25.0174 24.2326 24.7735L14.2184 14.764C14.5762 14.4385 14.9055 14.0833 15.2038 13.7021ZM9.45663 47.1371C5.8141 47.1371 2.86131 44.1843 2.86131 40.5418C2.86131 36.8993 5.8141 33.9465 9.45663 33.9465C13.0992 33.9465 16.0519 36.8993 16.0519 40.5418C16.0476 44.1826 13.0974 47.1328 9.45663 47.1371ZM16.1365 35.3363L20.7964 32.2273C21.033 32.6736 21.3083 33.0983 21.62 33.4963L16.9601 36.6053C16.724 36.1586 16.4482 35.7339 16.1365 35.3363ZM46.2014 46.1949C46.2014 49.8374 43.2486 52.7898 39.606 52.7898C35.9635 52.7898 33.0112 49.8374 33.0112 46.1949C33.0112 42.5524 35.9635 39.5996 39.606 39.5996C43.2468 39.6039 46.197 42.5541 46.2014 46.1949ZM35.0346 39.0643L30.9277 32.9818C30.6937 32.6192 30.7977 32.1354 31.1603 31.901C31.5229 31.6671 32.0067 31.7711 32.2411 32.1336L36.3865 38.3522C35.9152 38.5481 35.4628 38.7864 35.0346 39.0643ZM33.8097 31.0891C32.9874 29.8676 31.3304 29.5443 30.1089 30.3666C28.9098 31.1741 28.5727 32.7902 29.3488 34.0099L29.8197 34.707C26.2889 35.5569 22.7383 33.3832 21.8885 29.8529C21.5401 28.4052 21.6934 26.8824 22.3231 25.5331L22.9015 26.1107C23.937 27.1121 25.588 27.0844 26.5893 26.0494C27.567 25.0381 27.567 23.4341 26.5893 22.4233L26.2125 22.0464C29.6436 20.8759 33.3737 22.7086 34.5439 26.14C34.7804 26.8332 34.8991 27.5614 34.8957 28.2939C34.8995 29.4109 34.6168 30.5103 34.0738 31.4866L33.8097 31.0891ZM36.2208 25.2893C36.0921 24.9448 35.9415 24.6095 35.7693 24.2849L39.8944 22.9101C39.9859 23.2623 40.1003 23.6085 40.2362 23.9465L36.2208 25.2893ZM48.0854 27.3516C44.4433 27.3516 41.4905 24.3988 41.4905 20.7563C41.4905 17.1138 44.4433 14.161 48.0854 14.161C51.728 14.161 54.6807 17.1138 54.6807 20.7563C54.6764 24.3971 51.7262 27.3473 48.0854 27.3516Z" fill="url(#paint0_linear)"/>
<defs>
<linearGradient id="paint0_linear" x1="5.78416" y1="7.78433" x2="50.0841" y2="52.0842" gradientUnits="userSpaceOnUse">
<stop stop-color="#662D91"/>
<stop offset="0.437" stop-color="#3873B3"/>
<stop offset="1" stop-color="#00C9DD"/>
</linearGradient>
</defs>
</svg>
