<?xml version="1.0" encoding="utf-8"?>
<!-- Generator: Adobe Illustrator 23.0.4, SVG Export Plug-In . SVG Version: 6.00 Build 0)  -->
<svg version="1.1" id="OBJECTS" xmlns="http://www.w3.org/2000/svg" xmlns:xlink="http://www.w3.org/1999/xlink" x="0px" y="0px"
	 viewBox="0 0 148 148" style="enable-background:new 0 0 148 148;" xml:space="preserve">
<style type="text/css">
	.st0{fill:#FEF6C9;}
	.st1{display:none;fill:url(#XMLID_2_);}
	.st2{fill:#C95431;}
</style>
<g id="XMLID_135_">
	<circle id="XMLID_121_" class="st0" cx="74" cy="74" r="74"/>
	<linearGradient id="XMLID_2_" gradientUnits="userSpaceOnUse" x1="82.6935" y1="67.9995" x2="132.6285" y2="117.9345">
		<stop  offset="0" style="stop-color:#A35431"/>
		<stop  offset="0.1381" style="stop-color:#AB5431;stop-opacity:0.8401"/>
		<stop  offset="0.5787" style="stop-color:#C15431;stop-opacity:0.3299"/>
		<stop  offset="0.8636" style="stop-color:#C95431;stop-opacity:0"/>
	</linearGradient>
	<path id="XMLID_140_" class="st1" d="M147.9,74.1c0-4.7-0.4-9.2-1.3-13.7l-24.2-24L68.8,86.2l-10.7,28.7l31.5,31.5
		C122.9,139.2,147.9,109.6,147.9,74.1z"/>
	<g id="XMLID_146_">
		<path id="XMLID_158_" class="st2" d="M58.2,114.9l-33-33c-4.1-4.1-4.1-10.8,0-14.9c4.1-4.1,10.8-4.1,14.9,0l18.1,18.1l49.3-48.8
			c4.1-4.1,10.8-4.1,14.9,0.1c4.1,4.1,4.1,10.8-0.1,14.9L58.2,114.9z"/>
	</g>
</g>
</svg>
