<svg width="682" height="426" viewBox="0 0 682 426" fill="none" xmlns="http://www.w3.org/2000/svg">
<g clip-path="url(#clip0)">
<path fill-rule="evenodd" clip-rule="evenodd" d="M85.33 -7.62939e-06C62.9687 0.0659438 41.542 8.97818 25.7301 24.7901C9.91818 40.602 1.00595 62.0286 0.940002 84.39V84.39C1.00595 106.751 9.91818 128.178 25.7301 143.99C41.542 159.802 62.9687 168.714 85.33 168.78V168.78C89.8162 168.796 94.1143 170.584 97.2874 173.756C100.461 176.927 102.252 181.224 102.27 185.71V185.71C102.254 190.198 100.464 194.497 97.291 197.671C94.1175 200.844 89.8179 202.634 85.33 202.65H41.17C30.2634 202.682 19.8126 207.028 12.1005 214.74C4.38832 222.453 0.0416691 232.903 0.0100098 243.81V243.81C0.0390316 254.718 4.38449 265.172 12.0969 272.886C19.8094 280.6 30.2617 284.948 41.17 284.98C50.6062 285.006 59.6485 288.767 66.3209 295.439C72.9934 302.112 76.7536 311.154 76.78 320.59V320.59C76.8328 337.808 83.6995 354.305 95.8794 366.476C108.059 378.646 124.562 385.5 141.78 385.54H593.18C615.54 385.474 636.965 376.563 652.776 360.753C668.588 344.944 677.501 323.52 677.57 301.16V301.16C677.504 278.799 668.592 257.372 652.78 241.56C636.968 225.748 615.541 216.836 593.18 216.77H585.02C580.536 216.752 576.24 214.962 573.069 211.791C569.898 208.62 568.108 204.324 568.09 199.84C568.106 195.354 569.894 191.056 573.066 187.883C576.237 184.709 580.534 182.918 585.02 182.9H640.02C650.927 182.866 661.378 178.517 669.09 170.803C676.802 163.089 681.148 152.637 681.18 141.73V141.73C681.148 130.836 676.813 120.396 669.119 112.685C661.424 104.974 650.994 100.615 640.1 100.56H595.89C586.455 100.534 577.415 96.7748 570.743 90.1045C564.07 83.4342 560.309 74.3945 560.28 64.96C560.24 47.7331 553.379 31.2231 541.198 19.0418C529.017 6.86053 512.507 -0.000391148 495.28 -0.0400085L85.33 -7.62939e-06Z" fill="#FEF6C9"/>
<path fill-rule="evenodd" clip-rule="evenodd" d="M244.2 21.61V24.51H241.28C240.695 24.5126 240.134 24.7463 239.72 25.1602C239.306 25.5741 239.073 26.1347 239.07 26.72C239.073 27.3053 239.306 27.8659 239.72 28.2798C240.134 28.6937 240.695 28.9274 241.28 28.93H244.2V31.85C244.203 32.4353 244.436 32.9959 244.85 33.4098C245.264 33.8237 245.825 34.0574 246.41 34.06V34.06C246.997 34.06 247.56 33.8275 247.976 33.4133C248.392 32.9991 248.627 32.437 248.63 31.85V28.95H251.57C252.157 28.95 252.72 28.7175 253.136 28.3033C253.552 27.8891 253.787 27.327 253.79 26.74C253.791 26.4476 253.735 26.1579 253.624 25.8874C253.513 25.6169 253.35 25.371 253.143 25.1637C252.937 24.9565 252.692 24.7921 252.422 24.6799C252.152 24.5677 251.862 24.51 251.57 24.51H248.66V21.61C248.657 21.0229 248.422 20.4608 248.006 20.0467C247.59 19.6325 247.027 19.4 246.44 19.4C246.148 19.3974 245.858 19.4525 245.587 19.5623C245.316 19.672 245.069 19.8342 244.861 20.0396C244.653 20.2449 244.487 20.4894 244.374 20.7589C244.26 21.0284 244.201 21.3176 244.2 21.61Z" fill="#E0D8AA"/>
<path d="M34.84 42.52H39.63C40.7843 42.52 41.72 43.4557 41.72 44.61V49.4C41.72 50.5543 40.7843 51.49 39.63 51.49H34.84C33.6858 51.49 32.75 50.5543 32.75 49.4V44.61C32.75 43.4557 33.6858 42.52 34.84 42.52Z" fill="#E0D8AA"/>
<path d="M51.43 42.52H56.22C57.3743 42.52 58.31 43.4557 58.31 44.61V49.4C58.31 50.5543 57.3743 51.49 56.22 51.49H51.43C50.2757 51.49 49.34 50.5543 49.34 49.4V44.61C49.34 43.4557 50.2757 42.52 51.43 42.52Z" fill="#E0D8AA"/>
<path d="M68.02 42.52H72.81C73.9643 42.52 74.9 43.4557 74.9 44.61V49.4C74.9 50.5543 73.9643 51.49 72.81 51.49H68.02C66.8657 51.49 65.93 50.5543 65.93 49.4V44.61C65.93 43.4557 66.8657 42.52 68.02 42.52Z" fill="#E0D8AA"/>
<path d="M84.61 42.52H89.4C90.5543 42.52 91.49 43.4557 91.49 44.61V49.4C91.49 50.5543 90.5543 51.49 89.4 51.49H84.61C83.4557 51.49 82.52 50.5543 82.52 49.4V44.61C82.52 43.4557 83.4557 42.52 84.61 42.52Z" fill="#E0D8AA"/>
<path d="M101.19 42.52H105.98C107.134 42.52 108.07 43.4557 108.07 44.61V49.4C108.07 50.5543 107.134 51.49 105.98 51.49H101.19C100.036 51.49 99.1 50.5543 99.1 49.4V44.61C99.1 43.4557 100.036 42.52 101.19 42.52Z" fill="#E0D8AA"/>
<path d="M117.78 42.52H122.57C123.724 42.52 124.66 43.4557 124.66 44.61V49.4C124.66 50.5543 123.724 51.49 122.57 51.49H117.78C116.626 51.49 115.69 50.5543 115.69 49.4V44.61C115.69 43.4557 116.626 42.52 117.78 42.52Z" fill="#E0D8AA"/>
<path d="M68.62 24.43H73.41C74.5643 24.43 75.5 25.3657 75.5 26.52V31.31C75.5 32.4643 74.5643 33.4 73.41 33.4H68.62C67.4657 33.4 66.53 32.4643 66.53 31.31V26.52C66.53 25.3657 67.4657 24.43 68.62 24.43Z" fill="#E0D8AA"/>
<path d="M85.21 24.43H90C91.1543 24.43 92.09 25.3657 92.09 26.52V31.31C92.09 32.4643 91.1543 33.4 90 33.4H85.21C84.0557 33.4 83.12 32.4643 83.12 31.31V26.52C83.12 25.3657 84.0557 24.43 85.21 24.43Z" fill="#E0D8AA"/>
<path d="M101.79 24.43H106.58C107.734 24.43 108.67 25.3657 108.67 26.52V31.31C108.67 32.4643 107.734 33.4 106.58 33.4H101.79C100.636 33.4 99.7 32.4643 99.7 31.31V26.52C99.7 25.3657 100.636 24.43 101.79 24.43Z" fill="#E0D8AA"/>
<path d="M84.6 61.95H89.39C90.5443 61.95 91.48 62.8857 91.48 64.04V68.83C91.48 69.9843 90.5443 70.92 89.39 70.92H84.6C83.4457 70.92 82.51 69.9843 82.51 68.83V64.04C82.51 62.8857 83.4457 61.95 84.6 61.95Z" fill="#E0D8AA"/>
<path d="M101.19 61.95H105.98C107.134 61.95 108.07 62.8857 108.07 64.04V68.83C108.07 69.9843 107.134 70.92 105.98 70.92H101.19C100.036 70.92 99.1 69.9843 99.1 68.83V64.04C99.1 62.8857 100.036 61.95 101.19 61.95Z" fill="#E0D8AA"/>
<path fill-rule="evenodd" clip-rule="evenodd" d="M555.77 105.28C555.77 104.898 555.618 104.532 555.348 104.262C555.078 103.992 554.712 103.84 554.33 103.84C553.948 103.84 553.582 103.992 553.312 104.262C553.042 104.532 552.89 104.898 552.89 105.28V111.78C552.89 112.162 553.042 112.528 553.312 112.798C553.582 113.068 553.948 113.22 554.33 113.22C554.712 113.22 555.078 113.068 555.348 112.798C555.618 112.528 555.77 112.162 555.77 111.78V105.28ZM565.57 110.56C565.776 110.283 565.877 109.942 565.854 109.598C565.831 109.253 565.686 108.928 565.445 108.681C565.204 108.434 564.883 108.282 564.539 108.25C564.195 108.219 563.852 108.311 563.57 108.51L558.98 113.11C558.792 113.387 558.707 113.721 558.738 114.054C558.77 114.388 558.917 114.7 559.154 114.936C559.39 115.173 559.702 115.32 560.036 115.352C560.369 115.383 560.703 115.298 560.98 115.11L565.58 110.52L565.57 110.56ZM568.8 121.24C569.182 121.24 569.548 121.088 569.818 120.818C570.088 120.548 570.24 120.182 570.24 119.8C570.24 119.418 570.088 119.052 569.818 118.782C569.548 118.512 569.182 118.36 568.8 118.36H562.3C561.918 118.36 561.552 118.512 561.282 118.782C561.012 119.052 560.86 119.418 560.86 119.8C560.86 120.182 561.012 120.548 561.282 120.818C561.552 121.088 561.918 121.24 562.3 121.24H568.8ZM563.52 131.09C563.797 131.296 564.138 131.397 564.482 131.374C564.827 131.351 565.152 131.206 565.399 130.965C565.646 130.724 565.798 130.403 565.83 130.059C565.861 129.715 565.769 129.372 565.57 129.09L560.97 124.49C560.693 124.302 560.359 124.217 560.026 124.248C559.692 124.28 559.38 124.427 559.144 124.664C558.907 124.9 558.76 125.212 558.728 125.546C558.697 125.879 558.782 126.213 558.97 126.49L563.56 131.09H563.52ZM552.84 134.32C552.84 134.702 552.992 135.068 553.262 135.338C553.532 135.608 553.898 135.76 554.28 135.76C554.662 135.76 555.028 135.608 555.298 135.338C555.568 135.068 555.72 134.702 555.72 134.32V127.82C555.72 127.438 555.568 127.072 555.298 126.802C555.028 126.532 554.662 126.38 554.28 126.38C553.898 126.38 553.532 126.532 553.262 126.802C552.992 127.072 552.84 127.438 552.84 127.82V134.32ZM542.99 129.05C542.791 129.332 542.699 129.675 542.73 130.019C542.762 130.363 542.914 130.684 543.161 130.925C543.408 131.166 543.733 131.311 544.078 131.334C544.422 131.357 544.763 131.256 545.04 131.05L549.63 126.45C549.806 126.331 549.953 126.175 550.061 125.992C550.169 125.81 550.235 125.606 550.255 125.394C550.275 125.183 550.249 124.97 550.177 124.771C550.105 124.571 549.99 124.39 549.84 124.24C549.69 124.09 549.509 123.975 549.309 123.903C549.11 123.831 548.897 123.805 548.686 123.825C548.474 123.845 548.27 123.911 548.088 124.019C547.905 124.127 547.749 124.274 547.63 124.45L543.03 129.05H542.99ZM539.76 118.36C539.378 118.36 539.012 118.512 538.742 118.782C538.472 119.052 538.32 119.418 538.32 119.8C538.32 120.182 538.472 120.548 538.742 120.818C539.012 121.088 539.378 121.24 539.76 121.24H546.26C546.642 121.24 547.008 121.088 547.278 120.818C547.548 120.548 547.7 120.182 547.7 119.8C547.7 119.418 547.548 119.052 547.278 118.782C547.008 118.512 546.642 118.36 546.26 118.36H539.76ZM545.09 108.51C544.816 108.249 544.451 108.105 544.072 108.11C543.694 108.115 543.332 108.267 543.065 108.535C542.797 108.802 542.645 109.164 542.64 109.542C542.635 109.921 542.779 110.286 543.04 110.56L547.64 115.15C547.759 115.326 547.915 115.473 548.098 115.581C548.28 115.689 548.484 115.755 548.696 115.775C548.907 115.795 549.12 115.769 549.319 115.697C549.519 115.625 549.7 115.51 549.85 115.36C550 115.21 550.115 115.029 550.187 114.829C550.259 114.63 550.285 114.417 550.265 114.206C550.245 113.994 550.179 113.79 550.071 113.608C549.963 113.425 549.816 113.269 549.64 113.15L545.09 108.51Z" fill="#E0D8AA"/>
<path fill-rule="evenodd" clip-rule="evenodd" d="M52.17 230.16C52.1866 229.96 52.1616 229.759 52.0966 229.569C52.0315 229.38 51.9278 229.205 51.792 229.058C51.6562 228.91 51.4913 228.792 51.3076 228.712C51.124 228.631 50.9256 228.59 50.725 228.59C50.5245 228.59 50.3261 228.631 50.1424 228.712C49.9587 228.792 49.7938 228.91 49.658 229.058C49.5222 229.205 49.4185 229.38 49.3535 229.569C49.2884 229.759 49.2634 229.96 49.28 230.16V236.65C49.2634 236.85 49.2884 237.051 49.3535 237.241C49.4185 237.43 49.5222 237.605 49.658 237.752C49.7938 237.9 49.9587 238.018 50.1424 238.098C50.3261 238.179 50.5245 238.22 50.725 238.22C50.9256 238.22 51.124 238.179 51.3076 238.098C51.4913 238.018 51.6562 237.9 51.792 237.752C51.9278 237.605 52.0315 237.43 52.0966 237.241C52.1616 237.051 52.1866 236.85 52.17 236.65V230.16ZM62.01 235.43C62.2668 235.16 62.41 234.802 62.41 234.43C62.41 234.058 62.2668 233.7 62.01 233.43C61.7428 233.169 61.3838 233.022 61.01 233.022C60.6362 233.022 60.2772 233.169 60.01 233.43L55.41 238.02C55.2108 238.302 55.1187 238.645 55.1501 238.989C55.1815 239.333 55.3345 239.654 55.5815 239.895C55.8285 240.136 56.1534 240.281 56.4977 240.304C56.842 240.327 57.1832 240.226 57.46 240.02L62.05 235.43H62.01ZM65.24 246.12C65.6025 246.09 65.9404 245.925 66.1867 245.657C66.433 245.389 66.5697 245.039 66.5697 244.675C66.5697 244.311 66.433 243.961 66.1867 243.693C65.9404 243.426 65.6025 243.26 65.24 243.23H58.74C58.3775 243.26 58.0396 243.426 57.7933 243.693C57.547 243.961 57.4103 244.311 57.4103 244.675C57.4103 245.039 57.547 245.389 57.7933 245.657C58.0396 245.925 58.3775 246.09 58.74 246.12H65.24ZM59.97 255.96C60.0891 256.136 60.2454 256.283 60.4279 256.391C60.6103 256.499 60.8144 256.565 61.0256 256.585C61.2367 256.605 61.4497 256.579 61.6493 256.507C61.8489 256.435 62.0301 256.32 62.1801 256.17C62.33 256.02 62.4451 255.839 62.5168 255.639C62.5886 255.44 62.6155 255.227 62.5954 255.016C62.5753 254.804 62.5089 254.6 62.4008 254.418C62.2926 254.235 62.1456 254.079 61.97 253.96L57.38 249.37C57.1032 249.164 56.762 249.063 56.4177 249.086C56.0733 249.109 55.7485 249.254 55.5015 249.495C55.2545 249.736 55.1015 250.057 55.0701 250.401C55.0386 250.745 55.1308 251.088 55.33 251.37L59.93 255.96H59.97ZM49.28 259.19C49.3102 259.552 49.4755 259.89 49.7432 260.137C50.0108 260.383 50.3613 260.52 50.725 260.52C51.0888 260.52 51.4392 260.383 51.7068 260.137C51.9745 259.89 52.1398 259.552 52.17 259.19V252.7C52.1866 252.5 52.1616 252.299 52.0966 252.109C52.0315 251.92 51.9278 251.745 51.792 251.598C51.6562 251.45 51.4913 251.332 51.3076 251.252C51.124 251.171 50.9256 251.13 50.725 251.13C50.5245 251.13 50.3261 251.171 50.1424 251.252C49.9587 251.332 49.7938 251.45 49.658 251.598C49.5222 251.745 49.4185 251.92 49.3535 252.109C49.2884 252.299 49.2634 252.5 49.28 252.7V259.19ZM39.44 253.92C39.1786 254.187 39.0322 254.546 39.0322 254.92C39.0322 255.294 39.1786 255.653 39.44 255.92C39.7096 256.177 40.0677 256.32 40.44 256.32C40.8123 256.32 41.1704 256.177 41.44 255.92L46.03 251.33C46.2868 251.06 46.43 250.702 46.43 250.33C46.43 249.958 46.2868 249.6 46.03 249.33C45.7628 249.069 45.4039 248.922 45.03 248.922C44.6562 248.922 44.2972 249.069 44.03 249.33L39.44 253.92ZM36.2 243.23C35.8375 243.26 35.4996 243.426 35.2533 243.693C35.007 243.961 34.8703 244.311 34.8703 244.675C34.8703 245.039 35.007 245.389 35.2533 245.657C35.4996 245.925 35.8375 246.09 36.2 246.12H42.7C43.0625 246.09 43.4004 245.925 43.6467 245.657C43.893 245.389 44.0297 245.039 44.0297 244.675C44.0297 244.311 43.893 243.961 43.6467 243.693C43.4004 243.426 43.0625 243.26 42.7 243.23H36.2ZM41.48 233.39C41.3609 233.214 41.2046 233.067 41.0222 232.959C40.8397 232.851 40.6356 232.785 40.4244 232.765C40.2133 232.745 40.0003 232.771 39.8007 232.843C39.6011 232.915 39.4199 233.03 39.27 233.18C39.12 233.33 39.005 233.511 38.9332 233.711C38.8614 233.91 38.8345 234.123 38.8546 234.334C38.8747 234.546 38.9411 234.75 39.0493 234.932C39.1574 235.115 39.3044 235.271 39.48 235.39L44.07 239.98C44.3372 240.241 44.6962 240.388 45.07 240.388C45.4438 240.388 45.8028 240.241 46.07 239.98C46.3268 239.71 46.47 239.352 46.47 238.98C46.47 238.608 46.3268 238.25 46.07 237.98L41.48 233.39Z" fill="#E0D8AA"/>
<path fill-rule="evenodd" clip-rule="evenodd" d="M626.5 116.9V119.81H623.57C622.983 119.813 622.421 120.048 622.007 120.464C621.592 120.88 621.36 121.443 621.36 122.03V122.03C621.36 122.32 621.417 122.608 621.528 122.876C621.639 123.144 621.802 123.387 622.007 123.593C622.212 123.798 622.456 123.961 622.724 124.072C622.992 124.183 623.28 124.24 623.57 124.24H626.5V127.16C626.5 127.746 626.733 128.308 627.147 128.723C627.562 129.137 628.124 129.37 628.71 129.37V129.37C629.296 129.37 629.858 129.137 630.273 128.723C630.687 128.308 630.92 127.746 630.92 127.16V124.24H633.84C634.13 124.24 634.418 124.183 634.686 124.072C634.954 123.961 635.197 123.798 635.403 123.593C635.608 123.387 635.771 123.144 635.882 122.876C635.993 122.608 636.05 122.32 636.05 122.03V122.03C636.05 121.443 635.817 120.88 635.403 120.464C634.989 120.048 634.427 119.813 633.84 119.81H630.92V116.9C630.92 116.313 630.687 115.75 630.273 115.334C629.859 114.918 629.297 114.683 628.71 114.68V114.68C628.123 114.683 627.561 114.918 627.147 115.334C626.732 115.75 626.5 116.313 626.5 116.9Z" fill="#E0D8AA"/>
<path fill-rule="evenodd" clip-rule="evenodd" d="M615.46 302.51V305.42H612.57C611.984 305.423 611.422 305.656 611.007 306.07C610.591 306.483 610.355 307.044 610.35 307.63V307.63C610.353 308.218 610.587 308.781 611.003 309.197C611.419 309.613 611.982 309.847 612.57 309.85H615.48V312.77C615.483 313.355 615.716 313.916 616.13 314.33C616.544 314.744 617.105 314.977 617.69 314.98V314.98C618.276 314.977 618.838 314.744 619.253 314.33C619.669 313.917 619.905 313.356 619.91 312.77V309.85H622.81C623.396 309.845 623.957 309.609 624.37 309.193C624.784 308.778 625.017 308.216 625.02 307.63C625.017 307.045 624.784 306.484 624.37 306.07C623.956 305.656 623.395 305.423 622.81 305.42H619.89V302.51C619.887 301.922 619.653 301.359 619.237 300.943C618.821 300.527 618.258 300.293 617.67 300.29V300.29C617.084 300.295 616.523 300.531 616.11 300.947C615.696 301.362 615.463 301.924 615.46 302.51V302.51Z" fill="#E0D8AA"/>
<path fill-rule="evenodd" clip-rule="evenodd" d="M512.57 18.45V21.36H509.66C509.072 21.3626 508.509 21.5974 508.093 22.0131C507.677 22.4289 507.443 22.992 507.44 23.58C507.445 24.1662 507.681 24.7268 508.097 25.1404C508.512 25.554 509.074 25.7874 509.66 25.79H512.57V28.71C512.575 29.2962 512.811 29.8568 513.227 30.2704C513.642 30.684 514.204 30.9174 514.79 30.92C515.375 30.9174 515.936 30.6837 516.35 30.2698C516.764 29.8559 516.997 29.2953 517 28.71V25.79H519.92C520.505 25.7874 521.066 25.5537 521.48 25.1398C521.894 24.7259 522.127 24.1653 522.13 23.58C522.13 22.9929 521.897 22.4298 521.483 22.0137C521.069 21.5977 520.507 21.3626 519.92 21.36H517V18.45C517 17.8629 516.767 17.2998 516.353 16.8837C515.939 16.4677 515.377 16.2326 514.79 16.23C514.202 16.2326 513.639 16.4674 513.223 16.8831C512.807 17.2989 512.573 17.862 512.57 18.45Z" fill="#E0D8AA"/>
<path d="M539.56 154.53H544.35C545.504 154.53 546.44 155.466 546.44 156.62V161.41C546.44 162.564 545.504 163.5 544.35 163.5H539.56C538.406 163.5 537.47 162.564 537.47 161.41V156.62C537.47 155.466 538.406 154.53 539.56 154.53Z" fill="#E0D8AA"/>
<path d="M556.15 154.53H560.94C562.094 154.53 563.03 155.466 563.03 156.62V161.41C563.03 162.564 562.094 163.5 560.94 163.5H556.15C554.996 163.5 554.06 162.564 554.06 161.41V156.62C554.06 155.466 554.996 154.53 556.15 154.53Z" fill="#E0D8AA"/>
<path d="M572.73 154.53H577.52C578.674 154.53 579.61 155.466 579.61 156.62V161.41C579.61 162.564 578.674 163.5 577.52 163.5H572.73C571.576 163.5 570.64 162.564 570.64 161.41V156.62C570.64 155.466 571.576 154.53 572.73 154.53Z" fill="#E0D8AA"/>
<path d="M589.32 154.53H594.11C595.264 154.53 596.2 155.466 596.2 156.62V161.41C596.2 162.564 595.264 163.5 594.11 163.5H589.32C588.166 163.5 587.23 162.564 587.23 161.41V156.62C587.23 155.466 588.166 154.53 589.32 154.53Z" fill="#E0D8AA"/>
<path d="M605.91 154.53H610.7C611.854 154.53 612.79 155.466 612.79 156.62V161.41C612.79 162.564 611.854 163.5 610.7 163.5H605.91C604.756 163.5 603.82 162.564 603.82 161.41V156.62C603.82 155.466 604.756 154.53 605.91 154.53Z" fill="#E0D8AA"/>
<path d="M622.5 154.53H627.29C628.444 154.53 629.38 155.466 629.38 156.62V161.41C629.38 162.564 628.444 163.5 627.29 163.5H622.5C621.346 163.5 620.41 162.564 620.41 161.41V156.62C620.41 155.466 621.346 154.53 622.5 154.53Z" fill="#E0D8AA"/>
<path fill-rule="evenodd" clip-rule="evenodd" d="M125.23 161.51C119.402 167.006 115.887 174.515 115.4 182.51C115.4 183.2 115.33 183.91 115.33 184.63C115.33 208.73 135.33 232.81 166.09 223.34C196.85 213.87 193.85 231.48 193.85 231.48C232.36 234.84 245.78 200.39 227.85 183.19C229.567 180.771 230.689 177.982 231.125 175.048C231.561 172.114 231.299 169.119 230.359 166.305C229.419 163.492 227.829 160.94 225.717 158.857C223.605 156.774 221.032 155.219 218.206 154.318C215.38 153.417 212.381 153.196 209.453 153.672C206.526 154.148 203.752 155.309 201.357 157.059C198.962 158.809 197.014 161.1 195.672 163.745C194.329 166.389 193.63 169.314 193.63 172.28V172.63C181.25 170.52 166.71 168.26 152.72 165.46C155.55 163.144 157.644 160.054 158.747 156.568C159.851 153.081 159.916 149.349 158.935 145.827C157.954 142.304 155.969 139.143 153.222 136.729C150.475 134.316 147.085 132.753 143.466 132.233C139.846 131.713 136.153 132.258 132.838 133.8C129.522 135.343 126.728 137.817 124.794 140.921C122.861 144.025 121.873 147.624 121.95 151.28C122.028 154.936 123.167 158.491 125.23 161.51Z" fill="#1E1A49"/>
<path fill-rule="evenodd" clip-rule="evenodd" d="M118.37 101.09C111.07 107.972 106.665 117.376 106.05 127.39C106 128.26 105.97 129.14 105.97 130.04C105.97 160.23 130.97 190.38 169.55 178.52C208.13 166.66 204.32 188.72 204.32 188.72C252.54 192.93 269.32 149.78 246.93 128.24C249.081 125.211 250.487 121.716 251.033 118.041C251.58 114.366 251.251 110.614 250.074 107.09C248.896 103.566 246.904 100.369 244.259 97.76C241.613 95.151 238.39 93.2031 234.85 92.0749C231.309 90.9466 227.553 90.6698 223.886 91.2669C220.219 91.864 216.744 93.3181 213.745 95.5111C210.745 97.7042 208.306 100.574 206.625 103.888C204.944 107.201 204.068 110.864 204.07 114.58V115.01C188.57 112.37 170.35 109.54 152.83 106.01C156.374 103.106 158.997 99.2341 160.379 94.8654C161.761 90.4967 161.841 85.8204 160.611 81.4067C159.381 76.993 156.893 73.0327 153.451 70.0086C150.008 66.9846 145.76 65.0275 141.225 64.376C136.69 63.7245 132.063 64.4068 127.908 66.3396C123.754 68.2725 120.252 71.3724 117.829 75.2613C115.406 79.1503 114.167 83.6602 114.263 88.2411C114.359 92.8221 115.786 97.2761 118.37 101.06V101.09Z" fill="#1E1A49"/>
<path fill-rule="evenodd" clip-rule="evenodd" d="M250.94 420.41C246.94 396.72 250.19 374.51 254.79 342.04C263.79 324.48 270.79 292.53 265.97 269.64C261.15 246.75 260.64 213.64 260.64 213.64C260.64 213.64 215.57 203.75 211.57 201.75C207.57 199.75 207.22 191.37 207.22 191.37L186.15 186.85L165.08 191.37C165.08 191.37 164.72 199.76 160.72 201.75C156.72 203.74 111.57 213.68 111.57 213.68C111.57 213.68 111.04 246.74 106.24 269.68C101.44 292.62 108.37 324.52 117.42 342.08C122.03 374.55 125.31 396.76 121.28 420.45L250.94 420.41Z" fill="#E7B3A2"/>
<path fill-rule="evenodd" clip-rule="evenodd" d="M186.11 138.27C180.521 138.286 175.166 140.513 171.215 144.465C167.263 148.416 165.036 153.771 165.02 159.36V199.73C165.038 205.317 167.267 210.669 171.218 214.619C175.17 218.568 180.523 220.794 186.11 220.81V220.81C191.697 220.794 197.05 218.568 201.002 214.619C204.953 210.669 207.182 205.317 207.2 199.73V159.36C207.184 153.771 204.957 148.416 201.005 144.465C197.054 140.513 191.699 138.286 186.11 138.27Z" fill="#E7B3A2"/>
<path fill-rule="evenodd" clip-rule="evenodd" d="M161.35 201.34C161.35 201.34 170.26 214.11 185.82 214.11C201.38 214.11 210.29 201.34 210.29 201.34C211.95 199.46 215.24 200.62 222.05 203.07C228.86 205.52 242.96 207.63 258.14 210.72C261.801 211.455 265.357 212.638 268.73 214.24L269.73 301.06L262.33 336.06C258.52 346.27 255.05 355.21 254.82 357.38C254.31 362.27 256.11 390.7 254.56 394.94C253.01 399.18 252.64 401.76 248.68 403.81C244.72 405.86 232.57 403.69 220.73 402.15C208.89 400.61 185.85 400.6 185.85 400.6C185.85 400.6 162.85 400.6 150.96 402.15C139.07 403.7 126.96 405.87 123.02 403.81C119.08 401.75 118.67 399.19 117.13 394.94C115.59 390.69 117.39 362.27 116.87 357.38C116.64 355.21 113.17 346.27 109.36 336.06L116.69 309.06L102.94 214.25C106.311 212.645 109.868 211.462 113.53 210.73C128.71 207.64 142.8 205.52 149.61 203.08C156.42 200.64 159.68 199.51 161.35 201.34Z" fill="#D3645E"/>
<path fill-rule="evenodd" clip-rule="evenodd" d="M268.87 304.95L262.3 336.06C260.16 341.8 258.13 347.13 256.71 351.06L250.47 351.34C250.47 351.34 184.26 338.34 169.85 335.62C155.44 332.9 151.67 336.62 151.67 336.62L116.83 366.8C116.94 362.37 117 358.8 116.83 357.31C116.6 355.14 113.13 346.2 109.32 335.99L110.47 331.76L115.98 323.58L123.7 307.12L142.57 298.61L156.63 310.1L219.24 306.16C219.24 306.16 236.05 306.85 250.59 307.21C265.13 307.57 268.87 304.95 268.87 304.95Z" fill="#A2323D"/>
<path fill-rule="evenodd" clip-rule="evenodd" d="M161.35 201.34C161.35 201.34 170.26 214.11 185.82 214.11C201.38 214.11 210.29 201.34 210.29 201.34C211.95 199.46 215.24 200.62 222.05 203.07C222.59 203.257 223.17 203.447 223.79 203.64C221.072 211.549 215.952 218.412 209.145 223.27C202.337 228.129 194.183 230.74 185.82 230.74C177.457 230.74 169.303 228.129 162.495 223.27C155.688 218.412 150.568 211.549 147.85 203.64C148.47 203.45 149.05 203.26 149.58 203.07C156.4 200.62 159.68 199.51 161.35 201.34Z" fill="white"/>
<path fill-rule="evenodd" clip-rule="evenodd" d="M167.14 181.87C172.828 185.118 179.26 186.84 185.81 186.87H186.4C193.85 186.8 200.93 183.99 207.2 179.45V191.63C207.29 192.99 207.86 198.63 210.55 201.04C210.456 201.119 210.369 201.206 210.29 201.3C209.367 202.542 208.344 203.706 207.23 204.78L206.63 204.54L170.3 190.2L165.02 188.12V180.54C165.72 181.03 166.42 181.51 167.14 181.87Z" fill="#CF8577"/>
<path fill-rule="evenodd" clip-rule="evenodd" d="M234.22 122.78C234.55 122.78 234.88 122.89 235.22 122.96C238.199 123.607 240.87 125.249 242.792 127.615C244.715 129.981 245.775 132.931 245.798 135.98C245.822 139.029 244.807 141.995 242.922 144.39C241.036 146.786 238.391 148.469 235.423 149.162C232.454 149.855 229.337 149.518 226.586 148.205C223.834 146.892 221.611 144.682 220.282 141.938C218.953 139.195 218.597 136.08 219.273 133.107C219.948 130.134 221.616 127.48 224 125.58C223.63 129.58 224.23 134.45 229.28 134.97L229.19 127.23C229.14 124.1 232.07 122.68 234.22 122.78Z" fill="#D58881"/>
<path fill-rule="evenodd" clip-rule="evenodd" d="M142.43 122.14L141.43 122.3C138.444 122.899 135.751 124.496 133.793 126.828C131.836 129.161 130.731 132.091 130.659 135.135C130.588 138.18 131.555 141.158 133.402 143.579C135.248 146.001 137.864 147.722 140.819 148.459C143.773 149.197 146.891 148.906 149.659 147.636C152.427 146.366 154.68 144.192 156.047 141.471C157.415 138.75 157.816 135.644 157.184 132.665C156.552 129.686 154.925 127.011 152.57 125.08C152.88 129.08 152.22 133.95 147.15 134.4L147.35 126.67C147.49 123.51 144.57 122.07 142.43 122.14Z" fill="#D58881"/>
<path fill-rule="evenodd" clip-rule="evenodd" d="M188.23 190C163.23 190 142.28 159.08 142.28 134.67V102.25C142.304 90.066 147.151 78.3871 155.762 69.767C164.372 61.1469 176.046 56.287 188.23 56.25V56.25C200.422 56.2764 212.107 61.1313 220.728 69.7523C229.349 78.3732 234.204 90.0582 234.23 102.25V133.98C234.19 160.73 215.95 190 188.23 190Z" fill="#E9BAA8"/>
<path fill-rule="evenodd" clip-rule="evenodd" d="M150.57 75.99C153.345 72.0385 156.719 68.5433 160.57 65.63C176.34 67.4 202.48 70.34 223.43 72.76C230.387 81.0119 234.205 91.4566 234.21 102.25V115.86C196.68 115.28 161.48 87.04 161.48 87.04L154.07 86.19L150.57 75.99Z" fill="#D58881"/>
<path fill-rule="evenodd" clip-rule="evenodd" d="M142.43 135.08C143.69 134.47 149.43 131.13 149.16 120.61C149.16 120.61 165.41 116.06 162.93 83.76C162.93 83.76 227.53 121.16 245.93 107.96C254.88 101.55 256.75 83.96 249.47 67.6C227.57 18.32 127.9 17.1 134.57 95.04C129.249 97.0695 124.301 99.969 119.93 103.62L133.71 121.04C142.07 117.52 142.19 133.6 142.18 135.04L142.43 135.08Z" fill="#1E1A49"/>
<path fill-rule="evenodd" clip-rule="evenodd" d="M248.72 65.95C241.07 70.79 230.72 73.23 216.81 69.47C191.69 62.68 170.91 48.81 151.81 45.9C149.873 47.5323 148.073 49.3217 146.43 51.25C153.8 52.61 162.17 56.25 171.05 63.94C193.52 83.36 225.33 106.77 253.41 94.74C254.9 86.87 253.74 77.04 249.55 67.6C249.25 67.04 248.98 66.51 248.72 65.95Z" fill="#2E2D6B"/>
<path fill-rule="evenodd" clip-rule="evenodd" d="M218.78 149.7C217.52 149.724 216.296 150.121 215.262 150.84C214.228 151.56 213.431 152.57 212.971 153.743C212.511 154.916 212.409 156.199 212.678 157.429C212.947 158.66 213.575 159.783 214.482 160.657C215.39 161.531 216.536 162.116 217.776 162.339C219.016 162.561 220.294 162.411 221.449 161.907C222.603 161.403 223.583 160.569 224.263 159.508C224.943 158.448 225.294 157.21 225.27 155.95C225.254 155.113 225.074 154.288 224.739 153.521C224.405 152.754 223.922 152.061 223.32 151.481C222.717 150.9 222.006 150.444 221.227 150.139C220.448 149.833 219.617 149.684 218.78 149.7Z" fill="#D58881"/>
<path fill-rule="evenodd" clip-rule="evenodd" d="M166.05 150.71C164.79 150.734 163.566 151.131 162.532 151.85C161.498 152.57 160.701 153.58 160.241 154.753C159.781 155.926 159.679 157.209 159.948 158.439C160.217 159.67 160.845 160.793 161.752 161.667C162.66 162.541 163.806 163.126 165.046 163.349C166.286 163.571 167.564 163.421 168.719 162.917C169.873 162.413 170.853 161.579 171.533 160.518C172.213 159.458 172.563 158.22 172.54 156.96C172.506 155.271 171.803 153.665 170.587 152.494C169.37 151.322 167.739 150.681 166.05 150.71Z" fill="#D58881"/>
<path fill-rule="evenodd" clip-rule="evenodd" d="M177.28 116.35C177.744 116.561 178.105 116.947 178.285 117.425C178.464 117.902 178.446 118.431 178.235 118.895C178.024 119.359 177.638 119.72 177.16 119.9C176.683 120.079 176.154 120.061 175.69 119.85C175.69 119.85 169.86 117.1 164.32 120.59C163.888 120.799 163.395 120.839 162.935 120.703C162.475 120.568 162.082 120.266 161.833 119.857C161.583 119.448 161.495 118.96 161.585 118.489C161.675 118.019 161.937 117.598 162.32 117.31C169.57 112.71 177.26 116.34 177.28 116.35Z" fill="#1E1A49"/>
<path fill-rule="evenodd" clip-rule="evenodd" d="M222.72 117.2C223.137 117.463 223.438 117.876 223.561 118.354C223.684 118.831 223.618 119.338 223.379 119.77C223.14 120.201 222.744 120.524 222.274 120.673C221.803 120.822 221.294 120.785 220.85 120.57C220.85 120.57 215.27 117.35 209.46 120.38C209.235 120.497 208.989 120.568 208.736 120.59C208.483 120.612 208.229 120.584 207.987 120.507C207.745 120.43 207.52 120.307 207.326 120.144C207.132 119.98 206.972 119.78 206.855 119.555C206.738 119.33 206.667 119.084 206.645 118.831C206.623 118.578 206.651 118.324 206.728 118.082C206.805 117.84 206.928 117.615 207.091 117.421C207.255 117.227 207.455 117.067 207.68 116.95C215.35 112.95 222.7 117.19 222.72 117.2Z" fill="#1E1A49"/>
<path fill-rule="evenodd" clip-rule="evenodd" d="M193.77 144.51C194.63 146.94 196.13 151.35 196 152.04C195.82 153.04 190.73 153.25 189.39 151.78C188.5 150.78 189.61 147.15 190.57 144.72C191.89 141.42 192.57 141.25 193.77 144.51Z" fill="#F1D3C8"/>
<path fill-rule="evenodd" clip-rule="evenodd" d="M215.13 141.72C216.676 141.72 218.159 141.106 219.252 140.012C220.346 138.919 220.96 137.436 220.96 135.89C220.965 135.459 220.918 135.03 220.82 134.61L221.49 134.37C222.257 134.09 222.956 133.651 223.54 133.08C223.667 132.945 223.738 132.766 223.738 132.58C223.738 132.394 223.667 132.215 223.54 132.08C223.404 131.955 223.225 131.886 223.04 131.886C222.855 131.886 222.676 131.955 222.54 132.08C221.983 132.622 221.293 133.009 220.54 133.2V133.2C221.311 132.755 221.939 132.1 222.35 131.31C222.398 131.225 222.429 131.131 222.44 131.034C222.451 130.937 222.443 130.839 222.415 130.746C222.387 130.652 222.34 130.565 222.277 130.49C222.214 130.415 222.137 130.354 222.05 130.31C221.878 130.218 221.675 130.197 221.488 130.254C221.301 130.31 221.143 130.438 221.05 130.61C220.717 131.252 220.183 131.768 219.53 132.08L219.48 132.02C219.991 131.609 220.361 131.05 220.54 130.42C220.577 130.24 220.545 130.052 220.45 129.894C220.354 129.736 220.203 129.62 220.026 129.57C219.849 129.519 219.659 129.537 219.494 129.621C219.33 129.704 219.204 129.847 219.14 130.02C219.007 130.439 218.726 130.794 218.35 131.02C217.59 130.524 216.725 130.211 215.824 130.108C214.922 130.005 214.009 130.113 213.157 130.425C212.305 130.737 211.537 131.243 210.915 131.904C210.293 132.565 209.834 133.362 209.574 134.231C209.314 135.1 209.261 136.019 209.419 136.912C209.576 137.806 209.94 138.65 210.482 139.379C211.023 140.107 211.727 140.699 212.538 141.107C213.348 141.515 214.243 141.728 215.15 141.73L215.13 141.72Z" fill="#1E1A49"/>
<path fill-rule="evenodd" clip-rule="evenodd" d="M169.94 141.72C169.174 141.72 168.416 141.569 167.709 141.276C167.002 140.983 166.359 140.554 165.818 140.012C165.276 139.471 164.847 138.828 164.554 138.121C164.261 137.414 164.11 136.656 164.11 135.89C164.111 135.46 164.158 135.03 164.25 134.61L163.58 134.37C162.831 134.084 162.149 133.645 161.58 133.08C161.498 132.941 161.464 132.778 161.484 132.617C161.504 132.456 161.578 132.307 161.692 132.192C161.807 132.077 161.956 132.004 162.117 131.984C162.278 131.964 162.441 131.997 162.58 132.08C163.137 132.622 163.827 133.009 164.58 133.2V133.2C163.811 132.753 163.184 132.098 162.77 131.31C162.722 131.225 162.692 131.13 162.681 131.033C162.671 130.935 162.68 130.837 162.709 130.743C162.739 130.65 162.786 130.563 162.85 130.488C162.914 130.414 162.992 130.353 163.08 130.31C163.165 130.263 163.259 130.233 163.355 130.223C163.452 130.213 163.55 130.222 163.643 130.25C163.736 130.278 163.823 130.324 163.898 130.386C163.973 130.448 164.035 130.524 164.08 130.61C164.416 131.25 164.949 131.765 165.6 132.08L165.66 132.02C165.146 131.61 164.772 131.051 164.59 130.42C164.553 130.24 164.585 130.052 164.68 129.894C164.776 129.736 164.927 129.62 165.104 129.57C165.281 129.519 165.471 129.537 165.636 129.621C165.8 129.704 165.926 129.847 165.99 130.02C166.126 130.437 166.406 130.791 166.78 131.02C167.54 130.524 168.405 130.211 169.306 130.108C170.208 130.005 171.121 130.113 171.973 130.425C172.825 130.737 173.593 131.243 174.215 131.904C174.837 132.565 175.296 133.362 175.556 134.231C175.816 135.1 175.869 136.019 175.711 136.912C175.554 137.806 175.19 138.65 174.648 139.379C174.107 140.107 173.403 140.699 172.592 141.107C171.782 141.515 170.887 141.728 169.98 141.73L169.94 141.72Z" fill="#1E1A49"/>
<path fill-rule="evenodd" clip-rule="evenodd" d="M202.02 162.31C202.02 164.83 201.019 167.246 199.238 169.028C197.456 170.809 195.04 171.81 192.52 171.81C190 171.81 187.584 170.809 185.802 169.028C184.021 167.246 183.02 164.83 183.02 162.31C183.023 161.847 183.208 161.403 183.535 161.075C183.863 160.748 184.307 160.563 184.77 160.56H200.27C200.734 160.56 201.179 160.744 201.507 161.073C201.836 161.401 202.02 161.846 202.02 162.31V162.31Z" fill="white"/>
<path fill-rule="evenodd" clip-rule="evenodd" d="M76.57 286.09C76.57 286.09 64.93 332.78 64.74 341.49C64.55 350.2 65.59 369.62 76.74 373.74C87.89 377.86 101.44 364.3 104.53 353.67C107.62 343.04 114.48 295.67 114.48 295.67L76.57 286.09Z" fill="#E9BAA8"/>
<path fill-rule="evenodd" clip-rule="evenodd" d="M111.03 318.41C112.96 306.19 114.48 295.69 114.48 295.69L77.65 286.36L76.33 293.57L103.73 320.26L111.03 318.41Z" fill="#D58881"/>
<path fill-rule="evenodd" clip-rule="evenodd" d="M102.9 214.24C102.9 214.24 121.35 257.58 117.24 300.51L114.24 307.76C113.583 308.324 112.82 308.752 111.996 309.018C111.172 309.284 110.303 309.383 109.44 309.31C106.35 309.13 73.12 292.7 66.88 287.96C66.88 287.96 64.42 285.11 65.11 282.71C65.8 280.31 84.88 240.76 88.26 232.79C91.64 224.82 99.73 215.59 102.9 214.24Z" fill="#D3645E"/>
<path fill-rule="evenodd" clip-rule="evenodd" d="M117.05 312.67C117.05 312.67 80.86 331.03 76.57 334.67C72.28 338.31 63.86 344.67 65.5 354.41C67.14 364.15 68.95 375.32 82.92 375.32C96.89 375.32 108.13 359.51 114.65 350.92C121.17 342.33 134.03 326.22 134.03 326.22L117.05 312.67Z" fill="#E9BAA8"/>
<path fill-rule="evenodd" clip-rule="evenodd" d="M120.24 343.69C125.01 337.58 130.32 330.89 132.72 327.87L115.39 311.87L111.28 322.16L120.24 343.69Z" fill="#D58881"/>
<path fill-rule="evenodd" clip-rule="evenodd" d="M153.06 321.86C153.06 322.49 152.62 324.16 151.44 324.31C150.26 324.46 148.75 324.45 148.75 324.45C148.75 324.45 135.8 334.06 134.33 334.16C132.86 334.26 126.78 332.69 126.78 332.69C126.78 332.69 124.04 333.38 123.15 332.69C122.26 332 118.25 329.55 114.62 326.69C110.99 323.83 109.72 320.81 109.92 318.45C110.12 316.09 111 308.26 113.15 304.63C115.3 301 120.9 297.76 124.53 296.78C128.16 295.8 141.15 293.01 143.84 292.52C146.53 292.03 147.37 292.32 148.21 293.52C149.05 294.72 152.86 307.39 152.86 307.39C152.86 307.39 153.11 308.28 152.03 308.47C151.466 308.567 150.888 308.538 150.337 308.386C149.785 308.234 149.274 307.962 148.84 307.59C148.84 307.59 146.2 307.69 145.22 306.76C144.24 305.83 141.15 303.28 141.15 303.28C141.15 303.28 137.52 307.78 134.09 309.11C134.255 309.383 134.316 309.707 134.261 310.021C134.206 310.336 134.038 310.619 133.79 310.82L138.7 314.82C138.7 314.82 143.3 314.67 144.48 314.72C145.66 314.77 151.69 317.98 153.06 321.86Z" fill="#E9BAA8"/>
<path fill-rule="evenodd" clip-rule="evenodd" d="M152.57 306.51L152.83 307.38C152.83 307.38 153.08 308.27 152 308.46C151.453 308.546 150.894 308.519 150.357 308.382C149.821 308.244 149.318 307.999 148.88 307.66C150 307.26 151.24 306.87 152.57 306.51ZM141.21 314.72C142.49 314.72 143.88 314.66 144.45 314.72C145.55 314.72 150.89 317.59 152.7 321.12C146.28 319.34 142.11 317.14 141.24 314.73L141.21 314.72Z" fill="#D58881"/>
<path d="M148.75 324.45C148.75 324.45 129.97 322.45 127.75 322.05C126.822 321.987 125.924 321.694 125.137 321.199C124.35 320.703 123.698 320.02 123.24 319.21C122.16 317.44 118.04 311.46 118.04 311.46" stroke="#D58881" stroke-width="0.71" stroke-linecap="round" stroke-linejoin="round"/>
<path d="M134.08 309.11L130.41 304.79" stroke="#D58881" stroke-width="0.71" stroke-linecap="round" stroke-linejoin="round"/>
<path d="M133.79 310.82L128.99 308.91" stroke="#D58881" stroke-width="0.71" stroke-linecap="round" stroke-linejoin="round"/>
<path d="M141.15 303.28C140.249 302.121 139.798 300.676 139.88 299.21" stroke="#D58881" stroke-width="0.71" stroke-linecap="round" stroke-linejoin="round"/>
<path d="M140.84 303.64C139.564 303.678 138.312 303.291 137.28 302.54" stroke="#D58881" stroke-width="0.71" stroke-linecap="round" stroke-linejoin="round"/>
<path d="M138.69 314.8L138.35 315.87" stroke="#D58881" stroke-width="0.71" stroke-linecap="round" stroke-linejoin="round"/>
<path d="M144.38 323.98L134.48 328.97" stroke="#D58881" stroke-width="0.71" stroke-linecap="round" stroke-linejoin="round"/>
<path d="M126.78 332.69L129.82 331.66" stroke="#D58881" stroke-width="0.71" stroke-linecap="round" stroke-linejoin="round"/>
<path d="M133.74 322.8C133.74 322.8 123.94 324.02 122.62 324.16C121.19 324.179 119.782 323.806 118.55 323.08C117.833 322.454 117.192 321.746 116.64 320.97" stroke="#D58881" stroke-width="0.71" stroke-linecap="round" stroke-linejoin="round"/>
<path d="M104.79 318.97L79.2 334.32" stroke="#D58881" stroke-width="0.71" stroke-linecap="round" stroke-linejoin="round"/>
<path fill-rule="evenodd" clip-rule="evenodd" d="M152.25 305.38L152.86 307.38C152.86 307.38 153.11 308.27 152.03 308.46C151.466 308.557 150.888 308.528 150.337 308.376C149.785 308.224 149.274 307.952 148.84 307.58C148.84 307.58 146.2 307.68 145.22 306.75C145.03 306.57 144.78 306.34 144.48 306.08V305.37L152.25 305.38Z" fill="#E9BAA8"/>
<path fill-rule="evenodd" clip-rule="evenodd" d="M303.34 278.91C303.34 278.91 322.86 322.91 324.55 331.44C326.24 339.97 328.55 359.3 318.28 365.28C308.01 371.26 292.28 360.28 287.45 350.28C282.62 340.28 267.65 294.88 267.65 294.88L303.34 278.91Z" fill="#E9BAA8"/>
<path fill-rule="evenodd" clip-rule="evenodd" d="M274.97 316.69C270.97 304.98 267.65 294.9 267.65 294.9L302.32 279.36L304.87 286.23L285.72 346.34L274.97 316.69Z" fill="#D58881"/>
<path fill-rule="evenodd" clip-rule="evenodd" d="M265.01 212.67C265.01 212.67 254.31 258.54 265.76 300.07L269.99 306.7C270.736 307.14 271.562 307.428 272.421 307.547C273.279 307.665 274.152 307.612 274.99 307.39C277.99 306.69 307.91 284.78 313.24 279.03C313.24 279.03 315.17 275.79 314.08 273.55C312.99 271.31 287.37 235.64 282.66 228.37C277.95 221.1 268.38 213.51 265.01 212.67Z" fill="#D3645E"/>
<path fill-rule="evenodd" clip-rule="evenodd" d="M324.15 357.87C324.15 357.87 328.73 345.33 326.5 333.67C324.27 322.01 298.38 282.89 298.38 282.89L279.89 288.77L283.28 298.87L283.61 302.96L287.45 350.3L324.15 357.87Z" fill="#E9BAA8"/>
<path d="M302.58 289.39L318.44 320.97" stroke="#D58881" stroke-width="0.71" stroke-linecap="round" stroke-linejoin="round"/>
<path fill-rule="evenodd" clip-rule="evenodd" d="M282 263.16C281.967 261.521 281.769 259.89 281.41 258.29C280.9 256.62 280.47 246.65 279.09 244.1C277.71 241.55 275.67 240.39 272.25 241.1C268.83 241.81 269.78 246.63 269.92 249.54C270.06 252.45 270.65 261.1 270.65 261.1L282 263.16Z" fill="#D58881"/>
<path d="M124.66 295.43C125.1 290.93 126.45 276.43 126.45 267.48C126.45 256.85 122 214.99 122 214.99M268.87 304.95C270.323 299.494 270.556 293.786 269.55 288.23C267.79 279.66 260.28 230.63 259.9 220.83L268.87 304.95Z" stroke="#9A3133" stroke-width="0.71" stroke-linecap="round" stroke-linejoin="round"/>
<path fill-rule="evenodd" clip-rule="evenodd" d="M295.9 262.68C294.865 261.847 293.75 261.121 292.57 260.51C291.26 259.95 284.82 254.99 282.51 254.51C280.2 254.03 278.4 254.69 277.01 257.17C275.62 259.65 279.16 261.61 281.01 263.05C282.86 264.49 288.6 268.67 288.6 268.67L295.9 262.68Z" fill="#D58881"/>
<path fill-rule="evenodd" clip-rule="evenodd" d="M298.14 263.38C299.372 264.894 300.488 266.499 301.48 268.18C301.84 269.18 300.9 271.6 300.9 272.76C300.9 273.92 301.99 277.63 301.99 278.43C301.99 279.23 300.9 281.85 300.9 282.73C300.9 283.61 300.83 288.98 300.75 290.14C300.67 291.3 297.75 296.98 296.9 298.95C296.05 300.92 294.9 301.86 293.19 302.15C289.993 302.429 286.776 302.379 283.59 302C280.15 301 279.84 293.59 280.77 291.57C280.77 291.57 274.35 290 271.59 289.42C268.83 288.84 269.48 285.49 269.48 285.49C268.549 285.688 267.58 285.586 266.71 285.2C265.48 284.54 265.84 280.91 265.84 280.91C265.84 280.91 262.84 280.33 263.22 276.62C263.22 276.62 259.08 275.82 258.35 274.36C257.995 273.466 257.85 272.503 257.926 271.544C258.003 270.585 258.298 269.657 258.79 268.83C259.79 267.01 270.57 255.01 272.17 254.28C273.77 253.55 285.41 250 287.59 249.56C289.77 249.12 291.3 249.63 292.25 251.16C293.2 252.69 298.14 263.38 298.14 263.38V263.38ZM292.61 262C290.76 260.47 288.21 258 287.05 258.21C285.89 258.42 278.97 261.96 278.97 261.96C281.52 261.89 292.57 262 292.57 262H292.61Z" fill="#E9BAA8"/>
<path d="M277.57 290.8C277.57 290.8 283.84 292.18 284.57 292.69C285.3 293.2 288.65 295.97 288.65 295.97" stroke="#D58881" stroke-width="0.71" stroke-linecap="round" stroke-linejoin="round"/>
<path d="M285.16 293.17L285.12 295.75" stroke="#D58881" stroke-width="0.71" stroke-linecap="round" stroke-linejoin="round"/>
<path d="M269.48 285.51C269.791 285.074 270.243 284.759 270.76 284.62C271.76 284.24 278.63 283.2 279.51 283.06C280.39 282.92 291.57 284.35 291.57 284.35" stroke="#D58881" stroke-width="0.71" stroke-linecap="round" stroke-linejoin="round"/>
<path d="M265.84 280.91C266.051 280.456 266.401 280.081 266.84 279.84C267.68 279.26 278.08 274.05 279.61 273.84C281.14 273.63 292.7 273.18 292.7 273.18" stroke="#D58881" stroke-width="0.71" stroke-linecap="round" stroke-linejoin="round"/>
<path d="M263.22 276.62C263.22 276.62 271.65 266.86 273.98 264.82C276.31 262.78 277.21 262.45 278.98 261.96" stroke="#D58881" stroke-width="0.71" stroke-linecap="round" stroke-linejoin="round"/>
<path fill-rule="evenodd" clip-rule="evenodd" d="M313.2 166.13C313.17 165.768 313.005 165.43 312.737 165.183C312.469 164.937 312.119 164.8 311.755 164.8C311.391 164.8 311.041 164.937 310.773 165.183C310.506 165.43 310.34 165.768 310.31 166.13V172.62C310.293 172.82 310.318 173.021 310.383 173.211C310.448 173.4 310.552 173.575 310.688 173.722C310.824 173.87 310.989 173.988 311.172 174.068C311.356 174.149 311.554 174.19 311.755 174.19C311.956 174.19 312.154 174.149 312.338 174.068C312.521 173.988 312.686 173.87 312.822 173.722C312.958 173.575 313.062 173.4 313.127 173.211C313.192 173.021 313.217 172.82 313.2 172.62V166.13ZM323.04 171.4C323.216 171.281 323.363 171.125 323.471 170.942C323.579 170.76 323.645 170.556 323.665 170.344C323.685 170.133 323.659 169.92 323.587 169.721C323.515 169.521 323.4 169.34 323.25 169.19C323.1 169.04 322.919 168.925 322.719 168.853C322.52 168.781 322.307 168.755 322.096 168.775C321.884 168.795 321.68 168.861 321.498 168.969C321.315 169.077 321.159 169.224 321.04 169.4L316.44 173.99C316.179 174.264 316.035 174.629 316.04 175.008C316.045 175.386 316.197 175.748 316.465 176.015C316.732 176.283 317.094 176.435 317.472 176.44C317.851 176.444 318.216 176.301 318.49 176.04L323.08 171.44L323.04 171.4ZM326.27 182.09C326.633 182.06 326.97 181.895 327.217 181.627C327.463 181.359 327.6 181.009 327.6 180.645C327.6 180.281 327.463 179.931 327.217 179.663C326.97 179.395 326.633 179.23 326.27 179.2H319.78C319.58 179.183 319.379 179.208 319.189 179.273C319 179.338 318.825 179.442 318.678 179.578C318.53 179.714 318.412 179.879 318.332 180.062C318.251 180.246 318.21 180.444 318.21 180.645C318.21 180.846 318.251 181.044 318.332 181.228C318.412 181.411 318.53 181.576 318.678 181.712C318.825 181.848 319 181.952 319.189 182.017C319.379 182.082 319.58 182.107 319.78 182.09H326.27ZM321 191.93C321.267 192.191 321.626 192.338 322 192.338C322.374 192.338 322.733 192.191 323 191.93C323.257 191.66 323.4 191.302 323.4 190.93C323.4 190.558 323.257 190.2 323 189.93L318.41 185.34C318.133 185.134 317.792 185.033 317.448 185.056C317.103 185.079 316.779 185.224 316.531 185.465C316.284 185.706 316.132 186.027 316.1 186.371C316.069 186.715 316.161 187.058 316.36 187.34L320.96 191.93H321ZM310.31 195.17C310.34 195.532 310.506 195.87 310.773 196.117C311.041 196.363 311.391 196.5 311.755 196.5C312.119 196.5 312.469 196.363 312.737 196.117C313.005 195.87 313.17 195.532 313.2 195.17V188.67C313.17 188.308 313.005 187.97 312.737 187.723C312.469 187.477 312.119 187.34 311.755 187.34C311.391 187.34 311.041 187.477 310.773 187.723C310.506 187.97 310.34 188.308 310.31 188.67V195.17ZM300.47 189.89C300.294 190.009 300.147 190.165 300.039 190.348C299.931 190.53 299.865 190.734 299.845 190.946C299.825 191.157 299.851 191.37 299.923 191.569C299.995 191.769 300.11 191.95 300.26 192.1C300.41 192.25 300.591 192.365 300.791 192.437C300.99 192.509 301.203 192.535 301.414 192.515C301.626 192.495 301.83 192.429 302.012 192.321C302.195 192.213 302.351 192.066 302.47 191.89L307.06 187.3C307.248 187.023 307.333 186.689 307.302 186.356C307.27 186.022 307.123 185.71 306.886 185.474C306.65 185.237 306.338 185.09 306.004 185.058C305.671 185.027 305.337 185.112 305.06 185.3L300.47 189.89ZM297.24 179.2C297.04 179.183 296.839 179.208 296.649 179.273C296.46 179.338 296.285 179.442 296.138 179.578C295.99 179.714 295.872 179.879 295.792 180.062C295.711 180.246 295.67 180.444 295.67 180.645C295.67 180.846 295.711 181.044 295.792 181.228C295.872 181.411 295.99 181.576 296.138 181.712C296.285 181.848 296.46 181.952 296.649 182.017C296.839 182.082 297.04 182.107 297.24 182.09H303.73C304.092 182.06 304.43 181.895 304.677 181.627C304.923 181.359 305.06 181.009 305.06 180.645C305.06 180.281 304.923 179.931 304.677 179.663C304.43 179.395 304.092 179.23 303.73 179.2H297.24ZM302.51 169.36C302.24 169.103 301.882 168.96 301.51 168.96C301.138 168.96 300.78 169.103 300.51 169.36C300.249 169.627 300.102 169.986 300.102 170.36C300.102 170.734 300.249 171.093 300.51 171.36L305.1 175.96C305.382 176.159 305.725 176.251 306.069 176.22C306.413 176.188 306.734 176.036 306.975 175.789C307.216 175.542 307.361 175.217 307.384 174.872C307.407 174.528 307.306 174.187 307.1 173.91L302.51 169.36Z" fill="#E0D8AA"/>
<path fill-rule="evenodd" clip-rule="evenodd" d="M332.78 217.42V220.33H329.87C329.282 220.333 328.719 220.567 328.303 220.983C327.887 221.399 327.653 221.962 327.65 222.55V222.55C327.653 223.137 327.888 223.699 328.304 224.113C328.72 224.527 329.283 224.76 329.87 224.76H332.78V227.68C332.783 228.265 333.016 228.826 333.43 229.24C333.844 229.654 334.405 229.887 334.99 229.89V229.89C335.577 229.89 336.14 229.657 336.556 229.243C336.972 228.829 337.207 228.267 337.21 227.68V224.76H340.13C340.715 224.757 341.276 224.524 341.69 224.11C342.104 223.696 342.337 223.135 342.34 222.55V222.55C342.337 221.964 342.104 221.402 341.69 220.987C341.277 220.571 340.716 220.335 340.13 220.33H337.21V217.42C337.207 216.832 336.973 216.269 336.557 215.853C336.141 215.437 335.578 215.203 334.99 215.2V215.2C334.404 215.205 333.843 215.441 333.43 215.857C333.016 216.272 332.783 216.834 332.78 217.42Z" fill="#E0D8AA"/>
<path fill-rule="evenodd" clip-rule="evenodd" d="M344.09 267.51C344.09 267.51 332.45 314.19 332.26 322.91C332.07 331.63 333.12 351.04 344.26 355.16C355.4 359.28 368.96 345.72 372.04 335.09C375.12 324.46 381.99 277.09 381.99 277.09L344.09 267.51Z" fill="#E9BAA8"/>
<path fill-rule="evenodd" clip-rule="evenodd" d="M378.57 299.83C380.5 287.61 382.02 277.11 382.02 277.11L345.2 267.78L343.87 274.98L371.27 301.67L378.57 299.83Z" fill="#D58881"/>
<path fill-rule="evenodd" clip-rule="evenodd" d="M459.57 401.26H368.99C369.33 399.63 369.93 397.26 370.71 394.37C377.39 394.89 382.5 395.26 382.5 395.26L391.42 357.35L388.52 319.54C389.043 315.737 389.211 311.894 389.02 308.06C387.23 285.54 366.32 199.76 366.32 199.76C367.39 197.76 370.43 195.65 370.43 195.65L428.52 171.31L459.57 183.1L490.57 171.31L548.66 195.65C548.66 195.65 551.66 197.8 552.77 199.76C552.77 199.76 531.86 285.54 530.07 308.06C529.881 311.884 530.049 315.717 530.57 319.51V319.51L527.67 357.32L536.59 395.23C536.59 395.23 541.7 394.86 548.38 394.34C549.16 397.24 549.76 399.6 550.1 401.23L459.57 401.26Z" fill="#9C9DCC"/>
<path fill-rule="evenodd" clip-rule="evenodd" d="M373.21 194.51L380.81 191.33L528.23 350.65L527.72 357.35L529.03 362.91L373.21 194.51ZM389.57 187.62L529.17 338.51L529.97 327.98L397.2 184.48L389.57 187.62Z" fill="#C5C5E2"/>
<path fill-rule="evenodd" clip-rule="evenodd" d="M390.16 340.93L388.52 319.51C389.043 315.707 389.211 311.864 389.02 308.03C388.82 305.61 388.41 302.45 387.82 298.75L396.57 284.51L409.94 279.02L431.21 283.14L470.44 295.51L499.57 289.89L509.45 280.01L531.75 289.62L532.13 293.84C531.13 299.7 530.39 304.62 530.13 308.06C529.921 311.882 530.069 315.715 530.57 319.51V319.51L527.67 357.32L505.12 319.61C505.12 319.61 501.35 313.77 494.66 313.77H431.88C417.99 313.77 412.5 318.92 408.21 322.69C405.57 325.12 396.43 334.45 390.16 340.93Z" fill="#6D6FAF"/>
<path fill-rule="evenodd" clip-rule="evenodd" d="M465.11 293.83L470.44 295.51L476.19 294.39L494.14 313.79H483.57L465.09 293.79L465.11 293.83ZM486.57 292.4L529.17 338.51L529.97 327.98L495.5 290.72L486.5 292.44L486.57 292.4ZM528.25 350.65L527.74 357.35L515.49 336.86L528.25 350.65Z" fill="#9C9DCC"/>
<path fill-rule="evenodd" clip-rule="evenodd" d="M490.57 171.31L505.65 177.63C504.756 181.105 503.454 184.462 501.77 187.63C496.536 197.445 487.654 204.811 477.04 208.14C471.392 209.936 465.496 210.827 459.57 210.78C444.05 210.78 429.5 205.36 420.26 192.4C417.108 187.932 414.797 182.927 413.44 177.63L428.52 171.31L459.57 183.1L490.57 171.31Z" fill="#484D9B"/>
<path fill-rule="evenodd" clip-rule="evenodd" d="M490.57 171.31L500.79 175.59C500.01 178.935 498.8 182.166 497.19 185.2C492.581 193.824 484.765 200.29 475.43 203.2C470.287 204.817 464.921 205.613 459.53 205.56C445.69 205.56 432.68 200.91 424.45 189.35C421.523 185.192 419.422 180.51 418.26 175.56L428.48 171.28L459.57 183.1L490.57 171.31Z" fill="white"/>
<path fill-rule="evenodd" clip-rule="evenodd" d="M484.431 151.24V163.24C484.431 167.41 488.431 169.88 492.001 171.24C492.001 171.24 489.681 194.71 461.001 194.71C456.748 194.765 452.513 194.151 448.451 192.89C443.659 191.383 439.385 188.562 436.117 184.747C432.848 180.932 430.715 176.277 429.961 171.31C433.511 169.92 437.531 167.45 437.531 163.31V151.31L484.431 151.24Z" fill="#E9BAA8"/>
<path fill-rule="evenodd" clip-rule="evenodd" d="M484.431 151.24V163.24C484.431 167.41 488.431 169.88 492.001 171.24C491.451 174.958 490.126 178.518 488.111 181.69L436.771 166.09C437.244 165.204 437.491 164.215 437.491 163.21V154.78L466.141 151.17L484.431 151.24Z" fill="#D58881"/>
<path fill-rule="evenodd" clip-rule="evenodd" d="M515.271 111.33C515.496 114.811 514.332 118.239 512.034 120.863C509.736 123.488 506.491 125.094 503.011 125.33H502.401C503.534 120.753 504.032 116.043 503.881 111.33L503.721 107.33C503.371 99.09 514.451 99.18 515.271 111.33Z" fill="#D58881"/>
<path fill-rule="evenodd" clip-rule="evenodd" d="M405.871 115.88C405.923 119.379 407.364 122.714 409.874 125.152C412.385 127.59 415.762 128.931 419.261 128.88C419.471 128.88 419.671 128.88 419.871 128.88C418.362 124.406 417.474 119.746 417.231 115.03L417.061 111.03C416.721 102.7 405.691 103.71 405.871 115.88Z" fill="#D58881"/>
<path fill-rule="evenodd" clip-rule="evenodd" d="M457.391 37.18C481.221 36.18 501.561 55.52 502.581 80.18L504.281 120.9C505.281 145.53 486.651 166.49 462.821 167.49C438.991 168.49 418.651 149.14 417.621 124.49L415.961 83.76C414.901 59.13 433.561 38.17 457.391 37.18Z" fill="#E9BAA8"/>
<path fill-rule="evenodd" clip-rule="evenodd" d="M469.541 38.51C470.091 38.65 470.641 38.8 471.181 38.96C475.011 42.34 488.431 54.51 500.271 67.51C501.632 71.5799 502.409 75.822 502.581 80.11L503.641 105.52C479.071 104.1 470.021 86.47 458.761 75.52C446.241 63.35 435.341 69.81 435.341 69.81L469.541 38.51Z" fill="#D58881"/>
<path fill-rule="evenodd" clip-rule="evenodd" d="M436.671 128.81C437.91 128.853 439.108 129.262 440.114 129.987C441.12 130.712 441.889 131.719 442.322 132.881C442.754 134.042 442.833 135.307 442.546 136.513C442.26 137.719 441.621 138.813 440.712 139.656C439.803 140.499 438.664 141.054 437.44 141.248C436.215 141.443 434.96 141.27 433.834 140.751C432.709 140.232 431.762 139.39 431.115 138.333C430.468 137.275 430.15 136.049 430.201 134.81C430.271 133.159 430.99 131.603 432.202 130.479C433.413 129.356 435.019 128.756 436.671 128.81V128.81Z" fill="#D58881"/>
<path fill-rule="evenodd" clip-rule="evenodd" d="M488.431 130.63C489.67 130.673 490.868 131.082 491.875 131.807C492.881 132.532 493.649 133.539 494.082 134.701C494.515 135.862 494.593 137.127 494.306 138.333C494.02 139.539 493.381 140.633 492.472 141.476C491.563 142.319 490.424 142.874 489.2 143.068C487.975 143.263 486.72 143.09 485.595 142.571C484.469 142.052 483.522 141.21 482.875 140.153C482.228 139.095 481.91 137.869 481.961 136.63C482.031 134.979 482.75 133.423 483.962 132.299C485.173 131.176 486.779 130.576 488.431 130.63V130.63Z" fill="#D58881"/>
<path fill-rule="evenodd" clip-rule="evenodd" d="M465.531 124.51C464.651 126.89 463.111 131.19 463.221 131.87C463.391 132.87 468.381 133.15 469.711 131.72C470.601 130.77 469.581 127.17 468.711 124.77C467.431 121.45 466.711 121.27 465.531 124.51Z" fill="#F1D3C8"/>
<path fill-rule="evenodd" clip-rule="evenodd" d="M477.901 97.41C477.673 97.5085 477.467 97.6509 477.294 97.8291C477.121 98.0073 476.985 98.2178 476.894 98.4485C476.802 98.6793 476.757 98.9258 476.761 99.174C476.765 99.4222 476.817 99.6672 476.916 99.895C477.014 100.123 477.157 100.329 477.335 100.502C477.513 100.675 477.724 100.811 477.954 100.902C478.185 100.994 478.432 101.039 478.68 101.035C478.928 101.031 479.173 100.979 479.401 100.88C479.401 100.88 485.161 98.27 490.551 101.78C490.972 102.023 491.47 102.095 491.943 101.981C492.415 101.868 492.826 101.578 493.092 101.17C493.357 100.763 493.456 100.269 493.368 99.7913C493.281 99.3133 493.013 98.8869 492.621 98.6C485.511 93.96 477.961 97.41 477.901 97.41Z" fill="#1E1A49"/>
<path fill-rule="evenodd" clip-rule="evenodd" d="M433.261 97.51C433.03 97.6198 432.824 97.7754 432.655 97.9672C432.486 98.159 432.358 98.3831 432.278 98.6259C432.198 98.8687 432.168 99.1252 432.19 99.3799C432.212 99.6346 432.286 99.8821 432.406 100.108C432.527 100.333 432.692 100.532 432.891 100.691C433.091 100.851 433.32 100.969 433.567 101.037C433.813 101.106 434.071 101.124 434.324 101.09C434.577 101.056 434.821 100.971 435.041 100.84C435.041 100.84 440.571 97.77 446.231 100.84C446.67 101.046 447.172 101.076 447.634 100.924C448.095 100.772 448.48 100.449 448.711 100.021C448.941 99.5938 448.999 99.0943 448.873 98.6254C448.746 98.1565 448.445 97.7538 448.031 97.5C440.561 93.51 433.281 97.51 433.261 97.51Z" fill="#1E1A49"/>
<path fill-rule="evenodd" clip-rule="evenodd" d="M411.021 105.84C411.021 105.84 416.841 105.73 417.021 110.95C419.362 107.322 420.337 102.98 419.771 98.7C419.771 98.7 430.341 85.28 429.231 70.82C428.121 56.36 416.731 53.75 416.731 53.75C390.031 62.76 409.961 81.13 411.021 105.84Z" fill="#1E1A49"/>
<path fill-rule="evenodd" clip-rule="evenodd" d="M509.311 101.74C509.311 101.74 503.501 102.12 503.721 107.34C501.08 103.914 499.744 99.6606 499.951 95.34C499.951 95.34 488.301 82.84 488.211 68.34C488.121 53.84 499.211 50.28 499.211 50.28C526.641 57.07 508.281 77.03 509.311 101.74Z" fill="#1E1A49"/>
<path fill-rule="evenodd" clip-rule="evenodd" d="M425.051 73.33C425.051 73.33 429.051 80.33 432.271 79.78C435.491 79.23 436.761 74.69 435.341 69.84C466.391 47.69 470.771 100.78 502.541 97.91C523.541 96.02 540.741 72.4 528.641 47.14C516.541 21.88 492.761 10.2 458.961 14.51C425.161 18.82 415.571 39.26 416.741 53.79C417.911 68.32 425.051 73.33 425.051 73.33Z" fill="#1E1A49"/>
<path fill-rule="evenodd" clip-rule="evenodd" d="M484.191 122.06C483.126 122.044 482.091 121.713 481.215 121.108C480.339 120.503 479.662 119.652 479.27 118.663C478.878 117.673 478.788 116.589 479.012 115.549C479.236 114.508 479.763 113.557 480.528 112.817C481.292 112.076 482.259 111.579 483.307 111.388C484.354 111.197 485.434 111.321 486.411 111.744C487.387 112.167 488.217 112.871 488.793 113.765C489.37 114.66 489.668 115.706 489.651 116.77C489.64 117.476 489.491 118.173 489.211 118.821C488.93 119.47 488.525 120.056 488.018 120.547C487.511 121.039 486.912 121.425 486.255 121.685C485.598 121.944 484.897 122.072 484.191 122.06Z" fill="#1E1A49"/>
<path fill-rule="evenodd" clip-rule="evenodd" d="M440.851 121.37C439.786 121.354 438.751 121.023 437.875 120.418C436.999 119.813 436.322 118.962 435.93 117.973C435.538 116.983 435.448 115.899 435.672 114.859C435.896 113.818 436.423 112.867 437.188 112.127C437.952 111.386 438.919 110.889 439.967 110.698C441.014 110.507 442.094 110.631 443.071 111.054C444.047 111.477 444.877 112.181 445.453 113.075C446.03 113.97 446.328 115.016 446.311 116.08C446.3 116.786 446.151 117.483 445.871 118.131C445.59 118.78 445.185 119.366 444.678 119.857C444.171 120.349 443.572 120.735 442.915 120.995C442.258 121.254 441.557 121.382 440.851 121.37V121.37Z" fill="#1E1A49"/>
<path fill-rule="evenodd" clip-rule="evenodd" d="M452.731 140.9C452.71 142.148 452.936 143.387 453.395 144.547C453.853 145.708 454.536 146.766 455.404 147.663C456.271 148.559 457.307 149.276 458.452 149.773C459.597 150.269 460.828 150.535 462.076 150.555C463.323 150.575 464.563 150.35 465.723 149.891C466.883 149.433 467.942 148.75 468.839 147.882C469.735 147.014 470.452 145.978 470.948 144.834C471.445 143.689 471.71 142.458 471.731 141.21C471.739 140.748 471.563 140.301 471.243 139.967C470.923 139.634 470.483 139.44 470.021 139.43L454.541 139.19C454.309 139.181 454.078 139.218 453.86 139.299C453.643 139.38 453.444 139.504 453.276 139.664C453.107 139.823 452.972 140.015 452.878 140.227C452.785 140.439 452.735 140.668 452.731 140.9V140.9Z" fill="white"/>
<path fill-rule="evenodd" clip-rule="evenodd" d="M370.43 195.65C370.43 195.65 388.88 238.99 384.76 281.87L381.76 289.13C381.101 289.69 380.337 290.114 379.514 290.379C378.69 290.643 377.822 290.742 376.96 290.67C373.87 290.5 340.63 274.07 334.4 269.33C334.4 269.33 331.94 266.48 332.62 264.08C333.3 261.68 352.4 222.13 355.78 214.16C359.16 206.19 367.25 197.01 370.43 195.65Z" fill="#9C9DCC"/>
<path d="M407.26 252.93H512.31V351.75H407.26V252.93Z" fill="#9C9DCC"/>
<path d="M403.9 248.81H508.96V347.63H403.9V248.81Z" fill="white"/>
<path d="M414.41 261.12H498.45V335.33H414.41V261.12Z" fill="#6FC1E2"/>
<path fill-rule="evenodd" clip-rule="evenodd" d="M414.42 290.68H416.08L416.14 288.5C416.155 288.335 416.233 288.181 416.358 288.072C416.482 287.962 416.644 287.904 416.81 287.91H425.05C425.219 287.904 425.384 287.965 425.509 288.079C425.634 288.193 425.71 288.351 425.72 288.52V293.64H429.07V291.29C429.069 291.209 429.085 291.128 429.118 291.054C429.151 290.98 429.199 290.914 429.26 290.86C429.39 290.74 429.563 290.675 429.74 290.68H432.74C432.906 290.674 433.069 290.734 433.192 290.846C433.315 290.958 433.39 291.114 433.4 291.28V311.94H436.4C436.577 311.937 436.749 312.001 436.88 312.12C436.941 312.172 436.989 312.236 437.022 312.309C437.055 312.381 437.071 312.46 437.07 312.54V316.85H439.57V315.74C439.58 315.572 439.656 315.415 439.782 315.302C439.907 315.19 440.072 315.132 440.24 315.14H441.67C441.821 315.134 441.969 315.18 442.09 315.271C442.21 315.363 442.295 315.493 442.33 315.64V295.28C442.331 295.147 442.377 295.018 442.461 294.915C442.544 294.812 442.66 294.739 442.79 294.71L443.51 294.48L443.65 294.42C443.65 294.26 443.65 293.97 443.65 293.85C443.65 293.21 443.65 292.58 443.65 291.94C443.665 291.779 443.741 291.63 443.861 291.522C443.982 291.415 444.138 291.357 444.3 291.36H445.41L445.57 279.51C445.573 279.429 445.591 279.348 445.625 279.274C445.658 279.2 445.706 279.133 445.766 279.077C445.825 279.022 445.895 278.978 445.971 278.949C446.047 278.921 446.129 278.907 446.21 278.91L447.37 278.86V274.32C447.38 274.154 447.455 273.998 447.578 273.886C447.702 273.774 447.864 273.714 448.03 273.72H448.57C448.589 273.367 448.589 273.013 448.57 272.66C448.57 271.44 448.49 270.21 448.46 268.99C448.46 268.907 448.478 268.824 448.513 268.749C448.547 268.673 448.597 268.605 448.66 268.55C448.787 268.43 448.956 268.366 449.13 268.37H459.02C459.188 268.362 459.353 268.42 459.478 268.532C459.604 268.645 459.68 268.802 459.69 268.97V273.68C460.012 273.696 460.321 273.815 460.57 274.02C460.661 274.068 460.737 274.14 460.79 274.228C460.843 274.316 460.871 274.417 460.87 274.52V278.89H462.09C462.254 278.887 462.412 278.948 462.532 279.06C462.651 279.172 462.722 279.326 462.73 279.49V291.29H463.94C464.103 291.29 464.26 291.352 464.379 291.463C464.498 291.575 464.57 291.727 464.58 291.89V294.36H465.18C465.348 294.352 465.513 294.41 465.638 294.522C465.764 294.635 465.84 294.792 465.85 294.96V335.22H414.28V290.68H414.42ZM470.96 335.33V305.1C470.96 304.84 470.96 304.57 470.96 304.31C470.951 304.173 470.974 304.035 471.028 303.908C471.082 303.781 471.165 303.669 471.27 303.58C471.469 303.449 471.702 303.38 471.94 303.38H472.06V300.96C472.061 300.877 472.079 300.796 472.113 300.72C472.147 300.644 472.195 300.577 472.256 300.52C472.317 300.464 472.389 300.421 472.467 300.394C472.545 300.366 472.627 300.355 472.71 300.36H473.81C473.863 299.986 473.883 299.608 473.87 299.23C473.87 297.99 473.81 296.75 473.8 295.5C473.777 295.076 473.793 294.651 473.85 294.23C473.861 294.071 473.914 293.918 474.004 293.786C474.093 293.654 474.216 293.549 474.36 293.48H474.41V293.36C474.466 293.013 474.486 292.661 474.47 292.31C474.45 291.96 474.45 291.61 474.47 291.26C474.497 291.102 474.581 290.959 474.707 290.86C474.832 290.76 474.99 290.71 475.15 290.72L480.07 290.79C480.184 290.792 480.297 290.821 480.397 290.875C480.498 290.929 480.585 291.006 480.65 291.1C480.65 290.24 480.65 289.39 480.65 288.54C480.668 288.379 480.745 288.231 480.868 288.125C480.99 288.019 481.148 287.964 481.31 287.97H486.59C486.759 287.962 486.925 288.02 487.052 288.132C487.179 288.244 487.257 288.401 487.27 288.57V293.39H487.37C487.666 293.461 487.943 293.598 488.18 293.79C488.254 293.842 488.315 293.91 488.356 293.991C488.398 294.071 488.42 294.16 488.42 294.25L488.5 300.4L489.56 300.48C489.708 300.487 489.849 300.544 489.96 300.643C490.071 300.741 490.145 300.874 490.17 301.02L490.48 303.45C490.592 303.482 490.7 303.529 490.8 303.59C490.935 303.682 491.046 303.804 491.126 303.946C491.206 304.088 491.252 304.247 491.26 304.41C491.264 304.443 491.264 304.477 491.26 304.51V335.38L470.96 335.33ZM495.63 335.33V330.9C495.631 330.818 495.649 330.737 495.683 330.663C495.718 330.589 495.768 330.523 495.83 330.47C495.96 330.35 496.133 330.285 496.31 330.29L498 330.35C498.166 330.348 498.327 330.409 498.45 330.52V335.33H495.63Z" fill="#5894AC"/>
<path fill-rule="evenodd" clip-rule="evenodd" d="M384.57 294.09C384.57 294.09 348.37 312.45 344.08 316.09C339.79 319.73 331.38 326.09 333.02 335.82C334.66 345.55 336.46 356.74 350.43 356.74C364.4 356.74 375.65 340.96 382.16 332.38C388.67 323.8 401.57 307.64 401.57 307.64L384.57 294.09Z" fill="#E9BAA8"/>
<path fill-rule="evenodd" clip-rule="evenodd" d="M387.77 325.11C392.54 318.99 397.84 312.31 400.25 309.29L382.92 293.29L378.8 303.58L387.77 325.11Z" fill="#D58881"/>
<path fill-rule="evenodd" clip-rule="evenodd" d="M420.57 303.27C420.57 303.91 420.12 305.58 418.95 305.72C417.78 305.86 413.29 305.72 413.29 305.72C413.29 305.72 403.05 311.09 401.58 311.18C400.11 311.27 395.19 310.87 395.19 310.87C395.19 310.87 392.44 311.56 391.56 310.87C390.68 310.18 385.76 310.95 382.13 308.1C378.5 305.25 369.88 303.1 371.5 301.41C377.88 294.68 378.5 289.67 380.66 286.04C382.82 282.41 388.4 279.18 392.03 278.2C395.66 277.22 401.83 276.2 404.53 275.74C407.23 275.28 408.06 275.54 408.89 276.74C409.72 277.94 420.37 288.82 420.37 288.82C420.37 288.82 420.61 289.7 419.54 289.9C419.3 289.9 403.99 286.66 401.96 286.5C395.96 287.88 398.66 288.13 398.96 290.25C399.18 291.87 403.72 294.07 406.22 296.25C406.22 296.25 410.83 296.1 412.01 296.16C413.19 296.22 419.21 299.4 420.57 303.27Z" fill="#E9BAA8"/>
<path fill-rule="evenodd" clip-rule="evenodd" d="M420.12 287.93L420.39 288.81C420.39 288.81 420.63 289.69 419.56 289.89C419.011 289.977 418.451 289.951 417.912 289.813C417.374 289.675 416.87 289.429 416.43 289.09C417.56 288.69 418.79 288.3 420.12 287.93V287.93ZM408.77 296.14C410.04 296.14 411.43 296.09 412.01 296.14C413.11 296.14 418.44 299.01 420.26 302.54C413.8 300.76 409.63 298.51 408.77 296.14Z" fill="#D58881"/>
<path d="M416.27 305.87C416.27 305.87 397.5 303.87 395.27 303.47C394.341 303.405 393.443 303.111 392.656 302.613C391.869 302.116 391.217 301.431 390.76 300.62C389.68 298.86 385.56 292.88 385.56 292.88" stroke="#D58881" stroke-width="0.71" stroke-linecap="round" stroke-linejoin="round"/>
<path d="M406.5 286.8C405.137 286.347 403.85 285.693 402.68 284.86" stroke="#D58881" stroke-width="0.71" stroke-linecap="round" stroke-linejoin="round"/>
<path d="M406.22 296.21L405.88 297.29" stroke="#D58881" stroke-width="0.71" stroke-linecap="round" stroke-linejoin="round"/>
<path d="M409.14 305.4L399.63 310.06" stroke="#D58881" stroke-width="0.71" stroke-linecap="round" stroke-linejoin="round"/>
<path d="M393.59 314.04L396.58 312.37" stroke="#D58881" stroke-width="0.71" stroke-linecap="round" stroke-linejoin="round"/>
<path d="M401.27 304.22C401.27 304.22 391.47 305.43 390.14 305.58C388.713 305.601 387.308 305.227 386.08 304.5C385.358 303.876 384.713 303.168 384.16 302.39" stroke="#D58881" stroke-width="0.71" stroke-linecap="round" stroke-linejoin="round"/>
<path d="M372.32 300.39L346.72 315.74" stroke="#D58881" stroke-width="0.71" stroke-linecap="round" stroke-linejoin="round"/>
<path fill-rule="evenodd" clip-rule="evenodd" d="M575.04 267.51C575.04 267.51 586.68 314.19 586.87 322.91C587.06 331.63 586.02 351.04 574.87 355.16C563.72 359.28 550.17 345.72 547.08 335.09C543.99 324.46 537.13 277.09 537.13 277.09L575.04 267.51Z" fill="#E9BAA8"/>
<path fill-rule="evenodd" clip-rule="evenodd" d="M540.57 299.83C538.63 287.61 537.11 277.11 537.11 277.11L573.94 267.78L575.26 274.98L547.86 301.67L540.57 299.83Z" fill="#D58881"/>
<path fill-rule="evenodd" clip-rule="evenodd" d="M548.7 195.65C548.7 195.65 530.26 238.99 534.37 281.87L537.37 289.13C538.028 289.691 538.792 290.117 539.616 290.381C540.44 290.645 541.308 290.744 542.17 290.67C545.26 290.5 578.49 274.07 584.73 269.33C584.73 269.33 587.19 266.48 586.5 264.08C585.81 261.68 566.73 222.13 563.34 214.16C559.95 206.19 551.88 197.01 548.7 195.65Z" fill="#9C9DCC"/>
<path fill-rule="evenodd" clip-rule="evenodd" d="M534.57 294.09C534.57 294.09 570.76 312.45 575.05 316.09C579.34 319.73 587.76 326.09 586.12 335.82C584.48 345.55 582.67 356.74 568.7 356.74C554.73 356.74 543.49 340.96 536.97 332.38C530.45 323.8 517.57 307.64 517.57 307.64L534.57 294.09Z" fill="#E9BAA8"/>
<path fill-rule="evenodd" clip-rule="evenodd" d="M531.37 325.11C526.6 318.99 521.29 312.31 518.89 309.29L536.22 293.29L540.33 303.58L531.37 325.11Z" fill="#D58881"/>
<path fill-rule="evenodd" clip-rule="evenodd" d="M498.57 303.27C498.57 303.91 499.01 305.58 500.19 305.72C501.083 305.817 501.981 305.867 502.88 305.87C506.77 309.46 518.61 318.31 523.75 313.87C524.3 313.4 523.94 312.87 524.89 312.53C528.68 311.05 534.61 309.96 537.01 308.08C538.477 306.907 539.662 305.419 540.476 303.726C541.289 302.033 541.711 300.178 541.71 298.3C541.63 297.3 539.71 295.14 538.25 292.77C536.38 289.72 534.8 286.26 533.59 284.22C531.43 280.59 530.73 279.16 527.1 278.22C523.47 277.28 510.48 274.45 507.79 273.95C505.1 273.45 504.26 273.76 503.42 274.95C502.58 276.14 498.76 288.83 498.76 288.83C498.76 288.83 498.52 289.71 499.6 289.91C500.162 290.003 500.738 289.972 501.287 289.82C501.836 289.668 502.345 289.398 502.78 289.03C502.78 289.03 505.43 289.13 506.41 288.19C507.39 287.25 510.48 284.71 510.48 284.71C510.48 284.71 514.11 289.22 517.54 290.55C517.375 290.823 517.314 291.147 517.369 291.461C517.424 291.776 517.592 292.059 517.84 292.26L512.93 296.26C512.93 296.26 508.32 296.11 507.15 296.17C505.98 296.23 499.92 299.4 498.57 303.27Z" fill="#E9BAA8"/>
<path fill-rule="evenodd" clip-rule="evenodd" d="M499.01 287.93L498.74 288.81C498.74 288.81 498.5 289.69 499.58 289.89C500.127 289.976 500.686 289.949 501.223 289.812C501.759 289.674 502.262 289.429 502.7 289.09C501.58 288.68 500.34 288.3 499.01 287.93V287.93ZM510.37 296.14C509.1 296.14 507.7 296.09 507.13 296.14C506.03 296.14 500.69 299.01 498.88 302.54C505.34 300.76 509.51 298.56 510.37 296.14Z" fill="#D58881"/>
<path d="M502.86 305.87C502.86 305.87 519.58 302.7 521.86 302.31C524.14 301.92 526.58 298.14 527.66 296.38" stroke="#D58881" stroke-width="0.71" stroke-linecap="round" stroke-linejoin="round"/>
<path d="M517.52 290.52L521.19 286.21" stroke="#D58881" stroke-width="0.71" stroke-linecap="round" stroke-linejoin="round"/>
<path d="M517.81 292.24L522.61 290.33" stroke="#D58881" stroke-width="0.71" stroke-linecap="round" stroke-linejoin="round"/>
<path d="M510.46 284.69C511.363 283.532 511.815 282.086 511.73 280.62" stroke="#D58881" stroke-width="0.71" stroke-linecap="round" stroke-linejoin="round"/>
<path d="M510.77 285.06C512.045 285.092 513.295 284.706 514.33 283.96" stroke="#D58881" stroke-width="0.71" stroke-linecap="round" stroke-linejoin="round"/>
<path d="M512.91 296.21L513.25 297.29" stroke="#D58881" stroke-width="0.71" stroke-linecap="round" stroke-linejoin="round"/>
<path d="M507.22 305.4L517.12 310.38" stroke="#D58881" stroke-width="0.71" stroke-linecap="round" stroke-linejoin="round"/>
<path d="M525.47 312.62L521.26 312.11" stroke="#D58881" stroke-width="0.71" stroke-linecap="round" stroke-linejoin="round"/>
<path d="M511.82 304.51C511.82 304.51 521.62 305.73 522.94 305.88C524.37 305.897 525.777 305.524 527.01 304.8C527.73 304.177 528.372 303.468 528.92 302.69" stroke="#D58881" stroke-width="0.71" stroke-linecap="round" stroke-linejoin="round"/>
<path d="M546.81 300.39L572.4 315.74" stroke="#D58881" stroke-width="0.71" stroke-linecap="round" stroke-linejoin="round"/>
<path fill-rule="evenodd" clip-rule="evenodd" d="M415.92 284.29C416.29 285.5 419.36 288.04 419.36 288.04C421.68 291.04 414.31 291.21 413.07 290.78C409.22 289.44 404.89 285.35 409.5 284.29H415.92Z" fill="#E9BAA8"/>
<path fill-rule="evenodd" clip-rule="evenodd" d="M499.36 286.8C498.98 288.01 498.74 288.8 498.74 288.8C498.74 288.8 498.5 289.68 499.58 289.88C500.142 289.973 500.718 289.942 501.267 289.79C501.816 289.638 502.325 289.368 502.76 289C502.76 289 505.41 289.1 506.39 288.16L507.13 287.5V286.79L499.36 286.8Z" fill="#E9BAA8"/>
<path fill-rule="evenodd" clip-rule="evenodd" d="M526.994 43.9C518.844 48.3 508.144 50.2 494.234 46.44C471.194 40.2 451.454 28.51 433.314 23C430.617 24.7123 428.135 26.7436 425.924 29.05C432.513 31.7941 438.597 35.6201 443.924 40.37C467.614 60.84 500.754 85.37 530.634 75.57C533.634 67.23 533.504 57.32 528.634 47.14C528.134 46.0533 527.588 44.9733 526.994 43.9Z" fill="#2E2D6B"/>
<path d="M534.37 281.87C534.37 281.87 532.05 231.51 545.29 204.82" stroke="#6D6FAF" stroke-width="0.71" stroke-linecap="round" stroke-linejoin="round"/>
<path d="M384.76 281.87C384.76 281.87 385.61 234.87 374.29 206.15" stroke="#6D6FAF" stroke-width="0.71" stroke-linecap="round" stroke-linejoin="round"/>
<path fill-rule="evenodd" clip-rule="evenodd" d="M196.81 397.51C196.81 397.51 134.57 403.27 132.97 403.22C131.37 403.17 127.9 413.85 128.8 420.28V420.4H264.87V420.28C265.77 413.85 262.29 403.17 260.69 403.22C259.09 403.27 196.81 397.51 196.81 397.51Z" fill="#1E1A49"/>
<path fill-rule="evenodd" clip-rule="evenodd" d="M580.78 402.24H73.51C70.4916 402.248 67.5991 403.45 65.4648 405.585C63.3305 407.719 62.1279 410.612 62.12 413.63V413.63C62.1279 416.648 63.3305 419.541 65.4648 421.675C67.5991 423.81 70.4916 425.012 73.51 425.02H580.78C583.798 425.009 586.689 423.806 588.822 421.672C590.956 419.539 592.159 416.648 592.17 413.63V413.63C592.162 410.612 590.96 407.719 588.825 405.585C586.691 403.45 583.798 402.248 580.78 402.24V402.24Z" fill="#A27251"/>
<path fill-rule="evenodd" clip-rule="evenodd" d="M602.49 385.51H51.8C45.39 385.51 40.14 391.83 40.14 399.56C40.14 407.28 45.39 413.61 51.8 413.61H602.49C608.9 413.61 614.14 407.28 614.14 399.56C614.14 391.85 608.9 385.51 602.49 385.51Z" fill="#BE865E"/>
<path fill-rule="evenodd" clip-rule="evenodd" d="M583.96 392.09H332.29C329.39 392.09 327.02 394.95 327.02 398.44C327.02 401.94 329.39 404.79 332.29 404.79H583.96C586.86 404.79 589.23 401.94 589.23 398.44C589.23 394.95 586.86 392.09 583.96 392.09Z" fill="#6A4D38"/>
<path fill-rule="evenodd" clip-rule="evenodd" d="M124.17 327.77C120.546 327.774 117.035 329.035 114.235 331.338C111.436 333.64 109.521 336.841 108.818 340.397C108.114 343.952 108.664 347.642 110.375 350.837C112.086 354.032 114.852 356.536 118.201 357.921C121.551 359.306 125.277 359.487 128.745 358.433C132.213 357.38 135.208 355.156 137.221 352.142C139.234 349.128 140.139 345.509 139.784 341.902C139.428 338.295 137.833 334.923 135.27 332.36C133.813 330.903 132.082 329.747 130.177 328.959C128.273 328.172 126.231 327.767 124.17 327.77V327.77ZM117.04 336.33C118.701 334.69 120.878 333.677 123.202 333.462C125.526 333.247 127.852 333.845 129.785 335.153C131.718 336.461 133.137 338.399 133.802 340.636C134.467 342.873 134.335 345.271 133.43 347.422C132.525 349.574 130.902 351.344 128.838 352.433C126.774 353.522 124.396 353.862 122.11 353.395C119.823 352.928 117.769 351.682 116.298 349.871C114.827 348.059 114.029 345.794 114.04 343.46C114.044 342.132 114.312 340.819 114.827 339.595C115.341 338.371 116.094 337.261 117.04 336.33V336.33Z" fill="white"/>
<path fill-rule="evenodd" clip-rule="evenodd" d="M145.15 385.51H128.15C123.71 385.51 123.15 382.07 123.15 379.24C123.15 376.41 125.56 375.57 125.56 371.11V312.08C125.565 311 125.997 309.965 126.761 309.201C127.525 308.437 128.56 308.005 129.64 308H160.72C161.8 308.005 162.835 308.437 163.599 309.201C164.363 309.965 164.795 311 164.8 312.08V371.13C164.8 375.59 167.21 376.43 167.21 379.26C167.21 382.09 166.63 385.53 162.21 385.53L145.15 385.51Z" fill="white"/>
<path d="M158.13 343.51H132.2C131.272 343.51 130.382 343.879 129.725 344.535C129.069 345.192 128.7 346.082 128.7 347.01V373.76C128.7 374.686 129.068 375.573 129.722 376.228C130.377 376.882 131.264 377.25 132.19 377.25H158.13C159.056 377.25 159.943 376.882 160.598 376.228C161.252 375.573 161.62 374.686 161.62 373.76V347C161.62 346.074 161.252 345.187 160.598 344.532C159.943 343.878 159.056 343.51 158.13 343.51Z" fill="#E3F1F5"/>
<path fill-rule="evenodd" clip-rule="evenodd" d="M140.8 343.51V367.07C140.803 367.996 141.171 368.883 141.825 369.538C142.478 370.194 143.364 370.565 144.29 370.57H161.57V373.76C161.565 374.686 161.194 375.572 160.538 376.226C159.883 376.879 158.996 377.247 158.07 377.25H132.15C131.223 377.25 130.335 376.883 129.679 376.228C129.023 375.574 128.653 374.687 128.65 373.76V347.01C128.653 346.083 129.022 345.194 129.678 344.538C130.334 343.882 131.223 343.513 132.15 343.51H140.8ZM144.42 355.79C144.051 355.788 143.69 355.896 143.383 356.099C143.075 356.303 142.836 356.593 142.694 356.934C142.552 357.274 142.514 357.649 142.585 358.01C142.657 358.372 142.834 358.704 143.095 358.965C143.356 359.226 143.688 359.403 144.05 359.475C144.411 359.546 144.786 359.509 145.126 359.366C145.467 359.224 145.757 358.985 145.961 358.677C146.164 358.37 146.272 358.009 146.27 357.64C146.27 357.149 146.075 356.679 145.728 356.332C145.381 355.985 144.911 355.79 144.42 355.79ZM147.57 361.26C146.836 361.26 146.118 361.478 145.508 361.886C144.897 362.294 144.422 362.874 144.141 363.553C143.861 364.231 143.788 364.978 143.932 365.697C144.076 366.417 144.43 367.078 144.95 367.597C145.47 368.115 146.132 368.468 146.852 368.61C147.573 368.752 148.319 368.677 148.997 368.395C149.674 368.112 150.253 367.635 150.66 367.024C151.066 366.412 151.282 365.694 151.28 364.96C151.28 364.473 151.184 363.991 150.997 363.542C150.811 363.092 150.537 362.684 150.193 362.34C149.848 361.996 149.439 361.724 148.989 361.539C148.539 361.353 148.057 361.259 147.57 361.26V361.26ZM154.03 362.07C153.771 362.072 153.519 362.15 153.305 362.296C153.091 362.441 152.925 362.646 152.827 362.886C152.729 363.125 152.705 363.388 152.756 363.642C152.808 363.895 152.934 364.128 153.117 364.31C153.301 364.492 153.534 364.616 153.788 364.666C154.042 364.715 154.305 364.689 154.544 364.589C154.782 364.49 154.986 364.322 155.13 364.107C155.273 363.892 155.35 363.639 155.35 363.38C155.35 363.208 155.316 363.038 155.25 362.879C155.184 362.72 155.088 362.575 154.966 362.454C154.845 362.332 154.7 362.236 154.541 362.17C154.382 362.104 154.212 362.07 154.04 362.07H154.03Z" fill="#C1DEE7"/>
<path fill-rule="evenodd" clip-rule="evenodd" d="M390.77 385.51H300.1C298.235 385.391 296.447 384.725 294.959 383.596C293.47 382.466 292.347 380.924 291.73 379.16L289 370.62C287.88 367.12 289.82 364.27 293.32 364.27H397.57C401.06 364.27 403.01 367.13 401.89 370.62L399.16 379.16C398.542 380.927 397.416 382.472 395.923 383.601C394.431 384.731 392.638 385.395 390.77 385.51Z" fill="#3D2258"/>
<path fill-rule="evenodd" clip-rule="evenodd" d="M371.57 382.84H303.8C302.407 382.751 301.071 382.254 299.958 381.411C298.844 380.568 298.004 379.417 297.54 378.1L295.54 371.71C294.71 369.11 296.16 366.97 298.77 366.97H376.67C379.28 366.97 380.73 369.11 379.9 371.71L377.9 378.1C377.432 379.427 376.58 380.586 375.454 381.43C374.327 382.273 372.975 382.764 371.57 382.84V382.84Z" fill="#6D4D6F"/>
<path fill-rule="evenodd" clip-rule="evenodd" d="M479.9 385.51H414.4C413.56 385.456 412.755 385.155 412.085 384.647C411.415 384.138 410.909 383.444 410.63 382.65L409.4 378.81C409.248 378.494 409.182 378.143 409.209 377.794C409.235 377.444 409.353 377.108 409.551 376.818C409.748 376.528 410.018 376.296 410.334 376.143C410.65 375.991 411 375.924 411.35 375.95H482.95C483.299 375.926 483.648 375.994 483.962 376.147C484.277 376.3 484.545 376.533 484.742 376.823C484.938 377.112 485.055 377.448 485.081 377.797C485.107 378.145 485.041 378.495 484.89 378.81L483.66 382.65C483.383 383.443 482.879 384.137 482.21 384.646C481.542 385.154 480.738 385.455 479.9 385.51Z" fill="#3D2258"/>
<path fill-rule="evenodd" clip-rule="evenodd" d="M454.99 383.71H414.43C413.911 383.675 413.414 383.489 413 383.174C412.586 382.86 412.273 382.431 412.1 381.94L411.34 379.56C411.25 379.365 411.213 379.149 411.23 378.935C411.248 378.721 411.321 378.515 411.441 378.337C411.562 378.159 411.726 378.015 411.919 377.919C412.111 377.824 412.325 377.779 412.54 377.79H456.88C457.096 377.777 457.311 377.82 457.505 377.915C457.698 378.01 457.864 378.154 457.986 378.332C458.108 378.511 458.182 378.717 458.2 378.933C458.218 379.148 458.18 379.364 458.09 379.56L457.33 381.94C457.157 382.432 456.842 382.862 456.426 383.177C456.01 383.492 455.511 383.677 454.99 383.71V383.71Z" fill="#6D4D6F"/>
<path fill-rule="evenodd" clip-rule="evenodd" d="M238.31 385.51H209.74C204.12 385.51 198.06 380.91 196.27 375.3L191.88 361.56C190.08 355.95 193.21 351.36 198.82 351.36H249.22C254.83 351.36 257.96 355.95 256.16 361.56L251.78 375.3C249.98 380.93 243.92 385.51 238.31 385.51Z" fill="#3D2258"/>
<path fill-rule="evenodd" clip-rule="evenodd" d="M230.67 380.33H210.51C206.51 380.33 202.27 377.09 201.01 373.12L197.91 363.44C196.65 359.44 198.85 356.23 202.81 356.23H238.37C242.37 356.23 244.53 359.48 243.27 363.44L240.17 373.12C238.91 377.09 234.63 380.33 230.67 380.33Z" fill="#6D4D6F"/>
<path fill-rule="evenodd" clip-rule="evenodd" d="M534.23 325.37C530.449 325.37 526.786 326.682 523.864 329.081C520.942 331.48 518.942 334.817 518.205 338.526C517.468 342.234 518.04 346.083 519.823 349.416C521.606 352.75 524.49 355.362 527.983 356.808C531.477 358.254 535.363 358.443 538.981 357.345C542.598 356.246 545.723 353.927 547.822 350.782C549.921 347.638 550.865 343.863 550.492 340.101C550.12 336.339 548.455 332.822 545.78 330.15C544.266 328.63 542.465 327.425 540.483 326.605C538.501 325.785 536.375 325.365 534.23 325.37ZM526.8 334.28C528.518 332.558 530.78 331.486 533.2 331.245C535.62 331.004 538.049 331.61 540.072 332.96C542.096 334.31 543.588 336.32 544.296 338.647C545.003 340.974 544.881 343.474 543.952 345.722C543.022 347.969 541.341 349.824 539.196 350.971C537.052 352.118 534.575 352.486 532.19 352.011C529.805 351.537 527.657 350.25 526.115 348.37C524.572 346.489 523.729 344.132 523.73 341.7C523.729 340.322 523.999 338.957 524.526 337.684C525.053 336.411 525.826 335.254 526.8 334.28V334.28Z" fill="white"/>
<path fill-rule="evenodd" clip-rule="evenodd" d="M556.08 385.51H538.33C533.71 385.51 533.1 381.93 533.1 378.98C533.1 376.03 535.57 375.17 535.57 370.51V309.01C535.573 307.883 536.021 306.802 536.817 306.004C537.613 305.206 538.693 304.755 539.82 304.75H572.29C573.417 304.755 574.497 305.206 575.293 306.004C576.089 306.802 576.537 307.883 576.54 309.01V370.51C576.54 375.15 579.05 376.03 579.05 378.98C579.05 381.93 578.45 385.51 573.82 385.51H556.08Z" fill="white"/>
<path d="M542.57 320.79H569.58C571.59 320.79 573.22 322.42 573.22 324.43V373.27C573.22 375.28 571.59 376.91 569.58 376.91H542.57C540.56 376.91 538.93 375.28 538.93 373.27V324.43C538.93 322.42 540.56 320.79 542.57 320.79Z" fill="#E3F1F5"/>
<path fill-rule="evenodd" clip-rule="evenodd" d="M551.57 320.79V366.3C551.573 367.265 551.957 368.189 552.639 368.871C553.321 369.553 554.245 369.937 555.21 369.94H573.21V373.27C573.207 374.235 572.823 375.159 572.141 375.841C571.459 376.523 570.535 376.907 569.57 376.91H542.57C541.605 376.907 540.681 376.523 539.999 375.841C539.317 375.159 538.933 374.235 538.93 373.27V324.43C538.93 323.465 539.314 322.539 539.996 321.856C540.679 321.174 541.605 320.79 542.57 320.79H551.57ZM555.32 354.51C554.938 354.51 554.565 354.623 554.248 354.835C553.93 355.047 553.683 355.349 553.537 355.701C553.391 356.054 553.353 356.442 553.427 356.817C553.502 357.191 553.685 357.535 553.955 357.805C554.225 358.075 554.569 358.258 554.943 358.333C555.318 358.407 555.706 358.369 556.059 358.223C556.411 358.077 556.713 357.83 556.925 357.512C557.137 357.195 557.25 356.822 557.25 356.44C557.25 355.928 557.047 355.437 556.685 355.075C556.323 354.713 555.832 354.51 555.32 354.51V354.51ZM558.61 360.21C557.847 360.21 557.1 360.436 556.466 360.861C555.831 361.285 555.336 361.888 555.044 362.593C554.752 363.298 554.675 364.074 554.824 364.823C554.973 365.572 555.341 366.26 555.881 366.799C556.42 367.339 557.108 367.707 557.857 367.856C558.606 368.005 559.382 367.928 560.087 367.636C560.792 367.344 561.395 366.849 561.819 366.215C562.244 365.58 562.47 364.833 562.47 364.07C562.47 363.563 562.37 363.061 562.176 362.593C561.982 362.125 561.698 361.699 561.339 361.341C560.981 360.982 560.555 360.698 560.087 360.504C559.619 360.31 559.117 360.21 558.61 360.21V360.21ZM554.19 342.08C553.922 342.082 553.661 342.163 553.438 342.312C553.216 342.461 553.042 342.673 552.938 342.92C552.834 343.167 552.805 343.439 552.855 343.702C552.904 343.965 553.029 344.209 553.216 344.401C553.402 344.594 553.64 344.728 553.901 344.787C554.163 344.845 554.436 344.826 554.686 344.731C554.937 344.636 555.154 344.47 555.311 344.253C555.468 344.036 555.558 343.778 555.57 343.51C555.567 343.149 555.424 342.804 555.169 342.548C554.915 342.292 554.571 342.145 554.21 342.14L554.19 342.08ZM565.34 361.08C565.069 361.08 564.804 361.16 564.579 361.311C564.354 361.461 564.178 361.675 564.074 361.926C563.971 362.176 563.943 362.452 563.996 362.717C564.049 362.983 564.18 363.227 564.371 363.419C564.563 363.61 564.807 363.741 565.073 363.794C565.339 363.847 565.614 363.819 565.864 363.716C566.115 363.612 566.329 363.436 566.479 363.211C566.63 362.986 566.71 362.721 566.71 362.45C566.711 362.27 566.677 362.091 566.608 361.924C566.54 361.757 566.439 361.606 566.312 361.478C566.184 361.351 566.033 361.25 565.866 361.182C565.699 361.113 565.52 361.079 565.34 361.08ZM555.88 335.57C555.339 335.562 554.808 335.715 554.354 336.01C553.9 336.305 553.544 336.727 553.33 337.225C553.117 337.722 553.057 338.272 553.157 338.804C553.257 339.336 553.513 339.826 553.892 340.212C554.271 340.598 554.756 340.863 555.286 340.973C555.816 341.083 556.367 341.033 556.868 340.829C557.37 340.625 557.799 340.276 558.102 339.828C558.405 339.38 558.568 338.851 558.57 338.31C558.568 337.594 558.285 336.907 557.782 336.396C557.279 335.886 556.596 335.593 555.88 335.58V335.57Z" fill="#C1DEE7"/>
</g>
<defs>
<clipPath id="clip0">
<rect width="681.13" height="425.02" fill="white" transform="matrix(-1 0 0 1 681.13 0)"/>
</clipPath>
</defs>
</svg>
