<svg xmlns="http://www.w3.org/2000/svg" xmlns:xlink="http://www.w3.org/1999/xlink" viewBox="0 0 74.6 73.48"><defs><style>.cls-1{fill:none;}.cls-2{isolation:isolate;}.cls-3{fill:url(#Ѕезым_нный_градиент_79);}.cls-4{fill:#ffbbfa;}.cls-5{fill:url(#Ѕезым_нный_градиент_82);}.cls-6{opacity:0.3;fill:url(#Ѕезым_нный_градиент_82-2);}.cls-16,.cls-17,.cls-18,.cls-19,.cls-20,.cls-21,.cls-6{mix-blend-mode:screen;}.cls-7{fill:#7717c1;}.cls-8{fill:#8821d8;}.cls-15,.cls-9{fill:#6014a3;}.cls-10{fill:url(#Ѕезым_нный_градиент_72);}.cls-11{fill:#393735;}.cls-12{clip-path:url(#clip-path);}.cls-13{fill:url(#Ѕезым_нный_градиент_71);}.cls-14{fill:#551493;}.cls-15{opacity:0.6;}.cls-16{fill:url(#Безымянный_градиент_3);}.cls-17{fill:url(#Ѕезым_нный_градиент_87);}.cls-18{fill:url(#Ѕезым_нный_градиент_87-2);}.cls-19{fill:url(#Ѕезым_нный_градиент_87-3);}.cls-20{fill:url(#Безымянный_градиент_3-2);}.cls-21{fill:url(#Безымянный_градиент_3-3);}</style><linearGradient id="Ѕезым_нный_градиент_79" x1="13.9" y1="35.34" x2="19.69" y2="45.38" gradientUnits="userSpaceOnUse"><stop offset="0" stop-color="#e09df1"/><stop offset="0.46" stop-color="#f0adf6"/><stop offset="1" stop-color="#ffbbfa"/></linearGradient><linearGradient id="Ѕезым_нный_градиент_82" x1="19.55" y1="21.81" x2="6" y2="45.28" gradientUnits="userSpaceOnUse"><stop offset="0" stop-color="#9d53d8"/><stop offset="1" stop-color="#cb89f0"/></linearGradient><linearGradient id="Ѕезым_нный_градиент_82-2" x1="15.23" y1="21.7" x2="7.59" y2="48.51" xlink:href="#Ѕезым_нный_градиент_82"/><linearGradient id="Ѕезым_нный_градиент_72" x1="39.27" y1="12.45" x2="27.43" y2="32.95" gradientUnits="userSpaceOnUse"><stop offset="0" stop-color="#ffdefa"/><stop offset="0.52" stop-color="#ffbbfa"/><stop offset="0.78" stop-color="#f0adf6"/><stop offset="1" stop-color="#e09df1"/></linearGradient><clipPath id="clip-path"><ellipse class="cls-1" cx="50.26" cy="34.14" rx="23.75" ry="13.76" transform="translate(-4.36 60.75) rotate(-60.16)"/></clipPath><linearGradient id="Ѕезым_нный_градиент_71" x1="57.73" y1="11.98" x2="34.8" y2="51.69" gradientUnits="userSpaceOnUse"><stop offset="0" stop-color="#e09df1"/><stop offset="0.22" stop-color="#f0adf6"/><stop offset="0.48" stop-color="#ffbbfa"/><stop offset="1" stop-color="#ffdefa"/></linearGradient><radialGradient id="Безымянный_градиент_3" cx="40.82" cy="51.13" r="22.35" gradientTransform="translate(12.76 -7.97) rotate(13.2)" gradientUnits="userSpaceOnUse"><stop offset="0" stop-color="#ffec3d"/><stop offset="0.22" stop-color="#e53dff"/><stop offset="0.26" stop-color="#c735de" stop-opacity="0.87"/><stop offset="0.34" stop-color="#9929ab" stop-opacity="0.67"/><stop offset="0.42" stop-color="#701e7d" stop-opacity="0.49"/><stop offset="0.51" stop-color="#4e1556" stop-opacity="0.34"/><stop offset="0.59" stop-color="#310d37" stop-opacity="0.22"/><stop offset="0.68" stop-color="#1c071f" stop-opacity="0.12"/><stop offset="0.78" stop-color="#0c030d" stop-opacity="0.05"/><stop offset="0.88" stop-color="#030103" stop-opacity="0.01"/><stop offset="1" stop-opacity="0"/></radialGradient><radialGradient id="Ѕезым_нный_градиент_87" cx="49.1" cy="27.41" r="5.61" gradientUnits="userSpaceOnUse"><stop offset="0" stop-color="#ffec3d"/><stop offset="0.22" stop-color="#e53dff"/><stop offset="0.26" stop-color="#c735de"/><stop offset="0.34" stop-color="#9929ab"/><stop offset="0.42" stop-color="#701e7d"/><stop offset="0.51" stop-color="#4e1556"/><stop offset="0.59" stop-color="#310d37"/><stop offset="0.68" stop-color="#1c071f"/><stop offset="0.78" stop-color="#0c030d"/><stop offset="0.88" stop-color="#030103"/><stop offset="1"/></radialGradient><radialGradient id="Ѕезым_нный_градиент_87-2" cx="52.32" cy="12.22" r="11.95" xlink:href="#Ѕезым_нный_градиент_87"/><radialGradient id="Ѕезым_нный_градиент_87-3" cx="20.75" cy="8.53" r="6.19" xlink:href="#Ѕезым_нный_градиент_87"/><radialGradient id="Безымянный_градиент_3-2" cx="55.04" cy="21.85" r="19.56" gradientTransform="translate(6.45 -11.99) rotate(13.2)" xlink:href="#Безымянный_градиент_3"/><radialGradient id="Безымянный_градиент_3-3" cx="21.36" cy="16.4" r="12.82" gradientTransform="translate(4.31 -4.45) rotate(13.2)" xlink:href="#Безымянный_градиент_3"/></defs><title>voicespeaker</title><g class="cls-2"><g id="_0" data-name="0"><g id="_6" data-name="6"><g class="cls-2"><path class="cls-3" d="M20.4,31.61l-5.25,3-1.71,8.71-.31,5.81,4-2.33a.49.49,0,0,0,.13-.12c.07,0,.15-.16.17-.41.84-9.64,2.1-13.34,3-14.75A.12.12,0,0,1,20.4,31.61Z"/><path class="cls-4" d="M20.41,24.69,16.4,27l-.79,7.37,4.79-2.78a.2.2,0,0,0,.09-.18V24.64Z"/><path class="cls-5" d="M9.43,23c-.07,0-.09.14-.09.28s0,3.65,0,4.64a15,15,0,0,1-.39,3.42c-.38,1.54-1.06,3-1.58,4.48A27.09,27.09,0,0,0,6,41s-.48,3-.13,3.81c.8,1.84,5.79,5.09,7.26,4.38a.42.42,0,0,0,.21-.36c.93-11.87,2.94-14.72,3.05-14.87V27Z"/><path class="cls-6" d="M9.84,24.65c0,.67,0,2.26,0,3.85a12.72,12.72,0,0,1-.84,5c-1.31,3.54-2.74,6.83-2.75,11.22-.08.21,1.41,1.66,3.22,2.71a6.26,6.26,0,0,0,2.68,1c.93-12,3-15,3-15,0-2.06,0-4.36,0-5.74Z"/></g><g class="cls-2"><path class="cls-7" d="M18.69,31.54A2.35,2.35,0,0,1,17.57,33l1.92-1.11a2.45,2.45,0,0,0,1.12-1.41Z"/><path class="cls-8" d="M19.49,27l-1.92,1.11a4.67,4.67,0,0,0,1.12,3.47l1.92-1.11A8,8,0,0,1,19.49,27Z"/><path class="cls-9" d="M17.57,28.07V33a2.35,2.35,0,0,0,1.12-1.41A7.31,7.31,0,0,1,17.57,28.07Z"/></g><path class="cls-7" d="M6.75,1.22A13.87,13.87,0,0,0,0,12.6,8.44,8.44,0,0,0,3.64,20L15.17,1.06A8.33,8.33,0,0,0,6.75,1.22Z"/><path class="cls-8" d="M15.17,1.06c-1.4-.82-3.33-.72-5.46.47C5.36,4,1.79,10,1.73,15c0,2.56.85,4.36,2.29,5.2l11.4,6.61L26.57,7.67Z"/><path class="cls-7" d="M20.88,26.37c4.35-2.42,7.92-8.46,8-13.5,0-3.41-1.54-5.49-3.92-5.71a6.63,6.63,0,0,0-3.83,1,13.8,13.8,0,0,0-3.68,3.09,19.49,19.49,0,0,0-1.91,2.66,16.16,16.16,0,0,0-2.39,7.75C13.07,26.68,16.54,28.79,20.88,26.37Z"/><path class="cls-10" d="M61.34,11.17c-3-1.72-7-1.67-11.4.49a19,19,0,0,1-3.06.83,28.41,28.41,0,0,1-7.62.34c-.54-.06-1.52-.17-2.62-.37s-1.77-.36-2.38-.53L34,11.85c-.69-.21-1.33-.41-2-.65l-.16-.06-.09,0a30.07,30.07,0,0,1-3.89-1.85L27,8.73c-1.3-.75-3.09-.67-5.07.44-4,2.24-7.34,7.85-7.39,12.52,0,2.37.78,4,2.12,4.82l.89.53a26.77,26.77,0,0,1,5.29,4,31.24,31.24,0,0,1,3.49,4.14A26.05,26.05,0,0,1,30.55,45c0-.14,0-.31,0-.45C30.51,44.09,60.79,11.35,61.34,11.17Z"/><ellipse class="cls-11" cx="48.55" cy="33.16" rx="25.44" ry="14.74" transform="matrix(0.5, -0.86, 0.86, 0.5, -4.52, 58.48)"/><g id="Axonometric_Cylinder" data-name="Axonometric Cylinder"><ellipse id="Cylinder_face" data-name="Cylinder face" class="cls-7" cx="50.22" cy="34.13" rx="25.5" ry="14.72" transform="translate(-4.44 60.55) rotate(-60)"/><path id="Cylinder_body" data-name="Cylinder body" class="cls-8" d="M63.09,12.11l-1.66-1c-3.27-2-7.83-1.71-12.87,1.2-10,5.75-18,19.73-18,31.23,0,5.68,2,9.69,5.17,11.61l1.65,1c-3.19-1.91-5.16-5.92-5.16-11.6,0-11.5,8.07-25.49,18-31.24C55.26,10.39,59.82,10.15,63.09,12.11Z"/></g><g class="cls-12"><path class="cls-13" d="M66.47,24.52c.15,10.28-7,22.92-15.93,28.24C45,56.08,40,55.76,37,52.54L22.66,37.13c2.16,2.33,5.76,2.56,9.81.16C39,33.44,44.1,24.3,44,16.86c-.07-4.53-2.07-7.38-5.09-8l20.53,4.58C63.6,14.32,66.37,18.26,66.47,24.52Z"/><path class="cls-14" d="M30.71,41.6l1.65,1.66a16.59,16.59,0,0,0,2.94-1.4c7.92-4.7,14.23-15.89,14.09-25A15.77,15.77,0,0,0,49,13.36C44.81,11.63,40.68,9.84,36.54,8a18.24,18.24,0,0,0-1.74.91C27.11,13.49,21,24.18,20.73,33.12A60.2,60.2,0,0,1,30.71,41.6Z"/><path class="cls-9" d="M49.51,31.35l-.46.34a3.41,3.41,0,0,0-1.54,2.73,2.81,2.81,0,0,1,0-.29l-.05.49a2.55,2.55,0,0,0,0,.39c0,1.16.75,1.71,1.71,1.36a2.34,2.34,0,0,0,.43-.2,4.54,4.54,0,0,0,1.64-1.91,4,4,0,0,0,.42-1.75C51.63,31.18,50.67,30.66,49.51,31.35Z"/><path class="cls-7" d="M51.65,32.51a4,4,0,0,1-.42,1.75,4.54,4.54,0,0,1-1.64,1.91,2.34,2.34,0,0,1-.43.2c-1,.35-1.69-.2-1.71-1.36a2.55,2.55,0,0,1,0-.39l.05-.49a2.81,2.81,0,0,0,0,.29c0,.87.56,1.28,1.28,1l.32-.15a3.32,3.32,0,0,0,1.22-1.43,3,3,0,0,0,.32-1.3c0-1-.73-1.39-1.6-.87l.46-.34C50.67,30.66,51.63,31.18,51.65,32.51Z"/><path class="cls-7" d="M44,18.8c-1.36-1.1-3.41-1.11-5.7.25a16,16,0,0,0-7.12,12.63c0,2.55,1.07,4.24,2.66,4.83L45.92,41q-1.28-9.78,8-14Z"/><path class="cls-15" d="M40.87,39.09c-1.4-.52-2.31-2-2.35-4.25a14.05,14.05,0,0,1,6.27-11.1c1.91-1.14,3.64-1.18,4.83-.33L44,18.8c-1.36-1.1-3.41-1.11-5.7.25a16,16,0,0,0-7.12,12.63c0,2.55,1.07,4.24,2.66,4.83Z"/><path class="cls-8" d="M49.45,27.16A11.22,11.22,0,0,0,46,30.51a12.2,12.2,0,0,0-2.23,6.66c.06,3.65,2.68,5.08,5.85,3.19a12.69,12.69,0,0,0,5.65-10c0-2.28-1.07-3.7-2.62-4A4.74,4.74,0,0,0,49.45,27.16Zm2.2,5.35a4.63,4.63,0,0,1-2.06,3.66c-1.16.69-2.12.17-2.14-1.16a4.62,4.62,0,0,1,2.06-3.66C50.67,30.66,51.63,31.18,51.65,32.51Z"/></g><path class="cls-7" d="M50,13.8c-9.79,5.81-17.58,19.62-17.41,30.86s8.24,15.63,18,9.82S68.14,34.86,68,23.62,59.73,8,50,13.8ZM66.47,24.52c.15,10.28-7,22.92-15.93,28.24s-16.34,1.29-16.49-9S41,20.84,50,15.52,66.31,14.23,66.47,24.52Z"/><circle class="cls-16" cx="40.82" cy="51.13" r="22.35" transform="translate(-10.6 10.67) rotate(-13.2)"/><path class="cls-17" d="M46,30.51c1.58-1.9,4.16-4.32,6.65-4.13C50.66,25.86,47.72,27.67,46,30.51Z"/><path class="cls-18" d="M59.4,10.87a9.3,9.3,0,0,0-1.91-.11,13.4,13.4,0,0,0-2.68.4,19,19,0,0,0-2.92,1.06,25.07,25.07,0,0,0-2.71,1.52A26.11,26.11,0,0,0,47,15.35a23.56,23.56,0,0,0-1.93,1.78l.56-.46c.36-.29.88-.69,1.5-1.16a29.71,29.71,0,0,1,4.91-2.95,18.42,18.42,0,0,1,2.85-1.08A14.94,14.94,0,0,1,57.51,11a12.23,12.23,0,0,1,1.88,0l.72.06S59.86,10.94,59.4,10.87Z"/><path class="cls-19" d="M17.43,11.23c1.95-1.89,4.78-4.08,7.51-4.07C22.52,6.54,18.87,9.15,17.43,11.23Z"/><circle class="cls-20" cx="55.04" cy="21.85" r="19.55" transform="translate(-3.54 13.15) rotate(-13.2)"/><circle class="cls-21" cx="21.36" cy="16.4" r="12.82" transform="translate(-3.18 5.31) rotate(-13.2)"/></g></g></g></svg>