<?xml version="1.0" encoding="utf-8"?>
<!-- Generator: Adobe Illustrator 23.0.4, SVG Export Plug-In . SVG Version: 6.00 Build 0)  -->
<svg version="1.1" id="OBJECTS" xmlns="http://www.w3.org/2000/svg" xmlns:xlink="http://www.w3.org/1999/xlink" x="0px" y="0px"
	 viewBox="0 0 593.7 396.6" style="enable-background:new 0 0 593.7 396.6;" xml:space="preserve">
<style type="text/css">
	.st0{clip-path:url(#SVGID_2_);}
	.st1{fill:url(#SVGID_3_);}
	.st2{fill:#C1D7E8;}
	.st3{fill:#D6E8F9;}
	.st4{fill:url(#SVGID_4_);}
	.st5{fill:#81B0D3;}
	.st6{fill:url(#SVGID_5_);}
	.st7{fill:url(#SVGID_6_);}
	.st8{fill:url(#SVGID_7_);}
	.st9{fill:url(#SVGID_8_);}
	.st10{fill:url(#SVGID_9_);}
	.st11{fill:url(#SVGID_10_);}
	.st12{fill:url(#SVGID_11_);}
	.st13{fill:url(#SVGID_12_);}
	.st14{fill:url(#SVGID_13_);}
	.st15{fill:url(#SVGID_14_);}
	.st16{fill:url(#SVGID_15_);}
	.st17{fill:url(#SVGID_16_);}
	.st18{fill:url(#SVGID_17_);}
	.st19{fill:url(#SVGID_18_);}
	.st20{fill:#AFCBE0;}
</style>
<g>
	<g>
		<defs>
			<rect id="SVGID_1_" x="-1.1" y="0" width="595" height="396.5"/>
		</defs>
		<clipPath id="SVGID_2_">
			<use xlink:href="#SVGID_1_"  style="overflow:visible;"/>
		</clipPath>
		<g class="st0">
			<linearGradient id="SVGID_3_" gradientUnits="userSpaceOnUse" x1="77.8991" y1="128.7238" x2="652.677" y2="320.3159">
				<stop  offset="0" style="stop-color:#B2CEE3"/>
				<stop  offset="0.9677" style="stop-color:#60A0E1"/>
			</linearGradient>
			<path class="st1" d="M-21.7,199.8c45.9-12.8,81.7-48.7,128-60.4c1.1-0.3,2.1-0.5,3.2-0.8c0,0,37.8-17.4,43.6-17.5
				c5.8-0.1,60.3-1.5,96.5,15.4c5.2,0.6,11.8,0.8,13.5,5.4c11.6,1.5,19.9-15.8,31.2-12.5c1.9,0.5,3.6,1.7,5.6,1.7
				c1.8,0.1,3.6-0.8,5.3-1.4c6-2.2,12.3-1.5,18.6-0.1c0,0,25,11,41.6,6.9c16.6-4.2,45.8-9.6,63.6-15.8c17.8-6.1,48.8-9.2,71,1.5
				c0.4,0.3,0.7,0.5,1.1,0.8c3.4,2.3,6.8,4.7,10.6,6.3c4.3,1.9,8.9,2.9,13.3,4.6c10.2,4,18.8,11.7,29.7,13.7
				c15.9,3,28,15.1,40.3,24.9c2.5,2,5.1,4.2,6.1,7.2c1,2.9,0.3,6.1-0.4,9.1c-3.2,14.1-6.4,28.2-9.6,42.3c-34.3,5-69.1,5-103.8,5
				c-158.6,0-317.3,0-475.9,0c-19.8,0-39.7,0.6-59.3-1.7c1.9-5,4.2-9.8,6.8-14.5c1.5-2.7,3.1-5.3,4.9-7.7c3.5-4.5,7.9-8.5,12.9-11.5
				"/>
			<g>
				<path class="st2" d="M405.2,143.8c4.6-0.3,9.2-0.6,13.8-0.9c-0.1,0.8,0,1.6,0.5,2.3c-0.9,0.5-1.8,1-2.8,1.5
					c3,0.7,6.2,0.5,9.1-0.5c-0.7-2,1.5-3.9,3.6-4.5c2.1-0.7,4.6-0.8,6.2-2.3c0.4,1.1,0.8,2.2,1.3,3.3c6.1-0.9,12.1-1.7,18.2-2.6
					c1-0.1,2.1-0.3,2.8-1c0.6-0.5,0.9-1.2,1.2-1.9c2.5-4.7,8.3-6.9,13.5-8.7c0.2,1.7,0.4,3.4,0.6,5.1c-9,7.8-21.6,10.5-32.9,15.2
					c-7.3,3-14.2,6.9-20.5,11.6c0.7-1.4,1.4-2.8,2.1-4.3c-1.2-1.9-3.9-2.8-6-2c0.4,1.1,0.7,2.3,1.1,3.4c-7.3,0-14.5,0.8-21.6,2.4
					c0.6-1.3,1.3-2.6,1.9-3.9c-3-0.4-6.1,0.2-8.7,1.6c0-0.7,0-1.5,0-2.2c-3.5,0.7-3.8,5.2-4.7,8.5c-0.8,2.9-2.7,5.5-5.4,7.2
					c1.3-2.6,2-5.6,1.9-8.5c-6.2-1.8-13,0.3-18.7,3.2c-5.7,2.9-11,6.7-17.1,8.9c2.1-2.4,4.2-4.9,6.3-7.3c-4.1-0.4-8-2.8-12.1-2.4
					c-5.4,0.5-10.5,5.9-15.5,3.7c1.2,3,2.4,6,3.6,9c-4.5,0.7-7.7-6.5-12-5c-0.8,0.3-1.6,0.9-2.5,0.8c-1.1-0.2-1.6-1.3-2.4-1.9
					c-2.2-1.7-5.6,0.4-8.4-0.2c-3.8-0.8-5-6-8.7-7c-4.4-1.2-8.8,4.3-13,2.6c1.7-0.5,3-2.1,3-3.8c-1.9,0.1-3.7-0.5-5.2-1.6
					c3.3-4.2,8.8-6.9,14.3-6.8c-1.1-1-2.1-1.9-3.2-2.9c2.8,0.4,5.8-1.3,6.9-3.7c6.5-0.5,13.2,0,19.5,1.7c4.6-4.3,13.2-3.6,17,1.3
					c8.8,2.4,18.5-0.8,27.2,1.9c1.3,0.4,2.6,0.9,3.9,0.8c3-0.2,4.9-3.4,7.8-4.1c2.7-0.6,5.4,0.9,8.2,0.7c3.5-0.3,6.1-3.5,9.6-3.9
					c3.8-0.5,8.1,2.2,11-0.1c0.8-0.6,1.3-1.5,2.1-2C403.2,144,404.2,143.9,405.2,143.8z"/>
				<path class="st2" d="M266.3,170.3c-5.7-0.5-11.3-1.8-16.6-3.8c-2.6-1-5.2-2.3-7.1-4.2c-2.1-2.1-4.4-5.4-7.2-4.3
					c4.6,4.1,8.4,8.9,11.3,14.2c-2.7-1.6-5.4-3.2-8.2-4.8c-0.1,1.2-0.2,2.3-0.3,3.5c-4-1.1-8.1-2.2-12.1-3.3
					c-5.6-1.5-11.3-3.2-16-6.5c-2.1-1.5-4.2-3.4-6.8-3.2c0.5,2,1.5,3.9,2.9,5.5c-3.6-2.9-7.2-5.7-11.1-8.3c1.7,4.7,4.6,9,8.3,12.5
					c-4.2-2.8-8.7-5.3-13.3-7.4c1.3,0.4,2.9-0.3,3.5-1.5c-0.6-0.6-1.4-0.9-2.3-0.9c-0.6-4.7-4.5-9-9.5-10.1c0.7,2.9,2.5,5.6,5.1,7.3
					c-2.3-1-4.9-1.5-7.4-1.2c1.1,1,2.3,2,3.4,3c-10.2-5.4-20.9-9.8-31.9-13.4c0.1-2.1,1.1-4.2,2.6-5.7c7.7-1.4,15.1,8.2,22.1,4.9
					c-3.9-2.6-7.7-5.1-11.6-7.7c-2.1-1.4-4.4-2.8-6.9-2.9c-3.7-0.1-6.8,2.8-8.7,5.8c-1.9,3-3.4,6.4-6.2,8.7
					c-1.5-1.3-3.2-2.4-5.1-3.2c1.6-2.8,2.7-5.9,3.2-9.1c-2.2,1-4.2,2.5-5.9,4.2c0-1.8,0.1-3.6,0.1-5.4c-4,1.8-7,5.5-7.9,9.6
					c-1.3,1.7-4.1,1.7-6.2,1c-2.1-0.7-4-2-6.2-2.4c-2.2-0.3-5,0.8-5.1,2.9c-3-1.5-6.5-1.5-9.5-3c5.5-1.3,12.2-4.8,17.5-6.6
					c14.9-5.1,27.9-14.9,43.8-13.8c3.6,0.3,7.4,1.2,10.9,0.3c2.8-0.6,5.1-2.3,7.7-3.4c10.1-4.3,21.9,0.2,31.2,5.9
					c9.3,5.6,18.4,12.7,29.4,14c0.1,0,0.1,0,0.2,0c3.2,1.8,6.5,3.5,9.9,5c0.1,1.5,0.1,2.9,0.2,4.4c2.1-2.4,5.7-3.6,9-3
					c1.3,1.4,2,3.3,1.9,5.2c2.6-0.2,5.2-0.4,7.8-0.6c-1.2,3.9-2.7,8.2-6.3,10.4c-3.7,2.2-8.4,1.7-12.7,1.1c3.4,3.5,8.1,5.7,13.1,6.3
					C263.6,167.9,264.8,169.5,266.3,170.3z"/>
				<path class="st3" d="M473.5,120.1c1.4,1.1,0.5,3.6-1.3,4.2c-1.8,0.6-3.7,0-5.4-0.9c-1.7-0.8-3.3-1.8-5.2-2
					c1.9,2.3,1.2,5.8-0.4,8.3c-4.6,7.3-14.1,10.4-22.7,12.8c1.9-2.1,4.5-3.5,7.4-4.1c-1.4-3.3,0.6-7.5,4.1-8.7
					c-2.1-1.5-5.2-0.6-7.5,0.6c-2,1.1-4,2.4-6.3,2.7c0,0.4-0.5,0.7-1,0.7c-0.6,0-1-0.3-1.5-0.6c-1.9-1.1-4.3-1.3-6.5-0.8
					c0.5,2.2-2.5,3.5-4.9,4c-2.7,0.5-5.4,1-8.1,1.5c-3.3,0.6-7,1.5-8.4,4.4c-3.2-2.6-8.1-0.6-11.3,2c0.2,1.3,0,2.7-0.7,3.8
					c-2.7,0.7-5.8-0.2-7.7-2.3c-2.8,0.1-5.6,0.1-8.5,0.2c-4,0.1-8.1,0.2-11.7,1.8c-1.2,1.8-2.3,3.8-3.2,5.8c-2.2-0.9-4-2.7-6.3-3.5
					c-2.3-0.8-5.6,0.1-5.8,2.4c-1.5-2.1-3.1-4.1-4.7-6.1c-0.7-0.8-1.4-1.7-2.5-1.8c-0.7-0.1-1.4,0.2-2.2,0.3
					c-3.8,0.6-8.1-3.1-11.2-1c-1.3-4-4-7.6-7.7-10c0.4-0.3,0.8-0.6,1.2-0.7c12.1,2.8,24.5,8.8,36,4.9c18.5-6.3,37.8-8,56-15.1
					c3.3-1.3,6.5-2.6,9.5-4.4c5.4-3.2,10.4-8,16.8-8.4c3.3-0.2,7,0.8,9.9-0.7c1.4-0.7,2.6-1.8,4.1-1.9c1.9-0.1,3.5,1.5,5.3,1.8
					c2.1,0.4,4.2-0.9,6.3-1.3c4.5-1,8.9,1.7,12.7,4.3c6.5,4.5,16.3,7.4,22.8,11.9C494.4,122.5,482.3,122.1,473.5,120.1z"/>
				<linearGradient id="SVGID_4_" gradientUnits="userSpaceOnUse" x1="208.9853" y1="127.8747" x2="214.6872" y2="127.8747">
					<stop  offset="0" style="stop-color:#B2CEE3"/>
					<stop  offset="0.9677" style="stop-color:#60A0E1"/>
				</linearGradient>
				<path class="st4" d="M209,127.9c0,0.2,0,0.4,0,0.6c0.5,0.1,1,0,1.5,0c0.5,0,1.1,0.2,1.2,0.7c0,0.2,0,0.4,0,0.6
					c0.1,0.5,0.8,0.6,1.3,0.6c0.5,0,1.1-0.2,1.6,0.1c-1.1-1.1-1.9-2.4-2.4-3.8c-0.1-0.3-0.2-0.6-0.4-0.8c-0.4-0.5-1.1-0.7-1.6-0.5
					c-0.1,0-0.2,0.1-0.3,0.2c-0.2,0.2,0,0.6,0.1,0.8C210.4,127,209.8,127.9,209,127.9z"/>
				<path class="st3" d="M304,138.4c-0.1-0.5-0.5-1-1-1.3c0.5-0.3,0.8-0.9,0.8-1.5c-0.8-0.2-1.3-1.1-1.1-1.8c0.3,0.1,0.6,0,0.9-0.1
					c-0.1-0.7,0-1.4,0.1-2.1c0.3,0,0.6,0,0.9,0c0.6-1.3,3-0.8,4-1.9c-0.2,0.5-0.4,0.9-0.7,1.4c0.8-0.3,1.6-0.6,2.3-1
					c-0.3-0.1-0.5-0.5-0.5-0.8c0.7-0.3,1,0.9,1.7,1.1c0.4,0.1,0.9-0.1,1.3-0.2c0.5-0.2,1-0.2,1.4-0.3c1.6-0.2,3.3-0.5,4.9-0.7
					c0.2,0,0.3,0,0.4,0.1c0.1,0.1,0.1,0.3,0.1,0.4c0,0.5,0.1,1,0.1,1.5c1.3,0.3,2.3,1.4,2.5,2.6c2,1.2,3.9,2.5,5.8,3.9
					c-2.8,0.3-5.6-0.4-8-1.8c-0.5,0.6,0.1,1.3,0.6,1.9c0.8,0.9,1.4,1.9,1.7,3c-1.5-0.3-3-0.9-4.3-1.6c1.4,1.4,3.1,2.5,5,3.2
					c-0.6,0.8-1.5,1.5-2.5,1.9c-1.1,0.5-2.4,0.7-3.5,1.1c-2.5,0.9-4.6,2.7-7.2,3.2c-1.5,0.3-3.1,0-4.4-0.7c1.3-0.8,1.4-2.7,2.5-3.7
					c1-1,2.9-1.3,3.1-2.7c0.1-0.4-0.1-0.8-0.1-1.2c0-0.4,0.2-0.9,0.7-1C309.2,138.4,306.6,137.9,304,138.4z"/>
				<path class="st3" d="M286.2,132.4c-0.8,0.5-1.6,1.2-1.3,2c0.7-0.4,1.7-0.1,2,0.5c-0.5,0.3-0.9,0.7-1,1.3c-0.8-0.4-1.9,0-2.2,0.8
					c0.2,0.1,0.4,0.2,0.6,0.2c0,0.4,0,0.7,0,1.1c1.8-0.1,3.3,1.3,4.8,2.1c0.7,0.4,1.5,0.6,2.2,1c1.7,0.9,3.1,2.2,4.7,3.2
					c2.5,1.5,5.6,2.1,8.6,1.6c0-0.7-0.2-1.3-0.7-1.8c1-0.4,2-1,2.7-1.9c0.5,0.1,1.2-0.1,1-0.5c0-0.1-0.1-0.1-0.2-0.2
					c-0.6-0.4-1.1-0.7-1.7-1.1c1.1,0.1,2.3-0.3,2.9-1.2c-1.4-0.3-2.8-0.5-4.3-0.8c-0.7-0.1-1.4-0.3-1.9-0.7
					c-0.5-0.4-0.8-1.2-0.4-1.7c0.4,0.1,0.8-0.1,0.9-0.5c-0.4,0.2-0.8-0.2-0.9-0.6c-0.1-0.4,0.1-0.8,0.1-1.2c0-0.4-0.2-0.9-0.6-1
					c-0.5-0.1-1,0.5-1.5,0.4c-0.7-0.1-0.7-1.1-1.3-1.4c-0.4-0.2-0.9,0.1-1.3-0.1c-0.3-0.1-0.4-0.5-0.6-0.7c-0.6-0.7-1.7-0.5-2.6-0.7
					c-0.6-0.2-1.1-0.6-1.7-0.9c-1.1-0.6-2.5-0.6-3.7-0.1c-0.3,0.1-0.7,0.4-0.6,0.8c0,0.1,0.2,0.3,0.2,0.4c0.1,0.5-0.5,0.7-1,0.8
					C287.1,131.9,286.6,132.2,286.2,132.4z"/>
				<g>
					<path class="st5" d="M277.3,153.8c0.3,0.2,0.1,0.7-0.2,0.9c-0.3,0.2-0.7,0.3-1,0.5c-0.3,0.2-0.5,0.6-0.8,1
						c-0.4,0.4-1,0.7-1.5,0.9c-2.6,1.1-5.1,2.4-7.4,3.9c0.6,0.4,1.1,1,1.4,1.6c1-0.6,2.1-1,3.2-1.3c0,0.3-0.2,0.7-0.6,0.8
						c0.9,0.3,0.8,1.6,1.6,2.1c1.2,0.7,2.5-1.3,3.9-1c-0.1-0.3-0.2-0.7-0.3-1c1.6-0.1,2.7-1.4,3.8-2.5c2.6-2.7,6.1-4.6,9.9-5.5
						c-0.9-0.8-2.4-1-3.5-0.6c0-0.4,0-0.8,0-1.2c-0.7,0-1.4,0-2.1,0c0.1-0.3,0-0.6-0.1-0.9c-1.2,0-2.4,0.6-2.9,1.7
						c-0.1,0.2-0.2,0.4-0.3,0.5c-0.1,0.1-0.4,0.2-0.5,0.2C278.9,153.9,278.1,154.1,277.3,153.8z"/>
					<path class="st5" d="M289.2,145.9c-0.2-0.1-0.3-0.2-0.4-0.3c-0.2-0.1-0.5-0.1-0.8-0.2c-0.5,0-1.1,0-1.6-0.1
						c-0.5,0.7-1.4,1.1-2.3,1.1c0.3,0.1,0.7,0.3,1,0.4c0.1,0,0.2,0.1,0.2,0.2c0,0.1,0,0.2,0,0.2c0,0.7,0.8,1.1,1.5,1.3
						c0.1,0,0.2,0.1,0.3,0c0.2,0,0.3-0.2,0.4-0.3c0.3-0.4,0.9-0.6,1.4-0.6c0,0.3,0.2,0.6,0.6,0.7c-0.1,0.3-0.4,0.3-0.7,0.4
						c-0.3,0.1-0.5,0.4-0.4,0.6c0.6,0.1,1.1,0.2,1.7,0.3c-0.5,0.3-0.9,0.7-1.2,1.1c0.8-0.1,1.6-0.1,2.5-0.2c0.2,0,0.4,0,0.6-0.1
						c0.3-0.1,0.5-0.2,0.7-0.3c0.4-0.2,0.8-0.4,1.3-0.6c0.2-0.1,0.4-0.2,0.5-0.3c0.2-0.2,0.2-0.6,0-0.8c-0.2-0.2-0.5-0.3-0.8-0.2
						c-0.3,0.6-1.2,0.9-1.9,0.6c0.1-0.3,0.2-0.6,0.5-0.9c0.3,0,0.5-0.1,0.8-0.1c0.1-0.3-0.3-0.6-0.7-0.7c-0.4,0-0.8,0.1-1.1,0
						c0-0.4,0-0.7,0-1.1C290.8,145.8,289.8,146.2,289.2,145.9z"/>
					<path class="st5" d="M278.9,135.2c0.5,0.7,0.8,1.5,0.7,2.3c0.5-0.1,1-0.2,1.4-0.1c0.4,0.2,0.8,0.7,0.5,1.1
						c1.2,0,2.3,0.1,3.4,0.5c0,0.3,0,0.6,0,0.8c-0.6,0-1.2-0.1-1.8-0.1c0.6,0.4,1.3,0.8,1.9,1.1c-0.1,0.6-0.7,1.2-1.4,1.3
						c0.9,0.2,1.6,0.8,2,1.5c-0.7-0.4-1.8,0.1-1.9,0.9c-0.3,0-0.6,0-0.9,0c0.1,0.4,0.1,0.8,0.1,1.2c0,0.2-0.1,0.3-0.2,0.4
						c-0.1,0.1-0.3,0.1-0.4,0.1c-0.8,0.1-1.5,0.2-2.3,0.3c0-0.5-0.1-1.1-0.4-1.5c-0.3-0.4-0.9-0.7-1.4-0.6c0.3-0.3,0-0.8-0.4-1
						c-0.4-0.2-0.9-0.2-1.2-0.5c-0.2-0.2-0.3-0.4-0.5-0.6c-0.3-0.2-0.6-0.2-1-0.1c-0.8,0.1-1.5,0.2-2.3,0.2
						c-0.1-0.5,0.2-1.1,0.8-1.3c0.3-0.4-0.7-0.9-0.4-1.2c0.1-0.1,0.2-0.1,0.3-0.1c1.3-0.1,2.6-0.3,3.9-0.4c-0.1,0.5-0.1,0.9-0.1,1.4
						c0.2,0.2,0.4,0.2,0.7,0.2c0,0.4-0.1,0.8-0.2,1.2c1-0.1,2-0.4,2.9-0.9c0.1,0.2,0.3,0.5,0.4,0.7c0.3,0,0.6,0,0.8,0
						c-0.3-0.4-0.6-0.7-1.1-0.9c0.6,0,1.1-0.3,1.5-0.7c-0.6-0.1-1-0.5-1.3-0.9c-0.7-0.1-1.5,0-2.1,0.2c0-0.1,0-0.3,0-0.4
						c-0.4,0-0.8,0-1.3,0c0.2-0.4,0.5-0.8,0.7-1.3c-0.6,0-1.2,0-1.8,0C277.6,137.3,278.4,136.3,278.9,135.2z"/>
				</g>
				<g>
					<path class="st5" d="M416.6,133.9c-0.1,0.2-0.2,0.3-0.4,0.4c-0.3,0.2-0.6,0.1-1,0.1c-0.6,0.1-1.1,0.7-0.9,1.3
						c-2.6-1.1-6.1,0.2-7.2,2.7c1.4-0.2,2.7-0.3,4.1-0.3c0.4-0.6,0.8-1.2,1.2-1.8c1.9,0.8,4.1,1.1,6.2,1.1c0.3-0.9,0.6-1.8,0.9-2.8
						c1.3,0.3,2.7,0.4,4.1,0.4c1.2-1.4,2.9-2.3,4.7-2.6c0.7-0.1,1.7-0.2,1.8-0.9c0.9-0.1,1.8,0.1,2.7,0.3c-0.3-0.7,0.4-1.7-0.2-2.3
						c-0.2-0.1-0.4-0.2-0.6-0.3c-1.4-0.3-2.8-0.6-4.1-0.9c-0.8,2.9-3.8,5.3-7,5C419.4,133.4,417.6,132.8,416.6,133.9z"/>
					<path class="st5" d="M433.2,138.5c-1.2-0.9-2.7-1.4-4.2-1.5c0.7-0.4,1.4-0.7,2.1-1.1c0.2-0.5-0.3-0.9-0.8-1.1s-1,0-1.6-0.1
						c-0.5-0.1-1-0.3-1.6-0.3c-1.2-0.1-2.4,0.9-2.4,2c-1-0.2-2-0.4-3,0c-0.9,0.4-1.6,1.2-2.4,1.7c-0.8,0.6-2.1,0.8-2.7,0.1
						c0.1,0.6-0.8,0.9-1.5,0.9c-0.7,0-1.5-0.1-1.8,0.5c-0.3,0.7,0.8,1.3,1.6,1.2c-0.2,0.4-0.3,0.8-0.3,1.2c0,0.4,0.3,0.9,0.7,1
						c0.3,0.1,0.5,0,0.8-0.1c1.8-0.5,3.5-1.2,5.2-2.1c-0.2,0.4,0.2,0.9,0.7,1c0.5,0.1,1-0.1,1.4-0.3c1.2-0.5,2.4-1,3.5-1.5
						c0.6-0.3,1.3-0.5,1.9-0.4c0.5,0.1,1.2,0.4,1.6,0.1c0.1-0.1,0.2-0.3,0.3-0.5C431.1,138.4,432.3,138,433.2,138.5z"/>
					<path class="st5" d="M434.8,129.3c0.1-0.8,0-1.6-0.3-2.4c0.5-0.2,1.1-0.3,1.6-0.5c-0.6-0.7-0.9-1.6-0.6-2.5
						c0.5-0.1,1-0.1,1.5-0.2c0-0.6-0.2-1.1-0.5-1.6c1.3-0.3,2.8,0.3,3.5,1.4c-0.3,0-0.5-0.1-0.8,0c-0.2,0.1-0.4,0.3-0.4,0.6
						c0.4-0.1,0.9,0.3,0.8,0.7c0,0.1-0.1,0.2-0.2,0.3c-0.4,0.5-0.8,1.1-1.2,1.6c0.2,0.2,0.3,0.4,0.3,0.6c-0.6,0.1-1.3,0.2-1.9,0.2
						c0.3,0.5,0.2,1.1-0.2,1.5C436,129.5,435.3,129.6,434.8,129.3z"/>
					<path class="st5" d="M438.7,116c-0.5-0.2-0.9-0.3-1.4-0.5c0.2-0.5,0.2-1.1-0.2-1.5c-0.4-0.4-1.2-0.1-1.2,0.4
						c0.3,0,0.5,0.2,0.6,0.5c0.1,0.2,0,0.5,0,0.8c-0.1,0.9,0,1.7,0.3,2.5C437.3,117.4,438,116.7,438.7,116z"/>
					<path class="st5" d="M450.3,116.1c0.1-0.6,0.5-1.2,1.2-1.4c0.6-0.2,1.3-0.1,1.8,0.3c-0.4,0.9-1.3,1.6-2.3,1.9
						c-0.4,0.1-0.9,0.2-1.3,0.3c-0.8,0.2-1.5,0.6-2.3,1c-1.3,0.7-2.7,1.5-4,2.2c-0.1-0.7,0-1.5,0.3-2.2c0.3,0,0.7,0,1,0
						c0.4-0.3,0-0.9,0.1-1.3c0.1-0.8,1.2-0.9,2-0.9c-0.2-0.4-0.5-1-0.2-1.4c0.2-0.5,1-0.6,1.5-0.4c0.5,0.2,0.9,0.7,1.1,1.2
						C449.6,115.7,449.9,116.2,450.3,116.1z"/>
					<path class="st5" d="M459.3,121.1c-0.4,0-0.8,0-1.1,0.3c-0.3,0.2-0.5,0.7-0.2,0.9c0.2,0.2,0.5,0.2,0.8,0.4
						c0.3,0.2,0.3,0.6,0.5,0.9c0.3,0.9,1.2,1.6,2.1,2c-1.1,0.1-2.1,0-3.2-0.2c0.5,0.1,0.9,0.3,1.2,0.6c-0.2,0.4-0.4,0.9-0.6,1.3
						c0.8,0.2,1.7,0.1,2.4-0.3c0.5-0.3,1.1-0.8,1.6-0.6c0.4,0.1,0.6,0.6,0.5,1c0,0.4-0.2,0.7-0.4,1.1c1,0.5,0.8,1.8,0.5,2.8
						c2.3-0.7,4.6-1.4,6.9-2c-0.3-0.6-0.4-1.3-0.5-2c0.7,0,1.4,0,2,0c-0.2-0.8-0.4-1.6-0.5-2.4c-0.2-0.9-0.5-1.9-1.3-2.4
						c-0.6-0.3-1.3-0.3-1.9-0.6c-0.8-0.5-1.1-1.5-1.9-1.9c-1.1-0.7-2.7,0.1-3.4,1.3C461.7,121.1,460.5,121,459.3,121.1z"/>
					<path class="st5" d="M456.6,136.6c-1.4,0.1-2.7,0.7-3.8,1.5c-0.3-0.4-0.3-0.9-0.2-1.4c-0.8,0.2-1.6,0.5-2.4,0.7
						c-0.4,0.1-0.8,0.3-1,0.6c-0.2,0.3-0.1,0.7-0.2,1.1c-0.2,0.7-1,1-1.8,1.1c-0.7,0.1-1.5,0.1-2.1,0.5c0.1-0.8,0.3-1.6,0.4-2.5
						c-1.7,0.4-2.5,2.2-4,3.1c-0.8,0.4-1.6,0.5-2.5,0.7c-1.6,0.2-3.1,0.4-4.7,0.7c1-1,2.1-1.9,3.1-2.9c0.3-0.2,0.5-0.5,0.9-0.6
						c0.6-0.2,1.2,0,1.8-0.2c0.7-0.2,1.1-0.9,1.6-1.4c1.5-1.8,4.3-2.6,6.6-1.8c2.1-0.7,4.2-1.4,6.4-2.1c0.3-0.1,0.6-0.2,1-0.2
						c0.4,0,0.7,0.1,1,0.2c1.1,0.3,2.3,0.3,3.4,0.1c-0.1,0.5-0.1,1.1-0.2,1.6c-0.5-0.2-1.1-0.1-1.5,0.3c-0.2,0.2-0.3,0.5-0.5,0.6
						C457.4,136.6,457,136.6,456.6,136.6z"/>
					<path class="st5" d="M433.9,134c-0.3,1-0.6,2-0.9,2.9c0.2,0.1,0.5,0.1,0.7,0.2c-0.3,0.5-0.5,1-0.8,1.5c0.2,0,0.4,0.3,0.4,0.5
						c1.4-1,3-1.8,4.7-2.3c-0.1,0.6-0.3,1.3-0.4,1.9c0.8-0.4,1.6-0.9,2.4-1.3c0.1-0.1,0.2-0.1,0.2-0.2c0.1-0.3-0.3-0.5-0.2-0.8
						c1.4-0.2,2.6-1,3.3-2.2c-1,0.2-1.9,0.4-2.9,0.6c-0.3-0.7,0.6-1.5,1.3-1.2c0.2-0.3,0.2-0.6,0.2-0.9c-0.7-0.3-1.5-0.5-2.2-0.4
						c0.6-0.6,1-1.3,1.3-2.1c-0.7,0-1.3-0.2-1.9-0.6c-0.4,0.7-0.6,1.4-0.8,2.1c-0.7-0.2-1.3-0.5-2-0.8c0.1,0.8,0,1.5-0.2,2.3
						c0,0.2-0.1,0.3-0.2,0.4c-0.2,0.1-0.4,0.1-0.6,0c-1.3-0.2-2.6-0.5-3.9-0.7C431.7,133,434,133.6,433.9,134z"/>
					<path class="st5" d="M444.8,129.2c0.6,0,1.1,0,1.7,0c-0.1-1,0.2-2,0.7-2.8c0.1-0.1,0.2-0.3,0.4-0.3c0.2-0.1,0.3,0,0.5-0.1
						c0.2,0,0.3-0.2,0.3-0.3c-0.7,0-1.3,0.2-1.9,0.6c-1,0.5-2,1.4-3,1c-0.4,1.4-0.5,2.9-0.2,4.4c0.4-0.7,1.1-1.3,1.9-1.6
						C445,129.7,444.9,129.5,444.8,129.2z"/>
					<path class="st5" d="M434.4,118.3c0,0.2,0,0.3,0,0.5c-0.7-0.1-1.3-0.2-2-0.2c0.1,0.8-0.9,1.4-1.7,1.1c-0.1,0.4-0.2,0.9-0.6,1.2
						c-0.4,0.3-1.1,0.2-1.2-0.2c0-0.1,0-0.2,0-0.4c-0.1-0.4-0.8-0.4-1.2-0.3c-0.5,0.1-1,0.2-1.5,0.4c0.3-0.5,0.4-1,0.5-1.5
						c-0.5,0-1,0-1.5,0.2c0.9-0.7,1.9-1.4,3-1.2c0.3,0,0.5,0.1,0.7,0.2c0.5,0.1,1-0.2,1.5-0.3c1.5-0.5,3.1-0.5,4.5,0
						c0.1,0.1,0.2,0.2,0.2,0.4C435,118.3,434.7,118.3,434.4,118.3z"/>
				</g>
				<g>
					<path class="st5" d="M293.3,144.9c-0.9-0.4-1.5-1.2-2.2-1.8c-0.7-0.6-1.4-1.2-2.2-1.8c-0.8-0.6-1.7-1.3-2.6-1.7
						c1.7,2.7,4.4,4.9,7.4,6.3c0.5,0.2,1.1,0.4,1.5,0.8c0.3,0.2,0.5,0.5,0.8,0.7c0.9,0.6,2.1,0.2,3.2,0.4c-1.1-0.7-2.3-1.3-3.4-1.9
						c-0.4-0.2-0.8-0.4-1.3-0.6C294.1,145.1,293.7,145,293.3,144.9z"/>
					<path class="st5" d="M323.9,141.1c-0.2-0.2-0.1-0.7-0.4-0.7c0-0.6,0-1.1,0.1-1.7c0.5,0.1,1.1,0.2,1.6,0.2c0.3,0,0.5,0,0.8,0.1
						c0.2,0.1,0.4,0.4,0.2,0.6c0.5,0.2,1,0.5,1.4,0.7c-0.3,0.1-0.6,0.2-0.9,0.3c0.1,0.2-0.1,0.5-0.3,0.7c-0.3,0.1-0.6,0.1-0.8,0.1
						c-0.4,0-0.9-0.1-1.3-0.1C324.1,141.2,324,141.2,323.9,141.1z"/>
					<path class="st5" d="M331.6,142.6c0.3,0.3,0.8,0.4,1.1,0.6c0.4,0.2,0.6,0.7,0.4,1c0.6,0,1.1,0.1,1.6,0.2
						c-0.1,0.6,0.1,1.2,0.5,1.6c-0.7,0-1.4,0-2.1,0.2c0.5,0.4,1.1,0.6,1.7,0.8c0.3,0.1,0.7,0.2,1,0.4c0.2,0.2,0.4,0.4,0.5,0.6
						c0.4,0.5,1,1,1.6,1.3c-0.1,0.3-0.2,0.6-0.3,1c0.4,0.1,0.7,0.1,1,0.3c0.3,0.2,0.4,0.6,0.1,0.9c-0.2,0.1-0.4,0.2-0.6,0.2
						c-2.3,0.2-4.6-0.2-6.6-1.3c-0.4-0.8-0.5-1.8-0.2-2.7c0.2-0.7,0.7-1.4,0.3-2c-0.3-0.5-1.1-0.7-1.3-1.3c-0.1-0.4,0.1-0.8,0.4-1.2
						c-0.3-0.1-0.6-0.3-0.8-0.5c-0.1-0.1-0.2-0.2-0.1-0.4c0-0.1,0.1-0.1,0.2-0.2c0.3-0.2,0.2-0.6,0.3-0.9c0.1-0.3,0.4-0.7,0.7-0.5
						c0.4,0.2,0.6,0.8,0.4,1.2c0,0.1-0.1,0.2-0.1,0.4C331.4,142.5,331.5,142.6,331.6,142.6z"/>
					<path class="st5" d="M339.1,143.4c0.1-0.5,0.3-0.9,0.4-1.4c-0.9-0.2-1.7-0.5-2.6-0.7c-0.1,0.3-0.2,0.6-0.2,0.9
						c-1.1-0.1-2.2-0.1-3.3-0.2c0.1,0.6,0.6,1.2,1.2,1.4c0.2,0.1,0.5,0.1,0.6,0.3c0.2,0.1,0.2,0.4,0.3,0.5c0.5,0.6,1.7-0.3,2.4,0.1
						c-0.5,0.6-1.3,1-2.1,1c0.2,0.7,0.8,1.3,1.5,1.5c-0.4,0.3,0.1,1,0.6,1s1-0.2,1.5-0.3c0.6-0.1,1.3,0.1,1.7,0.5
						c0.2,0.4-0.8,0.6-0.8,1c0,0.1,0.1,0.3,0.1,0.4c0.2,0.5,0.1,1.1-0.4,1.5c0.5,0.2,0.9,0.5,1.2,0.9c0.3-0.6,0.5-1.3,0.5-2
						c0.2-0.1,0.5,0,0.8,0c0.3,0,0.6-0.1,0.6-0.3c0-0.1,0-0.2-0.1-0.3c-0.2-0.3-0.4-0.7-0.6-1c0.8-0.1,1.6-0.1,2.4,0.1
						c0.4,0.4,0.2,1.1-0.1,1.5c-0.3,0.5-0.7,0.9-0.9,1.4c0.5,0,1,0,1.5,0c-0.1-0.8,0.2-1.6,0.9-2c0.7-0.4,1.8-0.1,2,0.6
						c0.4-0.3,0.8-0.6,1.3-0.8c-0.4-1-0.7-2.1-1.1-3.1c-0.5,0.6-1.4,0.8-2.2,0.6c0.2-0.3,0.3-0.7,0.2-1.1c-0.6,0.2-1.4-0.1-1.8-0.6
						c-0.2-0.3-0.4-0.7-0.6-1c-0.2-0.3-0.7-0.5-1.1-0.3c0.1,0.8-1,1.6-1.8,1.2C341.1,143.9,340.1,143.2,339.1,143.4z"/>
					<path class="st5" d="M327.9,143.2c0.4,0.2,0.8,0.3,1.2,0.5c0.1,0.1,0.3,0.1,0.3,0.2c0.2,0.4-0.5,0.9-0.2,1.3
						c0.4,0.3,0.9,0.6,1.3,0.9c-0.3,0.6-0.5,1.2-0.7,1.9c-1.5-0.1-2.8-1-4.3-1.4c-1.1-0.2-2.2-0.1-3.3,0c-1,0.1-1.9,0.2-2.9,0.3
						c-0.3-0.3-0.8-0.4-1.2-0.5c0.1-0.5,0.3-0.9,0.7-1.3c0.7,0.3,1.5,0.5,2.3,0.6c0.4-0.5,0.2-1.4,0.7-1.8c0.4-0.3,0.9-0.2,1.4-0.1
						c0.5,0.1,1,0.2,1.5,0.3c0-0.2,0-0.4,0-0.6c0.6,0,0.9,0.6,1.5,0.7c0.5,0,0.9-0.3,1.2-0.6C327.6,143.5,327.8,143.4,327.9,143.2z"
						/>
					<path class="st5" d="M393.8,135.5c1.1-0.5,2.5-0.3,3.4,0.5c0.3-0.3,0.5-0.8,0.5-1.2c1.1,0.1,2.3,0.2,3.4,0.2
						c-0.9-0.2-1.7-0.8-2.2-1.5c0.9,0.3,1.9,0.1,2.6-0.5c-1.3-0.5-2.7-0.7-4.1-0.6c0.4,0.1,0.6,0.5,0.5,0.8
						c-0.6,0.1-1.2-0.1-1.7-0.5c-0.2-0.2-0.6-0.4-0.8-0.2c-0.1,0.1-0.1,0.2-0.2,0.2c-0.5,0.9-1.4,1.7-2.4,2.1
						C393.2,135.1,393.5,135.3,393.8,135.5z"/>
					<path class="st5" d="M378.9,150.1c-0.3-0.2-0.6-0.4-1-0.6c-0.5-0.2-1.1-0.2-1.7-0.1c-1.4,0.1-2.9,0.3-4.3,0.4
						c-0.1,0.7-1,0.9-1.7,0.8c-0.7-0.1-1.3-0.5-2-0.5c0-0.4,0.1-0.9,0.4-1.2c-0.7,0-1.3-0.2-1.8-0.5c-0.3-0.6,0.7-1.1,1.4-0.9
						c0.7,0.1,1.4,0.5,2,0.3c0.1-0.6,0.7-1.1,1.4-1.3c0.7-0.2,1.4-0.1,2,0.1c0.4,0.1,0.8,0.6,0.5,0.8c-1-0.2-2,0.1-2.7,0.8
						c1,1.1,3,1.2,4.1,0.1c-0.1-0.4-0.2-0.9-0.3-1.3c0.9,0.1,1.8,0,2.7-0.2c0.1-0.3,0.1-0.6,0.2-1c1.3,0.1,2.6,0.1,3.9,0.2
						c1.4,0.1,2.8,0.1,3.9,0.9c-1.2,0.8-2.3,1.5-3.5,2.3C381.2,149.9,379.9,150.6,378.9,150.1z"/>
					<path class="st5" d="M384.1,141.7c-1.7,1-3.9,0.3-5.8,0.6c-0.4,0.1-0.9,0.2-1.2,0.5c-0.3,0.3-0.4,0.8-0.1,1.1
						c-2.5-0.6-5.1-0.7-7.6-0.3c0.6,0.6,1.1,1.2,1.7,1.8c0.8,0,1.6,0.2,2.3,0.4c0-0.4,0-0.8,0-1.3c0.7,0,1.2,0.6,1.8,0.8
						c1.3,0.3,2.5-1.1,3.8-0.8c0-0.3,0.1-0.5,0.1-0.8c-0.3-0.2-0.6-0.5-0.9-0.7c1.1,0.1,2.2,0.2,3.2,0.5c0.3,0.1,0.7,0.3,1,0.4
						c1.4,0.4,2.8-0.1,4.2-0.4c0.8-0.2,1.6-0.3,2.5-0.2c-1.2-0.6-2.5-1.1-3.7-1.7c-0.2-0.1-0.4-0.2-0.6-0.2
						C384.4,141.5,384.2,141.6,384.1,141.7z"/>
					<path class="st5" d="M368.3,150.6c0,0.1,0,0.3,0,0.4c-0.5,0.3-0.9,0.7-1.2,1.2c-1.5-0.2-3-0.2-4.6-0.2c-0.4,0-0.9,0-1.3-0.2
						c-0.4-0.2-0.5-0.8-0.2-1.1c0.9-0.2,1.7-0.6,2.6-0.8c0.9-0.2,1.9-0.1,2.6,0.4c0-0.2,0-0.5,0-0.7
						C367,149.6,367.7,150.1,368.3,150.6z"/>
					<path class="st5" d="M388.6,145c0.2,0,0.4,0,0.5,0.1c1.7,0.4,3.5,0.5,5.2,0.2c0.1,0.4,0.1,0.8,0.2,1.1c-2.3-0.1-4.7-0.1-7,0.1
						C387.6,145.9,387.9,145.1,388.6,145z"/>
					<path class="st5" d="M394.6,143.8c0.4-0.5,0.9-1,1.5-1.3s1.4-0.4,1.9,0c0.2-0.3,0.4-0.6,0.6-0.9c1.1,0.4,2.2-0.4,3.2-0.9
						c1-0.5,2.3-0.7,3.4-0.5c-0.2-0.4-0.5-0.8-0.7-1.2c-0.2-0.4-0.5-0.8-0.9-1.1c-0.4-0.3-1-0.4-1.4-0.2c0.3,0.7-0.4,1.6-1.2,1.5
						c-0.4,0-0.9-0.3-1.2-0.1c-0.2,0.1-0.3,0.3-0.3,0.5c-0.2,0.5-0.7,0.9-1.2,0.8c-0.3-0.1-0.5-0.4-0.7-0.6
						c-0.7-0.4-1.4,0.6-2.2,0.8C395,141.7,394.8,142.8,394.6,143.8z"/>
					<path class="st5" d="M352.1,141.4c0.4,0.6,0.8,1.2,1.2,1.8c-0.6,0.1-1.2,0.1-1.7,0.2c0.1-0.4,0.2-0.8,0.4-1.2"/>
					<path class="st5" d="M362.9,143.2c-1.1-0.2-2.4,0.7-2.4,1.8c0.9-0.2,1.9-0.3,2.8-0.2C363,144.3,362.8,143.7,362.9,143.2z"/>
					<path class="st5" d="M390,137.2c-0.2,0.3,0.3,0.7,0.6,0.6c0.1,0.4-0.1,0.8-0.3,1.2c1-0.4,2.1-0.7,3.2-0.7
						C392.8,137.3,391.2,136.8,390,137.2z"/>
					<path class="st5" d="M367.8,141.4c0.5,0,1,0,1.5,0c0.2,0.3-0.2,0.7-0.5,0.8c-0.4,0.1-0.8,0-1.1-0.1c-0.1-0.2,0.1-0.5,0.3-0.4"
						/>
					<path class="st5" d="M393,133.4c-0.4,0.1-0.9,0.1-1.4,0.1c-0.4-0.4-0.6-0.8-0.7-1.3c-0.6,0.3-1.2,0.4-1.8,0.4
						c0.2,0.2,0.4,0.5,0.6,0.7C390.1,133.4,392.5,133.4,393,133.4z"/>
				</g>
				<g>
					<linearGradient id="SVGID_5_" gradientUnits="userSpaceOnUse" x1="166.0083" y1="117.0781" x2="257.939" y2="174.3616">
						<stop  offset="0" style="stop-color:#B2CEE3"/>
						<stop  offset="0.9677" style="stop-color:#60A0E1"/>
					</linearGradient>
					<path class="st6" d="M189.5,134.2c0-0.6,0-1.2,0-1.8c-0.4,0.1-0.8,0.1-1.1,0.2c0.4-0.4,0.4-1.1,0.5-1.7
						c0.1-0.6,0.5-1.2,1.1-1.2c0.3,0,0.6,0.2,0.8,0.3c0.5,0.4,1.1,0.7,1.6,1.1c0.2,0.1,0.4,0.3,0.4,0.5c0,0.2-0.1,0.3,0,0.5
						c0,0.1,0.2,0.2,0.3,0.3c0.5,0.3,1,0.7,1.5,1c-0.7-0.1-1.4-0.2-2.1-0.3c0,0.4,0,0.9,0,1.3C191.4,134.3,190.4,134.2,189.5,134.2z
						"/>
					<linearGradient id="SVGID_6_" gradientUnits="userSpaceOnUse" x1="157.5582" y1="108.0781" x2="249.9129" y2="165.6257">
						<stop  offset="0" style="stop-color:#B2CEE3"/>
						<stop  offset="0.9677" style="stop-color:#60A0E1"/>
					</linearGradient>
					<path class="st7" d="M181,120.1c0.3,0.1,0.7,0.1,1.1,0.1c0.9,0,1.7,0.5,2.1,1.2c0.6-0.5,1.3-0.9,2.1-1.2
						c-0.3-0.7-0.6-1.5-0.6-2.2c0.8,0,1.7,0,2.5,0c0.9,0.8,0.9,2.2,0.1,3c-0.2,0.2-0.4,0.3-0.3,0.5c0,0.3,0.5,0.4,0.7,0.6
						c0.4,0.4,0.1,0.9,0.2,1.4c0.1,1,1.6,1.8,1.3,2.8c-1.1-0.3-2.1-0.9-2.8-1.7c0.4,0.3,0.8,0.5,1.2,0.8c0.2,0.2-0.2,0.4-0.4,0.6
						c-0.2,0.3-0.1,0.7,0.1,1.1c0.4,0.7,0.8,1.3,1.1,2c-2.2-0.2-2.5-3.8-4.6-4.1c0.5,0,0.2,0.7,0.2,1.1c0,0.5,0.4,0.9,0.7,1.3
						c0.3,0.4,0.5,1,0.2,1.3c-1-0.9-2.2-1.6-3.4-2.1c-0.3-0.8-0.7-1.5-1.3-2.1c-0.6-0.6-1.7-0.8-2.4-0.4c-0.5,0.3-0.7,0.8-1.1,1.2
						c-0.6,0.5-1.4,0.8-2.1,1c-0.8,0.2-1.6,0.5-2.4,0.2c-0.8-0.2-1.4-1.1-0.9-1.8c0.3,0,0.7,0,1,0c0.2-0.7,0.1-1.5-0.4-2.1
						c1-0.1,1.9-0.4,2.9-0.7c0.5-0.2,0.9-0.3,1.4-0.5c0.5-0.2,1-0.4,1.3-0.8c0.4-0.5,0.5-1.5,1.2-1.6
						C179.9,119.1,180.3,119.9,181,120.1z"/>
					<linearGradient id="SVGID_7_" gradientUnits="userSpaceOnUse" x1="160.3641" y1="120.13" x2="253.0065" y2="177.857">
						<stop  offset="0" style="stop-color:#B2CEE3"/>
						<stop  offset="0.9677" style="stop-color:#60A0E1"/>
					</linearGradient>
					<path class="st8" d="M176.7,130.5c0.9-0.2,1.9-0.2,2.9-0.1c-0.7-0.6-1.4-1.2-2.2-1.8c-0.2-0.2-0.4-0.4-0.7-0.5
						c-0.6-0.3-1.4-0.3-2.1-0.2c-1.2,0.1-2.4,0.2-3.7,0.3c-0.1,0.5,0.6,0.8,1.2,0.8c0.6,0,1.3,0.1,1.4,0.6c0,0.3-0.2,0.6,0,0.8
						c0.1,0.3,0.6,0.3,0.9,0.4c0.5,0.1,0.8,0.5,1.1,0.8c0.4,0.3,1,0.5,1.3,0.2C176.8,131.4,176.7,131,176.7,130.5z"/>
					<linearGradient id="SVGID_8_" gradientUnits="userSpaceOnUse" x1="176.4453" y1="110.1837" x2="268.6994" y2="167.6687">
						<stop  offset="0" style="stop-color:#B2CEE3"/>
						<stop  offset="0.9677" style="stop-color:#60A0E1"/>
					</linearGradient>
					<path class="st9" d="M191.4,120c0.9,0.6,1.5,1.5,1.9,2.5c0.6,1,2,1.4,3,1c-0.2,0.1-0.4-0.2-0.3-0.4c0.1-0.2,0.4-0.2,0.6-0.2
						c0.4,0,0.8-0.1,1.2-0.1c0.3-0.6-0.2-1.4-0.8-1.7c-0.6-0.3-1.4-0.4-2.1-0.4c-0.7,0-1.5-0.1-2.1-0.4c-0.2-0.1-0.4-0.3-0.4-0.5
						C192.1,119.7,191.7,119.8,191.4,120z"/>
					<linearGradient id="SVGID_9_" gradientUnits="userSpaceOnUse" x1="160.7212" y1="120.388" x2="252.1283" y2="177.3452">
						<stop  offset="0" style="stop-color:#B2CEE3"/>
						<stop  offset="0.9677" style="stop-color:#60A0E1"/>
					</linearGradient>
					<path class="st10" d="M206.7,149.1c-1.2-0.2-2-1.5-1.5-2.6c0.6-0.2,1.3-0.2,1.8,0c-0.2,0.6,0.1,1.2,0.6,1.6
						c0.5,0.4,1.2,0.5,1.8,0.7c0,0.6-0.1,1.3-0.3,1.9c0.9-0.2,1.8,0.1,2.5,0.6c0.7,0.5,1.4,1.1,2.1,1.6c0.4,0.2,0.9,0.5,1.1,0.9
						c0.1,0.3,0.1,0.7,0.1,1.1c0,0.4,0.1,0.8,0.5,0.9c-1-0.6-2.1-1.3-3.3-1.7c-1.2-0.5-2.5-0.7-3.7-1.3c-0.1-0.4,0-0.8,0.2-1.1
						c-0.8,0-1.6-0.3-2.2-0.7C206.6,150.4,206.7,149.8,206.7,149.1z"/>
					<linearGradient id="SVGID_10_" gradientUnits="userSpaceOnUse" x1="162.652" y1="116.7993" x2="254.5956" y2="174.0909">
						<stop  offset="0" style="stop-color:#B2CEE3"/>
						<stop  offset="0.9677" style="stop-color:#60A0E1"/>
					</linearGradient>
					<path class="st11" d="M228.7,156.2c0.2,0,0.4,0.1,0.4,0.3c0.1,0.1,0,0.3,0,0.5c0,0.3,0.4,0.5,0.6,0.6c0.8,0.4,1.8,0.6,2.5,1.2
						c0.7,0.6,1.2,1.5,1,2.3c0.1-0.2-0.2-0.4-0.4-0.4c-2.2-0.5-4.3-1.1-6.4-1.8c-0.3-0.1-0.6-0.2-0.9-0.4c-0.8-0.7-0.7-1.9-0.6-2.9
						c-1.6-0.1-3.1-0.5-4.4-1.3c-0.4-0.2-0.8-0.6-0.8-1c-0.4-0.2-0.9-0.5-1.3-0.7c1.9-0.3,3.9-0.1,5.7,0.5c0.2,0.1,0.5,0.2,0.6,0.4
						c0.1,0.2,0.1,0.3,0.1,0.5c0.1,0.2,0.3,0.4,0.4,0.6C226.3,155.2,227.4,155.8,228.7,156.2z"/>
					<linearGradient id="SVGID_11_" gradientUnits="userSpaceOnUse" x1="175.1092" y1="99.9356" x2="265.9082" y2="156.5139">
						<stop  offset="0" style="stop-color:#B2CEE3"/>
						<stop  offset="0.9677" style="stop-color:#60A0E1"/>
					</linearGradient>
					<path class="st12" d="M251.1,148.9c-1,0.2-2.1-0.2-2.7-1c-0.6-0.8-0.7-1.9-0.2-2.7c0.4,0.2,0.8,0.4,1.2,0.5
						c0.1,0.1,0.2,0.1,0.4,0.1c0.3,0,0.4-0.3,0.6-0.5c0.3-0.3,0.7-0.5,1.1-0.4c0.2,0.7,0.6,1.3,1.3,1.7c1.5-0.6,3.2-0.5,4.7,0.2
						c-1.6,0.7-2.7,2.2-3,3.8c-0.1,0.4-0.1,0.8-0.2,1.1c-0.2,0.5-0.7,1.1-0.3,1.6C252.3,152.2,251.7,150.5,251.1,148.9z"/>
					<linearGradient id="SVGID_12_" gradientUnits="userSpaceOnUse" x1="172.172" y1="99.3564" x2="266.3292" y2="158.0273">
						<stop  offset="0" style="stop-color:#B2CEE3"/>
						<stop  offset="0.9677" style="stop-color:#60A0E1"/>
					</linearGradient>
					<path class="st13" d="M233,138.2c-0.2,0.1-0.3,0.1-0.5,0.1c-0.7,0-1.5-0.1-2.2-0.3c0.7-0.7,1.3-1.4,1.7-2.3
						c0.9,0.3,1.9,0.3,2.9,0.2c0.3,0.4,0.5,0.8,0.8,1.2c-0.8-0.1-1.6,0.2-2.2,0.8C233.3,138,233.1,138.1,233,138.2z"/>
					<linearGradient id="SVGID_13_" gradientUnits="userSpaceOnUse" x1="166.1379" y1="111.5984" x2="258.0694" y2="168.8824">
						<stop  offset="0" style="stop-color:#B2CEE3"/>
						<stop  offset="0.9677" style="stop-color:#60A0E1"/>
					</linearGradient>
					<path class="st14" d="M200.2,131.8c0.3,1,1.3,1.9,2.4,2c0,0.2,0,0.5,0,0.7c-1.3,0.2-2.6-0.3-3.6-1.1c-0.6-0.5-1.2-1.1-1.9-1.5
						c-0.7-0.4-1.5-0.5-2.3-0.7c0-0.4,0.1-0.8,0.1-1.3c1.6-0.6,3.5-0.3,4.7,0.8c0.1,0.1,0.3,0.2,0.3,0.4
						C200.1,131.3,200.1,131.6,200.2,131.8z"/>
					<linearGradient id="SVGID_14_" gradientUnits="userSpaceOnUse" x1="160.5078" y1="120.2372" x2="252.3895" y2="177.4901">
						<stop  offset="0" style="stop-color:#B2CEE3"/>
						<stop  offset="0.9677" style="stop-color:#60A0E1"/>
					</linearGradient>
					<path class="st15" d="M188.6,139.9c0.8,0.6,1.3,1.5,1.7,2.4c0.7-0.5,1.5-0.9,2.4-1.2c-0.5-0.5-1.1-0.9-1.6-1.4
						c0-0.6,0.7-1,1.3-0.8c0.7,1.6,3.4,2.1,3.5,3.8c1.1,0.1,2.3,0.2,3.4,0.5c0.2,0.1,0.4,0.1,0.6,0.3c0.1,0.1,0.2,0.3,0.3,0.4
						c0.1,0.2,0.3,0.2,0.5,0.3c1.1,0.4,2.3,0.8,3.4,1.3c-1.1-0.6-2.2-1.1-3.4-1.7c0.2-0.7-0.3-1.4-1-1.8c-0.6-0.4-1.4-0.7-1.8-1.3
						c-0.3-0.4-0.5-0.9-1-1.2c-0.2-0.1-0.5-0.2-0.8-0.3c-1.2-0.3-2.4-1-3.1-1.9c-0.2-0.2-0.3-0.4-0.5-0.6c-0.8-0.5-2,0.1-2.9-0.3
						c-0.7-0.3-1.2-1.3-2-1.1c-0.1,0.8-0.1,1.5-0.2,2.3c0.3-0.1,0.6,0.3,0.7,0.6c0,0.3,0,0.7,0.1,1
						C188.2,139.5,188.4,139.7,188.6,139.9z"/>
					<linearGradient id="SVGID_15_" gradientUnits="userSpaceOnUse" x1="155.5325" y1="127.8565" x2="250.4272" y2="186.987">
						<stop  offset="0" style="stop-color:#B2CEE3"/>
						<stop  offset="0.9677" style="stop-color:#60A0E1"/>
					</linearGradient>
					<path class="st16" d="M148.3,127.6c-0.3,0.6-1,0.8-1.6,0.9c-0.6,0.1-1.3,0-1.9,0.2c-0.9,0.3-1.4,1.2-1.3,2.1
						c1.1-0.3,2.1-0.6,3.2-0.8c0.2,0,0.3-0.1,0.4-0.2c0.1-0.1,0.1-0.3,0.1-0.4c0-0.7,0.6-1.2,1.2-1.5c2.1-1.2,4.7-1.5,7.1-1.7
						c1.5-0.1,3-0.3,4.5-0.4c0.8-0.1,1.9-0.4,1.8-1.2c-0.7-0.4-1.5-0.7-2.2-1.1c1.4-0.3,2.9-0.4,4.4-0.4c-1-0.7-2.1-1.5-3.1-2.2
						c-0.6,0-1.3,0-1.9,0.2c-0.6,0.2-1.1,0.8-1.1,1.4c0,0.3,0.1,0.7-0.1,0.9c-0.1,0.2-0.4,0.3-0.6,0.3c-1.5,0.5-3.1,1.1-4.6,1.6
						c-1,0.3-1.9,0.7-2.9,1c-0.3,0.1-0.7,0.2-0.9,0.5C148.4,126.9,148.4,127.3,148.3,127.6z"/>
					<linearGradient id="SVGID_16_" gradientUnits="userSpaceOnUse" x1="168.4918" y1="106.0934" x2="261.5387" y2="164.0724">
						<stop  offset="0" style="stop-color:#B2CEE3"/>
						<stop  offset="0.9677" style="stop-color:#60A0E1"/>
					</linearGradient>
					<path class="st17" d="M243.9,153.1c1.1,0.2,2.2,0,3.2-0.3c-0.9,0-1.8,0-2.7-0.2c-0.9-0.2-1.7-0.7-2.1-1.5c1-0.2,2-0.4,2.9-0.6
						c0.2-0.4-0.3-1-0.8-1.1c-0.5-0.1-1,0-1.6,0c-0.5,0-1-0.1-1.5-0.1c-0.5,0-1,0.2-1.3,0.6c-0.3,0.4-0.1,1,0.4,1.1
						c-0.9,0.5-2,0.7-3.1,0.6c0.3,0.3,0.3,0.8,0.4,1.2c0.3,0.9,1.5,1.5,2.5,1.1c0.6-0.2,1-0.8,1.6-1
						C242.6,152.8,243.2,153,243.9,153.1z"/>
					<linearGradient id="SVGID_17_" gradientUnits="userSpaceOnUse" x1="155.0439" y1="128.3363" x2="247.0165" y2="185.6459">
						<stop  offset="0" style="stop-color:#B2CEE3"/>
						<stop  offset="0.9677" style="stop-color:#60A0E1"/>
					</linearGradient>
					<path class="st18" d="M198.1,155.1c-0.7-0.3-1.4-0.7-2-1.2C196.7,154.2,197.4,154.6,198.1,155.1z"/>
					<linearGradient id="SVGID_18_" gradientUnits="userSpaceOnUse" x1="156.8874" y1="126.1462" x2="248.3995" y2="183.1689">
						<stop  offset="0" style="stop-color:#B2CEE3"/>
						<stop  offset="0.9677" style="stop-color:#60A0E1"/>
					</linearGradient>
					<path class="st19" d="M215.3,162.3c0.9,0.7,1.7,1.4,2.5,2.1C216.9,163.8,216,163.1,215.3,162.3z"/>
				</g>
				<g>
					<path class="st20" d="M390.2,152.8c-0.1,0-0.3,0-0.4,0c-0.1,0.1-0.1,0.2-0.1,0.3c0,0.4,0.1,0.8,0.2,1.2
						c1.8-0.1,3.6-1.1,4.4-2.7c-1-0.6-2.4-0.4-3.2,0.4C390.9,152.4,390.7,152.9,390.2,152.8z"/>
					<path class="st20" d="M319.4,168.5c-1.2,0-2.3,0-3.5,0.1c0.7,0.2,1.3,0.6,1.7,1.1c0.2,0.3,0.4,0.6,0.8,0.8
						c0.6,0.3,1.5-0.1,1.6-0.8c0.5-0.1,1,0,1.4,0.1c0.1-0.8-0.4-1.5-1-2c-0.6-0.5-1.4-0.7-2.2-1c0.1-0.5,0.2-1.1,0.1-1.6
						c-0.2-0.5-0.7-1-1.3-0.9c0,0.4,0,0.8,0,1.2c-1.4,0.2-2.9-0.6-4.2,0c0.4,0.8,1.4,1.3,2.3,1.7c0.2,0.1,0.4,0.2,0.7,0.3
						c0.2,0.1,0.3,0.2,0.5,0.1c0.2,0,0.4-0.1,0.5-0.2C317.8,166.9,319.2,167.5,319.4,168.5z"/>
					<path class="st20" d="M330.3,165.3c0.1,0.4-0.5,0.8-0.9,0.7c-0.5-0.1-0.7-0.7-0.6-1.1c0.1-0.7,1-1.2,1.7-1.1
						c0.3,0.1,0.6,0.2,0.9,0.3c0.3,0,0.7-0.1,0.7-0.4c0.5,0.1,1,0.1,1.5,0.2c-0.1,0.6,0.2,1.2,0.7,1.6c-1-0.2-2.2,0.9-3.1,0.3
						C330.9,165.6,330.6,165.3,330.3,165.3z"/>
					<path class="st20" d="M322.4,165.5c0.5,0.1,1-0.1,1.4,0.2c0.3,0.2,0.4,0.5,0.7,0.7c0.3,0.2,0.6,0.1,0.9,0.1
						c1.5,0,3,0.4,4.3,1.1c-0.9,0.9-2.3,1.5-3.6,1.2c-1.1-0.2-2-0.9-3-1.1c-0.4-0.1-0.8-0.1-1.2-0.3c-0.5-0.3-0.7-0.9-0.7-1.4
						c-0.1-0.7,0-1.4,0.2-2.1C321.5,164.5,321.7,165.3,322.4,165.5z"/>
					<path class="st20" d="M352.6,165.7c0.2,0.4,0.2,0.8,0.2,1.3c0.5,0,1,0.1,1.4,0.5c-1.1,0.5-1.6,1.7-2.4,2.5
						c-0.8,1-2,1.6-3.3,1.9c0.6-0.9,1.2-1.8,1.8-2.7c0.4-0.6,0.8-1.2,0.7-1.9c0-0.4-0.2-0.7-0.4-1.1
						C351.1,165.8,351.9,165.6,352.6,165.7z"/>
					<path class="st20" d="M355.2,167.8c0.8-0.6,1.7-1.2,2.5-1.9c0.5-0.4,1.1-0.8,1.7-0.6c0.6-1,1.6-1.7,2.8-1.9
						c1.1-0.2,2.2,0,3.2-0.2c-2.4,1.7-4.8,3.4-7.5,4.6C356.6,168.5,356.6,167.4,355.2,167.8z"/>
				</g>
			</g>
		</g>
	</g>
</g>
</svg>
