<?xml version="1.0" encoding="utf-8"?>
<!-- Generator: Adobe Illustrator 23.0.4, SVG Export Plug-In . SVG Version: 6.00 Build 0)  -->
<svg version="1.1" id="OBJECTS" xmlns="http://www.w3.org/2000/svg" xmlns:xlink="http://www.w3.org/1999/xlink" x="0px" y="0px"
	 viewBox="0 0 593.7 396.6" style="enable-background:new 0 0 593.7 396.6;" xml:space="preserve">
<style type="text/css">
	.st0{clip-path:url(#SVGID_2_);fill:#8C9DB4;}
	.st1{clip-path:url(#SVGID_2_);fill:#646C7E;}
	.st2{clip-path:url(#SVGID_2_);fill:#326798;}
	.st3{clip-path:url(#SVGID_2_);fill:url(#SVGID_3_);}
	.st4{clip-path:url(#SVGID_2_);fill:url(#SVGID_4_);}
	.st5{clip-path:url(#SVGID_2_);}
	.st6{fill:none;stroke:#77AEE2;stroke-width:0.7348;stroke-linecap:round;stroke-linejoin:round;stroke-miterlimit:10;}
	.st7{clip-path:url(#SVGID_2_);fill:#8FB9F3;}
</style>
<g>
	<g>
		<defs>
			<rect id="SVGID_1_" x="-1.1" y="0" width="595" height="396.5"/>
		</defs>
		<clipPath id="SVGID_2_">
			<use xlink:href="#SVGID_1_"  style="overflow:visible;"/>
		</clipPath>
		<rect x="-8.6" y="285.1" class="st0" width="612.7" height="6"/>
		<rect x="-9.9" y="291" class="st1" width="612.7" height="7.9"/>
		<rect x="-9.9" y="298.8" class="st2" width="609.9" height="15"/>
		<linearGradient id="SVGID_3_" gradientUnits="userSpaceOnUse" x1="212.472" y1="169.2057" x2="219.9794" y2="169.2057">
			<stop  offset="0" style="stop-color:#B2CEE3"/>
			<stop  offset="0.9677" style="stop-color:#60A0E1"/>
		</linearGradient>
		<path class="st3" d="M220,171.9c-2.8-1.5-5.3-3.4-7.5-5.5C215.1,168.2,217.6,170,220,171.9z"/>
		<linearGradient id="SVGID_4_" gradientUnits="userSpaceOnUse" x1="294.0692" y1="437.3149" x2="294.0692" y2="322.7428">
			<stop  offset="0" style="stop-color:#B0C5B4"/>
			<stop  offset="0.9677" style="stop-color:#1B7787"/>
		</linearGradient>
		<rect x="-11.6" y="313.7" class="st4" width="611.3" height="86.9"/>
		<g class="st5">
			<g>
				<line class="st6" x1="61.7" y1="338.8" x2="96" y2="338.8"/>
				<line class="st6" x1="143.5" y1="342.7" x2="167.8" y2="342.7"/>
				<line class="st6" x1="119.3" y1="354.4" x2="141.7" y2="354.4"/>
				<line class="st6" x1="167.8" y1="354.4" x2="202.9" y2="354.4"/>
				<line class="st6" x1="255.1" y1="331.9" x2="281.6" y2="331.9"/>
				<line class="st6" x1="302.8" y1="342.7" x2="328.1" y2="342.7"/>
				<line class="st6" x1="316.8" y1="354.4" x2="344.8" y2="354.4"/>
				<line class="st6" x1="385.6" y1="342.7" x2="416.4" y2="342.7"/>
				<line class="st6" x1="379.5" y1="354.4" x2="399.9" y2="354.4"/>
				<line class="st6" x1="475.5" y1="331.9" x2="504.2" y2="331.9"/>
				<line class="st6" x1="481.1" y1="349.5" x2="504.2" y2="349.5"/>
				<line class="st6" x1="461.2" y1="342.7" x2="481.1" y2="342.7"/>
				<line class="st6" x1="539" y1="342.7" x2="561.1" y2="342.7"/>
				<line class="st6" x1="500" y1="368" x2="533.7" y2="368"/>
				<line class="st6" x1="297.5" y1="378.7" x2="312.6" y2="378.7"/>
				<line class="st6" x1="328.1" y1="373.9" x2="339" y2="373.9"/>
				<line class="st6" x1="204" y1="375.8" x2="212.5" y2="375.8"/>
				<line class="st6" x1="123.5" y1="375.8" x2="134.9" y2="375.8"/>
				<line class="st6" x1="46.2" y1="384.6" x2="64.3" y2="384.6"/>
				<line class="st6" x1="38.4" y1="368" x2="56.2" y2="368"/>
				<line class="st6" x1="40.8" y1="354.4" x2="54.5" y2="354.4"/>
				<line class="st6" x1="11.3" y1="342.7" x2="28.4" y2="342.7"/>
				<line class="st6" x1="11.3" y1="360.7" x2="18.1" y2="360.7"/>
				<line class="st6" x1="82.4" y1="354.4" x2="91.6" y2="354.4"/>
				<line class="st6" x1="77.2" y1="349.5" x2="86.4" y2="349.5"/>
				<line class="st6" x1="54.5" y1="331.9" x2="66" y2="331.9"/>
				<line class="st6" x1="86.4" y1="331.9" x2="96" y2="331.9"/>
				<line class="st6" x1="119.3" y1="331.9" x2="126.8" y2="331.9"/>
				<line class="st6" x1="146.3" y1="331.9" x2="151.6" y2="331.9"/>
				<line class="st6" x1="175.2" y1="331.9" x2="181.1" y2="331.9"/>
				<line class="st6" x1="207.3" y1="331.9" x2="211.3" y2="331.9"/>
				<line class="st6" x1="202.9" y1="338.8" x2="207.3" y2="338.8"/>
				<line class="st6" x1="190.2" y1="327.1" x2="202.5" y2="327.1"/>
				<line class="st6" x1="222.8" y1="327.1" x2="228.3" y2="327.1"/>
				<line class="st6" x1="225.9" y1="338.8" x2="233.7" y2="338.8"/>
				<line class="st6" x1="67.7" y1="327.1" x2="77.2" y2="327.1"/>
				<line class="st6" x1="28.4" y1="334.9" x2="40.1" y2="334.9"/>
				<line class="st6" x1="11.3" y1="327.1" x2="22.6" y2="327.1"/>
			</g>
			<line class="st6" x1="402.6" y1="368" x2="412.1" y2="368"/>
			<line class="st6" x1="412.7" y1="360.7" x2="425.4" y2="360.7"/>
			<line class="st6" x1="425.4" y1="351.9" x2="435.8" y2="351.9"/>
			<line class="st6" x1="430.9" y1="342.7" x2="440.5" y2="342.7"/>
			<line class="st6" x1="357.4" y1="342.7" x2="361.9" y2="342.7"/>
			<line class="st6" x1="339" y1="331.9" x2="345" y2="331.9"/>
			<line class="st6" x1="277.9" y1="349.5" x2="283.9" y2="349.5"/>
			<line class="st6" x1="233.7" y1="349.5" x2="239" y2="349.5"/>
			<line class="st6" x1="228.3" y1="360.7" x2="233.7" y2="360.7"/>
			<line class="st6" x1="243.5" y1="364.6" x2="249.9" y2="364.6"/>
			<line class="st6" x1="291.9" y1="368" x2="299.3" y2="368"/>
			<line class="st6" x1="312.6" y1="364.6" x2="318.3" y2="364.6"/>
			<line class="st6" x1="296.4" y1="358.8" x2="302.8" y2="358.8"/>
			<line class="st6" x1="299.6" y1="351.9" x2="306.4" y2="351.9"/>
			<line class="st6" x1="350.7" y1="370" x2="359.6" y2="370"/>
			<line class="st6" x1="355.2" y1="360.7" x2="361.7" y2="360.7"/>
			<line class="st6" x1="434" y1="382.2" x2="440.5" y2="382.2"/>
			<line class="st6" x1="437.5" y1="388" x2="448.6" y2="388"/>
			<line class="st6" x1="440.5" y1="378.7" x2="447.3" y2="378.7"/>
			<line class="st6" x1="464.8" y1="371.9" x2="471.2" y2="371.9"/>
			<line class="st6" x1="429.1" y1="364.6" x2="435.8" y2="364.6"/>
			<line class="st6" x1="459.3" y1="364.6" x2="464.8" y2="364.6"/>
			<line class="st6" x1="475.5" y1="360.7" x2="481.1" y2="360.7"/>
			<line class="st6" x1="525.9" y1="356.3" x2="532.5" y2="356.3"/>
			<line class="st6" x1="557.5" y1="364.6" x2="564.7" y2="364.6"/>
			<line class="st6" x1="541.4" y1="375.8" x2="547.6" y2="375.8"/>
			<line class="st6" x1="508.8" y1="378.7" x2="511.9" y2="378.7"/>
			<line class="st6" x1="489.8" y1="384.6" x2="495.9" y2="384.6"/>
			<line class="st6" x1="518.3" y1="342.7" x2="525.9" y2="342.7"/>
			<line class="st6" x1="495.9" y1="342.7" x2="498.7" y2="342.7"/>
			<line class="st6" x1="529.2" y1="331.9" x2="540.2" y2="331.9"/>
			<line class="st6" x1="536.8" y1="336.8" x2="547.6" y2="336.8"/>
			<line class="st6" x1="557.5" y1="338.8" x2="574" y2="338.8"/>
			<line class="st6" x1="574" y1="349.5" x2="578.7" y2="349.5"/>
			<line class="st6" x1="574" y1="364.6" x2="577.9" y2="364.6"/>
			<line class="st6" x1="568.9" y1="378.7" x2="577.9" y2="378.7"/>
			<line class="st6" x1="544.5" y1="358.8" x2="553" y2="358.8"/>
			<line class="st6" x1="381.3" y1="336.8" x2="387.2" y2="336.8"/>
			<line class="st6" x1="350.7" y1="338.8" x2="357.4" y2="338.8"/>
			<line class="st6" x1="425.4" y1="336.8" x2="434" y2="336.8"/>
			<line class="st6" x1="412.7" y1="327.1" x2="425.4" y2="327.1"/>
			<line class="st6" x1="385.6" y1="382.2" x2="394.4" y2="382.2"/>
			<line class="st6" x1="263.3" y1="384.6" x2="274.9" y2="384.6"/>
			<line class="st6" x1="199.2" y1="364.6" x2="205.1" y2="364.6"/>
			<line class="st6" x1="218.6" y1="370" x2="224.3" y2="370"/>
			<line class="st6" x1="218.6" y1="354.4" x2="222" y2="354.4"/>
			<line class="st6" x1="263.3" y1="364.6" x2="271.5" y2="364.6"/>
			<line class="st6" x1="246.7" y1="373.9" x2="252.4" y2="373.9"/>
			<line class="st6" x1="239" y1="388" x2="247.5" y2="388"/>
			<line class="st6" x1="255.1" y1="354.4" x2="260.6" y2="354.4"/>
			<line class="st6" x1="101.9" y1="373.9" x2="112.6" y2="373.9"/>
			<line class="st6" x1="93" y1="378.7" x2="101.9" y2="378.7"/>
			<line class="st6" x1="87" y1="370" x2="93" y2="370"/>
			<line class="st6" x1="126.8" y1="364.6" x2="132.9" y2="364.6"/>
			<line class="st6" x1="143.5" y1="373.9" x2="149.7" y2="373.9"/>
			<line class="st6" x1="143.5" y1="382.2" x2="151.6" y2="382.2"/>
			<line class="st6" x1="167.8" y1="382.2" x2="175.2" y2="382.2"/>
			<line class="st6" x1="171.5" y1="368" x2="177.5" y2="368"/>
			<line class="st6" x1="185.3" y1="384.6" x2="199.2" y2="384.6"/>
			<line class="st6" x1="185.3" y1="345.1" x2="190.2" y2="345.1"/>
			<line class="st6" x1="116.7" y1="349.5" x2="121.4" y2="349.5"/>
			<line class="st6" x1="109.5" y1="356.3" x2="112.6" y2="356.3"/>
			<line class="st6" x1="260.6" y1="345.1" x2="266" y2="345.1"/>
			<line class="st6" x1="573" y1="360.7" x2="581.3" y2="360.7"/>
			<line class="st6" x1="558" y1="354.9" x2="562.2" y2="354.9"/>
			<line class="st6" x1="552.3" y1="349.5" x2="560.1" y2="349.5"/>
			<line class="st6" x1="583.9" y1="344.6" x2="589.1" y2="344.6"/>
			<line class="st6" x1="583.9" y1="333.4" x2="588.6" y2="333.4"/>
			<line class="st6" x1="452.9" y1="351.9" x2="458.7" y2="351.9"/>
			<line class="st6" x1="463.8" y1="383.6" x2="474.7" y2="383.6"/>
			<line class="st6" x1="509.9" y1="388" x2="517.6" y2="388"/>
			<line class="st6" x1="481.4" y1="374.8" x2="489.7" y2="374.8"/>
			<line class="st6" x1="547.1" y1="387" x2="553.9" y2="387"/>
			<line class="st6" x1="550.7" y1="381.2" x2="557.6" y2="381.2"/>
			<line class="st6" x1="389.3" y1="372.9" x2="393.9" y2="372.9"/>
			<line class="st6" x1="416.2" y1="381.7" x2="427.1" y2="381.7"/>
			<line class="st6" x1="357.7" y1="386.1" x2="361.9" y2="386.1"/>
			<line class="st6" x1="333.4" y1="386.6" x2="339.6" y2="386.6"/>
			<line class="st6" x1="330.8" y1="366.1" x2="339.1" y2="366.1"/>
			<line class="st6" x1="353.1" y1="353.4" x2="359.3" y2="353.4"/>
			<line class="st6" x1="369.1" y1="346.1" x2="377.4" y2="346.1"/>
			<line class="st6" x1="368.6" y1="336.8" x2="371.2" y2="336.8"/>
			<line class="st6" x1="437.4" y1="330" x2="447.2" y2="330"/>
			<line class="st6" x1="449.8" y1="339.7" x2="457.7" y2="339.7"/>
		</g>
		<rect x="-11.6" y="313.7" class="st7" width="615.7" height="1.3"/>
	</g>
</g>
</svg>
