<svg width="426" height="369" viewBox="0 0 426 369" fill="none" xmlns="http://www.w3.org/2000/svg">
<g clip-path="url(#clip0)">
<path fill-rule="evenodd" clip-rule="evenodd" d="M36.35 256.42C44.8255 256.457 52.9435 259.84 58.9367 265.833C64.9299 271.826 68.3131 279.944 68.35 288.42V288.42C68.3948 303.908 74.5673 318.749 85.5191 329.701C96.4709 340.653 111.312 346.825 126.8 346.87H348.32C368.433 346.812 387.706 338.799 401.932 324.581C416.158 310.362 424.181 291.093 424.25 270.98V270.98C424.192 250.86 416.174 231.581 401.946 217.353C387.719 203.126 368.44 195.108 348.32 195.05V195.05C344.282 195.037 340.413 193.427 337.558 190.572C334.703 187.717 333.093 183.848 333.08 179.81C333.093 175.772 334.703 171.903 337.558 169.048C340.413 166.193 344.282 164.583 348.32 164.57H388.06C397.861 164.53 407.249 160.62 414.179 153.689C421.11 146.759 425.02 137.371 425.06 127.57V127.57C425.018 117.77 421.106 108.383 414.176 101.454C407.247 94.5238 397.86 90.6121 388.06 90.57H351.91C343.434 90.5358 335.314 87.1534 329.32 81.1596C323.327 75.1658 319.944 67.0464 319.91 58.57V58.57C319.865 43.0819 313.693 28.2409 302.741 17.2891C291.789 6.33735 276.948 0.164846 261.46 0.119995H76.06C55.939 0.178026 36.6586 8.19609 22.4299 22.4229C8.20124 36.6497 0.180653 55.929 0.119972 76.05V76.05C0.180653 96.1709 8.20124 115.45 22.4299 129.677C36.6586 143.904 55.939 151.922 76.06 151.98C80.0858 151.985 83.9472 153.578 86.806 156.412C89.6649 159.247 91.2905 163.094 91.33 167.12V167.12C91.3168 171.158 89.7069 175.027 86.8517 177.882C83.9965 180.737 80.1278 182.347 76.09 182.36H36.35C-12.12 182.34 -12.12 256.42 36.35 256.42Z" fill="#FEF6C9"/>
<path fill-rule="evenodd" clip-rule="evenodd" d="M266.19 61.03C266.086 60.9374 266 60.8252 265.939 60.6997C265.878 60.5742 265.843 60.4379 265.834 60.2986C265.826 60.1593 265.845 60.0198 265.891 59.8879C265.936 59.756 266.007 59.6344 266.1 59.53C266.193 59.4256 266.305 59.3405 266.43 59.2794C266.556 59.2184 266.692 59.1827 266.831 59.1743C266.971 59.166 267.11 59.1851 267.242 59.2307C267.374 59.2763 267.496 59.3474 267.6 59.44C268.14 59.92 268.67 60.44 269.19 60.9C269.292 60.9959 269.374 61.1108 269.431 61.2383C269.488 61.3659 269.52 61.5034 269.524 61.6432C269.528 61.7829 269.505 61.9221 269.455 62.0528C269.406 62.1836 269.331 62.3032 269.235 62.405C269.139 62.5068 269.024 62.5887 268.897 62.646C268.769 62.7033 268.632 62.735 268.492 62.7392C268.352 62.7434 268.213 62.72 268.082 62.6704C267.951 62.6207 267.832 62.5459 267.73 62.45C267.22 61.97 266.73 61.45 266.19 61.03V61.03ZM169.84 304.71C170.061 304.716 170.275 304.791 170.452 304.923C170.629 305.056 170.761 305.24 170.829 305.451C170.897 305.661 170.898 305.888 170.832 306.099C170.766 306.31 170.636 306.496 170.46 306.63C170.267 306.767 170.037 306.841 169.8 306.84H168.92H167.8H167.65C167.415 306.836 167.189 306.755 167.005 306.609C166.821 306.464 166.69 306.262 166.632 306.035C166.574 305.807 166.592 305.567 166.684 305.351C166.776 305.136 166.936 304.956 167.14 304.84C167.32 304.731 167.529 304.679 167.74 304.69H168.96H169.84V304.71ZM161.44 304.25C161.703 304.301 161.938 304.449 162.097 304.665C162.256 304.881 162.328 305.149 162.299 305.416C162.27 305.682 162.142 305.928 161.941 306.105C161.739 306.282 161.478 306.376 161.21 306.37L160.21 306.26L159.03 306.13C158.818 306.102 158.619 306.011 158.46 305.869C158.301 305.726 158.188 305.539 158.137 305.331C158.087 305.123 158.1 304.905 158.175 304.705C158.251 304.505 158.385 304.332 158.56 304.21C158.666 304.13 158.787 304.072 158.916 304.04C159.045 304.007 159.179 304 159.31 304.02L160.44 304.15L161.44 304.25V304.25ZM153.11 303.03C153.367 303.105 153.586 303.274 153.724 303.503C153.862 303.732 153.91 304.005 153.857 304.267C153.804 304.53 153.655 304.763 153.439 304.921C153.223 305.078 152.956 305.15 152.69 305.12L152.05 305L151.05 304.79L150.56 304.68C150.35 304.621 150.163 304.498 150.024 304.329C149.885 304.161 149.802 303.953 149.784 303.736C149.767 303.518 149.817 303.3 149.927 303.111C150.037 302.923 150.202 302.772 150.4 302.68C150.605 302.616 150.825 302.616 151.03 302.68L151.5 302.79L152.5 302.99L153.13 303.11L153.11 303.03ZM144.96 301.03C145.186 301.106 145.381 301.256 145.512 301.456C145.643 301.656 145.704 301.893 145.684 302.131C145.665 302.37 145.566 302.594 145.404 302.77C145.242 302.945 145.026 303.062 144.79 303.1C144.632 303.135 144.468 303.135 144.31 303.1L143.45 302.84L142.54 302.54L142.26 302.45C142.097 302.391 141.951 302.293 141.832 302.167C141.714 302.04 141.628 301.887 141.58 301.72C141.53 301.533 141.531 301.335 141.584 301.148C141.638 300.962 141.741 300.793 141.883 300.661C142.024 300.528 142.2 300.437 142.389 300.396C142.579 300.355 142.776 300.367 142.96 300.43L143.21 300.52L144.1 300.81L144.96 301.07V301.03ZM137.08 298.15C137.207 298.207 137.322 298.289 137.418 298.39C137.514 298.492 137.589 298.611 137.638 298.742C137.688 298.872 137.712 299.011 137.708 299.151C137.704 299.29 137.672 299.428 137.615 299.555C137.558 299.682 137.476 299.797 137.375 299.893C137.273 299.989 137.154 300.064 137.023 300.113C136.893 300.163 136.754 300.187 136.614 300.183C136.475 300.179 136.337 300.147 136.21 300.09L135.49 299.78L134.65 299.4L134.25 299.21C134.052 299.104 133.893 298.939 133.795 298.737C133.696 298.536 133.663 298.309 133.701 298.088C133.738 297.867 133.844 297.663 134.004 297.506C134.164 297.348 134.369 297.245 134.59 297.21C134.785 297.19 134.981 297.221 135.16 297.3L135.54 297.48L136.36 297.85L137.08 298.17V298.15ZM129.58 294.38C129.796 294.5 129.963 294.69 130.055 294.919C130.146 295.148 130.156 295.402 130.082 295.637C130.008 295.873 129.854 296.075 129.648 296.21C129.442 296.346 129.195 296.406 128.95 296.38C128.792 296.359 128.639 296.308 128.5 296.23L128.19 296.05L127.41 295.59L126.65 295.12C126.417 295.01 126.232 294.819 126.129 294.582C126.027 294.345 126.015 294.079 126.094 293.834C126.174 293.589 126.34 293.381 126.562 293.249C126.784 293.118 127.047 293.072 127.3 293.12C127.471 293.131 127.636 293.186 127.78 293.28L128.51 293.73L129.26 294.17L129.58 294.36V294.38ZM122.58 289.74C122.771 289.893 122.904 290.108 122.956 290.347C123.008 290.586 122.977 290.836 122.867 291.055C122.757 291.274 122.575 291.449 122.351 291.55C122.128 291.651 121.877 291.672 121.64 291.61C121.508 291.577 121.386 291.515 121.28 291.43L120.82 291.08L120.13 290.54L119.55 290.12C119.428 290.037 119.325 289.929 119.247 289.804C119.169 289.678 119.117 289.538 119.096 289.392C119.074 289.246 119.083 289.097 119.122 288.955C119.161 288.813 119.229 288.68 119.322 288.565C119.415 288.45 119.53 288.356 119.661 288.288C119.792 288.22 119.936 288.179 120.083 288.169C120.23 288.16 120.378 288.18 120.517 288.23C120.656 288.28 120.783 288.359 120.89 288.46L121.42 288.88L122.08 289.4L122.55 289.75L122.58 289.74ZM116.21 284.29C116.412 284.488 116.526 284.757 116.529 285.039C116.532 285.322 116.423 285.593 116.225 285.795C116.027 285.997 115.758 286.111 115.476 286.114C115.193 286.117 114.922 286.008 114.72 285.81L114.29 285.39L113.68 284.78L113.2 284.28C113.084 284.168 112.997 284.029 112.947 283.876C112.896 283.722 112.884 283.559 112.91 283.4C112.936 283.202 113.018 283.015 113.146 282.861C113.274 282.707 113.443 282.593 113.634 282.531C113.824 282.469 114.028 282.463 114.222 282.512C114.416 282.561 114.592 282.665 114.73 282.81L115.2 283.28L115.78 283.87L116.21 284.29V284.29ZM110.55 278.12C110.673 278.262 110.753 278.436 110.781 278.622C110.809 278.808 110.785 278.998 110.71 279.17C110.642 279.344 110.529 279.497 110.383 279.613C110.237 279.73 110.063 279.805 109.878 279.833C109.694 279.86 109.505 279.838 109.331 279.769C109.158 279.7 109.006 279.587 108.89 279.44L108.58 279.06L108.05 278.39L107.56 277.75C107.441 277.591 107.369 277.402 107.352 277.204C107.334 277.006 107.372 276.807 107.462 276.629C107.551 276.452 107.688 276.303 107.857 276.198C108.026 276.094 108.221 276.04 108.42 276.04C108.582 276.044 108.742 276.083 108.887 276.156C109.032 276.228 109.16 276.332 109.26 276.46L109.74 277.09L110.24 277.73L110.55 278.12ZM105.69 271.29C105.839 271.53 105.886 271.819 105.821 272.094C105.756 272.369 105.585 272.606 105.345 272.755C105.105 272.904 104.816 272.951 104.541 272.886C104.266 272.821 104.028 272.65 103.88 272.41L103.71 272.13L103.27 271.41L102.76 270.55C102.691 270.429 102.647 270.295 102.629 270.156C102.612 270.017 102.623 269.877 102.66 269.742C102.697 269.608 102.76 269.481 102.846 269.371C102.932 269.261 103.038 269.169 103.16 269.1C103.281 269.031 103.415 268.987 103.554 268.97C103.693 268.952 103.833 268.963 103.968 269C104.102 269.037 104.228 269.1 104.339 269.186C104.449 269.272 104.541 269.379 104.61 269.5L105.09 270.31L105.52 271.01L105.69 271.29V271.29ZM101.69 263.92C101.782 264.11 101.816 264.323 101.785 264.531C101.755 264.74 101.663 264.935 101.52 265.09C101.403 265.221 101.255 265.32 101.09 265.379C100.926 265.439 100.748 265.457 100.575 265.431C100.402 265.405 100.237 265.337 100.097 265.232C99.9563 265.127 99.844 264.989 99.77 264.83L99.36 263.95L99.01 263.18L98.87 262.87C98.7796 262.651 98.7643 262.409 98.8263 262.181C98.8883 261.953 99.0242 261.751 99.2127 261.608C99.4013 261.466 99.6318 261.389 99.8683 261.391C100.105 261.393 100.334 261.474 100.52 261.62C100.652 261.726 100.755 261.863 100.82 262.02L100.95 262.32L101.29 263.06L101.69 263.92V263.92ZM98.55 256.12C98.6199 256.34 98.6168 256.577 98.541 256.795C98.4653 257.013 98.321 257.201 98.1298 257.33C97.9385 257.46 97.7105 257.524 97.4798 257.513C97.2492 257.502 97.0282 257.417 96.85 257.27C96.6985 257.145 96.5872 256.978 96.53 256.79L96.28 256.05L96.01 255.25L95.86 254.75C95.8202 254.499 95.8718 254.242 96.0055 254.026C96.1392 253.81 96.3461 253.649 96.5884 253.573C96.8307 253.497 97.0924 253.51 97.3258 253.61C97.5592 253.711 97.7488 253.892 97.86 254.12L98.01 254.6L98.27 255.38L98.55 256.12ZM96.25 248.04C96.3034 248.269 96.2791 248.509 96.181 248.723C96.0829 248.937 95.9166 249.112 95.7081 249.22C95.4997 249.329 95.261 249.366 95.0296 249.324C94.7983 249.282 94.5873 249.165 94.43 248.99C94.296 248.857 94.2054 248.686 94.17 248.5L94.03 247.88L93.85 247.05L93.72 246.39C93.6792 246.16 93.7149 245.922 93.8218 245.714C93.9287 245.506 94.1007 245.339 94.3117 245.238C94.5227 245.137 94.7609 245.108 94.99 245.155C95.219 245.203 95.4263 245.324 95.58 245.5C95.6938 245.639 95.7726 245.804 95.81 245.98L95.93 246.61L96.11 247.42L96.25 248.04V248.04ZM94.81 239.76C94.8339 239.96 94.797 240.162 94.7043 240.34C94.6115 240.519 94.4671 240.665 94.29 240.76C94.1373 240.85 93.9647 240.899 93.7878 240.905C93.6109 240.911 93.4354 240.872 93.2774 240.793C93.1193 240.713 92.9836 240.595 92.8828 240.45C92.7819 240.304 92.7191 240.136 92.7 239.96L92.63 239.43L92.54 238.58L92.47 237.82C92.4448 237.539 92.5323 237.259 92.7133 237.043C92.8942 236.826 93.1539 236.69 93.435 236.665C93.7161 236.64 93.9957 236.727 94.2123 236.908C94.4289 237.089 94.5648 237.349 94.59 237.63L94.66 238.36L94.75 239.19L94.81 239.72V239.76ZM94.23 231.38C94.2376 231.631 94.1563 231.876 94.0004 232.072C93.8445 232.268 93.6241 232.403 93.3783 232.452C93.1326 232.501 92.8774 232.462 92.658 232.34C92.4386 232.219 92.2692 232.024 92.18 231.79C92.1333 231.665 92.1063 231.533 92.1 231.4V229.25C92.1256 228.985 92.2489 228.74 92.4458 228.561C92.6427 228.382 92.8991 228.283 93.165 228.283C93.4309 228.283 93.6872 228.382 93.8841 228.561C94.081 228.74 94.2043 228.985 94.23 229.25V231.36V231.38ZM94.5 222.97C94.4792 223.185 94.394 223.388 94.2556 223.553C94.1173 223.719 93.9322 223.838 93.7247 223.897C93.5171 223.955 93.2968 223.949 93.0925 223.88C92.8883 223.811 92.7096 223.682 92.58 223.51C92.4313 223.301 92.3606 223.046 92.38 222.79V222.27L92.46 221.41L92.54 220.65C92.5597 220.425 92.6549 220.214 92.81 220.05C92.9621 219.886 93.162 219.773 93.3814 219.729C93.6008 219.684 93.8286 219.709 94.0329 219.801C94.2372 219.893 94.4076 220.046 94.5201 220.24C94.6326 220.433 94.6815 220.657 94.66 220.88L94.58 221.62L94.5 222.46V222.97V222.97ZM95.6 214.64C95.5667 214.806 95.4951 214.962 95.391 215.096C95.2868 215.23 95.153 215.337 95 215.41C94.822 215.49 94.6255 215.519 94.4319 215.496C94.2383 215.472 94.0549 215.396 93.9015 215.275C93.7481 215.155 93.6305 214.995 93.5615 214.812C93.4925 214.63 93.4747 214.432 93.51 214.24L93.62 213.65L93.78 212.79L93.92 212.13C93.9489 211.993 94.0044 211.864 94.0833 211.749C94.1623 211.634 94.2631 211.535 94.3801 211.459C94.4971 211.383 94.628 211.331 94.7652 211.305C94.9025 211.279 95.0434 211.281 95.18 211.31C95.3166 211.339 95.4461 211.394 95.5612 211.473C95.6763 211.552 95.7748 211.653 95.8509 211.77C95.9271 211.887 95.9794 212.018 96.005 212.155C96.0306 212.292 96.0289 212.433 96 212.57L95.87 213.21L95.71 214.05L95.6 214.64V214.64ZM97.52 206.46C97.5 206.613 97.4469 206.759 97.3645 206.889C97.2822 207.019 97.1724 207.13 97.043 207.213C96.9135 207.297 96.7674 207.351 96.6149 207.372C96.4624 207.393 96.307 207.381 96.1597 207.336C96.0124 207.291 95.8767 207.215 95.7619 207.112C95.6472 207.009 95.5562 206.883 95.4953 206.741C95.4345 206.6 95.4051 206.447 95.4094 206.293C95.4136 206.139 95.4514 205.988 95.52 205.85L95.73 205.12L95.98 204.28L96.13 203.79C96.2046 203.564 96.3528 203.369 96.5509 203.236C96.749 203.103 96.9857 203.041 97.2235 203.058C97.4612 203.075 97.6864 203.171 97.8633 203.331C98.0402 203.491 98.1587 203.705 98.2 203.94C98.2423 204.104 98.2423 204.276 98.2 204.44L98.06 204.9L97.81 205.73L97.6 206.46H97.52ZM100.24 198.46C100.181 198.622 100.081 198.767 99.9493 198.879C99.8179 198.991 99.6596 199.067 99.49 199.1C99.3004 199.146 99.1019 199.138 98.9164 199.078C98.7308 199.018 98.5654 198.909 98.4382 198.761C98.3111 198.613 98.2271 198.433 98.1957 198.24C98.1642 198.048 98.1865 197.851 98.26 197.67L98.64 196.74L98.98 195.92L99.08 195.67C99.1605 195.487 99.2908 195.33 99.4561 195.217C99.6214 195.104 99.815 195.04 100.015 195.031C100.215 195.023 100.413 195.071 100.587 195.17C100.762 195.268 100.904 195.414 101 195.59C101.069 195.735 101.105 195.894 101.105 196.055C101.105 196.216 101.069 196.375 101 196.52L100.9 196.75L100.57 197.55L100.2 198.46H100.24ZM103.73 190.82C103.614 191.024 103.434 191.184 103.219 191.276C103.003 191.368 102.763 191.386 102.535 191.328C102.308 191.27 102.106 191.139 101.961 190.955C101.815 190.771 101.734 190.544 101.73 190.31C101.735 190.143 101.776 189.98 101.85 189.83L102.06 189.44L102.48 188.64L102.87 187.93C102.928 187.795 103.013 187.673 103.121 187.573C103.228 187.473 103.356 187.396 103.494 187.347C103.633 187.299 103.781 187.28 103.927 187.291C104.074 187.303 104.217 187.345 104.346 187.414C104.476 187.484 104.589 187.58 104.68 187.696C104.77 187.812 104.836 187.945 104.872 188.088C104.908 188.23 104.914 188.379 104.889 188.524C104.865 188.669 104.811 188.807 104.73 188.93L104.35 189.62L103.94 190.4L103.74 190.79L103.73 190.82ZM107.97 183.56C107.893 183.676 107.793 183.776 107.677 183.854C107.561 183.931 107.431 183.986 107.294 184.013C107.157 184.04 107.016 184.041 106.879 184.013C106.742 183.986 106.611 183.932 106.495 183.855C106.379 183.778 106.279 183.678 106.201 183.562C106.123 183.446 106.069 183.316 106.042 183.179C106.015 183.042 106.014 182.901 106.042 182.764C106.069 182.627 106.122 182.496 106.2 182.38L106.68 181.64L107.2 180.88L107.4 180.6C107.519 180.426 107.688 180.292 107.884 180.216C108.08 180.139 108.295 180.123 108.5 180.17C108.671 180.207 108.831 180.286 108.964 180.4C109.098 180.514 109.201 180.659 109.264 180.823C109.328 180.986 109.349 181.163 109.328 181.337C109.306 181.511 109.242 181.677 109.14 181.82L108.95 182.09L108.45 182.83L107.97 183.56ZM112.97 176.77C112.82 176.952 112.614 177.079 112.384 177.132C112.155 177.184 111.914 177.16 111.7 177.062C111.486 176.964 111.31 176.798 111.199 176.589C111.089 176.381 111.051 176.142 111.09 175.91C111.125 175.73 111.204 175.562 111.32 175.42L111.67 174.98L112.27 174.26L112.69 173.76C112.827 173.603 113.008 173.489 113.209 173.434C113.41 173.378 113.623 173.382 113.822 173.446C114.021 173.51 114.197 173.63 114.328 173.793C114.459 173.955 114.54 174.152 114.56 174.36C114.576 174.5 114.562 174.642 114.519 174.777C114.475 174.911 114.404 175.035 114.31 175.14L113.9 175.63L113.32 176.33L112.97 176.77V176.77ZM118.57 170.5C118.405 170.66 118.192 170.763 117.964 170.793C117.736 170.823 117.504 170.779 117.303 170.667C117.101 170.554 116.942 170.38 116.848 170.17C116.754 169.96 116.73 169.725 116.78 169.5C116.827 169.311 116.923 169.138 117.06 169L117.34 168.72L118.02 168.05L118.59 167.49C118.756 167.334 118.967 167.235 119.193 167.207C119.419 167.18 119.648 167.225 119.847 167.337C120.046 167.448 120.203 167.62 120.297 167.828C120.391 168.035 120.417 168.267 120.37 168.49C120.323 168.692 120.219 168.876 120.07 169.02L119.51 169.56L118.85 170.21L118.57 170.5V170.5ZM124.77 164.82C124.607 164.952 124.409 165.033 124.2 165.054C123.992 165.074 123.782 165.033 123.596 164.935C123.411 164.837 123.258 164.686 123.158 164.502C123.057 164.318 123.013 164.109 123.03 163.9C123.044 163.759 123.085 163.621 123.152 163.496C123.219 163.371 123.31 163.26 123.42 163.17L123.74 162.9L124.5 162.29L125.09 161.82C125.235 161.695 125.413 161.615 125.603 161.588C125.793 161.561 125.986 161.59 126.16 161.67C126.332 161.741 126.482 161.856 126.595 162.004C126.708 162.152 126.781 162.326 126.805 162.511C126.83 162.695 126.805 162.883 126.734 163.055C126.663 163.227 126.548 163.377 126.4 163.49L125.83 163.94L125.09 164.55L124.77 164.82V164.82ZM131.49 159.76C131.31 159.892 131.093 159.963 130.87 159.963C130.647 159.963 130.43 159.892 130.25 159.76C130.115 159.657 130.007 159.524 129.934 159.371C129.861 159.217 129.826 159.049 129.832 158.879C129.838 158.71 129.885 158.544 129.968 158.397C130.051 158.249 130.168 158.123 130.31 158.03L130.88 157.65L131.72 157.09L132.1 156.85C132.294 156.725 132.524 156.666 132.754 156.684C132.984 156.701 133.203 156.793 133.376 156.946C133.549 157.099 133.668 157.304 133.714 157.53C133.759 157.757 133.73 157.992 133.63 158.2C133.542 158.379 133.407 158.531 133.24 158.64L132.88 158.88L132.06 159.42L131.49 159.8V159.76ZM138.67 155.36C138.441 155.486 138.173 155.523 137.919 155.464C137.664 155.405 137.44 155.254 137.29 155.04C137.204 154.918 137.144 154.778 137.115 154.632C137.085 154.485 137.087 154.333 137.12 154.187C137.153 154.041 137.217 153.904 137.306 153.783C137.396 153.663 137.509 153.563 137.64 153.49L137.84 153.39L138.75 152.89L139.54 152.48C139.738 152.375 139.963 152.336 140.185 152.367C140.406 152.398 140.612 152.498 140.773 152.654C140.934 152.809 141.042 153.011 141.081 153.232C141.119 153.452 141.088 153.679 140.99 153.88C140.893 154.089 140.727 154.259 140.52 154.36L139.75 154.77L138.86 155.25L138.67 155.36V155.36ZM146.21 151.62C146.082 151.683 145.942 151.719 145.799 151.727C145.656 151.734 145.513 151.713 145.379 151.664C145.245 151.614 145.122 151.539 145.017 151.441C144.913 151.343 144.83 151.225 144.772 151.094C144.715 150.963 144.685 150.821 144.683 150.678C144.682 150.535 144.71 150.393 144.764 150.261C144.819 150.129 144.9 150.01 145.003 149.91C145.105 149.81 145.227 149.732 145.36 149.68L146.36 149.23L147.36 148.83C147.566 148.747 147.792 148.731 148.008 148.782C148.224 148.834 148.418 148.951 148.564 149.118C148.71 149.285 148.801 149.493 148.823 149.714C148.846 149.935 148.799 150.157 148.69 150.35C148.576 150.551 148.396 150.707 148.18 150.79L147.24 151.19L146.24 151.62H146.21ZM154.06 148.55C153.853 148.619 153.63 148.623 153.42 148.562C153.211 148.501 153.025 148.377 152.888 148.208C152.751 148.038 152.669 147.83 152.653 147.613C152.638 147.395 152.689 147.178 152.8 146.99C152.929 146.778 153.127 146.616 153.36 146.53L153.52 146.48L155.4 145.85C155.599 145.788 155.813 145.786 156.013 145.843C156.214 145.901 156.393 146.016 156.53 146.174C156.666 146.333 156.752 146.528 156.779 146.735C156.806 146.942 156.771 147.152 156.68 147.34C156.62 147.467 156.533 147.58 156.426 147.671C156.32 147.762 156.195 147.83 156.06 147.87L154.21 148.49L154.06 148.55ZM162.13 146.02C161.888 146.035 161.649 145.967 161.451 145.828C161.253 145.689 161.108 145.487 161.039 145.255C160.971 145.023 160.983 144.774 161.074 144.55C161.165 144.326 161.329 144.139 161.54 144.02L163.55 143.42C163.69 143.348 163.844 143.308 164.001 143.303C164.158 143.298 164.314 143.328 164.459 143.391C164.603 143.454 164.731 143.548 164.834 143.667C164.938 143.785 165.013 143.925 165.055 144.077C165.098 144.228 165.106 144.387 165.079 144.542C165.053 144.697 164.992 144.844 164.901 144.973C164.811 145.101 164.693 145.208 164.556 145.286C164.419 145.363 164.267 145.409 164.11 145.42L162.11 145.99L162.13 146.02ZM170.32 143.88C170.089 143.938 169.845 143.916 169.628 143.818C169.411 143.72 169.233 143.551 169.123 143.34C169.013 143.128 168.978 142.886 169.023 142.652C169.067 142.418 169.19 142.206 169.37 142.05C169.5 141.931 169.658 141.848 169.83 141.81C170.49 141.69 171.24 141.47 171.91 141.32C172.121 141.269 172.343 141.285 172.545 141.365C172.748 141.444 172.92 141.584 173.04 141.765C173.161 141.946 173.222 142.16 173.217 142.377C173.211 142.595 173.139 142.805 173.01 142.98C172.864 143.191 172.642 143.338 172.39 143.39C171.72 143.55 170.98 143.76 170.32 143.88V143.88ZM178.55 142.12C178.333 142.159 178.109 142.129 177.909 142.036C177.709 141.942 177.543 141.789 177.433 141.597C177.324 141.406 177.276 141.185 177.297 140.965C177.318 140.745 177.406 140.538 177.55 140.37C177.701 140.191 177.91 140.071 178.14 140.03L180.24 139.62C180.47 139.579 180.708 139.615 180.916 139.722C181.124 139.829 181.291 140.001 181.392 140.212C181.493 140.423 181.522 140.661 181.475 140.89C181.427 141.119 181.306 141.326 181.13 141.48C180.988 141.602 180.815 141.682 180.63 141.71L178.55 142.12ZM186.9 140.6C186.677 140.633 186.448 140.595 186.248 140.491C186.048 140.387 185.885 140.222 185.784 140.02C185.683 139.818 185.649 139.59 185.686 139.367C185.723 139.144 185.829 138.939 185.99 138.78C186.146 138.634 186.34 138.537 186.55 138.5L188.66 138.16C188.917 138.095 189.189 138.127 189.423 138.251C189.658 138.375 189.838 138.581 189.929 138.83C190.019 139.079 190.015 139.353 189.915 139.599C189.816 139.844 189.629 140.044 189.39 140.16C189.267 140.235 189.132 140.286 188.99 140.31L186.9 140.64V140.6ZM195.29 139.35C195.151 139.368 195.011 139.359 194.876 139.323C194.741 139.287 194.614 139.225 194.503 139.14C194.392 139.055 194.299 138.949 194.229 138.828C194.159 138.707 194.113 138.574 194.095 138.435C194.077 138.296 194.086 138.156 194.122 138.021C194.158 137.886 194.22 137.759 194.305 137.648C194.39 137.537 194.496 137.444 194.617 137.374C194.738 137.304 194.871 137.258 195.01 137.24L197.12 136.96C197.353 136.927 197.59 136.973 197.795 137.09C197.999 137.208 198.158 137.389 198.248 137.607C198.337 137.825 198.351 138.066 198.288 138.293C198.225 138.52 198.089 138.719 197.9 138.86C197.753 138.976 197.576 139.049 197.39 139.07L195.29 139.35ZM203.72 138.35C203.575 138.378 203.425 138.376 203.281 138.344C203.136 138.311 203 138.249 202.881 138.161C202.761 138.073 202.662 137.961 202.588 137.833C202.514 137.705 202.468 137.562 202.452 137.415C202.436 137.268 202.451 137.119 202.495 136.978C202.54 136.836 202.613 136.706 202.711 136.595C202.808 136.483 202.928 136.393 203.062 136.331C203.196 136.268 203.342 136.234 203.49 136.23L205.61 136C205.836 135.98 206.063 136.032 206.257 136.149C206.452 136.266 206.604 136.442 206.692 136.651C206.78 136.861 206.799 137.092 206.747 137.313C206.694 137.534 206.573 137.733 206.4 137.88C206.24 138.018 206.041 138.102 205.83 138.12L203.72 138.35ZM212.17 137.52C211.943 137.538 211.716 137.484 211.523 137.365C211.329 137.246 211.178 137.068 211.092 136.857C211.006 136.647 210.99 136.414 211.045 136.193C211.101 135.973 211.225 135.775 211.4 135.63C211.566 135.496 211.768 135.413 211.98 135.39L214.11 135.21C214.333 135.195 214.556 135.25 214.748 135.366C214.939 135.482 215.09 135.655 215.18 135.86C215.245 136.016 215.273 136.185 215.26 136.353C215.247 136.522 215.195 136.685 215.107 136.829C215.02 136.974 214.899 137.095 214.755 137.184C214.611 137.273 214.448 137.326 214.28 137.34C213.58 137.39 212.87 137.45 212.17 137.52V137.52ZM220.67 136.76C220.417 136.81 220.155 136.768 219.931 136.64C219.707 136.512 219.536 136.307 219.451 136.064C219.366 135.821 219.372 135.555 219.467 135.315C219.562 135.076 219.741 134.878 219.97 134.76C220.112 134.67 220.273 134.612 220.44 134.59C221.14 134.52 221.85 134.44 222.55 134.35C222.742 134.33 222.935 134.361 223.111 134.44C223.286 134.519 223.438 134.643 223.55 134.8C223.655 134.951 223.718 135.127 223.735 135.311C223.752 135.494 223.721 135.678 223.646 135.846C223.57 136.014 223.453 136.16 223.305 136.269C223.156 136.378 222.983 136.448 222.8 136.47L220.67 136.71V136.76ZM229.17 135.65C228.971 135.68 228.767 135.654 228.583 135.574C228.398 135.494 228.239 135.363 228.126 135.197C228.012 135.031 227.947 134.836 227.939 134.635C227.931 134.434 227.98 134.235 228.08 134.06C228.16 133.924 228.268 133.807 228.398 133.718C228.527 133.628 228.675 133.567 228.83 133.54C229.53 133.43 230.23 133.33 230.92 133.2C231.187 133.176 231.453 133.253 231.666 133.416C231.879 133.579 232.023 133.816 232.07 134.08C232.116 134.344 232.062 134.616 231.918 134.842C231.773 135.068 231.549 135.231 231.29 135.3C230.59 135.43 229.87 135.54 229.17 135.65V135.65ZM237.55 134.01C237.336 134.048 237.116 134.019 236.92 133.927C236.723 133.836 236.559 133.686 236.45 133.499C236.341 133.311 236.292 133.095 236.31 132.879C236.328 132.663 236.412 132.457 236.55 132.29C236.695 132.106 236.9 131.978 237.13 131.93C237.82 131.78 238.51 131.63 239.19 131.46C239.46 131.412 239.737 131.468 239.966 131.619C240.195 131.769 240.358 132.001 240.421 132.268C240.484 132.534 240.442 132.815 240.304 133.052C240.166 133.288 239.943 133.463 239.68 133.54L237.59 134.01H237.55ZM245.88 131.88C245.663 131.948 245.429 131.945 245.214 131.87C244.999 131.795 244.813 131.652 244.685 131.464C244.557 131.275 244.494 131.051 244.503 130.823C244.513 130.595 244.596 130.377 244.74 130.2C244.872 130.025 245.059 129.899 245.27 129.84C245.94 129.64 246.61 129.44 247.27 129.22C247.486 129.152 247.718 129.154 247.932 129.226C248.147 129.298 248.333 129.436 248.464 129.62C248.595 129.805 248.665 130.026 248.662 130.253C248.66 130.479 248.585 130.699 248.45 130.88C248.312 131.051 248.128 131.179 247.92 131.25C247.24 131.47 246.55 131.68 245.92 131.88H245.88ZM254.05 129.12C253.919 129.173 253.778 129.199 253.637 129.197C253.495 129.195 253.356 129.166 253.226 129.11C253.096 129.054 252.978 128.973 252.879 128.872C252.78 128.771 252.703 128.651 252.65 128.52C252.597 128.389 252.571 128.248 252.573 128.107C252.575 127.965 252.604 127.826 252.66 127.696C252.716 127.566 252.797 127.448 252.898 127.349C252.999 127.25 253.119 127.173 253.25 127.12C253.917 126.86 254.583 126.59 255.25 126.31C255.474 126.209 255.727 126.19 255.964 126.254C256.201 126.319 256.409 126.465 256.55 126.666C256.692 126.867 256.76 127.111 256.741 127.356C256.723 127.601 256.62 127.832 256.45 128.01C256.351 128.123 256.228 128.211 256.09 128.27C255.43 128.55 254.76 128.83 254.09 129.09L254.05 129.12ZM261.88 125.49C261.726 125.571 261.554 125.613 261.38 125.613C261.206 125.613 261.034 125.571 260.88 125.49C260.703 125.405 260.552 125.274 260.445 125.109C260.338 124.945 260.278 124.754 260.272 124.558C260.265 124.362 260.313 124.168 260.41 123.997C260.507 123.826 260.649 123.686 260.82 123.59C261.44 123.26 262.05 122.91 262.65 122.59C262.771 122.506 262.908 122.447 263.053 122.419C263.198 122.39 263.347 122.391 263.491 122.423C263.635 122.454 263.771 122.515 263.89 122.602C264.01 122.689 264.11 122.799 264.184 122.926C264.259 123.054 264.307 123.195 264.324 123.341C264.342 123.488 264.329 123.636 264.286 123.777C264.243 123.919 264.172 124.05 264.076 124.162C263.98 124.274 263.863 124.365 263.73 124.43C263.11 124.79 262.47 125.14 261.84 125.49H261.88ZM269.19 120.84C269.008 120.973 268.788 121.045 268.562 121.046C268.336 121.046 268.116 120.976 267.933 120.844C267.75 120.712 267.614 120.525 267.543 120.311C267.472 120.096 267.471 119.865 267.54 119.65C267.612 119.448 267.741 119.271 267.91 119.14C268.47 118.72 269.01 118.29 269.55 117.85C269.714 117.717 269.913 117.636 270.122 117.615C270.332 117.595 270.543 117.638 270.729 117.737C270.915 117.836 271.067 117.988 271.167 118.174C271.267 118.359 271.31 118.57 271.29 118.78C271.279 118.921 271.239 119.058 271.172 119.182C271.105 119.306 271.012 119.414 270.9 119.5C270.34 119.96 269.77 120.4 269.19 120.84V120.84ZM275.66 115.01C275.501 115.18 275.291 115.293 275.062 115.332C274.833 115.372 274.597 115.336 274.391 115.23C274.184 115.124 274.017 114.953 273.916 114.744C273.815 114.534 273.785 114.298 273.83 114.07C273.866 113.886 273.952 113.717 274.08 113.58C274.54 113.07 274.99 112.58 275.43 112.01C275.608 111.791 275.865 111.652 276.145 111.623C276.426 111.594 276.706 111.677 276.925 111.855C277.144 112.033 277.283 112.29 277.312 112.57C277.341 112.851 277.258 113.131 277.08 113.35C276.62 113.92 276.15 114.47 275.66 115.01ZM280.78 107.92C280.628 108.13 280.406 108.278 280.154 108.336C279.901 108.394 279.636 108.359 279.408 108.237C279.18 108.115 279.004 107.914 278.912 107.672C278.82 107.43 278.82 107.163 278.91 106.92C279.24 106.32 279.56 105.71 279.85 105.09C279.983 104.856 280.2 104.68 280.457 104.599C280.714 104.517 280.993 104.536 281.237 104.651C281.48 104.766 281.672 104.969 281.773 105.219C281.873 105.469 281.876 105.748 281.78 106C281.47 106.66 281.13 107.31 280.78 107.95V107.92ZM284.01 99.77C283.966 99.9367 283.884 100.091 283.769 100.219C283.654 100.348 283.511 100.448 283.35 100.51C283.169 100.577 282.973 100.593 282.783 100.557C282.593 100.521 282.416 100.434 282.272 100.306C282.127 100.178 282.02 100.013 281.961 99.8288C281.903 99.6446 281.896 99.4481 281.94 99.26C282.11 98.59 282.25 97.92 282.38 97.26C282.418 97.0205 282.537 96.8013 282.718 96.639C282.898 96.4767 283.128 96.3812 283.371 96.3683C283.613 96.3554 283.852 96.426 284.048 96.5683C284.245 96.7105 284.387 96.9159 284.45 97.15C284.485 97.3081 284.485 97.4719 284.45 97.63C284.32 98.35 284.17 99.06 283.99 99.78L284.01 99.77ZM285.01 91.05C285.022 91.2917 284.951 91.5303 284.809 91.726C284.666 91.9217 284.461 92.0629 284.228 92.126C283.994 92.189 283.746 92.1703 283.524 92.0728C283.303 91.9753 283.121 91.8049 283.01 91.59C282.922 91.4415 282.874 91.2727 282.87 91.1C282.87 90.42 282.82 89.73 282.76 89.05C282.728 88.8026 282.784 88.5519 282.917 88.3412C283.051 88.1305 283.253 87.9729 283.491 87.8959C283.728 87.8188 283.984 87.827 284.216 87.919C284.448 88.0111 284.64 88.1812 284.76 88.4C284.838 88.5391 284.889 88.6918 284.91 88.85C284.97 89.58 285.01 90.32 285.02 91.05H285.01ZM283.61 82.38C283.65 82.6309 283.598 82.8878 283.464 83.1039C283.331 83.3199 283.124 83.4808 282.882 83.5571C282.639 83.6335 282.378 83.6202 282.144 83.5198C281.911 83.4194 281.721 83.2384 281.61 83.01C281.41 82.39 281.19 81.66 280.94 81.01C280.855 80.8132 280.835 80.5943 280.883 80.3854C280.932 80.1766 281.047 79.9888 281.21 79.85C281.337 79.7323 281.491 79.6476 281.659 79.6033C281.827 79.5591 282.002 79.5565 282.171 79.596C282.34 79.6355 282.496 79.7158 282.627 79.8298C282.758 79.9438 282.858 80.0881 282.92 80.25C283.19 80.93 283.42 81.64 283.64 82.33L283.61 82.38ZM280.07 74.38C280.178 74.5635 280.227 74.7751 280.213 74.9873C280.199 75.1995 280.121 75.4026 279.99 75.57C279.882 75.7061 279.743 75.814 279.584 75.8842C279.425 75.9545 279.252 75.985 279.078 75.9732C278.905 75.9614 278.737 75.9076 278.59 75.8164C278.442 75.7253 278.318 75.5995 278.23 75.45C277.88 74.85 277.52 74.25 277.15 73.67C277.074 73.5525 277.023 73.4212 276.998 73.2837C276.973 73.1462 276.976 73.0052 277.006 72.8687C277.035 72.7322 277.092 72.6029 277.171 72.4882C277.251 72.3734 277.352 72.2755 277.47 72.2C277.588 72.1245 277.719 72.0729 277.856 72.0481C277.994 72.0233 278.135 72.0258 278.271 72.0555C278.408 72.0853 278.537 72.1416 278.652 72.2213C278.767 72.301 278.864 72.4025 278.94 72.52C279.33 73.13 279.71 73.75 280.07 74.38V74.38ZM275.07 67.26C275.201 67.4199 275.283 67.6146 275.305 67.8202C275.326 68.0258 275.288 68.2334 275.193 68.4173C275.098 68.6011 274.952 68.7533 274.772 68.8551C274.592 68.9569 274.386 69.0037 274.18 68.99C274.035 68.9849 273.893 68.9483 273.763 68.8826C273.634 68.817 273.52 68.724 273.43 68.61C272.99 68.07 272.53 67.54 272.08 67.01C271.922 66.8334 271.828 66.6091 271.812 66.3727C271.797 66.1363 271.861 65.9016 271.994 65.7059C272.128 65.5102 272.323 65.3649 272.549 65.2932C272.775 65.2214 273.018 65.2273 273.24 65.31C273.41 65.3656 273.559 65.47 273.67 65.61C274.17 66.12 274.64 66.66 275.09 67.22L275.07 67.26Z" fill="white"/>
<path fill-rule="evenodd" clip-rule="evenodd" d="M256.18 149.29C256.133 149.215 256.072 149.149 255.999 149.098C255.927 149.047 255.845 149.01 255.759 148.991C255.672 148.971 255.583 148.969 255.495 148.984C255.408 149 255.325 149.032 255.25 149.08C255.099 149.178 254.993 149.332 254.954 149.507C254.915 149.683 254.946 149.867 255.04 150.02C255.12 150.14 281.86 191.69 260.74 215.91C260.624 216.045 260.565 216.22 260.576 216.397C260.587 216.575 260.668 216.741 260.8 216.86C260.866 216.919 260.943 216.964 261.027 216.993C261.111 217.022 261.199 217.034 261.287 217.028C261.376 217.022 261.462 216.999 261.542 216.96C261.621 216.921 261.692 216.867 261.75 216.8C283.55 191.81 256.26 149.41 256.18 149.29Z" fill="#000618"/>
<path fill-rule="evenodd" clip-rule="evenodd" d="M178.2 143.5C178.248 143.425 178.28 143.342 178.296 143.255C178.311 143.167 178.309 143.078 178.289 142.991C178.27 142.905 178.233 142.823 178.182 142.751C178.13 142.678 178.065 142.617 177.99 142.57C177.837 142.477 177.654 142.448 177.48 142.489C177.306 142.53 177.155 142.638 177.06 142.79C177.06 142.85 161.74 166.56 177.85 184.79C177.969 184.922 178.135 185.003 178.313 185.014C178.49 185.025 178.665 184.966 178.8 184.85C178.867 184.792 178.921 184.721 178.96 184.642C178.999 184.562 179.022 184.476 179.028 184.387C179.034 184.299 179.022 184.211 178.993 184.127C178.964 184.043 178.919 183.966 178.86 183.9C163.43 166.44 178.16 143.57 178.2 143.5Z" fill="#000618"/>
<path fill-rule="evenodd" clip-rule="evenodd" d="M251.86 121.23L263.13 133.62C259.665 140.442 257.992 148.033 258.27 155.68C258.81 168.2 301.01 237.58 223.04 237.22C145.07 236.86 188.46 196.64 188.46 196.64C188.46 196.64 162.74 188.31 175.72 151.08C188.7 113.85 251.86 121.23 251.86 121.23Z" fill="#000618"/>
<path fill-rule="evenodd" clip-rule="evenodd" d="M187.74 197.34C188.19 196.89 188.46 196.64 188.46 196.64C187.655 196.367 186.873 196.033 186.12 195.64C183.67 192.888 181.443 189.946 179.46 186.84C168.83 170.32 180.14 147.59 180.14 147.59L186.14 145.79C186.14 145.79 198.14 141.5 201.34 140.43C204.54 139.36 241.75 141.68 252.34 161.53C262.93 181.38 251.14 210.15 251.14 210.15C251.14 210.15 207.28 208.74 204.78 208.56C202.89 208.39 195.68 205.58 187.74 197.34Z" fill="#01020E"/>
<path fill-rule="evenodd" clip-rule="evenodd" d="M166.77 208.17C154.25 213.63 152.62 225.09 150.99 237.83C149.55 249.13 149.1 266.19 152.07 292.09C155.04 317.99 202.4 257.92 202.4 257.92L166.77 208.17Z" fill="#EF8871"/>
<path fill-rule="evenodd" clip-rule="evenodd" d="M240.43 207.83L252.55 201.61C252.55 201.61 265.39 204.8 271.97 213.07C278.55 221.34 298.44 291.93 299.19 300.57C299.94 309.21 294.09 342.11 283.39 342.11C272.69 342.11 267.39 270.17 267.39 270.17L258.65 243.17L240.43 207.83Z" fill="#F4AD85"/>
<path fill-rule="evenodd" clip-rule="evenodd" d="M240.43 207.83L252.55 201.61C255.613 202.448 258.584 203.591 261.42 205.02C259.85 205.78 258.62 207.72 258.76 212.02C259.14 223.29 276.32 266.29 280.07 278.31C283.82 290.33 286.84 297.46 286.84 297.46L294.66 281.05C295.37 283.7 296.01 286.19 296.58 288.45C293.65 304.23 290.01 325.85 289.52 338.22C287.7 340.62 285.66 342.1 283.39 342.1C272.69 342.1 267.39 270.16 267.39 270.16L258.65 243.16L240.43 207.83Z" fill="#EF8871"/>
<path fill-rule="evenodd" clip-rule="evenodd" d="M208.2 192.31C208.2 192.31 175.89 203.83 166.77 208.17C166.77 208.17 168.51 209.99 170.48 219.89C172.45 229.79 170.48 244.3 172.54 258.58C174.03 268.89 181.02 321.06 184.78 349.21L264.42 342.79C264.42 341.53 264.49 340.02 264.57 338.31C258.02 343.41 251.76 343.63 255.64 328.76C262.4 302.84 261.08 257.76 258.83 244.26C256.58 230.76 253.22 216.51 256.41 202.8C254.27 200.87 208.2 192.31 208.2 192.31Z" fill="#D84F50"/>
<path fill-rule="evenodd" clip-rule="evenodd" d="M186.98 200.12C178.9 203.12 170.69 206.34 166.77 208.21C166.77 208.21 168.51 210.03 170.48 219.93C172.45 229.83 170.48 244.34 172.54 258.62C172.84 260.68 173.36 264.42 174.03 269.32C192.03 272.12 245.17 278.21 257.93 277.08C258.844 276.995 259.752 276.858 260.65 276.67C260.65 262.6 259.83 250.32 258.83 244.3L258.65 243.3C254.15 256.58 197.47 264.01 197.47 264.01C197.47 264.01 188.07 243.22 190.52 235.52C192.97 227.82 204.23 228.04 204.23 228.04L203.94 221.16C203.94 221.16 192.67 205.9 189.94 201.26C189.63 200.59 188.55 200.24 186.98 200.12Z" fill="#C23E3E"/>
<path fill-rule="evenodd" clip-rule="evenodd" d="M182.4 201.81L181.74 202.06C183.17 207.85 185.1 214.65 187.74 218.65C190.091 222.438 193.292 225.626 197.09 227.96C201.2 230.34 206.56 231.76 214.09 231.57C219.904 231.472 225.502 229.35 229.92 225.57C234.7 221.396 238.172 215.93 239.92 209.83C241.98 202.63 243.92 200.23 244.59 199.58L243.8 199.4C242.88 200.49 241.07 203.25 239.24 209.63C237.521 215.601 234.115 220.948 229.43 225.03C225.129 228.703 219.685 230.764 214.03 230.86C206.69 231.04 201.45 229.65 197.45 227.34C193.744 225.057 190.621 221.941 188.33 218.24C185.69 214.31 183.79 207.55 182.33 201.8L182.4 201.81ZM169.13 207.12L168.54 207.38C170.1 210.13 172.29 215.91 174.3 228.01C176.71 242.51 173.95 249.01 171.83 251.8C171.83 252.13 171.88 252.47 171.91 252.8C174.17 250.22 177.61 243.56 175 227.89C173 216.01 170.79 210.07 169.13 207.12V207.12ZM259.37 248.29C259.37 247.84 259.27 247.4 259.22 246.98C257.4 243.41 250.49 227.69 254.43 201.98L253.74 201.78C249.21 231.13 258.8 247.69 259.02 248.07C259.04 248.108 259.067 248.142 259.1 248.17C259.136 248.204 259.178 248.231 259.225 248.248C259.271 248.265 259.321 248.273 259.37 248.27V248.29Z" fill="#B23539"/>
<path fill-rule="evenodd" clip-rule="evenodd" d="M210.71 157.75H210.46C207.077 157.713 203.817 159.02 201.396 161.384C198.975 163.748 197.592 166.977 197.55 170.36L197.39 196.22C192.7 197.94 187.09 200.01 181.83 202.02C190.1 219.88 199.83 231.68 215.44 228.3C236.8 223.67 236.04 205.74 242.55 199.12C236.48 197.81 229.35 196.37 223.17 195.17L223.32 170.64C223.341 167.263 222.029 164.014 219.667 161.6C217.306 159.186 214.087 157.803 210.71 157.75V157.75Z" fill="#EF8871"/>
<path fill-rule="evenodd" clip-rule="evenodd" d="M198.35 166.05C197.836 167.429 197.568 168.888 197.56 170.36L197.4 196.22C192.71 197.94 187.1 200.01 181.84 202.02C187.93 215.15 194.84 225.02 204.23 227.96C189.23 217.86 193.86 205.39 197.05 204.07C200.24 202.75 225.55 195.65 225.55 195.65L223.13 195.18L223.28 170.65C223.292 168.763 222.888 166.897 222.097 165.184C221.305 163.471 220.145 161.953 218.7 160.74C211.98 160.68 205.25 162.77 198.35 166.05Z" fill="#EA745D"/>
<path fill-rule="evenodd" clip-rule="evenodd" d="M181.86 133.25C181.61 133.25 181.37 133.25 181.12 133.25C178.856 133.421 176.718 134.358 175.057 135.905C173.396 137.453 172.311 139.52 171.98 141.766C171.65 144.013 172.094 146.305 173.239 148.265C174.384 150.226 176.162 151.738 178.281 152.554C180.4 153.37 182.733 153.44 184.897 152.754C187.061 152.067 188.928 150.665 190.189 148.777C191.45 146.889 192.031 144.628 191.837 142.366C191.643 140.104 190.685 137.975 189.12 136.33C188.98 139.28 188.04 142.83 184.27 142.7L185.13 137.01C185.175 136.546 185.125 136.077 184.983 135.633C184.841 135.189 184.61 134.778 184.304 134.426C183.998 134.074 183.624 133.788 183.203 133.586C182.783 133.384 182.326 133.27 181.86 133.25V133.25Z" fill="#EA745D"/>
<path fill-rule="evenodd" clip-rule="evenodd" d="M253.09 144.49C253.331 144.548 253.568 144.622 253.8 144.71V144.71C255.943 145.463 257.765 146.923 258.968 148.849C260.171 150.776 260.682 153.055 260.417 155.31C260.152 157.566 259.127 159.664 257.511 161.26C255.895 162.856 253.784 163.854 251.525 164.09C249.266 164.327 246.994 163.787 245.083 162.56C243.172 161.333 241.735 159.492 241.009 157.34C240.284 155.188 240.312 152.853 241.09 150.719C241.868 148.585 243.349 146.78 245.29 145.6C244.65 148.48 244.64 152.15 248.29 153.01L248.94 147.3C249.012 146.835 249.179 146.39 249.43 145.993C249.682 145.595 250.013 145.254 250.402 144.99C250.792 144.727 251.232 144.546 251.694 144.46C252.156 144.374 252.632 144.384 253.09 144.49V144.49Z" fill="#EA745D"/>
<path fill-rule="evenodd" clip-rule="evenodd" d="M222.3 89.49C213.333 88.3214 204.269 90.7493 197.087 96.2431C189.905 101.737 185.189 109.85 183.97 118.81L179.87 149.58C178.704 158.549 181.134 167.614 186.629 174.798C192.125 181.981 200.239 186.699 209.2 187.92V187.92C218.171 189.094 227.242 186.668 234.429 181.171C241.616 175.675 246.334 167.556 247.55 158.59L251.65 127.82C252.818 118.849 250.386 109.78 244.886 102.597C239.386 95.4144 231.265 90.7018 222.3 89.49V89.49Z" fill="#F4AD85"/>
<path fill-rule="evenodd" clip-rule="evenodd" d="M222.3 89.49C213.826 88.3885 205.246 90.4955 198.247 95.397C191.247 100.298 186.333 107.64 184.47 115.98C184.676 117.729 185.205 119.424 186.03 120.98L201.8 120.12C201.8 120.12 212.18 139.96 233.49 144.78C239.23 146.08 241.02 151.85 239.85 157.34C237 170.7 225.53 189.85 197.28 184.04C200.972 186.084 205.016 187.418 209.2 187.97V187.97C218.179 189.143 227.257 186.71 234.445 181.203C241.633 175.696 246.346 167.565 247.55 158.59L251.65 127.82C252.818 118.849 250.386 109.78 244.886 102.597C239.386 95.4144 231.265 90.7018 222.3 89.49V89.49Z" fill="#EF8871"/>
<path fill-rule="evenodd" clip-rule="evenodd" d="M228.49 157.3C227.612 157.166 226.715 157.295 225.91 157.671C225.106 158.047 224.431 158.653 223.971 159.413C223.511 160.172 223.287 161.051 223.326 161.938C223.366 162.825 223.667 163.681 224.193 164.396C224.719 165.112 225.444 165.656 226.279 165.959C227.114 166.262 228.019 166.311 228.882 166.099C229.744 165.888 230.524 165.425 231.124 164.77C231.723 164.116 232.115 163.298 232.25 162.42C232.34 161.837 232.313 161.242 232.173 160.669C232.032 160.096 231.78 159.556 231.431 159.081C231.082 158.605 230.642 158.203 230.138 157.898C229.633 157.592 229.073 157.389 228.49 157.3V157.3Z" fill="#EA745D"/>
<path fill-rule="evenodd" clip-rule="evenodd" d="M191.7 151.48C190.822 151.346 189.925 151.475 189.12 151.851C188.316 152.227 187.641 152.833 187.181 153.593C186.721 154.352 186.497 155.231 186.536 156.118C186.576 157.005 186.877 157.861 187.403 158.576C187.929 159.292 188.655 159.836 189.489 160.139C190.324 160.442 191.229 160.491 192.092 160.279C192.954 160.068 193.734 159.605 194.334 158.95C194.933 158.296 195.325 157.478 195.46 156.6C195.55 156.017 195.523 155.422 195.383 154.849C195.242 154.276 194.99 153.736 194.641 153.261C194.292 152.785 193.852 152.383 193.348 152.078C192.843 151.772 192.283 151.569 191.7 151.48V151.48Z" fill="#EA745D"/>
<path fill-rule="evenodd" clip-rule="evenodd" d="M233.74 139.46C233.907 139.439 234.076 139.451 234.238 139.495C234.4 139.54 234.552 139.616 234.685 139.719C234.818 139.822 234.929 139.95 235.012 140.096C235.095 140.242 235.149 140.403 235.17 140.57C235.191 140.737 235.179 140.906 235.135 141.068C235.09 141.23 235.014 141.382 234.911 141.515C234.808 141.648 234.68 141.759 234.534 141.842C234.388 141.925 234.227 141.979 234.06 142C232.838 142.142 231.602 142.108 230.39 141.9C227.888 141.554 225.602 140.297 223.97 138.37C223.754 138.105 223.652 137.765 223.687 137.424C223.721 137.084 223.89 136.771 224.155 136.555C224.42 136.339 224.76 136.237 225.101 136.272C225.441 136.306 225.754 136.475 225.97 136.74C227.82 139.01 230.93 139.75 233.74 139.46Z" fill="#01020E"/>
<path fill-rule="evenodd" clip-rule="evenodd" d="M177.15 215.12C177.15 215.12 175.85 214.94 175.56 215.96C175.27 216.98 179.56 222.47 179.86 222.66C180.16 222.85 188.71 221.77 188.71 221.77C188.71 221.77 189.17 221.34 189.07 221.02C188.98 220.786 188.836 220.577 188.65 220.41L177.15 215.12Z" fill="#000618"/>
<path fill-rule="evenodd" clip-rule="evenodd" d="M191 129.51C193.8 129 196.94 129.51 199 131.59C199.237 131.834 199.562 131.974 199.902 131.978C200.243 131.983 200.571 131.852 200.815 131.615C201.059 131.378 201.199 131.053 201.203 130.713C201.208 130.372 201.077 130.044 200.84 129.8C199.056 128.016 196.679 126.948 194.16 126.8C192.933 126.697 191.698 126.764 190.49 127C190.325 127.033 190.169 127.099 190.029 127.193C189.89 127.287 189.77 127.408 189.677 127.548C189.584 127.688 189.52 127.845 189.488 128.01C189.456 128.175 189.456 128.345 189.49 128.51C189.523 128.675 189.589 128.831 189.683 128.971C189.777 129.11 189.898 129.23 190.038 129.323C190.178 129.416 190.335 129.48 190.5 129.512C190.665 129.544 190.835 129.543 191 129.51V129.51Z" fill="#01020E"/>
<path fill-rule="evenodd" clip-rule="evenodd" d="M243.16 143.23L242.58 147.59C242.3 149.69 246.33 155.31 247.94 155.52L248.94 147.86C248.94 147.86 250.09 144.44 254.43 145.01C269.79 131.48 271.26 106.94 258.73 92.45C246.2 77.96 215.73 73.09 210.2 74.16C204.67 75.23 197.94 83.53 197.94 83.53C197.94 83.53 193.94 78.9 189.47 80.44C185 81.98 167.44 106.59 166.55 113.22C165.66 119.85 176.75 134.67 176.75 134.67C181.09 135.25 181.3 138.85 181.3 138.85L180.67 143.62C182.28 143.83 183.47 141.79 183.74 139.7C184.01 137.61 184.33 135.33 184.33 135.33C198.49 131.18 206.17 113.89 206.17 113.89C206.17 113.89 220.92 143.52 243.16 143.23Z" fill="#000618"/>
<path fill-rule="evenodd" clip-rule="evenodd" d="M267.17 116.24C267.227 109.992 265.722 103.828 262.79 98.31C248.9 109.07 226.48 116.31 207.79 75.01C206.533 75.6472 205.346 76.4147 204.25 77.3C211.49 98.29 229.98 134.93 267.17 116.24Z" fill="#0F1630"/>
<path fill-rule="evenodd" clip-rule="evenodd" d="M243.16 143.23L242.58 147.59C242.3 149.69 246.33 155.31 247.94 155.52L248.94 147.86C248.94 147.86 250.09 144.44 254.43 145.01C260.257 139.816 264.324 132.938 266.07 125.33C266.07 125.33 239.77 143.6 207.42 109.63C207.42 109.63 192.62 132.72 170.96 125.84C172.726 128.883 174.652 131.831 176.73 134.67C181.07 135.25 181.28 138.85 181.28 138.85L180.65 143.62C182.26 143.83 183.45 141.79 183.72 139.7C183.99 137.61 184.31 135.33 184.31 135.33C198.47 131.18 206.15 113.89 206.15 113.89C206.15 113.89 220.92 143.52 243.16 143.23Z" fill="#01020E"/>
<path fill-rule="evenodd" clip-rule="evenodd" d="M177.96 188.86L175.74 189.47C175.74 189.47 174.44 177.91 174.45 176.79C174.651 175.177 175.139 173.612 175.89 172.17C176.75 170.28 179.89 163.17 180.05 162.92C180.21 162.67 182.24 164.45 181.33 167.57C180.42 170.69 178.87 174.93 178.88 175.84C178.89 176.75 180.97 184.75 180.97 184.75L177.96 188.86Z" fill="#EF8871"/>
<path fill-rule="evenodd" clip-rule="evenodd" d="M175.73 188.96C175.745 188.081 175.991 187.222 176.444 186.469C176.897 185.716 177.541 185.095 178.31 184.67C180.54 183.33 185.78 179.17 186.9 178.67C187.518 178.443 188.184 178.377 188.835 178.479C189.486 178.58 190.1 178.846 190.62 179.25C192.847 180.671 194.988 182.224 197.03 183.9C197.91 184.81 200.11 190.47 200.38 191.06C200.65 191.65 198.44 192.2 196.67 190.86C196.67 190.86 197.6 192.71 197.89 193.34C198.289 195.446 198.536 197.578 198.63 199.72C198.63 200.72 195.99 200.21 195.08 197.98C195.08 197.98 195.23 199.59 195.23 200.08C195.23 200.57 193.7 200.39 193.7 200.39C193.7 200.39 191.93 209.99 191.53 211.18C191.13 212.37 175.91 267.12 175.91 267.12L153.91 265.79C153.91 265.79 177.91 212.05 178.1 211.26C179.43 204.53 175.71 194.65 175.73 188.96Z" fill="#F4AD85"/>
<path fill-rule="evenodd" clip-rule="evenodd" d="M193.7 200.41L193.6 200.92V201.11V201.21V201.32V201.44C193.13 203.97 191.95 210.22 191.6 211.17C191.25 212.12 182.86 242.4 178.51 258.02C175.609 256.848 172.798 255.465 170.1 253.88C170.1 253.88 187.1 214.21 187.54 212.65C187.98 211.09 187 209.84 187.33 209.42C187.66 209 188.97 208.42 189.33 207.26C189.69 206.1 190.46 202.15 189.94 200.55C189.54 199.32 188.25 199.47 187.68 199.6C187.133 199.776 186.575 199.916 186.01 200.02C185.15 200.13 185.22 199.61 185.22 199.61C184.858 198.078 184.214 196.626 183.32 195.33C184.25 194.82 185.7 192.42 185.7 192.42C186.65 192 187.4 191.42 188.14 192C189.185 192.851 190.134 193.813 190.97 194.87C191.08 196.118 191.271 197.357 191.54 198.58C191.8 200.03 193.7 200.41 193.7 200.41Z" fill="#EF8871"/>
<path fill-rule="evenodd" clip-rule="evenodd" d="M292.22 351.71H132.55C131.324 351.658 130.169 351.125 129.334 350.226C128.499 349.328 128.052 348.136 128.09 346.91V346.91C128.055 345.686 128.503 344.497 129.338 343.6C130.172 342.704 131.326 342.172 132.55 342.12H292.22C293.446 342.169 294.604 342.702 295.439 343.601C296.274 344.5 296.721 345.693 296.68 346.92V346.92C296.718 348.145 296.271 349.336 295.435 350.233C294.6 351.13 293.445 351.66 292.22 351.71V351.71Z" fill="#000618"/>
<path fill-rule="evenodd" clip-rule="evenodd" d="M129.64 249.94H295.12C295.683 249.924 296.242 250.034 296.757 250.263C297.271 250.492 297.728 250.834 298.093 251.263C298.457 251.692 298.721 252.198 298.864 252.742C299.008 253.287 299.027 253.857 298.92 254.41L286.27 338.41C286.057 339.635 285.429 340.749 284.491 341.565C283.553 342.381 282.362 342.849 281.12 342.89H143.64C142.398 342.847 141.209 342.378 140.271 341.563C139.334 340.747 138.705 339.634 138.49 338.41L125.84 254.41C125.733 253.857 125.752 253.287 125.896 252.742C126.039 252.198 126.303 251.692 126.667 251.263C127.032 250.834 127.489 250.492 128.003 250.263C128.518 250.034 129.077 249.924 129.64 249.94V249.94Z" fill="#000618"/>
<path fill-rule="evenodd" clip-rule="evenodd" d="M133.32 253.91H291.44C291.977 253.896 292.511 254.003 293.002 254.222C293.492 254.441 293.928 254.768 294.276 255.177C294.624 255.587 294.876 256.069 295.013 256.589C295.151 257.108 295.17 257.652 295.07 258.18L282.99 338.45C282.784 339.618 282.183 340.68 281.287 341.457C280.391 342.235 279.255 342.681 278.07 342.72H146.7C145.514 342.683 144.377 342.237 143.481 341.46C142.585 340.682 141.984 339.619 141.78 338.45L129.69 258.18C129.59 257.652 129.609 257.108 129.746 256.589C129.884 256.069 130.136 255.587 130.484 255.177C130.832 254.768 131.268 254.441 131.758 254.222C132.249 254.003 132.783 253.896 133.32 253.91Z" fill="#0F1630"/>
<path fill-rule="evenodd" clip-rule="evenodd" d="M286.09 317.86L282.99 338.45C282.784 339.618 282.183 340.68 281.287 341.457C280.391 342.235 279.255 342.681 278.07 342.72H146.7C145.514 342.682 144.377 342.237 143.481 341.46C142.585 340.682 141.984 339.619 141.78 338.45L129.69 258.18C129.531 257.335 129.68 256.462 130.109 255.717C130.538 254.973 131.22 254.406 132.03 254.12C150.13 285.34 194.55 336.48 286.09 317.86Z" fill="#000618"/>
<path fill-rule="evenodd" clip-rule="evenodd" d="M212.38 321.38C202.69 321.38 194.8 314.79 194.8 306.7C194.8 298.61 202.69 292.02 212.38 292.02C222.07 292.02 229.97 298.62 229.97 306.7C229.97 314.78 222.07 321.38 212.38 321.38Z" fill="#000618"/>
<path fill-rule="evenodd" clip-rule="evenodd" d="M212.38 295.55C210.152 295.493 207.942 295.968 205.935 296.937C203.928 297.906 202.181 299.34 200.84 301.12L221.29 315.02C222.635 314.081 223.739 312.838 224.514 311.393C225.289 309.947 225.712 308.34 225.75 306.7C225.75 300.54 219.75 295.55 212.38 295.55ZM201.55 313.21L207.69 309.83L217.93 316.83C216.162 317.495 214.289 317.834 212.4 317.83C210.367 317.878 208.347 317.49 206.475 316.693C204.604 315.896 202.925 314.709 201.55 313.21V313.21Z" fill="white"/>
<path fill-rule="evenodd" clip-rule="evenodd" d="M194.55 138.75C195.297 138.87 195.966 139.282 196.411 139.895C196.855 140.508 197.038 141.272 196.92 142.02L196.33 145.69C196.212 146.437 195.802 147.106 195.191 147.55C194.579 147.995 193.817 148.178 193.07 148.06V148.06C192.323 147.942 191.654 147.532 191.21 146.921C190.765 146.309 190.582 145.547 190.7 144.8L191.28 141.12C191.403 140.374 191.815 139.706 192.428 139.263C193.04 138.819 193.803 138.635 194.55 138.75V138.75Z" fill="#01020E"/>
<path fill-rule="evenodd" clip-rule="evenodd" d="M228.77 143.93C229.517 144.05 230.187 144.462 230.631 145.075C231.075 145.688 231.258 146.452 231.14 147.2L230.56 150.87C230.44 151.617 230.028 152.287 229.415 152.731C228.802 153.175 228.038 153.358 227.29 153.24V153.24C226.545 153.119 225.877 152.709 225.433 152.098C224.989 151.488 224.805 150.726 224.92 149.98L225.51 146.3C225.63 145.555 226.041 144.887 226.652 144.443C227.262 143.999 228.024 143.815 228.77 143.93Z" fill="#01020E"/>
<path fill-rule="evenodd" clip-rule="evenodd" d="M197.55 164.06C197.441 164.139 197.348 164.239 197.279 164.355C197.209 164.47 197.164 164.599 197.145 164.732C197.126 164.866 197.135 165.002 197.17 165.132C197.205 165.262 197.266 165.384 197.35 165.49C197.525 165.689 197.772 165.81 198.036 165.827C198.301 165.844 198.561 165.755 198.76 165.58C198.76 165.58 202.18 162.58 208.26 168.19C208.464 168.38 208.735 168.48 209.014 168.47C209.292 168.46 209.555 168.339 209.745 168.135C209.935 167.931 210.035 167.66 210.025 167.381C210.015 167.103 209.894 166.84 209.69 166.65C202.39 159.89 197.55 164.05 197.55 164.06Z" fill="#EF8871"/>
<path fill-rule="evenodd" clip-rule="evenodd" d="M176.34 215.34C176.198 215.368 176.069 215.443 175.977 215.554C175.884 215.665 175.832 215.805 175.83 215.95C175.76 216.52 179.16 220.95 188.69 221.28C188.69 221.28 188.92 221.21 188.96 221.06C188.962 221.003 188.952 220.946 188.931 220.893C188.911 220.84 188.88 220.791 188.84 220.75V220.57C188.84 220.57 189.18 220.82 189.18 221.11C189.18 221.4 187.77 227.29 187.49 228.77C187.21 230.25 184.31 229.91 181.87 229.31C179.43 228.71 173.58 226.68 172.05 223.51C171.93 223.024 171.93 222.516 172.05 222.03C172.29 221.35 175.25 215.87 175.4 215.54C175.496 215.38 175.638 215.254 175.808 215.179C175.978 215.104 176.168 215.083 176.35 215.12L176.34 215.34Z" fill="#0F1630"/>
<path fill-rule="evenodd" clip-rule="evenodd" d="M184.17 220.75C185.658 221.057 187.171 221.235 188.69 221.28C188.69 221.28 188.92 221.21 188.96 221.06C188.962 221.003 188.952 220.946 188.931 220.893C188.911 220.84 188.88 220.791 188.84 220.75V220.57C188.84 220.57 189.18 220.82 189.18 221.11C189.18 221.4 187.77 227.29 187.49 228.77C187.21 230.25 184.31 229.91 181.87 229.31C181.52 229.23 181.1 229.12 180.64 228.97L184.12 220.75H184.17Z" fill="#000618"/>
<path fill-rule="evenodd" clip-rule="evenodd" d="M344.43 356.26H80.66C79.0687 356.26 77.5426 356.892 76.4173 358.017C75.2921 359.143 74.66 360.669 74.66 362.26V362.26C74.66 363.851 75.2921 365.377 76.4173 366.503C77.5426 367.628 79.0687 368.26 80.66 368.26H344.43C346.021 368.26 347.547 367.628 348.673 366.503C349.798 365.377 350.43 363.851 350.43 362.26V362.26C350.43 360.669 349.798 359.143 348.673 358.017C347.547 356.892 346.021 356.26 344.43 356.26V356.26Z" fill="#000618"/>
<path d="M67.84 346.91H357.26C361.502 346.91 364.94 350.348 364.94 354.59V354.6C364.94 358.842 361.502 362.28 357.26 362.28H67.84C63.5984 362.28 60.16 358.842 60.16 354.6V354.59C60.16 350.348 63.5984 346.91 67.84 346.91Z" fill="#BE865E"/>
<path d="M165.84 346.91H181.83V362.28H165.84V346.91Z" fill="#915E40"/>
<path d="M149.23 346.91H157.54V362.28H149.23V346.91Z" fill="#915E40"/>
<path d="M136.36 346.91H140.51V362.28H136.36V346.91Z" fill="#915E40"/>
<path d="M104.26 346.91H122.14V362.28H104.26V346.91Z" fill="#915E40"/>
<path d="M81.83 346.91H90.77V362.28H81.83V346.91Z" fill="#915E40"/>
<path d="M215.97 349.41H356.63C359.154 349.41 361.2 351.456 361.2 353.98C361.2 356.504 359.154 358.55 356.63 358.55H215.97C213.446 358.55 211.4 356.504 211.4 353.98C211.4 351.456 213.446 349.41 215.97 349.41Z" fill="#D49D80"/>
<path fill-rule="evenodd" clip-rule="evenodd" d="M263.37 35.53L260.08 54.46L217.41 20.14L261.97 31.09L263.37 35.53Z" fill="#DFD7A9"/>
<path fill-rule="evenodd" clip-rule="evenodd" d="M260.08 54.46L243.62 41.22C243.437 40.0877 243.18 38.9686 242.85 37.87L256.68 41.58L260.08 54.46Z" fill="#ECF6FC"/>
<path fill-rule="evenodd" clip-rule="evenodd" d="M217.41 20.14L275.12 30.81L263.37 35.53L217.41 20.14Z" fill="white"/>
<path fill-rule="evenodd" clip-rule="evenodd" d="M217.41 20.14L243.34 54.59L256.68 41.58L217.41 20.14Z" fill="white"/>
<path fill-rule="evenodd" clip-rule="evenodd" d="M365.48 197.43C359.75 196.065 353.88 195.377 347.99 195.38V195.38C343.95 195.367 340.079 193.754 337.225 190.894C334.371 188.034 332.765 184.16 332.76 180.12V180.12C332.759 179.401 332.809 178.682 332.91 177.97H308.81C307.058 177.973 305.378 178.67 304.139 179.909C302.9 181.148 302.203 182.828 302.2 184.58V231.21C302.201 231.355 302.245 231.497 302.327 231.618C302.408 231.738 302.523 231.832 302.658 231.888C302.792 231.943 302.94 231.958 303.083 231.93C303.225 231.902 303.357 231.832 303.46 231.73L314.72 220.47H358.87C360.621 220.465 362.3 219.767 363.538 218.528C364.777 217.29 365.475 215.611 365.48 213.86V197.43Z" fill="#E0D8AA"/>
<path fill-rule="evenodd" clip-rule="evenodd" d="M361.38 175.47H311.33C309.578 175.475 307.898 176.173 306.658 177.411C305.418 178.649 304.718 180.328 304.71 182.08V228.72C304.711 228.866 304.755 229.009 304.837 229.13C304.919 229.251 305.035 229.345 305.17 229.4C305.303 229.46 305.452 229.477 305.596 229.449C305.739 229.42 305.87 229.347 305.97 229.24L317.24 217.97H361.38C363.132 217.967 364.812 217.27 366.051 216.031C367.29 214.792 367.987 213.112 367.99 211.36V182.12C367.993 181.249 367.824 180.387 367.493 179.581C367.162 178.776 366.676 178.044 366.062 177.426C365.448 176.808 364.719 176.318 363.916 175.982C363.112 175.647 362.251 175.473 361.38 175.47Z" fill="#DC5645"/>
<path fill-rule="evenodd" clip-rule="evenodd" d="M329.4 187.4H321.12C320.109 187.406 319.109 187.616 318.181 188.018C317.253 188.42 316.416 189.006 315.72 189.74C314.282 191.237 313.483 193.234 313.49 195.31C313.485 195.343 313.485 195.377 313.49 195.41C313.517 197.438 314.323 199.379 315.74 200.83C316.439 201.558 317.277 202.138 318.205 202.535C319.133 202.932 320.131 203.137 321.14 203.14H321.26H329.45L344.06 210.46C344.367 210.624 344.713 210.701 345.06 210.68C345.417 210.661 345.762 210.547 346.06 210.35C346.356 210.162 346.597 209.9 346.76 209.59C346.926 209.283 347.009 208.939 347 208.59L346.9 181.76C346.9 181.412 346.818 181.07 346.66 180.76C346.492 180.453 346.249 180.193 345.954 180.006C345.658 179.819 345.319 179.71 344.97 179.69C344.623 179.678 344.279 179.754 343.97 179.91H343.89L329.41 187.3L329.4 187.4ZM321.12 189.51H329.65C329.817 189.514 329.982 189.476 330.13 189.4L344.81 181.9L344.91 208.62L330.2 201.25C330.046 201.17 329.874 201.128 329.7 201.13H321.26H321.15C320.419 201.128 319.695 200.979 319.023 200.69C318.351 200.401 317.745 199.979 317.24 199.45C316.194 198.379 315.6 196.947 315.58 195.45V195.34C315.578 193.804 316.165 192.326 317.22 191.21C317.72 190.676 318.324 190.25 318.994 189.957C319.665 189.665 320.388 189.513 321.12 189.51V189.51Z" fill="white"/>
<path fill-rule="evenodd" clip-rule="evenodd" d="M319.28 201.88V211.23C319.283 212.114 319.636 212.961 320.262 213.585C320.888 214.209 321.736 214.56 322.62 214.56V214.56C323.502 214.557 324.348 214.206 324.972 213.582C325.596 212.958 325.947 212.112 325.95 211.23V202.12H321.17C320.532 202.132 319.895 202.051 319.28 201.88V201.88Z" fill="white"/>
<path d="M326.55 188.45H328.11V202.15H326.55V188.45Z" fill="white"/>
<path d="M321.54 188.45H323.1V202.15H321.54V188.45Z" fill="white"/>
<path fill-rule="evenodd" clip-rule="evenodd" d="M350 190.8C349.863 190.818 349.731 190.864 349.613 190.935C349.494 191.006 349.392 191.101 349.312 191.214C349.232 191.326 349.177 191.455 349.149 191.59C349.121 191.725 349.121 191.865 349.15 192C349.168 192.137 349.214 192.269 349.285 192.387C349.356 192.506 349.451 192.608 349.564 192.688C349.676 192.768 349.805 192.823 349.94 192.851C350.075 192.879 350.215 192.879 350.35 192.85L358.35 191.45C358.487 191.432 358.619 191.386 358.737 191.315C358.856 191.244 358.958 191.149 359.038 191.036C359.118 190.924 359.173 190.795 359.201 190.66C359.229 190.525 359.229 190.385 359.2 190.25C359.182 190.113 359.136 189.981 359.065 189.863C358.994 189.744 358.899 189.642 358.786 189.562C358.673 189.482 358.545 189.427 358.41 189.399C358.275 189.371 358.135 189.371 358 189.4L350 190.8ZM350.63 203.71C350.382 203.589 350.096 203.572 349.836 203.662C349.575 203.752 349.361 203.942 349.24 204.19C349.119 204.438 349.102 204.724 349.192 204.984C349.282 205.245 349.472 205.459 349.72 205.58L354.99 208.12C355.238 208.241 355.524 208.258 355.784 208.168C356.045 208.078 356.259 207.888 356.38 207.64C356.501 207.392 356.518 207.106 356.428 206.846C356.338 206.585 356.148 206.371 355.9 206.25L350.63 203.71V203.71ZM349.72 184.86C349.472 184.981 349.282 185.195 349.192 185.456C349.102 185.716 349.119 186.002 349.24 186.25C349.361 186.498 349.575 186.688 349.836 186.778C350.096 186.868 350.382 186.851 350.63 186.73L356.63 183.83C356.879 183.711 357.071 183.497 357.163 183.236C357.255 182.976 357.239 182.689 357.12 182.44C357.001 182.191 356.787 181.999 356.526 181.907C356.266 181.815 355.979 181.831 355.73 181.95L349.73 184.86H349.72ZM350.35 197.59C350.215 197.567 350.076 197.571 349.942 197.601C349.809 197.632 349.682 197.689 349.57 197.768C349.458 197.847 349.363 197.948 349.29 198.064C349.217 198.18 349.168 198.31 349.145 198.445C349.122 198.58 349.126 198.719 349.156 198.852C349.187 198.986 349.244 199.113 349.323 199.225C349.402 199.336 349.503 199.432 349.619 199.505C349.735 199.578 349.865 199.627 350 199.65L358 201.04C358.135 201.069 358.275 201.069 358.41 201.041C358.545 201.013 358.673 200.958 358.786 200.878C358.899 200.798 358.994 200.696 359.065 200.577C359.136 200.459 359.182 200.327 359.2 200.19C359.229 200.055 359.229 199.915 359.201 199.78C359.173 199.645 359.118 199.517 359.038 199.404C358.958 199.291 358.856 199.196 358.737 199.125C358.619 199.054 358.487 199.008 358.35 198.99L350.35 197.59Z" fill="white"/>
<path fill-rule="evenodd" clip-rule="evenodd" d="M82.55 56.3H134.61C136.433 56.3053 138.18 57.0318 139.469 58.3209C140.758 59.61 141.485 61.3569 141.49 63.18V111.7C141.493 111.853 141.45 112.004 141.366 112.132C141.282 112.26 141.161 112.36 141.02 112.418C140.878 112.477 140.722 112.491 140.572 112.459C140.422 112.427 140.286 112.351 140.18 112.24L128.46 100.52H82.55C80.7278 100.515 78.982 99.7878 77.6945 98.4984C76.4069 97.209 75.6826 95.4621 75.68 93.64V63.18C75.6852 61.3586 76.4104 59.6133 77.6974 58.3244C78.9843 57.0356 80.7286 56.3079 82.55 56.3Z" fill="#E0D8AA"/>
<path fill-rule="evenodd" clip-rule="evenodd" d="M85.55 56.3H137.55C139.373 56.3053 141.12 57.0318 142.409 58.3209C143.698 59.61 144.425 61.3569 144.43 63.18V111.7C144.433 111.853 144.39 112.004 144.306 112.132C144.222 112.26 144.101 112.36 143.96 112.418C143.818 112.477 143.662 112.491 143.512 112.459C143.362 112.427 143.226 112.351 143.12 112.24L131.45 100.52H85.55C83.7278 100.515 81.982 99.7878 80.6945 98.4984C79.4069 97.209 78.6826 95.4621 78.68 93.64V63.18C78.6852 61.3586 79.4104 59.6133 80.6974 58.3244C81.9843 57.0356 83.7286 56.3079 85.55 56.3Z" fill="#DC5645"/>
<path fill-rule="evenodd" clip-rule="evenodd" d="M124.55 77.47C123.561 77.47 122.594 77.1768 121.772 76.6274C120.95 76.0779 120.309 75.297 119.931 74.3834C119.552 73.4698 119.453 72.4644 119.646 71.4945C119.839 70.5246 120.315 69.6337 121.014 68.9345C121.714 68.2352 122.605 67.759 123.575 67.5661C124.544 67.3732 125.55 67.4722 126.463 67.8506C127.377 68.229 128.158 68.8699 128.707 69.6921C129.257 70.5144 129.55 71.4811 129.55 72.47C129.55 73.7961 129.023 75.0678 128.086 76.0055C127.148 76.9432 125.876 77.47 124.55 77.47V77.47Z" fill="#F09A9B"/>
<path fill-rule="evenodd" clip-rule="evenodd" d="M124.55 79.04C122.693 79.04 120.913 79.7775 119.6 81.0902C118.287 82.403 117.55 84.1835 117.55 86.04V92.9C117.55 93.0033 117.57 93.1055 117.61 93.2008C117.65 93.2961 117.708 93.3826 117.782 93.4551C117.855 93.5277 117.943 93.5849 118.038 93.6235C118.134 93.6621 118.237 93.6813 118.34 93.68H130.81C131.017 93.68 131.215 93.5978 131.362 93.4515C131.508 93.3053 131.59 93.1069 131.59 92.9V86.04C131.59 85.1174 131.408 84.2038 131.053 83.352C130.699 82.5001 130.18 81.7266 129.526 81.0761C128.871 80.4255 128.095 79.9107 127.241 79.5613C126.387 79.2119 125.473 79.0347 124.55 79.04V79.04Z" fill="#F09A9B"/>
<path fill-rule="evenodd" clip-rule="evenodd" d="M98.55 77.47C97.559 77.4799 96.5874 77.1951 95.7586 76.6518C94.9298 76.1084 94.2812 75.331 93.8951 74.4183C93.509 73.5056 93.4028 72.4987 93.5901 71.5256C93.7773 70.5524 94.2495 69.6568 94.9467 68.9525C95.644 68.2482 96.5348 67.7671 97.506 67.57C98.4773 67.373 99.4851 67.4691 100.402 67.846C101.318 68.2229 102.102 68.8637 102.654 69.687C103.205 70.5103 103.5 71.479 103.5 72.47C103.5 73.7875 102.98 75.0517 102.053 75.988C101.126 76.9242 99.8674 77.4568 98.55 77.47V77.47Z" fill="#F09A9B"/>
<path fill-rule="evenodd" clip-rule="evenodd" d="M98.55 79.04C96.6975 79.0531 94.9246 79.7948 93.6147 81.1047C92.3048 82.4147 91.5631 84.1875 91.55 86.04V92.9C91.5526 93.1078 91.637 93.3062 91.7849 93.4522C91.9328 93.5982 92.1322 93.68 92.34 93.68H104.8C105.008 93.68 105.207 93.5982 105.355 93.4522C105.503 93.3062 105.587 93.1078 105.59 92.9V86.04C105.577 84.1806 104.83 82.4018 103.511 81.0907C102.193 79.7797 100.409 79.0426 98.55 79.04Z" fill="#F09A9B"/>
<path fill-rule="evenodd" clip-rule="evenodd" d="M111.55 74.17C110.363 74.17 109.203 73.8181 108.217 73.1588C107.23 72.4995 106.461 71.5625 106.007 70.4661C105.553 69.3697 105.434 68.1633 105.665 66.9995C105.897 65.8356 106.468 64.7665 107.307 63.9274C108.146 63.0882 109.216 62.5168 110.379 62.2853C111.543 62.0538 112.75 62.1726 113.846 62.6267C114.942 63.0808 115.88 63.8499 116.539 64.8366C117.198 65.8233 117.55 66.9833 117.55 68.17C117.55 69.7613 116.918 71.2874 115.793 72.4126C114.667 73.5379 113.141 74.17 111.55 74.17Z" fill="white"/>
<path fill-rule="evenodd" clip-rule="evenodd" d="M111.55 76.06C109.311 76.0679 107.167 76.9607 105.584 78.5437C104.001 80.1266 103.108 82.2713 103.1 84.51V92.76C103.114 93.0063 103.22 93.2385 103.395 93.412C103.57 93.5855 103.804 93.6881 104.05 93.7H119.05C119.299 93.7 119.538 93.601 119.715 93.4247C119.891 93.2484 119.99 93.0093 119.99 92.76V84.51C119.982 82.2731 119.091 80.1299 117.51 78.5472C115.929 76.9645 113.787 76.0705 111.55 76.06V76.06Z" fill="white"/>
<path fill-rule="evenodd" clip-rule="evenodd" d="M39.13 201.7C35.0348 201.697 31.0655 203.115 27.8983 205.711C24.7311 208.307 22.5619 211.92 21.7606 215.936C20.9592 219.952 21.5752 224.122 23.5035 227.735C25.4319 231.347 28.5532 234.18 32.3358 235.749C36.1183 237.318 40.3279 237.527 44.2474 236.341C48.1668 235.154 51.5535 232.645 53.8304 229.241C56.1073 225.837 57.1334 221.749 56.734 217.674C56.3346 213.598 54.5343 209.787 51.64 206.89C49.9989 205.244 48.049 203.939 45.9023 203.048C43.7556 202.157 41.4541 201.699 39.13 201.7ZM23.35 220.34H30.55C30.5948 222.266 30.7955 224.186 31.15 226.08C29.3061 226.487 27.524 227.136 25.85 228.01C24.3545 225.717 23.4856 223.073 23.33 220.34H23.35ZM32.46 220.34H38.18V225.2C36.4501 225.241 34.7256 225.408 33.02 225.7C32.6837 223.932 32.4964 222.139 32.46 220.34V220.34ZM40.07 220.34H45.79C45.7536 222.139 45.5662 223.932 45.23 225.7C43.5244 225.408 41.7998 225.241 40.07 225.2V220.34ZM47.68 220.34H54.9C54.7443 223.073 53.8755 225.717 52.38 228.01C50.7059 227.136 48.9239 226.487 47.08 226.08C47.4345 224.186 47.6352 222.266 47.68 220.34V220.34ZM54.9 218.45H47.68C47.6451 216.818 47.4947 215.191 47.23 213.58C49.1762 213.141 51.0489 212.424 52.79 211.45C54.0379 213.583 54.7611 215.982 54.9 218.45V218.45ZM45.38 213.97C45.6216 215.452 45.7586 216.949 45.79 218.45H40.07V214.45C41.8506 214.412 43.6258 214.238 45.38 213.93V213.97ZM32.86 213.97C34.6176 214.278 36.396 214.452 38.18 214.49V218.49H32.46C32.4931 216.989 32.6267 215.493 32.86 214.01V213.97ZM30.57 218.45H23.35C23.4889 215.982 24.2121 213.583 25.46 211.45C27.2018 212.422 29.0743 213.14 31.02 213.58C30.7552 215.191 30.6048 216.818 30.57 218.45V218.45ZM38.18 203.76V212.61C36.5036 212.569 34.8325 212.405 33.18 212.12C33.4988 210.685 33.9577 209.285 34.55 207.94C35.22 206.47 36.46 204.37 38.14 203.76H38.18ZM38.18 227.09V235.03C36.5 234.42 35.26 232.33 34.59 230.85C34.1129 229.78 33.7249 228.673 33.43 227.54C35.001 227.28 36.5881 227.13 38.18 227.09V227.09ZM40.07 235.03V227.12C41.6618 227.16 43.249 227.31 44.82 227.57C44.525 228.703 44.1371 229.81 43.66 230.88C42.99 232.36 41.75 234.45 40.07 235.06V235.03ZM40.07 212.61V203.76C41.75 204.37 42.99 206.47 43.66 207.94C44.2522 209.285 44.7111 210.685 45.03 212.12C43.3775 212.405 41.7064 212.569 40.03 212.61H40.07ZM51.74 209.88C50.2087 210.716 48.5701 211.338 46.87 211.73C46.5321 210.158 46.0293 208.626 45.37 207.16C44.9124 206.119 44.3279 205.138 43.63 204.24C46.1524 204.996 48.4455 206.371 50.3 208.24C50.8195 208.758 51.3008 209.313 51.74 209.9V209.88ZM31.38 211.73C29.6804 211.337 28.0421 210.714 26.51 209.88C26.9492 209.293 27.4305 208.738 27.95 208.22C29.8074 206.354 32.0995 204.98 34.62 204.22C33.922 205.118 33.3376 206.099 32.88 207.14C32.225 208.608 31.7224 210.139 31.38 211.71V211.73ZM27.01 229.55C28.4505 228.822 29.9754 228.275 31.55 227.92C31.872 229.193 32.307 230.435 32.85 231.63C33.3054 232.672 33.89 233.653 34.59 234.55C32.0672 233.795 29.774 232.42 27.92 230.55C27.59 230.22 27.28 229.87 26.98 229.55H27.01ZM46.67 227.92C48.2544 228.274 49.7893 228.821 51.24 229.55C50.94 229.9 50.63 230.25 50.3 230.55C48.446 232.42 46.1527 233.795 43.63 234.55C44.33 233.653 44.9146 232.672 45.37 231.63C45.9129 230.435 46.348 229.193 46.67 227.92V227.92Z" fill="white"/>
<path fill-rule="evenodd" clip-rule="evenodd" d="M386.13 120.77C385.546 119.655 384.649 118.734 383.55 118.12C383.065 117.852 382.642 117.483 382.311 117.038C381.98 116.593 381.748 116.082 381.63 115.54C381.307 114.124 381.172 112.671 381.23 111.22C381.23 110.955 381.125 110.7 380.937 110.513C380.75 110.325 380.495 110.22 380.23 110.22H378.55C378.377 110.221 378.205 110.248 378.04 110.3C377.243 110.638 376.591 111.248 376.2 112.02C375.668 112.981 375.389 114.062 375.39 115.16C375.392 115.887 375.506 116.609 375.73 117.3C376.023 118.058 376.149 118.869 376.1 119.68C376.004 119.695 375.906 119.695 375.81 119.68H371.55C371.061 119.676 370.574 119.733 370.1 119.85C369.446 120.014 368.853 120.361 368.39 120.85C367.866 121.476 367.592 122.274 367.62 123.09C367.625 123.521 367.675 123.95 367.77 124.37C367.16 125.95 367.04 127.91 368.28 129.2C368.191 129.855 368.27 130.522 368.507 131.139C368.745 131.756 369.135 132.304 369.64 132.73C369.897 133.61 370.437 134.381 371.176 134.923C371.916 135.466 372.813 135.749 373.73 135.73H381.55C382.93 135.63 384.243 135.094 385.3 134.2C385.405 134.577 385.605 134.921 385.88 135.2V135.2C386.29 135.583 386.829 135.797 387.39 135.8H390.99C391.575 135.797 392.136 135.564 392.55 135.15C392.964 134.736 393.197 134.175 393.2 133.59V122.54C393.201 122.247 393.143 121.958 393.03 121.688C392.916 121.418 392.75 121.174 392.54 120.97C392.131 120.579 391.586 120.36 391.02 120.36H387.45C386.974 120.362 386.512 120.516 386.13 120.8V120.77ZM385.24 131.77C384.35 132.67 382.85 133.86 381.57 133.86H373.78C373.237 133.864 372.71 133.675 372.293 133.327C371.875 132.979 371.594 132.495 371.5 131.96C371.469 131.815 371.406 131.679 371.316 131.562C371.226 131.444 371.112 131.348 370.98 131.28C370.26 130.92 370.23 129.73 370.34 129.07C370.377 128.883 370.36 128.69 370.291 128.513C370.221 128.336 370.103 128.182 369.95 128.07C369.01 127.38 369.33 125.87 369.74 124.98C369.856 124.758 369.884 124.502 369.82 124.26C369.715 123.902 369.658 123.533 369.65 123.16C369.63 122.823 369.729 122.491 369.93 122.22C370.133 122.018 370.39 121.879 370.67 121.82C370.974 121.743 371.287 121.706 371.6 121.71H375.85C376.289 121.757 376.732 121.661 377.113 121.435C377.493 121.21 377.79 120.868 377.96 120.46C378.4 119.39 377.96 117.78 377.66 116.73C377.502 116.225 377.418 115.699 377.41 115.17C377.405 114.412 377.594 113.664 377.96 113C378.121 112.687 378.354 112.416 378.64 112.21H379.3C379.287 113.514 379.442 114.815 379.76 116.08C379.948 116.879 380.303 117.63 380.801 118.283C381.299 118.936 381.929 119.477 382.65 119.87C383.367 120.357 383.969 120.994 384.416 121.736C384.863 122.478 385.144 123.309 385.24 124.17V131.77ZM387.45 122.32H390.99C391.035 122.303 391.085 122.303 391.13 122.32C391.173 122.363 391.198 122.42 391.2 122.48V133.67C391.198 133.73 391.172 133.787 391.13 133.83C391.087 133.873 391.03 133.898 390.97 133.9H387.45C387.408 133.913 387.362 133.913 387.32 133.9V133.9C387.28 133.856 387.259 133.799 387.26 133.74V122.54C387.259 122.511 387.263 122.481 387.274 122.454C387.284 122.427 387.301 122.402 387.321 122.381C387.342 122.361 387.367 122.344 387.394 122.334C387.421 122.323 387.451 122.319 387.48 122.32H387.45Z" fill="white"/>
<path d="M100.92 38.88H103.93C104.653 38.88 105.24 39.4665 105.24 40.19V43.2C105.24 43.9235 104.653 44.51 103.93 44.51H100.92C100.196 44.51 99.61 43.9235 99.61 43.2V40.19C99.61 39.4665 100.196 38.88 100.92 38.88Z" fill="white"/>
<path d="M90.5 38.88H93.51C94.2335 38.88 94.82 39.4665 94.82 40.19V43.2C94.82 43.9235 94.2335 44.51 93.51 44.51H90.5C89.7765 44.51 89.19 43.9235 89.19 43.2V40.19C89.19 39.4665 89.7765 38.88 90.5 38.88Z" fill="#E0D8AA"/>
<path d="M80.07 38.88H83.08C83.8035 38.88 84.39 39.4665 84.39 40.19V43.2C84.39 43.9235 83.8035 44.51 83.08 44.51H80.07C79.3465 44.51 78.76 43.9235 78.76 43.2V40.19C78.76 39.4665 79.3465 38.88 80.07 38.88Z" fill="white"/>
<path d="M69.65 38.88H72.66C73.3835 38.88 73.97 39.4665 73.97 40.19V43.2C73.97 43.9235 73.3835 44.51 72.66 44.51H69.65C68.9265 44.51 68.34 43.9235 68.34 43.2V40.19C68.34 39.4665 68.9265 38.88 69.65 38.88Z" fill="#E0D8AA"/>
<path d="M59.23 38.88H62.24C62.9635 38.88 63.55 39.4665 63.55 40.19V43.2C63.55 43.9235 62.9635 44.51 62.24 44.51H59.23C58.5065 44.51 57.92 43.9235 57.92 43.2V40.19C57.92 39.4665 58.5065 38.88 59.23 38.88Z" fill="white"/>
<path d="M48.81 38.88H51.82C52.5435 38.88 53.13 39.4665 53.13 40.19V43.2C53.13 43.9235 52.5435 44.51 51.82 44.51H48.81C48.0865 44.51 47.5 43.9235 47.5 43.2V40.19C47.5 39.4665 48.0865 38.88 48.81 38.88Z" fill="white"/>
<path d="M38.39 38.88H41.4C42.1235 38.88 42.71 39.4665 42.71 40.19V43.2C42.71 43.9235 42.1235 44.51 41.4 44.51H38.39C37.6665 44.51 37.08 43.9235 37.08 43.2V40.19C37.08 39.4665 37.6665 38.88 38.39 38.88Z" fill="white"/>
<path d="M69.28 27.52H72.29C73.0135 27.52 73.6 28.1065 73.6 28.83V31.84C73.6 32.5635 73.0135 33.15 72.29 33.15H69.28C68.5565 33.15 67.97 32.5635 67.97 31.84V28.83C67.97 28.1065 68.5565 27.52 69.28 27.52Z" fill="white"/>
<path d="M58.85 27.52H61.86C62.5835 27.52 63.17 28.1065 63.17 28.83V31.84C63.17 32.5635 62.5835 33.15 61.86 33.15H58.85C58.1265 33.15 57.54 32.5635 57.54 31.84V28.83C57.54 28.1065 58.1265 27.52 58.85 27.52Z" fill="#E0D8AA"/>
<path d="M48.43 27.52H51.44C52.1635 27.52 52.75 28.1065 52.75 28.83V31.84C52.75 32.5635 52.1635 33.15 51.44 33.15H48.43C47.7065 33.15 47.12 32.5635 47.12 31.84V28.83C47.12 28.1065 47.7065 27.52 48.43 27.52Z" fill="white"/>
<path d="M59.23 51.09H62.24C62.9635 51.09 63.55 51.6765 63.55 52.4V55.41C63.55 56.1335 62.9635 56.72 62.24 56.72H59.23C58.5065 56.72 57.92 56.1335 57.92 55.41V52.4C57.92 51.6765 58.5065 51.09 59.23 51.09Z" fill="white"/>
<path d="M48.81 51.09H51.82C52.5435 51.09 53.13 51.6765 53.13 52.4V55.41C53.13 56.1335 52.5435 56.72 51.82 56.72H48.81C48.0865 56.72 47.5 56.1335 47.5 55.41V52.4C47.5 51.6765 48.0865 51.09 48.81 51.09Z" fill="#E0D8AA"/>
<path fill-rule="evenodd" clip-rule="evenodd" d="M315.12 130.45C313.668 129.009 311.706 128.2 309.66 128.2C307.614 128.2 305.652 129.009 304.2 130.45L303.46 131.2L302.71 130.45C301.258 129.009 299.296 128.2 297.25 128.2C295.204 128.2 293.242 129.009 291.79 130.45C290.349 131.902 289.54 133.864 289.54 135.91C289.54 137.956 290.349 139.918 291.79 141.37L292.55 142.12L303.48 153.04L314.38 142.12L315.12 141.37C316.561 139.918 317.37 137.956 317.37 135.91C317.37 133.864 316.561 131.902 315.12 130.45V130.45Z" fill="white"/>
<path fill-rule="evenodd" clip-rule="evenodd" d="M329.86 258.74C337.86 250.58 343.86 260.94 343 271.34C342.21 281.2 333.71 315.03 335.28 329.26H332.03C324.07 311.01 319.61 269.18 329.86 258.74Z" fill="#63A9BA"/>
<path fill-rule="evenodd" clip-rule="evenodd" d="M333.23 329.26C325.48 300.5 335.29 260.73 335.32 260.6C335.33 260.537 335.353 260.477 335.387 260.424C335.422 260.37 335.467 260.324 335.52 260.289C335.573 260.254 335.633 260.23 335.696 260.219C335.759 260.209 335.823 260.211 335.885 260.226C335.946 260.241 336.004 260.269 336.055 260.308C336.105 260.347 336.147 260.396 336.178 260.452C336.208 260.507 336.227 260.569 336.232 260.632C336.238 260.696 336.23 260.76 336.21 260.82C336.21 260.95 326.36 300.76 334.21 329.26H333.23Z" fill="#80B9C9"/>
<path fill-rule="evenodd" clip-rule="evenodd" d="M349.62 276.71C358.06 272.24 360.19 281.99 356.9 290.07C354.17 296.76 342.12 316.55 337.57 329.26H333.28C332.91 311.69 339.66 281.99 349.62 276.71Z" fill="white"/>
<path fill-rule="evenodd" clip-rule="evenodd" d="M334.85 329.26C337.64 305.5 353.44 279.67 353.5 279.57C353.522 279.518 353.554 279.472 353.596 279.434C353.637 279.396 353.686 279.368 353.739 279.351C353.792 279.333 353.849 279.328 353.904 279.334C353.96 279.341 354.014 279.359 354.061 279.388C354.109 279.417 354.15 279.456 354.182 279.502C354.213 279.549 354.234 279.601 354.244 279.657C354.253 279.712 354.251 279.768 354.236 279.822C354.222 279.876 354.196 279.927 354.16 279.97C354.1 280.06 338.4 305.73 335.61 329.26H334.85Z" fill="#B8B8C1"/>
<path fill-rule="evenodd" clip-rule="evenodd" d="M313.95 287.99C305.77 284.41 304.47 293.66 308.1 300.99C310.56 305.92 319.42 318.55 325.39 329.3H332.2C329.87 313 322.4 291.68 313.95 287.99Z" fill="#3A7F80"/>
<path fill-rule="evenodd" clip-rule="evenodd" d="M329.77 329.26C323.96 309.56 310.59 291 310.53 290.93C310.471 290.864 310.389 290.822 310.3 290.812C310.212 290.803 310.123 290.827 310.051 290.879C309.979 290.931 309.928 291.008 309.91 291.095C309.891 291.182 309.906 291.273 309.95 291.35C309.95 291.42 323.24 309.79 329.03 329.26H329.77Z" fill="#51A5A5"/>
<path d="M318.18 321.59H346.46C347.31 321.59 348 322.279 348 323.13V330.11C348 330.961 347.31 331.65 346.46 331.65H318.18C317.329 331.65 316.64 330.961 316.64 330.11V323.13C316.64 322.279 317.329 321.59 318.18 321.59Z" fill="#2F365C"/>
<path fill-rule="evenodd" clip-rule="evenodd" d="M341.61 327.27H323.03L318.18 331.65L322.14 346.91H332.32H342.5L346.46 331.65L341.61 327.27Z" fill="#2F365C"/>
<path fill-rule="evenodd" clip-rule="evenodd" d="M318.18 331.65L318.99 334.79H345.65L346.46 331.65H318.18Z" fill="#121C39"/>
<path d="M183.63 41.6C182.177 41.6 181 40.4225 181 38.97C181 37.5175 182.177 36.34 183.63 36.34C185.082 36.34 186.26 37.5175 186.26 38.97C186.26 40.4225 185.082 41.6 183.63 41.6Z" fill="#E0D8AA"/>
<path d="M140.82 192.2C139.367 192.2 138.19 191.023 138.19 189.57C138.19 188.117 139.367 186.94 140.82 186.94C142.272 186.94 143.45 188.117 143.45 189.57C143.45 191.023 142.272 192.2 140.82 192.2Z" fill="#E0D8AA"/>
<path d="M87.49 301.86C86.0375 301.86 84.86 300.683 84.86 299.23C84.86 297.778 86.0375 296.6 87.49 296.6C88.9425 296.6 90.12 297.778 90.12 299.23C90.12 300.683 88.9425 301.86 87.49 301.86Z" fill="#A6CAE4"/>
<path d="M393.94 280.83C392.487 280.83 391.31 279.653 391.31 278.2C391.31 276.748 392.487 275.57 393.94 275.57C395.392 275.57 396.57 276.748 396.57 278.2C396.57 279.653 395.392 280.83 393.94 280.83Z" fill="#E0D8AA"/>
<path fill-rule="evenodd" clip-rule="evenodd" d="M78.47 121.59C77.9498 121.59 77.4414 121.436 77.0089 121.147C76.5763 120.858 76.2393 120.447 76.0402 119.966C75.8411 119.486 75.7891 118.957 75.8905 118.447C75.992 117.937 76.2425 117.468 76.6103 117.1C76.9781 116.732 77.4467 116.482 77.9569 116.381C78.4671 116.279 78.9959 116.331 79.4764 116.53C79.957 116.729 80.3678 117.066 80.6567 117.499C80.9457 117.931 81.1 118.44 81.1 118.96C81.1 119.658 80.8229 120.326 80.3297 120.82C79.8365 121.313 79.1675 121.59 78.47 121.59Z" fill="#E0D8AA"/>
<path d="M315.08 104.32C313.627 104.32 312.45 103.143 312.45 101.69C312.45 100.237 313.627 99.06 315.08 99.06C316.532 99.06 317.71 100.237 317.71 101.69C317.71 103.143 316.532 104.32 315.08 104.32Z" fill="#E0D8AA"/>
<path d="M321.46 255.29C320.007 255.29 318.83 254.113 318.83 252.66C318.83 251.207 320.007 250.03 321.46 250.03C322.912 250.03 324.09 251.207 324.09 252.66C324.09 254.113 322.912 255.29 321.46 255.29Z" fill="white"/>
<path d="M70.21 242.15C68.7575 242.15 67.58 240.973 67.58 239.52C67.58 238.067 68.7575 236.89 70.21 236.89C71.6625 236.89 72.84 238.067 72.84 239.52C72.84 240.973 71.6625 242.15 70.21 242.15Z" fill="white"/>
<path fill-rule="evenodd" clip-rule="evenodd" d="M122.79 130.98C122.27 130.98 121.761 130.826 121.329 130.537C120.896 130.248 120.559 129.837 120.36 129.356C120.161 128.876 120.109 128.347 120.211 127.837C120.312 127.327 120.562 126.858 120.93 126.49C121.298 126.123 121.767 125.872 122.277 125.771C122.787 125.669 123.316 125.721 123.796 125.92C124.277 126.119 124.688 126.456 124.977 126.889C125.266 127.321 125.42 127.83 125.42 128.35C125.42 129.048 125.143 129.716 124.65 130.21C124.156 130.703 123.487 130.98 122.79 130.98V130.98Z" fill="white"/>
<path d="M144.2 33.72C142.747 33.72 141.57 32.5425 141.57 31.09C141.57 29.6375 142.747 28.46 144.2 28.46C145.652 28.46 146.83 29.6375 146.83 31.09C146.83 32.5425 145.652 33.72 144.2 33.72Z" fill="white"/>
<path d="M38.29 99.81C36.8375 99.81 35.66 98.6325 35.66 97.18C35.66 95.7275 36.8375 94.55 38.29 94.55C39.7425 94.55 40.92 95.7275 40.92 97.18C40.92 98.6325 39.7425 99.81 38.29 99.81Z" fill="white"/>
<path fill-rule="evenodd" clip-rule="evenodd" d="M80.24 321.61C78.2503 321.609 76.322 322.299 74.7836 323.561C73.2453 324.823 72.192 326.579 71.8034 328.53C71.4148 330.482 71.7148 332.507 72.6523 334.262C73.5898 336.017 75.1069 337.393 76.9449 338.155C78.783 338.916 80.8283 339.017 82.7325 338.44C84.6366 337.863 86.2817 336.643 87.3874 334.989C88.4932 333.335 88.9911 331.349 88.7965 329.369C88.6019 327.389 87.7266 325.537 86.32 324.13C85.5236 323.329 84.5762 322.693 83.5325 322.261C82.4888 321.828 81.3697 321.607 80.24 321.61ZM76.54 326.5C77.3973 325.646 78.524 325.117 79.7282 325C80.9324 324.884 82.1396 325.189 83.1441 325.863C84.1487 326.538 84.8885 327.539 85.2375 328.697C85.5866 329.856 85.5233 331.099 85.0584 332.216C84.5936 333.333 83.7559 334.254 82.6881 334.823C81.6203 335.391 80.3884 335.572 79.2022 335.334C78.016 335.097 76.9489 334.455 76.1827 333.519C75.4165 332.583 74.9985 331.41 75 330.2C75.001 329.511 75.1386 328.83 75.4046 328.195C75.6706 327.56 76.0599 326.984 76.55 326.5H76.54Z" fill="#A62A34"/>
<path fill-rule="evenodd" clip-rule="evenodd" d="M93.93 347.04C90.3581 347.029 86.9356 345.606 84.4099 343.08C81.8841 340.554 80.4605 337.132 80.45 333.56V319.51C80.4487 319.353 80.4785 319.197 80.5377 319.052C80.5969 318.906 80.6843 318.774 80.795 318.662C80.9056 318.551 81.0372 318.462 81.1823 318.402C81.3273 318.341 81.4829 318.31 81.64 318.31H106.22C106.537 318.313 106.839 318.44 107.062 318.665C107.285 318.89 107.41 319.193 107.41 319.51V333.56C107.399 337.132 105.976 340.554 103.45 343.08C100.924 345.606 97.5019 347.029 93.93 347.04V347.04Z" fill="#D84F50"/>
<path fill-rule="evenodd" clip-rule="evenodd" d="M85.06 331.87C85.0579 333.273 85.2807 334.667 85.72 336C85.9481 336.734 86.2461 337.443 86.61 338.12C88.083 340.91 90.4797 343.102 93.39 344.32C95.7156 345.286 98.2654 345.58 100.75 345.17C98.4618 346.526 95.8211 347.17 93.1654 347.019C90.5096 346.867 87.9592 345.928 85.84 344.32C83.747 342.756 82.1553 340.615 81.26 338.16C80.7254 336.685 80.4513 335.129 80.45 333.56V319.51C80.4487 319.353 80.4785 319.197 80.5377 319.052C80.5969 318.906 80.6843 318.774 80.795 318.662C80.9056 318.551 81.0372 318.462 81.1823 318.402C81.3273 318.341 81.4829 318.31 81.64 318.31H85.06V331.87Z" fill="#A62A34"/>
<path fill-rule="evenodd" clip-rule="evenodd" d="M105.61 347.04H82.25C81.7734 347.037 81.3171 346.847 80.9801 346.51C80.6431 346.173 80.4526 345.717 80.45 345.24C80.4526 344.763 80.6431 344.307 80.9801 343.97C81.3171 343.633 81.7734 343.443 82.25 343.44H105.61C106.087 343.443 106.543 343.633 106.88 343.97C107.217 344.307 107.407 344.763 107.41 345.24V345.24C107.407 345.717 107.217 346.173 106.88 346.51C106.543 346.847 106.087 347.037 105.61 347.04V347.04Z" fill="#D84F50"/>
<path d="M100.82 323.15C100.82 321.896 101.836 320.88 103.09 320.88C104.344 320.88 105.36 321.896 105.36 323.15V331.28C105.36 332.534 104.344 333.55 103.09 333.55C101.836 333.55 100.82 332.534 100.82 331.28V323.15Z" fill="#DE7272"/>
<path fill-rule="evenodd" clip-rule="evenodd" d="M105.44 301.69H95.17C94.7951 301.69 94.4354 301.542 94.1694 301.278C93.9034 301.013 93.7526 300.655 93.75 300.28V300.28C93.7526 299.904 93.9031 299.545 94.1688 299.279C94.4345 299.013 94.7942 298.863 95.17 298.86H108.99C109.97 298.855 110.908 298.463 111.6 297.77C112.293 297.078 112.685 296.14 112.69 295.16V295.16C112.687 294.18 112.297 293.24 111.603 292.547C110.91 291.853 109.97 291.463 108.99 291.46H73.04C72.0595 291.463 71.1199 291.853 70.4266 292.547C69.7333 293.24 69.3426 294.18 69.34 295.16V295.16C69.3452 296.14 69.7368 297.078 70.4295 297.77C71.1223 298.463 72.0603 298.855 73.04 298.86H85.55C85.9258 298.863 86.2854 299.013 86.5512 299.279C86.8169 299.545 86.9674 299.904 86.97 300.28V300.28C86.9674 300.655 86.8166 301.013 86.5506 301.278C86.2846 301.542 85.9249 301.69 85.55 301.69H80.73C79.9723 301.693 79.2464 301.995 78.7106 302.531C78.1748 303.066 77.8726 303.792 77.87 304.55V304.55C77.8726 305.307 78.1751 306.032 78.7112 306.566C79.2472 307.1 79.9732 307.4 80.73 307.4H88.73C90.2348 307.405 91.6765 308.005 92.7405 309.069C93.8046 310.134 94.4047 311.575 94.41 313.08V315.69C94.4126 316.045 94.5546 316.384 94.8054 316.635C95.0561 316.885 95.3954 317.027 95.75 317.03C96.1046 317.027 96.4439 316.885 96.6946 316.635C96.9453 316.384 97.0874 316.045 97.09 315.69V310.69C97.0926 309.808 97.4443 308.962 98.0682 308.338C98.6922 307.714 99.5376 307.363 100.42 307.36H105.42C106.177 307.36 106.903 307.06 107.439 306.526C107.975 305.992 108.277 305.267 108.28 304.51V304.51C108.267 303.763 107.963 303.05 107.433 302.523C106.902 301.997 106.187 301.698 105.44 301.69V301.69Z" fill="white"/>
</g>
<defs>
<clipPath id="clip0">
<rect width="425.1" height="368.31" fill="white" transform="matrix(-1 0 0 1 425.1 0)"/>
</clipPath>
</defs>
</svg>
