<?xml version="1.0" encoding="utf-8"?>
<!-- Generator: Adobe Illustrator 23.0.4, SVG Export Plug-In . SVG Version: 6.00 Build 0)  -->
<svg version="1.1" id="Слой_1" xmlns="http://www.w3.org/2000/svg" xmlns:xlink="http://www.w3.org/1999/xlink" x="0px" y="0px"
	 viewBox="0 0 91 89" style="enable-background:new 0 0 91 89;" xml:space="preserve">
<style type="text/css">
	.st0{fill:#E2CFC1;}
	.st1{fill:#E5C333;}
	.st2{fill:#DDA533;}
	.st3{fill:#E0634F;}
	.st4{fill:#F8D646;}
	.st5{fill:#F4BE4A;}
	.st6{fill:#F57B61;}
	.st7{fill:#FFECB4;}
	.st8{fill:#91CFBA;}
</style>
<g>
	<g>
		<path class="st0" d="M91.4,85.2c0,1.6-20.3,2.8-45.4,2.8c-25.1,0-45.4-1.3-45.4-2.8c0-1.6,20.3-2.8,45.4-2.8
			C71.1,82.3,91.4,83.6,91.4,85.2z"/>
	</g>
	<g>
		<g>
			<rect x="10.8" y="14.6" class="st1" width="9" height="71"/>
		</g>
		<g>
			<rect x="10.8" y="42.2" class="st2" width="9" height="43.3"/>
		</g>
		<g>
			<rect x="10.8" y="50.1" class="st3" width="9" height="35.5"/>
		</g>
	</g>
	<g>
		<g>
			<rect x="22.7" y="33.4" class="st1" width="9.9" height="52.2"/>
		</g>
		<g>
			<rect x="22.7" y="55.5" class="st2" width="9.9" height="30.1"/>
		</g>
		<g>
			<rect x="22.7" y="62.4" class="st3" width="9.9" height="23.2"/>
		</g>
	</g>
	<g>
		<g>
			<rect x="35.4" y="25.3" class="st1" width="9" height="60.2"/>
		</g>
		<g>
			<rect x="35.4" y="37.7" class="st2" width="9" height="47.9"/>
		</g>
		<g>
			<rect x="35.4" y="44" class="st3" width="9" height="41.6"/>
		</g>
	</g>
	<g>
		<g>
			<rect x="47.2" y="45.8" class="st1" width="9.9" height="39.7"/>
		</g>
		<g>
			<rect x="47.2" y="63.9" class="st2" width="9.9" height="21.7"/>
		</g>
		<g>
			<rect x="47.2" y="70.3" class="st3" width="9.9" height="15.3"/>
		</g>
	</g>
	<g>
		<g>
			<rect x="60.1" y="14.6" class="st1" width="9" height="71"/>
		</g>
		<g>
			<rect x="60.1" y="45.9" class="st2" width="9" height="39.6"/>
		</g>
		<g>
			<rect x="60.1" y="52" class="st3" width="9" height="33.5"/>
		</g>
	</g>
	<g>
		<g>
			<rect x="72" y="33.4" class="st1" width="9.9" height="52.2"/>
		</g>
		<g>
			<rect x="72" y="50.1" class="st2" width="9.9" height="35.5"/>
		</g>
		<g>
			<rect x="72" y="55.5" class="st3" width="9.9" height="30.1"/>
		</g>
	</g>
	<g>
		<g>
			<rect x="8.8" y="14.6" class="st4" width="9" height="71"/>
		</g>
		<g>
			<rect x="8.8" y="42.2" class="st5" width="9" height="43.3"/>
		</g>
		<g>
			<rect x="8.8" y="50.1" class="st6" width="9" height="35.5"/>
		</g>
	</g>
	<g>
		<g>
			<rect x="20.7" y="33.4" class="st4" width="9.9" height="52.2"/>
		</g>
		<g>
			<rect x="20.7" y="55.5" class="st5" width="9.9" height="30.1"/>
		</g>
		<g>
			<rect x="20.7" y="62.4" class="st6" width="9.9" height="23.2"/>
		</g>
	</g>
	<g>
		<g>
			<rect x="33.4" y="25.3" class="st4" width="9" height="60.2"/>
		</g>
		<g>
			<rect x="33.4" y="37.7" class="st5" width="9" height="47.9"/>
		</g>
		<g>
			<rect x="33.4" y="44" class="st6" width="9" height="41.6"/>
		</g>
	</g>
	<g>
		<g>
			<rect x="45.2" y="45.8" class="st4" width="9.9" height="39.7"/>
		</g>
		<g>
			<rect x="45.2" y="63.9" class="st5" width="9.9" height="21.7"/>
		</g>
		<g>
			<rect x="45.2" y="70.3" class="st6" width="9.9" height="15.3"/>
		</g>
	</g>
	<g>
		<g>
			<rect x="58.1" y="14.6" class="st4" width="9" height="71"/>
		</g>
		<g>
			<rect x="58.1" y="45.9" class="st5" width="9" height="39.6"/>
		</g>
		<g>
			<rect x="58.1" y="52" class="st6" width="9" height="33.5"/>
		</g>
	</g>
	<g>
		<g>
			<rect x="70" y="33.4" class="st4" width="9.9" height="52.2"/>
		</g>
		<g>
			<rect x="70" y="50.1" class="st5" width="9.9" height="35.5"/>
		</g>
		<g>
			<rect x="70" y="55.5" class="st6" width="9.9" height="30.1"/>
		</g>
	</g>
	<g>
		<g>
			<g>
				<polygon class="st7" points="10.8,70.1 2.5,59.6 3.2,59 10.7,68.5 20.1,52.7 26.3,65.9 37.8,58 43.9,66.8 55,51.7 60.5,63.3 
					68.1,58.9 76.4,73.1 85,68.8 85,68.8 85.5,69.6 85.5,69.6 76.1,74.3 67.8,60.1 60.1,64.6 54.8,53.5 43.9,68.4 37.5,59.3 
					25.9,67.3 20,54.7 				"/>
			</g>
		</g>
		<g>
			<g>
				<path class="st8" d="M12,68.9c-0.1,0.8-0.8,1.3-1.5,1.2c-0.8-0.1-1.3-0.8-1.2-1.5c0.1-0.8,0.8-1.3,1.5-1.2
					C11.5,67.5,12.1,68.2,12,68.9z"/>
			</g>
		</g>
		<g>
			<g>
				<path class="st8" d="M4.2,59.3c-0.1,0.8-0.8,1.3-1.5,1.2C2,60.4,1.4,59.8,1.5,59c0.1-0.7,0.8-1.3,1.5-1.2
					C3.7,57.9,4.3,58.5,4.2,59.3z"/>
			</g>
		</g>
		<g>
			<g>
				<path class="st8" d="M21.3,53.8c-0.1,0.7-0.8,1.3-1.5,1.2c-0.8-0.1-1.3-0.8-1.2-1.5c0.1-0.8,0.8-1.3,1.5-1.2
					C20.8,52.3,21.4,53,21.3,53.8z"/>
			</g>
		</g>
		<g>
			<g>
				<path class="st8" d="M27.4,66.6c-0.1,0.8-0.8,1.3-1.5,1.2c-0.8-0.1-1.3-0.8-1.2-1.5c0.1-0.8,0.8-1.3,1.5-1.2
					C26.9,65.2,27.5,65.9,27.4,66.6z"/>
			</g>
		</g>
		<g>
			<g>
				<path class="st8" d="M39,58.8c-0.1,0.8-0.8,1.3-1.5,1.2c-0.8-0.1-1.3-0.8-1.2-1.5c0.1-0.8,0.8-1.3,1.5-1.2
					C38.6,57.4,39.1,58.1,39,58.8z"/>
			</g>
		</g>
		<g>
			<g>
				<path class="st8" d="M45.3,67.8c-0.1,0.8-0.8,1.3-1.5,1.2c-0.8-0.1-1.3-0.8-1.2-1.5c0.1-0.8,0.8-1.3,1.5-1.2
					C44.8,66.4,45.3,67,45.3,67.8z"/>
			</g>
		</g>
		<g>
			<g>
				<path class="st8" d="M56.4,52.8c-0.1,0.8-0.8,1.3-1.5,1.2c-0.8-0.1-1.3-0.8-1.2-1.5c0.1-0.8,0.8-1.3,1.5-1.2
					C55.9,51.4,56.5,52,56.4,52.8z"/>
			</g>
		</g>
		<g>
			<g>
				<path class="st8" d="M61.6,64.1c-0.1,0.8-0.8,1.3-1.5,1.2c-0.8-0.1-1.3-0.8-1.2-1.5c0.1-0.7,0.8-1.3,1.5-1.2
					C61.2,62.6,61.7,63.3,61.6,64.1z"/>
			</g>
		</g>
		<g>
			<g>
				<path class="st8" d="M69.4,59.8c-0.1,0.8-0.8,1.3-1.5,1.2c-0.8-0.1-1.3-0.8-1.2-1.5c0.1-0.8,0.8-1.3,1.5-1.2
					C68.9,58.4,69.5,59.1,69.4,59.8z"/>
			</g>
		</g>
		<g>
			<g>
				<path class="st8" d="M77.7,73.6c-0.1,0.8-0.8,1.3-1.5,1.2c-0.8-0.1-1.3-0.8-1.2-1.5c0.1-0.8,0.8-1.3,1.5-1.2
					C77.2,72.2,77.8,72.8,77.7,73.6z"/>
			</g>
		</g>
		<g>
			<g>
				<path class="st8" d="M86.7,69.5c-0.1,0.8-0.8,1.3-1.5,1.2c-0.8-0.1-1.3-0.8-1.2-1.5c0.1-0.8,0.8-1.3,1.5-1.2
					C86.3,68,86.8,68.7,86.7,69.5z"/>
			</g>
		</g>
	</g>
</g>
</svg>
