<?xml version="1.0" encoding="utf-8"?>
<!-- Generator: Adobe Illustrator 23.0.4, SVG Export Plug-In . SVG Version: 6.00 Build 0)  -->
<svg version="1.1" id="Слой_1" xmlns="http://www.w3.org/2000/svg" xmlns:xlink="http://www.w3.org/1999/xlink" x="0px" y="0px"
	 viewBox="0 0 91 89" style="enable-background:new 0 0 91 89;" xml:space="preserve">
<style type="text/css">
	.st0{fill:#E2CFC1;}
	.st1{fill:#DD5B45;}
	.st2{fill:#F57B61;}
	.st3{fill:#F8D646;}
	.st4{fill:#7A4644;}
</style>
<g>
	<g>
		<path class="st0" d="M90.6,86.4c0,1.6-20.3,2.8-45.4,2.8c-25.1,0-45.4-1.3-45.4-2.8c0-1.6,20.3-2.8,45.4-2.8
			C70.2,83.5,90.6,84.8,90.6,86.4z"/>
	</g>
	<g>
		<g>
			<path class="st1" d="M86.6,56.6c-5.2,21-26.4,33.8-47.3,28.6c-21-5.2-33.8-26.4-28.6-47.3C15.8,16.9,37,4.1,58,9.2
				C79,14.4,91.8,35.6,86.6,56.6z"/>
		</g>
		<g>
			<path class="st2" d="M82.6,56.6c-5.2,21-26.4,33.8-47.3,28.6c-21-5.2-33.8-26.4-28.6-47.3C11.8,16.9,33,4.1,54,9.2
				C75,14.4,87.8,35.6,82.6,56.6z"/>
		</g>
		<g>
			<path class="st3" d="M76,55c-4.3,17.4-21.8,27.9-39.1,23.7C19.5,74.4,8.9,56.9,13.2,39.5C17.5,22.2,35,11.6,52.4,15.8
				C69.7,20.1,80.3,37.6,76,55z"/>
		</g>
		<g>
			<path class="st2" d="M69,53.2C65.7,66.7,52.1,75,38.6,71.6c-13.5-3.3-21.7-16.9-18.4-30.4c3.3-13.5,16.9-21.7,30.4-18.4
				C64.1,26.2,72.3,39.8,69,53.2z"/>
		</g>
		<g>
			<path class="st3" d="M58.6,50.7c-1.9,7.8-9.7,12.5-17.5,10.6c-7.8-1.9-12.5-9.7-10.6-17.5c1.9-7.7,9.7-12.5,17.5-10.6
				C55.8,35.1,60.6,42.9,58.6,50.7z"/>
		</g>
		<g>
			<path class="st2" d="M50.2,48.6c-0.8,3.1-3.9,4.9-6.9,4.2c-3.1-0.8-4.9-3.9-4.2-6.9c0.8-3.1,3.9-4.9,6.9-4.2
				C49,42.4,50.9,45.5,50.2,48.6z"/>
		</g>
		<g>
			<g>
				<rect x="33" y="7.3" transform="matrix(0.8798 -0.4754 0.4754 0.8798 -9.7702 19.521)" class="st4" width="1.4" height="43.5"/>
			</g>
			<g>
				<path class="st4" d="M43.4,48c-0.1,0.4,0.2,0.7,0.5,0.8c0.4,0.1,0.8-0.1,0.9-0.5c0.1-0.4-0.2-0.7-0.5-0.8
					C43.8,47.5,43.4,47.7,43.4,48z"/>
			</g>
			<g>
				<polygon class="st4" points="23.9,0.6 22.2,4.9 17.3,3.7 25.7,21.5 30.8,23.9 32.1,18 				"/>
			</g>
		</g>
	</g>
</g>
</svg>
