<?xml version="1.0" encoding="utf-8"?>
<!-- Generator: Adobe Illustrator 23.0.4, SVG Export Plug-In . SVG Version: 6.00 Build 0)  -->
<svg version="1.1" id="OBJECTS" xmlns="http://www.w3.org/2000/svg" xmlns:xlink="http://www.w3.org/1999/xlink" x="0px" y="0px"
	 viewBox="0 0 452 299" style="enable-background:new 0 0 452 299;" xml:space="preserve">
<style type="text/css">
	.st0{opacity:0.83;}
	.st1{fill-rule:evenodd;clip-rule:evenodd;fill:#B5E3F4;}
	.st2{fill-rule:evenodd;clip-rule:evenodd;fill:#84788F;}
	.st3{fill-rule:evenodd;clip-rule:evenodd;fill:#7E6C82;}
	.st4{fill-rule:evenodd;clip-rule:evenodd;fill:#725166;}
	.st5{fill-rule:evenodd;clip-rule:evenodd;fill:#844E8F;}
	.st6{fill-rule:evenodd;clip-rule:evenodd;fill:#7F4784;}
	.st7{fill-rule:evenodd;clip-rule:evenodd;fill:#6C2D59;}
	.st8{fill-rule:evenodd;clip-rule:evenodd;fill:#738067;}
	.st9{fill-rule:evenodd;clip-rule:evenodd;fill:#6C6656;}
	.st10{fill-rule:evenodd;clip-rule:evenodd;fill:#68594D;}
	.st11{fill-rule:evenodd;clip-rule:evenodd;fill:#EFAF9E;}
	.st12{fill-rule:evenodd;clip-rule:evenodd;fill:#EEAD9A;}
	.st13{fill-rule:evenodd;clip-rule:evenodd;fill:#1E1925;}
	.st14{fill-rule:evenodd;clip-rule:evenodd;fill:#7B4652;}
	.st15{fill-rule:evenodd;clip-rule:evenodd;fill:#EDA08C;}
	.st16{fill-rule:evenodd;clip-rule:evenodd;fill:#E86870;}
	.st17{fill-rule:evenodd;clip-rule:evenodd;fill:#3D211A;}
	.st18{fill-rule:evenodd;clip-rule:evenodd;fill:#FAFFFF;}
	.st19{fill-rule:evenodd;clip-rule:evenodd;fill:#000313;}
	.st20{fill-rule:evenodd;clip-rule:evenodd;fill:#C7CFDF;}
	.st21{fill-rule:evenodd;clip-rule:evenodd;fill:#EA8A0F;}
	.st22{fill-rule:evenodd;clip-rule:evenodd;fill:#C06029;}
	.st23{fill-rule:evenodd;clip-rule:evenodd;fill:#E2E9FA;}
	.st24{fill-rule:evenodd;clip-rule:evenodd;fill:#EFA92E;}
	.st25{fill-rule:evenodd;clip-rule:evenodd;fill:#2C2C39;}
	.st26{fill-rule:evenodd;clip-rule:evenodd;fill:#3F6C8F;}
	.st27{fill-rule:evenodd;clip-rule:evenodd;fill:#5DBFFC;}
	.st28{fill-rule:evenodd;clip-rule:evenodd;fill:#E00022;}
	.st29{fill-rule:evenodd;clip-rule:evenodd;fill:#C4AA2B;}
	.st30{fill-rule:evenodd;clip-rule:evenodd;fill:#E6EBFE;}
	.st31{fill-rule:evenodd;clip-rule:evenodd;fill:#C19C7C;}
	.st32{fill-rule:evenodd;clip-rule:evenodd;fill:#D7DCEB;}
	.st33{fill-rule:evenodd;clip-rule:evenodd;fill:#303879;}
	.st34{fill-rule:evenodd;clip-rule:evenodd;fill:#ADB2C1;}
	.st35{fill-rule:evenodd;clip-rule:evenodd;fill:#491925;}
	.st36{fill-rule:evenodd;clip-rule:evenodd;fill:#48222F;}
	.st37{fill-rule:evenodd;clip-rule:evenodd;fill:#54598F;}
	.st38{fill-rule:evenodd;clip-rule:evenodd;fill:#48426D;}
	.st39{fill-rule:evenodd;clip-rule:evenodd;fill:#6D79B7;}
	.st40{fill-rule:evenodd;clip-rule:evenodd;fill:#FAF2FF;}
	.st41{fill-rule:evenodd;clip-rule:evenodd;fill:#BF99A8;}
	.st42{fill-rule:evenodd;clip-rule:evenodd;fill:#393A48;}
	.st43{fill-rule:evenodd;clip-rule:evenodd;fill:#292E3D;}
	.st44{fill-rule:evenodd;clip-rule:evenodd;fill:#151A29;}
	.st45{fill-rule:evenodd;clip-rule:evenodd;fill:#DE1922;}
	.st46{fill-rule:evenodd;clip-rule:evenodd;fill:#E4574E;}
	.st47{fill-rule:evenodd;clip-rule:evenodd;fill:#2E3342;}
	.st48{fill-rule:evenodd;clip-rule:evenodd;fill:#172751;}
	.st49{fill-rule:evenodd;clip-rule:evenodd;fill:#314B8F;}
	.st50{fill-rule:evenodd;clip-rule:evenodd;fill:#F5F8FF;}
	.st51{fill-rule:evenodd;clip-rule:evenodd;fill:#E9D79F;}
	.st52{fill-rule:evenodd;clip-rule:evenodd;fill:#ECD28A;}
	.st53{fill-rule:evenodd;clip-rule:evenodd;fill:#64442F;}
	.st54{fill-rule:evenodd;clip-rule:evenodd;fill:#925A33;}
	.st55{fill-rule:evenodd;clip-rule:evenodd;fill:#E9EEFE;}
	.st56{fill-rule:evenodd;clip-rule:evenodd;fill:#172D68;}
	.st57{fill-rule:evenodd;clip-rule:evenodd;fill:#00A0F7;}
	.st58{fill-rule:evenodd;clip-rule:evenodd;fill:#EC910F;}
	.st59{fill-rule:evenodd;clip-rule:evenodd;fill:#25B2F7;}
	.st60{fill-rule:evenodd;clip-rule:evenodd;fill:#203C99;}
	.st61{fill-rule:evenodd;clip-rule:evenodd;fill:#EFAF9B;}
	.st62{fill-rule:evenodd;clip-rule:evenodd;fill:#15131A;}
	.st63{fill-rule:evenodd;clip-rule:evenodd;fill:#F7D00F;}
	.st64{fill-rule:evenodd;clip-rule:evenodd;fill:#131113;}
	.st65{fill-rule:evenodd;clip-rule:evenodd;fill:#7B6E2F;}
	.st66{fill-rule:evenodd;clip-rule:evenodd;fill:#E8C830;}
	.st67{fill-rule:evenodd;clip-rule:evenodd;fill:#292635;}
	.st68{fill-rule:evenodd;clip-rule:evenodd;fill:#30303C;}
	.st69{fill-rule:evenodd;clip-rule:evenodd;fill:#30303D;}
	.st70{fill-rule:evenodd;clip-rule:evenodd;fill:#FADA4A;}
	.st71{fill-rule:evenodd;clip-rule:evenodd;fill:#9F68FA;}
	.st72{fill-rule:evenodd;clip-rule:evenodd;fill:#002D5A;}
	.st73{fill-rule:evenodd;clip-rule:evenodd;fill:#44437F;}
	.st74{fill-rule:evenodd;clip-rule:evenodd;fill:#F5D9D6;}
	.st75{fill-rule:evenodd;clip-rule:evenodd;fill:#4E4D8F;}
	.st76{fill-rule:evenodd;clip-rule:evenodd;fill:#EC5A33;}
	.st77{fill-rule:evenodd;clip-rule:evenodd;fill:#AD71FF;}
	.st78{fill-rule:evenodd;clip-rule:evenodd;fill:#AE83FF;}
	.st79{fill-rule:evenodd;clip-rule:evenodd;fill:#829CBF;}
	.st80{fill-rule:evenodd;clip-rule:evenodd;fill:#FAFDFF;}
	.st81{fill-rule:evenodd;clip-rule:evenodd;fill:#F1F9F9;}
	.st82{fill-rule:evenodd;clip-rule:evenodd;fill:#999EAE;}
</style>
<g>
	<g class="st0">
		<path class="st1" d="M41.6,167.9c-18.8,5.5-32,46.6-11.6,66.4c16.9,16.5-61.3,65.4,43.5,63.3c21.2-0.4,271,3.1,277.9-4.1
			c40.2,1.1,118.2-17.6,82.4-71c-15.1-22.5,6.8-43.7-3.1-64c-10.3-21.1-34.7-7.4-46.6-26.5c-14.3-23.1,16-46.1-8.6-67.5
			c-12.6-10.9-51.9,6.9-60.8-11.6c-10.9-22.5-35.6-78.4-79-39c-34,30.9-79.6-17.1-106.7,20.6c-14.6,20.3-1.8,29-13.7,44.3
			c-15.6,20-38.3,6.8-48.2,18.5C50,117.3,89.3,154.1,41.6,167.9L41.6,167.9z"/>
	</g>
	<g>
		<g>
			<path class="st2" d="M112.1,259.8c-5.8-38.5-72.8-62.1-112.2-53C15.1,250.4,73.2,281.3,112.1,259.8z"/>
			<path class="st3" d="M0,206.9c15.2,43.5,73.2,74.4,112.2,53C91,237.6,30.4,212.1,0,206.9z"/>
			<path class="st4" d="M0,206.9c34.2,9.1,85.5,30.5,111.2,53.5c0.3-0.2,0.6-0.3,0.9-0.5C91,237.6,30.4,212.1,0,206.9z"/>
			<polygon class="st4" points="89.9,243.7 63,251.2 89.2,243.2 			"/>
			<path class="st4" d="M83.5,240.5c-0.1-0.4-9.8-18.9-9.8-18.9l8.9,18.4L83.5,240.5z"/>
			<path class="st4" d="M69.8,232.9c0,0-25.3,8.1-24.9,7.8c0.4-0.3,25.6-7.4,25.6-7.4L69.8,232.9z"/>
			<path class="st4" d="M58.6,227.1c0.2-0.5-11.6-15.1-11.6-15.1l10.8,15.3L58.6,227.1z"/>
			<polygon class="st4" points="43.4,221.2 24.2,224.9 44.2,221.6 			"/>
			<path class="st4" d="M31.1,216.2c-0.1-0.2-8.9-9.1-8.9-9.1l8.1,9L31.1,216.2z"/>
			<path class="st4" d="M19.9,212.3c-0.4-0.1-12.9,0.7-12.4,0.7c0.5,0,12.9-0.2,12.9-0.2L19.9,212.3z"/>
		</g>
		<g>
			<path class="st5" d="M116.8,255.8c17-26.1-10.6-75.7-39-91.2C63.8,198.7,82.2,247.9,116.8,255.8z"/>
			<path class="st6" d="M77.8,164.6c-14,34.1,4.4,83.4,39,91.2C116,231.2,93.3,183.9,77.8,164.6z"/>
			<path class="st7" d="M77.8,164.6c15.6,23.6,35,63.6,38.2,91c0.3,0.1,0.6,0.1,0.8,0.2C116,231.2,93.3,183.9,77.8,164.6z"/>
			<polygon class="st7" points="112.1,234.3 92,224.6 111.9,233.6 			"/>
			<path class="st7" d="M110,229c0.2-0.3,4.2-16.5,4.2-16.5l-4.4,15.8L110,229z"/>
			<path class="st7" d="M105.8,217.3c0,0-19.5-8.5-19-8.5c0.4,0.1,19.3,9.1,19.3,9.1L105.8,217.3z"/>
			<path class="st7" d="M102.1,207.8c0.4-0.2,1.1-15.2,1.1-15.2l-1.7,14.9L102.1,207.8z"/>
			<polygon class="st7" points="96.2,196.2 82.7,188.2 96.5,196.8 			"/>
			<path class="st7" d="M91.5,186.7c0-0.2-0.5-10.1-0.5-10.1l0.1,9.7L91.5,186.7z"/>
			<path class="st7" d="M86.9,178.4c-0.2-0.3-8.1-6.4-7.8-6.2c0.3,0.3,7.8,6.7,7.8,6.7L86.9,178.4z"/>
		</g>
		<g>
			<path class="st8" d="M113.7,264.8c-20.4-23.5-75.7-10.7-98.4,12.3C44.2,300,96.6,296,113.7,264.8z"/>
			<path class="st9" d="M15.3,277.1c28.9,22.9,81.3,18.8,98.4-12.3C89.9,258.9,38.1,267.6,15.3,277.1z"/>
			<path class="st10" d="M15.3,277.1c27-8.5,70.8-16,98-11.6c0.1-0.2,0.3-0.5,0.4-0.8C89.9,258.9,38.1,267.6,15.3,277.1z"/>
			<polygon class="st10" points="91.7,263.5 76.9,280.1 91,263.4 			"/>
			<path class="st10" d="M86.1,264c-0.2-0.3-14.7-8.6-14.7-8.6l13.9,8.6L86.1,264z"/>
			<path class="st10" d="M73.6,264.8c0,0-13.6,16.3-13.4,16c0.2-0.4,14.1-16,14.1-16L73.6,264.8z"/>
			<path class="st10" d="M63.5,265.7c-0.1-0.4-14.3-5.2-14.3-5.2l13.8,5.7L63.5,265.7z"/>
			<polygon class="st10" points="50.7,268.2 39.3,279 51.4,268.1 			"/>
			<path class="st10" d="M40.3,270.1c-0.2-0.1-9.9-2.3-9.9-2.3l9.4,2.6L40.3,270.1z"/>
			<path class="st10" d="M31.1,272.2c-0.3,0.1-8.4,6-8.1,5.8c0.3-0.2,8.6-5.7,8.6-5.7L31.1,272.2z"/>
		</g>
	</g>
	<g>
		<g>
			<path class="st2" d="M339.9,267.8c5.8-38.5,72.8-62.1,112.2-53C436.9,258.4,378.8,289.3,339.9,267.8z"/>
			<path class="st3" d="M452,214.9c-15.2,43.5-73.2,74.4-112.2,53C361,245.6,421.6,220.1,452,214.9z"/>
			<path class="st4" d="M452,214.9c-34.2,9.1-85.5,30.5-111.2,53.5c-0.3-0.2-0.6-0.3-0.9-0.5C361,245.6,421.6,220.1,452,214.9z"/>
			<polygon class="st4" points="362.1,251.7 389,259.2 362.8,251.2 			"/>
			<path class="st4" d="M368.5,248.5c0.1-0.4,9.8-18.9,9.8-18.9l-8.9,18.4L368.5,248.5z"/>
			<path class="st4" d="M382.2,240.9c0,0,25.3,8.1,24.9,7.8c-0.4-0.3-25.6-7.4-25.6-7.4L382.2,240.9z"/>
			<path class="st4" d="M393.4,235.1c-0.2-0.5,11.6-15.1,11.6-15.1l-10.8,15.3L393.4,235.1z"/>
			<polygon class="st4" points="408.6,229.2 427.8,232.9 407.8,229.6 			"/>
			<path class="st4" d="M420.9,224.2c0.1-0.2,8.9-9.1,8.9-9.1l-8.1,9L420.9,224.2z"/>
			<path class="st4" d="M432.1,220.3c0.4-0.1,12.9,0.7,12.4,0.7c-0.5,0-12.9-0.2-12.9-0.2L432.1,220.3z"/>
		</g>
		<g>
			<path class="st5" d="M335.2,263.8c-17-26.1,10.6-75.7,39-91.2C388.2,206.7,369.8,255.9,335.2,263.8z"/>
			<path class="st6" d="M374.2,172.6c14,34.1-4.4,83.4-39,91.2C336,239.2,358.7,191.9,374.2,172.6z"/>
			<path class="st7" d="M374.2,172.6c-15.6,23.6-35,63.6-38.2,91c-0.3,0.1-0.6,0.1-0.8,0.2C336,239.2,358.7,191.9,374.2,172.6z"/>
			<polygon class="st7" points="339.9,242.3 360,232.6 340.1,241.6 			"/>
			<path class="st7" d="M342,237c-0.2-0.3-4.2-16.5-4.2-16.5l4.4,15.8L342,237z"/>
			<path class="st7" d="M346.2,225.3c0,0,19.5-8.5,19-8.5c-0.4,0.1-19.3,9.1-19.3,9.1L346.2,225.3z"/>
			<path class="st7" d="M349.9,215.8c-0.4-0.2-1.1-15.2-1.1-15.2l1.7,14.9L349.9,215.8z"/>
			<polygon class="st7" points="355.8,204.2 369.3,196.2 355.5,204.8 			"/>
			<path class="st7" d="M360.5,194.7c0-0.2,0.5-10.1,0.5-10.1l-0.1,9.7L360.5,194.7z"/>
			<path class="st7" d="M365.1,186.4c0.2-0.3,8.1-6.4,7.8-6.2c-0.3,0.3-7.8,6.7-7.8,6.7L365.1,186.4z"/>
		</g>
		<g>
			<path class="st8" d="M338.3,272.8c20.4-23.5,75.7-10.7,98.4,12.3C407.8,308,355.4,304,338.3,272.8z"/>
			<path class="st9" d="M436.7,285.1c-28.9,22.9-81.3,18.8-98.4-12.3C362.1,266.9,413.9,275.6,436.7,285.1z"/>
			<path class="st10" d="M436.7,285.1c-27-8.5-70.8-16-98-11.6c-0.1-0.2-0.3-0.5-0.4-0.8C362.1,266.9,413.9,275.6,436.7,285.1z"/>
			<polygon class="st10" points="360.3,271.5 375.1,288.1 361,271.4 			"/>
			<path class="st10" d="M365.9,272c0.2-0.3,14.7-8.6,14.7-8.6l-13.9,8.6L365.9,272z"/>
			<path class="st10" d="M378.4,272.8c0,0,13.6,16.3,13.4,16c-0.2-0.4-14.1-16-14.1-16L378.4,272.8z"/>
			<path class="st10" d="M388.5,273.7c0.1-0.4,14.3-5.2,14.3-5.2l-13.8,5.7L388.5,273.7z"/>
			<polygon class="st10" points="401.3,276.2 412.7,287 400.6,276.1 			"/>
			<path class="st10" d="M411.7,278.1c0.2-0.1,9.9-2.3,9.9-2.3l-9.4,2.6L411.7,278.1z"/>
			<path class="st10" d="M420.9,280.2c0.3,0.1,8.4,6,8.1,5.8c-0.3-0.2-8.6-5.7-8.6-5.7L420.9,280.2z"/>
		</g>
	</g>
	<g>
		<path class="st11" d="M288,173.7c0,0,2,2.4,2.1,3.1c0.1,0.7-0.4,2.6-0.7,2.2c-0.3-0.4-0.3-1.6-0.3-1.6l-0.6-0.7
			c0,0,0.4,3.7,0.2,4.3c-0.2,0.7-0.6,0.7-0.6,0.7s-0.1,0.6-0.4,0.7c-0.3,0.1-0.5,0-0.7-0.3c0,0-0.1,0.1-0.4,0
			c-0.3-0.2-0.5-0.5-0.5-0.5s-0.2,0.1-0.5-0.2c-0.2-0.3-0.3-0.5-0.3-0.6c0-0.1-0.4-2.8-0.4-2.9c-0.5-1.3-0.1-3.3,0.6-4.3
			C287,171.8,286.4,173,288,173.7z"/>
		<path class="st12" d="M339.2,132c-0.2-0.1-1,0.5-1.8-0.4c-0.8-0.5-1.1-1.5-0.8-2c0.3-0.5,0.9-1,1.1-1.4c0.5-0.8,1.1-1.4,2.4-0.9
			c1.3,0.5,1.9,0.7,2,2.1C342.1,130.9,340.4,132.1,339.2,132z"/>
		<path class="st13" d="M323.9,236.1c0.5,1.5,1,3.5,1,3.5s8.3,3.7,7.2,4.5c-1.8,1.3-8.6-0.4-11-0.9l0-3.8L323.9,236.1z"/>
		<path class="st13" d="M298.3,235.2c-0.5,1.5-1,3.5-1,3.5s-8.3,3.7-7.2,4.5c1.8,1.3,10.5-0.3,10.5-1l0-3.8L298.3,235.2z"/>
		<path class="st14" d="M318.1,170c3.4,19,5,47,6.8,69.6c0,0-2.7,0.1-3.9-0.2c-4.5-18.9-8.6-38.4-13.2-57.3
			c-2.4,18.6-4.8,38.3-7.2,56.9c-0.7,0.2-2.6-0.3-3.4-0.4c-0.7-0.1-1-66.7-0.9-67.5C296.5,170.4,318.1,170,318.1,170z"/>
		<path class="st15" d="M307.8,120.1c-0.2,1.5-0.3,6.3,2.7,7.3c1.2,0.4,2.3,1.4,2.3,1.4c-0.1,4.5-10.6,5.7-15.1,1.6l1.8-2.1
			c3.7-0.7,2.1-7,1.9-9.9L307.8,120.1z"/>
		<path class="st16" d="M316.8,136c-0.5,16.7,2.4,28.9,3.1,38.1c0.3,4.8-24.9,8.1-24.9,4.1c0.5-13.5,0.7-27.9-0.9-40.4l0.1-7.9
			c0.2,0,0.4-0.1,0.7-0.2l4.6-1.4c0,0,2.7,2.7,7.1,2.2c4.4-0.5,3.9-3.1,3.9-3.1c2,0.3,3.9,0.7,5.9,1L316.8,136z"/>
		<path class="st17" d="M297.3,112.9c-0.2,0.7,0.7,3.7,1.5,5.4c0.8,1.7,2.9,2.6,2.9,2.4c0-0.2-0.5-6.3-0.5-6.3L297.3,112.9z"/>
		<path class="st11" d="M312.3,120.9c-0.7,4.1-2.5,5.4-5.5,3.9c-2.5-1.2-4.3-3.4-5.5-5.8c-0.8,0.2-1.8-0.3-2.3-1.3
			c-0.7-1.2-0.5-2.6,0.3-3.2c0.2-0.1,0.4-0.2,0.6-0.2c-0.1-1.3,0-2.5,0.1-3.7c0.1-2.3,6.4-4.6,9.2-3.2
			C312.6,109.3,312.8,118,312.3,120.9z"/>
		<path class="st17" d="M302.1,111.7c-0.3,0.3,0.3,4.6-0.1,4.6c-0.5,0-2.2-2-2.2-2s-0.1-0.1-0.6,0.2c-0.5,0.3-0.7,1-0.7,1
			s-2.1-4-1.9-4.9c0.2-0.9,2-2,2-2s0.1-1,1.1-2.1c1-1.1,3.9-1.3,7.8-1.9c3.8-0.6,6.6,1.9,3.1,4.6
			C307.5,111.7,302.1,111.7,302.1,111.7z"/>
		<path class="st16" d="M294.3,129.9c-5.6,2.4-9.1,25.4-9.5,44.8l3.6-0.8c0.4-9.6,2.2-22.7,7.1-36L294.3,129.9z"/>
		<path class="st16" d="M316.4,128.5c6,6.2,11.3,17.5,11.3,17.5c0.4-0.6,7.7-12.8,9-16.3l2.6,2.4c-1.3,3.2-8.3,20.2-10.8,20.5
			c-4.9,0.6-11.3-13.2-13.2-16.1L316.4,128.5z"/>
		<path class="st18" d="M352.2,113.7c0.2-0.1,3.1-0.1,3.1-0.1l1.6,4.8l-2.2,1.9L352.2,113.7z"/>
		<path class="st19" d="M340.8,122.1c-0.1,0.6-0.1,2.5,0.6,4.3c0.6,1.8,1.9,3,1.9,3.8c0,0.8-2.1,2.2-3,1.2c-0.7-0.8-2.9-8.6-2.7-8.7
			C337.7,122.5,340.8,122.1,340.8,122.1z"/>
		<path class="st20" d="M352.3,108.1c-0.1-0.2-0.2,0-0.8,0.4c-0.5,0.3-0.1,0.1-0.5,0.9c-0.9,1.8-12.5,8.8-14.7,9.8
			c-1.4,0.6-1.7,0.9-2.1,1.3l2.2,6c0.6,0,0.9-0.1,2.4-0.5c2.4-0.6,15.8-2.5,17.6-1.6c0.5,0.2,1.8,0.2,1.8,0.2
			C356.8,119,354.9,113.5,352.3,108.1z"/>
		<path class="st21" d="M352.3,108.1c-0.1-0.2-0.2,0-0.8,0.4c-0.5,0.3-0.1,0.1-0.5,0.9c2.1,4.6,3.9,9.6,5.3,15
			c0.9,0.4,0.4,0.4,1,0.4c0.6,0,0.9,0,0.8-0.2C356.8,119,354.9,113.5,352.3,108.1z"/>
		<path class="st21" d="M336.5,119.1c-0.1,0-0.2,0.1-0.3,0.1c-1.4,0.6-2.2,0.7-2.7,1.1l1.2,3.3l1.2,3.3c0.6,0,1.3-0.5,2.8-0.8
			c0.1,0,0.2,0,0.3-0.1L336.5,119.1z"/>
		<path class="st22" d="M337.5,123c0-0.2-0.1-0.4,0-0.4c0.1-0.1,1.1-0.3,2-0.4L337.5,123z"/>
		<path class="st23" d="M352.3,108.1c-0.1-0.2-1.1,1-1.3,1.3c-0.9,1.8-12.5,8.8-14.7,9.8c-1.4,0.6-1.7,0.9-2.1,1.3l1.1,3.4l20.4-7.8
			C354.7,113.4,353.6,110.7,352.3,108.1z"/>
		<path class="st24" d="M352.3,108.1c-0.1-0.2-0.2,0-0.8,0.4c-0.5,0.3-0.1,0.1-0.5,0.9c1.1,2.4,2.1,4.8,3,7.3l1.7-0.6
			C354.7,113.4,353.6,110.7,352.3,108.1z"/>
		<path class="st24" d="M336.5,119.1c-0.1,0-0.2,0.1-0.3,0.1c-1.4,0.6-2.2,0.7-2.7,1.1l1.2,3.3l0.2,0.5l3-1.1L336.5,119.1z"/>
		<polygon class="st25" points="359.8,112.3 366.7,108.3 366,107.4 		"/>
		<polygon class="st25" points="357.1,109.9 362.1,102.8 361.6,102.4 		"/>
		<polygon class="st25" points="359,116.8 369.8,116.2 369.7,117.3 		"/>
		<polygon class="st25" points="359.1,119.8 367.8,123.3 367.6,123.9 		"/>
		<path class="st15" d="M340.1,127c-0.3,1.2,0.4,2.7,1.4,3.3c0.3,0.2,0.9,0.3,1.9-0.5c0.9-0.7-0.7-3.5-1.4-3.7
			C341.3,125.9,340.2,126.5,340.1,127z"/>
		<path class="st11" d="M337.9,130.1l-0.7-0.7c0,0,0.5-2.1,0.9-2.5c0.4-0.5,2.1-2.2,2.3-2c0.2,0.2,0.3,0.7-0.2,1.5
			c-0.4,0.9-1.3,1.2-1.3,1.2s0.3,1.5,0,2.4C338.6,130.9,337.9,130.1,337.9,130.1z"/>
		<path class="st17" d="M301.1,109.8l1,2.1c1.4,0.1,6,0.6,7,0.1l-0.9-0.5c0,0,1.7,0.1,3.5-0.6c1.7-0.6,2.2-1.5,2-1.5
			c-0.1,0-1.4-0.1-1.4-0.1s0.8-0.1,1.7-1.9c0.9-1.7,1-2.6,0.9-2.4c-0.2,0.2-1.3,0.6-1.2,0.4c0-0.2,0.1-1.5,0.1-1.5s-1.7,0.2-3.9,0.4
			c-2.2,0.2-9.3,1.3-9.3,1.9C300.5,107,301.1,109.8,301.1,109.8z"/>
	</g>
	<g>
		<path class="st13" d="M212.3,155.5c-0.5,1.5-1,3.5-1,3.5s-8.3,3.6-7.1,4.5c1.8,1.3,8.5-0.4,10.9-0.9l0-3.8L212.3,155.5z"/>
		<path class="st13" d="M237.7,154.6c0.5,1.5,1,3.5,1,3.5s8.3,3.6,7.1,4.5c-1.8,1.3-10.4-0.3-10.4-1l0-3.8L237.7,154.6z"/>
		<path class="st15" d="M176.5,34.6c0,0-0.4,1.7,0.6,2.9c1,1.1,2.9,1.5,2.9,1.5l1.6-1.8c0,0-1.5-3.2-1.6-3.4
			C179.8,33.4,176.5,34.6,176.5,34.6z"/>
		<path class="st26" d="M218.1,90c-3.4,18.8-4.9,46.5-6.7,69c0,0,2.7,0.1,3.8-0.2c4.5-18.7,8.6-38,13.1-56.7
			c2.4,18.4,4.7,38,7.1,56.4c0.6,0.2,2.6-0.3,3.3-0.4c0.7-0.1,1-66.1,0.9-66.9C239.4,90.4,218.1,90,218.1,90z"/>
		<path class="st15" d="M228.3,40.5c0.2,1.5,0.2,6.2-2.7,7.3c-1.2,0.4-2.3,1.3-2.3,1.3c0.1,4.5,10.5,5.7,14.9,1.6l-1.7-2.1
			c-3.7-0.7-2.1-6.9-1.9-9.9L228.3,40.5z"/>
		<path class="st11" d="M280.2,38.3c0,0,0.4-3.7,1-4.4c0.6-0.7,2.6-1.8,2.5-1.2c-0.1,0.6-1.1,1.6-1.1,1.6l-0.1,1.1
			c0,0,2.9-3.3,3.6-3.7c0.7-0.4,1,0,1,0s0.9-0.7,1.2-0.4c0.3,0.3,0.2,0.8,0.1,0.9c-0.1,0.2-0.1,0.2-0.1,0.2s0.2,0,0.3,0.4
			c0.1,0.4-0.1,0.9-0.1,0.9s0.3,0.1,0.2,0.6c-0.1,0.5-0.2,0.7-0.2,0.7c0,0.1-2.1,2.6-2.2,2.8c-0.1,0.1-0.2,0.8-1.1,1.6
			c-0.9,0.9-3.2,1.3-3.2,1.3C279.6,39.3,280.9,40.2,280.2,38.3z"/>
		<path class="st27" d="M218.9,49c-13,2.1-27.4-3.7-36.9-12.3l-2,2.3c0,0,5.7,9,17,13.4c7.2,3.7,16.9,4.1,22.3,4
			c0.5,16.5-2.4,28.6-3.1,37.8c-0.3,4.7,24.7,8,24.7,4.1c-0.5-13.4-2.9-28.5-1.4-40.8c5.6,0,19,0,25.7-3.4c11.3-4.4,17-13.4,17-13.4
			l-2-2.3c-10,9.2-25.7,15.1-39.2,11.9l-4.5-1.4c0,0-2.7,2.7-7,2.2c-4.3-0.5-3.9-3.1-3.9-3.1C223.4,48.2,221.2,48.6,218.9,49z"/>
		<path class="st13" d="M238.6,33.4c0.2,0.7-0.7,3.6-1.5,5.3c-0.7,1.7-2.9,2.6-2.9,2.4c0-0.2,0.5-6.2,0.5-6.2L238.6,33.4z"/>
		<path class="st11" d="M223.8,41.4c0.7,4.1,2.5,5.3,5.4,3.9c2.5-1.2,4.3-3.4,5.5-5.7c0.8,0.2,1.7-0.3,2.3-1.3
			c0.7-1.2,0.5-2.6-0.3-3.2c-0.2-0.1-0.4-0.2-0.6-0.2c0.1-1.2,0-2.4-0.1-3.7c-0.1-2.3-6.4-4.6-9.1-3.2
			C223.5,29.8,223.3,38.4,223.8,41.4z"/>
		<path class="st13" d="M233.9,32.3c0.3,0.3-0.3,4.6,0.1,4.6c0.5,0,2.1-2,2.1-2s0.1-0.1,0.6,0.2c0.5,0.3,0.6,0.9,0.6,0.9
			s2.1-4,1.8-4.9c-0.2-0.9-2-2-2-2s-0.1-0.9-1.1-2c-1-1.1-3.9-1.3-7.7-1.9c-3.8-0.5-6.5,1.8-3.1,4.5
			C228.5,32.2,233.9,32.3,233.9,32.3z"/>
		<path class="st18" d="M182,23.3l2.1,0.8c0.3,0.1,0.4,0.4,0.3,0.7l-7,17.9c-0.1,0.3-0.4,0.4-0.7,0.3l-2.1-0.8
			c-0.3-0.1-0.4-0.4-0.3-0.7l7-17.9C181.4,23.4,181.7,23.2,182,23.3z"/>
		<path class="st13" d="M234.6,31c-0.1,0.1-0.8,1.2-3,1.8c-2.2,0.5-2.7-0.7-2.7-0.7s-1,0.4-2.6-0.1c-1.5-0.5-0.8-1.2-0.8-1.2
			s-0.4,0.7-1.8-0.3c-1.3-1.1-0.1-2.4-0.1-2.4l0.8-1.2c0,0-0.2-0.7,0.6-1.6c0.7-0.9,2.3-0.5,2.3-0.5s0.7-0.7,2.1-0.5
			c1.4,0.1,2.2,1.1,2.2,1.1s1.1-0.4,2.3-0.2c1.2,0.2,1.8,1.2,1.8,1.2s1.3,0.2,1.9,1c0.6,0.8,0.1,1.8,0.1,1.8s1.3,0.2,1.3,1.3
			c0,1.1-1.4,2.5-2.9,2.3C234.7,32.5,234.6,31,234.6,31z"/>
		<path class="st11" d="M178.4,32.2c0.3,0.3,0.3,0.4,0.5,0.9c0.4,0.9-0.8,3.1-1.6,3.4c-0.8,0.3-1.2,0.4-1.4-0.6
			c-0.1-0.7,0.7-2.6,1.3-3.6C177.6,31.8,177.8,31.7,178.4,32.2z"/>
		<path class="st11" d="M181.1,37.5l0.8-0.8c0,0-0.5-2.3-1-2.9c-0.5-0.5-2.4-2.4-2.6-2.2c-0.2,0.2-0.3,0.7,0.2,1.7s1.5,1.4,1.5,1.4
			s-0.3,1.7,0,2.7C180.3,38.5,181.1,37.5,181.1,37.5z"/>
		<polygon class="st28" points="178.9,29.3 182.1,30.9 181.5,32.4 178.3,31 		"/>
		<path class="st28" d="M180.9,31.1c0.1,0.1,0.7,0.6,1.4,1.8c0.7,1.2,0.5,4.1,0.7,4c0.2,0,0.9-0.1,0.9-0.1s0.4-2.2-0.2-3.6
			c-0.6-1.4-2-2.3-2-2.3L180.9,31.1z"/>
		<path class="st28" d="M180.9,31.8c0.2,0.1,0.9,0.6,2.6,0.5c1.7-0.1,2.3-0.8,2.3-0.8l-0.4-0.6c0,0-1.3,0.7-2.7,0.7
			c-1.4,0-1.8-0.1-1.8-0.1L180.9,31.8z"/>
	</g>
	<path class="st11" d="M380.5,227.5c0.3-0.1,1.5-0.6,1.8-0.7c0.3-0.1,3.1-1.4,3.5-1.5c0.2,0,1.4,0.1,2.5,0.5c0.6,0.2,2,0.9,2.2,1
		c0.3,0.1-0.3,0.6-0.7,0.6c-0.5,0-1.7-0.7-1.7-0.7c-0.2,0-0.3,0-0.5,0c0.2,0.1,0.3,0.2,0.3,0.2c0.2,0.2,0.5,0.8,0.4,0.9
		c-0.1,0.1-0.3,0.2-0.7,0.2c-0.2,0-0.7-0.3-1.1-0.5c-0.3,0.9-2.4,1.8-3.2,1.9c-0.9,0.1-1.6-0.2-1.6-0.2L380.5,227.5z"/>
	<path class="st29" d="M372.7,197.9c0.8,0.5-0.6,22.6-0.6,22.6l10.1,6.4l-1.1,2.3l-13.7-7.1c0,0-0.4-22,0.7-23.5
		C368.7,197.7,372,197.5,372.7,197.9z"/>
	<path class="st13" d="M372.3,181.2c-0.5,0.5-1.4,3.2-1.7,5c-0.3,1.7,0.9,3.6,1,3.4c0.1-0.2,2.9-5.2,2.9-5.2L372.3,181.2z"/>
	<path class="st15" d="M375,191.5c0,0-0.8,1.3-1.1,4.3c-0.3,3-0.9,4.1-0.9,4.1l-5.4-3.9l4.9-8.3L375,191.5z"/>
	<path class="st30" d="M382,273.7h-97.5c-4.6,0-8.4,5.2-8.4,11.7c0,6.4,3.7,11.7,8.4,11.7H382l-0.5-1.3c-1.3-3.2-2-6.8-2-10.4
		c0-3.6,0.7-7.2,2-10.4L382,273.7z"/>
	<path class="st31" d="M284.9,273.8h87.7h8.9h4v-2.6h-2.9h-10h-87.7c-5.9,0-10.3,6.6-10.3,14.2c0,7.6,4.4,14.2,10.3,14.2h87h10.7
		h2.9v-2.6h-4h-9.6h-87c-4.6,0-8.3-5.2-8.3-11.6C276.7,279,280.4,273.8,284.9,273.8z"/>
	<path class="st32" d="M343,285.4c0-6.4,3.7-11.7,8.4-11.7h-66.9c-4.6,0-8.4,5.2-8.4,11.7c0,6.4,3.7,11.7,8.4,11.7h66.9
		C346.8,297,343,291.8,343,285.4z"/>
	<path class="st30" d="M278,245.3h97.5c4.6,0,8.4,5.2,8.4,11.7c0,6.4-3.7,11.7-8.4,11.7H278l0.5-1.3c1.3-3.2,2-6.8,2-10.4
		c0-3.6-0.7-7.2-2-10.4L278,245.3z"/>
	<path class="st33" d="M375.1,245.4h-87.7h-8.9h-4v-2.6h2.9h10h87.7c5.9,0,10.3,6.6,10.3,14.2c0,7.6-4.4,14.2-10.3,14.2h-87h-10.7
		h-2.9v-2.6h4h9.6h87c4.6,0,8.3-5.2,8.3-11.6C383.4,250.6,379.7,245.4,375.1,245.4z"/>
	<path class="st33" d="M317,257.2c0-6.8-3.7-12.4-8.4-12.4h66.9c4.6,0,8.4,5.6,8.4,12.4c0,6.8-3.7,12.4-8.4,12.4h-66.9
		C313.3,269.6,317,264.1,317,257.2z"/>
	<g>
		<rect x="284.5" y="276.5" class="st34" width="91.6" height="1.1"/>
		<rect x="284.5" y="280.7" class="st34" width="91.6" height="1.1"/>
		<rect x="284.5" y="289.2" class="st34" width="91.6" height="1.1"/>
		<rect x="284.5" y="284.9" class="st34" width="91.6" height="1.1"/>
		<rect x="284.5" y="293.4" class="st34" width="91.6" height="1.1"/>
	</g>
	<g>
		<rect x="282.8" y="248.3" class="st34" width="27.1" height="1.1"/>
		<rect x="282.8" y="252.5" class="st34" width="27.1" height="1.1"/>
		<rect x="282.8" y="261" class="st34" width="27.1" height="1.1"/>
		<rect x="282.8" y="256.8" class="st34" width="27.1" height="1.1"/>
		<rect x="282.8" y="265.2" class="st34" width="27.1" height="1.1"/>
	</g>
	<g>
		<g>
			<g>
				<path class="st35" d="M150.6,227h-4.1v-14.5H119V227h-4.1v-16.5c0-1.1,0.9-2,2-2h31.6c1.1,0,2,0.9,2,2V227z"/>
			</g>
		</g>
		<path class="st36" d="M149.7,226.1v-15.6c0-0.6-0.5-1.1-1.1-1.1h-31.6c-0.6,0-1.1,0.5-1.1,1.1v15.6h2.3v-14.5h29.3v14.5H149.7z"/>
		<g>
			<path class="st37" d="M186.1,293.1c0,3.5-2.9,6.4-6.5,6.4H85.9c-3.6,0-6.5-2.9-6.5-6.4v-65.5c0-3.5,2.9-6.4,6.5-6.4h93.7
				c3.6,0,6.5,2.9,6.5,6.4V293.1z"/>
		</g>
		<path class="st38" d="M183.7,293.1v-2.1c0-0.1-0.1-0.2-0.1-0.2c-0.1-0.1-0.3,0-0.3,0.2c0,0.7,0.1,2.1-0.1,2.9
			c-0.1,0.3,0.3,0.4,0.4,0.1C183.7,293.8,183.7,293.5,183.7,293.1L183.7,293.1z M182.5,296c0.2-0.2-0.1-0.5-0.3-0.3
			c-0.5,0.5-1.1,0.8-1.7,0.9c-0.3,0.1-0.2,0.5,0.1,0.4C181.3,296.8,181.9,296.5,182.5,296L182.5,296z M178.4,297.1
			c0.1,0,0.2-0.1,0.2-0.1c0.1-0.1,0-0.3-0.2-0.3h-2.1c-0.1,0-0.2,0.1-0.2,0.1c-0.1,0.1,0,0.3,0.2,0.3H178.4L178.4,297.1z
			 M174.3,297.1c0.1,0,0.2-0.1,0.2-0.1c0.1-0.1,0-0.3-0.2-0.3h-2.1c-0.1,0-0.2,0.1-0.2,0.1c-0.1,0.1,0,0.3,0.2,0.3H174.3
			L174.3,297.1z M170.1,297.1c0.1,0,0.2-0.1,0.2-0.1c0.1-0.1,0-0.3-0.2-0.3H168c-0.1,0-0.2,0.1-0.2,0.1c-0.1,0.1,0,0.3,0.2,0.3
			H170.1L170.1,297.1z M165.9,297.1c0.1,0,0.2-0.1,0.2-0.1c0.1-0.1,0-0.3-0.2-0.3h-2.1c-0.1,0-0.2,0.1-0.2,0.1
			c-0.1,0.1,0,0.3,0.2,0.3H165.9L165.9,297.1z M161.8,297.1c0.1,0,0.2-0.1,0.2-0.1c0.1-0.1,0-0.3-0.2-0.3h-2.1
			c-0.1,0-0.2,0.1-0.2,0.1c-0.1,0.1,0,0.3,0.2,0.3H161.8L161.8,297.1z M157.6,297.1c0.1,0,0.2-0.1,0.2-0.1c0.1-0.1,0-0.3-0.2-0.3
			h-2.1c-0.1,0-0.2,0.1-0.2,0.1c-0.1,0.1,0,0.3,0.2,0.3H157.6L157.6,297.1z M153.5,297.1c0.1,0,0.2-0.1,0.2-0.1
			c0.1-0.1,0-0.3-0.2-0.3h-2.1c-0.1,0-0.2,0.1-0.2,0.1c-0.1,0.1,0,0.3,0.2,0.3H153.5L153.5,297.1z M149.3,297.1
			c0.1,0,0.2-0.1,0.2-0.1c0.1-0.1,0-0.3-0.2-0.3h-2.1c-0.1,0-0.2,0.1-0.2,0.1c-0.1,0.1,0,0.3,0.2,0.3H149.3L149.3,297.1z
			 M145.1,297.1c0.1,0,0.2-0.1,0.2-0.1c0.1-0.1,0-0.3-0.2-0.3H143c-0.1,0-0.2,0.1-0.2,0.1c-0.1,0.1,0,0.3,0.2,0.3H145.1L145.1,297.1
			z M141,297.1c0.1,0,0.2-0.1,0.2-0.1c0.1-0.1,0-0.3-0.2-0.3h-2.1c-0.1,0-0.2,0.1-0.2,0.1c-0.1,0.1,0,0.3,0.2,0.3H141L141,297.1z
			 M136.8,297.1c0.1,0,0.2-0.1,0.2-0.1c0.1-0.1,0-0.3-0.2-0.3h-2.1c-0.1,0-0.2,0.1-0.2,0.1c-0.1,0.1,0,0.3,0.2,0.3H136.8
			L136.8,297.1z M132.6,297.1c0.1,0,0.2-0.1,0.2-0.1c0.1-0.1,0-0.3-0.2-0.3h-2.1c-0.1,0-0.2,0.1-0.2,0.1c-0.1,0.1,0,0.3,0.2,0.3
			H132.6L132.6,297.1z M128.5,297.1c0.1,0,0.2-0.1,0.2-0.1c0.1-0.1,0-0.3-0.2-0.3h-2.1c-0.1,0-0.2,0.1-0.2,0.1
			c-0.1,0.1,0,0.3,0.2,0.3H128.5L128.5,297.1z M124.3,297.1c0.1,0,0.2-0.1,0.2-0.1c0.1-0.1,0-0.3-0.2-0.3h-2.1
			c-0.1,0-0.2,0.1-0.2,0.1c-0.1,0.1,0,0.3,0.2,0.3H124.3L124.3,297.1z M120.1,297.1c0.1,0,0.2-0.1,0.2-0.1c0.1-0.1,0-0.3-0.2-0.3
			h-2.1c-0.1,0-0.2,0.1-0.2,0.1c-0.1,0.1,0,0.3,0.2,0.3H120.1L120.1,297.1z M116,297.1c0.1,0,0.2-0.1,0.2-0.1c0.1-0.1,0-0.3-0.2-0.3
			h-2.1c-0.1,0-0.2,0.1-0.2,0.1c-0.1,0.1,0,0.3,0.2,0.3H116L116,297.1z M111.8,297.1c0.1,0,0.2-0.1,0.2-0.1c0.1-0.1,0-0.3-0.2-0.3
			h-2.1c-0.1,0-0.2,0.1-0.2,0.1c-0.1,0.1,0,0.3,0.2,0.3H111.8L111.8,297.1z M107.6,297.1c0.1,0,0.2-0.1,0.2-0.1
			c0.1-0.1,0-0.3-0.2-0.3h-2.1c-0.1,0-0.2,0.1-0.2,0.1c-0.1,0.1,0,0.3,0.2,0.3H107.6L107.6,297.1z M103.5,297.1
			c0.1,0,0.2-0.1,0.2-0.1c0.1-0.1,0-0.3-0.2-0.3h-2.1c-0.1,0-0.2,0.1-0.2,0.1c-0.1,0.1,0,0.3,0.2,0.3H103.5L103.5,297.1z
			 M99.3,297.1c0.1,0,0.2-0.1,0.2-0.1c0.1-0.1,0-0.3-0.2-0.3h-2.1c-0.1,0-0.2,0.1-0.2,0.1c-0.1,0.1,0,0.3,0.2,0.3H99.3L99.3,297.1z
			 M95.1,297.1c0.1,0,0.2-0.1,0.2-0.1c0.1-0.1,0-0.3-0.2-0.3h-2.1c-0.1,0-0.2,0.1-0.2,0.1c-0.1,0.1,0,0.3,0.2,0.3H95.1L95.1,297.1z
			 M91,297.1c0.1,0,0.2-0.1,0.2-0.1c0.1-0.1,0-0.3-0.2-0.3h-2.1c-0.1,0-0.2,0.1-0.2,0.1c-0.1,0.1,0,0.3,0.2,0.3H91L91,297.1z
			 M86.8,297.1c0.1,0,0.2-0.1,0.2-0.1c0.1-0.1,0-0.3-0.2-0.3h-0.9c-0.4,0-0.8-0.1-1.1-0.2c-0.2-0.1-0.4,0.3-0.1,0.4
			c0.4,0.1,0.8,0.2,1.2,0.2H86.8L86.8,297.1z M82.9,295.8c0.2,0.2,0.5-0.1,0.3-0.3c-0.4-0.5-0.8-1.1-0.9-1.7
			c-0.1-0.3-0.4-0.2-0.4,0.1C82,294.6,82.3,295.2,82.9,295.8L82.9,295.8z M81.8,291.7c0,0.1,0.1,0.2,0.1,0.2c0.1,0.1,0.3,0,0.3-0.2
			v-2.1c0-0.1-0.1-0.2-0.1-0.2c-0.1-0.1-0.3,0-0.3,0.2V291.7L81.8,291.7z M81.8,287.6c0,0.1,0.1,0.2,0.1,0.2c0.1,0.1,0.3,0,0.3-0.2
			v-2.1c0-0.1-0.1-0.2-0.1-0.2c-0.1-0.1-0.3,0-0.3,0.2V287.6L81.8,287.6z M81.8,283.4c0,0.1,0.1,0.2,0.1,0.2c0.1,0.1,0.3,0,0.3-0.2
			v-2.1c0-0.1-0.1-0.2-0.1-0.2c-0.1-0.1-0.3,0-0.3,0.2V283.4L81.8,283.4z M81.8,279.2c0,0.1,0.1,0.2,0.1,0.2c0.1,0.1,0.3,0,0.3-0.2
			v-2.1c0-0.1-0.1-0.2-0.1-0.2c-0.1-0.1-0.3,0-0.3,0.2V279.2L81.8,279.2z M81.8,275.1c0,0.1,0.1,0.2,0.1,0.2c0.1,0.1,0.3,0,0.3-0.2
			V273c0-0.1-0.1-0.2-0.1-0.2c-0.1-0.1-0.3,0-0.3,0.2V275.1L81.8,275.1z M81.8,270.9c0,0.1,0.1,0.2,0.1,0.2c0.1,0.1,0.3,0,0.3-0.2
			v-2.1c0-0.1-0.1-0.2-0.1-0.2c-0.1-0.1-0.3,0-0.3,0.2V270.9L81.8,270.9z M81.8,266.7c0,0.1,0.1,0.2,0.1,0.2c0.1,0.1,0.3,0,0.3-0.2
			v-2.1c0-0.1-0.1-0.2-0.1-0.2c-0.1-0.1-0.3,0-0.3,0.2V266.7L81.8,266.7z M81.8,262.6c0,0.1,0.1,0.2,0.1,0.2c0.1,0.1,0.3,0,0.3-0.2
			v-2.1c0-0.1-0.1-0.2-0.1-0.2c-0.1-0.1-0.3,0-0.3,0.2V262.6L81.8,262.6z M81.8,258.4c0,0.1,0.1,0.2,0.1,0.2c0.1,0.1,0.3,0,0.3-0.2
			v-2.1c0-0.1-0.1-0.2-0.1-0.2c-0.1-0.1-0.3,0-0.3,0.2V258.4L81.8,258.4z M81.8,254.3c0,0.1,0.1,0.2,0.1,0.2c0.1,0.1,0.3,0,0.3-0.2
			v-2.1c0-0.1-0.1-0.2-0.1-0.2c-0.1-0.1-0.3,0-0.3,0.2V254.3L81.8,254.3z M81.8,250.1c0,0.1,0.1,0.2,0.1,0.2c0.1,0.1,0.3,0,0.3-0.2
			V248c0-0.1-0.1-0.2-0.1-0.2c-0.1-0.1-0.3,0-0.3,0.2V250.1L81.8,250.1z M81.8,245.9c0,0.1,0.1,0.2,0.1,0.2c0.1,0.1,0.3,0,0.3-0.2
			v-2.1c0-0.1-0.1-0.2-0.1-0.2c-0.1-0.1-0.3,0-0.3,0.2V245.9L81.8,245.9z M81.8,241.8c0,0.1,0.1,0.2,0.1,0.2c0.1,0.1,0.3,0,0.3-0.2
			v-2.1c0-0.1-0.1-0.2-0.1-0.2c-0.1-0.1-0.3,0-0.3,0.2V241.8L81.8,241.8z M81.8,237.6c0,0.1,0.1,0.2,0.1,0.2c0.1,0.1,0.3,0,0.3-0.2
			v-2.1c0-0.1-0.1-0.2-0.1-0.2c-0.1-0.1-0.3,0-0.3,0.2V237.6L81.8,237.6z M81.8,233.4c0,0.1,0.1,0.2,0.1,0.2c0.1,0.1,0.3,0,0.3-0.2
			v-2.1c0-0.1-0.1-0.2-0.1-0.2c-0.1-0.1-0.3,0-0.3,0.2V233.4L81.8,233.4z M81.8,229.3c0,0.1,0.1,0.2,0.1,0.2c0.1,0.1,0.3,0,0.3-0.2
			c0-0.6-0.1-1.4,0-2.1c0-0.3-0.4-0.3-0.4-0.1C81.8,227.8,81.8,228.6,81.8,229.3L81.8,229.3z M82.7,225.2c-0.2,0.3,0.2,0.5,0.3,0.3
			c0.4-0.5,1-0.9,1.6-1.1c0.3-0.1,0.1-0.5-0.1-0.4C83.8,224.2,83.2,224.6,82.7,225.2L82.7,225.2z M86.6,223.6
			c-0.1,0-0.2,0.1-0.2,0.1c-0.1,0.1,0,0.3,0.2,0.3h2.1c0.1,0,0.2-0.1,0.2-0.1c0.1-0.1,0-0.3-0.2-0.3H86.6L86.6,223.6z M90.8,223.6
			c-0.1,0-0.2,0.1-0.2,0.1c-0.1,0.1,0,0.3,0.2,0.3h2.1c0.1,0,0.2-0.1,0.2-0.1c0.1-0.1,0-0.3-0.2-0.3H90.8L90.8,223.6z M94.9,223.6
			c-0.1,0-0.2,0.1-0.2,0.1c-0.1,0.1,0,0.3,0.2,0.3H97c0.1,0,0.2-0.1,0.2-0.1c0.1-0.1,0-0.3-0.2-0.3H94.9L94.9,223.6z M99.1,223.6
			c-0.1,0-0.2,0.1-0.2,0.1c-0.1,0.1,0,0.3,0.2,0.3h2.1c0.1,0,0.2-0.1,0.2-0.1c0.1-0.1,0-0.3-0.2-0.3H99.1L99.1,223.6z M103.3,223.6
			c-0.1,0-0.2,0.1-0.2,0.1c-0.1,0.1,0,0.3,0.2,0.3h2.1c0.1,0,0.2-0.1,0.2-0.1c0.1-0.1,0-0.3-0.2-0.3H103.3L103.3,223.6z
			 M107.4,223.6c-0.1,0-0.2,0.1-0.2,0.1c-0.1,0.1,0,0.3,0.2,0.3h2.1c0.1,0,0.2-0.1,0.2-0.1c0.1-0.1,0-0.3-0.2-0.3H107.4L107.4,223.6
			z M111.6,223.6c-0.1,0-0.2,0.1-0.2,0.1c-0.1,0.1,0,0.3,0.2,0.3h2.1c0.1,0,0.2-0.1,0.2-0.1c0.1-0.1,0-0.3-0.2-0.3H111.6
			L111.6,223.6z M115.7,223.6c-0.1,0-0.2,0.1-0.2,0.1c-0.1,0.1,0,0.3,0.2,0.3h2.1c0.1,0,0.2-0.1,0.2-0.1c0.1-0.1,0-0.3-0.2-0.3
			H115.7L115.7,223.6z M119.9,223.6c-0.1,0-0.2,0.1-0.2,0.1c-0.1,0.1,0,0.3,0.2,0.3h2.1c0.1,0,0.2-0.1,0.2-0.1
			c0.1-0.1,0-0.3-0.2-0.3H119.9L119.9,223.6z M124.1,223.6c-0.1,0-0.2,0.1-0.2,0.1c-0.1,0.1,0,0.3,0.2,0.3h2.1
			c0.1,0,0.2-0.1,0.2-0.1c0.1-0.1,0-0.3-0.2-0.3H124.1L124.1,223.6z M128.2,223.6c-0.1,0-0.2,0.1-0.2,0.1c-0.1,0.1,0,0.3,0.2,0.3
			h2.1c0.1,0,0.2-0.1,0.2-0.1c0.1-0.1,0-0.3-0.2-0.3H128.2L128.2,223.6z M132.4,223.6c-0.1,0-0.2,0.1-0.2,0.1
			c-0.1,0.1,0,0.3,0.2,0.3h2.1c0.1,0,0.2-0.1,0.2-0.1c0.1-0.1,0-0.3-0.2-0.3H132.4L132.4,223.6z M136.6,223.6
			c-0.1,0-0.2,0.1-0.2,0.1c-0.1,0.1,0,0.3,0.2,0.3h2.1c0.1,0,0.2-0.1,0.2-0.1c0.1-0.1,0-0.3-0.2-0.3H136.6L136.6,223.6z
			 M140.7,223.6c-0.1,0-0.2,0.1-0.2,0.1c-0.1,0.1,0,0.3,0.2,0.3h2.1c0.1,0,0.2-0.1,0.2-0.1c0.1-0.1,0-0.3-0.2-0.3H140.7L140.7,223.6
			z M144.9,223.6c-0.1,0-0.2,0.1-0.2,0.1c-0.1,0.1,0,0.3,0.2,0.3h2.1c0.1,0,0.2-0.1,0.2-0.1c0.1-0.1,0-0.3-0.2-0.3H144.9
			L144.9,223.6z M149.1,223.6c-0.1,0-0.2,0.1-0.2,0.1c-0.1,0.1,0,0.3,0.2,0.3h2.1c0.1,0,0.2-0.1,0.2-0.1c0.1-0.1,0-0.3-0.2-0.3
			H149.1L149.1,223.6z M153.2,223.6c-0.1,0-0.2,0.1-0.2,0.1c-0.1,0.1,0,0.3,0.2,0.3h2.1c0.1,0,0.2-0.1,0.2-0.1
			c0.1-0.1,0-0.3-0.2-0.3H153.2L153.2,223.6z M157.4,223.6c-0.1,0-0.2,0.1-0.2,0.1c-0.1,0.1,0,0.3,0.2,0.3h2.1
			c0.1,0,0.2-0.1,0.2-0.1c0.1-0.1,0-0.3-0.2-0.3H157.4L157.4,223.6z M161.6,223.6c-0.1,0-0.2,0.1-0.2,0.1c-0.1,0.1,0,0.3,0.2,0.3
			h2.1c0.1,0,0.2-0.1,0.2-0.1c0.1-0.1,0-0.3-0.2-0.3H161.6L161.6,223.6z M165.7,223.6c-0.1,0-0.2,0.1-0.2,0.1
			c-0.1,0.1,0,0.3,0.2,0.3h2.1c0.1,0,0.2-0.1,0.2-0.1c0.1-0.1,0-0.3-0.2-0.3H165.7L165.7,223.6z M169.9,223.6
			c-0.1,0-0.2,0.1-0.2,0.1c-0.1,0.1,0,0.3,0.2,0.3h2.1c0.1,0,0.2-0.1,0.2-0.1c0.1-0.1,0-0.3-0.2-0.3H169.9L169.9,223.6z
			 M174.1,223.6c-0.1,0-0.2,0.1-0.2,0.1c-0.1,0.1,0,0.3,0.2,0.3h2.1c0.1,0,0.2-0.1,0.2-0.1c0.1-0.1,0-0.3-0.2-0.3H174.1L174.1,223.6
			z M178.2,223.6c-0.1,0-0.2,0.1-0.2,0.1c-0.1,0.1,0,0.3,0.2,0.3c0.4,0,1.5-0.1,2,0.1c0.2,0.1,0.4-0.3,0.1-0.4
			C179.7,223.6,178.8,223.6,178.2,223.6L178.2,223.6z M182.3,224.7c-0.2-0.2-0.5,0.1-0.3,0.3c0.5,0.4,0.9,1,1.1,1.6
			c0.1,0.3,0.5,0.1,0.4-0.1C183.3,225.8,182.8,225.1,182.3,224.7L182.3,224.7z M183.7,228.6c0-0.1-0.1-0.2-0.1-0.2
			c-0.1-0.1-0.3,0-0.3,0.2v2.1c0,0.1,0.1,0.2,0.1,0.2c0.1,0.1,0.3,0,0.3-0.2V228.6L183.7,228.6z M183.7,232.7c0-0.1-0.1-0.2-0.1-0.2
			c-0.1-0.1-0.3,0-0.3,0.2v2.1c0,0.1,0.1,0.2,0.1,0.2c0.1,0.1,0.3,0,0.3-0.2V232.7L183.7,232.7z M183.7,236.9c0-0.1-0.1-0.2-0.1-0.2
			c-0.1-0.1-0.3,0-0.3,0.2v2.1c0,0.1,0.1,0.2,0.1,0.2c0.1,0.1,0.3,0,0.3-0.2V236.9L183.7,236.9z M183.7,241.1c0-0.1-0.1-0.2-0.1-0.2
			c-0.1-0.1-0.3,0-0.3,0.2v2.1c0,0.1,0.1,0.2,0.1,0.2c0.1,0.1,0.3,0,0.3-0.2V241.1L183.7,241.1z M183.7,245.2c0-0.1-0.1-0.2-0.1-0.2
			c-0.1-0.1-0.3,0-0.3,0.2v2.1c0,0.1,0.1,0.2,0.1,0.2c0.1,0.1,0.3,0,0.3-0.2V245.2L183.7,245.2z M183.7,249.4c0-0.1-0.1-0.2-0.1-0.2
			c-0.1-0.1-0.3,0-0.3,0.2v2.1c0,0.1,0.1,0.2,0.1,0.2c0.1,0.1,0.3,0,0.3-0.2V249.4L183.7,249.4z M183.7,253.6c0-0.1-0.1-0.2-0.1-0.2
			c-0.1-0.1-0.3,0-0.3,0.2v2.1c0,0.1,0.1,0.2,0.1,0.2c0.1,0.1,0.3,0,0.3-0.2V253.6L183.7,253.6z M183.7,257.7c0-0.1-0.1-0.2-0.1-0.2
			c-0.1-0.1-0.3,0-0.3,0.2v2.1c0,0.1,0.1,0.2,0.1,0.2c0.1,0.1,0.3,0,0.3-0.2V257.7L183.7,257.7z M183.7,261.9c0-0.1-0.1-0.2-0.1-0.2
			c-0.1-0.1-0.3,0-0.3,0.2v2.1c0,0.1,0.1,0.2,0.1,0.2c0.1,0.1,0.3,0,0.3-0.2V261.9L183.7,261.9z M183.7,266.1c0-0.1-0.1-0.2-0.1-0.2
			c-0.1-0.1-0.3,0-0.3,0.2v2.1c0,0.1,0.1,0.2,0.1,0.2c0.1,0.1,0.3,0,0.3-0.2V266.1L183.7,266.1z M183.7,270.2c0-0.1-0.1-0.2-0.1-0.2
			c-0.1-0.1-0.3,0-0.3,0.2v2.1c0,0.1,0.1,0.2,0.1,0.2c0.1,0.1,0.3,0,0.3-0.2V270.2L183.7,270.2z M183.7,274.4c0-0.1-0.1-0.2-0.1-0.2
			c-0.1-0.1-0.3,0-0.3,0.2v2.1c0,0.1,0.1,0.2,0.1,0.2c0.1,0.1,0.3,0,0.3-0.2V274.4L183.7,274.4z M183.7,278.6c0-0.1-0.1-0.2-0.1-0.2
			c-0.1-0.1-0.3,0-0.3,0.2v2.1c0,0.1,0.1,0.2,0.1,0.2c0.1,0.1,0.3,0,0.3-0.2V278.6L183.7,278.6z M183.7,282.7c0-0.1-0.1-0.2-0.1-0.2
			c-0.1-0.1-0.3,0-0.3,0.2v2.1c0,0.1,0.1,0.2,0.1,0.2c0.1,0.1,0.3,0,0.3-0.2V282.7L183.7,282.7z M183.7,286.9c0-0.1-0.1-0.2-0.1-0.2
			c-0.1-0.1-0.3,0-0.3,0.2v2.1c0,0.1,0.1,0.2,0.1,0.2c0.1,0.1,0.3,0,0.3-0.2V286.9z"/>
		<path class="st39" d="M77.2,220.4c0.3,20.3,25.1,36.7,55.6,36.7c30.5,0,55.3-16.4,55.6-36.7H77.2z"/>
		<path class="st40" d="M138,266.2h-10.4c-0.7,0-1.3-0.6-1.3-1.3v-14.1c0-0.7,0.6-1.3,1.3-1.3H138c0.7,0,1.3,0.6,1.3,1.3v14.1
			C139.3,265.6,138.7,266.2,138,266.2z"/>
		<path class="st41" d="M135.8,264.4h-6.1c-0.9,0-1.6-0.7-1.6-1.6V253c0-0.9,0.7-1.6,1.6-1.6h6.1c0.9,0,1.6,0.7,1.6,1.6v9.8
			C137.4,263.6,136.7,264.4,135.8,264.4z"/>
	</g>
	<g>
		<polygon class="st42" points="141.5,169.7 225,157.7 308.5,169.7 308.5,171.7 225,183.8 141.5,171.7 		"/>
		<polygon class="st13" points="141.5,171.7 225,159.7 308.5,171.7 225,183.8 		"/>
		<polygon class="st43" points="188.7,174 261.2,174 264.9,203.2 185,203.2 		"/>
		<path class="st43" d="M225,180c20,0,36.3-2.6,36.3-5.9c0-3.2-16.3-5.9-36.3-5.9c-20,0-36.3,2.6-36.3,5.9
			C188.7,177.4,205,180,225,180z"/>
		<path class="st44" d="M225,209.1c22,0,39.9-2.6,39.9-5.9c0-3.2-17.9-5.9-39.9-5.9c-22,0-39.9,2.6-39.9,5.9
			C185,206.4,203,209.1,225,209.1z"/>
		<path class="st45" d="M297,168.1v11.5v51.6c0,0.7,0.6,1.2,1.2,1.2h0c0.7,0,1.2-0.6,1.2-1.2v-63.1v-1.2c0-0.7-0.6-1.2-1.2-1.2H297
			h-17.3L297,168.1z"/>
		<path class="st45" d="M298.2,216.5c4.4,0,8,19.9-0.1,27.9C290.1,236.3,293.8,216.5,298.2,216.5z"/>
		<path class="st46" d="M297.4,215.1h1.7c0.6,0,1.2,0.5,1.2,1.2v0c0,0.6-0.5,1.2-1.2,1.2h-1.7c-0.6,0-1.2-0.5-1.2-1.2v0
			C296.2,215.6,296.7,215.1,297.4,215.1z"/>
		<path class="st47" d="M259.3,178.9c-19.6,7.8-43.5,12.3-69.2,12.3c-1.2,0-2.3,0-3.5,0l-1.5,11.8c0.8-3.1,18.4-5.6,39.9-5.6
			s39.1,2.5,39.9,5.6l-3.1-24.5l-0.1-0.6C260.9,178.2,260.1,178.5,259.3,178.9z"/>
	</g>
	<g>
		<rect x="163.9" y="211.9" class="st48" width="122.2" height="87.6"/>
		<rect x="163.9" y="210.8" class="st49" width="122.2" height="87.6"/>
		<path class="st30" d="M165.4,245.4v43.6c8.7-2.1,18.8-3.3,29.7-3.3s21,1.2,29.7,3.3v-43.6v-39c-8.7-2.1-18.8-3.3-29.7-3.3
			s-21,1.2-29.7,3.3V245.4z"/>
		<path class="st50" d="M224.8,245.4v43.6c8.7-2.1,18.8-3.3,29.7-3.3c10.9,0,21,1.2,29.7,3.3v-43.6v-39c-8.7-2.1-18.8-3.3-29.7-3.3
			c-10.9,0-21,1.2-29.7,3.3V245.4z"/>
		<path class="st51" d="M165.4,291.4c8.7-2.1,18.8-3.4,29.7-3.5c10.8-0.1,21,1.1,29.6,3.1l0-1.3c-8.6-2-18.7-3.1-29.5-3
			c-10.9,0.1-21.1,1.3-29.8,3.5L165.4,291.4z"/>
		<path class="st51" d="M165.4,293.5c8.7-2.1,18.8-3.4,29.7-3.5c10.8-0.1,21,1.1,29.6,3.1l0-1.3c-8.6-2-18.7-3.1-29.5-3
			c-10.9,0.1-21.1,1.3-29.8,3.5L165.4,293.5z"/>
		<path class="st51" d="M165.4,295.5c8.7-2.1,18.8-3.4,29.7-3.5c10.8-0.1,21,1.1,29.6,3.1l0-1.3c-8.6-2-18.7-3.1-29.5-3
			c-10.9,0.1-21.1,1.3-29.8,3.5L165.4,295.5z"/>
		<path class="st52" d="M284.2,291.4c-8.7-2.1-18.8-3.4-29.7-3.5c-10.8-0.1-21,1.1-29.6,3.1l0-1.3c8.6-2,18.7-3.1,29.5-3
			c10.9,0.1,21.1,1.3,29.8,3.5L284.2,291.4z"/>
		<path class="st52" d="M284.2,293.5c-8.7-2.1-18.8-3.4-29.7-3.5c-10.8-0.1-21,1.1-29.6,3.1l0-1.3c8.6-2,18.7-3.1,29.5-3
			c10.9,0.1,21.1,1.3,29.8,3.5L284.2,293.5z"/>
		<path class="st52" d="M284.2,295.5c-8.7-2.1-18.8-3.4-29.7-3.5c-10.8-0.1-21,1.1-29.6,3.1l0-1.3c8.6-2,18.7-3.1,29.5-3
			c10.9,0.1,21.1,1.3,29.8,3.5L284.2,295.5z"/>
		<path class="st53" d="M279,223.9c-7.2-1.8-15.6-2.8-24.5-2.9c-8.9-0.1-17.3,0.9-24.5,2.5l0-1.1c7.1-1.6,15.5-2.6,24.4-2.5
			c9,0.1,17.4,1.1,24.6,2.9L279,223.9z"/>
		<path class="st53" d="M279,232.3c-7.2-1.8-15.6-2.8-24.5-2.9c-8.9-0.1-17.3,0.9-24.5,2.5l0-1.1c7.1-1.6,15.5-2.6,24.4-2.5
			c9,0.1,17.4,1.1,24.6,2.9L279,232.3z"/>
		<path class="st53" d="M279,242c-7.2-1.8-15.6-2.8-24.5-2.9c-8.9-0.1-17.3,0.9-24.5,2.5l0-1.1c7.1-1.6,15.5-2.6,24.4-2.5
			c9,0.1,17.4,1.1,24.6,2.9L279,242z"/>
		<path class="st53" d="M279,251.5c-7.2-1.8-15.6-2.8-24.5-2.9c-8.9-0.1-17.3,0.9-24.5,2.5l0-1.1c7.1-1.6,15.5-2.6,24.4-2.5
			c9,0.1,17.4,1.1,24.6,2.9L279,251.5z"/>
		<path class="st53" d="M279,259.8c-7.2-1.8-15.6-2.8-24.5-2.9c-8.9-0.1-17.3,0.9-24.5,2.5l0-1.1c7.1-1.6,15.5-2.6,24.4-2.5
			c9,0.1,17.4,1.1,24.6,2.9L279,259.8z"/>
		<path class="st53" d="M279,269.6c-7.2-1.8-15.6-2.8-24.5-2.9c-8.9-0.1-17.3,0.9-24.5,2.5l0-1.1c7.1-1.6,15.5-2.6,24.4-2.5
			c9,0.1,17.4,1.1,24.6,2.9L279,269.6z"/>
		<path class="st54" d="M220.7,223.4c-7.2-1.8-15.6-2.8-24.5-2.9c-8.9-0.1-17.3,0.9-24.5,2.5l0-1.1c7.1-1.6,15.5-2.6,24.4-2.5
			c9,0.1,17.4,1.1,24.6,2.9L220.7,223.4z"/>
		<path class="st54" d="M220.7,231.8c-7.2-1.8-15.6-2.8-24.5-2.9c-8.9-0.1-17.3,0.9-24.5,2.5l0-1.1c7.1-1.6,15.5-2.6,24.4-2.5
			c9,0.1,17.4,1.1,24.6,2.9L220.7,231.8z"/>
		<path class="st54" d="M220.7,241.5c-7.2-1.8-15.6-2.8-24.5-2.9c-8.9-0.1-17.3,0.9-24.5,2.5l0-1.1c7.1-1.6,15.5-2.6,24.4-2.5
			c9,0.1,17.4,1.1,24.6,2.9L220.7,241.5z"/>
		<path class="st54" d="M220.7,251c-7.2-1.8-15.6-2.8-24.5-2.9c-8.9-0.1-17.3,0.9-24.5,2.5l0-1.1c7.1-1.6,15.5-2.6,24.4-2.5
			c9,0.1,17.4,1.1,24.6,2.9L220.7,251z"/>
		<path class="st54" d="M220.7,259.3c-7.2-1.8-15.6-2.8-24.5-2.9c-8.9-0.1-17.3,0.9-24.5,2.5l0-1.1c7.1-1.6,15.5-2.6,24.4-2.5
			c9,0.1,17.4,1.1,24.6,2.9L220.7,259.3z"/>
		<path class="st54" d="M220.7,269.1c-7.2-1.8-15.6-2.8-24.5-2.9c-8.9-0.1-17.3,0.9-24.5,2.5l0-1.1c7.1-1.6,15.5-2.6,24.4-2.5
			c9,0.1,17.4,1.1,24.6,2.9L220.7,269.1z"/>
	</g>
	<g>
		<g>
			<path class="st55" d="M290,200.4c-1.4,2.1-3.3,5.9-5.1,10.2c0,0.1,0,0.1-0.1,0.2l3.1,1.3c0-0.1,0-0.1,0.1-0.2
				c1.8-4.4,3.2-8.3,3.8-10.8L290,200.4z"/>
		</g>
		<path class="st56" d="M287.9,204.5l2.4,1c1.3,0.6,2,2.1,1.5,3.3l0,0.1c-0.5,1.3-2.1,1.8-3.4,1.3l-2.4-1c-1.3-0.6-2-2.1-1.5-3.3
			l0-0.1C285,204.5,286.6,203.9,287.9,204.5z"/>
		<path class="st57" d="M284.5,205.8c-4.2,5.5-9.6,15.4-14.5,27c-0.1,0.1-0.1,0.3-0.2,0.4l6.3,2.6h0l6.3,2.7
			c0.1-0.1,0.1-0.3,0.2-0.4c4.9-11.7,8.2-22.4,9.2-29.3l-3.6-1.5h0L284.5,205.8z"/>
		<path class="st58" d="M282.6,207.9c-0.5,0.8-1.1,1.6-1.6,2.5l5,2.1l0,0l4.7,2c0.2-1,0.5-2,0.7-2.9l-4.2-1.8h0L282.6,207.9z"/>
		<path class="st56" d="M276.1,235.9L276.1,235.9l-6.3-2.6c-0.1,0.3-0.2,0.5-0.3,0.8c-9.2,21.9-16.3,41.7-19.6,54l3.6,1.5h0l3.6,1.5
			c6.5-10.9,15.8-29.8,25-51.7c0.1-0.3,0.2-0.5,0.3-0.8L276.1,235.9z"/>
		<path class="st55" d="M252.8,295.5c0.7-1.7-0.1-3.1-0.5-3.2l0,0l0,0c-0.4-0.2-2,0.1-2.7,1.9c-0.7,1.7-0.4,4.3,0,4.4h0l0,0
			C250,298.8,252.1,297.3,252.8,295.5z"/>
		<path class="st57" d="M257,291.1c-1.5,2.8-3.5,4.8-4.8,6.1c-1.1-0.5-2.2-0.9-3.2-1.4c-0.1-1.8,0-4.7,1-7.7
			C252.3,289.1,254.6,290.1,257,291.1z"/>
		<path class="st58" d="M288,210.2c4.9,2.1,5.8,1.8,5.6,5.6l-6.8-2.9L288,210.2z"/>
		<path class="st58" d="M291.5,213.5c0.6,3.4-2.5,16.5-6,20.6c-1.8,2.1-2.5,4.1-2.1,4.5c0.4,0.4,2.9-2,3.5-2.5
			c1.9-2,7.1-16.3,6.6-21.8L291.5,213.5z"/>
		<path class="st59" d="M281.2,210.6c-3.5,5.7-7.5,13.4-11.2,22.2c-0.1,0.1-0.1,0.3-0.2,0.4l6.3,2.6l9.9-23.4L281.2,210.6z"/>
		<path class="st60" d="M276.1,235.9l-6.3-2.6l0,0c-0.1,0.3-0.2,0.5-0.3,0.8c-9.2,21.9-16.3,41.7-19.6,54l0,0
			c0.2,0.1,0.4,0.2,0.6,0.3l2.9,1.2L276.1,235.9z"/>
		<path class="st59" d="M250.5,288.4l-0.6-0.3c-1,3-1.1,5.9-1,7.7c0.1,0,0.2,0.1,0.3,0.1c0.4,0.2,0.9,0.4,1.3,0.6l1.7-4.1l1.2-2.7
			C252.5,289.2,251.5,288.8,250.5,288.4z"/>
		<path class="st59" d="M282.9,208l2.7,1.1l1.6,0.6l0-0.1l1-2.4l-1.5-0.6l-2.2-0.9C284,206.5,283.4,207.2,282.9,208z"/>
		<path class="st60" d="M284.5,205.8l2.2,0.9l1.5,0.6l1-2.3l-1.2-0.5c0,0-0.1,0-0.1-0.1C286.5,204,285,204.5,284.5,205.8z"/>
	</g>
	<g>
		<polygon class="st61" points="271.5,299.5 276.9,295 282.2,290.4 283.7,287.9 276.4,283.3 274.8,285.9 273.2,292.7 		"/>
		<polygon class="st25" points="273.7,297.7 272.2,296.8 271.5,299.5 		"/>
		<path class="st62" d="M340.9,186.6l0.2,0.1c2,1.2,2.6,3.9,1.4,5.8l-60.2,97.9l0,0c0.2-0.6,0-1.4-0.6-1.7c-0.6-0.4-1.3-0.3-1.8,0.2
			c0.3-0.6,0.1-1.4-0.6-1.8c-0.6-0.4-1.4-0.2-1.9,0.3c0.3-0.6,0.1-1.5-0.6-1.8c-0.6-0.4-1.5-0.3-1.9,0.3L335,188
			C336.3,185.9,338.9,185.3,340.9,186.6z"/>
		
			<rect x="335.2" y="188.5" transform="matrix(0.5232 -0.8522 0.8522 0.5232 -3.6255 379.2346)" class="st63" width="3.8" height="8.7"/>
		<path class="st64" d="M281.6,288.6c0.6,0.4,0.9,1.1,0.6,1.7l0,0l57.6-93.7l-2.5-1.5l-56.1,91.2l-1.5,2.5
			C280.2,288.4,281,288.3,281.6,288.6z"/>
		<path class="st64" d="M276.7,285.6c0.6,0.4,0.8,1.1,0.6,1.7l0,0l57.6-93.7l-2.5-1.5l-56.1,91.2l-1.5,2.5
			C275.3,285.4,276,285.3,276.7,285.6z"/>
	</g>
	<path class="st42" d="M386.1,264.9L385,268l-0.5,3c0,0,3.9,2.3,6.2,3.1c2.3,0.7,4.2-0.3,3.6-0.9c-0.6-0.6-5.7-4.2-5.7-4.2
		L386.1,264.9z"/>
	<path class="st65" d="M359.7,230.1c1.2,0,15,0.8,15,0.8s17.6,1.3,19.9,3.8c2.3,2.5-6,34.4-6,34.4l-3.8-1l1.2-26.3
		c-4-0.2-28.6,3-28.7-0.7C357.2,240.2,359.7,230.1,359.7,230.1z"/>
	<path class="st66" d="M368.9,193.9c-11.6,5.5-15.7,34.7-11.6,47.2l13.3-10.6c-3-14,4.5-23.1,3-30.1
		C372.7,196.3,369.7,194,368.9,193.9z"/>
	<path class="st11" d="M379.7,195.5c-2.8,2.8-4.9,2.8-6.4,0.1c-1.3-2.3-1.6-5-1.3-7.5c-0.7-0.3-1.2-1.2-1.1-2.2c0.1-1.3,1-2.3,2-2.3
		c0.2,0,0.4,0.1,0.6,0.1c0.6-1,1.3-1.9,2-2.9c1.3-1.8,7.5-0.2,8.9,2.4C386.2,186.5,381.7,193.4,379.7,195.5z"/>
	<path class="st13" d="M376.7,182.9c-0.4,0.1-2.2,3.8-2.6,3.6c-0.4-0.2-0.6-2.7-0.6-2.7s0-0.1-0.6-0.1c-0.6,0-1,0.4-1,0.4
		s0.5-4.3,1.2-4.9c0.7-0.6,2.7-0.5,2.7-0.5s0.6-0.7,2-1s3.8,1,7.1,2.7c3.3,1.6,4.2,5,0,5.2C381,185.7,376.7,182.9,376.7,182.9z"/>
	
		<rect x="382.6" y="222.3" transform="matrix(0.1091 -0.994 0.994 0.1091 111.2507 586.9843)" class="st67" width="1" height="18.2"/>
	<polygon class="st68" points="401.1,216.5 401,215.1 398,215.5 392.3,232.1 394.6,232.7 395.8,232.6 	"/>
	
		<rect x="385.3" y="222.6" transform="matrix(0.1091 -0.994 0.994 0.1091 113.3494 589.9102)" class="st69" width="1" height="18.2"/>
	
		<rect x="389.3" y="223.4" transform="matrix(0.3389 -0.9408 0.9408 0.3389 52.7912 522.8221)" class="st42" width="18.2" height="1"/>
	<path class="st11" d="M380.8,228.2c0.4,0,1.6,0,2,0c0.3,0,3.4-0.2,3.8,0c0.2,0.1,1.2,0.7,2.1,1.4c0.5,0.4,1.5,1.6,1.7,1.7
		c0.3,0.2-0.5,0.4-0.9,0.3c-0.4-0.2-1.3-1.3-1.3-1.3c-0.2-0.1-0.3-0.1-0.5-0.2c0.1,0.1,0.2,0.3,0.2,0.3c0.1,0.3,0.1,1,0,1
		c-0.1,0-0.4,0.1-0.8-0.1c-0.2-0.1-0.6-0.5-0.8-0.9c-0.6,0.8-2.9,0.8-3.7,0.6c-0.9-0.3-1.4-0.8-1.4-0.8L380.8,228.2z"/>
	<path class="st70" d="M363.9,216.8l18.9,11.4l-1.6,2L358.9,220c-2.6-1.2,3.1-19.3,4.4-22.5c1.1-2.7,3.9-3.3,5.6-2.6
		C373.1,196.7,364.2,215,363.9,216.8z"/>
	<g>
		<path class="st11" d="M126.2,187.1c-0.1,0-0.6-3.7-0.3-4.3c0.3-0.7,1.8-2,1.8-1.5c0,0.5-0.6,1.6-0.6,1.6l0.1,0.9
			c0,0,1.7-3.4,2.2-3.8c0.5-0.5,0.8-0.3,0.8-0.3s0.6-0.7,0.9-0.6c0.3,0.2,0.3,0.6,0.3,0.7c0,0.1,0,0.2,0,0.2s0.2-0.1,0.3,0.2
			c0.2,0.3,0.1,0.7,0.1,0.7s0.2,0,0.3,0.4c0,0.4,0,0.6-0.1,0.7c0,0.1-1.2,2.6-1.2,2.7c0,0.1,0,0.7-0.5,1.6c-0.5,0.9-2,1.9-2,1.9
			C126.1,187.7,126.2,187.1,126.2,187.1z"/>
		<path class="st71" d="M109.2,187.1c0.5,0.2,10.9,11.4,11.2,11.5c0.3,0.1,5.4-11.5,5.7-11.5c0.3,0.1,2.5,0.9,2.5,0.9
			s-5.5,15.3-6.2,16.3c-0.7,1-11.3-5.6-14.3-9.5c-3-3.9-3-6.8-1.9-7.7C107.4,186.2,109.2,187.1,109.2,187.1z"/>
		<path class="st11" d="M132.2,198.5c0.5,0.1,1,0.2,1.4,0.2c0.9,0,1.9-0.5,1.6,0.1c-0.2,0.3-1.4,0.9-2.6,1.4L132.2,198.5z"/>
		<path class="st72" d="M132.3,199.1c0,0,8-0.4,9.7,6.6l10.7-12.8c0,0-4.5-5.9-10.2-4.3L132.3,199.1z"/>
		<path class="st73" d="M107.8,216.3c-1.6,1-4.1,2-6.2,10.2c-2,8.2,1.3,31.1,1.3,31.1s-2.8,9.2-4,16.8c-1.2,7.7-2.6,18-2.6,18
			l3.6,1.1l10.3-34c3.6-12,3.4-39.8,2.3-40.5L107.8,216.3z"/>
		<path class="st74" d="M107.4,292.8l-0.9,1.6l-0.4,1.7c0,0,1.8,2.5,3.6,2.3c1.8-0.2,2.1-1.2,2.1-1.2l-1.6-2.3L107.4,292.8z"/>
		<path class="st33" d="M106.1,296.1c-0.5,0.1-0.9,2.8-0.4,3.4c0.9,0,1.9,0,2.8,0c0.2,0,0.4,0,0.5,0c1.6,0,5.5,0.1,6.7,0
			c1.2-0.1,3.2-1,1.1-1.5c-2.1-0.5-5.8-2-5.8-2C110.5,297.9,107,296.9,106.1,296.1z"/>
		<path class="st75" d="M101.7,215.3c-1.3,1.3-3.6,2.8-4,11.2c-0.3,8.4,7.6,30.2,7.6,30.2s-0.9,9.6-0.5,17.3c0.4,7.7,1.4,21,1.4,21
			l4.1,0.1l2.6-38c0,0,1.5-18.3,1.6-25.5c0.2-7.3-2.7-15.1-2.7-15.1L101.7,215.3z"/>
		<path class="st13" d="M98.7,169.9c-0.1,0.6,0.7,3.4,1.4,4.9c0.7,1.6,2.7,2.4,2.7,2.2c0-0.2-0.6-5.8-0.6-5.8L98.7,169.9z"/>
		<path class="st15" d="M106.6,176.6c0,0,0.7,0.8,1.5,4.1c0.5,2.1,1.6,4.1,3.3,5.6c0,0,0.4,3.1-8.8-1.8l-0.2-9.6L106.6,176.6z"/>
		<path class="st11" d="M112.6,177.1c-0.6,3.8-2.3,5-5,3.7c-2.3-1.1-4.1-3.1-5.2-5.3c-0.7,0.2-1.6-0.2-2.2-1.2
			c-0.6-1.1-0.5-2.4,0.3-3c0.2-0.1,0.4-0.2,0.6-0.2c-0.1-1.2,0-2.3,0-3.4c0.1-2.2,5.9-4.4,8.5-3.1
			C112.7,166.4,113,174.4,112.6,177.1z"/>
		<path class="st76" d="M103.1,168.7c-0.2,0.3,0.4,4.3-0.1,4.3c-0.4,0-2-1.8-2-1.8s-0.1-0.1-0.6,0.2c-0.5,0.3-0.6,0.9-0.6,0.9
			s-2-3.7-1.8-4.5c0.2-0.8,1.8-1.9,1.8-1.9s0.1-0.9,1-1.9c0.9-1,3.6-1.3,7.2-1.8c3.6-0.6,6.1,1.6,2.9,4.2
			C108.1,168.6,103.1,168.7,103.1,168.7z"/>
		<path class="st77" d="M105.7,182.9c2.3,0.7,2.2,3.3,5.8,3.3c0,0,4,5.8,5,7.8c1.7,3.4-1.7,5.6-2.1,7.8c-0.4,2.1-0.5,22.1,0.1,23.3
			c0.6,1.2-17.3-1.8-16.1-4.2c1.2-2.3,2-11.9,2.4-20.1c0.4-8.2-0.7-11.4-0.3-14.4C101,183.3,102.8,182,105.7,182.9z"/>
		<path class="st76" d="M105.1,165.8c-0.5,0.6-1.5,2.7-0.2,7.8c1.3,5.1,0.2,8.7-2.6,11.8c-2.8,3.1-0.9,13.1-1.5,10.9
			c-0.6-2.2-5.5-5.8-3.8-11.2c1.6-5.4,2.4-8.2,1.6-9.5c-0.8-1.3-2.3-5.3-1.3-7.5c1-2.2,2.2-2.3,2.2-2.7c0.1-0.4,0.9-1.7,2.3-2.4
			c1.4-0.7,6.4-2.2,8.2-1c1.9,1.1,2.1,2.3,0.4,3.8C108.8,167,105.1,165.8,105.1,165.8z"/>
		<path class="st74" d="M96.5,292.1l-0.8,1.5c0,0,1.1,2.8,2.9,3.1c1.8,0.3,2.4-0.7,2.4-0.7l-1-2.6L96.5,292.1z"/>
		<path class="st33" d="M95.7,293.7c-0.5,0-1.6,2.5-1.3,3.2c0.9,0.2,1.8,0.5,2.7,0.7c0.2,0,0.4,0.1,0.5,0.1c1.6,0.4,5.3,1.5,6.5,1.7
			c1.2,0.2,3.3-0.2,1.4-1.2c-1.9-1-5.1-3.4-5.1-3.4C99.5,296.6,96.4,294.8,95.7,293.7z"/>
		<path class="st78" d="M107.9,187c0,0-1.7-3.6-4.5-1.8c-2.8,1.8,7.1,25,8.9,25c1.8,0,18.1-8.6,18.1-8.6l-1.2-2.3
			c0,0-15.7,6-15.8,5.1C113.3,203.6,107.9,187,107.9,187z"/>
		<path class="st72" d="M132.3,199.1c0,0-6.2-4.6-8.8-3.5l10.3-10.1c0,0,5.6-1.4,8.6,3.1L132.3,199.1z"/>
		<path class="st79" d="M142.5,188.6c0,0,5.6-2.9,9,1.9l-9,9.9c0,0-5.8-3.8-9.9-1.8L142.5,188.6z"/>
		<path class="st80" d="M142.5,188.6c0,0,4.1-3.3,7.3-2l-8.6,9.3c0,0-4.4-0.9-8.5,2.8L142.5,188.6z"/>
		<path class="st81" d="M132.6,198.7c0,0-3.3-3.9-6.9-4.1l9.7-9.6c0,0,5-1,7.1,3.6L132.6,198.7z"/>
		<path class="st82" d="M132,190.1l0-0.2c0,0,0,0,0,0c3.2,0,4.7,2.6,4.7,2.6l-0.2,0.1C136.5,192.6,135,190.1,132,190.1
			C132,190.1,132,190.1,132,190.1z"/>
		<path class="st82" d="M130.9,191.4l0-0.2c0,0,0,0,0,0c3.2,0,4.7,2.6,4.7,2.6l-0.2,0.1C135.4,193.8,133.9,191.4,130.9,191.4
			C130.9,191.4,130.9,191.4,130.9,191.4z"/>
		<path class="st82" d="M134.4,195l-0.2,0.1c0,0-1.5-2.5-4.5-2.5c0,0,0,0,0,0l0-0.2C132.8,192.4,134.4,195,134.4,195z"/>
		<path class="st11" d="M129.3,199.4c0.3-1.8,2-5,2.1-4.2c0.2,1,0,2.6,0,2.9c0,0.3,0.2,0.6,1.3,1l-0.1,1.1c-1,0.4-1.7,0.8-2.3,1.2
			C130.3,201.4,129.2,199.5,129.3,199.4z"/>
	</g>
</g>
</svg>
