<svg id="OBJECTS" xmlns="http://www.w3.org/2000/svg" viewBox="0 0 666.64 426.67"><defs><style>.cls-1{fill:#a4cbe7;}.cls-1,.cls-10,.cls-11,.cls-12,.cls-13,.cls-14,.cls-15,.cls-16,.cls-17,.cls-18,.cls-19,.cls-2,.cls-20,.cls-21,.cls-22,.cls-23,.cls-24,.cls-25,.cls-26,.cls-27,.cls-28,.cls-29,.cls-30,.cls-32,.cls-33,.cls-5,.cls-6,.cls-7,.cls-8,.cls-9{fill-rule:evenodd;}.cls-2,.cls-4{fill:#84b3d2;}.cls-3,.cls-5{fill:#fff;}.cls-6{fill:#000618;}.cls-7{fill:#e84a2b;}.cls-8{fill:#d43718;}.cls-9{fill:#fceadd;}.cls-10{fill:#eb6b5d;}.cls-11{fill:#f4ad85;}.cls-12{fill:#ef8871;}.cls-13{fill:#fcd259;}.cls-14{fill:#f7b630;}.cls-15{fill:#1c6263;}.cls-16{fill:#174b56;}.cls-17{fill:#5d6378;}.cls-18{fill:#01020e;}.cls-19{fill:#c6e3f1;}.cls-20{fill:#0f1630;}.cls-21{fill:#e8685b;}.cls-23{fill:#d64341;}.cls-24{fill:#f8cab0;}.cls-25{fill:#ea745d;}.cls-26{fill:#e4414f;}.cls-27{fill:#fadcc2;}.cls-28{fill:#e8b79c;}.cls-29{fill:#e3edf2;}.cls-30{fill:#76533e;}.cls-31{fill:#daa38a;}.cls-32{fill:#8f7260;}.cls-33{fill:#487a96;}</style></defs><title>main-bg</title><path class="cls-1" d="M85.47,314.21a34.78,34.78,0,0,1,34.67,34.68h0a63.45,63.45,0,0,0,63.27,63.26H630.58A82.42,82.42,0,0,0,712.76,330h0a82.42,82.42,0,0,0-82.18-82.19h-2.16a16.54,16.54,0,0,1-16.5-16.49h0a16.55,16.55,0,0,1,16.5-16.5h9.07a40.21,40.21,0,0,0,40.09-40.09h0a40.21,40.21,0,0,0-40-40.09H598.44a34.78,34.78,0,0,1-34.67-34.68h0A63.45,63.45,0,0,0,500.5,36.67H177.21A82.42,82.42,0,0,0,95,118.85h0A82.43,82.43,0,0,0,177.21,201h0a16.54,16.54,0,0,1,16.49,16.49h0A16.54,16.54,0,0,1,177.21,234H85.47C33,234,33,314.21,85.47,314.21Z" transform="translate(-46.12 -36.67)"/><path class="cls-2" d="M109.68,324.12a34.62,34.62,0,0,1,10.46,24.77h0a63.45,63.45,0,0,0,63.27,63.26H630.58A81.8,81.8,0,0,0,649.21,410V313.57h-5.94V274a5.21,5.21,0,0,0-1.72-3.94,5.78,5.78,0,0,0-4.14-1.63l-26.62.05-.27-110.25a5.73,5.73,0,0,0-5.82-5.56l-26-.14a5.8,5.8,0,0,0-4.15,1.62,5.25,5.25,0,0,0-1.73,3.95v21.63H543.47V147.5h0v-9.36a5.73,5.73,0,0,0-5.82-5.56l-13.48-.14a5.8,5.8,0,0,0-4.15,1.62,5.25,5.25,0,0,0-1.73,3.95v89.78H498V203.17h2.87a2.29,2.29,0,0,0,2.34-2.22V168.19a2.29,2.29,0,0,0-2.34-2.22H498a2.29,2.29,0,0,0-2.34,2.22v8.56h-4V157a2.31,2.31,0,0,0-.78-1.76,2.57,2.57,0,0,0-1.87-.72l-9,.14a2.54,2.54,0,0,0-2.56,2.45l-.07,6H447.15l-.23-8.9a2.55,2.55,0,0,0-2.61-2.42H412.2a2.55,2.55,0,0,0-2.61,2.48v21h-13v-9.63a2.3,2.3,0,0,0-.77-1.76,2.51,2.51,0,0,0-1.85-.72l-11.59.06a2.55,2.55,0,0,0-2.59,2.48l-.12,51.61-11.86,0a2.57,2.57,0,0,0-1.85.72,2.36,2.36,0,0,0-.76,1.76v17.62h-9.49v-4.51a2.55,2.55,0,0,0-2.61-2.48h-5.62a2.58,2.58,0,0,0-2.57,2v-9.51l-.06-75.68a2.47,2.47,0,0,0-1.77-2.35l-2.83-.91c-.16-.08-.36-.17-.52-.26a19,19,0,0,1-.08-2.32c0-2.62-.08-5.21-.19-7.83a2.54,2.54,0,0,0-2.51-2.38l-4.33-.13-.24-11a2.53,2.53,0,0,0-2.49-2.46l-4.51-.2-.08-18.58a2.55,2.55,0,0,0-2.59-2.47c-.68,0-1.35,0-2,.06h-.14a41,41,0,0,1-.07-4.33c.09-5,.29-10,.4-15.05a2.34,2.34,0,0,0-.75-1.78,2.53,2.53,0,0,0-1.85-.74H279.68a2.54,2.54,0,0,0-2.6,2.46L277,96.2c-1,0-1.68.22-3.46,1.38a2.36,2.36,0,0,0-1.14,2l0,17.89-4.73.16a2.55,2.55,0,0,0-2.51,2.48v11l-4.69.15a2.55,2.55,0,0,0-2.52,2.45l-.12,10.13h-2.34a2.55,2.55,0,0,0-2.6,2.48L252.61,264l-19.34,0V178.18c0-1.08,0-2.18,0-3.26a3.58,3.58,0,0,0-1.2-3,4.37,4.37,0,0,0-2.6-.83l-.48-.07,0-9.92a2.55,2.55,0,0,0-2.55-2.49c-1.11,0-2.2,0-3.31,0-.22,0-.66,0-1,0A27.79,27.79,0,0,1,222,154c0-5.07.23-10.16.29-15.24a32.76,32.76,0,0,0-.19-5.24,3.66,3.66,0,0,0-2-3.05l-.16-.07c-.08-.18-.16-.4-.21-.53a21.42,21.42,0,0,1-.25-4.27c0-1.42,0-2.9-.14-4.31a2.56,2.56,0,0,0-2.64-2.22l-19.21.3a2.61,2.61,0,0,0-2.22,1.26c0-3.51.1-7-.13-10.49a2.54,2.54,0,0,0-2.58-2.32l-20.6-.13a2.55,2.55,0,0,0-2.62,2.46l-.17,19.76-.37.08a7.7,7.7,0,0,0-3.17,1.64,2.36,2.36,0,0,0-.95,1.88l-.28,25.17-4.16.35a2.54,2.54,0,0,0-2.36,2.18l-1.23,10a5.4,5.4,0,0,0-1.26.57,4.61,4.61,0,0,0-1.78,3.38,1.81,1.81,0,0,0,0,.4l0,22A81.68,81.68,0,0,0,177.21,201h0a16.54,16.54,0,0,1,16.49,16.49h0A16.54,16.54,0,0,1,177.21,234H153.45l0,25.68-16.31,0,0-19.43a2.37,2.37,0,0,0-.77-1.76,2.56,2.56,0,0,0-1.86-.71l-6.59.22a2.54,2.54,0,0,0-2.57,2.46l-.15,74.95-12.9.13a2.55,2.55,0,0,0-2.57,2.35Z" transform="translate(-46.12 -36.67)"/><path class="cls-3" d="M113.68,21.79h5.54a1.85,1.85,0,0,1,1.85,1.85v5.54A1.84,1.84,0,0,1,119.22,31h-5.54a1.84,1.84,0,0,1-1.84-1.84V23.64A1.85,1.85,0,0,1,113.68,21.79Z"/><path class="cls-3" d="M132.6,21.79h5.54A1.85,1.85,0,0,1,140,23.64v5.54A1.84,1.84,0,0,1,138.13,31H132.6a1.85,1.85,0,0,1-1.85-1.85V23.64A1.85,1.85,0,0,1,132.6,21.79Z"/><path class="cls-4" d="M151.51,21.79H157a1.85,1.85,0,0,1,1.85,1.85v5.54A1.84,1.84,0,0,1,157,31h-5.54a1.85,1.85,0,0,1-1.85-1.85V23.64A1.85,1.85,0,0,1,151.51,21.79Z"/><path class="cls-3" d="M170.42,21.79H176a1.84,1.84,0,0,1,1.84,1.84v5.54A1.84,1.84,0,0,1,176,31h-5.54a1.85,1.85,0,0,1-1.85-1.85V23.64A1.85,1.85,0,0,1,170.42,21.79Z"/><path class="cls-3" d="M537.19,335.66h5.54a1.85,1.85,0,0,1,1.85,1.85V343a1.84,1.84,0,0,1-1.84,1.84h-5.54a1.84,1.84,0,0,1-1.84-1.84v-5.54A1.85,1.85,0,0,1,537.19,335.66Z"/><path class="cls-3" d="M556.1,335.66h5.54a1.85,1.85,0,0,1,1.85,1.85V343a1.84,1.84,0,0,1-1.84,1.84H556.1a1.85,1.85,0,0,1-1.85-1.85v-5.54A1.85,1.85,0,0,1,556.1,335.66Z"/><path class="cls-3" d="M575,335.66h5.54a1.85,1.85,0,0,1,1.85,1.85V343a1.84,1.84,0,0,1-1.84,1.84H575a1.85,1.85,0,0,1-1.85-1.85v-5.54A1.85,1.85,0,0,1,575,335.66Z"/><path class="cls-3" d="M593.93,335.66h5.54a1.84,1.84,0,0,1,1.84,1.84V343a1.84,1.84,0,0,1-1.84,1.84h-5.54a1.85,1.85,0,0,1-1.85-1.85v-5.54A1.85,1.85,0,0,1,593.93,335.66Z"/><path class="cls-5" d="M457.46,175.09H438.22a1.63,1.63,0,0,1-1.62-1.62h0a1.63,1.63,0,0,1,1.62-1.62h19.24a1.63,1.63,0,0,1,1.62,1.62h0A1.63,1.63,0,0,1,457.46,175.09Z" transform="translate(-46.12 -36.67)"/><path class="cls-5" d="M457.46,168.39H445.79a1.63,1.63,0,0,1-1.62-1.62h0a1.63,1.63,0,0,1,1.62-1.62h11.67a1.63,1.63,0,0,1,1.62,1.62h0A1.63,1.63,0,0,1,457.46,168.39Z" transform="translate(-46.12 -36.67)"/><path class="cls-5" d="M165.61,373.51H146.37a1.62,1.62,0,0,1-1.62-1.62h0a1.63,1.63,0,0,1,1.62-1.62h19.24a1.63,1.63,0,0,1,1.62,1.62h0A1.62,1.62,0,0,1,165.61,373.51Z" transform="translate(-46.12 -36.67)"/><path class="cls-5" d="M165.61,366.81H153.94a1.62,1.62,0,0,1-1.62-1.62h0a1.63,1.63,0,0,1,1.62-1.62h11.67a1.63,1.63,0,0,1,1.62,1.62h0A1.62,1.62,0,0,1,165.61,366.81Z" transform="translate(-46.12 -36.67)"/><path class="cls-5" d="M277.05,145.84h19.23a1.63,1.63,0,0,1,1.62,1.62h0a1.63,1.63,0,0,1-1.62,1.62H277.05a1.63,1.63,0,0,1-1.62-1.62h0A1.63,1.63,0,0,1,277.05,145.84Z" transform="translate(-46.12 -36.67)"/><path class="cls-5" d="M277.05,152.54h11.67a1.63,1.63,0,0,1,1.62,1.62h0a1.63,1.63,0,0,1-1.62,1.62H277.05a1.63,1.63,0,0,1-1.62-1.62h0A1.63,1.63,0,0,1,277.05,152.54Z" transform="translate(-46.12 -36.67)"/><path class="cls-2" d="M460.93,64.4a1,1,0,1,1,1.95,0v4.4a1,1,0,1,1-1.95,0V64.4ZM454.26,68a1,1,0,1,1,1.38-1.39l3.11,3.11a1,1,0,0,1,0,1.39,1,1,0,0,1-1.38,0L454.26,68Zm-2.2,7.24a1,1,0,0,1,0-2h4.41a1,1,0,0,1,0,2Zm3.58,6.67a1,1,0,0,1-1.38-1.39l3.11-3.11a1,1,0,0,1,1.38,1.38l-3.11,3.12Zm7.24,2.19a1,1,0,1,1-1.95,0v-4.4a1,1,0,1,1,1.95,0v4.4Zm6.67-3.58a1,1,0,0,1,0,1.39,1,1,0,0,1-1.38,0l-3.11-3.12a1,1,0,0,1,0-1.38,1,1,0,0,1,1.38,0l3.11,3.11Zm2.19-7.24a1,1,0,1,1,0,2h-4.4a1,1,0,1,1,0-2Zm-3.57-6.67a1,1,0,0,1,1.38,0,1,1,0,0,1,0,1.39l-3.11,3.11a1,1,0,1,1-1.38-1.39Z" transform="translate(-46.12 -36.67)"/><path class="cls-5" d="M443.67,126.25v2.14h2.14a1.62,1.62,0,0,1,1.62,1.62h0a1.63,1.63,0,0,1-1.62,1.62h-2.14v2.13a1.62,1.62,0,0,1-1.62,1.62h0a1.63,1.63,0,0,1-1.62-1.62v-2.13H438.3a1.63,1.63,0,0,1-1.62-1.62h0a1.62,1.62,0,0,1,1.62-1.62h2.13v-2.14a1.63,1.63,0,0,1,1.62-1.62h0A1.62,1.62,0,0,1,443.67,126.25Z" transform="translate(-46.12 -36.67)"/><path class="cls-2" d="M122.17,121.7a1,1,0,0,1,2,0v4.4a1,1,0,0,1-2,0v-4.4Zm-6.67,3.57a1,1,0,1,1,1.39-1.38L120,127a1,1,0,1,1-1.39,1.38l-3.11-3.11Zm-2.19,7.24a1,1,0,0,1,0-1.95h4.4a1,1,0,1,1,0,1.95Zm3.58,6.67a1,1,0,0,1-1.39,0,1,1,0,0,1,0-1.38l3.11-3.11a1,1,0,1,1,1.39,1.38l-3.11,3.11Zm7.24,2.19a1,1,0,1,1-2,0V137a1,1,0,0,1,2,0v4.4Zm6.67-3.57a1,1,0,1,1-1.38,1.38l-3.12-3.11a1,1,0,0,1,1.39-1.38l3.11,3.11Zm2.19-7.24a1,1,0,1,1,0,1.95h-4.4a1,1,0,1,1,0-1.95Zm-3.57-6.67a1,1,0,0,1,1.38,0,1,1,0,0,1,0,1.38l-3.11,3.11A1,1,0,0,1,126.3,127Z" transform="translate(-46.12 -36.67)"/><path class="cls-5" d="M90.64,267.4v2.14h2.14a1.62,1.62,0,0,1,1.62,1.62h0a1.63,1.63,0,0,1-1.62,1.62H90.64v2.13A1.63,1.63,0,0,1,89,276.53h0a1.63,1.63,0,0,1-1.62-1.62v-2.13H85.27a1.63,1.63,0,0,1-1.62-1.62h0a1.62,1.62,0,0,1,1.62-1.62H87.4V267.4A1.63,1.63,0,0,1,89,265.78h0A1.63,1.63,0,0,1,90.64,267.4Z" transform="translate(-46.12 -36.67)"/><path class="cls-5" d="M152.89,87.16v2.13H155a1.63,1.63,0,0,1,1.62,1.62h0A1.63,1.63,0,0,1,155,92.53h-2.13v2.14a1.63,1.63,0,0,1-1.62,1.62h0a1.62,1.62,0,0,1-1.62-1.62V92.53h-2.14a1.63,1.63,0,0,1-1.62-1.62h0a1.63,1.63,0,0,1,1.62-1.62h2.14V87.16a1.62,1.62,0,0,1,1.62-1.62h0A1.63,1.63,0,0,1,152.89,87.16Z" transform="translate(-46.12 -36.67)"/><path class="cls-5" d="M347.39,48.26v2.13h2.14A1.63,1.63,0,0,1,351.15,52h0a1.63,1.63,0,0,1-1.62,1.62h-2.14v2.14a1.63,1.63,0,0,1-1.62,1.62h0a1.63,1.63,0,0,1-1.62-1.62V53.63H342A1.62,1.62,0,0,1,340.4,52h0A1.62,1.62,0,0,1,342,50.39h2.13V48.26a1.63,1.63,0,0,1,1.62-1.63h0A1.63,1.63,0,0,1,347.39,48.26Z" transform="translate(-46.12 -36.67)"/><path class="cls-5" d="M672.41,283.8v2.13h2.13a1.63,1.63,0,0,1,1.63,1.62h0a1.63,1.63,0,0,1-1.63,1.63h-2.13v2.13a1.63,1.63,0,0,1-1.62,1.62h0a1.63,1.63,0,0,1-1.62-1.62v-2.13H667a1.63,1.63,0,0,1-1.63-1.63h0a1.63,1.63,0,0,1,1.63-1.62h2.13V283.8a1.63,1.63,0,0,1,1.62-1.62h0A1.63,1.63,0,0,1,672.41,283.8Z" transform="translate(-46.12 -36.67)"/><path class="cls-5" d="M570,193v2.13h2.14a1.63,1.63,0,0,1,1.62,1.63h0a1.63,1.63,0,0,1-1.62,1.62H570v2.13a1.63,1.63,0,0,1-1.62,1.62h0a1.63,1.63,0,0,1-1.62-1.62v-2.13h-2.14a1.63,1.63,0,0,1-1.62-1.62h0a1.63,1.63,0,0,1,1.62-1.63h2.14V193a1.63,1.63,0,0,1,1.62-1.62h0A1.63,1.63,0,0,1,570,193Z" transform="translate(-46.12 -36.67)"/><path class="cls-2" d="M641.17,164.25a1,1,0,1,1,2,0v4.4a1,1,0,1,1-2,0v-4.4Zm-6.67,3.57a1,1,0,0,1,1.38-1.38l3.12,3.11a1,1,0,0,1,0,1.38,1,1,0,0,1-1.39,0l-3.11-3.11Zm-2.19,7.24a1,1,0,1,1,0-1.95h4.4a1,1,0,1,1,0,1.95Zm3.57,6.67a1,1,0,0,1-1.38,0,1,1,0,0,1,0-1.38l3.11-3.11a1,1,0,1,1,1.39,1.38l-3.12,3.11Zm7.24,2.19a1,1,0,1,1-2,0v-4.4a1,1,0,1,1,2,0v4.4Zm6.68-3.57a1,1,0,1,1-1.39,1.38l-3.11-3.11a1,1,0,0,1,0-1.38,1,1,0,0,1,1.38,0l3.12,3.11Zm2.19-7.24a1,1,0,0,1,0,1.95h-4.41a1,1,0,0,1,0-1.95Zm-3.58-6.67a1,1,0,0,1,1.39,0,1,1,0,0,1,0,1.38l-3.12,3.11a1,1,0,0,1-1.38-1.38Z" transform="translate(-46.12 -36.67)"/><path class="cls-2" d="M678.37,342.14a1,1,0,1,1,2,0v4.4a1,1,0,1,1-2,0v-4.4Zm-6.67,3.57a1,1,0,0,1,0-1.38,1,1,0,0,1,1.39,0l3.11,3.11a1,1,0,0,1,0,1.38,1,1,0,0,1-1.38,0l-3.12-3.11ZM669.51,353a1,1,0,1,1,0-2h4.4a1,1,0,1,1,0,2Zm3.58,6.66a1,1,0,1,1-1.39-1.38l3.12-3.11a1,1,0,0,1,1.38,0,1,1,0,0,1,0,1.38l-3.11,3.11Zm7.24,2.19a1,1,0,1,1-2,0v-4.4a1,1,0,1,1,2,0v4.4Zm6.67-3.57a1,1,0,1,1-1.39,1.38l-3.11-3.11a1,1,0,1,1,1.39-1.38l3.11,3.11Zm2.19-7.24a1,1,0,1,1,0,2h-4.4a1,1,0,1,1,0-2Zm-3.58-6.67a1,1,0,0,1,1.39,0,1,1,0,0,1,0,1.38l-3.11,3.11a1,1,0,1,1-1.39-1.38Z" transform="translate(-46.12 -36.67)"/><path class="cls-6" d="M571.73,142a.7.7,0,0,1,.39-.92.71.71,0,0,1,.92.39c0,.08,11.53,27.35-8.42,43.26a.7.7,0,1,1-.88-1.1C582.85,168.42,571.76,142.11,571.73,142Z" transform="translate(-46.12 -36.67)"/><path class="cls-6" d="M484.88,189.66a.71.71,0,0,1,1,0,.7.7,0,0,1,0,1c-.1.11-35.26,38.22-17.81,67.08a.71.71,0,0,1-1.21.73C448.9,228.66,484.78,189.77,484.88,189.66Z" transform="translate(-46.12 -36.67)"/><path class="cls-7" d="M549.15,230.69s11.38,2,18.08,7,26.9,58,28.22,60.18a5.32,5.32,0,0,1,.16,2.3s-15.7,6.34-24.86,20.07a5.06,5.06,0,0,1-5.28-2.94C563.94,313.75,549.15,230.69,549.15,230.69Z" transform="translate(-46.12 -36.67)"/><path class="cls-8" d="M549.15,230.69s11.38,2,18.08,7a5.44,5.44,0,0,1,.6.53,12.93,12.93,0,0,0,.2,6.67c1.43,4.08,17.86,40.92,19.19,44.39.79,2.09,3.67,2.73,5.82,2.92,1.3,3.17,2.17,5.27,2.41,5.67a5.32,5.32,0,0,1,.16,2.3s-15.7,6.34-24.86,20.07a5.06,5.06,0,0,1-5.28-2.94C563.94,313.75,549.15,230.69,549.15,230.69Z" transform="translate(-46.12 -36.67)"/><path class="cls-7" d="M536.74,234.2l6.48-3.51h5.93c1.7,0,10.43,5,13.06,8.29s15.82,30.74,16.26,38.65S573.42,300.47,571,313s-4.83,27.24-4.83,27.24-.66,4.5-2.64,5.27a79.58,79.58,0,0,1-19.32,3.4c-8.35.33-54.57-1.76-56.66-2.41s-1-1.1-1.75-7.14-3.41-29.21-4.29-32.72S477.25,289,477.25,289s5-38.57-3.64-55.48c5.32-4.05,24.71-2.55,32.17-2.69Z" transform="translate(-46.12 -36.67)"/><path class="cls-8" d="M578.47,277.63c.3,5.5-2.27,14.42-4.67,23.56-3.43-2-8.77-3.72-16.79-3.07-17.56,1.43-38,3.26-42.66,3.67s-18.36,12.32-7.34,46c-10.17-.49-18.6-1-19.46-1.27-2.09-.66-1-1.1-1.75-7.14s-3.41-29.21-4.29-32.72S477.25,289,477.25,289s5-38.57-3.64-55.48c5.32-4.05,24.71-2.55,32.17-2.69l7.41.81.34,1.2s-18.78,8-20.41,11.22,4.9,25.31,6.33,29S513.18,288.16,578.47,277.63Z" transform="translate(-46.12 -36.67)"/><path class="cls-9" d="M500.7,238.83a23.27,23.27,0,0,1-2.52-6.11,7.35,7.35,0,0,1-.24-2c3.12.06,5.89.13,7.84.1l7.41.81.34,1.2S506.53,235.77,500.7,238.83Z" transform="translate(-46.12 -36.67)"/><path class="cls-10" d="M541.19,212.79v13.67c0,3.18,1.53,4.23,2,4.23,0,0,.44,14.6-12.63,15s-22.84-7.14-24.81-14.93c0,0,3.84-1.1,3.84-6.48V201.37Z" transform="translate(-46.12 -36.67)"/><path class="cls-11" d="M439,278l-4.86,2.25S415.75,307.1,412,313.69s-2.64,18.89,9.22,31.63,43.05,38.54,43.05,38.54,6.83-7.91,8.15-12.19V369.3s-31.77-39.09-32.21-40.62-1-2.86.33-4.83,20.49-21.19,20.49-21.19S468,288.93,439,278Z" transform="translate(-46.12 -36.67)"/><path class="cls-12" d="M410.14,320.53c-.37,6.74,2.6,15.65,11.1,24.79,11.86,12.73,43.05,38.54,43.05,38.54s1.34-1.56,2.95-3.66C457.09,373,419.69,342.87,410.14,320.53Z" transform="translate(-46.12 -36.67)"/><path class="cls-12" d="M439,278l-4.86,2.25-2,2.89c5.83,4,15.95,11.41,16.82,15.76,1,5.07-10,18.66-9.08,26.16a5.08,5.08,0,0,1,.63-1.22c1.32-2,20.49-21.19,20.49-21.19S468,288.93,439,278Z" transform="translate(-46.12 -36.67)"/><path class="cls-5" d="M532.18,245.6c1.67-1.57,11-14.91,11-14.91s-2-.09-2-3.33c0,0,5.15,3,5.64,3.33s.48,23.36-1.15,24.51c0,0-.57.61-1.84.08S532.18,245.6,532.18,245.6Z" transform="translate(-46.12 -36.67)"/><path class="cls-5" d="M532.18,245.6s-5.89,15-8,15.68S503.3,230.8,503.3,230.8l4.91-4,.89,2.85Z" transform="translate(-46.12 -36.67)"/><path class="cls-13" d="M473.61,233.49s-9.82,6.85-11.14,8.17S434,278.61,433.7,279a1.09,1.09,0,0,0-.16.94c12.89,6.47,20.77,18.83,27.12,27.83C461.51,309,477.25,289,477.25,289S488.77,248.8,473.61,233.49Z" transform="translate(-46.12 -36.67)"/><path class="cls-14" d="M473.61,233.49l-3.33,2.34c.84,8.25,2,23.83,0,32.7-1.81,7.88-13.69,17.07-22.16,22.76,5,5.47,9,11.49,12.56,16.47C461.51,309,477.25,289,477.25,289S488.77,248.8,473.61,233.49Z" transform="translate(-46.12 -36.67)"/><path class="cls-15" d="M564.2,348.5l.63,1.17s17.76,53.29,19.08,64.06-53.36,15.37-58,15.81-55.35-5.71-56.45-7.25-4.39-10.75-4.39-12.3,11.42-41.39,12.19-44.47,7.26-15.29,7.26-15.29Z" transform="translate(-46.12 -36.67)"/><path class="cls-16" d="M564.2,348.5l.63,1.17s2.2,6.58,5.09,15.57c-3.84-2.89-7.9-5.61-9.84-5.89-4.29-.61-44.91,5.71-48.58,5.92s-16.13,35.54-13.07,50.12c1.57,7.47-14.55,6.18-30.65,3.15-1.28-3.28-2.68-7.54-2.68-8.55,0-1.54,11.42-41.39,12.19-44.47s7.26-15.29,7.26-15.29l79.65-1.73Zm-1.67,72.9s-9.19-31-11.44-34.29,4.9,29.18,4.7,32.66S562.53,421.4,562.53,421.4Z" transform="translate(-46.12 -36.67)"/><path class="cls-6" d="M566.27,338.44s-27.77,7.14-80.47-.29c0,0-1.32.63-1.54,1.33a44.52,44.52,0,0,0-1,7,10,10,0,0,0,1.16,4.13c.77,1.14,38.1,7.37,58.08,4.06s22-3.55,22.73-5.21,1.76-8.57,1.76-9.71S566.27,338.44,566.27,338.44Z" transform="translate(-46.12 -36.67)"/><path class="cls-11" d="M593.54,298.85l2.16,1.67,1.07,2.1L610.2,263.5l19.65,6.74s-14.71,69.21-16.9,72.51-9.67,9.66-18.67,7.9-23.86-31.1-23.86-31.1S570.12,297.73,593.54,298.85Z" transform="translate(-46.12 -36.67)"/><path class="cls-12" d="M596.77,302.62,610.2,263.5l19.65,6.74s-2.69,12.68-6,27.44c0,0-.35-13.14-1.06-15.79s-13.58,1.94-15,5.21-14.9,30.51-16.22,32,5.16-16.52,5.16-16.52Zm19.15,29.85c-4.07,17-19.31,11.57-20.54,10.35s-11.22-6.53-15.31-21.84a25.76,25.76,0,0,1,3.09-20.8c-12.94,4.63-12.74,19.37-12.74,19.37s14.86,29.34,23.86,31.1,16.47-4.61,18.67-7.9C613.43,342,614.51,338.12,615.92,332.47Z" transform="translate(-46.12 -36.67)"/><path class="cls-12" d="M601.52,246l-2.23,1.07a19.15,19.15,0,0,0,.53,2.91c.44,1.74.45,3.62.68,7.52s.08,6,3.48,10.08,10.83,9.51,12.34,9.91,5,.45,8.84-2.69,10.34-8.76,13.62-11.52a33.91,33.91,0,0,0,4.72-4.62l-4.5-4.31s-1.82,1-2.61.58.82-2.33.82-2.33l0-10s-.45.2-.55-.19,2.76-3.73,3-4.61Z" transform="translate(-46.12 -36.67)"/><path class="cls-11" d="M627.59,223.64s2.74-1.74,3.69-1.55,4.08,2.45,4,4-1.41,7.39-5.09,8.65S627.59,223.64,627.59,223.64Z" transform="translate(-46.12 -36.67)"/><path class="cls-17" d="M601.37,223.66h0a.41.41,0,0,0-.39.45l.5,8.73a.42.42,0,0,0,.44.4h0a.42.42,0,0,0,.39-.45l-.5-8.73A.42.42,0,0,0,601.37,223.66Z" transform="translate(-46.12 -36.67)"/><path class="cls-17" d="M602,234.19h0a.41.41,0,0,0-.39.44l.2,3.48a.42.42,0,0,0,.44.39h0a.42.42,0,0,0,.4-.44l-.2-3.47A.43.43,0,0,0,602,234.19Z" transform="translate(-46.12 -36.67)"/><path class="cls-17" d="M602.26,239.25h0a.43.43,0,0,0-.39.45l.2,3.47a.41.41,0,0,0,.44.39h0a.42.42,0,0,0,.4-.44l-.2-3.47A.43.43,0,0,0,602.26,239.25Z" transform="translate(-46.12 -36.67)"/><path class="cls-18" d="M604.79,216.79l23.49-1.34a3.81,3.81,0,0,1,4,3.57l2.86,50.06a3.82,3.82,0,0,1-3.57,4l-23.49,1.34a3.82,3.82,0,0,1-4-3.58l-2.86-50.06A3.81,3.81,0,0,1,604.79,216.79Z" transform="translate(-46.12 -36.67)"/><path class="cls-19" d="M604.41,221.22l24.74-1.41a1.66,1.66,0,0,1,1.76,1.56l2.47,43.11a1.67,1.67,0,0,1-1.57,1.75l-24.74,1.42a1.68,1.68,0,0,1-1.76-1.57L602.85,223A1.66,1.66,0,0,1,604.41,221.22Z" transform="translate(-46.12 -36.67)"/><path class="cls-5" d="M617.33,230.15a7.38,7.38,0,0,1,2.31.22,3.83,3.83,0,0,0,5.28,5.19,7.27,7.27,0,0,1,.26,1.56,7.43,7.43,0,1,1-7.85-7Z" transform="translate(-46.12 -36.67)"/><path class="cls-20" d="M614.4,269.47l10.34-.59a1.13,1.13,0,0,1,1.18,1.06h0a1.12,1.12,0,0,1-1.06,1.19l-10.33.59a1.13,1.13,0,0,1-1.19-1.06h0A1.14,1.14,0,0,1,614.4,269.47Z" transform="translate(-46.12 -36.67)"/><path class="cls-20" d="M613.47,218.29l6.35-.36a.7.7,0,0,1,.73.65h0a.7.7,0,0,1-.65.73l-6.35.36a.69.69,0,0,1-.73-.65h0A.69.69,0,0,1,613.47,218.29Z" transform="translate(-46.12 -36.67)"/><path class="cls-5" d="M614.63,249.37l10.78-.61a1.17,1.17,0,0,1,1.24,1.1h0a1.17,1.17,0,0,1-1.1,1.24l-10.78.62a1.18,1.18,0,0,1-1.24-1.11h0A1.18,1.18,0,0,1,614.63,249.37Z" transform="translate(-46.12 -36.67)"/><path class="cls-5" d="M611.3,249.57h0a1,1,0,0,1,1.09,1l0,.27a1,1,0,0,1-1,1.1h0a1.05,1.05,0,0,1-1.1-1v-.27A1,1,0,0,1,611.3,249.57Z" transform="translate(-46.12 -36.67)"/><path class="cls-11" d="M602.19,242.8s4.38.08,5.34.48,1.58,2,1.23,5.19-2.91,3.28-5.14,3.1-4.22-3-4.33-4.48S600.41,242.67,602.19,242.8Z" transform="translate(-46.12 -36.67)"/><path class="cls-11" d="M634.65,232.47s-3.1,1.84-3.72,2.91a4.19,4.19,0,0,0,3.6,5.9,8.3,8.3,0,0,0,4.54-2.43c.62-.88,1.4-1.81.56-3.33S636.29,231.47,634.65,232.47Z" transform="translate(-46.12 -36.67)"/><path class="cls-11" d="M630.41,248.28s6.3-5.4,7.21-5.88a2.52,2.52,0,0,1,3.15.9c.63,1.12,1.67,2.64.65,4.65s-5.81,6.27-6.86,6.75a4,4,0,0,1-4-.86C629.79,252.85,628.71,249.81,630.41,248.28Z" transform="translate(-46.12 -36.67)"/><path class="cls-11" d="M632.47,258.43s7.33-4.59,8-5a2.46,2.46,0,0,1,3,1.1c.78,1.3,1.06,3.08,0,4.11s-7.36,4.83-8.46,5-2.19-.88-2.59-2S631.73,259.06,632.47,258.43Z" transform="translate(-46.12 -36.67)"/><path class="cls-18" d="M482.88,168.79s7.11,17.53-3.24,31.28-14.89,27.55-5.62,45.35,2.89,27.71,2.72,29.7,4.07,2.61,6.36-2.38c8.06,21,43.4,22.59,36-11.68,0-.07-.08-.21,0-.23s.2.1.29.15c8.49,4.4,11.45-6.27-1.76-19.6-16-16.14-4.44-29.87,2.29-40.1C528.18,188.73,530.71,157.73,482.88,168.79Z" transform="translate(-46.12 -36.67)"/><path class="cls-6" d="M480.6,198.72c-.31.45-.62.9-1,1.35-10.35,13.75-14.9,27.55-5.62,45.35s2.89,27.71,2.72,29.7,4.07,2.61,6.36-2.38c5.25,13.65,22.08,19.1,31.13,11.76,10-13.31-4.64-28.72-19-42.09s-13.64-26.9-12.59-33.43,1.91-10.37.54-11-2.56.76-2.56.76Z" transform="translate(-46.12 -36.67)"/><path class="cls-10" d="M491,173.7c-.26,0-.51.05-.76.09h0a10.25,10.25,0,1,0,8.48,2.4c.14,3-.49,6.76-4.37,7l.35-5.91A3.51,3.51,0,0,0,491,173.7Z" transform="translate(-46.12 -36.67)"/><path class="cls-10" d="M561.24,176.49c.26,0,.5.1.75.16h0a10.26,10.26,0,1,1-8.64,1.72c-.38,3-.05,6.78,3.8,7.31l.12-5.92A3.52,3.52,0,0,1,561.24,176.49Z" transform="translate(-46.12 -36.67)"/><path class="cls-11" d="M530,124h0a35.23,35.23,0,0,0-36.49,33.69l-1.27,31.92A35.23,35.23,0,0,0,526,226.07h0a35.21,35.21,0,0,0,36.48-33.69l1.27-31.92A35.22,35.22,0,0,0,530,124Z" transform="translate(-46.12 -36.67)"/><path class="cls-12" d="M505.3,132.87a35.08,35.08,0,0,0-11.76,24.79l-1.27,31.92A35.23,35.23,0,0,0,526,226.07c-26.61-3.55-23.9-38.39-21-49.95s10.17-12,10.17-12l13.46-.44,12-3.74s9.3-21.59,10.15-28.09a38.08,38.08,0,0,0-3.26-2.36C538.75,128.93,515.1,132.48,505.3,132.87Z" transform="translate(-46.12 -36.67)"/><path class="cls-6" d="M560.87,177s-.09,2.34-.18,4.52.34,4.63,2,4.7l.2-4.95c0-.92,1.44-3.41,3.67-2.06,27.07-45.49-14.64-80.12-50.38-69.77-5.6,1.62-11.67,10.78-11.67,10.78s-4.52-4.38-9-2.37-20.12,28.9-20.39,35.77,12.48,21,12.48,21c4.5.18,5.06,3.85,5.06,3.85l-.19,4.94c1.67.07,3.79-2.28,3.87-4.46s.19-4.52.19-4.52c14.11-5.61,19.24-23.9,19.24-23.9S538.11,179.38,560.87,177Z" transform="translate(-46.12 -36.67)"/><path class="cls-21" d="M552.49,192.25a4.62,4.62,0,1,0,4.77,4.48A4.62,4.62,0,0,0,552.49,192.25Z" transform="translate(-46.12 -36.67)"/><path class="cls-21" d="M512.74,193.49a4.62,4.62,0,1,0,4.77,4.48A4.62,4.62,0,0,0,512.74,193.49Z" transform="translate(-46.12 -36.67)"/><path class="cls-18" d="M522,172.29a1.4,1.4,0,0,1-1.45,2.39,9.17,9.17,0,0,0-8.26-.48,1.4,1.4,0,0,1-1.19-2.54C516.81,169,522,172.29,522,172.29Z" transform="translate(-46.12 -36.67)"/><path class="cls-22" d="M555.49,170.4a1.4,1.4,0,0,1,.75,1.83,1.39,1.39,0,0,1-1.82.75,9.18,9.18,0,0,0-8.23.8,1.4,1.4,0,1,1-1.57-2.33C549.82,167.94,555.47,170.4,555.49,170.4Z" transform="translate(-46.12 -36.67)"/><path class="cls-18" d="M524.48,199a9.43,9.43,0,1,0,18.85-.07h0a1.62,1.62,0,0,0-1.63-1.62l-15.56.05A1.63,1.63,0,0,0,524.5,199Z" transform="translate(-46.12 -36.67)"/><path class="cls-23" d="M528,206.3a9.36,9.36,0,0,0,5.92,2.07,9.5,9.5,0,0,0,5-1.44,6.31,6.31,0,0,0-10.9-.63Z" transform="translate(-46.12 -36.67)"/><path class="cls-5" d="M541.15,197.29l-14.62.05c-.23,1.62.52,3.25,1.62,3.61,1.32.42,11.9.11,12.65-.73C541.16,199.82,541.2,198.52,541.15,197.29Z" transform="translate(-46.12 -36.67)"/><path class="cls-20" d="M508.56,115.08c4,13.66,12.68,33.36,30.83,39.74,13.75,4.84,26.34,2.66,35.73-.93a41.1,41.1,0,0,0-4.19-21.68c-14.22,6.85-44.34,16-60.76-18.81C509.61,114,509.07,114.52,508.56,115.08Z" transform="translate(-46.12 -36.67)"/><path class="cls-24" d="M536.66,188.35s-.63,4,0,5.79a1.76,1.76,0,0,0,3.39-.73c-.12-2-2-5-2.37-5.35S536.65,187.78,536.66,188.35Z" transform="translate(-46.12 -36.67)"/><path class="cls-18" d="M560.87,177s-.09,2.34-.18,4.52.34,4.63,2,4.7l.2-4.95c0-.92,1.44-3.41,3.67-2.06a62,62,0,0,0,7.66-19c-37.06,16.05-59.16-14.72-59.16-14.72-24.63,25.73-39.68,9.85-39.76,9.77,1.41,7.25,12.34,19.38,12.34,19.38,4.5.18,5.06,3.85,5.06,3.85l-.19,4.94c1.67.07,3.79-2.28,3.88-4.46s.18-4.52.18-4.52c14.11-5.61,19.24-23.9,19.24-23.9S538.11,179.38,560.87,177Z" transform="translate(-46.12 -36.67)"/><path class="cls-18" d="M554.12,184.41a3,3,0,0,0-1.13-2,3,3,0,0,0-4.22.5,3,3,0,0,0-.62,2.22,1.2,1.2,0,0,1-2.39.28,5.41,5.41,0,0,1,10.12-3.24.88.88,0,0,0,.71-.22.34.34,0,1,1,.48.49,1.57,1.57,0,0,1-.88.41v0a1.58,1.58,0,0,0,1-.23.35.35,0,0,1,.37.59,2.27,2.27,0,0,1-1.19.33h0a2.09,2.09,0,0,0,1.09,0,.34.34,0,0,1,.41.26.34.34,0,0,1-.25.41,2.83,2.83,0,0,1-1.15,0,1.2,1.2,0,0,1-2.39.12Z" transform="translate(-46.12 -36.67)"/><path class="cls-18" d="M515.44,185.44a3,3,0,0,1,.78-2.16,3,3,0,0,1,2.08-1,3,3,0,0,1,2.16.78,3,3,0,0,1,1,2.08,1.21,1.21,0,1,0,2.41-.11,5.41,5.41,0,0,0-1.77-3.75,5.41,5.41,0,0,0-8.75,2.22.91.91,0,0,1-.74-.11.35.35,0,1,0-.39.57,1.52,1.52,0,0,0,.93.26v0a1.55,1.55,0,0,1-1-.06.36.36,0,0,0-.46.19.35.35,0,0,0,.19.45A2.26,2.26,0,0,0,513,185h0a2.14,2.14,0,0,1-1.07.2.35.35,0,0,0-.37.32.34.34,0,0,0,.32.37,2.72,2.72,0,0,0,1.13-.15,1.21,1.21,0,0,0,2.39-.28Z" transform="translate(-46.12 -36.67)"/><path class="cls-11" d="M460.51,380.54c4.63,3.54,7.36,11.17,15.53,1.9s10.08-12.53,10.08-12.53,4.3.13,5.11.13,1.91-2.18.55-3.27-.89-.27-.89-.27c3.91-1.81,1.85-3.8.68-5,0,0,2.46-.68,2.18-2.32s-2.86-1.91-2.86-1.91,2.66-.68,1.3-2.59c-.47-.65-4.56-1.16-7.43-1.15-2.3,0-3.38.23-4.45,1.89l-8.9,13.71-3.82-3.54Z" transform="translate(-46.12 -36.67)"/><path class="cls-12" d="M482.7,368s-5.34,8.15-9.43,11.94c-1.46,1.36-2.76,2.16-3.6,1.83a17.09,17.09,0,0,1-2.43-1.56c-1.25-.88-2.9-2.1-4.86-3.62l-1.87,4a19.44,19.44,0,0,1,2.13,1.95c2.63,2.7,5,5.66,8.85,3.78a15.74,15.74,0,0,0,4.55-3.83c8.18-9.26,10.08-12.53,10.08-12.53s4.3.13,5.11.13c.54,0,1.2-.94,1.19-1.9a7,7,0,0,1-1.49.1C488.72,368.12,482.7,368,482.7,368Z" transform="translate(-46.12 -36.67)"/><path class="cls-6" d="M169.82,183.78a.71.71,0,0,0-.39-.92.7.7,0,0,0-.92.38c0,.08-11.53,27.35,8.42,43.27a.71.71,0,0,0,1-.11.72.72,0,0,0-.11-1C158.7,210.16,169.79,183.85,169.82,183.78Z" transform="translate(-46.12 -36.67)"/><path class="cls-6" d="M241.93,147.42l13.88,10.77a47.46,47.46,0,0,0-1,23.68c2.82,12.84,59,76.92-21.66,90.67S190,236.85,190,236.85s-28.09-3.95-21.41-44.8S241.93,147.42,241.93,147.42Z" transform="translate(-46.12 -36.67)"/><path class="cls-18" d="M189.42,237.7c.38-.55.61-.85.61-.85a17.2,17.2,0,0,1-2.6-.65,73.58,73.58,0,0,1-8.47-7.89c-14-15.16-6.4-40.7-6.4-40.7l5.89-3s11.61-6.6,14.74-8.29,42-6,56.5,12.58,7.56,50.48,7.56,50.48-45.59,6.48-48.21,6.75C207.09,246.38,199.12,244.78,189.42,237.7Z" transform="translate(-46.12 -36.67)"/><path class="cls-6" d="M251.48,175.65a.72.72,0,0,0-1-.05.71.71,0,0,0,0,1c.1.11,35.26,38.22,17.81,67.08a.72.72,0,0,0,.24,1,.71.71,0,0,0,1-.24C287.46,214.64,251.58,175.76,251.48,175.65Z" transform="translate(-46.12 -36.67)"/><path class="cls-13" d="M187.21,230.69s-11.39,2-18.09,7-26.9,58-28.22,60.18a5.32,5.32,0,0,0-.16,2.3s15.7,6.34,24.86,20.07a5.06,5.06,0,0,0,5.28-2.94C172.42,313.75,187.21,230.69,187.21,230.69Z" transform="translate(-46.12 -36.67)"/><path class="cls-14" d="M187.21,230.69s-11.39,2-18.09,7a6.52,6.52,0,0,0-.59.53,12.94,12.94,0,0,1-.21,6.67c-1.42,4.08-17.85,40.92-19.18,44.39-.8,2.09-3.67,2.73-5.83,2.92-1.3,3.17-2.16,5.27-2.41,5.67a5.32,5.32,0,0,0-.16,2.3s15.7,6.34,24.86,20.07a5.06,5.06,0,0,0,5.28-2.94C172.42,313.75,187.21,230.69,187.21,230.69Z" transform="translate(-46.12 -36.67)"/><path class="cls-13" d="M199.61,234.2l-6.47-3.51h-5.93c-1.71,0-10.44,5-13.07,8.29s-15.81,30.74-16.25,38.65,5.05,22.84,7.46,35.35,4.83,27.24,4.83,27.24.66,4.5,2.64,5.27a79.68,79.68,0,0,0,19.32,3.4c8.35.33,54.58-1.76,56.66-2.41s1-1.1,1.76-7.14,3.4-29.21,4.28-32.72S259.11,289,259.11,289s-5-38.57,3.64-55.48c-5.33-4.05-24.72-2.55-32.17-2.69Z" transform="translate(-46.12 -36.67)"/><path class="cls-14" d="M157.89,277.63c-.31,5.5,2.26,14.42,4.67,23.56,3.43-2,8.76-3.72,16.79-3.07,17.55,1.43,38,3.26,42.66,3.67s18.35,12.32,7.34,46c10.16-.49,18.59-1,19.45-1.27,2.09-.66,1-1.1,1.76-7.14s3.4-29.21,4.28-32.72S259.11,289,259.11,289s-5-38.57,3.64-55.48c-5.33-4.05-24.72-2.55-32.17-2.69l-7.41.81-.35,1.2s18.78,8,20.41,11.22-4.9,25.31-6.32,29S223.17,288.16,157.89,277.63Z" transform="translate(-46.12 -36.67)"/><path class="cls-5" d="M199.61,234.2l-6.47-3.51h-5.93a5.89,5.89,0,0,0-1.92.61,28.16,28.16,0,0,0,2,9.77c3.2,7.75,9.8,12.21,18.2,12.49,13.46.46,29.13-6.85,32.68-20.84a7.75,7.75,0,0,0,.24-2c-3.12.06-5.89.13-7.84.1Z" transform="translate(-46.12 -36.67)"/><path class="cls-9" d="M235.65,238.83a23,23,0,0,0,2.53-6.11,7.75,7.75,0,0,0,.24-2c-3.12.06-5.89.13-7.84.1l-7.41.81-.35,1.2S229.83,235.77,235.65,238.83Z" transform="translate(-46.12 -36.67)"/><path class="cls-10" d="M195.17,212.79v13.67c0,3.18-1.54,4.23-2,4.23,0,0-.44,14.6,12.62,15s22.84-7.14,24.82-14.93c0,0-3.85-1.1-3.85-6.48V201.37Z" transform="translate(-46.12 -36.67)"/><path class="cls-11" d="M297.33,278l4.85,2.25s18.42,26.84,22.16,33.43,4.6,20.36-7.26,33.1-47,37.07-47,37.07-4.87-7.91-6.19-12.19c5.65-7.75,33.78-34.7,34.68-37.83.43-1.54,1-2.85-.34-4.83s-22.94-26.35-22.94-26.35S268.39,288.93,297.33,278Z" transform="translate(-46.12 -36.67)"/><path class="cls-13" d="M262.75,233.49s9.82,6.85,11.13,8.17,28.44,37,28.77,37.33a1.11,1.11,0,0,1,.17.94c-12.89,6.47-20.77,18.83-27.12,27.83C274.85,309,259.11,289,259.11,289S247.59,248.8,262.75,233.49Z" transform="translate(-46.12 -36.67)"/><path class="cls-14" d="M262.75,233.49l3.33,2.34c-.85,8.25-2,23.83,0,32.7,1.81,7.88,13.69,17.07,22.16,22.76-5.05,5.47-9,11.49-12.55,16.47C274.85,309,259.11,289,259.11,289S247.59,248.8,262.75,233.49Z" transform="translate(-46.12 -36.67)"/><path class="cls-15" d="M172.15,348.5l-.63,1.17S153.76,403,152.44,413.73s53.37,15.37,58,15.81,55.34-5.71,56.44-7.25,4.39-10.75,4.39-12.3-11.42-41.39-12.19-44.47-7.25-15.29-7.25-15.29Z" transform="translate(-46.12 -36.67)"/><path class="cls-16" d="M172.15,348.5l-.63,1.17s-2.19,6.58-5.09,15.57c3.85-2.89,7.9-5.61,9.85-5.89,4.28-.61,44.9,5.71,48.58,5.92s16.12,35.54,13.06,50.12c-1.57,7.47,14.56,6.18,30.65,3.15,1.28-3.28,2.68-7.54,2.68-8.55,0-1.54-11.42-41.39-12.19-44.47s-7.25-15.29-7.25-15.29l-79.66-1.73Zm1.68,72.9s9.18-31,11.43-34.29-4.9,29.18-4.7,32.66S173.83,421.4,173.83,421.4Z" transform="translate(-46.12 -36.67)"/><path class="cls-25" d="M171.74,172.52c-.25,0-.51.1-.76.16h0a10.46,10.46,0,1,0,8.82,1.74c.39,3.08.05,6.92-3.87,7.46l-.13-6A3.59,3.59,0,0,0,171.74,172.52Z" transform="translate(-46.12 -36.67)"/><path class="cls-25" d="M247.41,171.24a6.76,6.76,0,0,1,.77.1h0a10.46,10.46,0,1,1-8.63,2.46c-.14,3.09.51,6.89,4.46,7.11l-.36-6A3.59,3.59,0,0,1,247.41,171.24Z" transform="translate(-46.12 -36.67)"/><path class="cls-11" d="M205.63,120h0a35.92,35.92,0,0,0-34.32,37.25l1.33,32.55a35.93,35.93,0,0,0,37.26,34.32h0a35.93,35.93,0,0,0,34.32-37.26l-1.34-32.55A35.91,35.91,0,0,0,205.63,120Z" transform="translate(-46.12 -36.67)"/><path class="cls-12" d="M205.63,120h0a35.94,35.94,0,0,0-34.32,34.23,15.06,15.06,0,0,0,2.52,4.9L190,155.28S204.29,173.91,227.2,175c6.15.3,9.06,5.94,8.84,11.83-.53,14.33-8.92,36.2-39.18,35.3a35.34,35.34,0,0,0,13,1.91h0a35.93,35.93,0,0,0,34.32-37.26l-1.34-32.55A35.91,35.91,0,0,0,205.63,120Z" transform="translate(-46.12 -36.67)"/><path class="cls-25" d="M224.3,188.94a4.71,4.71,0,1,0,4.81,4.6A4.72,4.72,0,0,0,224.3,188.94Z" transform="translate(-46.12 -36.67)"/><path class="cls-25" d="M185.21,189.58a4.71,4.71,0,1,0,4.82,4.61A4.7,4.7,0,0,0,185.21,189.58Z" transform="translate(-46.12 -36.67)"/><path class="cls-18" d="M225.69,166.81a1.35,1.35,0,0,0,.47-2.65,13.86,13.86,0,0,0-3.86-.08,10.82,10.82,0,0,0-6.91,3.37,1.35,1.35,0,1,0,2,1.81C219.46,167,222.76,166.35,225.69,166.81Z" transform="translate(-46.12 -36.67)"/><path class="cls-18" d="M180.51,167c2.81-1,6.14-1.13,8.65.69a1.35,1.35,0,0,0,1.58-2.18,10.82,10.82,0,0,0-7.45-1.88,13.88,13.88,0,0,0-3.76.86,1.35,1.35,0,0,0,1,2.51Z" transform="translate(-46.12 -36.67)"/><path class="cls-6" d="M236.92,171.74s.09,2.39.19,4.61,5.27,7.3,7,7.23l-.33-8.11s.57-3.74,5.16-3.93c13.42-16.78,10.51-42.41-5.07-55.12s-47.92-12.23-53.48-10.12-11,11.91-11,11.91-5-4.07-9.31-1.67-18.06,31-17.78,38,14.42,20.33,14.42,20.33c4.59-.19,5.47,3.5,5.47,3.5l.2,5c1.71-.07,2.57-2.39,2.48-4.61s-.19-4.62-.19-4.62c13.88-6.86,18.69-26.12,18.69-26.12S214,176.06,236.92,171.74Z" transform="translate(-46.12 -36.67)"/><path class="cls-20" d="M256.85,139.49a39.27,39.27,0,0,0-7.78-17.74c-12.4,13.63-34.28,25.14-61.06-14.14a21.28,21.28,0,0,0-3.24,3C196.05,131,221.78,165.54,256.85,139.49Z" transform="translate(-46.12 -36.67)"/><path class="cls-18" d="M236.92,171.74s.09,2.39.19,4.61,5.27,7.3,7,7.23l-.33-8.11s.57-3.74,5.16-3.93a39.6,39.6,0,0,0,8.47-22.46s-23.88,23.65-63.47-5.61c0,0-11.12,26.55-34.76,23.36a104.42,104.42,0,0,0,7.56,8.08c4.59-.19,5.47,3.5,5.47,3.5l.2,5c1.71-.07,2.57-2.39,2.48-4.61s-.19-4.62-.19-4.62c13.88-6.86,18.69-26.12,18.69-26.12S214,176.06,236.92,171.74Z" transform="translate(-46.12 -36.67)"/><path class="cls-24" d="M199.07,190.62s0,3.57-.94,4.16-3.73.43-2.89-1.49a6.67,6.67,0,0,1,2.87-3.27C198.63,189.83,199.15,190.12,199.07,190.62Z" transform="translate(-46.12 -36.67)"/><path class="cls-18" d="M192.49,199.25a8.71,8.71,0,1,0,17.41-.4h0a1.51,1.51,0,0,0-1.54-1.46l-14.37.32a1.52,1.52,0,0,0-1.47,1.54Z" transform="translate(-46.12 -36.67)"/><path class="cls-26" d="M195.89,206a8.68,8.68,0,0,0,10.07.39,5.41,5.41,0,0,0-5.05-3.1A5.48,5.48,0,0,0,195.89,206Z" transform="translate(-46.12 -36.67)"/><path class="cls-5" d="M208.54,197.4l-13.51.3c-.18,1.5.55,3,1.56,3.3,1.23.37,11-.11,11.67-.89A5.11,5.11,0,0,0,208.54,197.4Z" transform="translate(-46.12 -36.67)"/><path class="cls-18" d="M221.51,174.4h0a3.46,3.46,0,0,1,2.22.77,1.42,1.42,0,0,0,.94-.72.54.54,0,0,1,.74-.25.55.55,0,0,1,.25.74,2.46,2.46,0,0,1-1.12,1.1l0,0a2.62,2.62,0,0,0,1.44-.91.56.56,0,1,1,.87.69,3.67,3.67,0,0,1-1.62,1.16h0a3.46,3.46,0,0,0,1.67-.56.55.55,0,0,1,.77.16.56.56,0,0,1-.17.77,4.32,4.32,0,0,1-1.71.67l-.77.12.05,4.22a3.5,3.5,0,0,1-3.45,3.53h0a3.48,3.48,0,0,1-3.53-3.44l-.06-4.56A3.48,3.48,0,0,1,221.51,174.4Z" transform="translate(-46.12 -36.67)"/><path class="cls-18" d="M185.52,174.79h0a3.47,3.47,0,0,0-2.21.83,1.47,1.47,0,0,1-.95-.71.55.55,0,0,0-1,.52,2.42,2.42,0,0,0,1.14,1.07l0,0a2.56,2.56,0,0,1-1.46-.87.54.54,0,0,0-.78-.07.55.55,0,0,0-.07.78,3.53,3.53,0,0,0,1.65,1.11h0a3.34,3.34,0,0,1-1.67-.52.57.57,0,0,0-.77.19.55.55,0,0,0,.18.76,4.77,4.77,0,0,0,1.73.64l.78.1,0,4.21a3.51,3.51,0,0,0,3.53,3.46h0a3.49,3.49,0,0,0,3.45-3.53l0-4.55A3.51,3.51,0,0,0,185.52,174.79Z" transform="translate(-46.12 -36.67)"/><path class="cls-6" d="M170.08,338.44s27.78,7.14,80.48-.29c0,0,1.31.63,1.53,1.33a44.52,44.52,0,0,1,1,7,10,10,0,0,1-1.15,4.13c-.77,1.14-38.1,7.37-58.09,4.06s-22-3.55-22.73-5.21-1.76-8.57-1.76-9.71S170.08,338.44,170.08,338.44Z" transform="translate(-46.12 -36.67)"/><path class="cls-11" d="M142.82,298.85l-2.17,1.67-1.07,2.1L126.15,263.5l-19.65,6.74s14.71,69.21,16.91,72.51,9.66,9.66,18.66,7.9,23.87-31.1,23.87-31.1S166.23,297.73,142.82,298.85Z" transform="translate(-46.12 -36.67)"/><path class="cls-12" d="M139.58,302.62,126.15,263.5l-19.65,6.74s.12.63,3.37,15.39c0-4.27,15.35-6.07,18.65,1.47,1.43,3.26,14.9,30.51,16.23,32s-5.17-16.52-5.17-16.52Zm-19.14,29.85c4.07,17,19.31,11.57,20.53,10.35s11.23-6.53,15.31-21.84a25.72,25.72,0,0,0-3.08-20.8c12.93,4.63,12.74,19.37,12.74,19.37s-14.86,29.34-23.87,31.1-16.47-4.61-18.66-7.9C122.93,342,121.84,338.12,120.44,332.47Z" transform="translate(-46.12 -36.67)"/><path class="cls-12" d="M134.83,246l2.23,1.07a19.15,19.15,0,0,1-.53,2.91c-.44,1.74-.45,3.62-.67,7.52s-.09,6-3.49,10.08-10.82,9.51-12.33,9.91-5,.45-8.85-2.69-10.34-8.76-13.62-11.52a33.36,33.36,0,0,1-4.71-4.62l4.5-4.31s1.82,1,2.61.58-.83-2.33-.83-2.33l0-10s.45.2.55-.19-2.76-3.73-3-4.61Z" transform="translate(-46.12 -36.67)"/><path class="cls-11" d="M108.77,223.64s-2.74-1.74-3.7-1.55-4.07,2.45-4,4,1.41,7.39,5.09,8.65S108.77,223.64,108.77,223.64Z" transform="translate(-46.12 -36.67)"/><path class="cls-17" d="M135,223.66h0a.43.43,0,0,1,.4.45l-.5,8.73a.42.42,0,0,1-.44.4h0a.43.43,0,0,1-.4-.45l.5-8.73A.42.42,0,0,1,135,223.66Z" transform="translate(-46.12 -36.67)"/><path class="cls-17" d="M134.38,234.19h0a.42.42,0,0,1,.4.44l-.2,3.48a.43.43,0,0,1-.45.39h0a.41.41,0,0,1-.39-.44l.2-3.47A.42.42,0,0,1,134.38,234.19Z" transform="translate(-46.12 -36.67)"/><path class="cls-17" d="M134.09,239.25h0a.44.44,0,0,1,.4.45l-.2,3.47a.42.42,0,0,1-.45.39h0a.41.41,0,0,1-.39-.44l.2-3.47A.42.42,0,0,1,134.09,239.25Z" transform="translate(-46.12 -36.67)"/><path class="cls-18" d="M131.57,216.79l-23.49-1.34a3.8,3.8,0,0,0-4,3.57l-2.87,50.06a3.82,3.82,0,0,0,3.58,4l23.49,1.34a3.81,3.81,0,0,0,4-3.58l2.87-50.06A3.81,3.81,0,0,0,131.57,216.79Z" transform="translate(-46.12 -36.67)"/><path class="cls-19" d="M131.94,221.22l-24.74-1.41a1.66,1.66,0,0,0-1.75,1.56L103,264.48a1.66,1.66,0,0,0,1.56,1.75l24.74,1.42a1.67,1.67,0,0,0,1.76-1.57l2.47-43.1A1.67,1.67,0,0,0,131.94,221.22Z" transform="translate(-46.12 -36.67)"/><path class="cls-5" d="M119,230.15a7.29,7.29,0,0,0-2.3.22,3.79,3.79,0,0,1,.49,2.11,3.83,3.83,0,0,1-4,3.6,3.73,3.73,0,0,1-1.72-.52,7.27,7.27,0,0,0-.26,1.56,7.43,7.43,0,1,0,7.84-7Z" transform="translate(-46.12 -36.67)"/><path class="cls-20" d="M122,269.47l-10.33-.59a1.13,1.13,0,0,0-1.19,1.06h0a1.13,1.13,0,0,0,1.06,1.19l10.33.59a1.12,1.12,0,0,0,1.19-1.06h0A1.13,1.13,0,0,0,122,269.47Z" transform="translate(-46.12 -36.67)"/><path class="cls-20" d="M122.88,218.29l-6.34-.36a.69.69,0,0,0-.73.65h0a.69.69,0,0,0,.65.73l6.34.36a.69.69,0,0,0,.73-.65h0A.69.69,0,0,0,122.88,218.29Z" transform="translate(-46.12 -36.67)"/><path class="cls-5" d="M121.72,249.37l-10.78-.61a1.18,1.18,0,0,0-1.24,1.1h0a1.17,1.17,0,0,0,1.11,1.24l10.77.62a1.17,1.17,0,0,0,1.24-1.11h0A1.18,1.18,0,0,0,121.72,249.37Z" transform="translate(-46.12 -36.67)"/><path class="cls-5" d="M125.06,249.57h0a1,1,0,0,0-1.1,1l0,.27a1,1,0,0,0,1,1.1h0a1,1,0,0,0,1.1-1v-.27A1,1,0,0,0,125.06,249.57Z" transform="translate(-46.12 -36.67)"/><path class="cls-11" d="M134.16,242.8s-4.38.08-5.34.48-1.58,2-1.23,5.19,2.91,3.28,5.14,3.1,4.22-3,4.33-4.48S136,242.67,134.16,242.8Z" transform="translate(-46.12 -36.67)"/><path class="cls-11" d="M101.7,232.47s3.11,1.84,3.72,2.91a4.08,4.08,0,0,1-.21,3.85,4.14,4.14,0,0,1-3.38,2.05,8.29,8.29,0,0,1-4.55-2.43c-.61-.88-1.4-1.81-.56-3.33S100.06,231.47,101.7,232.47Z" transform="translate(-46.12 -36.67)"/><path class="cls-11" d="M105.94,248.28s-6.3-5.4-7.2-5.88a2.52,2.52,0,0,0-3.15.9c-.64,1.12-1.68,2.64-.66,4.65s5.81,6.27,6.86,6.75a4,4,0,0,0,4-.86C106.56,252.85,107.65,249.81,105.94,248.28Z" transform="translate(-46.12 -36.67)"/><path class="cls-11" d="M103.89,258.43s-7.34-4.59-8-5a2.46,2.46,0,0,0-3,1.1c-.78,1.3-1,3.08,0,4.11s7.35,4.83,8.46,5,2.19-.88,2.59-2S104.63,259.06,103.89,258.43Z" transform="translate(-46.12 -36.67)"/><path class="cls-11" d="M277.55,378.81c-4.64,3.55-7.36,11.18-15.54,1.91s-10.08-12.53-10.08-12.53-4.29.13-5.11.13-1.91-2.18-.54-3.27.88-.27.88-.27c-3.9-1.81-1.84-3.8-.68-5,0,0-2.45-.68-2.18-2.32s2.86-1.91,2.86-1.91-2.65-.68-1.29-2.59c.46-.65,4.55-1.15,7.42-1.15,2.3,0,3.38.23,4.46,1.89l8.9,13.71,3.81-3.54Z" transform="translate(-46.12 -36.67)"/><path class="cls-12" d="M255.36,366.28s5.34,8.14,9.43,11.93c1.46,1.36,2.76,2.16,3.6,1.83a18.86,18.86,0,0,0,2.43-1.56c1.24-.88,2.9-2.1,4.86-3.62l1.87,3.95a20.6,20.6,0,0,0-2.13,2c-2.63,2.69-5,5.66-8.85,3.77a15.66,15.66,0,0,1-4.56-3.82c-8.17-9.26-10.08-12.53-10.08-12.53s-4.29.13-5.11.13c-.54,0-1.2-.94-1.19-1.9a7,7,0,0,0,1.49.1C249.34,366.4,255.36,366.28,255.36,366.28Z" transform="translate(-46.12 -36.67)"/><path class="cls-12" d="M298.92,332.71c2.95-3.69-9.83-24.09-13-26.8-2.71-2.29,8.73-12.54,19.77-20.56-2.09-3.07-3.48-5.09-3.48-5.09a51.66,51.66,0,0,0-13.93,11,127.81,127.81,0,0,0-10.73,13.87c5.55,6.27,19.68,22.27,20.73,23.85a4.17,4.17,0,0,1,.65,3.73Z" transform="translate(-46.12 -36.67)"/><path class="cls-12" d="M312,347.71c-10.92,8.14-29.53,22.05-36.29,27.1l0,.05,1.79,3.78c11-7.86,31.17-22.78,39.61-31.85,7.15-7.68,9.67-15.74,9.73-22.37C325.41,332.65,320.68,341.2,312,347.71Z" transform="translate(-46.12 -36.67)"/><path class="cls-27" d="M369.25,198.78s-25.77,3.54-43,11.71-7.77,18.69-7.77,18.69h50.8Z" transform="translate(-46.12 -36.67)"/><path class="cls-28" d="M356.75,201c-5.21,1.09-11.49,2.59-17.7,4.55a4.72,4.72,0,0,1,2.07,2.68c.74,3.72-6.42,6.53-7.1,11.68-.44,3.31-1,5.13.79,9.24h29.31c-3.12-7.47-5.13-13-5.25-17.19A41.89,41.89,0,0,0,356.75,201Z" transform="translate(-46.12 -36.67)"/><path class="cls-27" d="M369.25,198.78s25.77,3.54,43,11.71,7.77,18.69,7.77,18.69H369.25Z" transform="translate(-46.12 -36.67)"/><path class="cls-28" d="M383.27,201.35c5.23,1.13,11.34,2.65,17.34,4.6a4.19,4.19,0,0,0-1.6,2.31c-1.15,5.82,11.82,6.11,5.94,20.92H376c3.12-7.47,5.13-13,5.26-17.19A41,41,0,0,1,383.27,201.35Z" transform="translate(-46.12 -36.67)"/><path class="cls-10" d="M388.69,178.14l-.56,11.74v27.71c0,1.77,1.83,4.32,5.07,6.53-2.83,2.76-8.1,21.13-13.47,24.92H359.59c-5.38-3.79-10.64-22.16-13.47-24.92,3.23-2.21,5.06-4.76,5.06-6.53V189.88l-.55-11.74s9.36,1.51,19,3.64C379.32,179.65,388.69,178.14,388.69,178.14Z" transform="translate(-46.12 -36.67)"/><path class="cls-6" d="M351.18,215.31l-46.07,20.08v0a322.45,322.45,0,0,0-6.46,64.3l1,15.62c.3,4.25.61,8.33.92,12.27l.19,8s-3.29,62.55-2.51,65.24,7,9.09,7,9.09c-.25,1.69-.52,3.5-.81,5.4,11.29,4.25,32.28,9.72,65.13,9.47,32.85.25,53.84-5.22,65.13-9.47-.29-1.9-.56-3.71-.81-5.4,0,0,6.28-6.41,7-9.09s-2.5-65.24-2.5-65.24l.18-8c.31-3.94.62-8,.92-12.27l1-15.62a322.92,322.92,0,0,0-6.45-64.3v0l-46.08-17.8C388.13,239.25,351.18,242.29,351.18,215.31Z" transform="translate(-46.12 -36.67)"/><path class="cls-18" d="M351.18,215.31l-38,16.58c16.92,17.91,33.26,33.72,33.26,33.72l6.2,5.53s-1.41-27-1.71-30.13c-.19-1.9,3.48-6.92,6.42-10.61-3.66-3.15-6.13-8.12-6.13-15.09Zm-6.05,208.51c-1.36-3.56.76-6.77,7.52-8.43,25.19-6.21,29.76-16.09,29.76-24.58V337.86c0-9.39-4.08-13.06-10.81-13.06H341s-28.08-28.17,4.49-28.17,37.56.82,37.56-4.69.3-35.92,1.22-38.88,4.91-10,4-11c-.45-.49-6.93-4.27-13.47-8,7.25-1.88,13.36-7.61,13.36-16.42l46.08,17.8v0a322.92,322.92,0,0,1,6.45,64.3l-1,15.62c-.3,4.25-.61,8.33-.92,12.27l-.18,8s3.28,62.55,2.5,65.24-7,9.09-7,9.09c.25,1.69.52,3.5.81,5.4-11.29,4.25-32.28,9.72-65.13,9.47C360.6,424.85,352.43,424.48,345.13,423.82Z" transform="translate(-46.12 -36.67)"/><path class="cls-5" d="M351.18,215.31l-10.35,4.51a29.1,29.1,0,0,0,7.43,16.6c11.13,12,31.26,11.66,42.68.28a26.32,26.32,0,0,0,7.53-15.11l-10.34-4C388.13,239.25,351.18,242.29,351.18,215.31Z" transform="translate(-46.12 -36.67)"/><path class="cls-29" d="M351.18,215.31l-10.35,4.51a29.1,29.1,0,0,0,7.43,16.6,27,27,0,0,0,3.07,2.81c1-2.39,3.72-6,6-8.83-3.66-3.15-6.13-8.12-6.13-15.09Zm34.87,25.28a28.33,28.33,0,0,0,4.89-3.89,26.32,26.32,0,0,0,7.53-15.11l-10.34-4c0,8.81-6.11,14.54-13.36,16.42C379.16,236.53,383.51,239.05,386.05,240.59Z" transform="translate(-46.12 -36.67)"/><path class="cls-5" d="M386.64,424.38c23.28-1.33,38.94-5.61,48.15-9.07-.29-1.9-.56-3.71-.81-5.4,0,0,6.28-6.41,7-9.09s-2.5-65.24-2.5-65.24l.18-8c.31-3.94.62-8,.92-12.27l1-15.62a322.92,322.92,0,0,0-6.45-64.3v0l-26.59-11.67c-6.41,11-19.13,35.23-19.83,54.77l-1.93,3.4v142.3Z" transform="translate(-46.12 -36.67)"/><path class="cls-9" d="M397.2,423.53c17.55-1.82,29.85-5.31,37.59-8.22-.29-1.9-.56-3.71-.81-5.4,0,0,6.28-6.41,7-9.09s-2.5-65.24-2.5-65.24l.18-8,0-.54c-7-18.92.32-33.05-3.47-43.2,4.42-1.24-2.48-5.62,4.48-8a304.68,304.68,0,0,0-5.55-40.49v0l-26.59-11.67c-2,3.47-4.65,8.23-7.34,13.74,7.59,6.79,15.6,19.63,16,43.64v1.81h0c.23,23.22,1.82,77.36.09,96-2.18,23.51-8.78,39-19.64,42.15C395.38,421.46,395.67,422.33,397.2,423.53Z" transform="translate(-46.12 -36.67)"/><path class="cls-18" d="M399.62,423.27c16.26-1.89,27.79-5.18,35.17-8-.29-1.9-.56-3.71-.81-5.4a167.22,167.22,0,0,1-33.47,6.21C392.09,416.71,394.69,420,399.62,423.27Z" transform="translate(-46.12 -36.67)"/><path class="cls-27" d="M420.06,229.18s-32,31.52-32.61,57.37c0,0,0,2.66-1.59,2.79v-13c0-4.54-.49-22.64,7.84-34.61s7.63-21.47,1.77-23.35l5.87-2.84Z" transform="translate(-46.12 -36.67)"/><path class="cls-28" d="M392.5,267.33c-2.92,6.39-4.9,13-5.05,19.22,0,0,0,2.66-1.59,2.79v-13c0-4.54-.49-22.64,7.84-34.61s7.63-21.47,1.77-23.35l5.87-2.84,4.59,3.34c1.35,3.8.6,9.64-6.29,20C393.15,248.59,390.16,259.41,392.5,267.33Z" transform="translate(-46.12 -36.67)"/><path class="cls-5" d="M351.86,424.38c-23.27-1.33-38.93-5.61-48.14-9.07.28-1.9.55-3.71.8-5.4,0,0-6.27-6.41-7-9.09s2.5-65.24,2.5-65.24l-.19-8c-.3-3.94-.61-8-.92-12.27l-1-15.62a322.45,322.45,0,0,1,6.46-64.3v0l26.59-11.67c6.42,11,19.13,35.23,19.83,54.77l1.94,3.4v142.3Z" transform="translate(-46.12 -36.67)"/><path class="cls-9" d="M341.31,423.53c-17.55-1.82-29.85-5.31-37.59-8.22.28-1.9.55-3.71.8-5.4,0,0-6.27-6.41-7-9.09s2.5-65.24,2.5-65.24l-.19-8,0-.54A389.67,389.67,0,0,0,316.42,266s.42-1.93,1.42,1.33,2.11,88.09,4.29,111.6,8.78,39,19.65,42.15C343.12,421.46,342.84,422.33,341.31,423.53Z" transform="translate(-46.12 -36.67)"/><path class="cls-27" d="M318.45,229.18s32,31.52,32.6,57.37c0,0,0,2.66,1.6,2.79v-13c0-4.54.49-22.64-7.84-34.61s-7.64-21.47-1.78-23.35l-5.87-2.84Z" transform="translate(-46.12 -36.67)"/><path class="cls-28" d="M346.89,269.35a47.81,47.81,0,0,1,4.16,17.2s0,2.66,1.6,2.79v-13c0-4.54.49-22.64-7.84-34.61s-7.64-21.47-1.78-23.35l-5.87-2.84-2,1.47c-4.56,7.2,1.33,15.81,5.35,21.84C347.55,249.44,350.46,261.31,346.89,269.35Z" transform="translate(-46.12 -36.67)"/><path class="cls-18" d="M338.89,423.27c-16.27-1.89-27.79-5.18-35.17-8,.28-1.9.55-3.71.8-5.4A167.4,167.4,0,0,0,338,416.12C346.42,416.71,343.82,420,338.89,423.27Z" transform="translate(-46.12 -36.67)"/><path class="cls-9" d="M424,289.76s9.38,36.44,25.24,61.69c4.92,7.83,11.64,14,17.77,12.72,46.11-9.51-13.61-122.71-36.63-131.62C430.33,232.55,410.24,234.37,424,289.76Z" transform="translate(-46.12 -36.67)"/><path class="cls-30" d="M425.58,295.57c.74,2.51,1.73,5.73,2.95,9.43A338.69,338.69,0,0,1,466,279c-1.41-2.78-2.87-5.51-4.35-8.17a355.73,355.73,0,0,0-36,24.74Zm6,18.27A352.12,352.12,0,0,1,470,287.32c1.29,2.83,2.53,5.69,3.7,8.55a336.33,336.33,0,0,0-38.61,27C433.8,319.78,432.64,316.74,431.59,313.84Z" transform="translate(-46.12 -36.67)"/><path class="cls-21" d="M333.83,157.65c-.28,0-.55,0-.83.09h0a11.13,11.13,0,1,0,9.12,2.84c.07,3.29-.72,7.32-4.93,7.45l.54-6.39C338,159.05,335.61,157.7,333.83,157.65Z" transform="translate(-46.12 -36.67)"/><path class="cls-21" d="M414,162.87c.27,0,.54.12.81.19h0a11.13,11.13,0,1,1-9.41,1.63c-.49,3.26-.24,7.35,3.92,8l.29-6.41C409.7,163.72,412.2,162.68,414,162.87Z" transform="translate(-46.12 -36.67)"/><path class="cls-11" d="M377.51,104.79h0A38.21,38.21,0,0,0,337,140.34l-2.26,34.57a38.22,38.22,0,0,0,35.55,40.5h0a38.21,38.21,0,0,0,40.49-35.55l2.25-34.58A38.21,38.21,0,0,0,377.51,104.79Z" transform="translate(-46.12 -36.67)"/><path class="cls-12" d="M377.51,104.79h0A38.21,38.21,0,0,0,337,140.33l-.5,7.64,6.29,3,.24,1.88a13.91,13.91,0,0,1,9.39-4.49c6-.33,30.78-1.39,36.74-1.15s8.25,1.8,10.37,6.94S403.31,161.8,403,166s.41,7,1.88,8.57c0,0-.62,45-41.56,39.67a37.56,37.56,0,0,0,7,1.13h0a38.21,38.21,0,0,0,40.49-35.55l2.25-34.58A38.21,38.21,0,0,0,377.51,104.79Z" transform="translate(-46.12 -36.67)"/><path class="cls-5" d="M362.19,186a9.86,9.86,0,1,0,19.61,2.06h0a1.71,1.71,0,0,0-1.52-1.87l-16.19-1.7a1.7,1.7,0,0,0-1.87,1.52Z" transform="translate(-46.12 -36.67)"/><path class="cls-5" d="M365,194.05a9.86,9.86,0,0,0,11.27,1.88,6.14,6.14,0,0,0-5.23-4.2A6.23,6.23,0,0,0,365,194.05Z" transform="translate(-46.12 -36.67)"/><path class="cls-5" d="M380.48,186.26l-15.21-1.6c-.42,1.66.18,3.44,1.27,3.93,1.33.59,12.38,1.46,13.25.67C380.21,188.88,380.4,187.54,380.48,186.26Z" transform="translate(-46.12 -36.67)"/><path class="cls-21" d="M394.09,179.62a5,5,0,1,0,4.57,5.41A5,5,0,0,0,394.09,179.62Z" transform="translate(-46.12 -36.67)"/><path class="cls-21" d="M351.14,176a5,5,0,1,0,4.57,5.42A5,5,0,0,0,351.14,176Z" transform="translate(-46.12 -36.67)"/><path class="cls-18" d="M350.19,158.15a1.36,1.36,0,0,1-1.05-2.5,12.65,12.65,0,0,1,11.87.83,1.35,1.35,0,0,1-1.54,2.22C356.74,156.81,353.16,157,350.19,158.15Z" transform="translate(-46.12 -36.67)"/><path class="cls-18" d="M398.73,161.31c-2.79-1.57-6.32-2.18-9.28-.66a1.35,1.35,0,1,1-1.23-2.4,12.63,12.63,0,0,1,11.87.72,1.35,1.35,0,0,1-1.36,2.34Z" transform="translate(-46.12 -36.67)"/><path class="cls-18" d="M394.3,165.58h0a3.3,3.3,0,0,1,3.07,3.5l-.28,4.28a3.29,3.29,0,0,1-3.49,3.07h0a3.3,3.3,0,0,1-3.06-3.5l.28-4.28A3.3,3.3,0,0,1,394.3,165.58Z" transform="translate(-46.12 -36.67)"/><path class="cls-18" d="M354,163h0a3.3,3.3,0,0,0-3.49,3.07l-.28,4.28a3.3,3.3,0,0,0,3.07,3.5h0a3.29,3.29,0,0,0,3.49-3.07l.28-4.28A3.3,3.3,0,0,0,354,163Z" transform="translate(-46.12 -36.67)"/><path class="cls-20" d="M360.19,131.59c-4.1-.26-12.14,1.16-12.67,9.34s-2.5,14.56-7.72,14.22c0,0-.18,2.83-.42,6.41s-.81,7.19-4.2,7c.5-7.72-1.65-10.9-1.65-10.9s.67-10.32,1.26-19.34,3.91-21,16.29-28.52a46,46,0,0,1,52,3.38c11.3,9.09,13.05,21.38,12.46,30.4s-1.26,19.34-1.26,19.34-2.54,2.88-3,10.59c-3.38-.22-3.49-3.87-3.26-7.46s.42-6.41.42-6.41c-5.22-.34-6.35-6.92-5.81-15.1s-7.26-10.63-11.35-10.9Z" transform="translate(-46.12 -36.67)"/><path class="cls-6" d="M407,116.88c4.4,4.85,9.6,10.75,10.11,12.36.65,2-.7,6.58-1.56,9.31-2.89,9-7.21,21.06-7.21,21.06-5.22-.34-6.35-6.92-5.81-15.1.39-6.06-3.79-9-7.65-10.19l.4-16.55Z" transform="translate(-46.12 -36.67)"/><path class="cls-6" d="M346.66,113c-5,4.24-10.9,9.41-11.62,10.94-.91,2-.16,6.62.34,9.44,1.7,9.32,4.42,21.82,4.42,21.82,5.22.34,7.19-6.05,7.72-14.22.4-6.06,4.92-8.41,8.9-9.12l1.75-16.46Z" transform="translate(-46.12 -36.67)"/><path class="cls-5" d="M457.05,314.38s8.67-2.2,10.1-1.43,10.09,13.72,11.74,17.89,2.74,22.49.33,26.66-10.21,10.1-16.68,9.22-17.67-3.4-19.64-5.16-3.6-9.44-2.46-15.8S457.05,314.38,457.05,314.38Z" transform="translate(-46.12 -36.67)"/><path class="cls-11" d="M429.62,282.23l-6.54,7.12s19.88,60.89,21.86,64.44,11.3,7.51,16.67,3.07,8.91-15.57,8.93-21.53-10.1-19.46-19.87-41S429.62,282.23,429.62,282.23Z" transform="translate(-46.12 -36.67)"/><path class="cls-12" d="M429.62,282.23l-6.54,7.12s19.88,60.89,21.86,64.44,11.3,7.51,16.67,3.07c3.1-2.57,5.59-7.35,7.14-12.09-5.42,9.77-16.83,8.81-19.56,6.68s-10.94-39.1-10.33-41.14,6.84-8,9.49-8,9.35,6.24,9.35,6.24h0c-2.27-4.29-4.66-9-7-14.28C440.9,272.75,429.62,282.23,429.62,282.23Z" transform="translate(-46.12 -36.67)"/><path class="cls-12" d="M409.08,263.72l-3,1.62a25.58,25.58,0,0,0,.93,4c.73,2.36.88,4.94,1.46,10.28s.55,8.28,5.51,13.61,15.56,12.29,17.66,12.74,6.89.26,12-4.33,13.58-12.77,17.89-16.8a46.12,46.12,0,0,0,6.16-6.7l-6.5-5.59s-2.43,1.51-3.54,1,1-3.26,1-3.26L458,256.51s-.6.29-.77-.23,3.53-5.32,3.82-6.55Z" transform="translate(-46.12 -36.67)"/><path class="cls-11" d="M443.3,231.1s3.64-2.6,5-2.39S454,231.77,454,234s-1.41,10.26-6.38,12.25S443.3,231.1,443.3,231.1Z" transform="translate(-46.12 -36.67)"/><path class="cls-17" d="M407.27,233h0a.58.58,0,0,0-.51.63l1.31,12a.58.58,0,0,0,.64.52h0a.58.58,0,0,0,.51-.64l-1.31-12A.57.57,0,0,0,407.27,233Z" transform="translate(-46.12 -36.67)"/><path class="cls-17" d="M408.85,247.42h0a.58.58,0,0,0-.51.64l.52,4.76a.59.59,0,0,0,.64.51h0a.58.58,0,0,0,.51-.64l-.52-4.76A.58.58,0,0,0,408.85,247.42Z" transform="translate(-46.12 -36.67)"/><path class="cls-17" d="M409.61,254.36h0a.57.57,0,0,0-.51.64l.52,4.76a.59.59,0,0,0,.64.51h0a.58.58,0,0,0,.51-.64l-.52-4.76A.58.58,0,0,0,409.61,254.36Z" transform="translate(-46.12 -36.67)"/><path class="cls-18" d="M411.48,223.31l32.18-3.52a5.24,5.24,0,0,1,5.77,4.63L456.94,293a5.25,5.25,0,0,1-4.63,5.77l-32.19,3.52a5.25,5.25,0,0,1-5.77-4.63l-7.51-68.59A5.25,5.25,0,0,1,411.48,223.31Z" transform="translate(-46.12 -36.67)"/><path class="cls-19" d="M411.28,229.43l33.9-3.72a2.3,2.3,0,0,1,2.52,2l6.47,59.07a2.3,2.3,0,0,1-2,2.52L418.24,293a2.28,2.28,0,0,1-2.52-2L409.25,232A2.29,2.29,0,0,1,411.28,229.43Z" transform="translate(-46.12 -36.67)"/><path class="cls-5" d="M429.67,240.77a10.21,10.21,0,0,1,3.18.14,5.27,5.27,0,0,0,5.29,7.6,5.19,5.19,0,0,0,2.34-.84,10,10,0,0,1,.47,2.12,10.23,10.23,0,1,1-11.28-9Z" transform="translate(-46.12 -36.67)"/><path class="cls-20" d="M428.45,295l14.16-1.55a1.55,1.55,0,0,1,1.71,1.37h0a1.56,1.56,0,0,1-1.38,1.71l-14.15,1.55a1.56,1.56,0,0,1-1.71-1.37h0A1.54,1.54,0,0,1,428.45,295Z" transform="translate(-46.12 -36.67)"/><path class="cls-20" d="M423.52,224.75l8.69-.95a1,1,0,0,1,1.05.84h0a1,1,0,0,1-.84,1.05l-8.69.95a1,1,0,0,1-1.05-.84h0A1,1,0,0,1,423.52,224.75Z" transform="translate(-46.12 -36.67)"/><path class="cls-5" d="M427.33,267.39l14.77-1.62a1.61,1.61,0,0,1,1.78,1.43h0a1.6,1.6,0,0,1-1.43,1.78l-14.76,1.62a1.63,1.63,0,0,1-1.79-1.43h0A1.62,1.62,0,0,1,427.33,267.39Z" transform="translate(-46.12 -36.67)"/><path class="cls-5" d="M422.76,267.89h0a1.43,1.43,0,0,1,1.58,1.26l0,.37a1.42,1.42,0,0,1-1.26,1.58h0a1.42,1.42,0,0,1-1.58-1.27l0-.37A1.42,1.42,0,0,1,422.76,267.89Z" transform="translate(-46.12 -36.67)"/><path class="cls-11" d="M409.76,259.24s6-.21,7.38.28,2.31,2.65,2.06,7.05-3.77,4.71-6.84,4.63-6-3.86-6.27-5.86S407.3,259.18,409.76,259.24Z" transform="translate(-46.12 -36.67)"/><path class="cls-11" d="M453.64,242.73s-4.14,2.74-4.9,4.27a5.57,5.57,0,0,0,.56,5.26,5.66,5.66,0,0,0,4.8,2.59c1.75-.08,5.28-2.42,6.07-3.67s1.79-2.58.53-4.61S455.82,241.23,453.64,242.73Z" transform="translate(-46.12 -36.67)"/><path class="cls-11" d="M448.94,264.75s8.27-7.86,9.48-8.59a3.47,3.47,0,0,1,4.4,1c.95,1.49,2.49,3.5,1.23,6.34s-7.54,9-8.95,9.76-4.46.4-5.57-.9S446.71,267,448.94,264.75Z" transform="translate(-46.12 -36.67)"/><path class="cls-11" d="M452.49,278.56s9.76-6.84,10.69-7.39a3.38,3.38,0,0,1,4.2,1.3c1.16,1.73,1.66,4.15.29,5.64s-9.77,7.17-11.27,7.48-3.08-1-3.71-2.57S451.52,279.49,452.49,278.56Z" transform="translate(-46.12 -36.67)"/><path class="cls-5" d="M312.9,293.62c-6.57,31.06-17.08,39-23.73,64.26-1,3.88,16,59.93,16,59.93L278.41,419l-4.69-.82s-14.55-46.45-16-54.82a52.9,52.9,0,0,1,1.83-25.92h0c.11-.35.23-.69.35-1,6.27-17.45,12.7-38.88,19.16-60.92,4.49-15.29,11.46-33.56,25.21-40.12C304.29,235.39,324.43,236.48,312.9,293.62Z" transform="translate(-46.12 -36.67)"/><path class="cls-9" d="M312.9,293.62c-6.57,31.06-17.08,39-23.73,64.26-.91,3.46,12.55,48.54,15.44,58.14l-5.66-.63s-18-53.95-19.8-55.48-3.67-1.12-2-2.76,37.05-86.13,37.81-89.24c.48-2,1.11-2.43,1.52-2.52A164.61,164.61,0,0,1,312.9,293.62Z" transform="translate(-46.12 -36.67)"/><path class="cls-18" d="M346.52,101.47c2.12-4.5,8.06-14.66,19.13-16.61,14.31-2.52,16.41,6.49,16.41,6.49s5.87-5.37,10.13-3.45,5.12,8.39,5.12,8.39,6.66-2.36,9.13.93c1.63,2.16,2.34,7.19,2.63,10.37,8.64-14.4,21.76,17.19,4,24.55-6.17,26.74-19.84,14.92-13.94,7-22.71-2.77-40.46,14.61-59.3,3.09C318.28,129.05,325.49,89.5,346.52,101.47Z" transform="translate(-46.12 -36.67)"/><path class="cls-20" d="M416.52,104.72a10,10,0,0,1,2.94,3.41c-11.35,16.8-37.88,30.47-63,27.38-15.8-1.95-24.7-10.85-29.63-19.1.29-9,4.48-16.56,11.48-17.13,5.28,11.5,15.1,22.42,33.34,23.33C396.89,123.86,410.2,112.84,416.52,104.72Z" transform="translate(-46.12 -36.67)"/><path class="cls-24" d="M373.68,178.11s-.22,3.55-1.2,4.09-3.76.18-2.79-1.68a6.66,6.66,0,0,1,3.08-3.08C373.3,177.28,373.79,177.61,373.68,178.11Z" transform="translate(-46.12 -36.67)"/><path class="cls-18" d="M412.93,132.44a.78.78,0,0,1-1-.51.77.77,0,0,1,.51-1s12.62-3.69,10.89-19.39a.77.77,0,0,1,1.53-.16C426.77,128.39,413,132.43,412.93,132.44Z" transform="translate(-46.12 -36.67)"/><path class="cls-18" d="M341.34,141a.77.77,0,0,1,.51,1,.76.76,0,0,1-1,.5c-.05,0-19.14-5.6-16.56-29.13a.79.79,0,0,1,.85-.69.77.77,0,0,1,.68.85C323.42,135.79,341.29,141,341.34,141Z" transform="translate(-46.12 -36.67)"/><rect class="cls-31" x="271.42" y="252.95" width="27.76" height="4.49" rx="1.43"/><path class="cls-32" d="M304.38,310.47a299.16,299.16,0,0,0-29.11-22q1.37-4.6,2.73-9.26a324.58,324.58,0,0,1,28.61,21.09c-.55,2.58-1.36,6.27-2.23,10.2Zm-4.44,19.82s1-4.52,2.3-10.25a311.16,311.16,0,0,0-29.71-22.48q-1.41,4.67-2.82,9.23A286.74,286.74,0,0,1,299.94,330.29Z" transform="translate(-46.12 -36.67)"/><path class="cls-30" d="M304.38,310.47c-1.69-1.47-3.41-2.91-5.12-4.32l3.7-8.86c1.22,1,2.43,2,3.65,3-.55,2.58-1.36,6.27-2.23,10.2Zm-4.44,19.82c-2.62-2.36-5.29-4.65-8-6.86l3.74-8.84q3.29,2.66,6.53,5.45C301,325.77,299.94,330.29,299.94,330.29Z" transform="translate(-46.12 -36.67)"/><path class="cls-33" d="M668,409H82A12.12,12.12,0,0,0,70,421h0A12.11,12.11,0,0,0,82,433.12H122.8a6.74,6.74,0,0,1,6.71,6.72h0a6.73,6.73,0,0,1-6.71,6.71H107.89a8.42,8.42,0,0,0-8.4,8.39h0a8.42,8.42,0,0,0,8.4,8.39H640.78a8.41,8.41,0,0,0,8.39-8.39h0a8.42,8.42,0,0,0-8.39-8.39H629a6.73,6.73,0,0,1-6.71-6.71h0a6.74,6.74,0,0,1,6.71-6.72H668A12.11,12.11,0,0,0,680.05,421h0A12.12,12.12,0,0,0,668,409Zm-6.3,54.37a8.07,8.07,0,0,1-8-8.05v-.67a8.08,8.08,0,0,1,8-8.06h0a8.09,8.09,0,0,1,8.06,8.06v.67a8.08,8.08,0,0,1-8.06,8.05Z" transform="translate(-46.12 -36.67)"/></svg>