<?xml version="1.0" encoding="utf-8"?>
<!-- Generator: Adobe Illustrator 23.0.4, SVG Export Plug-In . SVG Version: 6.00 Build 0)  -->
<svg version="1.1" id="Слой_1" xmlns="http://www.w3.org/2000/svg" xmlns:xlink="http://www.w3.org/1999/xlink" x="0px" y="0px"
	 viewBox="0 0 110 115" style="enable-background:new 0 0 110 115;" xml:space="preserve">
<style type="text/css">
	.st0{fill:#A2CCDA;}
	.st1{fill:#FCA89E;}
	.st2{fill:#F7958D;}
	.st3{clip-path:url(#SVGID_2_);}
	.st4{fill:#0A5DC1;}
	.st5{fill:#2A2873;}
	.st6{fill:#2B79E6;}
	.st7{fill:#823024;}
</style>
<g>
	<g>
		<g>
			<g>
				
					<ellipse transform="matrix(0.9955 -9.452601e-02 9.452601e-02 0.9955 -4.9189 5.4371)" class="st0" cx="54.9" cy="54.6" rx="54.7" ry="54.7"/>
			</g>
		</g>
	</g>
	<g>
		<g>
			<path class="st1" d="M78.7,63.8c0,3.3-2.7,6-6,6c-3.3,0-6-2.7-6-6c0-3.3,2.7-6,6-6C76,57.8,78.7,60.4,78.7,63.8z"/>
		</g>
	</g>
	<g>
		<g>
			<circle class="st2" cx="72.7" cy="63.8" r="3.8"/>
		</g>
	</g>
	<g>
		<g>
			<path class="st1" d="M43.2,63.8c0,3.3-2.7,6-6,6c-3.3,0-6-2.7-6-6c0-3.3,2.7-6,6-6C40.5,57.8,43.2,60.4,43.2,63.8z"/>
		</g>
	</g>
	<g>
		<g>
			<path class="st2" d="M40.5,63.8c0,1.9-1.5,3.4-3.4,3.4c-1.9,0-3.4-1.5-3.4-3.4c0-1.9,1.5-3.4,3.4-3.4
				C39,60.4,40.5,61.9,40.5,63.8z"/>
		</g>
	</g>
	<g>
		<defs>
			<path id="SVGID_1_" d="M102.3,115.1v-5c0-14.3-11.6-25.9-25.9-25.9H34.1c-14.3,0-25.9,11.6-25.9,25.9v5H102.3z"/>
		</defs>
		<use xlink:href="#SVGID_1_"  style="overflow:visible;fill:#2B79E6;"/>
		<clipPath id="SVGID_2_">
			<use xlink:href="#SVGID_1_"  style="overflow:visible;"/>
		</clipPath>
		<g class="st3">
			<g>
				<g>
					<path class="st4" d="M18.9,87.9c2,4.5,21.6,11.5,27.7,13.2c6.2,1.7,9.2-10.9,9.2-10.9s-13.4-11.8-25.2-9.2
						C18.9,83.4,18.9,87.9,18.9,87.9z"/>
				</g>
			</g>
		</g>
		<g class="st3">
			<g>
				<g>
					<path class="st4" d="M91.6,87.9c-2,4.5-21.6,11.5-27.7,13.2c-6.2,1.7-9.2-10.9-9.2-10.9s13.4-11.8,25.2-9.2
						C91.6,83.4,91.6,87.9,91.6,87.9z"/>
				</g>
			</g>
		</g>
	</g>
	<g>
		<g>
			<path class="st2" d="M67.4,86.4c0,0-2.9,5.5-11.2,5.2c-10.4-0.3-12.6-6.5-12.6-6.5V72.2h23.1L67.4,86.4z"/>
		</g>
	</g>
	<g>
		<g>
			<g>
				<path class="st1" d="M47.6,77.9c9.4,7.5,15.7,2.2,22.1-7.9c7.7-12.1,7.7-24-1.7-31.5c-9.4-7.5-23.1-6-30.6,3.4
					C29.9,51.2,38.2,70.4,47.6,77.9z"/>
			</g>
		</g>
	</g>
	<g>
		<g>
			<path class="st5" d="M13.2,59.3l-1.9-18c-0.7-6.2-0.6-11.2,6.8-15.1l0.2,0.3c-7.2,3.8-7.3,8.5-6.6,14.8l1.9,18L13.2,59.3z"/>
		</g>
	</g>
	<g>
		<g>
			<polygon class="st6" points="30.7,26 80.6,24.9 73.3,45.4 35.2,45.3 			"/>
		</g>
	</g>
	<g>
		<g>
			<g>
				<polygon class="st4" points="54.5,35.4 90.2,26 53.2,13.4 17.4,26.4 				"/>
			</g>
		</g>
	</g>
	<g>
		<g>
			<polygon class="st5" points="16.7,64.2 13.1,57.7 10.6,64.7 			"/>
		</g>
	</g>
	<g>
		<g>
			<g>
				<path class="st7" d="M35.2,45.3c0,0-7,4.5-0.5,10c6.5,5.5,27.7-9.8,27.7-9.8L35.2,45.3z"/>
			</g>
		</g>
	</g>
	<g>
		<g>
			<g>
				<path class="st7" d="M73.3,45.4c0,0,3,3.5,3.2,6.1c0.2,2.5-4,4.9-6.7,1.1c-2.7-3.8-4.3-7.2-4.3-7.2L73.3,45.4z"/>
			</g>
		</g>
	</g>
</g>
</svg>
