<?xml version="1.0" encoding="utf-8"?>
<!-- Generator: Adobe Illustrator 23.0.4, SVG Export Plug-In . SVG Version: 6.00 Build 0)  -->
<svg version="1.1" id="Слой_1" xmlns="http://www.w3.org/2000/svg" xmlns:xlink="http://www.w3.org/1999/xlink" x="0px" y="0px"
	 viewBox="0 0 110 115" style="enable-background:new 0 0 110 115;" xml:space="preserve">
<style type="text/css">
	.st0{fill:#FEB7B5;}
	.st1{fill:#FF645F;}
	.st2{fill:#A2CCDA;}
	.st3{fill:#FFFFFF;}
	.st4{fill:#2A2873;}
	.st5{fill:#2B79E6;}
	.st6{fill:#823024;}
	.st7{clip-path:url(#SVGID_2_);}
	.st8{fill:#B3E3EF;}
	.st9{fill:#9B9B9B;}
	.st10{fill:#0C5C9B;}
	.st11{fill:#F7958D;}
	.st12{fill:#FCA89E;}
	.st13{fill:#F59762;}
	.st14{fill:#8FD5E5;}
	.st15{clip-path:url(#SVGID_4_);}
	.st16{fill:#73B3FF;}
</style>
<g>
	<g>
		<g>
			<g>
				<path class="st0" d="M69.2,37.8c-1.2,7.9-5.6,8.9-7.6,12.3c-2.1,3.6-1.8,5-3.8,4.7c-2.9-0.4-2.4-2.7-4.4-5.9
					c-2.3-3.6-6.7-4.1-7-11.1c-0.3-6.3,5.1-11.4,11.4-11.4C64.1,26.3,70.1,31.5,69.2,37.8z"/>
			</g>
		</g>
	</g>
	<g>
		<g>
			<path class="st1" d="M60.5,51.7h-0.3V40.4h-4.7v9.9h-0.3v-9.9h-2.1c-0.3,0-0.6-0.2-0.8-0.5c-0.1-0.3-0.1-0.7,0.1-0.9l2.1-2.5
				c0.2-0.2,0.4-0.2,0.6-0.2c0.2,0.1,0.4,0.3,0.4,0.5v3.3h4.7v-3.5c0-0.2,0.1-0.3,0.3-0.4c0.2-0.1,0.3,0,0.4,0.1l2.4,2.8
				c0.2,0.2,0.2,0.5,0.1,0.8c-0.1,0.3-0.4,0.4-0.7,0.4h-2.2V51.7z M60.5,40.1h2.2c0.2,0,0.4-0.1,0.4-0.3c0.1-0.2,0.1-0.4-0.1-0.5
				l-2.4-2.8c0,0-0.1,0-0.1,0c0,0-0.1,0-0.1,0.1V40.1z M55,36.6c-0.1,0-0.1,0-0.2,0.1l-2.1,2.5c-0.1,0.2-0.2,0.4-0.1,0.6
				c0.1,0.2,0.3,0.3,0.5,0.3h2.1v-3.3C55.2,36.7,55.1,36.6,55,36.6C55,36.6,55,36.6,55,36.6z"/>
		</g>
	</g>
	<g>
		<g>
			<path class="st2" d="M33.7,93.1c-2-0.3-3.6-4.1-2.2-6.3c1.4-2.3,2.2-2.9,1-5.2c-1.2-2.3-4.6-4-3.6-6.9c1.1-2.8,4.5-3,3.7-5.6
				c-0.8-2.6-4.2-3.7-2.5-7.7c1.5-3.7,4.8-1.8,4.8-6.1c0-3.6-5.2-7.3-0.6-9.9c3.7-2.2,6.2,3.6,6.2,6.8c-0.1,5.6-4.4,7.1-2.7,10.6
				c0.8,1.7,4.1,2.8,3.3,7.2c-0.7,4.4-4.9,3.9-4.9,6.7c0,2.7,5.1,4.2,4.6,9.3C40.5,90.6,39.8,94,33.7,93.1z"/>
		</g>
	</g>
	<g>
		<g>
			<path class="st3" d="M35.1,93.8h-0.3c0-0.7,0.6-2.1,1.2-3.5c0.5-1,0.9-2.1,1.2-2.9c0.8-3-1.2-5.6-2.7-7.5
				c-0.7-0.9-1.3-1.7-1.5-2.3c-0.6-2.1,0.7-3.3,2-4.5c0.9-0.8,1.8-1.6,2.1-2.8c0.4-1.7-0.3-2.6-1.2-3.6c-0.8-1-1.7-2.1-1.9-4
				c-0.1-1.2,0.6-2.2,1.4-3.3c0.9-1.2,2-2.7,2.3-4.9c0.5-3.3-1.4-5.8-1.4-5.8l0.2-0.2c0,0,1.9,2.5,1.5,6c-0.3,2.3-1.4,3.7-2.3,5
				c-0.8,1.1-1.5,2-1.4,3.1c0.2,1.9,1,2.9,1.8,3.9c0.9,1,1.7,2,1.3,3.9c-0.3,1.3-1.3,2.1-2.2,3c-1.3,1.1-2.4,2.2-1.9,4.2
				c0.2,0.6,0.8,1.3,1.5,2.2c1.5,1.9,3.7,4.5,2.8,7.7c-0.2,0.8-0.7,1.9-1.2,2.9C35.7,91.7,35.1,93.1,35.1,93.8z"/>
		</g>
	</g>
	<g>
		<g>
			<path class="st3" d="M36.8,48.7c0,0.3-0.2,0.5-0.5,0.5c-0.3,0-0.5-0.2-0.5-0.5c0-0.3,0.2-0.5,0.5-0.5
				C36.6,48.2,36.8,48.4,36.8,48.7z"/>
		</g>
	</g>
	<g>
		<g>
			<path class="st2" d="M32.8,95.1c-1.4,0.7-4.1-1-4.1-3.1c-0.1-2,0.1-2.8-1.6-3.8c-1.7-0.9-4.7-0.6-5.2-2.9
				c-0.5-2.3,1.6-3.8-0.1-5.1c-1.7-1.3-4.2-0.5-4.9-3.9c-0.6-3,2.3-3.2,0.5-5.9c-1.6-2.3-6.4-2.4-4.7-6c1.4-3,5.5-0.4,6.9,1.7
				c2.3,3.6,0.2,6.4,2.8,7.9c1.3,0.8,3.8,0.1,5.2,3.2c1.4,3.1-1.4,4.6-0.3,6.3c1.2,1.7,5,0.5,7,4C36,90.6,37,93,32.8,95.1z"/>
		</g>
	</g>
	<g>
		<g>
			<path class="st3" d="M33.7,95c-0.3-0.5-0.5-1.6-0.7-2.8c-0.1-0.9-0.3-1.7-0.5-2.3c-0.8-2.3-3.1-3-4.9-3.6c-0.8-0.3-1.6-0.5-2-0.8
				c-1.3-1.1-1-2.4-0.7-3.7c0.2-0.9,0.5-1.8,0.1-2.7c-0.5-1.2-1.3-1.5-2.3-1.8c-0.9-0.3-2-0.6-3-1.8c-0.6-0.7-0.6-1.7-0.5-2.7
				c0-1.2,0.1-2.5-0.6-4.1c-1.1-2.3-3.3-3.1-3.4-3.1l0.1-0.3c0.1,0,2.3,0.8,3.5,3.2c0.8,1.6,0.7,3,0.7,4.2c0,1.1-0.1,1.9,0.4,2.5
				c0.9,1.1,1.9,1.4,2.8,1.7c1,0.3,2,0.6,2.5,1.9c0.4,0.9,0.1,1.9-0.1,2.9c-0.3,1.3-0.6,2.4,0.6,3.4c0.4,0.3,1.1,0.5,1.9,0.8
				c1.8,0.6,4.3,1.3,5.1,3.7c0.2,0.6,0.4,1.5,0.5,2.4c0.2,1.1,0.4,2.2,0.7,2.6L33.7,95z"/>
		</g>
	</g>
	<g>
		<g>
			<path class="st3" d="M15.7,65.4c0.1,0.2,0.1,0.4-0.1,0.6c-0.2,0.1-0.4,0.1-0.6-0.1c-0.1-0.2-0.1-0.4,0.1-0.6
				C15.3,65.2,15.6,65.2,15.7,65.4z"/>
		</g>
	</g>
	<g>
		<g>
			<path class="st2" d="M32.7,97.5c-0.7,1.2-3.4,1.3-4.5-0.1c-1.1-1.4-1.3-2.1-3-1.9c-1.7,0.2-3.7,1.9-5.2,0.6
				c-1.5-1.4-0.8-3.6-2.6-3.7c-1.8-0.1-3.3,1.7-5.5-0.3c-2-1.8,0-3.5-2.6-4.5c-2.3-0.9-5.8,1.5-6.4-2c-0.5-2.9,3.8-3,5.8-2.2
				c3.5,1.4,3.4,4.5,6,4.3c1.3-0.1,2.8-1.9,5.4-0.3c2.6,1.5,1.3,4,3,4.7c1.7,0.7,3.9-2.2,7-0.6C32.8,92.6,34.8,93.9,32.7,97.5z"/>
		</g>
	</g>
	<g>
		<g>
			<path class="st3" d="M33.4,97c-0.5-0.2-1.2-0.9-1.9-1.6c-0.5-0.5-1.1-1.1-1.5-1.4c-1.7-1.2-3.7-0.6-5.3-0.1
				c-0.7,0.2-1.4,0.4-1.8,0.4c-1.5-0.1-1.9-1.3-2.4-2.4c-0.3-0.8-0.6-1.5-1.2-2c-0.9-0.7-1.6-0.4-2.5-0.1c-0.8,0.3-1.7,0.6-3,0.2
				c-0.8-0.2-1.2-0.9-1.7-1.7c-0.6-0.9-1.2-1.9-2.5-2.6c-2-1.1-3.9-0.5-3.9-0.5l-0.1-0.3c0.1,0,2.1-0.6,4.2,0.5
				c1.4,0.8,2,1.8,2.6,2.7c0.5,0.8,0.9,1.4,1.6,1.6c1.2,0.4,2,0.1,2.9-0.2c0.9-0.3,1.7-0.6,2.8,0.1c0.7,0.5,1,1.3,1.3,2.1
				c0.4,1.1,0.8,2,2.1,2.2c0.4,0,1-0.2,1.7-0.4c1.6-0.5,3.8-1.2,5.6,0.1c0.5,0.3,1,0.9,1.6,1.4c0.7,0.7,1.4,1.4,1.8,1.6L33.4,97z"/>
		</g>
	</g>
	<g>
		<g>
			<path class="st3" d="M5.6,84.7c0.2,0.1,0.3,0.3,0.2,0.5c-0.1,0.2-0.3,0.3-0.5,0.2c-0.2-0.1-0.3-0.3-0.2-0.5S5.4,84.6,5.6,84.7z"
				/>
		</g>
	</g>
	<g>
		<g>
			<path class="st4" d="M38.5,110.3h-6L30.7,96c0,0,0.2-3.7,5.2-3.5c3.9,0.2,4.3,3.5,4.3,3.5L38.5,110.3z"/>
		</g>
	</g>
	<g>
		<g>
			<g>
				<g>
					<path class="st2" d="M73.3,104.5c-1.4-3.9-2.5-10.1-0.6-14.1c2.1-4.4,6-4,6.6-7.3c1-5.6-1.3-7.3-2.4-11.6
						c-0.8-3.2,0.2-8.4,4.9-8.7c6.3-0.4,5,5.8,9.8,5.6c3.3-0.1,9.9-7.1,13.6-0.6c4.6,8.1-9.3,9.1-10,10.8c-1.7,4.4,5.5-0.5,4.7,5.1
						c-0.4,3.1-8.4,2.3-8.3,6.7c0.1,3.6,0,6.8-5.1,11.4c-5.1,4.6-7.3,4.3-7.3,4.3L73.3,104.5z"/>
				</g>
			</g>
		</g>
		<g>
			<g>
				<path class="st3" d="M76,107.2l-0.3-0.1c0.2-0.4,0.8-1.4,1.7-2.7c2.5-3.7,7.2-10.7,7-14.8c-0.3-5.5,1.9-13,6.7-16.2
					c4.7-3.1,9.6-4.2,9.7-4.2l0.1,0.3c0,0-5,1-9.6,4.1c-4.7,3.1-6.9,10.6-6.6,16c0.2,4.2-4.3,10.9-7,15
					C76.9,105.8,76.2,106.8,76,107.2z"/>
			</g>
		</g>
		<g>
			<g>
				<path class="st3" d="M75.6,105.2c0,0-0.3-2.5,0.3-8c0.4-4.1,1.6-5.9,3.2-8.4c0.5-0.8,1.2-1.8,1.8-2.9c4.7-8.2,2.2-15.5,1.2-18.7
					l-0.1-0.2l0.3-0.1l0.1,0.2c1.1,3.2,3.6,10.6-1.2,18.9c-0.6,1.1-1.3,2.1-1.8,2.9c-1.6,2.4-2.8,4.2-3.2,8.3
					c-0.5,5.4-0.3,7.9-0.3,7.9L75.6,105.2z"/>
			</g>
		</g>
		<g>
			<g>
				<path class="st3" d="M77.7,107.3l-0.3-0.1c1.6-3.2,3-4.9,5.6-7.1c0.2-0.2,0.4-0.3,0.6-0.5c2.6-2.1,5.5-4.5,4.7-8.8
					c-0.7-3.8,0-6.8,2.1-8.9l0.2,0.2c-2,2-2.7,4.9-2,8.7c0.8,4.4-2.3,7-4.8,9c-0.2,0.2-0.4,0.3-0.6,0.5
					C80.7,102.5,79.3,104.2,77.7,107.3z"/>
			</g>
		</g>
		<g>
			<g>
				<path class="st3" d="M82.7,67.3c-0.1,0.3-0.5,0.5-0.8,0.3c-0.3-0.1-0.5-0.5-0.3-0.8c0.1-0.3,0.5-0.5,0.8-0.3
					C82.7,66.7,82.8,67,82.7,67.3z"/>
			</g>
		</g>
		<g>
			<g>
				<path class="st3" d="M101.4,69.6c-0.1,0.3-0.5,0.5-0.8,0.3c-0.3-0.1-0.5-0.5-0.3-0.8c0.1-0.3,0.5-0.5,0.8-0.3
					C101.4,68.9,101.5,69.3,101.4,69.6z"/>
			</g>
		</g>
		<g>
			<g>
				<path class="st3" d="M91.2,82.2c-0.1,0.3-0.5,0.5-0.8,0.3c-0.3-0.1-0.5-0.5-0.3-0.8c0.1-0.3,0.5-0.5,0.8-0.3
					C91.2,81.5,91.3,81.9,91.2,82.2z"/>
			</g>
		</g>
	</g>
	<g>
		<g>
			<path class="st5" d="M73.5,107c0-2.8,2.3-5,5-5c2.8,0,5,2.3,5,5s-2.3,5-5,5C75.7,112.1,73.5,109.8,73.5,107z"/>
		</g>
	</g>
	<g>
		<g>
			<g>
				<path class="st6" d="M44.4,101.5H74V90.2H44.4c-1.5,0-2.7,1.7-2.7,3.9v3.6C41.7,99.8,42.9,101.5,44.4,101.5z"/>
			</g>
		</g>
		<g>
			<defs>
				<path id="SVGID_1_" d="M44.8,100.2h29.1v-8.7H44.8C43.7,91.5,43.7,100.2,44.8,100.2z"/>
			</defs>
			<use xlink:href="#SVGID_1_"  style="overflow:visible;fill:#FFFFFF;"/>
			<clipPath id="SVGID_2_">
				<use xlink:href="#SVGID_1_"  style="overflow:visible;"/>
			</clipPath>
			<g class="st7">
				<g>
					<g>
						<rect x="43.1" y="98.7" class="st8" width="31.4" height="0.5"/>
					</g>
				</g>
				<g>
					<g>
						<rect x="43.1" y="97.2" class="st8" width="31.4" height="0.5"/>
					</g>
				</g>
				<g>
					<g>
						<rect x="43.1" y="95.7" class="st8" width="31.4" height="0.5"/>
					</g>
				</g>
				<g>
					<g>
						<rect x="43.1" y="94.2" class="st8" width="31.4" height="0.5"/>
					</g>
				</g>
				<g>
					<g>
						<rect x="43.1" y="92.6" class="st8" width="31.4" height="0.5"/>
					</g>
				</g>
			</g>
		</g>
	</g>
	<g>
		<g>
			<path class="st9" d="M53.1,90.5c0,0-1.9,2.7-0.6,4.3s12,0.3,12.4-1.4c0.4-1.8-0.7-3.9-0.7-3.9L53.1,90.5z"/>
		</g>
	</g>
	<g>
		<g>
			<rect x="52.5" y="89" class="st10" width="18.7" height="1.4"/>
		</g>
	</g>
	<g>
		<g>
			<g>
				<path class="st1" d="M51,67.2c-2,0.3-6.9,11.7-5.5,14.4c1.5,2.6,9.5,5.7,9.5,5.7l-0.4-4.5c0,0-5.5-2.3-5-3.8
					c0.4-1.5,3.6-6.9,3.6-6.9L51,67.2z"/>
			</g>
		</g>
		<g>
			<g>
				<path class="st1" d="M64.6,67.2c2,0.3,6.9,11.7,5.5,14.4c-1.5,2.6-9.5,5.7-9.5,5.7l0.4-4.5c0,0,5.5-2.3,5-3.8
					c-0.4-1.5-3.6-6.9-3.6-6.9L64.6,67.2z"/>
			</g>
		</g>
		<g>
			<g>
				<path class="st1" d="M52.2,66.9h11.2c1.7,0,3,1.3,3,3c0,0-2.1,8.7-2.2,11.6c0,1.6,0.5,6.4,0.5,6.4H50.9c0,0,0.6-5,0.6-6.7
					c0-2.9-2.3-11.3-2.3-11.3C49.2,68.3,50.6,66.9,52.2,66.9z"/>
			</g>
		</g>
		<g>
			<g>
				<path class="st11" d="M59.3,69.1c0,0-0.1,1.2-1.4,1.1c-1.4-0.1-1.5-1.1-1.5-1.1v-5.4h2.9V69.1z"/>
			</g>
		</g>
		<g>
			<g>
				<path class="st12" d="M61.4,63.4c0,2-1.6,4.9-3.5,4.9c-2,0-3.5-2.9-3.5-4.9c0-2,1.6-3.5,3.5-3.5C59.8,59.9,61.4,61.5,61.4,63.4z
					"/>
			</g>
		</g>
		<g>
			<g>
				<rect x="48.5" y="77.9" class="st4" width="18.7" height="11.2"/>
			</g>
		</g>
		<g>
			<g>
				<path class="st10" d="M59.6,83.3c0,1-0.8,1.7-1.7,1.7c-1,0-1.7-0.8-1.7-1.7c0-1,0.8-1.7,1.7-1.7C58.8,81.6,59.6,82.3,59.6,83.3z
					"/>
			</g>
		</g>
		<g>
			<g>
				<path class="st5" d="M56.6,95c0,0-0.3,0.3-1.3,0.7c-1,0.4-3,1.2-2.7,2.1c0.4,1.2,1.8,1.1,2.7,0.8c2-0.6,4.1-2,4.1-2L56.6,95z"/>
			</g>
		</g>
		<g>
			<g>
				<path class="st8" d="M59,92c3.4-2.5,5.2-4.3,9-6.6c0.9-0.6,1.5-0.7,3.1-0.1c1.3,0.5,1.2,2.8,0.5,3.8c-2.2,2.9-10.7,6.9-12.4,7.5
					c-0.7,0.3-3.3-1.9-2.3-3C57.4,93,58.1,92.7,59,92z"/>
			</g>
		</g>
		<g>
			<g>
				<path class="st5" d="M57.4,96.8c0,0,0.8,1.1,1.8,1.8c1.2,0.9,1.9,1.2,2.9,0.8c1.4-0.6,0.1-2-0.9-3c-1.6-1.6-2.7-2.2-2.7-2.2
					L57.4,96.8z"/>
			</g>
		</g>
		<g>
			<g>
				<path class="st4" d="M54.4,64.1c0,0,1.2-1.6,1.6-2.8c0.4-1.2,0.6,0.1,2.3,1.3c0.9,0.7,3.1,1.5,3.1,1.5s0.5-2.2-0.3-3.3
					c-1.9-2.7-5.6-2.5-6.8,0.6C53.7,63,54.4,64.1,54.4,64.1z"/>
			</g>
		</g>
		<g>
			<g>
				<path class="st13" d="M57.6,93.5l1.5,1.2c0,0,0.5,0.4,0.8,0.9c0.5,0.9-1.2,2.7-2.2,1.6c-1.1-1.1-2-2.2-2-2.2L57.6,93.5z"/>
			</g>
		</g>
		<g>
			<g>
				<path class="st14" d="M53.3,95.4c-4-2-6.4-2.7-8.9-6.3c-0.6-0.9-0.9-2.4-0.7-3.2c0.3-0.9,1.6-1.5,3.2-1.1
					c1.3,0.3,10.2,7.3,11.6,8.6c0.6,0.6-1.2,3.4-2.7,2.9C55.1,96.1,54.3,96,53.3,95.4z"/>
			</g>
		</g>
	</g>
	<g>
		<g>
			<g>
				<path class="st1" d="M75.7,101.6H37.3v11.6h38.3c1.5,0,2.7-1.8,2.7-4v-3.6C78.4,103.4,77.2,101.6,75.7,101.6z"/>
			</g>
		</g>
		<g>
			<defs>
				<path id="SVGID_3_" d="M75.2,103H37.3v8.9h37.9C76.4,111.9,76.4,103,75.2,103z"/>
			</defs>
			<use xlink:href="#SVGID_3_"  style="overflow:visible;fill:#FFFFFF;"/>
			<clipPath id="SVGID_4_">
				<use xlink:href="#SVGID_3_"  style="overflow:visible;"/>
			</clipPath>
			<g class="st15">
				<g>
					<g>
						<rect x="36.8" y="104" class="st8" width="40.2" height="0.5"/>
					</g>
				</g>
				<g>
					<g>
						<rect x="36.8" y="105.6" class="st8" width="40.2" height="0.5"/>
					</g>
				</g>
				<g>
					<g>
						<rect x="36.8" y="107.2" class="st8" width="40.2" height="0.5"/>
					</g>
				</g>
				<g>
					<g>
						<rect x="36.8" y="108.7" class="st8" width="40.2" height="0.5"/>
					</g>
				</g>
				<g>
					<g>
						<rect x="36.8" y="110.3" class="st8" width="40.2" height="0.5"/>
					</g>
				</g>
			</g>
		</g>
	</g>
	<g>
		<g>
			<path class="st5" d="M60.5,54.6c0,1.4-1.2,2.6-2.6,2.6c-1.4,0-2.6-1.2-2.6-2.6c0-1.4,1.2-2.6,2.6-2.6
				C59.3,52,60.5,53.1,60.5,54.6z"/>
		</g>
	</g>
	<g>
		<g>
			<path class="st16" d="M60.3,53.6h-4.9c-0.6,0-1-0.5-1-1v-1.1c0-0.6,0.5-1,1-1h4.9c0.6,0,1,0.5,1,1v1.1
				C61.4,53.1,60.9,53.6,60.3,53.6z"/>
		</g>
	</g>
	<g>
		<g>
			<path class="st8" d="M59.1,16.3c0,0.7-1.3,3-1.3,3s-1.3-2.3-1.3-3s0.6-1.3,1.3-1.3C58.6,15,59.1,15.6,59.1,16.3z"/>
		</g>
	</g>
	<g>
		<g>
			<path class="st8" d="M46.1,19.1c0.4,0.6,0.4,3.2,0.4,3.2s-2.3-1.3-2.6-2c-0.4-0.6-0.1-1.4,0.5-1.8C45,18.3,45.8,18.5,46.1,19.1z"
				/>
		</g>
	</g>
	<g>
		<g>
			<path class="st8" d="M36.3,28.1c0.6,0.4,2,2.6,2,2.6s-2.6,0-3.2-0.4c-0.6-0.4-0.8-1.1-0.5-1.8C34.9,27.9,35.7,27.7,36.3,28.1z"/>
		</g>
	</g>
	<g>
		<g>
			<path class="st8" d="M32.3,40.8c0.7,0,3,1.3,3,1.3s-2.3,1.3-3,1.3c-0.7,0-1.3-0.6-1.3-1.3S31.6,40.8,32.3,40.8z"/>
		</g>
	</g>
	<g>
		<g>
			<path class="st8" d="M44.1,63.6c0.4-0.6,2.6-2,2.6-2s0,2.6-0.4,3.2c-0.4,0.6-1.1,0.8-1.8,0.5C43.9,65,43.7,64.2,44.1,63.6z"/>
		</g>
	</g>
	<g>
		<g>
			<path class="st8" d="M69.8,64.8c-0.4-0.6-0.4-3.2-0.4-3.2s2.3,1.3,2.6,2c0.4,0.6,0.1,1.4-0.5,1.8C70.9,65.6,70.1,65.4,69.8,64.8z
				"/>
		</g>
	</g>
	<g>
		<g>
			<path class="st8" d="M79.6,55.8c-0.6-0.4-2-2.6-2-2.6s2.6,0,3.2,0.4c0.6,0.4,0.8,1.1,0.5,1.8C81,56,80.2,56.2,79.6,55.8z"/>
		</g>
	</g>
	<g>
		<g>
			<path class="st8" d="M83.6,43.2c-0.7,0-3-1.3-3-1.3s2.3-1.3,3-1.3c0.7,0,1.3,0.6,1.3,1.3C84.9,42.6,84.3,43.2,83.6,43.2z"/>
		</g>
	</g>
	<g>
		<g>
			<path class="st8" d="M80.8,30.2c-0.6,0.4-3.2,0.4-3.2,0.4s1.3-2.3,2-2.6c0.6-0.4,1.4-0.1,1.8,0.5C81.6,29,81.4,29.8,80.8,30.2z"
				/>
		</g>
	</g>
	<g>
		<g>
			<path class="st8" d="M71.8,20.3c-0.4,0.6-2.6,2-2.6,2s0-2.6,0.4-3.2c0.4-0.6,1.1-0.8,1.8-0.5C72,18.9,72.2,19.7,71.8,20.3z"/>
		</g>
	</g>
</g>
</svg>
