<?xml version="1.0" encoding="utf-8"?>
<!-- Generator: Adobe Illustrator 23.0.4, SVG Export Plug-In . SVG Version: 6.00 Build 0)  -->
<svg version="1.1" id="Layer_1" xmlns="http://www.w3.org/2000/svg" xmlns:xlink="http://www.w3.org/1999/xlink" x="0px" y="0px"
	 viewBox="0 0 311.3 355" style="enable-background:new 0 0 311.3 355;" xml:space="preserve">
<style type="text/css">
	.st0{opacity:0.55;fill-rule:evenodd;clip-rule:evenodd;fill:#D2D6D1;}
	.st1{fill:#F7B690;}
	.st2{fill-rule:evenodd;clip-rule:evenodd;fill:#E5005B;}
	.st3{fill-rule:evenodd;clip-rule:evenodd;fill:#405D64;}
	.st4{fill-rule:evenodd;clip-rule:evenodd;fill:#5F7884;}
	.st5{fill-rule:evenodd;clip-rule:evenodd;fill:#0A3C5F;}
	.st6{fill:#F4A086;}
	.st7{fill:#D4EDF9;}
	.st8{fill:#3C79A6;}
	.st9{fill-rule:evenodd;clip-rule:evenodd;fill:#561C07;}
	.st10{fill-rule:evenodd;clip-rule:evenodd;fill:#732706;}
	.st11{fill-rule:evenodd;clip-rule:evenodd;fill:#00A0DB;}
	.st12{fill-rule:evenodd;clip-rule:evenodd;fill:#18898D;}
	.st13{fill-rule:evenodd;clip-rule:evenodd;fill:#222B56;}
</style>
<g>
	<g>
		<ellipse class="st0" cx="231" cy="339.5" rx="78.3" ry="15"/>
		<ellipse class="st0" cx="96.7" cy="333.3" rx="96.7" ry="18.6"/>
		<g>
			<g>
				<path class="st1" d="M157.4,268.5c-0.3,3.1-0.5,6.3,0.9,9.1c1.4,2.7,5,4.6,7.7,3.1c1.5-0.8,2.4-2.5,3.2-4
					c4.4-8.7,8.9-17.4,13.3-26.1c3.7-7.2,7.4-14.8,6.9-22.8c-0.2-3.7-1.4-7.4-3.6-10.4c-2-2.6-6.2-6.7-9.1-3.7
					c-2.9,3-4.9,8.3-6.8,12c-4.3,8.6-7.5,17.7-9.8,27.1C158.9,257.9,158,263.2,157.4,268.5z"/>
				<path class="st2" d="M189.4,229.4c-0.2-4.1-1.5-8.2-4-11.5c-2.2-2.9-3.5-10.1-6.7-6.8c-3.2,3.4-8.9,11.9-11,16
					c-2.7,5.5-5,11.1-7,16.9l21.3,10.3C185.9,246.5,189.9,238.2,189.4,229.4z"/>
				<path class="st1" d="M158.1,267.9c2.2-2.6,5.9-3.5,9.3-3.2c3.4,0.4,6.5,1.9,9.6,3.3c5.6,2.7,11.3,5.4,16.9,8
					c5.8,2.8,11.6,5.5,17.4,8.3c0.9,0.4,1.9,1,2.2,1.9c0.3,1-0.4,2.1-1.3,2.7c-0.9,0.5-2,0.6-3.1,0.7c-8.7,0.5-17.5-0.4-26-2.4
					c-4.3-1-8.5-2.4-12.6-4c-3.5-1.4-8.5-2.9-11.4-5.5C156.4,275.3,155.7,270.8,158.1,267.9z"/>
			</g>
			<g>
				<path class="st3" d="M194.6,287.5c6.5-0.9,37.2-0.9,43.7,0c8.1,1.2,6.8,11.2,5.8,17.2c-1.1,6.5-2.5,13.6-7.3,18.1
					c-4.7,4.5-36.1,4.5-40.8,0c-4.8-4.6-6.2-11.6-7.3-18.1C187.7,298.6,186.5,288.6,194.6,287.5z"/>
				<path class="st3" d="M307.3,314.9c3.4,3.7,5.6,9.8,2.7,13.7c-2.5,3.3-71.9-3.2-82.1-3.2c-7.3-9.3-7-23.4,11.7-32.9
					c4-2,8.4,0.1,12.7,1C264.8,296.2,298.9,305.7,307.3,314.9z"/>
				<path class="st3" d="M157.3,248.7c-5-0.4-10.5,1.5-13,5.9c-2,3.6-1.6,8.1,0.1,11.9c1.7,3.8,4.5,6.9,7.2,10
					c39.7,44.3,40.3,46.3,46.9,48.1c11.3,3,24.9,0,14.9-26C211.9,294.4,169.8,249.8,157.3,248.7z"/>
				<path class="st1" d="M192.6,339.3c-2.6-1.5-7.9-8.3-14-17.3l11.5-4.1C193.9,331.3,195.4,341,192.6,339.3z"/>
				<path class="st4" d="M147.3,249.5c7-3.4,14-2.5,19.6,6.6c7.6,12.3,17.7,42.2,23.3,61.9l-13.2,6c-8.4-19.1-24.9-43.9-31.3-55.2
					C142,262.5,141.7,252.1,147.3,249.5z"/>
				<g>
					<path class="st1" d="M227.6,326.8l5.7,10.7c-8.6,0.6-15.4,0.7-18.3-0.5C212.1,335.8,217.9,331.5,227.6,326.8z"/>
					<path class="st4" d="M295.3,314.7c10.7,0,16,5.5,16,9.4c0,6.6-4.1,13.6-14.2,13.6c-12.9,0-45.2-0.4-65,0.9l-4.5-11.8
						C242.2,319.8,279.7,314.7,295.3,314.7z"/>
					<path class="st5" d="M210.7,335.5c0.4-0.2,3.3-4.6,5.3-5.4c1.1-0.4,2.6-1.2,3.8-0.6c1.4,0.7,1.4,2.5,2.2,3.7
						c0.6,0.9,1.4,1.6,2.4,2l1.9-2.5c6.6,3.1,1.4,10.8,8,13.9c1.6,0.8,3.4,1.3,4.7,2.4c1.4,1.1,2.2,3.2,1.3,4.7
						c-0.3,0.6-0.9,1-1.5,1.2l-21.4-10.4c0,0-0.1-4.3,0.5-4.8c-0.7,0.3-2.4,1.1-3.2,1.1L210.7,335.5z"/>
				</g>
				<path class="st5" d="M178.1,339.9c-0.1-1.8,0.7-3.2,1.4-3.7c0.8-0.4,1.9-3.4,3.5-7.7c0.7-2,4.7-2.5,6.7,0.9
					c0.7,1.1,1.3,1.8,2,1.8c0.6,0,1.3-1.1,1.9-0.4c0.5,0.6,0.7,2.3,0.8,3.4c0.2,2,0.4,4,0.6,6c0,0.4,0.1,0.9,0.1,1.4h-16.7
					C178.3,341.2,178.2,340.6,178.1,339.9z"/>
			</g>
			<g>
				<path class="st1" d="M275.4,268.5c0.3,3.1,0.5,6.3-0.9,9.1c-1.4,2.7-5,4.6-7.7,3.1c-1.5-0.8-2.4-2.5-3.2-4
					c-4.4-8.7-8.9-17.4-13.3-26.1c-3.7-7.2-7.4-14.8-6.9-22.8c0.2-3.7,1.4-7.4,3.6-10.4c2-2.6,6.2-6.7,9.1-3.7c2.9,3,4.9,8.3,6.8,12
					c4.3,8.6,7.5,17.7,9.8,27.1C273.9,257.9,274.8,263.2,275.4,268.5z"/>
				<path class="st2" d="M243.4,229.4c0.2-4.1,1.5-8.2,4-11.5c2.2-2.9,3.5-10.1,6.7-6.8c3.2,3.4,8.9,11.9,11,16
					c2.7,5.5,5,11.1,7,16.9l-21.3,10.3C246.9,246.5,242.9,238.2,243.4,229.4z"/>
				<path class="st1" d="M274.2,269.4c-2.2-2.6-5.9-3.5-9.3-3.2c-3.4,0.4-6.5,1.9-9.6,3.3c-5.6,2.7-11.3,5.4-16.9,8
					c-5.8,2.8-11.6,5.5-17.4,8.3c-0.9,0.4-1.9,1-2.2,1.9c-0.3,1,0.4,2.1,1.3,2.7c0.9,0.5,2,0.6,3.1,0.7c8.7,0.5,17.5-0.4,26-2.4
					c4.3-1,8.5-2.4,12.6-4c3.5-1.4,8.5-2.9,11.4-5.5C275.9,276.8,276.6,272.3,274.2,269.4z"/>
			</g>
			<path class="st2" d="M177.8,212.1c2.1-2.5,5.2-3.9,8.2-5c9-3.3,29.6-11.9,30.4-11.9c0.8,0,21.4,8.6,30.4,11.9
				c3.1,1.1,6.2,2.5,8.2,5c2.8,3.3,3.1,8.2,2.1,12.4c-1,4.2-3.2,8.1-5.1,12c-2.4,4.9-4.3,9.9-5.9,15.1c-2.8,9.4-4.2,19.2-4.1,29
				c0,3,1.6,8.1,0.7,10.9c-1.2,3.6-7.3,4.4-10.4,4.8c-5.3,0.7-10.7,0.9-16,0.7c-5.3,0.2-10.7,0-16-0.7c-3.1-0.4-9.2-1.2-10.4-4.8
				c-0.9-2.8,0.7-7.9,0.7-10.9c0-9.8-1.4-19.6-4.1-29c-1.5-5.2-3.5-10.3-5.9-15.1c-1.9-3.9-4.1-7.7-5.1-12
				C174.7,220.3,175,215.4,177.8,212.1z"/>
			<g>
				<path class="st6" d="M209.6,194.2c0.8-2.7,1.3-7.7,3-9.5c1-1.1,6.2-1.1,7.2,0c1.7,1.8,2.1,6.8,3,9.5c0.9,3,1.8,6.6,0.8,9.6
					c-0.7,2.1-2.1,3.3-3.6,3.8c-1.2,0.4-6.2,0.4-7.5,0c-1.5-0.4-2.9-1.7-3.6-3.8C207.9,200.8,208.7,197.2,209.6,194.2z"/>
				<path class="st1" d="M205.1,171.5c1.7-4.9,20.4-4.9,22.1,0c1.3,3.9,1.5,8.3,0.8,12.4c-0.7,3.9-2.3,7.4-4.5,10.3
					c-1.5,2-3.4,4.9-5.6,5.9h-3.4c-2.2-1-4.1-3.9-5.6-5.9c-2.2-2.9-3.8-6.4-4.5-10.3C203.6,179.8,203.8,175.4,205.1,171.5z"/>
				<path class="st5" d="M205.7,184.4c-0.2-1.2-0.7-2.2-1-3.4c-0.2-1.2-0.6-2.5,0.2-3.3c0.8,3.6,2.3,7.1,3.4,10.5
					c0.3,0.7,0.5,1.5,1.1,2.1c0.7,0.7,1.7,1,2.6,1.1c1,0.2,3.8-1,4.1-1c0.3,0,3.1,1.2,4.1,1c1-0.2,1.9-0.4,2.6-1.1
					c0.6-0.6,0.8-1.3,1.1-2.1c1.2-3.4,2.1-7,2.9-10.5c0.8,0.8,1,2.2,0.7,3.3c-0.2,1.2-0.7,2.2-1,3.4c0,0.1,0,0.2,0,0.3
					c-0.1,0.8-0.1,1.6,0.2,2.3c0.1,0.3,0.3,0.5,0.3,0.9c0,0.3-0.1,0.7-0.2,1.1c-0.3,1.6-0.8,3.1-1.4,4.6c-0.6,1.5-1.3,2.9-2.2,4.3
					c-0.4,0.7-0.9,1.3-1.3,2c-0.2,0.3-1.1,1.8-1.5,1.8l-3.7,1h-1.7l-3.7-1c-0.3,0-1.3-1.5-1.5-1.8c-0.5-0.6-0.9-1.3-1.3-2
					c-0.8-1.4-1.6-2.8-2.2-4.3c-0.6-1.5-1-3-1.4-4.6c-0.1-0.3-0.2-0.7-0.2-1.1c0-0.4,0.2-0.6,0.3-0.9c0.3-0.7,0.3-1.5,0.2-2.3
					C205.7,184.6,205.7,184.5,205.7,184.4z"/>
				<path class="st5" d="M197.8,161.3c2.3-3,6.5-4.2,9.9-2.8c1.4,0.6,2.7,1.6,4.2,2c1.8,0.4,3.5-0.3,5.2-1c1.7-0.7,3.4-1.4,5.2-1.1
					c1.8,0.3,3.5,1.9,3.3,3.8c2.4-0.9,5.3-0.2,7,1.9c1.7,2,2,5.2,0.8,7.6c-0.7,1.4-1.9,2.6-2.5,4.2c-0.6,1.8,0.1,6-2,6.8
					c-1.6,0.6-2.5-12.3-7.1-12.6c-2.4,2.6-6.4,3.2-9.5,1.6c-1.1-0.6-2.3-1.6-3.6-1.2c-0.8,0.3-1.8,0.7-2.3,1.4
					c-1.3,1.8-0.9,9.7-2.6,11.1c-0.9-2.8-1.3-5.8-1.1-8.8c-0.8,0-1.6-0.1-2.3-0.4c-2.1-0.9-3.8,0.1-4.2-2.3
					C195.7,169,196.4,163.2,197.8,161.3z"/>
				<path class="st1" d="M230.1,183.5c0.5-0.8,0.8-1.8,0.7-2.7c-0.1-1-0.9-1.9-1.8-1.8c-0.6,0.1-1,0.5-1.3,1
					c-0.3,0.5-0.4,1.1-0.5,1.7c-0.2,1-0.4,2-0.7,3c-0.2,0.9-0.3,1.9,0.4,2.4C228.1,188.1,229.6,184.4,230.1,183.5z"/>
				<path class="st1" d="M202.4,183.5c-0.5-0.8-0.8-1.8-0.7-2.7c0.1-1,0.9-1.9,1.8-1.8c0.6,0.1,1,0.5,1.3,1c0.3,0.5,0.4,1.1,0.5,1.7
					c0.2,1,0.4,2,0.7,3c0.2,0.9,0.3,1.9-0.4,2.4C204.4,188.1,202.9,184.4,202.4,183.5z"/>
			</g>
			<path class="st7" d="M188.5,292.6h56.9c2.7,0,4.9-2,5.1-4.7l3-35.1c0.3-3-2.1-5.5-5.1-5.5h-62.8c-3,0-5.3,2.6-5.1,5.5l3,35.1
				C183.6,290.5,185.9,292.6,188.5,292.6z"/>
			<path class="st8" d="M253.3,254.2c-0.5-2.2-2.5-3.9-5-3.9h-62.8c-2.4,0-4.4,1.7-5,3.9l-0.1-1.5c-0.3-3,2.1-5.5,5.1-5.5h62.8
				c3,0,5.3,2.6,5.1,5.5L253.3,254.2z"/>
		</g>
		<g>
			<path class="st9" d="M76.5,249.6c-1.3,3.8-3.1,8.1-6.5,9.2c-2.4,0.7-10-4-11.7-5.8c-1.7-1.9-10.6-92.7-8.3-98.2
				c3.1-7.4,37.7,2.8,38.4,15.7c0.9,16.4-1.2,33.9-4.4,50.2C82.2,230.5,79.7,240.2,76.5,249.6z"/>
			<path class="st6" d="M136.6,324c-3.2,1.7-6.9,2.7-10.5,2.8c-1.2-4.1-2.4-8.2-3.5-12.3c-0.1-0.5-0.3-1.1-0.2-1.6
				c0.2-0.8,0.9-1.3,1.6-1.7c2.6-1.5,6.8-3.1,8.1,0.3C133.6,315.7,135.1,319.9,136.6,324z"/>
			<path class="st6" d="M69.9,333.9c-3.6,0.5-7.4,0.2-10.9-0.9c0.2-4.3,0.3-8.5,0.5-12.8c0-0.5,0-1.1,0.3-1.6c0.4-0.7,1.2-0.9,2-1.1
				c2.9-0.5,7.4-0.7,7.6,3C69.7,325.1,69.8,329.5,69.9,333.9z"/>
			<path class="st9" d="M57.3,239.2c3.6-7.5,14.2-12.7,20.9,0.4c10.2,20-7.5,57.3-7.4,81.4H58.5C57.8,318.6,55.3,243.4,57.3,239.2z"
				/>
			<path class="st10" d="M104.5,176.9c-3,2.4-7,2.7-10.7,2.7c-30.8,0-44.3-7.3-44.3-24.1c0-15.2,31.9-12.2,46.3-7.5
				c3.1,1,7.6,2,9.7,4.9C108.5,157.1,111.8,171.1,104.5,176.9z"/>
			<path class="st6" d="M62.4,77.3c-1,14.1-3.8,28.6-11.7,40.4c-1.7,2.5-4.2,5.2-7.2,4.8c-1.8-0.2-3.3-1.4-4.3-2.9
				c-1-1.5-1.4-3.3-1.7-5c-2.6-13.8,1.6-27.9,5.8-41.3c1.7-5.5,4-15.3,9.7-18.3c5.9-3.1,8.8,6.5,9.3,10.4
				C62.8,69.3,62.7,73.4,62.4,77.3z"/>
			<path class="st11" d="M63.1,57.2c-0.3-2.3-0.9-5.1-3.1-6.1c-2.3-1.1-4.8,0.5-6.5,2.1c-10.8,9.7-14.9,23.4-16.9,38.1l25.9,1.6
				C64.3,81.2,64.5,69.2,63.1,57.2z"/>
			<path class="st10" d="M101.9,249.6c-1,3.8-2.6,8.1-6,9.2c-2.3,0.7-7.3-8.9-9.1-10.8c-1.8-1.9-19-73.1-16.9-78.7
				c2.7-7.4,9.4-12.2,16.4-13.3c10.1-1.6,21.7,1.5,23.2,14.4c1.9,16.4,0.7,33.9-1.6,50.2C106.4,230.5,104.5,240.2,101.9,249.6z"/>
			<path class="st1" d="M27,115.6c-0.7,1.6,0,3.6,1.3,4.8c1.3,1.2,10.4,5.5,19.4,1.5c4.5-2,5.2-6.3,3.6-10.4
				C49.2,105.8,27.9,113.6,27,115.6z"/>
			<path class="st10" d="M84.5,241.9c0.3-8.1,9.2-17.5,19.9-6.6c17.2,17.6,22.3,51.2,29,76.1l-11.7,4.1
				C120.1,313.6,84.4,246.4,84.5,241.9z"/>
			<path class="st11" d="M110.7,108.7c4.2-13.5,9.4-30.1,7-44.2c-5.7-7-17.4-23.1-40.5-23.1c-16.2,0-28.4,16.4-31.2,20.5
				c-3.1,4.6-2,11.2-1.2,16.6c1.7,11.4,6.6,56.3,2.3,87.5h65.5C112.6,151.2,106.5,122.2,110.7,108.7z"/>
			<path class="st6" d="M125.8,92.3c-3.2-12.4-10.2-23.8-19.7-32.3c-1.7-1.5-4-3.1-6.1-2.2c-1.2,0.5-1.9,1.6-2.3,2.9
				c-0.3,1.2-0.3,2.5-0.3,3.7c0.6,14.6,3.2,29.1,5.9,43.5c0.8,4.4,1.6,8.9,3.6,13c1.9,4.1,5.1,7.8,9.3,9.4c2.2,0.8,5.8,1.3,7.8-0.3
				c1.6-1.3,1.9-4.5,2.3-6.4c1.5-6.6,1.9-13.3,1.4-20C127.4,99.8,126.8,96,125.8,92.3z"/>
			<path class="st12" d="M129.5,96.9c0,0.1,0,0.2,0,0.3C129.5,97.1,129.5,97,129.5,96.9z"/>
			<path class="st11" d="M97.1,57.2c0.1-2.3,0.6-5.1,2.7-6.1c2.2-1.1,6.4,1,8.2,2.6c11.4,9.7,17.8,22.9,20.6,37.6l-28.8,1.6
				C97.4,81.2,96.4,69.2,97.1,57.2z"/>
			<g>
				<path class="st6" d="M70.8,25.2c1.6-7,6.9-8.6,9.9-6.9c2,13.1,4,18.9,9.1,26c-6.4,4.1-17.3,3.3-19.6,0
					C70.1,43.2,70,28.8,70.8,25.2z"/>
				<path class="st1" d="M71.1,8.7c-6.3-4.4-15.4-0.6-16.8,7.5c-1.2,7.4,6.2,20.1,9.8,22.2c6.2,3.6,14.5-5.1,14.8-9.2
					C79.4,23.2,76.5,12.4,71.1,8.7z"/>
				<path class="st13" d="M75.6,10.3c0.5-0.3,1.2-0.3,1.7-0.1c0.5,0.2,1,0.6,1.4,1c1.5,1.4,3,2.7,4.1,4.4c1.2,1.6,2,3.6,2,5.6
					c0,1.3-0.3,2.7,0.1,3.9c0.4,1.1,1.4,2.1,1.1,3.2c-0.2,0.8-1.2,1.3-2,1.2c-0.9-0.1-1.6-0.7-2.2-1.3c-0.5-0.7-0.9-1.5-1.4-2.2
					c-1.5-2.5-3.6-4.5-5.1-7c-1.5-2.4-2.4-5.7-1-8.2L75.6,10.3z"/>
				<path class="st13" d="M46.3,13.6c1.4-0.6,2.7-1.1,4.1-1.7c-0.6,0.8-1.3,1.6-1.5,2.6c-0.2,1,0,2.1,0.9,2.6
					c0.7,0.4,1.5,0.3,2.2-0.1c0.7-0.4,1.2-0.9,1.8-1.5c-0.3,0.5-0.6,1.1-0.6,1.7c0,0.6,0.4,1.2,1,1.3c0.5,0.1,0.9-0.3,1.3-0.5
					c1.9-1.5,3.7-2.9,5.6-4.4c-0.1,0.6-0.2,1.2-0.1,1.8c0.1,0.6,0.4,1.2,1,1.4c1,0.4,2-0.5,2.5-1.3c0.6-0.9,1.2-1.9,2.2-2
					c1.2-0.2,2.1,0.9,2.8,1.8c0.1,0.2,0.3,0.3,0.4,0.5c1.3,1.7,2.6,3.4,3.9,5.1c0.4,0.5,0.8,1.1,1.4,1.4c0.5,0.4,1.3,0.6,1.9,0.3
					c1-0.4,12.4-17.1-2.1-22.2c-2.1-0.7-5.1,0.1-7.2,0.7c-2.1,0.7-4.1,1.7-6.3,2.1c-1.7,0.3-3.5,0.2-5.3,0.4
					C51.1,4,46.4,8.5,46.3,13.6z"/>
				<path class="st1" d="M82.4,17.1c0.7,1.6,0.6,3.5,0,5.2c-2,4.7-6.5,0.5-6.7-2.9C75.3,15.4,80.6,12.7,82.4,17.1z"/>
			</g>
			<path class="st11" d="M36,340.2c-0.2-1.8,1.5-3.2,3.3-3.7c1.7-0.4,3.5-0.1,5.3-0.1c5.1-0.1,10-3.1,12.3-7.6
				c0.3-0.6,0.6-1.3,1.2-1.6c0.8-0.5,1.9-0.1,2.6,0.5c0.7,0.6,1.2,1.4,1.9,2.1c1.2,1.2,2.9,1.8,4.5,1.8c1.4,0,2.9-1.1,4.3-0.4
				c1.2,0.6,1.5,2.3,1.8,3.4c0.5,2,1,4,1.5,6c0.1,0.4,0.2,0.9,0.2,1.4h-9.7c-0.4-0.6-0.8-2.5-1-3.2c0,0.8-0.3,2.6-0.8,3.2H36.8
				C36.4,341.4,36.1,340.9,36,340.2z"/>
			<path class="st11" d="M123.9,335.1c-0.7-1.6-0.4-3.3,0.1-3.9c0.6-0.6,0.7-3.8,0.8-8.5c0-2.1,3.6-4,6.6-1.4c1,0.8,1.8,1.3,2.5,1
				c0.6-0.2,0.9-1.5,1.7-1c0.7,0.4,1.4,1.9,1.9,3c0.9,1.8,1.7,3.7,2.6,5.5c0.2,0.4,0.4,0.8,0.6,1.3l-15.8,5.5
				C124.5,336.3,124.2,335.7,123.9,335.1z"/>
			<g>
				<path class="st7" d="M78.9,134.7H39.6c-2.3,0-4.7-1.9-5.4-4.2L17,68.8c-0.7-2.3,0.7-4.2,3-4.2h39.3c2.3,0,4.7,1.9,5.4,4.2
					l17.3,61.7C82.6,132.8,81.2,134.7,78.9,134.7z"/>
				<path class="st8" d="M81.9,130.5L64.7,68.8c-0.7-2.3-3.1-4.2-5.4-4.2h-4.2c2.3,0,4.7,1.9,5.4,4.2l17.3,61.7
					c0.7,2.3-0.7,4.2-3,4.2h4.2C81.2,134.7,82.6,132.8,81.9,130.5z"/>
			</g>
			<path class="st1" d="M76.3,116.4c-1.9,1.2-2.2,4.1-1.2,6.2c1,2.1,34.4,10.2,42.5,10c2.4,0,5.3-0.3,6.7-2.3
				c1.3-1.8,0.9-4.2,0.2-6.3c-1.2-3.5-3.2-7.4-6-9.8C116.5,112.5,77.6,115.6,76.3,116.4z"/>
			<path class="st1" d="M64.3,110.5c-0.8-1.1-1.6-2.7-0.8-3.8c0.5-0.7,1.6-0.9,2.5-0.6c0.9,0.3,1.6,0.9,2.3,1.5c1,0.8,2,1.6,3.2,1.7
				c1.2,0.2,2.7-0.5,2.9-1.7c0.3-1.3-0.7-3,0.3-3.9c0.5-0.5,1.4-0.5,2-0.1c0.6,0.3,1.1,0.9,1.5,1.5c2.2,3,4.5,6.2,5.4,9.8
				s0.1,8-3,10.2c-2.7,2-6.8,1.7-9.4-0.4c-2.2-1.8-3.1-4.4-3.4-7.1C67.5,114.6,66.1,113,64.3,110.5z"/>
			<path class="st1" d="M24.9,107.4c0.1-0.4,0.4-7.2,0.7-7.4c0.6-0.5,3,7.4,2.5,8.1c1.7-0.2,2.2-0.2,3.9-0.4c1.2-0.1,2.9,0,3.3,1.2
				c0.3,1-0.5,1.9-1,2.7c-0.9,1.5,0.4,10.3-0.3,11.1c-2.7,2.8-8.7-2-9.7-4.7C23,114.1,23.7,111,24.9,107.4z"/>
		</g>
	</g>
</g>
</svg>
