<svg xmlns="http://www.w3.org/2000/svg" width="200" height="100" version="1.1" viewBox="0 0 212 35">
    <g id="Page-1" fill-rule="evenodd">
        <g id="Desktop-Copy-2" transform="translate(-627 -5902)">
            <g id="Page-1" transform="translate(627 5902)">
                <path d="M77.776 31.277c-1.528 0-3.066-.399-4.478-1.393-.538-.379-.901-.727-1.136-1.042-.197.131-.43.274-.701.428-2.421 1.376-3.412.918-3.818.29-.687-1.063.262-3.086 2.175-4.935-.241.045-.48.093-.7.137-2.072.413-4.367.869-5.484.174-2.97 3.164-6.264 5.387-7.828 5.282-.734-.056-.82-.804-1.005-2.442-.093-.821-.304-2.683-.634-3.134-.544.286-1.052.645-1.544.994-1.462 1.034-2.971 2.104-5.185.324-2.311 2.326-6.277 4.171-8 4.589a1.4 1.4 0 0 1-1.15-.231c-1.121-.784-1.647-3.278-1.843-4.506-.471.186-1.19.516-1.85.818-3.393 1.556-8.524 3.904-11.077 2.632a2.543 2.543 0 0 1-1.067-.974c-1.541 1.146-4.673 2.968-5.874 2.257-.224-.134-.715-.546-.426-1.502.536-1.774 2.649-5.181 6.805-5.385l.064 1.297c-4.291.211-5.613 4.421-5.625 4.464a.049.049 0 0 1-.003.007c.94-.069 3.86-1.635 4.87-2.662l1.098.317c.109.498.344.822.738 1.019 1.998.998 7.176-1.376 9.957-2.65 2.266-1.04 2.76-1.249 3.23-.986l.359.543c.169 1.491.747 3.797 1.389 4.246.06.044.082.039.1.033 1.648-.398 5.769-2.349 7.769-4.655l.938-.045c1.715 1.631 2.49 1.084 4.033-.01.527-.374 1.124-.797 1.819-1.149.397-.169.766-.149 1.08.036.842.494 1.078 2.039 1.32 4.167.046.406.104.918.163 1.248 1.153-.3 3.95-2.05 6.91-5.354l1.106.243c.182.601 3.502-.061 4.594-.279 1.998-.398 2.909-.581 3.358-.011l-.127.927c-2.695 1.969-3.564 4.103-3.362 4.451 0 0 .036.016.15.016.243 0 .814-.094 1.936-.73.556-.316.859-.54 1.017-.676.125-.357.414-.587.752-.562l.617.513a.692.692 0 0 1-.078.531c.088.155.318.453.917.875 4.312 3.034 10.11-.668 11.804-2.724l1.002.827c-1.57 1.903-5.29 4.352-9.075 4.352m35.194-10.403V19.58c1.043 0 4.596-.04 6.514-.558l.338 1.249c-2.017.543-5.463.602-6.853.602m55.794.736c-.852 0-1.688-.147-2.114-.633l.971-.853c.195.209 1.46.3 3.076-.023l.254 1.268c-.501.1-1.351.24-2.186.24M137.74 8.697c-.194.277-.488.8-.853 1.775a637.707 637.707 0 0 0-2.917 7.909c1.925-2.55 3.07-5.187 3.55-7.351.262-1.176.268-1.923.22-2.333m46.221 22.017c-.142 0-.276-.015-.4-.044a.939.939 0 0 1-.673-.625c-.313-.89.477-2.977 1.21-4.516-7.36 3.177-16.01 6.08-18.518 3.529-.713-.726-.901-1.782-.565-3.152-5.66 3.373-9.201 4.872-10.536 4.454-.54-.168-.893-.547-.998-1.065-.17-.842.369-1.874 1.2-2.903-1.469.816-3.144 1.82-4.553 2.665-.95.569-1.844 1.105-2.602 1.544l-.927-.794c.6-1.545 1.523-3.657 2.57-6.006-4.4 2.66-13.686 6.57-16.834 6.799l-.406-1.182c3.238-2.173 4.145-3.951 4.183-4.44-.597.008-2.797 1.183-6.044 5.454l-1.162-.367c-.025-.695.787-3.338 1.893-6.58a25.267 25.267 0 0 1-2.675 1.872c-6.493 3.949-15.338 6.555-17.651 3.979a2.108 2.108 0 0 1-.436-.738c-1.256 1.08-2.955 1.714-4.78 1.714h-8.16l-.62-.832L105.309 0l1.239.373-8.584 28.645h7.293c2.277 0 4.305-1.175 5.165-2.995h.002c.28-.572.675-1.192 1.188-1.86l1.026.788c-1.28 1.664-1.718 2.948-1.204 3.52 1.445 1.608 9.117-.022 16.017-4.218a23.618 23.618 0 0 0 4.213-3.258 594.534 594.534 0 0 1 4.013-10.978c.757-2.015 1.47-2.93 2.275-2.886.228.013.782.139 1.002 1.018.507 2.035-.912 8.3-6.167 13.555a181.755 181.755 0 0 0-1.925 5.726c2.341-2.614 4.409-4 5.638-3.7.466.113.794.464.88.939.183 1.016-.749 2.51-2.431 4.039 5.11-1.557 13.765-5.645 15.222-7.14l.368-.814c1.59-3.537 3.238-7.194 4.192-9.643l1.204.47c-.968 2.48-2.62 6.152-4.219 9.704l-.096.214a1.122 1.122 0 0 1-.198.562 1.473 1.473 0 0 1-.131.17c-1.04 2.314-2.02 4.503-2.767 6.28l.94-.563c3.149-1.888 6.719-4.027 8.17-4.338l.555 1.125c-2.911 2.46-3.523 3.89-3.441 4.303.007.029.012.055.115.087.064.024 1.744.44 11.048-5.271l.923.824c-.548 1.179-1.053 2.74-.333 3.473 1.632 1.66 8.553.003 18.517-4.436l.292-.13.767.99c-.583.747-1.927 3.856-1.98 4.85 1.305-.101 4.82-2.472 6.566-3.651 1.053-.711 1.885-1.272 2.351-1.494l.873.329.131.317c.483 1.18 1.292 3.158 3.57 3.88 3.013.959 7.627-.53 13.716-4.418l.696 1.09c-6.428 4.104-11.409 5.639-14.803 4.56-2.584-.82-3.67-2.954-4.22-4.247-.423.267-.98.643-1.59 1.055-3.232 2.18-5.868 3.868-7.425 3.868zM11.375 34.255l-1.237-.374c1.1-3.648.197-8.285-4.305-10.424C1.436 21.37-.63 17.86.168 13.829c1.005-5.081 6.272-9.608 11.5-9.885l.069 1.29c-4.684.249-9.401 4.299-10.301 8.846-.682 3.454 1.075 6.37 4.95 8.209 5.196 2.469 6.249 7.788 4.988 11.966z" id="Fill-1"></path>
            </g>
        </g>
    </g>
</svg>