<svg xmlns="http://www.w3.org/2000/svg" xmlns:xlink="http://www.w3.org/1999/xlink" width="335.436" height="308.678" viewBox="0 0 335.436 308.678">
  <defs>
    <linearGradient id="linear-gradient" y1="0.5" x2="1" y2="0.5" gradientUnits="objectBoundingBox">
      <stop offset="0" stop-color="#ebfbff"/>
      <stop offset="1" stop-color="#d1f5fb"/>
    </linearGradient>
    <linearGradient id="linear-gradient-2" x1="-57.211" y1="37.587" x2="-57.211" y2="39.27" gradientUnits="objectBoundingBox">
      <stop offset="0.13" stop-color="#9fc4bf"/>
      <stop offset="1" stop-color="#79a49d"/>
    </linearGradient>
    <linearGradient id="linear-gradient-3" x1="-4.916" y1="-8.342" x2="-4.916" y2="-7.236" gradientUnits="objectBoundingBox">
      <stop offset="0.004" stop-color="#a4c8c3"/>
      <stop offset="1" stop-color="#85afa9"/>
    </linearGradient>
  </defs>
  <g id="illustration_2" data-name="illustration 2" transform="translate(-0.01 0.008)">
    <g id="Group_734" data-name="Group 734">
      <path id="Path_681" data-name="Path 681" d="M297.45,178.48A57,57,0,0,1,270.8,127.4c1.41-27.96-6.4-64.56-51.84-79.76C140.88,21.52,44.64,16.97,19.82,93.77c-8.29,25.65-2.37,48.78,5.29,65.14a89.007,89.007,0,0,1,6.26,55.88c-5,24.14-6.01,56.52,16.99,75.23,40,32.53,274.03,24.46,285.91-39.73C340.85,214.75,318.61,191.85,297.45,178.48Z" fill="url(#linear-gradient)"/>
      <g id="Group_732" data-name="Group 732">
        <path id="Path_682" data-name="Path 682" d="M111.68,293.65s-65.51-26.52-66.61-37.91c6.32-.81,21.86-5.68,21.86-5.68l-25.18-2.72s-29.87-28.01-41.74-52c116.64-1.27,152.93,80.03,152.93,80.03Z" fill="url(#linear-gradient-2)"/>
        <path id="Path_683" data-name="Path 683" d="M22.48,208.95s82.51,28.7,103.86,79.56" fill="none" stroke="#b8e5e1" stroke-miterlimit="10" stroke-width="0.25"/>
        <path id="Path_684" data-name="Path 684" d="M44.19,205.24s3.99,14.55,9.99,17.73" fill="none" stroke="#b8e5e1" stroke-miterlimit="10" stroke-width="0.25"/>
        <path id="Path_685" data-name="Path 685" d="M75.94,221.53a50.125,50.125,0,0,0,11.53,21.91" fill="none" stroke="#b8e5e1" stroke-miterlimit="10" stroke-width="0.25"/>
        <path id="Path_686" data-name="Path 686" d="M65.06,228.89s-15.45,5.38-20.23,3.68" fill="none" stroke="#b8e5e1" stroke-miterlimit="10" stroke-width="0.25"/>
        <path id="Path_687" data-name="Path 687" d="M101.99,255.39s-17.45,7.31-22.67,4.04" fill="none" stroke="#b8e5e1" stroke-miterlimit="10" stroke-width="0.25"/>
      </g>
      <g id="Group_733" data-name="Group 733">
        <path id="Path_688" data-name="Path 688" d="M261.88,269.13s36.31-50.82,31.74-59.84c-5.1,2.39-19,6.12-19,6.12l17.5-13.96s9.01-35.04,6.51-58.58C211,197.18,222.45,275.03,222.45,275.03Z" fill="url(#linear-gradient-3)"/>
        <path id="Path_689" data-name="Path 689" d="M288.3,163.68s-47.96,60.5-39.8,108.56" fill="none" stroke="#b8e5e1" stroke-miterlimit="10" stroke-width="0.25"/>
        <path id="Path_690" data-name="Path 690" d="M270.34,171.19s3.92,12.75.95,17.96" fill="none" stroke="#b8e5e1" stroke-miterlimit="10" stroke-width="0.25"/>
        <path id="Path_691" data-name="Path 691" d="M254.37,198.39a44.272,44.272,0,0,1,1.78,21.81" fill="none" stroke="#b8e5e1" stroke-miterlimit="10" stroke-width="0.25"/>
        <path id="Path_692" data-name="Path 692" d="M265.97,198.73s14.08-3.3,16.83-6.84" fill="none" stroke="#b8e5e1" stroke-miterlimit="10" stroke-width="0.25"/>
        <path id="Path_693" data-name="Path 693" d="M250.98,236s16.48-2.81,18.82-7.73" fill="none" stroke="#b8e5e1" stroke-miterlimit="10" stroke-width="0.25"/>
      </g>
    </g>
    <g id="Group_565_5_" transform="translate(-812.73 -2365.118)">
      <g id="Group_562_6_" transform="translate(1378.759 3237.49)">
        <path id="Rectangle_469_6_" d="M-478.33-636.02h158.3a5.407,5.407,0,0,1,5.41,5.41v22.55a5.407,5.407,0,0,1-5.41,5.41h-158.3a5.407,5.407,0,0,1-5.41-5.41v-22.55A5.414,5.414,0,0,1-478.33-636.02Z" fill="#a2c9ce"/>
        <rect id="Rectangle_470_6_" width="28.84" height="33.31" transform="translate(-366.92 -636.02)" fill="#90b9c0"/>
      </g>
      <g id="Group_563_6_" transform="translate(1393.855 3205.771)">
        <path id="Rectangle_471_6_" d="M-477.02-637.71h157.29a5.909,5.909,0,0,1,5.91,5.91v21.54a5.909,5.909,0,0,1-5.91,5.91H-477.02a5.909,5.909,0,0,1-5.91-5.91V-631.8A5.915,5.915,0,0,1-477.02-637.71Z" fill="#ffcd72"/>
        <rect id="Rectangle_472_6_" width="28.84" height="33.31" transform="translate(-366.11 -637.71)" fill="#ffaa05"/>
      </g>
      <path id="Rectangle_473_6_" d="M1095.73,2672.88H924.49a.659.659,0,0,1-.66-.66v-36.66a.659.659,0,0,1,.66-.66h171.24a.659.659,0,0,1,.66.66v36.66A.653.653,0,0,1,1095.73,2672.88Z" fill="#8bbdb7"/>
      <rect id="Rectangle_474_6_" width="173" height="19.3" transform="translate(923.76 2644.02)" fill="#e9f6f8"/>
      <path id="Path_529_6_" d="M937.27,2661.16l5.4-2.14a2.765,2.765,0,0,1,2.04,0l5.44,2.15c1.26.5,2.5-.86,2.5-2.73v-6.18c0-1.56-.88-2.82-1.97-2.82H936.73c-1.09,0-1.97,1.26-1.97,2.82v6.18C934.76,2660.31,936.01,2661.66,937.27,2661.16Z" fill="#a0bcc2"/>
      <path id="Path_530_6_" d="M969.72,2668.85l5.33-2.11a2.713,2.713,0,0,1,2.02,0l5.36,2.12c1.24.49,2.47-.84,2.47-2.69v-6.1c0-1.54-.87-2.78-1.95-2.78H969.18c-1.07,0-1.95,1.25-1.95,2.78v6.09C967.24,2668,968.47,2669.34,969.72,2668.85Z" fill="#65959f"/>
      <g id="Group_564_6_" transform="translate(1353.894 3099.762)">
        <g id="Group_488_7_" transform="translate(7.569)">
          <path id="Rectangle_376_7_" d="M-477.14-643.37H-340.5a7.524,7.524,0,0,1,7.52,7.52h0v96.01a6.773,6.773,0,0,1-6.76,6.77H-477.9a6.758,6.758,0,0,1-6.76-6.76h0v-96.01A7.52,7.52,0,0,1-477.14-643.37Z" fill="#abdbe1"/>
        </g>
        <g id="Group_489_7_" transform="translate(17.349 10.361)">
          <path id="Path_507_7_" d="M-355.47-550.67H-481.75a2.39,2.39,0,0,1-2.39-2.39h0l.17-87.37a2.39,2.39,0,0,1,2.39-2.39h126.11a2.39,2.39,0,0,1,2.39,2.39h0v87.37a2.384,2.384,0,0,1-2.39,2.39Z" fill="#f1f1f1"/>
        </g>
        <path id="Rectangle_377_7_" d="M-466.23-548.75h129.95a4.131,4.131,0,0,1,4.13,4.13h0v1.14H-470.36v-1.14a4.131,4.131,0,0,1,4.13-4.13Z" fill="#a2c9ce"/>
        <path id="Rectangle_378_7_" d="M-482.72-544.19H-319.8a2.358,2.358,0,0,1,2.34,2.35v2.87a8.051,8.051,0,0,1-8.05,8.05H-477.03a8.051,8.051,0,0,1-8.05-8.05h0v-2.87a2.369,2.369,0,0,1,2.36-2.35Z" fill="#90b9c0"/>
        <path id="Rectangle_379_7_" d="M-463.79-632.81h125.06a2.981,2.981,0,0,1,2.98,2.98h0v6.64H-466.77v-6.64A2.981,2.981,0,0,1-463.79-632.81Z" fill="#fff"/>
      </g>
      <g id="Group_505_7_" transform="translate(1373.014 3068.196)">
        <g id="Group_504_7_" transform="translate(25.284)">
          <rect id="Rectangle_386_7_" width="9.4" height="29.09" transform="translate(-449.61 -574.06)" fill="#ffcd6c"/>
          <rect id="Rectangle_387_7_" width="18.09" height="9.58" transform="translate(-453.96 -563.12)" fill="#ffae42"/>
          <path id="Path_514_7_" d="M-418.94-532.48h-51.01a2.268,2.268,0,0,1-2.26-2.25,2.309,2.309,0,0,1,.03-.37l2.99-18.24a2.265,2.265,0,0,1,2.23-1.9h45.36a2.251,2.251,0,0,1,2.23,1.93l2.67,18.24a2.257,2.257,0,0,1-1.91,2.56A1.839,1.839,0,0,1-418.94-532.48Z" fill="#ffa342"/>
          <path id="Rectangle_388_7_" d="M-477.91-641.87h65.99v42.24a27.651,27.651,0,0,1-27.65,27.65h-10.69a27.651,27.651,0,0,1-27.65-27.65h0v-42.24Z" fill="#ffcd6c"/>
          <path id="Rectangle_389_7_" d="M-481.26-645.06h72.68a1.44,1.44,0,0,1,1.44,1.44v5.28a1.44,1.44,0,0,1-1.44,1.44h-72.68a1.44,1.44,0,0,1-1.44-1.44v-5.28A1.447,1.447,0,0,1-481.26-645.06Z" fill="#ffa342"/>
        </g>
        <path id="Path_515_7_" d="M-447.64-595.74a42.81,42.81,0,0,0-3.35-2.95c-2.01-1.51-4.08-2.93-6.2-4.3a73.977,73.977,0,0,1-9.67-7.23,14.329,14.329,0,0,1-3.97-5.57,10.465,10.465,0,0,1,6.13-13.48h0c.32-.12.64-.22.96-.31,3.05-.74,5.82.12,8.59,1.35a2.494,2.494,0,0,1,.75.49l3.48,1.47c-.96-3.86.29-5.29.27-5.32-2.13-2.75-9.2-3.56-11.78-3.47a14.163,14.163,0,0,0-7.28,2.41,19.037,19.037,0,0,0-3.07,2.6,26.293,26.293,0,0,0-.61-2.63c-.28-.84-.53-2.16-1.3-2.21-.83-.06-1.42,1.09-1.81,1.97a11.271,11.271,0,0,0-.85,6.01,2.518,2.518,0,0,1,0,1.22c-.98-.76-1.91-1.53-2.89-2.24-1.13-.83-1.73-.58-1.93.83a11.372,11.372,0,0,0,.79,6.1c.48,1.16,1.18,2.2,1.79,3.46a17.505,17.505,0,0,0-3.82-.32c-.49-.01-.67.15-.65.64a10.488,10.488,0,0,0,1.1,4.14,20.628,20.628,0,0,0,6.41,7.17c.35.27,4.53,2.8,4.95,3.02a66.859,66.859,0,0,0,9.12,3.83c3.81,1.18,9.76,5.28,11.85,7.97a7.611,7.611,0,0,1,1.79,6.51,2.306,2.306,0,0,1-1.9,1.87,2.659,2.659,0,0,1-2.5-1.06c-.37-.47-.24-.68.38-.73a2.5,2.5,0,0,0,2.23-2.34c.15-2.04-1.71-3.19-3.65-2.99-3.16.33-5.03,4.15-4.32,6.86a7.375,7.375,0,0,0,4.79,5.05,7.548,7.548,0,0,0,9.71-4.15,11.137,11.137,0,0,0,.76-4.42l.07.12C-443.27-586.39-447.57-595.9-447.64-595.74Z" fill="#ffcd6c"/>
        <path id="Path_516_7_" d="M-393.13-595.74a44.561,44.561,0,0,1,3.34-2.95c2.01-1.51,4.08-2.93,6.2-4.3a73.312,73.312,0,0,0,9.67-7.23,14.329,14.329,0,0,0,3.97-5.57,10.473,10.473,0,0,0-6.13-13.48h0c-.32-.12-.64-.22-.96-.31-3.05-.74-5.82.12-8.59,1.35a2.494,2.494,0,0,0-.75.49l-3.48,1.47c.96-3.86-.29-5.29-.27-5.32,2.13-2.75,9.2-3.56,11.78-3.47a14.163,14.163,0,0,1,7.28,2.41,19.037,19.037,0,0,1,3.07,2.6,26.293,26.293,0,0,1,.61-2.63c.28-.84.53-2.16,1.3-2.21.83-.06,1.42,1.09,1.81,1.97a11.271,11.271,0,0,1,.85,6.01,2.4,2.4,0,0,0,.01,1.22c.97-.76,1.91-1.53,2.89-2.24,1.13-.83,1.73-.58,1.93.83a11.372,11.372,0,0,1-.79,6.1c-.48,1.16-1.18,2.2-1.79,3.46a17.415,17.415,0,0,1,3.81-.32c.49-.01.67.15.65.64a10.647,10.647,0,0,1-1.09,4.14,20.628,20.628,0,0,1-6.41,7.17c-.35.27-4.53,2.8-4.96,3.02a66.859,66.859,0,0,1-9.12,3.83c-3.8,1.18-9.76,5.28-11.85,7.97a7.611,7.611,0,0,0-1.79,6.51,2.306,2.306,0,0,0,1.9,1.87,2.659,2.659,0,0,0,2.5-1.06c.37-.47.23-.68-.38-.73a2.5,2.5,0,0,1-2.23-2.34c-.15-2.04,1.71-3.19,3.65-2.99,3.17.33,5.03,4.15,4.32,6.86a7.375,7.375,0,0,1-4.79,5.05,7.548,7.548,0,0,1-9.71-4.15,11.137,11.137,0,0,1-.76-4.42l-.07.12C-397.5-586.39-393.2-595.9-393.13-595.74Z" fill="#ffcd6c"/>
        <circle id="Ellipse_191_7_" cx="20.94" cy="20.94" r="20.94" transform="translate(-440.57 -630.75)" fill="#ffa342" opacity="0.27"/>
        <circle id="Ellipse_192_7_" cx="15.96" cy="15.96" r="15.96" transform="translate(-435.59 -625.76)" fill="#ffcd6c"/>
      </g>
      <path id="Rectangle_475_6_" d="M893.74,2538.11h39.35v12.9H890.53v-9.7a3.218,3.218,0,0,1,3.21-3.2Z" fill="#f7d6b0"/>
      <path id="Rectangle_476_6_" d="M971.18,2542.09h39.1a3.459,3.459,0,0,1,3.46,3.45h0v5.48H971.18v-8.93Z" fill="#f7d6b0"/>
      <path id="Rectangle_477_6_" d="M921.47,2534.64h62.34a4.558,4.558,0,0,1,4.56,4.56v11.81H916.9V2539.2a4.567,4.567,0,0,1,4.57-4.56Z" fill="#f4cc99"/>
      <path id="Path_531_6_" d="M1020.78,2365.98l5.19,10.52a1.537,1.537,0,0,0,1.16.84l11.61,1.69a1.536,1.536,0,0,1,1.3,1.74,1.589,1.589,0,0,1-.45.88l-8.4,8.19a1.525,1.525,0,0,0-.44,1.36l1.98,11.56a1.548,1.548,0,0,1-1.26,1.78,1.584,1.584,0,0,1-.98-.15l-10.38-5.46a1.51,1.51,0,0,0-1.43,0l-10.38,5.46a1.534,1.534,0,0,1-2.08-.65,1.508,1.508,0,0,1-.15-.98l1.98-11.56a1.525,1.525,0,0,0-.44-1.36l-8.4-8.19a1.545,1.545,0,0,1-.03-2.18,1.589,1.589,0,0,1,.88-.45l11.61-1.69a1.537,1.537,0,0,0,1.16-.84l5.19-10.52a1.535,1.535,0,0,1,2.06-.7A1.6,1.6,0,0,1,1020.78,2365.98Z" fill="#ffcd6c"/>
      <path id="Path_532_8_" d="M1066.14,2406.21l3.72,7.53a1.1,1.1,0,0,0,.83.6l8.31,1.21a1.1,1.1,0,0,1,.93,1.25,1.093,1.093,0,0,1-.32.63l-6.02,5.86a1.11,1.11,0,0,0-.32.98l1.42,8.28a1.1,1.1,0,0,1-.9,1.27,1.133,1.133,0,0,1-.7-.11l-7.43-3.91a1.1,1.1,0,0,0-1.03,0l-7.43,3.91a1.1,1.1,0,0,1-1.6-1.15l1.42-8.28a1.12,1.12,0,0,0-.32-.98l-6.02-5.86a1.1,1.1,0,0,1-.02-1.56,1.094,1.094,0,0,1,.63-.32l8.31-1.21a1.1,1.1,0,0,0,.83-.6l3.72-7.53a1.1,1.1,0,0,1,1.48-.5A1.015,1.015,0,0,1,1066.14,2406.21Z" fill="#ffae42"/>
      <path id="Path_533_6_" d="M1073.47,2457.93l5.91,11.98a1.751,1.751,0,0,0,1.32.96l13.22,1.92a1.754,1.754,0,0,1,.97,2.99l-9.57,9.33a1.745,1.745,0,0,0-.5,1.55l2.26,13.17a1.754,1.754,0,0,1-1.43,2.02,1.712,1.712,0,0,1-1.11-.18l-11.83-6.21a1.741,1.741,0,0,0-1.63,0l-11.83,6.21a1.759,1.759,0,0,1-2.37-.73,1.778,1.778,0,0,1-.18-1.11l2.26-13.17a1.746,1.746,0,0,0-.5-1.55l-9.57-9.33a1.754,1.754,0,0,1,.97-2.99l13.22-1.92a1.734,1.734,0,0,0,1.32-.96l5.91-11.98a1.75,1.75,0,0,1,2.35-.79A1.726,1.726,0,0,1,1073.47,2457.93Z" fill="#ffa342"/>
    </g>
  </g>
</svg>
