<svg xmlns="http://www.w3.org/2000/svg" xmlns:xlink="http://www.w3.org/1999/xlink" width="552.946" height="453.614" viewBox="0 0 552.946 453.614">
  <defs>
    <clipPath id="clip-path">
      <path id="Path_825" data-name="Path 825" d="M27.6,0S-7.5,45.2,1.4,94.6s33.1,80.9,47.5,117.7-55,173.8,54.5,222.5,178-11.9,195.3-17.3,92.3-8.1,111.9-12.9c8-1.9,22.3-9.3,33.2-15.4a62.045,62.045,0,0,1,30-8c25.7-.1,74.5-4.5,79.1-36.4V0Z"/>
    </clipPath>
    <linearGradient id="linear-gradient" y1="0.31" x2="1" y2="0.31" gradientUnits="objectBoundingBox">
      <stop offset="0" stop-color="#f0fcff"/>
      <stop offset="1" stop-color="#dcf6fc"/>
    </linearGradient>
    <linearGradient id="linear-gradient-2" y1="-3.24" x2="1" y2="-3.24" gradientUnits="objectBoundingBox">
      <stop offset="0.072" stop-color="#9eb9b4"/>
      <stop offset="0.72" stop-color="#7a9892"/>
    </linearGradient>
    <linearGradient id="linear-gradient-3" y1="-1.079" x2="1" y2="-1.079" gradientUnits="objectBoundingBox">
      <stop offset="0" stop-color="#aac4bf"/>
      <stop offset="1" stop-color="#7a9892"/>
    </linearGradient>
    <linearGradient id="linear-gradient-4" y1="-0.17" x2="1" y2="-0.17" gradientUnits="objectBoundingBox">
      <stop offset="0.076" stop-color="#dde7e5"/>
      <stop offset="1" stop-color="#afc8c3"/>
    </linearGradient>
    <linearGradient id="linear-gradient-5" x1="0" y1="-0.202" x2="1" y2="-0.202" xlink:href="#linear-gradient-2"/>
    <linearGradient id="linear-gradient-6" y1="-1.37" x2="1" y2="-1.37" gradientUnits="objectBoundingBox">
      <stop offset="0" stop-color="#fff"/>
      <stop offset="0.925" stop-color="#f0fcff"/>
    </linearGradient>
    <linearGradient id="linear-gradient-7" y1="-0.507" x2="1" y2="-0.507" gradientUnits="objectBoundingBox">
      <stop offset="0.277" stop-color="#f0fcff"/>
      <stop offset="1" stop-color="#fff"/>
    </linearGradient>
    <linearGradient id="linear-gradient-8" y1="0.183" x2="1" y2="0.183" gradientUnits="objectBoundingBox">
      <stop offset="0" stop-color="#d4c59f"/>
      <stop offset="1" stop-color="#918670"/>
    </linearGradient>
    <clipPath id="clip-path-2">
      <path id="Path_738" data-name="Path 738" d="M57.1,384.5c9.3,19.1,25.3,35.7,51.4,47.3,109.5,48.7,178-11.9,195.3-17.3,13.2-4.1,60-6.7,90.2-9.8C246.7,272.5,98.8,356,57.1,384.5Z"/>
    </clipPath>
    <clipPath id="clip-path-3">
      <path id="Path_737" data-name="Path 737" d="M140.7,331.4a2.077,2.077,0,0,0-2.1,1.5c-.4,1.5-2.1,4.5-6.9,10.1a37.9,37.9,0,0,0-6.3,11.3,15.384,15.384,0,0,0-1.9-.8c-2.2-.9-4.8-1.6-7.1-.6a1.458,1.458,0,0,0,1.5,2.5h0a.367.367,0,0,0,.3-.1h1.2a.367.367,0,0,1,.3.1,19.661,19.661,0,0,1,3.2,1h.1c.1.1.3.1.4.2l.6.3c.1,0,.2.1.3.2-.7,2-1.3,4.1-1.9,6.3-2-.7-4.3-1.2-6.4-.4a1.458,1.458,0,0,0,1.5,2.5h0a.367.367,0,0,0,.3-.1H119a.367.367,0,0,1,.3.1,8.779,8.779,0,0,1,2.3.7c-.5,2.3-1,4.6-1.3,6.9a7.173,7.173,0,0,0-5,.1,1.458,1.458,0,0,0,1.5,2.5h0a.367.367,0,0,0,.3-.1h1.2a.367.367,0,0,1,.3.1c.4.1.8.2,1.1.3-.3,2.5-.6,5-.8,7.3a19.556,19.556,0,0,0-4.8,1.7,5.827,5.827,0,0,0-2.3,2.1,1.554,1.554,0,0,0,.5,2,1.456,1.456,0,0,0,2-.5c0-.1.1-.1.1-.2l.4-.4h0l.1-.1c.2-.1.3-.2.5-.3s.3-.2.5-.3c.1,0,.2-.1.3-.1l.2-.1h.1c.1,0,.2-.1.3-.1.2-.1.4-.1.6-.2a5.639,5.639,0,0,0,1.2-.4,59.889,59.889,0,0,0,0,6,2.11,2.11,0,0,0,2.4,2h.1v.1c-.5,2.2-1,5,.3,7.1a1.458,1.458,0,0,0,2.5-1.5c-.1-.1-.1-.2-.2-.3h0c-.1-.2-.1-.5-.2-.7h0v-1.2a2.2,2.2,0,0,1,.1-.8v-.5c.1-.5.2-1.1.3-1.6a2.92,2.92,0,0,0,.2-.9c2.2-.2,4.5-.5,6.8-.7-.5,2.2-.9,4.9.3,6.9a1.458,1.458,0,1,0,2.5-1.5c-.1-.1-.1-.2-.2-.3h0c-.1-.2-.1-.5-.2-.7h0v-1.2a2.2,2.2,0,0,1,.1-.8v-.5c.1-.5.2-1.1.3-1.6a4.331,4.331,0,0,0,.1-.5c2.3-.2,4.6-.4,7-.5-.5,2.1-.8,4.7.4,6.7a1.458,1.458,0,1,0,2.5-1.5c-.1-.1-.1-.2-.2-.3h0c-.1-.2-.1-.5-.2-.7h0v-1.2a2.2,2.2,0,0,1,.1-.8v-.5c.1-.5.2-1.1.3-1.6,0-.1,0-.1.1-.2,6.6-.4,13.7-.8,21-1-.2.6-.3,1.1-.5,1.7-.5,2.2-1,5,.3,7.1a1.458,1.458,0,1,0,2.5-1.5c-.1-.1-.1-.2-.2-.3h0c-.1-.2-.1-.5-.2-.7h0v-1.2a2.2,2.2,0,0,1,.1-.8v-.5c.1-.5.2-1.1.3-1.6a20.154,20.154,0,0,1,.7-2.3c2.2-.1,4.4-.1,6.7-.2-.1.3-.1.5-.2.8-.5,2.2-1,5,.3,7.1a1.458,1.458,0,1,0,2.5-1.5c-.1-.1-.1-.2-.2-.3h0c-.1-.2-.1-.5-.2-.7h0v-1.2a2.2,2.2,0,0,1,.1-.8v-.5c.1-.5.2-1.1.3-1.6a6.469,6.469,0,0,1,.4-1.3c2.3-.1,4.6-.1,6.9-.2v.1c-.5,2.2-1,5,.3,7.1a1.458,1.458,0,1,0,2.5-1.5c-.1-.1-.1-.2-.2-.3h0c-.1-.2-.1-.5-.2-.7h0v-1.2a2.2,2.2,0,0,1,.1-.8v-.5c.1-.5.2-1.1.3-1.6a1.421,1.421,0,0,1,.2-.6c4.7-.1,9.4-.2,14-.2-.1.5-.3,1-.4,1.5-.5,2.2-1,5,.3,7.1a1.458,1.458,0,1,0,2.5-1.5c-.1-.1-.1-.2-.2-.3h0c-.1-.2-.1-.5-.2-.7h0v-1.2a2.2,2.2,0,0,1,.1-.8v-.5c.1-.5.2-1.1.3-1.6a14.621,14.621,0,0,0,.5-2c2.2,0,4.5,0,6.7-.1,0,.1-.1.2-.1.3-.5,2.2-1,5,.3,7.1a1.458,1.458,0,0,0,2.5-1.5c-.1-.1-.1-.2-.2-.3h0c-.1-.2-.1-.5-.2-.7h0v-1.2a2.2,2.2,0,0,1,.1-.8v-.5c.1-.5.2-1.1.3-1.6.1-.3.1-.5.2-.8h6.9c-.5,2.1-.8,4.6.4,6.5a1.458,1.458,0,0,0,2.5-1.5c-.1-.1-.1-.2-.2-.3h0c-.1-.2-.1-.5-.2-.7h0v-1.2a2.2,2.2,0,0,1,.1-.8v-.5l.3-1.5c25.2-.1,45.8.2,51.8.3a2.14,2.14,0,0,0,2.1-1.7c1.9-8.5,10.7-46.2,16.4-48.7C301.3,337.7,161.6,332.2,140.7,331.4Z"/>
    </clipPath>
    <linearGradient id="linear-gradient-9" x1="0.675" y1="0.108" x2="0.194" y2="0.437" xlink:href="#linear-gradient-2"/>
    <linearGradient id="linear-gradient-10" x1="0.5" y1="-0.812" x2="0.5" y2="0.188" xlink:href="#linear-gradient-3"/>
    <linearGradient id="linear-gradient-11" x1="0.204" y1="-0.743" x2="0.759" y2="0.154" gradientUnits="objectBoundingBox">
      <stop offset="0.004" stop-color="#afc8c3"/>
      <stop offset="1" stop-color="#92aea9"/>
    </linearGradient>
    <linearGradient id="linear-gradient-12" x1="0.5" y1="-0.52" x2="0.5" y2="0.48" gradientUnits="objectBoundingBox">
      <stop offset="0.13" stop-color="#aac4bf"/>
      <stop offset="1" stop-color="#86a39d"/>
    </linearGradient>
    <linearGradient id="linear-gradient-13" x1="0.554" y1="-0.701" x2="0.339" y2="0.224" gradientUnits="objectBoundingBox">
      <stop offset="0" stop-color="#fff" stop-opacity="0"/>
      <stop offset="0.879" stop-color="#fff" stop-opacity="0.302"/>
    </linearGradient>
  </defs>
  <g id="illustration_girl" data-name="illustration girl" transform="translate(0.046)">
    <g id="Group_802" data-name="Group 802">
      <g id="Group_801" data-name="Group 801" clip-path="url(#clip-path)">
        <path id="Path_694" data-name="Path 694" d="M27.6,0S-7.5,45.2,1.4,94.6s33.1,80.9,47.5,117.7-55,173.8,54.5,222.5,178-11.9,195.3-17.3,92.3-8.1,111.9-12.9c8-1.9,22.3-9.3,33.2-15.4a62.045,62.045,0,0,1,30-8c25.7-.1,74.5-4.5,79.1-36.4V0Z" fill="url(#linear-gradient)"/>
        <g id="Group_737" data-name="Group 737">
          <path id="Path_695" data-name="Path 695" d="M400.9,265.1a3.806,3.806,0,0,0,2.5-1.7c.5-1.4-.8-2.7-1.9-3.6-3.2-2.4-6.5-4.7-10.4-5.7-3.8-1.1-8.2-.8-11.4,1.6-2.2,1.6-4.1,4.3-6.8,3.9-1.7-.3-2.9-1.7-4.4-2.5-3-1.5-6.8-.3-9.2,2.1s-3.7,5.6-5,8.7c-.4,1-.8,2.1-.2,3.1,1.3,2.2,7.8,5,10.3,5.4,3.3.5,6.9-1.4,9.9-2.4C383.2,271,392.1,268.1,400.9,265.1Z" fill="url(#linear-gradient-2)"/>
          <g id="Group_736" data-name="Group 736">
            <path id="Path_696" data-name="Path 696" d="M298.6,280.7c2.3-.3,4.7.4,6.8-.5,4-1.6,4.5-6.9,5.2-11.1a34.169,34.169,0,0,1,2.6-8.4,4.7,4.7,0,0,1,1.7-2.2c1.7-1,3.7.2,5.5.8a9.4,9.4,0,0,0,9.4-2.5c1-1,1.7-2.3,2.8-3.1,2.5-2,6.2-1.4,8.7.5s3.9,4.9,4.9,7.9c1.2,3.5,2.9,7.8,6.6,7.8,2,0,3.7-1.5,5.7-2,2.4-.5,5,.9,6.5,2.8a15.7,15.7,0,0,1,2.6,6.9,2.05,2.05,0,0,1-1.7,2.8c-10.9,3.7-22.4,5.7-33.1,9.9a156.536,156.536,0,0,0-20.4,10.4c-4.7,2.7-10.6,7.5-16.4,5.9C285,303.4,287.2,282,298.6,280.7Z" fill="url(#linear-gradient-3)"/>
            <g id="Group_735" data-name="Group 735" opacity="0.42">
              <line id="Line_134" data-name="Line 134" y2="22.9" transform="translate(329.6 268.7)" fill="none" stroke="#c6e5e1" stroke-miterlimit="10" stroke-width="0.25"/>
              <line id="Line_135" data-name="Line 135" y1="7.8" x2="4.1" transform="translate(330.8 272.3)" fill="none" stroke="#c6e5e1" stroke-miterlimit="10" stroke-width="0.25"/>
              <line id="Line_136" data-name="Line 136" x2="11.1" y2="7.4" transform="translate(318.5 280.1)" fill="none" stroke="#c6e5e1" stroke-miterlimit="10" stroke-width="0.25"/>
            </g>
          </g>
        </g>
        <path id="Path_697" data-name="Path 697" d="M502.4,275.1s-76.3-59.3-252.1,57.1,292.6,15.6,292.6,15.6Z" fill="url(#linear-gradient-4)"/>
        <path id="Path_698" data-name="Path 698" d="M28.2-1S-32.7,64.5,57,101.5c42.7,11.1,57.6,0,69.4,0s24.6,18.3,57.1,20,39.6-21.2,55.5-22.3,42.3,22.7,75,12.6,78.8-51,78.8-51,27.9,13.1,59.4,5.7c31.5-7.3,29.1-26.9,50.3-31.9s50.4-.7,50.4-.7l-3.4-34Z" fill="url(#linear-gradient-5)"/>
        <path id="Path_699" data-name="Path 699" d="M475,330c34.2-132.5,19.7-161.2,16.3-173.6-5.2-19.1-29.8-75.2-108.8-90-29.2-5.8-118.4,19.8-143.6,21s-56.8-12.1-56.8-12.1l-2.9-5.4S221.2,81,238.9,80s63.3-16.3,63.3-16.3-38.5-7.3-46.9-17.4-27.7-10.5,4.5-1.5,45,8.5,45,8.5,57.8-6.4,81.4-4.5C448.8,52,491.1,98.5,505.5,85.6s-32.6-67.9-35-85.7,6.7,0,6.7,0,39.7,58,43,54-.3-35.3,17-57.9,20.48.36,20.48.36L552.7,393H488.3C488.4,393,440.8,462.5,475,330Z" fill="#918670"/>
        <path id="Path_700" data-name="Path 700" d="M557.04,47.59C545.54,94.89,527.3,241.9,535.3,272.2c3.9,14.8,10.8,15.3,17.6,10.7Z" fill="#7f7661"/>
        <path id="Path_701" data-name="Path 701" d="M97.1-4.5S62.2,72.2,119.2,90.1a57.58,57.58,0,0,0,33.4.1C191,79,191.3,58.9,206.5,52.1c17-7.6,37.6,9.9,62.3-.5s29.5-64.3,29.5-64.3Z" fill="#aac4bf"/>
        <path id="Path_702" data-name="Path 702" d="M34.4,175.7c24,2.7,84.8-6.9,98.4-3.5s52.9,4.8,52.9-2.9c0-5.5-10.3-8.1-16.2-9.2a17.259,17.259,0,0,1-7.4-3.4c-5.9-4.8-12.6-14.5-27.7-18.1-20.3-4.9-36.3,10.9-41.3,11.9S69.3,130.2,50,130.2s-28,16.3-28,16.3S10.4,173,34.4,175.7Z" fill="url(#linear-gradient-6)"/>
        <path id="Path_703" data-name="Path 703" d="M293.8,174.5c-2.1,5.1,1.2,11.1,5.9,13.9s10.5,3.1,16,3.3q19.2.75,38.4.6a151.341,151.341,0,0,0,21.3-1.3c6.5-1,12.8-2.7,19.3-4.2,35.7-8.1,72.7-7.2,109.3-5.7,1.9.1,4.2,0,5.3-1.6a6.191,6.191,0,0,0,.7-1.9,21.119,21.119,0,0,0-21.8-25.3c-3.8.2-8.4,1.1-10.9-1.8-.9-1-1.3-2.4-2.2-3.4-3.2-3.6-10.3-.8-13.5-4.4-1.6-1.9-1.4-4.6-2.2-6.9-1.7-4.8-7.2-7-12.2-8.1-5-1-10.5-1.6-14.2-5.1-2.5-2.4-3.8-5.8-6.4-8.2s-6.2-3.4-9.6-4.4c-5.1-1.4-10.2-2.8-15.4-3-18.5-.9-35.4,12.3-44.4,28.6-3.4,6.2-6.6,13.5-13.3,16-5.4,2-11.3.7-16.6,3.5-3.8,2-5.9,5.4-9.1,8C311.2,168.8,297.9,164.8,293.8,174.5Z" fill="url(#linear-gradient-7)"/>
        <path id="Path_704" data-name="Path 704" d="M57.1,384.5c9.3,19.1,24.9,48.6,51.1,60.2,109.5,48.7,178.3-24.7,195.6-30.1,13.2-4.1,60-6.7,90.2-9.8C246.7,272.5,98.8,356,57.1,384.5Z" fill="#afc8c3"/>
        <path id="Path_705" data-name="Path 705" d="M495.9,118.6c-16.6-17.4-38.1-26.6-56.7-30.4C474.6,111,488,143,491.7,156.5c2.4,8.8,10.4,25.8,2.6,82.6a44.21,44.21,0,0,0-10-5.7,28.527,28.527,0,0,1,8.8,13.8c-3.4,21.8-8.9,49-17.7,82.9-2.9,11.3-5.2,21.1-7,29.6,12.8-4.8,38.4-24.3,54.1-102.1a83.288,83.288,0,0,0,1.5-14.1C524.2,215.3,519.9,143.8,495.9,118.6Z" fill="url(#linear-gradient-8)"/>
        <path id="Path_706" data-name="Path 706" d="M557.7,248.9s-6.2-18.1-17.2-21.3a99.86,99.86,0,0,1-4.6,11.4l-2.2-20.1s-3.1-8.2-24.4-24.4c0,88,48.4,132.9,48.4,132.9Z" fill="#9eb9b4"/>
        <path id="Path_707" data-name="Path 707" d="M515,214.3s18.3,65.9,42.6,73.2" fill="none" stroke="#c6e5e1" stroke-miterlimit="10" stroke-width="0.25"/>
        <path id="Path_708" data-name="Path 708" d="M545.8,241c1.7,9.9-5.5,31.3-5.5,31.3" fill="none" stroke="#c6e5e1" stroke-miterlimit="10" stroke-width="0.25"/>
        <path id="Path_709" data-name="Path 709" d="M523,257.3c3.3,2.5,9.7,2.5,9.7,2.5" fill="none" stroke="#c6e5e1" stroke-miterlimit="10" stroke-width="0.25"/>
        <path id="Path_710" data-name="Path 710" d="M516.1,236.4c3.3,2.5,8.9,5.9,8.9,5.9" fill="none" stroke="#c6e5e1" stroke-miterlimit="10" stroke-width="0.25"/>
        <path id="Path_711" data-name="Path 711" d="M567.5,341.7s-21.8-38.9-44.5-41.9c26.4,31.6,32.6,55.1,32.6,55.1Z" fill="#aac4bf"/>
        <path id="Path_712" data-name="Path 712" d="M484.2,384.4c.7,0,23.2-4.2,53.7-36.1-30.5-2-67.8,34.4-67.8,34.4Z" fill="#aac4bf"/>
        <path id="Path_713" data-name="Path 713" d="M459.2,389.3c.7-.1,40.4-20.7,65.7-62-30.5,2.3-79.9,62.2-79.9,62.2Z" fill="#9eb9b4"/>
        <path id="Path_714" data-name="Path 714" d="M461.9,382.7c.6-.4,29.6-34.4,37.6-82.1-27.3,13.6-50.6,87.7-50.6,87.7Z" fill="#92aea9"/>
        <path id="Path_715" data-name="Path 715" d="M324.2,352.7s-2-37.6,60.6-83.6c2.9-1.6,10.6-3,10.6-3s-28.7,52.5-13.1,76.7-49.6,29.6-49.6,29.6c-2.7,2.1-7.9-1.2-7.9-1.2" fill="#f9e5c4"/>
        <g id="Group_760" data-name="Group 760">
          <g id="Group_759" data-name="Group 759">
            <g id="Group_758" data-name="Group 758">
              <g id="Group_757" data-name="Group 757" clip-path="url(#clip-path-2)">
                <g id="Group_751" data-name="Group 751">
                  <path id="Path_716" data-name="Path 716" d="M131.6,342.9c-9.3,10.9-13.1,36.2-12.5,49.2a2.11,2.11,0,0,0,2.4,2c45.4-5.4,141.2-4,155.3-3.8a2.14,2.14,0,0,0,2.1-1.7c1.9-8.5,10.7-46.2,16.4-48.7,6-2.6-65.6-20.1-86.5-20.9-1,0-70.1,12.7-70.3,13.6C138.1,334.3,136.4,337.3,131.6,342.9Z" fill="#fcf6d6"/>
                  <g id="Group_738" data-name="Group 738">
                    <path id="Path_717" data-name="Path 717" d="M122.9,390a33.756,33.756,0,0,0-1.3,4.2c-.5,2.2-1,5,.3,7.1a1.458,1.458,0,1,0,2.5-1.5c-.1-.1-.1-.2-.2-.3-.1-.2.1.3,0,0-.1-.2-.1-.5-.2-.7-.1-.3,0,.3,0,0v-1.2a2.2,2.2,0,0,1,.1-.8c0-.1.1-.6,0-.2v-.4c.1-.5.2-1.1.3-1.6a29.067,29.067,0,0,1,1.2-3.9,1.474,1.474,0,0,0-1-1.8,1.556,1.556,0,0,0-1.7,1.1Z" fill="#fcf6d6"/>
                  </g>
                  <g id="Group_739" data-name="Group 739">
                    <path id="Path_718" data-name="Path 718" d="M132.9,388.7a33.756,33.756,0,0,0-1.3,4.2c-.5,2.2-1,5,.3,7.1a1.458,1.458,0,1,0,2.5-1.5c-.1-.1-.1-.2-.2-.3-.1-.2.1.3,0,0-.1-.2-.1-.5-.2-.7-.1-.3,0,.3,0,0v-1.2a2.2,2.2,0,0,1,.1-.8c0-.1.1-.6,0-.2v-.4c.1-.5.2-1.1.3-1.6a29.067,29.067,0,0,1,1.2-3.9,1.474,1.474,0,0,0-1-1.8,1.522,1.522,0,0,0-1.7,1.1Z" fill="#fcf6d6"/>
                  </g>
                  <g id="Group_740" data-name="Group 740">
                    <path id="Path_719" data-name="Path 719" d="M143,387.7a33.756,33.756,0,0,0-1.3,4.2c-.5,2.2-1,5,.3,7.1a1.458,1.458,0,1,0,2.5-1.5c-.1-.1-.1-.2-.2-.3-.1-.2.1.3,0,0-.1-.2-.1-.5-.2-.7-.1-.3,0,.3,0,0v-1.2a2.2,2.2,0,0,1,.1-.8c0-.1.1-.6,0-.2v-.4c.1-.5.2-1.1.3-1.6a29.067,29.067,0,0,1,1.2-3.9,1.474,1.474,0,0,0-1-1.8,1.7,1.7,0,0,0-1.7,1.1Z" fill="#fcf6d6"/>
                  </g>
                  <g id="Group_741" data-name="Group 741">
                    <path id="Path_720" data-name="Path 720" d="M127.7,355.4a26.672,26.672,0,0,0-4.2-2c-2.2-.9-4.8-1.6-7.1-.6a1.458,1.458,0,1,0,1.5,2.5h0a.367.367,0,0,0,.3-.1c.3-.1-.3,0,0,0h1.2a.367.367,0,0,1,.3.1,19.661,19.661,0,0,1,3.2,1c.4.1-.2-.1.1,0,.1.1.3.1.4.2l.6.3a10.907,10.907,0,0,1,1.1.6c.4.2.7.4,1.1.6a1.554,1.554,0,0,0,2-.5,1.654,1.654,0,0,0-.5-2.1Z" fill="#dbc69f"/>
                  </g>
                  <g id="Group_742" data-name="Group 742">
                    <path id="Path_721" data-name="Path 721" d="M127.4,365.5a26.672,26.672,0,0,0-4.2-2c-2.2-.9-4.8-1.6-7.1-.6a1.458,1.458,0,0,0,1.5,2.5h0a.367.367,0,0,0,.3-.1c.3-.1-.3,0,0,0h1.2a.367.367,0,0,1,.3.1,19.661,19.661,0,0,1,3.2,1c.4.1-.2-.1.1,0,.1.1.3.1.4.2l.6.3a10.907,10.907,0,0,1,1.1.6c.4.2.7.4,1.1.6a1.5,1.5,0,0,0,1.5-2.6Z" fill="#fcf6d6"/>
                  </g>
                  <g id="Group_743" data-name="Group 743">
                    <path id="Path_722" data-name="Path 722" d="M126.8,375.7a26.672,26.672,0,0,0-4.2-2c-2.2-.9-4.8-1.6-7.1-.6a1.458,1.458,0,0,0,1.5,2.5h0a.367.367,0,0,0,.3-.1c.3-.1-.3,0,0,0h1.2a.367.367,0,0,1,.3.1,19.661,19.661,0,0,1,3.2,1c.4.1-.2-.1.1,0,.1.1.3.1.4.2l.6.3a10.907,10.907,0,0,1,1.1.6c.4.2.7.4,1.1.6a1.5,1.5,0,0,0,1.5-2.6Z" fill="#fcf6d6"/>
                  </g>
                  <g id="Group_744" data-name="Group 744">
                    <path id="Path_723" data-name="Path 723" d="M123,382.5a22.378,22.378,0,0,0-8.5,2.3,5.827,5.827,0,0,0-2.3,2.1,1.554,1.554,0,0,0,.5,2,1.456,1.456,0,0,0,2-.5c0-.1.1-.1.1-.2.1-.2-.2.2,0,0,.1-.1.2-.3.4-.4,0,0,.3-.2.1-.1s0,0,.1-.1c.2-.1.3-.2.5-.3s.3-.2.5-.3c.1,0,.2-.1.3-.1s.4-.2.2-.1.1,0,.2-.1c.1,0,.2-.1.3-.1.2-.1.4-.1.6-.2a24.24,24.24,0,0,1,4.5-1h.7a1.538,1.538,0,0,0,1.5-1.5c-.3-.6-.9-1.4-1.7-1.4Z" fill="#fcf6d6"/>
                  </g>
                  <g id="Group_745" data-name="Group 745">
                    <path id="Path_724" data-name="Path 724" d="M166.4,388.7a33.756,33.756,0,0,0-1.3,4.2c-.5,2.2-1,5,.3,7.1a1.458,1.458,0,0,0,2.5-1.5c-.1-.1-.1-.2-.2-.3-.1-.2.1.3,0,0-.1-.2-.1-.5-.2-.7-.1-.3,0,.3,0,0v-1.2a2.2,2.2,0,0,1,.1-.8c0-.1.1-.6,0-.2v-.4c.1-.5.2-1.1.3-1.6a29.067,29.067,0,0,1,1.2-3.9,1.474,1.474,0,0,0-1-1.8c-.7-.2-1.4.4-1.7,1.1Z" fill="#fcf6d6"/>
                  </g>
                  <g id="Group_746" data-name="Group 746">
                    <path id="Path_725" data-name="Path 725" d="M176.4,387.4a33.756,33.756,0,0,0-1.3,4.2c-.5,2.2-1,5,.3,7.1a1.458,1.458,0,0,0,2.5-1.5c-.1-.1-.1-.2-.2-.3-.1-.2.1.3,0,0-.1-.2-.1-.5-.2-.7-.1-.3,0,.3,0,0V395a2.2,2.2,0,0,1,.1-.8c0-.1.1-.6,0-.2v-.4c.1-.5.2-1.1.3-1.6a29.067,29.067,0,0,1,1.2-3.9,1.4,1.4,0,1,0-2.7-.7Z" fill="#fcf6d6"/>
                  </g>
                  <g id="Group_747" data-name="Group 747">
                    <path id="Path_726" data-name="Path 726" d="M186.6,386.4a33.756,33.756,0,0,0-1.3,4.2c-.5,2.2-1,5,.3,7.1a1.458,1.458,0,0,0,2.5-1.5c-.1-.1-.1-.2-.2-.3-.1-.2.1.3,0,0-.1-.2-.1-.5-.2-.7-.1-.3,0,.3,0,0V394a2.2,2.2,0,0,1,.1-.8c0-.1.1-.6,0-.2v-.4c.1-.5.2-1.1.3-1.6a29.067,29.067,0,0,1,1.2-3.9,1.474,1.474,0,0,0-1-1.8,1.626,1.626,0,0,0-1.7,1.1Z" fill="#dbc69f"/>
                  </g>
                  <g id="Group_748" data-name="Group 748">
                    <path id="Path_727" data-name="Path 727" d="M203.2,387.6a33.756,33.756,0,0,0-1.3,4.2c-.5,2.2-1,5,.3,7.1a1.458,1.458,0,1,0,2.5-1.5c-.1-.1-.1-.2-.2-.3-.1-.2.1.3,0,0-.1-.2-.1-.5-.2-.7-.1-.3,0,.3,0,0v-1.2a2.2,2.2,0,0,1,.1-.8c0-.1.1-.6,0-.2v-.4c.1-.5.2-1.1.3-1.6a29.067,29.067,0,0,1,1.2-3.9,1.4,1.4,0,1,0-2.7-.7Z" fill="#dbc69f"/>
                  </g>
                  <g id="Group_749" data-name="Group 749">
                    <path id="Path_728" data-name="Path 728" d="M213.2,386.3a33.756,33.756,0,0,0-1.3,4.2c-.5,2.2-1,5,.3,7.1a1.458,1.458,0,1,0,2.5-1.5c-.1-.1-.1-.2-.2-.3-.1-.2.1.3,0,0-.1-.2-.1-.5-.2-.7-.1-.3,0,.3,0,0v-1.2a2.2,2.2,0,0,1,.1-.8c0-.1.1-.6,0-.2v-.4c.1-.5.2-1.1.3-1.6a29.067,29.067,0,0,1,1.2-3.9,1.4,1.4,0,1,0-2.7-.7Z" fill="#dbc69f"/>
                  </g>
                  <g id="Group_750" data-name="Group 750">
                    <path id="Path_729" data-name="Path 729" d="M223.4,385.3a33.756,33.756,0,0,0-1.3,4.2c-.5,2.2-1,5,.3,7.1a1.458,1.458,0,0,0,2.5-1.5c-.1-.1-.1-.2-.2-.3-.1-.2.1.3,0,0-.1-.2-.1-.5-.2-.7-.1-.3,0,.3,0,0v-1.2a2.2,2.2,0,0,1,.1-.8c0-.1.1-.6,0-.2v-.4c.1-.5.2-1.1.3-1.6a29.067,29.067,0,0,1,1.2-3.9,1.474,1.474,0,0,0-1-1.8,1.626,1.626,0,0,0-1.7,1.1Z" fill="#dbc69f"/>
                  </g>
                </g>
                <g id="Group_756" data-name="Group 756">
                  <g id="Group_752" data-name="Group 752">
                    <path id="SVGID_13_" d="M140.7,331.4a2.077,2.077,0,0,0-2.1,1.5c-.4,1.5-2.1,4.5-6.9,10.1a37.9,37.9,0,0,0-6.3,11.3,15.384,15.384,0,0,0-1.9-.8c-2.2-.9-4.8-1.6-7.1-.6a1.458,1.458,0,0,0,1.5,2.5h0a.367.367,0,0,0,.3-.1h1.2a.367.367,0,0,1,.3.1,19.661,19.661,0,0,1,3.2,1h.1c.1.1.3.1.4.2l.6.3c.1,0,.2.1.3.2-.7,2-1.3,4.1-1.9,6.3-2-.7-4.3-1.2-6.4-.4a1.458,1.458,0,0,0,1.5,2.5h0a.367.367,0,0,0,.3-.1H119a.367.367,0,0,1,.3.1,8.779,8.779,0,0,1,2.3.7c-.5,2.3-1,4.6-1.3,6.9a7.173,7.173,0,0,0-5,.1,1.458,1.458,0,0,0,1.5,2.5h0a.367.367,0,0,0,.3-.1h1.2a.367.367,0,0,1,.3.1c.4.1.8.2,1.1.3-.3,2.5-.6,5-.8,7.3a19.556,19.556,0,0,0-4.8,1.7,5.827,5.827,0,0,0-2.3,2.1,1.554,1.554,0,0,0,.5,2,1.456,1.456,0,0,0,2-.5c0-.1.1-.1.1-.2l.4-.4h0l.1-.1c.2-.1.3-.2.5-.3s.3-.2.5-.3c.1,0,.2-.1.3-.1l.2-.1h.1c.1,0,.2-.1.3-.1.2-.1.4-.1.6-.2a5.639,5.639,0,0,0,1.2-.4,59.889,59.889,0,0,0,0,6,2.11,2.11,0,0,0,2.4,2h.1v.1c-.5,2.2-1,5,.3,7.1a1.458,1.458,0,0,0,2.5-1.5c-.1-.1-.1-.2-.2-.3h0c-.1-.2-.1-.5-.2-.7h0v-1.2a2.2,2.2,0,0,1,.1-.8v-.5c.1-.5.2-1.1.3-1.6a2.92,2.92,0,0,0,.2-.9c2.2-.2,4.5-.5,6.8-.7-.5,2.2-.9,4.9.3,6.9a1.458,1.458,0,1,0,2.5-1.5c-.1-.1-.1-.2-.2-.3h0c-.1-.2-.1-.5-.2-.7h0v-1.2a2.2,2.2,0,0,1,.1-.8v-.5c.1-.5.2-1.1.3-1.6a4.331,4.331,0,0,0,.1-.5c2.3-.2,4.6-.4,7-.5-.5,2.1-.8,4.7.4,6.7a1.458,1.458,0,1,0,2.5-1.5c-.1-.1-.1-.2-.2-.3h0c-.1-.2-.1-.5-.2-.7h0v-1.2a2.2,2.2,0,0,1,.1-.8v-.5c.1-.5.2-1.1.3-1.6,0-.1,0-.1.1-.2,6.6-.4,13.7-.8,21-1-.2.6-.3,1.1-.5,1.7-.5,2.2-1,5,.3,7.1a1.458,1.458,0,1,0,2.5-1.5c-.1-.1-.1-.2-.2-.3h0c-.1-.2-.1-.5-.2-.7h0v-1.2a2.2,2.2,0,0,1,.1-.8v-.5c.1-.5.2-1.1.3-1.6a20.154,20.154,0,0,1,.7-2.3c2.2-.1,4.4-.1,6.7-.2-.1.3-.1.5-.2.8-.5,2.2-1,5,.3,7.1a1.458,1.458,0,1,0,2.5-1.5c-.1-.1-.1-.2-.2-.3h0c-.1-.2-.1-.5-.2-.7h0v-1.2a2.2,2.2,0,0,1,.1-.8v-.5c.1-.5.2-1.1.3-1.6a6.469,6.469,0,0,1,.4-1.3c2.3-.1,4.6-.1,6.9-.2v.1c-.5,2.2-1,5,.3,7.1a1.458,1.458,0,1,0,2.5-1.5c-.1-.1-.1-.2-.2-.3h0c-.1-.2-.1-.5-.2-.7h0v-1.2a2.2,2.2,0,0,1,.1-.8v-.5c.1-.5.2-1.1.3-1.6a1.421,1.421,0,0,1,.2-.6c4.7-.1,9.4-.2,14-.2-.1.5-.3,1-.4,1.5-.5,2.2-1,5,.3,7.1a1.458,1.458,0,1,0,2.5-1.5c-.1-.1-.1-.2-.2-.3h0c-.1-.2-.1-.5-.2-.7h0v-1.2a2.2,2.2,0,0,1,.1-.8v-.5c.1-.5.2-1.1.3-1.6a14.621,14.621,0,0,0,.5-2c2.2,0,4.5,0,6.7-.1,0,.1-.1.2-.1.3-.5,2.2-1,5,.3,7.1a1.458,1.458,0,0,0,2.5-1.5c-.1-.1-.1-.2-.2-.3h0c-.1-.2-.1-.5-.2-.7h0v-1.2a2.2,2.2,0,0,1,.1-.8v-.5c.1-.5.2-1.1.3-1.6.1-.3.1-.5.2-.8h6.9c-.5,2.1-.8,4.6.4,6.5a1.458,1.458,0,0,0,2.5-1.5c-.1-.1-.1-.2-.2-.3h0c-.1-.2-.1-.5-.2-.7h0v-1.2a2.2,2.2,0,0,1,.1-.8v-.5l.3-1.5c25.2-.1,45.8.2,51.8.3a2.14,2.14,0,0,0,2.1-1.7c1.9-8.5,10.7-46.2,16.4-48.7C301.3,337.7,161.6,332.2,140.7,331.4Z" fill="#fcf6d6"/>
                  </g>
                  <g id="Group_755" data-name="Group 755">
                    <g id="Group_754" data-name="Group 754">
                      <g id="Group_753" data-name="Group 753" clip-path="url(#clip-path-3)">
                        <path id="Path_730" data-name="Path 730" d="M149.4,340.9s-15.9,36.7-13.7,51.9" fill="none" stroke="#f4cd77" stroke-miterlimit="10" stroke-width="1"/>
                        <path id="Path_731" data-name="Path 731" d="M183.1,340s-19.5,38.3-18,52.9" fill="none" stroke="#f4cd77" stroke-miterlimit="10" stroke-width="1"/>
                        <path id="Path_732" data-name="Path 732" d="M240.3,338.9s-17.7,31.7-18.2,50.6" fill="none" stroke="#f4cd77" stroke-miterlimit="10" stroke-width="1"/>
                        <path id="Path_733" data-name="Path 733" d="M264.6,340s-21,37.3-19.2,49" fill="none" stroke="#f4cd77" stroke-miterlimit="10" stroke-width="1"/>
                        <path id="Path_734" data-name="Path 734" d="M283.9,338.9s-24.5,28-22.8,53" fill="none" stroke="#f4cd77" stroke-miterlimit="10" stroke-width="1"/>
                        <path id="Path_735" data-name="Path 735" d="M116.2,378.4s101.9-10.7,167.7,0" fill="none" stroke="#f4cd77" stroke-miterlimit="10" stroke-width="1"/>
                        <path id="Path_736" data-name="Path 736" d="M116.9,363.8s101.9-10.7,167.7,0" fill="none" stroke="#f4cd77" stroke-miterlimit="10" stroke-width="1"/>
                      </g>
                    </g>
                  </g>
                </g>
              </g>
            </g>
          </g>
        </g>
        <g id="Group_769" data-name="Group 769">
          <g id="Group_762" data-name="Group 762">
            <path id="Path_739" data-name="Path 739" d="M48.4,235.7s4.5-28.7,24.3-20.3,7.4,82.1,12.9,86.3c5.4,4.2,17.8-10.9,23.2,0S88.4,382,92,383.5s6-10.5,11.4-7.4,12.9,64.7,12.9,64.7L58.9,419.2,31.2,328.1Z" fill="url(#linear-gradient-9)"/>
            <g id="Group_761" data-name="Group 761">
              <path id="Path_740" data-name="Path 740" d="M68,245.6S43.2,345.2,50.1,365" fill="none" stroke="#c6e5e1" stroke-miterlimit="10" stroke-width="0.25"/>
              <path id="Path_741" data-name="Path 741" d="M69.4,290.1c-1.3,8.6-14,13.5-14,13.5" fill="none" stroke="#c6e5e1" stroke-miterlimit="10" stroke-width="0.25"/>
              <path id="Path_742" data-name="Path 742" d="M93.4,314.2c0,11.2-18.8,22.4-22.1,47.3s11,57.7,11,57.7" fill="none" stroke="#c6e5e1" stroke-miterlimit="10" stroke-width="0.25"/>
              <path id="Path_743" data-name="Path 743" d="M93.4,340c-8.6,18-22.3,22.9-22.3,22.9" fill="none" stroke="#c6e5e1" stroke-miterlimit="10" stroke-width="0.25"/>
            </g>
          </g>
          <g id="Group_768" data-name="Group 768">
            <path id="Path_744" data-name="Path 744" d="M166,386.4c-25.2,25.7-34.1,65-34.1,65L118,439.6S138.8,394.7,166,386.4Z" fill="#9eb9b4"/>
            <g id="Group_763" data-name="Group 763">
              <path id="Path_745" data-name="Path 745" d="M347.9,369.2s-.3-12.8-5.6-16.4-8.2-.7-18.1,0-5.6-24-14.2-23.4-5.6,20.2-10.5,25.5c-5,5.4-16,.8-16.9,8.7s5.7,10.4,3.7,14.4-12.5,5.3-17.5,13.9c-3.3,5.8-11.9,28.4,11.8,39.6s67.3-6.1,67.3-6.1V369.2Z" fill="url(#linear-gradient-10)"/>
              <path id="Path_746" data-name="Path 746" d="M310.9,344.4s-2.6,69.9,6.2,78.8" fill="none" stroke="#c6e5e1" stroke-miterlimit="10" stroke-width="0.25"/>
              <path id="Path_747" data-name="Path 747" d="M310.6,379.6s20.9-9.7,22.9-18.1" fill="none" stroke="#c6e5e1" stroke-miterlimit="10" stroke-width="0.25"/>
              <path id="Path_748" data-name="Path 748" d="M298.2,367.9s5.4,14.7,12.7,20.4" fill="none" stroke="#c6e5e1" stroke-miterlimit="10" stroke-width="0.25"/>
              <path id="Path_749" data-name="Path 749" d="M285.3,388.3s14.9,14.7,26.3,11.9" fill="none" stroke="#c6e5e1" stroke-miterlimit="10" stroke-width="0.25"/>
              <path id="Path_750" data-name="Path 750" d="M289.4,398.2s5,.1,8.1-1" fill="none" stroke="#c6e5e1" stroke-miterlimit="10" stroke-width="0.25"/>
            </g>
            <g id="Group_765" data-name="Group 765">
              <path id="Path_751" data-name="Path 751" d="M410.8,348.2s-.7-16.7-10.4-17.1-10.4,4.8-14.1,4c-3.7-.7-10.1-18-16.8-15.8-6.1,2-14.2,6-11.9,31.1a11.432,11.432,0,0,1-4.9,10.5c-11,7.6-12.6,9-13.6,14.5-1,5.4,6.4,9.9,7.4,14.1s-20.4,15.8-11.6,25.2c8.9,9.4,77.6.7,77.6.7Z" fill="url(#linear-gradient-11)"/>
              <g id="Group_764" data-name="Group 764">
                <line id="Line_137" data-name="Line 137" x2="27.8" y2="84.8" transform="translate(372.6 337.2)" fill="none" stroke="#c6e5e1" stroke-miterlimit="10" stroke-width="0.25"/>
                <path id="Path_752" data-name="Path 752" d="M395.4,361.6s-3.8,20.1-7.7,21.7" fill="none" stroke="#c6e5e1" stroke-miterlimit="10" stroke-width="0.25"/>
                <line id="Line_138" data-name="Line 138" x2="11.3" y2="10.9" transform="translate(371 356)" fill="none" stroke="#c6e5e1" stroke-miterlimit="10" stroke-width="0.25"/>
                <path id="Path_753" data-name="Path 753" d="M355,373.8s25,12.4,31.5,7.1" fill="none" stroke="#c6e5e1" stroke-miterlimit="10" stroke-width="0.25"/>
                <path id="Path_754" data-name="Path 754" d="M366.9,369.2s5.8,7.5,5.7,11.5" fill="none" stroke="#c6e5e1" stroke-miterlimit="10" stroke-width="0.25"/>
                <path id="Path_755" data-name="Path 755" d="M359.3,385.7s10,3,17.3-3.5" fill="none" stroke="#c6e5e1" stroke-miterlimit="10" stroke-width="0.25"/>
              </g>
            </g>
            <g id="Group_766" data-name="Group 766">
              <path id="Path_756" data-name="Path 756" d="M450.8,395.3s26.7-65.4,19.3-74.2c-5,4-19.3,11.7-19.3,11.7l15.6-20s.8-40.9-8.2-66.2C375.9,329.3,408.9,412,408.9,412Z" fill="url(#linear-gradient-12)"/>
              <path id="Path_757" data-name="Path 757" d="M452.3,272.3s-37,79.1-15.4,129.9" fill="none" stroke="#c6e5e1" stroke-miterlimit="10" stroke-width="0.25"/>
              <path id="Path_758" data-name="Path 758" d="M434.5,285.2s7.7,13,5.7,19.5" fill="none" stroke="#c6e5e1" stroke-miterlimit="10" stroke-width="0.25"/>
              <path id="Path_759" data-name="Path 759" d="M424,319.4a50.645,50.645,0,0,1,7.7,23.5" fill="none" stroke="#c6e5e1" stroke-miterlimit="10" stroke-width="0.25"/>
              <path id="Path_760" data-name="Path 760" d="M436.9,316.7s14.6-7.3,16.7-11.9" fill="none" stroke="#c6e5e1" stroke-miterlimit="10" stroke-width="0.25"/>
              <path id="Path_761" data-name="Path 761" d="M430.1,361.6s17.4-7.4,18.7-13.4" fill="none" stroke="#c6e5e1" stroke-miterlimit="10" stroke-width="0.25"/>
            </g>
            <g id="Group_767" data-name="Group 767">
              <path id="Path_762" data-name="Path 762" d="M232.5,453.9S210.7,415,188,412c26.4,31.6,32.6,55.1,32.6,55.1Z" fill="#92aea9"/>
              <path id="Path_763" data-name="Path 763" d="M252,382.2c-5.6,1.6-35.4,47.8-28,64.3s11.2,0,11.2,0S248.5,396.1,252,382.2Z" fill="#9eb9b4"/>
              <path id="Path_764" data-name="Path 764" d="M262.8,397.7c-5.8.7-42.6,41.5-37.9,59s11,1.8,11,1.8S257.2,410.9,262.8,397.7Z" fill="#92aea9"/>
              <path id="Path_765" data-name="Path 765" d="M280.6,404.6c-5.8-.1-47.7,35.6-45.3,53.6,2.4,17.9,10.7,3.2,10.7,3.2S273.3,416.9,280.6,404.6Z" fill="#aac4bf"/>
            </g>
          </g>
        </g>
        <g id="Group_799" data-name="Group 799">
          <path id="Path_766" data-name="Path 766" d="M239.3,310.5H173V224.3l74.9,11Z" fill="#dea352"/>
          <g id="Group_777" data-name="Group 777">
            <g id="Group_776" data-name="Group 776">
              <path id="Path_767" data-name="Path 767" d="M210.7,391.2c6.4,2.3,13.3,4.4,16.1-3.3,2.9-6.5-4.1-9.7-10.4-12-6.4-2.3-12.8-.8-14.3,3.4C200.5,383.5,204.3,388.9,210.7,391.2Z" fill="#6b565c"/>
              <path id="Path_768" data-name="Path 768" d="M211.4,389.3c6.4,2.3,14,6,16.8-1.6,2.9-6.5-4.8-11.4-11.1-13.7-6.4-2.3-12.8-.8-14.3,3.4C201.2,381.6,205,386.9,211.4,389.3Z" fill="#81636b"/>
              <g id="Group_771" data-name="Group 771">
                <g id="Group_770" data-name="Group 770">
                  <path id="Path_769" data-name="Path 769" d="M215,378.4l-1.8,4.8c-.1.2-.2.5-.3.7a.8.8,0,0,0,.5.9.715.715,0,0,0,.9-.5l1.8-4.8c.1-.2.2-.5.3-.7a.728.728,0,1,0-1.4-.4Z" fill="#6b565c"/>
                </g>
              </g>
              <g id="Group_773" data-name="Group 773">
                <g id="Group_772" data-name="Group 772">
                  <path id="Path_770" data-name="Path 770" d="M217.7,379.4l-1.8,4.8c-.1.2-.2.5-.3.7a.8.8,0,0,0,.5.9.715.715,0,0,0,.9-.5l1.8-4.8c.1-.2.2-.5.3-.7a.8.8,0,0,0-.5-.9.715.715,0,0,0-.9.5Z" fill="#6b565c"/>
                </g>
              </g>
              <g id="Group_775" data-name="Group 775">
                <g id="Group_774" data-name="Group 774">
                  <path id="Path_771" data-name="Path 771" d="M220.1,380.3l-1.8,4.8c-.1.2-.2.5-.3.7a.8.8,0,0,0,.5.9.715.715,0,0,0,.9-.5l1.8-4.8c.1-.2.2-.5.3-.7a.8.8,0,0,0-.5-.9.653.653,0,0,0-.9.5Z" fill="#6b565c"/>
                </g>
              </g>
            </g>
            <path id="Path_772" data-name="Path 772" d="M210.8,379.7h0a4.408,4.408,0,0,0-3.2-5.2l-9.2-2.1a4.408,4.408,0,0,0-5.2,3.2h0a4.408,4.408,0,0,0,3.2,5.2l9.2,2.1A4.235,4.235,0,0,0,210.8,379.7Z" fill="#f9e5c4"/>
          </g>
          <path id="Path_773" data-name="Path 773" d="M267.3,343.6l-48.1-2.2-92.6,3.2,49.6,25.8,34.2,3.7Z" fill="#6a797c"/>
          <path id="Path_774" data-name="Path 774" d="M176.2,246.3s10.5,25.3,27.5,25.3,29.1-25.3,29.1-25.3L222,205.9l-49,21Z" fill="#f9e5c4"/>
          <path id="Path_775" data-name="Path 775" d="M186.6,207.6s-19.5-.9-21.6,16.2c-2,17.1,6.1,21.2,1,26.8s-14,6.6-12.3,14.5c1.8,7.9,7.6,7.5,6.1,11.9s-7.6,5.7-4.3,12.9,10.7,12.8,10.7,12.8l16.1-3.3,1-6.2s-4.3-3.5-3.1-7.1c1.3-3.6,8.9-16.8,6.2-23.5-.9-2.1-7.9-4-5.5-11.5,3.5-11-8-25.4,10.9-23.9,9.8-12.5,21-5.8,27.2,6.3,3.2,6.3,11.5,4.9,11.5,4.9l8.7.3s-7.6,10.9-5,17.8,9.2,10.2,6.9,15c-2.3,4.9-6.9,9.5-6.4,12.9s6.5,39.8,6.5,39.8,7.5,0,10-11.1,14.5-1.8,12-18.1-10.2-6.3-8.7-13.5,7.7-15.8.8-23.2-8.3-5.1-6.8-9.2,9.4-12.9,4.8-17.5c-4.6-4.7-12-5.9-12.5-9.8s1.2-24.3-29-25.5C198.2,196.2,186.6,207.6,186.6,207.6Z" fill="#e2b354"/>
          <g id="Group_778" data-name="Group 778">
            <path id="Path_776" data-name="Path 776" d="M229.3,229.1l-2.6,2.4-1.8-4.3Z" fill="#ede2e6"/>
            <path id="Path_777" data-name="Path 777" d="M241.3,247.1l-.5-.5a1.3,1.3,0,0,1,.1-1.9h0a1.4,1.4,0,0,1,1.9.1l.5.5a1.3,1.3,0,0,1-.1,1.9h0A1.39,1.39,0,0,1,241.3,247.1Z" fill="#af9ca2"/>
            <rect id="Rectangle_645" data-name="Rectangle 645" width="3.6" height="20.2" transform="matrix(0.743, -0.67, 0.67, 0.743, 226.653, 231.507)" fill="#81636b"/>
            <path id="Path_778" data-name="Path 778" d="M226.7,228l-1.8-.8.7,1.7Z" fill="#81636b"/>
          </g>
          <circle id="Ellipse_230" data-name="Ellipse 230" cx="5" cy="5" r="5" transform="translate(229.2 237)" fill="#f9e5c4"/>
          <circle id="Ellipse_231" data-name="Ellipse 231" cx="2.2" cy="2.2" r="2.2" transform="translate(232 239.8)" fill="#f9ddb4"/>
          <path id="Path_779" data-name="Path 779" d="M242.3,303.8s2.9,31.7-11.3,36.8c-7.8,2.8-5-1.8-2.8-9.9,1.9-6.7,2.6-16.2,3.6-22C233.7,308.6,242.3,303.8,242.3,303.8Z" fill="#f9e5c4"/>
          <path id="Path_780" data-name="Path 780" d="M224.4,278.4c17.7,2.5,23.5,23.1,23.5,23.1l-16.7,6.7-1.5,13.5-51-18.4s4.6-17.5,19.6-22C213.3,276.9,206.7,275.9,224.4,278.4Z" fill="#81636b"/>
          <path id="Path_781" data-name="Path 781" d="M227.7,279.2a18.63,18.63,0,0,0-3.4-.7c-5.6,10.4-24.8,2.3-24.8,2.3a48.927,48.927,0,0,0-4.6,1.9C202.8,288.4,220.7,290.9,227.7,279.2Z" fill="#7a5964"/>
          <path id="Path_782" data-name="Path 782" d="M205.5,270.1s.9,5.6-1.5,8a23.045,23.045,0,0,1-4.4,2.6c2.7,2.4,19.2,8.1,24.9-2.3-3.8-1.2-5.2-12.3-2.4-20.1C224.7,250.5,205.5,270.1,205.5,270.1Z" fill="#f9e5c4"/>
          <path id="Path_783" data-name="Path 783" d="M205.4,274.6c5.7-.8,14.3-4.7,15.4-11.6-4.2,4.2-9.4,7.7-15.2,8.4A19.468,19.468,0,0,1,205.4,274.6Z" fill="#f9ddb4"/>
          <path id="Path_784" data-name="Path 784" d="M231.2,308.3l-.3,2.2,17.7-6.9-.7-2Z" fill="#7a5964"/>
          <g id="Group_781" data-name="Group 781">
            <g id="Group_779" data-name="Group 779">
              <path id="Path_785" data-name="Path 785" d="M197.9,261.5a17.776,17.776,0,0,0,4.4-.5,5.072,5.072,0,0,0,1.6-.9c.3-.2.5-.5.8-.7a7.637,7.637,0,0,1,.9-.9,5.652,5.652,0,0,1,0,1.3,3.494,3.494,0,0,1-.5,1.3,4.327,4.327,0,0,1-2.2,1.8,5.331,5.331,0,0,1-2.8.1A4.589,4.589,0,0,1,197.9,261.5Z" fill="#f49b7f"/>
            </g>
            <g id="Group_780" data-name="Group 780">
              <path id="Path_786" data-name="Path 786" d="M197.6,261.4a21.264,21.264,0,0,0,4.5-.6,6.633,6.633,0,0,0,1.9-.9,8.08,8.08,0,0,0,1.6-1.6,3.858,3.858,0,0,1-1.1,2.2,6.662,6.662,0,0,1-2.1,1.3,10.074,10.074,0,0,1-2.5.3A11.879,11.879,0,0,1,197.6,261.4Z" fill="#ffb297"/>
            </g>
          </g>
          <circle id="Ellipse_232" data-name="Ellipse 232" cx="0.5" cy="0.5" r="0.5" transform="translate(213 250.7)" fill="#d4814c" opacity="0.23"/>
          <circle id="Ellipse_233" data-name="Ellipse 233" cx="0.5" cy="0.5" r="0.5" transform="translate(215.6 252.5)" fill="#d4814c" opacity="0.23"/>
          <circle id="Ellipse_234" data-name="Ellipse 234" cx="0.5" cy="0.5" r="0.5" transform="translate(217.5 241.5)" fill="#d4814c" opacity="0.23"/>
          <circle id="Ellipse_235" data-name="Ellipse 235" cx="0.5" cy="0.5" r="0.5" transform="translate(191.4 255.6)" fill="#d4814c" opacity="0.23"/>
          <circle id="Ellipse_236" data-name="Ellipse 236" cx="0.5" cy="0.5" r="0.5" transform="translate(186.7 254.5)" fill="#d4814c" opacity="0.23"/>
          <circle id="Ellipse_237" data-name="Ellipse 237" cx="0.5" cy="0.5" r="0.5" transform="translate(189.5 258.1)" fill="#d4814c" opacity="0.23"/>
          <circle id="Ellipse_238" data-name="Ellipse 238" cx="0.5" cy="0.5" r="0.5" transform="translate(223.4 247.6)" fill="#d4814c" opacity="0.23"/>
          <circle id="Ellipse_239" data-name="Ellipse 239" cx="0.5" cy="0.5" r="0.5" transform="translate(220.8 248.9)" fill="#d4814c" opacity="0.23"/>
          <circle id="Ellipse_240" data-name="Ellipse 240" cx="0.5" cy="0.5" r="0.5" transform="translate(225.4 242.7)" fill="#d4814c" opacity="0.23"/>
          <g id="Group_782" data-name="Group 782">
            <path id="Path_787" data-name="Path 787" d="M198.2,250.6a6.929,6.929,0,0,1,.3,2,14.768,14.768,0,0,1-.1,2.1,1.422,1.422,0,0,1-.2.6q0,.15-.3.3c0,.1.1-.1,0-.2,0-.1.1.1.2.2a.52.52,0,0,0,.4.2c.3.1.6.3.9.4a.972.972,0,0,0,.9-.1c-.1.4-.6.4-.9.5a2.958,2.958,0,0,1-1-.2c-.2,0-.3-.1-.5-.2s-.4-.1-.5-.5v-.4c0-.1.2-.2.2-.2V255c0-.1.1-.3.1-.4.1-.6.2-1.3.3-1.9A13.614,13.614,0,0,1,198.2,250.6Z" fill="#f2c5bb"/>
          </g>
          <g id="Group_783" data-name="Group 783">
            <path id="Path_788" data-name="Path 788" d="M203.4,235.7c-1,.7-1.6-.9-.7-1.7,2.9-2.4,7.4-3.2,10.4-1.4a.215.215,0,0,1-.1.4A15.219,15.219,0,0,0,203.4,235.7Z" fill="#dc9b52"/>
          </g>
          <g id="Group_784" data-name="Group 784">
            <path id="Path_789" data-name="Path 789" d="M190.6,240.6c1.1,0,.7-1.7-.4-1.7-3.6-.2-7.5,1.8-8.9,5-.1.2.2.4.4.3A13.988,13.988,0,0,1,190.6,240.6Z" fill="#dc9b52"/>
          </g>
          <g id="Group_785" data-name="Group 785">
            <ellipse id="Ellipse_241" data-name="Ellipse 241" cx="3.6" cy="4" rx="3.6" ry="4" transform="matrix(0.982, -0.19, 0.19, 0.982, 205.974, 238.35)" fill="#fff"/>
            <ellipse id="Ellipse_242" data-name="Ellipse 242" cx="2" cy="2.8" rx="2" ry="2.8" transform="matrix(0.967, -0.256, 0.256, 0.967, 207.151, 240.116)" fill="#7a9892"/>
            <path id="Path_790" data-name="Path 790" d="M206.8,240.6c.5-1.9,1.4-2.7,2.8-2.9a3.492,3.492,0,0,1,3.7,1.7C213.3,239.3,208.7,237.8,206.8,240.6Z" fill="#edbf94"/>
            <path id="Path_791" data-name="Path 791" d="M206.7,240.6a3.25,3.25,0,0,1,1.3-1.3,7.51,7.51,0,0,1,1.8-.7,4.067,4.067,0,0,1,1.9,0,3.805,3.805,0,0,1,1.7.8v.1c-.6,0-1.2-.1-1.8-.1s-1.1-.1-1.7-.1a5.257,5.257,0,0,0-1.7.4,2.9,2.9,0,0,0-1.5.9Z" fill="#5b4031"/>
            <path id="Path_792" data-name="Path 792" d="M214.2,237.9c.1,1.4-.9,1.5-.9,1.5l-2.4-.5s0-.2.8-.1A3.985,3.985,0,0,0,214.2,237.9Z" fill="#5b4031"/>
            <path id="Path_793" data-name="Path 793" d="M213.2,237.3a1.224,1.224,0,0,1-.7,1.6l-2.4-.1s0-.2.8-.2A3.3,3.3,0,0,0,213.2,237.3Z" fill="#5b4031"/>
            <ellipse id="Ellipse_243" data-name="Ellipse 243" cx="1.2" cy="1.8" rx="1.2" ry="1.8" transform="translate(207.71 240.977) rotate(-14.104)"/>
            <circle id="Ellipse_244" data-name="Ellipse 244" cx="1" cy="1" r="1" transform="translate(208 242.8)" fill="#fff"/>
          </g>
          <g id="Group_786" data-name="Group 786">
            <ellipse id="Ellipse_245" data-name="Ellipse 245" cx="3.5" cy="3.9" rx="3.5" ry="3.9" transform="matrix(0.932, -0.362, 0.362, 0.932, 185.008, 245.731)" fill="#fff"/>
            <ellipse id="Ellipse_246" data-name="Ellipse 246" cx="2.1" cy="2.8" rx="2.1" ry="2.8" transform="translate(186.437 247.035) rotate(-24.676)" fill="#7a9892"/>
            <path id="Path_794" data-name="Path 794" d="M192.1,245.4a3.265,3.265,0,0,0-3.8-1,3.426,3.426,0,0,0-2.1,3.3C186.2,247.8,189.1,244.1,192.1,245.4Z" fill="#edbf94"/>
            <path id="Path_795" data-name="Path 795" d="M192.2,245.4a3.287,3.287,0,0,0-1.7-.4,3.922,3.922,0,0,0-1.8.4,3.765,3.765,0,0,0-1.5.9,3.956,3.956,0,0,0-1,1.5h.1a16.964,16.964,0,0,0,1.4-1,14.7,14.7,0,0,0,1.3-1,4.284,4.284,0,0,1,1.6-.5,4.569,4.569,0,0,1,1.6.1Z" fill="#5b4031"/>
            <path id="Path_796" data-name="Path 796" d="M184.7,247.1c.6,1.2,1.5.7,1.5.7l1.6-1.7s-.1-.1-.7.3A3.333,3.333,0,0,1,184.7,247.1Z" fill="#5b4031"/>
            <path id="Path_797" data-name="Path 797" d="M185.1,246.1a1.262,1.262,0,0,0,1.4,1l1.9-1.4s-.1-.2-.8.2A3.163,3.163,0,0,1,185.1,246.1Z" fill="#5b4031"/>
            <ellipse id="Ellipse_247" data-name="Ellipse 247" cx="1.2" cy="1.8" rx="1.2" ry="1.8" transform="translate(187.146 248.075) rotate(-25.271)"/>
            <circle id="Ellipse_248" data-name="Ellipse 248" cx="0.9" cy="0.9" r="0.9" transform="translate(187.9 249.6)" fill="#fff"/>
          </g>
          <path id="Path_798" data-name="Path 798" d="M155.7,306s-12.1-54.8-4.9-71.2c74.3-23,134.6,52.6,134.6,52.6l-56.5,53.1Z" fill="url(#linear-gradient-13)"/>
          <g id="Group_789" data-name="Group 789">
            <path id="Path_799" data-name="Path 799" d="M229.8,355H153.7a2.9,2.9,0,0,1-2.9-2.9V320.8a2.9,2.9,0,0,1,2.9-2.9l79,31.3v3A2.883,2.883,0,0,1,229.8,355Z" fill="#e2e2e2"/>
            <path id="Path_800" data-name="Path 800" d="M232.7,349.1h-82l-3.8-46.2a3.255,3.255,0,0,1,3.3-3.5h75.4a3.35,3.35,0,0,1,3.3,3Z" fill="#f9f9f9"/>
            <g id="Group_788" data-name="Group 788">
              <path id="Path_801" data-name="Path 801" d="M191,313.1h0a13.764,13.764,0,0,0-13,14.5h0a13.764,13.764,0,0,0,14.5,13h0a13.764,13.764,0,0,0,13-14.5h0A13.764,13.764,0,0,0,191,313.1Z" fill="#fff"/>
              <g id="Group_787" data-name="Group 787">
                <path id="Path_802" data-name="Path 802" d="M199.6,333.2l-2.2-2.9s-3.2-.4-5.3,1a9.57,9.57,0,0,0-5.4-.4l-1.9,3.1a.481.481,0,0,0,.4.7l6-.3v.2a1.151,1.151,0,1,0,2.3-.1v-.2l6-.3C199.6,334,199.8,333.5,199.6,333.2Z" fill="#f48618"/>
                <path id="Path_803" data-name="Path 803" d="M196.8,325.1a5.115,5.115,0,0,0-3.9-4.5,1.651,1.651,0,0,0,.5-1.5,2.187,2.187,0,0,0-2.2-2,2.056,2.056,0,0,0-2,2.2,1.75,1.75,0,0,0,.7,1.4,5.214,5.214,0,0,0-3.4,4.9h0l.2,3.7a9.788,9.788,0,0,1,5.1.5,8.628,8.628,0,0,1,5-1v-3.7Z" fill="#ffba31"/>
              </g>
            </g>
          </g>
          <ellipse id="Ellipse_249" data-name="Ellipse 249" cx="5.1" cy="6.1" rx="5.1" ry="6.1" transform="translate(145.1 324.7)" fill="#f9e5c4"/>
          <g id="Group_790" data-name="Group 790">
            <path id="Path_804" data-name="Path 804" d="M117.1,350.2c-8.7,19.4,75.1,30.4,75.1,30.4l2.7-13C194.9,367.5,125.7,330.8,117.1,350.2Z" fill="#7f8f93"/>
            <path id="Path_805" data-name="Path 805" d="M191.5,381.8l-3-.9a.365.365,0,0,1-.2-.5l4.3-13.9a.569.569,0,0,1,.7-.4l2.8.9a1.648,1.648,0,0,1,1.1,2.1l-3.6,11.6A1.827,1.827,0,0,1,191.5,381.8Z" fill="#c6d7e0"/>
          </g>
          <g id="Group_797" data-name="Group 797">
            <path id="Path_806" data-name="Path 806" d="M191.4,394c-5.7,3.7-12,7.1-16.4.3-4.3-5.7,1.9-10.3,7.6-14s12.3-3.5,14.7.3C199.7,384.3,197.1,390.3,191.4,394Z" fill="#6b565c"/>
            <path id="Path_807" data-name="Path 807" d="M190.3,392.3c-5.7,3.7-12.4,8.9-16.8,2-4.3-5.7,2.2-12.1,7.9-15.8s12.3-3.5,14.7.3C198.6,382.6,196,388.6,190.3,392.3Z" fill="#81636b"/>
            <g id="Group_792" data-name="Group 792">
              <g id="Group_791" data-name="Group 791">
                <path id="Path_808" data-name="Path 808" d="M183.1,383.2c.9,1.4,1.8,2.9,2.8,4.3.1.2.3.4.4.6a.738.738,0,0,0,1.3-.7c-.9-1.4-1.8-2.9-2.8-4.3-.1-.2-.3-.4-.4-.6a.81.81,0,0,0-1-.3.671.671,0,0,0-.3,1Z" fill="#6b565c"/>
              </g>
            </g>
            <g id="Group_794" data-name="Group 794">
              <g id="Group_793" data-name="Group 793">
                <path id="Path_809" data-name="Path 809" d="M180.7,384.7c.9,1.4,1.8,2.9,2.8,4.3.1.2.3.4.4.6a.738.738,0,0,0,1.3-.7c-.9-1.4-1.8-2.9-2.8-4.3-.1-.2-.3-.4-.4-.6a.81.81,0,0,0-1-.3.714.714,0,0,0-.3,1Z" fill="#6b565c"/>
              </g>
            </g>
            <g id="Group_796" data-name="Group 796">
              <g id="Group_795" data-name="Group 795">
                <path id="Path_810" data-name="Path 810" d="M178.6,386.1c.9,1.4,1.8,2.9,2.8,4.3.1.2.3.4.4.6a.738.738,0,0,0,1.3-.7c-.9-1.4-1.8-2.9-2.8-4.3-.1-.2-.3-.4-.4-.6a.81.81,0,0,0-1-.3.621.621,0,0,0-.3,1Z" fill="#6b565c"/>
              </g>
            </g>
          </g>
          <path id="Path_811" data-name="Path 811" d="M188.8,382.8h0a4.463,4.463,0,0,1,2-5.8l8.6-4.1a4.463,4.463,0,0,1,5.8,2h0a4.463,4.463,0,0,1-2,5.8l-8.6,4.1A4.313,4.313,0,0,1,188.8,382.8Z" fill="#f9e5c4"/>
          <g id="Group_798" data-name="Group 798">
            <path id="Path_812" data-name="Path 812" d="M273,347.9c10.2,18.7-72.5,36.1-72.5,36.1l-3.7-12.8S262.8,329.2,273,347.9Z" fill="#7f8f93"/>
            <path id="Path_813" data-name="Path 813" d="M201.2,385.1l2.9-1.1a.365.365,0,0,0,.2-.5L199,370a.517.517,0,0,0-.7-.3l-2.7,1.1a1.7,1.7,0,0,0-1,2.2l4.5,11.3A1.586,1.586,0,0,0,201.2,385.1Z" fill="#c8dbe6"/>
          </g>
        </g>
        <g id="Group_800" data-name="Group 800">
          <path id="Path_814" data-name="Path 814" d="M150.2,336.9s5-.5,7.4-4.8c.3-3,.2-7.4-.8-7.4s-6.7-.4-8,.2C147.4,325.7,150.2,336.9,150.2,336.9Z" fill="#f9e5c4"/>
          <line id="Line_139" data-name="Line 139" y1="1.3" x2="6.5" transform="translate(151.1 326.5)" fill="none" stroke="#f7d9ad" stroke-miterlimit="10" stroke-width="0.25"/>
          <line id="Line_140" data-name="Line 140" y1="1.4" x2="6.2" transform="translate(151.4 328.6)" fill="none" stroke="#f7d9ad" stroke-miterlimit="10" stroke-width="0.25"/>
          <line id="Line_141" data-name="Line 141" y1="1.3" x2="6.2" transform="translate(151.4 331.2)" fill="none" stroke="#f7d9ad" stroke-miterlimit="10" stroke-width="0.25"/>
        </g>
        <path id="Path_815" data-name="Path 815" d="M104.8,68.9c-12.1-.1-13.1,12.7-13.1,12.7S106.2,80.9,104.8,68.9Z" fill="#bad0cc"/>
        <path id="Path_816" data-name="Path 816" d="M52.7,86.3c-12.1-.1-13,12.7-13,12.7S54.2,98.3,52.7,86.3Z" fill="#86a39d"/>
        <path id="Path_817" data-name="Path 817" d="M49.9,80.1c-6.8-4-11.4,2.9-11.4,2.9S46.8,87.3,49.9,80.1Z" fill="#86a39d"/>
        <path id="Path_818" data-name="Path 818" d="M184.4,110.2c-1.8,7.7,6.1,10.1,6.1,10.1S192.2,111,184.4,110.2Z" fill="#86a39d"/>
        <path id="Path_819" data-name="Path 819" d="M119.2,96.5C106.6,98.6,108,112,108,112S122.9,108.7,119.2,96.5Z" fill="#86a39d"/>
        <path id="Path_820" data-name="Path 820" d="M332.5,95.8c3.1,12.3,16.3,9.9,16.3,9.9S344.3,91.1,332.5,95.8Z" fill="#86a39d"/>
        <path id="Path_821" data-name="Path 821" d="M107.5,33.9c-9.2-7.9-18.1,1.3-18.1,1.3S100.8,44,107.5,33.9Z" fill="#bad0cc"/>
        <path id="Path_822" data-name="Path 822" d="M144.1,57c-11.5,4-8.1,16.3-8.1,16.3S149.5,67.9,144.1,57Z" fill="#bad0cc"/>
        <path id="Path_823" data-name="Path 823" d="M222.6,42.9c-10.8,3.7-7.6,15.3-7.6,15.3S227.6,53.1,222.6,42.9Z" fill="#bad0cc"/>
        <path id="Path_824" data-name="Path 824" d="M149.6,55.8c-2.9,5.8,3,9.2,3,9.2S155.7,57.9,149.6,55.8Z" fill="#bad0cc"/>
      </g>
    </g>
  </g>
</svg>
