<svg xmlns="http://www.w3.org/2000/svg" width="14.77" height="14.77" viewBox="0 0 14.77 14.77">
  <path id="Icon_material-picture-as-pdf" data-name="Icon material-picture-as-pdf" d="M16.293,3H7.431A1.481,1.481,0,0,0,5.954,4.477v8.862a1.481,1.481,0,0,0,1.477,1.477h8.862a1.481,1.481,0,0,0,1.477-1.477V4.477A1.481,1.481,0,0,0,16.293,3ZM10.016,8.539A1.106,1.106,0,0,1,8.908,9.646H8.169v1.477H7.062V6.692H8.908A1.106,1.106,0,0,1,10.016,7.8Zm3.692,1.477A1.106,1.106,0,0,1,12.6,11.123H10.754V6.692H12.6A1.106,1.106,0,0,1,13.708,7.8ZM16.662,7.8H15.554v.738h1.108V9.646H15.554v1.477H14.446V6.692h2.215Zm-8.492.738h.738V7.8H8.169ZM4.477,5.954H3V16.293A1.481,1.481,0,0,0,4.477,17.77H14.816V16.293H4.477Zm7.385,4.062H12.6V7.8h-.738Z" transform="translate(-3 -3)" fill="#fb3f29"/>
</svg>
