<svg xmlns="http://www.w3.org/2000/svg" width="316.852" height="175.382" viewBox="0 0 316.852 175.382">
  <g id="icon_3" data-name="icon 3" transform="translate(-1198.893 -4543.671)">
    <path id="Path_534" data-name="Path 534" d="M1110.553,5004.064l.235-175.319s-87.32-2.3-119.49,63.191-33.319,31.021-104.553,48.255-92.809,63.926-92.809,63.926Z" transform="translate(404.957 -285.064)" fill="#c8e1ea" opacity="0.32"/>
    <path id="Path_537" data-name="Path 537" d="M1110.788,5004.117l-.006-61.576s-14.017-14.428-28.144-.7-117.914,15.646-135.148,14.879-17.617,5.362-20.3,12.639-13.021,3.064-19.532,12.255,1.915,9.574-8.809,12.255c-10.647,2.662-15.311,5.7-15.376,10.245Z" transform="translate(404.957 -285.064)" fill="#98b8b2"/>
    <path id="Path_538" data-name="Path 538" d="M948.745,4985.038l-31.872,19.079,193.915-.366-.176-5.891-20.73-12.823Z" transform="translate(404.957 -285.064)" fill="#b6ccc8"/>
    <path id="Path_539" data-name="Path 539" d="M1008.66,4984.649,983.606,5004.1l71.011-.048-24.638-19.4Z" transform="translate(404.957 -285.064)" fill="#f9e5c4"/>
    <g id="Group_624" data-name="Group 624" transform="translate(404.957 -285.064)">
      <path id="Path_540" data-name="Path 540" d="M1087.013,4901.484H951.635a2.229,2.229,0,0,0-2.153,1.652l-6.107,22.791a2.229,2.229,0,0,0,2.153,2.806H1093.12a2.229,2.229,0,0,0,2.153-2.806l-6.107-22.791A2.229,2.229,0,0,0,1087.013,4901.484Z" fill="#d4c59f"/>
      <rect id="Rectangle_546" data-name="Rectangle 546" width="139.637" height="54.497" rx="2.124" transform="translate(949.389 4927.435)" fill="#e4cfa7"/>
      <path id="Path_541" data-name="Path 541" d="M1035.083,4901.31l-14.866-11.757a2.6,2.6,0,0,0-3.309.064l-13.607,11.63a2.609,2.609,0,0,1-1.693.624l-26.147,51.983a2.6,2.6,0,0,0,2.6,2.6l79.4-7.739c1.439,0,4.566,4.733,4.566,3.294l-25.331-50.143A2.612,2.612,0,0,1,1035.083,4901.31Z" fill="#d4c59f"/>
      <path id="Path_542" data-name="Path 542" d="M1035.052,4926.783l-14.867-11.756a2.6,2.6,0,0,0-3.309.063l-13.607,11.63a2.608,2.608,0,0,1-1.693.625H975.429v51.982a2.606,2.606,0,0,0,2.606,2.606h82.345a2.606,2.606,0,0,0,2.606-2.606v-51.982h-26.318A2.6,2.6,0,0,1,1035.052,4926.783Z" fill="#e4cfa7"/>
      <path id="Rectangle_547" data-name="Rectangle 547" d="M8.748,0h1.961a8.748,8.748,0,0,1,8.748,8.748V33.1a0,0,0,0,1,0,0H0a0,0,0,0,1,0,0V8.748A8.748,8.748,0,0,1,8.748,0Z" transform="translate(1009.24 4947.612)" fill="#d4c59f"/>
      <rect id="Rectangle_548" data-name="Rectangle 548" width="144.329" height="6.486" rx="1.596" transform="translate(947.021 4979.095)" fill="#d4c59f"/>
      <circle id="Ellipse_219" data-name="Ellipse 219" cx="6.486" cy="6.486" r="6.486" transform="translate(1012.84 4926.691)" fill="#c8e1ea"/>
      <g id="Group_623" data-name="Group 623">
        <g id="Group_611" data-name="Group 611">
          <g id="Group_605" data-name="Group 605">
            <g id="Group_601" data-name="Group 601">
              <rect id="Rectangle_549" data-name="Rectangle 549" width="10.526" height="11.817" rx="0.422" transform="translate(1033.085 4941.78)" fill="#d4c59f"/>
              <rect id="Rectangle_550" data-name="Rectangle 550" width="8.728" height="9.799" transform="translate(1033.984 4942.789)" fill="#e1f0f4"/>
              <rect id="Rectangle_551" data-name="Rectangle 551" width="0.823" height="10.705" transform="translate(1037.937 4942.375)" fill="#d4c59f"/>
              <rect id="Rectangle_552" data-name="Rectangle 552" width="4.982" height="0.865" transform="translate(1033.579 4945.587)" fill="#d4c59f"/>
            </g>
            <g id="Group_602" data-name="Group 602">
              <rect id="Rectangle_553" data-name="Rectangle 553" width="10.526" height="11.817" rx="0.422" transform="translate(1045.987 4941.78)" fill="#d4c59f"/>
              <rect id="Rectangle_554" data-name="Rectangle 554" width="8.728" height="9.799" transform="translate(1046.886 4942.789)" fill="#e1f0f4"/>
              <rect id="Rectangle_555" data-name="Rectangle 555" width="0.823" height="10.705" transform="translate(1050.839 4942.375)" fill="#d4c59f"/>
              <rect id="Rectangle_556" data-name="Rectangle 556" width="4.982" height="0.865" transform="translate(1046.481 4945.587)" fill="#d4c59f"/>
            </g>
            <g id="Group_603" data-name="Group 603">
              <rect id="Rectangle_557" data-name="Rectangle 557" width="10.526" height="11.817" rx="0.422" transform="translate(1033.118 4956.029)" fill="#d4c59f"/>
              <rect id="Rectangle_558" data-name="Rectangle 558" width="8.728" height="9.799" transform="translate(1034.016 4957.039)" fill="#e1f0f4"/>
              <rect id="Rectangle_559" data-name="Rectangle 559" width="0.823" height="10.705" transform="translate(1037.969 4956.625)" fill="#d4c59f"/>
              <rect id="Rectangle_560" data-name="Rectangle 560" width="4.982" height="0.865" transform="translate(1033.612 4959.836)" fill="#d4c59f"/>
            </g>
            <g id="Group_604" data-name="Group 604">
              <rect id="Rectangle_561" data-name="Rectangle 561" width="10.526" height="11.817" rx="0.422" transform="translate(1046.019 4956.029)" fill="#d4c59f"/>
              <rect id="Rectangle_562" data-name="Rectangle 562" width="8.728" height="9.799" transform="translate(1046.918 4957.039)" fill="#e1f0f4"/>
              <rect id="Rectangle_563" data-name="Rectangle 563" width="0.823" height="10.705" transform="translate(1050.871 4956.625)" fill="#d4c59f"/>
              <rect id="Rectangle_564" data-name="Rectangle 564" width="4.982" height="0.865" transform="translate(1046.513 4959.836)" fill="#d4c59f"/>
            </g>
          </g>
          <g id="Group_610" data-name="Group 610">
            <g id="Group_606" data-name="Group 606">
              <rect id="Rectangle_565" data-name="Rectangle 565" width="10.526" height="11.817" rx="0.422" transform="translate(1058.887 4941.78)" fill="#d4c59f"/>
              <rect id="Rectangle_566" data-name="Rectangle 566" width="8.728" height="9.799" transform="translate(1059.786 4942.789)" fill="#e1f0f4"/>
              <rect id="Rectangle_567" data-name="Rectangle 567" width="0.823" height="10.705" transform="translate(1063.738 4942.375)" fill="#d4c59f"/>
              <rect id="Rectangle_568" data-name="Rectangle 568" width="4.982" height="0.865" transform="translate(1059.381 4945.587)" fill="#d4c59f"/>
            </g>
            <g id="Group_607" data-name="Group 607">
              <rect id="Rectangle_569" data-name="Rectangle 569" width="10.526" height="11.817" rx="0.422" transform="translate(1071.789 4941.78)" fill="#d4c59f"/>
              <rect id="Rectangle_570" data-name="Rectangle 570" width="8.728" height="9.799" transform="translate(1072.688 4942.789)" fill="#e1f0f4"/>
              <rect id="Rectangle_571" data-name="Rectangle 571" width="0.823" height="10.705" transform="translate(1076.64 4942.375)" fill="#d4c59f"/>
              <rect id="Rectangle_572" data-name="Rectangle 572" width="4.982" height="0.865" transform="translate(1072.283 4945.587)" fill="#d4c59f"/>
            </g>
            <g id="Group_608" data-name="Group 608">
              <rect id="Rectangle_573" data-name="Rectangle 573" width="10.526" height="11.817" rx="0.422" transform="translate(1058.919 4956.029)" fill="#d4c59f"/>
              <rect id="Rectangle_574" data-name="Rectangle 574" width="8.728" height="9.799" transform="translate(1059.818 4957.039)" fill="#e1f0f4"/>
              <rect id="Rectangle_575" data-name="Rectangle 575" width="0.823" height="10.705" transform="translate(1063.77 4956.625)" fill="#d4c59f"/>
              <rect id="Rectangle_576" data-name="Rectangle 576" width="4.982" height="0.865" transform="translate(1059.413 4959.836)" fill="#d4c59f"/>
            </g>
            <g id="Group_609" data-name="Group 609">
              <rect id="Rectangle_577" data-name="Rectangle 577" width="10.526" height="11.817" rx="0.422" transform="translate(1071.821 4956.029)" fill="#d4c59f"/>
              <rect id="Rectangle_578" data-name="Rectangle 578" width="8.728" height="9.799" transform="translate(1072.72 4957.039)" fill="#e1f0f4"/>
              <rect id="Rectangle_579" data-name="Rectangle 579" width="0.823" height="10.705" transform="translate(1076.672 4956.625)" fill="#d4c59f"/>
              <rect id="Rectangle_580" data-name="Rectangle 580" width="4.982" height="0.865" transform="translate(1072.315 4959.836)" fill="#d4c59f"/>
            </g>
          </g>
        </g>
        <g id="Group_622" data-name="Group 622">
          <g id="Group_616" data-name="Group 616">
            <g id="Group_612" data-name="Group 612">
              <rect id="Rectangle_581" data-name="Rectangle 581" width="10.526" height="11.817" rx="0.422" transform="translate(955.614 4941.78)" fill="#d4c59f"/>
              <rect id="Rectangle_582" data-name="Rectangle 582" width="8.728" height="9.799" transform="translate(956.513 4942.789)" fill="#e1f0f4"/>
              <rect id="Rectangle_583" data-name="Rectangle 583" width="0.823" height="10.705" transform="translate(960.466 4942.375)" fill="#d4c59f"/>
              <rect id="Rectangle_584" data-name="Rectangle 584" width="4.982" height="0.865" transform="translate(956.109 4945.587)" fill="#d4c59f"/>
            </g>
            <g id="Group_613" data-name="Group 613">
              <rect id="Rectangle_585" data-name="Rectangle 585" width="10.526" height="11.817" rx="0.422" transform="translate(968.516 4941.78)" fill="#d4c59f"/>
              <rect id="Rectangle_586" data-name="Rectangle 586" width="8.728" height="9.799" transform="translate(969.415 4942.789)" fill="#e1f0f4"/>
              <rect id="Rectangle_587" data-name="Rectangle 587" width="0.823" height="10.705" transform="translate(973.367 4942.375)" fill="#d4c59f"/>
              <rect id="Rectangle_588" data-name="Rectangle 588" width="4.982" height="0.865" transform="translate(969.01 4945.587)" fill="#d4c59f"/>
            </g>
            <g id="Group_614" data-name="Group 614">
              <rect id="Rectangle_589" data-name="Rectangle 589" width="10.526" height="11.817" rx="0.422" transform="translate(955.647 4956.029)" fill="#d4c59f"/>
              <rect id="Rectangle_590" data-name="Rectangle 590" width="8.728" height="9.799" transform="translate(956.545 4957.039)" fill="#e1f0f4"/>
              <rect id="Rectangle_591" data-name="Rectangle 591" width="0.823" height="10.705" transform="translate(960.498 4956.625)" fill="#d4c59f"/>
              <rect id="Rectangle_592" data-name="Rectangle 592" width="4.982" height="0.865" transform="translate(956.141 4959.836)" fill="#d4c59f"/>
            </g>
            <g id="Group_615" data-name="Group 615">
              <rect id="Rectangle_593" data-name="Rectangle 593" width="10.526" height="11.817" rx="0.422" transform="translate(968.548 4956.029)" fill="#d4c59f"/>
              <rect id="Rectangle_594" data-name="Rectangle 594" width="8.728" height="9.799" transform="translate(969.447 4957.039)" fill="#e1f0f4"/>
              <rect id="Rectangle_595" data-name="Rectangle 595" width="0.823" height="10.705" transform="translate(973.4 4956.625)" fill="#d4c59f"/>
              <rect id="Rectangle_596" data-name="Rectangle 596" width="4.982" height="0.865" transform="translate(969.042 4959.836)" fill="#d4c59f"/>
            </g>
          </g>
          <g id="Group_621" data-name="Group 621">
            <g id="Group_617" data-name="Group 617">
              <rect id="Rectangle_597" data-name="Rectangle 597" width="10.526" height="11.817" rx="0.422" transform="translate(981.416 4941.78)" fill="#d4c59f"/>
              <rect id="Rectangle_598" data-name="Rectangle 598" width="8.728" height="9.799" transform="translate(982.315 4942.789)" fill="#e1f0f4"/>
              <rect id="Rectangle_599" data-name="Rectangle 599" width="0.823" height="10.705" transform="translate(986.267 4942.375)" fill="#d4c59f"/>
              <rect id="Rectangle_600" data-name="Rectangle 600" width="4.982" height="0.865" transform="translate(981.91 4945.587)" fill="#d4c59f"/>
            </g>
            <g id="Group_618" data-name="Group 618">
              <rect id="Rectangle_601" data-name="Rectangle 601" width="10.526" height="11.817" rx="0.422" transform="translate(994.318 4941.78)" fill="#d4c59f"/>
              <rect id="Rectangle_602" data-name="Rectangle 602" width="8.728" height="9.799" transform="translate(995.217 4942.789)" fill="#e1f0f4"/>
              <rect id="Rectangle_603" data-name="Rectangle 603" width="0.823" height="10.705" transform="translate(999.169 4942.375)" fill="#d4c59f"/>
              <rect id="Rectangle_604" data-name="Rectangle 604" width="4.982" height="0.865" transform="translate(994.812 4945.587)" fill="#d4c59f"/>
            </g>
            <g id="Group_619" data-name="Group 619">
              <rect id="Rectangle_605" data-name="Rectangle 605" width="10.526" height="11.817" rx="0.422" transform="translate(981.448 4956.029)" fill="#d4c59f"/>
              <rect id="Rectangle_606" data-name="Rectangle 606" width="8.728" height="9.799" transform="translate(982.347 4957.039)" fill="#e1f0f4"/>
              <rect id="Rectangle_607" data-name="Rectangle 607" width="0.823" height="10.705" transform="translate(986.299 4956.625)" fill="#d4c59f"/>
              <rect id="Rectangle_608" data-name="Rectangle 608" width="4.982" height="0.865" transform="translate(981.942 4959.836)" fill="#d4c59f"/>
            </g>
            <g id="Group_620" data-name="Group 620">
              <rect id="Rectangle_609" data-name="Rectangle 609" width="10.526" height="11.817" rx="0.422" transform="translate(994.35 4956.029)" fill="#d4c59f"/>
              <rect id="Rectangle_610" data-name="Rectangle 610" width="8.728" height="9.799" transform="translate(995.249 4957.039)" fill="#e1f0f4"/>
              <rect id="Rectangle_611" data-name="Rectangle 611" width="0.823" height="10.705" transform="translate(999.201 4956.625)" fill="#d4c59f"/>
              <rect id="Rectangle_612" data-name="Rectangle 612" width="4.982" height="0.865" transform="translate(994.844 4959.836)" fill="#d4c59f"/>
            </g>
          </g>
        </g>
      </g>
      <rect id="Rectangle_613" data-name="Rectangle 613" width="12.465" height="2.027" rx="0.911" transform="translate(1012.737 4959.841)" fill="#f9e5c4" opacity="0.4"/>
    </g>
  </g>
</svg>
