<svg xmlns="http://www.w3.org/2000/svg" width="306.034" height="182.018" viewBox="0 0 306.034 182.018">
  <g id="icon1" transform="translate(-449.37 -4536.982)">
    <path id="Path_536" data-name="Path 536" d="M350.043,5004.064V4822.132c-14.445-1.318-38.843,12.916-44.3,21.187-4.851,7.345-5.682,16.515-7.455,25.138s-5.254,17.819-13.008,21.985c-8.526,4.58-19.848,1.727-27.879,7.127-6.964,4.682-9.018,13.9-9.856,22.254-.242,2.4-.486,4.961-1.97,6.867-1.311,1.684-3.374,2.572-5.369,3.328a102.116,102.116,0,0,1-22.152,5.667c-6.2.862-13.783,2.094-15.908,7.985-.68,1.886-.629,3.955-1.121,5.9-1.394,5.507-6.954,9.068-12.518,10.215s-11.318.439-17,.481c-20.731.151-40.052,10.256-57.344,21.691-4.4,2.913-9.276,6.067-14.512,5.391-6.438-.831-10.577-6.952-15.35-11.351-7.867-7.249-21.689-9.725-28.7-1.642-2.5,2.889-3.738,6.634-4.912,10.272l-6.276,19.438Z" transform="translate(404.957 -285.064)" fill="#c8e1ea" opacity="0.32"/>
    <path id="Rectangle_614" data-name="Rectangle 614" d="M7.7,0H63.922a7.7,7.7,0,0,1,7.7,7.7v0A31.692,31.692,0,0,1,39.927,39.389H31.692A31.692,31.692,0,0,1,0,7.7v0A7.7,7.7,0,0,1,7.7,0Z" transform="translate(714.595 4686.928) rotate(-180)" fill="#cce2de"/>
    <g id="Group_626" data-name="Group 626" transform="translate(404.957 -285.064)">
      <rect id="Rectangle_615" data-name="Rectangle 615" width="14.119" height="19.115" rx="7.06" transform="translate(281.252 4940.471) rotate(180)" fill="#f2d1c9"/>
      <g id="Group_625" data-name="Group 625">
        <path id="Path_543" data-name="Path 543" d="M249.335,4904.412a24.546,24.546,0,0,0,49.092,0c0-13.556-13.507-32.486-36.605-18.439C252.482,4886.914,249.335,4895.483,249.335,4904.412Z" fill="#e4cfa7"/>
        <ellipse id="Ellipse_220" data-name="Ellipse 220" cx="21.505" cy="24.329" rx="21.505" ry="24.329" transform="translate(252.111 4886.166)" fill="#f5ddd6"/>
        <ellipse id="Ellipse_221" data-name="Ellipse 221" cx="5.503" cy="6.466" rx="5.503" ry="6.466" transform="translate(247.729 4908.805) rotate(-16.154)" fill="#f5ddd6"/>
        <ellipse id="Ellipse_222" data-name="Ellipse 222" cx="6.466" cy="5.503" rx="6.466" ry="5.503" transform="translate(286.615 4919.927) rotate(-83.134)" fill="#f5ddd6"/>
        <path id="Path_544" data-name="Path 544" d="M295.338,4907.942s-25.044-.971-31.416-11.832c-4.489,9.268-11.7,11.343-11.7,11.343s.552-22.422,21.478-22.856S295.338,4907.942,295.338,4907.942Z" fill="#e4cfa7"/>
      </g>
    </g>
    <rect id="Rectangle_616" data-name="Rectangle 616" width="170.905" height="27.627" transform="translate(755.404 4718.702) rotate(-180)" fill="#efd5af"/>
    <rect id="Rectangle_617" data-name="Rectangle 617" width="177.328" height="18.182" rx="2.106" transform="translate(755.404 4699.177) rotate(-180)" fill="#f9e5c4"/>
    <g id="Group_627" data-name="Group 627" transform="translate(404.957 -285.064)">
      <rect id="Rectangle_618" data-name="Rectangle 618" width="75.138" height="14.826" rx="2.008" transform="translate(157.525 4934.667)" fill="#b2949d"/>
      <rect id="Rectangle_619" data-name="Rectangle 619" width="12.811" height="14.798" transform="translate(209.425 4934.667)" fill="#9db9bf"/>
    </g>
    <g id="Group_628" data-name="Group 628" transform="translate(404.957 -285.064)">
      <rect id="Rectangle_620" data-name="Rectangle 620" width="75.138" height="14.826" rx="2.485" transform="translate(164.59 4919.823)" fill="#af9ca2"/>
      <rect id="Rectangle_621" data-name="Rectangle 621" width="12.811" height="14.798" transform="translate(216.49 4919.823)" fill="#81636b"/>
    </g>
    <rect id="Rectangle_622" data-name="Rectangle 622" width="76.668" height="16.879" rx="0.63" transform="translate(651.948 4681.327) rotate(-180)" fill="#9db9bf"/>
    <rect id="Rectangle_623" data-name="Rectangle 623" width="76.861" height="8.575" transform="translate(652.113 4677.082) rotate(-180)" fill="#edf7f9"/>
    <path id="Path_545" data-name="Path 545" d="M176.295,4961.186l2.4-.951a1.217,1.217,0,0,1,.908,0l2.416.953c.56.221,1.113-.381,1.113-1.212v-2.745c0-.692-.393-1.253-.877-1.253h-6.2c-.484,0-.876.561-.876,1.253v2.744C175.181,4960.806,175.735,4961.408,176.295,4961.186Z" transform="translate(404.957 -285.064)" fill="#ffba31"/>
    <path id="Path_546" data-name="Path 546" d="M190.71,4964.6l2.368-.938a1.19,1.19,0,0,1,.9,0l2.385.941c.552.218,1.1-.376,1.1-1.2v-2.71c0-.683-.387-1.236-.865-1.236h-6.116c-.478,0-.865.553-.865,1.236v2.708C189.611,4964.223,190.157,4964.818,190.71,4964.6Z" transform="translate(404.957 -285.064)" fill="#81636b"/>
    <rect id="Rectangle_624" data-name="Rectangle 624" width="66.638" height="7.66" rx="2.553" transform="translate(674.979 4673.415)" fill="#9db9bf"/>
    <rect id="Rectangle_625" data-name="Rectangle 625" width="66.638" height="47.489" rx="2.553" transform="translate(682.894 4633.585)" fill="#b4cdd1"/>
  </g>
</svg>
