<svg xmlns="http://www.w3.org/2000/svg" width="12.744" height="12.748" viewBox="0 0 12.744 12.748">
  <path id="icon" d="M16.192,10.872a1.64,1.64,0,0,1,1.052-1.53,6.5,6.5,0,0,0-.787-1.9,1.662,1.662,0,0,1-.667.143,1.636,1.636,0,0,1-1.5-2.3A6.481,6.481,0,0,0,12.4,4.5a1.639,1.639,0,0,1-3.06,0,6.5,6.5,0,0,0-1.9.787,1.636,1.636,0,0,1-1.5,2.3,1.608,1.608,0,0,1-.667-.143,6.644,6.644,0,0,0-.783,1.9,1.639,1.639,0,0,1,0,3.06,6.5,6.5,0,0,0,.787,1.9A1.637,1.637,0,0,1,7.45,16.461a6.538,6.538,0,0,0,1.9.787,1.636,1.636,0,0,1,3.053,0,6.5,6.5,0,0,0,1.9-.787A1.639,1.639,0,0,1,16.454,14.3a6.538,6.538,0,0,0,.787-1.9A1.648,1.648,0,0,1,16.192,10.872ZM10.9,13.524a2.655,2.655,0,1,1,2.655-2.655A2.654,2.654,0,0,1,10.9,13.524Z" transform="translate(-4.5 -4.5)" fill="#396be1"/>
</svg>
