<svg width="35" height="19" viewBox="0 0 35 19" fill="none" xmlns="http://www.w3.org/2000/svg">
<path d="M14 9.5C14 10.4667 13.2167 11.25 12.25 11.25H1.75C0.7833 11.25 0 10.4667 0 9.5C0 8.5333 0.7833 7.75 1.75 7.75H12.25C13.2167 7.75 14 8.5333 14 9.5ZM12.25 14.75H1.75C0.7833 14.75 0 15.5333 0 16.5C0 17.4667 0.7833 18.25 1.75 18.25H12.25C13.2167 18.25 14 17.4667 14 16.5C14 15.5333 13.2167 14.75 12.25 14.75ZM33.95 7.75H28V1.8C28 0.8333 27.2167 0.75 26.25 0.75C25.2833 0.75 24.5 0.8333 24.5 1.8V7.75H18.725C17.7583 7.75 17.675 8.5333 17.675 9.5C17.675 10.4667 17.7583 11.25 18.725 11.25H24.5V17.2C24.5 18.1667 25.2833 18.25 26.25 18.25C27.2167 18.25 28 18.1667 28 17.2V11.25H33.95C34.9167 11.25 35 10.4667 35 9.5C35 8.5333 34.9167 7.75 33.95 7.75ZM12.25 0.75H1.75C0.7833 0.75 0 1.5333 0 2.5C0 3.4667 0.7833 4.25 1.75 4.25H12.25C13.2167 4.25 14 3.4667 14 2.5C14 1.5333 13.2167 0.75 12.25 0.75Z" fill="#030104"/>
</svg>
