<svg width="50" height="51" viewBox="0 0 50 51" fill="none" xmlns="http://www.w3.org/2000/svg">
<g clip-path="url(#clip0)">
<path d="M7.77263 11.0782C8.32582 11.5002 9.11606 11.394 9.53828 10.8412C13.2539 5.97298 18.8895 3.18123 25.0001 3.18123C31.1107 3.18123 36.7462 5.97315 40.4618 10.8412C40.7098 11.1659 41.0847 11.3364 41.4642 11.3364C41.7305 11.3364 41.9994 11.2523 42.2275 11.0782C42.7804 10.656 42.8864 9.86557 42.4645 9.31254C38.2681 3.8149 31.9026 0.661865 25.0001 0.661865C18.0975 0.661865 11.7321 3.8149 7.53576 9.31254C7.1137 9.86557 7.21976 10.656 7.77263 11.0782Z" fill="white"/>
<path d="M38.3901 17.7976C38.3901 19.9668 40.1551 21.7317 42.3243 21.7317C44.4935 21.7317 46.2585 19.9668 46.2585 17.7976C46.2585 15.6284 44.4935 13.8634 42.3243 13.8634C40.1551 13.8634 38.3901 15.6282 38.3901 17.7976Z" fill="white"/>
<path d="M46.3504 23.0374C46.3413 23.0343 45.35 22.7301 45.35 22.7301C44.9911 22.6205 44.6012 22.688 44.3007 22.913L42.3241 24.3929L40.3475 22.913C40.0468 22.6879 39.6568 22.6204 39.2982 22.7301C39.2982 22.7301 38.3069 23.0343 38.2978 23.0374C36.7029 23.5692 35.6313 25.0559 35.6313 26.737V32.6847C35.6313 32.9141 35.6984 33.1385 35.8246 33.3301L37.8192 36.3657V44.3374C37.8192 44.9867 38.3455 45.513 38.9948 45.513H45.6536C46.3029 45.513 46.8292 44.9867 46.8292 44.3374V36.3657L48.8238 33.3301C48.9499 33.1384 49.017 32.914 49.017 32.6847V26.737C49.017 25.0559 47.9453 23.5692 46.3504 23.0374Z" fill="white"/>
<path d="M7.67555 21.7317C9.84475 21.7317 11.6097 19.9668 11.6097 17.7976C11.6097 15.6284 9.84475 13.8634 7.67555 13.8634C5.50636 13.8634 3.74121 15.6282 3.74121 17.7976C3.74121 19.9669 5.50619 21.7317 7.67555 21.7317Z" fill="white"/>
<path d="M11.7019 23.0374C11.6928 23.0343 10.7016 22.7301 10.7016 22.7301C10.3425 22.6205 9.95295 22.688 9.65227 22.913L7.67567 24.3929L5.69907 22.913C5.39857 22.6879 5.00833 22.6204 4.64975 22.7301C4.64975 22.7301 3.6585 23.0343 3.64941 23.0374C2.05446 23.5692 0.98291 25.0559 0.98291 26.737V32.6847C0.98291 32.9141 1.04991 33.1385 1.17618 33.3301L3.17079 36.3657V44.3374C3.17079 44.9867 3.69705 45.513 4.34638 45.513H11.005C11.6543 45.513 12.1806 44.9867 12.1806 44.3374V36.3657L14.1752 33.3301C14.3013 33.1384 14.3684 32.914 14.3684 32.6847V26.737C14.3684 25.0559 13.2967 23.5692 11.7019 23.0374Z" fill="white"/>
<path d="M30.0741 12.253C30.0741 9.45497 27.7977 7.17854 24.9997 7.17854C22.2017 7.17854 19.9253 9.45497 19.9253 12.253C19.9253 15.0511 22.2017 17.3274 24.9997 17.3274C27.7977 17.3274 30.0741 15.0511 30.0741 12.253Z" fill="white"/>
<path d="M30.5737 19.7867L30.5652 19.784L29.1169 19.3395C28.8885 19.2693 28.6444 19.3902 28.5622 19.6156L25.5168 27.9717C25.341 28.4537 24.6593 28.4537 24.4836 27.9717L21.4381 19.6156C21.3718 19.4336 21.2001 19.3195 21.0159 19.3195C20.9723 19.3195 19.4368 19.7833 19.4368 19.7833C17.5866 20.3998 16.3506 22.115 16.3506 24.0544V32.8937C16.3506 32.9815 16.3763 33.0673 16.4245 33.1407L19.6023 37.9764V50.2121C19.6023 50.4606 19.8036 50.6619 20.0521 50.6619H29.9482C30.1967 50.6619 30.3981 50.4606 30.3981 50.2121V37.9764L33.5758 33.1407C33.624 33.0673 33.6498 32.9815 33.6498 32.8937V24.0311C33.6496 22.1001 32.4087 20.3879 30.5737 19.7867Z" fill="white"/>
<path d="M26.19 19.6107C26.0643 19.4737 25.8803 19.4046 25.6941 19.4046H24.306C24.12 19.4046 23.936 19.4737 23.8101 19.6107C23.6153 19.823 23.587 20.1295 23.7252 20.3691L24.4671 21.4876L24.1198 24.4178L24.8038 26.2373C24.8705 26.4203 25.1293 26.4203 25.1961 26.2373L25.8801 24.4178L25.5328 21.4876L26.2747 20.3691C26.4131 20.1295 26.3848 19.823 26.19 19.6107Z" fill="white"/>
</g>
<defs>
<clipPath id="clip0">
<rect width="50" height="50" fill="white" transform="translate(0 0.661865)"/>
</clipPath>
</defs>
</svg>
