<svg width="30" height="30" viewBox="0 0 30 30" fill="none" xmlns="http://www.w3.org/2000/svg">
<path d="M10.9301 16.551C10.9301 16.1752 10.6253 15.8707 10.2492 15.8707H7.87295C7.49727 15.8707 7.19238 16.1752 7.19238 16.551V18.9269C7.19238 19.3032 7.49727 19.6078 7.87295 19.6078H10.2492C10.6253 19.6078 10.9301 19.3032 10.9301 18.9269V16.551Z" fill="#C4C4C4"/>
<path d="M16.8687 16.551C16.8687 16.1752 16.5638 15.8707 16.1884 15.8707H13.8119C13.4362 15.8707 13.1313 16.1752 13.1313 16.551V18.9269C13.1313 19.3032 13.4362 19.6078 13.8119 19.6078H16.1884C16.5638 19.6078 16.8687 19.3032 16.8687 18.9269V16.551Z" fill="#C4C4C4"/>
<path d="M22.8075 16.551C22.8075 16.1752 22.5026 15.8707 22.127 15.8707H19.7508C19.3746 15.8707 19.0698 16.1752 19.0698 16.551V18.9269C19.0698 19.3032 19.3746 19.6078 19.7508 19.6078H22.127C22.5026 19.6078 22.8075 19.3032 22.8075 18.9269V16.551Z" fill="#C4C4C4"/>
<path d="M10.9301 22.4899C10.9301 22.1135 10.6253 21.8093 10.2492 21.8093H7.87295C7.49727 21.8093 7.19238 22.1135 7.19238 22.4899V24.8654C7.19238 25.2414 7.49727 25.546 7.87295 25.546H10.2492C10.6253 25.546 10.9301 25.2414 10.9301 24.8654V22.4899Z" fill="#C4C4C4"/>
<path d="M16.8687 22.4899C16.8687 22.1135 16.5638 21.8093 16.1884 21.8093H13.8119C13.4362 21.8093 13.1313 22.1135 13.1313 22.4899V24.8654C13.1313 25.2414 13.4362 25.546 13.8119 25.546H16.1884C16.5638 25.546 16.8687 25.2414 16.8687 24.8654V22.4899Z" fill="#C4C4C4"/>
<path d="M22.8075 22.4899C22.8075 22.1135 22.5026 21.8093 22.1273 21.8093H19.7508C19.3746 21.8093 19.0698 22.1135 19.0698 22.4899V24.8654C19.0698 25.2414 19.3746 25.546 19.7508 25.546H22.1273C22.5026 25.546 22.8075 25.2414 22.8075 24.8654V22.4899Z" fill="#C4C4C4"/>
<path d="M27.0563 3.34031V6.96931C27.0563 8.60958 25.7257 9.93138 24.0857 9.93138H22.2117C20.5715 9.93138 19.2233 8.60958 19.2233 6.96931V3.32729H10.7767V6.96931C10.7767 8.60958 9.42848 9.93138 7.78858 9.93138H5.91422C4.27426 9.93138 2.94367 8.60958 2.94367 6.96931V3.34031C1.51033 3.38352 0.33252 4.56956 0.33252 6.02737V27.295C0.33252 28.7802 1.53632 30 3.02154 30H26.9784C28.4614 30 29.6674 28.7777 29.6674 27.295V6.02737C29.6674 4.56956 28.4897 3.38352 27.0563 3.34031ZM26.1859 25.9706C26.1859 26.6125 25.6655 27.1332 25.0234 27.1332H4.92533C4.28324 27.1332 3.76282 26.6125 3.76282 25.9706V14.9851C3.76282 14.343 4.28317 13.8223 4.92533 13.8223H25.0234C25.6655 13.8223 26.1859 14.343 26.1859 14.9851L26.1859 25.9706Z" fill="#C4C4C4"/>
<path d="M5.90798 7.98593H7.76163C8.32426 7.98593 8.78045 7.53042 8.78045 6.96779V1.01851C8.78045 0.455821 8.32426 0 7.76163 0H5.90798C5.34529 0 4.88916 0.455821 4.88916 1.01851V6.96779C4.88916 7.53042 5.34529 7.98593 5.90798 7.98593Z" fill="#C4C4C4"/>
<path d="M22.1877 7.98593H24.0413C24.6036 7.98593 25.0598 7.53042 25.0598 6.96779V1.01851C25.0599 0.455821 24.6037 0 24.0413 0H22.1877C21.6251 0 21.1689 0.455821 21.1689 1.01851V6.96779C21.1689 7.53042 21.6251 7.98593 22.1877 7.98593Z" fill="#C4C4C4"/>
</svg>
