<svg width="25" height="25" viewBox="0 0 25 25" fill="none" xmlns="http://www.w3.org/2000/svg">
<path d="M25 16.0276C25 18.7585 22.8022 20.9723 20.0922 20.9723H4.90692C2.19696 20.9723 0 18.7585 0 16.0276C0 13.5613 1.79172 11.5181 4.13585 11.1443C4.10615 10.9712 4.08976 10.7931 4.08976 10.6098C4.08976 8.87948 5.48194 7.47701 7.19973 7.47701C7.9658 7.47701 8.66782 7.75612 9.20941 8.22053C10.175 6.02839 11.4128 4.02783 14.8853 4.02783C19.0967 4.02783 21.0927 7.30037 21.0927 10.7536C21.0927 10.8981 21.0867 11.0412 21.077 11.1827C23.3155 11.6423 25 13.6367 25 16.0276Z" fill="#0047FF"/>
</svg>
