<svg width="50" height="51" viewBox="0 0 50 51" fill="none" xmlns="http://www.w3.org/2000/svg">
<g clip-path="url(#clip0)">
<path d="M7.14307 33.6977H17.8574V15.8405H7.14307V33.6977ZM9.82164 19.412H15.1788C15.4996 19.412 15.7957 19.5842 15.9545 19.863C16.1132 20.1417 16.1103 20.4842 15.9466 20.7602L10.5895 29.6888C10.4296 29.9609 10.1372 30.1275 9.82164 30.1263C9.66156 30.1249 9.5046 30.0819 9.36628 30.0013C8.94227 29.7497 8.80237 29.2021 9.05378 28.778L13.5984 21.1977H9.82164C9.32853 21.1977 8.92878 20.7979 8.92878 20.3048C8.92878 19.8117 9.32853 19.412 9.82164 19.412Z" fill="white"/>
<path d="M50 9.59052H0V38.1619C0.00294179 39.1469 0.800713 39.9447 1.78571 39.9477H30.3661L27.7946 33.5727C27.5633 33.0085 27.6934 32.3606 28.1246 31.9294C28.5558 31.4982 29.2037 31.3681 29.7679 31.5994L47.6964 38.8405C48.1531 39.0253 48.4901 39.4224 48.5982 39.903C49.4158 39.723 49.9986 38.9991 50 38.1619V9.59052ZM28.4464 20.7602L23.0893 29.6887C22.9294 29.9608 22.637 30.1274 22.3214 30.1262C22.1614 30.1249 22.0044 30.0818 21.8661 30.0012C21.4421 29.7497 21.3022 29.2021 21.5536 28.778L26.0982 21.1977H22.3214C21.8283 21.1977 21.4286 20.7979 21.4286 20.3048C21.4286 19.8117 21.8283 19.4119 22.3214 19.4119H27.6786C27.9994 19.412 28.2955 19.5842 28.4543 19.8629C28.613 20.1417 28.61 20.4842 28.4464 20.7602ZM40.9464 27.903L38.3036 32.3048C38.1437 32.5769 37.8513 32.7435 37.5357 32.7423C37.3756 32.741 37.2187 32.6979 37.0804 32.6173C36.6563 32.3658 36.5164 31.8182 36.7679 31.3941L38.5982 28.3405H34.8214C34.3283 28.3405 33.9286 27.9408 33.9286 27.4477C33.9286 26.9545 34.3283 26.5548 34.8214 26.5548H40.1786C40.4994 26.5549 40.7955 26.727 40.9543 27.0058C41.113 27.2845 41.11 27.6271 40.9464 27.903ZM44.6429 33.6977C44.6429 34.1908 44.2431 34.5905 43.75 34.5905C43.2569 34.5905 42.8571 34.1908 42.8571 33.6977V15.8405H32.1429V29.3048C32.1429 29.7979 31.7431 30.1977 31.25 30.1977C30.7569 30.1977 30.3571 29.7979 30.3571 29.3048V15.8405H19.6429V33.6977H25.3125C25.8056 33.6977 26.2054 34.0974 26.2054 34.5905C26.2054 35.0836 25.8056 35.4834 25.3125 35.4834H7.14286C6.15786 35.4804 5.36008 34.6827 5.35714 33.6977V15.8405C5.36008 14.8555 6.15786 14.0577 7.14286 14.0548H42.8571C43.8421 14.0577 44.6399 14.8555 44.6429 15.8405V33.6977Z" fill="white"/>
<path d="M50 2.44758C49.9971 1.46258 49.1993 0.664807 48.2143 0.661865H1.78571C0.800713 0.664807 0.00294179 1.46258 0 2.44758V7.80472H50V2.44758ZM3.57143 6.01901C2.58521 6.01901 1.78571 5.21952 1.78571 4.23329C1.78571 3.24707 2.58521 2.44758 3.57143 2.44758C4.55765 2.44758 5.35714 3.24707 5.35714 4.23329C5.3542 5.2183 4.55643 6.01607 3.57143 6.01901ZM10.7143 6.01901C9.72806 6.01901 8.92857 5.21952 8.92857 4.23329C8.92857 3.24707 9.72806 2.44758 10.7143 2.44758C11.7005 2.44758 12.5 3.24707 12.5 4.23329C12.4971 5.2183 11.6993 6.01607 10.7143 6.01901ZM17.8571 6.01901C16.8709 6.01901 16.0714 5.21952 16.0714 4.23329C16.0714 3.24707 16.8709 2.44758 17.8571 2.44758C18.8434 2.44758 19.6429 3.24707 19.6429 4.23329C19.6399 5.2183 18.8421 6.01607 17.8571 6.01901Z" fill="white"/>
<path d="M46.5267 50.3941C46.6938 50.229 46.7878 50.0039 46.7878 49.7691C46.7878 49.5342 46.6938 49.3091 46.5267 49.1441L41.5178 44.1262L40.6606 44.4655L40.2856 45.4119L45.2767 50.3941C45.4418 50.5611 45.6669 50.6552 45.9017 50.6552C46.1366 50.6552 46.3617 50.5611 46.5267 50.3941Z" fill="white"/>
<path d="M29.6875 33.4922L32.2946 39.9476L36.4464 50.2065L39.1429 43.4476C39.239 43.2249 39.4185 43.0486 39.6429 42.9565L46.4018 40.2512L45.6518 39.9476L29.6875 33.4922Z" fill="white"/>
</g>
<defs>
<clipPath id="clip0">
<rect width="50" height="50" fill="white" transform="translate(0 0.661865)"/>
</clipPath>
</defs>
</svg>
