<svg width="50" height="51" viewBox="0 0 50 51" fill="none" xmlns="http://www.w3.org/2000/svg">
<g clip-path="url(#clip0)">
<path d="M46.8963 27.2966V46.3102H10.4212V27.2966H46.8963ZM50.0005 24.1923H7.31689V49.4145H50.0005V24.1923Z" fill="white"/>
<path d="M38.3594 24.1923L42.7286 28.5616C42.6956 28.7226 42.6316 28.872 42.6316 29.0427C42.6316 30.4338 43.7589 31.5591 45.15 31.5591C45.3207 31.5591 45.4681 31.4951 45.6292 31.4641L50.0004 35.8333V24.1923H38.3594Z" fill="white"/>
<path d="M41.2698 39.3219C42.6606 39.3219 43.7881 38.1944 43.7881 36.8036C43.7881 35.4127 42.6606 34.2852 41.2698 34.2852C39.879 34.2852 38.7515 35.4127 38.7515 36.8036C38.7515 38.1944 39.879 39.3219 41.2698 39.3219Z" fill="white"/>
<path d="M28.6591 43.4271C32.8659 43.4271 36.2762 40.4615 36.2762 36.8034C36.2762 33.1452 32.8659 30.1796 28.6591 30.1796C24.4523 30.1796 21.042 33.1452 21.042 36.8034C21.042 40.4615 24.4523 43.4271 28.6591 43.4271Z" fill="white"/>
<path d="M16.0476 39.3199C17.4374 39.3199 18.564 38.1933 18.564 36.8035C18.564 35.4137 17.4374 34.2871 16.0476 34.2871C14.6579 34.2871 13.5312 35.4137 13.5312 36.8035C13.5312 38.1933 14.6579 39.3199 16.0476 39.3199Z" fill="white"/>
<path d="M7.31689 35.8333L11.6861 31.4641C11.8472 31.497 11.9966 31.5611 12.1673 31.5611C13.5584 31.5611 14.6837 30.4338 14.6837 29.0427C14.6837 28.872 14.6197 28.7245 14.5867 28.5635L18.9579 24.1923H7.31689V35.8333Z" fill="white"/>
<path d="M14.6856 44.5641C14.6856 43.173 13.5584 42.0477 12.1673 42.0477C11.9966 42.0477 11.8491 42.1117 11.6881 42.1427L7.31689 37.7735V49.4145H18.9579L14.5886 45.0452C14.6216 44.8842 14.6856 44.7329 14.6856 44.5641Z" fill="white"/>
<path d="M45.15 42.0457C43.7589 42.0457 42.6336 43.173 42.6336 44.5641C42.6336 44.7348 42.6976 44.8823 42.7306 45.0433L38.3594 49.4145H50.0004V37.7735L45.6311 42.1427C45.4701 42.1098 45.3207 42.0457 45.15 42.0457Z" fill="white"/>
<path d="M35.8406 19.6796C37.2304 19.6796 38.357 18.553 38.357 17.1632C38.357 15.7734 37.2304 14.6468 35.8406 14.6468C34.4508 14.6468 33.3242 15.7734 33.3242 17.1632C33.3242 18.553 34.4508 19.6796 35.8406 19.6796Z" fill="white"/>
<path d="M4.40612 24.1925C4.40612 22.586 5.70991 21.2822 7.31636 21.2822H8.9073L8.97908 21.0339L31.4404 8.73323L33.1574 9.23379C33.2059 9.38901 33.2234 9.55198 33.3068 9.70137C33.9742 10.9237 35.5031 11.368 36.7254 10.7006C36.8728 10.6191 36.9737 10.493 37.096 10.3862L38.8169 10.8907L42.7302 18.0344L42.2277 19.7534C42.0744 19.7999 41.9114 19.8174 41.7621 19.8989C41.1936 20.2093 40.8153 20.7176 40.6154 21.2822H48.0482L43.0309 12.1188H43.0329L37.4394 1.90967L27.2263 7.50122H27.2283L10.2111 16.8198L0 22.4114L4.40612 30.4573V24.1925Z" fill="white"/>
<path d="M21.5961 17.4133C19.9063 18.3369 18.6898 19.7377 18.0068 21.282H32.04C31.9275 20.6903 31.7587 20.1102 31.4599 19.565C29.7002 16.3559 25.2863 15.3936 21.5961 17.4133Z" fill="white"/>
</g>
<defs>
<clipPath id="clip0">
<rect width="50" height="50" fill="white" transform="translate(0 0.662109)"/>
</clipPath>
</defs>
</svg>
