<svg width="50" height="50" viewBox="0 0 50 50" fill="none" xmlns="http://www.w3.org/2000/svg">
<g clip-path="url(#clip0)">
<path d="M41.2874 18.9202C44.9396 18.9202 47.8764 15.9744 47.8764 12.3401C47.8764 8.7035 44.9373 5.75336 41.2874 5.75336C37.6576 5.75336 34.7163 8.70133 34.7163 12.3401C34.7163 15.9721 37.6576 18.9202 41.2874 18.9202Z" fill="white"/>
<path d="M46.5707 19.992H36.0176C34.4512 19.992 33.1321 21.202 32.7265 22.8286L26.4606 35.6567C26.3715 35.65 26.2958 35.6055 26.2043 35.6055H23.789C23.6998 35.6055 23.6218 35.6523 23.5371 35.6567L17.2713 22.8309C16.868 21.2042 15.551 19.9921 13.9824 19.9921H3.42264C1.53525 19.992 0 21.7234 0 23.847V44.2466H17.4072V32.6664L21.2086 39.6943C21.5763 40.9154 22.5813 41.8 23.7912 41.8H26.2067C27.4167 41.8 28.4238 40.9153 28.7938 39.6943L32.5929 32.6664V44.2466H50.0001V23.8468C49.9978 21.7234 48.4602 19.992 46.5707 19.992Z" fill="white"/>
<path d="M8.70814 18.9202C12.338 18.9202 15.2793 15.9744 15.2793 12.3401C15.2815 8.70133 12.3402 5.75336 8.70814 5.75336C5.06051 5.75336 2.11914 8.70133 2.11914 12.3401C2.11914 15.9721 5.0604 18.9202 8.70814 18.9202Z" fill="white"/>
</g>
<defs>
<clipPath id="clip0">
<rect width="50" height="50" fill="white"/>
</clipPath>
</defs>
</svg>
