<svg width="50" height="51" viewBox="0 0 50 51" fill="none" xmlns="http://www.w3.org/2000/svg">
<path d="M48.7758 6.886C47.9599 6.07011 46.9791 5.66222 45.8335 5.66222H4.16664C3.02084 5.66222 2.04022 6.07002 1.22379 6.886C0.407807 7.70207 0 8.68269 0 9.82858V41.4948C0 42.6409 0.407807 43.6216 1.22379 44.4376C2.04022 45.2536 3.02084 45.6616 4.16664 45.6616H45.8335C46.9791 45.6616 47.9598 45.2536 48.7758 44.4376C49.5916 43.6217 50 42.641 50 41.4948V9.82858C50 8.68269 49.5916 7.70207 48.7758 6.886ZM46.6663 41.4954C46.6663 41.7214 46.5839 41.9162 46.419 42.0816C46.2542 42.2458 46.0588 42.3282 45.8335 42.3282H4.16664C3.94107 42.3282 3.74569 42.2458 3.58078 42.081C3.41596 41.9156 3.33342 41.7208 3.33342 41.4948V25.6619H46.6664V41.4954H46.6663ZM46.6663 15.6616H3.33333V9.82821C3.33333 9.60256 3.4156 9.40764 3.58069 9.24236C3.74569 9.07791 3.94107 8.99536 4.16654 8.99536H45.8334C46.0587 8.99536 46.2541 9.07754 46.4189 9.24236C46.5839 9.40764 46.6662 9.60256 46.6662 9.82821V15.6616H46.6663Z" fill="white"/>
<path d="M13.3336 35.6616H6.66699V38.9952H13.3336V35.6616Z" fill="white"/>
<path d="M26.6669 35.6616H16.667V38.9952H26.6669V35.6616Z" fill="white"/>
</svg>
