<svg width="50" height="51" viewBox="0 0 50 51" fill="none" xmlns="http://www.w3.org/2000/svg">
<g clip-path="url(#clip0)">
<path d="M18.3557 23.5052C19.51 23.5052 20.4457 22.5694 20.4457 21.4151C20.4457 20.2608 19.51 19.3251 18.3557 19.3251C17.2014 19.3251 16.2656 20.2608 16.2656 21.4151C16.2656 22.5694 17.2014 23.5052 18.3557 23.5052Z" fill="white"/>
<path d="M31.6335 31.9883C32.7878 31.9883 33.7235 31.0525 33.7235 29.8982C33.7235 28.7439 32.7878 27.8082 31.6335 27.8082C30.4792 27.8082 29.5435 28.7439 29.5435 29.8982C29.5435 31.0525 30.4792 31.9883 31.6335 31.9883Z" fill="white"/>
<path d="M48.8664 28.4229L48.1082 27.3881C47.2886 26.2611 47.2681 24.7346 48.0775 23.5871L48.8151 22.542C49.9421 20.9438 49.4196 18.7205 47.6881 17.7882L46.5612 17.1837C45.3317 16.528 44.6555 15.1552 44.8912 13.772L45.1063 12.5119C45.4342 10.5857 43.9896 8.80306 42.0327 8.72109L40.752 8.66987C39.3587 8.60839 38.1497 7.66582 37.7604 6.32369L37.4018 5.09424C36.8588 3.2091 34.7893 2.2358 32.9861 3.01444L31.8079 3.51646C30.5272 4.06971 29.0314 3.74186 28.0991 2.69684L27.2487 1.74402C25.9475 0.289183 23.6628 0.299429 22.3719 1.785L21.5318 2.74806C20.6097 3.80333 19.1241 4.15167 17.8332 3.61892L16.6448 3.12714C14.8313 2.37923 12.7823 3.39352 12.2598 5.27866L11.9217 6.51835C11.5528 7.87073 10.3644 8.83379 8.97101 8.90551L7.69035 8.97723C5.73349 9.08993 4.31963 10.8931 4.67822 12.8192L4.91386 14.0794C5.17 15.4523 4.51429 16.8354 3.2951 17.5116L2.17836 18.1366C0.467387 19.0894 -0.0243892 21.3229 1.13333 22.9006L1.89149 23.9354C2.71112 25.0624 2.73161 26.589 1.92222 27.7364L1.18456 28.7815C0.0575735 30.3797 0.580086 32.603 2.31155 33.5353L3.43853 34.1398C4.66797 34.7955 5.34417 36.1683 5.10852 37.5515L4.89337 38.8116C4.56552 40.7378 6.01011 42.5205 7.96697 42.6024L9.24764 42.6536C10.641 42.7151 11.85 43.6577 12.2393 44.9998L12.5979 46.2293C13.1409 48.1144 15.2104 49.0877 17.0136 48.3091L18.1918 47.807C19.4725 47.2538 20.9683 47.5816 21.9006 48.6267L22.751 49.5795C24.0624 51.0343 26.3471 51.0241 27.6278 49.5385L28.4679 48.5754C29.39 47.5202 30.8755 47.1718 32.1665 47.7046L33.3549 48.1964C35.1683 48.9443 37.2174 47.93 37.7399 46.0448L38.078 44.8052C38.4468 43.4528 39.6353 42.4897 41.0287 42.418L42.3093 42.3463C44.2662 42.2336 45.6801 40.4304 45.3215 38.5043L45.0858 37.2441C44.8297 35.8712 45.4854 34.4881 46.7046 33.8119L47.8213 33.187C49.5323 32.2444 50.0241 30.0109 48.8664 28.4229ZM13.3048 21.4151C13.3048 18.6283 15.5588 16.3744 18.3455 16.3744C21.1322 16.3744 23.3862 18.6283 23.3862 21.4151C23.3862 24.2018 21.1322 26.4558 18.3455 26.4558C15.5588 26.4558 13.3048 24.1915 13.3048 21.4151ZM19.3188 34.4164C18.8885 34.9389 18.1099 35.0106 17.5873 34.5803C17.0648 34.15 16.9931 33.3714 17.4234 32.8489L30.6501 16.9174C31.0805 16.3948 31.8591 16.3231 32.3816 16.7534C32.9041 17.1837 32.9758 17.9624 32.5455 18.4849L19.3188 34.4164ZM31.6337 34.9389C28.847 34.9389 26.593 32.6849 26.593 29.8982C26.593 27.1115 28.847 24.8575 31.6337 24.8575C34.4204 24.8575 36.6744 27.1115 36.6744 29.8982C36.6744 32.6849 34.4204 34.9389 31.6337 34.9389Z" fill="white"/>
</g>
<defs>
<clipPath id="clip0">
<rect width="50" height="50" fill="white" transform="translate(0 0.661865)"/>
</clipPath>
</defs>
</svg>
