<svg width="50" height="51" viewBox="0 0 50 51" fill="none" xmlns="http://www.w3.org/2000/svg">
<g clip-path="url(#clip0)">
<path d="M26.8878 11.4403C26.8239 10.2475 25.6049 10.4504 24.4155 10.4504C25.2941 10.6844 26.1253 11.01 26.8878 11.4403Z" fill="white"/>
<path d="M14.1731 8.45093C9.55569 8.45093 7.43037 14.2953 11.1215 17.2348C12.3799 13.8748 14.8848 11.4623 18.1686 10.5101C17.2703 9.2682 15.819 8.45093 14.1731 8.45093Z" fill="white"/>
<path d="M4.63427 16.3201C4.82244 16.9239 5.06624 17.5032 5.35588 18.052L3.83912 19.5696C3.4318 19.9769 3.4318 20.6381 3.83912 21.0462L6.51262 23.7206C6.70732 23.9153 6.9741 24.0248 7.25214 24.0248C7.52713 24.0248 7.79211 23.9153 7.99018 23.7206L9.50526 22.203C9.73262 22.3233 9.98464 22.397 10.2201 22.5008C10.2201 22.4835 10.2184 22.4656 10.2184 22.4483C10.2184 21.2082 10.3609 20.0382 10.6145 18.9397C8.78523 17.7624 7.56464 15.7188 7.56464 13.3856C7.56464 9.74102 10.5294 6.77546 14.1731 6.77546C16.6404 6.77546 18.7707 8.14904 19.9078 10.1558C21.1219 10.0053 22.2623 10.0053 23.635 10.2647C23.4585 9.73049 23.2507 9.20769 22.9904 8.71766L24.5072 7.19933C24.7051 7.00378 24.8146 6.73785 24.8146 6.46139C24.8146 6.18482 24.7051 5.919 24.5072 5.72345L21.8352 3.05079C21.6308 2.84629 21.364 2.74483 21.0973 2.74483C20.8306 2.74483 20.5639 2.84629 20.361 3.05079L18.8394 4.56913C18.2897 4.27791 17.7121 4.03411 17.1068 3.85005V1.70493C17.1068 1.12903 16.6421 0.661865 16.0645 0.661865H12.2834C11.7091 0.661865 11.2394 1.12903 11.2394 1.70493V3.84994C10.6357 4.03401 10.058 4.27781 9.50663 4.56902L7.99018 3.05237C7.78558 2.84787 7.51891 2.74641 7.25214 2.74641C6.98547 2.74641 6.71723 2.84787 6.51431 3.05153L3.83912 5.72419C3.64442 5.92058 3.53484 6.18556 3.53484 6.46297C3.53484 6.74027 3.64442 7.00536 3.83912 7.20091L5.35588 8.7184C5.06614 9.26817 4.82244 9.84659 4.63764 10.4503H2.4942C1.91662 10.4503 1.4502 10.9182 1.4502 11.4949V15.2762C1.4502 15.8512 1.91662 16.3201 2.4942 16.3201H4.63427Z" fill="white"/>
<path d="M37.3889 36.5531C39.0612 35.6359 40.2097 33.8804 40.2097 31.8432C40.2097 28.8703 37.7899 26.4521 34.817 26.4521C33.7715 26.4521 32.8027 26.7646 31.9749 27.2816C31.4792 29.2548 30.6987 31.1422 29.6777 32.7816C32.572 33.3257 35.2276 34.6436 37.3889 36.5531Z" fill="white"/>
<path d="M48.5478 29.803C48.5478 29.1804 48.0421 28.6764 47.422 28.6764H45.1086C44.9089 28.0243 44.6439 27.3993 44.3297 26.8062L45.9674 25.1685C46.1802 24.9574 46.2979 24.6711 46.2979 24.3725C46.2979 24.0738 46.1801 23.7875 45.9674 23.5757L43.0844 20.6919C42.8653 20.4717 42.5757 20.3613 42.2878 20.3613C41.9998 20.3613 41.7118 20.4717 41.4927 20.6919L39.8516 22.3305C39.2592 22.0163 38.6358 21.753 37.9814 21.5541V19.2406C37.9814 18.6188 37.479 18.1148 36.8573 18.1148H32.7784C32.5051 18.1148 32.2645 18.2244 32.0684 18.3864C32.4118 19.6397 32.6 20.9986 32.6 22.4482C32.6 23.3686 32.5281 24.303 32.3939 25.2322C33.153 24.9523 33.9612 24.7766 34.8171 24.7766C38.7143 24.7766 41.8852 27.9468 41.8852 31.8431C41.8852 34.3334 40.5846 36.5161 38.6326 37.7751C40.0528 39.3328 41.1818 41.1808 41.9164 43.2513C42.0374 43.293 42.1634 43.3234 42.2894 43.3234C42.5774 43.3234 42.8654 43.2138 43.0862 42.9936L45.9709 40.1098C46.182 39.8986 46.2981 39.6124 46.2981 39.3138C46.2981 39.0152 46.182 38.7289 45.9709 38.517L44.3298 36.8784C44.644 36.2862 44.909 35.661 45.1087 35.0083H47.4221C47.7199 35.0083 48.0095 34.8905 48.2189 34.6777C48.4301 34.4674 48.5496 34.1804 48.5496 33.8817L48.5478 29.803Z" fill="white"/>
<path d="M39.6191 44.2709C37.8699 39.1243 33.2479 35.5845 27.9122 35.1027C26.1256 36.9948 23.9134 38.1951 21.4083 38.1951C18.905 38.1951 16.6912 36.9949 14.9062 35.1027C9.56744 35.5845 4.94521 39.1243 3.19603 44.2718L2.22914 47.1178C1.95257 47.9368 2.08501 48.8392 2.58905 49.5418C3.09299 50.2447 3.90457 50.6619 4.76842 50.6619H38.0466C38.9121 50.6619 39.7237 50.2447 40.2277 49.5418C40.73 48.8392 40.8642 47.9368 40.586 47.1178L39.6191 44.2709Z" fill="white"/>
<path d="M12.7314 22.4483C12.7314 28.8319 16.6174 35.6818 21.408 35.6818C26.2005 35.6818 30.0863 28.8319 30.0863 22.4483C30.0864 9.21574 12.7314 9.18951 12.7314 22.4483Z" fill="white"/>
</g>
<defs>
<clipPath id="clip0">
<rect width="50" height="50" fill="white" transform="translate(0 0.661865)"/>
</clipPath>
</defs>
</svg>
