<svg width="45" height="45" viewBox="0 0 45 45" fill="none" xmlns="http://www.w3.org/2000/svg">
<g clip-path="url(#clip0)">
<path d="M22.5002 23.8296C28.0723 23.8296 32.5898 18.5422 32.5898 12.0201C32.5898 2.97563 28.0725 0.210728 22.5002 0.210728C16.9277 0.210728 12.4106 2.97563 12.4106 12.0201C12.4108 18.5422 16.9279 23.8296 22.5002 23.8296Z" fill="white"/>
<path d="M44.78 41.2115L39.6897 29.7447C39.4569 29.2199 39.0478 28.7847 38.5387 28.5197L30.6389 24.4073C30.4647 24.3168 30.2537 24.3344 30.0971 24.453C27.8627 26.1429 25.2357 27.0362 22.5001 27.0362C19.7641 27.0362 17.1373 26.1429 14.9029 24.453C14.7459 24.3344 14.5349 24.3168 14.3607 24.4073L6.4614 28.5197C5.95208 28.7847 5.5435 29.2197 5.31045 29.7447L0.220135 41.2115C-0.130811 42.0021 -0.0588841 42.9065 0.412601 43.6316C0.883865 44.3566 1.68144 44.7893 2.54621 44.7893H42.4537C43.3185 44.7893 44.1163 44.3564 44.5875 43.6315C45.0588 42.9065 45.1309 42.0017 44.78 41.2115Z" fill="white"/>
</g>
<defs>
<clipPath id="clip0">
<rect width="45" height="45" fill="white"/>
</clipPath>
</defs>
</svg>
