<svg xmlns="http://www.w3.org/2000/svg" style="isolation:isolate" viewBox="0 0 636.334 169.301" width="848.445" height="225.735"><defs><clipPath id="a"><path d="M0 0h636.334v169.301H0z"/></clipPath></defs><g clip-path="url(#a)"><clipPath id="b"><path d="M0 1v169.301h636.334V1H0z" fill="#FFF"/></clipPath><g clip-path="url(#b)"><path d="M277.681 101.036c1.873 0 3.629-.36 5.272-1.078a13.768 13.768 0 004.29-2.923 13.894 13.894 0 002.886-4.294c.706-1.623 1.057-3.365 1.057-5.21 0-1.845-.351-3.588-1.057-5.216a13.943 13.943 0 00-2.886-4.289 13.665 13.665 0 00-4.29-2.922c-1.643-.719-3.399-1.078-5.272-1.078-1.898 0-3.668.359-5.308 1.078-1.643.718-3.067 1.683-4.273 2.904-1.205 1.216-2.16 2.647-2.865 4.288a13.105 13.105 0 00-1.059 5.235c0 1.845.352 3.593 1.059 5.234.705 1.641 1.66 3.072 2.865 4.288 1.206 1.222 2.63 2.186 4.273 2.905 1.64.718 3.41 1.078 5.308 1.078zm-13.505-30.28c3.822-3.18 8.324-4.773 13.505-4.773 5.9 0 10.98 2.105 15.238 6.312 2.102 2.078 3.68 4.39 4.732 6.941 1.052 2.558 1.577 5.318 1.577 8.295 0 6.001-2.103 11.079-6.309 15.236-4.258 4.21-9.338 6.312-15.238 6.312-5.951 0-11.03-2.102-15.237-6.312-4.207-4.205-6.31-9.283-6.31-15.236V51.517c0-1.153.378-2.112 1.136-2.866.756-.758 1.713-1.138 2.867-1.138 1.127 0 2.082.38 2.866 1.138.781.754 1.173 1.713 1.173 2.866v19.239zM339.898 83.53a12.919 12.919 0 00-1.943-3.869 13.865 13.865 0 00-3.002-3 13.852 13.852 0 00-3.77-1.94 13.24 13.24 0 00-4.252-.695c-1.462 0-2.886.233-4.27.695a14.052 14.052 0 00-3.811 1.94 13.281 13.281 0 00-3 3 12.482 12.482 0 00-1.885 3.869h25.933zm-1.732 13.427c1.155 0 2.11.378 2.867 1.138.757.755 1.136 1.707 1.136 2.863 0 1.132-.385 2.09-1.155 2.886-3.977 3.492-8.671 5.235-14.083 5.235-5.952 0-11.03-2.102-15.237-6.312-4.207-4.205-6.31-9.283-6.31-15.236 0-5.953 2.103-11.032 6.31-15.236 4.207-4.207 9.285-6.312 15.237-6.312 5.899 0 10.979 2.105 15.238 6.312 2.101 2.078 3.679 4.39 4.732 6.941 1.051 2.558 1.576 5.318 1.576 8.295 0 1.156-.391 2.108-1.172 2.869-.783.754-1.738 1.131-2.867 1.131h-30.473a13.11 13.11 0 001.924 3.869 13.449 13.449 0 002.981 3 13.79 13.79 0 003.771 1.941c1.372.461 2.802.695 4.29.695 1.694 0 3.244-.258 4.656-.767 1.411-.515 2.717-1.287 3.924-2.311a4.2 4.2 0 012.655-1.001zM354.25 105.078V51.556c0-1.129.377-2.085 1.134-2.869.756-.779 1.713-1.174 2.868-1.174 1.154 0 2.109.395 2.865 1.174.756.784 1.135 1.74 1.135 2.869v49.48h1.847c1.103 0 2.046.389 2.828 1.174.783.784 1.173 1.736 1.173 2.868 0 1.102-.39 2.042-1.173 2.827-.782.779-1.725 1.174-2.828 1.174h-5.887a3.802 3.802 0 01-2.808-1.174c-.77-.785-1.154-1.725-1.154-2.827zM373.026 105.036v-53.48c0-1.129.391-2.085 1.174-2.869.783-.779 1.738-1.174 2.867-1.174 1.102 0 2.045.395 2.828 1.174.781.784 1.174 1.74 1.174 2.869v30.01L404.077 66.6a3.912 3.912 0 012.154-.617c.564 0 1.09.102 1.578.308.486.207.91.494 1.27.866.359.371.648.802.865 1.287.219.491.328 1 .328 1.539 0 1.438-.514 2.504-1.539 3.198l-16.122 10.463 16.544 18.626c.744.82 1.117 1.754 1.117 2.808 0 .539-.109 1.048-.328 1.539a4.443 4.443 0 01-.865 1.288c-.36.371-.784.659-1.27.862a3.947 3.947 0 01-1.578.312c-1.076 0-1.975-.348-2.693-1.042L385.762 88.07l-4.693 3.078v13.888c0 1.102-.393 2.054-1.174 2.851-.783.79-1.726 1.192-2.828 1.192-1.129 0-2.084-.402-2.867-1.192-.783-.797-1.174-1.749-1.174-2.851zM435.282 74.026c-1.899 0-3.668.359-5.31 1.078-1.641.718-3.065 1.683-4.271 2.904-1.205 1.216-2.16 2.647-2.865 4.288-.708 1.642-1.059 3.39-1.059 5.235 0 1.845.351 3.593 1.059 5.234.705 1.641 1.66 3.072 2.865 4.288 1.206 1.222 2.63 2.186 4.271 2.905 1.642.718 3.411 1.078 5.31 1.078 1.873 0 3.629-.36 5.271-1.078a13.745 13.745 0 004.29-2.923 13.88 13.88 0 002.887-4.294c.705-1.623 1.057-3.365 1.057-5.21 0-1.845-.352-3.588-1.057-5.216a13.928 13.928 0 00-2.887-4.289 13.642 13.642 0 00-4.29-2.922c-1.642-.719-3.398-1.078-5.271-1.078zm13.505 31.052v-.772a22.045 22.045 0 01-6.272 3.539c-2.257.821-4.669 1.234-7.233 1.234-5.951 0-11.03-2.102-15.238-6.312-4.207-4.205-6.309-9.283-6.309-15.236 0-5.953 2.102-11.032 6.309-15.236 4.208-4.207 9.287-6.312 15.238-6.312 5.899 0 10.979 2.105 15.237 6.312 4.206 4.204 6.31 9.283 6.31 15.236v17.547c0 1.102-.392 2.042-1.173 2.827-.783.779-1.727 1.174-2.828 1.174-1.129 0-2.084-.395-2.867-1.174-.784-.785-1.174-1.725-1.174-2.827z" fill="#EE4643"/><path d="M474.092 87.531c0 1.845.353 3.593 1.059 5.234a13.723 13.723 0 002.866 4.288c1.205 1.222 2.629 2.186 4.272 2.905 1.64.718 3.41 1.078 5.308 1.078 1.873 0 3.63-.36 5.273-1.078a13.776 13.776 0 004.289-2.923 13.877 13.877 0 002.886-4.294c.706-1.623 1.058-3.365 1.058-5.21 0-1.845-.352-3.588-1.058-5.216a13.925 13.925 0 00-2.886-4.289 13.672 13.672 0 00-4.289-2.922c-1.643-.719-3.4-1.078-5.273-1.078-1.898 0-3.668.359-5.308 1.078-1.643.718-3.067 1.683-4.272 2.904a13.723 13.723 0 00-2.866 4.288 13.123 13.123 0 00-1.059 5.235zm13.505 21.548c-5.156 0-9.656-1.581-13.505-4.731v19.194c0 1.156-.391 2.114-1.173 2.869-.783.754-1.739 1.137-2.866 1.137-1.154 0-2.111-.383-2.867-1.137-.758-.755-1.135-1.713-1.135-2.869V87.531c0-5.953 2.102-11.032 6.31-15.236 4.207-4.207 9.285-6.312 15.236-6.312 5.9 0 10.98 2.105 15.238 6.312 2.102 2.078 3.68 4.39 4.733 6.941 1.051 2.558 1.576 5.318 1.576 8.295 0 6.001-2.103 11.079-6.309 15.236-2.155 2.131-4.497 3.713-7.022 4.755-2.527 1.036-5.266 1.557-8.216 1.557zM536.847 74.026c-1.898 0-3.668.359-5.308 1.078-1.643.718-3.067 1.683-4.273 2.904-1.205 1.216-2.16 2.647-2.865 4.288a13.105 13.105 0 00-1.059 5.235c0 1.845.352 3.593 1.059 5.234.705 1.641 1.66 3.072 2.865 4.288 1.206 1.222 2.63 2.186 4.273 2.905 1.64.718 3.41 1.078 5.308 1.078 1.873 0 3.629-.36 5.272-1.078a13.768 13.768 0 004.29-2.923 13.877 13.877 0 002.886-4.294c.706-1.623 1.057-3.365 1.057-5.21 0-1.845-.351-3.588-1.057-5.216a13.925 13.925 0 00-2.886-4.289 13.665 13.665 0 00-4.29-2.922c-1.643-.719-3.399-1.078-5.272-1.078zm21.547 13.505c0 6.001-2.103 11.079-6.309 15.236-4.258 4.21-9.338 6.312-15.238 6.312-5.951 0-11.03-2.102-15.237-6.312-4.207-4.205-6.31-9.283-6.31-15.236 0-5.953 2.103-11.032 6.31-15.236 4.207-4.207 9.286-6.312 15.237-6.312 5.9 0 10.98 2.105 15.238 6.312 2.102 2.102 3.673 4.426 4.712 6.965 1.039 2.539 1.572 5.294 1.597 8.271zM572.399 88.567c-2.411-.922-4.105-1.869-5.079-2.845h.039c-1.949-1.976-2.924-4.294-2.924-6.965 0-1.946.52-3.713 1.559-5.288 1.037-1.581 2.39-2.92 4.058-4.025 1.667-1.102 3.546-1.952 5.638-2.557a22.623 22.623 0 016.289-.904c6.413 0 11.915 2.578 16.508 7.737.538.665.807 1.474.807 2.42 0 1.156-.377 2.114-1.134 2.868-.757.755-1.713 1.133-2.867 1.133-.821 0-1.52-.228-2.096-.689a19.937 19.937 0 01-1.674-1.503c-2.617-2.617-5.798-3.923-9.544-3.923-3.693 0-6.643 1.132-8.848 3.384-.412.413-.616.976-.616 1.695 0 .718.333 1.203 1.001 1.461l18.007 5.923c2.512.976 4.205 1.928 5.078 2.85h-.039c1.95 1.977 2.925 4.294 2.925 6.965 0 1.977-.52 3.743-1.559 5.306-1.038 1.57-2.391 2.905-4.059 4.025-1.668 1.114-3.539 1.971-5.617 2.557a22.75 22.75 0 01-6.273.887c-6.463 0-11.965-2.552-16.505-7.66a4.029 4.029 0 01-.847-2.498c0-1.155.378-2.113 1.134-2.868.758-.755 1.713-1.138 2.867-1.138.847 0 1.565.252 2.156.755.59.497 1.129.982 1.615 1.443 2.617 2.617 5.811 3.923 9.58 3.923 3.669 0 6.62-1.156 8.851-3.462.384-.437.578-.964.578-1.581 0-.713-.348-1.216-1.039-1.497l-17.97-5.929zM609.106 65.983h1.809V51.517c0-1.105.39-2.046 1.173-2.83.783-.779 1.738-1.174 2.868-1.174 1.102 0 2.045.395 2.827 1.174.783.784 1.174 1.725 1.174 2.83v14.466h4.81c1.102 0 2.039.392 2.809 1.174a3.892 3.892 0 011.153 2.826c0 1.132-.385 2.084-1.153 2.869-.77.785-1.707 1.174-2.809 1.174h-4.81v19.35c0 5.108 2.564 7.66 7.695 7.66 1.102 0 2.039.389 2.809 1.174a3.889 3.889 0 011.154 2.826c0 1.132-.385 2.084-1.154 2.869-.77.779-1.707 1.174-2.809 1.174-10.491 0-15.737-5.235-15.737-15.703v-19.35h-1.809c-1.076 0-2.006-.389-2.789-1.174-.783-.785-1.174-1.737-1.174-2.869 0-1.102.391-2.042 1.174-2.826.783-.782 1.713-1.174 2.789-1.174zM190.872 106.993c0 12.758-10.343 23.099-23.1 23.099-12.758 0-23.1-10.341-23.1-23.099 0-12.758 10.342-23.099 23.1-23.099 12.757 0 23.1 10.341 23.1 23.099zM132.756 109.725h-.001V77.994c-8.399-.084-16.799-.119-25.198-.241-2.428-.035-3.148.849-3.122 3.222.107 9.809-.045 19.62.069 29.429.117 10.016 2.849 19.471 7.991 27.94 5.363 8.833 12.001 16.092 20.141 21.521 0 0-.646-30.467.12-50.14z" fill="#fff"/><path d="M97.57 112.448v-.192H49.102c4.704 7.717 9.836 14.307 16.85 19.217 11.241 7.871 26.177 8.741 39.217 8.218-4.877-8.292-7.485-17.498-7.599-27.243zM78.286 78.055c-.001-.064-7.082.082-7.083.018H22.735c4.704 7.718 9.836 14.306 16.85 19.217 10.346 7.244 23.804 8.539 36.049 8.295v.045h20.922V78.055h-18.27z" fill="#EE4643"/><path d="M230.096 99.398c.736 7.114.368 14.442-.798 21.434-2.483 14.687-10.272 25.879-22.077 35.599-7.849 6.47-16.711 11.131-26.769 12.756-10.118 1.625-20.176 1.687-30.295-1.257-1.349-.368-2.606-.859-3.894-1.319h.184v-30.295c2.637 1.84 5.519 3.404 8.739 4.569 15.699 5.826 31.92.92 41.855-13.308 10.64-15.27 7.88-35.569-6.225-47.712-6.929-5.948-14.871-8.401-23.702-8.493a14571.19 14571.19 0 01-62.124-.614V6.121C104.99 3.3 107.259 1 110.081 1h17.539c2.821 0 5.151 2.3 5.151 5.151v37.686c20.391.153 35.938.275 39.556.306 9.72.061 18.52 3.25 26.768 8.095 11.07 6.531 19.717 15.516 25.451 27.045 3.127 6.286 4.845 12.971 5.55 20.115z" fill="#fff"/><path d="M96.556 43.558C54.123 43.236 8.279 42.886 0 42.886c4.691 7.727 9.843 14.319 16.834 19.226 10.364 7.236 23.825 8.524 36.06 8.279v.061h20.912s9.418.106 22.75.231V43.558z" fill="#EE4643"/><path d="M104.98 43.622v27.136h.011V43.622h-.011z" fill="#538FCB"/></g></g></svg>