<?xml version="1.0" encoding="utf-8"?>
<!-- Generator: Adobe Illustrator 23.0.4, SVG Export Plug-In . SVG Version: 6.00 Build 0)  -->
<svg version="1.1" id="Layer_1" xmlns="http://www.w3.org/2000/svg" xmlns:xlink="http://www.w3.org/1999/xlink" x="0px" y="0px"
	 viewBox="0 0 662.6 467.7" style="enable-background:new 0 0 662.6 467.7;" xml:space="preserve">
<style type="text/css">
	.st0{enable-background:new    ;}
	.st1{fill:#C8A376;}
	.st2{fill:#A48157;}
	.st3{fill:#E3C095;}
	.st4{fill:#6B573F;}
	.st5{fill:#808080;}
	.st6{fill:#BFBFBF;}
	.st7{fill:#D3D3D3;}
	.st8{fill:#C5C5C5;}
	.st9{fill:#F2F2F2;}
	.st10{fill:#898989;}
	.st11{fill:#2C323D;}
	.st12{fill:#FFFFFF;}
	.st13{fill:#21599C;}
	.st14{fill:#80CDFF;}
	.st15{fill:#2085C7;}
	.st16{fill:#3899D9;}
	.st17{fill:#BF8B43;}
	.st18{fill:#FFCF5A;}
	.st19{fill:#F29C00;}
	.st20{fill:#FFE092;}
	.st21{fill:#B3B3B3;}
	.st22{fill:#962823;}
	.st23{fill:#961010;}
	.st24{opacity:0.1;enable-background:new    ;}
	.st25{fill:url(#SVGID_1_);}
	.st26{fill:#FAFAFA;}
	.st27{opacity:0.68;clip-path:url(#SVGID_3_);}
	.st28{opacity:0.42;fill:url(#SVGID_4_);enable-background:new    ;}
	.st29{fill:url(#SVGID_5_);}
	.st30{fill:url(#SVGID_6_);}
	.st31{fill:#DFA736;}
	.st32{fill:#CE9328;}
	.st33{fill:#ECECEC;}
	.st34{opacity:0.6;fill:url(#SVGID_7_);enable-background:new    ;}
	.st35{fill:#394451;}
	.st36{fill:#D3544B;}
	.st37{fill:#6B8BC7;}
</style>
<g>
	<g>
		<g>
			<g>
				<g class="st0">
					<g>
						<g>
							<g>
								<polygon class="st1" points="140.4,117.2 140.9,287.1 291.7,374.8 291.2,204.9 								"/>
							</g>
						</g>
					</g>
					<g>
						<g>
							<g>
								<polygon class="st2" points="291.2,204.9 291.7,374.8 443.6,287.1 443.1,117.2 								"/>
							</g>
						</g>
					</g>
					<g>
						<g>
							<g>
								<polygon class="st3" points="140.4,117.2 291.2,204.9 443.1,117.2 292.2,29.5 								"/>
							</g>
						</g>
					</g>
				</g>
			</g>
			<g>
				<g>
					<g>
						<g>
							<polygon class="st4" points="304.7,354.2 304.7,359.4 356.8,329.4 356.8,324.2 							"/>
						</g>
					</g>
				</g>
				<g>
					<g>
						<g>
							<polygon class="st4" points="330.6,293.7 304.7,338.7 322.8,328.2 322.9,341.5 330.8,337 338.7,332.4 338.6,319 356.8,308.6 
															"/>
						</g>
					</g>
				</g>
			</g>
			<g>
				<g class="st0">
					<g>
						<g>
							<g>
								<polygon class="st5" points="382.9,170.7 380.4,169.2 380.5,204.5 383,206 								"/>
							</g>
						</g>
					</g>
					<g>
						<g>
							<g>
								<polygon class="st6" points="428.1,144.6 425.5,143.2 380.4,169.2 382.9,170.7 								"/>
							</g>
						</g>
					</g>
					<g>
						<g>
							<g>
								<polygon class="st7" points="382.9,170.7 383,206 428.2,179.9 428.1,144.6 								"/>
							</g>
						</g>
					</g>
				</g>
			</g>
			<g>
				<g class="st0">
					<g>
						<g>
							<g>
								<polygon class="st8" points="214,159.8 195.3,149 195.8,320.3 214.5,331.2 								"/>
							</g>
						</g>
					</g>
					<g>
						<g>
							<g>
								<polygon class="st9" points="367.9,70.9 349.2,60.1 195.3,149 214,159.8 								"/>
							</g>
						</g>
					</g>
					<g>
						<g>
							<g>
								<polygon class="st10" points="214,159.8 214.5,331.2 216,330.3 215.6,160.7 367.9,72.8 367.9,70.9 								"/>
							</g>
						</g>
					</g>
				</g>
			</g>
		</g>
	</g>
	<g>
		<g>
			<path class="st11" d="M235.1,308l-17.7-9.5c-0.7-0.4-1.2-0.1-1.2,0.6v17.7c0,0.7,0.5,1.5,1.2,1.8l17.7,9.5
				c0.7,0.4,1.2,0.1,1.2-0.6v-17.7C236.3,309.2,235.8,308.4,235.1,308z M235.4,326.2c0,0.7-0.5,0.9-1.2,0.6l-15.8-8.4
				c-0.7-0.4-1.2-1.2-1.2-1.9v-15.8c0-0.7,0.5-0.9,1.2-0.6l15.8,8.4c0.7,0.4,1.2,1.2,1.2,1.9V326.2z"/>
			<g>
				<g>
					<polygon class="st11" points="223,318 221.9,317.4 221.9,305.2 223,305.8 					"/>
					<polygon class="st11" points="222.4,303.9 220.9,306.1 222.4,307 224,307.8 					"/>
				</g>
				<g>
					<polygon class="st11" points="230.6,322 229.5,321.4 229.5,309.2 230.6,309.8 					"/>
					<polygon class="st11" points="230,307.9 228.5,310.2 230,311 231.5,311.8 					"/>
				</g>
			</g>
			<polygon class="st11" points="219.3,317.7 219.3,316.6 233.1,323.9 233.1,325 			"/>
		</g>
		<g>
			<path class="st11" d="M259,320.8l-17.7-9.5c-0.7-0.4-1.2-0.1-1.2,0.6v17.7c0,0.7,0.5,1.5,1.2,1.8l17.7,9.5
				c0.7,0.4,1.2,0.1,1.2-0.6v-17.7C260.2,321.9,259.6,321.1,259,320.8z M259.2,338.9c0,0.7-0.5,0.9-1.2,0.6l-15.8-8.4
				c-0.7-0.4-1.2-1.2-1.2-1.9v-15.8c0-0.7,0.5-0.9,1.2-0.6l15.8,8.4c0.7,0.4,1.2,1.2,1.2,1.9V338.9z"/>
			<g>
				<path class="st11" d="M254.3,329.5L254.3,329.5c-1.5-0.8-2.7-2.7-2.7-4.2V319l5.4,2.9v6.3C257,329.7,255.8,330.2,254.3,329.5z"
					/>
				<polygon class="st11" points="254.6,335.9 254,335.6 254,329 254.6,329.4 				"/>
				<path class="st11" d="M251.6,334.7L251.6,334.7c0-0.4,0.3-0.5,0.6-0.3l4.2,2.2c0.4,0.2,0.6,0.6,0.6,1l0,0L251.6,334.7z"/>
				<path class="st11" d="M243.2,314.6v6.3c0,1.5,1.2,3.4,2.7,4.2l0,0c1.5,0.8,2.7,0.2,2.7-1.3v-6.3L243.2,314.6z M248.1,323.4
					c0,1.2-1,1.6-2.2,1s-2.2-2.1-2.2-3.3v-5.7l4.3,2.3v5.7H248.1z"/>
				<polygon class="st11" points="246.2,331.5 245.6,331.1 245.6,324.6 246.2,324.9 				"/>
				<path class="st11" d="M243.2,330.3L243.2,330.3c0-0.4,0.3-0.5,0.6-0.3l4.2,2.2c0.4,0.2,0.6,0.6,0.6,1l0,0L243.2,330.3z"/>
			</g>
		</g>
		<g>
			<path class="st11" d="M282.8,333.5l-17.7-9.5c-0.7-0.4-1.2-0.1-1.2,0.6v17.7c0,0.7,0.5,1.5,1.2,1.8l17.7,9.5
				c0.7,0.4,1.2,0.1,1.2-0.6v-17.7C284,334.6,283.5,333.8,282.8,333.5z M283.1,351.6c0,0.7-0.5,0.9-1.2,0.6l-15.8-8.4
				c-0.7-0.4-1.2-1.2-1.2-1.9V326c0-0.7,0.5-0.9,1.2-0.6l15.8,8.4c0.7,0.4,1.2,1.2,1.2,1.9V351.6z"/>
			<g>
				<g>
					<g>
						<path class="st11" d="M270.3,336.5c0.5-0.2,1.2-0.1,1.9,0.3c0.7,0.4,1.4,1,1.9,1.7c0.5-0.2,1.2-0.1,1.9,0.3
							c0.7,0.4,1.4,1,1.9,1.7c0.5-0.2,1.2-0.1,1.9,0.3c0.2,0.1,0.3,0.2,0.5,0.3c-0.3-3.3-2.9-7.2-6.2-8.9c-3.2-1.7-5.9-0.7-6.2,2.3
							c0.1,0,0.2,0.1,0.3,0.2C269.2,335.2,269.8,335.8,270.3,336.5z"/>
					</g>
				</g>
				<g>
					<path class="st11" d="M272.9,346.4c-0.9-0.5-1.7-1.6-1.7-2.5v-0.3c0-0.2,0.2-0.3,0.3-0.2c0.2,0.1,0.3,0.3,0.3,0.5v0.3
						c0,0.5,0.4,1.2,1,1.5c0.5,0.3,1,0.1,1-0.5v-13.8c0-0.2,0.2-0.3,0.3-0.2c0.2,0.1,0.3,0.3,0.3,0.5v13.8
						C274.6,346.5,273.9,346.9,272.9,346.4z"/>
				</g>
			</g>
		</g>
	</g>
	<g>
		<polygon class="st11" points="326.6,157.9 283.2,182 281.8,181.2 325.2,157.2 		"/>
		<polygon class="st11" points="331.1,160.1 287.7,184.2 286.3,183.5 329.6,159.4 		"/>
		<polygon class="st11" points="335.5,162.4 292.1,186.4 290.7,185.7 334.1,161.7 		"/>
		<polygon class="st11" points="339.9,164.6 296.5,188.6 295.1,187.9 338.5,163.9 		"/>
	</g>
	<g>
		<g>
			<g>
				<g>
					<path class="st12" d="M202,118l145.4,72.7c1.4,0.7,3.7,0.7,5.2,0l68.7-34.4c1.4-0.7,1.4-1.9,0-2.6L275.9,81
						c-1.4-0.7-3.7-0.7-5.2,0L202,115.4C200.6,116.1,200.6,117.3,202,118z"/>
				</g>
				<g>
					<path class="st12" d="M202,115.2l145.4,72.7c1.4,0.7,3.7,0.7,5.2,0l68.7-34.4c1.4-0.7,1.4-1.9,0-2.6L275.9,78.2
						c-1.4-0.7-3.7-0.7-5.2,0L202,112.6C200.6,113.3,200.6,114.5,202,115.2z"/>
				</g>
			</g>
			<g>
				<polygon class="st13" points="387.1,159.4 405.2,150.3 391.8,143.6 373.7,152.7 				"/>
				<polygon class="st14" points="374.2,152.7 387.1,159.1 404.7,150.3 391.8,143.9 				"/>
				<path class="st15" d="M397.5,153.9c0,0-8.7-1-11.3-2.6c-2.6-1.6-2.9-3.2-2.9-3.2l-4.6,2.3l12.9,6.5L397.5,153.9z"/>
				<path class="st16" d="M392.5,156.4c0,0-8.2-3.9-8.7-8.6l-9.6,4.8l12.9,6.5L392.5,156.4z"/>
				<g>
					<path class="st12" d="M397.4,149.4c0.6-0.2,1.4-0.2,2,0.1c0.5,0.3,0.6,0.7,0.2,0.9c0.3,0,0.6,0.1,0.8,0.3
						c0.4,0.3,0.4,0.6,0,0.9l0,0c-0.3,0.2-1,0.3-1.4,0.1l-0.8-0.4l-0.5-0.2l-1-0.5l-0.3-0.2l-0.6-0.3c-0.3-0.2-0.3-0.4,0-0.6l0,0
						C396.2,149.1,397,149.1,397.4,149.4z"/>
					<path class="st12" d="M390.1,149.8c0.3-0.1,0.7-0.1,1,0c0.2,0.1,0.3,0.3,0.1,0.5c0.1,0,0.3,0.1,0.4,0.1c0.2,0.1,0.2,0.3,0,0.4
						l0,0c-0.2,0.1-0.5,0.1-0.7,0l-0.4-0.2l-0.2-0.1l-0.5-0.2l-0.1-0.1l-0.3-0.2c-0.2-0.1-0.2-0.2,0-0.3l0,0
						C389.5,149.7,389.8,149.7,390.1,149.8z"/>
					<path class="st12" d="M389.9,146.3c0.4-0.2,1.1-0.2,1.5,0.1c0.4,0.2,0.4,0.5,0.2,0.7c0.2,0,0.4,0.1,0.6,0.2
						c0.3,0.2,0.3,0.5,0,0.7l0,0c-0.2,0.2-0.8,0.2-1.1,0l-0.6-0.3l-0.4-0.2l-0.8-0.4l-0.2-0.1l-0.5-0.2c-0.2-0.1-0.3-0.3,0-0.4l0,0
						C389,146.1,389.5,146.1,389.9,146.3z"/>
				</g>
			</g>
			<g>
				<g>
					<path class="st13" d="M372.8,142.9c-2.8-1.6-7.1-3.3-13.4-4.3c0.2,0,0.4,0,0.5-0.1s0-0.2-0.2-0.2c6.7,1.1,11.2,3,14.1,4.7
						C373.5,142.9,373.2,142.9,372.8,142.9z"/>
					<path class="st13" d="M359.2,138.3c0,0.1,0,0.1,0.1,0.2h0.1c-5.6-1-9.7-2.4-12.6-3.9c-1.5-0.8-2.7-1.5-3.6-2.2
						c-2.9-2.1-3.7-3.8-3.7-3.9c0-0.1,0.1-0.2,0.3-0.2c0.2,0,0.4,0,0.5,0.1c0,0,0.8,1.7,3.6,3.8c2.6,1.9,7.4,4.5,15.8,5.9
						C359.5,138.2,359.3,138.2,359.2,138.3z"/>
					<path class="st13" d="M360,138.4c-0.1,0.1-0.3,0.2-0.5,0.1c-0.1,0-0.1,0-0.1,0c-0.1,0-0.1-0.1-0.1-0.2c0.1-0.1,0.3-0.2,0.5-0.1
						C359.9,138.2,360,138.3,360,138.4z"/>
					<path class="st13" d="M355.1,140.7c0.2,0,0.4,0,0.5-0.1s0-0.2-0.2-0.2c4.8,0.8,8.5,2,11.3,3.2c-0.3,0.1-0.5,0.1-0.8,0.2
						C363.2,142.6,359.7,141.5,355.1,140.7z"/>
					<path class="st13" d="M354.9,140.5c0,0.1,0,0.1,0.1,0.2h0.1c-5.6-1-9.7-2.4-12.6-3.9c-1.5-0.8-2.7-1.5-3.6-2.2
						c-2.9-2.1-3.7-3.8-3.7-3.9c0-0.1,0.1-0.2,0.3-0.2c0.2,0,0.4,0,0.5,0.1c0,0,0.8,1.7,3.6,3.8c2.6,1.9,7.4,4.5,15.8,5.9
						C355.2,140.3,355,140.4,354.9,140.5z"/>
					<path class="st13" d="M355.6,140.6c-0.1,0.1-0.3,0.2-0.5,0.1c-0.1,0-0.1,0-0.1,0c-0.1-0.1-0.1-0.1-0.1-0.2
						c0.1-0.1,0.3-0.2,0.5-0.1C355.6,140.4,355.7,140.5,355.6,140.6z"/>
					<path class="st13" d="M350.8,142.9c0.2,0,0.4,0,0.5-0.1s0-0.2-0.2-0.2c4.4,0.7,7.8,1.8,10.4,2.9c-0.2,0.1-0.4,0.2-0.5,0.3
						C358.4,144.6,355,143.6,350.8,142.9z"/>
					<path class="st13" d="M350.6,142.7c0,0.1,0,0.1,0.1,0.2h0.1c-5.6-1-9.7-2.4-12.6-3.9c-1.5-0.8-2.7-1.5-3.6-2.2
						c-2.9-2.1-3.7-3.8-3.7-3.9c0-0.1,0.1-0.2,0.3-0.2c0.2,0,0.4,0,0.5,0.1c0,0,0.8,1.7,3.6,3.8c2.6,1.9,7.4,4.5,15.8,5.9
						C350.8,142.5,350.6,142.6,350.6,142.7z"/>
					<path class="st13" d="M351.3,142.8c-0.1,0.1-0.3,0.2-0.5,0.1c-0.1,0-0.1,0-0.1,0c-0.1-0.1-0.1-0.1-0.1-0.2
						c0.1-0.1,0.3-0.2,0.5-0.1C351.2,142.6,351.3,142.7,351.3,142.8z"/>
					<path class="st13" d="M346.9,145c0.1-0.1,0-0.2-0.2-0.2c4.9,0.8,8.6,2,11.4,3.3c-0.1,0.1-0.2,0.3-0.3,0.4
						c-2.7-1.3-6.4-2.5-11.4-3.3C346.6,145.1,346.9,145.1,346.9,145z"/>
					<path class="st13" d="M326.9,134.9c0.2,0,0.4,0,0.5,0.1c0,0,0.8,1.7,3.6,3.8c2.6,1.9,7.4,4.5,15.8,5.9c-0.2,0-0.4,0-0.5,0.1
						c0,0.1,0,0.1,0.1,0.2h0.1c-5.6-1-9.7-2.4-12.6-3.9c-1.5-0.8-2.7-1.5-3.6-2.2c-2.9-2.1-3.7-3.8-3.7-3.9
						C326.5,135,326.7,134.9,326.9,134.9z"/>
					<path class="st13" d="M346.2,144.8c0.1-0.1,0.3-0.2,0.5-0.1c0.2,0,0.3,0.1,0.2,0.2c-0.1,0.1-0.3,0.2-0.5,0.1
						c-0.1,0-0.1,0-0.1,0C346.2,145,346.2,144.9,346.2,144.8z"/>
				</g>
				<g>
					<g>
						<path class="st13" d="M361.7,145.3c-6.4,3.2-6.4,8.4,0,11.7c6.4,3.2,16.9,3.2,23.3,0s6.4-8.4,0-11.7
							C378.6,142.1,368.1,142.1,361.7,145.3z M362.4,145.6c6.1-3,15.9-3,21.9,0c6.1,3,6.1,7.9,0,11c-6.1,3-15.9,3-21.9,0
							C356.3,153.6,356.3,148.7,362.4,145.6z"/>
					</g>
					<g>
						<path class="st13" d="M365.8,147.3c-4.2,2.1-4.2,5.5,0,7.6s11,2.1,15.2,0s4.2-5.5,0-7.6S370,145.2,365.8,147.3z M366.5,147.7
							c3.8-1.9,9.9-1.9,13.7,0c3.8,1.9,3.8,5,0,6.9s-9.9,1.9-13.7,0C362.7,152.7,362.7,149.6,366.5,147.7z"/>
					</g>
					<g>
						<path class="st13" d="M381.9,155.4c-0.4,0.2-0.4,0.5,0,0.7s0.9,0.2,1.3,0s0.4-0.5,0-0.7C382.8,155.2,382.2,155.2,381.9,155.4z
							"/>
					</g>
					<g>
						<path class="st13" d="M363.5,146.2c-0.4,0.2-0.4,0.5,0,0.7s0.9,0.2,1.3,0s0.4-0.5,0-0.7C364.5,146,363.9,146,363.5,146.2z"/>
					</g>
					<g>
						<g>
							<path class="st13" d="M378.6,151.6c-0.4,0.2-0.4,0.5,0,0.7s0.9,0.2,1.3,0s0.4-0.5,0-0.7C379.6,151.4,379,151.4,378.6,151.6z"
								/>
						</g>
						<g>
							<path class="st13" d="M374.8,149.7c-0.4,0.2-0.4,0.5,0,0.7s0.9,0.2,1.3,0s0.4-0.5,0-0.7C375.8,149.6,375.2,149.6,374.8,149.7
								z"/>
						</g>
						<g>
							<path class="st13" d="M371.1,147.9c-0.4,0.2-0.4,0.5,0,0.7s0.9,0.2,1.3,0s0.4-0.5,0-0.7S371.4,147.7,371.1,147.9z"/>
						</g>
					</g>
					<g>
						<g>
							<path class="st13" d="M373.9,154c-0.4,0.2-0.4,0.5,0,0.7s0.9,0.2,1.3,0s0.4-0.5,0-0.7C374.9,153.8,374.3,153.8,373.9,154z"/>
						</g>
						<g>
							<path class="st13" d="M370.1,152.1c-0.4,0.2-0.4,0.5,0,0.7s0.9,0.2,1.3,0s0.4-0.5,0-0.7C371.1,151.9,370.5,151.9,370.1,152.1
								z"/>
						</g>
						<g>
							<path class="st13" d="M366.4,150.2c-0.4,0.2-0.4,0.5,0,0.7s0.9,0.2,1.3,0s0.4-0.5,0-0.7C367.3,150,366.7,150,366.4,150.2z"/>
						</g>
					</g>
				</g>
			</g>
			<g>
				<polygon class="st13" points="269.7,85.3 309.8,105.3 311.1,104.7 270.9,84.6 				"/>
				<polygon class="st13" points="265.8,87.2 305.9,107.3 307.1,106.7 267,86.6 				"/>
				<polygon class="st13" points="261.8,89.2 301.9,109.3 303.2,108.6 263.1,88.6 				"/>
				<polygon class="st13" points="257.9,91.2 298,111.2 299.3,110.6 259.1,90.5 				"/>
			</g>
			<g>
				<polygon class="st13" points="321.4,153.7 361.5,173.8 362.8,173.2 322.7,153.1 				"/>
				<polygon class="st13" points="317.5,155.7 357.6,175.8 358.9,175.1 318.7,155.1 				"/>
				<polygon class="st13" points="313.5,157.7 353.7,177.7 354.9,177.1 314.8,157 				"/>
				<polygon class="st13" points="309.6,159.6 349.7,179.7 351,179.1 310.9,159 				"/>
			</g>
			<g>
				<polygon class="st13" points="280.8,147.3 281.7,147.7 288.1,144.5 287.2,144.1 				"/>
				<polygon class="st13" points="278.2,146 279.1,146.4 285.5,143.2 284.6,142.8 				"/>
				<polygon class="st13" points="275.6,144.7 276.5,145.1 278.9,143.9 278,143.5 				"/>
				<polygon class="st13" points="273,143.4 273.9,143.8 276.3,142.6 275.4,142.2 				"/>
				<polygon class="st13" points="270.3,142.1 271.3,142.5 273.7,141.3 272.8,140.9 				"/>
				<polygon class="st13" points="267.7,140.8 268.7,141.2 271.1,140 270.1,139.6 				"/>
				<polygon class="st13" points="265.1,139.5 266.1,139.9 268.5,138.7 267.5,138.2 				"/>
				<polygon class="st13" points="262.5,138.1 263.4,138.6 265.9,137.4 264.9,136.9 				"/>
				<polygon class="st13" points="259.9,136.8 260.8,137.3 267.3,134.1 266.4,133.6 				"/>
				<polygon class="st13" points="257.3,135.5 258.2,136 264.7,132.8 263.7,132.3 				"/>
				<polygon class="st13" points="254.7,134.2 255.6,134.7 258,133.5 257.1,133 				"/>
				<polygon class="st13" points="252.1,132.9 253,133.4 255.4,132.2 254.5,131.7 				"/>
				<polygon class="st13" points="249.5,131.6 250.4,132.1 256.8,128.9 255.9,128.4 				"/>
				<polygon class="st13" points="246.9,130.3 247.8,130.8 250.2,129.6 249.3,129.1 				"/>
				<polygon class="st13" points="244.3,129 245.2,129.5 251.6,126.3 250.7,125.8 				"/>
				<polygon class="st13" points="241.7,127.7 242.6,128.2 249,125 248.1,124.5 				"/>
				<polygon class="st13" points="239,126.4 240,126.9 246.4,123.7 245.5,123.2 				"/>
				<polygon class="st13" points="236.4,125.1 237.4,125.6 243.8,122.3 242.9,121.9 				"/>
				<polygon class="st13" points="233.8,123.8 234.7,124.3 237.2,123.1 236.2,122.6 				"/>
				<polygon class="st13" points="231.2,122.5 232.1,123 234.5,121.8 233.6,121.3 				"/>
				<polygon class="st13" points="228.6,121.2 229.5,121.7 231.9,120.5 231,120 				"/>
				<polygon class="st13" points="226,119.9 226.9,120.3 229.3,119.1 228.4,118.7 				"/>
				<polygon class="st13" points="223.4,118.6 224.3,119 226.7,117.8 225.8,117.4 				"/>
				<polygon class="st13" points="220.8,117.3 221.7,117.7 228.1,114.5 227.2,114.1 				"/>
			</g>
		</g>
	</g>
	<g>
		<g>
			<g>
				<g>
					<g>
						<g>
							<path class="st17" d="M0.9,319.6l102.6-49.3c1.2-0.6,3.1-0.5,4.2,0.1l214.8,112.1c0.1,0,0.2,0.1,0.2,0.2l-0.4-0.6l1-0.1v1.6
								c0,0.4-0.3,0.8-0.9,1.1L219.8,434c-1.2,0.6-3.1,0.5-4.2-0.1L0.9,321.7C-0.3,321.1-0.3,320.1,0.9,319.6z"/>
							<path class="st18" d="M322.6,382.9L220,432.2c-1.2,0.6-3.1,0.5-4.2-0.1L0.9,320.1c-1.2-0.6-1.1-1.6,0-2.1l102.6-49.3
								c1.2-0.6,3.1-0.5,4.2,0.1l214.8,112.1C323.7,381.4,323.7,382.3,322.6,382.9z"/>
						</g>
						<polygon class="st19" points="89,309.7 274.1,406.3 275,405.9 89.8,309.3 						"/>
					</g>
					<g>
						<g>
							<path class="st17" d="M143.4,293.9L108,269.8c-2.5-1.3-4.2-0.1-4.2-0.1l-51.3,24.7L1.2,319c0,0-0.6-0.7-0.9-0.3l-0.2-0.2v2.2
								l0,0c0,0.3,0.3,0.1,1.2,0.5l49.2,18.6c2.4,0.9,5.6,0.8,7.7-0.2l42.2-20.3l42.2-20.3C144.6,298,145.1,295.1,143.4,293.9z"/>
							<path class="st20" d="M103.8,268.2l-51.3,24.7L1.2,317.6c0,0-2.5,0.8,0,2.1l49.2,18.6c2.4,0.9,5.6,0.8,7.7-0.2l42.2-20.3
								l42.2-20.3c2.1-1,2.3-2.6,0.6-3.8l-35.2-25.4C105.5,267,103.8,268.2,103.8,268.2z"/>
						</g>
						<g>
							<path class="st21" d="M103.2,309.5c1.9,1,1.9,3.5,0,4.4s-4.9,0.8-6.8-0.1c-1.9-1-1.9-3.5,0-4.4S101.3,308.5,103.2,309.5z"/>
							<path class="st12" d="M103.2,309.5c1.9,1,1.9,2.5,0,3.4s-4.9,0.8-6.8-0.1c-1.9-1-1.9-2.5,0-3.4S101.3,308.5,103.2,309.5z"/>
						</g>
					</g>
				</g>
				<g>
					<path class="st22" d="M51.4,330.7l-21.8-11.4c-0.5-0.3-0.5-0.7,0-1L60,303.7c0.5-0.3,1.4-0.2,1.9,0l21.8,11.4
						c0.5,0.3,0.5,0.7,0,1l-30.4,14.6C52.8,330.9,52,330.9,51.4,330.7z"/>
					<path class="st12" d="M82.3,316l-28.9,13.9c-0.5,0.3-1.4,0.2-1.9,0l-20.4-10.7c-0.5-0.3-0.5-0.7,0-1L60,304.3
						c0.5-0.3,1.4-0.2,1.9,0l20.3,10.6C82.8,315.3,82.8,315.8,82.3,316z"/>
					<g>
						<polygon class="st11" points="59.2,307.3 34.3,319.2 33.7,318.9 58.5,306.9 						"/>
						<polygon class="st11" points="60.8,308.1 36,320.1 35.3,319.7 60.1,307.8 						"/>
						<polygon class="st11" points="62.4,309 37.6,320.9 36.9,320.6 61.8,308.6 						"/>
						<polygon class="st11" points="64.1,309.8 39.2,321.8 38.5,321.4 63.4,309.5 						"/>
						<polygon class="st11" points="65.7,310.7 40.8,322.6 40.1,322.3 65,310.3 						"/>
					</g>
					<g>
						<polygon class="st11" points="76.1,313 60.4,320.5 59.7,320.2 75.4,312.6 						"/>
						<polygon class="st11" points="77.7,313.8 62,321.4 61.4,321 77,313.5 						"/>
						<polygon class="st11" points="79.3,314.7 63.7,322.2 63,321.9 78.7,314.3 						"/>
						<polygon class="st23" points="71.4,310.8 43.1,324.4 43.5,324.6 71.8,311 						"/>
					</g>
				</g>
				<g>
					<path class="st11" d="M271.8,396.2L256,388c-0.5-0.3-0.5-0.7,0-1l30.7-14.7c0.5-0.3,1.4-0.2,1.9,0l15.8,8.2
						c0.5,0.3,0.5,0.7,0,1l-30.7,14.7C273.2,396.5,272.3,396.5,271.8,396.2z"/>
					<path class="st12" d="M302.9,381.5l-29.1,14c-0.5,0.3-1.4,0.2-1.9,0l-14.3-7.4c-0.5-0.3-0.5-0.7,0-1l29.1-14
						c0.5-0.3,1.4-0.2,1.9,0l14.3,7.4C303.4,380.8,303.4,381.2,302.9,381.5z"/>
					<g>
						<g>
							<polygon class="st11" points="274.5,393.4 273.4,394 260.7,387.3 261.8,386.8 							"/>
							<polygon class="st11" points="281.2,390.2 280.1,390.8 267.3,384.1 268.5,383.6 							"/>
							<polygon class="st11" points="282,389.8 281.6,390 268.9,383.4 269.3,383.2 							"/>
							<polygon class="st11" points="282.7,389.5 282.4,389.7 269.6,383 270,382.8 							"/>
							<polygon class="st11" points="286.5,387.7 286.1,387.9 273.4,381.2 273.7,381 							"/>
							<polygon class="st11" points="275.8,392.8 275.2,393.1 262.5,386.5 263,386.2 							"/>
							<polygon class="st11" points="284.4,388.7 283.3,389.2 270.5,382.6 271.7,382 							"/>
							<polygon class="st11" points="285.6,388.1 285.1,388.4 272.3,381.7 272.9,381.4 							"/>
							<polygon class="st11" points="277,392.2 276.4,392.5 263.7,385.9 264.2,385.6 							"/>
							<polygon class="st11" points="278.2,391.7 277.6,391.9 264.9,385.3 265.5,385 							"/>
							<polygon class="st11" points="279.4,391.1 278.9,391.3 266.1,384.7 266.7,384.4 							"/>
						</g>
						<g>
							<polygon class="st11" points="285.9,375.2 287,374.6 299.8,381.3 298.7,381.8 							"/>
							<polygon class="st11" points="279.2,378.4 280.4,377.8 293.1,384.5 292,385 							"/>
							<polygon class="st11" points="278.5,378.8 278.8,378.6 291.5,385.2 291.2,385.4 							"/>
							<polygon class="st11" points="277.7,379.1 278.1,379 290.8,385.6 290.5,385.8 							"/>
							<polygon class="st11" points="274,380.9 274.4,380.7 287.1,387.4 286.7,387.6 							"/>
							<polygon class="st11" points="284.7,375.8 285.3,375.5 298,382.1 297.4,382.4 							"/>
							<polygon class="st11" points="276.1,379.9 277.2,379.4 289.9,386 288.8,386.6 							"/>
							<polygon class="st11" points="274.8,380.5 275.4,380.2 288.1,386.9 287.6,387.2 							"/>
							<polygon class="st11" points="283.5,376.4 284,376.1 296.8,382.7 296.2,383 							"/>
							<polygon class="st11" points="282.2,376.9 282.8,376.7 295.5,383.3 295,383.6 							"/>
							<polygon class="st11" points="281,377.5 281.6,377.3 294.3,383.9 293.8,384.2 							"/>
						</g>
					</g>
				</g>
			</g>
		</g>
		<g>
			<polygon class="st24" points="188.6,390.5 234.2,384.5 260.7,348.5 236.7,335.7 			"/>
			<polygon class="st24" points="89,321.1 135.7,362.9 156.2,333 			"/>
			<g>
				
					<linearGradient id="SVGID_1_" gradientUnits="userSpaceOnUse" x1="-236.733" y1="39.734" x2="-197.362" y2="79.1051" gradientTransform="matrix(-0.9775 0.1804 -0.2 -0.9838 7.6994 470.8502)">
					<stop  offset="0" style="stop-color:#FFFFFF"/>
					<stop  offset="1" style="stop-color:#858585"/>
				</linearGradient>
				<polygon class="st25" points="234.2,384.5 176.4,370 222.3,364.7 				"/>
				<g>
					<polygon class="st26" points="87.2,314 232.8,356.6 258.3,337.1 237.8,318.5 					"/>
					<g>
						<g>
							<defs>
								<polygon id="SVGID_2_" points="241.8,322.1 237.8,318.5 173.4,339.2 180.8,341.4 								"/>
							</defs>
							<clipPath id="SVGID_3_">
								<use xlink:href="#SVGID_2_"  style="overflow:visible;"/>
							</clipPath>
							<g class="st27">
								
									<image style="overflow:visible;enable-background:new    ;" width="292" height="96" xlink:href="D290424C799A43F8.png"  transform="matrix(0.2325 0 0 0.2325 174.1775 318.5477)">
								</image>
							</g>
						</g>
					</g>
				</g>
				<g>
					<polygon class="st26" points="87.2,314 222.3,364.7 188.6,390.5 157.6,384.9 					"/>
					
						<linearGradient id="SVGID_4_" gradientUnits="userSpaceOnUse" x1="-180.0786" y1="73.3993" x2="-173.5413" y2="76.4477" gradientTransform="matrix(-0.9775 0.1804 -0.2 -0.9838 7.6994 470.8502)">
						<stop  offset="0" style="stop-color:#FAFAFA"/>
						<stop  offset="0.4883" style="stop-color:#F8F8F8"/>
						<stop  offset="0.6642" style="stop-color:#F1F1F1"/>
						<stop  offset="0.7895" style="stop-color:#E6E6E6"/>
						<stop  offset="0.8909" style="stop-color:#D5D5D5"/>
						<stop  offset="0.9767" style="stop-color:#BFBFBF"/>
						<stop  offset="1" style="stop-color:#B8B8B8"/>
					</linearGradient>
					<polygon class="st28" points="167,343.9 157.6,384.9 164.3,386.1 171.5,345.6 					"/>
				</g>
				<g>
					
						<linearGradient id="SVGID_5_" gradientUnits="userSpaceOnUse" x1="-244.8562" y1="91.4692" x2="-109.8304" y2="91.4692" gradientTransform="matrix(-0.9775 0.1804 -0.2 -0.9838 7.6994 470.8502)">
						<stop  offset="0" style="stop-color:#F7F7F7"/>
						<stop  offset="1" style="stop-color:#B8B8B8"/>
					</linearGradient>
					<polygon class="st29" points="232.8,356.6 234.2,384.5 222.3,364.7 87.2,314 					"/>
					
						<image style="overflow:visible;enable-background:new    ;" width="33" height="42" xlink:href="D290424C799A43FF.png"  transform="matrix(0.2255 0 0 0.2255 173.4425 339.2702)">
					</image>
				</g>
			</g>
		</g>
	</g>
	<g>
		<polygon class="st11" points="289.3,46.2 246,70.2 244.6,69.5 287.9,45.5 		"/>
		<polygon class="st11" points="293.8,48.4 250.4,72.5 249,71.7 292.4,47.7 		"/>
		<polygon class="st11" points="298.2,50.6 254.8,74.7 253.4,74 296.8,49.9 		"/>
		<polygon class="st11" points="302.6,52.9 259.3,76.9 257.9,76.2 301.2,52.2 		"/>
	</g>
	<g>
		<polygon class="st12" points="191.1,250.5 147.4,237.8 142.2,210.6 185.9,223.3 		"/>
		<g>
			<polygon class="st11" points="153.6,235.1 152.5,234.7 149.2,217.1 150.2,217.4 			"/>
			<polygon class="st11" points="154.8,235.4 154.3,235.3 150.9,217.6 151.4,217.8 			"/>
			<polygon class="st11" points="156,235.8 155.5,235.6 152.1,218 152.7,218.1 			"/>
			<polygon class="st11" points="157.2,236.1 156.7,236 153.4,218.3 153.9,218.5 			"/>
			<polygon class="st11" points="158.5,236.5 157.9,236.3 154.6,218.7 155.1,218.8 			"/>
			<polygon class="st11" points="160.2,237 159.2,236.7 155.8,219 156.9,219.3 			"/>
			<polygon class="st11" points="165,238.4 164.4,238.2 161.1,220.6 161.6,220.7 			"/>
			<polygon class="st11" points="166.2,238.7 165.7,238.6 162.3,220.9 162.9,221.1 			"/>
			<polygon class="st11" points="168,239.2 166.9,238.9 163.6,221.3 164.6,221.6 			"/>
			<polygon class="st11" points="162,237.5 160.9,237.2 157.6,219.5 158.6,219.8 			"/>
			<polygon class="st11" points="163.7,238 162.7,237.7 159.3,220.1 160.4,220.4 			"/>
			<polygon class="st11" points="169.7,239.8 168.7,239.4 165.3,221.8 166.4,222.1 			"/>
			<polygon class="st11" points="170.9,240.1 170.4,240 167.1,222.3 167.6,222.5 			"/>
			<polygon class="st11" points="172.2,240.5 171.6,240.3 168.3,222.7 168.8,222.8 			"/>
			<polygon class="st11" points="173.4,240.8 172.9,240.7 169.5,223 170.1,223.2 			"/>
			<polygon class="st11" points="174.6,241.2 174.1,241 170.8,223.4 171.3,223.5 			"/>
			<polygon class="st11" points="176.4,241.7 175.3,241.4 172,223.7 173,224 			"/>
			<polygon class="st11" points="181.1,243.1 180.6,242.9 177.3,225.3 177.8,225.4 			"/>
			<polygon class="st11" points="182.4,243.4 181.8,243.3 178.5,225.6 179,225.8 			"/>
			<polygon class="st11" points="184.1,243.9 183.1,243.6 179.7,226 180.8,226.3 			"/>
			<polygon class="st11" points="178.1,242.2 177.1,241.9 173.7,224.2 174.8,224.6 			"/>
			<polygon class="st11" points="179.9,242.7 178.8,242.4 175.5,224.8 176.6,225.1 			"/>
		</g>
	</g>
	<polygon class="st12" points="276.9,241.5 222.1,210.4 222.1,184.3 276.9,215.4 	"/>
	<g>
		
			<linearGradient id="SVGID_6_" gradientUnits="userSpaceOnUse" x1="236.3126" y1="426.2856" x2="286.9874" y2="338.5143" gradientTransform="matrix(1 0 0 -1 0 470)">
			<stop  offset="0" style="stop-color:#F9C641"/>
			<stop  offset="0.2326" style="stop-color:#FDCB42"/>
			<stop  offset="1" style="stop-color:#FFCD43"/>
		</linearGradient>
		<path class="st30" d="M288.2,14.2l-154.4,88.7c27.3,12.8,73.3,39.1,101.3,58.1l154.4-88.7C361.5,53.3,315.5,26.9,288.2,14.2z"/>
		<g>
			<polygon class="st31" points="235.1,161 389.5,72.2 389.5,74.6 235.1,163.3 			"/>
		</g>
		<g>
			<path class="st32" d="M235.1,163.3c-27.7-13-73.8-39.4-101.3-58.2v-2.2c27.3,12.8,73.3,39.1,101.3,58.1V163.3z"/>
		</g>
		<g>
			<path class="st33" d="M217.9,126l57.9-33.4c1.5-0.9,3.8-1,5.1-0.2l17.4,10.1c1.3,0.8,1.1,2.1-0.4,2.9L240,138.8
				c-1.5,0.9-3.8,1-5.1,0.2l-17.4-10.1C216.2,128.2,216.4,126.9,217.9,126z"/>
			<path class="st32" d="M217.9,127.3l57.9-33.4c1.5-0.9,3.8-1,5.1-0.2l17.4,10.1c0.3,0.2,0.5,0.4,0.7,0.6c0.4-0.7,0.2-1.4-0.7-1.9
				l-17.4-10.1c-1.3-0.8-3.6-0.7-5.1,0.2L217.9,126c-1.2,0.7-1.5,1.6-1,2.3C217,128,217.3,127.6,217.9,127.3z"/>
			
				<linearGradient id="SVGID_7_" gradientUnits="userSpaceOnUse" x1="201.4789" y1="579.0067" x2="256.6935" y2="483.3722" gradientTransform="matrix(-0.5 0.866 0.866 0.5 -86.9945 -348.2834)">
				<stop  offset="0" style="stop-color:#FFFFFF"/>
				<stop  offset="0.5369" style="stop-color:#BBBBBB"/>
				<stop  offset="0.5468" style="stop-color:#000000"/>
			</linearGradient>
			<path class="st34" d="M217.9,126l57.9-33.4c1.5-0.9,3.8-1,5.1-0.2l17.4,10.1c1.3,0.8,1.1,2.1-0.4,2.9L240,138.8
				c-1.5,0.9-3.8,1-5.1,0.2l-17.4-10.1C216.2,128.2,216.4,126.9,217.9,126z"/>
		</g>
	</g>
	<g>
		<g>
			<g>
				<g>
					<polygon class="st32" points="495.5,273.1 661.3,364.5 662.2,364.5 545.1,434.6 379.2,343.2 					"/>
					<polyline class="st35" points="378.9,344.7 478.7,374.8 544.4,435.4 					"/>
					<polyline class="st32" points="544.8,436.1 510.2,441.8 367.9,363 379,343.4 					"/>
					<polygon class="st18" points="496.7,273.1 662.6,364.5 544.8,436.1 378.9,344.7 					"/>
				</g>
				<g>
					<path class="st36" d="M515.8,300.4c-0.1-0.1-0.2-0.1-0.4-0.1c-0.1,0-0.3,0-0.4,0c-0.2,0-0.3,0-0.5,0.1
						c-0.1,0.1-0.3,0.1-0.4,0.2c-0.1,0.1-0.2,0.2-0.3,0.3c-0.1,0.1-0.1,0.2-0.1,0.3c0,0.1,0,0.2,0.1,0.3c0,0.1,0.1,0.2,0.2,0.2
						c0.1,0.1,0.2,0.1,0.4,0.1c0.1,0,0.3,0,0.4,0c0.2,0,0.3,0,0.5-0.1c0.1-0.1,0.3-0.1,0.4-0.2c0.1-0.1,0.2-0.2,0.3-0.3
						c0.1-0.1,0.1-0.2,0.1-0.3c0-0.1,0-0.2-0.1-0.3C516,300.5,515.9,300.4,515.8,300.4L515.8,300.4z M516.3,301.6l-2.5,1.7
						c-0.1,0-0.1,0.1-0.2,0.1c-0.1,0-0.2,0-0.2,0c-0.1,0-0.1-0.1-0.1-0.1c0-0.1,0-0.1,0.1-0.2l1.3-0.9c-0.4,0-0.8-0.1-1.1-0.2
						c-0.3-0.2-0.5-0.5-0.5-0.8c0-0.2,0.1-0.3,0.2-0.5c0.1-0.1,0.3-0.3,0.5-0.4c0.4-0.3,0.9-0.4,1.4-0.5s1,0,1.3,0.2
						c0.4,0.2,0.5,0.5,0.5,0.8C516.8,301.1,516.6,301.4,516.3,301.6L516.3,301.6z"/>
					<path class="st36" d="M511,299.1c-0.1,0.1-0.1,0.2-0.1,0.2c0,0.1,0,0.2,0,0.2c0,0.1,0,0.1,0.1,0.2s0.1,0.1,0.2,0.2
						c0.1,0,0.2,0.1,0.3,0.1s0.2,0,0.4,0c0.1,0,0.2,0,0.4,0c0.1,0,0.2-0.1,0.4-0.1L511,299.1L511,299.1z M512,298.6
						c-0.1,0-0.1-0.1-0.1-0.1c0-0.1,0-0.1,0.1-0.2c0.1-0.1,0.2-0.1,0.3-0.1c0.5,0,0.9,0,1.2,0.2c0.4,0.2,0.5,0.5,0.5,0.8
						s-0.2,0.6-0.6,0.9c-0.4,0.3-0.9,0.4-1.4,0.5c-0.5,0.1-1,0-1.3-0.2s-0.5-0.5-0.5-0.8c0-0.2,0.1-0.3,0.2-0.5
						c0.1-0.1,0.3-0.3,0.5-0.4c0.1-0.1,0.2-0.1,0.3-0.1s0.2,0,0.2,0l1.8,1c0.1-0.1,0.1-0.2,0.1-0.2c0-0.1,0-0.2,0-0.2
						c0-0.1,0-0.1-0.1-0.2s-0.1-0.1-0.2-0.2c-0.1-0.1-0.2-0.1-0.3-0.1s-0.2,0-0.4,0C512.1,298.6,512,298.6,512,298.6L512,298.6z"/>
					<path class="st36" d="M511.6,297.7l-3.5,2.4c-0.1,0.1-0.2,0.1-0.3,0.1s-0.2,0-0.2,0c-0.1,0-0.1-0.1-0.1-0.1
						c0-0.1,0-0.1,0.1-0.2l3.3-2.2l-0.1-0.1c-0.1,0-0.1-0.1-0.1-0.1c0-0.1,0-0.1,0.1-0.2c0.1,0,0.2-0.1,0.3-0.1s0.2,0,0.2,0l0.3,0.2
						c0.1,0,0.1,0.1,0.1,0.1C511.7,297.6,511.6,297.6,511.6,297.7L511.6,297.7z"/>
					<path class="st36" d="M510.4,297.1l-3.5,2.4c-0.1,0.1-0.2,0.1-0.3,0.1s-0.2,0-0.2,0c-0.1,0-0.1-0.1-0.1-0.1
						c0-0.1,0-0.1,0.1-0.2l2-1.4l-2.3-0.1c-0.1,0-0.1,0-0.2,0c0,0-0.1,0-0.1-0.1v-0.1v-0.1c0,0,0-0.1,0.1-0.1
						c0.1-0.1,0.2-0.1,0.3-0.1l1.6,0.1l0.3-1.4c0-0.1,0-0.1,0.1-0.2c0,0,0.1,0,0.1-0.1h0.1h0.1h0.1c0.1,0,0.1,0.1,0.1,0.1l-0.3,1.5
						h0.5l0.9-0.6c0.1,0,0.2-0.1,0.3-0.1s0.2,0,0.2,0c0.1,0,0.1,0.1,0.1,0.1C510.6,297,510.5,297,510.4,297.1L510.4,297.1z"/>
					<path class="st36" d="M504.7,296.4c0.1,0.1,0.2,0.1,0.4,0.1c0.1,0,0.3,0,0.4,0c0.2,0,0.3,0,0.5-0.1c0.1-0.1,0.3-0.1,0.4-0.2
						s0.2-0.2,0.3-0.3c0.1-0.1,0.1-0.2,0.1-0.3c0-0.1,0-0.2-0.1-0.3c0-0.1-0.1-0.2-0.2-0.2c-0.1-0.1-0.2-0.1-0.4-0.1
						c-0.1,0-0.3,0-0.4,0c-0.2,0-0.3,0-0.5,0.1c-0.1,0.1-0.3,0.1-0.4,0.2s-0.2,0.2-0.3,0.3c-0.1,0.1-0.1,0.2-0.1,0.3
						c0,0.1,0,0.2,0.1,0.3C504.5,296.3,504.6,296.4,504.7,296.4L504.7,296.4z M506,294.6L506,294.6c0.2,0,0.4,0,0.6,0.1
						c0.2,0,0.4,0.1,0.5,0.2c0.4,0.2,0.5,0.5,0.5,0.8s-0.2,0.6-0.6,0.9s-0.9,0.4-1.4,0.5s-1,0-1.3-0.2s-0.5-0.5-0.5-0.8
						s0.2-0.6,0.6-0.9l1.2-0.8c0.1,0,0.2-0.1,0.3-0.1s0.2,0,0.2,0c0.1,0,0.1,0.1,0.1,0.1C506.1,294.5,506.1,294.6,506,294.6
						L506,294.6z"/>
					<path class="st35" d="M503.3,294.6c0.1-0.1,0.2-0.2,0.3-0.3c0.1-0.1,0.1-0.2,0.1-0.3c0-0.1,0-0.2-0.1-0.3
						c0-0.1-0.1-0.2-0.2-0.2c-0.1-0.1-0.2-0.1-0.4-0.1c-0.1,0-0.3,0-0.4,0c-0.2,0-0.3,0-0.5,0.1c-0.1,0.1-0.3,0.1-0.4,0.2
						c-0.1,0.1-0.2,0.2-0.3,0.3c-0.1,0.1-0.1,0.2-0.1,0.3c0,0.1,0,0.2,0.1,0.3c0,0.1,0.1,0.2,0.2,0.2c0.1,0.1,0.2,0.1,0.4,0.1
						c0.1,0,0.3,0,0.4,0c0.2,0,0.3,0,0.5-0.1S503.2,294.7,503.3,294.6L503.3,294.6z M504,293.2c0.3,0.2,0.5,0.4,0.5,0.7l1.3-0.9
						c0.1-0.1,0.2-0.1,0.3-0.1s0.2,0,0.2,0c0.1,0,0.1,0.1,0.1,0.1c0,0.1,0,0.1-0.1,0.2l-2.4,1.6c-0.4,0.3-0.9,0.4-1.4,0.5
						s-1,0-1.3-0.2s-0.5-0.5-0.5-0.8c0-0.2,0.1-0.3,0.2-0.5c0.1-0.1,0.3-0.3,0.5-0.4c0.4-0.3,0.9-0.4,1.4-0.5c0.3,0,0.5,0,0.7,0
						C503.6,293,503.8,293.1,504,293.2L504,293.2z"/>
					<path class="st35" d="M498.8,293.1c0.1,0.1,0.2,0.1,0.4,0.1c0.1,0,0.3,0,0.4,0c0.2,0,0.3,0,0.5-0.1c0.1-0.1,0.3-0.1,0.4-0.2
						c0.1-0.1,0.2-0.2,0.3-0.3c0.1-0.1,0.1-0.2,0.1-0.3c0-0.1,0-0.2-0.1-0.3c0-0.1-0.1-0.2-0.2-0.2c-0.1-0.1-0.2-0.1-0.4-0.1
						c-0.1,0-0.3,0-0.4,0c-0.2,0-0.3,0-0.5,0.1c-0.1,0.1-0.3,0.1-0.4,0.2c-0.1,0.1-0.2,0.2-0.3,0.3c-0.1,0.1-0.1,0.2-0.1,0.3
						c0,0.1,0,0.2,0.1,0.3C498.6,293,498.6,293.1,498.8,293.1L498.8,293.1z M498.4,291.8c0.4-0.3,0.9-0.4,1.4-0.5s1,0,1.3,0.2
						c0.4,0.2,0.5,0.5,0.5,0.8s-0.2,0.6-0.6,0.9s-0.9,0.4-1.4,0.5s-1,0-1.3-0.2s-0.5-0.5-0.5-0.8c0-0.2,0.1-0.3,0.2-0.5
						C498,292.1,498.2,292,498.4,291.8L498.4,291.8z"/>
					<path class="st35" d="M497.6,291.3c0.1,0.1,0.1,0.2,0.1,0.3l0,0c0,0.2-0.1,0.3-0.3,0.4c-0.1,0.1-0.3,0.2-0.4,0.2
						c-0.2,0-0.3,0.1-0.5,0c-0.2,0-0.3,0-0.5-0.1c-0.2,0-0.3-0.1-0.4-0.2c-0.4-0.2-0.5-0.5-0.5-0.9c0,0,0-0.1,0.1-0.1
						c0.1-0.1,0.2-0.1,0.3-0.1s0.2,0,0.2,0l0.1,0.1v0.1c0,0.2,0.1,0.4,0.3,0.5s0.5,0.2,0.7,0.1c0.1,0,0.1,0,0.1-0.1
						c0,0,0.1-0.1,0-0.1l-0.7-0.9c-0.1-0.1-0.1-0.2-0.1-0.3l0,0c0-0.2,0.1-0.3,0.3-0.4c0.1-0.1,0.3-0.2,0.4-0.2c0.2,0,0.3-0.1,0.5,0
						c0.2,0,0.3,0,0.5,0.1c0.2,0,0.3,0.1,0.4,0.2c0.4,0.2,0.5,0.5,0.5,0.9c0,0.1-0.1,0.1-0.1,0.1c-0.1,0.1-0.2,0.1-0.3,0.1
						s-0.2,0-0.2,0l-0.1-0.1v-0.1c0-0.2-0.1-0.4-0.3-0.5s-0.5-0.2-0.7-0.1c-0.1,0-0.1,0-0.1,0.1c0,0-0.1,0.1,0,0.1L497.6,291.3
						L497.6,291.3z"/>
					<path class="st35" d="M494,291.1l-0.1-0.1l-1,0.7c-0.1,0-0.2,0.1-0.3,0.1s-0.2,0-0.2,0c-0.1,0-0.1-0.1-0.1-0.1
						c0-0.1,0-0.1,0.1-0.2l1-0.7l-0.3-0.2c-0.1,0-0.1-0.1-0.1-0.1c0-0.1,0-0.1,0.1-0.2s0.2-0.1,0.3-0.1s0.2,0,0.2,0l0.3,0.2l1.3-0.9
						c0.3-0.2,0.4-0.4,0.1-0.6c-0.1,0-0.1-0.1-0.1-0.1c0-0.1,0-0.1,0.1-0.2s0.2-0.1,0.3-0.1s0.2,0,0.2,0c0.6,0.3,0.6,0.7-0.1,1.2
						l-1.3,0.9l0.1,0.1c0.1,0,0.1,0.1,0.1,0.1c0,0.1,0,0.1-0.1,0.2c-0.1,0-0.2,0.1-0.3,0.1C494.1,291.2,494,291.2,494,291.1
						L494,291.1z"/>
					<path class="st35" d="M519.7,303.6c0.8-0.6,2.1-0.7,2.9-0.3c0.8,0.4,0.7,1.2-0.2,1.8c-0.8,0.6-2.1,0.7-2.9,0.3
						C518.8,305,518.9,304.2,519.7,303.6L519.7,303.6z"/>
					<path class="st35" d="M523.3,305.4L523.3,305.4l-2.1,1.4c0.5,0.3,1,0.6,1.5,0.8c0.1,0.1,0.2,0.1,0.4,0c0.6-0.4,1.3-0.9,1.9-1.3
						c0.7-0.5,1.1-1,1.4-1.5c0.3-0.6,0.4-1.1,0.2-1.6C526.6,303.1,524.6,304.5,523.3,305.4L523.3,305.4z"/>
					<path class="st36" d="M525.6,306.4L525.6,306.4c0.9,0.5,1.9,1.1,2.8,1.6c0.2-0.5,0.4-1,0.3-1.4c-0.1-0.7-1-1.2-1.8-1.7
						C526.6,305.5,526.2,306,525.6,306.4L525.6,306.4z"/>
					<path class="st36" d="M524.4,308.6l0.4,0.2c0.9,0.5,1.9,1.1,2.9,1.6c0.2-0.5,0.4-1,0.3-1.4c-0.1-0.7-0.8-1.2-1.6-1.6l0,0
						l-1.2-0.7l-1.8,1.2L524.4,308.6L524.4,308.6z"/>
					<path class="st35" d="M516.9,302.7c0.4-0.3,0.9-0.7,1.5-0.9c1.1-0.6,2.3-0.8,3.6-0.9c0.9,0,1.7,0,2.4,0.3s1.3,0.6,1.7,1
						c0.1,0.1,0.1,0.1,0.1,0.2l0,0l-2,1.4c0-0.2-0.1-0.3-0.2-0.5c-0.5-0.8-1.8-1.1-3.3-0.8c-1.6,0.3-2.8,1.3-2.8,2.4
						c0,0.5,0.3,0.9,0.8,1.2c1,0.5,2.5,1.4,3.6,2.1l-4.2,2.8c-0.2,0.1-0.5,0.2-0.6,0.1l-1-0.6c-0.2-0.1-0.2-0.3,0-0.4l2.5-1.7
						c-1.2-0.7-2.1-1.2-2.3-1.3c-0.6-0.3-0.9-0.8-1-1.2c-0.2-0.7-0.1-1.3,0.3-2.1C516.1,303.4,516.5,303,516.9,302.7L516.9,302.7z"
						/>
					<path class="st36" d="M521.1,309.6c2.5,1.4,5.2,2.9,5.6,3.2c0.2-0.5,0.4-1,0.3-1.4c-0.1-0.7-0.8-1.2-1.6-1.6l0,0l-1.2-0.7
						c0,0-0.5-0.3-1.3-0.8L521.1,309.6L521.1,309.6z"/>
					<polygon class="st37" points="520.6,309.3 522.4,308.1 522.4,308.1 520.6,309.3 					"/>
				</g>
			</g>
		</g>
		<polygon class="st12" points="580.3,339.9 626.3,366.5 606.4,379.9 560.4,353.3 		"/>
	</g>
	<g>
		<g>
			<g>
				<g>
					<polygon class="st32" points="506.7,451.2 340.8,359.8 458.6,288.2 624.5,379.6 					"/>
					<polyline class="st35" points="624.7,378.1 525,348 458,285 					"/>
					<polyline class="st32" points="458.6,288.2 493.4,280.9 635.8,359.8 624.5,379.6 					"/>
					<polygon class="st18" points="506.9,449.7 341.1,358.3 458.9,286.7 624.7,378.1 					"/>
				</g>
				<g>
					<path class="st36" d="M487.9,422.4c0.1,0.1,0.2,0.1,0.4,0.1c0.1,0,0.3,0,0.4,0c0.2,0,0.3,0,0.5-0.1c0.1-0.1,0.3-0.1,0.4-0.2
						s0.2-0.2,0.3-0.3c0.1-0.1,0.1-0.2,0.1-0.3c0-0.1,0-0.2-0.1-0.3c0-0.1-0.1-0.2-0.2-0.2c-0.1-0.1-0.2-0.1-0.4-0.1
						c-0.1,0-0.3,0-0.4,0c-0.2,0-0.3,0-0.5,0.1c-0.1,0.1-0.3,0.1-0.4,0.2c-0.1,0.1-0.2,0.2-0.3,0.3c-0.1,0.1-0.1,0.2-0.1,0.3
						c0,0.1,0,0.2,0.1,0.3C487.7,422.2,487.8,422.3,487.9,422.4L487.9,422.4z M487.4,421.1l2.5-1.7c0.1,0,0.1-0.1,0.2-0.1
						c0.1,0,0.2,0,0.2,0c0.1,0,0.1,0.1,0.1,0.1c0,0.1,0,0.1-0.1,0.2l-1.3,0.9c0.4,0,0.8,0.1,1.1,0.2c0.3,0.2,0.5,0.5,0.5,0.8
						c0,0.2-0.1,0.3-0.2,0.5c-0.1,0.1-0.3,0.3-0.5,0.4c-0.4,0.3-0.9,0.4-1.4,0.5s-1,0-1.3-0.2c-0.4-0.2-0.5-0.5-0.5-0.8
						C486.9,421.7,487.1,421.4,487.4,421.1L487.4,421.1z"/>
					<path class="st36" d="M492.7,423.6c0.1-0.1,0.1-0.2,0.1-0.2c0-0.1,0-0.2,0-0.2c0-0.1,0-0.1-0.1-0.2s-0.1-0.1-0.2-0.2
						c-0.1,0-0.2-0.1-0.3-0.1s-0.2,0-0.4,0c-0.1,0-0.2,0-0.4,0c-0.1,0-0.2,0.1-0.4,0.1L492.7,423.6L492.7,423.6z M491.7,424.2
						c0.1,0,0.1,0.1,0.1,0.1c0,0.1,0,0.1-0.1,0.2s-0.2,0.1-0.3,0.1c-0.5,0-0.9,0-1.2-0.2c-0.4-0.2-0.5-0.5-0.5-0.8s0.2-0.6,0.6-0.9
						s0.9-0.4,1.4-0.5s1,0,1.3,0.2s0.5,0.5,0.5,0.8c0,0.2-0.1,0.3-0.2,0.5c-0.1,0.1-0.3,0.3-0.5,0.4c-0.1,0.1-0.2,0.1-0.3,0.1
						s-0.2,0-0.2,0l-1.8-1c-0.1,0.1-0.1,0.2-0.1,0.2c0,0.1,0,0.2,0,0.2c0,0.1,0,0.1,0.1,0.2s0.1,0.1,0.2,0.2
						c0.1,0.1,0.2,0.1,0.3,0.1s0.2,0,0.4,0C491.6,424.1,491.7,424.1,491.7,424.2L491.7,424.2z"/>
					<path class="st36" d="M492.1,425.1l3.5-2.4c0.1-0.1,0.2-0.1,0.3-0.1s0.2,0,0.2,0c0.1,0,0.1,0.1,0.1,0.1c0,0.1,0,0.1-0.1,0.2
						l-3.3,2.2l0.1,0.1c0.1,0,0.1,0.1,0.1,0.1c0,0.1,0,0.1-0.1,0.2c-0.1,0-0.2,0.1-0.3,0.1s-0.2,0-0.2,0l-0.3-0.2
						c-0.1,0-0.1-0.1-0.1-0.1C492,425.2,492.1,425.1,492.1,425.1L492.1,425.1z"/>
					<path class="st36" d="M493.2,425.7l3.5-2.4c0.1-0.1,0.2-0.1,0.3-0.1s0.2,0,0.2,0c0.1,0,0.1,0.1,0.1,0.1c0,0.1,0,0.1-0.1,0.2
						l-2,1.4l2.3,0.1c0.1,0,0.1,0,0.2,0c0,0,0.1,0,0.1,0.1v0.1v0.1c0,0,0,0.1-0.1,0.1c-0.1,0.1-0.2,0.1-0.3,0.1l-1.6-0.1l-0.3,1.4
						c0,0.1,0,0.1-0.1,0.2c0,0-0.1,0-0.1,0.1h-0.1h-0.1H495c-0.1,0-0.1-0.1-0.1-0.1l0.3-1.5h-0.5l-0.9,0.6c-0.1,0-0.2,0.1-0.3,0.1
						s-0.2,0-0.2,0c-0.1,0-0.1-0.1-0.1-0.1C493.1,425.8,493.2,425.7,493.2,425.7L493.2,425.7z"/>
					<path class="st36" d="M499,426.3c-0.1-0.1-0.2-0.1-0.4-0.1c-0.1,0-0.3,0-0.4,0c-0.2,0-0.3,0-0.5,0.1c-0.1,0.1-0.3,0.1-0.4,0.2
						c-0.1,0.1-0.2,0.2-0.3,0.3c-0.1,0.1-0.1,0.2-0.1,0.3c0,0.1,0,0.2,0.1,0.3c0,0.1,0.1,0.2,0.2,0.2c0.1,0.1,0.2,0.1,0.4,0.1
						c0.1,0,0.3,0,0.4,0c0.2,0,0.3,0,0.5-0.1c0.1-0.1,0.3-0.1,0.4-0.2c0.1-0.1,0.2-0.2,0.3-0.3c0.1-0.1,0.1-0.2,0.1-0.3
						c0-0.1,0-0.2-0.1-0.3C499.1,426.4,499.1,426.4,499,426.3L499,426.3z M497.7,428.2L497.7,428.2c-0.2,0-0.4,0-0.6-0.1
						c-0.2,0-0.4-0.1-0.5-0.2c-0.4-0.2-0.5-0.5-0.5-0.8s0.2-0.6,0.6-0.9c0.4-0.3,0.9-0.4,1.4-0.5s1,0,1.3,0.2s0.5,0.5,0.5,0.8
						s-0.2,0.6-0.6,0.9l-1.2,0.8c-0.1,0-0.2,0.1-0.3,0.1s-0.2,0-0.2,0c-0.1,0-0.1-0.1-0.1-0.1C497.6,428.3,497.6,428.2,497.7,428.2
						L497.7,428.2z"/>
					<path class="st35" d="M500.4,428.2c-0.1,0.1-0.2,0.2-0.3,0.3c-0.1,0.1-0.1,0.2-0.1,0.3c0,0.1,0,0.2,0.1,0.3
						c0,0.1,0.1,0.2,0.2,0.2c0.1,0.1,0.2,0.1,0.4,0.1s0.3,0,0.4,0c0.2,0,0.3,0,0.5-0.1c0.1-0.1,0.3-0.1,0.4-0.2
						c0.1-0.1,0.2-0.2,0.3-0.3c0.1-0.1,0.1-0.2,0.1-0.3c0-0.1,0-0.2-0.1-0.3c0-0.1-0.1-0.2-0.2-0.2c-0.1-0.1-0.2-0.1-0.4-0.1
						c-0.1,0-0.3,0-0.4,0c-0.2,0-0.3,0-0.5,0.1C500.6,428,500.5,428.1,500.4,428.2L500.4,428.2z M499.7,429.6
						c-0.3-0.2-0.5-0.4-0.5-0.7l-1.3,0.9c-0.1,0.1-0.2,0.1-0.3,0.1s-0.2,0-0.2,0c-0.1,0-0.1-0.1-0.1-0.1c0-0.1,0-0.1,0.1-0.2
						l2.4-1.6c0.4-0.3,0.9-0.4,1.4-0.5s1,0,1.3,0.2s0.5,0.5,0.5,0.8c0,0.2-0.1,0.3-0.2,0.5c-0.1,0.1-0.3,0.3-0.5,0.4
						c-0.4,0.3-0.9,0.4-1.4,0.5c-0.3,0-0.5,0-0.7,0C500.1,429.8,499.9,429.7,499.7,429.6L499.7,429.6z"/>
					<path class="st35" d="M504.9,429.6c-0.1-0.1-0.2-0.1-0.4-0.1c-0.1,0-0.3,0-0.4,0c-0.2,0-0.3,0-0.5,0.1
						c-0.1,0.1-0.3,0.1-0.4,0.2c-0.1,0.1-0.2,0.2-0.3,0.3c-0.1,0.1-0.1,0.2-0.1,0.3c0,0.1,0,0.2,0.1,0.3c0,0.1,0.1,0.2,0.2,0.2
						c0.1,0.1,0.2,0.1,0.4,0.1c0.1,0,0.3,0,0.4,0c0.2,0,0.3,0,0.5-0.1c0.1-0.1,0.3-0.1,0.4-0.2c0.1-0.1,0.2-0.2,0.3-0.3
						c0.1-0.1,0.1-0.2,0.1-0.3c0-0.1,0-0.2-0.1-0.3C505.1,429.8,505,429.7,504.9,429.6L504.9,429.6z M505.3,430.9
						c-0.4,0.3-0.9,0.4-1.4,0.5s-1,0-1.3-0.2c-0.4-0.2-0.5-0.5-0.5-0.8s0.2-0.6,0.6-0.9s0.9-0.4,1.4-0.5s1,0,1.3,0.2
						s0.5,0.5,0.5,0.8c0,0.2-0.1,0.3-0.2,0.5C505.7,430.7,505.5,430.8,505.3,430.9L505.3,430.9z"/>
					<path class="st35" d="M506.1,431.4c-0.1-0.1-0.1-0.2-0.1-0.3l0,0c0-0.2,0.1-0.3,0.3-0.4c0.1-0.1,0.3-0.2,0.4-0.2
						c0.2,0,0.3-0.1,0.5,0c0.2,0,0.3,0,0.5,0.1c0.2,0,0.3,0.1,0.4,0.2c0.4,0.2,0.5,0.5,0.5,0.9c0,0,0,0.1-0.1,0.1
						c-0.1,0.1-0.2,0.1-0.3,0.1s-0.2,0-0.2,0l-0.1-0.1v-0.1c0-0.2-0.1-0.4-0.3-0.5s-0.5-0.2-0.7-0.1c-0.1,0-0.1,0-0.1,0.1
						c0,0-0.1,0.1,0,0.1l0.7,0.9c0.1,0.1,0.1,0.2,0.1,0.3l0,0c0,0.2-0.1,0.3-0.3,0.4c-0.1,0.1-0.3,0.2-0.4,0.2c-0.2,0-0.3,0.1-0.5,0
						c-0.2,0-0.3,0-0.5-0.1c-0.2,0-0.3-0.1-0.4-0.2c-0.4-0.2-0.5-0.5-0.5-0.9c0-0.1,0.1-0.1,0.1-0.1c0.1-0.1,0.2-0.1,0.3-0.1
						s0.2,0,0.2,0l0.1,0.1v0.1c0,0.2,0.1,0.4,0.3,0.5s0.5,0.2,0.7,0.1c0.1,0,0.1,0,0.1-0.1c0,0,0.1-0.1,0-0.1L506.1,431.4
						L506.1,431.4z"/>
					<path class="st35" d="M509.7,431.6l0.1,0.1l1-0.7c0.1,0,0.2-0.1,0.3-0.1s0.2,0,0.2,0c0.1,0,0.1,0.1,0.1,0.1
						c0,0.1,0,0.1-0.1,0.2l-1,0.7l0.3,0.2c0.1,0,0.1,0.1,0.1,0.1c0,0.1,0,0.1-0.1,0.2s-0.2,0.1-0.3,0.1s-0.2,0-0.2,0l-0.3-0.2
						l-1.3,0.9c-0.3,0.2-0.4,0.4-0.1,0.6c0.1,0,0.1,0.1,0.1,0.1c0,0.1,0,0.1-0.1,0.2s-0.2,0.1-0.3,0.1s-0.2,0-0.2,0
						c-0.6-0.3-0.6-0.7,0.1-1.2l1.3-0.9l-0.1-0.1c-0.1,0-0.1-0.1-0.1-0.1c0-0.1,0-0.1,0.1-0.2c0.1,0,0.2-0.1,0.3-0.1
						C509.6,431.6,509.7,431.6,509.7,431.6L509.7,431.6z"/>
					<path class="st35" d="M484,419.1c-0.8,0.6-2.1,0.7-2.9,0.3c-0.8-0.4-0.7-1.2,0.2-1.8c0.8-0.6,2.1-0.7,2.9-0.3
						C484.9,417.8,484.8,418.6,484,419.1L484,419.1z"/>
					<path class="st35" d="M480.4,417.4L480.4,417.4l2.1-1.4c-0.5-0.3-1-0.6-1.5-0.8c-0.1-0.1-0.2-0.1-0.4,0
						c-0.6,0.4-1.3,0.9-1.9,1.3c-0.7,0.5-1.1,1-1.4,1.5c-0.3,0.6-0.4,1.1-0.2,1.6C477.1,419.6,479,418.2,480.4,417.4L480.4,417.4z"
						/>
					<path class="st36" d="M478.1,416.3L478.1,416.3c-0.9-0.5-1.9-1.1-2.8-1.6c-0.2,0.5-0.4,1-0.3,1.4c0.1,0.7,1,1.2,1.8,1.7
						C477,417.3,477.5,416.8,478.1,416.3L478.1,416.3z"/>
					<path class="st36" d="M479.3,414.2l-0.4-0.2c-0.9-0.5-1.9-1.1-2.9-1.6c-0.2,0.5-0.4,1-0.3,1.4c0.1,0.7,0.8,1.2,1.6,1.6l0,0
						l1.2,0.7l1.8-1.2L479.3,414.2L479.3,414.2z"/>
					<path class="st35" d="M486.8,420.1c-0.4,0.3-0.9,0.7-1.5,0.9c-1.1,0.6-2.3,0.8-3.6,0.9c-0.9,0-1.7,0-2.4-0.3s-1.3-0.6-1.7-1
						c-0.1-0.1-0.1-0.1-0.1-0.2l0,0l2-1.4c0,0.2,0.1,0.3,0.2,0.5c0.5,0.8,1.8,1.1,3.3,0.8c1.6-0.3,2.8-1.3,2.8-2.4
						c0-0.5-0.3-0.9-0.8-1.2c-1-0.5-2.5-1.4-3.6-2.1l4.3-2.9c0.2-0.1,0.5-0.2,0.6-0.1l1,0.6c0.2,0.1,0.2,0.3,0,0.4l-2.5,1.7
						c1.2,0.7,2.1,1.2,2.3,1.3c0.6,0.3,0.9,0.8,1,1.2c0.2,0.7,0.1,1.3-0.3,2.1C487.6,419.4,487.2,419.7,486.8,420.1L486.8,420.1z"/>
					<path class="st36" d="M482.6,413.2c-2.5-1.4-5.2-2.9-5.6-3.2c-0.2,0.5-0.4,1-0.3,1.4c0.1,0.7,0.8,1.2,1.6,1.6l0,0l1.2,0.7
						c0,0,0.5,0.3,1.3,0.8L482.6,413.2L482.6,413.2z"/>
					<polygon class="st37" points="483.1,413.5 481.3,414.7 481.3,414.7 483.1,413.5 					"/>
				</g>
			</g>
		</g>
		<polygon class="st12" points="423.4,382.8 377.3,356.3 397.2,342.9 443.3,369.4 		"/>
	</g>
	<g>
		<g>
			<g>
				<g>
					<polygon class="st32" points="484.8,443.9 318.9,352.5 436.7,280.9 602.6,372.3 					"/>
					<polyline class="st35" points="602.9,370.8 503.1,340.7 437,279.4 					"/>
					<polyline class="st32" points="436.9,279.6 471.5,273.6 613.9,352.5 602.6,372.3 					"/>
					<polygon class="st18" points="485.1,442.4 319.2,351 437,279.4 602.9,370.8 					"/>
				</g>
				<g>
					<path class="st36" d="M466,415.1c0.1,0.1,0.2,0.1,0.4,0.1c0.1,0,0.3,0,0.4,0c0.2,0,0.3,0,0.5-0.1c0.1-0.1,0.3-0.1,0.4-0.2
						c0.1-0.1,0.2-0.2,0.3-0.3c0.1-0.1,0.1-0.2,0.1-0.3c0-0.1,0-0.2-0.1-0.3c0-0.1-0.1-0.2-0.2-0.2c-0.1-0.1-0.2-0.1-0.4-0.1
						c-0.1,0-0.3,0-0.4,0c-0.2,0-0.3,0-0.5,0.1c-0.1,0.1-0.3,0.1-0.4,0.2c-0.1,0.1-0.2,0.2-0.3,0.3c-0.1,0.1-0.1,0.2-0.1,0.3
						c0,0.1,0,0.2,0.1,0.3C465.8,414.9,465.9,415,466,415.1L466,415.1z M465.5,413.9l2.5-1.7c0.1,0,0.1-0.1,0.2-0.1
						c0.1,0,0.2,0,0.2,0c0.1,0,0.1,0.1,0.1,0.1c0,0.1,0,0.1-0.1,0.2l-1.3,0.9c0.4,0,0.8,0.1,1.1,0.2c0.3,0.2,0.5,0.5,0.5,0.8
						c0,0.2-0.1,0.3-0.2,0.5c-0.1,0.1-0.3,0.3-0.5,0.4c-0.4,0.3-0.9,0.4-1.4,0.5s-1,0-1.3-0.2c-0.4-0.2-0.5-0.5-0.5-0.8
						C465,414.4,465.2,414.1,465.5,413.9L465.5,413.9z"/>
					<path class="st36" d="M470.8,416.3c0.1-0.1,0.1-0.2,0.1-0.2c0-0.1,0-0.2,0-0.2c0-0.1,0-0.1-0.1-0.2s-0.1-0.1-0.2-0.2
						c-0.1,0-0.2-0.1-0.3-0.1s-0.2,0-0.4,0c-0.1,0-0.2,0-0.4,0c-0.1,0-0.2,0.1-0.4,0.1L470.8,416.3L470.8,416.3z M469.8,416.9
						c0.1,0,0.1,0.1,0.1,0.1c0,0.1,0,0.1-0.1,0.2s-0.2,0.1-0.3,0.1c-0.5,0-0.9,0-1.2-0.2c-0.4-0.2-0.5-0.5-0.5-0.8s0.2-0.6,0.6-0.9
						s0.9-0.4,1.4-0.5s1,0,1.3,0.2s0.5,0.5,0.5,0.8c0,0.2-0.1,0.3-0.2,0.5c-0.1,0.1-0.3,0.3-0.5,0.4c-0.1,0.1-0.2,0.1-0.3,0.1
						s-0.2,0-0.2,0l-1.8-1c-0.1,0.1-0.1,0.2-0.1,0.2c0,0.1,0,0.2,0,0.2c0,0.1,0,0.1,0.1,0.2s0.1,0.1,0.2,0.2
						c0.1,0.1,0.2,0.1,0.3,0.1s0.2,0,0.4,0C469.7,416.8,469.8,416.8,469.8,416.9L469.8,416.9z"/>
					<path class="st36" d="M470.2,417.8l3.5-2.4c0.1-0.1,0.2-0.1,0.3-0.1s0.2,0,0.2,0c0.1,0,0.1,0.1,0.1,0.1c0,0.1,0,0.1-0.1,0.2
						l-3.3,2.2l0.1,0.1c0.1,0,0.1,0.1,0.1,0.1c0,0.1,0,0.1-0.1,0.2c-0.1,0-0.2,0.1-0.3,0.1s-0.2,0-0.2,0l-0.3-0.2
						c-0.1,0-0.1-0.1-0.1-0.1C470.1,417.9,470.2,417.8,470.2,417.8L470.2,417.8z"/>
					<path class="st36" d="M471.4,418.4l3.5-2.4c0.1-0.1,0.2-0.1,0.3-0.1s0.2,0,0.2,0c0.1,0,0.1,0.1,0.1,0.1c0,0.1,0,0.1-0.1,0.2
						l-2,1.4l2.3,0.1c0.1,0,0.1,0,0.2,0c0,0,0.1,0,0.1,0.1v0.1v0.1c0,0,0,0.1-0.1,0.1c-0.1,0.1-0.2,0.1-0.3,0.1l-1.6-0.1l-0.3,1.4
						c0,0.1,0,0.1-0.1,0.2c0,0-0.1,0-0.1,0.1h-0.1h-0.1h-0.1c-0.1,0-0.1-0.1-0.1-0.1l0.3-1.5h-0.5l-0.9,0.6c-0.1,0-0.2,0.1-0.3,0.1
						s-0.2,0-0.2,0c-0.1,0-0.1-0.1-0.1-0.1C471.2,418.5,471.3,418.4,471.4,418.4L471.4,418.4z"/>
					<path class="st36" d="M477.1,419c-0.1-0.1-0.2-0.1-0.4-0.1c-0.1,0-0.3,0-0.4,0c-0.2,0-0.3,0-0.5,0.1c-0.1,0.1-0.3,0.1-0.4,0.2
						s-0.2,0.2-0.3,0.3c-0.1,0.1-0.1,0.2-0.1,0.3c0,0.1,0,0.2,0.1,0.3c0,0.1,0.1,0.2,0.2,0.2c0.1,0.1,0.2,0.1,0.4,0.1
						c0.1,0,0.3,0,0.4,0c0.2,0,0.3,0,0.5-0.1c0.1-0.1,0.3-0.1,0.4-0.2c0.1-0.1,0.2-0.2,0.3-0.3c0.1-0.1,0.1-0.2,0.1-0.3
						c0-0.1,0-0.2-0.1-0.3C477.3,419.1,477.2,419.1,477.1,419L477.1,419z M475.8,420.9L475.8,420.9c-0.2,0-0.4,0-0.6-0.1
						c-0.2,0-0.4-0.1-0.5-0.2c-0.4-0.2-0.5-0.5-0.5-0.8s0.2-0.6,0.6-0.9s0.9-0.4,1.4-0.5s1,0,1.3,0.2s0.5,0.5,0.5,0.8
						s-0.2,0.6-0.6,0.9l-1.2,0.8c-0.1,0-0.2,0.1-0.3,0.1s-0.2,0-0.2,0c-0.1,0-0.1-0.1-0.1-0.1C475.7,421,475.7,420.9,475.8,420.9
						L475.8,420.9z"/>
					<path class="st35" d="M478.5,420.9c-0.1,0.1-0.2,0.2-0.3,0.3c-0.1,0.1-0.1,0.2-0.1,0.3c0,0.1,0,0.2,0.1,0.3
						c0,0.1,0.1,0.2,0.2,0.2c0.1,0.1,0.2,0.1,0.4,0.1s0.3,0,0.4,0c0.2,0,0.3,0,0.5-0.1c0.1-0.1,0.3-0.1,0.4-0.2
						c0.1-0.1,0.2-0.2,0.3-0.3c0.1-0.1,0.1-0.2,0.1-0.3c0-0.1,0-0.2-0.1-0.3c0-0.1-0.1-0.2-0.2-0.2c-0.1-0.1-0.2-0.1-0.4-0.1
						c-0.1,0-0.3,0-0.4,0c-0.2,0-0.3,0-0.5,0.1C478.7,420.7,478.6,420.8,478.5,420.9L478.5,420.9z M477.8,422.3
						c-0.3-0.2-0.5-0.4-0.5-0.7l-1.3,0.9c-0.1,0.1-0.2,0.1-0.3,0.1s-0.2,0-0.2,0c-0.1,0-0.1-0.1-0.1-0.1c0-0.1,0-0.1,0.1-0.2
						l2.4-1.6c0.4-0.3,0.9-0.4,1.4-0.5s1,0,1.3,0.2s0.5,0.5,0.5,0.8c0,0.2-0.1,0.3-0.2,0.5c-0.1,0.1-0.3,0.3-0.5,0.4
						c-0.4,0.3-0.9,0.4-1.4,0.5c-0.3,0-0.5,0-0.7,0C478.2,422.5,478,422.4,477.8,422.3L477.8,422.3z"/>
					<path class="st35" d="M483,422.3c-0.1-0.1-0.2-0.1-0.4-0.1c-0.1,0-0.3,0-0.4,0c-0.2,0-0.3,0-0.5,0.1c-0.1,0.1-0.3,0.1-0.4,0.2
						c-0.1,0.1-0.2,0.2-0.3,0.3c-0.1,0.1-0.1,0.2-0.1,0.3c0,0.1,0,0.2,0.1,0.3c0,0.1,0.1,0.2,0.2,0.2c0.1,0.1,0.2,0.1,0.4,0.1
						c0.1,0,0.3,0,0.4,0c0.2,0,0.3,0,0.5-0.1c0.1-0.1,0.3-0.1,0.4-0.2c0.1-0.1,0.2-0.2,0.3-0.3c0.1-0.1,0.1-0.2,0.1-0.3
						c0-0.1,0-0.2-0.1-0.3C483.2,422.5,483.2,422.4,483,422.3L483,422.3z M483.4,423.6c-0.4,0.3-0.9,0.4-1.4,0.5s-1,0-1.3-0.2
						c-0.4-0.2-0.5-0.5-0.5-0.8s0.2-0.6,0.6-0.9s0.9-0.4,1.4-0.5s1,0,1.3,0.2s0.5,0.5,0.5,0.8c0,0.2-0.1,0.3-0.2,0.5
						C483.8,423.4,483.6,423.5,483.4,423.6L483.4,423.6z"/>
					<path class="st35" d="M484.2,424.1c-0.1-0.1-0.1-0.2-0.1-0.3l0,0c0-0.2,0.1-0.3,0.3-0.4c0.1-0.1,0.3-0.2,0.4-0.2
						c0.2,0,0.3-0.1,0.5,0c0.2,0,0.3,0,0.5,0.1c0.2,0,0.3,0.1,0.4,0.2c0.4,0.2,0.5,0.5,0.5,0.9c0,0,0,0.1-0.1,0.1
						c-0.1,0.1-0.2,0.1-0.3,0.1s-0.2,0-0.2,0l-0.1-0.1v-0.1c0-0.2-0.1-0.4-0.3-0.5s-0.5-0.2-0.7-0.1c-0.1,0-0.1,0-0.1,0.1
						c0,0-0.1,0.1,0,0.1l0.7,0.9c0.1,0.1,0.1,0.2,0.1,0.3l0,0c0,0.2-0.1,0.3-0.3,0.4c-0.1,0.1-0.3,0.2-0.4,0.2c-0.2,0-0.3,0.1-0.5,0
						c-0.2,0-0.3,0-0.5-0.1c-0.2,0-0.3-0.1-0.4-0.2c-0.4-0.2-0.5-0.5-0.5-0.9c0-0.1,0.1-0.1,0.1-0.1c0.1-0.1,0.2-0.1,0.3-0.1
						s0.2,0,0.2,0l0.1,0.1v0.1c0,0.2,0.1,0.4,0.3,0.5s0.5,0.2,0.7,0.1c0.1,0,0.1,0,0.1-0.1c0,0,0.1-0.1,0-0.1L484.2,424.1
						L484.2,424.1z"/>
					<path class="st35" d="M487.8,424.3l0.1,0.1l1-0.7c0.1,0,0.2-0.1,0.3-0.1s0.2,0,0.2,0c0.1,0,0.1,0.1,0.1,0.1
						c0,0.1,0,0.1-0.1,0.2l-1,0.7l0.3,0.2c0.1,0,0.1,0.1,0.1,0.1c0,0.1,0,0.1-0.1,0.2s-0.2,0.1-0.3,0.1s-0.2,0-0.2,0l-0.3-0.2
						l-1.3,0.9c-0.3,0.2-0.4,0.4-0.1,0.6c0.1,0,0.1,0.1,0.1,0.1c0,0.1,0,0.1-0.1,0.2s-0.2,0.1-0.3,0.1s-0.2,0-0.2,0
						c-0.6-0.3-0.6-0.7,0.1-1.2l1.3-0.9l-0.1-0.1c-0.1,0-0.1-0.1-0.1-0.1c0-0.1,0-0.1,0.1-0.2c0.1,0,0.2-0.1,0.3-0.1
						C487.7,424.3,487.8,424.3,487.8,424.3L487.8,424.3z"/>
					<path class="st35" d="M462.1,411.8c-0.8,0.6-2.1,0.7-2.9,0.3c-0.8-0.4-0.7-1.2,0.2-1.8c0.8-0.6,2.1-0.7,2.9-0.3
						C463,410.5,462.9,411.3,462.1,411.8L462.1,411.8z"/>
					<path class="st35" d="M458.5,410.1L458.5,410.1l2.1-1.4c-0.5-0.3-1-0.6-1.5-0.8c-0.1-0.1-0.2-0.1-0.4,0
						c-0.6,0.4-1.3,0.9-1.9,1.3c-0.7,0.5-1.1,1-1.4,1.5c-0.3,0.6-0.4,1.1-0.2,1.6C455.2,412.3,457.2,410.9,458.5,410.1L458.5,410.1z
						"/>
					<path class="st36" d="M456.2,409L456.2,409c-0.9-0.5-1.9-1.1-2.8-1.6c-0.2,0.5-0.4,1-0.3,1.4c0.1,0.7,1,1.2,1.8,1.7
						C455.2,410,455.6,409.5,456.2,409L456.2,409z"/>
					<path class="st36" d="M457.4,406.9l-0.4-0.2c-0.9-0.5-1.9-1.1-2.9-1.6c-0.2,0.5-0.4,1-0.3,1.4c0.1,0.7,0.8,1.2,1.6,1.6l0,0
						l1.2,0.7l1.8-1.2L457.4,406.9L457.4,406.9z"/>
					<path class="st35" d="M464.9,412.8c-0.4,0.3-0.9,0.7-1.5,0.9c-1.1,0.6-2.3,0.8-3.6,0.9c-0.9,0-1.7,0-2.4-0.3s-1.3-0.6-1.7-1
						c-0.1-0.1-0.1-0.1-0.1-0.2l0,0l2-1.4c0,0.2,0.1,0.3,0.2,0.5c0.5,0.8,1.8,1.1,3.3,0.8c1.6-0.3,2.8-1.3,2.8-2.4
						c0-0.5-0.3-0.9-0.8-1.2c-1-0.5-2.5-1.4-3.6-2.1l4.3-2.9c0.2-0.1,0.5-0.2,0.6-0.1l1,0.6c0.2,0.1,0.2,0.3,0,0.4l-2.5,1.7
						c1.2,0.7,2.1,1.2,2.3,1.3c0.6,0.3,0.9,0.8,1,1.2c0.2,0.7,0.1,1.3-0.3,2.1C465.7,412.1,465.3,412.4,464.9,412.8L464.9,412.8z"/>
					<path class="st36" d="M460.7,405.9c-2.5-1.4-5.2-2.9-5.6-3.2c-0.2,0.5-0.4,1-0.3,1.4c0.1,0.7,0.8,1.2,1.6,1.6l0,0l1.2,0.7
						c0,0,0.5,0.3,1.3,0.8L460.7,405.9L460.7,405.9z"/>
					<polygon class="st37" points="461.2,406.2 459.4,407.4 459.4,407.4 461.2,406.2 					"/>
				</g>
			</g>
		</g>
		<polygon class="st12" points="401.5,375.5 355.4,349 375.4,335.6 421.4,362.1 		"/>
	</g>
</g>
</svg>
