<?xml version="1.0" encoding="utf-8"?>
<!-- Generator: Adobe Illustrator 23.0.4, SVG Export Plug-In . SVG Version: 6.00 Build 0)  -->
<svg version="1.1" id="Слой_1" xmlns="http://www.w3.org/2000/svg" xmlns:xlink="http://www.w3.org/1999/xlink" x="0px" y="0px"
	 viewBox="0 0 268 202" style="enable-background:new 0 0 268 202;" xml:space="preserve">
<style type="text/css">
	.st0{opacity:0.4;fill:#ADA6A3;enable-background:new    ;}
	.st1{fill:url(#SVGID_1_);}
	.st2{fill:#D2D1CE;}
	.st3{fill:url(#SVGID_2_);}
	.st4{fill:#B6B5B3;}
	.st5{fill:#FFFEFB;}
	.st6{fill:#101014;}
	.st7{fill:#2280D6;}
	.st8{fill:url(#SVGID_3_);}
	.st9{fill:url(#SVGID_4_);}
	.st10{fill-rule:evenodd;clip-rule:evenodd;fill:#D2D1CE;}
	.st11{fill-rule:evenodd;clip-rule:evenodd;fill:#FFFEFB;}
	.st12{fill:url(#SVGID_5_);}
	.st13{opacity:0.6;fill:#D2D1CE;enable-background:new    ;}
	.st14{clip-path:url(#SVGID_7_);}
	.st15{opacity:0.502;fill:#CCCECE;enable-background:new    ;}
	.st16{fill:#F0EFEC;}
	.st17{opacity:0.2;fill:#788EFF;enable-background:new    ;}
	.st18{opacity:0.2;fill:#3852D4;enable-background:new    ;}
	.st19{opacity:0.502;fill:#213FD8;enable-background:new    ;}
	.st20{fill:#788EFF;}
	.st21{fill:#C2CCFF;}
	.st22{fill:#FFFFD6;}
	.st23{fill:#9F9F9F;}
	.st24{fill-rule:evenodd;clip-rule:evenodd;fill:#9F9F9F;}
	.st25{fill:#5373F9;}
	.st26{fill-rule:evenodd;clip-rule:evenodd;fill:#F7F8FF;}
	.st27{fill:#F7F8FF;}
	.st28{fill:#291B2A;}
	.st29{fill:url(#SVGID_8_);}
	.st30{clip-path:url(#SVGID_10_);}
	.st31{fill:#DAD7D7;}
	.st32{fill:url(#SVGID_11_);}
	.st33{clip-path:url(#SVGID_13_);}
	.st34{fill:#F8F5F4;}
	.st35{fill:#F3F0F0;}
	.st36{fill:url(#SVGID_14_);}
	.st37{fill:url(#SVGID_15_);}
	.st38{clip-path:url(#SVGID_17_);}
	.st39{fill:#FFD7FB;}
	.st40{fill:url(#SVGID_18_);}
	.st41{clip-path:url(#SVGID_20_);}
	.st42{fill:#FFC440;}
	.st43{opacity:0.6;fill-rule:evenodd;clip-rule:evenodd;fill:#D88C1D;enable-background:new    ;}
	.st44{fill:#9B2C2C;}
	.st45{fill:#FFDF43;}
	.st46{fill-rule:evenodd;clip-rule:evenodd;fill:#FFC440;}
</style>
<g>
	<g>
		<path class="st0" d="M189.7,106.6l-82.8,0.1L0.8,168l4.3,1.2h76.4l37.5-21.7l2.1-0.5c3.5-0.8,7.1-0.3,10.2,1.5l9.7,5.6
			c0.2,0.1,0.5,0.2,0.8,0.2h1.8l3.4-8.5l-3.9-12.2L189.7,106.6z M135.3,201.1c-0.2,0.1-0.4,0.2-0.7,0.2c-0.7,0-2.3,0.1-2.7-0.1
			l-23.1-13.4c-0.6-0.4-0.6-0.9,0-1.3l72.2-41.7c1.1-0.6,2.8-0.6,3.8,0l23.1,13.4C208.5,158.5,140.6,198,135.3,201.1z M228.4,139.4
			c-4.8-1.6-13.6-2.1-17.4,0.3c-6.1,3.7-2.1,7.3,2.8,10.3c12.2,7.4,16.2,7.8,23,4.6c2-0.9,3.2-2.4,3.2-3.8
			C240,149.2,236.7,142.1,228.4,139.4z"/>
		
			<linearGradient id="SVGID_1_" gradientUnits="userSpaceOnUse" x1="131.66" y1="63.04" x2="171.73" y2="63.04" gradientTransform="matrix(1 0 0 -1 0 204)">
			<stop  offset="0" style="stop-color:#F0EFEC"/>
			<stop  offset="1" style="stop-color:#FFFEFB"/>
		</linearGradient>
		<path class="st1" d="M159.9,129.4l-28.2,16.4l11.8,6.8l28.3-16.4L159.9,129.4z"/>
		<path class="st2" d="M171.9,136.4c0-0.1-0.1-0.1-0.1-0.2c-0.1-0.1-28.3,16.3-28.3,16.3c0.1,0.1,0.1,0.1,0.2,0.2
			c0.2,0.4,0.2,1.4,0,1.5l28.2-16.4C172.1,137.8,172.1,136.8,171.9,136.4z"/>
		
			<linearGradient id="SVGID_2_" gradientUnits="userSpaceOnUse" x1="147.6889" y1="78.3548" x2="152.167" y2="70.5988" gradientTransform="matrix(1 0 0 -1 0 204)">
			<stop  offset="0" style="stop-color:#C2C1BF"/>
			<stop  offset="1" style="stop-color:#E3E2DF"/>
		</linearGradient>
		<path class="st3" d="M136.8,122.9l-7.7,17c-0.4,0.8-0.3,1.9,0.2,3.1c0.3,0.6,0.6,1.2,1.1,1.7c0.4,0.4,0.8,0.8,1.2,1l28.2-16.4
			c-0.4-0.3-0.9-0.6-1.2-1c-0.4-0.5-0.8-1.1-1.1-1.7c-0.5-1.2-0.6-2.3-0.3-3.1l7.7-17L136.8,122.9z"/>
		<path class="st4" d="M143.5,152.6l-11.8-6.8c-0.9-0.6-1.8-1.5-2.3-2.7c-0.5-1.2-0.6-2.3-0.2-3.1l7.7-17l0.1-0.3l0-16.6
			c0-0.5-0.3-1-0.7-1.3c-0.4-0.2-0.7,0-0.7,0.4l0,16.4l-7.7,16.9c-0.5,1.2-0.4,3,0.4,4.8c0.8,1.8,2.1,3.3,3.5,4.2l11.8,6.8
			C143.9,154.5,143.9,152.8,143.5,152.6z M165,89.1c-0.1-0.1-0.2-0.3-0.3-0.4c-0.1-0.1-0.2-0.2-0.3-0.3c-0.2-0.1-0.4-0.1-0.5,0
			l-28.2,16.4c0.1-0.1,0.3-0.1,0.5,0c0.1,0.1,0.2,0.2,0.3,0.3c0.1,0.1,0.2,0.3,0.3,0.4c0.1,0.2,0.1,0.4,0.1,0.6l0,16.6l-0.1,0.3
			l28.3-16.4l0.1-0.3l0-16.5C165.1,89.5,165.1,89.3,165,89.1z M91.4,157.7l-2.3-1.3l0-88.4l2.3,1.3L91.4,157.7z"/>
		<path class="st5" d="M91.4,69.3L89.1,68L206.7,0.1l2.3,1.3L91.4,69.3z"/>
		<path class="st2" d="M209,1.4l0,88.3L91.4,157.7l0-88.3L209,1.4z"/>
		<path class="st6" d="M91.9,69.7L208.4,2.4l0,76.5L91.9,146.3L91.9,69.7z"/>
		<path class="st7" d="M157.9,114.5l-4.1,2.4c-0.6,0.3-1,0.1-1-0.4s0.5-1.3,1-1.6l4.1-2.4c0.6-0.3,1-0.1,1,0.4
			S158.5,114.2,157.9,114.5z"/>
		
			<linearGradient id="SVGID_3_" gradientUnits="userSpaceOnUse" x1="136.969" y1="24.64" x2="132.754" y2="24.64" gradientTransform="matrix(1 0 0 -1 0 204)">
			<stop  offset="0" style="stop-color:#D2D1CE"/>
			<stop  offset="1" style="stop-color:#B6B5B3"/>
		</linearGradient>
		<path class="st8" d="M109.8,185.7v1.2c0,0.2,0.2,0.5,0.5,0.6l23.1,13.4c0.6,0.4,1.6,0.4,2.3,0l72.2-41.7c0.3-0.2,0.5-0.4,0.5-0.7
			v-1.2L109.8,185.7z"/>
		
			<linearGradient id="SVGID_4_" gradientUnits="userSpaceOnUse" x1="109.945" y1="32.38" x2="208.123" y2="32.38" gradientTransform="matrix(1 0 0 -1 0 204)">
			<stop  offset="0" style="stop-color:#F0EFEC"/>
			<stop  offset="1" style="stop-color:#F6F5F2"/>
		</linearGradient>
		<path class="st9" d="M182.4,143.5l-72.2,41.7c-0.6,0.4-0.6,1,0,1.3l23.1,13.4c0.6,0.4,1.6,0.4,2.3,0l72.2-41.7
			c0.6-0.4,0.6-0.9,0-1.3l-23.1-13.4c-0.3-0.2-0.7-0.3-1.1-0.3C183.1,143.2,182.7,143.3,182.4,143.5z"/>
		<path class="st10" d="M145.3,181c0,0,0,0.1,0,0.1c0,0,0,0.1,0,0.1c0,0.1,0,0.3-0.2,0.4l-3,1.7c-0.3,0.2-0.8,0.2-1.1,0l-2.5-1.4
			c-0.2-0.1-0.2-0.2-0.2-0.3c0,0,0-0.1,0-0.1c0,0,0-0.1,0-0.1c0-0.1,0-0.2,0.2-0.4l3-1.7c0.3-0.2,0.8-0.2,1.1,0l2.5,1.4
			C145.3,180.7,145.3,180.9,145.3,181z M140.5,183.7C140.5,183.8,140.5,183.8,140.5,183.7c0,0.1,0,0.2,0,0.2c0,0.1,0,0.2-0.2,0.4
			l-3,1.7c-0.3,0.2-0.8,0.2-1,0l-2.5-1.4c-0.2-0.1-0.2-0.2-0.2-0.4c0,0,0-0.1,0-0.1c0,0,0-0.1,0-0.1c0-0.1,0-0.3,0.2-0.4l3-1.7
			c0.3-0.2,0.8-0.2,1,0l2.5,1.4C140.5,183.5,140.5,183.6,140.5,183.7z M150.1,178.2c0,0,0,0.1,0,0.1c0,0,0,0.1,0,0.1
			c0,0.1,0,0.3-0.2,0.4l-3,1.7c-0.3,0.2-0.8,0.2-1,0l-2.5-1.4c-0.2-0.1-0.2-0.2-0.2-0.4c0,0,0-0.1,0-0.1c0,0,0-0.1,0-0.1
			c0-0.1,0-0.2,0.2-0.4l3-1.7c0.3-0.2,0.8-0.2,1,0l2.5,1.4C150,178,150.1,178.1,150.1,178.2z M169.2,167.2c0,0,0,0.1,0,0.1
			c0,0,0,0.1,0,0.1c0,0.1,0,0.3-0.2,0.4l-3,1.7c-0.3,0.2-0.8,0.2-1,0l-2.5-1.4c-0.2-0.1-0.2-0.2-0.2-0.4c0,0,0-0.1,0-0.1
			c0,0,0-0.1,0-0.1c0-0.1,0-0.2,0.2-0.4l3-1.7c0.3-0.2,0.8-0.2,1,0l2.5,1.4C169.2,166.9,169.2,167,169.2,167.2z M181.5,151.1l3-1.7
			c0.3-0.2,0.8-0.2,1,0l2.5,1.4c0.2,0.1,0.2,0.2,0.2,0.4c0,0,0,0.1,0,0.1c0,0,0,0.1,0,0.1c0,0.1,0,0.3-0.2,0.4l-3,1.7
			c-0.3,0.2-0.8,0.2-1,0l-2.5-1.4c-0.2-0.1-0.2-0.2-0.2-0.4c0,0,0-0.1,0-0.1c0,0,0-0.1,0-0.1C181.3,151.4,181.4,151.2,181.5,151.1z
			 M164.4,169.9c0,0,0,0.1,0,0.1c0,0,0,0.1,0,0.1c0,0.1,0,0.3-0.2,0.4l-3,1.7c-0.3,0.2-0.8,0.2-1,0l-2.5-1.4
			c-0.2-0.1-0.2-0.2-0.2-0.3c0,0,0-0.1,0-0.1c0,0,0-0.1,0-0.1c0-0.1,0-0.2,0.2-0.3l3-1.7c0.3-0.2,0.8-0.2,1,0l2.5,1.4
			C164.4,169.7,164.4,169.8,164.4,169.9z M154.9,175.5C154.9,175.5,154.9,175.5,154.9,175.5c0,0.1,0,0.2,0,0.2c0,0.1,0,0.2-0.2,0.3
			l-3,1.7c-0.3,0.2-0.8,0.2-1,0l-2.5-1.4c-0.2-0.1-0.2-0.2-0.2-0.4c0,0,0-0.1,0-0.1c0,0,0-0.1,0-0.1c0-0.1,0-0.3,0.2-0.3l3-1.7
			c0.3-0.2,0.8-0.2,1.1,0l2.5,1.4C154.8,175.2,154.9,175.3,154.9,175.5z M178,172.2c0,0,0,0.1,0,0.1c0,0,0,0.1,0,0.1
			c0,0.1,0,0.3-0.2,0.4l-22.2,12.8c-0.3,0.2-0.8,0.2-1.1,0l-2.5-1.4c-0.2-0.1-0.2-0.2-0.2-0.3c0,0,0-0.1,0-0.1c0,0,0-0.1,0-0.1
			c0-0.1,0-0.3,0.2-0.3l22.2-12.8c0.3-0.2,0.8-0.2,1,0l2.5,1.4C177.9,171.9,178,172.1,178,172.2z M159.6,172.7c0,0,0,0.1,0,0.1
			c0,0,0,0.1,0,0.1c0,0.1,0,0.2-0.2,0.4l-3,1.7c-0.3,0.2-0.8,0.2-1,0l-2.5-1.4c-0.2-0.1-0.2-0.2-0.2-0.4c0,0,0-0.1,0-0.1
			c0,0,0-0.1,0-0.1c0-0.1,0-0.3,0.2-0.4l3-1.7c0.3-0.2,0.8-0.2,1,0l2.5,1.4C159.6,172.4,159.7,172.6,159.6,172.7z M191.8,164.3
			c0,0,0,0.1,0,0.1c0,0,0,0.1,0,0.1c0,0.1,0,0.2-0.2,0.3l-3,1.7c-0.3,0.2-0.8,0.2-1.1,0l-2.5-1.4c-0.2-0.1-0.2-0.2-0.2-0.4
			c0,0,0-0.1,0-0.1c0,0,0-0.1,0-0.1c0-0.1,0-0.3,0.2-0.4l3-1.7c0.3-0.2,0.8-0.2,1,0l2.5,1.4C191.7,164.1,191.8,164.2,191.8,164.3z
			 M196.5,161.6C196.6,161.6,196.6,161.6,196.5,161.6c0,0.1,0,0.2,0,0.2c0,0.1,0,0.3-0.2,0.4l-3,1.7c-0.3,0.2-0.8,0.2-1,0l-2.5-1.4
			c-0.2-0.1-0.2-0.2-0.2-0.4c0,0,0-0.1,0-0.1c0,0,0-0.1,0-0.1c0-0.1,0-0.2,0.2-0.4l3-1.7c0.3-0.2,0.8-0.2,1,0l2.5,1.4
			C196.5,161.3,196.6,161.4,196.5,161.6z M184.2,168.5c0,0,0,0.1,0,0.1c0,0,0,0.1,0,0.1c0,0.1,0,0.3-0.2,0.4l-4.5,2.6
			c-0.3,0.2-0.8,0.2-1,0l-2.5-1.4c-0.2-0.1-0.2-0.2-0.2-0.3c0,0,0-0.1,0-0.1c0,0,0-0.1,0-0.1c0-0.1,0-0.2,0.2-0.3l4.5-2.6
			c0.3-0.2,0.8-0.2,1,0l2.5,1.4C184.1,168.3,184.2,168.4,184.2,168.5z M175.5,163.5C175.6,163.6,175.6,163.6,175.5,163.5
			c0,0.1,0,0.2,0,0.2c0,0.1,0,0.2-0.2,0.4l-4.5,2.6c-0.3,0.2-0.8,0.2-1,0l-2.5-1.4c-0.2-0.1-0.2-0.2-0.2-0.3c0,0,0-0.1,0-0.1
			c0,0,0-0.1,0-0.1c0-0.1,0-0.3,0.2-0.3l4.5-2.6c0.3-0.2,0.8-0.2,1.1,0l2.5,1.4C175.5,163.3,175.6,163.4,175.5,163.5z M139.6,194.3
			c0,0,0,0.1,0,0.1c0,0,0,0.1,0,0.1c0,0.1,0,0.3-0.2,0.4l-3,1.7c-0.3,0.2-0.8,0.2-1.1,0l-2.5-1.4c-0.2-0.1-0.2-0.2-0.2-0.4
			c0,0,0-0.1,0-0.1c0,0,0-0.1,0-0.1c0-0.1,0-0.2,0.2-0.4l3-1.7c0.3-0.2,0.8-0.2,1,0l2.5,1.4C139.6,194,139.6,194.1,139.6,194.3z
			 M144.4,191.5C144.4,191.6,144.4,191.6,144.4,191.5c0,0.1,0,0.2,0,0.2c0,0.1,0,0.2-0.2,0.4l-3,1.7c-0.3,0.2-0.8,0.2-1,0l-2.5-1.4
			c-0.2-0.1-0.2-0.2-0.2-0.3c0,0,0-0.1,0-0.1c0,0,0-0.1,0-0.1c0-0.1,0-0.3,0.2-0.3l3-1.7c0.3-0.2,0.8-0.2,1,0l2.5,1.4
			C144.4,191.3,144.4,191.4,144.4,191.5z M154,186C154,186,154,186.1,154,186c0,0.1,0,0.2,0,0.2c0,0.1,0,0.3-0.2,0.4l-3,1.7
			c-0.3,0.2-0.8,0.2-1,0l-2.5-1.4c-0.2-0.1-0.2-0.2-0.2-0.4c0,0,0-0.1,0-0.1c0,0,0-0.1,0-0.1c0-0.1,0-0.2,0.2-0.3l3-1.7
			c0.3-0.2,0.8-0.2,1,0l2.5,1.4C153.9,185.7,154,185.9,154,186z M149.2,188.8c0,0,0,0.1,0,0.1c0,0,0,0.1,0,0.1c0,0.1,0,0.2-0.2,0.3
			l-3,1.7c-0.3,0.2-0.8,0.2-1.1,0l-2.5-1.4c-0.2-0.1-0.2-0.2-0.2-0.4c0,0,0-0.1,0-0.1c0,0,0-0.1,0-0.1c0-0.1,0-0.3,0.2-0.4l3-1.7
			c0.3-0.2,0.8-0.2,1,0l2.5,1.4C149.1,188.5,149.2,188.6,149.2,188.8z M175.2,168.8c0,0,0,0.1,0,0.1c0,0,0,0.1,0,0.1
			c0,0.1,0,0.2-0.2,0.4l-3,1.7c-0.3,0.2-0.8,0.2-1.1,0l-2.5-1.4c-0.2-0.1-0.2-0.2-0.2-0.4c0,0,0-0.1,0-0.1c0,0,0-0.1,0-0.1
			c0-0.1,0-0.3,0.2-0.4l3-1.7c0.3-0.2,0.8-0.2,1.1,0l2.5,1.4C175.2,168.5,175.2,168.6,175.2,168.8z M165.6,174.3
			C165.6,174.3,165.6,174.4,165.6,174.3c0,0.1,0,0.2,0,0.2c0,0.1,0,0.3-0.2,0.4l-3,1.7c-0.3,0.2-0.8,0.2-1,0l-2.5-1.4
			c-0.2-0.1-0.2-0.2-0.2-0.4c0,0,0-0.1,0-0.1c0,0,0-0.1,0-0.1c0-0.1,0-0.2,0.2-0.4l3-1.7c0.3-0.2,0.8-0.2,1,0l2.5,1.4
			C165.6,174.1,165.7,174.2,165.6,174.3z M141.7,188.1c0,0,0,0.1,0,0.1c0,0,0,0.1,0,0.1c0,0.1,0,0.2-0.2,0.3l-3,1.7
			c-0.3,0.2-0.8,0.2-1,0l-2.5-1.4c-0.2-0.1-0.2-0.2-0.2-0.4c0,0,0-0.1,0-0.1c0,0,0-0.1,0-0.1c0-0.1,0-0.3,0.2-0.4l3-1.7
			c0.3-0.2,0.8-0.2,1.1,0l2.5,1.4C141.7,187.9,141.7,188,141.7,188.1z M146.5,185.4C146.5,185.4,146.5,185.4,146.5,185.4
			c0,0.1,0,0.2,0,0.2c0,0.1,0,0.3-0.2,0.4l-3,1.7c-0.3,0.2-0.8,0.2-1,0l-2.5-1.4c-0.2-0.1-0.2-0.2-0.2-0.3c0,0,0-0.1,0-0.1
			c0,0,0-0.1,0-0.1c0-0.1,0-0.2,0.2-0.3l3-1.7c0.3-0.2,0.8-0.2,1,0l2.5,1.4C146.5,185.1,146.5,185.2,146.5,185.4z M156.1,179.8
			C156.1,179.9,156.1,179.9,156.1,179.8c0,0.1,0,0.2,0,0.2c0,0.1,0,0.2-0.2,0.4l-3,1.7c-0.3,0.2-0.8,0.2-1,0l-2.5-1.4
			c-0.2-0.1-0.2-0.2-0.2-0.3c0,0,0-0.1,0-0.1s0-0.1,0-0.1c0-0.1,0-0.3,0.2-0.4l3-1.7c0.3-0.2,0.8-0.2,1,0l2.5,1.4
			C156,179.6,156.1,179.7,156.1,179.8z M160.9,177.1c0,0,0,0.1,0,0.1c0,0,0,0.1,0,0.1c0,0.1,0,0.2-0.2,0.3l-3,1.7
			c-0.3,0.2-0.8,0.2-1,0l-2.5-1.4c-0.2-0.1-0.2-0.2-0.2-0.4c0,0,0-0.1,0-0.1c0,0,0-0.1,0-0.1c0-0.1,0-0.3,0.2-0.4l3-1.7
			c0.3-0.2,0.8-0.2,1,0l2.5,1.4C160.8,176.8,160.9,176.9,160.9,177.1z M151.3,182.6c0,0,0,0.1,0,0.1s0,0.1,0,0.1
			c0,0.1,0,0.3-0.2,0.4l-3,1.7c-0.3,0.2-0.8,0.2-1,0l-2.5-1.4c-0.2-0.1-0.2-0.2-0.2-0.4c0,0,0-0.1,0-0.1c0,0,0-0.1,0-0.1
			c0-0.1,0-0.2,0.2-0.4l3-1.7c0.3-0.2,0.8-0.2,1.1,0l2.5,1.4C151.2,182.3,151.3,182.5,151.3,182.6z M190.3,156.2l3-1.7
			c0.3-0.2,0.8-0.2,1,0l2.5,1.4c0.2,0.1,0.2,0.2,0.2,0.3c0,0,0,0.1,0,0.1c0,0,0,0.1,0,0.1c0,0.1,0,0.2-0.2,0.4l-3,1.7
			c-0.3,0.2-0.8,0.2-1,0l-2.5-1.4c-0.2-0.1-0.2-0.2-0.2-0.3c0,0,0-0.1,0-0.1c0,0,0-0.1,0-0.1C190,156.4,190.1,156.3,190.3,156.2z
			 M170.4,171.5c0,0,0,0.1,0,0.1c0,0,0,0.1,0,0.1c0,0.1,0,0.3-0.2,0.3l-3,1.7c-0.3,0.2-0.8,0.2-1,0l-2.5-1.4
			c-0.2-0.1-0.2-0.2-0.2-0.4c0,0,0-0.1,0-0.1c0,0,0-0.1,0-0.1c0-0.1,0-0.2,0.2-0.3l3-1.7c0.3-0.2,0.8-0.2,1,0l2.5,1.4
			C170.4,171.3,170.4,171.4,170.4,171.5z M184.8,154.2l4.2-2.4c0.2-0.1,0.6-0.1,0.9,0l2.4,1.4c0.2,0.1,0.3,0.3,0.2,0.4
			c0,0,0,0.1,0,0.1c0,0,0,0.1,0,0.1c0,0.1,0,0.3-0.2,0.4l-12.5,7.2c-0.4,0.2-0.9,0.2-1.3,0l-6.5-3.8c-0.2-0.1-0.3-0.3-0.2-0.4
			c0,0,0-0.1,0-0.1c0,0,0-0.1,0-0.1c0-0.1,0-0.3,0.2-0.4l7.5-4.3c0.4-0.2,0.9-0.2,1.3,0l3.3,1.9
			C184.2,154.3,184.6,154.3,184.8,154.2z M180,166c0,0,0,0.1,0,0.1c0,0,0,0.1,0,0.1c0,0.1,0,0.2-0.2,0.4l-3,1.7
			c-0.3,0.2-0.8,0.2-1,0l-2.5-1.4c-0.2-0.1-0.2-0.2-0.2-0.3c0,0,0-0.1,0-0.1c0,0,0-0.1,0-0.1c0-0.1,0-0.3,0.2-0.4l3-1.7
			c0.3-0.2,0.8-0.2,1,0l2.5,1.4C180,165.8,180,165.9,180,166z M192.2,159c0,0,0,0.1,0,0.1c0,0,0,0.1,0,0.1c0,0.1,0,0.2-0.2,0.4
			l-3,1.7c-0.3,0.2-0.8,0.2-1,0l-2.5-1.4c-0.2-0.1-0.2-0.2-0.2-0.4c0,0,0-0.1,0-0.1s0-0.1,0-0.1c0-0.1,0-0.3,0.2-0.4l3-1.7
			c0.3-0.2,0.8-0.2,1,0l2.5,1.4C192.1,158.8,192.2,158.9,192.2,159z M201.3,158.9c0,0,0,0.1,0,0.1c0,0.1,0,0.3-0.2,0.3l-3,1.7
			c-0.3,0.2-0.8,0.2-1.1,0l-2.5-1.4c-0.2-0.1-0.2-0.2-0.2-0.4c0,0,0-0.1,0-0.1c0,0,0-0.1,0-0.1c0-0.1,0-0.2,0.2-0.3l3-1.7
			c0.3-0.2,0.8-0.2,1.1,0l2.5,1.4c0.2,0.1,0.2,0.2,0.2,0.3C201.3,158.8,201.3,158.9,201.3,158.9z M120.1,182c0,0,0-0.1,0-0.1
			c0,0,0-0.1,0-0.1c0-0.1,0-0.3,0.2-0.3l3-1.7c0.3-0.2,0.8-0.2,1,0l2.5,1.4c0.2,0.1,0.2,0.2,0.2,0.4c0,0,0,0.1,0,0.1
			c0,0,0,0.1,0,0.1c0,0.1,0,0.2-0.2,0.3l-3,1.7c-0.3,0.2-0.8,0.2-1,0l-2.5-1.4C120.2,182.2,120.1,182.1,120.1,182z M122,184.8
			l-3,1.7c-0.3,0.2-0.8,0.2-1,0l-2.5-1.4c-0.2-0.1-0.2-0.2-0.2-0.4c0,0,0-0.1,0-0.1c0,0,0-0.1,0-0.1c0-0.1,0-0.2,0.2-0.4l3-1.7
			c0.3-0.2,0.8-0.2,1,0l2.5,1.4c0.2,0.1,0.2,0.2,0.2,0.4c0,0,0,0.1,0,0.1c0,0,0,0.1,0,0.1C122.3,184.6,122.2,184.7,122,184.8z
			 M124.9,179.2C124.9,179.2,124.9,179.1,124.9,179.2c0-0.1,0-0.2,0-0.2c0-0.1,0-0.3,0.2-0.4l3-1.7c0.3-0.2,0.8-0.2,1,0l2.5,1.4
			c0.2,0.1,0.2,0.2,0.2,0.4c0,0,0,0.1,0,0.1c0,0,0,0.1,0,0.1c0,0.1,0,0.2-0.2,0.4l-3,1.7c-0.3,0.2-0.8,0.2-1,0l-2.5-1.4
			C124.9,179.4,124.9,179.3,124.9,179.2z M129.7,176.4c0,0,0-0.1,0-0.1c0,0,0-0.1,0-0.1c0-0.1,0-0.2,0.2-0.3l3-1.7
			c0.3-0.2,0.8-0.2,1,0l2.5,1.4c0.2,0.1,0.2,0.2,0.2,0.4c0,0,0,0.1,0,0.1c0,0,0,0.1,0,0.1c0,0.1,0,0.3-0.2,0.4l-3,1.7
			c-0.3,0.2-0.8,0.2-1,0l-2.5-1.4C129.7,176.7,129.7,176.6,129.7,176.4z M128,186.4l-4.5,2.6c-0.3,0.2-0.8,0.2-1,0l-2.5-1.4
			c-0.2-0.1-0.2-0.2-0.2-0.4c0,0,0-0.1,0-0.1c0,0,0-0.1,0-0.1c0-0.1,0-0.3,0.2-0.4l4.5-2.6c0.3-0.2,0.8-0.2,1.1,0l2.5,1.4
			c0.2,0.1,0.2,0.2,0.2,0.4c0,0,0,0.1,0,0.1c0,0,0,0.1,0,0.1C128.3,186.2,128.2,186.3,128,186.4z M187.2,162.3l-3,1.7
			c-0.3,0.2-0.8,0.2-1,0l-2.5-1.4c-0.2-0.1-0.2-0.2-0.2-0.4c0,0,0-0.1,0-0.1c0,0,0-0.1,0-0.1c0-0.1,0-0.2,0.2-0.3l3-1.7
			c0.3-0.2,0.8-0.2,1,0l2.5,1.4c0.2,0.1,0.2,0.2,0.2,0.3c0,0,0,0.1,0,0.1c0,0,0,0.1,0,0.1C187.4,162.1,187.4,162.2,187.2,162.3z
			 M134.5,173.7C134.5,173.6,134.5,173.6,134.5,173.7c0-0.1,0-0.2,0-0.2c0-0.1,0-0.2,0.2-0.4l3-1.7c0.3-0.2,0.8-0.2,1.1,0l2.5,1.4
			c0.2,0.1,0.2,0.2,0.2,0.3c0,0,0,0.1,0,0.1s0,0.1,0,0.1c0,0.1,0,0.3-0.2,0.4c-4.1,2.4-2.9,2.4-6.5,0.3
			C134.5,173.9,134.5,173.8,134.5,173.7z M130.7,189.8l-3,1.7c-0.3,0.2-0.8,0.2-1,0l-2.5-1.4c-0.2-0.1-0.2-0.2-0.2-0.3
			c0,0,0-0.1,0-0.1c0,0,0-0.1,0-0.1c0-0.1,0-0.2,0.2-0.3l3-1.7c0.3-0.2,0.8-0.2,1,0l2.5,1.4c0.2,0.1,0.2,0.2,0.2,0.4
			c0,0,0,0.1,0,0.1c0,0,0,0.1,0,0.1C131,189.6,130.9,189.7,130.7,189.8z M136.7,191.4l-4.5,2.6c-0.3,0.2-0.8,0.2-1,0l-2.5-1.4
			c-0.2-0.1-0.2-0.2-0.2-0.3c0,0,0-0.1,0-0.1s0-0.1,0-0.1c0-0.1,0-0.3,0.2-0.3l4.5-2.6c0.3-0.2,0.8-0.2,1,0l2.5,1.4
			c0.2,0.1,0.2,0.2,0.2,0.4c0,0,0,0.1,0,0.1c0,0,0,0.1,0,0.1C137,191.2,136.9,191.3,136.7,191.4z M145.3,172.5c0,0,0-0.1,0-0.1
			c0,0,0-0.1,0-0.1c0-0.1,0-0.3,0.2-0.4l3-1.7c0.3-0.2,0.8-0.2,1,0l2.5,1.4c0.2,0.1,0.2,0.2,0.2,0.3c0,0,0,0.1,0,0.1
			c0,0,0,0.1,0,0.1c0,0.1,0,0.2-0.2,0.4l-3,1.7c-0.7,0.4-1.1,0-3.5-1.4C145.3,172.8,145.2,172.6,145.3,172.5z M140.5,175.3
			c0,0,0-0.1,0-0.1c0,0,0-0.1,0-0.1c0-0.1,0-0.3,0.2-0.4l3-1.7c0.3-0.2,0.8-0.2,1.1,0l2.5,1.4c0.2,0.1,0.2,0.2,0.2,0.3
			c0,0,0,0.1,0,0.1c0,0,0,0.1,0,0.1c0,0.1,0,0.2-0.2,0.4l-3,1.7c-0.3,0.2-0.8,0.2-1,0l-2.5-1.4C140.5,175.5,140.4,175.4,140.5,175.3
			z M135.7,178C135.7,178,135.7,178,135.7,178c0-0.1,0-0.2,0-0.2c0-0.1,0-0.2,0.2-0.3c4.1-2.4,2.8-2.4,6.5-0.3
			c0.2,0.1,0.2,0.2,0.2,0.4c0,0,0,0.1,0,0.1c0,0,0,0.1,0,0.1c0,0.1,0,0.3-0.2,0.3l-3,1.7c-0.3,0.2-0.8,0.2-1,0l-2.5-1.4
			C135.7,178.3,135.7,178.2,135.7,178z M130.9,180.8C130.9,180.8,130.9,180.7,130.9,180.8c0-0.1,0-0.2,0-0.2c0-0.1,0-0.2,0.2-0.4
			l3-1.7c0.3-0.2,0.8-0.2,1,0l2.5,1.4c0.2,0.1,0.2,0.2,0.2,0.4c0,0,0,0.1,0,0.1c0,0,0,0.1,0,0.1c0,0.1,0,0.3-0.2,0.4l-3,1.7
			c-0.3,0.2-0.8,0.2-1,0l-2.5-1.4C130.9,181.1,130.9,180.9,130.9,180.8z M150.1,169.8C150,169.7,150,169.7,150.1,169.8
			c0-0.1,0-0.2,0-0.2c0-0.1,0-0.2,0.2-0.4l3-1.7c0.3-0.2,0.8-0.2,1,0l2.5,1.4c0.2,0.1,0.2,0.2,0.2,0.4c0,0,0,0.1,0,0.1
			c0,0,0,0.1,0,0.1c0,0.1,0,0.3-0.2,0.4l-3,1.7c-0.3,0.2-0.8,0.2-1,0l-2.5-1.4C150.1,170,150,169.9,150.1,169.8z M154.8,167
			c0,0,0-0.1,0-0.1c0,0,0-0.1,0-0.1c0-0.1,0-0.2,0.2-0.3l3-1.7c0.3-0.2,0.8-0.2,1,0l2.5,1.4c0.2,0.1,0.2,0.2,0.2,0.4
			c0,0,0,0.1,0,0.1c0,0,0,0.1,0,0.1c0,0.1,0,0.3-0.2,0.4l-3,1.7c-0.3,0.2-0.8,0.2-1,0l-2.5-1.4C154.9,167.2,154.8,167.1,154.8,167z
			 M159.6,164.2C159.6,164.2,159.6,164.2,159.6,164.2c0-0.1,0-0.2,0-0.2c0-0.1,0-0.3,0.2-0.4l3-1.7c0.3-0.2,0.8-0.2,1,0l2.5,1.4
			c0.2,0.1,0.2,0.2,0.2,0.3c0,0,0,0.1,0,0.1c0,0,0,0.1,0,0.1c0,0.1,0,0.2-0.2,0.3l-3,1.7c-0.3,0.2-0.8,0.2-1,0l-2.5-1.4
			C159.6,164.5,159.6,164.4,159.6,164.2z M126.1,183.6c0,0,0-0.1,0-0.1c0,0,0-0.1,0-0.1c0-0.1,0-0.3,0.2-0.4l3-1.7
			c0.3-0.2,0.8-0.2,1,0l2.5,1.4c0.2,0.1,0.2,0.2,0.2,0.3c0,0,0,0.1,0,0.1c0,0,0,0.1,0,0.1c0,0.1,0,0.2-0.2,0.3l-3,1.7
			c-0.3,0.2-0.8,0.2-1,0l-2.5-1.4C126.2,183.8,126.1,183.7,126.1,183.6z M164.4,161.5c0,0,0-0.1,0-0.1c0,0,0-0.1,0-0.1
			c0-0.1,0-0.3,0.2-0.4l3-1.7c0.3-0.2,0.8-0.2,1,0l2.5,1.4c0.2,0.1,0.2,0.2,0.2,0.4c0,0,0,0.1,0,0.1c0,0,0,0.1,0,0.1
			c0,0.1,0,0.2-0.2,0.4l-3,1.7c-0.3,0.2-0.8,0.2-1.1,0l-2.5-1.4C164.4,161.7,164.4,161.6,164.4,161.5z M144.1,168.1
			C144,168.1,144,168.1,144.1,168.1c0-0.1,0-0.2,0-0.2c0-0.1,0-0.3,0.2-0.4l3-1.7c0.3-0.2,0.8-0.2,1,0l2.5,1.4
			c0.2,0.1,0.2,0.2,0.2,0.3c0,0,0,0.1,0,0.1c0,0,0,0.1,0,0.1c0,0.1,0,0.2-0.2,0.3l-3,1.7c-0.3,0.2-0.8,0.2-1,0l-2.5-1.4
			C144.1,168.4,144,168.3,144.1,168.1z M153.6,162.6C153.6,162.6,153.6,162.6,153.6,162.6c0-0.1,0-0.2,0-0.2c0-0.1,0-0.2,0.2-0.3
			l3-1.7c0.3-0.2,0.8-0.2,1,0l2.5,1.4c0.2,0.1,0.2,0.2,0.2,0.3c0,0,0,0.1,0,0.1s0,0.1,0,0.1c0,0.1,0,0.3-0.2,0.3l-3,1.7
			c-0.3,0.2-0.8,0.2-1,0l-2.5-1.4C153.6,162.9,153.6,162.8,153.6,162.6z M158.4,159.9c0,0,0-0.1,0-0.1s0-0.1,0-0.1
			c0-0.1,0-0.3,0.2-0.4l4.5-2.6c0.3-0.2,0.8-0.2,1,0l2.5,1.4c0.2,0.1,0.2,0.2,0.2,0.4c0,0,0,0.1,0,0.1c0,0,0,0.1,0,0.1
			c0,0.1,0,0.2-0.2,0.4l-4.5,2.6c-0.3,0.2-0.8,0.2-1,0l-2.5-1.4C158.4,160.1,158.4,160,158.4,159.9z M148.8,165.4c0,0,0-0.1,0-0.1
			c0,0,0-0.1,0-0.1c0-0.1,0-0.2,0.2-0.3l3-1.7c0.3-0.2,0.8-0.2,1,0l2.5,1.4c0.2,0.1,0.2,0.2,0.2,0.4c0,0,0,0.1,0,0.1
			c0,0,0,0.1,0,0.1c0,0.1,0,0.3-0.2,0.4l-3,1.7c-0.3,0.2-0.8,0.2-1,0l-2.5-1.4C148.9,165.6,148.8,165.5,148.8,165.4z M139.3,170.9
			c0,0,0-0.1,0-0.1c0,0,0-0.1,0-0.1c0-0.1,0-0.3,0.2-0.4l3-1.7c0.3-0.2,0.8-0.2,1,0l2.5,1.4c0.2,0.1,0.2,0.2,0.2,0.4
			c0,0,0,0.1,0,0.1c0,0,0,0.1,0,0.1c0,0.1,0,0.2-0.2,0.4l-3,1.7c-0.3,0.2-0.8,0.2-1,0l-2.5-1.4C139.3,171.2,139.2,171,139.3,170.9z
			 M128.8,187C128.8,186.9,128.8,186.9,128.8,187c0-0.1,0-0.2,0-0.2c0-0.1,0-0.3,0.2-0.4l3-1.7c0.3-0.2,0.8-0.2,1.1,0l2.5,1.4
			c0.2,0.1,0.2,0.2,0.2,0.4c0,0,0,0.1,0,0.1c0,0,0,0.1,0,0.1c0,0.1,0,0.2-0.2,0.3l-3,1.7c-0.3,0.2-0.8,0.2-1.1,0l-2.5-1.4
			C128.9,187.2,128.8,187.1,128.8,187z M167.4,154.7C167.4,154.7,167.4,154.6,167.4,154.7c0-0.1,0-0.2,0-0.2c0-0.1,0-0.3,0.2-0.4
			l3-1.7c0.3-0.2,0.8-0.2,1.1,0l2.5,1.4c0.2,0.1,0.2,0.2,0.2,0.3c0,0,0,0.1,0,0.1c0,0,0,0.1,0,0.1c0,0.1,0,0.2-0.2,0.4l-3,1.7
			c-0.3,0.2-0.8,0.2-1.1,0l-2.5-1.4C167.4,155,167.4,154.8,167.4,154.7z M177,149.2C176.9,149.1,176.9,149.1,177,149.2
			c0-0.1,0-0.2,0-0.2c0-0.1,0-0.2,0.2-0.4l3-1.7c0.3-0.2,0.8-0.2,1.1,0l2.5,1.4c0.2,0.1,0.2,0.2,0.2,0.3c0,0,0,0.1,0,0.1
			c0,0,0,0.1,0,0.1c0,0.1,0,0.3-0.2,0.4l-3,1.7c-0.3,0.2-0.8,0.2-1.1,0l-2.5-1.4C177,149.4,176.9,149.3,177,149.2z M172.2,151.9
			c0,0,0-0.1,0-0.1c0,0,0-0.1,0-0.1c0-0.1,0-0.3,0.2-0.4l3-1.7c0.3-0.2,0.8-0.2,1,0l2.5,1.4c0.2,0.1,0.2,0.2,0.2,0.4
			c0,0,0,0.1,0,0.1c0,0,0,0.1,0,0.1c0,0.1,0,0.2-0.2,0.4l-3,1.7c-0.3,0.2-0.8,0.2-1,0l-2.5-1.4C172.2,152.2,172.1,152.1,172.2,151.9
			z"/>
		<path class="st11" d="M192.3,153.8l-12.5,7.2c-0.4,0.2-0.9,0.2-1.3,0l-6.5-3.8c-0.4-0.2-0.4-0.5,0-0.7l7.5-4.3
			c0.4-0.2,0.9-0.2,1.3,0l3.3,1.9c0.2,0.1,0.5,0.1,0.7,0l4.2-2.4c0.2-0.1,0.6-0.1,0.9,0l2.4,1.4
			C192.6,153.3,192.6,153.6,192.3,153.8z M188,151.3l-3,1.7c-0.3,0.2-0.8,0.2-1,0l-2.5-1.4c-0.3-0.2-0.3-0.4,0-0.6l3-1.7
			c0.3-0.2,0.8-0.2,1,0l2.5,1.4C188.3,150.9,188.3,151.2,188,151.3z M183.7,148.8l-3,1.7c-0.3,0.2-0.8,0.2-1.1,0l-2.5-1.4
			c-0.3-0.2-0.3-0.4,0-0.6l3-1.7c0.3-0.2,0.8-0.2,1.1,0l2.5,1.4C183.9,148.4,183.9,148.6,183.7,148.8z M178.9,151.6l-3,1.7
			c-0.3,0.2-0.8,0.2-1,0l-2.5-1.4c-0.3-0.2-0.3-0.4,0-0.6l3-1.7c0.3-0.2,0.8-0.2,1,0l2.5,1.4C179.2,151.1,179.2,151.4,178.9,151.6z
			 M174.1,154.3l-3,1.7c-0.3,0.2-0.8,0.2-1.1,0l-2.5-1.4c-0.3-0.2-0.3-0.4,0-0.6l3-1.7c0.3-0.2,0.8-0.2,1.1,0l2.5,1.4
			C174.4,153.9,174.4,154.2,174.1,154.3z M179.8,166.1l-3,1.7c-0.3,0.2-0.8,0.2-1,0l-2.5-1.4c-0.3-0.2-0.3-0.4,0-0.6l3-1.7
			c0.3-0.2,0.8-0.2,1,0l2.5,1.4C180.1,165.7,180.1,166,179.8,166.1z M175,168.9l-3,1.7c-0.3,0.2-0.8,0.2-1.1,0l-2.5-1.4
			c-0.3-0.2-0.3-0.4,0-0.6l3-1.7c0.3-0.2,0.8-0.2,1.1,0l2.5,1.4C175.3,168.5,175.3,168.7,175,168.9z M170.2,171.7l-3,1.7
			c-0.3,0.2-0.8,0.2-1,0l-2.5-1.4c-0.3-0.2-0.3-0.4,0-0.6l3-1.7c0.3-0.2,0.8-0.2,1,0l2.5,1.4C170.5,171.2,170.5,171.5,170.2,171.7z
			 M177.8,172.3l-22.2,12.8c-0.3,0.2-0.8,0.2-1.1,0l-2.5-1.4c-0.3-0.2-0.3-0.4,0-0.6l22.2-12.8c0.3-0.2,0.8-0.2,1,0l2.5,1.4
			C178.1,171.9,178.1,172.1,177.8,172.3z M160.7,177.2l-3,1.7c-0.3,0.2-0.8,0.2-1,0l-2.5-1.4c-0.3-0.2-0.3-0.4,0-0.6l3-1.7
			c0.3-0.2,0.8-0.2,1,0l2.5,1.4C160.9,176.8,160.9,177,160.7,177.2z M165.4,174.4l-3,1.7c-0.3,0.2-0.8,0.2-1,0l-2.5-1.4
			c-0.3-0.2-0.3-0.4,0-0.6l3-1.7c0.3-0.2,0.8-0.2,1,0l2.5,1.4C165.7,174,165.7,174.2,165.4,174.4z M155.9,179.9l-3,1.7
			c-0.3,0.2-0.8,0.2-1,0l-2.5-1.4c-0.3-0.2-0.3-0.4,0-0.6l3-1.7c0.3-0.2,0.8-0.2,1,0l2.5,1.4C156.2,179.5,156.2,179.8,155.9,179.9z
			 M151.1,182.7l-3,1.7c-0.3,0.2-0.8,0.2-1,0l-2.5-1.4c-0.3-0.2-0.3-0.4,0-0.6l3-1.7c0.3-0.2,0.8-0.2,1.1,0l2.5,1.4
			C151.4,182.3,151.4,182.5,151.1,182.7z M146.3,185.5l-3,1.7c-0.3,0.2-0.8,0.2-1,0l-2.5-1.4c-0.3-0.2-0.3-0.4,0-0.6l3-1.7
			c0.3-0.2,0.8-0.2,1,0l2.5,1.4C146.6,185,146.6,185.3,146.3,185.5z M141.5,188.2l-3,1.7c-0.3,0.2-0.8,0.2-1,0l-2.5-1.4
			c-0.3-0.2-0.3-0.4,0-0.6l3-1.7c0.3-0.2,0.8-0.2,1.1,0l2.5,1.4C141.8,187.8,141.8,188.1,141.5,188.2z M136.7,191l-4.5,2.6
			c-0.3,0.2-0.8,0.2-1,0l-2.5-1.4c-0.3-0.2-0.3-0.4,0-0.6l4.5-2.6c0.3-0.2,0.8-0.2,1,0l2.5,1.4C137,190.6,137,190.8,136.7,191z
			 M175.3,163.6l-4.5,2.6c-0.3,0.2-0.8,0.2-1,0l-2.5-1.4c-0.3-0.2-0.3-0.4,0-0.6l4.5-2.6c0.3-0.2,0.8-0.2,1.1,0l2.5,1.4
			C175.6,163.2,175.6,163.5,175.3,163.6z M169,167.3l-3,1.7c-0.3,0.2-0.8,0.2-1,0l-2.5-1.4c-0.3-0.2-0.3-0.4,0-0.6l3-1.7
			c0.3-0.2,0.8-0.2,1,0l2.5,1.4C169.3,166.9,169.3,167.1,169,167.3z M164.2,170.1l-3,1.7c-0.3,0.2-0.8,0.2-1,0l-2.5-1.4
			c-0.3-0.2-0.3-0.4,0-0.6l3-1.7c0.3-0.2,0.8-0.2,1,0l2.5,1.4C164.5,169.6,164.5,169.9,164.2,170.1z M159.4,172.8l-3,1.7
			c-0.3,0.2-0.8,0.2-1,0l-2.5-1.4c-0.3-0.2-0.3-0.4,0-0.6l3-1.7c0.3-0.2,0.8-0.2,1,0l2.5,1.4C159.7,172.4,159.7,172.6,159.4,172.8z
			 M154.7,175.6l-3,1.7c-0.3,0.2-0.8,0.2-1,0l-2.5-1.4c-0.3-0.2-0.3-0.4,0-0.6l3-1.7c0.3-0.2,0.8-0.2,1.1,0l2.5,1.4
			C154.9,175.1,154.9,175.4,154.7,175.6z M149.9,178.3l-3,1.7c-0.3,0.2-0.8,0.2-1,0l-2.5-1.4c-0.3-0.2-0.3-0.4,0-0.6l3-1.7
			c0.3-0.2,0.8-0.2,1,0l2.5,1.4C150.2,177.9,150.2,178.2,149.9,178.3z M184,168.7l-4.5,2.6c-0.3,0.2-0.8,0.2-1,0l-2.5-1.4
			c-0.3-0.2-0.3-0.4,0-0.6l4.5-2.6c0.3-0.2,0.8-0.2,1,0l2.5,1.4C184.3,168.2,184.3,168.5,184,168.7z M153.8,186.1l-3,1.7
			c-0.3,0.2-0.8,0.2-1,0l-2.5-1.4c-0.3-0.2-0.3-0.4,0-0.6l3-1.7c0.3-0.2,0.8-0.2,1,0l2.5,1.4C154.1,185.7,154.1,185.9,153.8,186.1z
			 M149,188.9l-3,1.7c-0.3,0.2-0.8,0.2-1.1,0l-2.5-1.4c-0.3-0.2-0.3-0.4,0-0.6l3-1.7c0.3-0.2,0.8-0.2,1,0l2.5,1.4
			C149.3,188.4,149.3,188.7,149,188.9z M144.2,191.6l-3,1.7c-0.3,0.2-0.8,0.2-1,0l-2.5-1.4c-0.3-0.2-0.3-0.4,0-0.6l3-1.7
			c0.3-0.2,0.8-0.2,1,0l2.5,1.4C144.5,191.2,144.5,191.5,144.2,191.6z M139.4,194.4l-3,1.7c-0.3,0.2-0.8,0.2-1.1,0l-2.5-1.4
			c-0.3-0.2-0.3-0.4,0-0.6l3-1.7c0.3-0.2,0.8-0.2,1,0l2.5,1.4C139.7,194,139.7,194.2,139.4,194.4z M145.1,181.1l-3,1.7
			c-0.3,0.2-0.8,0.2-1.1,0l-2.5-1.4c-0.3-0.2-0.3-0.4,0-0.6l3-1.7c0.3-0.2,0.8-0.2,1.1,0l2.5,1.4
			C145.4,180.7,145.4,180.9,145.1,181.1z M140.3,183.9l-3,1.7c-0.3,0.2-0.8,0.2-1,0l-2.5-1.4c-0.3-0.2-0.3-0.4,0-0.6l3-1.7
			c0.3-0.2,0.8-0.2,1,0l2.5,1.4C140.6,183.4,140.6,183.7,140.3,183.9z M135.5,186.6l-3,1.7c-0.3,0.2-0.8,0.2-1.1,0l-2.5-1.4
			c-0.3-0.2-0.3-0.4,0-0.6l3-1.7c0.3-0.2,0.8-0.2,1.1,0l2.5,1.4C135.8,186.2,135.8,186.5,135.5,186.6z M130.7,189.4l-3,1.7
			c-0.3,0.2-0.8,0.2-1,0l-2.5-1.4c-0.3-0.2-0.3-0.4,0-0.6l3-1.7c0.3-0.2,0.8-0.2,1,0l2.5,1.4C131,188.9,131,189.2,130.7,189.4z
			 M171.1,161.1l-3,1.7c-0.3,0.2-0.8,0.2-1.1,0l-2.5-1.4c-0.3-0.2-0.3-0.4,0-0.6l3-1.7c0.3-0.2,0.8-0.2,1,0l2.5,1.4
			C171.4,160.7,171.4,160.9,171.1,161.1z M166.3,163.9l-3,1.7c-0.3,0.2-0.8,0.2-1,0l-2.5-1.4c-0.3-0.2-0.3-0.4,0-0.6l3-1.7
			c0.3-0.2,0.8-0.2,1,0l2.5,1.4C166.6,163.4,166.6,163.7,166.3,163.9z M161.5,166.6l-3,1.7c-0.3,0.2-0.8,0.2-1,0l-2.5-1.4
			c-0.3-0.2-0.3-0.4,0-0.6l3-1.7c0.3-0.2,0.8-0.2,1,0l2.5,1.4C161.8,166.2,161.8,166.5,161.5,166.6z M156.8,169.4l-3,1.7
			c-0.3,0.2-0.8,0.2-1,0l-2.5-1.4c-0.3-0.2-0.3-0.4,0-0.6l3-1.7c0.3-0.2,0.8-0.2,1,0l2.5,1.4C157,169,157,169.2,156.8,169.4z
			 M152,172.2l-3,1.7c-0.3,0.2-0.8,0.2-1,0l-2.5-1.4c-0.3-0.2-0.3-0.4,0-0.6l3-1.7c0.3-0.2,0.8-0.2,1,0l2.5,1.4
			C152.2,171.7,152.2,172,152,172.2z M147.2,174.9l-3,1.7c-0.3,0.2-0.8,0.2-1,0l-2.5-1.4c-0.3-0.2-0.3-0.4,0-0.6l3-1.7
			c0.3-0.2,0.8-0.2,1.1,0l2.5,1.4C147.5,174.5,147.5,174.8,147.2,174.9z M142.4,177.7l-3,1.7c-0.3,0.2-0.8,0.2-1,0l-2.5-1.4
			c-0.3-0.2-0.3-0.4,0-0.6l3-1.7c0.3-0.2,0.8-0.2,1,0l2.5,1.4C142.7,177.2,142.7,177.5,142.4,177.7z M137.6,180.4l-3,1.7
			c-0.3,0.2-0.8,0.2-1,0l-2.5-1.4c-0.3-0.2-0.3-0.4,0-0.6l3-1.7c0.3-0.2,0.8-0.2,1,0l2.5,1.4C137.9,180,137.9,180.3,137.6,180.4z
			 M132.8,183.2l-3,1.7c-0.3,0.2-0.8,0.2-1,0l-2.5-1.4c-0.3-0.2-0.3-0.4,0-0.6l3-1.7c0.3-0.2,0.8-0.2,1,0l2.5,1.4
			C133.1,182.8,133.1,183.1,132.8,183.2z M128,186l-4.5,2.6c-0.3,0.2-0.8,0.2-1,0l-2.5-1.4c-0.3-0.2-0.3-0.4,0-0.6l4.5-2.6
			c0.3-0.2,0.8-0.2,1.1,0l2.5,1.4C128.3,185.5,128.3,185.8,128,186z M201.1,158.9l-3,1.7c-0.3,0.2-0.8,0.2-1.1,0l-2.5-1.4
			c-0.3-0.2-0.3-0.4,0-0.6l3-1.7c0.3-0.2,0.8-0.2,1.1,0l2.5,1.4C201.4,158.5,201.4,158.7,201.1,158.9z M196.3,161.7l-3,1.7
			c-0.3,0.2-0.8,0.2-1,0l-2.5-1.4c-0.3-0.2-0.3-0.4,0-0.6l3-1.7c0.3-0.2,0.8-0.2,1,0l2.5,1.4C196.6,161.2,196.6,161.5,196.3,161.7z
			 M191.6,164.4l-3,1.7c-0.3,0.2-0.8,0.2-1.1,0l-2.5-1.4c-0.3-0.2-0.3-0.4,0-0.6l3-1.7c0.3-0.2,0.8-0.2,1,0l2.5,1.4
			C191.9,164,191.9,164.3,191.6,164.4z M196.8,156.4l-3,1.7c-0.3,0.2-0.8,0.2-1,0l-2.5-1.4c-0.3-0.2-0.3-0.4,0-0.6l3-1.7
			c0.3-0.2,0.8-0.2,1,0l2.5,1.4C197,155.9,197,156.2,196.8,156.4z M192,159.1l-3,1.7c-0.3,0.2-0.8,0.2-1,0l-2.5-1.4
			c-0.3-0.2-0.3-0.4,0-0.6l3-1.7c0.3-0.2,0.8-0.2,1,0l2.5,1.4C192.3,158.7,192.3,159,192,159.1z M187.2,161.9l-3,1.7
			c-0.3,0.2-0.8,0.2-1,0l-2.5-1.4c-0.3-0.2-0.3-0.4,0-0.6l3-1.7c0.3-0.2,0.8-0.2,1,0l2.5,1.4C187.5,161.5,187.5,161.7,187.2,161.9z
			 M166.6,158.6l-4.5,2.6c-0.3,0.2-0.8,0.2-1,0l-2.5-1.4c-0.3-0.2-0.3-0.4,0-0.6l4.5-2.6c0.3-0.2,0.8-0.2,1,0l2.5,1.4
			C166.9,158.2,166.9,158.4,166.6,158.6z M160.3,162.3l-3,1.7c-0.3,0.2-0.8,0.2-1,0l-2.5-1.4c-0.3-0.2-0.3-0.4,0-0.6l3-1.7
			c0.3-0.2,0.8-0.2,1,0l2.5,1.4C160.6,161.8,160.6,162.1,160.3,162.3z M155.5,165l-3,1.7c-0.3,0.2-0.8,0.2-1,0l-2.5-1.4
			c-0.3-0.2-0.3-0.4,0-0.6l3-1.7c0.3-0.2,0.8-0.2,1,0l2.5,1.4C155.8,164.6,155.8,164.9,155.5,165z M150.8,167.8l-3,1.7
			c-0.3,0.2-0.8,0.2-1,0l-2.5-1.4c-0.3-0.2-0.3-0.4,0-0.6l3-1.7c0.3-0.2,0.8-0.2,1,0l2.5,1.4C151,167.4,151,167.6,150.8,167.8z
			 M146,170.6l-3,1.7c-0.3,0.2-0.8,0.2-1,0l-2.5-1.4c-0.3-0.2-0.3-0.4,0-0.6l3-1.7c0.3-0.2,0.8-0.2,1,0l2.5,1.4
			C146.2,170.1,146.2,170.4,146,170.6z M141.2,173.3l-3,1.7c-0.3,0.2-0.8,0.2-1.1,0l-2.5-1.4c-0.3-0.2-0.3-0.4,0-0.6l3-1.7
			c0.3-0.2,0.8-0.2,1.1,0l2.5,1.4C141.5,172.9,141.5,173.1,141.2,173.3z M136.4,176.1l-3,1.7c-0.3,0.2-0.8,0.2-1,0l-2.5-1.4
			c-0.3-0.2-0.3-0.4,0-0.6l3-1.7c0.3-0.2,0.8-0.2,1,0l2.5,1.4C136.7,175.6,136.7,175.9,136.4,176.1z M131.6,178.8l-3,1.7
			c-0.3,0.2-0.8,0.2-1,0l-2.5-1.4c-0.3-0.2-0.3-0.4,0-0.6l3-1.7c0.3-0.2,0.8-0.2,1,0l2.5,1.4C131.9,178.4,131.9,178.7,131.6,178.8z
			 M126.8,181.6l-3,1.7c-0.3,0.2-0.8,0.2-1,0l-2.5-1.4c-0.3-0.2-0.3-0.4,0-0.6l3-1.7c0.3-0.2,0.8-0.2,1,0l2.5,1.4
			C127.1,181.2,127.1,181.4,126.8,181.6z M122,184.4l-3,1.7c-0.3,0.2-0.8,0.2-1,0l-2.5-1.4c-0.3-0.2-0.3-0.4,0-0.6l3-1.7
			c0.3-0.2,0.8-0.2,1,0l2.5,1.4C122.3,183.9,122.3,184.2,122,184.4z"/>
		
			<radialGradient id="SVGID_5_" cx="223.927" cy="66.955" r="24.123" gradientTransform="matrix(1 0 0 -1 0 204)" gradientUnits="userSpaceOnUse">
			<stop  offset="0" style="stop-color:#FDFCF9"/>
			<stop  offset="1" style="stop-color:#D2D1CE"/>
		</radialGradient>
		<path class="st12" d="M211.5,139.1c-0.3,0.2-0.5,0.3-0.8,0.5c-2.5,1.9-2.5,5,0.2,6.9c5,3.5,11,6.8,11,6.8c1.5,0.8,3.1,1.5,4.7,1.9
			c4,1,7.6,0.6,10.6-1.1c1.9-1.1,2.9-2.6,2.9-4c0-0.3-0.1-0.8-0.4-1.5c-1-2.6-4.9-7.7-10.7-9.9c-2.6-1-5.6-2-8.9-2
			C217.5,136.7,214.6,137.3,211.5,139.1z"/>
		<path class="st13" d="M220.2,139.8l-2-1.1c-0.6-0.3-1.4-0.3-2.2,0.3c-0.5,0.4-0.3,0.6,0.3,0.9l2,0.9c0.6,0.3,1.5,0.4,2.1,0
			S220.8,140.1,220.2,139.8z"/>
		<g>
			<defs>
				<path id="SVGID_6_" d="M216.8,136.5c-1,1.2-1.3,2.3-0.9,3c0,0,2.3,1.4,3.5,1.5c0.4,0,0.8-0.1,0.8-0.2c0.3-0.1,0.5-0.4,0.3-1
					l-0.5-2.5c0,0-1.4-1.2-2.4-1.2C217.3,136.1,217,136.2,216.8,136.5z"/>
			</defs>
			<clipPath id="SVGID_7_">
				<use xlink:href="#SVGID_6_"  style="overflow:visible;"/>
			</clipPath>
			<g id="Mask" class="st14">
				<path class="st5" d="M218.9,138.2c-0.7-0.4-1.3-0.4-1.9-0.1l2.9,4.5C221.2,141.6,220.5,139.2,218.9,138.2z"/>
				<path class="st4" d="M219.8,140.5c-0.4-0.9-1-1.7-1.6-2.1c-0.3-0.2-0.6-0.3-1-0.3c-0.1,0-0.3,0.1-0.4,0.1
					c-0.2,0.1-0.6,0.4-0.8,1.1c-0.5,1.7,1.5,4.6,3.5,3.5C220.1,142.6,220.2,141.6,219.8,140.5z"/>
				<path class="st15" d="M218.4,141c-0.2-0.6-0.6-1-1-1.3c-0.2-0.1-0.4-0.2-0.6-0.2c-0.6,0.1-0.8,0.8-0.4,1.6c0.2,0.6,0.6,1,1,1.3
					c0.2,0.1,0.4,0.2,0.6,0.2C218.5,142.5,218.7,141.8,218.4,141z"/>
				<path class="st16" d="M220,140.3c0-0.1-0.1-0.1-0.1-0.2c-0.2-0.4-0.4-0.8-0.7-1.1c-0.3-0.3-0.6-0.5-0.8-0.7
					c-0.3-0.2-0.7-0.3-0.9-0.2c-0.2,0-0.3,0.1-0.4,0.1l-0.2,0.1c0.1-0.1,0.2-0.1,0.4-0.1c0.3,0,0.6,0.1,1,0.3
					c0.3,0.2,0.6,0.4,0.8,0.7c0.3,0.3,0.6,0.7,0.7,1.1c0,0.1,0.1,0.1,0.1,0.2c0.4,1.1,0.3,2.1-0.3,2.5l0.2-0.1
					C220.3,142.5,220.4,141.5,220,140.3z"/>
			</g>
		</g>
		<path class="st13" d="M237.7,152.7c-3,1.8-6.6,2.1-10.6,1.1c-1.6-0.4-3.2-1.1-4.7-1.9c0,0-6-3.3-11-6.8c-1.5-1.1-2.2-2.5-2.1-3.9
			c-0.8,1.7-0.3,3.8,1.7,5.2c5,3.5,11,6.8,11,6.8c1.5,0.8,3.1,1.5,4.7,1.9c4,1,7.6,0.6,10.6-1.1c1.8-1,2.7-2.4,2.8-3.7
			C239.8,151.2,238.9,152,237.7,152.7z M237.6,153.4c-3,1.8-6.6,2.1-10.6,1.1c-1.7-0.4-3.2-1.1-4.7-1.9c0,0-6-3.3-11-6.8
			c-1.6-1.1-2.3-2.7-2-4.2c-0.6,1.6,0,3.5,1.9,4.8c5,3.5,11,6.8,11,6.8c1.5,0.8,3.1,1.5,4.7,1.9c4,1,7.6,0.6,10.6-1.1
			c1.7-1,2.6-2.2,2.8-3.4C239.8,151.6,238.9,152.6,237.6,153.4z"/>
		<path class="st17" d="M216.3,83.2L99.9,150.5v-72l116.4-67.2V83.2z"/>
		<path class="st18" d="M216.3,83.2L99.9,150.5v-72l116.4-67.2V83.2z"/>
		<path class="st19" d="M101.5,81.7v65.8l84.4-48.7c0-0.1,30.4-17.6,30.4-17.6V15.4L101.5,81.7z"/>
		<path class="st20" d="M216.3,11.5L99.9,78.7v-4.5L216.3,7.1V11.5z M177,104l-77,44.5V93.8l77-44.5V104z"/>
		<path class="st21" d="M177,100.3l-77,44.5v-51l77-44.5V100.3z"/>
		<path class="st22" d="M153.8,83.3l-30.1,17.4c-1.5,0.9-2.8,0.3-2.8-1.3c0-1.6,1.3-3.6,2.8-4.5l30.1-17.4c1.6-0.9,2.8-0.3,2.8,1.3
			C156.6,80.4,155.4,82.4,153.8,83.3z M153.8,93.3l-30.1,17.4c-1.5,0.9-2.8,0.3-2.8-1.3c0-1.6,1.3-3.6,2.8-4.5l30.1-17.4
			c1.6-0.9,2.8-0.3,2.8,1.3C156.6,90.4,155.4,92.4,153.8,93.3z"/>
		<path class="st20" d="M142.6,109.9l-8.6,4.9c-1.6,0.9-2.8,0.3-2.8-1.3c0-1.6,1.3-3.6,2.8-4.5l8.6-4.9c1.6-0.9,2.8-0.3,2.8,1.3
			C145.4,107,144.2,109,142.6,109.9z"/>
		<path class="st23" d="M124.3,107.5c0,0.4-0.3,0.9-0.7,1.1s-0.7,0.1-0.7-0.3c0-0.4,0.3-0.9,0.7-1.1S124.3,107.1,124.3,107.5z
			 M127.2,105.8c0,0.4-0.3,0.9-0.7,1.1c-0.4,0.2-0.7,0.1-0.7-0.3s0.3-0.9,0.7-1.1C126.9,105.3,127.2,105.4,127.2,105.8z M130,104.2
			c0,0.4-0.3,0.9-0.7,1.1c-0.4,0.2-0.7,0.1-0.7-0.3s0.3-0.9,0.7-1.1C129.7,103.7,130,103.8,130,104.2z M132.9,102.6
			c0,0.4-0.3,0.9-0.7,1.1c-0.4,0.2-0.7,0.1-0.7-0.3c0-0.4,0.3-0.9,0.7-1.1C132.5,102,132.9,102.2,132.9,102.6z M135.7,100.9
			c0,0.4-0.3,0.9-0.7,1.1c-0.4,0.2-0.7,0.1-0.7-0.3s0.3-0.9,0.7-1.1S135.7,100.5,135.7,100.9z M138.5,99.3c0,0.4-0.3,0.9-0.7,1.1
			c-0.4,0.2-0.7,0.1-0.7-0.3s0.3-0.9,0.7-1.1C138.2,98.8,138.5,98.9,138.5,99.3z M141.4,97.6c0,0.4-0.3,0.9-0.7,1.1
			c-0.4,0.2-0.7,0.1-0.7-0.3s0.3-0.9,0.7-1.1C141.1,97.1,141.4,97.2,141.4,97.6z M144.2,96c0,0.4-0.3,0.9-0.7,1.1
			c-0.4,0.2-0.7,0.1-0.7-0.3s0.3-0.9,0.7-1.1C143.9,95.5,144.2,95.6,144.2,96z M123.8,96.9v1.7c0,0.4,0.2,0.4,0.5,0.2
			c0.4-0.2,0.6-0.5,0.7-0.8v-1.8l0.3-0.2v1.7l0,0.7l-0.3,0.2l0-0.3c-0.1,0.3-0.4,0.6-0.8,0.8c-0.5,0.3-0.7,0.1-0.7-0.4v-1.7
			L123.8,96.9z M127.3,96.6c0-0.3-0.2-0.3-0.7-0.1c-0.6,0.3-0.8,0.2-0.8-0.2c0-0.4,0.3-0.9,0.9-1.2c0.7-0.4,0.9-0.2,0.9,0.3
			c0,0-0.3,0.2-0.3,0.2c0-0.3-0.1-0.5-0.6-0.2c-0.4,0.2-0.6,0.5-0.6,0.7c0,0.3,0.1,0.3,0.6,0.1c0.6-0.3,0.8-0.3,0.8,0.2
			c0,0.4-0.3,0.9-0.9,1.3c-0.7,0.4-0.9,0.1-0.9-0.2c0,0,0.3-0.2,0.3-0.2c0,0.3,0.1,0.4,0.6,0.2C127.1,97.2,127.3,96.9,127.3,96.6z"
			/>
		<path class="st24" d="M128.5,95.5c0,0.5,0.2,0.7,0.7,0.5c0.5-0.3,0.7-0.7,0.7-0.9l0.3-0.2c0,0.4-0.3,1-1,1.4c-0.7,0.4-1,0-1-0.6
			v-0.1c0-0.7,0.3-1.4,1-1.8c0.7-0.4,1,0,1,0.6v0.2L128.5,95.5z M128.5,95.3l1.4-0.8c0-0.5-0.2-0.7-0.7-0.5
			C128.7,94.3,128.5,94.7,128.5,95.3z M131.7,92.3v0.3c-0.4,0.2-0.6,0.5-0.7,0.8v1.8l-0.3,0.2v-1.7l0-0.7l0.3-0.2l0,0.3
			C131.1,92.8,131.3,92.5,131.7,92.3C131.7,92.3,131.7,92.3,131.7,92.3z M133.5,93.7l-0.3,0.2v-3.6l0.3-0.2V93.7z M135.2,92.8
			l-0.9,0.5v-3.6l0.9-0.5c0.8-0.5,1.3-0.3,1.3,0.9v0.2C136.5,91.5,136,92.3,135.2,92.8z M135.1,92.5c0.7-0.4,1-1,1-2v-0.2
			c0-1-0.4-1.2-1-0.8l-0.6,0.3v3L135.1,92.5z"/>
		<path class="st20" d="M99.9,82.6v12L177,50.2v-12L99.9,82.6z"/>
		<path class="st25" d="M209.2,14.6l-2.5,1.4v-2.5l2.5-1.4V14.6z M212.3,12.8l-2.5,1.4v-2.5l2.5-1.4V12.8z"/>
		<path class="st26" d="M211.9,10.9v1.7l-1.7,1v-1.7L211.9,10.9z M211.6,11.4l-1.1,0.7v1.1l1.1-0.7V11.4z"/>
		<path class="st25" d="M215.4,11l-2.5,1.4V10l2.5-1.4V11z"/>
		<path class="st27" d="M213.4,10.4l0.7,0.3l-0.7,1l0.2,0.1l0.7-1.1l0.7,0.3l0.2-0.3l-0.7-0.3l0.7-1l-0.2-0.1l-0.7,1.1l-0.7-0.3
			L213.4,10.4z M208.8,14.5l-1.6,0.9v-0.3l1.6-0.9V14.5z"/>
		<path class="st20" d="M211.4,64.4L183,80.8v-5.6l28.4-16.4V64.4z"/>
		<path class="st28" d="M184.4,76L210,61.2v2.4l-25.7,14.8V76z"/>
		
			<linearGradient id="SVGID_8_" gradientUnits="userSpaceOnUse" x1="200.4768" y1="127.6209" x2="204.4708" y2="120.7039" gradientTransform="matrix(1 0 0 -1 0 204)">
			<stop  offset="0" style="stop-color:#F8F5F4"/>
			<stop  offset="0.502" style="stop-color:#F8F5F4"/>
			<stop  offset="1" style="stop-color:#E8E5E5"/>
		</linearGradient>
		<path class="st29" d="M187.9,74l7.5,4.3c0.8,0.5,1.6,1.1,2.2,1.9c0.8,0.9,1.5,2,2,3.1c0.6,1.3,0.9,2.6,0.9,3.8l-0.1,20.7
			c0,1.2,0.3,2.4,0.9,3.7c0.5,1.1,1.1,2.1,1.9,3c0.6,0.7,1.4,1.4,2.1,1.8l1.2,0.7c1.3,0.8,2.6,0.9,3.5,0.3l18.3-10.6
			c-0.9,0.5-2.1,0.4-3.5-0.3l-1.2-0.7c-0.8-0.4-1.5-1.1-2.1-1.8c-0.8-0.9-1.4-1.9-1.9-3c-0.5-1.2-0.8-2.5-0.8-3.7l0.1-20.7
			c0-1.2-0.3-2.6-0.9-3.8c-0.5-1.1-1.2-2.2-2-3.1c-0.7-0.8-1.4-1.4-2.2-1.9l-7.5-4.3L187.9,74z"/>
		<g>
			<defs>
				<polygon id="SVGID_9_" points="184.4,76 184.4,78.4 200.1,133.1 251.1,141.6 293.3,113.8 210,61.2 				"/>
			</defs>
			<clipPath id="SVGID_10_">
				<use xlink:href="#SVGID_9_"  style="overflow:visible;"/>
			</clipPath>
			<g class="st30">
				<path class="st31" d="M213.1,99.3c-0.9,0.5-1.4,1.6-1.4,3.1l0,11.9c0,1.6-0.6,2.7-1.5,3.3l18.3-10.6c0.9-0.5,1.5-1.7,1.5-3.3
					l0-11.9c0-1.5,0.6-2.6,1.4-3.1L213.1,99.3z"/>
			</g>
		</g>
		
			<linearGradient id="SVGID_11_" gradientUnits="userSpaceOnUse" x1="222.0903" y1="110.2638" x2="227.9983" y2="100.0298" gradientTransform="matrix(1 0 0 -1 0 204)">
			<stop  offset="0" style="stop-color:#F8F5F4"/>
			<stop  offset="0.502" style="stop-color:#F8F5F4"/>
			<stop  offset="1" style="stop-color:#E8E5E5"/>
		</linearGradient>
		<path class="st32" d="M231.2,88.5L213,99.1c0.9-0.5,2.2-0.5,3.6,0.3c0.8,0.5,1.6,1.1,2.2,1.9c0.8,0.9,1.5,2,2,3.1
			c0.6,1.3,0.9,2.6,0.9,3.8l0,11.9c0,1.2,0.3,2.5,0.9,3.7c0.5,1.1,1.1,2.1,1.9,3c0.7,0.7,1.4,1.3,2.1,1.8l1.2,0.7
			c1.4,0.8,2.6,0.9,3.5,0.3l18.3-10.6c-0.9,0.5-2.1,0.4-3.5-0.3l-1.2-0.7c-0.8-0.4-1.5-1.1-2.1-1.8c-0.8-0.9-1.4-1.9-1.9-3
			c-0.5-1.2-0.8-2.5-0.8-3.7l0-11.9c0-1.2-0.3-2.6-0.9-3.8c-0.5-1.1-1.2-2.2-2-3.1c-0.7-0.8-1.4-1.4-2.2-1.9
			c-0.8-0.5-1.6-0.7-2.3-0.7C232.1,88.1,231.6,88.2,231.2,88.5z"/>
		<g>
			<defs>
				<polygon id="SVGID_12_" points="184.4,76 184.4,78.4 200.1,133.1 251.1,141.6 293.3,113.8 210,61.2 				"/>
			</defs>
			<clipPath id="SVGID_13_">
				<use xlink:href="#SVGID_12_"  style="overflow:visible;"/>
			</clipPath>
			<g class="st33">
				<path class="st31" d="M234.3,121c-0.9,0.5-1.4,1.6-1.4,3.1v2.5c0,1.6-0.6,2.7-1.5,3.3l18.3-10.6c0.9-0.5,1.5-1.7,1.5-3.3v-2.5
					c0-1.5,0.5-2.6,1.4-3.2L234.3,121z"/>
				<path class="st34" d="M256.1,110.5c-1.4-0.8-2.7-0.9-3.6-0.3l-18.3,10.6c0.9-0.5,2.2-0.5,3.6,0.4l11.9,6.8l18.3-10.6
					L256.1,110.5z"/>
				<path class="st35" d="M249.6,127.9l-11.9-6.8c-2.8-1.6-5.1-0.3-5.1,2.9l0,2.5c0,3.1-2.2,4.4-4.9,2.8l-1.2-0.7
					c-2.7-1.6-4.9-5.4-4.9-8.5l0-11.9c0-3.2-2.3-7.2-5.1-8.8c-2.8-1.6-5.1-0.3-5.1,2.9l0,11.9c0,3.1-2.2,4.4-4.9,2.8l-1.2-0.7
					c-2.7-1.6-4.9-5.4-4.9-8.5l0.1-20.7c0-3.2-2.3-7.2-5.1-8.8l-9.1-5.3v0.2l9.1,5.3c2.7,1.6,4.9,5.4,4.9,8.5l-0.1,20.7
					c0,3.2,2.3,7.2,5.1,8.8l1.2,0.7c2.8,1.6,5.1,0.3,5.1-2.9l0-11.9c0-3.1,2.2-4.4,4.9-2.8c2.7,1.6,4.9,5.4,4.9,8.5l0,11.9
					c0,3.2,2.3,7.2,5.1,8.8l1.2,0.7c2.8,1.6,5.1,0.3,5.1-2.9v-2.5c0-3.1,2.2-4.4,4.9-2.8l11.9,6.8l18.3-10.6v-0.2L249.6,127.9z"/>
			</g>
		</g>
		<path class="st20" d="M211.5,41.6L183,58v-5.6L211.5,36V41.6z"/>
		<path class="st28" d="M184.4,53.2l25.7-14.8v2.4l-25.7,14.8V53.2z"/>
		
			<linearGradient id="SVGID_14_" gradientUnits="userSpaceOnUse" x1="182.856" y1="148.1165" x2="239.054" y2="148.1165" gradientTransform="matrix(1 0 0 -1 0 204)">
			<stop  offset="0" style="stop-color:#AE5B27"/>
			<stop  offset="1" style="stop-color:#BE642D"/>
		</linearGradient>
		<path class="st36" d="M184.6,53.1L216,71.3c0.9,0.5,2.3,0.6,3.1,0.1l19.4-11.2c0.4-0.2,0.6-0.5,0.5-0.9c0-0.2,0-0.3-0.1-0.6
			c0-0.3-0.3-0.7-0.8-0.9l-31-17.9L184.6,53.1z"/>
		
			<linearGradient id="SVGID_15_" gradientUnits="userSpaceOnUse" x1="183.2711" y1="156.1651" x2="231.0442" y2="143.3451" gradientTransform="matrix(1 0 0 -1 0 204)">
			<stop  offset="0" style="stop-color:#E77731"/>
			<stop  offset="0.478" style="stop-color:#F27C35"/>
			<stop  offset="0.803" style="stop-color:#FFB338"/>
			<stop  offset="0.813" style="stop-color:#F68D36"/>
			<stop  offset="1" style="stop-color:#F68D36"/>
		</linearGradient>
		<path class="st37" d="M185,52.9l31,17.9c0.9,0.5,2.3,0.6,3.1,0.1l19.4-11.2c0.8-0.5,0.7-1.3-0.2-1.8l-31-17.9L185,52.9z"/>
		<g>
			<defs>
				<polygon id="SVGID_16_" points="184.4,53.2 184.4,55.6 219.8,76 245.4,61.2 210.1,38.4 				"/>
			</defs>
			<clipPath id="SVGID_17_">
				<use xlink:href="#SVGID_16_"  style="overflow:visible;"/>
			</clipPath>
			<g class="st38">
				<path class="st39" d="M234.9,58.3c0.3,0.2,0.4,0.4,0.5,0.6c0,0.2-0.1,0.4-0.3,0.5l-1.3,0.7c-0.5,0.3-1.4,0.2-2-0.1l-4.6-2.7
					c-0.3-0.2-0.4-0.4-0.5-0.6c0-0.2,0.1-0.4,0.3-0.6l1.3-0.7c0.5-0.3,1.4-0.3,2,0.1L234.9,58.3z"/>
			</g>
		</g>
		
			<linearGradient id="SVGID_18_" gradientUnits="userSpaceOnUse" x1="186.309" y1="152.071" x2="196.567" y2="152.071" gradientTransform="matrix(1 0 0 -1 0 204)">
			<stop  offset="0" style="stop-color:#AE5B27"/>
			<stop  offset="1" style="stop-color:#BE642D"/>
		</linearGradient>
		<path class="st40" d="M187.1,51.7l4.7,2.7c0.6,0.3,1.4,0.4,1.9,0.1l2.5-1.4c0.2-0.1,0.4-0.3,0.3-0.6c0-0.2-0.2-0.4-0.5-0.6
			l-4.7-2.7L187.1,51.7z"/>
		<g>
			<defs>
				<polygon id="SVGID_19_" points="184.4,53.2 184.4,55.6 219.8,76 245.4,61.2 210.1,38.4 				"/>
			</defs>
			<clipPath id="SVGID_20_">
				<use xlink:href="#SVGID_19_"  style="overflow:visible;"/>
			</clipPath>
			<g class="st41">
				<path class="st42" d="M187,51.5l5.1,2.9c0.5,0.3,1.2,0.3,1.6,0.1l2.5-1.4c0.4-0.2,0.4-0.7-0.1-0.9l-5.1-2.9
					c-0.5-0.3-1.2-0.3-1.6-0.1l-2.5,1.4C186.4,50.8,186.5,51.2,187,51.5z"/>
				<path class="st43" d="M189.7,49.8l1.6,0.9c0.5-0.2,1.3-0.2,1.8,0.2c0.5,0.3,0.6,0.7,0.2,1l1.7,1l1.1-0.6c0,0,0.1,0.1,0.1,0.1
					l-3.9,2.2c-0.1,0-0.1,0-0.2-0.1l1-0.6l-1.7-1c-0.5,0.2-1.2,0.1-1.8-0.2c-0.5-0.3-0.6-0.7-0.3-1l-1.6-0.9l-1,0.5
					c0,0-0.1-0.1-0.1-0.1l3.8-2.2c0.1,0,0.1,0,0.2,0.1L189.7,49.8z M189.6,51.8c0,0,1.8,1,1.8,1l1.6-0.9l-1.8-1
					C191.3,50.8,189.7,51.8,189.6,51.8z M191.4,50.8l1.7,1c0.3-0.2,0.2-0.6-0.2-0.9C192.5,50.7,191.9,50.6,191.4,50.8z M191.3,52.9
					l-1.7-1c-0.3,0.2-0.2,0.6,0.3,0.9C190.2,53,190.8,53,191.3,52.9z M191.6,52.9l1.7,1l1.6-1l-1.7-1L191.6,52.9
					C191.6,52.9,191.6,52.9,191.6,52.9z M189.6,49.8l-1.6,1c0,0,1.6,0.9,1.6,0.9l1.6-0.9L189.6,49.8z"/>
				<path class="st44" d="M216,66.6c-0.8,0.5-2.1,0.5-2.9,0c-0.8-0.5-0.8-1.2,0-1.7s2.1-0.5,2.9,0C216.8,65.4,216.8,66.1,216,66.6z"
					/>
				<path class="st45" d="M219.3,68.5c-0.8,0.5-2.1,0.5-2.9,0c-0.8-0.5-0.8-1.2,0-1.7c0.8-0.5,2.1-0.5,2.9,0
					C220.1,67.3,220.1,68.1,219.3,68.5z"/>
				<path class="st46" d="M227.5,62.7l0.3,0.2c0.1,0.1,0.2,0.2,0.2,0.3c0,0.1-0.1,0.2-0.2,0.3l-1.1,0.6c-0.2,0.1-0.3,0.1-0.5,0.1
					c-0.2,0-0.3,0-0.5-0.1l-0.3-0.2c-0.1-0.1-0.2-0.2-0.2-0.3c0-0.1,0.1-0.2,0.2-0.3l1.1-0.6c0.1-0.1,0.3-0.1,0.5-0.1
					C227.2,62.6,227.3,62.6,227.5,62.7z M225.7,63.5c-0.2,0.1-0.2,0.2,0,0.3l0.2,0.2c0.2,0.1,0.3,0.1,0.5,0l1.1-0.6
					c0.2-0.1,0.2-0.2,0-0.3l-0.2-0.1c-0.2-0.1-0.3-0.1-0.5,0L225.7,63.5z"/>
				<path class="st46" d="M225.9,61.8l0.3,0.2c0.1,0.1,0.2,0.2,0.2,0.3c0,0.1-0.1,0.2-0.2,0.3l-1.1,0.6c-0.1,0.1-0.3,0.1-0.5,0.1
					s-0.3,0-0.4-0.1l-0.3-0.2c-0.1-0.1-0.2-0.2-0.2-0.3s0.1-0.2,0.2-0.3l1.1-0.6c0.1-0.1,0.3-0.1,0.5-0.1
					C225.6,61.7,225.8,61.7,225.9,61.8z M224.1,62.5c-0.2,0.1-0.2,0.2,0,0.3l0.3,0.2c0.2,0.1,0.3,0.1,0.5,0l1.1-0.6
					c0.2-0.1,0.2-0.2,0-0.3l-0.3-0.2c-0.2-0.1-0.4-0.1-0.5,0L224.1,62.5z"/>
				<path class="st46" d="M224.3,60.9l0.3,0.2c0.1,0.1,0.2,0.2,0.2,0.3c0,0.1-0.1,0.2-0.2,0.3l-1.1,0.6c-0.1,0.1-0.3,0.1-0.5,0.1
					c-0.2,0-0.3,0-0.5-0.1l-0.3-0.2c-0.1-0.1-0.2-0.2-0.2-0.3c0-0.1,0.1-0.2,0.2-0.3l1.1-0.6c0.1-0.1,0.3-0.1,0.5-0.1
					C224,60.8,224.2,60.8,224.3,60.9z M222.6,61.6c-0.2,0.1-0.2,0.2,0,0.3l0.2,0.2c0.2,0.1,0.4,0.1,0.5,0l1.1-0.6
					c0.2-0.1,0.2-0.2,0-0.3l-0.2-0.2c-0.2-0.1-0.4-0.1-0.5,0L222.6,61.6z"/>
				<path class="st46" d="M222.7,60l0.3,0.2c0.1,0.1,0.2,0.2,0.2,0.3c0,0.1-0.1,0.2-0.2,0.3l-1.1,0.6c-0.2,0.1-0.3,0.1-0.5,0.1
					c-0.2,0-0.3,0-0.5-0.1l-0.3-0.2c-0.1-0.1-0.2-0.2-0.2-0.3c0-0.1,0.1-0.2,0.2-0.3l1.1-0.6c0.1-0.1,0.3-0.1,0.5-0.1
					C222.4,59.8,222.6,59.9,222.7,60z M221,60.7c-0.2,0.1-0.2,0.2,0,0.3l0.3,0.2c0.2,0.1,0.3,0.1,0.5,0l1.1-0.6
					c0.2-0.1,0.2-0.2,0-0.3l-0.3-0.2c-0.2-0.1-0.4-0.1-0.5,0L221,60.7z M218.9,57.7l0.3,0.2c0.1,0.1,0.2,0.2,0.2,0.3
					c0,0.1-0.1,0.2-0.2,0.3l-1.1,0.6c-0.2,0.1-0.3,0.1-0.5,0.1c-0.2,0-0.3,0-0.5-0.1l-0.3-0.2c-0.1-0.1-0.2-0.2-0.2-0.3
					c0-0.1,0.1-0.2,0.2-0.3l1.1-0.6c0.1-0.1,0.3-0.1,0.5-0.1S218.7,57.7,218.9,57.7z M217.1,58.5c-0.2,0.1-0.2,0.2,0,0.3l0.2,0.1
					c0.2,0.1,0.3,0.1,0.5,0l1.1-0.6c0.2-0.1,0.2-0.2,0-0.3l-0.2-0.1c-0.2-0.1-0.4-0.1-0.5,0L217.1,58.5z"/>
				<path class="st46" d="M217.3,56.8l0.3,0.2c0.1,0.1,0.2,0.2,0.2,0.3c0,0.1-0.1,0.2-0.2,0.3l-1.1,0.6c-0.1,0.1-0.3,0.1-0.5,0.1
					s-0.3,0-0.4-0.1l-0.3-0.2c-0.1-0.1-0.2-0.2-0.2-0.3s0.1-0.2,0.2-0.3l1.1-0.6c0.1-0.1,0.3-0.1,0.5-0.1
					C217,56.7,217.1,56.7,217.3,56.8z M215.5,57.6c-0.2,0.1-0.2,0.2,0,0.3l0.3,0.2c0.2,0.1,0.3,0.1,0.5,0l1.1-0.6
					c0.2-0.1,0.2-0.2,0-0.3l-0.3-0.1c-0.2-0.1-0.4-0.1-0.5,0L215.5,57.6z"/>
				<path class="st46" d="M215.7,55.9l0.3,0.2c0.1,0.1,0.2,0.2,0.2,0.3c0,0.1-0.1,0.2-0.2,0.3l-1.1,0.6c-0.1,0.1-0.3,0.1-0.5,0.1
					c-0.2,0-0.3,0-0.5-0.1l-0.3-0.2c-0.1-0.1-0.2-0.2-0.2-0.3c0-0.1,0.1-0.2,0.2-0.3l1.1-0.6c0.1-0.1,0.3-0.1,0.5-0.1
					C215.4,55.8,215.6,55.8,215.7,55.9z M213.9,56.7c-0.2,0.1-0.2,0.2,0,0.3l0.2,0.2c0.2,0.1,0.4,0.1,0.5,0l1.1-0.6
					c0.2-0.1,0.2-0.2,0-0.3l-0.2-0.2c-0.2-0.1-0.4-0.1-0.5,0L213.9,56.7z"/>
				<path class="st46" d="M214.1,55l0.3,0.2c0.1,0.1,0.2,0.2,0.2,0.3c0,0.1-0.1,0.2-0.2,0.3l-1.1,0.6c-0.1,0.1-0.3,0.1-0.5,0.1
					c-0.2,0-0.3,0-0.5-0.1l-0.3-0.2c-0.1-0.1-0.2-0.2-0.2-0.3c0-0.1,0.1-0.2,0.2-0.3l1.1-0.6c0.1-0.1,0.3-0.1,0.5-0.1
					C213.8,54.9,214,54.9,214.1,55z M212.4,55.7c-0.2,0.1-0.2,0.2,0,0.3l0.3,0.1c0.2,0.1,0.3,0.1,0.5,0l1.1-0.6
					c0.2-0.1,0.2-0.2,0-0.3l-0.3-0.2c-0.2-0.1-0.4-0.1-0.5,0L212.4,55.7z M210.2,52.8l0.3,0.2c0.2,0.1,0.2,0.2,0.2,0.3
					c0,0.1-0.1,0.2-0.2,0.3l-1.1,0.6c-0.1,0.1-0.3,0.1-0.5,0.1c-0.2,0-0.3-0.1-0.4-0.1l-0.3-0.2c-0.1-0.1-0.2-0.2-0.2-0.3
					s0.1-0.2,0.2-0.3l1.1-0.6c0.1-0.1,0.3-0.1,0.5-0.1C210,52.6,210.1,52.7,210.2,52.8z M208.5,53.5c-0.2,0.1-0.2,0.2,0,0.3l0.3,0.1
					c0.2,0.1,0.3,0.1,0.5,0l1.1-0.6c0.2-0.1,0.2-0.2,0-0.3l-0.3-0.2c-0.2-0.1-0.4-0.1-0.5,0L208.5,53.5z"/>
				<path class="st46" d="M208.7,51.8L209,52c0.1,0.1,0.2,0.2,0.2,0.3c0,0.1-0.1,0.2-0.2,0.3l-1.1,0.6c-0.1,0.1-0.3,0.1-0.5,0.1
					c-0.2,0-0.3,0-0.5-0.1l-0.3-0.2c-0.1-0.1-0.2-0.2-0.2-0.3c0-0.1,0.1-0.2,0.2-0.3l1.1-0.6c0.1-0.1,0.3-0.1,0.5-0.1
					C208.4,51.7,208.5,51.8,208.7,51.8z M206.9,52.6c-0.2,0.1-0.2,0.2,0,0.3l0.2,0.1c0.2,0.1,0.4,0.1,0.5,0l1.1-0.6
					c0.2-0.1,0.2-0.2,0-0.3l-0.2-0.1c-0.2-0.1-0.4-0.1-0.5,0L206.9,52.6z"/>
				<path class="st46" d="M207.1,50.9l0.3,0.2c0.1,0.1,0.2,0.2,0.2,0.3c0,0.1-0.1,0.2-0.2,0.3l-1.1,0.6c-0.2,0.1-0.3,0.1-0.5,0.1
					c-0.2,0-0.3,0-0.5-0.1l-0.3-0.2c-0.1-0.1-0.2-0.2-0.2-0.3c0-0.1,0.1-0.2,0.2-0.3l1.1-0.6c0.1-0.1,0.3-0.1,0.5-0.1
					C206.8,50.8,206.9,50.8,207.1,50.9z M205.3,51.7c-0.2,0.1-0.2,0.2,0,0.3l0.3,0.2c0.2,0.1,0.3,0.1,0.5,0l1.1-0.6
					c0.2-0.1,0.2-0.2,0-0.3l-0.3-0.1c-0.2-0.1-0.4-0.1-0.5,0L205.3,51.7z"/>
				<path class="st46" d="M205.5,50l0.3,0.2c0.1,0.1,0.2,0.2,0.2,0.3c0,0.1-0.1,0.2-0.2,0.3l-1.1,0.6c-0.1,0.1-0.3,0.1-0.5,0.1
					c-0.2,0-0.3,0-0.5-0.1l-0.3-0.2c-0.1-0.1-0.2-0.2-0.2-0.3c0-0.1,0.1-0.2,0.2-0.3l1.1-0.6c0.1-0.1,0.3-0.1,0.4-0.1
					C205.2,49.9,205.4,49.9,205.5,50z M203.7,50.8c-0.2,0.1-0.2,0.2,0,0.3l0.2,0.2c0.2,0.1,0.4,0.1,0.5,0l1.1-0.6
					c0.2-0.1,0.2-0.2,0-0.3l-0.3-0.1c-0.2-0.1-0.4-0.1-0.5,0L203.7,50.8z M201.6,47.8l0.3,0.2c0.2,0.1,0.2,0.2,0.2,0.3
					s-0.1,0.2-0.2,0.3l-1.1,0.6c-0.1,0.1-0.3,0.1-0.5,0.1s-0.3,0-0.4-0.1l-0.3-0.2c-0.1-0.1-0.2-0.2-0.2-0.3c0-0.1,0.1-0.2,0.2-0.3
					l1.1-0.6c0.1-0.1,0.3-0.1,0.5-0.1C201.4,47.7,201.5,47.7,201.6,47.8z M199.9,48.5c-0.2,0.1-0.2,0.2,0,0.3l0.3,0.2
					c0.2,0.1,0.3,0.1,0.5,0l1.1-0.6c0.2-0.1,0.2-0.2,0-0.3l-0.3-0.2c-0.2-0.1-0.4-0.1-0.5,0L199.9,48.5z"/>
				<path class="st46" d="M200.1,46.9l0.3,0.2c0.1,0.1,0.2,0.2,0.2,0.3c0,0.1-0.1,0.2-0.2,0.3l-1.1,0.6c-0.1,0.1-0.3,0.1-0.5,0.1
					c-0.2,0-0.3,0-0.5-0.1l-0.3-0.2c-0.1-0.1-0.2-0.2-0.2-0.3c0-0.1,0.1-0.2,0.2-0.3l1.1-0.6c0.1-0.1,0.3-0.1,0.5-0.1
					C199.8,46.8,199.9,46.8,200.1,46.9z M198.3,47.6c-0.2,0.1-0.2,0.2,0,0.3l0.2,0.2c0.2,0.1,0.4,0.1,0.5,0l1.1-0.6
					c0.2-0.1,0.2-0.2,0-0.3l-0.2-0.2c-0.2-0.1-0.4-0.1-0.5,0L198.3,47.6z"/>
				<path class="st46" d="M198.5,46l0.3,0.2c0.1,0.1,0.2,0.2,0.2,0.3c0,0.1-0.1,0.2-0.2,0.3l-1.1,0.6c-0.1,0.1-0.3,0.1-0.5,0.1
					c-0.2,0-0.3,0-0.5-0.1l-0.3-0.2c-0.1-0.1-0.2-0.2-0.2-0.3c0-0.1,0.1-0.2,0.2-0.3l1.1-0.6c0.1-0.1,0.3-0.1,0.5-0.1
					C198.2,45.8,198.3,45.9,198.5,46z M196.7,46.7c-0.2,0.1-0.2,0.2,0,0.3l0.3,0.2c0.2,0.1,0.3,0.1,0.5,0l1.1-0.6
					c0.2-0.1,0.2-0.2,0-0.3l-0.3-0.2c-0.2-0.1-0.4-0.1-0.5,0L196.7,46.7z"/>
				<path class="st46" d="M196.4,44.9c0.2,0,0.3,0,0.5,0.1l0.3,0.2c0.1,0.1,0.2,0.2,0.2,0.3c0,0.1-0.1,0.2-0.2,0.3l-1.1,0.6
					c-0.1,0.1-0.3,0.1-0.5,0.1s-0.3,0-0.5-0.1l-0.3-0.2c-0.1-0.1-0.2-0.2-0.2-0.3c0-0.1,0.1-0.2,0.2-0.3L196,45
					C196.1,45,196.3,44.9,196.4,44.9z M195.1,45.8c-0.2,0.1-0.2,0.2,0,0.3l0.3,0.2c0.2,0.1,0.3,0.1,0.5,0l1.1-0.6
					c0.2-0.1,0.2-0.2,0-0.3l-0.3-0.2c-0.2-0.1-0.4-0.1-0.5,0L195.1,45.8z M202.3,41.4l1.6-0.9c0.1,0,0.7,0.4,0.7,0.4
					c0.1,0.1,0.2,0.1,0.2,0.2c0,0.1-0.1,0.2-0.2,0.2l-0.8,0.5c-0.1,0.1-0.3,0.1-0.4,0.1s-0.3,0-0.4-0.1L202.3,41.4
					C202.3,41.4,202.3,41.4,202.3,41.4z M202.7,41.5l0.4,0.2c0.1,0.1,0.2,0.1,0.4,0l0.8-0.5c0.1-0.1,0.1-0.1,0-0.2l-0.4-0.2
					C203.9,40.8,202.7,41.4,202.7,41.5C202.7,41.4,202.7,41.4,202.7,41.5z M204.5,42.7l-0.8-0.5c0,0,1.6-0.9,1.6-0.9
					c0.1,0,0.9,0.5,0.9,0.5c0,0.1-0.1,0.1-0.1,0.1c-0.1,0-0.7-0.3-0.7-0.3c-0.1,0-0.5,0.2-0.5,0.2c0,0,0.5,0.3,0.5,0.3
					c0,0-0.1,0.1-0.1,0.1c-0.1,0-0.6-0.3-0.6-0.3c-0.1,0-0.5,0.2-0.5,0.2c0,0,0.6,0.4,0.6,0.4C204.7,42.7,204.6,42.7,204.5,42.7
					C204.6,42.7,204.5,42.7,204.5,42.7z"/>
				<path class="st46" d="M204.9,42.9l1.6-0.9c0.1,0,0.7,0.3,0.7,0.3c0.1,0.1,0.2,0.1,0.2,0.2c0,0.1-0.1,0.2-0.2,0.2l-0.1,0.1
					c-0.1,0.1-0.3,0.1-0.5,0c0.1,0,0.1,0.1,0.1,0.2c0,0-0.1,0.1-0.1,0.1l-0.2,0.1c-0.1,0.1-0.2,0.1-0.4,0.1s-0.3,0-0.4-0.1
					L204.9,42.9C204.9,42.9,204.9,42.9,204.9,42.9z M206.1,42.5l0.3,0.2c0.1,0.1,0.3,0.1,0.4,0l0.1-0.1c0.1-0.1,0.1-0.1,0-0.2
					l-0.3-0.2C206.5,42.3,206.1,42.5,206.1,42.5C206.1,42.5,206.1,42.5,206.1,42.5z M205.4,43l0.4,0.2c0.1,0.1,0.2,0.1,0.4,0
					l0.2-0.1c0.1-0.1,0.1-0.1,0-0.2l-0.4-0.2C205.8,42.7,205.4,42.9,205.4,43C205.4,43,205.4,43,205.4,43z M208.1,43l-1.6,0.9
					c-0.1,0-0.2-0.1-0.2-0.1c0,0,1.5-0.9,1.5-0.9C208,42.8,208.1,42.9,208.1,43C208.2,42.9,208.2,43,208.1,43z M207.4,44.4l-0.2-0.1
					c0,0,1.3-0.8,1.3-0.8c0,0-0.3-0.2-0.3-0.2c0-0.1,0.1-0.1,0.1-0.1c0.1,0,1,0.5,1,0.5c0,0-0.1,0.1-0.1,0.1c-0.1,0-0.4-0.2-0.4-0.2
					C208.8,43.6,207.5,44.4,207.4,44.4C207.4,44.4,207.4,44.4,207.4,44.4z M209.3,45.5l-0.3-0.2c-0.1-0.1-0.2-0.2-0.2-0.2
					c0-0.1,0.1-0.2,0.2-0.2l0.8-0.5c0.1-0.1,0.3-0.1,0.4-0.1s0.3,0,0.4,0.1l0.3,0.2c0.1,0.1,0.2,0.1,0.2,0.2c0,0.1-0.1,0.2-0.2,0.2
					l-0.1,0.1c-0.1,0-0.3-0.1-0.3-0.1c0-0.1,0.1-0.1,0.1-0.1c0.1-0.1,0.1-0.1,0-0.2l-0.2-0.1c-0.1-0.1-0.2-0.1-0.4,0l-0.8,0.5
					c-0.1,0.1-0.1,0.1,0,0.2l0.2,0.1c0.1,0.1,0.2,0.1,0.4,0l0.1-0.1c0.1,0,0.2,0.1,0.2,0.1c0,0.1-0.1,0.1-0.1,0.1
					c-0.1,0.1-0.2,0.1-0.4,0.1S209.4,45.6,209.3,45.5z"/>
				<path class="st46" d="M210.1,46l-0.2-0.1c0,0,2-0.7,2-0.7c0,0,0.1,0,0.1,0l0.2,0.2c0,0.1-1.1,1.2-1.1,1.2
					c-0.1,0-0.2-0.1-0.2-0.1c0,0,0.2-0.3,0.2-0.3l-0.6-0.3L210.1,46C210.1,46,210.1,46,210.1,46z M211.9,45.4l-1,0.3l0.5,0.3
					L211.9,45.4L211.9,45.4z"/>
				<path class="st46" d="M211.6,46.8l-0.2-0.1c0-0.1,1.6-0.9,1.6-0.9c0.1,0,0.7,0.3,0.7,0.3c0.1,0.1,0.2,0.2,0.2,0.2
					c0,0.1-0.1,0.2-0.2,0.2l-0.2,0.1c-0.2,0.1-0.4,0.1-0.6,0.1c0,0-0.3,0.5-0.3,0.5c-0.1,0-0.2-0.1-0.2-0.1c0-0.1,0.3-0.6,0.3-0.6
					l-0.3-0.1C212.2,46.5,211.7,46.8,211.6,46.8C211.7,46.8,211.6,46.8,211.6,46.8z M212.5,46.4l0.3,0.2c0.1,0.1,0.2,0.1,0.4,0
					l0.2-0.1c0.1-0.1,0.1-0.1,0-0.2l-0.3-0.2C213,46,212.5,46.3,212.5,46.4C212.5,46.4,212.5,46.4,212.5,46.4z"/>
				<path class="st46" d="M212.8,47.5l1.5-0.9c0.1,0,0.7,0.4,0.7,0.4c0.1,0.1,0.2,0.1,0.2,0.2c0,0.1-0.1,0.2-0.2,0.2l-0.9,0.5
					c-0.1,0.1-0.2,0.1-0.4,0.1s-0.3,0-0.4-0.1L212.8,47.5C212.8,47.5,212.8,47.5,212.8,47.5z M213.3,47.5l0.4,0.2
					c0.1,0.1,0.2,0.1,0.4,0l0.8-0.5c0.1-0.1,0.1-0.1,0-0.2l-0.4-0.2C214.4,46.8,213.3,47.5,213.3,47.5
					C213.2,47.5,213.2,47.5,213.3,47.5z"/>
			</g>
		</g>
	</g>
</g>
</svg>
