<?xml version="1.0" encoding="utf-8"?>
<!-- Generator: Adobe Illustrator 23.0.4, SVG Export Plug-In . SVG Version: 6.00 Build 0)  -->
<svg version="1.1" id="Слой_1" xmlns="http://www.w3.org/2000/svg" xmlns:xlink="http://www.w3.org/1999/xlink" x="0px" y="0px"
	 viewBox="0 0 76 123" style="enable-background:new 0 0 76 123;" xml:space="preserve">
<style type="text/css">
	.st0{fill:#4C8CD8;}
	.st1{fill:#C7EFFF;}
	.st2{fill:#1B1D1E;}
	.st3{fill:#1D2C66;}
	.st4{fill:#E1F8FF;}
	.st5{fill:#F3A984;}
	.st6{fill:#FCBE9F;}
	.st7{fill:#724A2F;}
	.st8{fill:#F8F5F4;}
	.st9{fill:#B0B5B0;}
	.st10{fill:#E9E6E6;}
	.st11{fill:#2A4C96;}
	.st12{fill-rule:evenodd;clip-rule:evenodd;fill:#373431;}
	.st13{fill:#BDB6C6;}
	.st14{fill-rule:evenodd;clip-rule:evenodd;fill:#2D6AD8;}
</style>
<g>
	<g>
		<path class="st0" d="M76,100.4c-0.9-3.4-15-8.5-15-8.5C29.5,75.5,34.4,78.5,27.8,73c-3.7-0.4-7.4-0.9-11.1-1.3
			c-1.9-0.2-1.9-1.1-3.8-0.7c-2.6,0.5-9.8,3.2-8.5,10.9c0.7,3.9,8.7,10.8,15.9,17.8C26.8,106,32,112.7,32,112.7s1.1,2.2,2.1,3.9
			c1.2,2.1,2.3,3.8,5.6,5.5c3.5,1.8,7.8,0,7.3-2.4c-0.8-3.8-12.7-15.2-12.7-15.2L28,88.5l28.3,9.4c0,0,5.4,2.9,6.9,3.7
			c1,0.5,3.6,2,7.5,2C74.7,103.6,76.2,101.2,76,100.4z"/>
		<path class="st1" d="M41.1,58.5c-0.2-0.9-6.7-17.3-6.7-17.3S32.7,26.9,29.8,22c-1.8-3-5.2-2.6-6.8-0.3c-2.9,4.4,2,19.4,3.8,23.6
			c0.9,2.2,8.7,14.9,9.8,16C37.6,62.3,41.6,60.8,41.1,58.5z"/>
		<path class="st2" d="M58.1,97.3c-1.9-1.3-0.8-4.3-0.7-6.7c0-0.2,7.9,2.1,7.9,2.1s2,1.5,4.4,2.8c3.6,1.8,7.7,3.7,4.8,5.5
			c-2.4,1.5-6,1.2-8.4,0.2C64.1,100.4,58.8,97.8,58.1,97.3z M33.9,111.7c-0.4-1.5-0.7-3.1-0.8-4.2c-0.1-1.1,7.6-2.5,7.8-1
			c0.1,0.9,0.7,1.2,0.9,2c0.8,2.4,6.9,7.4,4.4,11.2c-0.3,0.4-0.6,0.7-1,0.8C39.4,123.1,34.5,114,33.9,111.7z"/>
		<path class="st3" d="M52.8,65.7l-21.6-2c0,0-1.8-3.2-1.8-3.7L6,68.8c0,0-1.1,10.1,1.5,15.1c0.6,1.1,1.6,2,2.8,2.5
			c4.4,1.8,13.7,5.3,13.7,5.3l8.9,18.6c1.7,3,10,0.5,9.2-2.7l-5.5-20.7c-0.2-0.9-0.3-1.6-1.2-2.7l-3.4-4.5L46.5,79l10.4,16.2
			c0.9,2.2,9.9,0.1,8.7-3.2c-0.1-0.1-6.8-17.2-9.3-23.7C55.7,66.8,54.3,65.8,52.8,65.7z"/>
		<path class="st1" d="M31.2,63.6c-0.3-3.7-0.2-10.1-0.3-14.7C30.7,45,30.8,36,30.8,32.2c-0.1-8.2-1.6-9.8-4.7-11.9
			c-0.4-0.3-2-0.1-4.2,0.5c-0.5-0.3-1.1-0.5-1.9-0.5c-1.6,0-3,0.5-4.2,1.4c-0.6,0.5-1.3,0.7-2,1c-0.8,0.4-1.4,0.9-2.1,1.4
			c-0.2,0.2-0.4,0.4-0.5,0.7c-3.6,1.7-6.8,3.6-7.9,5.3c-5.1,7.4,3.5,21.5,2.7,39.3C18.2,75.2,30.6,67.8,31.2,63.6z"/>
		<path class="st3" d="M22.6,30.8c0.4-0.8,0.7-2,0.6-3c-0.1-0.8,0-1.7-0.8-1.4c-0.8,0.3-2.2,0.9-2.8,1.4c-0.8,0.7-0.6,1.4-0.5,2.2
			C19.4,31.6,21.9,32.4,22.6,30.8z M22.4,30.2l-1.6,0.9l-0.3,26.3c0,0.5,0.1,1,0.4,1.5l2.2,3.6c0.1,0.2,0.5,0.2,0.5-0.1l1.6-6.8
			c0.1-0.3,0.1-0.7,0.1-1L22.4,30.2z"/>
		<path class="st4" d="M22.5,23.3c0-0.1,0-0.2-0.1-0.3c-0.1-0.3-0.9-1.6-0.9-1.9c0-0.4,1.1-0.2,2,1.1c0.6,0.9,2.8,6.3,2.8,6.3
			s-5.2-1.7-5.3-1.8c-0.1-0.3,1.5-1.6,1.5-2C22.6,24.2,22.6,23.8,22.5,23.3z"/>
		<path class="st5" d="M12.1,17.6c0.5-0.8,1.9-0.5,2.8-0.5c1.4,0,2.8,0,4.1,0c0.3,0,2,0,2.1,0.5c0.2,0.9,1.3,2.7,1.4,3.6
			c0.6,2.9,0.3,4.8-1.5,5.5l-1.2,0.8c-4,2.8-6.9-1.4-7.6-1.8c0.3-3.2-0.5-6.4-0.3-7.6C11.9,17.9,12,17.7,12.1,17.6z"/>
		<path class="st4" d="M21.1,26.7L17,32.5c-2.9-1.1-3.9-2.3-5.2-3.7c-1.2-1.2-1.8-3.2-1.4-4c0.9-1.7,1.8-2.1,1.8-2.2
			c0,4.6,2.6,4.3,4,4.5C17.3,27.3,20.1,27.2,21.1,26.7z"/>
		<path class="st6" d="M23.9,21.4c-0.3,1.4-0.7,3.3-2,3.6c-2.5,0.5-7.8-0.8-8.5-2.7c-1.1-3.1-2.2-6.3-0.8-10.3
			c0.6-1.6,1.6-3.2,3-4.4c1-0.9,2.2-1.4,3.3-1.9c3.4-1.5,6.2-1.3,6.4,2.2c0.1,1.7,0.2,3.4,0.1,5.1C25,18.4,24.3,19.3,23.9,21.4z"/>
		<path class="st7" d="M21.6,0.7c0.6,0,0.9,0.7,2,0.8c0.7,0,1,0.6,1.7,1.6c0.3,0.5,0.3,1.1,0.5,1.6c0.2,0.4,0.4,0.4,0.6,1
			c0.1,0.4,0.1,1.5,0.1,1.8c0.1,0.9,0.5,0.9,0.3,1.9c-0.3,1.3-0.7,2.5-1.3,3.7c0-2,0-3.9-0.2-4.5c-0.3-0.7-1.1-0.7-1.7-0.9
			c-0.7-0.2-1,0.2-1.7,0.3c-1.1,0.2-3.3,0.7-4.3,1.6c-2,1.9-1.8,4.1-2.2,5.4c-0.1,0.2-0.4,0.3-0.5,0.1c-0.4-0.7-1.4-1.4-2.3-0.5
			c-0.9,0.9-0.6,2.4-0.2,3.8c0.3,1.2,0.6,2.6,0.6,2.6c-1.1-0.3-2.4-1.4-3.1-2.9c-0.2-0.5-0.2-0.9-0.4-1.4c-0.1-0.3-0.3-0.5-0.3-0.8
			c-0.1-0.2,0-0.5-0.1-0.7c-0.1-0.4-0.4-0.6-0.5-0.9c-0.1-0.2,0-0.4-0.1-0.6c-0.1-0.2-0.4-0.3-0.5-0.5c-0.2-0.3,0-2.2-0.1-2.6
			c-0.3-1-0.5-1.6-0.1-2.6C8,7.5,8,6.8,8.2,6.1C8.4,5.3,9,5.8,9.2,5c0.2-0.7,0.4-1.2,1-1.7c1.1-1,2.2-2.6,3.6-2.5
			c1.1,0.1,2.1-0.6,3.2-0.6C18.5,0.3,20,0.8,21.6,0.7z"/>
		<path class="st8" d="M42.7,61.9L19.5,75.3l14.8,8.6l23.1-13.4L42.7,61.9z"/>
		<path class="st9" d="M34.6,83.3l23.1-13.4c0.1-0.1,0.2,0,0.4,0L35,83.3C34.8,83.2,34.7,83.2,34.6,83.3z"/>
		<path class="st10" d="M40.7,69.5L34.6,73l-4-2.3c0,0,6.1-3.5,6.1-3.5L40.7,69.5L40.7,69.5z"/>
		<path class="st11" d="M36.8,67.2l-6.1,3.5c0,0,0.1,0.1,0.1,0.1l6-3.5l3.9,2.2l0.1-0.1L36.8,67.2z"/>
		<path class="st12" d="M29.5,78.4l-1,0.6l-0.9-0.5c0-0.1,1-0.7,1-0.7l0.9,0.5C29.6,78.4,29.6,78.4,29.5,78.4z M31,79.3l-1,0.6
			l-0.9-0.5c0-0.1,1-0.7,1-0.7l0.9,0.5C31.1,79.3,31.1,79.3,31,79.3z M31.1,77.5l-1,0.6l-0.9-0.5c0-0.2,1-0.7,1-0.7l0.9,0.5
			C31.2,77.5,31.2,77.5,31.1,77.5z M32.8,76.6l-1,0.6l-0.9-0.5c0-0.1,1-0.7,1-0.7l0.9,0.5C32.8,76.5,32.8,76.6,32.8,76.6z M34.1,81
			l-1,0.6l-0.9-0.5c0-0.1,1-0.7,1-0.7l0.9,0.5C34.1,81,34.1,81,34.1,81z M35.6,81.9l-1,0.6L33.7,82c0-0.2,1-0.7,1-0.7l0.9,0.5
			C35.7,81.8,35.6,81.9,35.6,81.9z M35.8,78.3l-4.2,2.4h-0.1l-0.9-0.5c0-0.1,1.4-0.9,1.4-0.9c0,0,0.1-0.1,0.1-0.1c0,0,0-0.1-0.1-0.1
			l-1.1-0.7c0,0-0.1-0.1-0.1-0.1c0,0,0-0.1,0.1-0.1l2.5-1.5h0.1l2.3,1.3C35.8,78.1,35.8,78.2,35.8,78.3
			C35.8,78.2,35.8,78.3,35.8,78.3z M35.7,80.1l-1,0.6l-0.9-0.5c0-0.2,1-0.7,1-0.7l0.9,0.5C35.8,80.1,35.7,80.1,35.7,80.1z
			 M35.8,74.8l-1.5,0.9l-0.9-0.5c0-0.1,1.5-1,1.5-1l0.9,0.5C35.8,74.8,35.8,74.8,35.8,74.8z M36.8,76l-1,0.6l-0.9-0.5
			c0-0.1,1-0.7,1-0.7l0.9,0.5C36.8,75.9,36.8,76,36.8,76z M37.2,81l-1,0.6l-0.9-0.5c0-0.1,1-0.7,1-0.7l0.9,0.5
			C37.3,80.9,37.2,80.9,37.2,81z M37.3,79.2l-1,0.6l-0.9-0.5c0-0.1,1-0.7,1-0.7l0.9,0.5C37.4,79.1,37.3,79.1,37.3,79.2z M37.4,73.9
			l-1,0.6L35.5,74c0-0.1,1-0.7,1-0.7l0.9,0.5C37.5,73.8,37.4,73.9,37.4,73.9z M38.4,75.1l-1,0.6l-0.9-0.5c0-0.1,1-0.7,1-0.7l0.9,0.5
			C38.4,75,38.4,75,38.4,75.1z M38.8,80l-1,0.6l-0.9-0.5c0-0.1,1-0.7,1-0.7l0.9,0.5C38.9,80,38.9,80,38.8,80z M38.8,76.5l-1.6,0.9
			l-0.9-0.5c0-0.1,1.5-1,1.5-1l0.9,0.5C38.9,76.5,38.8,76.5,38.8,76.5z M39,72.9l-1,0.6L37.1,73c0-0.1,1-0.7,1-0.7l0.9,0.5
			C39.1,72.9,39.1,72.9,39,72.9z M39.8,77.7l-1,0.6l-0.9-0.5c0-0.1,1-0.7,1-0.7l0.9,0.5C39.8,77.7,39.8,77.7,39.8,77.7z M40,74.1
			l-1,0.6l-0.9-0.5c0-0.1,1-0.7,1-0.7L40,74C40.1,74.1,40,74.1,40,74.1z M40.4,75.6l-1,0.6l-0.9-0.5c0-0.1,1-0.7,1-0.7l0.9,0.5
			C40.5,75.6,40.5,75.6,40.4,75.6z M40.7,72l-1,0.6l-0.9-0.5c0-0.1,1-0.7,1-0.7l0.9,0.5C40.7,72,40.7,72,40.7,72z M41.4,76.8l-1,0.6
			l-0.9-0.5c0-0.1,1-0.7,1-0.7l0.9,0.5C41.5,76.7,41.4,76.8,41.4,76.8z M41.6,73.2l-1,0.6l-0.9-0.5c0-0.1,1-0.7,1-0.7l0.9,0.5
			C41.7,73.1,41.7,73.2,41.6,73.2z M41.8,78.2l-1.6,0.9l-0.9-0.5c0-0.1,1.6-1,1.6-1l0.9,0.5C41.9,78.2,41.9,78.2,41.8,78.2z
			 M42,74.7l-1,0.6l-0.9-0.5c0-0.2,1-0.7,1-0.7l0.9,0.5C42.1,74.6,42.1,74.6,42,74.7z M42.3,71.1l-1,0.6l-0.9-0.5c0-0.2,1-0.7,1-0.7
			l0.9,0.5C42.3,71,42.3,71.1,42.3,71.1z M43,75.8l-1,0.6l-0.9-0.5c0-0.1,1-0.7,1-0.7l0.9,0.5C43.1,75.8,43.1,75.8,43,75.8z
			 M43.2,72.2l-1,0.6l-0.9-0.5c0-0.1,1-0.7,1-0.7l0.9,0.5C43.3,72.2,43.3,72.2,43.2,72.2z M49.9,73.6l-7.5,4.3l-0.9-0.5
			c0-0.2,7.5-4.5,7.5-4.5l0.9,0.5C50,73.5,50,73.5,49.9,73.6z M43.9,70.1l-1,0.6L42,70.2c0-0.1,1-0.7,1-0.7l0.9,0.5
			C43.9,70.1,43.9,70.1,43.9,70.1z M44.7,74.9l-1,0.6L42.8,75c0-0.2,1-0.7,1-0.7l0.9,0.5C44.7,74.8,44.7,74.9,44.7,74.9z M44.9,71.3
			l-1,0.6L43,71.4c0-0.1,1-0.7,1-0.7l0.9,0.5C44.9,71.3,44.9,71.3,44.9,71.3z M45.3,72.8l-1,0.6l-0.9-0.5c0-0.1,1-0.7,1-0.7l0.9,0.5
			C45.3,72.7,45.3,72.8,45.3,72.8z M45.5,69.2l-1,0.6l-0.9-0.5c0-0.1,1-0.7,1-0.7l0.9,0.5C45.6,69.2,45.5,69.2,45.5,69.2z M46.3,74
			l-1,0.6l-0.9-0.5c0-0.1,1-0.7,1-0.7l0.9,0.5C46.3,73.9,46.3,73.9,46.3,74z M46.5,70.4l-1,0.6l-0.9-0.5c0-0.1,1-0.7,1-0.7l0.9,0.5
			C46.5,70.3,46.5,70.3,46.5,70.4z M46.9,71.8l-1,0.6L45,71.9c0-0.1,1-0.7,1-0.7l0.9,0.5C47,71.8,46.9,71.8,46.9,71.8z M47.1,68.2
			l-1,0.6l-0.9-0.5c0-0.1,1-0.7,1-0.7l0.9,0.5C47.2,68.2,47.2,68.2,47.1,68.2z M47.9,73l-1,0.6L46,73.1c0-0.1,1-0.7,1-0.7l0.9,0.5
			C47.9,73,47.9,73,47.9,73z M48.1,69.4l-1,0.6l-0.9-0.5c0-0.1,1-0.7,1-0.7l0.9,0.5C48.2,69.4,48.1,69.4,48.1,69.4z M48.5,70.9
			l-1,0.6L46.6,71c0-0.2,1-0.7,1-0.7l0.9,0.5C48.6,70.9,48.6,70.9,48.5,70.9z M48.7,67.3l-1,0.6l-0.9-0.5c0-0.2,1-0.7,1-0.7l0.9,0.5
			C48.8,67.3,48.8,67.3,48.7,67.3z M49.5,72.1l-1,0.6l-0.9-0.5c0-0.1,1-0.7,1-0.7l0.9,0.5C49.6,72,49.5,72.1,49.5,72.1z M49.7,68.5
			l-1,0.6l-0.9-0.5c0-0.1,1-0.7,1-0.7l0.9,0.5C49.8,68.4,49.8,68.5,49.7,68.5z M43.7,73.7l-1,0.6l-0.9-0.5c0-0.1,1-0.7,1-0.7
			l0.9,0.5C43.7,73.7,43.7,73.7,43.7,73.7z M50.2,70l-1,0.6l-0.9-0.5c0-0.1,1-0.7,1-0.7l0.9,0.5C50.2,69.9,50.2,69.9,50.2,70z
			 M50.4,66.4l-1,0.6l-0.9-0.5c0-0.1,1-0.7,1-0.7l0.9,0.5C50.4,66.3,50.4,66.4,50.4,66.4z M51.1,71.2l-1,0.6l-0.9-0.5
			c0-0.2,1-0.7,1-0.7l0.9,0.5C51.2,71.1,51.2,71.1,51.1,71.2z M51.5,72.6l-1,0.6l-0.9-0.5c0-0.1,1-0.7,1-0.7l0.9,0.5
			C51.6,72.6,51.6,72.6,51.5,72.6z M51.8,69l-1,0.6l-0.9-0.5c0-0.1,1-0.7,1-0.7l0.9,0.5C51.8,69,51.8,69,51.8,69z M51.9,67.3
			l-1.6,0.9l-0.9-0.5c0-0.1,1.5-1,1.5-1l0.9,0.5C51.9,67.2,51.9,67.2,51.9,67.3z M52.7,70.2l-1,0.6l-0.9-0.5c0-0.1,1-0.7,1-0.7
			l0.9,0.5C52.8,70.2,52.8,70.2,52.7,70.2z M53.2,71.7l-1,0.6l-0.9-0.5c0-0.1,1-0.7,1-0.7l0.9,0.5C53.2,71.6,53.2,71.7,53.2,71.7z
			 M53.4,68.1l-1,0.6l-0.9-0.5c0-0.1,1-0.7,1-0.7l0.9,0.5C53.4,68.1,53.4,68.1,53.4,68.1z M54.8,70.7l-1,0.6l-0.9-0.5
			c0-0.1,1-0.7,1-0.7l0.9,0.5C54.8,70.7,54.8,70.7,54.8,70.7z M54.9,69l-1.6,0.9l-0.9-0.5c0-0.1,1.5-1,1.5-1l0.9,0.5
			C54.9,68.9,54.9,68.9,54.9,69z M56.4,69.8l-1,0.6l-0.9-0.5c0-0.1,1-0.7,1-0.7l0.9,0.5C56.4,69.8,56.4,69.8,56.4,69.8z"/>
		<path class="st6" d="M40.6,58.5c0.6,0.4,1.3,1.8,2.1,2.8c1.2,1.6,2.7,3,1.5,4.9c-0.5,0.9-1,1.7-1.6,2.5c-0.8,1.1-1.3,1.3-2.2,0.3
			c-0.8-1-1.5-2-2.1-3.1c-0.6-1.1-1.4-5-1.4-5C37.4,58.7,40.3,58.2,40.6,58.5z"/>
		<path class="st10" d="M62.4,55.8L39.3,69.2l-3.8,14.7c0.1,0.2,0.1,0.4,0.1,0.6c0,0.2-0.1,0.4-0.2,0.5l23.1-13.4
			c0.1-0.1,0.2-0.2,0.2-0.5c0-0.2-0.1-0.4-0.1-0.6L62.4,55.8z"/>
		<path class="st8" d="M39.1,69l23.1-13.4l0.3,0.3L39.3,69.2L39.1,69z"/>
		<path class="st13" d="M39.1,69l0.3,0.3l-3.8,14.7c0.1,0.2,0.1,0.4,0.1,0.6c0,0.4-0.3,0.7-0.6,0.5L19.5,76v-0.7l14.8,8.6v-0.1
			c0-0.4,0.3-0.7,0.6-0.5L39.1,69z"/>
		<path class="st14" d="M50.9,69.5c-0.2,0.8-1,1.8-2,2.2c-0.9,0.5-1.5,0.2-1.4-0.5c0.1-0.8,1-1.8,2-2.2C50.4,68.5,51,68.7,50.9,69.5
			z M49.4,69.2c-0.7,0.4-1.4,1.2-1.6,1.8c-0.1,0.6,0.4,0.8,1.1,0.4c0.7-0.4,1.4-1.2,1.6-1.8C50.7,69.1,50.2,68.9,49.4,69.2z"/>
		<path class="st1" d="M24.6,62.2c-0.5-0.6-14.5-10.6-14-10.3c-0.1-3.7,2.3-16.8-0.9-21.4c-2-2.9-5.4-2.3-6.8,0.1
			C0.3,35.2,0,53.7,2.1,57.9c1.1,2.1,18.4,8.7,20,8.9C23.4,67,25.3,63,24.6,62.2z"/>
		<path class="st6" d="M30,63.9c-0.8-0.5-4.5-1.3-5.6-1.5c-1.2-0.4-3,2.4-2.1,4.1c0.7,0.4,2.3,0.8,3.7,1.5c0,0,1.1,1,2,2.3
			c0.1,0.2,0.3,0.4,0.5,0.6c0.8,0.8,2.5,0.9,3.5,0.7c0.2,0,0.4-0.1,0.5-0.2C33.5,70.4,32.2,65.2,30,63.9z"/>
	</g>
</g>
</svg>
