<?xml version="1.0" encoding="utf-8"?>
<!-- Generator: Adobe Illustrator 23.0.4, SVG Export Plug-In . SVG Version: 6.00 Build 0)  -->
<svg version="1.1" id="Слой_1" xmlns="http://www.w3.org/2000/svg" xmlns:xlink="http://www.w3.org/1999/xlink" x="0px" y="0px"
	 viewBox="0 0 273 231" style="enable-background:new 0 0 273 231;" xml:space="preserve">
<style type="text/css">
	.st0{fill:#5E2638;}
	.st1{fill:#FEBFBF;}
	.st2{fill:#FFDC6E;}
	.st3{fill:#7282B5;}
	.st4{fill:#E8D0C8;}
	.st5{fill:#FDD249;}
	.st6{fill:#FFEECF;}
	.st7{fill:#DEDEDE;}
	.st8{fill:#FFADB7;}
	.st9{fill:url(#SVGID_1_);}
	.st10{fill:#754554;}
	.st11{fill:url(#SVGID_2_);}
	.st12{fill:url(#SVGID_3_);}
	.st13{fill:#FECB4C;}
	.st14{fill:#FCF5E8;}
	.st15{fill:#725E6D;}
	.st16{fill:#5C6467;}
	.st17{fill:#BECDD4;}
	.st18{fill:#EBE7E3;}
	.st19{fill:#D9D3CC;}
	.st20{fill:#E8B687;}
	.st21{fill:#DED8D1;}
	.st22{fill:#C99A6B;}
	.st23{fill:#AE835B;}
	.st24{fill:#C5C9D8;}
	.st25{fill:#DADAE8;}
	.st26{fill:#E7E7F0;}
	.st27{fill:#F4F5FA;}
	.st28{fill:#57565E;}
	.st29{fill:#E5E8F5;}
	.st30{fill:url(#SVGID_4_);}
	.st31{fill:#D3D3E3;}
	.st32{fill:#EFF0F5;}
	.st33{fill:#FA9698;}
	.st34{fill:#A0978F;}
	.st35{fill:#FCFBFA;}
	.st36{fill:#9C754E;}
	.st37{fill:#F1D6BC;}
	.st38{fill:#D1A986;}
</style>
<g>
	<g>
		<path class="st0" d="M135.1,12.9c0,0,0-6.7-6.6-4.7c-3.8,1.1-8.5,6.5-5.7,16.8c2.9,10.5-5.7,17.6-5.7,17.6s6.5,0.1,9.1-1.7
			c2.6-1.7,2.2-3.7,3-10.3C130,24,135.1,12.9,135.1,12.9z"/>
		<path class="st1" d="M146.3,32.7c0,0,3.1-1.7,5.7,4.7c2.6,6.4,5.5,21,6.8,23.1c1.3,2.1,0.1,4.6-7,6.4
			C144.7,68.6,146.3,32.7,146.3,32.7z"/>
		<path class="st2" d="M155.9,49.9c0,0-0.8,1.4-3,1.4c-2.2,0-15.9-18-12.7-19.2c3.2-1.2,6.8,0,8,0.5C150.5,33.7,153,37.3,155.9,49.9
			z"/>
		<path class="st3" d="M156.2,176.9c-5.4-3.6-8-3.3-8-3.3s-4.3,0.4-5.7-1.6v0c-0.3-0.5-0.4-1.1-0.3-1.8c0.7-4,1.7-6.2,1.6-7.8
			c-0.3-8.7-4.3-22.9-3.3-29.7c1.5-10.4-3.5-23.1-2.8-31c0.1-0.8,0.2-1.5,0.4-2.2c2.1-7.6,16.1-9.9,16.1-9.9s1.7,9.9-0.4,22.3
			c-3.3,19.2-3.9,46.5-3.9,52.6c0,2.5,3.4,4.6,5,5.4c2.2,1.2,6.5,4,6.5,4S161.7,180.6,156.2,176.9z"/>
		<path class="st4" d="M143.2,143.5c0.9,6.9,2.2,16.6,1.9,18.8c-0.4,2.2-2.6,6.7-2.5,9.6c-0.3-0.5-0.4-1.1-0.3-1.8
			c0.7-4,1.7-6.2,1.6-7.7c-0.3-8.7-4.3-22.9-3.3-29.7c1.5-10.4-3.5-23.1-2.8-31c2-0.9,4.6-1.3,8.1-1.3c0,0,0.4,2-1.6,4.9l-2.1,2.9
			c0,0,1.3,9.8,1,19.5C142.9,137.4,142.3,136.6,143.2,143.5z"/>
		<path class="st3" d="M146.2,101c-1.1,3.1-4.6,4.1-4.6,4.1s-1,26.8-3.2,32.6c-2.3,5.8-3.9,27-3.8,27.9c0.1,0.9,0.3,6.1,4.5,10
			c4.1,4,5.9,4.7,5.9,5.3c-0.1,0.6-1.8,3.7-5.7,3.2c-3.9-0.6-5-0.8-6.9-2.8c-0.7-0.7-1.4-1.4-2.1-2c-1.1-1-2-1.9-2.1-2.8
			c-0.3-1.6,1-4.6,0.1-7.5c-0.8-2.9-3-21.1-2.5-25.9c1-10.7,2.3-9.6,1.8-12.7c-0.4-3-5.2-18.7-5.2-36.2c0-0.3,0.1-0.6,0.2-0.8
			c1.8-5.4,23.5,0.3,23.5,0.3S147.4,97.7,146.2,101z"/>
		<path class="st4" d="M130.3,179.3c-1.1-1-1.9-1.9-2.1-2.8c-0.3-1.6,1-4.6,0.1-7.5c-0.8-2.9-3-21.1-2.5-25.9
			c1-10.7,2.2-9.6,1.8-12.7c-0.4-3-5.2-18.7-5.2-36.2c0-0.3,0.1-0.6,0.2-0.9c1.2,0.2,1.9,0.6,1.9,0.6s-0.9,6.4,0,14.6
			c0.9,8.2,4.6,21.5,4.6,23.2c0,1.7-2.1,6.5-2.1,15.6c0.1,9,2.7,21.8,2.6,23.6C129.4,172.2,127.8,175.3,130.3,179.3z"/>
		<path class="st5" d="M155.1,56.3c0,1.2-0.1,2.6-0.3,4v0c0,0.1,0,0.3-0.1,0.4c-0.2,1.4-0.5,2.8-1,4.2c-0.1,0.4-0.2,0.7-0.3,0.9
			c-1.3,3.5,1.4,22.7,1,24.2c-0.4,1.5-1.4,3-7.9,5.1c-1.8,0.6-3.9,1-6,1.3c-0.5,0.1-1.1,0.1-1.6,0.2c-1.9,0.2-3.9,0.3-5.7,0.2
			c-0.3,0-0.7,0-1,0c-0.6,0-1.1,0-1.6-0.1c-2.3-0.2-4.3-0.5-5.7-1c-0.7-0.2-1.3-0.5-1.8-0.8c-0.3-0.2-0.6-0.4-0.7-0.7
			c0,0,0.8-14.4,0.3-19.9c-0.3-3.4-2.2-7.9-4.1-12.3c-0.8-2-1.6-3.9-2.2-5.8c-0.2-0.8-0.5-1.5-0.6-2.2c-3-11.5,1.4-12.9,4.9-15.6
			c3-2.4,7.6-5.4,11-6.3c5.2-1.4,10.7-0.2,12.3-0.1c1.6,0.1,5.2,1.1,7.2,7.9c2,6.8,3.7,11.4,4,14.8
			C155.1,55.2,155.1,55.8,155.1,56.3z"/>
		<path class="st6" d="M155.1,56.3c0,1.2-0.1,2.6-0.3,4v0c0,0.1,0,0.3-0.1,0.4c-0.4,1.6-0.7,3.2-1,4.2c-0.1,0.4-0.2,0.7-0.3,0.9
			c-1.3,3.5,1.4,22.7,1,24.2c-0.4,1.5-1.4,3-7.9,5.1c-1.8,0.6-3.9,1-6,1.3c-0.5,0.1-1.1,0.1-1.6,0.2c-1.9,0.2-3.9,0.3-5.7,0.2
			c-0.3,0-0.7,0-1,0c-4-0.2-7.4-0.9-9.1-1.9c-0.3-0.2-0.6-0.4-0.7-0.7c0,0,0.8-14.4,0.3-19.9c-0.3-3.4-2.2-7.9-4.1-12.3
			c3.5-4.9,6.8-7.9,6.3-5.8c-0.9,4.8-0.9,11.5,5.3,11.7c8.8,0.2,11-3.2,15.2-4.7C151.4,60.9,154,58.1,155.1,56.3z"/>
		<path class="st7" d="M143.5,64.4c0,0-13.2,7.1-18.1,0l0,0c-0.1-5-0.3-10.4-0.3-10.4c-3.5-0.1-6.3,0.8-8.7,2.2
			c0.6,1.8,1.4,3.8,2.2,5.8c1.8,4.4,3.8,8.9,4.1,12.3c0.5,5.6-0.3,19.9-0.3,19.9c0.5,0.6,1.3,1.1,2.5,1.5c-0.5-2.8-1-6.1-1.1-9.3
			c-0.4-9.5,1.4-10.9,1.6-15.8c0-1,0-2.2,0-3.5C127.8,68.4,133.8,70.1,143.5,64.4z"/>
		<path class="st1" d="M123.2,75.5c0,0,2.8-21,1.5-27.4s-5.7-6.5-7.6-5.7s-2.9,3-2.2,12.7c0.7,9.7,1.8,22.1,2.1,23.8
			C117.2,80.7,123.2,75.5,123.2,75.5z"/>
		<path class="st8" d="M140.6,23c0,0-0.1,7.5,0.4,10.4c0.4,2.8,1.4,4.5-1.8,5.5c-1.8,0.6-8.6-1.3-11.5-4.5c-0.2-0.4,0.5-0.9,1.2-3.1
			c0.6-2.2,1.1-3.3,1.1-7.6c0-4.4,0.2-8.4,0.2-8.4L140.6,23z"/>
		
			<linearGradient id="SVGID_1_" gradientUnits="userSpaceOnUse" x1="132.4325" y1="201.2132" x2="139.6755" y2="192.0442" gradientTransform="matrix(1 0 0 -1 0 232)">
			<stop  offset="0" style="stop-color:#FCA4B5"/>
			<stop  offset="0.122" style="stop-color:#FCA4B5"/>
			<stop  offset="0.99" style="stop-color:#FFADB7"/>
			<stop  offset="1" style="stop-color:#FFADB7"/>
		</linearGradient>
		<path class="st9" d="M129.9,23.7c0,4.4-0.5,5.4-1.1,7.6s-1.4,2.7-1.2,3.1c1.2,1.3,3.1,2.4,5,3.2c-1.5-1.5-2-3-0.6-4.3
			c1.3-1.3,2.5-1.1,6.8,0c1,0.3,1.7,0.3,2.2,0.3c0-0.1-0.1-0.2-0.1-0.2c-0.1-0.5-0.1-1.1-0.2-1.9l-10.9-9.9V23.7z"/>
		<path class="st1" d="M136.2,2.2c0,0,7.2,1.5,9.1,7c1.9,5.5,1.6,5.8,1.5,8c-0.1,2.2,0.6,5.3-0.3,8.9c-0.8,3.6-1.7,6.6-3.3,7.2
			c-1.6,0.5-11-1.3-14.4-7.7s-6.6-12.2-4-18.1C126.6,3.3,132.5,1.3,136.2,2.2z"/>
		<path class="st10" d="M124.2,7.9c1.4-3.6,3.1-4.3,3.1-4.3s1.7-1.8,6.4-1.8c4.5,0,8.5,2.4,10.3,4.4c2.6,2.8,1.5,4.3,1.5,4.3l0-0.1
			c-0.1-0.2-0.5-0.9-1.4-0.6c-1.2,0.5-1.7,1.4-2.7,1.8c-7,2.5-8.4,0.6-9,3.8c-0.6,3.3-0.9,4.4-2.3,3.9c-2.4-0.8-2.2-0.3-3.4,1.3
			c0.4,1.5,1,3.1,1.6,4.6c0,0-0.1,1.5-2.7-4.5C124.6,18.3,122,15,124.2,7.9z"/>
		
			<linearGradient id="SVGID_2_" gradientUnits="userSpaceOnUse" x1="129.9698" y1="209.131" x2="123.6869" y2="211.969" gradientTransform="matrix(1 0 0 -1 0 232)">
			<stop  offset="0" style="stop-color:#FEB9B8"/>
			<stop  offset="0.122" style="stop-color:#FEB9B8"/>
			<stop  offset="1" style="stop-color:#FFDEDE"/>
		</linearGradient>
		<path class="st11" d="M126,18.6c-2.3,0.6-1.9,3.3,0.6,5.6c2.5,2.4,3.1-0.4,3.2-0.6c0.1-0.2-1.1-1.9-0.5-3.5c0,0-0.8-1.6-2.5-1.6
			C126.5,18.5,126.3,18.5,126,18.6z"/>
		
			<linearGradient id="SVGID_3_" gradientUnits="userSpaceOnUse" x1="126.8666" y1="211.3828" x2="128.7196" y2="209.0408" gradientTransform="matrix(1 0 0 -1 0 232)">
			<stop  offset="0" style="stop-color:#FCA4B5"/>
			<stop  offset="0.122" style="stop-color:#FCA4B5"/>
			<stop  offset="0.99" style="stop-color:#FFADB7"/>
			<stop  offset="1" style="stop-color:#FFADB7"/>
		</linearGradient>
		<path class="st12" d="M126.4,19.8c-1.5,0.8,0.7,3.3,0.9,3.6c0.2,0.3,1.3,0.2,1.5-0.6c0.1-0.8-1.1-1.4-0.4-2.4c0,0-0.7-0.8-1.5-0.8
			C126.8,19.6,126.6,19.7,126.4,19.8z"/>
		<path class="st2" d="M118.3,41.8c0,0-3.3-0.2-4,4.5c-0.7,4.6,0.6,15.5,0.6,15.5s2.1-0.4,5.6-0.5c2.7,0,4.5,0.5,4.5,0.5
			s0.7-9.5,0-13.6C124.3,44,122.8,41.3,118.3,41.8z"/>
		<path class="st13" d="M147.9,10.3l-0.5,0.7c0,0-11.1,2.9-12.2,3.1c-0.6,0.2-0.9,0.5-2.1,0.9h0c-0.8,0.3-1.9,0.5-3.7,0.6
			c-3.6,0.3-6.8-0.3-6.8-0.3s-0.6-4.4-0.1-6.3c1-4,4.3-7,8.6-8.1c0.8-0.2,1.6-0.4,2.4-0.5c5.4-0.6,10.4,1.7,12.2,4.4
			C147.6,7.5,147.9,10.3,147.9,10.3z"/>
		<path class="st14" d="M133.1,15.1c-0.8,0.3-1.9,0.5-3.7,0.6c-3.6,0.3-6.8-0.3-6.8-0.3s-0.6-4.4-0.1-6.3c1-4,4.3-7,8.6-8.1
			c0,0-2.7,1-2.9,3.8C128.1,7.5,128.1,13.9,133.1,15.1z"/>
		<path class="st15" d="M133,14.9c0,0,8.7,5.5,11.8,3.2c3.9-2.9,6.7-3,8.7-2.4l2.1,0.6c0,0,0.4-0.1,0.4-0.6c-0.1-0.5-8-5.5-8-5.5
			S143.4,7,133,14.9z"/>
		<path class="st16" d="M138.5,174.3c-0.6-0.2-1.4-0.1-2.1,0c-0.8,0.2-1.6,0.5-2.4,0.8c-0.8,0.4-0.8,0.7-0.7,1.4
			c-1-0.5-4.1-2-4.5-3.1c-0.3-0.8-0.2-2.7-0.2-2.7s0,0.3-0.2,1.6c-0.1,1.3-0.4,4.5-0.4,5.3c0,0.8,4.6,4.5,5.8,5.4
			c3.2,2.3,4.3,3.1,8.8,3.3c4.5,0.1,4.3-2.9,4.2-3.7c0-0.7-4.5-4.5-5.8-5.5c-0.7-0.5-1.2-1.5-1.8-2.2
			C139.1,174.6,138.8,174.4,138.5,174.3z M151.9,167.8c1.3-0.4,2.5,1.4,3.4,2.2c0,0,6.8,4,7,4.5c0.2,0.5,0.5,2.1,0.3,2.4
			c-0.2,0.3-2.6,2.6-6,1.3c-3.4-1.2-4.6-2.4-6.9-3c-2.3-0.6-6.8-1.5-7.3-2.7c-0.6-1.2,0.1-5.4,0.1-5.4s0.7-0.3,1,0.2
			c0.3,0.5,1.6,1.9,3.1,2.4c1.1,0.4,2.3,0.3,3.4,0.1c-0.1-0.3-0.2-0.6,0-0.9c0.2-0.2,0.4-0.3,0.6-0.5c0.3-0.2,0.6-0.5,0.9-0.7
			C151.6,167.9,151.7,167.8,151.9,167.8z"/>
		<path class="st17" d="M73.4,230.5L-0.2,188l46.9-27.1l14.1,18l48.2,51.6H73.4z"/>
		<path class="st18" d="M41.8,191.7v-73l67.1,38.8l72.4-64V38.2l85.1,28.4v73L109,230.5L41.8,191.7z"/>
		<path class="st19" d="M41.8,191.7v-73l67.1,38.8l72.4-64V38.2l85.1,28.4v15.9L109,173.4L41.8,191.7z"/>
		<path class="st20" d="M41.8,118.8l17.9-10.3l22.6,13.1L204,51.3l-22.6-13.1l17.9-10.3l67.1,38.8L239.9,82L109,157.5L41.8,118.8z"
			/>
		<path class="st21" d="M41.8,118.8l67.1,38.8v73l-67.1-38.8V118.8z"/>
		<path class="st22" d="M273,64.8v9.6l-24.4,14.1v-9.6L273,64.8z"/>
		<path class="st23" d="M248.5,78.9v9.6L174.9,46v-9.6L248.5,78.9z"/>
		<path class="st20" d="M248.5,78.9l-73.7-42.5l24.5-14.1L273,64.8L248.5,78.9z"/>
		<path class="st22" d="M248.5,78.9v9.6l-115.1,66.4v-9.6L248.5,78.9z"/>
		<path class="st23" d="M133.4,145.3v9.6l-51-29.5v-9.6L133.4,145.3z"/>
		<path class="st20" d="M133.4,145.3l-51.1-29.5l115.1-66.4l51,29.5L133.4,145.3z"/>
		<path class="st22" d="M133.4,145.3v9.6L109,169v-9.6L133.4,145.3z"/>
		<path class="st23" d="M109,159.4v9.6l-73.7-42.5v-9.6L109,159.4z"/>
		<path class="st20" d="M109,159.4l-73.7-42.5l24.4-14.1l73.6,42.5L109,159.4z"/>
		<path class="st1" d="M153.9,68.1c1.9,2.2,8.6,6.3,8.6,6.3s0.3,0.4,0.7,0.8c0,0,0,0,0,0c0,0,0,0,0,0c0.4,0.4,0.9,0.9,1.3,1.1
			c0.9,0.4,2.6,2.6,3,2.7c0.4,0.1,0.8-0.3,1.3-0.2c0.1,0,0.2,0,0.3,0c0,0,0,0,0,0c0,0,0.1,0,0.1-0.1c0,0,0,0,0,0c0,0,0-0.1,0.1-0.1
			c0,0,0.1-0.1,0.1-0.1c0,0,0,0,0,0c0,0,0,0,0,0c0.1-0.2,0.2-0.3,0.2-0.3l0.3-0.2l0.5-0.3c0,0,0,0,0.1,0.1l0,0c0,0,0,0,0,0
			c0,0,0.1,0,0.1,0.1c0,0,0,0,0.1,0c0,0,0.1,0,0.1,0c0.1,0,0.1,0,0.1,0c0.1,0,0.1,0,0.2,0c0.2,0,0.4-0.1,0.6-0.3
			c0.5-0.4,1.5-1.5,2-2.1c0.3-0.3,0.3-0.8,0.1-1.1c-0.2-0.3-0.2-0.6-0.4-0.9c0,0,0,0,0,0c0,0-0.1-0.1-0.1-0.1c0-0.3-0.6-1-1.2-1.7
			c0,0-0.1-0.1-0.1-0.1c-0.5-0.6-1.1-1.2-1.5-1.6c-0.1-0.1-0.1-0.1-0.2-0.2c0,0,0,0,0,0c0,0-0.1-0.1-0.1-0.1c0,0,0,0-0.1-0.1
			s0,0,0,0c0,0,0,0,0,0l-0.9,0.2c0,0-0.7-0.5-1.3-0.6c-0.4-0.1-1.3,0.7-2.2,0.6h0c-0.2,0-0.4-0.1-0.6-0.2c-1-0.6-4.9-7.8-6-8.4
			c-1.1-0.5-2.8,0.8-2.8,0.8C152.9,64.3,152,66,153.9,68.1z"/>
		<path class="st24" d="M190.7,76.7l-11.3-6.5c-0.4-0.2-1-0.2-1.4,0l-28.5,16.6l-1.3,0.3v0.6v0c0,0.2,0.1,0.3,0.3,0.4l11.6,6.7
			c0.4,0.2,1,0.2,1.3,0L191,77.6c0.2-0.1,0.3-0.2,0.3-0.4l0,0v-0.7L190.7,76.7z"/>
		<path class="st25" d="M148.6,87.4l11.6,6.7c0.4,0.2,1,0.2,1.3,0L191,76.9c0.4-0.2,0.4-0.6,0-0.8l-11.6-6.7c-0.4-0.2-1-0.2-1.4,0
			l-29.5,17.2C148.2,86.8,148.2,87.2,148.6,87.4z"/>
		<path class="st26" d="M188.1,76v-0.2l-0.1,0l-1.3-0.8c-0.1-0.1-0.3-0.1-0.5,0l-1.3,0.8h-0.1V76v0h0c0,0,0,0.1,0.1,0.1l1.3,0.8
			c0.1,0.1,0.4,0.1,0.5,0l1.3-0.8C188,76.1,188.1,76,188.1,76z M179.8,71.2v-0.2h-0.1l-1.3-0.7c-0.1-0.1-0.3-0.1-0.5,0l-1.3,0.7
			h-0.1v0.2v0l0,0c0,0,0,0.1,0.1,0.1l1.3,0.8c0.1,0.1,0.3,0.1,0.5,0l1.3-0.8C179.8,71.3,179.8,71.3,179.8,71.2z M177.8,72.4v-0.2
			h-0.1l-1.3-0.7c-0.1-0.1-0.3-0.1-0.5,0l-1.3,0.8h-0.1v0.1v0c0,0,0,0.1,0.1,0.1l1.3,0.8c0.1,0.1,0.4,0.1,0.5,0l1.3-0.8
			C177.7,72.5,177.8,72.4,177.8,72.4z M175.7,73.6v-0.2h-0.1l-1.3-0.7c-0.1-0.1-0.4-0.1-0.5,0l-1.3,0.8h-0.1v0.2v0h0
			c0,0,0,0.1,0.1,0.1l1.3,0.8c0.1,0.1,0.4,0.1,0.5,0l1.3-0.8C175.7,73.7,175.7,73.6,175.7,73.6z M173.7,74.8v-0.2h-0.1l-1.3-0.7
			c-0.1-0.1-0.3-0.1-0.5,0l-1.3,0.8h-0.1v0.1v0c0,0.1,0,0.1,0.1,0.1l1.3,0.8c0.1,0.1,0.3,0.1,0.5,0l1.3-0.8
			C173.7,74.9,173.7,74.8,173.7,74.8z M186,77.2V77h-0.1l-1.3-0.7c-0.1-0.1-0.4-0.1-0.5,0l-1.3,0.8h-0.1v0.1v0l0,0
			c0,0.1,0,0.1,0.1,0.1l1.3,0.8c0.1,0.1,0.3,0.1,0.5,0l1.3-0.8C186,77.3,186,77.2,186,77.2z M182.8,76.7v-0.2h-0.1l-1.3-0.7
			c-0.1-0.1-0.3-0.1-0.5,0l-1.3,0.8h-0.1v0.2v0l0,0c0,0,0,0.1,0.1,0.1l1.3,0.8c0.1,0.1,0.3,0.1,0.5,0l1.3-0.8
			C182.8,76.8,182.8,76.7,182.8,76.7z M180.8,77.8v-0.2h-0.1l-1.3-0.7c-0.1-0.1-0.3-0.1-0.5,0l-1.3,0.8h-0.1v0.1v0l0,0
			c0,0.1,0,0.1,0.1,0.1l1.3,0.8c0.1,0.1,0.4,0.1,0.5,0l1.3-0.8C180.8,77.9,180.8,77.9,180.8,77.8z M179.7,76v-0.2h-0.1l-1.3-0.7
			c-0.1-0.1-0.4-0.1-0.5,0l-1.3,0.8h-0.1V76v0h0c0,0,0,0.1,0.1,0.1l1.3,0.8c0.1,0.1,0.4,0.1,0.5,0l1.3-0.8
			C179.7,76.1,179.7,76.1,179.7,76z M177.6,74.8v-0.1h-0.1l-1.3-0.7c-0.1-0.1-0.4-0.1-0.5,0l-1.3,0.7h-0.1v0.1v0c0,0,0,0.1,0.1,0.1
			l1.3,0.8c0.1,0.1,0.4,0.1,0.5,0l1.3-0.8C177.6,74.9,177.6,74.9,177.6,74.8z M175.6,76v-0.1h-0.1l-1.3-0.7c-0.1-0.1-0.3-0.1-0.5,0
			l-1.3,0.8h-0.1V76v0l0,0c0,0.1,0,0.1,0.1,0.1l1.3,0.8c0.1,0.1,0.3,0.1,0.5,0l1.3-0.8C175.6,76.1,175.6,76.1,175.6,76z M173.6,77.2
			v-0.2h-0.1l-1.3-0.7c-0.1-0.1-0.3-0.1-0.5,0l-1.3,0.7h-0.1v0.2v0c0,0,0,0.1,0.1,0.1l1.3,0.8c0.1,0.1,0.4,0.1,0.5,0l1.3-0.8
			C173.6,77.3,173.6,77.3,173.6,77.2z M171.5,78.4v-0.2h-0.1l-1.3-0.7c-0.1-0.1-0.3-0.1-0.5,0l-1.3,0.8h-0.1v0.1v0l0,0
			c0,0,0,0.1,0.1,0.1l1.3,0.8c0.1,0.1,0.3,0.1,0.5,0l1.3-0.8C171.5,78.5,171.5,78.4,171.5,78.4z M169.5,79.6v-0.2l-0.1,0l-1.3-0.7
			c-0.1-0.1-0.3-0.1-0.5,0l-1.3,0.7h-0.1v0.2v0c0,0,0,0.1,0.1,0.1l1.3,0.8c0.1,0.1,0.3,0.1,0.5,0l1.3-0.8
			C169.5,79.7,169.5,79.6,169.5,79.6z M167.5,80.8v-0.2h-0.1l-1.3-0.7c-0.1-0.1-0.3-0.1-0.5,0l-1.3,0.8h-0.1v0.1v0l0,0
			c0,0.1,0,0.1,0.1,0.1l1.3,0.8c0.1,0.1,0.3,0.1,0.5,0l1.3-0.8C167.4,80.9,167.5,80.8,167.5,80.8z M165.4,81.9v-0.1h-0.1l-1.3-0.7
			c-0.1-0.1-0.3-0.1-0.5,0l-1.3,0.7h-0.1v0.1v0l0,0c0,0,0,0.1,0.1,0.1l1.3,0.8c0.1,0.1,0.3,0.1,0.5,0l1.3-0.8
			C165.4,82.1,165.4,82,165.4,81.9z M163.4,83.1V83h-0.1l-1.3-0.7c-0.1-0.1-0.3-0.1-0.5,0l-1.3,0.8h-0.1v0.1v0h0
			c0,0.1,0,0.1,0.1,0.1l1.3,0.8c0.1,0.1,0.4,0.1,0.5,0l1.3-0.8C163.4,83.2,163.4,83.2,163.4,83.1z M158.1,84.3v0.2h0.1l1.3,0.7
			c0.1,0.1,0.4,0.1,0.5,0l1.3-0.8h0.1v-0.1v0h0c0,0,0-0.1-0.1-0.1l-1.3-0.8c-0.1-0.1-0.4-0.1-0.5,0l-1.3,0.8
			C158.1,84.2,158.1,84.3,158.1,84.3z M159.2,83.2v-0.2H159l-1.3-0.7c-0.1-0.1-0.3-0.1-0.5,0l-1.3,0.7h-0.1v0.2v0c0,0,0,0.1,0.1,0.1
			l1.3,0.8c0.1,0.1,0.3,0.1,0.5,0l1.3-0.8C159.1,83.3,159.2,83.3,159.2,83.2z M157.1,84.4v-0.2H157l-1.3-0.7c-0.1-0.1-0.3-0.1-0.5,0
			l-1.3,0.8h-0.1v0.1v0l0,0c0,0,0,0.1,0.1,0.1l1.3,0.8c0.1,0.1,0.3,0.1,0.5,0l1.3-0.8C157.1,84.5,157.1,84.4,157.1,84.4z M153,86.8
			v-0.2h-0.1l-1.3-0.7c-0.1-0.1-0.3-0.1-0.5,0l-1.3,0.8h-0.1v0.1v0c0,0,0,0.1,0.1,0.1l1.3,0.8c0.1,0.1,0.4,0.1,0.5,0l1.3-0.8
			C153,86.9,153,86.8,153,86.8z M155.1,87.7l-1.3-0.7c-0.1-0.1-0.3-0.1-0.5,0l-0.2,0.1l-1.1,0.6h-0.1v0.1l-0.1,0h-0.1V88v0l0,0
			c0,0,0,0.1,0.1,0.1l1.3,0.8c0.1,0.1,0.4,0.1,0.5,0l1.5-0.9c0.1,0,0.1-0.1,0.1-0.1v-0.2H155.1z M159.3,85.5v-0.2h-0.1l-1.3-0.7
			c-0.1-0.1-0.3-0.1-0.5,0l-1.3,0.8H156v0.1v0l0,0c0,0,0,0.1,0.1,0.1l1.3,0.8c0.1,0.1,0.4,0.1,0.5,0l1.3-0.8
			C159.3,85.6,159.3,85.6,159.3,85.5z M157.3,86.7v-0.2h-0.1l-1.3-0.7c-0.1-0.1-0.3-0.1-0.5,0l-1.3,0.8H154v0.2v0c0,0,0,0.1,0.1,0.1
			l1.3,0.8c0.1,0.1,0.4,0.1,0.5,0l1.3-0.8C157.2,86.8,157.3,86.7,157.3,86.7z M177.7,77.2v-0.2h-0.1l-1.3-0.7
			c-0.1-0.1-0.3-0.1-0.5,0l-1.3,0.8h-0.1v0.1v0c0,0,0,0.1,0.1,0.1l1.3,0.8c0.1,0.1,0.3,0.1,0.5,0l1.3-0.8
			C177.7,77.3,177.7,77.3,177.7,77.2z M175.7,78.4v-0.2h-0.1l-1.3-0.7c-0.1-0.1-0.4-0.1-0.5,0l-1.3,0.7h-0.1v0.2v0l0,0
			c0,0,0,0.1,0.1,0.1l1.3,0.8c0.1,0.1,0.4,0.1,0.5,0l1.3-0.8C175.6,78.5,175.7,78.5,175.7,78.4z M173.6,79.6v-0.1h-0.1l-1.3-0.7
			c-0.1-0.1-0.3-0.1-0.5,0l-1.3,0.8h-0.1v0.1v0c0,0.1,0,0.1,0.1,0.1l1.3,0.8c0.1,0.1,0.3,0.1,0.5,0l1.3-0.8
			C173.6,79.7,173.6,79.6,173.6,79.6z M171.6,80.8v-0.2h-0.1l-1.3-0.7c-0.1-0.1-0.3-0.1-0.5,0l-1.3,0.7h-0.1v0.2l0,0v0l0,0
			c0,0,0,0.1,0.1,0.1l1.3,0.8c0.1,0.1,0.3,0.1,0.5,0l1.3-0.8C171.6,80.9,171.6,80.8,171.6,80.8z M169.5,82v-0.2h-0.1l-1.3-0.7
			c-0.1-0.1-0.3-0.1-0.5,0l-1.3,0.8h-0.1V82v0c0,0,0,0.1,0.1,0.1l1.3,0.8c0.1,0.1,0.3,0.1,0.5,0l1.3-0.8
			C169.5,82.1,169.5,82,169.5,82z M167.5,83.2V83h-0.1l-1.3-0.7c-0.1-0.1-0.3-0.1-0.5,0l-1.3,0.8h-0.1v0.2l0,0v0l0,0
			c0,0,0,0.1,0.1,0.1l1.3,0.8c0.1,0.1,0.3,0.1,0.5,0l1.3-0.8C167.5,83.2,167.5,83.2,167.5,83.2z M165.5,84.3v-0.2h-0.1l-1.3-0.7
			c-0.1-0.1-0.3-0.1-0.5,0l-1.3,0.8h-0.1v0.1v0h0c0,0.1,0,0.1,0.1,0.1l1.3,0.8c0.1,0.1,0.4,0.1,0.5,0l1.3-0.8
			C165.4,84.4,165.5,84.4,165.5,84.3z M163.4,85.5v-0.2l-0.1,0l-1.3-0.8c-0.1-0.1-0.4-0.1-0.5,0l-1.3,0.8h-0.1v0.1v0h0
			c0,0,0,0.1,0.1,0.1l1.3,0.8c0.1,0.1,0.3,0.1,0.5,0l1.3-0.8C163.4,85.6,163.4,85.6,163.4,85.5z M161.4,86.7v-0.1h-0.1l-1.3-0.7
			c-0.1-0.1-0.3-0.1-0.5,0l-1.3,0.8h-0.1v0.1v0c0,0.1,0,0.1,0.1,0.1l1.3,0.8c0.1,0.1,0.4,0.1,0.5,0l1.3-0.8
			C161.4,86.8,161.4,86.8,161.4,86.7z M178.8,79v-0.2h-0.1l-1.3-0.7c-0.1-0.1-0.4-0.1-0.5,0l-1.3,0.8h-0.1V79l0,0v0h0
			c0,0,0,0.1,0.1,0.1l1.3,0.8c0.1,0.1,0.3,0.1,0.5,0l1.3-0.8C178.7,79.1,178.8,79.1,178.8,79z M176.7,80.2v-0.1h-0.1l-1.3-0.7
			c-0.1-0.1-0.3-0.1-0.5,0l-1.3,0.8h-0.1v0.1v0l0,0c0,0.1,0,0.1,0.1,0.1l1.3,0.8c0.1,0.1,0.4,0.1,0.5,0l1.3-0.8
			C176.7,80.3,176.7,80.2,176.7,80.2z M174.7,81.4v-0.1h-0.1l-1.3-0.7c-0.1-0.1-0.3-0.1-0.5,0l-1.3,0.8h-0.1v0.2v0v0
			c0,0.1,0,0.1,0.1,0.1l1.3,0.8c0.1,0.1,0.3,0.1,0.5,0l1.3-0.8C174.6,81.5,174.7,81.4,174.7,81.4z M172.6,82.6v-0.2h-0.1l-1.3-0.7
			c-0.1-0.1-0.3-0.1-0.5,0l-1.3,0.8h-0.1v0.1v0c0,0,0,0.1,0.1,0.1l1.3,0.8c0.1,0.1,0.4,0.1,0.5,0l1.3-0.8
			C172.6,82.7,172.6,82.6,172.6,82.6z M170.6,83.8v-0.2h-0.1l-1.3-0.7c-0.1-0.1-0.3-0.1-0.5,0l-1.3,0.8h-0.1v0.2l0,0l0,0
			c0,0,0,0.1,0.1,0.1l1.3,0.8c0.1,0.1,0.3,0.1,0.5,0l1.3-0.8C170.6,83.9,170.6,83.8,170.6,83.8z M168.6,84.9v-0.2h-0.1l-1.3-0.7
			c-0.1-0.1-0.3-0.1-0.5,0l-1.3,0.8h-0.1v0.1v0c0,0.1,0,0.1,0.1,0.1l1.3,0.8c0.1,0.1,0.3,0.1,0.5,0l1.3-0.8
			C168.5,85,168.6,85,168.6,84.9z M166.5,86.1V86h-0.1l-1.3-0.7c-0.1-0.1-0.3-0.1-0.5,0l-1.3,0.8h-0.1v0.1l0,0l0,0
			c0,0.1,0,0.1,0.1,0.1l1.3,0.8c0.1,0.1,0.4,0.1,0.5,0l1.3-0.8C166.5,86.2,166.5,86.2,166.5,86.1z M164.5,87.3v-0.1h-0.1l-1.3-0.7
			c-0.1-0.1-0.4-0.1-0.5,0l-1.3,0.7h-0.1v0.1l0,0v0c0,0,0,0.1,0.1,0.1l1.3,0.8c0.1,0.1,0.4,0.1,0.5,0l1.3-0.8
			C164.4,87.4,164.5,87.4,164.5,87.3z M162.4,88.5v-0.2h-0.1l-1.3-0.7c-0.1-0.1-0.3-0.1-0.5,0l-1.3,0.8h-0.1v0.1v0h0
			c0,0.1,0,0.1,0.1,0.1l1.3,0.8c0.1,0.1,0.3,0.1,0.5,0l1.3-0.8C162.4,88.6,162.4,88.5,162.4,88.5z M184,78.3v-0.2l-0.1,0l-1.3-0.8
			c-0.1-0.1-0.3-0.1-0.5,0l-1.3,0.8h-0.1v0.2v0l0,0c0,0,0,0.1,0.1,0.1l1.3,0.8c0.1,0.1,0.4,0.1,0.5,0l1.3-0.8
			C184,78.4,184,78.4,184,78.3z M182,79.5v-0.2h-0.1l-1.3-0.7c-0.1-0.1-0.3-0.1-0.5,0l-1.3,0.8h-0.1v0.1v0l0,0c0,0,0,0.1,0.1,0.1
			l1.3,0.8c0.1,0.1,0.3,0.1,0.5,0l1.3-0.8C181.9,79.6,182,79.6,182,79.5z M179.9,80.7v-0.2h-0.1l-1.3-0.7c-0.1-0.1-0.3-0.1-0.5,0
			l-1.3,0.8h-0.1v0.2v0l0,0c0,0,0,0.1,0.1,0.1l1.3,0.8c0.1,0.1,0.3,0.1,0.5,0l1.3-0.8C179.9,80.8,179.9,80.8,179.9,80.7z
			 M177.9,81.9v-0.2h-0.1l-1.3-0.7c-0.1-0.1-0.3-0.1-0.5,0l-1.3,0.8h-0.1v0.1v0l0,0c0,0,0,0.1,0.1,0.1l1.3,0.8
			c0.1,0.1,0.3,0.1,0.5,0l1.3-0.8C177.9,82,177.9,81.9,177.9,81.9z M175.8,83.1v-0.2h-0.1l-1.3-0.7c-0.1-0.1-0.3-0.1-0.5,0l-1.3,0.8
			h-0.1v0.1v0c0,0,0,0.1,0.1,0.1L174,84c0.1,0.1,0.3,0.1,0.5,0l1.3-0.8C175.8,83.2,175.8,83.1,175.8,83.1z M173.8,84.3v-0.1h-0.1
			l-1.3-0.7c-0.1-0.1-0.3-0.1-0.5,0l-1.3,0.8h-0.1v0.1v0h0c0,0.1,0,0.1,0.1,0.1l1.3,0.8c0.1,0.1,0.4,0.1,0.5,0l1.3-0.8
			C173.8,84.4,173.8,84.3,173.8,84.3z M171.8,85.4v-0.1h-0.1l-1.3-0.7c-0.1-0.1-0.4-0.1-0.5,0l-1.3,0.8h-0.1v0.1v0
			c0,0.1,0,0.1,0.1,0.1l1.3,0.8c0.1,0.1,0.4,0.1,0.5,0l1.3-0.8C171.7,85.6,171.8,85.5,171.8,85.4z M169.7,86.6v-0.2h-0.1l-1.3-0.7
			c-0.1-0.1-0.3-0.1-0.5,0l-1.3,0.7h-0.1v0.2v0l0,0c0,0,0,0.1,0.1,0.1l1.3,0.8c0.1,0.1,0.3,0.1,0.5,0l1.3-0.8
			C169.7,86.7,169.7,86.7,169.7,86.6z M167.7,87.8v-0.2h-0.1l-1.3-0.7c-0.1-0.1-0.3-0.1-0.5,0l-1.3,0.8h-0.1v0.1v0
			c0,0,0,0.1,0.1,0.1l1.3,0.8c0.1,0.1,0.4,0.1,0.5,0l1.3-0.8C167.7,87.9,167.7,87.9,167.7,87.8z M165.6,89v-0.2h-0.1l-1.3-0.7
			c-0.1-0.1-0.3-0.1-0.5,0l-1.3,0.7h-0.1V89v0l0,0c0,0,0,0.1,0.1,0.1l1.3,0.8c0.1,0.1,0.3,0.1,0.5,0l1.3-0.8
			C165.6,89.1,165.6,89.1,165.6,89z M163.6,90.2V90h-0.1l-1.3-0.7c-0.1-0.1-0.3-0.1-0.5,0l-1.3,0.8h-0.1v0.1v0c0,0.1,0,0.1,0.1,0.1
			l1.3,0.8c0.1,0.1,0.3,0.1,0.5,0l1.3-0.8C163.6,90.3,163.6,90.2,163.6,90.2z M161.6,91.2h-0.1l-1.3-0.7c-0.1-0.1-0.3-0.1-0.5,0
			l-1.6,0.9H158v0.1v0v0l0,0c0,0,0,0.1,0.1,0.1l1.3,0.8c0.1,0.1,0.3,0.1,0.5,0l1.6-0.9c0.1,0,0.1-0.1,0.1-0.1l0,0V91.2z M171.7,75.9
			v-0.1h-0.1l-1.3-0.8c-0.1-0.1-0.2-0.1-0.4,0c0,0-0.1,0-0.1,0l-1.3,0.8h-0.1v0.1l-9.1,5.3l-1.3,0.8h-0.1V82v0l0,0c0,0,0,0,0,0
			c0,0,0,0,0,0l0,0c0,0,0,0,0,0c0,0,0,0,0,0c0,0,0,0,0,0c0,0,0,0,0,0l0,0l1.3,0.8c0,0,0.1,0,0.1,0c0,0,0.1,0,0.1,0
			c0.1,0,0.2,0,0.2-0.1l1.3-0.8l10.5-6.1C171.6,76.1,171.7,76,171.7,75.9z M186.8,78L186.8,78v-0.2l-0.1,0l0,0l-0.4-0.2
			c-0.1-0.1-0.3-0.1-0.5,0l-1.2,0.7l-0.2,0v0.2c0,0,0,0.1,0.1,0.1l0.4,0.2c0.1,0.1,0.3,0.1,0.5,0l1.3-0.8
			C186.8,78.1,186.8,78,186.8,78L186.8,78z M184.8,79.2L184.8,79.2V79l-0.1,0c0,0,0,0,0,0l-0.3-0.2c-0.1-0.1-0.4-0.1-0.5,0l-1.2,0.7
			l-0.2,0.1l0,0.2c0,0,0,0.1,0.1,0.1l0.4,0.2c0.1,0.1,0.3,0.1,0.5,0l1.3-0.8C184.7,79.3,184.8,79.2,184.8,79.2z M182.7,80.3
			L182.7,80.3v-0.2l-0.1,0c0,0,0,0,0,0l-0.4-0.2c-0.1-0.1-0.3-0.1-0.5,0l-1.2,0.7l-0.2,0l0,0.2c0,0,0,0.1,0.1,0.1l0.4,0.2
			c0.1,0.1,0.3,0.1,0.5,0l1.3-0.8C182.7,80.4,182.7,80.4,182.7,80.3L182.7,80.3z M180.7,81.5L180.7,81.5v-0.2l-0.1,0c0,0,0,0,0,0
			l-0.4-0.2c-0.1-0.1-0.4-0.1-0.5,0l-1.2,0.7l-0.2,0.1v0.1c0,0.1,0,0.1,0.1,0.1l0.4,0.2c0.1,0.1,0.3,0.1,0.5,0l1.3-0.8
			C180.7,81.6,180.7,81.6,180.7,81.5z M178.7,82.7L178.7,82.7v-0.2l-0.1,0c0,0,0,0,0,0l-0.3-0.2c-0.1-0.1-0.3-0.1-0.5,0l-1.2,0.7
			l-0.2,0v0.1c0,0.1,0,0.1,0.1,0.1l0.3,0.2c0.1,0.1,0.3,0.1,0.5,0l1.3-0.8C178.6,82.8,178.7,82.8,178.7,82.7L178.7,82.7z
			 M176.6,83.9L176.6,83.9v-0.1l-0.1,0c0,0,0,0,0,0l-0.4-0.2c-0.1-0.1-0.3-0.1-0.5,0l-1.2,0.7l-0.2,0v0.2c0,0.1,0,0.1,0.1,0.1
			l0.4,0.2c0.1,0.1,0.3,0.1,0.5,0l1.3-0.8C176.6,84,176.6,83.9,176.6,83.9z M174.6,85.1L174.6,85.1v-0.1l-0.1,0l0,0l-0.4-0.2
			c-0.1-0.1-0.3-0.1-0.5,0l-1.2,0.7l-0.2,0v0.2c0,0,0,0.1,0.1,0.1l0.4,0.2c0.1,0.1,0.3,0.1,0.5,0l1.3-0.8
			C174.6,85.2,174.6,85.1,174.6,85.1L174.6,85.1z M172.6,86.3L172.6,86.3v-0.1l-0.1,0c0,0,0,0,0,0l-0.4-0.2c-0.1-0.1-0.3-0.1-0.5,0
			l-1.2,0.7l-0.2,0.1v0.2c0,0,0,0.1,0.1,0.1l0.3,0.2c0.1,0.1,0.4,0.1,0.5,0l1.3-0.8C172.5,86.4,172.6,86.3,172.6,86.3L172.6,86.3z
			 M170.5,87.5L170.5,87.5v-0.2l-0.1,0l0,0l-0.4-0.2c-0.1-0.1-0.3-0.1-0.5,0l-1.2,0.7l-0.2,0V88c0,0,0,0.1,0.1,0.1l0.4,0.2
			c0.1,0.1,0.3,0.1,0.5,0l1.3-0.8C170.5,87.6,170.5,87.5,170.5,87.5L170.5,87.5z M168.5,88.6L168.5,88.6v-0.2l-0.1,0c0,0,0,0,0,0
			l-0.3-0.2c-0.1-0.1-0.4-0.1-0.5,0l-1.2,0.7l-0.2,0l0,0.2c0,0.1,0,0.1,0.1,0.1l0.4,0.2c0.1,0.1,0.3,0.1,0.5,0l1.3-0.8
			C168.4,88.7,168.5,88.7,168.5,88.6L168.5,88.6z M166.4,89.8L166.4,89.8v-0.2l-0.1,0c0,0,0,0,0,0l-0.4-0.2c-0.1-0.1-0.3-0.1-0.5,0
			l-1.2,0.7l-0.2,0.1v0.1c0,0.1,0,0.1,0.1,0.1l0.3,0.2c0.1,0.1,0.3,0.1,0.5,0l1.3-0.8C166.4,89.9,166.4,89.9,166.4,89.8z M164.4,91
			L164.4,91v-0.2l-0.1,0c0,0,0,0,0,0l-0.3-0.2c-0.1-0.1-0.3-0.1-0.5,0l-1.2,0.7l-0.2,0v0.2c0,0.1,0,0.1,0.1,0.1l0.4,0.2
			c0.1,0.1,0.3,0.1,0.5,0l1.3-0.8C164.4,91.1,164.4,91.1,164.4,91L164.4,91z M162.4,92.2L162.4,92.2v-0.1l-0.1,0c0,0,0,0,0,0
			l-0.4-0.2c-0.1-0.1-0.3-0.1-0.5,0l-1.2,0.7l-0.2,0v0.2c0,0.1,0,0.1,0.1,0.1l0.3,0.2c0.1,0.1,0.4,0.1,0.5,0l1.3-0.8
			C162.3,92.3,162.4,92.2,162.4,92.2z M186,74.6L186,74.6C185.9,74.7,185.9,74.7,186,74.6l-1.4-0.8c-0.1-0.1-0.3-0.1-0.5,0l-2.4,1.4
			l-0.1,0v0.1l0,0v0l0,0c0,0.1,0,0.1,0.1,0.1l1.3,0.8c0.1,0.1,0.4,0.1,0.5,0l2.4-1.4c0.1,0,0.1-0.1,0.1-0.1V74.6z M183.9,73.4
			L183.9,73.4c-0.1,0-0.1,0-0.1,0l-1.3-0.8c-0.1-0.1-0.3-0.1-0.5,0l-3.4,2l-0.2,0v0.2c0,0.1,0,0.1,0.1,0.1l1.3,0.8
			c0.1,0.1,0.3,0.1,0.5,0l3.5-2c0.1,0,0.1-0.1,0.1-0.1V73.4z M181.9,72.2L181.9,72.2L181.9,72.2l-1.4-0.7c-0.1-0.1-0.4-0.1-0.5,0
			l-3.4,2l-0.2,0v0.2c0,0,0,0.1,0.1,0.1l1.3,0.8c0.1,0.1,0.3,0.1,0.5,0l3.5-2c0.1,0,0.1-0.1,0.1-0.1V72.2z M160.4,89.5L160.4,89.5
			L160.4,89.5l-1.4-0.7c-0.1-0.1-0.4-0.1-0.5,0l-2.5,1.4l-0.1,0v0.1l0,0v0l0,0c0,0,0,0.1,0.1,0.1l1.3,0.8c0.1,0.1,0.3,0.1,0.5,0
			l2.5-1.5c0.1,0,0.1-0.1,0.1-0.1V89.5z M159.2,87.8l-1.3-0.8c-0.1-0.1-0.4-0.1-0.5,0l-3.5,2.1c-0.1,0.1-0.1,0.2,0,0.3l1.3,0.8
			c0.1,0.1,0.4,0.1,0.5,0l3.5-2.1C159.4,87.9,159.4,87.8,159.2,87.8z M155.1,85.6L155.1,85.6v-0.2l-0.1,0c0,0,0,0,0,0l-0.3-0.2
			c-0.1-0.1-0.3-0.1-0.5,0l-1.2,0.7l-0.2,0v0.2c0,0.1,0,0.1,0.1,0.1l0.4,0.2c0.1,0.1,0.3,0.1,0.5,0l1.3-0.8
			C155.1,85.7,155.1,85.6,155.1,85.6L155.1,85.6z M154.1,85L154.1,85v-0.2l-0.1,0l0,0l-0.4-0.2c-0.1-0.1-0.3-0.1-0.5,0l-1.2,0.7
			l-0.2,0l0,0.2c0,0,0,0.1,0.1,0.1l0.4,0.2c0.1,0.1,0.3,0.1,0.5,0l1.3-0.8C154.1,85.1,154.1,85.1,154.1,85z M189.2,76.6v-0.2l-0.1,0
			l0,0l-0.4-0.2c-0.1-0.1-0.3-0.1-0.5,0l-1.5,0.9l-0.2,0.1v0.2l0,0c0,0.1,0,0.1,0.1,0.1l0.3,0.2c0.1,0.1,0.4,0.1,0.5,0l1.6-0.9
			C189.1,76.7,189.2,76.7,189.2,76.6z"/>
		<path class="st27" d="M184.9,76l1.3,0.8c0.1,0.1,0.3,0.1,0.5,0L188,76c0.1-0.1,0.1-0.2,0-0.3l-1.3-0.8c-0.1-0.1-0.3-0.1-0.5,0
			l-1.3,0.8C184.8,75.8,184.8,75.9,184.9,76z M182.9,77.2l1.3,0.8c0.1,0.1,0.3,0.1,0.5,0l1.3-0.8c0.1-0.1,0.1-0.2,0-0.3l-1.3-0.8
			c-0.1-0.1-0.4-0.1-0.5,0l-1.3,0.8C182.7,77,182.7,77.1,182.9,77.2z M180.8,78.4l1.3,0.8c0.1,0.1,0.4,0.1,0.5,0l1.3-0.8
			c0.1-0.1,0.1-0.2,0-0.3l-1.3-0.8c-0.1-0.1-0.3-0.1-0.5,0l-1.3,0.8C180.7,78.2,180.7,78.3,180.8,78.4z M178.8,79.6l1.3,0.8
			c0.1,0.1,0.3,0.1,0.5,0l1.3-0.8c0.1-0.1,0.1-0.2,0-0.3l-1.3-0.8c-0.1-0.1-0.3-0.1-0.5,0l-1.3,0.8
			C178.6,79.3,178.6,79.5,178.8,79.6z M176.7,80.7l1.3,0.8c0.1,0.1,0.3,0.1,0.5,0l1.3-0.8c0.1-0.1,0.1-0.2,0-0.3l-1.3-0.8
			c-0.1-0.1-0.3-0.1-0.5,0l-1.3,0.8C176.6,80.5,176.6,80.7,176.7,80.7z M174.7,81.9l1.3,0.8c0.1,0.1,0.3,0.1,0.5,0l1.3-0.8
			c0.1-0.1,0.1-0.2,0-0.3l-1.3-0.8c-0.1-0.1-0.3-0.1-0.5,0l-1.3,0.8C174.6,81.7,174.6,81.8,174.7,81.9z M172.7,83.1l1.3,0.8
			c0.1,0.1,0.3,0.1,0.5,0l1.3-0.8c0.1-0.1,0.1-0.2,0-0.3l-1.3-0.8c-0.1-0.1-0.4-0.1-0.5,0l-1.3,0.8C172.5,82.9,172.5,83,172.7,83.1z
			 M170.6,84.3l1.3,0.8c0.1,0.1,0.4,0.1,0.5,0l1.3-0.8c0.1-0.1,0.1-0.2,0-0.3l-1.3-0.8c-0.1-0.1-0.3-0.1-0.5,0l-1.3,0.8
			C170.5,84.1,170.5,84.2,170.6,84.3z M168.6,85.5l1.3,0.8c0.1,0.1,0.4,0.1,0.5,0l1.3-0.8c0.1-0.1,0.1-0.2,0-0.3l-1.3-0.8
			c-0.1-0.1-0.4-0.1-0.5,0l-1.3,0.8C168.4,85.3,168.4,85.4,168.6,85.5z M166.6,86.7l1.3,0.8c0.1,0.1,0.3,0.1,0.5,0l1.3-0.8
			c0.1-0.1,0.1-0.2,0-0.3l-1.3-0.8c-0.1-0.1-0.4-0.1-0.5,0l-1.3,0.8C166.4,86.4,166.4,86.6,166.6,86.7z M164.5,87.8l1.3,0.8
			c0.1,0.1,0.3,0.1,0.5,0l1.3-0.8c0.1-0.1,0.1-0.2,0-0.3l-1.3-0.8c-0.1-0.1-0.3-0.1-0.5,0l-1.3,0.8
			C164.4,87.6,164.4,87.8,164.5,87.8z M177.6,77.8l1.3,0.8c0.1,0.1,0.4,0.1,0.5,0l1.3-0.8c0.1-0.1,0.1-0.2,0-0.3l-1.3-0.8
			c-0.1-0.1-0.4-0.1-0.5,0l-1.3,0.8C177.5,77.7,177.5,77.8,177.6,77.8z M175.6,79l1.3,0.8c0.1,0.1,0.3,0.1,0.5,0l1.3-0.8
			c0.1-0.1,0.1-0.2,0-0.3l-1.3-0.8c-0.1-0.1-0.4-0.1-0.5,0l-1.3,0.8C175.4,78.8,175.4,78.9,175.6,79z M173.5,80.2l1.3,0.8
			c0.1,0.1,0.4,0.1,0.5,0l1.3-0.8c0.1-0.1,0.1-0.2,0-0.3l-1.3-0.8c-0.1-0.1-0.3-0.1-0.5,0l-1.3,0.8C173.4,80,173.4,80.1,173.5,80.2z
			 M171.5,81.4l1.3,0.8c0.1,0.1,0.3,0.1,0.5,0l1.3-0.8c0.1-0.1,0.1-0.2,0-0.3l-1.3-0.8c-0.1-0.1-0.3-0.1-0.5,0l-1.3,0.8
			C171.4,81.2,171.4,81.3,171.5,81.4z M169.5,82.6l1.3,0.8c0.1,0.1,0.3,0.1,0.5,0l1.3-0.8c0.1-0.1,0.1-0.2,0-0.3l-1.3-0.8
			c-0.1-0.1-0.3-0.1-0.5,0l-1.3,0.8C169.3,82.4,169.3,82.5,169.5,82.6z M167.4,83.8l1.3,0.8c0.1,0.1,0.3,0.1,0.5,0l1.3-0.8
			c0.1-0.1,0.1-0.2,0-0.3l-1.3-0.8c-0.1-0.1-0.3-0.1-0.5,0l-1.3,0.8C167.3,83.6,167.3,83.7,167.4,83.8z M165.4,84.9l1.3,0.8
			c0.1,0.1,0.3,0.1,0.5,0l1.3-0.8c0.1-0.1,0.1-0.2,0-0.3l-1.3-0.8c-0.1-0.1-0.3-0.1-0.5,0l-1.3,0.8
			C165.2,84.8,165.2,84.9,165.4,84.9z M163.3,86.1l1.3,0.8c0.1,0.1,0.3,0.1,0.5,0l1.3-0.8c0.1-0.1,0.1-0.2,0-0.3l-1.3-0.8
			c-0.1-0.1-0.3-0.1-0.5,0l-1.3,0.8C163.2,85.9,163.2,86.1,163.3,86.1z M161.3,87.3l1.3,0.8c0.1,0.1,0.4,0.1,0.5,0l1.3-0.8
			c0.1-0.1,0.1-0.2,0-0.3l-1.3-0.8c-0.1-0.1-0.4-0.1-0.5,0l-1.3,0.8C161.2,87.1,161.2,87.2,161.3,87.3z M159.3,88.5l1.3,0.8
			c0.1,0.1,0.3,0.1,0.5,0l1.3-0.8c0.1-0.1,0.1-0.2,0-0.3l-1.3-0.8c-0.1-0.1-0.3-0.1-0.5,0l-1.3,0.8
			C159.1,88.3,159.1,88.4,159.3,88.5z M162.5,89l1.3,0.8c0.1,0.1,0.3,0.1,0.5,0l1.3-0.8c0.1-0.1,0.1-0.2,0-0.3l-1.3-0.8
			c-0.1-0.1-0.3-0.1-0.5,0l-1.3,0.8C162.3,88.8,162.3,88.9,162.5,89z M160.4,90.2l1.3,0.8c0.1,0.1,0.3,0.1,0.5,0l1.3-0.8
			c0.1-0.1,0.1-0.2,0-0.3l-1.3-0.8c-0.1-0.1-0.3-0.1-0.5,0l-1.3,0.8C160.3,90,160.3,90.1,160.4,90.2z M176.6,71.2l1.3,0.8
			c0.1,0.1,0.3,0.1,0.5,0l1.3-0.8c0.1-0.1,0.1-0.2,0-0.3l-1.3-0.8c-0.1-0.1-0.3-0.1-0.5,0l-1.3,0.8C176.5,71,176.5,71.1,176.6,71.2z
			 M174.6,72.4l1.3,0.8c0.1,0.1,0.4,0.1,0.5,0l1.3-0.8c0.1-0.1,0.1-0.2,0-0.3l-1.3-0.8c-0.1-0.1-0.3-0.1-0.5,0l-1.3,0.8
			C174.5,72.2,174.5,72.3,174.6,72.4z M172.6,73.6l1.3,0.8c0.1,0.1,0.4,0.1,0.5,0l1.3-0.8c0.1-0.1,0.1-0.2,0-0.3l-1.3-0.8
			c-0.1-0.1-0.4-0.1-0.5,0l-1.3,0.8C172.4,73.4,172.4,73.5,172.6,73.6z M170.5,74.8l1.3,0.8c0.1,0.1,0.3,0.1,0.5,0l1.3-0.8
			c0.1-0.1,0.1-0.2,0-0.3l-1.3-0.8c-0.1-0.1-0.3-0.1-0.5,0l-1.3,0.8C170.4,74.6,170.4,74.7,170.5,74.8z M179.6,76.7l1.3,0.8
			c0.1,0.1,0.3,0.1,0.5,0l1.3-0.8c0.1-0.1,0.1-0.2,0-0.3l-1.3-0.8c-0.1-0.1-0.3-0.1-0.5,0l-1.3,0.8
			C179.5,76.5,179.5,76.6,179.6,76.7z M158.1,91.6l1.3,0.8c0.1,0.1,0.3,0.1,0.5,0l1.6-0.9c0.1-0.1,0.1-0.2,0-0.3l-1.3-0.8
			c-0.1-0.1-0.3-0.1-0.5,0l-1.6,0.9C157.9,91.4,157.9,91.5,158.1,91.6z M158,82l1.3,0.8c0.1,0.1,0.3,0.1,0.5,0l11.8-6.8
			c0.1-0.1,0.1-0.2,0-0.3l-1.3-0.8c-0.1-0.1-0.4-0.1-0.5,0L158,81.8C157.9,81.8,157.9,82,158,82z M184.6,78.5l0.4,0.2
			c0.1,0.1,0.3,0.1,0.5,0l1.3-0.8c0.1-0.1,0.1-0.2,0-0.3l-0.4-0.2c-0.1-0.1-0.3-0.1-0.5,0l-1.3,0.8
			C184.5,78.3,184.5,78.5,184.6,78.5z M182.6,79.7l0.3,0.2c0.1,0.1,0.4,0.1,0.5,0l1.3-0.8c0.1-0.1,0.1-0.2,0-0.3l-0.4-0.2
			c-0.1-0.1-0.3-0.1-0.5,0l-1.3,0.8C182.4,79.5,182.4,79.7,182.6,79.7z M180.5,80.9l0.4,0.2c0.1,0.1,0.3,0.1,0.5,0l1.3-0.8
			c0.1-0.1,0.1-0.2,0-0.3l-0.4-0.2c-0.1-0.1-0.3-0.1-0.5,0l-1.3,0.8C180.4,80.7,180.4,80.8,180.5,80.9z M178.5,82.1l0.4,0.2
			c0.1,0.1,0.3,0.1,0.5,0l1.3-0.8c0.1-0.1,0.1-0.2,0-0.3l-0.4-0.2c-0.1-0.1-0.4-0.1-0.5,0l-1.3,0.8C178.3,81.9,178.3,82,178.5,82.1z
			 M176.4,83.3l0.3,0.2c0.1,0.1,0.3,0.1,0.5,0l1.3-0.8c0.1-0.1,0.1-0.2,0-0.3l-0.3-0.2c-0.1-0.1-0.3-0.1-0.5,0l-1.3,0.8
			C176.3,83.1,176.3,83.2,176.4,83.3z M174.4,84.5l0.4,0.2c0.1,0.1,0.4,0.1,0.5,0l1.3-0.8c0.1-0.1,0.1-0.2,0-0.3l-0.4-0.2
			c-0.1-0.1-0.3-0.1-0.5,0l-1.3,0.8C174.3,84.3,174.3,84.4,174.4,84.5z M172.4,85.7l0.4,0.2c0.1,0.1,0.3,0.1,0.5,0l1.3-0.8
			c0.1-0.1,0.1-0.2,0-0.3l-0.4-0.2c-0.1-0.1-0.3-0.1-0.5,0l-1.3,0.8C172.2,85.4,172.2,85.6,172.4,85.7z M170.3,86.8l0.3,0.2
			c0.1,0.1,0.4,0.1,0.5,0l1.3-0.8c0.1-0.1,0.1-0.2,0-0.3l-0.3-0.2c-0.1-0.1-0.4-0.1-0.5,0l-1.3,0.8
			C170.2,86.6,170.2,86.8,170.3,86.8z M168.3,88l0.4,0.2c0.1,0.1,0.3,0.1,0.5,0l1.3-0.8c0.1-0.1,0.1-0.2,0-0.3l-0.4-0.2
			c-0.1-0.1-0.3-0.1-0.5,0l-1.3,0.8C168.1,87.8,168.1,87.9,168.3,88z M166.2,89.2l0.4,0.2c0.1,0.1,0.3,0.1,0.5,0l1.3-0.8
			c0.1-0.1,0.1-0.2,0-0.3l-0.3-0.2c-0.1-0.1-0.4-0.1-0.5,0l-1.3,0.8C166.1,89,166.1,89.1,166.2,89.2z M164.2,90.4l0.3,0.2
			c0.1,0.1,0.3,0.1,0.5,0l1.3-0.8c0.1-0.1,0.1-0.2,0-0.3l-0.4-0.2c-0.1-0.1-0.3-0.1-0.5,0l-1.3,0.8
			C164.1,90.2,164.1,90.3,164.2,90.4z M162.2,91.6l0.4,0.2c0.1,0.1,0.3,0.1,0.5,0l1.3-0.8c0.1-0.1,0.1-0.2,0-0.3l-0.3-0.2
			c-0.1-0.1-0.4-0.1-0.5,0l-1.3,0.8C162,91.4,162,91.5,162.2,91.6z M160.1,92.8l0.3,0.2c0.1,0.1,0.3,0.1,0.5,0l1.3-0.8
			c0.1-0.1,0.1-0.2,0-0.3l-0.4-0.2c-0.1-0.1-0.3-0.1-0.5,0l-1.3,0.8C160,92.6,160,92.7,160.1,92.8z M186.6,77.4l0.3,0.2
			c0.1,0.1,0.4,0.1,0.5,0l1.6-0.9c0.1-0.1,0.1-0.2,0-0.3l-0.4-0.2c-0.1-0.1-0.4-0.1-0.5,0l-1.6,0.9
			C186.5,77.2,186.5,77.3,186.6,77.4z M181.7,75.5l1.3,0.8c0.1,0.1,0.4,0.1,0.5,0l2.4-1.4c0.1-0.1,0.1-0.2,0-0.3l-1.3-0.8
			c-0.1-0.1-0.3-0.1-0.5,0l-2.5,1.4C181.5,75.3,181.5,75.4,181.7,75.5z M178.6,74.9l1.3,0.8c0.1,0.1,0.3,0.1,0.5,0l3.5-2
			c0.1-0.1,0.1-0.2,0-0.3l-1.3-0.8c-0.1-0.1-0.3-0.1-0.5,0l-3.5,2C178.5,74.7,178.5,74.8,178.6,74.9z M176.5,73.7l1.3,0.8
			c0.1,0.1,0.3,0.1,0.5,0l3.5-2c0.1-0.1,0.1-0.2,0-0.3l-1.3-0.8c-0.1-0.1-0.3-0.1-0.5,0l-3.5,2C176.4,73.5,176.4,73.6,176.5,73.7z
			 M156,90.4l1.3,0.8c0.1,0.1,0.3,0.1,0.5,0l2.5-1.5c0.1-0.1,0.1-0.2,0-0.3l-1.3-0.8c-0.1-0.1-0.3-0.1-0.5,0l-2.5,1.5
			C155.9,90.2,155.9,90.3,156,90.4z M153.9,89.2l1.3,0.8c0.1,0.1,0.4,0.1,0.5,0l3.5-2c0.1-0.1,0.1-0.2,0-0.3l-1.3-0.8
			c-0.1-0.1-0.3-0.1-0.5,0l-3.5,2C153.8,89,153.8,89.1,153.9,89.2z M152.9,86.1l0.4,0.2c0.1,0.1,0.3,0.1,0.5,0l1.3-0.8
			c0.1-0.1,0.1-0.2,0-0.3l-0.4-0.2c-0.1-0.1-0.3-0.1-0.5,0l-1.3,0.8C152.7,85.9,152.7,86.1,152.9,86.1z M151.9,85.6l0.4,0.2
			c0.1,0.1,0.3,0.1,0.5,0L154,85c0.1-0.1,0.1-0.2,0-0.3l-0.4-0.2c-0.1-0.1-0.3-0.1-0.5,0l-1.3,0.8C151.8,85.4,151.8,85.5,151.9,85.6
			z M160.2,85.5l1.3,0.8c0.1,0.1,0.3,0.1,0.5,0l1.3-0.8c0.1-0.1,0.1-0.2,0-0.3l-1.3-0.8c-0.1-0.1-0.4-0.1-0.5,0l-1.3,0.8
			C160.1,85.3,160.1,85.4,160.2,85.5z M158.2,86.7l1.3,0.8c0.1,0.1,0.4,0.1,0.5,0l1.3-0.8c0.1-0.1,0.1-0.2,0-0.3l-1.3-0.8
			c-0.1-0.1-0.3-0.1-0.5,0l-1.3,0.8C158.1,86.5,158.1,86.6,158.2,86.7z M158.2,84.3l1.3,0.8c0.1,0.1,0.4,0.1,0.5,0l1.3-0.8
			c0.1-0.1,0.1-0.2,0-0.3l-1.3-0.8c-0.1-0.1-0.4-0.1-0.5,0l-1.3,0.8C158,84.1,158,84.2,158.2,84.3z M156.1,85.5l1.3,0.8
			c0.1,0.1,0.3,0.1,0.5,0l1.3-0.8c0.1-0.1,0.1-0.2,0-0.3l-1.3-0.8c-0.1-0.1-0.3-0.1-0.5,0l-1.3,0.8C156,85.3,156,85.4,156.1,85.5z
			 M154.1,86.7l1.3,0.8c0.1,0.1,0.3,0.1,0.5,0l1.3-0.8c0.1-0.1,0.1-0.2,0-0.3l-1.3-0.8c-0.1-0.1-0.3-0.1-0.5,0l-1.3,0.8
			C154,86.5,154,86.6,154.1,86.7z M151.9,88l1.3,0.8c0.1,0.1,0.3,0.1,0.5,0l1.5-0.9c0.1-0.1,0.1-0.2,0-0.3l-1.3-0.8
			c-0.1-0.1-0.3-0.1-0.5,0l-1.5,0.9C151.7,87.8,151.7,87.9,151.9,88z M164.3,83.2l1.3,0.8c0.1,0.1,0.3,0.1,0.5,0l1.3-0.8
			c0.1-0.1,0.1-0.2,0-0.3l-1.3-0.8c-0.1-0.1-0.3-0.1-0.5,0l-1.3,0.8C164.2,83,164.2,83.1,164.3,83.2z M162.3,84.3l1.3,0.8
			c0.1,0.1,0.3,0.1,0.5,0l1.3-0.8c0.1-0.1,0.1-0.2,0-0.3l-1.3-0.8c-0.1-0.1-0.3-0.1-0.5,0l-1.3,0.8
			C162.1,84.2,162.1,84.3,162.3,84.3z M162.2,82l1.3,0.8c0.1,0.1,0.3,0.1,0.5,0l1.3-0.8c0.1-0.1,0.1-0.2,0-0.3l-1.3-0.8
			c-0.1-0.1-0.3-0.1-0.5,0l-1.3,0.8C162.1,81.8,162.1,81.9,162.2,82z M160.2,83.1l1.3,0.8c0.1,0.1,0.4,0.1,0.5,0l1.3-0.8
			c0.1-0.1,0.1-0.2,0-0.3l-1.3-0.8c-0.1-0.1-0.3-0.1-0.5,0l-1.3,0.8C160.1,82.9,160.1,83.1,160.2,83.1z M168.4,80.8l1.3,0.8
			c0.1,0.1,0.3,0.1,0.5,0l1.3-0.8c0.1-0.1,0.1-0.2,0-0.3l-1.3-0.8c-0.1-0.1-0.3-0.1-0.5,0l-1.3,0.8
			C168.3,80.6,168.3,80.7,168.4,80.8z M166.4,82l1.3,0.8c0.1,0.1,0.3,0.1,0.5,0l1.3-0.8c0.1-0.1,0.1-0.2,0-0.3l-1.3-0.8
			c-0.1-0.1-0.3-0.1-0.5,0l-1.3,0.8C166.2,81.8,166.2,81.9,166.4,82z M166.3,79.6l1.3,0.8c0.1,0.1,0.3,0.1,0.5,0l1.3-0.8
			c0.1-0.1,0.1-0.2,0-0.3l-1.3-0.8c-0.1-0.1-0.3-0.1-0.5,0l-1.3,0.8C166.2,79.4,166.2,79.5,166.3,79.6z M164.3,80.8l1.3,0.8
			c0.1,0.1,0.3,0.1,0.5,0l1.3-0.8c0.1-0.1,0.1-0.2,0-0.3l-1.3-0.8c-0.1-0.1-0.3-0.1-0.5,0l-1.3,0.8
			C164.1,80.6,164.1,80.7,164.3,80.8z M172.5,78.4l1.3,0.8c0.1,0.1,0.4,0.1,0.5,0l1.3-0.8c0.1-0.1,0.1-0.2,0-0.3l-1.3-0.8
			c-0.1-0.1-0.4-0.1-0.5,0l-1.3,0.8C172.3,78.2,172.3,78.3,172.5,78.4z M170.4,79.6l1.3,0.8c0.1,0.1,0.3,0.1,0.5,0l1.3-0.8
			c0.1-0.1,0.1-0.2,0-0.3l-1.3-0.8c-0.1-0.1-0.3-0.1-0.5,0l-1.3,0.8C170.3,79.4,170.3,79.5,170.4,79.6z M170.4,77.2l1.3,0.8
			c0.1,0.1,0.3,0.1,0.5,0l1.3-0.8c0.1-0.1,0.1-0.2,0-0.3l-1.3-0.8c-0.1-0.1-0.3-0.1-0.5,0l-1.3,0.8C170.3,77,170.3,77.1,170.4,77.2z
			 M168.4,78.4l1.3,0.8c0.1,0.1,0.3,0.1,0.5,0l1.3-0.8c0.1-0.1,0.1-0.2,0-0.3l-1.3-0.8c-0.1-0.1-0.3-0.1-0.5,0l-1.3,0.8
			C168.2,78.2,168.2,78.3,168.4,78.4z M176.6,76.1l1.3,0.8c0.1,0.1,0.4,0.1,0.5,0l1.3-0.8c0.1-0.1,0.1-0.2,0-0.3l-1.3-0.8
			c-0.1-0.1-0.4-0.1-0.5,0l-1.3,0.8C176.4,75.8,176.4,76,176.6,76.1z M174.5,77.2l1.3,0.8c0.1,0.1,0.3,0.1,0.5,0l1.3-0.8
			c0.1-0.1,0.1-0.2,0-0.3l-1.3-0.8c-0.1-0.1-0.3-0.1-0.5,0l-1.3,0.8C174.4,77,174.4,77.2,174.5,77.2z M174.5,74.8l1.3,0.8
			c0.1,0.1,0.4,0.1,0.5,0l1.3-0.8c0.1-0.1,0.1-0.2,0-0.3l-1.3-0.8c-0.1-0.1-0.4-0.1-0.5,0l-1.3,0.8
			C174.3,74.7,174.3,74.8,174.5,74.8z M172.4,76l1.3,0.8c0.1,0.1,0.3,0.1,0.5,0l1.3-0.8c0.1-0.1,0.1-0.2,0-0.3l-1.3-0.8
			c-0.1-0.1-0.4-0.1-0.5,0l-1.3,0.8C172.3,75.8,172.3,76,172.4,76z M156,83.2l1.3,0.8c0.1,0.1,0.3,0.1,0.5,0l1.3-0.8
			c0.1-0.1,0.1-0.2,0-0.3l-1.3-0.8c-0.1-0.1-0.3-0.1-0.5,0l-1.3,0.8C155.9,83,155.9,83.2,156,83.2z M153.9,84.4l1.3,0.8
			c0.1,0.1,0.3,0.1,0.5,0l1.3-0.8c0.1-0.1,0.1-0.2,0-0.3l-1.3-0.8c-0.1-0.1-0.4-0.1-0.5,0l-1.3,0.8
			C153.8,84.2,153.8,84.3,153.9,84.4z M149.8,86.8l1.3,0.8c0.1,0.1,0.4,0.1,0.5,0l1.3-0.8c0.1-0.1,0.1-0.2,0-0.3l-1.3-0.8
			c-0.1-0.1-0.3-0.1-0.5,0l-1.3,0.8C149.7,86.6,149.7,86.7,149.8,86.8z"/>
		<path class="st28" d="M152.5,105.9l8.8-5.1c0.6-0.4,0.5-1-0.2-1.4l-11.9-6.9c-0.7-0.4-1.8-0.4-2.4-0.1l-8.8,5.1
			c-0.6,0.4-0.5,1,0.2,1.4l11.9,6.9C150.8,106.2,151.9,106.2,152.5,105.9z"/>
		<path class="st24" d="M149.9,101.7c0,0-4-2.4-4.4-2.6c-0.8-0.6-0.6-1-0.3-1.4c0.3-0.4,2.2-1.8,4.5-1.4c2.3,0.4,4.2,2.9,4.4,3.4
			c0.2,0.6,0,1-0.8,1.4C152.5,101.6,151.2,102.3,149.9,101.7z"/>
		<path class="st29" d="M149.9,100.9c0,0-4-2.4-4.4-2.6c-0.8-0.6-0.6-1-0.3-1.4c0.3-0.5,2.2-1.8,4.5-1.4c2.3,0.4,4.2,2.9,4.4,3.4
			c0.2,0.6,0,1-0.8,1.4C152.5,100.8,151.2,101.6,149.9,100.9z"/>
		<path class="st17" d="M218.7,88.2l-9.9-5.7c-0.6-0.4-1.6-0.4-2.2,0l-0.7,0.4l-0.7-0.4c-0.6-0.4-1.6-0.4-2.2,0l-27.5,15.8
			c-0.6,0.3-0.6,0.9,0,1.3l9.9,5.7c0.3,0.2,0.8,0.2,1.2,0.1c1.2,0.1,3.6,0.1,3.9-0.1l28.1-16.2C219.1,88.8,219.1,88.4,218.7,88.2z"
			/>
		<path class="st24" d="M210.8,90.4l-6.5-19l-5.4,3.1v0l0,11.4c-0.1,0-0.2,0-0.4,0c-0.9-0.1-1.8,0.1-2.7,0.6l-8.5,4.7
			c-0.2,0.1-0.4,0.3-0.5,0.5l-0.2-0.1l0,0.9c0,0.5,0.3,1.1,0.8,1.4l8.9,5.1l0.1,0c0.4,0.2,0.8,0.4,1.2,0.5c0,0,0,0,0.1,0
			c0.1,0,0.2,0.1,0.3,0.1c0.2,0.1,0.4,0.1,0.7,0.1c0.9,0.1,1.8-0.1,2.6-0.5c0.1,0,0.1,0,0.2-0.1c0.1,0,0.2-0.1,0.2-0.1l3.7-2.1
			l4.1-2.4c0.3-0.2,0.5-0.3,0.7-0.6c0.3-0.3,0.5-0.6,0.7-0.9c0.1-0.1,0.1-0.3,0.2-0.4c0-0.1,0.1-0.3,0.1-0.4
			C211.1,91.7,211,91,210.8,90.4z"/>
		
			<linearGradient id="SVGID_4_" gradientUnits="userSpaceOnUse" x1="177.521" y1="136.0064" x2="212.728" y2="196.9869" gradientTransform="matrix(1 0 0 -1 0 232)">
			<stop  offset="0" style="stop-color:#A0A6C0"/>
			<stop  offset="1.400000e-02" style="stop-color:#A0A6C0"/>
			<stop  offset="0.402" style="stop-color:#A0A6C0"/>
			<stop  offset="0.418" style="stop-color:#A0A6C0"/>
			<stop  offset="0.435" style="stop-color:#E7E7F0"/>
			<stop  offset="1" style="stop-color:#E7E7F0"/>
		</linearGradient>
		<path class="st30" d="M216,37.7L177.3,60c-0.8,0.5-1.6,1.6-1.7,2.5L173,92.2c-0.1,0.6,0.1,1,0.4,1.2l0,0l1.4,1l1.6-2.1l35.9-20.7
			c1.2-0.7,2.2-2.3,2.3-3.5l2.5-27.8l1.4-1.7l-1.5-1c-0.1,0-0.2-0.1-0.4-0.1C216.5,37.4,216.3,37.5,216,37.7z"/>
		<path class="st24" d="M218.9,39.4l-2.7,29.7c-0.1,1.3-1.2,2.8-2.3,3.5l-37.5,21.7c-1.2,0.7-2,0.2-1.9-1.1l2.7-29.7
			c0-0.4,0.2-0.9,0.5-1.3c0.3-0.5,0.7-0.9,1.2-1.2l38.7-22.4c0.4-0.2,0.8-0.3,1.1-0.1C218.8,38.7,218.9,39,218.9,39.4z"/>
		<path class="st26" d="M209.9,89.6l-5.4-18l-5.2,3l-0.9,10.6c-1-0.2-2,0-2.9,0.5l-8.1,4.7c-1,0.6-1,2,0,2.6l8.5,4.9
			c1.5,0.9,3.5,0.9,5,0l7.6-4.4C209.8,92.7,210.4,91.1,209.9,89.6z"/>
		<path class="st31" d="M200.5,70.3c-10.3,6.9-18-0.1-22.9-8.1c0.3-0.5,0.7-0.9,1.2-1.2l38.7-22.4c0.4-0.2,0.8-0.3,1.1-0.1
			C218.6,38.6,219.9,57.4,200.5,70.3z"/>
		<path class="st32" d="M211.2,92.2c0,0.1-0.1,0.3-0.1,0.4c-0.1,0.1-0.1,0.3-0.2,0.4c-0.2,0.3-0.4,0.6-0.6,0.9
			c-0.2,0.2-0.5,0.4-0.7,0.6l-4.1,2.4l-3.7,2.1c-0.1,0-0.1,0.1-0.2,0.1c-0.1,0-0.1,0-0.2,0.1c-0.6,0.3-1.5,0.5-2.5,0.5
			c-0.2,0-0.5,0-0.7-0.1c-0.1,0-0.2,0-0.3-0.1c0,0,0,0-0.1,0v-0.7c0.8,0.1,1.4-0.2,1.4-1.7l0,0l0.1-22.5v0l5.4-3.1l6.4,19
			C211.3,91,211.3,91.7,211.2,92.2z"/>
		<path class="st24" d="M199.2,97.1v1.7c0,0.3-0.4,0.6-0.6,0.8l0,0c-0.2,0-0.4-0.1-0.7-0.1c-0.1,0-0.2,0-0.3-0.1c0,0,0,0-0.1,0v0
			c-0.4-0.1-0.8-0.3-1.2-0.5l-0.1,0c-0.2-0.4-0.5-1.1,0.1-0.8c1.7,0.8,2-0.5,2-0.5l0-12v-4.1l0.9-6.9L199.2,97.1z"/>
		<path class="st1" d="M117,79.6c2.8,5.8,30.1,3.4,31.9,3.5c1.9,0.1,2.4,1.3,3.8,2.1c1.5,0.8,4.2,1.2,4.2,1.2s2-0.6,3-0.9
			s1.3-1.5,1.3-1.5l1,0.4l1.6-0.3l0.8-1.2l-2.2-0.9l-4-3.4c0.1,0.1,2.5,1.7,3.2,1.9c0.7,0.2,2.4,0.2,2.4-0.2c0-0.4,0-0.7-1.6-1.4
			c-1.6-0.7-2.2-1.6-3.6-1.6c-1.4,0-4,0.1-9.1,0.6c-5.2,0.5-26.3-3.8-26.3-3.8s-6.5,1.7-6.6,4.9C116.9,79.2,116.9,79.4,117,79.6z"/>
		<path class="st33" d="M117,79.6c2.8,5.8,30.1,3.4,31.9,3.5c1.9,0.1,2.4,1.3,3.8,2.1c1.5,0.8,4.2,1.2,4.2,1.2s2-0.6,3-0.9
			s1.3-1.5,1.3-1.5l-2.1-1.5l-1-0.5c0,0,0.3,1.3,0.7,1.6c0.4,0.2,1.9,0.9,1.9,0.9l-1,0.9c0,0-2.5,0.8-3.1,0.9
			c-0.5,0.1-4.9-1.9-5.1-2.2c-0.2-0.3-1.7-1.1-2.1-1.2c-2.2,0.2-16.6,0.3-19.7,0.1c-3.1-0.1-6.1-0.5-9.1-1.2
			c-2.9-0.7-3.8-2.8-3.8-2.8C116.9,79.2,116.9,79.4,117,79.6z"/>
		<path class="st1" d="M162.5,73.7c0.3,1,0.6,1.4,0.6,1.6c0,0,0,0,0,0c0,0,0,0,0,0c0.4,0.4,0.9,0.9,1.3,1.1c0.9,0.4,2.6,2.6,3,2.7
			c0.4,0.1,0.8-0.3,1.3-0.2c0.1,0,0.2,0,0.3,0c0,0,0,0,0,0c0,0,0.1,0,0.1-0.1c0,0,0,0,0,0c0,0,0-0.1,0.1-0.1c0,0,0.1-0.1,0.1-0.1
			c0,0,0,0,0,0c0,0,0,0,0,0c0.1-0.2,0.2-0.3,0.2-0.3l0.3-0.2l0.5-0.3c0,0,0,0,0.1,0.1l0,0c0,0,0,0,0,0c0,0,0.1,0,0.1,0.1
			c0,0,0,0,0.1,0c0,0,0.1,0,0.1,0c0.1,0,0.1,0,0.1,0c0.1,0,0.1,0,0.2,0c0.2,0,0.4-0.1,0.6-0.3c0.5-0.4,1.5-1.5,2-2.1
			c0.3-0.3,0.3-0.8,0.1-1.1c-0.2-0.3-0.2-0.6-0.4-0.9c0,0,0,0,0,0c0,0,0-0.1,0-0.1c-0.1-0.2-0.6-1-1.2-1.7c0,0-0.1-0.1-0.1-0.1
			c-0.5-0.6-1.1-1.2-1.5-1.6c-0.1-0.1-0.1-0.1-0.2-0.2c0,0,0,0,0,0c0,0-0.1-0.1-0.1-0.1c0,0,0,0-0.1-0.1s0,0,0,0c0,0,0,0,0,0
			l-0.9,0.2c0,0-0.7-0.5-1.3-0.6c-0.4-0.1-1.4,0.7-2.2,0.6h0c-0.9,0.6-1.8,0.5-2.2,1C163.1,71.5,162.1,72.6,162.5,73.7z"/>
		<path class="st33" d="M167.8,78.1c0,0-0.2-1.3-0.7-2c-0.5-0.7-1.5-1.9-1.5-1.9s-0.4-1.9-0.1-2.2c0.3-0.3,1-1,1-1s1.4,2,1.6,2.2
			c0.2,0.3,0.1,1.9,0.1,1.9s-0.5,1.1-0.2,1.9c0.3,0.8,0.5,1.8,0.5,1.8L167.8,78.1z M171.5,76.4c-0.3,0.4-0.7,1-1.1,1.3
			c0.1,0,0.1,0.1,0.2,0.2c0.1-0.3,1.5-1.8,1.6-2.1c0.1-0.2,0.9-1.8,1-2.2c0-0.3-0.9-1.6-1.2-1.9c0,0-0.1-0.1-0.1-0.1
			s0.7,1.4,0.8,1.7C172.9,73.8,171.9,75.9,171.5,76.4z M169.4,78.5c0.1-0.2,0.2-0.3,0.2-0.3l0.3-0.2c-0.2,0-0.2-0.1-0.2-0.3
			c0.1-0.2,0.5-1.8,0.5-1.8s0.9-2,0.9-2.5c0-0.5-1-2-2.4-2.9c0.1,0.1,1.7,1.8,1.8,2.4c0.1,0.7-1.1,4.4-1.1,4.5
			C169.4,77.4,169.6,78.2,169.4,78.5z"/>
		<path class="st17" d="M114.9,143.3l-22.3-12.9l22.3-12.9l7.4,25.8H114.9z"/>
		<path class="st18" d="M122.3,143.3l22.3-12.9v-16l-22.3,12.9V143.3z"/>
		<path class="st21" d="M122.3,143.3L100,130.4v-16l22.3,12.9V143.3z"/>
		<path class="st34" d="M100,114.4l22.3,12.9l-12-6.5L100,114.4z"/>
		<path class="st35" d="M122.3,127.3L100,114.4l22.3-12.9l22.3,12.9L122.3,127.3z"/>
		<path class="st36" d="M112.7,131.9l-3.6-2.1v-10.1l3.6,2.1V131.9z"/>
		<path class="st37" d="M112.7,121.8l22.3-12.9l-3.6-2.1l-22.3,12.9L112.7,121.8z"/>
		<path class="st38" d="M111.1,120.8l22.3-12.9l-0.2-0.1l-22.3,12.9L111.1,120.8z"/>
	</g>
</g>
</svg>
