<?xml version="1.0" encoding="utf-8"?>
<!-- Generator: Adobe Illustrator 23.0.4, SVG Export Plug-In . SVG Version: 6.00 Build 0)  -->
<svg version="1.1" id="Слой_1" xmlns="http://www.w3.org/2000/svg" xmlns:xlink="http://www.w3.org/1999/xlink" x="0px" y="0px"
	 viewBox="0 0 436 270" style="enable-background:new 0 0 436 270;" xml:space="preserve">
<style type="text/css">
	.st0{fill:#4C8CD8;}
	.st1{fill:#BDB6C6;}
	.st2{fill:#E9E6E6;}
	.st3{fill:#F8F5F4;}
	.st4{fill:#7B9FE1;}
	.st5{fill:#2D6AD8;}
	.st6{fill:#F25A5A;}
	.st7{fill:#97CC66;}
	.st8{fill:#44BFE5;}
	.st9{fill:#E1E9F4;}
	.st10{fill:#86B1FF;}
	.st11{opacity:0.302;fill:#ACA5B7;enable-background:new    ;}
	.st12{opacity:0.6;fill:#BDB6C6;enable-background:new    ;}
	.st13{fill:#FFDA40;}
	.st14{fill:url(#SVGID_1_);}
	.st15{fill:#D6850F;}
	.st16{fill:#FFBD29;}
	.st17{opacity:0.698;fill:#FFDA40;enable-background:new    ;}
	.st18{fill:#312F2C;}
	.st19{fill:#393532;}
	.st20{fill:#A1A81B;}
	.st21{opacity:0.502;fill:#A1A81B;enable-background:new    ;}
	.st22{fill:#252321;}
	.st23{opacity:0.698;fill-rule:evenodd;clip-rule:evenodd;fill:#679926;enable-background:new    ;}
	.st24{fill:#717F89;}
	.st25{fill:#92A3AD;}
	.st26{fill:#DB7521;}
	.st27{fill:#F9963D;}
	.st28{fill:url(#SVGID_2_);}
	.st29{fill:#EE9B1E;}
	.st30{fill:#683426;}
	.st31{fill:#F7B425;}
	.st32{fill:#7A3E2B;}
	.st33{fill:#FFC343;}
	.st34{fill:#8C4B34;}
	.st35{fill:url(#SVGID_3_);}
	.st36{clip-path:url(#SVGID_5_);}
	.st37{fill:#FFF0E5;}
	.st38{fill:#BCBCBC;}
	.st39{fill:url(#SVGID_6_);}
	.st40{fill:#E6E4E2;}
	.st41{fill:#737271;}
	.st42{fill:#2D3133;}
	.st43{fill:#E4E6E6;}
	.st44{fill:#B3B5B5;}
	.st45{fill:url(#SVGID_7_);}
	.st46{fill:#CBCDCD;}
	.st47{fill:#2B2825;}
	.st48{fill:#25397A;}
	.st49{fill:#FCBE9F;}
	.st50{fill:#1B1D1E;}
	.st51{fill:#272523;}
	.st52{fill:#F9F7EF;}
	.st53{fill:#2A4C96;}
	.st54{fill:#F3A984;}
	.st55{fill:#FFFFFF;}
	.st56{fill:#B0B5B0;}
	.st57{fill-rule:evenodd;clip-rule:evenodd;fill:#373431;}
	.st58{fill-rule:evenodd;clip-rule:evenodd;fill:#2D6AD8;}
</style>
<g>
	<g>
		<path class="st0" d="M126.2,75L89.9,96l188.3,108.7h20.4L126.2,75z"/>
		<path class="st1" d="M299.1,204.7L106.5,93.5l0-14.1l192.6,37.9V204.7z"/>
		<path class="st2" d="M435.2,126.1l-136.1,78.6v-87.4l136.1-5.4V126.1z"/>
		<path class="st3" d="M435.2,111.9l-26.5,15.3L299,190.6L106.5,79.4L242.7,0.8L435.2,111.9z"/>
		<path class="st4" d="M146.9,88.2l-1.3,0.7l-10-5.8l1.3-0.7L146.9,88.2z"/>
		<path class="st5" d="M148.3,87.4l-1.3,0.8l-8.4-4.8l1.4-0.8L148.3,87.4z"/>
		<path class="st4" d="M152,85.3l-1.3,0.7l-9.2-5.3l1.3-0.7L152,85.3z"/>
		<path class="st5" d="M153.3,84.5l-1.4,0.8l-10.4-6l1.4-0.8L153.3,84.5z"/>
		<path class="st4" d="M157,82.3l-1.3,0.7l-13-7.5l1.3-0.7L157,82.3z"/>
		<path class="st5" d="M158.4,81.6l-1.4,0.8l-9.5-5.5l1.4-0.8L158.4,81.6z"/>
		<path class="st4" d="M162.1,79.4l-1.3,0.7l-11.6-6.7l1.3-0.7L162.1,79.4z"/>
		<path class="st5" d="M163.4,78.7l-1.4,0.8l-10.1-5.8l1.4-0.8L163.4,78.7z"/>
		<path class="st4" d="M177.3,70.7l-1.3,0.7l-11.9-6.9l1.3-0.7L177.3,70.7z"/>
		<path class="st5" d="M178.6,69.9l-1.4,0.8l-10.9-6.3l1.4-0.8L178.6,69.9z"/>
		<path class="st4" d="M182.3,67.8l-1.3,0.7l-8.5-4.9l1.3-0.7L182.3,67.8z"/>
		<path class="st5" d="M183.6,67l-1.4,0.8L170.6,61l1.3-0.8L183.6,67z"/>
		<path class="st4" d="M187.4,64.8l-1.3,0.7L170,56.3l1.3-0.7L187.4,64.8z"/>
		<path class="st5" d="M188.7,64.1l-1.4,0.8l-13.4-7.8l1.4-0.8L188.7,64.1z"/>
		<path class="st4" d="M192.4,61.9l-1.3,0.7l-14.1-8.1l1.3-0.7L192.4,61.9z"/>
		<path class="st5" d="M193.8,61.2l-1.4,0.8l-11.6-6.7l1.3-0.8L193.8,61.2z"/>
		<path class="st4" d="M197.5,59l-1.3,0.7l-8.6-5l1.3-0.7L197.5,59z"/>
		<path class="st5" d="M198.8,58.2l-1.4,0.8L187,53l1.4-0.8L198.8,58.2z"/>
		<path class="st4" d="M167.1,76.5l-1.3,0.7l-6.1-3.5L161,73L167.1,76.5z"/>
		<path class="st5" d="M168.5,75.8l-1.4,0.8l-10.7-6.2l1.4-0.8L168.5,75.8z"/>
		<path class="st4" d="M172.2,73.6l-1.3,0.7l-6.1-3.5l1.3-0.7L172.2,73.6z"/>
		<path class="st5" d="M173.5,72.8l-1.4,0.8l-4.4-2.6l1.4-0.8L173.5,72.8z"/>
		<path class="st4" d="M201.2,58L145,90.5l-1.2-0.7l56.2-32.5L201.2,58z M209.1,52.3l-1.3,0.7l-8.5-4.9l1.3-0.7L209.1,52.3z"/>
		<path class="st5" d="M210.4,51.6l-1.4,0.8l-6.9-4l1.4-0.8L210.4,51.6z"/>
		<path class="st4" d="M214.1,49.4l-1.3,0.7l-3.2-1.8l1.3-0.7L214.1,49.4z"/>
		<path class="st5" d="M215.4,48.7l-1.3,0.8l-4.5-2.6l1.4-0.8L215.4,48.7z"/>
		<path class="st4" d="M219.2,46.5l-1.3,0.7l-9.8-5.7l1.3-0.7L219.2,46.5z"/>
		<path class="st5" d="M220.5,45.7l-1.4,0.8l-4.8-2.8l1.4-0.8L220.5,45.7z"/>
		<path class="st4" d="M224.2,43.6l-1.3,0.7l-3.4-2l1.3-0.7L224.2,43.6z"/>
		<path class="st5" d="M225.5,42.8l-1.4,0.8l-5.6-3.2l1.4-0.8L225.5,42.8z"/>
		<path class="st4" d="M239.4,34.8l-1.3,0.7l-12.4-7.2l1.3-0.7L239.4,34.8z"/>
		<path class="st5" d="M240.7,34l-1.3,0.8l-10.8-6.2l1.3-0.8L240.7,34z"/>
		<path class="st4" d="M244.4,31.9l-1.3,0.7l-17.3-10l1.3-0.7L244.4,31.9z"/>
		<path class="st5" d="M245.8,31.1l-1.3,0.8l-16.2-9.4l1.4-0.8L245.8,31.1z"/>
		<path class="st4" d="M249.5,29l-1.3,0.7L237,23.2l1.3-0.7L249.5,29z"/>
		<path class="st5" d="M250.8,28.2l-1.4,0.8l-9.1-5.3l1.4-0.8L250.8,28.2z"/>
		<path class="st4" d="M254.6,26.1l-1.3,0.7l-12.9-7.5l1.3-0.7L254.6,26.1z"/>
		<path class="st5" d="M255.9,25.3l-1.3,0.8L244,20l1.4-0.8L255.9,25.3z"/>
		<path class="st4" d="M259.6,23.1l-1.3,0.7l-6.4-3.7l1.3-0.7L259.6,23.1z"/>
		<path class="st5" d="M260.9,22.4l-1.4,0.8l-5.7-3.3l1.4-0.8L260.9,22.4z"/>
		<path class="st4" d="M229.3,40.7l-1.3,0.7l-10.7-6.2l1.3-0.7L229.3,40.7z"/>
		<path class="st5" d="M230.6,39.9l-1.3,0.8l-12.4-7.2l1.4-0.8L230.6,39.9z"/>
		<path class="st4" d="M234.3,37.7l-1.3,0.7l-10.3-6l1.3-0.7L234.3,37.7z"/>
		<path class="st5" d="M235.6,37l-1.4,0.8l-8.6-5L227,32L235.6,37z"/>
		<path class="st4" d="M263.4,22.2l-56.2,32.5L206,54l56.2-32.5L263.4,22.2z"/>
		<path class="st5" d="M197.9,72.9L156.2,97l-5.9-3.4L192,69.5L197.9,72.9z"/>
		<path class="st6" d="M160.1,94.8l-3.9,2.2l-5.9-3.4l3.9-2.2L160.1,94.8z"/>
		<path class="st5" d="M236,50.9L194.3,75l-5.9-3.4l41.8-24.1L236,50.9z"/>
		<path class="st7" d="M198.1,72.8l-3.9,2.2l-5.9-3.4l3.9-2.2L198.1,72.8z"/>
		<path class="st5" d="M274.1,28.9L232.3,53l-5.9-3.4l41.8-24.1L274.1,28.9z"/>
		<path class="st8" d="M236.2,50.8l-3.9,2.2l-5.9-3.4l3.9-2.2L236.2,50.8z"/>
		<path class="st9" d="M240.3,43.8l-6.3,3.6l-0.7-0.4l6.3-3.6L240.3,43.8z M240.7,42.8l0.7,0.4l2.6-1.5l-0.7-0.4L240.7,42.8z
			 M240.3,47l-3.4,2l-0.7-0.4l3.4-2L240.3,47z M249.1,42l-7.7,4.5l-0.7-0.4l7.7-4.5L249.1,42z M254.4,38.9l-4.3,2.5l-0.7-0.4
			l4.3-2.5L254.4,38.9z M202.6,65.5l-6.3,3.6l-0.7-0.4l6.3-3.6L202.6,65.5z M203,64.6l0.7,0.4l2.6-1.5l-0.7-0.4L203,64.6z
			 M202.6,68.8l-3.4,2l-0.7-0.4l3.4-2L202.6,68.8z M211.4,63.8l-7.7,4.5l-0.7-0.4l7.7-4.5L211.4,63.8z M216.7,60.7l-4.3,2.5
			l-0.7-0.4l4.3-2.5L216.7,60.7z M164.9,87.3l-6.3,3.6l-0.7-0.4l6.3-3.6L164.9,87.3z M165.2,86.3l0.7,0.4l2.6-1.5l-0.7-0.4
			L165.2,86.3z M164.9,90.6l-3.4,2l-0.7-0.4l3.4-2L164.9,90.6z M173.7,85.6l-7.7,4.5l-0.7-0.4l7.7-4.5L173.7,85.6z M178.9,82.5
			l-4.3,2.5l-0.7-0.4l4.3-2.5L178.9,82.5z"/>
		<path class="st6" d="M201.9,96.5l-21,12.1l-2.2-1.2l21-12.1L201.9,96.5z M195.1,105l-10.2,5.9l-2.2-1.2l10.2-5.9L195.1,105z"/>
		<path class="st7" d="M221.9,94.2l-33,19.1l-2.2-1.2l33-19.1L221.9,94.2z M241.4,87.5l-48.5,28l-2.2-1.2l48.5-28L241.4,87.5z
			 M241.8,92l-44.8,25.9l-2.2-1.2l44.8-25.9L241.8,92z"/>
		<path class="st5" d="M239.4,98L201,120.2l-2.2-1.2l38.4-22.2L239.4,98z M235.8,104.7L205,122.5l-2.2-1.2l30.9-17.8L235.8,104.7z"
			/>
		<path class="st8" d="M233.4,110.7L209,124.8l-2.2-1.2l24.4-14.1L233.4,110.7z M251.4,104.9L213,127.1l-2.2-1.2l38.4-22.2
			L251.4,104.9z"/>
		<path class="st10" d="M257.1,106.3L217,129.4l-2.2-1.2L255,105L257.1,106.3z M254.2,112.6L221,131.7l-2.2-1.2l33.2-19.2
			L254.2,112.6z"/>
		<path class="st5" d="M252.3,118.3L225,134.1l-2.2-1.2l27.3-15.8L252.3,118.3z"/>
		<path class="st6" d="M267.6,114.1L229,136.4l-2.2-1.2l38.6-22.3L267.6,114.1z M274,115.1l-40.9,23.6l-2.2-1.2l40.9-23.6L274,115.1
			z"/>
		<path class="st10" d="M234.4,138.9l-1.3,0.8l-56-32.3l1.3-0.8L234.4,138.9z"/>
		<path class="st5" d="M251.9,147.7c1.3,0.8,1.3,2,0,2.7c-1.3,0.8-3.4,0.8-4.8,0c-1.3-0.8-1.3-2,0-2.7S250.6,147,251.9,147.7z
			 M263.5,154.4c1.3,0.8,1.3,2,0,2.7c-1.3,0.8-3.4,0.8-4.8,0c-1.3-0.8-1.3-2,0-2.7C260,153.6,262.2,153.6,263.5,154.4z M274.9,161
			c1.3,0.8,1.3,2,0,2.7c-1.3,0.8-3.4,0.8-4.8,0c-1.3-0.8-1.3-2,0-2.7C271.5,160.2,273.6,160.2,274.9,161z M286.4,167.6
			c1.3,0.8,1.3,2,0,2.7c-1.3,0.8-3.4,0.8-4.8,0c-1.3-0.8-1.3-2,0-2.7C283,166.9,285.1,166.9,286.4,167.6z M297.8,174.2
			c1.3,0.8,1.3,2,0,2.7c-1.3,0.8-3.5,0.8-4.8,0c-1.3-0.8-1.3-2,0-2.7C294.4,173.5,296.5,173.5,297.8,174.2z"/>
		<path class="st10" d="M264.9,139l19.7-11.4l-0.9-0.5L264,138.5L264.9,139z M285.9,126.9l8.6-5l-0.9-0.5l-8.6,4.9L285.9,126.9z
			 M295.6,121.3l6.9-4l-0.9-0.5l-6.9,4L295.6,121.3z M303.7,116.6l15.5-9l-0.9-0.5l-15.5,9L303.7,116.6z M319.6,106.4l0.9,0.5l8.6-5
			l-0.9-0.5L319.6,106.4z M256.5,143.9l7.2-4.2l-0.9-0.5l-7.2,4.2L256.5,143.9z M321.8,110.3l9.8-5.7l-0.9-0.5l-9.8,5.7L321.8,110.3
			z M281.8,133.4l-0.9-0.5L259,145.5l0.9,0.5L281.8,133.4z M299.6,123.1l12.9-7.4l-0.9-0.5l-12.9,7.4L299.6,123.1z M283,132.7
			l15.4-8.9l-0.9-0.5l-15.4,8.9L283,132.7z M313.7,114.9l6.9-4l-0.9-0.5l-6.9,4L313.7,114.9z M308.3,130.6l-0.9-0.5l-19.7,11.4
			l0.9,0.5L308.3,130.6z M335.6,109.7l0.9,0.5l8.3-4.8l-0.9-0.5L335.6,109.7z M289.2,137.6l-0.9-0.5l-22,12.7l0.9,0.5L289.2,137.6z
			 M334.4,110.4l-14.2,8.2l0.9,0.5l14.1-8.2L334.4,110.4z M287.3,142.8l-0.9-0.5l-16.6,9.6l0.9,0.5L287.3,142.8z M342,110.2l-15.5,9
			l0.9,0.5l15.5-9L342,110.2z M318.4,123.8l0.9,0.5l6.9-4l-0.9-0.5L318.4,123.8z M308.6,129.4l0.9,0.5l8.6-4.9l-0.9-0.5L308.6,129.4
			z M305.9,128l-0.9-0.5l-15.4,8.9l0.9,0.5L305.9,128z M306.2,126.8l0.9,0.5l12.9-7.4l-0.9-0.5L306.2,126.8z M297.3,150.6l-0.9-0.5
			l-14.6,8.4l0.9,0.5L297.3,150.6z M350.9,114.6l-4.6,2.7l0.9,0.5l4.6-2.7L350.9,114.6z M343.6,122.9l-12.9,7.4l0.9,0.5l12.9-7.4
			L343.6,122.9z M314.1,139.9l0.9,0.5l15.4-8.9l-0.9-0.5L314.1,139.9z M310.5,137.9l-19.7,11.4l0.9,0.5l19.7-11.4L310.5,137.9z
			 M290.4,150.5l-0.9-0.5l-11.2,6.4l0.9,0.5L290.4,150.5z M345.7,122.7l9-5.2l-0.9-0.5l-9,5.2L345.7,122.7z M329.5,126.9l0.9,0.5
			l15.5-9l-0.9-0.5L329.5,126.9z M328.3,127.6l-6.9,4l0.9,0.5l6.9-4L328.3,127.6z M313.8,141.1l-0.9-0.5l-15.2,8.8l0.9,0.5
			L313.8,141.1z M311.7,137.2l0.9,0.5l8.6-5l-0.9-0.5L311.7,137.2z M299.1,158.8l19.7-11.4l-0.9-0.5l-19.7,11.4L299.1,158.8z
			 M320,146.7l8.6-4.9l-0.9-0.5l-8.6,4.9L320,146.7z M329.8,141l6.9-4l-0.9-0.5l-6.9,4L329.8,141z M337.9,136.4l15.5-9l-0.9-0.5
			l-15.5,9L337.9,136.4z M353.8,126.2l0.9,0.5l8.6-5l-0.9-0.5L353.8,126.2z M290.7,163.6l7.2-4.2L297,159l-7.2,4.2L290.7,163.6z
			 M316,153.1l-0.9-0.5l-21.9,12.6l0.9,0.5L316,153.1z M333.8,142.8l12.9-7.4l-0.9-0.5l-12.9,7.4L333.8,142.8z M317.2,152.4
			l15.4-8.9l-0.9-0.5l-15.4,8.9L317.2,152.4z M350,141.5l0.9,0.5l12.9-7.4l-0.9-0.5L350,141.5z M338.1,152.5l0.9,0.5l8.6-4.9
			l-0.9-0.5L338.1,152.5z M348.8,142.2l-15.4,8.9l0.9,0.5l15.4-8.9L348.8,142.2z M361.2,139.1l-13.3,7.7l0.9,0.5l13.3-7.7
			L361.2,139.1z M333,152.4l-0.9-0.5l-31.1,18l0.9,0.5L333,152.4z M364.1,133.4l0.9,0.5l6.9-4l-0.9-0.5L364.1,133.4z M316.8,165.8
			l-0.9-0.5l-11.2,6.4l0.9,0.5L316.8,165.8z M336.9,153.2l-19.7,11.4l0.9,0.5l19.7-11.4L336.9,153.2z M372.2,128.7l0.9,0.5l5.8-3.4
			l-0.9-0.5L372.2,128.7z"/>
		<path class="st11" d="M307.8,192.9c-2.9,1.6-5.8,3.3-8.7,4.9c-3.1-1.8-6.2-3.5-9.3-5.3c-3.2-1.8-6.4-3.5-9.6-5.2
			c3.1,1.9,6.2,3.8,9.3,5.7c3.1,1.9,6.2,3.7,9.4,5.5l0.2,0.1l0.2-0.1c2.9-1.7,5.9-3.4,8.8-5.2c2.9-1.7,5.8-3.5,8.7-5.3
			C313.8,189.7,310.8,191.3,307.8,192.9z M325.3,180.1c4.7-2.2,93.1-53.4,96.4-55.6C418.1,126.1,329.6,177.1,325.3,180.1z
			 M222.5,152.4c-3.8-1.8-103-59.2-105.6-61C119.8,92.8,219.1,150,222.5,152.4z"/>
		<path class="st12" d="M194.2,28.8l32.1,18.5h96.9L242.7,0.8L194.2,28.8z"/>
		<path class="st13" d="M321.8,90.9c-17.4,10-45.5,10-62.9,0c-17.4-10-17.4-26.3,0-36.3c17.4-10,45.5-10,62.9,0
			C339.1,64.6,339.1,80.9,321.8,90.9z"/>
		
			<linearGradient id="SVGID_1_" gradientUnits="userSpaceOnUse" x1="267.988" y1="184.7275" x2="321.376" y2="184.7275" gradientTransform="matrix(1 0 0 -1 0 272)">
			<stop  offset="0" style="stop-color:#D6850F"/>
			<stop  offset="1" style="stop-color:#FFBD29"/>
		</linearGradient>
		<path class="st14" d="M334.8,73c0-0.2,0-0.3,0-0.5V73z M321.8,90.9c-17.4,10-45.5,10-62.9,0v3.6c17.4,10,45.5,10,62.9,0
			c8.8-5.1,13.1-11.8,13-18.4V73C334.7,79.5,330.4,86,321.8,90.9z"/>
		<path class="st15" d="M291,60.9l-0.3,11.4l-0.8,0.2l-31.1-18l0-12.1L291,60.9z"/>
		<path class="st16" d="M290.7,60.9v12l31.5-18.2l0-12.1L290.7,60.9z"/>
		<path class="st17" d="M322.2,42.6l-31.5,18.3l-31.8-18.4C276.4,32.5,304.6,32.6,322.2,42.6z"/>
		<path class="st15" d="M245.7,65.3l0,6.2l45,0.9v-7.1H245.7z"/>
		<path class="st17" d="M258.9,46.8c-8.7,5.1-13.1,11.8-13.1,18.4l45,0L258.9,46.8z"/>
		<path class="st15" d="M258.8,87.2c-6.3-3.6-10.8-8.4-12.5-13.8c-0.4-1.4-0.6-2.8-0.6-4.3l0,1.1c0,2.2,0,7.6,0.6,9.8
			c0,0,0.1,0.2,0.1,0.2c1.4,5.4,5.6,10.3,12.8,14.4c0.3,0.2,0.6,0.3,0.9,0.5l0-7.2C259.6,87.7,259.2,87.4,258.8,87.2z"/>
		<path class="st16" d="M290.8,69.2l0,3.7L260,91.6l0-3.7L290.8,69.2z"/>
		<path class="st17" d="M290.8,69.2L260,87.9c-0.4-0.2-0.8-0.4-1.2-0.7c-6.3-3.6-10.8-8.4-12.5-13.8c-0.4-1.3-0.6-2.7-0.6-4.3
			L290.8,69.2z"/>
		<path class="st0" d="M58.3,161.1l-21.7,12.5l105.8,61.1h10L58.3,161.1z"/>
		<path class="st18" d="M120,120.6c-1.1-0.6-2-0.7-2.7-0.3L45.5,162c0.7-0.4,1.7-0.3,2.7,0.3l10.4,6l71.8-41.7L120,120.6z"/>
		<path class="st19" d="M130.5,126.6l-71.8,41.7l19,15.3l71.8-41.7L130.5,126.6z"/>
		<path class="st20" d="M66.1,168.9l64-37.2l12,9.7l-64,37.2L66.1,168.9z"/>
		<path class="st21" d="M130,133.6l10.7,8.6l1.4-0.8l-12-9.7l-64,37.2l1.3,1.1L130,133.6z"/>
		<path class="st18" d="M226.1,188.2c0-0.1,0-0.1-0.1-0.2c-0.1-0.3-0.2-0.6-0.3-0.8c-0.1-0.3-0.2-0.5-0.4-0.7c0-0.1-0.1-0.1-0.1-0.2
			c-0.1-0.2-0.2-0.3-0.4-0.5c0,0-0.1-0.1-0.1-0.1c-0.2-0.2-0.3-0.3-0.4-0.4c-0.1-0.1-0.1-0.1-0.2-0.2c-0.2-0.1-0.3-0.3-0.5-0.4
			l-74.1-42.8l-71.8,41.7l74.1,42.8c0.2,0.1,0.4,0.2,0.5,0.4c0.1,0,0.1,0.1,0.2,0.1c0.1,0.1,0.2,0.2,0.3,0.3
			c0.1,0.1,0.1,0.1,0.2,0.2c0.1,0.2,0.2,0.3,0.4,0.5c0,0.1,0.1,0.1,0.1,0.2c0.1,0.2,0.3,0.4,0.4,0.7c0.1,0.3,0.2,0.6,0.3,0.9
			c0,0.1,0,0.1,0.1,0.2c0.1,0.3,0.1,0.6,0.1,0.8v2.1c0,0.8-0.3,1.4-0.7,1.6l71.8-41.7c0.4-0.3,0.7-0.8,0.7-1.6l0-2.1
			C226.2,188.8,226.1,188.5,226.1,188.2z"/>
		<path class="st19" d="M224.7,185.6l-71.8,41.7c0.4,0.5,0.7,1,1,1.6l71.8-41.7C225.5,186.6,225.1,186.1,224.7,185.6z"/>
		<path class="st22" d="M151.8,226.4l-74.1-42.8l-19-15.3l-10.4-6c-2.1-1.2-3.8-0.2-3.8,2.2l0,3.4c0,2.4,1.7,5.4,3.8,6.6l103.6,59.8
			c1.4,0.8,2.5,0.1,2.5-1.4l0-2.1C154.4,229.2,153.2,227.2,151.8,226.4z"/>
		<path class="st23" d="M136.3,141.6l1.1,0.9l-1,0.6l-1.1-0.9L136.3,141.6z M132.9,143.9l1.1,0.1l-0.1,0.5l-2.2,1.2l-0.8-0.1
			l0.1-0.8L132.9,143.9z M128,138.3l0.8,0.1c2.6,2.2,3.1,2.6,5.4,4.4l0,0.5l-1.1-0.1c-1.9-1.6-0.8-0.7-5-4.1L128,138.3z M125.3,140
			l-1.1-0.1l0-0.5l2.1-1.2l0.8,0.1l0,0.8L125.3,140z M130.2,144.8l-0.1,0.8l-0.8-0.1c-1.3-1.1-4.2-3.6-5.2-4.5l0-0.5l1.1,0.1
			C128,143,127.4,142.5,130.2,144.8z"/>
		<path class="st22" d="M213.4,184.6l-5.4,3.1c-1.3,0.7-3.4,0.7-4.6,0l-15.2-8.8c-0.7-0.4-1-0.9-1-1.3v1.5c0,0.5,0.3,1,1,1.4
			l15.2,8.8c1.3,0.7,3.4,0.8,4.6,0l5.4-3.1c0.6-0.4,0.9-0.9,0.9-1.3v-1.5C214.4,183.8,214.1,184.3,213.4,184.6z"/>
		<path class="st19" d="M213.4,181.9l-15.2-8.8c-1.3-0.7-3.4-0.7-4.6,0l-5.4,3.1c-1.3,0.7-1.3,1.9,0,2.7l15.2,8.8
			c1.3,0.7,3.4,0.7,4.6,0l5.4-3.1C214.7,183.9,214.7,182.7,213.4,181.9z"/>
		<path class="st22" d="M189.7,170.9l-5.4,3.1c-1.3,0.7-3.4,0.7-4.6,0l-3.3-1.9c-0.6-0.4-1-0.9-1-1.4v1.5c0,0.5,0.3,1,1,1.3l3.3,1.9
			c1.3,0.7,3.4,0.8,4.6,0l5.4-3.1c0.6-0.4,1-0.9,1-1.3l0-1.6C190.6,170.1,190.3,170.6,189.7,170.9z"/>
		<path class="st19" d="M189.7,168.2l-3.3-1.9c-1.3-0.7-3.4-0.7-4.6,0l-5.4,3.1c-1.3,0.7-1.3,1.9,0,2.7l3.3,1.9
			c1.3,0.7,3.4,0.8,4.6,0l5.4-3.1C191,170.2,190.9,169,189.7,168.2z"/>
		<path class="st22" d="M177.8,164.1l-5.4,3.1c-1.3,0.7-3.4,0.7-4.6,0l-3.3-1.9c-0.6-0.4-1-0.9-1-1.3v1.5c0,0.5,0.3,1,1,1.4l3.3,1.9
			c1.3,0.7,3.4,0.8,4.6,0l5.4-3.1c0.6-0.4,0.9-0.9,0.9-1.3l0-1.5C178.8,163.2,178.4,163.7,177.8,164.1z"/>
		<path class="st19" d="M177.8,161.4l-3.3-1.9c-1.3-0.7-3.3-0.7-4.6,0l-5.4,3.1c-1.3,0.7-1.3,2,0,2.7l3.3,1.9c1.3,0.7,3.4,0.7,4.6,0
			l5.4-3.1C179.1,163.4,179.1,162.1,177.8,161.4z"/>
		<path class="st22" d="M165.9,157.2l-5.4,3.1c-1.3,0.7-3.4,0.7-4.6,0l-3.3-1.9c-0.6-0.4-1-0.9-1-1.3v1.5c0,0.5,0.3,1,1,1.4l3.3,1.9
			c1.3,0.7,3.4,0.7,4.6,0l5.4-3.1c0.6-0.4,0.9-0.9,0.9-1.3l0-1.5C166.9,156.4,166.6,156.9,165.9,157.2z"/>
		<path class="st19" d="M165.9,154.6l-3.3-1.9c-1.3-0.7-3.4-0.7-4.6,0l-5.4,3.1c-1.3,0.7-1.3,1.9,0,2.7l3.3,1.9
			c1.3,0.7,3.4,0.8,4.6,0l5.4-3.1C167.2,156.5,167.2,155.3,165.9,154.6z"/>
		<path class="st22" d="M154.1,150.4l-5.4,3.1c-1.3,0.7-3.4,0.7-4.6,0l-0.9-0.5c-0.6-0.4-1-0.9-1-1.4v1.5c0,0.5,0.3,1,1,1.3l0.9,0.6
			c1.3,0.7,3.4,0.7,4.6,0l5.4-3.1c0.6-0.4,0.9-0.8,1-1.3v-1.6C155,149.5,154.7,150,154.1,150.4z"/>
		<path class="st19" d="M154.1,147.7l-0.9-0.6c-1.3-0.7-3.3-0.7-4.6,0l-5.4,3.1c-1.3,0.7-1.3,1.9,0,2.7l0.9,0.5
			c1.3,0.7,3.4,0.8,4.6,0l5.4-3.1C155.4,149.6,155.3,148.4,154.1,147.7z"/>
		<path class="st24" d="M199.8,192.5l-5.4,3.1c-1.3,0.7-3.4,0.7-4.6,0l-3.3-1.9c-0.6-0.4-1-0.9-1-1.3l0,1.5c0,0.5,0.3,1,1,1.4
			l3.3,1.9c1.3,0.7,3.4,0.7,4.6,0l5.4-3.1c0.6-0.4,0.9-0.9,0.9-1.3v-1.5C200.8,191.6,200.5,192.1,199.8,192.5z"/>
		<path class="st25" d="M199.8,189.8l-3.3-1.9c-1.3-0.7-3.4-0.7-4.6,0l-5.4,3.1c-1.3,0.7-1.3,1.9,0,2.7l3.3,1.9
			c1.3,0.7,3.4,0.7,4.6,0l5.4-3.1C201.1,191.8,201.1,190.5,199.8,189.8z"/>
		<path class="st24" d="M188,185.6l-5.4,3.1c-1.3,0.7-3.4,0.7-4.6,0l-3.3-1.9c-0.6-0.4-1-0.9-1-1.4l0,1.5c0,0.5,0.3,1,1,1.4l3.3,1.9
			c1.3,0.7,3.4,0.7,4.6,0l5.4-3.1c0.6-0.4,0.9-0.8,0.9-1.3v-1.6C188.9,184.8,188.6,185.3,188,185.6z"/>
		<path class="st25" d="M187.9,182.9l-3.3-1.9c-1.3-0.7-3.4-0.7-4.6,0l-5.4,3.1c-1.3,0.7-1.3,1.9,0,2.7l3.3,1.9
			c1.3,0.7,3.4,0.8,4.6,0l5.4-3.1C189.2,184.9,189.2,183.7,187.9,182.9z"/>
		<path class="st24" d="M176.1,178.8l-5.4,3.1c-1.3,0.7-3.4,0.7-4.6,0l-3.3-1.9c-0.6-0.4-1-0.9-1-1.4v1.5c0,0.5,0.3,1,1,1.3l3.3,1.9
			c1.3,0.7,3.4,0.7,4.6,0l5.4-3.1c0.6-0.4,0.9-0.9,0.9-1.3l0-1.6C177.1,177.9,176.7,178.4,176.1,178.8z"/>
		<path class="st25" d="M176.1,176.1l-3.3-1.9c-1.3-0.7-3.4-0.7-4.6,0l-5.4,3.1c-1.3,0.7-1.3,1.9,0,2.7l3.3,1.9
			c1.3,0.7,3.4,0.8,4.6,0l5.4-3.1C177.4,178.1,177.4,176.8,176.1,176.1z"/>
		<path class="st24" d="M164.2,171.9l-5.4,3.1c-1.3,0.7-3.4,0.7-4.6,0l-3.3-1.9c-0.6-0.4-1-0.9-1-1.3v1.5c0,0.5,0.3,1,1,1.4l3.3,1.9
			c1.3,0.7,3.4,0.8,4.6,0l5.4-3.1c0.6-0.4,0.9-0.8,0.9-1.3l0-1.5C165.2,171.1,164.9,171.6,164.2,171.9z"/>
		<path class="st25" d="M164.2,169.2l-3.3-1.9c-1.3-0.7-3.3-0.7-4.6,0l-5.4,3.1c-1.3,0.7-1.3,1.9,0,2.7l3.3,1.9
			c1.3,0.7,3.4,0.7,4.6,0l5.4-3.1C165.5,171.2,165.5,170,164.2,169.2z"/>
		<path class="st22" d="M152.4,165.1l-5.4,3.1c-1.3,0.7-3.4,0.7-4.6,0l-3.3-1.9c-0.7-0.4-1-0.9-1-1.3v1.6c0,0.5,0.3,1,1,1.3l3.3,1.9
			c1.3,0.7,3.4,0.8,4.6,0l5.4-3.1c0.6-0.4,0.9-0.9,0.9-1.3l0-1.5C153.3,164.2,153,164.7,152.4,165.1z"/>
		<path class="st19" d="M152.4,162.4l-3.3-1.9c-1.3-0.7-3.4-0.7-4.6,0l-5.4,3.1c-1.3,0.7-1.3,1.9,0,2.7l3.3,1.9
			c1.3,0.7,3.4,0.7,4.6,0l5.4-3.1C153.6,164.3,153.6,163.1,152.4,162.4z"/>
		<path class="st22" d="M140.5,158.2l-5.4,3.1c-1.3,0.7-3.4,0.7-4.6,0l-0.9-0.5c-0.6-0.4-1-0.9-1-1.3l0,1.5c0,0.5,0.3,1,1,1.4
			l0.9,0.5c1.3,0.7,3.4,0.7,4.6,0l5.4-3.1c0.6-0.4,0.9-0.9,0.9-1.3l0-1.6C141.4,157.4,141.1,157.9,140.5,158.2z"/>
		<path class="st19" d="M140.5,155.5l-0.9-0.5c-1.3-0.7-3.4-0.7-4.6,0l-5.4,3.1c-1.3,0.7-1.3,1.9,0,2.7l0.9,0.5
			c1.3,0.7,3.4,0.8,4.6,0l5.4-3.1C141.8,157.5,141.8,156.3,140.5,155.5z"/>
		<path class="st24" d="M186.3,200.3l-5.4,3.1c-1.3,0.7-3.4,0.7-4.6,0l-3.3-1.9c-0.6-0.4-1-0.9-1-1.3l0,1.5c0,0.5,0.3,1,1,1.3
			l3.3,1.9c1.3,0.7,3.4,0.8,4.6,0l5.4-3.1c0.6-0.4,1-0.9,1-1.3V199C187.2,199.5,186.9,200,186.3,200.3z"/>
		<path class="st25" d="M186.2,197.6l-3.3-1.9c-1.3-0.7-3.4-0.7-4.6,0l-5.4,3.1c-1.3,0.7-1.3,1.9,0,2.7l3.3,1.9
			c1.3,0.7,3.4,0.7,4.6,0l5.4-3.1C187.5,199.6,187.5,198.4,186.2,197.6z"/>
		<path class="st24" d="M174.4,193.5l-5.4,3.1c-1.3,0.7-3.4,0.7-4.6,0l-3.3-1.9c-0.6-0.4-1-0.9-1-1.4l0,1.5c0,0.5,0.3,1,1,1.3
			l3.3,1.9c1.3,0.7,3.4,0.7,4.6,0l5.4-3.1c0.6-0.4,1-0.9,1-1.3v-1.5C175.3,192.6,175,193.1,174.4,193.5z"/>
		<path class="st25" d="M174.4,190.8l-3.3-1.9c-1.3-0.7-3.4-0.7-4.6,0l-5.4,3.1c-1.3,0.7-1.3,1.9,0,2.7l3.3,1.9
			c1.3,0.7,3.4,0.7,4.6,0l5.4-3.1C175.7,192.7,175.6,191.5,174.4,190.8z"/>
		<path class="st24" d="M162.5,186.6l-5.4,3.1c-1.3,0.7-3.4,0.7-4.6,0l-3.3-1.9c-0.6-0.4-1-0.9-1-1.3l0,1.5c0,0.5,0.3,1,1,1.4
			l3.3,1.9c1.3,0.7,3.4,0.7,4.6,0l5.4-3.1c0.6-0.4,0.9-0.8,0.9-1.3v-1.6C163.5,185.8,163.2,186.3,162.5,186.6z"/>
		<path class="st25" d="M162.5,183.9l-3.3-1.9c-1.3-0.7-3.4-0.7-4.6,0l-5.4,3.1c-1.3,0.7-1.3,1.9,0,2.7l3.3,1.9
			c1.3,0.7,3.4,0.8,4.6,0l5.4-3.1C163.8,185.9,163.8,184.7,162.5,183.9z"/>
		<path class="st24" d="M150.6,179.8l-5.4,3.1c-1.3,0.7-3.4,0.7-4.6,0l-3.3-1.9c-0.6-0.4-1-0.9-1-1.4v1.5c0,0.5,0.3,1,1,1.4l3.3,1.9
			c1.3,0.7,3.4,0.8,4.6,0l5.4-3.1c0.6-0.4,1-0.9,1-1.3v-1.6C151.6,178.9,151.3,179.4,150.6,179.8z"/>
		<path class="st25" d="M150.6,177.1l-3.3-1.9c-1.3-0.7-3.4-0.7-4.6,0l-5.4,3.1c-1.3,0.7-1.3,1.9,0,2.7l3.3,1.9
			c1.3,0.7,3.4,0.8,4.6,0l5.4-3.1C151.9,179,151.9,177.8,150.6,177.1z"/>
		<path class="st22" d="M138.8,172.9l-5.4,3.1c-1.3,0.7-3.4,0.7-4.6,0l-3.3-1.9c-0.6-0.4-1-0.9-1-1.3v1.5c0,0.5,0.3,1,1,1.3l3.3,1.9
			c1.3,0.7,3.4,0.8,4.6,0l5.4-3.1c0.6-0.4,0.9-0.9,0.9-1.3l0-1.5C139.7,172.1,139.4,172.6,138.8,172.9z"/>
		<path class="st19" d="M138.8,170.2l-3.3-1.9c-1.3-0.7-3.3-0.7-4.6,0l-5.4,3.1c-1.3,0.7-1.3,1.9,0,2.7l3.3,1.9
			c1.3,0.7,3.4,0.7,4.6,0l5.4-3.1C140.1,172.2,140.1,171,138.8,170.2z"/>
		<path class="st22" d="M126.9,166.1l-5.4,3.1c-1.3,0.7-3.4,0.7-4.6,0l-0.9-0.6c-0.6-0.4-1-0.9-1-1.3l0,1.6c0,0.5,0.3,1,1,1.3
			l0.9,0.5c1.3,0.7,3.4,0.7,4.6,0l5.4-3.1c0.6-0.4,0.9-0.9,0.9-1.3l0-1.5C127.9,165.2,127.6,165.7,126.9,166.1z"/>
		<path class="st19" d="M126.9,163.4l-0.9-0.5c-1.3-0.7-3.4-0.7-4.6,0l-5.4,3.1c-1.3,0.7-1.3,1.9,0,2.7l0.9,0.5
			c1.3,0.7,3.4,0.8,4.6,0l5.4-3.1C128.2,165.3,128.2,164.1,126.9,163.4z"/>
		<path class="st24" d="M172.7,208.2l-5.4,3.1c-1.3,0.7-3.4,0.7-4.6,0l-3.3-1.9c-0.6-0.4-1-0.9-1-1.4l0,1.5c0,0.5,0.3,1,1,1.3
			l3.3,1.9c1.3,0.7,3.4,0.8,4.6,0l5.4-3.1c0.6-0.4,0.9-0.9,1-1.3v-1.5C173.6,207.3,173.3,207.8,172.7,208.2z"/>
		<path class="st25" d="M172.7,205.5l-3.3-1.9c-1.3-0.7-3.4-0.7-4.6,0l-5.4,3.1c-1.3,0.7-1.3,1.9,0,2.7l3.3,1.9
			c1.3,0.7,3.4,0.7,4.6,0l5.4-3.1C174,207.4,173.9,206.2,172.7,205.5z"/>
		<path class="st24" d="M160.8,201.3l-5.4,3.1c-1.3,0.7-3.4,0.7-4.6,0l-3.3-1.9c-0.6-0.4-1-0.9-1-1.4l0,1.6c0,0.5,0.3,1,1,1.4
			l3.3,1.9c1.3,0.7,3.4,0.8,4.6,0l5.4-3.1c0.6-0.4,0.9-0.9,1-1.3V200C161.8,200.5,161.4,200.9,160.8,201.3z"/>
		<path class="st25" d="M160.8,198.6l-3.3-1.9c-1.3-0.7-3.4-0.7-4.6,0l-5.4,3.1c-1.3,0.7-1.3,1.9,0,2.7l3.3,1.9
			c1.3,0.7,3.4,0.7,4.6,0l5.4-3.1C162.1,200.6,162.1,199.4,160.8,198.6z"/>
		<path class="st24" d="M148.9,194.5l-5.4,3.1c-1.3,0.7-3.4,0.7-4.6,0l-3.3-1.9c-0.6-0.4-1-0.9-1-1.3l0,1.5c0,0.5,0.3,1,1,1.4
			l3.3,1.9c1.3,0.7,3.4,0.7,4.6,0l5.4-3.1c0.6-0.4,1-0.8,1-1.3v-1.5C149.9,193.6,149.6,194.1,148.9,194.5z"/>
		<path class="st25" d="M148.9,191.8l-3.3-1.9c-1.3-0.7-3.4-0.7-4.6,0l-5.4,3.1c-1.3,0.7-1.3,1.9,0,2.7l3.3,1.9
			c1.3,0.7,3.4,0.8,4.6,0l5.4-3.1C150.2,193.7,150.2,192.5,148.9,191.8z"/>
		<path class="st24" d="M137.1,187.6l-5.4,3.1c-1.3,0.7-3.4,0.7-4.6,0l-3.3-1.9c-0.6-0.4-1-0.9-1-1.4l0,1.5c0,0.5,0.3,1,1,1.3
			l3.3,1.9c1.3,0.7,3.4,0.7,4.6,0l5.4-3.1c0.6-0.4,0.9-0.9,0.9-1.3v-1.6C138,186.8,137.7,187.2,137.1,187.6z"/>
		<path class="st25" d="M137.1,184.9l-3.3-1.9c-1.3-0.7-3.4-0.7-4.6,0l-5.4,3.1c-1.3,0.7-1.3,1.9,0,2.7l3.3,1.9
			c1.3,0.7,3.4,0.8,4.6,0l5.4-3.1C138.4,186.9,138.3,185.7,137.1,184.9z"/>
		<path class="st22" d="M125.2,180.8l-5.4,3.1c-1.3,0.7-3.4,0.7-4.6,0l-3.3-1.9c-0.6-0.4-1-0.9-1-1.3l0,1.5c0,0.5,0.3,1,1,1.4
			l3.3,1.9c1.3,0.7,3.4,0.8,4.6,0l5.4-3.1c0.6-0.4,1-0.8,1-1.3v-1.5C126.2,179.9,125.8,180.4,125.2,180.8z"/>
		<path class="st19" d="M125.2,178.1l-3.3-1.9c-1.3-0.7-3.4-0.7-4.6,0l-5.4,3.1c-1.3,0.7-1.3,2,0,2.7l3.3,1.9c1.3,0.7,3.4,0.7,4.6,0
			l5.4-3.1C126.5,180,126.5,178.8,125.2,178.1z"/>
		<path class="st22" d="M113.3,173.9L108,177c-1.3,0.7-3.4,0.7-4.6,0l-0.9-0.5c-0.6-0.4-1-0.9-1-1.4v1.6c0,0.5,0.3,1,1,1.3l0.9,0.5
			c1.3,0.7,3.4,0.8,4.6,0l5.4-3.1c0.6-0.4,0.9-0.9,0.9-1.3v-1.5C114.3,173.1,114,173.5,113.3,173.9z"/>
		<path class="st19" d="M113.3,171.2l-0.9-0.5c-1.3-0.7-3.4-0.7-4.6,0l-5.4,3.1c-1.3,0.7-1.3,1.9,0,2.7l0.9,0.5
			c1.3,0.7,3.4,0.7,4.6,0l5.4-3.1C114.6,173.2,114.6,172,113.3,171.2z"/>
		<path class="st26" d="M159.1,216l-5.4,3.1c-1.3,0.7-3.4,0.7-4.6,0l-3.3-1.9c-0.6-0.4-1-0.9-1-1.3v1.5c0,0.5,0.3,1,1,1.4l3.3,1.9
			c1.3,0.7,3.4,0.8,4.6,0l5.4-3.1c0.6-0.4,0.9-0.8,0.9-1.3l0-1.6C160.1,215.2,159.7,215.6,159.1,216z"/>
		<path class="st27" d="M159.1,213.3l-3.3-1.9c-1.3-0.7-3.4-0.7-4.6,0l-5.4,3.1c-1.3,0.7-1.3,1.9,0,2.7l3.3,1.9
			c1.3,0.7,3.4,0.8,4.6,0l5.4-3.1C160.4,215.3,160.4,214.1,159.1,213.3z"/>
		<path class="st22" d="M147.2,209.2l-5.4,3.1c-1.3,0.7-3.4,0.7-4.6,0l-3.3-1.9c-0.6-0.4-1-0.9-1-1.3v1.5c0,0.5,0.3,1,1,1.3l3.3,1.9
			c1.3,0.7,3.4,0.8,4.6,0l5.4-3.1c0.6-0.4,0.9-0.9,0.9-1.3l0-1.5C148.2,208.3,147.9,208.8,147.2,209.2z"/>
		<path class="st19" d="M147.2,206.5l-3.3-1.9c-1.3-0.7-3.4-0.7-4.6,0l-5.4,3.1c-1.3,0.7-1.3,1.9,0,2.7l3.3,1.9
			c1.3,0.7,3.4,0.7,4.6,0l5.4-3.1C148.5,208.4,148.5,207.2,147.2,206.5z"/>
		<path class="st22" d="M135.4,202.3l-5.4,3.1c-1.3,0.7-3.4,0.7-4.6,0l-3.3-1.9c-0.6-0.4-1-0.9-1-1.4l0,1.5c0,0.5,0.3,1,1,1.3
			l3.3,1.9c1.3,0.7,3.4,0.7,4.6,0l5.4-3.1c0.6-0.4,0.9-0.9,1-1.3V201C136.3,201.5,136,201.9,135.4,202.3z"/>
		<path class="st19" d="M135.3,199.6l-3.3-1.9c-1.3-0.7-3.4-0.7-4.6,0l-5.4,3.1c-1.3,0.7-1.3,1.9,0,2.7l3.3,1.9
			c1.3,0.7,3.4,0.7,4.6,0l5.4-3.1C136.6,201.6,136.6,200.4,135.3,199.6z"/>
		<path class="st22" d="M123.5,195.5l-5.4,3.1c-1.3,0.7-3.4,0.7-4.6,0l-3.3-1.9c-0.6-0.4-1-0.9-1-1.3l0,1.5c0,0.5,0.3,1,1,1.4
			l3.3,1.9c1.3,0.7,3.4,0.7,4.6,0l5.4-3.1c0.6-0.4,0.9-0.9,1-1.3v-1.6C124.4,194.6,124.1,195.1,123.5,195.5z"/>
		<path class="st19" d="M123.5,192.8l-3.3-1.9c-1.3-0.7-3.4-0.7-4.6,0l-5.4,3.1c-1.3,0.7-1.3,1.9,0,2.7l3.3,1.9
			c1.3,0.7,3.4,0.8,4.6,0l5.4-3.1C124.8,194.7,124.8,193.5,123.5,192.8z"/>
		<path class="st22" d="M111.6,188.6l-5.4,3.1c-1.3,0.7-3.4,0.7-4.6,0l-3.3-1.9c-0.6-0.4-1-0.9-1-1.4l0,1.5c0,0.5,0.3,1,1,1.4
			l3.3,1.9c1.3,0.7,3.4,0.8,4.6,0l5.4-3.1c0.6-0.4,0.9-0.8,0.9-1.3v-1.6C112.6,187.8,112.3,188.2,111.6,188.6z"/>
		<path class="st19" d="M111.6,185.9l-3.3-1.9c-1.3-0.7-3.4-0.7-4.6,0l-5.4,3.1c-1.3,0.7-1.3,1.9,0,2.7l3.3,1.9
			c1.3,0.7,3.4,0.8,4.6,0l5.4-3.1C112.9,187.9,112.9,186.6,111.6,185.9z"/>
		<path class="st22" d="M99.8,181.8l-5.4,3.1c-1.3,0.7-3.4,0.7-4.6,0l-0.9-0.5c-0.6-0.4-1-0.9-1-1.3v1.5c0,0.5,0.3,1,1,1.4l0.9,0.5
			c1.3,0.7,3.4,0.8,4.6,0l5.4-3.1c0.6-0.4,0.9-0.9,0.9-1.3v-1.5C100.7,180.9,100.4,181.4,99.8,181.8z"/>
		<path class="st19" d="M99.7,179.1l-0.9-0.5c-1.3-0.7-3.4-0.7-4.6,0l-5.4,3.1c-1.3,0.7-1.3,2,0,2.7l0.9,0.5c1.3,0.7,3.4,0.7,4.6,0
			l5.4-3.1C101,181,101,179.8,99.7,179.1z"/>
		<path class="st0" d="M20.4,179.5l-2.7,1.6l-0.8,1.7l11.2,6.4c0,0,98,56.7,98,56.7c0.1,0,1.8,1,1.9,1c11.9,4.8,8.1,3.3,17.4,7
			c5.2,2.1,4.6,2,2-0.3c-0.4-0.4-9.4-8.4-9.8-8.7c-6.5-3.7-95.7-55.3-102.6-59.3L23.4,179L20.4,179.5z M1.1,194.5l11.1,6.4
			c0,0,69.8,40.4,69.8,40.4c0.1,0,1.8,1,1.9,1c11.9,4.8,6.4,2.3,15.6,6c2.6,1,3.3,0.8,2-0.3c-0.4-0.4-7.7-7.4-8.1-7.7
			c-6.5-3.7-67.5-39-74.3-43l-11.5-6.7C4.3,188.7-1.4,192.7,1.1,194.5z"/>
		
			<linearGradient id="SVGID_2_" gradientUnits="userSpaceOnUse" x1="150.4021" y1="20.69" x2="149.5951" y2="19.881" gradientTransform="matrix(1 0 0 -1 0 272)">
			<stop  offset="0" style="stop-color:#3B3B3B"/>
			<stop  offset="0.253" style="stop-color:#3B3B3B"/>
			<stop  offset="0.426" style="stop-color:#636363"/>
			<stop  offset="0.579" style="stop-color:#545454"/>
			<stop  offset="0.732" style="stop-color:#3B3B3B"/>
			<stop  offset="1" style="stop-color:#3B3B3B"/>
		</linearGradient>
		<path class="st28" d="M147.5,250.9l4.7,1.7c0.1,0.1,0.3-0.1,0.2-0.1l-3-2.7L147.5,250.9z"/>
		<path class="st29" d="M30.8,186l102.8,59.5v-2.2L30.8,183.8V186z"/>
		<path class="st30" d="M31.1,184v2.2l-10-5.8v-2.2L31.1,184z"/>
		<path class="st31" d="M30.8,180.7v3.1l102.8,59.5l1.4-2.4L30.8,180.7z"/>
		<path class="st32" d="M21.1,178.2l1.3-2.3l10,5.8l-1.3,2.3L21.1,178.2z"/>
		<path class="st33" d="M30.8,178.4v2.2L134.9,241l1.9-1.1L30.8,178.4z"/>
		<path class="st34" d="M22.5,175.9l1.9-1.1l10,5.8l-1.9,1.1L22.5,175.9z"/>
		
			<linearGradient id="SVGID_3_" gradientUnits="userSpaceOnUse" x1="142.6053" y1="28.2894" x2="140.1603" y2="24.7504" gradientTransform="matrix(1 0 0 -1 0 272)">
			<stop  offset="0" style="stop-color:#F5DFC1"/>
			<stop  offset="0.432" style="stop-color:#EACFA9"/>
			<stop  offset="1" style="stop-color:#EACFA9"/>
		</linearGradient>
		<path class="st35" d="M131.6,241.1l1.9,4.1c0.2,0.5,1,0.9,1.6,1.3c0,0,14.2,5.2,14.2,5.2c-0.4-0.5,0.2-1.4,1.3-0.8l-9.1-8.2
			c-0.5-0.4-2.4-1.5-3.3-1.6l-5.9-0.3L131.6,241.1z"/>
		<g>
			<defs>
				<path id="SVGID_4_" d="M131.6,241.1l1.9,4.1c0.2,0.5,1,0.9,1.6,1.3l14.2,5.2l1.3-0.8l-9.1-8.2c-0.5-0.4-1.8-1.2-2.6-1.3
					l-6.6-0.6L131.6,241.1z"/>
			</defs>
			<clipPath id="SVGID_5_">
				<use xlink:href="#SVGID_4_"  style="overflow:visible;"/>
			</clipPath>
			<g id="Mask" class="st36">
				<path class="st37" d="M135.1,246.4l-4.1-2.4l6.5-3.8l3.5,2c-1.5,0.5-2.5-0.1-2.9,0.3c-0.5,0.4,2.6,2.4,0.6,2.7
					c-1,0.2-2.3-0.4-3.5-0.7c-0.3-0.1-0.7-0.2-0.8,0C134.3,245,135.4,245.5,135.1,246.4z"/>
			</g>
		</g>
		<path class="st31" d="M140.1,241.8c-0.4,0.9-1.7,0.4-2.2,0.7c-0.7,0.5,2.7,2.4,0.6,2.7c-1,0.1-2.4-0.5-3.3-0.8
			c-0.3-0.1-0.8-0.1-0.9,0.1c-0.3,0.5,1,1,0.8,1.9l-8.4-5l4.2-5L140.1,241.8z"/>
		<path class="st33" d="M130.9,236.5l2.5,1.4l6.7,3.9c-0.4,0.8-1.7,0.3-2.2,0.7c-0.1,0-0.1,0.1-0.1,0.2l-9.1-5.2L130.9,236.5z"/>
		<path class="st29" d="M127.8,240l8,4.6c-0.2-0.1-0.4-0.1-0.6-0.2c-0.3-0.1-0.8-0.1-0.9,0.1c-0.3,0.5,1,1,0.8,1.9l-9.8-5.6
			L127.8,240z"/>
		<path class="st38" d="M101.8,244.2c0,0.4,0.2,0.7,0.4,0.8c0.2,0.1,0.5,0.1,0.9-0.1c0.8-0.4,1.5-1.9,0.7-2.6
			c-0.2-0.2-0.5-0.2-0.8,0C102.4,242.6,101.9,243.5,101.8,244.2z"/>
		
			<linearGradient id="SVGID_6_" gradientUnits="userSpaceOnUse" x1="56.5213" y1="61.8279" x2="51.5814" y2="53.2718" gradientTransform="matrix(1 0 0 -1 0 272)">
			<stop  offset="0" style="stop-color:#393532"/>
			<stop  offset="0.338" style="stop-color:#312F2C"/>
			<stop  offset="0.754" style="stop-color:#252321"/>
			<stop  offset="1" style="stop-color:#252321"/>
		</linearGradient>
		<path class="st39" d="M8.6,184.4c-0.1,0.1-0.4,0.2-0.7,0.5c-0.1,0.1-0.1,0.1-0.2,0.2c-0.2,0.2-0.5,0.4-0.7,0.7
			c-0.1,0.1-0.1,0.2-0.2,0.2c-0.2,0.2-0.4,0.5-0.5,0.8c0,0.1-0.1,0.2-0.1,0.2c-0.2,0.3-0.3,0.7-0.4,1.1c0,0.1-0.1,0.1-0.1,0.2
			c-0.1,0.4-0.2,0.8-0.2,1.3c0,0,0,0.1,0,0.2l0,0c0,0.1,0,0.2,0,0.3c0,0.1,0,0.2,0,0.3c0,0.2,0.1,0.4,0.1,0.6c0,0.1,0,0.1,0,0.2
			c0,0.1,0.1,0.3,0.2,0.4c0.2,0.4,0.4,0.7,0.8,0.9c0,0,0.1,0,0.1,0.1c0.5,0.3,27,16,47.7,27.7c14.3,8.1,23.9,13.3,30.4,16.7
			c7,3.6,10.5,5.2,12.7,6.1c0.7,0.3,1.2,0.5,1.6,0.6c0.1,0,0.1,0,0.2,0.1c0.1,0,0.2,0.1,0.2,0.1c0.4,0.1,0.6,0,0.9-0.1
			c0.8-0.4,1.4-1.5,1.5-2.4c0-0.4-0.1-0.7-0.3-0.8c-0.1-0.1-0.3-0.3-0.3-0.3c-2.5-2.1-6.5-5.1-15.4-10.9
			c-26.7-17.5-73.7-44.7-74.3-45c-0.4-0.2-0.8-0.3-1.1-0.3C9.6,183.9,8.9,184.3,8.6,184.4z"/>
		<path class="st40" d="M100.5,240.4c0.4-0.2,0.8-0.2,1.1,0l2.3,1.8c-0.2-0.2-0.5-0.2-0.8,0c-0.6,0.3-1.1,1.2-1.2,1.9
			c0,0.4,0.2,0.7,0.4,0.8l-2.7-1.1c-0.3-0.1-0.5-0.5-0.5-1C99,242,99.7,240.9,100.5,240.4z M103.3,242.7c0.3-0.2,0.5-0.1,0.7,0
			c0.5,0.5,2,1.9,2.3,2.2c-0.1-0.1-0.2-0.1-0.3,0c-0.2,0.1-0.4,0.4-0.4,0.7c0,0.1,0.1,0.2,0.2,0.3c-0.4-0.1-2.3-0.7-3-0.9
			c-0.2-0.1-0.4-0.3-0.4-0.6C102.3,243.6,102.8,243,103.3,242.7z"/>
		<path class="st41" d="M105.9,244.9c0.1-0.1,0.2-0.1,0.3,0c0.2,0.2,0.4,0.4,0.5,0.6c0.1,0.3-0.2,0.5-0.2,0.5
			c-0.2,0.1-0.5,0-0.8-0.1c-0.1,0-0.2-0.1-0.2-0.3C105.5,245.3,105.7,245,105.9,244.9z"/>
		<path class="st42" d="M10.7,188.4l30.3,17.5l2.5-1.4L13.2,187L10.7,188.4z"/>
		<path class="st43" d="M16.9,189.6l2-1.2l-5.7-1.2l-2,1.2L16.9,189.6z"/>
		<path class="st44" d="M41.3,204.2l2-1.1v-0.6l-2,1.1V204.2z"/>
		
			<linearGradient id="SVGID_7_" gradientUnits="userSpaceOnUse" x1="43.29" y1="75.985" x2="16.88" y2="75.985" gradientTransform="matrix(1 0 0 -1 0 272)">
			<stop  offset="0" style="stop-color:#EEF1F1"/>
			<stop  offset="1" style="stop-color:#F6F7F3"/>
		</linearGradient>
		<path class="st45" d="M16.9,189.6l24.4,14.1l2-1.1l-24.4-14.1L16.9,189.6z"/>
		<path class="st46" d="M16.9,189.6l-5.7-1.2l7,4l1.3-0.7l21.8,12.6v-0.6L16.9,189.6z"/>
		<path class="st12" d="M435.2,111.9l-36-20.8c-3.3,2.6-6.4,5.3-9.1,8.1c-15.8,16.2-15.5,29.2,0.7,29.2h13.6l0.2,15.2l30.7-17.7
			V111.9z"/>
		<path class="st0" d="M209.7,249.1c-17.8,14,7.5,31.3,34.4,11.4C260.8,248.2,237.7,227.2,209.7,249.1z"/>
		<path class="st47" d="M226.4,90.1c0.3-1,1.1-0.6,1-1.7c-0.2-1.6-1.1-3.9-1.8-4.8c-3.7-5.5-13.6,0.7-13.1,6
			c0.2,1.7,2.1,5.6,4.1,6.6c1.9,1,6.2,1.6,7.9-0.3C225.8,94.6,225.8,91.9,226.4,90.1z"/>
		<path class="st48" d="M231.1,107.6c2-0.9,3.8-0.6,5.1,0.4c1.7,1.4,2.2,3.5,2.4,5.7c0.6,6.3,1.3,19.9,1.3,19.9
			c-0.3,2.9-2.6,4.2-6.4,5.4C232.6,138.5,224.8,110.5,231.1,107.6z"/>
		<path class="st49" d="M239.1,246.5c-1.3-1.3-5.1-12.6-5.1-13.9c0.2-10.6,4.2-27.7,4.5-29.5c0-0.3,0.1-0.8,0.1-1.1
			c-0.1-6.9-0.6-38-0.6-38c-2.4-2.3-5-6.3-8.9-1.4c-1.9,2.5-2.2,3.3-3.2,5.8c-3.3,8.2,1.4,36.6,1.4,36.6s-0.5,3.5-0.3,8.5
			c0.1,2.4,1.3,10.8,1.7,17.5c0.1,1-0.1,2.1-0.5,3c-0.2,0.5-0.4,1.1-0.5,1.6c0,0.8-0.1,1,0.3,2c0.3,1.6,1,1.6,2.2,5.4
			c0.4,1.3,1.2,3.1,2.2,4.1c0.9,1,2.2,1.5,3.5,2c0.5,0.2,0.9,0.4,1.4,0.4c0.8,0,1.5-0.6,1.9-1.2
			C239.6,247.7,239.1,246.5,239.1,246.5z"/>
		<path class="st50" d="M238.8,246.1c-1,0.8-2.8,1.7-4.1,1.2c-1-0.4-7.3-10.4-6.7-12.9c-2,1.3-1.6,3.6-1.3,5c0.9,4.2,1,8.4,1,8.4
			l1.2,0.6l1.2-0.6l0.1-2.5c0.2,0.4,2.2,4.5,2.8,4.9c3.2,1.8,7.5,2.1,8.4,1.3C242.1,250.8,241.4,248.9,238.8,246.1z M214.7,258.5
			c0.5,1.4,3.6,4.2,6.2,4.1c2-0.1,3.3-0.5,3.4-5.8c-0.7-4.6-2.3-9-3-12.7c-0.3-1.6-1.2-1.4-2.2-2.7c-1-1.2-2.8-0.7-3.2,0
			c-1.5,2.9-0.9,5.1-0.9,6.3C215,251.6,214.6,254.8,214.7,258.5z"/>
		<path class="st49" d="M225.5,173.7c-1.4-2.8-6.6-0.3-9.5-0.2c-2.4,0.1-5.7,0.7-5.8,3.4c-0.2,3,2.1,11.9,3.1,19.3
			c0.4,3.4,0.8,13.1,0.8,15.5c0,4.1-1.4,8.2-1.4,12.3c0,3.7,2.5,15.2,2.9,17.8c0,5.2-0.2,8.6,0,12.3c0.1,1,0.2,1.9,0.6,2.3
			c1.6,1.3,7.4,0.6,7.1-1.1c-0.9-4.7-1.8-10.1-2.2-13.8c0.6-6.8,1.9-22.5,2-24.4c0-1,0.1-1.9,0.2-2.9
			C226.2,186.2,227.6,177.9,225.5,173.7z"/>
		<path class="st51" d="M238.2,163.9c-0.5-2.5-23.7,1.8-24.2,2.2c0,0-5,8.3-5,14.5c0,8.2,3.1,9.8,4.3,29.5c1.5,1.3,4.1,1.9,6.8,1.8
			c1.8,0,3.6-0.5,5.3-1.4c5.1-2.7,11.5-6.6,13.3-7.7c0.3-0.2,0.5-0.5,0.5-0.9C239.6,196.4,238.2,163.9,238.2,163.9z"/>
		<path class="st48" d="M240.2,129.3c-0.1-3.3-3.8-14.4-4.6-15.9c-1.9-3.8,0-5.5-1.9-6.1c-0.9-0.3-1.7,0.1-2,0.3
			c-0.5,0.2-17.1,9.1-17.8,9.4c-1,0.5-2.1,1.4-2.7,2.1c-1.4,1.6,4,19,4.4,31.7c0.2,6.3-1.4,11.9-2.8,16.7c1.3,2.4,4.3,3.8,7.7,4.3
			c5,0.8,10.1-0.4,14.3-3.2c2.1-1.4,3.5-2.9,3.6-4.2c0,0-0.4-11.2-0.6-14.8C237.2,135.7,240.3,133.8,240.2,129.3z"/>
		<path class="st52" d="M232.1,142.9c4.7-18.8,1.3-31.9-0.3-33.2c-0.3-0.2-1.7-1.1-2-1.2c-2.5,1.3-7.1,3.8-10.7,5.7
			C219.4,116.1,228.1,130.6,232.1,142.9z"/>
		<path class="st6" d="M230.9,119.2l-1.3,0.3v17.4l2.5,6l1.6-7.4C233.7,135.5,232,125.2,230.9,119.2z"/>
		<path class="st53" d="M232.4,143.6c-2.8-8.7-7.4-18.2-13.3-29.1c0,0-5.2,1.7,3.2,14.6C224.1,131.8,229.6,138.9,232.4,143.6z
			 M232.1,142.8c0,0,2.5-10.9,1.8-23.3c-0.2-3.8-2.1-6.9-2.7-11l1.5,1.6c1.9,2,3,4.5,3.2,7.2C236.3,123.1,236.2,133.9,232.1,142.8z"
			/>
		<path class="st48" d="M249.3,153c-3.1-1.2-18.5-9.2-18.5-9.2s-10.1-19.8-11.3-21.6c-2.1-3.1-4.4-6.2-7.2-4.4
			c-11,7.1,12.5,32.1,12.5,32.1s0.4,0.6,22.6,8.1C248.6,158.1,250.4,153.3,249.3,153z"/>
		<path class="st49" d="M253.9,157c0,0.2-0.1,0.3-0.2,0.5c-0.3,0.4-0.7,0.6-1.1,0.8c-0.4,0.2-0.8,0.4-1.2,0.6
			c-0.3,0.2-0.7,0.3-1,0.4c-0.5,0.1-1-0.1-1.5-0.3c-0.6-0.2-0.9-0.7-1.4-1.1c-1.4-1.1,0.8-4.5,1.7-4.2c1.4,0.5,2.6,1.4,3.8,2.2
			c0.2,0.2,0.5,0.4,0.7,0.6C253.9,156.5,254,156.7,253.9,157z"/>
		<path class="st54" d="M220.2,105.4c0.6-0.8,2.2-0.4,3.1-0.3c1.5,0.1,3,0.2,4.5,0.4c0.4,0,2.2,0.1,2.3,0.7c0.2,1,1.3,3.1,1.4,4
			c0,0,1.2,4.8-1.3,5.3l-0.4,1.7l-1.3-1c-3.5,1.4-7-1.4-7.9-2.1c0.5-3.5-1-5.9-0.7-7.2C219.9,106.5,220.1,105.5,220.2,105.4z"/>
		<path class="st55" d="M231.6,111.8c0,0,1,2.4-1.3,3.5c1.1,0.8,2.7,2,3.8,3c-0.2-0.3-1.1-4.9-2.1-7
			C231.5,110.6,231.6,111.4,231.6,111.8z"/>
		<path class="st49" d="M232.1,110.7c-0.4,1.5-0.9,3.3-2.3,3.7c-1.7,0.5-6.2-1.6-8.4-4.3c-2.5-3.2-4.1-7.4-3.3-9.7
			c0.6-1.7,3.8-3.7,5.4-4.8c1.1-0.8,2.4-1.4,3.6-1.9c3.6-1.4,6.8-1.1,6.9,2.6c0.1,1.8,0.2,3.6,0,5.4
			C233.5,107.7,232.7,108.6,232.1,110.7z"/>
		<path class="st6" d="M232.2,116.7c0,0-0.7-0.6-1.1-0.6c-0.4,0-0.8,0.2-1.4,0.4c-0.8,0.3-1.5,0.5-1.7,0.9l-0.1,0l-0.5,1.3l0.5,0.2
			c0.4,0.9,1.5,1.6,2.5,1.3c0.9-0.2,1.5-0.9,1.5-2.5L232.2,116.7z"/>
		<path class="st55" d="M228.5,116c0,0-1.1,2.1-2.1,5.2c-5.8-0.8-8.3-4.4-8.2-6.6c0.3-0.9,1.3-2.2,2.5-2.9
			C220.6,114.2,224.8,116.7,228.5,116z"/>
		<path class="st47" d="M234.1,100.6c1.5-3.3,1.4-13.4-6.4-14.8c-3.5-0.2-7.2,0.6-9.6,3.1c-3.2,3.1-4.3,9.1-2.4,13
			c0.8,1.6,2.5,3.8,3.9,5.3c-0.4-0.7-1.2-2.9-1-4.2c0.1-0.5,0.4-1.1,1-1.2c0.8-0.2,1.7,0.5,1.7,1.9c0,0.2-0.1,0.9,0.3,0.9
			c0.4,0,0.4-0.6,0.4-0.8c0.1-4,7.7-4.6,8.3-8.8c1.4,1.7,2.5,1.5,3,1.8c0.9,0.5,0.9,1.7,0.9,2.6
			C234.1,100.1,234.1,100.6,234.1,100.6z"/>
		<path class="st3" d="M248,138.6l-24.1,14l15.5,8.9l24.1-14L248,138.6z"/>
		<path class="st56" d="M239.6,160.9l24.1-14c0.1-0.1,0.3-0.1,0.4,0l-24.1,14C239.8,160.8,239.7,160.8,239.6,160.9z"/>
		<path class="st2" d="M246,146.5l-6.4,3.7c0,0-4.2-2.4-4.2-2.4c0,0,6.4-3.7,6.4-3.7L246,146.5C246,146.5,246,146.5,246,146.5z"/>
		<path class="st57" d="M234.3,155.9l-1.1,0.6l-0.9-0.5c0-0.2,1.1-0.8,1.1-0.8l0.9,0.5C234.3,155.9,234.3,155.9,234.3,155.9z
			 M235.9,156.8l-1.1,0.6l-0.9-0.5c0-0.1,1.1-0.8,1.1-0.8l0.9,0.5C235.9,156.8,235.9,156.8,235.9,156.8z M236,154.9l-1.1,0.6
			L234,155c0-0.1,1.1-0.8,1.1-0.8l0.9,0.5C236,154.9,236,154.9,236,154.9z M237.6,153.9l-1.1,0.6l-0.9-0.5c0-0.1,1.1-0.8,1.1-0.8
			l0.9,0.5C237.7,153.9,237.7,153.9,237.6,153.9z M239,158.6l-1.1,0.6l-0.9-0.5c0-0.1,1.1-0.8,1.1-0.8l0.9,0.5
			C239.1,158.5,239.1,158.6,239,158.6z M240.6,159.5l-1.1,0.6l-0.9-0.5c0-0.1,1.1-0.8,1.1-0.8l0.9,0.5
			C240.7,159.4,240.6,159.5,240.6,159.5z M240.8,155.7l-4.4,2.6h-0.1l-0.9-0.5c0-0.1,1.5-1,1.5-1c0.1,0,0.1-0.1,0.1-0.1
			c0,0,0-0.1-0.1-0.1l-1.2-0.7c0,0-0.1-0.1-0.1-0.1c0,0,0-0.1,0.1-0.1l2.6-1.5h0.1l2.4,1.4c0.1,0,0.1,0.1,0.1,0.1
			C240.8,155.7,240.8,155.7,240.8,155.7z M240.7,157.6l-1.1,0.6l-0.9-0.5c0-0.1,1.1-0.8,1.1-0.8l0.9,0.5
			C240.8,157.6,240.7,157.6,240.7,157.6z M240.8,152.1l-1.6,0.9l-0.9-0.5c0-0.1,1.6-1.1,1.6-1.1l0.9,0.5
			C240.9,152.1,240.8,152.1,240.8,152.1z M241.8,153.3l-1.1,0.6l-0.9-0.5c0-0.1,1.1-0.8,1.1-0.8l0.9,0.5
			C241.9,153.3,241.9,153.3,241.8,153.3z M242.3,158.5l-1.1,0.6l-0.9-0.5c0-0.2,1.1-0.8,1.1-0.8l0.9,0.5
			C242.4,158.5,242.3,158.5,242.3,158.5z M242.4,156.6l-1.1,0.6l-0.9-0.5c0-0.1,1.1-0.8,1.1-0.8l0.9,0.5
			C242.4,156.6,242.4,156.6,242.4,156.6z M242.5,151.1l-1.1,0.6l-0.9-0.5c0-0.2,1.1-0.8,1.1-0.8l0.9,0.5
			C242.6,151.1,242.5,151.1,242.5,151.1z M243.5,152.4l-1.1,0.6l-0.9-0.5c0-0.2,1.1-0.8,1.1-0.8l0.9,0.5
			C243.6,152.3,243.6,152.3,243.5,152.4z M244,157.5l-1.1,0.6l-0.9-0.5c0-0.1,1.1-0.8,1.1-0.8l0.9,0.5
			C244,157.5,244,157.5,244,157.5z M244,153.9l-1.6,0.9l-0.9-0.5c0-0.1,1.6-1.1,1.6-1.1l0.9,0.5C244,153.8,244,153.9,244,153.9z
			 M244.2,150.1l-1.1,0.6l-0.9-0.5c0-0.1,1.1-0.8,1.1-0.8l0.9,0.5C244.2,150.1,244.2,150.1,244.2,150.1z M245,155.1l-1.1,0.6
			l-0.9-0.5c0-0.2,1.1-0.8,1.1-0.8l0.9,0.5C245,155.1,245,155.1,245,155.1z M245.2,151.4l-1.1,0.6l-0.9-0.5c0-0.2,1.1-0.8,1.1-0.8
			l0.9,0.5C245.3,151.3,245.2,151.4,245.2,151.4z M245.6,152.9l-1.1,0.6l-0.9-0.5c0-0.1,1.1-0.8,1.1-0.8l0.9,0.5
			C245.7,152.9,245.7,152.9,245.6,152.9z M245.9,149.2l-1.1,0.6l-0.9-0.5c0-0.1,1.1-0.8,1.1-0.8l0.9,0.5
			C245.9,149.1,245.9,149.1,245.9,149.2z M246.7,154.1l-1.1,0.6l-0.9-0.5c0-0.1,1.1-0.8,1.1-0.8l0.9,0.5
			C246.7,154.1,246.7,154.1,246.7,154.1z M246.9,150.4l-1.1,0.6l-0.9-0.5c0-0.1,1.1-0.8,1.1-0.8l0.9,0.5
			C247,150.4,246.9,150.4,246.9,150.4z M247.1,155.7l-1.6,0.9l-0.9-0.5c0-0.1,1.6-1.1,1.6-1.1l0.9,0.5
			C247.2,155.6,247.1,155.6,247.1,155.7z M247.4,151.9l-1.1,0.6l-0.9-0.5c0-0.2,1.1-0.8,1.1-0.8l0.9,0.5
			C247.4,151.9,247.4,151.9,247.4,151.9z M247.6,148.2l-1.1,0.6l-0.9-0.5c0-0.2,1.1-0.8,1.1-0.8l0.9,0.5
			C247.6,148.1,247.6,148.2,247.6,148.2z M248.4,153.2l-1.1,0.6l-0.9-0.5c0-0.1,1.1-0.8,1.1-0.8l0.9,0.5
			C248.4,153.1,248.4,153.1,248.4,153.2z M248.6,149.4l-1.1,0.6l-0.9-0.5c0-0.2,1.1-0.8,1.1-0.8l0.9,0.5
			C248.6,149.4,248.6,149.4,248.6,149.4z M255.6,150.8l-7.9,4.5l-0.9-0.5c0-0.2,7.9-4.7,7.9-4.7l0.9,0.5
			C255.6,150.7,255.6,150.8,255.6,150.8z M249.3,147.2l-1.1,0.6l-0.9-0.5c0-0.1,1.1-0.8,1.1-0.8l0.9,0.5
			C249.3,147.1,249.3,147.2,249.3,147.2z M250.1,152.2l-1.1,0.6l-0.9-0.5c0-0.2,1.1-0.8,1.1-0.8l0.9,0.5
			C250.1,152.1,250.1,152.2,250.1,152.2z M250.3,148.4l-1.1,0.6l-0.9-0.5c0-0.1,1.1-0.8,1.1-0.8l0.9,0.5
			C250.3,148.4,250.3,148.4,250.3,148.4z M250.7,150l-1.1,0.6l-0.9-0.5c0-0.1,1.1-0.8,1.1-0.8l0.9,0.5
			C250.8,149.9,250.8,149.9,250.7,150z M250.9,146.2l-1.1,0.6l-0.9-0.5c0-0.1,1.1-0.8,1.1-0.8l0.9,0.5
			C251,146.2,251,146.2,250.9,146.2z M251.8,151.2l-1.1,0.6l-0.9-0.5c0-0.1,1.1-0.8,1.1-0.8l0.9,0.5
			C251.8,151.1,251.8,151.2,251.8,151.2z M252,147.4l-1.1,0.6l-0.9-0.5c0-0.1,1.1-0.8,1.1-0.8l0.9,0.5
			C252,147.4,252,147.4,252,147.4z M252.4,149l-1.1,0.6l-0.9-0.5c0-0.2,1.1-0.8,1.1-0.8l0.9,0.5C252.5,148.9,252.4,149,252.4,149z
			 M252.6,145.2l-1.1,0.6l-0.9-0.5c0-0.1,1.1-0.8,1.1-0.8l0.9,0.5C252.7,145.2,252.7,145.2,252.6,145.2z M253.4,150.2l-1.1,0.6
			l-0.9-0.5c0-0.1,1.1-0.8,1.1-0.8l0.9,0.5C253.5,150.2,253.5,150.2,253.4,150.2z M253.7,146.5l-1.1,0.6l-0.9-0.5
			c0-0.2,1.1-0.8,1.1-0.8l0.9,0.5C253.7,146.4,253.7,146.4,253.7,146.5z M254.1,148l-1.1,0.6l-0.9-0.5c0-0.2,1.1-0.8,1.1-0.8
			l0.9,0.5C254.2,148,254.1,148,254.1,148z M254.3,144.3l-1.1,0.6l-0.9-0.5c0-0.2,1.1-0.8,1.1-0.8l0.9,0.5
			C254.4,144.2,254.4,144.2,254.3,144.3z M255.1,149.2l-1.1,0.6l-0.9-0.5c0-0.1,1.1-0.8,1.1-0.8l0.9,0.5
			C255.2,149.2,255.2,149.2,255.1,149.2z M255.4,145.5l-1.1,0.6l-0.9-0.5c0-0.1,1.1-0.8,1.1-0.8l0.9,0.5
			C255.4,145.4,255.4,145.5,255.4,145.5z M249,150.9l-1.1,0.6l-0.9-0.5c0-0.1,1.1-0.8,1.1-0.8l0.9,0.5
			C249.1,150.9,249.1,150.9,249,150.9z M255.8,147l-1.1,0.6l-0.9-0.5c0-0.1,1.1-0.8,1.1-0.8l0.9,0.5C255.9,147,255.8,147,255.8,147z
			 M256,143.3l-1.1,0.6l-0.9-0.5c0-0.1,1.1-0.8,1.1-0.8l0.9,0.5C256.1,143.2,256.1,143.3,256,143.3z M256.8,148.3l-1.1,0.6l-0.9-0.5
			c0-0.1,1.1-0.8,1.1-0.8l0.9,0.5C256.9,148.2,256.9,148.2,256.8,148.3z M257.3,149.8l-1.1,0.6l-0.9-0.5c0-0.1,1.1-0.8,1.1-0.8
			l0.9,0.5C257.3,149.8,257.3,149.8,257.3,149.8z M257.5,146.1l-1.1,0.6l-0.9-0.5c0-0.1,1.1-0.8,1.1-0.8l0.9,0.5
			C257.5,146,257.5,146,257.5,146.1z M257.6,144.2l-1.6,0.9l-0.9-0.5c0-0.1,1.6-1.1,1.6-1.1l0.9,0.5
			C257.6,144.1,257.6,144.2,257.6,144.2z M258.5,147.3l-1.1,0.6l-0.9-0.5c0-0.2,1.1-0.8,1.1-0.8l0.9,0.5
			C258.6,147.2,258.5,147.3,258.5,147.3z M259,148.8l-1.1,0.6l-0.9-0.5c0-0.2,1.1-0.8,1.1-0.8l0.9,0.5
			C259,148.8,259,148.8,259,148.8z M259.2,145.1l-1.1,0.6l-0.9-0.5c0-0.1,1.1-0.8,1.1-0.8l0.9,0.5
			C259.2,145,259.2,145.1,259.2,145.1z M260.6,147.8l-1.1,0.6l-0.9-0.5c0-0.1,1.1-0.8,1.1-0.8l0.9,0.5
			C260.7,147.8,260.7,147.8,260.6,147.8z M260.8,146l-1.6,0.9l-0.9-0.5c0-0.1,1.6-1.1,1.6-1.1l0.9,0.5
			C260.8,145.9,260.8,146,260.8,146z M262.3,146.9l-1.1,0.6l-0.9-0.5c0-0.1,1.1-0.8,1.1-0.8l0.9,0.5
			C262.4,146.8,262.4,146.8,262.3,146.9z"/>
		<path class="st48" d="M239.6,132.3c0,0,3.1,5.2,5.3,8.5c1.8,2.9-3.7,5.2-4.8,3.7l-3.5-4.9L239.6,132.3z"/>
		<path class="st49" d="M241.5,143.8c1.8-5.7,7,1.8,6.9,4c-0.1,0.8-0.3,1.5-0.6,2.3c-0.9,2.6-2.1,3.8-4.1,1.9
			C242,150.4,241.1,145.3,241.5,143.8z"/>
		<path class="st2" d="M268.6,132.2l-24.1,14l-4,15.3c0.1,0.2,0.1,0.4,0.1,0.6c0,0.3-0.1,0.4-0.2,0.5l24.1-14
			c0.1-0.1,0.2-0.3,0.2-0.5c0-0.2,0-0.4-0.1-0.6L268.6,132.2z"/>
		<path class="st3" d="M244.2,145.9l24.1-14l0.3,0.3l-24.1,14L244.2,145.9z"/>
		<path class="st1" d="M244.2,145.9l0.3,0.3l-4,15.3c0.1,0.2,0.1,0.4,0.1,0.6c0,0.5-0.3,0.7-0.6,0.5l-16.2-9.3l0-0.7l15.5,8.9v-0.1
			c0-0.5,0.3-0.7,0.6-0.5L244.2,145.9z"/>
		<path class="st58" d="M256.5,146.5c-0.2,0.8-1.1,1.8-2,2.3c-1,0.5-1.6,0.2-1.4-0.6c0.2-0.8,1.1-1.8,2-2.3
			C256.1,145.4,256.7,145.7,256.5,146.5z M255.1,146.2c-0.8,0.4-1.5,1.2-1.6,1.9s0.4,0.8,1.1,0.4c0.8-0.4,1.5-1.2,1.6-1.9
			C256.3,146,255.8,145.8,255.1,146.2z"/>
		<path class="st49" d="M254.1,156.5c-0.1,0.3-0.2,0.5-0.4,0.8c-0.2,0.3-0.6,0.5-1,0.7c-0.5,0.2-1.1,0.5-1.6,0.8
			c-0.3,0.2-0.6,0.3-1,0.3c-0.5,0-0.9-0.3-0.9-0.3c0.3-1,1.1-3.4,1.7-4.2c0.7-0.9,2.6-2.4,3.4-2.3c0.6,0.1,0.7,0.8,0.6,1.2
			C254.8,154.5,254.5,155.5,254.1,156.5z"/>
	</g>
</g>
</svg>
