<?xml version="1.0" encoding="utf-8"?>
<!-- Generator: Adobe Illustrator 23.0.4, SVG Export Plug-In . SVG Version: 6.00 Build 0)  -->
<svg version="1.1" id="Слой_1" xmlns="http://www.w3.org/2000/svg" xmlns:xlink="http://www.w3.org/1999/xlink" x="0px" y="0px"
	 viewBox="0 0 327 309" style="enable-background:new 0 0 327 309;" xml:space="preserve">
<style type="text/css">
	.st0{fill:#BECDD4;}
	.st1{fill:#FEBFBF;}
	.st2{fill:#FEC7C6;}
	.st3{fill:#FA9698;}
	.st4{fill:#FFDC6E;}
	.st5{fill:#5C6467;}
	.st6{fill:#7282B5;}
	.st7{fill:#E8D0C8;}
	.st8{fill:#A0ABCD;}
	.st9{fill:#FDD249;}
	.st10{fill:#DEDEDE;}
	.st11{fill:#C99A6B;}
	.st12{fill:#87623F;}
	.st13{fill:#AE835B;}
	.st14{fill:#E8B687;}
	.st15{fill:#D9AF84;}
	.st16{fill:#EBCBAB;}
	.st17{fill:#9C754E;}
	.st18{fill:#54493E;}
	.st19{fill:#D1A986;}
	.st20{fill-rule:evenodd;clip-rule:evenodd;fill:#87623F;}
	.st21{fill:#FFADB7;}
	.st22{fill:url(#SVGID_1_);}
	.st23{fill:#754554;}
	.st24{fill:url(#SVGID_2_);}
	.st25{fill:#FECB4C;}
	.st26{fill:#FCF5E8;}
	.st27{fill:#725E6D;}
	.st28{fill:#DEE5E9;}
	.st29{fill:url(#SVGID_3_);}
	.st30{fill:#EFF0F5;}
	.st31{fill:#BFC4D5;}
	.st32{fill:#2A2A2C;}
	.st33{fill:#3A3F47;}
	.st34{fill:#3E444D;}
	.st35{fill:#748ACB;}
	.st36{fill:#FCFBFA;}
	.st37{fill:#516F83;}
	.st38{fill:#C4C8D8;}
	.st39{fill:#A0A6C0;}
	.st40{fill:#191F28;}
	.st41{fill:url(#SVGID_4_);}
	.st42{fill:url(#SVGID_5_);}
	.st43{fill:#869741;}
	.st44{fill:url(#SVGID_6_);}
	.st45{fill:#7DD171;}
	.st46{fill-rule:evenodd;clip-rule:evenodd;fill:#D1E89B;}
	.st47{fill:#FFC536;}
	.st48{fill:#FF4C4A;}
	.st49{fill:#FF8685;}
</style>
<g>
	<g>
		<path class="st0" d="M318.5,187.2c-11.2-6.5-29.4-6.4-40.6,0.1c-4,2.3-6.5,5.1-7.7,8.1l-19,11l24.2,14l10.7-6.2
			c10.6,2.8,23.5,1.6,32.3-3.4C329.6,204.2,329.7,193.7,318.5,187.2z"/>
		<path class="st1" d="M302.9,62.3c0,0,0.8,8.3,1.7,16.6c0.8,7.2,1.5,14.4,1.8,15.8c0.6,2.9,7.4,18.1,8,19.8
			c0.1,0.3,0.2,0.8,0.2,1.3c0.2,1.3,0.2,3.1,0,4.6c-0.2,1.3-0.5,2.2-1,2.3c-1.3,0.2-1.2,0.7-1.2,0.8c0,0.2,1.5,0.2,1.5,0.2
			s-1.7,0.6-1.9,1.1c-0.2,0.5,0.8,0.6,0.8,0.6s-0.8,0.9-0.5,1.1c0.3,0.2,1.9,0.1,1.9,0.1s-0.5,0.5-0.5,0.8c0,0.2,0.1,0.3,0.3,0.4
			c0.2,0.1,0.4,0.2,0.6,0.2c0.4,0,2.7-1,3-1.2c0.3-0.3,1.6-4.7,1.6-4.7s-0.1-2.7-0.8-4.9c-0.6-2.1-0.4-2.3-1.2-8.7
			c-0.8-6.4-3.8-19-4.5-19.9c-0.7-1-2.1-11.8-3.7-19C307.3,62.2,302.9,62.3,302.9,62.3z"/>
		<path class="st2" d="M315.4,121.9c0,0-0.4,1.3-0.4,2.2c0,0.8-0.1,2.1-0.7,2.3c-0.6,0.2-1.1,0-1.1-0.9c0-0.8,0.1-2.3,0.2-2.9
			c0.1-0.6-0.3-2.8-0.2-3.8c0.1-1,0.6-2.9,1.8-3.2c1.2-0.2,1.6,1,1.7,1.9c0.1,1-0.6,3.2-0.8,3.5
			C315.8,121.3,315.4,121.9,315.4,121.9z"/>
		<path class="st3" d="M312.8,125.3c0,0-0.8,0.9-0.5,1.1c0.3,0.2,1.9,0.1,1.9,0.1s-0.5,0.5-0.5,0.8c0,0.1,0.1,0.3,0.3,0.4
			c0.2-0.3,0.3-0.6,0.5-0.6c0.3-0.2,0.7-0.1,1.1-0.3c0.5-0.2,0.9-0.9,0.9-0.9l0.8-2.1c0,0-0.4-0.8-0.8-1.7c-0.4-1-0.4-1.9-0.4-1.9
			s-0.6,0.1-1.5,0.3c-0.2,1.3-0.5,2.2-1,2.3c-1.3,0.2-1.2,0.7-1.2,0.8c0,0.2,1.5,0.2,1.5,0.2s-1.7,0.6-1.9,1.1
			C311.8,125.3,312.8,125.3,312.8,125.3z M304.5,78.8c0.8,7.2,1.5,14.4,1.8,15.8c0.6,2.9,7.4,18.1,8,19.8c0.1,0.3,0.2,0.8,0.2,1.3
			c0.4-0.9,0.8-2,0.7-2.9c-0.1-1.5-5.3-13.5-6.4-17.2c-1-3.7-3.7-16.4-3.7-16.4S305,79.1,304.5,78.8z"/>
		<path class="st4" d="M301.2,60.6c0,0,4.1-0.5,6.5,3.6c2.4,4.2,4.4,18.5,4.4,18.5s-2,3.3-8.7,3.8C296.8,87.1,301.2,60.6,301.2,60.6
			z"/>
		<path class="st5" d="M305.7,188.1c0,0,5,3,6,3.5c0.9,0.4,5,3.1,5.7,4.1c0.7,1,0.5,1.8,0.3,2.3c-0.2,0.6-1.5,1.5-2.3,1.6
			c-0.8,0.1-4.9-0.3-7.1-1.5c-2.2-1.2-2-1.7-2.3-1.8c-0.3-0.1-2.2-0.6-2.2-0.6s-0.5,0.4-1.4,0.1c-0.9-0.2-3.6-1-3.8-1.7
			c-0.2-0.7-0.4-3.2,0-4.5C299,188.5,305.7,188.1,305.7,188.1z"/>
		<path class="st1" d="M306.6,188.9c0,0,3.2,1.9,2.8,3c-0.4,1.1-4,1-5.4,0.5c-1.8-0.6-2.5-1.2-2.7-2.3c-0.2-1.1,1.2-1.3,1.2-1.3
			L306.6,188.9z"/>
		<path class="st6" d="M310,137.6c-1.5,11.8-1.4,13.6-1.6,16.3c-0.2,2.8-1.7,34.7-1.7,35.2c0,0.4-2.1,1.9-4.4,2.1
			c-0.2,0-0.5,0-0.7,0c-2.5-0.2-3.3-0.5-3.4-1.5s-2-27.2-1.8-32c-1.3-5.6-1-22.9-0.9-29.8c0.1-1.8,0.1-2.9,0.1-2.9l14.8-7.2
			C310.5,117.6,311.5,125.8,310,137.6z"/>
		<path class="st7" d="M302.4,191.2c-0.2,0-0.5,0-0.7,0c-2.5-0.2-3.3-0.5-3.4-1.5s-2-27.2-1.8-32c-1.3-5.6-1-22.9-0.9-29.8
			c2.1-0.5,4.2,1.1,5.6,7.3c0,0-3.2,2.3-2.8,11.5c0.4,9.2,1.1,11.9,1.1,15c0.1,3.1,0,23.5,0.8,26.6
			C300.7,189.1,301.4,190.1,302.4,191.2z"/>
		<path class="st5" d="M292.6,196.5c0,0,0.2,0.2,0.5,0.6c0.8,1,2.4,3.2,3.4,4.4c1.4,1.6,3.7,5.7,3.9,6.8c0.1,1.1-0.1,1.5-0.4,1.8
			c-0.3,0.3-1.8,1.4-4.2,1.1c-2.4-0.3-4.4-1.8-5.8-3.4s-3.7-5.3-4.2-5.9c-0.5-0.6-2.2-2-2.5-2.6c-0.3-0.6-0.1-3.3,0.5-4.1
			s9.1,1.2,9.1,1.2L292.6,196.5z"/>
		<path class="st1" d="M291.8,195.3c0,0,2.4,3.1,2.2,4c-0.2,1-2.4,1.5-3.8,1.2s-4.9-2.8-4.6-3.8
			C285.8,195.7,291.8,195.3,291.8,195.3z"/>
		<path class="st6" d="M303.1,132.1c-0.8,2.8-5.7,6.3-5.7,6.3s-0.8,7.2-1.7,22.1c-0.4,5.6-1,19.9-2.6,36.6c-2.4,2.2-4.9,2-6.6,1.2
			c-0.5-0.2-0.9-0.4-1.3-0.6c-0.7-0.4-1.2-0.9-1.2-0.9c-0.2-0.1-1.5-13.6-1.4-22.3c0-4.2,1-14.1,1-16c1.2-6.4-4.8-15.3-3.8-32.9
			c0.1-1.4,1.8-2.2,4.2-2.7c6.8-1.4,19.3-0.2,19.3-0.2S303.9,129.3,303.1,132.1z"/>
		<path class="st8" d="M285.8,198c-2.8-14.6-0.5-31.8,0.2-37.4c0.1-0.6,0.1-1,0.2-1.3c0.3-2.6-0.9-9.2-2.1-16.1
			c-0.3-1.4-0.5-2.8-0.8-4.2c-1.5-8.7-0.4-15.4-0.4-15.4l0.5,0.1c0,0.1-1.1,6.7,0.4,15.2c0.2,1.4,0.5,2.8,0.8,4.2
			c1.3,7.3,2.5,13.6,2.2,16.3c0,0.3-0.1,0.7-0.2,1.3c-0.7,5.6-3,22.7-0.2,37.2L285.8,198z"/>
		<path class="st7" d="M284.6,184.2c0.3,4.5,0.4,9.6,0.6,13.4c-0.7-0.4-1.2-0.9-1.2-0.9c-0.2-0.1-1.5-13.6-1.4-22.3
			c0-4.2,1-14.1,1-16c1.2-6.4-4.8-15.3-3.8-32.9c0.1-1.4,1.8-2.2,4.2-2.7c0.5,1.4-1.9,2.3-1.5,4c0,0-0.5,11.8,0.4,16.3
			c1,4.5,2.9,13.5,2.1,17.4C284.3,164.3,283.9,173.2,284.6,184.2z"/>
		<path class="st9" d="M311.7,116.5c0,0-0.7,4.6-9.4,8.5c-6.7,2.9-13.1,3-16.9,2.4c-1.2-0.2-2.1-0.4-2.8-0.6c-2.9-1-3.2-1.4-3.2-2.7
			c-0.1-1.4,0.1-9.3-0.7-18.1c-0.8-8.8-4.6-19.8-4.6-19.8c0-0.1-0.4-1.7-0.8-3.6c-0.4-2-0.9-4.2-0.9-5.2c0-2,0.6-4.2,4.4-7.5
			c3.9-3.4,7.3-6.1,9.1-7.4c1.8-1.2,11.3-2.7,14.3-2.3c7.3,0.9,7.9,8.1,8.4,10.3c0.5,2.2,1.6,11.5,1.4,15.8
			c-0.1,4.4-0.6,8.3-0.6,13.4C309.4,104.7,311.7,116.5,311.7,116.5z"/>
		<path class="st10" d="M290.5,119.3c-1.7,3.8-4.3,3-4.4,5.6c0,0.7-0.3,1.6-0.7,2.5c-1.2-0.2-2.1-0.4-2.8-0.6
			c-2.9-1-3.2-1.4-3.2-2.7c-0.1-1.4,0.1-9.3-0.7-18.1c-0.8-8.8-4.6-19.8-4.6-19.8c0-0.1-0.4-1.7-0.8-3.6c2.8-1.4,6.1-2,10.2-1.4
			c0,0-2.3,6.2-2.2,7.2l0.1,1c0,0,8.9,4.6,9.6,5.7C291.7,96.2,292.2,115.5,290.5,119.3z"/>
		<path class="st11" d="M272,128.3l18.5-10.7V96.4L272,107.1V128.3z"/>
		<path class="st12" d="M290.5,96.4L272,107.1l10-5.3L290.5,96.4z"/>
		<path class="st13" d="M272,128.3l-18.5-10.7V96.4l18.5,10.7V128.3z"/>
		<path class="st14" d="M272,107.1l-18.5-10.7L272,85.7l18.5,10.7L272,107.1z"/>
		<path class="st15" d="M280.4,110.6l3-1.7v-8.4l-3,1.7V110.6z"/>
		<path class="st16" d="M280.4,102.2l-18.5-10.7l3-1.7l18.5,10.7L280.4,102.2z"/>
		<path class="st12" d="M253.5,96.4l18.5,10.7l-10-5.3L253.5,96.4z"/>
		<path class="st17" d="M264,110.8l-3-1.7v-8.4l3,1.7V110.8z"/>
		<path class="st18" d="M264,102.4l18.5-10.7l-3-1.7L261,100.7L264,102.4z"/>
		<path class="st19" d="M262.6,101.6l18.5-10.7l-0.2-0.1l-18.5,10.7L262.6,101.6z"/>
		<path class="st13" d="M264,102.4v0.3l-1.8-1l-1.2-0.7v-0.4L264,102.4z M282,101.7l-1.6,0.9v-0.3l3-1.7v0.4L282,101.7z"/>
		<path class="st1" d="M274.8,72.6c0,0-22,21.9-22.1,23.5s6.7,24.9,7.1,26.8c0.4,1.9,1.5,3.4,2.5,4.2c1.1,0.8,6.7,4.3,7.9,4.2
			c1.2-0.1,1.8-0.6,1.8-0.6s2.8-1.2,3.3-1.7c0.4-0.5,1.3-1.7,1.1-2.4c-0.1-0.7-4.3,1.8-4.6,1.8c-0.3,0-3.2-2.9-4.9-4.2
			c-1.6-1.3-2-0.8-2.5-3.4c-0.4-2.7-2.6-21.2-2.4-22.2c0.2-1,9-6.4,14-10.8c5-4.4,6.5-7.1,5.2-11.2C280,72.6,277.3,70.8,274.8,72.6z
			"/>
		<path class="st2" d="M265.5,123.9c0,0-0.8,0.9,0.5,2.3c1.4,1.4,2.8,1.5,4,1.6c1.2,0.1,2.3,0.5,2.3,0.5s1.4,1.3,2.2,1.3
			c0.9,0,1-0.9,0.7-1.5c-0.3-0.6-2.1-1.6-2.4-1.8c-0.3-0.2-2.8-2-3.3-2.2C269,123.9,266.3,123.1,265.5,123.9z"/>
		<path class="st4" d="M262.2,84.9c0,0,7.6,7,9.2,7.8c1.7,0.8,10-7.6,10.8-8.9c2.6-4.1,1.2-9.3-2.6-11.4c-3.9-2.2-5.8,0.2-7,1.1
			C271.5,74.5,262.2,84.9,262.2,84.9z"/>
		<path class="st20" d="M270.8,112.3l-4.2-2.4V105l4.2,2.5V112.3z M266.8,109.7l3.7,2.1v-4.2l-3.7-2.1V109.7z M269.1,110.8l-0.9-0.5
			v-2l-0.9-0.5l1.4-0.9l1.4,2.5l-0.9-0.5V110.8z"/>
		<path class="st21" d="M298.5,63.9c0,2.2,0.5,2.9,0,3.6c-0.4,0.7-3.1,1.3-5.8,0.7c-0.6-0.1-1.2-0.3-2-0.7c0,0,0,0,0,0
			c-1.5-0.7-2.5-1.8-3.5-3.5c-0.4-0.7-0.3-1.3-0.3-1.3s1.6-2.1,2.3-4.6c0.4-1.6,0.3-4,0.1-5.5c-0.1-0.9-0.2-1.5-0.2-1.5
			s-1.1-3.6,0.2-3.9c1.3-0.3,9.7,7,9.7,7s-0.2,2.9-0.4,5.6c0,1.1-0.1,2.2-0.1,3.1C298.5,63.2,298.5,63.6,298.5,63.9z"/>
		
			<linearGradient id="SVGID_1_" gradientUnits="userSpaceOnUse" x1="291.5765" y1="249.8078" x2="297.6965" y2="242.0608" gradientTransform="matrix(1 0 0 -1 0 310)">
			<stop  offset="0" style="stop-color:#FCA4B5"/>
			<stop  offset="0.122" style="stop-color:#FCA4B5"/>
			<stop  offset="0.99" style="stop-color:#FFADB7"/>
			<stop  offset="1" style="stop-color:#FFADB7"/>
		</linearGradient>
		<path class="st22" d="M289.2,58c-0.7,2.5-2.3,4.6-2.3,4.6s-0.1,0.6,0.3,1.3c1,1.7,1.9,2.8,3.5,3.5c-0.9-1.6-0.3-3.4,0.4-4.8
			c0.9-1.9,3.4-0.8,6.2,0c0.5,0.2,0.9,0.2,1.3,0.2c0-0.9,0.1-2,0.1-3.1c-1.6-2.2-4.9-6-9.4-7.2C289.5,54,289.7,56.4,289.2,58z"/>
		<path class="st1" d="M290.2,49.9c0,0,0.3,6.7,1,8.1c0.7,1.4,5.4,5,9.9,4.4c1.2-0.6,3.1-4,3.3-7c0.2-3,0-4.1,0-4.3
			c0.1-0.3,1-2.1,0.8-2.9c-0.1-0.8-0.4-5.5-2-7.6c-1.6-2.1-6.1-3.3-10.1-1.7C289.2,40.5,290.2,49.9,290.2,49.9z"/>
		<path class="st23" d="M291.7,52.2c0,0,0.4-2.6-1.3-3.1c-1.6-0.5,0.2,5.7,0.2,5.7l-1,1.6l-0.1,0.7c0,0-2-3.5-2.6-4.5
			c-0.6-1-0.8-1.5-1.1-2.6c-0.2-1.2-1.1-6.1-0.9-7.8c0.2-1.7,3.2-4.3,5.5-4.5c1-1.4,3.2-2.1,5.2-2.1c2.1,0,3.6,0.1,6,2.1
			c2.5,1.9,2.5,3.4,2.7,3.9c0.2,0.5,0.2,2.4,0.2,2.4l-0.3-1c0,0-1,0.6-4,0.4c-3-0.3-4.7-1.5-4.7-1.5s0.6,2.2,0.4,3
			c-0.1,0.8-0.6,3.2-0.6,3.2s-1.6,0.9-2.1,1.3c-0.5,0.4-0.8,1.2-0.8,1.2l-0.2,2.1L291.7,52.2z"/>
		
			<linearGradient id="SVGID_2_" gradientUnits="userSpaceOnUse" x1="291.4226" y1="258.4429" x2="289.0886" y2="258.0489" gradientTransform="matrix(1 0 0 -1 0 310)">
			<stop  offset="0" style="stop-color:#FEB9B8"/>
			<stop  offset="0.122" style="stop-color:#FEB9B8"/>
			<stop  offset="1" style="stop-color:#FFDEDE"/>
		</linearGradient>
		<path class="st24" d="M288.7,49c-1.8,0.9,0.8,5.6,2,5.7c1.2,0.1,1-1.1,1-1.1s-1.3-2-0.2-3.1c0,0-0.6-1.7-1.9-1.7
			C289.2,48.8,289,48.9,288.7,49z"/>
		<path class="st25" d="M305.1,43.2l-0.4,0.6c0,0-8,2.3-8.8,2.6c-0.4,0.1-1,0.4-2,0.7c-1.1,0.3-2.6,0.7-4.6,0.9l-3.7,0.3
			c0,0-1.2-3.5-0.6-6.7c0.4-2.6,3.5-4.8,6.9-5.8c0.1-0.1,0.2-0.1,0.2-0.1c0.8-0.2,1.7-0.4,2.5-0.5c4.4-0.5,7.4,1.4,8.9,3.6
			C304.8,40.9,305.1,43.2,305.1,43.2z"/>
		<path class="st26" d="M293.8,47c-1.1,0.3-2.6,0.7-4.6,0.9l-3.7,0.3c0,0-1.2-3.5-0.6-6.7c0.4-2.6,3.5-4.8,6.9-5.8
			c-0.6,0.3-2.8,1.4-3,3.6C288.6,41.7,290.3,45.6,293.8,47z"/>
		<path class="st27" d="M293.9,47c0,0,6.4,5.5,8.6,3.3c1.6-1.6,5.4-3.1,7.1-2.6l1.7,0.5c0,0,0.4-0.1,0.3-0.5c0-0.4-6.5-4.5-6.5-4.5
			S302.5,40.5,293.9,47z"/>
		<path class="st28" d="M204,306.3l84.3-48.6c6.6-3.8,5.8-10.6-1.9-15l-171.6-99c-7.7-4.4-19.3-4.9-26-1.1L4.6,191.2
			c-6.6,3.8-5.8,10.6,1.9,15L178,305.2C185.7,309.6,197.4,310.1,204,306.3z"/>
		
			<linearGradient id="SVGID_3_" gradientUnits="userSpaceOnUse" x1="292.76" y1="93.987" x2="0.14" y2="93.987" gradientTransform="matrix(1 0 0 -1 0 310)">
			<stop  offset="0" style="stop-color:#C4C8D8"/>
			<stop  offset="0.283" style="stop-color:#C4C8D8"/>
			<stop  offset="0.344" style="stop-color:#A0A6C0"/>
			<stop  offset="0.986" style="stop-color:#A0A6C0"/>
			<stop  offset="1" style="stop-color:#A0A6C0"/>
		</linearGradient>
		<path class="st29" d="M88.9,134.1L5.4,182.3L0.1,180v9.4h0c0.1,2.9,2.2,6,6.3,8.3L178,296.8c7.7,4.4,19.3,4.9,26,1.1l84.3-48.6
			c3-1.7,4.4-4,4.5-6.4l0,0v-9.6l-5.4,1.6c-0.3-0.2-0.6-0.4-0.9-0.6l-171.6-99.1c-4.2-2.4-9.6-3.7-14.7-3.7
			C95.9,131.5,91.9,132.4,88.9,134.1z"/>
		<path class="st30" d="M204,288.6l84.3-48.7c6.6-3.8,5.8-10.6-1.9-15l-171.6-99.1c-7.7-4.4-19.3-4.9-26-1.1L4.6,173.5
			c-6.6,3.8-5.8,10.6,1.9,15l171.6,99C185.7,292,197.4,292.5,204,288.6z"/>
		<path class="st31" d="M6.5,187.6l171.6,99c7.7,4.4,19.3,4.9,26,1.1l84.3-48.7c2.8-1.6,4.2-3.8,4.4-6c0.2,2.6-1.2,5.1-4.4,7
			L204,288.6c-6.6,3.8-18.3,3.3-26-1.1l-171.6-99c-4.4-2.6-6.5-5.9-6.3-9C0.4,182.3,2.5,185.3,6.5,187.6z"/>
		<path class="st32" d="M5.6,183.5c0.9,1.4,2.3,2.6,4.2,3.8l41.8,24.1l53.2,30.7l75.4,43.6c6.4,3.7,16.2,4.1,21.7,0.9l77-44.5
			l5.8-3.3c5.6-3.2,4.8-8.8-1.6-12.6l-25.6-14.8l-48.3-27.9L143,145.3l-30.3-17.5c-6.4-3.7-16.2-4.1-21.7-0.9l-31.8,18.4l-51,29.4
			C4.3,177,3.5,180.4,5.6,183.5z"/>
		<path class="st33" d="M6.7,182.8c0.2,0.3,0.3,0.5,0.5,0.7c0.8,0.9,1.8,1.8,3.2,2.6l43.7,25.2l6,3.5l47.1,27.2l8.1,4.7l39.3,22.7
			l26.1,15.1c3.2,1.8,7.4,2.9,11.6,2.9c3.4,0,6.6-0.7,8.8-2l17.3-10l57.8-33.3l7.8-4.5c2-1.2,3.1-2.7,3.1-4.3c0-2.1-1.7-4.3-4.6-6
			l-27.6-15.9l-48.3-27.9l-5.1-2.9l-61.1-35.3l-8.7-5L112.1,129c-3.2-1.9-7.4-2.9-11.6-2.9c-2.4,0-4.6,0.3-6.5,1
			c-0.9,0.3-1.6,0.6-2.3,1l-29.8,17.2l-12.8,7.4L8.9,175.9c-1.7,1-2.7,2.2-3,3.4C5.6,180.4,5.9,181.6,6.7,182.8z"/>
		<path class="st34" d="M131.6,140.2l23.1,129.2l26.1,15.1c3.2,1.8,7.4,2.9,11.6,2.9c3.4,0,6.6-0.7,8.8-2l17.3-10l-17-94.9
			l-61.1-35.3L131.6,140.2z M49.1,152.7l11.1,62.2l47.1,27.2l8.1,4.7L94,127.1c-0.9,0.3-1.6,0.6-2.3,1l-29.8,17.2L49.1,152.7z"/>
		<path class="st35" d="M15.1,184.2c0.1,0.2,0.3,0.4,0.5,0.7c0.7,0.9,1.7,1.7,3,2.5l41.1,23.7l5.7,3.3l44.3,25.6l7.6,4.4l36.9,21.3
			l27.6,15.9c3,1.7,6.9,2.7,10.9,2.7c3.2,0,6.2-0.7,8.2-1.9l16.2-9.4l54.3-31.3l7.3-4.2c1.9-1.1,2.9-2.5,2.9-4c0-2-1.6-4-4.4-5.6
			l-29-16.7l-45.4-26.2l-4.8-2.8L140.7,149l-8.2-4.7l-18.3-10.6c-3-1.8-7-2.7-11-2.7c-2.2,0-4.3,0.3-6.1,0.9
			c-0.8,0.2-1.5,0.6-2.2,0.9l-13,8.1l0.3,8.3l-28.5,16.4l-12.3-0.8l-24.3,12.8c-1.6,0.9-2.5,2-2.8,3.2
			C14.1,182,14.4,183.1,15.1,184.2z"/>
		<path class="st36" d="M25.9,186.1c0.1,0.2,0.3,0.4,0.5,0.6c0.6,0.8,1.6,1.6,2.8,2.3l37.8,21.8l5.2,3l40.7,23.5l7,4l33.9,19.6
			l25.3,14.6c2.7,1.6,6.4,2.5,10,2.5c2.9,0,5.7-0.6,7.6-1.7l14.9-8.6l49.9-28.8l6.7-3.8c1.7-1,2.7-2.3,2.7-3.7c0-1.8-1.5-3.7-4-5.2
			l-26.6-15.3l-41.7-24.1l-4.4-2.5l-52.8-30.5l-7.5-4.3l-16.8-9.7c-2.7-1.6-6.4-2.5-10.1-2.5c-2,0-3.9,0.3-5.6,0.8
			c-0.7,0.2-1.4,0.5-2,0.9l-71.5,41.3c-1.4,0.8-2.3,1.9-2.6,3C25,184.1,25.2,185.1,25.9,186.1z"/>
		<path class="st32" d="M48,161.9l20.8-12c0.4-0.2,0.3-0.6-0.1-0.9c-0.4-0.2-1.1-0.3-1.5-0.1l-20.8,12c-0.4,0.2-0.3,0.6,0.1,0.9
			C46.9,162.1,47.6,162.1,48,161.9z"/>
		<path class="st33" d="M68.9,149.7c-0.1-0.1-0.1-0.2-0.3-0.2c-0.4-0.2-1.1-0.3-1.5-0.1l-20.8,12c-0.1,0.1-0.1,0.1-0.2,0.2
			c-0.2-0.2-0.1-0.5,0.2-0.6l20.8-12c0.4-0.2,1.1-0.2,1.5,0.1C69,149.2,69.1,149.5,68.9,149.7z M74.1,145.6c1.2,0.7,3.3,0.7,4.5,0
			c1.2-0.7,1.3-1.9,0-2.6c-1.2-0.7-3.3-0.7-4.5,0C72.9,143.7,72.9,144.9,74.1,145.6z"/>
		<path class="st37" d="M75,145.1c0.8,0.4,2.1,0.4,2.8,0c0.8-0.5,0.8-1.2,0-1.6c-0.8-0.5-2.1-0.4-2.9,0
			C74.2,143.9,74.2,144.6,75,145.1z"/>
		<path class="st32" d="M69.8,148.4c0.9,0.5,2.3,0.5,3.2,0c0.9-0.5,0.9-1.3,0-1.8c-0.9-0.5-2.3-0.5-3.2,0
			C68.9,147.1,68.9,147.9,69.8,148.4z"/>
		<path class="st38" d="M19.6,203.5l12.3,7.1c1,0.6,1.8-0.1,1.8-1.4s-0.8-2.9-1.8-3.5l-12.3-7.1c-1-0.6-1.8,0-1.8,1.4
			S18.6,202.9,19.6,203.5z"/>
		<path class="st39" d="M18.7,204.1l12.3,7.1c1,0.6,1.8,0,1.8-1.4s-0.8-2.9-1.8-3.5l-12.3-7.1c-1-0.6-1.8,0-1.8,1.4
			S17.7,203.5,18.7,204.1z"/>
		<path class="st38" d="M98,248.7l12.3,7.1c1,0.6,1.8,0,1.8-1.4s-0.8-2.9-1.8-3.5L98,243.8c-1-0.6-1.8,0-1.8,1.4S97,248.1,98,248.7z
			"/>
		<path class="st39" d="M97,249.3l12.3,7.1c1,0.6,1.8,0,1.8-1.4c0-1.3-0.8-2.9-1.8-3.5L97,244.4c-1-0.6-1.8,0-1.8,1.4
			S96,248.7,97,249.3z M239.9,272.5c0,1.2,0.7,1.7,1.6,1.2l10.6-6.1c0.9-0.5,1.6-1.9,1.6-3c0-1.2-0.7-1.7-1.6-1.2l-1,0.6l-9.5,5.5
			c-0.7,0.4-1.2,1.3-1.5,2.2C239.9,272,239.9,272.3,239.9,272.5z"/>
		<path class="st40" d="M240,271.7l9.5-5.5c0.7-0.4,1.2-1.3,1.5-2.2l-9.5,5.5C240.8,269.9,240.2,270.8,240,271.7z"/>
		<path class="st0" d="M204.8,241.7c-31.1,17.9-81.7,17.9-113-0.2c-31.3-18.1-31.5-47.3-0.3-65.2s81.7-17.9,113,0.2
			C235.8,194.6,235.9,223.8,204.8,241.7z"/>
		
			<linearGradient id="SVGID_4_" gradientUnits="userSpaceOnUse" x1="90.8369" y1="97.61" x2="218.8298" y2="206.12" gradientTransform="matrix(1 0 0 -1 0 310)">
			<stop  offset="0" style="stop-color:#379ED6"/>
			<stop  offset="8.600000e-02" style="stop-color:#379ED6"/>
			<stop  offset="0.898" style="stop-color:#379ED6"/>
			<stop  offset="1" style="stop-color:#8FC9FF"/>
		</linearGradient>
		<path class="st41" d="M68.6,157.1c0,48.3,39.2,87.5,87.5,87.5c48.3,0,87.5-39.2,87.5-87.5c0-48.3-39.2-87.5-87.5-87.5
			C107.8,69.6,68.6,108.8,68.6,157.1z"/>
		
			<linearGradient id="SVGID_5_" gradientUnits="userSpaceOnUse" x1="96.4073" y1="102.3293" x2="213.4723" y2="201.5743" gradientTransform="matrix(1 0 0 -1 0 310)">
			<stop  offset="0" style="stop-color:#7282B5"/>
			<stop  offset="8.600000e-02" style="stop-color:#7282B5"/>
			<stop  offset="0.898" style="stop-color:#7282B5"/>
			<stop  offset="1" style="stop-color:#789EFF"/>
		</linearGradient>
		<path class="st42" d="M76.1,157.1c0,44.2,35.8,80,80,80s80-35.8,80-80s-35.8-80-80-80S76.1,112.9,76.1,157.1z"/>
		<path class="st43" d="M82.1,175.4C82.1,175.4,82.1,175.4,82.1,175.4L82.1,175.4z"/>
		
			<linearGradient id="SVGID_6_" gradientUnits="userSpaceOnUse" x1="104.0187" y1="97.3543" x2="213.4627" y2="217.1713" gradientTransform="matrix(1 0 0 -1 0 310)">
			<stop  offset="0" style="stop-color:#7CAB71"/>
			<stop  offset="8.600000e-02" style="stop-color:#7CAB71"/>
			<stop  offset="0.898" style="stop-color:#7CAB71"/>
			<stop  offset="1" style="stop-color:#A2F58E"/>
		</linearGradient>
		<path class="st44" d="M133.5,80.3c-1,1.6-1,1.5-0.7,1.5c0.3,0,0.9,0,0.9,1.7c0,3.5,0.2,2.1,0.2,2.1l0.8,1.4v1.8l0.4,1.5l0.7,1.4
			v1.2l-0.2,1l0.5,1.1l0.6,1.4l1.3-0.3l0.7-0.4l1,0.1l0.4,0.8l0.4,0.4l1.4-0.1l0.4-0.8l1.3-4l2.1-3L147,86l2.1-1.8l2.3-1.4l0.5-1.6
			l0-1.9l2.3-1.8l-0.3-0.4C146.9,77.3,140,78.4,133.5,80.3z M185.1,84l-0.3,0.6l-0.5,0.2l-0.4-0.1l-0.2-0.2l-0.4,0.2l-0.1,0.3
			l-0.4,0.2l-0.4,0.2c0,0,0.1,0.2,0,0.7l-0.1,0.5l-0.3,0.7l0.1,0.7l0.2,0.6l-0.3,0.3l-0.2,0.6c0,0,0.2,0.4,0.5,0.2l0.2-0.2l0.3,0.2
			l-0.3,0.4l-0.2,0l-0.1,0.4l0.5,0.1l-0.2,0.4c0,0-0.1-0.4-0.4,0.1l-0.3,0.5l-0.3-0.1l-0.1-0.2l-0.1-0.4c0,0-0.1-0.2-0.4,0l-0.3,0.2
			l-0.3,0l-0.3,0.1l-0.1,0.3l-0.5,0.1l-0.5-0.1c0,0,0.2,0.1,0-0.2l-0.2-0.2l-0.6,0.1l-0.3,0.3l-0.1,0.2l-0.6,0.2l0,0.2l0,0.3
			l-0.2,0.5l-0.5,0.5l-0.4,0.5l-0.2,0.2l-0.4,0.1l-0.4,0l-0.8,0.5l-0.4,0.4l-0.4-0.1l-0.5-0.1l-0.4,0.5l0.3,0.3l-0.2,0.5l-0.2,0.3
			l-0.7,0.5l-0.3-0.1l-0.5,0l-0.2,0.1l-0.3,0.3l0,0.3l0,0.3l-0.4,0l-0.2-0.2l-0.3-0.2l-0.4,0l-0.1-0.2l0.1-0.1l0.2-0.2l0-0.2
			l-0.2-0.1l-0.3-0.1l-0.2-0.2l-0.1-0.2l-0.2-0.2v0.2l-0.1,0.3l-0.1,0.3l0.1,0.4l0,0.3l0.2,0.1l-0.1,0.2l-0.1,0.3l0,0.2l-0.1,0.1
			l0,0.2l-0.2,0.2l-0.2-0.1l-0.5-0.2l-0.4,0.1l-0.1,0l-0.1-0.2l0.1-0.2l-0.3-0.2l-0.4,0l-0.2,0l-0.2,0.1h-0.4l-0.4-0.1l-0.2,0
			l-0.3,0.1l-0.1,0.2l0.1,0.3c0,0-0.1,0,0.1,0.1l0.2,0.1l-0.2,0.2l-0.1,0.2l0.1,0.1l-0.2,0.4l0.2,0.1h0.3l0.2-0.1l0.1,0.1l0.2,0
			l0.4,0.3l0.1,0.2l0.2,0.1c0,0,0,0,0.1,0.2l0.1,0.2l0.2,0l0.3-0.1l0,0.2l-0.1,0.1l0,0.2l0.2,0.2l0.3,0.1l0.1,0.2l-0.2,0.2l-0.1,0.3
			l0,0.3l0.2,0.2l0.2,0.2l0,0.2l0.2,0.1l0.3,0.2l0.1,0.3l-0.2,0.2l-0.2,0.4l0.2,0.3l-0.1,0.2l-0.2,0.4l-0.1,0.5l-0.3,0.2l-0.2,0.7
			l-0.1,0.5l-0.4,0.6l-0.2,0.5l-0.2,0.2l-0.4,0l-0.1-0.1c0,0-0.1,0-0.3,0l-0.2,0.1l-0.3-0.2l-0.2-0.3l-0.2,0l-0.2,0.2l-0.2,0.1
			l-0.4-0.4h-0.4l-0.3-0.1l-0.6,0l-0.4-0.1l-0.2-0.2l-0.2-0.2l-0.4-0.1l-0.3,0l-0.4-0.1l-0.3-0.2l-0.3-0.2l-0.3,0.1l-0.4,0l0-0.2
			c0,0,0.3-0.1-0.1-0.3l-0.4-0.2l-0.4,0l-0.2,0.2l-0.2,0.2l0,0.2c0,0,0,0.1-0.1,0.1l-0.1,0l-0.4-0.1l-0.5,0.2l-0.2,0.3l0.1,0.4
			l0.2,0.2l0,0.3l0.1,0.1l-0.2,0.2l-0.3,0.7l-0.1,0.6v0.4v0.6l-0.1,0.4l-0.2,0.9l-0.3,0.9l-0.3,0.3l-0.5,0.8l-0.5,0.6l-0.4,0.9
			l0.2,0.9l0.4,0.1l0.3,0.2l0,0.2l-0.3,0.3l-0.3,0.5v0.6l-0.2,0.4l0,0.4l-0.4,0.5l0.1,0.2l0.3-0.2l0.6-0.2l0.2,0.1l0.2,0.2l0.7,0.1
			l0.2-0.3l0.3-0.1l0.1,0.1l0,0.2l0.7,0.3l0,0.3l0,0.4l0.1,0.4l0,0.3l0.2,0.3l0.1,0.1l0,0.4l0.2,0.2l0.3,0.1l0.3-0.2l0.3-0.1
			l0.3-0.3l0.3-0.3l0.3,0.1l0.4,0.1l0.6-0.1l0.9,0l0.5,0.3l0.4-0.1l0.3,0l0.2,0l0.2-0.3l0.1-0.2l0.2-0.5l0.8-0.4l0.3,0.1l0.2,0.1
			l0.3,0l0.1-0.2c0,0,0,0,0-0.2v-0.2l0.1-0.2l0.3-0.4l0.2-0.3l0.2-0.1l0.2-0.1l0.4,0l0-0.3l0.4-0.1l0-0.2l-0.3-0.3l-0.3-0.2v-0.9
			l0.3-0.4l0.5-0.4l1.2-1.2l0.1-0.5l0.1-0.3l0.3-0.1l0.6,0c0,0,0.1,0.2,0.4-0.1l0.3-0.3l0.6-0.1l0.3-0.2l0.2-0.3l0.6-0.2l0.2-0.2
			l0-0.5l0.1-0.5l-0.1-0.4l0.2-0.5l0.2-0.3l0.3-0.3l0.3,0l0.1-0.2c0,0-0.1-0.1,0.2,0l0.2,0.1l0.3,0.2l0.5,0.2l0.4,0.1l0.4,0.3
			l0.5,0.3l0.4,0.2l0.7-0.2l0.2-0.3l0.3,0.1l0.1,0.2c0,0,0,0.2,0.2,0.1l0.1,0l0.2-0.1l0.2-0.4l0.2-0.3l0.3-0.4l0.2-0.2l0.4-0.1
			l0.1,0l0.2-0.2l0.6-0.1l0.1,0.1l0.1,0.3l0.2,0.2c0,0-0.4,0.1,0,0.4l0.3,0.2l0.2,0l0.2,0.3l-0.2,0.6l0.2,0.5l0.2,0.2l-0.1,0.3
			l-0.1,0.2l-0.2,0.1l-0.2,0l-0.2,0.3l0.1,0.2l0.2,0.1l0.3,0.1l0.2-0.5l0.1,0.1l0.1,0.3l0.3,0.3l-0.1,0.5l0.1,0.3c0,0,0.2-0.1,0.5,0
			l0.2,0.1l-0.1,0.3l0.2,0.2l0.2,0.3l0.1,0l0,0.6l0.3,0.4l0.5,0.1l0,0.3l0.4,0.1l0.3,0.3l0.3,0.6l0.3,0.2l0.4,0.2l-0.3,0.4l0.2,0
			l0.3,0.1l0.2,0.2l-0.1,0.5l0.3,0.3l-0.1,0.3l0.4,0.1l0.2,0.1l0.1,0.5l0.1,0.7l-0.2,0.3l0.2,0.4l-0.1,0.3l-0.2,0.1l-0.1,0.6
			l-0.2,0.1h-0.4l-0.2,0.2l-0.4-0.1l-0.3-0.1l-0.5,0.3c0,0,0.1,0.1-0.5-0.1l-0.6-0.2c0,0,0.3-0.2-0.2-0.4l-0.5-0.2l-0.2,0.1
			c0,0,0.1-0.4-0.3-0.1l-0.4,0.3l0.1,0.6l0,0.5l0.6,0.2l0.4,0.5l0.4,0.4l0.4,0.4l0.2,0.2l0.3,0.6l0.4,0.2l0.4,0.1l0.2-0.5l0.4-0.5
			l-0.2-0.4l0.1-0.5l0.3-0.4l0.2-0.3l0.2,0.2v0.2l0.3,0.1l0.3,0.2l0.1-0.3l0.1-0.3l0.3-0.2l0.2,0.1l0.2-0.1l0.1-0.2c0,0-0.4,0,0-0.5
			l0.3-0.4l0.2-0.1l0.1,0.2l0.1,0.1l0.2-0.2l-0.1-0.4l0.3-0.5L188,121l-0.4-0.1l-0.4-0.3l-0.1-0.4l-0.1-0.3l0.6-0.8l0.1-0.2l0.3,0
			l-0.1,0.2l0.1,0.2l0.4,0.1l0,0.1l0.2,0.1l0.1-0.1l0.1,0.5l0.1,0.5l0.3,0.2l0.3-0.4l0.1-0.6l-0.1-0.6l-0.5-0.9l-0.7-0.4l-0.2-0.4
			l-0.5-0.2l-0.5-0.2l-0.3-0.5l0-0.2l0.4,0.1l0-0.2l0.1-0.5l-0.3-0.2l-0.6,0l-0.2-0.1l-0.3,0l-0.2-0.2l-0.9-1.6l-0.1-0.7l-0.2-0.5
			l0.1-0.4l-0.4-0.8l-0.6-0.2l-0.3-0.5l-0.2-0.3l0.1-0.5l0-0.4l0.4,0l0.1-0.1l-0.1-0.5l-0.2-0.1v-0.3l0.1-0.2l0.3,0l0.2,0l0.3-0.4
			l0.2,0l0.2-0.1l0.1,0.1l0,0.3c0,0-0.5,0.1-0.1,0.3l0.4,0.2l0.1,0.1l0,0.4l-0.2,0.2l0.3,0.4l0.2,0l0.2-0.3l0.1,0.3l0,0.2l0.1,0.2
			l0.3,0.1l0.2,0l0.1-0.6l0.3,0.6l0.2,0.4l-0.2,0.2l-0.2,0.2l0,0.3l0.1,0.2l0.6,0.3l0.3,0.4l-0.1,0.3l0.1,0.3l0.1,0.2l0.1,0.3l0.3,0
			c0,0,0.3-0.3,0.2,0.1c-0.1,0.4,0,0.2-0.1,0.4l-0.1,0.1l0.1,0.2l0.6,0.2l0.2-0.1l0.6,0.2c0,0,0.2,0,0.4,0.3l0.1,0.4l0.6,0.6
			c0,0,0.3-0.2,0.4,0.3l0,0.6l0.1,0.3l0.4,0.2l0.1,0c0,0-0.2,0.5-0.4,0.6l-0.2,0.1l0.1,0.3l-0.1,0.8l-0.2,0.4l-0.1,0.6l0.3,0.2
			l0.1,0.3h0.4l0.1,0.3l0,0.2l-0.3,0l0-0.2l-0.2,0.3c0,0-0.1,0,0,0.3c0.1,0.3,0.1,0.3,0.1,0.3l0.3,0.3l0.5,0.1l0.1,0.3l0.4,0.4
			l0,0.2c0,0-0.4-0.3-0.2,0.4c0.2,0.7,0.2,0.7,0.2,0.7l0.1,0.3l0.5,0.2l0.1-0.2l0.6,0.2l0.5,0.3l0.3,0l0.2,0.2l0.4,0l0.2-0.1l0,0.6
			l0,0.3l0.4,0.2l0.3,0l0.3,0.6l0.4-0.1l-0.2-0.5l-0.2-0.3l0-0.4l0.1-0.1l0.2,0.5l0.5,0.2l0.2-0.3l0.1-0.1l0-0.5l-0.6-0.1l-0.1-0.1
			l-0.1-0.5l-0.2-0.3l-0.2-0.3l0-0.3l-0.3-0.2l-0.3-1.2l-0.3-0.3l-0.2-0.5l-0.1-0.5l0.1-0.4h0.2c0,0,0.1,0,0.1,0.1l0.1,0.2l0.4,0.4
			l0.1,0.2l0.5,0l0.2-0.2l0.2-0.2l0.2-0.3l0.4-0.2l0.1-0.3l0.4-0.2h0.5l0.2,0.3l0.3,0.2l0.3,0.2l0.6-0.2l0,0.3c0,0-0.6-0.1-0.1,0.2
			l0.5,0.4l0.3,0l0,0.1l-0.1,0.4l-0.1,0.1l-0.2,0.2l-0.2-0.2l-0.3,0.1l-0.1,0.2l0,0.5l0.1,0.4l-0.1,0.3l-0.2,0.1l-0.2,0l-0.3,0.2
			l0.2,0.2l0.1,0.2l0.4,0.2l0.3,0l0.1,0.1l0.2-0.2l-0.2-0.4l0.3-0.4l0.2,0l0.2,0.1l-0.2,0.4l-0.2,0.4l0.2,0.3l-0.3,0.2l-0.3,0.1
			l-0.3-0.2l-0.2,0.1l-0.2,0l-0.2-0.2l-0.2,0.2l-0.1,0.3c0,0-0.2,0.4,0,0.5l0.2,0.1l0.2,0l0.1-0.3l0.2-0.1l0.1,0.3l0.1,0.5
			c0,0,0,0.2,0.2,0.2l0.2-0.1l0.3,0l0.4,0.3l-0.2,0.3l-0.2,0.1l-0.4-0.2l-0.2,0.1l-0.1,0.4l0,0.3l0.2,0.2l0.3-0.1l0.1,0.1l0,0.4
			l0.3,0.1l-0.2,0.2c0,0,0.1,0.1,0,0.3l-0.2,0.2l-0.3,0.1l-0.1,0.4l-0.2,0.4l0.5,0l0.2-0.3l0.2-0.1l0.2-0.4l0.5-0.1
			c0,0,0.6-0.1,0.4,0.1l-0.2,0.2l-0.3,0l-0.2,0.3l0.1,0.2l0.4-0.1l-0.1,0.4c0,0,0.1-0.2-0.2,0.1c-0.3,0.4-0.3,0.3-0.3,0.3l0,0.3
			l0,0.2l0.3,0.2l0.5-0.3l-0.1-0.2l0.2-0.4l0-0.5l0.4-0.2v0.4l0.3,0.2l0.1-0.1l0.3-0.2v0.4l-0.2,0.3l0.1,0.4l0.4,0.3l0.4,0.2
			l0.2,0.1l0.4,0l0.2-0.4l0.2-0.4l-0.1-0.6l0.4-0.3l0.4,0.1l0.2,0.3l1,0.5l0,0.4l0.4,0.6l1,0.5l0.4-0.2l0.3,0.2l0.5,0.2l0.2-0.6
			l0.2-0.2l0.5-0.4l0.2,0.5l0.4,0.2l0.4,0.1l0.2-0.3l0.3-0.4l0.2,0.1l0.3,0.1l-0.1,0.3l-0.4,0.1l-0.1,0.4l0,0.3l-0.4,0.6l-0.1,0.5
			l0.4,0.9l-0.4,0.3l0,0.3l0.2,0.3l-0.4,0.3l-0.6,1.3l-0.2,0.8l-0.4,0.6l-1,2.8l-0.6,0.5l-0.5,0c0,0,0.1-0.3-0.9-0.1l-1,0.2
			l-0.6-1.2l-0.6-0.2l-0.5-0.3l-0.9,0.1l-0.5,0.4l-0.8,0.3l-0.4,0.4l-0.6-0.1l-0.3-0.6l-0.7-0.1l-1.6-1.2l-2.2-0.4l-0.9-1.5
			l-1.8-0.7l-1-1.7l-1.7,0.4l-1.6,0.3l0.1,1.8l-0.2,1.7l-1.2,0.2l-0.9-1.1l-0.8-1.3l-1.7-0.1l-1.1-1.6l0.2-1.3l-1.4-0.6l-1.4-0.2
			l-2.4-1.1l-1-2.1l1-1.7l0.7-0.7l-0.3-1.6l1.1-2l-0.9-0.5l-0.6,0.4l-0.2-0.8c0,0,0.6-0.7-1.3-0.1l-1.8,0.6l-1.5-0.6l-2.2-0.6
			l-4.4,0.2l-3.1,0.9l-1.6,0.8l-1.9-0.5l-1.2-1.1l-0.8,0.6l-0.6-0.8h-0.9l-0.7,1.3l-1,1.3l-2.1,1.1l-2.3,1.5l-1,2.7l0.3,1.7
			l-1.5,2.1l-2.1,1.1l-2.5,0.9l-1.1,1.7l-1.9,0.9l-0.8,2.8l-2.1,1.7l-1.3,2.8l-1.5,1.7l0.2,1.4l1.2,0.4l-0.7,1.4l-0.3,1.1l0.2,2
			l-0.9,2.3l-0.7,1.4l-0.3,0.9l-1.4,1.9l0.7,2.2l-0.7,1.6l-0.3,1.6l0.7,1.4l0.8-0.2l0.4,1.6l0.9,2.2l0.5,0.2l-0.3,3.4l1.8,3l1.7,2.3
			l1.6,2.9l1.7,1.6l1.8-0.4l0.8-0.9l3,0.2l1.2,1.5l1.5,0.4l0.7-1l0.7,0.4l1.8-1.2l1.5,0.1l3.5-0.4l1.7,0.5l0.3,2.3l-0.1,1.7l1.2,0.5
			l0.6-0.3l2.2,0.2l1.3,1.2l0.3,2l-0.5,3l-0.8,0.9l-0.1,1.4l-1.1,1.3l-0.6,2.6l2.4,7l1.1,2l-1.3,1.2l1.4,3.7l-0.8,2l0.9,3.9
			l-0.9,2.9l-1.4,0.6l-1.7,1.6l-0.4,3.2l-0.9,2.8l-0.4,2.3l0.6,2.2l0.1,1.1c15.2-0.9,29.2-6.1,41-14.3l0-2.5l1-0.6l-0.7-1.7l1.9-3.5
			l1.4-2.8l1.4-0.9l1.1-0.9l0.9-2.2l2.7-1.8l2.9-2.2l2.8-2.2l2.3-3l1.4-1.9l1.7-3.4l1.4-2.3l0.6-1.6l1-0.6l0.5-1l-0.7-0.4l0.5-1.6
			l0.4-0.3l-1.1-0.3l-0.3-0.4l-0.3,0.8l-0.6,0.3l-0.9,0.2l-0.7,0l-1.3-0.4l-1.6,0.1l-0.9,1.1l-1.3-1l-0.9,0.7L215,186l0-1.2
			l-0.4-0.6h-0.9l0.3-0.7l0.6-0.2l0.5-0.4l-0.2-0.5l0.2-1.3l-0.8-0.3l-0.7-0.6l0.1-0.9l-0.6-1l-0.2-0.8l-0.8-0.7l-1-0.5l-0.8-1.3
			l0.1-2.2l-0.4-0.7l0.3-1.8l-0.9-0.7l-0.8,0.2l-1.4-7.2l0.1-7.3l-2.3-4.9l-1-5.4l1.1-0.6l2.5,3.5l0.8,1.8c0,0,1.1,2.4,1.6,6.4
			l0.5,4l2,5.8l3.4,6l-1.1,4.7l1.1,4.9l4.5-0.6l5.2-1.7l2.4-1.2v-1.9l3.6,0.2l1.6-1.1l0.6-0.7c1.2-5.2,1.8-10.6,1.9-16.1l-1.8,2.5
			l-2,1.3l-2.9-1.1l0.4-1.7l0.2-2.4l-0.7-0.4l-0.6,0.9c0,0-1.1,2.1-1.1,0.5v-1.7l0.5-1l-0.9-1.7l-1.1-2.3l0-2.3l0.6-0.2l0.3-1.1
			l0.8,1.1l0.7-0.9l1.5,4.8l1.3,1.5l1,1.3l0.9,1l1.2,1.1l0.8-1.1l0.7,0.9c0-0.1,0-0.3,0-0.4c0-28.7-15.1-53.9-37.8-68l-1.2,0.8
			l-0.7,1.6l-0.9,0.5l-1,0.9l-1.1-1.1c0,0,1.2-0.7-0.3-0.5l-1.4,0.2l-3.2,1.1l-0.3-0.2l0-1.8l-1.2-0.2l-1.4,0.9l-0.8,0.3l0.3-0.7
			l0.4-0.3l0-0.5h-0.6l-0.4,0.1l-0.2-0.2l0.2-0.4L184,89l-0.1-0.6l0.3-0.5l0.7-0.8l0.2-0.6c0,0-0.2,0.1-0.1-0.5l0.1-0.5l0.4-0.2
			l0.3-0.6l0-0.6l-0.2-0.2L185.1,84z M123.4,84.9l-1,0.9l-0.8,1.6c-0.8,1.7-1.3,0.7-1.3,0.7l-1.3-0.3l-1.4-0.7v-0.3
			c-19.3,10.6-33.8,29-39.2,50.9l0.2,0v-0.4c0-0.4,0.6,0,0.6,0l-0.2,0.8l0.6,0.2l0.5-0.4l0.7,0.2l0.1-0.3l0.9,0.3l0.2,0.6l0.4,0.8
			l0.6-0.1l0-0.5l0-0.4l0.5-0.4l0.3,0.6l0.8,1l0.5,0.1l0,1.2l-0.5,1.4l-0.1,0.6c-0.1,0.6,0.4,1.1,0.4,1.1l0,0.7v0.8l0.5,0.6l0.4,1.1
			l0.6,0.5l0.6-0.3l0.1-0.9l0.7-0.8l0.5-1.1l-0.5-0.6l-0.1-1.4l0.2-0.9l-0.5-0.6l0.3-0.7l-0.2-1.4l-0.3-1.3l0.5-0.9
			c0,0,0,0.1,0.4-1.5c0.4-1.7,1-1,1-1l1.8-1.1l0.7-1.1l0.4-0.4l0.8-0.1l0.3-0.7l0.6-0.5l0.6,0l0.6-0.6l0.1-0.7l0.5,0.2l0.5-0.6
			l0-0.9l1-0.5l-0.1-1.2c-0.1-0.7-0.3-0.9-0.5-0.9c-0.1-0.1-0.1-0.3-0.3-0.6c-0.1-0.2-0.2-0.3-0.2-0.4c0.1,0.1,0.5,0.1,0.8-1.2
			c0.5-2.6,0.2,0.1,0.2,0.1l0.3,0.6c0.3,0.6,0,0-0.4,0.9c-0.4,0.9,0.1,0.7,0.1,0.7l0.7-0.9l0.7-0.8l0.5-0.8l-0.5-0.8l-0.2-0.9
			l0.5,0.4l0.6,0.9l0.2-0.8l1.4-0.7l0.1-1.6l1.2-0.1l0.8-0.5l-1-0.6l0.4-0.8l1.7-0.2l0.3,0.1l0.6,0.4l0.6,0l0.9-0.2l0.5-0.4
			l-0.1-0.9l-1,0.3l-0.7-0.9l0.9-0.2l-0.2-0.7l1-1.5c1-1.5,1.3-1.1,1.3-1.1l1,0.2l1.8-0.6l1.1-0.5c0,0-0.1,0.2,0.8-0.7
			c0.8-0.9,0.9,0.3,0.9,0.3l-0.4,1l-1.7,0.8l-0.1,1h1.3l1.5-1l0.5-0.9l1.3,0.2l2.1-0.3l0.4-0.8l1.5-0.3l0.4-1.2l-0.5-0.6
			c-0.5-0.6,1-1.6,1-1.6h-1.5L119,109l-1.3,0.8l-0.4,0.3l-1.5-0.8l-1.1-1.3l0.1-1.2l1.7-1.1l1.1-1.5l-0.8-0.2l-1.6,0l-0.9,0.1
			l-1.1,0.3l-1.1,0.6l-1.2,1.1l-1.7,1.5h-1.9l1.9-1.5l0.8-1l0.7-1.3l2.9-0.5l1-0.8l1.4-0.8l2.8,0.3l0.3,0.8l2.5,0.1l0.5-0.7l2.2-1.2
			l0.8,0.1l0.9-1c0.9-1,2.3-0.5,2.3-0.5l-0.3-1.1l1-1.7l-1.3-0.5l-0.1-0.7l0.4-0.9l-0.3-0.7l-1.7-0.6l-0.2-0.8l-1.2-0.3l-0.7-1.3
			l1.7-1.7l-0.8-1l-0.8-1.2l0.9-2.7L123.4,84.9z M90.1,160l-0.1,0.4l-0.6,0.1l-0.2,0.4l-0.4,0.5l-0.7,0l-0.4-0.3l-0.5,0.2l0.1,0.6
			l-0.2,0.2l-0.4-0.3h-0.2l-0.4,0.4l-0.5,0.4l-0.2,1.4l0.1,0.6l0,0.3l-0.4,0.1l-0.6,0.4l-0.2,0.6l-0.5,0.2l-0.1,0.2l-0.1,0.3
			l0.3,0.3l0.1,0.4l-0.3,0.3c0,0-0.4,0.2-0.3-0.2l0.1-0.5l-0.2-0.6l-0.6-0.8l-0.3-0.6l-0.8-0.2l-0.5,0.1l-0.1-0.1l0.1-0.3l-0.5,0
			l-0.4-0.1c0,0,0-0.1-0.2,0.3l-0.1,0.3l-0.2,0.2l-0.6,0.1l-0.2,0.3l-0.6,0.4h-0.4l-0.1-0.4l-0.3-0.1c0,0,0,0-0.3,0.1l-0.3,0
			l-0.1-0.3c0,0,0.3,0,0-0.3c-0.2-0.2-0.2-0.2-0.3-0.3c0.1,0.8,0.2,1.6,0.3,2.4l0,0l0.2,0.3l0.3,0.2l0.3-0.1l-0.1,0.3l-0.2,0.3
			l-0.2-0.1l-0.1,0.3l0,0.3l0.3,0.2l0.3-0.1l0-0.4l0.5,0c0,0-0.4,0.3-0.1,0.5l0.2,0.2l0.8,0l0.2-0.1l0.2-0.4l0.1-0.2l-0.1-0.3
			c0,0-0.5-0.3-0.4-0.4l0.1-0.2l-0.3-0.3l0.2-0.2l0.3,0l0.4,0l0.4-1.2l0.4-0.1l0.4,0.1l0.2,0.4l0.3,0.2l0,0.7l0,0.8l0.8,1l0.4,0.7
			l0.1,0.8l-0.3,0.3l0,0.4l0.3,0.3l0,0.4h-0.2l-0.2,0.2l0.1,0.5c0,0,0.1,0.1,0.2,0.7l0.1,0.6l-0.4,0.2l0,0.5l-0.2,0.1l-0.3-0.1
			c0,0-0.1-0.1,0,0.4c0.1,0.3,0,0.2-0.1,0.2c0,0-0.1-0.1,0.1,0.1c0.2,0.2,0.1,0.2,0.1,0.2c0,0,0.1,0,0.1,0.1l0.3,0.2l0.3-0.2
			l0.2,0.1l-0.8,0.9c0,0-0.2,0.1-0.1,0.4l0.1,0.3l-0.4,0.2l-0.5,0.2l-0.4,0.2l-0.1,0.5L81,179l-0.2,0.2l-0.3,0.1l-0.1,0.1l0,0.4
			l0.3,0.3l-0.1,0.3l-0.7,0.3l-0.2,0.2l0,0.1c7,22.2,23.3,40.2,44.4,49.4c0-0.3,0-0.7,0-1.2l-0.3-4.3l-1.7-1.7l-2.5-1.6l-1.1-1.3
			l2.3-1.5l0.5-2.1l-1.8-1.8l-1-0.3l1.8-3.4l-1.1-5.6l0.3-3.5l-1.6-0.7l-0.6-1l-0.4-2.8l-0.4-2.1h-2.2l-0.7-2.1l0.7-2.1l1.1-1.7
			l-2.3-1.3l-0.9-1.4c-1.5-5.5-1.5-3.1-1.5-3.1v-2.4l1.3-4.3l0.2-3.3l-1.6-2.3l-2.3-1.1l-1.2-0.6l-1.3-3l-1.9-0.9l0.6-1l0.5-0.6
			l-0.8-1.1l-1,0.1h-0.8l-0.5-0.6l1.3-1l-1.3-0.7h-0.8l-1.1,0.1l-0.6,0.6l0.8,0.9l-0.6,0.9h-0.7l-1.4-1.2l-0.7,0.2l-1.3,0.1
			l-0.3-0.5l0.3-0.8l-1.3-0.5l-0.9-0.2l-0.1-0.4c0,0,0.5,0.3,0.2-0.3l-0.2-0.5c0,0-0.1-0.5-0.4-0.1l-0.3,0.4v0.4l0.2,0.5l0,0.3
			l-0.4,0.2l-0.7,0.1l-0.2,0.5l-0.3-0.5l-0.2,0.5l-0.4-0.2l-0.1-0.6l0.6,0l0.4-0.5l0.2-0.7l-0.4-0.6l-0.8-0.2L90.1,160z"/>
		<path class="st45" d="M206.9,116.1c-3.7,4.8-13.5,3.4-21.9-3.1c-8.4-6.5-12.2-15.6-8.5-20.4c3.7-4.8,13.5-3.4,21.9,3.1
			C206.8,102.2,210.6,111.3,206.9,116.1z"/>
		<path class="st46" d="M111.3,200.3c-29.7-29.3-31.7-75.4-4.5-102.8c27.2-27.5,73.2-26,102.9,3.3s31.7,75.3,4.5,102.8
			C187,231.1,141,229.6,111.3,200.3z M156.1,77.1c-44.2,0-80,35.8-80,80s35.8,80,80,80s80-35.8,80-80S200.2,77.1,156.1,77.1z"/>
		<path class="st47" d="M236.8,130.1c7.8,1.7,15.4,3.9,22.7,8.3c3.6,2.2,7.3,5,9.9,9.5c2.7,4.5,3.2,10.7,1.6,15.7
			c-3.3,9.9-9.8,16.4-15.9,22.2c-3.1,2.9-6.4,5.6-9.7,8.1c-1.6,1.2-3.3,2.6-5,3.7l-2.5,1.8l-1.3,0.9c-0.4,0.3-1,0.2-0.4,2.6
			l-12.9-25.5c1.5,1.9,1.7,1.4,2.2,1.2l1.3-0.5l2.6-0.9c1.8-0.6,3.4-1.3,5.1-2c3.4-1.3,6.6-2.9,9.8-4.5c6.1-3.2,12.2-7.2,14.9-11.7
			c1.3-2.2,1.8-4.2,1.1-6.8c-0.7-2.6-2.7-5.3-5.2-7.8c-5.2-4.8-12-8.6-19-11.4L236.8,130.1z"/>
		<path class="st11" d="M211.8,224.4l29.5-17v-33.8l-29.5,17V224.4z"/>
		<path class="st12" d="M241.2,173.6l-29.5,17l15.9-8.5L241.2,173.6z"/>
		<path class="st13" d="M211.8,224.4l-29.5-17v-33.8l29.5,17V224.4z"/>
		<path class="st14" d="M211.8,190.6l-29.5-17l29.5-17l29.5,17L211.8,190.6z"/>
		<path class="st15" d="M225.1,196.3l4.7-2.7v-13.4l-4.7,2.7V196.3z"/>
		<path class="st16" d="M225.1,182.9l-29.5-17l4.7-2.7l29.5,17L225.1,182.9z"/>
		<path class="st12" d="M182.3,173.6l29.5,17l-15.9-8.5L182.3,173.6z"/>
		<path class="st17" d="M199,196.6l-4.7-2.7v-13.4l4.7,2.7V196.6z"/>
		<path class="st18" d="M199,183.2l29.5-17l-4.7-2.7l-29.5,17L199,183.2z"/>
		<path class="st19" d="M196.8,181.9l29.5-17l-0.3-0.2l-29.5,17L196.8,181.9z"/>
		<path class="st13" d="M199,183.2v0.5l-2.9-1.5l-1.9-1.2v-0.6L199,183.2z M227.7,182.1l-2.6,1.4v-0.6l4.7-2.7v0.6L227.7,182.1z"/>
		<path class="st47" d="M198.8,202.6c1.4,5.9-2.7,11.6-8.6,12.4c-15,2.1-29.7,3.1-44.7,3.3c-18.6,0.1-37.3-1.2-55.7-5.4
			c-9.2-2.1-18.2-5.1-26.8-9.2c-4.3-2-8.4-4.5-12.4-7.1c-4-2.8-8-6.1-10.7-10.9c-1.3-2.4-2.2-5.2-2.3-8.1c-0.1-2.9,0.7-5.6,1.7-8
			c2.2-4.8,5.6-8.4,9.1-11.6c7.2-6.2,15.2-10.8,23.7-14.6l1.3,2.7c-7.8,4.3-15.3,9.4-21.4,15.6c-3,3.1-5.6,6.6-6.9,10.2
			c-1.4,3.6-0.9,7.1,1.1,10c4.2,5.9,12.8,9.8,20.6,13.1c8.1,3.1,16.5,5.2,25.2,6.6c17.3,2.6,35.1,2.5,52.7,1
			c14.9-1.3,30-3.6,44.4-6.9c4.2-1,8.4,1.6,9.4,5.8L198.8,202.6z"/>
		<path class="st48" d="M171.1,1.2L171.1,1.2c-4.3-1.8-9.9-1.1-16,2.4c-13.5,7.8-24.4,26.6-24.4,42c0,21,24.4,44.9,24.4,44.9
			l7.2,3.6l16.1-89.3L171.1,1.2z M162.4,7.2c13.5-7.8,24.4-1.6,24.4,13.9c0,21-24.4,73.1-24.4,73.1S138,70.2,138,49.2
			C138,33.7,148.9,14.9,162.4,7.2z"/>
		<path class="st36" d="M148.3,43.3c0,9,6.3,12.5,14.1,8c7.8-4.5,14.1-15.4,14.1-24.4s-6.3-12.5-14.1-8
			C154.6,23.4,148.3,34.3,148.3,43.3z"/>
		<path class="st49" d="M139.9,50c0-15.1,10.7-33.5,23.8-41.1c13-7.5,22.8-2,23,12.7c0-0.2,0-0.4,0-0.6c0-15.4-10.9-21.7-24.4-13.9
			c-13.5,7.8-24.4,26.6-24.4,42c0,21,24.4,44.9,24.4,44.9S139.9,70.6,139.9,50z"/>
	</g>
</g>
</svg>
