<?xml version="1.0" encoding="utf-8"?>
<!-- Generator: Adobe Illustrator 17.1.0, SVG Export Plug-In . SVG Version: 6.00 Build 0)  -->
<!DOCTYPE svg PUBLIC "-//W3C//DTD SVG 1.1//EN" "http://www.w3.org/Graphics/SVG/1.1/DTD/svg11.dtd">
<svg version="1.1" id="Layer_1" xmlns="http://www.w3.org/2000/svg" xmlns:xlink="http://www.w3.org/1999/xlink" x="0px" y="0px"
	 viewBox="0 0 850.4 467.7" enable-background="new 0 0 850.4 467.7" xml:space="preserve">
<g>
	<g>
		<g>
			<g id="Axonometric_Cube_28_">
				<polygon id="Cube_face_-_left_239_" fill="#BDB6C6" points="502.8,325.6 280.7,197.4 280.7,181.2 502.8,224.9 				"/>
				<polygon id="Cube_face_-_right_242_" fill="#E9E6E6" points="659.8,235 502.8,325.6 502.8,224.9 659.8,218.7 				"/>
			</g>
			<polygon fill="#F7F7F7" points="659.8,218.7 629.3,236.3 502.8,309.4 280.7,181.2 437.8,90.5 			"/>
			<g>
				<g>
					<g>
						<g>
							<polygon fill="#F15A24" points="327.3,191.3 325.9,192.1 314.4,185.5 315.8,184.7 							"/>
							<polygon fill="#F15A24" points="328.9,190.4 327.3,191.3 317.7,185.8 319.2,184.9 							"/>
						</g>
						<g>
							<polygon fill="#F15A24" points="333.2,187.9 331.7,188.8 321.1,182.7 322.6,181.8 							"/>
							<polygon fill="#F15A24" points="334.7,187.1 333.1,188 321.1,181 322.7,180.1 							"/>
						</g>
						<g>
							<polygon fill="#F15A24" points="339,184.6 337.5,185.4 322.5,176.7 324,175.9 							"/>
							<polygon fill="#F15A24" points="340.5,183.7 339,184.6 328,178.3 329.6,177.4 							"/>
						</g>
						<g>
							<polygon fill="#F15A24" points="344.8,181.2 343.4,182 330,174.4 331.5,173.5 							"/>
							<polygon fill="#F15A24" points="346.4,180.3 344.8,181.2 333.1,174.5 334.7,173.6 							"/>
						</g>
						<g>
							<polygon fill="#F15A24" points="362.3,171.1 360.9,171.9 347.2,164 348.6,163.2 							"/>
							<polygon fill="#F15A24" points="363.8,170.2 362.3,171.1 349.7,163.8 351.2,162.9 							"/>
						</g>
						<g>
							<polygon fill="#F15A24" points="368.1,167.7 366.7,168.6 356.9,162.9 358.3,162.1 							"/>
							<polygon fill="#F15A24" points="369.7,166.9 368.1,167.8 354.6,160 356.2,159.1 							"/>
						</g>
						<g>
							<polygon fill="#F15A24" points="374,164.4 372.5,165.2 353.9,154.5 355.4,153.6 							"/>
							<polygon fill="#F15A24" points="375.5,163.5 373.9,164.4 358.4,155.4 360,154.5 							"/>
						</g>
						<g>
							<polygon fill="#F15A24" points="379.8,161 378.4,161.8 362.1,152.5 363.6,151.6 							"/>
							<polygon fill="#F15A24" points="381.3,160.1 379.8,161 366.4,153.3 368,152.4 							"/>
						</g>
						<g>
							<polygon fill="#F15A24" points="385.6,157.6 384.2,158.5 374.3,152.8 375.7,151.9 							"/>
							<polygon fill="#F15A24" points="387.2,156.8 385.6,157.7 373.5,150.7 375.1,149.8 							"/>
						</g>
						<g>
							<polygon fill="#F15A24" points="350.7,177.8 349.2,178.7 342.2,174.6 343.6,173.8 							"/>
							<polygon fill="#F15A24" points="352.2,177 350.6,177.9 338.3,170.7 339.8,169.8 							"/>
						</g>
						<g>
							<polygon fill="#F15A24" points="356.5,174.5 355,175.3 348,171.3 349.4,170.4 							"/>
							<polygon fill="#F15A24" points="358,173.6 356.4,174.5 351.3,171.6 352.9,170.7 							"/>
						</g>
					</g>
					<polygon fill="#F15A24" points="390,156.5 325.1,194 323.8,193.2 388.7,155.8 					"/>
				</g>
				<g>
					<g>
						<g>
							<polygon fill="#F15A24" points="399,149.9 397.5,150.8 387.7,145.1 389.2,144.3 							"/>
							<polygon fill="#F15A24" points="400.5,149.1 398.9,150 391,145.4 392.6,144.5 							"/>
						</g>
						<g>
							<polygon fill="#F15A24" points="404.8,146.6 403.3,147.4 399.6,145.3 401.1,144.4 							"/>
							<polygon fill="#F15A24" points="406.3,145.7 404.8,146.6 399.6,143.6 401.2,142.7 							"/>
						</g>
						<g>
							<polygon fill="#F15A24" points="410.6,143.2 409.2,144 397.8,137.5 399.3,136.7 							"/>
							<polygon fill="#F15A24" points="412.2,142.3 410.6,143.2 405.1,140 406.7,139.1 							"/>
						</g>
						<g>
							<polygon fill="#F15A24" points="416.5,139.8 415,140.7 411.1,138.4 412.5,137.6 							"/>
							<polygon fill="#F15A24" points="418,139 416.4,139.9 410,136.2 411.6,135.3 							"/>
						</g>
						<g>
							<polygon fill="#F15A24" points="434,129.7 432.5,130.6 418.2,122.3 419.6,121.5 							"/>
							<polygon fill="#F15A24" points="435.5,128.9 433.9,129.8 421.5,122.6 423.1,121.7 							"/>
						</g>
						<g>
							<polygon fill="#F15A24" points="439.8,126.4 438.3,127.2 418.4,115.7 419.8,114.9 							"/>
							<polygon fill="#F15A24" points="441.3,125.5 439.8,126.4 421,115.6 422.6,114.7 							"/>
						</g>
						<g>
							<polygon fill="#F15A24" points="445.6,123 444.2,123.9 431.2,116.4 432.7,115.5 							"/>
							<polygon fill="#F15A24" points="447.1,122.1 445.6,123 435.1,117 436.6,116.1 							"/>
						</g>
						<g>
							<polygon fill="#F15A24" points="451.4,119.6 450,120.5 435,111.9 436.5,111 							"/>
							<polygon fill="#F15A24" points="453,118.8 451.4,119.7 439.3,112.7 440.9,111.8 							"/>
						</g>
						<g>
							<polygon fill="#F15A24" points="457.3,116.3 455.8,117.1 448.4,112.8 449.9,112 							"/>
							<polygon fill="#F15A24" points="458.8,115.4 457.2,116.3 450.7,112.5 452.3,111.6 							"/>
						</g>
						<g>
							<polygon fill="#F15A24" points="422.3,136.5 420.8,137.3 408.5,130.2 409.9,129.4 							"/>
							<polygon fill="#F15A24" points="423.8,135.6 422.3,136.5 407.9,128.2 409.5,127.3 							"/>
						</g>
						<g>
							<polygon fill="#F15A24" points="428.1,133.1 426.7,134 414.8,127.1 416.2,126.2 							"/>
							<polygon fill="#F15A24" points="429.6,132.2 428.1,133.1 418.1,127.4 419.7,126.5 							"/>
						</g>
					</g>
					<polygon fill="#F15A24" points="461.6,115.2 396.8,152.6 395.5,151.9 460.3,114.4 					"/>
				</g>
				<g>
					<g>
						<g>
							<polygon fill="#E6A136" points="386.2,173.7 338,201.5 331.2,197.5 379.3,169.7 							"/>
							<polygon fill="#E6A136" points="342.5,198.9 338,201.5 331.2,197.5 335.6,194.9 							"/>
						</g>
						<g>
							<polygon fill="#E6A136" points="430.1,148.3 381.9,176.1 375.1,172.1 423.2,144.3 							"/>
							<polygon fill="#E6A136" points="386.4,173.5 381.9,176.1 375.1,172.1 379.5,169.6 							"/>
						</g>
						<g>
							<polygon fill="#E6A136" points="474,123 425.8,150.8 419,146.8 467.1,119 							"/>
							<polygon fill="#E6A136" points="430.3,148.2 425.8,150.8 419,146.8 423.4,144.2 							"/>
						</g>
					</g>
				</g>
				<g>
					<polygon fill="#E1E9F4" points="435.1,140.1 427.8,144.2 427,143.8 434.3,139.6 					"/>
					<polygon fill="#E1E9F4" points="439.3,137.6 436.2,139.4 435.5,138.9 438.5,137.2 					"/>
					<polygon fill="#E1E9F4" points="435.1,143.9 431.1,146.1 430.3,145.7 434.3,143.4 					"/>
					<polygon fill="#E1E9F4" points="445.2,138 436.3,143.2 435.5,142.7 444.4,137.6 					"/>
					<polygon fill="#E1E9F4" points="451.3,134.5 446.4,137.3 445.6,136.9 450.5,134.1 					"/>
				</g>
				<g>
					<polygon fill="#E1E9F4" points="391.6,165.2 384.3,169.4 383.5,168.9 390.8,164.7 					"/>
					<polygon fill="#E1E9F4" points="395.8,162.7 392.7,164.5 392,164 395,162.3 					"/>
					<polygon fill="#E1E9F4" points="391.6,169 387.6,171.3 386.8,170.8 390.8,168.5 					"/>
					<polygon fill="#E1E9F4" points="401.7,163.1 392.8,168.3 392,167.8 400.9,162.7 					"/>
					<polygon fill="#E1E9F4" points="407.8,159.6 402.9,162.5 402.1,162 407,159.2 					"/>
				</g>
				<g>
					<polygon fill="#E1E9F4" points="348.1,190.3 340.8,194.5 340,194 347.3,189.8 					"/>
					<polygon fill="#E1E9F4" points="352.3,187.9 349.2,189.6 348.5,189.2 351.5,187.4 					"/>
					<polygon fill="#E1E9F4" points="348.1,194.1 344.1,196.4 343.3,195.9 347.3,193.6 					"/>
					<polygon fill="#E1E9F4" points="358.2,188.3 349.3,193.4 348.5,193 357.4,187.8 					"/>
					<polygon fill="#E1E9F4" points="364.3,184.7 359.4,187.6 358.6,187.1 363.5,184.3 					"/>
				</g>
			</g>
			<g>
				<g>
					<polygon fill="#1A1D27" points="390.7,200.8 366.5,214.8 364,213.4 388.2,199.4 					"/>
					<polygon fill="#1A1D27" points="382.9,210.7 371.1,217.5 368.7,216 380.4,209.3 					"/>
					<polygon fill="#1A1D27" points="413.8,198.2 375.8,220.2 373.3,218.7 411.4,196.7 					"/>
					<polygon fill="#1A1D27" points="436.3,190.5 380.4,222.8 377.9,221.4 433.8,189.1 					"/>
					<polygon fill="#1A1D27" points="436.7,195.7 385,225.5 382.5,224.1 434.2,194.2 					"/>
					<polygon fill="#1A1D27" points="434,202.6 389.6,228.2 387.2,226.7 431.5,201.2 					"/>
					<polygon fill="#1A1D27" points="429.9,210.3 394.3,230.8 391.8,229.4 427.4,208.9 					"/>
					<polygon fill="#1A1D27" points="427,217.3 398.9,233.5 396.4,232.1 424.5,215.8 					"/>
					<polygon fill="#1A1D27" points="447.8,210.6 403.5,236.2 401,234.7 445.3,209.2 					"/>
					<polygon fill="#1A1D27" points="454.4,212.1 408.2,238.9 405.7,237.4 451.9,210.7 					"/>
					<polygon fill="#1A1D27" points="451,219.4 412.8,241.5 410.3,240.1 448.5,218 					"/>
					<polygon fill="#1A1D27" points="448.9,226 417.4,244.2 414.9,242.8 446.4,224.6 					"/>
					<polygon fill="#1A1D27" points="466.5,221.2 422,246.9 419.5,245.4 464,219.7 					"/>
					<polygon fill="#1A1D27" points="473.9,222.3 426.7,249.5 424.2,248.1 471.4,220.8 					"/>
				</g>
				<polygon fill="#1A1D27" points="428.2,249.8 426.7,250.7 362.1,213.4 363.6,212.5 				"/>
			</g>
			<g>
				<path fill="#292E3F" d="M448.4,260c1.5,0.9,1.5,2.3,0,3.2c-1.5,0.9-4,0.9-5.5,0c-1.5-0.9-1.5-2.3,0-3.2
					C444.4,259.1,446.9,259.1,448.4,260z"/>
				<path fill="#292E3F" d="M461.8,267.7c1.5,0.9,1.5,2.3,0,3.2c-1.5,0.9-4,0.9-5.5,0c-1.5-0.9-1.5-2.3,0-3.2
					C457.8,266.8,460.2,266.8,461.8,267.7z"/>
				<path fill="#292E3F" d="M474.9,275.3c1.5,0.9,1.5,2.3,0,3.2c-1.5,0.9-4,0.9-5.5,0c-1.5-0.9-1.5-2.3,0-3.2
					C470.9,274.4,473.4,274.4,474.9,275.3z"/>
				<path fill="#292E3F" d="M488.2,282.9c1.5,0.9,1.5,2.3,0,3.2c-1.5,0.9-4,0.9-5.5,0c-1.5-0.9-1.5-2.3,0-3.2
					C484.2,282,486.7,282,488.2,282.9z"/>
				<path fill="#292E3F" d="M501.3,290.5c1.5,0.9,1.5,2.3,0,3.2c-1.5,0.9-4,0.9-5.5,0c-1.5-0.9-1.5-2.3,0-3.2
					C497.4,289.6,499.8,289.6,501.3,290.5z"/>
				<path fill="#292E3F" d="M519.7,222.2l7.9-4.6l-1-0.6l-7.9,4.6L519.7,222.2z M484.2,242.6l17.8-10.3l-1-0.6L483.2,242
					L484.2,242.6z M503.4,231.5l14.9-8.6l-1-0.6l-14.8,8.6L503.4,231.5z M482.8,243.4l-1-0.6l-25.2,14.6l1,0.6L482.8,243.4z
					 M529,216.8l11.3-6.5l-1-0.6l-11.3,6.5L529,216.8z M453.7,255.5l8.3-4.8l-1-0.6l-8.3,4.8L453.7,255.5z M526.4,212.3l1,0.6
					l9.9-5.7l-1-0.6L526.4,212.3z M508.2,224.1l17.9-10.3l-1-0.6l-17.9,10.3L508.2,224.1z M498.8,229.5l7.9-4.6l-1-0.6l-7.9,4.6
					L498.8,229.5z M487.5,236l9.9-5.7l-1-0.6l-9.9,5.7L487.5,236z M463.4,249.9l22.8-13.1l-1-0.6l-22.8,13.1L463.4,249.9z"/>
				<path fill="#292E3F" d="M511,235.8l1,0.6l14.9-8.6l-1-0.6L511,235.8z M510.6,237.2l-1-0.6l-17.8,10.3l1,0.6L510.6,237.2z
					 M513.8,238.9l1,0.6l9.9-5.7l-1-0.6L513.8,238.9z M525.1,232.4l1,0.6l7.9-4.6l-1-0.6L525.1,232.4z M552.3,216.6L534.4,227l1,0.6
					l17.9-10.3L552.3,216.6z M489.3,254.2l-1-0.6l-19.1,11l1,0.6L489.3,254.2z M543.6,217l-16.3,9.4l1,0.6l16.3-9.4L543.6,217z
					 M491.4,248.2l-1-0.6L465,262.3l1,0.6L491.4,248.2z M545,216.2l1,0.6l9.5-5.5l-1-0.6L545,216.2z M513.4,240.3l-1-0.6l-22.8,13.1
					l1,0.6L513.4,240.3z"/>
				<path fill="#292E3F" d="M517.3,247.8l1,0.6l9.9-5.7l-1-0.6L517.3,247.8z M519.8,252.3l-1-0.6l-17.6,10.1l1,0.6L519.8,252.3z
					 M536.5,236.7l-7.9,4.6l1,0.6l7.9-4.6L536.5,236.7z M537.9,235.9l1,0.6l17.9-10.3l-1-0.6L537.9,235.9z M556.6,231.1l10.4-6
					l-1-0.6l-10.4,6L556.6,231.1z M492.8,263.2l-1-0.6l-12.9,7.4l1,0.6L492.8,263.2z M515.9,248.7l-22.8,13.1l1,0.6l22.8-13.1
					L515.9,248.7z M520.1,250.9l1,0.6l17.8-10.3l-1-0.6L520.1,250.9z M554.2,231.3l-14.9,8.6l1,0.6l14.8-8.6L554.2,231.3z
					 M562.6,221.7l-5.3,3.1l1,0.6l5.3-3.1L562.6,221.7z M500.8,263.3l-1-0.6l-16.9,9.7l1,0.6L500.8,263.3z"/>
				<path fill="#292E3F" d="M523.7,265.4l17.8-10.3l-1-0.6l-17.8,10.3L523.7,265.4z M542.8,254.3l14.9-8.6l-1-0.6l-14.8,8.6
					L542.8,254.3z M522.3,266.2l-1-0.6L496,280.1l1,0.6L522.3,266.2z M493.1,278.3l8.3-4.8l-1-0.6l-8.3,4.8L493.1,278.3z
					 M565.9,235.1l1,0.6l9.9-5.7l-1-0.6L565.9,235.1z M547.6,246.8l17.9-10.3l-1-0.6l-17.9,10.3L547.6,246.8z M538.3,252.2l7.9-4.6
					l-1-0.6l-7.9,4.6L538.3,252.2z M527,258.7l9.9-5.7l-1-0.6l-9.9,5.7L527,258.7z M502.8,272.7l22.8-13.1l-1-0.6l-22.8,13.1
					L502.8,272.7z"/>
				<polygon fill="#292E3F" points="561.5,252.8 562.5,253.4 577.4,244.8 576.4,244.2 				"/>
				<polygon fill="#292E3F" points="547.8,265.4 548.8,266 558.7,260.3 557.7,259.7 				"/>
				<polygon fill="#292E3F" points="560.1,253.6 542.3,263.9 543.4,264.5 561.1,254.2 				"/>
				<polygon fill="#292E3F" points="574.4,250.1 559.1,258.9 560.1,259.5 575.5,250.7 				"/>
				<polygon fill="#292E3F" points="542,265.3 540.9,264.7 505,285.4 506.1,286 				"/>
				<polygon fill="#292E3F" points="577.8,243.4 578.8,244 586.7,239.4 585.7,238.8 				"/>
				<polygon fill="#292E3F" points="523.3,280.8 522.2,280.2 509.4,287.6 510.4,288.2 				"/>
				<polygon fill="#292E3F" points="546.4,266.3 523.6,279.4 524.7,280 547.4,266.8 				"/>
				<polygon fill="#292E3F" points="587.1,238 588.1,238.6 594.9,234.7 593.8,234.1 				"/>
			</g>
			<g>
				<path opacity="0.3" fill="#ACA5B7" d="M512.9,312.1c-3.4,1.9-6.7,3.8-10.1,5.7c-3.6-2-7.1-4.1-10.7-6.1c-3.7-2-7.3-4-11-6
					c3.5,2.2,7.1,4.4,10.7,6.6c3.6,2.1,7.2,4.2,10.8,6.4l0.2,0.1l0.2-0.1c3.4-2,6.8-4,10.2-6c3.4-2,6.7-4.1,10.1-6.2
					C519.8,308.3,516.3,310.2,512.9,312.1z"/>
				<path opacity="0.3" fill="#ACA5B7" d="M533.1,297.3c5.4-2.5,107.4-61.6,111.1-64.2C640.1,235.1,538,293.9,533.1,297.3z"/>
				<path opacity="0.3" fill="#ACA5B7" d="M414.5,265.4c-4.4-2.1-118.8-68.2-121.8-70.3C296,196.6,410.5,262.6,414.5,265.4z"/>
			</g>
		</g>
		<g>
			<g id="Axonometric_Cylinder_10_">
				<path id="Cylinder_face_3_" fill="#E6A136" d="M529,194.5c-20,11.6-52.5,11.6-72.5,0c-20-11.6-20-30.3,0-41.9
					c20-11.6,52.5-11.6,72.5,0C549,164.1,549,182.9,529,194.5z"/>
				<path fill="#896020" d="M529,194.5c-20,11.6-52.5,11.6-72.5,0v4.1c20,11.6,52.5,11.6,72.5,0c10.1-5.9,15.1-13.5,15-21.2v-4.1
					C544.1,180.9,539.1,188.6,529,194.5z"/>
			</g>
			<g enable-background="new    ">
				<g>
					<polygon fill="#813013" points="493.5,159.8 493.2,173 492.3,173.3 456.4,152.6 456.5,138.6 					"/>
				</g>
				<polygon fill="#813013" points="493.2,159.8 493.2,173.6 529.4,152.7 529.5,138.8 				"/>
			</g>
			<path fill="#F15A24" d="M529.5,138.8l-36.3,21.1l-36.7-21.2C476.7,127.1,509.2,127.1,529.5,138.8z"/>
			<g>
				<polygon fill="#8F8F8F" points="441.3,164.9 441.3,172.1 493.2,173.1 493.2,164.9 				"/>
				<path fill="#DCDCDC" d="M456.4,143.6c-10.1,5.9-15.2,13.6-15.2,21.3l51.9,0L456.4,143.6z"/>
			</g>
			<g>
				<path fill="#1A1D27" d="M456.4,190.2c-7.3-4.2-12.5-9.7-14.4-15.9c-0.5-1.7-0.7-3.3-0.7-4.9l0,1.2c0,2.6,0,8.7,0.7,11.3
					c0,0,0.1,0.3,0.1,0.3c1.6,6.2,6.5,11.9,14.7,16.6c0.3,0.2,0.7,0.4,1,0.6l0-8.4C457.3,190.7,456.8,190.4,456.4,190.2z"/>
				<polygon fill="#1A1D27" points="493.2,169.4 493.2,173.6 457.7,195.2 457.7,190.9 				"/>
				<path fill="#232836" d="M493.2,169.4l-35.5,21.6c-0.5-0.2-0.9-0.5-1.4-0.8c-7.3-4.2-12.5-9.7-14.4-15.9
					c-0.4-1.5-0.7-3.1-0.7-4.9L493.2,169.4z"/>
			</g>
		</g>
		<g id="_x31__3_">
			<g>
				<g enable-background="new    ">
					<path fill="#292E3F" d="M296.3,228.6c-1.2-0.7-2.3-0.8-3.1-0.3l-82.8,48.1c0.8-0.5,1.9-0.4,3.1,0.3l12,7l82.8-48.1L296.3,228.6
						z"/>
					<polygon fill="#292E3F" points="308.4,235.6 225.5,283.7 247.5,301.4 330.3,253.3 					"/>
					<polygon fill="#A1A81B" points="234.1,284.3 307.9,241.5 321.7,252.6 248,295.5 					"/>
					<polygon opacity="0.5" fill="#A1A81B" points="307.8,243.6 320.1,253.5 321.7,252.6 307.9,241.5 234.1,284.3 235.7,285.6 					
						"/>
					<path fill="#292E3F" d="M418.6,306.7c0-0.1,0-0.2-0.1-0.2c-0.1-0.3-0.2-0.6-0.3-1c-0.1-0.3-0.3-0.6-0.4-0.8
						c0-0.1-0.1-0.2-0.2-0.2c-0.1-0.2-0.3-0.4-0.4-0.6c0,0-0.1-0.1-0.1-0.1c-0.2-0.2-0.3-0.3-0.4-0.4c-0.1-0.1-0.1-0.1-0.2-0.2
						c-0.2-0.2-0.4-0.3-0.6-0.4l-85.5-49.3l-82.8,48.1l85.5,49.3c0.2,0.1,0.4,0.3,0.6,0.4c0.1,0.1,0.1,0.1,0.2,0.2
						c0.1,0.1,0.3,0.2,0.4,0.4c0.1,0.1,0.1,0.1,0.2,0.2c0.2,0.2,0.3,0.4,0.4,0.6c0.1,0.1,0.1,0.2,0.2,0.2c0.2,0.3,0.3,0.5,0.4,0.8
						c0.2,0.4,0.3,0.7,0.4,1c0,0.1,0,0.2,0.1,0.2c0.1,0.3,0.1,0.6,0.1,1l0,2.4c0,0.9-0.3,1.6-0.9,1.9l82.8-48.1
						c0.5-0.3,0.9-1,0.9-1.9l0-2.4C418.7,307.3,418.7,307,418.6,306.7z"/>
					<path fill="#393532" d="M417.1,303.7l-82.8,48.1c0.5,0.5,0.8,1.1,1.1,1.8l82.8-48.1C417.9,304.8,417.5,304.2,417.1,303.7z"/>
					<path fill="#1A1D27" d="M333,350.7l-85.5-49.3l-22-17.7l-12-7c-2.4-1.4-4.4-0.3-4.4,2.5l0,4c0,2.8,2,6.2,4.4,7.6l119.5,69
						c1.6,0.9,2.9,0.2,2.9-1.7l0-2.4C335.9,353.9,334.6,351.7,333,350.7z"/>
				</g>
				<path opacity="0.7" fill="#679926" d="M308,256.6l-0.1,0.9l-0.9-0.1c-1.5-1.3-4.9-4.2-6-5.2l0-0.6l1.3,0.1
					C305.5,254.5,304.9,253.9,308,256.6z M304.4,249.9l0-0.9l-0.9-0.1l-2.4,1.4l0,0.6l1.3,0.1L304.4,249.9z M305.5,250
					c4.8,4,3.6,3,5.8,4.8l1.3,0.1l0-0.6c-2.6-2.1-3.2-2.6-6.2-5.1l-0.9-0.1L305.5,250z M309.1,256.7l-0.1,0.9l0.9,0.1l2.5-1.4
					l0.1-0.6l-1.3-0.1L309.1,256.7z M314,253.5l1.3,1.1l1.1-0.7l-1.3-1.1L314,253.5z"/>
			</g>
			<g>
				<g>
					<g>
						<g>
							<path fill="#252321" d="M404,302.5l-6.2,3.6c-1.5,0.9-3.9,0.8-5.4,0L375,296c-0.7-0.4-1.1-1-1.1-1.6l0,1.8
								c0,0.6,0.4,1.1,1.1,1.6l17.5,10.1c1.5,0.9,3.9,0.9,5.4,0l6.2-3.6c0.7-0.4,1.1-1,1.1-1.5l0-1.8
								C405.1,301.6,404.7,302.1,404,302.5z"/>
						</g>
						<g>
							<path fill="#393532" d="M404,299.4l-17.5-10.1c-1.5-0.8-3.9-0.8-5.4,0l-6.2,3.6c-1.5,0.9-1.5,2.2,0,3.1l17.5,10.1
								c1.5,0.8,3.9,0.9,5.4,0l6.2-3.6C405.5,301.7,405.5,300.3,404,299.4z"/>
						</g>
					</g>
					<g>
						<g>
							<path fill="#252321" d="M376.6,286.7l-6.2,3.6c-1.5,0.9-3.9,0.8-5.4,0l-3.8-2.2c-0.7-0.4-1.1-1-1.1-1.6l0,1.8
								c0,0.6,0.4,1.1,1.1,1.6l3.8,2.2c1.5,0.9,3.9,0.9,5.4,0l6.2-3.6c0.7-0.4,1.1-1,1.1-1.5l0-1.8
								C377.7,285.8,377.4,286.3,376.6,286.7z"/>
						</g>
						<g>
							<path fill="#393532" d="M376.6,283.6l-3.8-2.2c-1.5-0.9-3.9-0.9-5.4,0l-6.2,3.6c-1.5,0.9-1.5,2.2,0,3.1l3.8,2.2
								c1.5,0.9,3.9,0.9,5.4,0l6.2-3.6C378.1,285.9,378.1,284.5,376.6,283.6z"/>
						</g>
					</g>
					<g>
						<g>
							<path fill="#252321" d="M363,278.8l-6.2,3.6c-1.5,0.9-3.9,0.8-5.4,0l-3.8-2.2c-0.7-0.4-1.1-1-1.1-1.6l0,1.8
								c0,0.6,0.4,1.1,1.1,1.6l3.8,2.2c1.5,0.8,3.9,0.9,5.4,0l6.2-3.6c0.7-0.4,1.1-1,1.1-1.5l0-1.8
								C364.1,277.9,363.7,278.4,363,278.8z"/>
						</g>
						<g>
							<path fill="#393532" d="M362.9,275.7l-3.8-2.2c-1.5-0.9-3.9-0.9-5.4,0l-6.2,3.6c-1.5,0.8-1.5,2.2,0,3.1l3.8,2.2
								c1.5,0.8,3.9,0.9,5.4,0l6.2-3.6C364.4,278,364.4,276.6,362.9,275.7z"/>
						</g>
					</g>
					<g>
						<g>
							<path fill="#252321" d="M349.3,270.9l-6.2,3.6c-1.5,0.9-3.9,0.8-5.4,0l-3.8-2.2c-0.7-0.4-1.1-1-1.1-1.6l0,1.8
								c0,0.6,0.4,1.1,1.1,1.6l3.8,2.2c1.5,0.9,3.9,0.9,5.4,0l6.2-3.6c0.7-0.4,1.1-1,1.1-1.5l0-1.8
								C350.4,269.9,350,270.5,349.3,270.9z"/>
						</g>
						<g>
							<path fill="#393532" d="M349.3,267.8l-3.8-2.2c-1.5-0.9-3.9-0.9-5.4,0l-6.2,3.6c-1.5,0.9-1.5,2.2,0,3.1l3.8,2.2
								c1.5,0.9,3.9,0.9,5.4,0l6.2-3.6C350.7,270.1,350.7,268.7,349.3,267.8z"/>
						</g>
					</g>
					<g>
						<g>
							<path fill="#252321" d="M335.6,263l-6.2,3.6c-1.5,0.9-3.9,0.8-5.4,0L323,266c-0.7-0.4-1.1-1-1.1-1.6l0,1.8
								c0,0.6,0.4,1.1,1.1,1.6l1.1,0.6c1.5,0.9,3.9,0.9,5.4,0l6.2-3.6c0.7-0.4,1.1-1,1.1-1.5l0-1.8C336.7,262,336.3,262.6,335.6,263
								z"/>
						</g>
						<g>
							<path fill="#393532" d="M335.6,259.9l-1.1-0.6c-1.5-0.9-3.9-0.9-5.4,0l-6.2,3.6c-1.5,0.9-1.5,2.2,0,3.1l1.1,0.6
								c1.5,0.8,3.9,0.9,5.4,0l6.2-3.6C337.1,262.2,337,260.8,335.6,259.9z"/>
						</g>
					</g>
				</g>
				<g>
					<g>
						<g>
							<path fill="#717F89" d="M388.4,311.6l-6.2,3.6c-1.5,0.9-3.9,0.8-5.4,0L373,313c-0.7-0.4-1.1-1-1.1-1.6l0,1.8
								c0,0.6,0.4,1.1,1.1,1.6l3.8,2.2c1.5,0.9,3.9,0.9,5.4,0l6.2-3.6c0.7-0.4,1.1-1,1.1-1.5l0-1.8
								C389.5,310.6,389.1,311.2,388.4,311.6z"/>
						</g>
						<g>
							<path fill="#92A3AD" d="M388.3,308.5l-3.8-2.2c-1.5-0.9-3.9-0.9-5.4,0l-6.2,3.6c-1.5,0.9-1.5,2.2,0,3.1l3.8,2.2
								c1.5,0.9,3.9,0.9,5.4,0l6.2-3.6C389.8,310.7,389.8,309.3,388.3,308.5z"/>
						</g>
					</g>
					<g>
						<g>
							<path fill="#717F89" d="M374.7,303.7l-6.2,3.6c-1.5,0.9-3.9,0.8-5.4,0l-3.8-2.2c-0.7-0.4-1.1-1-1.1-1.6l0,1.8
								c0,0.6,0.4,1.1,1.1,1.6l3.8,2.2c1.5,0.9,3.9,0.9,5.4,0l6.2-3.6c0.7-0.4,1.1-1,1.1-1.5l0-1.8
								C375.8,302.7,375.4,303.3,374.7,303.7z"/>
						</g>
						<g>
							<path fill="#92A3AD" d="M374.7,300.6l-3.8-2.2c-1.5-0.9-3.9-0.9-5.4,0l-6.2,3.6c-1.5,0.9-1.5,2.2,0,3.1l3.8,2.2
								c1.5,0.9,3.9,0.9,5.4,0l6.2-3.6C376.1,302.8,376.1,301.4,374.7,300.6z"/>
						</g>
					</g>
					<g>
						<g>
							<path fill="#717F89" d="M361,295.8l-6.2,3.6c-1.5,0.8-3.9,0.8-5.4,0l-3.8-2.2c-0.7-0.4-1.1-1-1.1-1.6l0,1.8
								c0,0.6,0.4,1.1,1.1,1.6l3.8,2.2c1.5,0.9,3.9,0.9,5.4,0l6.2-3.6c0.7-0.4,1.1-1,1.1-1.5l0-1.8
								C362.1,294.8,361.7,295.4,361,295.8z"/>
						</g>
						<g>
							<path fill="#92A3AD" d="M361,292.7l-3.8-2.2c-1.5-0.9-3.9-0.9-5.4,0l-6.2,3.6c-1.5,0.9-1.5,2.2,0,3.1l3.8,2.2
								c1.5,0.9,3.9,0.9,5.4,0l6.2-3.6C362.5,294.9,362.4,293.5,361,292.7z"/>
						</g>
					</g>
					<g>
						<g>
							<path fill="#717F89" d="M347.3,287.9l-6.2,3.6c-1.5,0.9-3.9,0.8-5.4,0l-3.8-2.2c-0.7-0.4-1.1-1-1.1-1.6l0,1.8
								c0,0.6,0.4,1.1,1.1,1.6l3.8,2.2c1.5,0.9,3.9,0.9,5.4,0l6.2-3.6c0.7-0.4,1.1-1,1.1-1.5l0-1.8
								C348.4,286.9,348,287.5,347.3,287.9z"/>
						</g>
						<g>
							<path fill="#92A3AD" d="M347.3,284.8l-3.8-2.2c-1.5-0.9-3.9-0.9-5.4,0l-6.2,3.6c-1.5,0.9-1.5,2.2,0,3.1l3.8,2.2
								c1.5,0.9,3.9,0.9,5.4,0l6.2-3.6C348.8,287,348.8,285.6,347.3,284.8z"/>
						</g>
					</g>
					<g>
						<g>
							<path fill="#252321" d="M333.6,280l-6.2,3.6c-1.5,0.9-3.9,0.8-5.4,0l-3.8-2.2c-0.7-0.4-1.1-1-1.1-1.6l0,1.8
								c0,0.6,0.4,1.1,1.1,1.6l3.8,2.2c1.5,0.9,3.9,0.9,5.4,0l6.2-3.6c0.7-0.4,1.1-1,1.1-1.5l0-1.8C334.7,279,334.3,279.5,333.6,280
								z"/>
						</g>
						<g>
							<path fill="#393532" d="M333.6,276.9l-3.8-2.2c-1.5-0.9-3.9-0.9-5.4,0l-6.2,3.6c-1.5,0.9-1.5,2.2,0,3.1l3.8,2.2
								c1.5,0.9,3.9,0.9,5.4,0l6.2-3.6C335.1,279.1,335.1,277.7,333.6,276.9z"/>
						</g>
					</g>
					<g>
						<g>
							<path fill="#252321" d="M319.9,272.1l-6.2,3.6c-1.5,0.9-3.9,0.8-5.4,0l-1.1-0.6c-0.7-0.4-1.1-1-1.1-1.6l0,1.8
								c0,0.6,0.4,1.1,1.1,1.6l1.1,0.6c1.5,0.9,3.9,0.9,5.4,0l6.2-3.6c0.7-0.4,1.1-1,1.1-1.5l0-1.8
								C321,271.1,320.7,271.6,319.9,272.1z"/>
						</g>
						<g>
							<path fill="#393532" d="M319.9,269l-1.1-0.6c-1.5-0.9-3.9-0.9-5.4,0l-6.2,3.6c-1.5,0.9-1.5,2.2,0,3.1l1.1,0.6
								c1.5,0.9,3.9,0.9,5.4,0l6.2-3.6C321.4,271.2,321.4,269.8,319.9,269z"/>
						</g>
					</g>
				</g>
				<g>
					<g>
						<g>
							<path fill="#717F89" d="M372.7,320.6l-6.2,3.6c-1.5,0.9-3.9,0.8-5.4,0l-3.8-2.2c-0.7-0.4-1.1-1-1.1-1.6l0,1.8
								c0,0.6,0.4,1.1,1.1,1.6l3.8,2.2c1.5,0.8,3.9,0.9,5.4,0l6.2-3.6c0.7-0.4,1.1-1,1.1-1.5l0-1.8
								C373.8,319.6,373.4,320.2,372.7,320.6z"/>
						</g>
						<g>
							<path fill="#92A3AD" d="M372.7,317.5l-3.8-2.2c-1.5-0.9-3.9-0.9-5.4,0l-6.2,3.6c-1.5,0.9-1.5,2.2,0,3.1l3.8,2.2
								c1.5,0.8,3.9,0.9,5.4,0l6.2-3.6C374.2,319.8,374.2,318.4,372.7,317.5z"/>
						</g>
					</g>
					<g>
						<g>
							<path fill="#717F89" d="M359,312.7l-6.2,3.6c-1.5,0.9-3.9,0.8-5.4,0l-3.8-2.2c-0.7-0.4-1.1-1-1.1-1.6l0,1.8
								c0,0.6,0.4,1.1,1.1,1.6l3.8,2.2c1.5,0.9,3.9,0.9,5.4,0l6.2-3.6c0.7-0.4,1.1-1,1.1-1.5l0-1.8
								C360.1,311.7,359.7,312.3,359,312.7z"/>
						</g>
						<g>
							<path fill="#92A3AD" d="M359,309.6l-3.8-2.2c-1.5-0.9-3.9-0.9-5.4,0l-6.2,3.6c-1.5,0.9-1.5,2.2,0,3.1l3.8,2.2
								c1.5,0.9,3.9,0.9,5.4,0l6.2-3.6C360.5,311.9,360.5,310.5,359,309.6z"/>
						</g>
					</g>
					<g>
						<g>
							<path fill="#717F89" d="M345.3,304.8l-6.2,3.6c-1.5,0.9-3.9,0.8-5.4,0l-3.8-2.2c-0.7-0.4-1.1-1-1.1-1.6l0,1.8
								c0,0.6,0.4,1.1,1.1,1.6l3.8,2.2c1.5,0.9,3.9,0.9,5.4,0l6.2-3.6c0.7-0.4,1.1-1,1.1-1.5l0-1.8
								C346.4,303.8,346.1,304.4,345.3,304.8z"/>
						</g>
						<g>
							<path fill="#92A3AD" d="M345.3,301.7l-3.8-2.2c-1.5-0.9-3.9-0.9-5.4,0l-6.2,3.6c-1.5,0.8-1.5,2.2,0,3.1l3.8,2.2
								c1.5,0.9,3.9,0.9,5.4,0l6.2-3.6C346.8,304,346.8,302.6,345.3,301.7z"/>
						</g>
					</g>
					<g>
						<g>
							<path fill="#717F89" d="M331.6,296.9l-6.2,3.6c-1.5,0.9-3.9,0.8-5.4,0l-3.8-2.2c-0.7-0.4-1.1-1-1.1-1.6l0,1.8
								c0,0.6,0.4,1.1,1.1,1.6l3.8,2.2c1.5,0.9,3.9,0.9,5.4,0l6.2-3.6c0.7-0.4,1.1-1,1.1-1.5l0-1.8
								C332.7,295.9,332.4,296.5,331.6,296.9z"/>
						</g>
						<g>
							<path fill="#92A3AD" d="M331.6,293.8l-3.8-2.2c-1.5-0.9-3.9-0.9-5.4,0l-6.2,3.6c-1.5,0.9-1.5,2.2,0,3.1l3.8,2.2
								c1.5,0.9,3.9,0.9,5.4,0l6.2-3.6C333.1,296.1,333.1,294.7,331.6,293.8z"/>
						</g>
					</g>
					<g>
						<g>
							<path fill="#252321" d="M317.9,289l-6.2,3.6c-1.5,0.9-3.9,0.8-5.4,0l-3.8-2.2c-0.7-0.4-1.1-1-1.1-1.6l0,1.8
								c0,0.6,0.4,1.1,1.1,1.6l3.8,2.2c1.5,0.9,3.9,0.9,5.4,0l6.2-3.6c0.7-0.4,1.1-1,1.1-1.5l0-1.8C319,288,318.7,288.6,317.9,289z"
								/>
						</g>
						<g>
							<path fill="#393532" d="M317.9,285.9l-3.8-2.2c-1.5-0.9-3.9-0.9-5.4,0l-6.2,3.6c-1.5,0.8-1.5,2.2,0,3.1l3.8,2.2
								c1.5,0.9,3.9,0.9,5.4,0l6.2-3.6C319.4,288.2,319.4,286.8,317.9,285.9z"/>
						</g>
					</g>
					<g>
						<g>
							<path fill="#252321" d="M304.3,281.1l-6.2,3.6c-1.5,0.9-3.9,0.8-5.4,0l-1.1-0.6c-0.7-0.4-1.1-1-1.1-1.6l0,1.8
								c0,0.6,0.4,1.1,1.1,1.6l1.1,0.6c1.5,0.9,3.9,0.9,5.4,0l6.2-3.6c0.7-0.4,1.1-1,1.1-1.5l0-1.8
								C305.4,280.1,305,280.7,304.3,281.1z"/>
						</g>
						<g>
							<path fill="#393532" d="M304.2,278l-1.1-0.6c-1.5-0.9-3.9-0.9-5.4,0l-6.2,3.6c-1.5,0.9-1.5,2.2,0,3.1l1.1,0.6
								c1.5,0.9,3.9,0.9,5.4,0l6.2-3.6C305.7,280.3,305.7,278.9,304.2,278z"/>
						</g>
					</g>
				</g>
				<g>
					<g>
						<g>
							<path fill="#717F89" d="M357,329.7l-6.2,3.6c-1.5,0.9-3.9,0.8-5.4,0l-3.8-2.2c-0.7-0.4-1.1-1-1.1-1.6l0,1.8
								c0,0.6,0.4,1.1,1.1,1.6l3.8,2.2c1.5,0.9,3.9,0.9,5.4,0l6.2-3.6c0.7-0.4,1.1-1,1.1-1.5l0-1.8
								C358.1,328.7,357.8,329.2,357,329.7z"/>
						</g>
						<g>
							<path fill="#92A3AD" d="M357,326.6l-3.8-2.2c-1.5-0.9-3.9-0.9-5.4,0l-6.2,3.6c-1.5,0.9-1.5,2.2,0,3.1l3.8,2.2
								c1.5,0.9,3.9,0.9,5.4,0l6.2-3.6C358.5,328.8,358.5,327.4,357,326.6z"/>
						</g>
					</g>
					<g>
						<g>
							<path fill="#717F89" d="M343.3,321.8l-6.2,3.6c-1.5,0.8-3.9,0.8-5.4,0l-3.8-2.2c-0.7-0.4-1.1-1-1.1-1.6l0,1.8
								c0,0.6,0.4,1.1,1.1,1.6l3.8,2.2c1.5,0.9,3.9,0.9,5.4,0l6.2-3.6c0.7-0.4,1.1-1,1.1-1.5l0-1.8
								C344.4,320.8,344.1,321.3,343.3,321.8z"/>
						</g>
						<g>
							<path fill="#92A3AD" d="M343.3,318.7l-3.8-2.2c-1.5-0.9-3.9-0.9-5.4,0l-6.2,3.6c-1.5,0.9-1.5,2.2,0,3.1l3.8,2.2
								c1.5,0.9,3.9,0.9,5.4,0l6.2-3.6C344.8,320.9,344.8,319.5,343.3,318.7z"/>
						</g>
					</g>
					<g>
						<g>
							<path fill="#717F89" d="M329.7,313.9l-6.2,3.6c-1.5,0.9-3.9,0.8-5.4,0l-3.8-2.2c-0.7-0.4-1.1-1-1.1-1.6l0,1.8
								c0,0.6,0.4,1.1,1.1,1.6l3.8,2.2c1.5,0.9,3.9,0.9,5.4,0l6.2-3.6c0.7-0.4,1.1-1,1.1-1.5l0-1.8
								C330.8,312.9,330.4,313.4,329.7,313.9z"/>
						</g>
						<g>
							<path fill="#92A3AD" d="M329.6,310.8l-3.8-2.2c-1.5-0.9-3.9-0.9-5.4,0l-6.2,3.6c-1.5,0.9-1.5,2.2,0,3.1l3.8,2.2
								c1.5,0.9,3.9,0.9,5.4,0l6.2-3.6C331.1,313,331.1,311.6,329.6,310.8z"/>
						</g>
					</g>
					<g>
						<g>
							<path fill="#717F89" d="M316,306l-6.2,3.6c-1.5,0.9-3.9,0.8-5.4,0l-3.8-2.2c-0.7-0.4-1.1-1-1.1-1.6l0,1.8
								c0,0.6,0.4,1.1,1.1,1.6l3.8,2.2c1.5,0.9,3.9,0.9,5.4,0l6.2-3.6c0.7-0.4,1.1-1,1.1-1.5l0-1.8C317.1,305,316.7,305.5,316,306z"
								/>
						</g>
						<g>
							<path fill="#92A3AD" d="M316,302.9l-3.8-2.2c-1.5-0.9-3.9-0.9-5.4,0l-6.2,3.6c-1.5,0.9-1.5,2.2,0,3.1l3.8,2.2
								c1.5,0.9,3.9,0.9,5.4,0l6.2-3.6C317.4,305.1,317.4,303.7,316,302.9z"/>
						</g>
					</g>
					<g>
						<g>
							<path fill="#252321" d="M302.3,298.1l-6.2,3.6c-1.5,0.9-3.9,0.8-5.4,0l-3.8-2.2c-0.7-0.4-1.1-1-1.1-1.6l0,1.8
								c0,0.6,0.4,1.1,1.1,1.6l3.8,2.2c1.5,0.9,3.9,0.9,5.4,0l6.2-3.6c0.7-0.4,1.1-1,1.1-1.5l0-1.8
								C303.4,297.1,303,297.6,302.3,298.1z"/>
						</g>
						<g>
							<path fill="#393532" d="M302.3,295l-3.8-2.2c-1.5-0.9-3.9-0.9-5.4,0l-6.2,3.6c-1.5,0.9-1.5,2.2,0,3.1l3.8,2.2
								c1.5,0.9,3.9,0.9,5.4,0l6.2-3.6C303.8,297.2,303.7,295.8,302.3,295z"/>
						</g>
					</g>
					<g>
						<g>
							<path fill="#252321" d="M288.6,290.2l-6.2,3.6c-1.5,0.9-3.9,0.8-5.4,0l-1.1-0.6c-0.7-0.4-1.1-1-1.1-1.6l0,1.8
								c0,0.6,0.4,1.1,1.1,1.6l1.1,0.6c1.5,0.9,3.9,0.9,5.4,0l6.2-3.6c0.7-0.4,1.1-1,1.1-1.5l0-1.8
								C289.7,289.2,289.3,289.7,288.6,290.2z"/>
						</g>
						<g>
							<path fill="#393532" d="M288.6,287.1l-1.1-0.6c-1.5-0.9-3.9-0.9-5.4,0L276,290c-1.5,0.9-1.5,2.2,0,3.1l1.1,0.6
								c1.5,0.9,3.9,0.9,5.4,0l6.2-3.6C290.1,289.3,290,287.9,288.6,287.1z"/>
						</g>
					</g>
				</g>
				<g>
					<g>
						<g>
							<path fill="#DB7521" d="M341.4,338.7l-6.2,3.6c-1.5,0.9-3.9,0.8-5.4,0l-3.8-2.2c-0.7-0.4-1.1-1-1.1-1.6l0,1.8
								c0,0.6,0.4,1.1,1.1,1.6l3.8,2.2c1.5,0.9,3.9,0.9,5.4,0l6.2-3.6c0.7-0.4,1.1-1,1.1-1.5l0-1.8
								C342.5,337.7,342.1,338.3,341.4,338.7z"/>
						</g>
						<g>
							<path fill="#F9963D" d="M341.4,335.6l-3.8-2.2c-1.5-0.9-3.9-0.9-5.4,0L326,337c-1.5,0.9-1.5,2.2,0,3.1l3.8,2.2
								c1.5,0.9,3.9,0.9,5.4,0l6.2-3.6C342.8,337.9,342.8,336.5,341.4,335.6z"/>
						</g>
					</g>
					<g>
						<g>
							<path fill="#252321" d="M327.7,330.8l-6.2,3.6c-1.5,0.9-3.9,0.8-5.4,0l-3.8-2.2c-0.7-0.4-1.1-1-1.1-1.6l0,1.8
								c0,0.6,0.4,1.1,1.1,1.6l3.8,2.2c1.5,0.9,3.9,0.9,5.4,0l6.2-3.6c0.7-0.4,1.1-1,1.1-1.5l0-1.8
								C328.8,329.8,328.4,330.4,327.7,330.8z"/>
						</g>
						<g>
							<path fill="#393532" d="M327.7,327.7l-3.8-2.2c-1.5-0.9-3.9-0.9-5.4,0l-6.2,3.6c-1.5,0.8-1.5,2.2,0,3.1l3.8,2.2
								c1.5,0.9,3.9,0.9,5.4,0l6.2-3.6C329.2,330,329.1,328.6,327.7,327.7z"/>
						</g>
					</g>
					<g>
						<g>
							<path fill="#252321" d="M314,322.9l-6.2,3.6c-1.5,0.9-3.9,0.8-5.4,0l-3.8-2.2c-0.7-0.4-1.1-1-1.1-1.6l0,1.8
								c0,0.6,0.4,1.1,1.1,1.6l3.8,2.2c1.5,0.9,3.9,0.9,5.4,0l6.2-3.6c0.7-0.4,1.1-1,1.1-1.5l0-1.8
								C315.1,321.9,314.7,322.5,314,322.9z"/>
						</g>
						<g>
							<path fill="#393532" d="M314,319.8l-3.8-2.2c-1.5-0.9-3.9-0.9-5.4,0l-6.2,3.6c-1.5,0.9-1.5,2.2,0,3.1l3.8,2.2
								c1.5,0.9,3.9,0.9,5.4,0l6.2-3.6C315.5,322.1,315.5,320.7,314,319.8z"/>
						</g>
					</g>
					<g>
						<g>
							<path fill="#252321" d="M300.3,315l-6.2,3.6c-1.5,0.9-3.9,0.8-5.4,0l-3.8-2.2c-0.7-0.4-1.1-1-1.1-1.6l0,1.8
								c0,0.6,0.4,1.1,1.1,1.6l3.8,2.2c1.5,0.9,3.9,0.9,5.4,0l6.2-3.6c0.7-0.4,1.1-1,1.1-1.5l0-1.8C301.4,314,301,314.6,300.3,315z"
								/>
						</g>
						<g>
							<path fill="#393532" d="M300.3,311.9l-3.8-2.2c-1.5-0.9-3.9-0.9-5.4,0l-6.2,3.6c-1.5,0.9-1.5,2.2,0,3.1l3.8,2.2
								c1.5,0.9,3.9,0.9,5.4,0l6.2-3.6C301.8,314.1,301.8,312.7,300.3,311.9z"/>
						</g>
					</g>
					<g>
						<g>
							<path fill="#252321" d="M286.6,307.1l-6.2,3.6c-1.5,0.9-3.9,0.8-5.4,0l-3.8-2.2c-0.7-0.4-1.1-1-1.1-1.6l0,1.8
								c0,0.6,0.4,1.1,1.1,1.6l3.8,2.2c1.5,0.9,3.9,0.9,5.4,0l6.2-3.6c0.7-0.4,1.1-1,1.1-1.5l0-1.8
								C287.7,306.1,287.4,306.7,286.6,307.1z"/>
						</g>
						<g>
							<path fill="#393532" d="M286.6,304l-3.8-2.2c-1.5-0.9-3.9-0.9-5.4,0l-6.2,3.6c-1.5,0.9-1.5,2.2,0,3.1l3.8,2.2
								c1.5,0.9,3.9,0.9,5.4,0l6.2-3.6C288.1,306.2,288.1,304.8,286.6,304z"/>
						</g>
					</g>
					<g>
						<g>
							<path fill="#252321" d="M272.9,299.2l-6.2,3.6c-1.5,0.9-3.9,0.8-5.4,0l-1.1-0.6c-0.7-0.4-1.1-1-1.1-1.6l0,1.8
								c0,0.6,0.4,1.1,1.1,1.6l1.1,0.6c1.5,0.9,3.9,0.9,5.4,0l6.2-3.6c0.7-0.4,1.1-1,1.1-1.5l0-1.8
								C274,298.2,273.7,298.8,272.9,299.2z"/>
						</g>
						<g>
							<path fill="#393532" d="M272.9,296.1l-1.1-0.6c-1.5-0.9-3.9-0.9-5.4,0l-6.2,3.6c-1.5,0.9-1.5,2.2,0,3.1l1.1,0.6
								c1.5,0.9,3.9,0.9,5.4,0l6.2-3.6C274.4,298.3,274.4,296.9,272.9,296.1z"/>
						</g>
					</g>
				</g>
			</g>
		</g>
	</g>
	<g>
		<g>
			<g>
				<g enable-background="new    ">
					<g>
						<polygon fill="#7E581E" points="297.6,375.5 193.4,315 190.6,311.1 294.8,371.6 						"/>
					</g>
					<g>
						<polygon fill="#CC8425" points="294.8,371.6 190.6,311.1 193.3,304 297.5,364.6 						"/>
					</g>
					<g>
						<polygon fill="#FBB03B" points="297.5,364.6 193.3,304 198.9,300.8 303.1,361.4 						"/>
					</g>
					<g>
						<polygon fill="#C2882E" points="303.1,361.4 305.8,365.3 303.1,372.3 297.6,375.5 294.8,371.6 297.5,364.6 						"/>
					</g>
				</g>
			</g>
			<g>
				<polygon fill="#B78748" points="294.8,371.6 297.6,375.5 307.6,376.4 306.6,374.7 				"/>
				<polygon fill="#E2B06F" points="306.6,374.7 307.9,371.5 297.5,364.6 294.8,371.6 306.6,374.7 				"/>
				<polygon fill="#F4DAB8" points="310.3,370.3 305.8,365.3 303.1,361.4 297.5,364.6 307.9,371.5 				"/>
				<polygon fill="#FBB03B" points="310.3,370.3 310.9,370.6 303.1,361.4 305.8,365.3 				"/>
				<polygon fill="#4D4D4D" points="306.6,374.7 307.6,376.4 316.6,377.2 				"/>
				<polygon fill="#666666" points="307.9,371.5 306.6,374.7 316.6,377.2 307.9,371.5 				"/>
				<polygon fill="#B3B3B3" points="310.3,370.3 307.9,371.5 316.6,377.2 310.3,370.3 				"/>
				<polygon fill="#666666" points="310.3,370.3 316.6,377.2 310.9,370.6 				"/>
			</g>
		</g>
	</g>
</g>
</svg>
