<?xml version="1.0" encoding="utf-8"?>
<!-- Generator: Adobe Illustrator 23.0.4, SVG Export Plug-In . SVG Version: 6.00 Build 0)  -->
<svg version="1.1" id="Слой_1" xmlns="http://www.w3.org/2000/svg" xmlns:xlink="http://www.w3.org/1999/xlink" x="0px" y="0px"
	 viewBox="0 0 185 211" style="enable-background:new 0 0 185 211;" xml:space="preserve">
<style type="text/css">
	.st0{fill:#BECDD4;}
	.st1{fill:#C99A6B;}
	.st2{fill:#87623F;}
	.st3{fill:#AE835B;}
	.st4{fill:#E8B687;}
	.st5{fill:#D9AF84;}
	.st6{fill:#EBCBAB;}
	.st7{fill:#9C754E;}
	.st8{fill:#54493E;}
	.st9{fill:#D1A986;}
	.st10{fill-rule:evenodd;clip-rule:evenodd;fill:#87623F;}
	.st11{fill:#FFF8E6;}
	.st12{fill-rule:evenodd;clip-rule:evenodd;fill:#FF4C4A;}
	.st13{fill:#AB9589;}
	.st14{fill-rule:evenodd;clip-rule:evenodd;fill:#FF7270;}
	.st15{fill:#FDD249;}
	.st16{fill:#FFFFFF;}
	.st17{fill:#FFEF86;}
</style>
<g>
	<g>
		<path class="st0" d="M53.6,182.4L0.7,151.9l52.8-30.5l34.5,61H53.6z"/>
		<path class="st1" d="M88.1,182.4l52.8-30.5V91.2l-52.8,30.5V182.4z"/>
		<path class="st2" d="M140.9,91.2l-52.8,30.5l28.5-15.2L140.9,91.2z"/>
		<path class="st3" d="M88.1,182.4l-52.8-30.5V91.2l52.8,30.5V182.4z"/>
		<path class="st4" d="M88.1,121.8L35.2,91.2l52.8-30.5l52.8,30.5L88.1,121.8z"/>
		<path class="st5" d="M111.9,132l8.5-4.9v-24l-8.5,4.9V132z"/>
		<path class="st6" d="M111.9,108L59.1,77.5l8.5-4.9l52.8,30.5L111.9,108z"/>
		<path class="st2" d="M35.2,91.2l52.8,30.5l-28.5-15.2L35.2,91.2z"/>
		<path class="st7" d="M65.2,132.5l-8.5-4.9v-24l8.5,4.9V132.5z"/>
		<path class="st8" d="M65.2,108.5L118,78l-8.5-4.9l-52.8,30.5L65.2,108.5z"/>
		<path class="st9" d="M61.2,106.3l52.8-30.5l-0.6-0.3l-52.9,30.5L61.2,106.3z"/>
		<path class="st3" d="M65.2,108.5v1l-5.2-2.8l-3.3-2.1v-1L65.2,108.5z M116.6,106.5l-4.7,2.5v-1l8.5-4.9v1L116.6,106.5z"/>
		<path class="st10" d="M84.9,135.9l-11.2-6.4v-12.8l11.2,6.4V135.9z M74.4,129l9.7,5.6v-11.1l-9.7-5.6V129z M80.5,131.8l-2.5-1.4
			v-5.2l-2.4-1.4l3.7-2.3l3.6,6.5l-2.4-1.4V131.8z"/>
		<path class="st11" d="M117,143.4v17.2l22.7-13.1v-17.2L117,143.4z"/>
		<path class="st12" d="M182.9,119.4l-3,2.1c-0.3,0.6-0.8,1.2-1.4,1.6l-5.2,3l-9.8,6.8c-1.9,17.6-13.1,36.7-27.5,47l-1,11.9v11.7
			c0,1.2-0.5,2.2-1.3,2.9l-0.3,3.4l-4.7-3v-0.1c-1-0.7-1.8-1.9-1.8-3.3V185c-3.5,1.4-6.9,2.2-10.2,2.2c-3.5,0-6.8-0.8-9.8-2.5
			c-4.5-2.6-7.7-7-9.3-12.7l-9.8,6.8l-4.8-3v0c-0.4-0.3-0.8-0.7-1.1-1.2c-1-1.8-0.4-4.1,1.4-5.1l13-7.5
			c0.1-19.9,13.4-43.3,30.6-53.9V88.9c0-2.2,1.8-4,4-4c0.5,0,1,0.1,1.4,0.3v0l0.1,0c0.4,0.1,0.6,0.4,0.9,0.6l4,2.5l-1.4,15.5
			c6.3-1.9,12.3-1.5,17.2,1.3c5.8,3.4,9.4,9.7,10.4,17.9l11.2-6.5c1.2-0.7,2.6-0.6,3.7,0l0.1,0L182.9,119.4z M155.8,127.6
			c0-7.5-2.4-13-6.6-15.4c-0.6-0.3-1.2-0.5-1.9-0.8c-1.2-0.4-2.4-0.7-3.8-0.7c-0.9,0-1.7,0.1-2.6,0.2c-1.8,0.3-3.7,0.9-5.7,1.8
			c0,0-0.1,0-0.1,0.1v14.6c0,0.6-0.2,1.2-0.4,1.7l1.4,0.8l-2.7,3.8l-4.2-2.7l0,0c-1.3-0.7-2.2-2-2.2-3.6v-9.6
			c-4.5,3.6-8.5,8.1-12,13.2c-1.3,2-2.5,4-3.7,6.1l0,0c-2.9,5.4-5,11.1-6,16.7l0,0c0,0.1,0,0.1,0,0.2c-0.2,1-0.3,2-0.5,3l8.3-4.8
			c1.1-0.6,2.3-0.6,3.4-0.1l0.1-0.1l4.9,3.2l-3.5,3.9l-1-0.5c0,0-0.1,0.1-0.1,0.1l-12.2,7.1c0.1,0.4,0.1,0.8,0.2,1.1
			c0.2,1.2,0.5,2.3,0.8,3.4c0,0.1,0.1,0.2,0.1,0.4c0.3,1,0.8,1.9,1.2,2.8c0,0,0,0,0,0c0.5,0.8,1,1.5,1.6,2.2
			c0.1,0.1,0.3,0.3,0.4,0.4c0.6,0.6,1.3,1.2,2,1.6c1.1,0.6,2.3,1.1,3.6,1.3c0.6,0.1,1.3,0.2,2,0.2c3.1,0,6.6-1,10.4-2.9v-11
			c0-2.2,1.8-4,4-4c0.8,0,1.5,0.3,2.1,0.7l0,0l4.5,2.9l-2.6,5.3v0.5c0.7-0.6,1.4-1.2,2-1.9c2.7-2.6,5.2-5.6,7.4-8.8
			c0.1-0.1,0.1-0.2,0.2-0.3c2.2-3.1,4.1-6.4,5.7-9.8c0.1-0.2,0.2-0.4,0.3-0.6c0.8-1.6,1.4-3.3,2.1-5c0.1-0.2,0.1-0.4,0.2-0.6
			c0.5-1.5,1-3.1,1.4-4.6c0.1-0.2,0.1-0.4,0.2-0.6c0.1-0.5,0.2-1,0.3-1.4l-3.2,1.8l0.2,0.1l-2.6,4.1l-4.3-2.8l0,0
			c-0.4-0.3-0.9-0.7-1.1-1.2c-1-1.8-0.4-4.1,1.4-5.1L155.8,127.6z"/>
		<path class="st13" d="M120.9,156.1l-1.8,1v-12.8l1.8-1.1V156.1z M134.1,148.5l-1.8,1v-12.8l1.8-1V148.5z M122.9,154.9l-1.1,0.6
			v-12.8l1.1-0.6V154.9z M131.6,150l-1.1,0.6v-12.8l1.1-0.6V150z M124.6,154l-0.8,0.5v-12.8l0.8-0.5V154z M126.4,153l-0.8,0.5v-12.8
			l0.8-0.5V153z M135.7,147.6l-0.8,0.4v-12.8l0.8-0.4V147.6z M137.5,146.5l-1.3,0.8v-12.8l1.3-0.8V146.5z M127.7,152.2l-0.8,0.4
			v-12.8l0.8-0.4V152.2z M129.7,151.1l-1.4,0.8V139l1.4-0.8V151.1z"/>
		<path class="st14" d="M120.7,189.7c-3.5,0-6.8-0.8-9.8-2.5c-5-2.9-8.4-7.9-9.8-14.5l-10.1,5.8c-1.8,1-4.1,0.4-5.1-1.4
			c-1-1.8-0.4-4.1,1.4-5.1l13-7.5c0.1-20,13.4-43.3,30.6-53.9v-19c0-2.2,1.8-4,4.1-4c2.2,0,4,1.8,4,4v15.2c6.7-2.3,13-1.9,18.2,1.1
			c5.8,3.4,9.4,9.6,10.4,17.9l11.2-6.5c1.8-1,4.1-0.4,5.1,1.4c1,1.8,0.4,4.1-1.4,5.1l-14.9,8.6c-1.5,18.4-13.4,38.7-28.7,49v22.9
			c0,2.2-1.8,4-4,4c-2.2,0-4.1-1.8-4.1-4v-18.5C127.4,189,123.9,189.7,120.7,189.7z M147.4,113.3c-2.6,0-5.4,0.7-8.4,2.1V130
			c0,2.2-1.8,4-4,4c-2.2,0-4.1-1.8-4.1-4v-9.6c-11.4,9.1-20.4,24.9-22.2,39.2l8.4-4.8c1.8-1,4.1-0.4,5.1,1.4c1,1.8,0.4,4.1-1.4,5.1
			l-12.2,7.1c0.7,5.6,2.9,9.8,6.4,11.8c4.1,2.3,9.7,1.8,15.9-1.5v-11.1c0-2.2,1.8-4,4.1-4c2.2,0,4,1.8,4,4v5.4
			c9.6-8.3,17.1-21.3,19.8-33.7l-6,3.4c-1.8,1-4.1,0.4-5.1-1.4c-1-1.8-0.4-4.1,1.4-5.1l10.7-6.2c0-7.5-2.4-13-6.6-15.4
			C151.5,113.8,149.5,113.3,147.4,113.3z"/>
		<path class="st15" d="M99.3,0.8L99.3,0.8c-3.6-1.5-8.2-1-13.3,2C74.7,9.3,65.6,25,65.6,38C65.6,55.5,86,75.6,86,75.6l7,3.6
			l13.5-74.7L99.3,0.8z M93,6.4c11.3-6.5,20.4-1.3,20.4,11.6c0,17.6-20.4,61.1-20.4,61.1s-20.4-20-20.4-37.6
			C72.6,28.7,81.7,12.9,93,6.4z"/>
		<path class="st16" d="M81.2,36.7c0,7.5,5.3,10.5,11.8,6.7c6.5-3.8,11.8-12.9,11.8-20.4c0-7.5-5.3-10.5-11.8-6.7
			C86.5,20,81.2,29.2,81.2,36.7z"/>
		<path class="st17" d="M73.2,42.2c0-12.8,9-28.3,20.2-34.8c9.7-5.6,17.8-2.4,19.7,7c-1.6-10.2-10-13.9-20.1-8
			c-11.3,6.5-20.4,22.2-20.4,35.2C72.6,59.2,93,79.2,93,79.2s0,0,0.1-0.1C90.5,76.6,73.2,58.4,73.2,42.2z"/>
	</g>
</g>
</svg>
