<?xml version="1.0" encoding="utf-8"?>
<!-- Generator: Adobe Illustrator 23.0.4, SVG Export Plug-In . SVG Version: 6.00 Build 0)  -->
<svg version="1.1" id="Слой_1" xmlns="http://www.w3.org/2000/svg" xmlns:xlink="http://www.w3.org/1999/xlink" x="0px" y="0px"
	 viewBox="0 0 80 102" style="enable-background:new 0 0 80 102;" xml:space="preserve">
<style type="text/css">
	.st0{fill:#919191;}
	.st1{fill:#2C2C2C;}
	.st2{fill:#4A4A4A;}
	.st3{fill:#FF645E;}
	.st4{fill:#919493;}
	.st5{fill:#D60000;}
	.st6{fill-rule:evenodd;clip-rule:evenodd;fill:#FFFFFF;}
	.st7{fill:#E7ECEB;}
	.st8{fill:#F1001E;}
	.st9{fill-rule:evenodd;clip-rule:evenodd;fill:#454545;}
	.st10{fill:#8A8A8A;}
	.st11{fill-rule:evenodd;clip-rule:evenodd;fill:#F1001E;}
	.st12{fill:#454545;}
	.st13{fill:#BFC9C8;}
	.st14{fill:#94B0C4;}
	.st15{fill-rule:evenodd;clip-rule:evenodd;fill:url(#SVGID_1_);}
	.st16{fill-rule:evenodd;clip-rule:evenodd;fill:#797979;}
	.st17{fill:#A8A8A8;}
	.st18{fill-rule:evenodd;clip-rule:evenodd;fill:url(#SVGID_2_);}
	.st19{fill-rule:evenodd;clip-rule:evenodd;fill:url(#SVGID_3_);}
	.st20{fill-rule:evenodd;clip-rule:evenodd;fill:url(#SVGID_4_);}
	.st21{fill-rule:evenodd;clip-rule:evenodd;fill:url(#SVGID_5_);}
	.st22{fill:#920000;}
	.st23{fill:#C9974B;}
	.st24{fill:#AB7835;}
	.st25{fill:#EBC26C;}
	.st26{fill:#B3B3B3;}
	.st27{fill:#D6D6D6;}
	.st28{fill:url(#SVGID_6_);}
	.st29{fill:#595959;}
	.st30{fill:#C5C5C5;}
	.st31{fill-rule:evenodd;clip-rule:evenodd;fill:#747474;}
	.st32{fill:#60940E;}
</style>
<g>
	<g>
		<path class="st0" d="M53.1,19.7c0,0,2-0.7,2.4-1.7c0.4-1-0.4-2.7,0-4.4c0.3-1.7,0.9-2.8,1.7-4.3C58,7.7,58.5,6.7,57.9,7
			c-0.7,0.3-2.7,1.4-2-0.3C56.5,4.9,59,2.9,61,1.8s4.3-1.6,4.2-0.7c0,1-1.2,2.3-1.9,2.7c-0.7,0.4-2.1,1.2-2.1,1.8
			c0,0.5,0.4,2.7-0.1,4.6c-0.6,1.9-1.8,3.9-2.3,5.1c-0.5,1.1-0.5,1.6,0.9,0.8c1.3-0.8,1.2-0.1,1.2-0.1L60,16.3c0,0-2.3,1.5-2.3,0.6
			c0-1,0.5-1.6,1.3-3c0.7-1.4,2-3.7,1.9-5.3c-0.1-1.6-0.6-2.4,0.2-3.5s2.2-1.3,2.9-2.2c0.7-0.9,1-1.4,0.5-1.7c-0.4-0.3-1-0.4-3.5,1
			c-2.6,1.4-4.2,3.2-4.6,3.9c-0.4,0.8-0.3,1.4,0.9,0.8s2.1-1.1,1.1,0.8c-1,1.9-2.6,4.6-2.4,6.3c0.2,1.7,0.5,2.7,0,3.7
			s-0.9,1.4-2.7,2.3C51.5,20.9,53.1,19.7,53.1,19.7z"/>
		<path class="st1" d="M60.9,17l-9.3,5.3l1.4-8.8c-0.1-0.3,0.1-0.8,0.4-0.9L66,5.5c0.3-0.2,0.5,0.1,0.4,0.4L60.9,17z"/>
		<path class="st2" d="M62,18l-9.3,5.3l1.4-8.8c-0.1-0.3,0.1-0.7,0.4-0.9l12.6-7.2c0.3-0.2,0.5,0.1,0.4,0.4L62,18z"/>
		<path class="st3" d="M40.6,20.7l-36.3,21l-3.6-2.1l36.3-21L40.6,20.7z"/>
		<path class="st4" d="M4.2,101.1L0.6,99V57.2l3.6,2.1V101.1z"/>
		<path class="st5" d="M40.6,38.3l-36.3,21V41.8l36.3-21V38.3z"/>
		<path class="st6" d="M10.6,51.2c0,1.4-0.6,2.6-1.5,3.1c-0.6,0.4-1.1,0.3-1.6-0.2l0.5-1.4C8.4,53,8.8,53,9,52.9
			c0.3-0.2,0.5-0.5,0.5-1.1l-0.1-3.1l-1.5,0.9l0-1.4l2.7-1.5L10.6,51.2z M12.3,51.1L12,52.5l-1.2,0.7l1.8-7.8l1.2-0.7l2,5.6L14.6,51
			l-0.3-1L12.3,51.1z M13.2,46.8l-0.6,2.8l1.3-0.8L13.2,46.8z M19.3,48.3l-2.1-2.9l0.1,4.1l-1.1,0.6l-0.1-6.7l1-0.6l2.1,2.9
			l-0.1-4.1l1.1-0.6l0.1,6.7L19.3,48.3z M25.1,42.1c0,1.8-0.7,3.3-2,4s-2.1,0.1-2.1-1.7L21,40.6l1.1-0.7l0.1,3.9
			c0,0.9,0.4,1.2,0.9,0.9c0.5-0.3,0.9-1.1,0.9-2l-0.1-3.8l1.1-0.7L25.1,42.1z M26.8,42.7l-0.3,1.4l-1.2,0.7l1.8-7.8l1.2-0.7l2,5.6
			l-1.2,0.7l-0.3-1L26.8,42.7z M27.7,38.4l-0.6,2.8l1.3-0.7L27.7,38.4z M32.7,38.6L32.7,38.6l-0.9,0.5l0,1.9l-1.1,0.7L30.6,35l2-1.2
			c1.2-0.7,1.8-0.2,1.9,1.2c0,1-0.3,1.9-0.8,2.6l1,1.6l-1.3,0.7L32.7,38.6z M32.6,37.3c0.5-0.3,0.8-0.8,0.8-1.5
			c0-0.7-0.3-0.9-0.8-0.6l-0.9,0.5l0,2.1L32.6,37.3z M37.5,37.7l-1.1,0.6l0-2.1l-1.7-3.6l1.1-0.7l1.1,2.3l1-3.5l1.1-0.7l-1.5,5.4
			L37.5,37.7z"/>
		<path class="st7" d="M40.6,80.1l-36.3,21V59.3l36.3-21V80.1z"/>
		<path class="st8" d="M20.7,68.3l-2.4,1.4c-0.7,0.4-1.6-0.1-1.6-0.9v-2.4c0-0.9,0.5-1.8,1.3-2.3l2.5-1.4c0.7-0.4,1.6,0.1,1.6,0.9
			V66C22.1,67,21.6,67.9,20.7,68.3z M14.1,58.2l0.9-1.3l0.5-0.3v2.7l0.5-0.3v0.5l-1.6,0.9v-0.5l0.5-0.3V58c0-0.1,0-0.2,0-0.2
			l-0.3,0.5c0,0-0.1,0.1-0.1,0.1c0,0-0.1,0-0.1,0c0,0,0,0-0.1,0c0,0,0,0,0,0L14.1,58.2z"/>
		<path class="st9" d="M14,65.8v-0.2c0,0,0-0.1,0-0.2c0-0.1,0-0.1,0.1-0.2l0.8-1.4c0.1-0.1,0.1-0.2,0.2-0.3c0-0.1,0.1-0.2,0.1-0.3
			c0-0.1,0.1-0.2,0.1-0.2c0-0.1,0-0.2,0-0.2c0-0.1,0-0.2-0.1-0.2c-0.1,0-0.1,0-0.2,0c-0.1,0-0.2,0.1-0.2,0.2
			c-0.1,0.1-0.1,0.2-0.1,0.3c0,0.1-0.1,0.2-0.1,0.2c-0.1,0.1-0.1,0.1-0.2,0.1l-0.3,0.1c0-0.2,0.1-0.3,0.1-0.5
			c0.1-0.1,0.1-0.3,0.2-0.4c0.1-0.1,0.2-0.2,0.3-0.4c0.1-0.1,0.2-0.2,0.4-0.3c0.1-0.1,0.3-0.1,0.4-0.1c0.1,0,0.2,0,0.3,0
			c0.1,0,0.1,0.1,0.2,0.2c0.1,0.1,0.1,0.2,0.1,0.3c0,0.1,0,0.2,0,0.3c0,0.1-0.1,0.2-0.1,0.4c-0.1,0.1-0.1,0.2-0.2,0.4
			c-0.1,0.1-0.1,0.2-0.2,0.4l-0.5,1c0.1-0.1,0.1-0.1,0.2-0.2c0.1-0.1,0.1-0.1,0.2-0.1l0.5-0.3c0.1,0,0.1,0,0.1,0
			c0,0,0.1,0.1,0.1,0.1v0.4L14,65.8z M14,70.3l0.3-0.3c0.1-0.1,0.1-0.1,0.2-0.1c0.1,0,0.1,0,0.1,0c0.1,0.1,0.1,0.1,0.2,0.2
			c0.1,0,0.1,0,0.2-0.1c0.1,0,0.1-0.1,0.2-0.1c0.1,0,0.1-0.1,0.1-0.2c0-0.1,0.1-0.1,0.1-0.2c0-0.1,0-0.1,0-0.2c0-0.1,0-0.1,0-0.2
			c0-0.1,0-0.1-0.1-0.1c0,0-0.1,0-0.2,0c-0.1,0-0.2,0.1-0.3,0.2v-0.5c0.1-0.1,0.2-0.1,0.3-0.2c0.1-0.1,0.1-0.1,0.2-0.2
			s0.1-0.1,0.1-0.2c0-0.1,0-0.1,0-0.2c0-0.1,0-0.2-0.1-0.2s-0.1,0-0.2,0c-0.1,0-0.2,0.1-0.2,0.2c-0.1,0.1-0.1,0.2-0.1,0.3
			c0,0.1-0.1,0.2-0.1,0.2c0,0.1-0.1,0.1-0.2,0.1l-0.3,0.1c0-0.2,0.1-0.3,0.1-0.5c0.1-0.2,0.1-0.3,0.2-0.4c0.1-0.1,0.2-0.2,0.3-0.4
			c0.1-0.1,0.2-0.2,0.4-0.3c0.1-0.1,0.3-0.1,0.4-0.2c0.1,0,0.2,0,0.3,0c0.1,0,0.1,0.1,0.2,0.2c0,0.1,0.1,0.2,0.1,0.3
			c0,0.1,0,0.2,0,0.3c0,0.1,0,0.2-0.1,0.2c0,0.1-0.1,0.2-0.1,0.2c-0.1,0.1-0.1,0.1-0.2,0.2c0.3-0.1,0.5,0.1,0.5,0.4
			c0,0.2,0,0.3-0.1,0.5c-0.1,0.2-0.1,0.3-0.2,0.4s-0.2,0.3-0.3,0.4s-0.2,0.2-0.4,0.3c-0.1,0.1-0.2,0.1-0.4,0.2c-0.1,0-0.2,0-0.3,0
			c-0.1,0-0.1-0.1-0.2-0.1C14.1,70.5,14,70.4,14,70.3z M13.9,75.2l1.3-2.7l0.6-0.4V74l0.3-0.2v0.4c0,0,0,0.1,0,0.1
			c0,0,0,0.1-0.1,0.1l-0.2,0.1v0.7l-0.6,0.3v-0.7l-1.1,0.7c0,0-0.1,0-0.1,0c0,0-0.1,0-0.1-0.1L13.9,75.2z M14.5,74.8l0.7-0.4v-0.8
			c0,0,0-0.1,0-0.2c0-0.1,0-0.1,0-0.2L14.5,74.8z M14,81.2l0.2-0.4c0,0,0-0.1,0.1-0.1c0,0,0-0.1,0.1-0.1c0,0,0.1,0,0.1,0
			s0.1,0,0.1,0c0,0,0.1,0,0.1,0s0.1,0,0.2-0.1c0.1,0,0.2-0.1,0.2-0.2c0.1-0.1,0.1-0.1,0.1-0.2s0.1-0.1,0.1-0.2c0-0.1,0-0.2,0-0.2
			c0-0.2,0-0.2-0.1-0.3c-0.1,0-0.2,0-0.3,0.1c-0.1,0.1-0.2,0.2-0.4,0.3l-0.4,0.1l0.2-1.7l1.4-0.8v0.3c0,0,0,0.1,0,0.1
			c0,0.1,0,0.1-0.1,0.1c0,0-0.1,0.1-0.1,0.1c0,0-0.1,0.1-0.2,0.1l-0.7,0.4L14.8,79c0.1,0,0.1-0.1,0.1-0.1c0,0,0.1-0.1,0.1-0.1
			c0.1-0.1,0.3-0.1,0.4-0.2c0.1,0,0.2,0,0.3,0.1c0.1,0,0.1,0.1,0.2,0.2c0,0.1,0.1,0.2,0.1,0.3c0,0.2,0,0.3-0.1,0.5
			c0,0.2-0.1,0.3-0.2,0.5c-0.1,0.1-0.2,0.3-0.3,0.4c-0.1,0.1-0.3,0.2-0.4,0.3c-0.1,0.1-0.2,0.1-0.3,0.1c-0.1,0-0.1,0-0.2,0
			c-0.1,0-0.1,0-0.2,0C14.1,81.2,14.1,81.2,14,81.2z M14,85.7c0-0.3,0.1-0.7,0.3-1.1l0.6-1.3c0-0.1,0.1-0.1,0.1-0.2
			c0.1-0.1,0.1-0.1,0.2-0.2l0.5-0.3L15,84.1c0,0,0,0,0,0.1c0,0,0,0,0,0.1c0,0,0.1-0.1,0.1-0.1s0.1-0.1,0.2-0.1
			c0.1-0.1,0.2-0.1,0.3-0.1c0.1,0,0.2,0,0.3,0c0.1,0,0.1,0.1,0.2,0.2c0.1,0.1,0.1,0.2,0.1,0.4c0,0.1,0,0.3-0.1,0.5s-0.1,0.3-0.2,0.5
			s-0.2,0.3-0.3,0.4c-0.1,0.1-0.3,0.2-0.4,0.3c-0.2,0.1-0.3,0.1-0.4,0.2c-0.1,0-0.2,0-0.3-0.1s-0.1-0.1-0.2-0.2
			C14,86,14,85.8,14,85.7z M14.6,85.4c0,0.1,0,0.2,0,0.2c0,0,0,0.1,0.1,0.1c0,0,0.1,0,0.1,0c0.1,0,0.1,0,0.2-0.1
			c0.1,0,0.1-0.1,0.2-0.1c0.1-0.1,0.1-0.1,0.1-0.2s0.1-0.1,0.1-0.2c0-0.1,0-0.2,0-0.2c0-0.1,0-0.2,0-0.2c0-0.1-0.1-0.1-0.1-0.1
			c0,0-0.1,0-0.1,0c-0.1,0-0.1,0-0.2,0.1c-0.1,0-0.1,0.1-0.2,0.1c-0.1,0.1-0.1,0.1-0.1,0.2c0,0.1-0.1,0.1-0.1,0.2
			C14.6,85.3,14.6,85.3,14.6,85.4z"/>
		<path class="st8" d="M14.1,89.2v-0.4l2-1.1v0.3c0,0.1,0,0.1,0,0.2c0,0.1,0,0.1,0,0.2l-1,2.9c0,0.1-0.1,0.2-0.1,0.2
			c-0.1,0.1-0.1,0.1-0.2,0.2l-0.4,0.2l1-2.9c0-0.1,0.1-0.2,0.1-0.2c0-0.1,0.1-0.1,0.1-0.2l-1.2,0.7C14.2,89.3,14.1,89.3,14.1,89.2
			C14.1,89.3,14.1,89.3,14.1,89.2C14.1,89.3,14.1,89.3,14.1,89.2C14.1,89.3,14.1,89.2,14.1,89.2z M7.5,64.1l0.1-0.3
			c0,0,0-0.1,0.1-0.1c0,0,0.1-0.1,0.1-0.1c0,0,0.1,0,0.1,0c0,0,0,0,0.1,0c0,0,0.1,0,0.1,0c0,0,0.1,0,0.2-0.1c0.1,0,0.1-0.1,0.1-0.1
			c0,0,0.1-0.1,0.1-0.1c0,0,0-0.1,0.1-0.1c0,0,0,0,0-0.1c0,0,0-0.1,0-0.1c0,0-0.1,0-0.1,0c-0.1,0-0.1,0-0.2,0c-0.1,0-0.1,0-0.2,0
			c-0.1,0-0.1,0-0.2,0c0,0-0.1,0-0.2,0c0,0-0.1-0.1-0.1-0.1c0-0.1,0-0.1,0-0.2c0-0.1,0-0.2,0.1-0.3c0-0.1,0.1-0.2,0.1-0.3
			C7.9,62,7.9,61.9,8,61.8c0.1-0.1,0.2-0.2,0.4-0.2c0.1,0,0.1-0.1,0.2-0.1c0.1,0,0.1,0,0.2-0.1c0.1,0,0.1,0,0.2,0c0.1,0,0.1,0,0.1,0
			l-0.1,0.3c0,0,0,0.1-0.1,0.1c0,0,0,0-0.1,0.1c0,0-0.1,0-0.1,0c0,0-0.1,0-0.1,0c0,0-0.1,0-0.1,0c0,0-0.1,0-0.1,0.1
			c-0.1,0-0.1,0.1-0.2,0.1c0,0.1-0.1,0.1-0.1,0.2c0,0,0,0.1,0,0.1c0,0,0.1,0,0.1,0c0,0,0.1,0,0.1,0c0.1,0,0.1,0,0.2,0
			c0.1,0,0.1,0,0.2,0c0.1,0,0.1,0,0.1,0c0.1,0,0.1,0,0.1,0.1c0,0.1,0,0.1,0,0.2c0,0.1,0,0.2-0.1,0.3c0,0.1-0.1,0.2-0.2,0.3
			c-0.1,0.1-0.2,0.2-0.3,0.3c-0.1,0.1-0.2,0.2-0.4,0.3C8.2,64,8.1,64,8.1,64c-0.1,0-0.1,0-0.2,0.1c-0.1,0-0.1,0-0.2,0
			C7.6,64.1,7.6,64.1,7.5,64.1z"/>
		<path class="st10" d="M6.9,69.9v-2.3l0.4-0.2c0.1,0,0.1,0,0.1,0l0,0.1c0-0.1,0.1-0.1,0.1-0.2c0-0.1,0.1-0.1,0.1-0.2
			c0-0.1,0.1-0.1,0.1-0.1c0.1,0,0.1-0.1,0.2-0.1c0.1-0.1,0.2-0.1,0.3-0.1c0.1,0,0.1,0.1,0.2,0.2c0-0.1,0.1-0.2,0.1-0.2
			s0.1-0.2,0.2-0.2c0.1-0.1,0.1-0.1,0.2-0.2c0.1-0.1,0.1-0.1,0.2-0.1c0.1-0.1,0.2-0.1,0.3-0.1c0.1,0,0.2,0,0.2,0
			c0.1,0,0.1,0.1,0.1,0.2c0,0.1,0.1,0.2,0.1,0.3v1.4l-0.6,0.3v-1.4c0-0.2-0.1-0.3-0.3-0.2c-0.1,0-0.1,0.1-0.2,0.2
			c-0.1,0.1-0.1,0.2-0.1,0.3v1.4L8,69.2v-1.4c0-0.1,0-0.2-0.1-0.2c0,0-0.1,0-0.2,0c-0.1,0-0.1,0.1-0.2,0.1c0,0-0.1,0.1-0.1,0.2v1.6
			L6.9,69.9z M6.8,72.9l0.5-0.3c0,0,0.1,0,0.1,0c0,0,0,0,0.1,0.1l0.2,0.9c0,0.1,0,0.1,0.1,0.2c0,0.1,0,0.1,0,0.2
			c0-0.1,0-0.2,0.1-0.2c0-0.1,0-0.2,0.1-0.3l0.2-1.2c0,0,0-0.1,0.1-0.1c0,0,0.1-0.1,0.1-0.1l0.3-0.2c0,0,0.1,0,0.1,0
			c0,0,0.1,0,0.1,0l0.2,0.9c0,0.1,0,0.1,0.1,0.2c0,0.1,0,0.1,0.1,0.2c0-0.1,0-0.2,0-0.2c0-0.1,0-0.2,0.1-0.2l0.2-1.1
			c0,0,0-0.1,0.1-0.1c0,0,0.1-0.1,0.1-0.1l0.4-0.3l-0.6,2.6L8.8,74c0,0,0,0-0.1,0c0,0,0,0,0-0.1l-0.3-1c0,0,0-0.1,0-0.1
			c0,0,0-0.1,0-0.1c0,0.1,0,0.1,0,0.2c0,0,0,0.1,0,0.2L8,74.4c0,0.1-0.1,0.1-0.1,0.2l-0.5,0.3L6.8,72.9z M7.6,78v-0.3L8,77.5
			l0.1-0.6c0-0.1,0.1-0.1,0.1-0.2l0.3-0.2v0.7L9,76.9v0.5l-0.5,0.3v1.1c0,0.1,0,0.1,0,0.1c0,0,0.1,0,0.1,0c0,0,0,0,0,0c0,0,0,0,0,0
			c0,0,0,0,0,0s0,0,0,0c0,0,0,0,0,0s0,0,0,0l0.2,0.2c-0.1,0.1-0.2,0.2-0.2,0.3c-0.1,0.1-0.2,0.2-0.3,0.2c-0.1,0.1-0.2,0.1-0.2,0.1
			c-0.1,0-0.1,0-0.2,0c0,0-0.1-0.1-0.1-0.2c0-0.1,0-0.1,0-0.2V78l-0.2,0.1C7.7,78.1,7.7,78.1,7.6,78C7.7,78.1,7.6,78,7.6,78z
			 M6.6,83.9v-0.3l0.3-0.3L7,82.7c0-0.1,0.1-0.1,0.1-0.2l0.3-0.2V83l0.5-0.3v0.5l-0.5,0.3v1.1c0,0.1,0,0.1,0,0.1c0,0,0.1,0,0.1,0
			c0,0,0,0,0,0c0,0,0,0,0,0c0,0,0,0,0,0c0,0,0,0,0,0c0,0,0,0,0,0s0,0,0,0L8,84.8c-0.1,0.1-0.2,0.2-0.3,0.3c-0.1,0.1-0.2,0.2-0.3,0.2
			c-0.1,0.1-0.2,0.1-0.2,0.1c-0.1,0-0.1,0-0.2,0s-0.1-0.1-0.1-0.2c0-0.1,0-0.1,0-0.2v-1.2l-0.2,0.1C6.6,83.9,6.6,83.9,6.6,83.9
			C6.6,83.9,6.6,83.9,6.6,83.9z M8.2,84.8v-3.3l0.6-0.3v1.2c0.1-0.1,0.1-0.2,0.2-0.3c0.1-0.1,0.2-0.2,0.3-0.2
			c0.1-0.1,0.2-0.1,0.3-0.1c0.1,0,0.2,0,0.2,0c0.1,0.1,0.1,0.1,0.1,0.2c0,0.1,0,0.2,0,0.3v1.4l-0.6,0.3v-1.4c0-0.1,0-0.2-0.1-0.2
			c-0.1,0-0.1,0-0.2,0c-0.1,0-0.1,0.1-0.2,0.2c-0.1,0.1-0.1,0.1-0.2,0.2v1.6L8.2,84.8z M7.7,88.4v-0.3L8,87.9v-0.1
			c0-0.1,0-0.3,0.1-0.4c0-0.1,0.1-0.2,0.2-0.4c0.1-0.1,0.1-0.2,0.2-0.3c0.1-0.1,0.2-0.2,0.3-0.2c0,0,0.1-0.1,0.1-0.1
			c0,0,0.1,0,0.1,0l0,0.3c0,0,0,0,0,0.1c0,0,0,0,0,0.1c0,0,0,0-0.1,0c0,0,0,0-0.1,0c-0.1,0-0.1,0.1-0.1,0.1c0,0-0.1,0.1-0.1,0.1
			c0,0-0.1,0.1-0.1,0.2c0,0.1,0,0.1,0,0.2v0.1l0.5-0.3v0.5L8.6,88v1.8L8,90.2v-1.8l-0.1,0.1C7.8,88.5,7.8,88.5,7.7,88.4
			C7.7,88.4,7.7,88.4,7.7,88.4z"/>
		<path class="st11" d="M7.5,95.4l0.1-0.3c0,0,0-0.1,0.1-0.1c0,0,0.1,0,0.1-0.1c0,0,0.1,0,0.1,0c0,0,0,0,0.1,0c0,0,0.1,0,0.1,0
			c0,0,0.1,0,0.2-0.1c0.1,0,0.1,0,0.1-0.1c0,0,0.1-0.1,0.1-0.1c0,0,0-0.1,0.1-0.1c0,0,0-0.1,0-0.1c0,0,0-0.1,0-0.1c0,0-0.1,0-0.1,0
			c-0.1,0-0.1,0-0.2,0c-0.1,0-0.1,0-0.2,0c-0.1,0-0.1,0-0.2,0c0,0-0.1,0-0.2,0c0,0-0.1-0.1-0.1-0.1c0-0.1,0-0.1,0-0.2s0-0.2,0.1-0.3
			c0-0.1,0.1-0.2,0.1-0.3c0.1-0.1,0.2-0.2,0.2-0.3C8.1,93,8.3,93,8.4,92.9c0.1,0,0.1-0.1,0.2-0.1c0.1,0,0.1,0,0.2,0
			c0.1,0,0.1,0,0.2,0c0.1,0,0.1,0,0.1,0l-0.1,0.3c0,0,0,0.1-0.1,0.1c0,0,0,0-0.1,0.1c0,0-0.1,0-0.1,0c0,0-0.1,0-0.1,0
			c0,0-0.1,0-0.1,0c0,0-0.1,0-0.1,0.1c-0.1,0-0.1,0.1-0.2,0.2c0,0-0.1,0.1-0.1,0.2c0,0,0,0.1,0,0.1c0,0,0.1,0,0.1,0c0,0,0.1,0,0.1,0
			c0.1,0,0.1,0,0.2,0c0.1,0,0.1,0,0.2,0c0.1,0,0.1,0,0.1,0c0.1,0,0.1,0.1,0.1,0.1c0,0.1,0,0.1,0,0.2c0,0.1,0,0.2-0.1,0.3
			c0,0.1-0.1,0.2-0.2,0.3c-0.1,0.1-0.2,0.2-0.3,0.3c-0.1,0.1-0.2,0.2-0.4,0.3c-0.1,0-0.1,0.1-0.2,0.1c-0.1,0-0.1,0.1-0.2,0.1
			c-0.1,0-0.1,0-0.2,0C7.6,95.4,7.6,95.4,7.5,95.4z M18.2,57.3c0-0.1,0-0.2,0-0.2c0-0.1,0.1-0.2,0.1-0.3c0-0.1,0.1-0.2,0.1-0.3
			c0.1-0.1,0.1-0.2,0.2-0.2c-0.1,0-0.2,0-0.3-0.1c-0.1-0.1-0.1-0.2-0.1-0.4c0-0.1,0-0.2,0.1-0.4c0-0.1,0.1-0.3,0.2-0.4
			c0.1-0.1,0.2-0.2,0.3-0.4c0.1-0.1,0.2-0.2,0.4-0.3c0.1-0.1,0.2-0.1,0.4-0.1c0.1,0,0.2,0,0.3,0s0.1,0.1,0.2,0.2
			c0,0.1,0.1,0.2,0.1,0.3c0,0.2,0,0.3-0.1,0.5c-0.1,0.1-0.2,0.3-0.3,0.4c0.1,0,0.2,0,0.2,0c0.1,0,0.1,0,0.1,0.1c0,0,0.1,0.1,0.1,0.2
			c0,0.1,0,0.2,0,0.2c0,0.1,0,0.3-0.1,0.4c-0.1,0.1-0.1,0.3-0.2,0.4c-0.1,0.1-0.2,0.3-0.3,0.4c-0.1,0.1-0.3,0.2-0.4,0.3
			c-0.1,0.1-0.3,0.1-0.4,0.2c-0.1,0-0.2,0-0.3,0c-0.1,0-0.1-0.1-0.2-0.2C18.2,57.5,18.2,57.4,18.2,57.3z M18.8,56.9
			c0,0.1,0,0.1,0,0.2c0,0,0,0.1,0.1,0.1c0,0,0.1,0,0.1,0c0,0,0.1,0,0.2-0.1c0.1,0,0.1-0.1,0.2-0.1c0,0,0.1-0.1,0.1-0.2
			c0-0.1,0.1-0.1,0.1-0.2c0-0.1,0-0.1,0-0.2c0-0.1,0-0.1,0-0.2c0,0,0-0.1-0.1-0.1c0,0-0.1,0-0.1,0c-0.1,0-0.1,0-0.2,0.1
			c-0.1,0-0.1,0.1-0.2,0.1c0,0.1-0.1,0.1-0.1,0.2c0,0.1,0,0.1-0.1,0.2C18.8,56.8,18.8,56.8,18.8,56.9z M18.9,55.5c0,0.1,0,0.1,0,0.2
			c0,0,0,0.1,0,0.1c0,0,0.1,0,0.1,0c0,0,0.1,0,0.2-0.1c0.1,0,0.1-0.1,0.2-0.1c0-0.1,0.1-0.1,0.1-0.2c0,0,0-0.1,0-0.2
			c0-0.1,0-0.1,0-0.2s0-0.1,0-0.1c0,0,0-0.1,0-0.1c0,0-0.1,0-0.1,0c0,0-0.1,0-0.1,0c-0.1,0-0.1,0.1-0.1,0.1c0,0.1-0.1,0.1-0.1,0.2
			c0,0,0,0.1-0.1,0.2C18.9,55.4,18.9,55.4,18.9,55.5z"/>
		<path class="st9" d="M18.2,61.3c0-0.1,0-0.3,0.1-0.4c0-0.2,0.1-0.3,0.2-0.5c0.1-0.2,0.2-0.3,0.3-0.4c0.1-0.1,0.3-0.2,0.4-0.3
			c0.2-0.1,0.3-0.1,0.4-0.2c0.1,0,0.2,0,0.3,0s0.2,0.1,0.2,0.2c0.1,0.1,0.1,0.2,0.1,0.4c0,0.2,0,0.4-0.1,0.6
			c-0.1,0.2-0.1,0.4-0.2,0.6l-0.6,1.3c0,0-0.1,0.1-0.1,0.2c-0.1,0.1-0.1,0.1-0.2,0.1l-0.6,0.3l0.9-1.7c0,0,0-0.1,0-0.1
			c0,0,0-0.1,0.1-0.1c-0.1,0.1-0.1,0.1-0.2,0.2c-0.1,0.1-0.1,0.1-0.2,0.1c-0.1,0-0.2,0.1-0.3,0.1c-0.1,0-0.2,0-0.2,0
			c-0.1,0-0.1-0.1-0.2-0.2C18.2,61.5,18.2,61.4,18.2,61.3z M18.8,60.9c0,0.3,0.1,0.4,0.4,0.2c0.1-0.1,0.2-0.2,0.3-0.3
			c0.1-0.1,0.1-0.2,0.1-0.4c0-0.1,0-0.1,0-0.2c0,0-0.1-0.1-0.1-0.1c0,0-0.1,0-0.1,0c0,0-0.1,0-0.2,0.1c-0.1,0-0.1,0.1-0.2,0.1
			c-0.1,0-0.1,0.1-0.1,0.2c0,0.1-0.1,0.1-0.1,0.2C18.8,60.7,18.8,60.8,18.8,60.9z"/>
		<path class="st6" d="M17,66.8l1-1.6l0.6-0.3l0,3.8l-0.7,0.4l0-2.5c0-0.1,0-0.2,0-0.3l-0.4,0.6c0,0.1-0.1,0.1-0.1,0.1
			c0,0-0.1,0-0.1,0.1c0,0-0.1,0-0.1,0c0,0,0,0,0,0L17,66.8z M19,66.6c0-0.3,0-0.6,0.1-0.9c0.1-0.3,0.2-0.5,0.2-0.8
			c0.1-0.2,0.2-0.4,0.4-0.6c0.1-0.2,0.3-0.3,0.5-0.4s0.3-0.2,0.5-0.2s0.3,0,0.4,0.1c0.1,0.1,0.2,0.2,0.3,0.5
			c0.1,0.2,0.1,0.5,0.1,0.8c0,0.3,0,0.6-0.1,0.9c-0.1,0.3-0.1,0.5-0.3,0.8c-0.1,0.2-0.2,0.4-0.4,0.6c-0.1,0.2-0.3,0.3-0.5,0.4
			c-0.2,0.1-0.3,0.2-0.5,0.2c-0.2,0-0.3,0-0.4-0.1c-0.1-0.1-0.2-0.2-0.2-0.5C19.1,67.1,19,66.9,19,66.6z M19.8,66.1
			c0,0.3,0,0.5,0,0.6c0,0.2,0.1,0.2,0.1,0.3c0,0.1,0.1,0.1,0.2,0.1s0.1,0,0.2-0.1c0.1,0,0.1-0.1,0.2-0.2c0.1-0.1,0.1-0.2,0.2-0.3
			c0-0.1,0.1-0.3,0.1-0.5c0-0.2,0-0.4,0-0.7c0-0.3,0-0.5,0-0.6c0-0.2-0.1-0.3-0.1-0.3c-0.1-0.1-0.1-0.1-0.2-0.1
			c-0.1,0-0.1,0-0.2,0.1c-0.1,0-0.1,0.1-0.2,0.2S20,64.9,19.9,65c-0.1,0.1-0.1,0.3-0.1,0.5C19.8,65.7,19.8,65.9,19.8,66.1z"/>
		<path class="st12" d="M17.2,72.1l0.9-1.3l0.5-0.3v2.7l0.5-0.3v0.5l-1.6,0.9v-0.5l0.5-0.3v-1.6c0-0.1,0-0.2,0-0.2l-0.3,0.5
			c0,0-0.1,0.1-0.1,0.1c0,0-0.1,0-0.1,0.1c0,0,0,0-0.1,0c0,0,0,0,0,0L17.2,72.1z M19.4,70.8l0.9-1.3l0.5-0.3v2.7l0.5-0.3v0.5
			l-1.6,0.9v-0.5l0.5-0.3v-1.6c0-0.1,0-0.2,0-0.2l-0.3,0.5c0,0,0,0.1-0.1,0.1c0,0-0.1,0-0.1,0c0,0,0,0-0.1,0c0,0,0,0-0.1,0
			L19.4,70.8z M17.2,77.3L18,76l0.5-0.3v2.7l0.5-0.3v0.5l-1.6,0.9v-0.5l0.5-0.3v-1.6c0-0.1,0-0.2,0-0.2l-0.3,0.5
			c0,0-0.1,0.1-0.1,0.1c0,0-0.1,0-0.1,0c0,0,0,0-0.1,0c0,0,0,0,0,0L17.2,77.3z M19.3,78.5v-0.2c0,0,0-0.1,0-0.2c0,0,0.1-0.1,0.1-0.2
			l0.8-1.4c0.1-0.1,0.1-0.2,0.2-0.3c0.1-0.1,0.1-0.2,0.1-0.3c0-0.1,0.1-0.2,0.1-0.2c0-0.1,0-0.2,0-0.2c0-0.1,0-0.2-0.1-0.2
			c-0.1,0-0.1,0-0.2,0c-0.1,0-0.2,0.1-0.2,0.2c-0.1,0.1-0.1,0.2-0.1,0.3c0,0.1-0.1,0.2-0.1,0.2c0,0.1-0.1,0.1-0.2,0.1l-0.3,0.1
			c0-0.2,0-0.3,0.1-0.5c0.1-0.2,0.1-0.3,0.2-0.4c0.1-0.1,0.2-0.2,0.3-0.3c0.1-0.1,0.2-0.2,0.4-0.3c0.1-0.1,0.3-0.1,0.4-0.2
			c0.1,0,0.2,0,0.3,0c0.1,0,0.1,0.1,0.2,0.2c0,0.1,0.1,0.2,0.1,0.3c0,0.1,0,0.2,0,0.4c0,0.1-0.1,0.2-0.1,0.3c0,0.1-0.1,0.2-0.2,0.4
			c-0.1,0.1-0.1,0.2-0.2,0.4l-0.6,1c0.1-0.1,0.1-0.1,0.2-0.2c0.1-0.1,0.1-0.1,0.2-0.1l0.5-0.3c0.1,0,0.1,0,0.2,0
			c0,0,0.1,0.1,0.1,0.1v0.4L19.3,78.5z M17.2,82.6l0.9-1.3l0.5-0.3v2.7l0.5-0.3v0.5l-1.6,0.9v-0.5l0.5-0.3v-1.6c0-0.1,0-0.2,0-0.2
			l-0.3,0.5c0,0-0.1,0.1-0.1,0.1c0,0-0.1,0-0.1,0.1c0,0,0,0-0.1,0c0,0,0,0,0,0L17.2,82.6z M19.3,82.9l0.3-0.3
			c0.1-0.1,0.1-0.1,0.2-0.1c0.1,0,0.1,0,0.1,0c0,0.1,0.1,0.1,0.2,0.2c0.1,0,0.1,0,0.2-0.1c0.1,0,0.1-0.1,0.2-0.1
			c0-0.1,0.1-0.1,0.1-0.2c0-0.1,0.1-0.1,0.1-0.2c0-0.1,0-0.1,0-0.2c0-0.1,0-0.1,0-0.2c0,0,0-0.1-0.1-0.1c0,0-0.1,0-0.2,0
			c-0.1,0-0.2,0.1-0.3,0.2v-0.5c0.1-0.1,0.2-0.1,0.3-0.2c0.1-0.1,0.1-0.1,0.2-0.2c0-0.1,0.1-0.1,0.1-0.2c0-0.1,0-0.1,0-0.2
			c0-0.1,0-0.2-0.1-0.2c-0.1,0-0.1,0-0.2,0c-0.1,0.1-0.2,0.1-0.2,0.2C20,80.7,20,80.8,20,80.9c0,0.1-0.1,0.2-0.1,0.2
			c0,0-0.1,0.1-0.2,0.1l-0.3,0.1c0-0.2,0.1-0.3,0.1-0.5c0.1-0.2,0.1-0.3,0.2-0.4c0.1-0.1,0.2-0.2,0.3-0.3c0.1-0.1,0.2-0.2,0.4-0.3
			c0.1-0.1,0.3-0.1,0.4-0.1c0.1,0,0.2,0,0.3,0c0.1,0,0.1,0.1,0.2,0.2c0,0.1,0.1,0.2,0.1,0.3c0,0.1,0,0.2,0,0.3c0,0.1,0,0.2-0.1,0.2
			c0,0.1-0.1,0.1-0.1,0.2c0,0.1-0.1,0.1-0.2,0.2c0.3-0.1,0.5,0.1,0.5,0.4c0,0.2,0,0.3-0.1,0.5c0,0.2-0.1,0.3-0.2,0.4
			c-0.1,0.1-0.2,0.3-0.3,0.4c-0.1,0.1-0.2,0.2-0.4,0.3c-0.1,0.1-0.2,0.1-0.4,0.2s-0.2,0-0.3,0s-0.1-0.1-0.2-0.1
			C19.4,83.1,19.3,83,19.3,82.9z"/>
		<path class="st11" d="M17.2,87.8l0.9-1.3l0.5-0.3v2.7l0.5-0.3v0.5L17.4,90v-0.5l0.5-0.3v-1.6c0-0.1,0-0.2,0-0.2l-0.3,0.5
			c0,0-0.1,0.1-0.1,0.1c0,0-0.1,0-0.1,0c0,0,0,0-0.1,0c0,0,0,0,0,0L17.2,87.8z M19.2,87.8l1.3-2.7l0.6-0.4v1.9l0.3-0.2v0.4
			c0,0,0,0.1,0,0.1c0,0,0,0.1-0.1,0.1l-0.2,0.1v0.7l-0.6,0.3v-0.7l-1.1,0.6c0,0-0.1,0-0.1,0c0,0-0.1,0-0.1-0.1L19.2,87.8z
			 M19.8,87.4l0.7-0.4v-0.8c0-0.1,0-0.1,0-0.2c0-0.1,0-0.1,0-0.2L19.8,87.4z M22.9,53.2l0.9-1.3l0.5-0.3v2.7l0.5-0.3v0.5l-1.6,0.9
			V55l0.5-0.3V53c0-0.1,0-0.2,0-0.2l-0.3,0.5c0,0-0.1,0.1-0.1,0.1c0,0,0,0-0.1,0c0,0-0.1,0-0.1,0c0,0,0,0,0,0L22.9,53.2z M25,54
			l0.2-0.4c0,0,0-0.1,0.1-0.1c0,0,0-0.1,0.1-0.1c0,0,0.1,0,0.1,0c0,0,0.1,0,0.1,0c0,0,0.1,0,0.1,0c0.1,0,0.1,0,0.2-0.1
			c0.1,0,0.1-0.1,0.2-0.2c0.1-0.1,0.1-0.1,0.1-0.2c0-0.1,0.1-0.1,0.1-0.2c0-0.1,0-0.2,0-0.2c0-0.1,0-0.2-0.1-0.3
			c-0.1,0-0.2,0-0.3,0.1c-0.1,0.1-0.2,0.2-0.4,0.3l-0.4,0.1l0.2-1.7l1.4-0.8v0.3c0,0,0,0.1,0,0.1c0,0,0,0.1-0.1,0.1
			c0,0-0.1,0.1-0.1,0.1c0,0-0.1,0.1-0.2,0.1l-0.7,0.4l-0.1,0.6c0,0,0.1-0.1,0.1-0.1c0,0,0.1-0.1,0.1-0.1c0.1-0.1,0.3-0.1,0.4-0.1
			c0.1,0,0.2,0,0.3,0c0.1,0,0.1,0.1,0.2,0.2c0,0.1,0.1,0.2,0.1,0.4c0,0.2,0,0.3-0.1,0.5c-0.1,0.2-0.1,0.3-0.2,0.5
			c-0.1,0.1-0.2,0.3-0.3,0.4c-0.1,0.1-0.3,0.2-0.4,0.3c-0.1,0-0.2,0.1-0.3,0.1c-0.1,0-0.2,0-0.2,0c-0.1,0-0.1,0-0.2,0
			C25.1,54,25.1,54,25,54z"/>
		<path class="st9" d="M22.9,58.5l0.9-1.3l0.5-0.3v2.7l0.5-0.3v0.5l-1.6,0.9v-0.5l0.5-0.3v-1.6c0-0.1,0-0.2,0-0.2l-0.3,0.5
			c0,0-0.1,0.1-0.1,0.1c0,0,0,0-0.1,0c0,0-0.1,0-0.1,0c0,0,0,0,0,0L22.9,58.5z M25,58.5c0-0.3,0.1-0.7,0.3-1.1L26,56
			c0-0.1,0.1-0.1,0.1-0.2c0-0.1,0.1-0.1,0.2-0.2l0.5-0.3L26,57c0,0,0,0,0,0.1c0,0,0,0,0,0.1c0,0,0.1-0.1,0.1-0.1
			c0.1,0,0.1-0.1,0.1-0.1c0.1-0.1,0.2-0.1,0.3-0.1c0.1,0,0.2,0,0.3,0c0.1,0,0.1,0.1,0.2,0.2c0,0.1,0.1,0.2,0.1,0.4
			c0,0.2,0,0.3-0.1,0.5c-0.1,0.2-0.1,0.3-0.2,0.5c-0.1,0.1-0.2,0.3-0.3,0.4c-0.1,0.1-0.3,0.2-0.4,0.3c-0.1,0.1-0.3,0.1-0.4,0.2
			c-0.1,0-0.2,0-0.3,0c-0.1,0-0.2-0.1-0.2-0.2C25,58.8,25,58.6,25,58.5z M25.6,58.2c0,0.1,0,0.2,0,0.2c0,0.1,0,0.1,0.1,0.1
			c0,0,0.1,0,0.1,0c0,0,0.1,0,0.2-0.1c0.1,0,0.1-0.1,0.2-0.1c0.1,0,0.1-0.1,0.1-0.2c0-0.1,0.1-0.1,0.1-0.2c0-0.1,0-0.2,0-0.2
			c0-0.1,0-0.2,0-0.2c0,0,0-0.1-0.1-0.1c0,0-0.1,0-0.1,0c-0.1,0-0.1,0-0.2,0.1c0,0-0.1,0.1-0.2,0.1c0,0-0.1,0.1-0.1,0.2
			c0,0.1-0.1,0.1-0.1,0.2C25.6,58.1,25.6,58.2,25.6,58.2z M22.9,63.7l0.9-1.3l0.5-0.3v2.7l0.5-0.3V65l-1.6,0.9v-0.5l0.5-0.3v-1.6
			c0-0.1,0-0.2,0-0.2l-0.3,0.5c0,0-0.1,0.1-0.1,0.1c0,0,0,0-0.1,0c0,0-0.1,0-0.1,0c0,0,0,0,0,0L22.9,63.7z M25.1,62v-0.4l2-1.1v0.3
			c0,0.1,0,0.2,0,0.2c0,0.1,0,0.1,0,0.2L26,64c0,0.1-0.1,0.2-0.1,0.2c-0.1,0.1-0.1,0.1-0.2,0.2l-0.4,0.2l1-2.8
			c0-0.1,0.1-0.2,0.1-0.2c0-0.1,0.1-0.1,0.1-0.2l-1.2,0.7C25.2,62.1,25.2,62.1,25.1,62C25.1,62.1,25.1,62.1,25.1,62
			C25.1,62.1,25.1,62.1,25.1,62C25.1,62.1,25.1,62.1,25.1,62z M22.9,69l0.9-1.3l0.5-0.3v2.7l0.5-0.3v0.5l-1.6,0.9v-0.5l0.5-0.3v-1.6
			c0-0.1,0-0.2,0-0.2l-0.3,0.5c0,0-0.1,0.1-0.1,0.1c0,0,0,0-0.1,0c0,0-0.1,0-0.1,0c0,0,0,0,0,0L22.9,69z"/>
		<path class="st9" d="M25,69.2c0-0.1,0-0.2,0-0.3c0-0.1,0-0.2,0.1-0.3c0-0.1,0.1-0.2,0.2-0.2c0.1-0.1,0.1-0.2,0.2-0.2
			c-0.1,0-0.2,0-0.3-0.1c-0.1-0.1-0.1-0.2-0.1-0.4c0-0.1,0-0.2,0.1-0.4c0-0.1,0.1-0.3,0.2-0.4c0.1-0.1,0.2-0.2,0.3-0.3
			s0.2-0.2,0.4-0.3c0.1-0.1,0.2-0.1,0.4-0.1c0.1,0,0.2,0,0.3,0s0.1,0.1,0.2,0.2c0,0.1,0.1,0.2,0.1,0.3c0,0.2,0,0.3-0.1,0.5
			c-0.1,0.2-0.2,0.3-0.3,0.4c0.1,0,0.2,0,0.2,0c0.1,0,0.1,0,0.1,0.1c0,0,0.1,0.1,0.1,0.2c0,0.1,0,0.1,0,0.2c0,0.1,0,0.3-0.1,0.4
			c0,0.1-0.1,0.3-0.2,0.4c-0.1,0.1-0.2,0.3-0.3,0.4c-0.1,0.1-0.3,0.2-0.4,0.3c-0.1,0.1-0.3,0.1-0.4,0.2c-0.1,0-0.2,0-0.3,0
			c-0.1,0-0.2-0.1-0.2-0.2C25,69.5,25,69.4,25,69.2z M25.6,68.9c0,0.1,0,0.1,0,0.2c0,0,0,0.1,0.1,0.1c0,0,0.1,0,0.1,0
			c0,0,0.1,0,0.2-0.1c0.1,0,0.1-0.1,0.2-0.1c0-0.1,0.1-0.1,0.1-0.2c0-0.1,0.1-0.1,0.1-0.2c0-0.1,0-0.1,0-0.2c0-0.1,0-0.1,0-0.2
			c0-0.1,0-0.1-0.1-0.1c0,0-0.1,0-0.1,0c-0.1,0-0.1,0-0.2,0.1c-0.1,0-0.1,0.1-0.2,0.1c0,0-0.1,0.1-0.1,0.2c0,0.1,0,0.1-0.1,0.2
			C25.6,68.7,25.6,68.8,25.6,68.9z M25.7,67.4c0,0.1,0,0.1,0,0.2c0,0,0,0.1,0,0.1c0,0,0.1,0,0.1,0c0,0,0.1,0,0.2-0.1
			c0.1,0,0.1-0.1,0.2-0.1c0-0.1,0.1-0.1,0.1-0.2c0-0.1,0-0.1,0-0.2c0-0.1,0-0.1,0-0.2c0,0,0-0.1,0-0.1c0,0,0-0.1-0.1-0.1
			c0,0-0.1,0-0.1,0c0,0-0.1,0-0.1,0.1c-0.1,0-0.1,0.1-0.1,0.1c-0.1,0-0.1,0.1-0.1,0.1c0,0,0,0.1-0.1,0.2
			C25.7,67.3,25.7,67.4,25.7,67.4z M22.9,74.3l0.9-1.3l0.5-0.3v2.7l0.5-0.3v0.5l-1.6,0.9V76l0.5-0.3v-1.6c0-0.1,0-0.2,0-0.2
			l-0.3,0.5c0,0-0.1,0.1-0.1,0.1c0,0,0,0-0.1,0c0,0-0.1,0-0.1,0c0,0,0,0,0,0L22.9,74.3z"/>
		<path class="st9" d="M25,73.2c0-0.2,0-0.3,0.1-0.5c0-0.2,0.1-0.3,0.2-0.5c0.1-0.1,0.2-0.3,0.3-0.4c0.1-0.1,0.2-0.2,0.4-0.3
			c0.1-0.1,0.3-0.1,0.4-0.2c0.1,0,0.2,0,0.3,0c0.1,0.1,0.1,0.1,0.2,0.2c0,0.1,0.1,0.2,0.1,0.4c0,0.2,0,0.4-0.1,0.6
			c-0.1,0.2-0.1,0.4-0.2,0.6l-0.6,1.3c0,0.1-0.1,0.1-0.1,0.2c-0.1,0.1-0.1,0.1-0.2,0.1l-0.6,0.3l0.9-1.7c0,0,0-0.1,0-0.1
			c0,0,0-0.1,0-0.1c-0.1,0.1-0.1,0.1-0.2,0.2c-0.1,0.1-0.1,0.1-0.2,0.1c-0.1,0.1-0.2,0.1-0.3,0.1c-0.1,0-0.2,0-0.2,0
			c-0.1,0-0.1-0.1-0.2-0.2C25,73.5,25,73.4,25,73.2z M25.6,72.8c0,0.3,0.1,0.4,0.4,0.2c0.1-0.1,0.2-0.2,0.3-0.3
			c0.1-0.1,0.1-0.2,0.1-0.4c0-0.1,0-0.1,0-0.2c0,0,0-0.1-0.1-0.1c0,0-0.1,0-0.1,0c0,0-0.1,0-0.2,0.1c-0.1,0-0.1,0.1-0.2,0.1
			c0,0.1-0.1,0.1-0.1,0.2c0,0.1-0.1,0.1-0.1,0.2C25.6,72.7,25.6,72.8,25.6,72.8z M22.8,81.9v-0.2c0,0,0-0.1,0-0.2c0,0,0-0.1,0.1-0.2
			l0.8-1.4c0.1-0.1,0.1-0.2,0.2-0.3c0.1-0.1,0.1-0.2,0.1-0.3c0-0.1,0.1-0.2,0.1-0.2s0-0.2,0-0.2c0-0.1,0-0.2-0.1-0.2
			c-0.1,0-0.1,0-0.2,0c-0.1,0-0.2,0.1-0.2,0.2c-0.1,0.1-0.1,0.2-0.1,0.3c0,0.1-0.1,0.2-0.1,0.2c0,0.1-0.1,0.1-0.2,0.1l-0.3,0.1
			c0-0.2,0.1-0.3,0.1-0.5c0.1-0.2,0.1-0.3,0.2-0.4c0.1-0.1,0.2-0.2,0.3-0.3c0.1-0.1,0.2-0.2,0.4-0.3c0.1-0.1,0.3-0.1,0.4-0.1
			c0.1,0,0.2,0,0.3,0c0.1,0,0.1,0.1,0.2,0.2c0,0.1,0.1,0.2,0.1,0.3c0,0.1,0,0.2,0,0.3c0,0.1-0.1,0.2-0.1,0.4c0,0.1-0.1,0.2-0.2,0.4
			c-0.1,0.1-0.1,0.2-0.2,0.4l-0.5,1c0.1-0.1,0.1-0.1,0.2-0.2c0.1,0,0.1-0.1,0.2-0.1l0.5-0.3c0.1,0,0.1,0,0.1,0c0,0,0.1,0.1,0.1,0.1
			v0.4L22.8,81.9z"/>
		<path class="st9" d="M25,79c0-0.3,0-0.5,0.1-0.8c0.1-0.2,0.1-0.4,0.2-0.6c0.1-0.2,0.2-0.3,0.3-0.5c0.1-0.1,0.3-0.2,0.4-0.3
			c0.1-0.1,0.3-0.1,0.4-0.1c0.1,0,0.2,0,0.3,0.1c0.1,0.1,0.2,0.2,0.2,0.4c0.1,0.2,0.1,0.4,0.1,0.7c0,0.3,0,0.5-0.1,0.8
			c0,0.2-0.1,0.4-0.2,0.6c-0.1,0.2-0.2,0.3-0.3,0.5c-0.1,0.1-0.3,0.2-0.4,0.3c-0.1,0.1-0.3,0.1-0.4,0.1c-0.1,0-0.2,0-0.3-0.1
			c-0.1-0.1-0.2-0.2-0.2-0.4C25,79.5,25,79.3,25,79z M25.6,78.7c0,0.2,0,0.4,0,0.5c0,0.1,0.1,0.2,0.1,0.3c0,0,0.1,0.1,0.1,0.1
			c0,0,0.1,0,0.1,0c0,0,0.1-0.1,0.2-0.1c0-0.1,0.1-0.1,0.1-0.2c0-0.1,0.1-0.2,0.1-0.4c0-0.2,0-0.3,0-0.6c0-0.2,0-0.4,0-0.5
			c0-0.1-0.1-0.2-0.1-0.3c0-0.1-0.1-0.1-0.1-0.1s-0.1,0-0.2,0c-0.1,0-0.1,0.1-0.1,0.1c-0.1,0.1-0.1,0.1-0.1,0.2
			c0,0.1-0.1,0.2-0.1,0.4C25.6,78.3,25.6,78.5,25.6,78.7z"/>
		<path class="st8" d="M28.5,52.2V52c0,0,0-0.1,0-0.1c0-0.1,0-0.1,0.1-0.2l0.8-1.4c0.1-0.1,0.1-0.2,0.2-0.3c0.1-0.1,0.1-0.2,0.1-0.3
			s0.1-0.2,0.1-0.2c0-0.1,0-0.2,0-0.2c0-0.1,0-0.2-0.1-0.2c-0.1,0-0.1,0-0.2,0c-0.1,0.1-0.2,0.1-0.2,0.2c-0.1,0.1-0.1,0.2-0.1,0.3
			c0,0.1-0.1,0.2-0.1,0.2c0,0-0.1,0.1-0.2,0.1L28.6,50c0-0.2,0.1-0.3,0.1-0.5c0.1-0.2,0.1-0.3,0.2-0.4c0.1-0.1,0.2-0.2,0.3-0.3
			c0.1-0.1,0.2-0.2,0.4-0.3c0.1-0.1,0.3-0.1,0.4-0.1c0.1,0,0.2,0,0.3,0c0.1,0,0.1,0.1,0.2,0.2c0,0.1,0.1,0.2,0.1,0.3
			c0,0.1,0,0.2,0,0.3c0,0.1-0.1,0.2-0.1,0.4c0,0.1-0.1,0.2-0.2,0.4c-0.1,0.1-0.1,0.2-0.2,0.4l-0.6,1c0.1-0.1,0.1-0.1,0.2-0.2
			c0.1,0,0.1-0.1,0.2-0.1l0.5-0.3c0.1,0,0.1,0,0.2,0c0,0,0.1,0.1,0.1,0.1v0.4L28.5,52.2z M30.8,51v-0.2c0,0,0-0.1,0-0.2
			c0-0.1,0-0.1,0.1-0.2l0.8-1.4c0.1-0.1,0.1-0.2,0.2-0.3c0-0.1,0.1-0.2,0.1-0.3c0-0.1,0.1-0.2,0.1-0.3c0-0.1,0-0.2,0-0.2
			c0-0.1,0-0.2-0.1-0.2c0,0-0.1,0-0.2,0c-0.1,0.1-0.2,0.1-0.2,0.2c-0.1,0.1-0.1,0.2-0.1,0.3c0,0.1-0.1,0.2-0.1,0.2
			c0,0.1-0.1,0.1-0.2,0.1l-0.3,0.1c0-0.2,0.1-0.3,0.1-0.5c0.1-0.2,0.1-0.3,0.2-0.4c0.1-0.1,0.2-0.2,0.3-0.4c0.1-0.1,0.2-0.2,0.4-0.3
			c0.1-0.1,0.3-0.1,0.4-0.1c0.1,0,0.2,0,0.3,0c0.1,0,0.1,0.1,0.2,0.2c0,0.1,0.1,0.2,0.1,0.3c0,0.1,0,0.2,0,0.3
			c0,0.1-0.1,0.2-0.1,0.3c0,0.1-0.1,0.2-0.2,0.4c-0.1,0.1-0.1,0.2-0.2,0.4l-0.6,0.9c0.1-0.1,0.1-0.1,0.2-0.2
			c0.1-0.1,0.1-0.1,0.2-0.1l0.5-0.3c0.1,0,0.1,0,0.1,0c0,0,0.1,0.1,0.1,0.1v0.4L30.8,51z"/>
		<path class="st12" d="M28.5,57.5v-0.2c0,0,0-0.1,0-0.2c0,0,0-0.1,0.1-0.2l0.8-1.4c0.1-0.1,0.1-0.2,0.2-0.3
			c0.1-0.1,0.1-0.2,0.1-0.3s0.1-0.2,0.1-0.2c0-0.1,0-0.2,0-0.2c0-0.1,0-0.2-0.1-0.2c-0.1,0-0.1,0-0.2,0c-0.1,0-0.2,0.1-0.2,0.2
			c-0.1,0.1-0.1,0.2-0.1,0.3c0,0.1-0.1,0.2-0.1,0.2c0,0.1-0.1,0.1-0.2,0.1l-0.3,0.1c0-0.2,0.1-0.3,0.1-0.5c0.1-0.2,0.1-0.3,0.2-0.4
			c0.1-0.1,0.2-0.2,0.3-0.3c0.1-0.1,0.2-0.2,0.4-0.3c0.1-0.1,0.3-0.1,0.4-0.1c0.1,0,0.2,0,0.3,0c0.1,0,0.1,0.1,0.2,0.2
			c0,0.1,0.1,0.2,0.1,0.3c0,0.1,0,0.2,0,0.3c0,0.1-0.1,0.2-0.1,0.4c0,0.1-0.1,0.2-0.2,0.4c-0.1,0.1-0.1,0.2-0.2,0.4l-0.6,1
			c0.1-0.1,0.1-0.1,0.2-0.2c0.1,0,0.1-0.1,0.2-0.1l0.5-0.3c0.1,0,0.1,0,0.2,0c0,0,0.1,0.1,0.1,0.1v0.4L28.5,57.5z M30.7,55.4
			l0.3-0.3c0.1-0.1,0.1-0.1,0.2-0.1c0.1,0,0.1,0,0.1,0c0.1,0.1,0.1,0.1,0.2,0.2c0.1,0,0.1,0,0.2,0c0.1,0,0.1-0.1,0.2-0.1
			c0-0.1,0.1-0.1,0.1-0.2c0-0.1,0.1-0.1,0.1-0.2c0-0.1,0-0.1,0-0.2c0-0.1,0-0.1,0-0.2c0,0,0-0.1-0.1-0.1c0,0-0.1,0-0.2,0
			c-0.1,0-0.2,0.1-0.3,0.2v-0.5c0.1-0.1,0.2-0.1,0.3-0.2c0.1-0.1,0.1-0.1,0.2-0.2c0,0,0.1-0.1,0.1-0.2c0-0.1,0-0.1,0-0.2
			c0-0.1,0-0.2-0.1-0.2c0,0-0.1,0-0.2,0c-0.1,0-0.2,0.1-0.2,0.2c-0.1,0.1-0.1,0.2-0.1,0.3c0,0.1-0.1,0.2-0.1,0.2
			c0,0-0.1,0.1-0.2,0.1l-0.3,0.1c0-0.2,0.1-0.3,0.1-0.5c0-0.2,0.1-0.3,0.2-0.4c0.1-0.1,0.2-0.2,0.3-0.4c0.1-0.1,0.2-0.2,0.4-0.3
			c0.1-0.1,0.3-0.1,0.4-0.2c0.1,0,0.2,0,0.3,0c0.1,0,0.1,0.1,0.2,0.2c0,0.1,0,0.2,0,0.3c0,0.1,0,0.2,0,0.3c0,0.1,0,0.2-0.1,0.2
			c0,0.1-0.1,0.2-0.1,0.2s-0.1,0.1-0.2,0.2c0.3-0.1,0.5,0.1,0.5,0.4c0,0.2,0,0.3-0.1,0.5c0,0.1-0.1,0.3-0.2,0.4
			c-0.1,0.1-0.2,0.3-0.3,0.4c-0.1,0.1-0.2,0.2-0.4,0.3c-0.1,0.1-0.2,0.1-0.4,0.2c-0.1,0-0.2,0-0.3,0s-0.2-0.1-0.2-0.1
			C30.8,55.6,30.8,55.5,30.7,55.4z M28.5,62.7v-0.2c0,0,0-0.1,0-0.1c0-0.1,0-0.1,0.1-0.2l0.8-1.4c0.1-0.1,0.1-0.2,0.2-0.3
			c0.1-0.1,0.1-0.2,0.1-0.3s0.1-0.2,0.1-0.2c0-0.1,0-0.2,0-0.2c0-0.1,0-0.2-0.1-0.2c-0.1,0-0.1,0-0.2,0c-0.1,0-0.2,0.1-0.2,0.2
			c-0.1,0.1-0.1,0.2-0.1,0.3c0,0.1-0.1,0.2-0.1,0.2c0,0.1-0.1,0.1-0.2,0.1l-0.3,0.1c0-0.2,0.1-0.3,0.1-0.5c0.1-0.2,0.1-0.3,0.2-0.4
			c0.1-0.1,0.2-0.2,0.3-0.3c0.1-0.1,0.2-0.2,0.4-0.3c0.1-0.1,0.3-0.1,0.4-0.2c0.1,0,0.2,0,0.3,0c0.1,0,0.1,0.1,0.2,0.2
			c0,0.1,0.1,0.2,0.1,0.3c0,0.1,0,0.2,0,0.4c0,0.1-0.1,0.2-0.1,0.3c0,0.1-0.1,0.2-0.2,0.4c-0.1,0.1-0.1,0.2-0.2,0.4l-0.6,1
			c0.1-0.1,0.1-0.1,0.2-0.2c0.1,0,0.1-0.1,0.2-0.1l0.5-0.3c0.1,0,0.1-0.1,0.2,0c0,0,0.1,0.1,0.1,0.1v0.4L28.5,62.7z"/>
		<path class="st9" d="M30.6,60.3l1.3-2.7l0.6-0.4v1.9l0.3-0.2v0.4c0,0,0,0.1,0,0.1c0,0-0.1,0.1-0.1,0.1l-0.2,0.1v0.7L32,60.7V60
			l-1.1,0.7c0,0-0.1,0-0.1,0c0,0-0.1,0-0.1-0.1L30.6,60.3z M31.3,59.9l0.7-0.4v-0.8c0-0.1,0-0.1,0-0.2c0-0.1,0-0.1,0-0.2L31.3,59.9z
			 M28.5,67.9v-0.2c0,0,0-0.1,0-0.2c0,0,0-0.1,0.1-0.2l0.8-1.4c0.1-0.1,0.1-0.2,0.2-0.3c0.1-0.1,0.1-0.2,0.1-0.3
			c0-0.1,0.1-0.2,0.1-0.2c0-0.1,0-0.2,0-0.2c0-0.1,0-0.2-0.1-0.2c-0.1,0-0.1,0-0.2,0c-0.1,0.1-0.2,0.1-0.2,0.2
			c-0.1,0.1-0.1,0.2-0.1,0.3c0,0.1-0.1,0.2-0.1,0.2c0,0.1-0.1,0.1-0.2,0.1l-0.3,0.1c0-0.2,0.1-0.3,0.1-0.5c0.1-0.2,0.1-0.3,0.2-0.4
			c0.1-0.1,0.2-0.2,0.3-0.3c0.1-0.1,0.2-0.2,0.4-0.3c0.1-0.1,0.3-0.1,0.4-0.1c0.1,0,0.2,0,0.3,0c0.1,0,0.1,0.1,0.2,0.2
			c0,0.1,0.1,0.2,0.1,0.3c0,0.1,0,0.2,0,0.3c0,0.1-0.1,0.2-0.1,0.3c0,0.1-0.1,0.2-0.2,0.4c-0.1,0.1-0.1,0.2-0.2,0.4l-0.6,1
			c0.1-0.1,0.1-0.1,0.2-0.2c0.1-0.1,0.1-0.1,0.2-0.1l0.5-0.3c0.1,0,0.1,0,0.2,0c0,0,0.1,0.1,0.1,0.1v0.4L28.5,67.9z M30.8,66.3
			l0.2-0.4c0,0,0-0.1,0.1-0.1c0,0,0-0.1,0.1-0.1c0,0,0.1,0,0.1,0c0,0,0.1,0,0.1,0c0,0,0.1,0,0.1,0c0.1,0,0.1,0,0.2-0.1
			c0.1-0.1,0.1-0.1,0.2-0.2c0-0.1,0.1-0.1,0.1-0.2c0-0.1,0.1-0.2,0.1-0.2c0-0.1,0-0.1,0-0.2c0-0.2,0-0.2-0.1-0.3
			c-0.1,0-0.2,0-0.3,0.1c-0.1,0.1-0.2,0.2-0.4,0.3L30.9,65l0.2-1.7l1.4-0.8v0.3c0,0,0,0.1,0,0.1c0,0,0,0.1-0.1,0.1
			c0,0-0.1,0.1-0.1,0.1c0,0-0.1,0.1-0.2,0.1l-0.7,0.4l-0.1,0.6c0,0,0.1-0.1,0.1-0.1c0.1,0,0.1-0.1,0.1-0.1c0.1-0.1,0.3-0.1,0.4-0.2
			c0.1,0,0.2,0,0.3,0c0.1,0,0.1,0.1,0.2,0.2c0,0.1,0.1,0.2,0.1,0.4c0,0.2,0,0.3-0.1,0.5c-0.1,0.2-0.1,0.3-0.2,0.5
			c-0.1,0.2-0.2,0.3-0.3,0.4c-0.1,0.1-0.3,0.2-0.4,0.3c-0.1,0.1-0.2,0.1-0.3,0.1c-0.1,0-0.2,0-0.2,0c-0.1,0-0.1,0-0.2,0
			C30.9,66.3,30.8,66.3,30.8,66.3z M28.5,73.2v-0.2c0,0,0-0.1,0-0.2c0-0.1,0-0.1,0.1-0.2l0.8-1.4c0.1-0.1,0.1-0.2,0.2-0.3
			c0.1-0.1,0.1-0.2,0.1-0.3c0-0.1,0.1-0.2,0.1-0.2c0-0.1,0-0.2,0-0.2c0-0.1,0-0.2-0.1-0.2c-0.1,0-0.1,0-0.2,0
			c-0.1,0.1-0.2,0.1-0.2,0.2c-0.1,0.1-0.1,0.2-0.1,0.3c0,0.1-0.1,0.2-0.1,0.2c0,0.1-0.1,0.1-0.2,0.1l-0.3,0.1c0-0.2,0.1-0.3,0.1-0.5
			c0.1-0.2,0.1-0.3,0.2-0.4c0.1-0.1,0.2-0.2,0.3-0.3c0.1-0.1,0.2-0.2,0.4-0.3c0.1-0.1,0.3-0.1,0.4-0.2c0.1,0,0.2,0,0.3,0
			c0.1,0,0.1,0.1,0.2,0.2c0,0.1,0.1,0.2,0.1,0.3c0,0.1,0,0.2,0,0.3c0,0.1-0.1,0.2-0.1,0.3c0,0.1-0.1,0.2-0.2,0.4
			c-0.1,0.1-0.1,0.2-0.2,0.4l-0.6,0.9c0.1-0.1,0.1-0.1,0.2-0.2c0.1-0.1,0.1-0.1,0.2-0.1l0.5-0.3c0.1,0,0.1-0.1,0.2,0
			c0,0,0.1,0.1,0.1,0.1V72L28.5,73.2z"/>
		<path class="st9" d="M30.8,70.8c0-0.3,0.1-0.7,0.3-1.1l0.6-1.3c0-0.1,0.1-0.1,0.1-0.2C31.9,68.1,32,68,32,68l0.5-0.3l-0.8,1.6
			c0,0,0,0,0,0.1c0,0,0,0,0,0.1c0-0.1,0.1-0.1,0.1-0.1c0.1,0,0.1-0.1,0.2-0.1c0.1-0.1,0.2-0.1,0.3-0.1c0.1,0,0.2,0,0.3,0
			c0.1,0,0.1,0.1,0.2,0.2c0,0.1,0.1,0.2,0.1,0.4c0,0.1,0,0.3-0.1,0.5c0,0.2-0.1,0.3-0.2,0.5s-0.2,0.3-0.3,0.4
			c-0.1,0.1-0.3,0.2-0.4,0.3c-0.2,0.1-0.3,0.1-0.4,0.2c-0.1,0-0.2,0-0.3,0c-0.1-0.1-0.2-0.1-0.2-0.2C30.8,71.1,30.8,70.9,30.8,70.8z
			 M31.3,70.5c0,0.1,0,0.2,0,0.2c0,0.1,0,0.1,0.1,0.1c0,0,0.1,0,0.1,0c0.1,0,0.1,0,0.2-0.1c0.1,0,0.1-0.1,0.2-0.1
			c0-0.1,0.1-0.1,0.1-0.2c0-0.1,0.1-0.1,0.1-0.2c0-0.1,0-0.2,0-0.2c0-0.1,0-0.2,0-0.2c0-0.1,0-0.1-0.1-0.1c0,0-0.1,0-0.1,0
			c-0.1,0-0.1,0-0.2,0.1s-0.1,0.1-0.2,0.1c0,0.1-0.1,0.1-0.1,0.2c0,0.1-0.1,0.1-0.1,0.2C31.4,70.4,31.3,70.5,31.3,70.5z"/>
		<path class="st8" d="M22.8,86.9v-0.2c0,0,0-0.1,0-0.2c0-0.1,0-0.1,0.1-0.2l0.8-1.4c0.1-0.1,0.1-0.2,0.2-0.3
			c0.1-0.1,0.1-0.2,0.1-0.3c0-0.1,0.1-0.2,0.1-0.3c0-0.1,0-0.1,0-0.2c0-0.1,0-0.2-0.1-0.2c-0.1,0-0.1,0-0.2,0
			c-0.1,0-0.2,0.1-0.2,0.2c-0.1,0.1-0.1,0.2-0.1,0.3c0,0.1-0.1,0.2-0.1,0.2c0,0.1-0.1,0.1-0.2,0.1l-0.3,0.1c0-0.2,0.1-0.3,0.1-0.5
			c0.1-0.2,0.1-0.3,0.2-0.4c0.1-0.1,0.2-0.2,0.3-0.3c0.1-0.1,0.2-0.2,0.4-0.3c0.1-0.1,0.3-0.1,0.4-0.1c0.1,0,0.2,0,0.3,0
			c0.1,0,0.1,0.1,0.2,0.2c0,0.1,0.1,0.2,0.1,0.3c0,0.1,0,0.2,0,0.3c0,0.1-0.1,0.2-0.1,0.3c0,0.1-0.1,0.2-0.2,0.4
			c-0.1,0.1-0.1,0.2-0.2,0.4l-0.5,1c0.1-0.1,0.1-0.1,0.2-0.2c0.1-0.1,0.1-0.1,0.2-0.1l0.5-0.3c0.1,0,0.1,0,0.1,0
			c0,0,0.1,0.1,0.1,0.1v0.4L22.8,86.9z M25.1,83.2l0.9-1.3l0.5-0.3v2.7l0.5-0.3v0.5l-1.6,0.9v-0.5l0.5-0.3V83c0-0.1,0-0.2,0-0.2
			l-0.3,0.5c0,0-0.1,0.1-0.1,0.1c0,0,0,0-0.1,0.1c0,0,0,0-0.1,0s0,0,0,0L25.1,83.2z"/>
		<path class="st9" d="M34,49.1v-0.2c0,0,0-0.1,0-0.1c0-0.1,0-0.1,0.1-0.2l0.8-1.4c0.1-0.1,0.1-0.2,0.2-0.3c0-0.1,0.1-0.2,0.1-0.3
			c0-0.1,0-0.2,0.1-0.2c0-0.1,0-0.2,0-0.2c0-0.1,0-0.2-0.1-0.2c-0.1,0-0.1,0-0.2,0c-0.1,0-0.2,0.1-0.2,0.2s-0.1,0.2-0.1,0.3
			c0,0.1-0.1,0.2-0.1,0.2c0,0.1-0.1,0.1-0.2,0.1L34,46.8c0-0.2,0.1-0.3,0.1-0.5c0-0.2,0.1-0.3,0.2-0.4c0.1-0.1,0.2-0.2,0.3-0.3
			c0.1-0.1,0.2-0.2,0.4-0.3c0.1-0.1,0.3-0.1,0.4-0.2c0.1,0,0.2,0,0.3,0c0.1,0,0.1,0.1,0.2,0.2c0,0.1,0.1,0.2,0.1,0.3
			c0,0.1,0,0.2,0,0.4c0,0.1-0.1,0.2-0.1,0.3s-0.1,0.2-0.2,0.4c-0.1,0.1-0.1,0.2-0.2,0.4l-0.5,1c0.1-0.1,0.1-0.1,0.2-0.2
			c0.1,0,0.1-0.1,0.2-0.1l0.5-0.3c0.1,0,0.1,0,0.2,0c0,0,0.1,0.1,0.1,0.1V48L34,49.1z M36.2,45.7c0-0.2,0-0.3,0.1-0.5
			c0-0.2,0.1-0.3,0.2-0.5c0.1-0.1,0.2-0.3,0.3-0.4c0.1-0.1,0.3-0.2,0.4-0.3c0.2-0.1,0.3-0.1,0.4-0.2c0.1,0,0.2,0,0.3,0
			c0.1,0,0.2,0.1,0.2,0.2c0,0.1,0.1,0.2,0.1,0.4c0,0.2,0,0.4-0.1,0.6c-0.1,0.2-0.1,0.4-0.2,0.6l-0.6,1.3c0,0.1-0.1,0.1-0.1,0.2
			c0,0.1-0.1,0.1-0.2,0.1l-0.5,0.3l0.9-1.7c0,0,0-0.1,0.1-0.1c0,0,0-0.1,0-0.1c0,0.1-0.1,0.1-0.2,0.2c-0.1,0.1-0.1,0.1-0.2,0.1
			c-0.1,0.1-0.2,0.1-0.3,0.1c-0.1,0-0.2,0-0.2,0c-0.1,0-0.1-0.1-0.2-0.2C36.2,46,36.2,45.9,36.2,45.7z M36.8,45.3
			c0,0.3,0.1,0.4,0.4,0.2c0.1-0.1,0.2-0.2,0.3-0.3c0.1-0.1,0.1-0.2,0.1-0.4c0-0.1,0-0.1,0-0.2c0,0,0-0.1-0.1-0.1c0,0-0.1,0-0.1,0
			c0,0-0.1,0-0.2,0.1c-0.1,0-0.1,0.1-0.2,0.1s-0.1,0.1-0.1,0.2c0,0.1-0.1,0.1-0.1,0.2C36.8,45.2,36.8,45.2,36.8,45.3z M34,53.6
			l0.3-0.3c0.1-0.1,0.1-0.1,0.2-0.1c0.1,0,0.1,0,0.1,0c0.1,0.1,0.1,0.1,0.2,0.2c0.1,0,0.1,0,0.2-0.1c0.1,0,0.1-0.1,0.2-0.1
			c0-0.1,0.1-0.1,0.1-0.2c0-0.1,0-0.1,0.1-0.2c0-0.1,0-0.1,0-0.2c0-0.1,0-0.1,0-0.2c0,0,0-0.1-0.1-0.1c0,0-0.1,0-0.2,0
			c-0.1,0-0.2,0.1-0.3,0.2v-0.5c0.1-0.1,0.2-0.1,0.3-0.2c0.1-0.1,0.1-0.1,0.2-0.2c0-0.1,0.1-0.1,0.1-0.2c0-0.1,0-0.1,0-0.2
			c0-0.1,0-0.2-0.1-0.2c0,0-0.1,0-0.2,0c-0.1,0-0.2,0.1-0.2,0.2c-0.1,0.1-0.1,0.2-0.1,0.3c0,0.1-0.1,0.2-0.1,0.2
			c0,0-0.1,0.1-0.2,0.1L34,52.1c0-0.2,0.1-0.3,0.1-0.5c0.1-0.2,0.1-0.3,0.2-0.4s0.2-0.2,0.3-0.3c0.1-0.1,0.2-0.2,0.4-0.3
			c0.1-0.1,0.3-0.1,0.4-0.1c0.1,0,0.2,0,0.3,0c0.1,0,0.1,0.1,0.2,0.2c0,0.1,0.1,0.2,0.1,0.3c0,0.1,0,0.2,0,0.3c0,0.1,0,0.2-0.1,0.2
			c0,0.1-0.1,0.2-0.1,0.2c0,0.1-0.1,0.1-0.2,0.2c0.3,0,0.5,0.1,0.5,0.5c0,0.2,0,0.3-0.1,0.5c-0.1,0.2-0.1,0.3-0.2,0.4
			c-0.1,0.1-0.2,0.3-0.3,0.4c-0.1,0.1-0.2,0.2-0.4,0.3c-0.1,0.1-0.2,0.1-0.4,0.2c-0.1,0-0.2,0-0.3,0c-0.1,0-0.1-0.1-0.2-0.1
			C34.1,53.8,34,53.7,34,53.6z"/>
		<path class="st9" d="M36.2,51.5c0-0.3,0-0.5,0.1-0.8c0.1-0.2,0.1-0.5,0.2-0.6c0.1-0.2,0.2-0.3,0.3-0.5s0.3-0.2,0.4-0.3
			c0.2-0.1,0.3-0.1,0.4-0.1c0.1,0,0.2,0,0.3,0.1c0.1,0.1,0.2,0.2,0.2,0.4c0.1,0.2,0.1,0.4,0.1,0.7s0,0.5-0.1,0.8
			c0,0.2-0.1,0.4-0.2,0.6c-0.1,0.2-0.2,0.3-0.3,0.5c-0.1,0.1-0.3,0.2-0.4,0.3c-0.1,0.1-0.3,0.1-0.4,0.1c-0.1,0-0.2,0-0.3-0.1
			c-0.1-0.1-0.2-0.2-0.2-0.4C36.2,52,36.2,51.8,36.2,51.5z M36.8,51.2c0,0.2,0,0.4,0,0.5c0,0.1,0.1,0.2,0.1,0.3c0,0,0.1,0.1,0.1,0.1
			c0,0,0.1,0,0.1,0c0,0,0.1-0.1,0.2-0.1c0-0.1,0.1-0.1,0.1-0.2c0-0.1,0.1-0.2,0.1-0.4c0-0.1,0-0.3,0-0.6c0-0.2,0-0.4,0-0.5
			c0-0.1-0.1-0.2-0.1-0.3c0-0.1-0.1-0.1-0.1-0.1s-0.1,0-0.2,0c0,0-0.1,0.1-0.1,0.1C37,50,37,50.1,36.9,50.2c0,0.1-0.1,0.2-0.1,0.4
			C36.8,50.8,36.8,50.9,36.8,51.2z"/>
		<path class="st11" d="M28.7,83.4v-0.2c0,0,0-0.1,0-0.2c0-0.1,0-0.1,0.1-0.2l0.8-1.4c0.1-0.1,0.1-0.2,0.2-0.3
			c0.1-0.1,0.1-0.2,0.1-0.3c0-0.1,0.1-0.2,0.1-0.2c0-0.1,0-0.2,0-0.2c0-0.1,0-0.2-0.1-0.2c-0.1,0-0.1,0-0.2,0
			c-0.1,0-0.2,0.1-0.2,0.2c-0.1,0.1-0.1,0.2-0.1,0.3c0,0.1-0.1,0.2-0.1,0.2c0,0.1-0.1,0.1-0.2,0.1l-0.3,0.1c0-0.2,0.1-0.3,0.1-0.5
			c0.1-0.2,0.1-0.3,0.2-0.4c0.1-0.1,0.2-0.2,0.3-0.3c0.1-0.1,0.2-0.2,0.4-0.3c0.1-0.1,0.3-0.1,0.4-0.1c0.1,0,0.2,0,0.3,0
			c0.1,0,0.1,0.1,0.2,0.2c0,0.1,0.1,0.2,0.1,0.3c0,0.1,0,0.2,0,0.3c0,0.1-0.1,0.2-0.1,0.3c-0.1,0.1-0.1,0.2-0.2,0.4
			c-0.1,0.1-0.1,0.2-0.2,0.4l-0.5,1c0.1-0.1,0.1-0.1,0.2-0.2c0.1-0.1,0.1-0.1,0.2-0.1l0.5-0.3c0.1,0,0.1,0,0.2,0c0,0,0,0.1,0,0.1
			v0.4L28.7,83.4z M30.9,81.3c0-0.1,0-0.2,0-0.3c0-0.1,0-0.2,0.1-0.3c0-0.1,0.1-0.2,0.1-0.3c0.1-0.1,0.1-0.2,0.2-0.2
			c-0.1,0-0.2,0-0.3-0.1c-0.1-0.1-0.1-0.2-0.1-0.4c0-0.1,0-0.2,0.1-0.4c0-0.1,0.1-0.3,0.2-0.4c0.1-0.1,0.2-0.2,0.3-0.3
			c0.1-0.1,0.2-0.2,0.4-0.3c0.1-0.1,0.2-0.1,0.4-0.1c0.1,0,0.2,0,0.3,0c0.1,0,0.1,0.1,0.2,0.2c0,0.1,0.1,0.2,0.1,0.3
			c0,0.2,0,0.3-0.1,0.5c-0.1,0.2-0.2,0.3-0.3,0.4c0.1,0,0.2,0,0.2,0c0.1,0,0.1,0,0.2,0.1c0,0,0.1,0.1,0.1,0.2c0,0.1,0,0.2,0,0.2
			c0,0.1,0,0.3-0.1,0.4c0,0.1-0.1,0.3-0.2,0.4c-0.1,0.1-0.2,0.3-0.3,0.4c-0.1,0.1-0.3,0.2-0.4,0.3c-0.1,0.1-0.3,0.1-0.4,0.2
			c-0.1,0-0.2,0-0.3,0c-0.1,0-0.2-0.1-0.2-0.2C31,81.5,30.9,81.4,30.9,81.3z M31.5,80.9c0,0.1,0,0.1,0,0.2c0,0.1,0,0.1,0.1,0.1
			c0,0,0.1,0,0.1,0c0,0,0.1,0,0.2-0.1c0.1,0,0.1-0.1,0.2-0.1c0.1,0,0.1-0.1,0.1-0.2c0-0.1,0-0.1,0.1-0.2c0-0.1,0-0.1,0-0.2
			s0-0.1,0-0.2c0,0,0-0.1-0.1-0.1c0,0-0.1,0-0.1,0c0,0-0.1,0-0.2,0.1c-0.1,0.1-0.1,0.1-0.2,0.1c0,0.1-0.1,0.1-0.1,0.2
			c0,0.1-0.1,0.1-0.1,0.2C31.5,80.8,31.5,80.8,31.5,80.9z M31.6,79.4c0,0.1,0,0.1,0,0.2c0,0,0,0.1,0,0.1c0,0,0.1,0,0.1,0
			c0,0,0.1,0,0.2-0.1c0.1,0,0.1-0.1,0.2-0.1s0.1-0.1,0.1-0.2c0-0.1,0-0.1,0.1-0.2c0-0.1,0-0.1,0-0.2c0-0.1,0-0.1,0-0.1
			c0,0,0-0.1,0-0.1c0,0-0.1,0-0.1,0c0,0-0.1,0-0.2,0c-0.1,0-0.1,0.1-0.2,0.1c0,0.1-0.1,0.1-0.1,0.2c0,0,0,0.1,0,0.2
			C31.6,79.4,31.6,79.4,31.6,79.4z"/>
		<path class="st12" d="M31,74.3v-0.4l2-1.1V73c0,0.1,0,0.1,0,0.2c0,0.1,0,0.1,0,0.2l-1,2.9c0,0.1-0.1,0.2-0.1,0.2s-0.1,0.1-0.2,0.2
			l-0.4,0.2l1-2.9c0-0.1,0.1-0.2,0.1-0.2c0-0.1,0.1-0.1,0.1-0.2l-1.2,0.7C31.1,74.3,31,74.3,31,74.3C31,74.3,31,74.3,31,74.3
			C31,74.3,31,74.3,31,74.3C31,74.3,31,74.3,31,74.3z M28.7,78.2V78c0,0,0-0.1,0-0.1c0-0.1,0-0.1,0.1-0.2l0.8-1.4
			c0.1-0.1,0.1-0.2,0.2-0.3c0.1-0.1,0.1-0.2,0.1-0.3c0-0.1,0.1-0.2,0.1-0.2c0-0.1,0-0.2,0-0.2c0-0.1,0-0.2-0.1-0.2
			c-0.1,0-0.1,0-0.2,0c-0.1,0-0.2,0.1-0.2,0.2c-0.1,0.1-0.1,0.2-0.1,0.3c0,0.1-0.1,0.2-0.1,0.2c0,0.1-0.1,0.1-0.2,0.1l-0.3,0.1
			c0-0.2,0.1-0.3,0.1-0.5c0.1-0.2,0.1-0.3,0.2-0.4c0.1-0.1,0.2-0.2,0.3-0.4c0.1-0.1,0.2-0.2,0.4-0.3c0.1-0.1,0.3-0.1,0.4-0.2
			c0.1,0,0.2,0,0.3,0c0.1,0,0.1,0.1,0.2,0.2c0,0.1,0.1,0.2,0.1,0.3c0,0.1,0,0.2,0,0.3c0,0.1-0.1,0.2-0.1,0.3
			c-0.1,0.1-0.1,0.2-0.2,0.4c-0.1,0.1-0.1,0.2-0.2,0.4l-0.5,1c0.1-0.1,0.1-0.1,0.2-0.2c0.1-0.1,0.1-0.1,0.2-0.1l0.5-0.3
			c0.1,0,0.1,0,0.2,0c0,0,0,0.1,0,0.1v0.4L28.7,78.2z"/>
		<path class="st13" d="M40.6,39.2l-36.3,21v-0.9l36.3-21V39.2z"/>
		<path class="st14" d="M25.9,88.6V34.8l14.6-7.8v53.1L25.9,88.6z"/>
		
			<linearGradient id="SVGID_1_" gradientUnits="userSpaceOnUse" x1="40.6265" y1="73.9307" x2="29.6285" y2="92.1797" gradientTransform="matrix(1 0 0 -1 0 104)">
			<stop  offset="0" style="stop-color:#8F8F8F"/>
			<stop  offset="0.175" style="stop-color:#8F8F8F"/>
			<stop  offset="0.181" style="stop-color:#A9A9A9"/>
			<stop  offset="0.534" style="stop-color:#A9A9A9"/>
			<stop  offset="0.542" style="stop-color:#C6C6C6"/>
			<stop  offset="1" style="stop-color:#C6C6C6"/>
		</linearGradient>
		<path class="st15" d="M33,14.6c0.1,0,0.2,0,0.2,0.1L39,18c0.4,0.2,0.6,0.6,0.6,1.1v7.2c0,0.2-0.1,0.3-0.2,0.4c0,0,0,0,0,0l-2,1.2
			c0,0,0,0-0.1,0l-0.5-0.6l-5.3-3c-0.4-0.2-0.6-0.6-0.6-1.1v-6.3l-0.3-1v0l2.2-1.3h0C32.8,14.6,32.9,14.6,33,14.6z M36.6,24.7l0-4
			c0-0.3-0.2-0.5-0.4-0.7l-3.2-1.8l0,4c0,0.3,0.1,0.5,0.4,0.7L36.6,24.7z"/>
		<path class="st16" d="M37.5,27.6c0,0.1-0.1,0.2-0.2,0.4c0,0,0,0-0.1,0c-0.1,0.1-0.3,0.1-0.5,0L31,24.6c-0.4-0.2-0.6-0.6-0.6-1.1
			v-7.2c0-0.2,0.1-0.3,0.2-0.4c0.1-0.1,0.3-0.1,0.5,0l5.8,3.3c0.4,0.2,0.6,0.6,0.6,1.1L37.5,27.6z M36.6,24.7l0-4
			c0-0.3-0.2-0.5-0.4-0.7l-3.2-1.8l0,4c0,0.3,0.1,0.5,0.4,0.7L36.6,24.7z"/>
		<path class="st17" d="M36.6,24.7v1.5c0,0.2-0.3,0.4-0.5,0.3L31.6,24c-0.2-0.1-0.4-0.4-0.4-0.7l0-5.5c0-0.2,0.3-0.4,0.5-0.3
			l1.3,0.8l0,4c0,0.3,0.1,0.5,0.4,0.7L36.6,24.7z"/>
		<path class="st3" d="M34.3,20.1l-4.6,2.7l1.6,3.3l1.5-0.8l3.2-1.9L34.3,20.1z"/>
		<path class="st5" d="M36.6,23l0,2L35,25.9v3.2L32.8,26l-1.5,0L36.6,23z"/>
		
			<linearGradient id="SVGID_2_" gradientUnits="userSpaceOnUse" x1="33.8871" y1="70.2612" x2="22.8881" y2="88.5132" gradientTransform="matrix(1 0 0 -1 0 104)">
			<stop  offset="0" style="stop-color:#8F8F8F"/>
			<stop  offset="0.175" style="stop-color:#8F8F8F"/>
			<stop  offset="0.181" style="stop-color:#A9A9A9"/>
			<stop  offset="0.534" style="stop-color:#A9A9A9"/>
			<stop  offset="0.542" style="stop-color:#C6C6C6"/>
			<stop  offset="1" style="stop-color:#C6C6C6"/>
		</linearGradient>
		<path class="st18" d="M26.2,18.5c0.1,0,0.2,0,0.2,0.1l5.8,3.3c1.5,0.8,0.6,0.8,0.6,1.1v7.2c0,0.2-0.1,0.3-0.2,0.4c0,0,0,0,0,0
			l-2,1.2c0,0,0,0-0.1,0L30,31.2l-5.3-3c-0.4-0.2-0.6-0.6-0.6-1.1v-6.3l-0.3-1v0l2.2-1.3h0C26.1,18.5,26.1,18.5,26.2,18.5z
			 M29.9,28.6l0-4c0-0.3-0.1-0.6-0.4-0.7l-3.2-1.8l0,4c0,0.3,0.1,0.5,0.4,0.7L29.9,28.6z"/>
		<path class="st16" d="M30.7,31.4c0,0.1-0.1,0.2-0.2,0.4c0,0,0,0-0.1,0c-0.1,0.1-0.3,0.1-0.5,0l-5.8-3.3c-0.4-0.2-0.6-0.6-0.6-1.1
			v-7.2c0-0.2,0.1-0.3,0.2-0.4c0.1-0.1,0.3-0.1,0.5,0l5.8,3.3c0.4,0.2,0.6,0.6,0.6,1.1L30.7,31.4z M29.9,28.6l0-4
			c0-0.3-0.1-0.6-0.4-0.7l-3.2-1.8l0,4c0,0.3,0.2,0.5,0.4,0.7L29.9,28.6z"/>
		<path class="st17" d="M29.9,28.5v1.6c0,0.2-0.3,0.4-0.5,0.3l-4.5-2.6c-0.2-0.1-0.4-0.4-0.4-0.7l0-5.5c0-0.2,0.3-0.4,0.5-0.3
			l1.3,0.8l0,4c0,0.3,0.2,0.5,0.4,0.7L29.9,28.5z"/>
		<path class="st3" d="M27.7,24L23,26.6l1.6,3.3l1.5-0.8l3.2-1.9L27.7,24z"/>
		<path class="st5" d="M29.8,26.9l0,1.9l-1.6,0.9V33L26,29.9l-1.5,0L29.8,26.9z"/>
		
			<linearGradient id="SVGID_3_" gradientUnits="userSpaceOnUse" x1="27.1514" y1="66.1696" x2="16.1524" y2="84.4216" gradientTransform="matrix(1 0 0 -1 0 104)">
			<stop  offset="0" style="stop-color:#8F8F8F"/>
			<stop  offset="0.175" style="stop-color:#8F8F8F"/>
			<stop  offset="0.181" style="stop-color:#A9A9A9"/>
			<stop  offset="0.534" style="stop-color:#A9A9A9"/>
			<stop  offset="0.542" style="stop-color:#C6C6C6"/>
			<stop  offset="1" style="stop-color:#C6C6C6"/>
		</linearGradient>
		<path class="st19" d="M19.5,22.4c0.1,0,0.2,0,0.2,0.1l5.8,3.3c0.4,0.2,0.6,0.6,0.6,1.1v7.2c0,0.2-0.1,0.3-0.2,0.4c0,0,0,0,0,0
			l-2,1.2c0,0,0,0-0.1,0l-0.5-0.6l-5.3-3c-0.4-0.2-0.6-0.6-0.6-1.1v-6.3l-0.3-1v0l2.2-1.3h0C19.4,22.4,19.4,22.4,19.5,22.4z
			 M23.2,32.5l0-4c0-0.3-0.2-0.5-0.4-0.7L19.6,26l0,4c0,0.3,0.2,0.5,0.4,0.7L23.2,32.5z"/>
		<path class="st16" d="M24,35.3c0,0.1-0.1,0.2-0.2,0.3c0,0,0,0-0.1,0c-0.1,0.1-0.3,0.1-0.5,0l-5.8-3.3c-0.4-0.2-0.6-0.6-0.6-1.1
			v-7.2c0-0.2,0.1-0.3,0.2-0.4c0.1-0.1,0.3-0.1,0.5,0l5.8,3.3c0.4,0.2,0.6,0.6,0.6,1.1L24,35.3z M23.2,32.5l0-4
			c0-0.3-0.2-0.5-0.4-0.7L19.6,26l0,4c0,0.3,0.2,0.5,0.4,0.7L23.2,32.5z"/>
		<path class="st17" d="M23.2,32.5V34c0,0.2-0.3,0.4-0.5,0.3l-4.5-2.6c-0.3-0.1-0.4-0.4-0.4-0.7l0-5.5c0-0.2,0.3-0.4,0.5-0.3
			l1.3,0.8l0,4c0,0.3,0.2,0.5,0.4,0.7L23.2,32.5z"/>
		<path class="st3" d="M20.9,27.9l-4.6,2.7l1.6,3.3l1.5-0.8l3.2-1.9L20.9,27.9z"/>
		<path class="st5" d="M23.1,30.8v2l-1.6,0.9v3.2l-2.2-3.1l-1.5,0L23.1,30.8z"/>
		
			<linearGradient id="SVGID_4_" gradientUnits="userSpaceOnUse" x1="20.4084" y1="62.2624" x2="9.4104" y2="80.5114" gradientTransform="matrix(1 0 0 -1 0 104)">
			<stop  offset="0" style="stop-color:#8F8F8F"/>
			<stop  offset="0.175" style="stop-color:#8F8F8F"/>
			<stop  offset="0.181" style="stop-color:#A9A9A9"/>
			<stop  offset="0.534" style="stop-color:#A9A9A9"/>
			<stop  offset="0.542" style="stop-color:#C6C6C6"/>
			<stop  offset="1" style="stop-color:#C6C6C6"/>
		</linearGradient>
		<path class="st20" d="M12.8,26.3c0.1,0,0.2,0,0.2,0.1l5.8,3.3c0.4,0.2,0.6,0.6,0.6,1.1V38c0,0.2-0.1,0.3-0.2,0.4c0,0,0,0,0,0
			l-2,1.2c0,0,0,0-0.1,0L16.6,39l-5.3-3c-0.4-0.2-0.6-0.6-0.6-1.1v-6.3l-0.3-1v0l2.2-1.3h0C12.6,26.3,12.7,26.3,12.8,26.3z
			 M16.4,36.4l0-4c0-0.3-0.2-0.5-0.4-0.7l-3.2-1.8l0,4c0,0.3,0.2,0.5,0.4,0.7L16.4,36.4z"/>
		<path class="st16" d="M17.3,39.2c0,0.1-0.1,0.2-0.2,0.3c0,0,0,0-0.1,0c-0.1,0.1-0.3,0.1-0.5,0l-5.8-3.3c-0.4-0.2-0.6-0.6-0.6-1.1
			V28c0-0.2,0.1-0.3,0.2-0.4c0.1-0.1,0.3-0.1,0.5,0l5.8,3.3c0.4,0.2,0.6,0.6,0.6,1.1L17.3,39.2z M16.4,36.4l0-4
			c0-0.3-0.2-0.5-0.4-0.7l-3.2-1.8l0,4c0,0.3,0.2,0.5,0.4,0.7L16.4,36.4z"/>
		<path class="st17" d="M16.4,36.4v1.5c0,0.2-0.3,0.4-0.5,0.3l-4.5-2.6C11.2,35.5,11,35.2,11,35l0-5.5c0-0.2,0.3-0.4,0.5-0.3
			l1.3,0.8l0,4c0,0.3,0.2,0.5,0.4,0.7L16.4,36.4z"/>
		<path class="st3" d="M14.1,31.8l-4.6,2.7l1.6,3.3l1.5-0.8l3.2-1.9L14.1,31.8z"/>
		<path class="st5" d="M16.4,34.7v2l-1.6,0.9v3.2l-2.2-3.1l-1.5,0L16.4,34.7z"/>
		
			<linearGradient id="SVGID_5_" gradientUnits="userSpaceOnUse" x1="13.6023" y1="58.2796" x2="2.6043" y2="76.5296" gradientTransform="matrix(1 0 0 -1 0 104)">
			<stop  offset="0" style="stop-color:#8F8F8F"/>
			<stop  offset="0.175" style="stop-color:#8F8F8F"/>
			<stop  offset="0.181" style="stop-color:#A9A9A9"/>
			<stop  offset="0.534" style="stop-color:#A9A9A9"/>
			<stop  offset="0.542" style="stop-color:#C6C6C6"/>
			<stop  offset="1" style="stop-color:#C6C6C6"/>
		</linearGradient>
		<path class="st21" d="M5.9,30.3c0.1,0,0.2,0,0.2,0.1l5.8,3.3c0.4,0.2,0.6,0.6,0.6,1.1V42c0,0.2-0.1,0.3-0.2,0.4c0,0,0,0,0,0
			l-2,1.2c0,0,0,0-0.1,0L9.8,43l-5.3-3c-0.4-0.2-0.6-0.6-0.6-1.1v-6.3l-0.3-1v0l2.2-1.3h0C5.8,30.3,5.9,30.3,5.9,30.3z M9.6,40.3
			l0-4c0-0.3-0.2-0.5-0.4-0.7L6,33.9l0,4c0,0.3,0.2,0.5,0.4,0.7L9.6,40.3z"/>
		<path class="st16" d="M10.5,43.2c0,0.1-0.1,0.2-0.1,0.3c0,0,0,0-0.1,0c-0.1,0.1-0.3,0.1-0.5,0L4,40.3c-0.4-0.2-0.6-0.6-0.6-1.1V32
			c0-0.2,0.1-0.3,0.2-0.4c0.1-0.1,0.3-0.1,0.5,0l5.8,3.3c0.4,0.2,0.6,0.6,0.6,1.1L10.5,43.2z M9.6,40.3l0-4c0-0.3-0.2-0.5-0.4-0.7
			L6,33.9l0,4c0,0.3,0.2,0.5,0.4,0.7L9.6,40.3z"/>
		<path class="st17" d="M9.6,40.3v1.6c0,0.3-0.3,0.4-0.5,0.3l-4.5-2.6c-0.2-0.1-0.4-0.4-0.4-0.7l0-5.5c0-0.2,0.3-0.4,0.5-0.3L6,33.9
			l0,4c0,0.3,0.2,0.5,0.4,0.7L9.6,40.3z"/>
		<path class="st3" d="M7.3,35.8l-4.6,2.7l1.6,3.3l1.5-0.8L9,39L7.3,35.8z"/>
		<path class="st5" d="M9.6,38.6v2L8,41.6v3.2l-2.2-3.1l-1.5,0L9.6,38.6z"/>
		<path class="st22" d="M4.2,59.3l-3.6-2.1V39.6l3.6,2.1V59.3z"/>
		<path class="st23" d="M42.3,98.4l37.1-21.5V7.5L42.3,29.1V98.4z"/>
		<path class="st24" d="M42.3,98.4l-2.8-1.6V27.5l2.8,1.6V98.4z"/>
		<path class="st25" d="M79.4,7.5L76.7,6L39.5,27.5l2.8,1.6L79.4,7.5z"/>
		<path class="st26" d="M70.5,28.3L46.9,63.4c-0.8,0.5-1.5,0.1-1.5-1l-1.7-30.1c-0.1-1.1,0.5-2.4,1.3-2.9L57.1,21
			c0.8-0.5,1.5-0.1,1.5,1l13.2,3.5C71.9,26.5,71.3,27.8,70.5,28.3z M57.4,83.8L45.3,91c-0.8,0.4-1.4-0.2-1.3-1.3l1.8-47.3
			c0-1.1,0.7-2.4,1.5-2.8l23.3,21.5c0.8-0.4,1.4,0.2,1.3,1.3L58.9,81C58.8,82.1,58.2,83.4,57.4,83.8z M77.4,35.9
			c0,0,0.9,14.2,0.3,25.5c-0.1,1.9-0.4,8-0.6,10.6c0,0.7-0.4,1.5-0.9,1.9c-2.4,1.9-9.6,7.6-18.4,11.8c-10.7,5.2-2.2-9-2.2-9
			L77.4,35.9z"/>
		<path class="st27" d="M77.5,37.4c0,0,0.5,20.5-0.2,27.4l-0.6,5.5c-0.1,0.8-0.5,1.7-1.1,2.2c-2.2,2-8.5,7.3-16.9,11.5
			c-10.7,5.2-3.6-8.8-3.6-8.8L77.5,37.4z"/>
		
			<linearGradient id="SVGID_6_" gradientUnits="userSpaceOnUse" x1="61.8683" y1="84.222" x2="62.0823" y2="19.9" gradientTransform="matrix(1 0 0 -1 0 104)">
			<stop  offset="0" style="stop-color:#F7F7F7"/>
			<stop  offset="0.114" style="stop-color:#F7F7F7"/>
			<stop  offset="0.427" style="stop-color:#FAFAFA"/>
			<stop  offset="0.913" style="stop-color:#FFFFFF"/>
			<stop  offset="1" style="stop-color:#FFFFFF"/>
		</linearGradient>
		<path class="st28" d="M75.6,8.9L47.3,25.6c-1.1,0.7-2,2.5-2,4.1c0,0,0.3,27.2,0.5,35.2c0.1,7.1,1.5,25.2,1.5,25.2
			c0,1.6,0.9,2.4,2,1.7c0,0,6.8-4.9,9.6-6.7c10.5-6.9,17.5-10.4,17.5-10.4c1.3-0.8,2.2-2.3,2.2-3.9c0,0-0.4-15.4-0.5-21.6
			c-0.2-8.9-0.5-38.7-0.5-38.7c0-1.2-0.5-2-1.3-2C76.1,8.6,75.8,8.7,75.6,8.9z"/>
		<path class="st29" d="M49.5,44.8l14.8-8.5v-2.1l-14.8,8.5V44.8z M49.5,49.1l14.8-8.5v-2.1L49.5,47V49.1z M49.5,59.5L64.3,51V49
			l-14.8,8.5V59.5z M49.5,63.8l14.8-8.5v-2.1l-14.8,8.5V63.8z"/>
		<path class="st1" d="M65.7,18.1l-9.3,5.3l-2-8.5c-0.1-0.3,0.1-0.7,0.4-0.9l12.6-7.2c0.3-0.2,0.5,0.1,0.4,0.4L65.7,18.1z"/>
		<path class="st2" d="M66.8,19.1l-9.3,5.3l-2-8.5c-0.1-0.3,0.1-0.7,0.4-0.9l12.6-7.2c0.3-0.2,0.5,0.1,0.4,0.4L66.8,19.1z"/>
		<path class="st1" d="M67.2,18.3l-2.7,1.5c-0.2,0.1-0.3,0-0.3-0.2v-1.2c0-0.2,0.1-0.4,0.3-0.5l2.7-1.5c0.4-0.2,0.7,0,0.7,0.4v0.3
			C67.9,17.5,67.6,18.1,67.2,18.3z"/>
		<path class="st30" d="M59.1,22.3c0,0,1.8-0.4,2-1.6c0.1-1.2-1.1-3.5-1.2-5.5c-0.1-2,0.2-3.3,0.6-5c0.4-1.7,0.7-2.9,0.1-2.7
			c-0.6,0.2-2.4,1.1-2.2-0.9c0.2-2,2.2-3.9,4-4.9c1.7-1,3.9-1.1,4.1,0.1c0.2,1.2-0.6,2.5-1.2,2.9c-0.6,0.4-1.8,1.1-1.7,1.7
			c0.1,0.6,1.2,3.5,1.1,5.7c-0.1,2.2-0.8,4.5-1,5.8c-0.2,1.3-0.1,1.9,1.1,1.2c1.2-0.7,1.2,0.2,1.2,0.2l-0.8,0.2c0,0-2,1.4-2.2,0.2
			s0.1-1.9,0.5-3.5c0.4-1.6,1-4.1,0.6-6.2c-0.5-2-1.2-3.2-0.7-4.3c0.5-1.1,1.9-1.1,2.4-2c0.5-1,0.6-1.5,0.1-2
			c-0.5-0.5-1.1-0.7-3.3,0.5c-2.2,1.2-3.4,3-3.6,3.9s0,1.7,1.1,1.2c1-0.5,1.8-0.9,1.3,1.2c-0.5,2.1-1.4,5.2-0.7,7.3
			c0.7,2.2,1.2,3.5,1,4.6c-0.2,1.1-0.5,1.5-2.1,2.2C57.8,23.5,59.1,22.3,59.1,22.3z"/>
		<path class="st1" d="M55.7,24.8l2.7-1.5c0.2-0.1,0.3-0.3,0.3-0.5v-1.2c0-0.2-0.1-0.3-0.3-0.2l-2.7,1.5c-0.4,0.2-0.7,0.8-0.7,1.2
			v0.3C55.1,24.8,55.4,25,55.7,24.8z"/>
		<path class="st31" d="M68.2,18.5l-2.7,1.5c-0.2,0.1-0.3,0-0.3-0.2v-1.2c0-0.2,0.1-0.4,0.3-0.5l2.7-1.5c0.4-0.2,0.7,0,0.7,0.4v0.3
			C68.8,17.8,68.5,18.3,68.2,18.5z M56,24.6v-0.3c0-0.5,0.3-1,0.7-1.2l2.7-1.5c0.2-0.1,0.3,0,0.3,0.2V23c0,0.2-0.1,0.4-0.3,0.5
			l-2.7,1.5C56.3,25.3,56,25.1,56,24.6z M67.5,41.8v-9.4l0.1-0.1l7-4.1v9.4l-0.1,0L67.5,41.8z M67.9,32.6v8.6l6.4-3.7v-8.6
			L67.9,32.6z M67.5,57.1v-9.4l0.1-0.1l7-4.1V53l-0.1,0L67.5,57.1z M67.9,47.8v8.6l6.4-3.7v-8.7L67.9,47.8z M67.5,72.3v-9.4l0.1,0
			l7-4.1v9.4l-0.1,0.1L67.5,72.3z M67.9,63.1v8.6l6.4-3.7v-8.7L67.9,63.1z"/>
		<path class="st32" d="M73.4,25.6l-2.4,8.8l-2.2-1.3L68,35.3l4,2.6l3.1-11L73.4,25.6z M73.4,41.5l-2.4,8.8L68.8,49L68,51.1l4,2.6
			l3.1-11L73.4,41.5z M73.4,56.9l-2.4,8.8l-2.2-1.3L68,66.5l4,2.6l3.1-11L73.4,56.9z"/>
		<path class="st29" d="M49.5,76.5L64.3,68v-2.1l-14.8,8.5V76.5z M49.5,80.8l14.8-8.5v-2.1l-14.8,8.5V80.8z"/>
	</g>
</g>
</svg>
