<?xml version="1.0" encoding="utf-8"?>
<!-- Generator: Adobe Illustrator 17.1.0, SVG Export Plug-In . SVG Version: 6.00 Build 0)  -->
<!DOCTYPE svg PUBLIC "-//W3C//DTD SVG 1.1//EN" "http://www.w3.org/Graphics/SVG/1.1/DTD/svg11.dtd">
<svg version="1.1" id="Layer_1" xmlns="http://www.w3.org/2000/svg" xmlns:xlink="http://www.w3.org/1999/xlink" x="0px" y="0px"
	 viewBox="0 0 850.4 467.7" enable-background="new 0 0 850.4 467.7" xml:space="preserve">
<g>
	<g>
		<g>
			<g>
				<g>
					<g>
						<g>
							<g enable-background="new    ">
								<g>
									<polygon fill="#A48157" points="191.2,170.8 191.4,285.8 210.4,296.9 210.2,181.9 									"/>
								</g>
								<g>
									<polygon fill="#C8A376" points="210.2,181.9 210.4,296.9 293,249.1 292.7,134.2 									"/>
								</g>
								<g>
									<polygon fill="#E3C095" points="191.2,170.8 210.2,181.9 292.7,134.2 273.7,123.1 									"/>
								</g>
							</g>
						</g>
						<g>
							<g enable-background="new    ">
								<g>
									<polygon fill="#CCCCCC" points="204.3,178.4 196.1,173.6 196.3,191.9 204.6,196.7 									"/>
								</g>
								<g>
									<polygon fill="#F2F2F2" points="287.8,130.2 279.5,125.4 196.1,173.6 204.3,178.4 									"/>
								</g>
								<g>
									<polygon fill="#898989" points="204.3,178.4 204.6,196.7 205.3,196.3 205,178.8 287.8,131 287.8,130.2 									"/>
								</g>
							</g>
						</g>
					</g>
				</g>
				<g>
					<g>
						<g>
							<path fill="#6B573F" d="M236.7,263.8l0,5.5c0,0.7,0.3,1.1,0.9,1.1c0.5,0,0.9,0.4,0.9,1.1l0,2.9c0,0.3-0.2,0.7-0.4,0.9
								l-1.3,1.3l0,0.3l2.4-1.4l2.4-1.4l0-0.3l-1.3,0.2c-0.2,0-0.4-0.1-0.4-0.4l0-2.9c0-0.7,0.3-1.5,0.9-2.1
								c0.5-0.6,0.9-1.4,0.9-2.1l0-5.5l-2.4,1.4L236.7,263.8z"/>
						</g>
						<g>
							<path fill="#6B573F" d="M246.5,273.3l-14.8,8.5l0-17l14.8-8.5L246.5,273.3z M232.7,280.2l12.9-7.5l0-14.8l-12.9,7.5
								L232.7,280.2L232.7,280.2z"/>
						</g>
					</g>
					<g>
						<g>
							<g>
								<polygon fill="#6B573F" points="218.5,285.2 218.5,286.3 229.6,279.9 229.6,278.8 								"/>
							</g>
							<g>
								<polygon fill="#6B573F" points="224,272.3 218.5,281.9 222.3,279.6 222.4,282.5 224,281.5 225.7,280.6 225.7,277.7 
									229.6,275.5 								"/>
							</g>
						</g>
						<g>
							<path fill="#6B573F" d="M231.5,282l-14.8,8.5l0-17l14.8-8.5L231.5,282z M217.6,288.9l12.9-7.5l0-14.8l-12.9,7.5L217.6,288.9
								L217.6,288.9z"/>
						</g>
					</g>
					<g>
						<g>
							<g enable-background="new    ">
								<g>
									<polygon fill="#ACACAC" points="287.9,243.4 286.9,242.9 286.2,243.3 287.2,243.9 									"/>
								</g>
								<g>
									<polygon fill="#808080" points="287.9,236 286.9,235.4 286.9,242.9 287.9,243.4 									"/>
								</g>
								<g>
									<polygon fill="#232D41" points="287.2,236.4 286.2,235.8 286.2,243.3 287.2,243.9 									"/>
								</g>
								<g>
									<polygon fill="#ACACAC" points="286.8,243.1 285.8,242.6 285.1,243 286.1,243.5 									"/>
								</g>
								<g>
									<polygon fill="#ACACAC" points="285.6,243.8 284.7,243.2 284,243.6 284.9,244.2 									"/>
								</g>
								<g>
									<polygon fill="#ACACAC" points="284.5,244.4 283.5,243.9 282.8,244.3 283.8,244.8 									"/>
								</g>
								<g>
									<polygon fill="#ACACAC" points="283.3,245.1 282.4,244.5 281.7,244.9 282.6,245.5 									"/>
								</g>
								<g>
									<polygon fill="#ACACAC" points="282.2,245.7 281.2,245.2 280.5,245.6 281.5,246.1 									"/>
								</g>
								<g>
									<polygon fill="#2F3D58" points="287.9,236 286.9,235.4 286.2,235.8 287.2,236.4 									"/>
								</g>
								<g>
									<polygon fill="#808080" points="286.7,236.6 285.8,236.1 285.8,242.6 286.8,243.1 									"/>
								</g>
								<g>
									<polygon fill="#ACACAC" points="281.1,246.4 280.1,245.8 279.4,246.2 280.4,246.8 									"/>
								</g>
								<g>
									<polygon fill="#232D41" points="286,237 285.1,236.5 285.1,243 286.1,243.5 									"/>
								</g>
								<g>
									<polygon fill="#2F3D58" points="286.7,236.6 285.8,236.1 285.1,236.5 286,237 									"/>
								</g>
								<g>
									<polygon fill="#ACACAC" points="279.9,248.1 279,247.5 278.3,247.9 279.2,248.5 									"/>
								</g>
								<g>
									<polygon fill="#808080" points="285.6,237.3 284.6,236.7 284.7,243.2 285.6,243.8 									"/>
								</g>
								<g>
									<polygon fill="#2F3D58" points="285.6,237.3 284.6,236.7 283.9,237.1 284.9,237.7 									"/>
								</g>
								<g>
									<polygon fill="#232D41" points="284.9,237.7 283.9,237.1 284,243.6 284.9,244.2 									"/>
								</g>
								<g>
									<polygon fill="#808080" points="284.5,237.9 283.5,237.4 283.5,243.9 284.5,244.4 									"/>
								</g>
								<g>
									<polygon fill="#232D41" points="283.8,238.3 282.8,237.8 282.8,244.3 283.8,244.8 									"/>
								</g>
								<g>
									<polygon fill="#808080" points="283.3,238.6 282.4,238 282.4,244.5 283.3,245.1 									"/>
								</g>
								<g>
									<polygon fill="#232D41" points="282.6,239 281.7,238.4 281.7,244.9 282.6,245.5 									"/>
								</g>
								<g>
									<polygon fill="#808080" points="282.2,239.2 281.2,238.7 281.2,245.2 282.2,245.7 									"/>
								</g>
								<g>
									<polygon fill="#232D41" points="281.5,239.6 280.5,239.1 280.5,245.6 281.5,246.1 									"/>
								</g>
								<g>
									<polygon fill="#808080" points="281,239.9 280.1,239.3 280.1,245.8 281.1,246.4 									"/>
								</g>
								<g>
									<polygon fill="#232D41" points="280.3,240.3 279.4,239.7 279.4,246.2 280.4,246.8 									"/>
								</g>
								<g>
									<polygon fill="#808080" points="279.9,240.6 278.9,240 279,247.5 279.9,248.1 									"/>
								</g>
								<g>
									<polygon fill="#232D41" points="279.2,241 278.2,240.4 278.3,247.9 279.2,248.5 									"/>
								</g>
								<g>
									<polygon fill="#ACACAC" points="278.8,247.7 277.8,247.2 277.1,247.6 278.1,248.1 									"/>
								</g>
								<g>
									<polygon fill="#2F3D58" points="284.5,237.9 283.5,237.4 282.8,237.8 283.8,238.3 									"/>
								</g>
								<g>
									<polygon fill="#ACACAC" points="277.6,248.4 276.7,247.8 276,248.2 276.9,248.8 									"/>
								</g>
								<g>
									<polygon fill="#2F3D58" points="283.3,238.6 282.4,238 281.7,238.4 282.6,239 									"/>
								</g>
								<g>
									<polygon fill="#ACACAC" points="276.5,249 275.5,248.5 274.8,248.9 275.8,249.4 									"/>
								</g>
								<g>
									<polygon fill="#3C4E71" points="281.5,239.6 281.5,246.1 282.2,245.7 282.2,239.2 									"/>
								</g>
								<g>
									<polygon fill="#2F3D58" points="282.2,239.2 281.2,238.7 280.5,239.1 281.5,239.6 									"/>
								</g>
								<g>
									<polygon fill="#ACACAC" points="275.4,250.7 274.4,250.1 273.7,250.5 274.7,251.1 									"/>
								</g>
								<g>
									<polygon fill="#2F3D58" points="281,239.9 280.1,239.3 279.4,239.7 280.3,240.3 									"/>
								</g>
								<g>
									<polygon fill="#808080" points="278.8,241.2 277.8,240.7 277.8,247.2 278.8,247.7 									"/>
								</g>
								<g>
									<polygon fill="#232D41" points="278.1,241.6 277.1,241.1 277.1,247.6 278.1,248.1 									"/>
								</g>
								<g>
									<polygon fill="#808080" points="277.6,241.9 276.7,241.3 276.7,247.8 277.6,248.4 									"/>
								</g>
								<g>
									<polygon fill="#232D41" points="276.9,242.3 276,241.7 276,248.2 276.9,248.8 									"/>
								</g>
								<g>
									<polygon fill="#808080" points="276.5,242.5 275.5,242 275.5,248.5 276.5,249 									"/>
								</g>
								<g>
									<polygon fill="#232D41" points="275.8,242.9 274.8,242.4 274.8,248.9 275.8,249.4 									"/>
								</g>
								<g>
									<polygon fill="#808080" points="275.3,243.2 274.4,242.6 274.4,250.1 275.4,250.7 									"/>
								</g>
								<g>
									<polygon fill="#232D41" points="274.6,243.6 273.7,243 273.7,250.5 274.7,251.1 									"/>
								</g>
								<g>
									<polygon fill="#ACACAC" points="274.2,250.3 273.3,249.8 272.6,250.2 273.5,250.8 									"/>
								</g>
								<g>
									<polygon fill="#2F3D58" points="279.9,240.6 278.9,240 278.2,240.4 279.2,241 									"/>
								</g>
								<g>
									<polygon fill="#ACACAC" points="273.1,251 272.1,250.4 271.4,250.9 272.4,251.4 									"/>
								</g>
								<g>
									<polygon fill="#2F3D58" points="278.8,241.2 277.8,240.7 277.1,241.1 278.1,241.6 									"/>
								</g>
								<g>
									<polygon fill="#3C4E71" points="278.1,241.6 278.1,248.1 278.8,247.7 278.8,241.2 									"/>
								</g>
								<g>
									<polygon fill="#ACACAC" points="272,252.7 271,252.1 270.3,252.5 271.2,253.1 									"/>
								</g>
								<g>
									<polygon fill="#2F3D58" points="277.6,241.9 276.7,241.3 276,241.7 276.9,242.3 									"/>
								</g>
								<g>
									<polygon fill="#2F3D58" points="276.5,242.5 275.5,242 274.8,242.4 275.8,242.9 									"/>
								</g>
								<g>
									<polygon fill="#3C4E71" points="275.8,242.9 275.8,249.4 276.5,249 276.5,242.5 									"/>
								</g>
								<g>
									<polygon fill="#2F3D58" points="275.3,243.2 274.4,242.6 273.7,243 274.6,243.6 									"/>
								</g>
								<g>
									<polygon fill="#808080" points="274.2,243.8 273.2,243.3 273.3,249.8 274.2,250.3 									"/>
								</g>
								<g>
									<polygon fill="#2F3D58" points="274.2,243.8 273.2,243.3 272.5,243.7 273.5,244.3 									"/>
								</g>
								<g>
									<polygon fill="#232D41" points="273.5,244.3 272.5,243.7 272.6,250.2 273.5,250.8 									"/>
								</g>
								<g>
									<polygon fill="#808080" points="273.1,244.5 272.1,243.9 272.1,250.4 273.1,251 									"/>
								</g>
								<g>
									<polygon fill="#2F3D58" points="273.1,244.5 272.1,243.9 271.4,244.4 272.4,244.9 									"/>
								</g>
								<g>
									<polygon fill="#232D41" points="272.4,244.9 271.4,244.4 271.4,250.9 272.4,251.4 									"/>
								</g>
								<g>
									<polygon fill="#808080" points="271.9,245.2 271,244.6 271,252.1 272,252.7 									"/>
								</g>
								<g>
									<polygon fill="#232D41" points="271.2,245.6 270.3,245 270.3,252.5 271.2,253.1 									"/>
								</g>
								<g>
									<polygon fill="#2F3D58" points="271.9,245.2 271,244.6 270.3,245 271.2,245.6 									"/>
								</g>
								<g>
									<path fill="#DDDDDD" d="M290.2,243.6L269,255.8l0-10.6l21.2-12.2L290.2,243.6z M287.2,243.9l0.7-0.4l0-7.5l-0.7,0.4
										L287.2,243.9L287.2,243.9z M279.2,248.5l0.7-0.4l0-7.5l-0.7,0.4L279.2,248.5L279.2,248.5z M271.2,253.1l0.7-0.4l0-7.5
										l-0.7,0.4L271.2,253.1L271.2,253.1z M274.7,251.1l0.7-0.4l0-7.5l-0.7,0.4L274.7,251.1L274.7,251.1z M276.9,248.8l0.7-0.4
										l0-6.5l-0.7,0.4L276.9,248.8L276.9,248.8z M278.1,248.1l0.7-0.4l0-6.5l-0.7,0.4L278.1,248.1L278.1,248.1z M284.9,244.2
										l0.7-0.4l0-6.5l-0.7,0.4L284.9,244.2L284.9,244.2z M281.5,246.1l0.7-0.4l0-6.5l-0.7,0.4L281.5,246.1L281.5,246.1z
										 M282.6,245.5l0.7-0.4l0-6.5l-0.7,0.4L282.6,245.5L282.6,245.5z M275.8,249.4l0.7-0.4l0-6.5l-0.7,0.4L275.8,249.4
										L275.8,249.4z M283.8,244.8l0.7-0.4l0-6.5l-0.7,0.4L283.8,244.8L283.8,244.8z M273.5,250.8l0.7-0.4l0-6.5l-0.7,0.4
										L273.5,250.8L273.5,250.8z M286.1,243.5l0.7-0.4l0-6.5L286,237L286.1,243.5L286.1,243.5z M280.4,246.8l0.7-0.4l0-6.5
										l-0.7,0.4L280.4,246.8L280.4,246.8z M272.4,251.4l0.7-0.4l0-6.5l-0.7,0.4L272.4,251.4L272.4,251.4z"/>
								</g>
								<g>
									<polygon fill="#3C4E71" points="287.2,236.4 287.2,243.9 287.9,243.4 287.9,236 									"/>
								</g>
								<g>
									<polygon fill="#3C4E71" points="286,237 286.1,243.5 286.8,243.1 286.7,236.6 									"/>
								</g>
								<g>
									<polygon fill="#3C4E71" points="284.9,237.7 284.9,244.2 285.6,243.8 285.6,237.3 									"/>
								</g>
								<g>
									<polygon fill="#3C4E71" points="283.8,238.3 283.8,244.8 284.5,244.4 284.5,237.9 									"/>
								</g>
								<g>
									<polygon fill="#3C4E71" points="282.6,239 282.6,245.5 283.3,245.1 283.3,238.6 									"/>
								</g>
								<g>
									<polygon fill="#3C4E71" points="280.3,240.3 280.4,246.8 281.1,246.4 281,239.9 									"/>
								</g>
								<g>
									<polygon fill="#3C4E71" points="279.2,241 279.2,248.5 279.9,248.1 279.9,240.6 									"/>
								</g>
								<g>
									<polygon fill="#3C4E71" points="276.9,242.3 276.9,248.8 277.6,248.4 277.6,241.9 									"/>
								</g>
								<g>
									<polygon fill="#3C4E71" points="274.6,243.6 274.7,251.1 275.4,250.7 275.3,243.2 									"/>
								</g>
								<g>
									<polygon fill="#3C4E71" points="273.5,244.3 273.5,250.8 274.2,250.3 274.2,243.8 									"/>
								</g>
								<g>
									<polygon fill="#3C4E71" points="272.4,244.9 272.4,251.4 273.1,251 273.1,244.5 									"/>
								</g>
								<g>
									<polygon fill="#3C4E71" points="271.2,245.6 271.2,253.1 271.9,252.7 271.9,245.2 									"/>
								</g>
								<g>
									<polygon fill="#ACACAC" points="290.2,232.9 289.2,232.4 268,244.6 269,245.2 									"/>
								</g>
								<g>
									<polygon fill="#808080" points="269,245.2 268,244.6 268.1,255.2 269,255.8 									"/>
								</g>
							</g>
						</g>
						<g>
							<g enable-background="new    ">
								<g>
									<polygon fill="#868686" points="288.4,227.7 287.5,227.1 287.5,228.1 288.4,228.7 									"/>
								</g>
								<g>
									<polygon fill="#868686" points="288.4,223.7 287.4,223.1 287.4,224.2 288.4,224.7 									"/>
								</g>
								<g>
									<polygon fill="#868686" points="288.4,222.1 287.4,221.6 287.4,222.6 288.4,223.1 									"/>
								</g>
								<g>
									<polygon fill="#B4B4B4" points="288.4,228.7 287.5,228.1 280,232.4 281,233 									"/>
								</g>
								<g>
									<polygon fill="#3F5277" points="281,232 281,233 288.4,228.7 288.4,227.7 									"/>
								</g>
								<g>
									<polygon fill="#242F44" points="281,232 280,231.4 280,232.4 281,233 									"/>
								</g>
								<g>
									<polygon fill="#313F5C" points="288.4,227.7 287.5,227.1 280,231.4 281,232 									"/>
								</g>
								<g>
									<polygon fill="#B4B4B4" points="288.4,224.7 287.4,224.2 280,228.5 281,229 									"/>
								</g>
								<g>
									<polygon fill="#313F5C" points="288.4,223.7 287.4,223.1 280,227.4 281,228 									"/>
								</g>
								<g>
									<polygon fill="#242F44" points="281,228 280,227.4 280,228.5 281,229 									"/>
								</g>
								<g>
									<polygon fill="#3F5277" points="281,228 281,229 288.4,224.7 288.4,223.7 									"/>
								</g>
								<g>
									<polygon fill="#B4B4B4" points="288.4,223.1 287.4,222.6 275.2,229.7 276.1,230.2 									"/>
								</g>
								<g>
									<polygon fill="#313F5C" points="288.4,222.1 287.4,221.6 275.2,228.7 276.1,229.2 									"/>
								</g>
								<g>
									<polygon fill="#242F44" points="276.1,229.2 275.2,228.7 275.2,229.7 276.1,230.2 									"/>
								</g>
								<g>
									<polygon fill="#3F5277" points="276.1,229.2 276.1,230.2 288.4,223.1 288.4,222.1 									"/>
								</g>
								<g>
									<polygon fill="#B4B4B4" points="290.2,219.5 289.2,219 268,231.2 269,231.8 									"/>
								</g>
								<g>
									<path fill="#E9E9E9" d="M290.2,229.5L269,241.7l0-9.9l21.2-12.2L290.2,229.5z M276.1,230.2l12.3-7.1l0-1l-12.3,7.1
										L276.1,230.2L276.1,230.2z M281,229l7.4-4.3l0-1L281,228L281,229L281,229z M281,233l7.4-4.3l0-1L281,232L281,233L281,233z"
										/>
								</g>
								<g>
									<polygon fill="#868686" points="269,231.8 268,231.2 268.1,241.2 269,241.7 									"/>
								</g>
							</g>
						</g>
					</g>
				</g>
			</g>
			<g>
				<g>
					<g>
						<g>
							<g enable-background="new    ">
								<g>
									<polygon fill="#A48157" points="213.1,184.9 213.3,299.9 232.4,311 232.2,196.1 									"/>
								</g>
								<g>
									<polygon fill="#C8A376" points="232.2,196.1 232.4,311 314.9,263.3 314.7,148.3 									"/>
								</g>
								<g>
									<polygon fill="#E3C095" points="213.1,184.9 232.2,196.1 314.7,148.3 295.7,137.2 									"/>
								</g>
							</g>
						</g>
						<g>
							<g enable-background="new    ">
								<g>
									<polygon fill="#CCCCCC" points="226.3,192.6 218.1,187.8 218.3,206 226.5,210.8 									"/>
								</g>
								<g>
									<polygon fill="#F2F2F2" points="309.8,144.3 301.5,139.5 218.1,187.8 226.3,192.6 									"/>
								</g>
								<g>
									<polygon fill="#898989" points="226.3,192.6 226.5,210.8 227.2,210.4 227,193 309.8,145.1 309.8,144.3 									"/>
								</g>
							</g>
						</g>
					</g>
				</g>
				<g>
					<g>
						<g>
							<path fill="#6B573F" d="M258.6,277.9l0,5.5c0,0.7,0.3,1.1,0.9,1.1c0.5,0,0.9,0.4,0.9,1.1l0,2.9c0,0.3-0.2,0.7-0.4,0.9
								l-1.3,1.3l0,0.3l2.4-1.4l2.4-1.4l0-0.3l-1.3,0.2c-0.2,0-0.4-0.1-0.4-0.4l0-2.9c0-0.7,0.3-1.5,0.9-2.1
								c0.5-0.6,0.9-1.4,0.9-2.1l0-5.5l-2.4,1.4L258.6,277.9z"/>
						</g>
						<g>
							<path fill="#6B573F" d="M268.5,287.4l-14.8,8.5l0-17l14.8-8.5L268.5,287.4z M254.7,294.3l12.9-7.5l0-14.8l-12.9,7.5
								L254.7,294.3L254.7,294.3z"/>
						</g>
					</g>
					<g>
						<g>
							<g>
								<polygon fill="#6B573F" points="240.5,299.3 240.5,300.5 251.6,294 251.6,292.9 								"/>
							</g>
							<g>
								<polygon fill="#6B573F" points="246,286.4 240.5,296 244.3,293.8 244.3,296.6 246,295.7 247.7,294.7 247.7,291.8 
									251.6,289.6 								"/>
							</g>
						</g>
						<g>
							<path fill="#6B573F" d="M253.4,296.1l-14.8,8.5l0-17l14.8-8.5L253.4,296.1z M239.6,303l12.9-7.5l0-14.8l-12.9,7.5L239.6,303
								L239.6,303z"/>
						</g>
					</g>
					<g>
						<g>
							<g enable-background="new    ">
								<g>
									<polygon fill="#ACACAC" points="309.9,257.6 308.9,257 308.2,257.4 309.2,258 									"/>
								</g>
								<g>
									<polygon fill="#808080" points="309.9,250.1 308.9,249.5 308.9,257 309.9,257.6 									"/>
								</g>
								<g>
									<polygon fill="#232D41" points="309.2,250.5 308.2,249.9 308.2,257.4 309.2,258 									"/>
								</g>
								<g>
									<polygon fill="#ACACAC" points="308.7,257.2 307.8,256.7 307.1,257.1 308,257.6 									"/>
								</g>
								<g>
									<polygon fill="#ACACAC" points="307.6,257.9 306.6,257.3 305.9,257.7 306.9,258.3 									"/>
								</g>
								<g>
									<polygon fill="#ACACAC" points="306.5,258.5 305.5,258 304.8,258.4 305.8,259 									"/>
								</g>
								<g>
									<polygon fill="#ACACAC" points="305.3,259.2 304.4,258.6 303.7,259.1 304.6,259.6 									"/>
								</g>
								<g>
									<polygon fill="#ACACAC" points="304.2,259.9 303.2,259.3 302.5,259.7 303.5,260.3 									"/>
								</g>
								<g>
									<polygon fill="#2F3D58" points="309.9,250.1 308.9,249.5 308.2,249.9 309.2,250.5 									"/>
								</g>
								<g>
									<polygon fill="#808080" points="308.7,250.7 307.8,250.2 307.8,256.7 308.7,257.2 									"/>
								</g>
								<g>
									<polygon fill="#ACACAC" points="303,260.5 302.1,260 301.4,260.4 302.3,260.9 									"/>
								</g>
								<g>
									<polygon fill="#232D41" points="308,251.1 307.1,250.6 307.1,257.1 308,257.6 									"/>
								</g>
								<g>
									<polygon fill="#2F3D58" points="308.7,250.7 307.8,250.2 307.1,250.6 308,251.1 									"/>
								</g>
								<g>
									<polygon fill="#ACACAC" points="301.9,262.2 301,261.6 300.2,262 301.2,262.6 									"/>
								</g>
								<g>
									<polygon fill="#808080" points="307.6,251.4 306.6,250.8 306.6,257.3 307.6,257.9 									"/>
								</g>
								<g>
									<polygon fill="#2F3D58" points="307.6,251.4 306.6,250.8 305.9,251.2 306.9,251.8 									"/>
								</g>
								<g>
									<polygon fill="#232D41" points="306.9,251.8 305.9,251.2 305.9,257.7 306.9,258.3 									"/>
								</g>
								<g>
									<polygon fill="#808080" points="306.5,252 305.5,251.5 305.5,258 306.5,258.5 									"/>
								</g>
								<g>
									<polygon fill="#232D41" points="305.7,252.5 304.8,251.9 304.8,258.4 305.8,259 									"/>
								</g>
								<g>
									<polygon fill="#808080" points="305.3,252.7 304.3,252.1 304.4,258.6 305.3,259.2 									"/>
								</g>
								<g>
									<polygon fill="#232D41" points="304.6,253.1 303.6,252.6 303.7,259.1 304.6,259.6 									"/>
								</g>
								<g>
									<polygon fill="#808080" points="304.2,253.4 303.2,252.8 303.2,259.3 304.2,259.9 									"/>
								</g>
								<g>
									<polygon fill="#232D41" points="303.5,253.8 302.5,253.2 302.5,259.7 303.5,260.3 									"/>
								</g>
								<g>
									<polygon fill="#808080" points="303,254 302.1,253.5 302.1,260 303,260.5 									"/>
								</g>
								<g>
									<polygon fill="#232D41" points="302.3,254.4 301.4,253.9 301.4,260.4 302.3,260.9 									"/>
								</g>
								<g>
									<polygon fill="#808080" points="301.9,254.7 300.9,254.1 301,261.6 301.9,262.2 									"/>
								</g>
								<g>
									<polygon fill="#232D41" points="301.2,255.1 300.2,254.5 300.2,262 301.2,262.6 									"/>
								</g>
								<g>
									<polygon fill="#ACACAC" points="300.8,261.8 299.8,261.3 299.1,261.7 300.1,262.2 									"/>
								</g>
								<g>
									<polygon fill="#2F3D58" points="306.5,252 305.5,251.5 304.8,251.9 305.7,252.5 									"/>
								</g>
								<g>
									<polygon fill="#ACACAC" points="299.6,262.5 298.7,261.9 298,262.3 298.9,262.9 									"/>
								</g>
								<g>
									<polygon fill="#2F3D58" points="305.3,252.7 304.3,252.1 303.6,252.6 304.6,253.1 									"/>
								</g>
								<g>
									<polygon fill="#ACACAC" points="298.5,263.1 297.5,262.6 296.8,263 297.8,263.6 									"/>
								</g>
								<g>
									<polygon fill="#3C4E71" points="303.5,253.8 303.5,260.3 304.2,259.9 304.2,253.4 									"/>
								</g>
								<g>
									<polygon fill="#2F3D58" points="304.2,253.4 303.2,252.8 302.5,253.2 303.5,253.8 									"/>
								</g>
								<g>
									<polygon fill="#ACACAC" points="297.4,264.8 296.4,264.2 295.7,264.7 296.7,265.2 									"/>
								</g>
								<g>
									<polygon fill="#2F3D58" points="303,254 302.1,253.5 301.4,253.9 302.3,254.4 									"/>
								</g>
								<g>
									<polygon fill="#808080" points="300.8,255.3 299.8,254.8 299.8,261.3 300.8,261.8 									"/>
								</g>
								<g>
									<polygon fill="#232D41" points="300,255.7 299.1,255.2 299.1,261.7 300.1,262.2 									"/>
								</g>
								<g>
									<polygon fill="#808080" points="299.6,256 298.7,255.4 298.7,261.9 299.6,262.5 									"/>
								</g>
								<g>
									<polygon fill="#232D41" points="298.9,256.4 297.9,255.8 298,262.3 298.9,262.9 									"/>
								</g>
								<g>
									<polygon fill="#808080" points="298.5,256.6 297.5,256.1 297.5,262.6 298.5,263.1 									"/>
								</g>
								<g>
									<polygon fill="#232D41" points="297.8,257.1 296.8,256.5 296.8,263 297.8,263.6 									"/>
								</g>
								<g>
									<polygon fill="#808080" points="297.3,257.3 296.4,256.8 296.4,264.2 297.4,264.8 									"/>
								</g>
								<g>
									<polygon fill="#232D41" points="296.6,257.7 295.7,257.2 295.7,264.7 296.7,265.2 									"/>
								</g>
								<g>
									<polygon fill="#ACACAC" points="296.2,264.5 295.3,263.9 294.5,264.3 295.5,264.9 									"/>
								</g>
								<g>
									<polygon fill="#2F3D58" points="301.9,254.7 300.9,254.1 300.2,254.5 301.2,255.1 									"/>
								</g>
								<g>
									<polygon fill="#ACACAC" points="295.1,265.1 294.1,264.6 293.4,265 294.4,265.5 									"/>
								</g>
								<g>
									<polygon fill="#2F3D58" points="300.8,255.3 299.8,254.8 299.1,255.2 300,255.7 									"/>
								</g>
								<g>
									<polygon fill="#3C4E71" points="300,255.7 300.1,262.2 300.8,261.8 300.8,255.3 									"/>
								</g>
								<g>
									<polygon fill="#ACACAC" points="293.9,266.8 293,266.2 292.3,266.6 293.2,267.2 									"/>
								</g>
								<g>
									<polygon fill="#2F3D58" points="299.6,256 298.7,255.4 297.9,255.8 298.9,256.4 									"/>
								</g>
								<g>
									<polygon fill="#2F3D58" points="298.5,256.6 297.5,256.1 296.8,256.5 297.8,257.1 									"/>
								</g>
								<g>
									<polygon fill="#3C4E71" points="297.8,257.1 297.8,263.6 298.5,263.1 298.5,256.6 									"/>
								</g>
								<g>
									<polygon fill="#2F3D58" points="297.3,257.3 296.4,256.8 295.7,257.2 296.6,257.7 									"/>
								</g>
								<g>
									<polygon fill="#808080" points="296.2,258 295.2,257.4 295.3,263.9 296.2,264.5 									"/>
								</g>
								<g>
									<polygon fill="#2F3D58" points="296.2,258 295.2,257.4 294.5,257.8 295.5,258.4 									"/>
								</g>
								<g>
									<polygon fill="#232D41" points="295.5,258.4 294.5,257.8 294.5,264.3 295.5,264.9 									"/>
								</g>
								<g>
									<polygon fill="#808080" points="295.1,258.6 294.1,258.1 294.1,264.6 295.1,265.1 									"/>
								</g>
								<g>
									<polygon fill="#2F3D58" points="295,258.6 294.1,258.1 293.4,258.5 294.4,259 									"/>
								</g>
								<g>
									<polygon fill="#232D41" points="294.4,259 293.4,258.5 293.4,265 294.4,265.5 									"/>
								</g>
								<g>
									<polygon fill="#808080" points="293.9,259.3 293,258.7 293,266.2 293.9,266.8 									"/>
								</g>
								<g>
									<polygon fill="#232D41" points="293.2,259.7 292.2,259.1 292.3,266.6 293.2,267.2 									"/>
								</g>
								<g>
									<polygon fill="#2F3D58" points="293.9,259.3 293,258.7 292.2,259.1 293.2,259.7 									"/>
								</g>
								<g>
									<path fill="#DDDDDD" d="M312.2,257.7L291,269.9l0-10.6l21.2-12.2L312.2,257.7z M309.2,258l0.7-0.4l0-7.5l-0.7,0.4
										L309.2,258L309.2,258z M301.2,262.6l0.7-0.4l0-7.5l-0.7,0.4L301.2,262.6L301.2,262.6z M293.2,267.2l0.7-0.4l0-7.5l-0.7,0.4
										L293.2,267.2L293.2,267.2z M296.7,265.2l0.7-0.4l0-7.5l-0.7,0.4L296.7,265.2L296.7,265.2z M298.9,262.9l0.7-0.4l0-6.5
										l-0.7,0.4L298.9,262.9L298.9,262.9z M300.1,262.2l0.7-0.4l0-6.5l-0.7,0.4L300.1,262.2L300.1,262.2z M306.9,258.3l0.7-0.4
										l0-6.5l-0.7,0.4L306.9,258.3L306.9,258.3z M303.5,260.3l0.7-0.4l0-6.5l-0.7,0.4L303.5,260.3L303.5,260.3z M304.6,259.6
										l0.7-0.4l0-6.5l-0.7,0.4L304.6,259.6L304.6,259.6z M297.8,263.6l0.7-0.4l0-6.5l-0.7,0.4L297.8,263.6L297.8,263.6z
										 M305.8,259l0.7-0.4l0-6.5l-0.7,0.4L305.8,259L305.8,259z M295.5,264.9l0.7-0.4l0-6.5l-0.7,0.4L295.5,264.9L295.5,264.9z
										 M308,257.6l0.7-0.4l0-6.5l-0.7,0.4L308,257.6L308,257.6z M302.3,260.9l0.7-0.4l0-6.5l-0.7,0.4L302.3,260.9L302.3,260.9z
										 M294.4,265.5l0.7-0.4l0-6.5l-0.7,0.4L294.4,265.5L294.4,265.5z"/>
								</g>
								<g>
									<polygon fill="#3C4E71" points="309.2,250.5 309.2,258 309.9,257.6 309.9,250.1 									"/>
								</g>
								<g>
									<polygon fill="#3C4E71" points="308,251.1 308,257.6 308.7,257.2 308.7,250.7 									"/>
								</g>
								<g>
									<polygon fill="#3C4E71" points="306.9,251.8 306.9,258.3 307.6,257.9 307.6,251.4 									"/>
								</g>
								<g>
									<polygon fill="#3C4E71" points="305.7,252.5 305.8,259 306.5,258.5 306.5,252 									"/>
								</g>
								<g>
									<polygon fill="#3C4E71" points="304.6,253.1 304.6,259.6 305.3,259.2 305.3,252.7 									"/>
								</g>
								<g>
									<polygon fill="#3C4E71" points="302.3,254.4 302.3,260.9 303,260.5 303,254 									"/>
								</g>
								<g>
									<polygon fill="#3C4E71" points="301.2,255.1 301.2,262.6 301.9,262.2 301.9,254.7 									"/>
								</g>
								<g>
									<polygon fill="#3C4E71" points="298.9,256.4 298.9,262.9 299.6,262.5 299.6,256 									"/>
								</g>
								<g>
									<polygon fill="#3C4E71" points="296.6,257.7 296.7,265.2 297.4,264.8 297.3,257.3 									"/>
								</g>
								<g>
									<polygon fill="#3C4E71" points="295.5,258.4 295.5,264.9 296.2,264.5 296.2,258 									"/>
								</g>
								<g>
									<polygon fill="#3C4E71" points="294.4,259 294.4,265.5 295.1,265.1 295,258.6 									"/>
								</g>
								<g>
									<polygon fill="#3C4E71" points="293.2,259.7 293.2,267.2 293.9,266.8 293.9,259.3 									"/>
								</g>
								<g>
									<polygon fill="#ACACAC" points="312.2,247.1 311.2,246.5 290,258.8 291,259.3 									"/>
								</g>
								<g>
									<polygon fill="#808080" points="291,259.3 290,258.8 290,269.4 291,269.9 									"/>
								</g>
							</g>
						</g>
						<g>
							<g enable-background="new    ">
								<g>
									<polygon fill="#868686" points="310.4,241.8 309.4,241.2 309.4,242.3 310.4,242.8 									"/>
								</g>
								<g>
									<polygon fill="#868686" points="310.4,237.8 309.4,237.3 309.4,238.3 310.4,238.8 									"/>
								</g>
								<g>
									<polygon fill="#868686" points="310.4,236.3 309.4,235.7 309.4,236.7 310.4,237.3 									"/>
								</g>
								<g>
									<polygon fill="#B4B4B4" points="310.4,242.8 309.4,242.3 302,246.6 303,247.1 									"/>
								</g>
								<g>
									<polygon fill="#3F5277" points="303,246.1 303,247.1 310.4,242.8 310.4,241.8 									"/>
								</g>
								<g>
									<polygon fill="#242F44" points="303,246.1 302,245.5 302,246.6 303,247.1 									"/>
								</g>
								<g>
									<polygon fill="#313F5C" points="310.4,241.8 309.4,241.2 302,245.5 303,246.1 									"/>
								</g>
								<g>
									<polygon fill="#B4B4B4" points="310.4,238.8 309.4,238.3 302,242.6 303,243.1 									"/>
								</g>
								<g>
									<polygon fill="#313F5C" points="310.4,237.8 309.4,237.3 302,241.6 303,242.1 									"/>
								</g>
								<g>
									<polygon fill="#242F44" points="303,242.1 302,241.6 302,242.6 303,243.1 									"/>
								</g>
								<g>
									<polygon fill="#3F5277" points="303,242.1 303,243.1 310.4,238.8 310.4,237.8 									"/>
								</g>
								<g>
									<polygon fill="#B4B4B4" points="310.4,237.3 309.4,236.7 297.2,243.8 298.1,244.4 									"/>
								</g>
								<g>
									<polygon fill="#313F5C" points="310.4,236.3 309.4,235.7 297.2,242.8 298.1,243.3 									"/>
								</g>
								<g>
									<polygon fill="#242F44" points="298.1,243.3 297.2,242.8 297.2,243.8 298.1,244.4 									"/>
								</g>
								<g>
									<polygon fill="#3F5277" points="298.1,243.3 298.1,244.4 310.4,237.3 310.4,236.3 									"/>
								</g>
								<g>
									<polygon fill="#B4B4B4" points="312.2,233.7 311.2,233.1 290,245.4 291,245.9 									"/>
								</g>
								<g>
									<path fill="#E9E9E9" d="M312.2,243.6L291,255.8l0-9.9l21.2-12.2L312.2,243.6z M298.1,244.4l12.3-7.1l0-1l-12.3,7.1
										L298.1,244.4L298.1,244.4z M303,243.1l7.4-4.3l0-1l-7.4,4.3L303,243.1L303,243.1z M303,247.1l7.4-4.3l0-1l-7.4,4.3
										L303,247.1L303,247.1z"/>
								</g>
								<g>
									<polygon fill="#868686" points="291,245.9 290,245.4 290,255.3 291,255.8 									"/>
								</g>
							</g>
						</g>
					</g>
				</g>
			</g>
		</g>
		<g>
			<g>
				<g>
					<g>
						<g>
							<g>
								<g enable-background="new    ">
									<g>
										<polygon fill="#A48157" points="296.7,267.8 296.6,332.5 243.9,363.5 244,298.8 										"/>
									</g>
									<g>
										<polygon fill="#C8A376" points="244,298.8 243.9,363.5 194.5,334.9 194.6,270.2 										"/>
									</g>
									<g>
										<polygon fill="#E3C095" points="296.7,267.8 244,298.8 194.6,270.2 247.3,239.2 										"/>
									</g>
								</g>
							</g>
							<g>
								<g enable-background="new    ">
									<g>
										<polygon fill="#C5C5C5" points="284.4,275.2 289.3,272.3 289.2,283.2 284.2,286.1 										"/>
									</g>
									<g>
										<polygon fill="#DCDCDC" points="234.4,246.3 239.3,243.4 289.3,272.3 284.4,275.2 										"/>
									</g>
									<g>
										<polygon fill="#898989" points="284.4,275.2 284.2,286.1 283.8,285.9 283.9,275.4 234.4,246.8 234.4,246.3 										"/>
									</g>
								</g>
							</g>
							<g>
								<g enable-background="new    ">
									<g>
										<polygon fill="#C5C5C5" points="256.9,291.3 261.8,288.4 261.7,299.3 256.8,302.2 										"/>
									</g>
									<g>
										<polygon fill="#DCDCDC" points="206.9,262.4 211.8,259.5 261.8,288.4 256.9,291.3 										"/>
									</g>
									<g>
										<polygon fill="#898989" points="256.9,291.3 256.8,302.2 256.3,302 256.5,291.5 206.9,262.9 206.9,262.4 										"/>
									</g>
								</g>
							</g>
						</g>
					</g>
				</g>
			</g>
			<g>
				<g>
					<path fill="#6B573F" d="M219.9,330.3l0,5.7c0,0.7-0.3,1.1-0.9,1.1c-0.5,0-0.9,0.4-0.9,1.1l0,3c0,0.3,0.2,0.7,0.4,0.9l1.3,1.3
						l0,0.4l-2.5-1.4l-2.5-1.4l0-0.4l1.3,0.2c0.3,0,0.4-0.1,0.4-0.4l0-3c0-0.7-0.3-1.5-0.9-2.2c-0.5-0.6-0.9-1.5-0.9-2.2l0-5.7
						l2.5,1.4L219.9,330.3z"/>
				</g>
				<g>
					<path fill="#6B573F" d="M209.8,322.6l15.2,8.8l0,17.4l-15.2-8.8L209.8,322.6z M223.9,347.1l0-15.2l-13.2-7.6l0,15.2
						L223.9,347.1L223.9,347.1z"/>
				</g>
			</g>
			<g>
				<g>
					<g>
						<polygon fill="#6B573F" points="238.5,352.3 238.5,353.4 227.1,346.9 227.1,345.7 						"/>
					</g>
					<g>
						<polygon fill="#6B573F" points="232.8,339 238.5,348.9 234.5,346.6 234.5,349.5 232.8,348.5 231.1,347.5 231.1,344.6 
							227.1,342.3 						"/>
					</g>
				</g>
				<g>
					<path fill="#6B573F" d="M225.2,331.6l15.2,8.8l0,17.4l-15.2-8.8L225.2,331.6z M239.4,356.1l0-15.2l-13.2-7.6l0,15.2
						L239.4,356.1L239.4,356.1z"/>
				</g>
			</g>
		</g>
		<g>
			<g>
				<path fill="#4B515B" d="M443.4,68.4c0-10.8-5.7-22.9-12.7-26.9c-7-4-12.7,1.5-12.7,12.3s5.7,22.9,12.7,26.9
					C437.8,84.7,443.4,79.2,443.4,68.4z"/>
			</g>
			<g>
				<path fill="#4B515B" d="M437.2,92.6c-2.2,0-4.6-0.7-7-2.1c-10.5-6-19-24.1-19-40.2c0-9.5,2.9-16.6,8-19.6c3.5-2,7.8-1.8,12,0.7
					c10.5,6,19,24.1,19,40.2c0,9.5-2.9,16.6-8,19.6C440.7,92.2,439,92.6,437.2,92.6z M424.3,31.5c-1.5,0-2.8,0.4-4.1,1.1
					c-4.4,2.5-7,9.2-7,17.8c0,15.5,8.1,32.7,18,38.5c3.7,2.1,7.2,2.4,10,0.7c4.4-2.5,7-9.2,7-17.8c0-15.5-8.1-32.7-18-38.5
					C428.2,32.1,426.2,31.5,424.3,31.5z"/>
			</g>
			<g>
				<path fill="#E7B087" d="M355.3,144.1c0.3,2.1,2,5.1,2.6,5.8c0.2-0.9,2.8-10.7,2.8-10.7L355.3,144.1z"/>
			</g>
			<g>
				<path fill="#171C2B" d="M355.5,64.3c-7.1,3.3-9.3,17.3-10.3,24.3c-0.7,5.3-1.3,22.5-1.9,29.1c-0.2,2.1,0.1,4.3,1,6.2l9.2,21.1
					c0,0,6.8-1.2,8.5-8.4c-0.5-2.6-4.1-15.2-5.1-18.7c-0.1-0.5-0.2-0.9-0.1-1.4l2.6-21.1c0,0-6.7-11.7-6.2-16.1
					C353.7,74.8,355.5,64.3,355.5,64.3z"/>
			</g>
			<g>
				<path fill="#E7B087" d="M417.4,85.5c0,0,6.5-9.3,7.8-11.1c0.9-5.8,4-10.8,5.6-13.8c1.3-2.3,2.8-1.4,2.2,0.6c-0.6,2-1.7,5-1.7,5
					c1.7,0.7,4.5,2.7,5.3,4.4c1.5,3.5-2.9,8-4,9.1c-1.2,1.1-7.4,13.8-7.4,13.8L417.4,85.5z"/>
			</g>
			<g>
				<path fill="#E7B087" d="M360,273.1c2.6-9.5-1.4-28-1.4-36.2c0-7.2,2.7-17.6,3.4-22.1c0.7-4.9,1.1-8,0-14.3l19.8,3.4
					c-1.4,9.1-4.9,32.5-6,37.7c-1,5.3-3.1,21.5-2.8,28.3c0.1,2.3,0.3,3.4,1,4.7c0.9,1.2,2,1.6,3.2,3.2c0.3,0.4-0.6,2.6,0.4,3
					c0.8,0.3-1.9,4.5-2.8,4.9c-0.8,0.4-0.7,4.2-1.3,3.4c-0.6-0.7-4.4-7.4-5.5-8.4c-1.1-1-4.8-2.6-6.2-3.5c-1.4-0.9-1.6-2.9-1.6-2.9
					L360,273.1z"/>
			</g>
			<g>
				<g>
					<path fill="#D39D79" d="M358.6,236.9c0-7.2,2.7-17.6,3.4-22.1c0.7-4.9,1.1-8,0-14.3l5.5,1c0.9,5.6,0.5,8.8-0.1,13.3
						c-0.7,4.5-3.4,14.9-3.4,22.1c0,8.2,2.2,27,1.4,35.4c-0.2,2,0.5,4.3,0.3,6.3c-1.4-0.9-2.9-1.6-4-1.2c-1.6,0.6-1.6-2.9-1.6-2.9
						l-0.1-1.3C362.6,264,358.6,245.1,358.6,236.9z"/>
				</g>
			</g>
			<g>
				<path fill="#E7B087" d="M382.2,288.6c1.8-4.5-1.5-27.5-1.5-35.7c0-7.2,2.7-17.6,3.4-22.1c0.7-4.9,1.1-8,0-14.3l20.1-0.8
					c0,11.5-5.3,36.7-6.3,42c-1,5.3-3.1,21.3-2.4,27.9c0.7,6.6,1.2,8.1,3,10.6c0.3,0.4,1,1,1.8,0.9c0.8-0.1,0.1,5.2-0.8,5.6
					c-0.8,0.4-2.7,1-3.3,0.3c-0.6-0.7-5.1-5.2-6.2-6.2c-1.1-1-4-4-5.5-4.8c-1.4-0.9-1.5-1.3-1.5-1.3L382.2,288.6z"/>
			</g>
			<g>
				<g>
					<path fill="#D39D79" d="M380.6,252.9c0-7.2,2.7-17.6,3.4-22.1c0.7-4.9,1.1-8,0-14.3l5.1,0.3c1,6,0.6,9.2-0.1,14
						c-0.7,4.5-3.4,14.9-3.4,22.1c0,8.2,3.3,31.1,1.5,35.7l-0.8,4.9c-0.7-0.6-1.4-1.2-1.8-1.4c-1.4-0.9-1.5-1.3-1.5-1.3l-0.9-2.1
						C384,284,380.7,261.1,380.6,252.9z"/>
				</g>
			</g>
			<g>
				<path fill="#292E3F" d="M362.1,147.6c-11,16.1-2,51.7-1.6,61.5c8.7,10.2,34.2,13.6,44.8,7.4c5.1-20,6.9-46.1,1.3-66.5
					C371.5,151,362.1,147.6,362.1,147.6z"/>
			</g>
			<g>
				<g>
					<path fill="#171C2B" d="M362.1,147.6c0,0,29,12.2,36.1,12.9c-7.5,4.4-16.6,4.6-28.6,6c-1,0.1-1.6,0.9-1.8,1.8
						c-3.3,11.6,0.2,33.8-1.1,45.6c-2.8-1.5-4.3-2.9-6.2-4.8C360.1,199.3,351.1,163.7,362.1,147.6z"/>
				</g>
			</g>
			<g>
				<path fill="#292E3F" d="M408,298.2c-1.8-2.4-7.3-2.1-8.5-1.2c0.3,0,0.6,0,0.7,0.1c1.2,2.1-2,5.2-4.6,3.9
					c-3.9-2-10.2-11.5-13.5-12.4c-2.8,2.1-3.5,4.1-3.8,7.4c-0.3,3,0.3,4.4,1,5.8c0.8,2.6,1.4,9.5,1.6,11.4c0,0.3,0.3,0.5,0.6,0.5
					l0.9-0.1c0.3,0,0.5-0.3,0.5-0.5c-0.1-2-0.6-9.5,0-11.4c0.5-0.1,1.2,0,2.5,0.6c3.3,1.7,9.6,9.5,13.7,8.2S410.6,301.6,408,298.2z"
					/>
			</g>
			<g>
				<path fill="#292E3F" d="M360,272.9c-4.5,3-5.3,9.7-0.7,12c4.7,2.3,3.8,0.4,9.6,4.3c2.1,1.5,5.9,0.5,8-3.1
					c2.3-4,3.2-7.4,1.9-11.9c-0.5-1.7-4.9,0.4-4.9,0.4s2.4,6.2,0.9,7.4c-1.5,1.2-4-2.3-6.3-4C366.3,276.4,364.1,272.3,360,272.9z"/>
			</g>
			<g>
				<path fill="#292E3F" d="M357.2,283.1c1.3,5.3,1.5,12.7,1.5,12.7l1.5,0c0,0,0.4-5.8,1.4-10c0.5-2.3-2.4-3-2.4-3L357.2,283.1z"/>
			</g>
			<g>
				<path fill="#E7B087" d="M384.8,73.6c-1.1-0.3-1.2-1.9-1.8-2.6c-2.4-2.8-1-8.3-1-8.3s5.2-1.3,6.2-2.8c1.4-2.1,7-18.2,2.5-30
					c-2.5-6.4-28.3-2-30.8,4.4c-3.6,9.4,3.7,25.5,4.9,27.8c1.1,2.3-1.1,9.2-1.1,9.2l-2.1,9.1l24.9,1.6L384.8,73.6z"/>
			</g>
			<g>
				<path fill="#171C2B" d="M361.9,64.7c-12.8-4.3-13.4,10.8-9.5,19.8c1,2.3,3.5,7.1,4.4,8.8c0.9,1.7,7.3-9.2,6.4-11.3
					C362.2,80,361.9,64.7,361.9,64.7z"/>
			</g>
			<g>
				<path fill="#292E3F" d="M409.6,157.5c-1.2-7.6-4.7-29.9-7-41.4c-0.8-4.1-0.9-7.8-0.9-7.9c3.8-4.6,3.3-16.6,2.7-18.6
					c-0.9-2.9-4.9-7.6-8.4-10.8c-4.2-3.9-13.6-9.4-14-9.5c-9,3.9-20.3,2.3-20.2-2.7c-4.4,2.3-7.7,5.1-8.3,8.8
					c-2.6,16.3,10.8,26.6,12.3,37c1.7,12-5,21.8-8.2,40.4c3,4,11.6,8.9,22.2,9.5C391.7,163,404.1,161.5,409.6,157.5z"/>
			</g>
			<g>
				<g>
					<path fill="#171C2B" d="M365.8,112.4c-1.5-10.5-14.8-20.7-12.3-37c0.6-3.7,2.3-7.7,6.7-9.9c0,1.1,1.5,2.1,2.5,2.8
						c-2,1.7-6.7,4.8-7.1,7.1c-2.6,16.3,13.6,27.2,15.1,37.6c1.7,12,0.1,28.1-3.1,46.6c-4.1-1.5-8.1-4.1-10.1-6.8
						C360.8,134.2,367.5,124.4,365.8,112.4z"/>
				</g>
			</g>
			<g>
				<g>
					<path fill="#171C2B" d="M386,105.2c-1.5-1.6-6.8-7.8-7.8-12.9c-0.5-2.6,2.3,4.7,3.4,2.5c1.2-2.5-3-17.1,0.9-18.2
						c3.3-0.9,6.8-0.2,9.5,1.9c4.8,3.6,10.6,8.2,14.4,13.8c0.1,1.4-0.8,3.2-0.9,5.1c-1.1,2.4-3.4,5.3-3.6,8.9
						c-0.2,3,0.5,9.1,1.1,11.8C402.4,118.7,390.3,109.6,386,105.2z"/>
				</g>
				<g>
					<path fill="#E7B087" d="M432,67.3c-1.4-0.6-4.5-1.5-4.8,2.2c-0.1,1.5-1.1,3.5-2.4,5.8c-1.3,2.4-0.7,7.2-0.7,7.2s3.5,6.6,6,1.4
						c2.5-5.2,4.1-5.8,6.8-9.3C439.5,71,434.4,68.2,432,67.3z"/>
				</g>
				<g>
					<path fill="#292E3F" d="M406.4,90.2c-6.2-8-10.1-11.4-15.4-15.3c-2.7-2-6.2-2.8-9.5-1.9c-16.2,4.3-6.4,16.9-4.2,20.2
						c1,1.4,9.4,8.2,14,11.1c5.2,3.3,14.5,11.6,24.1,9.2c4.9-1.2,15.1-22.5,16.9-32.4c-2.8-3.4-6.5-5.3-8.7-5.9
						c-1.9,2.5-11.7,17.9-13.2,19.9C408.3,92.6,407.5,91.5,406.4,90.2z"/>
				</g>
			</g>
			<g>
				<path fill="#311B0B" d="M389.2,23.5c-0.8-0.9-3.1-2.7-5-3.5c-16.3-6.5-26.9,4.2-28.9,13.7c-3.4,16.1,4,26.8,4.5,30.6
					c0.9,6.1-6.1,9.7-4.1,16.5c2.1,6.9,12.6,6.1,15.6,0.4c2.1-3.9-0.1-8.2,0.2-12.5c0.2-3.8,8.2-4.6,11-13.3v0
					c-2.5-1.8-2.9-3.5-2.4-5.5c0.5-1.5,1.3-2.2,1.7-2.4c1.9-1,2.2,1.8,3.1,1.6c0.9-0.3,1-0.8,1.2-2.7c0.2-1.4,1.6-1.4,3.2-4.1
					c2.3-3.1,3.3-6.9,4.3-7.5C393.5,30.4,391.6,26,389.2,23.5z"/>
			</g>
			<g>
				<path fill="#171C2B" d="M410.6,95.1c0.5,0.3,2.4,1.7,3,2.4c0.2-1.1-0.4-3.4-1.7-4.3C411.5,93.8,410.6,95.1,410.6,95.1z"/>
			</g>
			<g>
				
					<rect x="440.5" y="102.3" transform="matrix(0.4871 0.8734 -0.8734 0.4871 327.725 -351.8077)" fill="#4B515B" width="45.8" height="1.5"/>
			</g>
			<g>
				<g>
					<polygon fill="#535A63" points="495,171.3 458.2,150.1 458.2,147.5 495,168.8 					"/>
				</g>
				<g>
					<g>
						<polygon fill="#535A63" points="476.6,133.7 458.2,123.1 458.2,125.6 476.6,136.3 						"/>
					</g>
					<g>
						<polygon fill="#535A63" points="480.9,136.2 480.9,138.8 495,146.9 495,144.4 						"/>
					</g>
				</g>
				<g>
					<g>
						<polygon fill="#535A63" points="470.5,138.4 458.2,131.2 458.2,133.8 470.5,140.9 						"/>
					</g>
					<g>
						<polygon fill="#535A63" points="474.5,140.7 474.5,143.2 495,155 495,152.5 						"/>
					</g>
				</g>
				<g>
					<g>
						<polygon fill="#535A63" points="482.2,153.3 458.2,139.4 458.2,141.9 482.2,155.8 						"/>
					</g>
					<g>
						<polygon fill="#535A63" points="485.1,155 485.1,157.5 495,163.2 495,160.6 						"/>
					</g>
				</g>
				<g>
					<g>
						<polygon fill="#535A63" points="473.3,164.4 458.2,155.7 458.2,158.2 473.3,167 						"/>
					</g>
					<g>
						<polygon fill="#535A63" points="478.6,167.5 478.6,170 495,179.5 495,176.9 						"/>
					</g>
				</g>
			</g>
			<g>
				<g>
					<polygon fill="#535A63" points="448.3,207.7 411.5,186.5 411.5,183.9 448.3,205.2 					"/>
				</g>
				<g>
					<g>
						<polygon fill="#535A63" points="429.9,170.1 411.5,159.5 411.5,162 429.9,172.7 						"/>
					</g>
					<g>
						<polygon fill="#535A63" points="434.2,172.6 434.2,175.2 448.3,183.3 448.3,180.8 						"/>
					</g>
				</g>
				<g>
					<g>
						<polygon fill="#535A63" points="423.8,174.8 411.5,167.6 411.5,170.2 423.8,177.3 						"/>
					</g>
					<g>
						<polygon fill="#535A63" points="427.8,177.1 427.8,179.6 448.3,191.4 448.3,188.9 						"/>
					</g>
				</g>
				<g>
					<g>
						<polygon fill="#535A63" points="431.3,187.2 411.5,175.8 411.5,178.3 431.3,189.8 						"/>
					</g>
					<g>
						<polygon fill="#535A63" points="434.2,188.9 434.2,191.5 448.3,199.6 448.3,197 						"/>
					</g>
				</g>
			</g>
			<g>
				<rect x="430" y="99.1" fill="#4B515B" width="1.5" height="57.8"/>
			</g>
			<g>
				<g>
					<path fill="#4B515B" d="M529.2,84.4c-0.3,0-0.7-0.1-1-0.3l-39.6-22.9c-1-0.6-1.7-1.9-1.7-3.2V32.6c0-0.8,0.3-1.5,0.9-1.8
						c0.5-0.3,1.2-0.3,1.8,0.1l39.6,22.9c1,0.6,1.7,1.9,1.7,3.2v25.4c0,0.8-0.3,1.5-0.9,1.8C529.8,84.3,529.5,84.4,529.2,84.4z
						 M488.9,32.8v25.3c0,0.6,0.4,1.2,0.7,1.4L529,82.2V56.9c0-0.6-0.4-1.2-0.7-1.4L488.9,32.8z"/>
				</g>
				<g>
					<polygon fill="#4B515B" points="508.5,59.4 487.1,31.6 488.7,30.4 509.4,57.3 529.8,54.3 530.1,56.3 					"/>
				</g>
			</g>
		</g>
		<g>
			<g>
				<g>
					<g enable-background="new    ">
						<g>
							<g>
								<g>
									<polygon fill="#C8A376" points="252,382.8 252,403.7 333.9,451.3 333.9,430.4 									"/>
								</g>
							</g>
						</g>
						<g>
							<g>
								<g>
									<polygon fill="#A48157" points="333.9,430.4 333.9,451.3 416.3,403.7 416.3,382.8 									"/>
								</g>
							</g>
						</g>
						<g>
							<g>
								<g>
									<polygon fill="#E3C095" points="252,382.8 333.9,430.4 416.3,382.8 334.4,335.2 									"/>
								</g>
							</g>
						</g>
					</g>
				</g>
				<g>
					<g>
						<g>
							<g>
								<polygon fill="#6B573F" points="265.9,407.3 265.9,408.4 255.6,402.4 255.6,401.4 								"/>
							</g>
						</g>
					</g>
					<g>
						<g>
							<g>
								<polygon fill="#6B573F" points="260.8,395.3 265.9,404.2 262.3,402.2 262.3,404.8 260.8,403.9 259.2,403 259.2,400.4 
									255.6,398.3 								"/>
							</g>
						</g>
					</g>
				</g>
				<g>
					<g enable-background="new    ">
						<g>
							<g>
								<g>
									<polygon fill="#C5C5C5" points="259.1,381.8 259.1,382.2 275.7,391.9 275.7,391.5 									"/>
								</g>
							</g>
						</g>
						<g>
							<g>
								<g>
									<polygon fill="#898989" points="275.7,391.5 275.7,391.9 292.5,382.2 292.5,381.8 									"/>
								</g>
							</g>
						</g>
						<g>
							<g>
								<g>
									<polygon fill="#DCDCDC" points="259.1,381.8 275.7,391.5 292.5,381.8 275.8,372.1 									"/>
								</g>
							</g>
						</g>
					</g>
				</g>
				<g>
					<g enable-background="new    ">
						<g>
							<g>
								<g>
									<polygon fill="#888888" points="377.8,425 385.6,420.4 385.7,400.5 377.8,405 									"/>
								</g>
							</g>
						</g>
						<g>
							<g>
								<g>
									<polygon fill="#F2F2F2" points="377.8,405 385.7,400.5 303.7,353.1 295.8,357.7 									"/>
								</g>
							</g>
						</g>
						<g>
							<g>
								<g>
									<polygon fill="#C5C5C5" points="295.8,357.7 295.8,358.3 377.3,405.4 377.2,424.7 377.8,425 377.8,405 									"/>
								</g>
							</g>
						</g>
					</g>
				</g>
			</g>
			<g>
				<g>
					<g enable-background="new    ">
						<g>
							<g>
								<g>
									<polygon fill="#C8A376" points="253.8,361 253.8,381.9 335.7,429.5 335.7,408.6 									"/>
								</g>
							</g>
						</g>
						<g>
							<g>
								<g>
									<polygon fill="#A48157" points="335.7,408.6 335.7,429.5 418.1,381.9 418.1,361 									"/>
								</g>
							</g>
						</g>
						<g>
							<g>
								<g>
									<polygon fill="#E3C095" points="253.8,361 335.7,408.6 418.1,361 336.2,313.4 									"/>
								</g>
							</g>
						</g>
					</g>
				</g>
				<g>
					<g>
						<g>
							<g>
								<polygon fill="#6B573F" points="267.7,385.5 267.7,386.5 257.4,380.6 257.4,379.6 								"/>
							</g>
						</g>
					</g>
					<g>
						<g>
							<g>
								<polygon fill="#6B573F" points="262.6,373.5 267.8,382.4 264.2,380.4 264.1,383 262.6,382.1 261,381.2 261,378.5 
									257.4,376.5 								"/>
							</g>
						</g>
					</g>
				</g>
				<g>
					<g enable-background="new    ">
						<g>
							<g>
								<g>
									<polygon fill="#C5C5C5" points="260.9,360 260.9,360.4 277.5,370.1 277.5,369.7 									"/>
								</g>
							</g>
						</g>
						<g>
							<g>
								<g>
									<polygon fill="#898989" points="277.5,369.7 277.5,370.1 294.3,360.4 294.3,360 									"/>
								</g>
							</g>
						</g>
						<g>
							<g>
								<g>
									<polygon fill="#DCDCDC" points="260.9,360 277.5,369.7 294.3,360 277.6,350.3 									"/>
								</g>
							</g>
						</g>
					</g>
				</g>
				<g>
					<g enable-background="new    ">
						<g>
							<g>
								<g>
									<polygon fill="#888888" points="379.6,403.2 387.4,398.6 387.5,378.7 379.6,383.2 									"/>
								</g>
							</g>
						</g>
						<g>
							<g>
								<g>
									<polygon fill="#F2F2F2" points="379.6,383.2 387.5,378.7 305.5,331.3 297.6,335.9 									"/>
								</g>
							</g>
						</g>
						<g>
							<g>
								<g>
									<polygon fill="#C5C5C5" points="297.6,335.9 297.6,336.5 379.1,383.6 379,402.8 379.6,403.2 379.6,383.2 									"/>
								</g>
							</g>
						</g>
					</g>
				</g>
			</g>
		</g>
		<g>
			<g>
				<g enable-background="new    ">
					<g>
						<g>
							<g>
								<polygon fill="#A48157" points="659.2,326.8 659.1,358.7 534.5,431.1 534.6,399.3 								"/>
							</g>
						</g>
					</g>
					<g>
						<g>
							<g>
								<polygon fill="#C8A376" points="534.6,399.3 534.5,431.1 409,358.7 409.1,326.8 								"/>
							</g>
						</g>
					</g>
					<g>
						<g>
							<g>
								<polygon fill="#E3C095" points="659.2,326.8 534.6,399.3 409.1,326.8 533.7,254.4 								"/>
							</g>
						</g>
					</g>
				</g>
			</g>
			<g>
				<g>
					<g>
						<g>
							<polygon fill="#6B573F" points="638,364.2 638,365.7 653.7,356.7 653.7,355.1 							"/>
						</g>
					</g>
				</g>
				<g>
					<g>
						<g>
							<polygon fill="#6B573F" points="645.8,345.9 638,359.5 643.4,356.3 643.5,360.3 645.8,359 648.2,357.6 648.2,353.6 
								653.7,350.4 							"/>
						</g>
					</g>
				</g>
			</g>
			<g>
				<g enable-background="new    ">
					<g>
						<g>
							<g>
								<polygon fill="#C5C5C5" points="648.4,325.3 648.4,325.9 623.1,340.7 623.1,340 								"/>
							</g>
						</g>
					</g>
					<g>
						<g>
							<g>
								<polygon fill="#898989" points="623.1,340 623.1,340.7 597.6,325.9 597.6,325.3 								"/>
							</g>
						</g>
					</g>
					<g>
						<g>
							<g>
								<polygon fill="#DCDCDC" points="648.4,325.3 623.1,340 597.6,325.3 622.9,310.6 								"/>
							</g>
						</g>
					</g>
				</g>
			</g>
			<g>
				<g enable-background="new    ">
					<g>
						<g>
							<g>
								<polygon fill="#C5C5C5" points="467.7,391 455.7,384.1 455.7,353.7 467.6,360.7 								"/>
							</g>
						</g>
					</g>
					<g>
						<g>
							<g>
								<polygon fill="#F2F2F2" points="467.6,360.7 455.7,353.7 580.5,281.7 592.5,288.6 								"/>
							</g>
						</g>
					</g>
					<g>
						<g>
							<g>
								<polygon fill="#C5C5C5" points="592.5,288.6 592.5,289.6 468.5,361.2 468.5,390.6 467.7,391 467.6,360.7 								"/>
							</g>
						</g>
					</g>
				</g>
			</g>
		</g>
	</g>
	<g>
		<g>
			<g>
				<polygon fill="#CE9328" points="548.3,382.7 484.1,347.3 484.3,346.7 529.7,319.6 593.9,355 				"/>
				<polyline fill="#CE9328" points="529.7,319.6 543.2,316.8 598.3,347.3 593.8,355 				"/>
				<polygon fill="#FFCF5A" points="548.4,382.1 484.2,346.7 529.8,319 594,354.4 				"/>
			</g>
		</g>
		<polygon fill="#FFFFFF" points="516.1,356.2 498.2,346 505.9,340.8 523.8,351 		"/>
	</g>
</g>
</svg>
