<?xml version="1.0" encoding="utf-8"?>
<!-- Generator: Adobe Illustrator 23.0.4, SVG Export Plug-In . SVG Version: 6.00 Build 0)  -->
<svg version="1.1" id="Слой_1" xmlns="http://www.w3.org/2000/svg" xmlns:xlink="http://www.w3.org/1999/xlink" x="0px" y="0px"
	 viewBox="0 0 186 166" style="enable-background:new 0 0 186 166;" xml:space="preserve">
<style type="text/css">
	.st0{opacity:0.4;fill:#ADA6A3;enable-background:new    ;}
	.st1{fill:#D2CFCC;}
	.st2{fill:#F8F5F4;}
	.st3{fill-rule:evenodd;clip-rule:evenodd;fill:#E9E6E6;}
	.st4{fill:#2D2B29;}
	.st5{fill:#B7BBBC;}
	.st6{fill-rule:evenodd;clip-rule:evenodd;fill:#CFD2D3;}
	.st7{fill:#5E78E5;}
	.st8{fill-rule:evenodd;clip-rule:evenodd;fill:#788EFF;}
	.st9{fill:#92ACFF;}
	.st10{fill:#1E1B19;}
	.st11{fill-rule:evenodd;clip-rule:evenodd;fill:#2D2B29;}
	.st12{fill:#373431;}
</style>
<g>
	<g>
		<path class="st0" d="M160.6,101.6l-48.8-26.8l-59.5,34.4l66.6,38.5h49.5L160.6,101.6z M134.8,110.6L85.9,83.8l-59.5,34.4L93,156.6
			h49.5L134.8,110.6z M108.8,119.6L60,92.7L0.5,127.1l66.6,38.5h49.5L108.8,119.6z"/>
		<path class="st1" d="M184,35.2l0,102.4l-59.9-34.6l0-102.4L184,35.2z"/>
		<path class="st2" d="M182.4,118.4l0-79.1L124.6,5.9l0,97.8l43.3,25L182.4,118.4z M181.5,119.1l0-79.2L123.7,6.4l0,97.8l43.4,25
			L181.5,119.1z M180.6,119.8l0-79.4L122.7,7l0,97.8l43.4,25.1L180.6,119.8z M179.6,120.5l0-79.5L121.8,7.5l0,97.8l43.5,25.1
			L179.6,120.5z M178.7,121.2l0-79.7L120.8,8.1l0,97.8l43.5,25.1L178.7,121.2z M177.7,121.8l0-79.8L119.9,8.6l-0.1,97.8l43.6,25.2
			L177.7,121.8z M162.7,132l14.1-9.5l0-80L118.9,9.1l0,97.8l43.6,25.2L162.7,132z M162.7,132l13.2-8.8l0-80.1L118,9.7l0,97.8
			l43.7,25.2L162.7,132z M162.7,132l12.2-8.2l0-80.2l-57.9-33.4l0,97.8l43.7,25.2L162.7,132z M162.7,132l11.3-7.5l0-80.3l-57.9-33.4
			l0,97.8l43.7,25.2L162.7,132z M162.7,132l10.4-6.9l0-80.4l-57.9-33.4l0,97.8l43.8,25.3L162.7,132z M162.7,132l9.4-6.2l0-80.5
			l-57.9-33.4l0,97.8l43.8,25.3L162.7,132z M162.7,132l8.5-5.6l0-80.6l-57.9-33.4l0,97.8l43.8,25.3L162.7,132z M162.7,132l7.5-4.9
			l0-80.7L112.3,13l0,97.8l43.9,25.3L162.7,132z"/>
		<path class="st1" d="M107.8,10.2l0,102.4l60.7,35l0-102.4L107.8,10.2z"/>
		<path class="st3" d="M185.7,35.2l0,102.4l-17.2,10l0-102.4L185.7,35.2z M181.9,115.1c0-2.4-1.8-3.4-3.9-2.2
			c-2.1,1.2-3.8,4.2-3.8,6.7c0,2.4,1.7,3.4,3.9,2.2C180.1,120.6,181.9,117.6,181.9,115.1z"/>
		<path class="st2" d="M182.9,102.2l-11.4,6.6V51.8l11.4-6.6V102.2z"/>
		<path class="st4" d="M178,121.8c-2.1,1.2-3.9,0.2-3.9-2.2c0-2.4,1.7-5.4,3.8-6.7c2.1-1.2,3.9-0.2,3.9,2.2
			C181.9,117.6,180.1,120.6,178,121.8z"/>
		<path class="st5" d="M180.9,113.3l-0.6-0.4c0.6,0.3,1,1.1,1,2.2c0,2.1-1.5,4.7-3.3,5.8c-0.9,0.5-1.8,0.6-2.4,0.2l0.6,0.4
			c0.6,0.4,1.5,0.3,2.4-0.2c1.9-1.1,3.4-3.7,3.4-5.8C181.9,114.4,181.5,113.7,180.9,113.3z M180.8,112c-0.8-0.4-1.8-0.4-2.9,0.3
			c-2.3,1.3-4.1,4.5-4.1,7.2c0,1.3,0.5,2.2,1.2,2.7l0.6,0.4c-0.7-0.4-1.2-1.3-1.2-2.7c0-2.6,1.8-5.8,4.1-7.2
			c1.2-0.7,2.2-0.7,2.9-0.3L180.8,112z"/>
		<path class="st6" d="M182.6,115c0,2.6-1.9,5.8-4.1,7.1c-2.3,1.3-4.1,0.3-4.1-2.4s1.8-5.8,4.1-7.2
			C180.8,111.3,182.6,112.4,182.6,115z M181.9,115.5c0-2.1-1.5-3-3.4-1.9c-1.8,1.1-3.3,3.7-3.3,5.8c0,2.1,1.5,3,3.4,1.9
			C180.4,120.2,181.9,117.6,181.9,115.5z"/>
		<path class="st2" d="M125,0.2l-0.8,0.5L184,35.2l-15.6,9L108.6,9.7l-0.8,0.5l60.7,35l17.2-10L125,0.2z"/>
		<path class="st7" d="M158.1,44.2l0,102.4L98.2,112l0-102.4L158.1,44.2z"/>
		<path class="st2" d="M156.5,127.3l0-79.1L98.7,14.9l0,97.8l43.3,25L156.5,127.3z M155.6,128.1l0-79.2L97.7,15.4l0,97.8l43.4,25
			L155.6,128.1z M154.6,128.8l0-79.4L96.8,15.9l0,97.8l43.4,25.1L154.6,128.8z M153.7,129.4l0-79.5L95.9,16.5l0,97.8l43.5,25.1
			L153.7,129.4z M152.8,130.1l0-79.7L94.9,17l0,97.8l43.5,25.1L152.8,130.1z M151.8,130.8l0-79.8L94,17.6l0,97.8l43.6,25.2
			L151.8,130.8z M136.8,141l14.1-9.5l0-80L93,18.1l0,97.8l43.6,25.2L136.8,141z M136.8,141l13.2-8.8l0-80.1L92.1,18.7l0,97.8
			l43.7,25.2L136.8,141z M136.8,141l12.2-8.1l0-80.2L91.2,19.2L91.1,117l43.7,25.2L136.8,141z M136.8,141l11.3-7.5l0-80.3L90.2,19.8
			l0,97.8l43.7,25.3L136.8,141z M136.8,141l10.4-6.9l0-80.4L89.3,20.3l0,97.8l43.8,25.3L136.8,141z M136.8,141l9.4-6.2l0-80.5
			L88.3,20.8l0,97.8l43.8,25.3L136.8,141z M136.8,141l8.5-5.6l0-80.6L87.4,21.4l0,97.8l43.8,25.3L136.8,141z M136.8,141l7.5-4.9
			l0-80.7L86.4,21.9l-0.1,97.8l43.9,25.3L136.8,141z"/>
		<path class="st7" d="M81.8,19.1l0,102.4l60.7,35l0-102.4L81.8,19.1z"/>
		<path class="st8" d="M159.8,44.2l0,102.4l-17.2,10l0-102.4L159.8,44.2z M155.9,124.1c0-2.4-1.7-3.4-3.9-2.2
			c-2.1,1.2-3.9,4.2-3.8,6.7c0,2.4,1.7,3.4,3.9,2.2C154.2,129.5,155.9,126.6,155.9,124.1z"/>
		<path class="st2" d="M157,111.1l-11.4,6.6V60.8l11.4-6.6V111.1z"/>
		<path class="st4" d="M152.1,130.8c-2.1,1.2-3.8,0.2-3.9-2.2c0-2.4,1.7-5.4,3.8-6.7c2.1-1.2,3.9-0.2,3.9,2.2
			C155.9,126.6,154.2,129.5,152.1,130.8z"/>
		<path class="st5" d="M155,122.3l-0.6-0.4c0.6,0.3,1,1.1,1,2.2c0,2.1-1.5,4.7-3.4,5.8c-0.9,0.5-1.8,0.6-2.4,0.2l0.6,0.4
			c0.6,0.3,1.4,0.3,2.4-0.2c1.9-1.1,3.4-3.7,3.4-5.8C155.9,123.4,155.6,122.7,155,122.3z M154.9,121c-0.8-0.4-1.8-0.4-2.9,0.3
			c-2.3,1.3-4.1,4.5-4.1,7.1c0,1.3,0.5,2.2,1.2,2.7l0.6,0.4c-0.7-0.4-1.2-1.3-1.2-2.7c0-2.6,1.8-5.8,4.1-7.1
			c1.1-0.7,2.2-0.7,2.9-0.3L154.9,121z"/>
		<path class="st6" d="M156.7,124c0,2.6-1.8,5.8-4.1,7.1c-2.3,1.3-4.1,0.3-4.1-2.4c0-2.6,1.8-5.8,4.1-7.1
			C154.9,120.3,156.7,121.4,156.7,124z M155.9,124.5c0-2.1-1.5-3-3.4-1.9c-1.9,1.1-3.4,3.7-3.3,5.8c0,2.1,1.5,3,3.4,1.9
			C154.4,129.2,155.9,126.6,155.9,124.5z"/>
		<path class="st9" d="M99.1,9.1l-0.8,0.5l59.9,34.6l-15.6,9L82.7,18.7l-0.8,0.5l60.7,35.1l17.2-10L99.1,9.1z"/>
		<path class="st10" d="M132.2,53.2l0,102.4L72.3,121l0-102.4L132.2,53.2z"/>
		<path class="st2" d="M130.6,136.3l0-79.1L72.8,23.8l0,97.8l43.3,25L130.6,136.3z M129.7,137l0-79.2L71.8,24.4l-0.1,97.8l43.4,25
			L129.7,137z M128.7,137.7l0-79.4L70.9,24.9l0,97.8l43.4,25.1L128.7,137.7z M127.8,138.4l0-79.5L69.9,25.5l0,97.8l43.5,25.1
			L127.8,138.4z M126.8,139.1l0-79.7L69,26l0,97.8l43.5,25.1L126.8,139.1z M125.9,139.8l0-79.8L68.1,26.5l0,97.8l43.6,25.2
			L125.9,139.8z M110.8,150l14.1-9.5l0-80L67.1,27.1l-0.1,97.8l43.7,25.2L110.8,150z M110.8,150l13.2-8.8l0-80.1L66.2,27.6l0,97.8
			l43.7,25.2L110.8,150z M110.8,150l12.2-8.1l0-80.2L65.2,28.2l0,97.8l43.7,25.2L110.8,150z M110.8,150l11.3-7.5l0-80.3L64.3,28.7
			l0,97.8l43.7,25.3L110.8,150z M110.8,150l10.4-6.9l0-80.4L63.3,29.3l0,97.8l43.8,25.3L110.8,150z M110.8,150l9.4-6.2l0-80.5
			L62.4,29.8l0,97.8l43.8,25.3L110.8,150z M110.8,150l8.5-5.6l0-80.6L61.5,30.4l0,97.8l43.8,25.3L110.8,150z M110.8,150l7.5-4.9
			l0-80.7L60.5,30.9l0,97.8l43.9,25.3L110.8,150z"/>
		<path class="st10" d="M55.9,28.1l0,102.4l60.7,35.1L117.1,63L55.9,28.1z"/>
		<path class="st11" d="M133.9,53.2l0,102.4l-17.2,10l0-102.4L133.9,53.2z M130,133.1c0-2.4-1.7-3.4-3.9-2.2
			c-2.1,1.2-3.8,4.2-3.8,6.7c0,2.4,1.7,3.4,3.9,2.2C128.3,138.5,130,135.5,130,133.1z"/>
		<path class="st2" d="M131.1,120.1l-11.4,6.6V69.7l11.4-6.6V120.1z"/>
		<path class="st4" d="M126.7,139.8c-2.1,1.2-3.9,0.2-3.9-2.2c0-2.4,1.7-5.4,3.8-6.7c2.1-1.2,3.9-0.2,3.9,2.2
			C130.5,135.6,128.8,138.6,126.7,139.8z"/>
		<path class="st5" d="M129.1,131.3l-0.6-0.4c0.6,0.3,1,1.1,1,2.2c0,2.1-1.5,4.7-3.3,5.8c-0.9,0.5-1.8,0.6-2.4,0.2l0.6,0.4
			c0.6,0.3,1.5,0.3,2.4-0.2c1.8-1.1,3.4-3.7,3.3-5.8C130,132.4,129.6,131.6,129.1,131.3z M129,130c-0.8-0.4-1.8-0.4-2.9,0.3
			c-2.3,1.3-4.1,4.5-4.1,7.1c0,1.3,0.5,2.2,1.2,2.7l0.6,0.4c-0.8-0.4-1.2-1.3-1.2-2.7c0-2.6,1.8-5.8,4.1-7.1c1.2-0.7,2.2-0.7,3-0.3
			L129,130z"/>
		<path class="st6" d="M130.8,133c0,2.6-1.8,5.8-4.1,7.1c-2.3,1.3-4.1,0.3-4.2-2.4c0-2.6,1.8-5.8,4.1-7.1
			C128.9,129.3,130.8,130.4,130.8,133z M130,133.4c0-2.1-1.5-3-3.4-1.9c-1.8,1.1-3.3,3.7-3.3,5.8c0,2.1,1.5,3,3.4,1.9
			C128.5,138.1,130,135.6,130,133.4z"/>
		<path class="st12" d="M73.1,18.1l-0.8,0.5l59.9,34.6l-15.6,9L56.8,27.6l-0.8,0.5l60.7,35l17.2-10L73.1,18.1z"/>
	</g>
</g>
</svg>
