<?xml version="1.0" encoding="utf-8"?>
<!-- Generator: Adobe Illustrator 23.0.4, SVG Export Plug-In . SVG Version: 6.00 Build 0)  -->
<svg version="1.1" id="Слой_1" xmlns="http://www.w3.org/2000/svg" xmlns:xlink="http://www.w3.org/1999/xlink" x="0px" y="0px"
	 viewBox="0 0 511 508" style="enable-background:new 0 0 511 508;" xml:space="preserve">
<style type="text/css">
	.st0{opacity:0.502;fill-rule:evenodd;clip-rule:evenodd;fill:#E4E4E4;enable-background:new    ;}
	.st1{opacity:0.502;fill:#B0B0B0;enable-background:new    ;}
	.st2{opacity:0.502;fill:#33E0FF;enable-background:new    ;}
	.st3{fill:#FFBEA6;}
	.st4{fill:#FF9C7D;}
	.st5{fill:#AB1F49;}
	.st6{fill:url(#SVGID_1_);}
	.st7{opacity:0.502;fill:#AB1F49;enable-background:new    ;}
	.st8{opacity:0.102;enable-background:new    ;}
	.st9{fill:#111114;}
	.st10{fill:#2341A8;}
	.st11{fill:#365AC7;}
	.st12{fill:#3A59B5;}
	.st13{fill:url(#SVGID_2_);}
	.st14{fill:#FFA8AA;}
	.st15{fill:none;stroke:#AB1F49;stroke-width:1.376;stroke-linecap:round;stroke-linejoin:round;}
	.st16{fill:none;stroke:#221101;stroke-width:1.464;stroke-linecap:round;}
	.st17{fill:#221101;}
	.st18{fill:#EA9078;}
	.st19{fill:#402C22;}
	.st20{fill:none;stroke:#EA9078;stroke-width:0.688;stroke-linecap:round;stroke-linejoin:round;}
	.st21{fill:url(#SVGID_3_);}
	.st22{fill:none;stroke:#FFA8AA;stroke-width:1.41;stroke-linecap:round;stroke-linejoin:round;}
	.st23{fill:url(#SVGID_4_);}
	.st24{fill:none;stroke:#062375;stroke-width:1.376;stroke-linecap:round;stroke-linejoin:round;}
	.st25{fill-rule:evenodd;clip-rule:evenodd;fill:#33E0FF;}
	.st26{fill:#FFFFFF;}
	.st27{fill:#263238;}
	.st28{fill-rule:evenodd;clip-rule:evenodd;fill:#E4E4E4;}
	.st29{fill:#B0B0B0;}
	.st30{fill-rule:evenodd;clip-rule:evenodd;fill:#FFFFFF;}
	.st31{fill:none;stroke:#FFFFFF;stroke-width:2.076;stroke-linecap:round;stroke-linejoin:round;}
</style>
<g>
	<g>
		<path class="st0" d="M71.2,7.9l76.2,44.4c13.7,8,24.6,27.1,24.5,42.8c-0.1,15.6-11.2,21.8-24.8,14c0,0-0.1-0.1-0.1-0.1L70.8,64.6
			c-13.7-8-24.6-27.1-24.5-42.8C46.4,6.3,57.5,0,71.1,7.9C71.1,7.9,71.2,7.9,71.2,7.9z M94.7,48.8c0-10.8-7.6-23.9-17-29.4
			c-9.4-5.4-17-1.1-17.1,9.7c0,10.8,7.6,24,17,29.4C87,64,94.7,59.6,94.7,48.8z M157.6,74.8l0-4.2l-53.7-31l0,4.2L157.6,74.8z
			 M157.6,84l0-4.2l-53.7-31l0,4.2L157.6,84z M157.6,93.2l0-4.2l-53.7-31l0,4.2L157.6,93.2z M139.4,91.8l0-4.2l-35.5-20.5l0,4.2
			L139.4,91.8z"/>
		<path class="st1" d="M157.6,70.6l-53.7-31l0,4.2l53.7,31L157.6,70.6z M157.6,79.8l-53.7-31l0,4.2l53.7,31L157.6,79.8z M157.6,89
			l-53.7-31l0,4.2l53.7,31L157.6,89z M139.4,87.7l-35.6-20.5l0,4.2l35.5,20.5L139.4,87.7z"/>
		<path class="st2" d="M77.7,19.4c-9.4-5.4-17-1.1-17.1,9.7c0,10.8,7.6,24,17,29.4c9.4,5.4,17,1.1,17.1-9.7
			C94.7,38,87.1,24.8,77.7,19.4z"/>
		<path class="st0" d="M37.5,154.2l114.1,66.5c20.4,11.9,36.9,40.6,36.7,64c-0.2,23.4-16.8,32.7-37.1,21c-0.1,0-0.1-0.1-0.2-0.1
			L36.9,239.1C16.5,227.1,0,198.5,0.2,175c0.2-23.4,16.8-32.7,37.1-21C37.4,154.1,37.5,154.1,37.5,154.2z M150,244.6l0-6.2L38.7,174
			l0,6.2L150,244.6z M150,258.3l0-6.2L38.7,187.8l0,6.2L150,258.3z M149.9,272l0-6.2L38.6,201.5l0,6.2L149.9,272z M122.7,270l0-6.2
			l-57-32.9l0,6.2L122.7,270z"/>
		<path class="st1" d="M150,238.3L38.7,174l0,6.2L150,244.6L150,238.3z M150,252L38.7,187.8l0,6.2L150,258.3L150,252z M149.9,265.8
			L38.6,201.5l0,6.2L149.9,272L149.9,265.8z M122.8,263.8l-57-32.9l0,6.2l57,32.9L122.8,263.8z"/>
		<path class="st3" d="M166.9,216.3c0,0-0.5-9.7,0.1-11.6c0.6-2,2.9-10.3,8.5-12.6c3-1.2,1.8,3.1-0.4,8.1c-1,2.3-2.2,3.7-1.2,7.9
			c0.7,3.1,0.7,8,0.4,10.3C174,220.7,166.9,216.3,166.9,216.3z"/>
		<path class="st4" d="M174.4,217.9c0.3-2.3-0.1-7.1,1.1-9.9c1.4-3.4-1.5-5.6-0.5-7.9c1.8-3.9,2.8-7.5,1.8-8.2
			c-1.2,3.1-5,2.9-5.8,11.7c-0.3,3.2,0.4,10.9,1.2,14.6C173.9,218.5,174.3,218.8,174.4,217.9z"/>
		<path class="st3" d="M172,218c0,0,4.3-9.5,5.2-12.7c0.9-3.1,0.5-5.8-0.1-5.4c-0.6,0.3-3.8,9.4-6.1,7.1
			C169.8,205.8,172.4,216.4,172,218z"/>
		<path class="st5" d="M166.8,214.2c-0.2,0.8-0.2,1.6-0.3,2.5c0.3,0.2,0.7,0.2,1.1,0.3c1.5,0.4,3,0.7,4.5,1.1
			c0.8,0.2,1.7,0.4,2.5,0.2c0.2-1,0.4-2.4,0.3-3.2C172.5,213.6,169.4,213.7,166.8,214.2z"/>
		
			<linearGradient id="SVGID_1_" gradientUnits="userSpaceOnUse" x1="178.4277" y1="287.1235" x2="125.6447" y2="231.2645" gradientTransform="matrix(1 0 0 -1 0 510)">
			<stop  offset="0" style="stop-color:#C73053"/>
			<stop  offset="1" style="stop-color:#E0888E"/>
		</linearGradient>
		<path class="st6" d="M166.4,216.8c-0.8,3.3-5.9,23.2-5.9,23.2s-38.5,21.6-36.8,29.8c0,0,2.3,11.8,14.2,5.4s32.8-21.7,34.7-29.5
			c1.4-6.1,2.5-22.1,2.6-27.8c0-0.1,0-0.1,0-0.2c-1.6-1-3.6-1.6-5.6-1.6C168.4,216.2,167.3,216.4,166.4,216.8z"/>
		<path class="st7" d="M154.8,254.8c-2.9-2.8-6.4-3.8-9.8-5.4c-10.5,6.9-22.4,15.8-21.4,20.4c0,0,2.3,11.8,14.2,5.4
			c6.1-3.3,14.7-9,21.7-14.8C158.2,258.4,156.6,256.5,154.8,254.8z"/>
		<path class="st8" d="M106.5,444.4c-22.2,12.9-22.4,33.7-0.3,46.5c22.1,12.8,58,12.8,80.3,0c22.2-12.8,22.4-33.7,0.2-46.5
			C164.7,431.5,128.8,431.5,106.5,444.4z"/>
		<path class="st9" d="M141,446.2c0,0,4.9,0.8,3.7,3.6c-1.2,2.9-6.9,7.2-7.6,9c-0.8,1.8-5.4,8.2-6.9,7.6s-5.4,0.3-4.9-7
			C125.8,452,134.4,445.9,141,446.2z M150.4,473.1c0,0-2.4,7,3.6,8.7c6,1.6,4.2-2.1,17.2,1.2s14.5-3.4,14.2-4.9
			c-0.3-1.5-9-4.2-11.8-4.9c-2.8-0.8-8.2-2.1-8.2-2.1h-15.4L150.4,473.1z"/>
		<path class="st10" d="M125.9,338.9c0,0-0.1,53.4-0.1,58.2s-5.3,42.4-2.1,58.8c0,0,9.2,9.3,17.4,0c0,0,2.6-47.1,5-57.7
			c2.4-10.6,1.6-54.1,1.6-54.1L125.9,338.9z M142.1,344.9c0,0,2.1,38.4,4.3,65.5c0,0,1.4,53.9,2.6,61.6c0,0,17.4,4.3,19.1-3.9
			c0,0-0.4-47.4,0-57.3s1.5-48.6-2.4-64.5C161.7,330.4,142.1,344.9,142.1,344.9z"/>
		<path class="st11" d="M149,472c-1.3-7.8-2.6-61.6-2.6-61.6c-1.5-18.3-2.9-47.6-3.7-57.7l10.7,2.6c0,0,7.7,31.3,6.6,61.8
			c-0.9,23.6-1.3,46.8-1.4,56.1C153.8,473.2,149,472,149,472z"/>
		<path class="st12" d="M125.9,346.3c0,14.8-0.1,47.1-0.1,50.7c0,4.8-5.3,42.4-2.1,58.8c0,0,4.1,4.1,9.3,4.1
			c1.3-8.8-0.4-39.3,2.3-55c2.4-13.7,1-42.4,0.3-53.8C132.2,349.8,129.2,347.8,125.9,346.3z"/>
		<path class="st5" d="M125,339c1,1.7,2.5,3.6,4.3,4.6c12.1,7.1,27.2,9.1,40.6,2.8c-0.7-1.1-0.5-3.7-1.2-4.8
			c-0.2-0.3-4.3,0.1-4.8,0.1c-1.7,0-3.4-0.1-5.1-0.2c-3.4-0.2-6.8-0.6-10.2-1.2c-6.7-1.1-13.3-3-19.6-5.5c-1.5-0.6-3.3-2.2-4.3-0.4
			C123.9,335.8,124.2,337.7,125,339z"/>
		
			<linearGradient id="SVGID_2_" gradientUnits="userSpaceOnUse" x1="144.4986" y1="170.9375" x2="150.0886" y2="264.9475" gradientTransform="matrix(1 0 0 -1 0 510)">
			<stop  offset="0" style="stop-color:#FF8789"/>
			<stop  offset="1" style="stop-color:#FF436C"/>
		</linearGradient>
		<path class="st13" d="M126.2,255.2c-2.7,2.4-4.6,6.4-5.2,10.1c-1,5.7,0.2,11.5,1.4,17.1c1.4,6.7,3.4,13.4,4.6,20.1
			c1.2,6.4-1.9,14.7-3,21.1c-0.5,3-1,6.1-0.2,8.9c1.4,4.6,5.9,7.6,10.3,9.5c9.4,4,19.9,5.2,29.9,3.4c3.8-0.7,8.2-2.6,8.4-6.4
			c0.1-1.1-0.2-2.1-0.5-3.1c-2.1-8-4.3-15.2-4.6-23.4c-0.4-8.7-1-17.3-1-26c-0.2-5.2-0.5-10.7-2.7-15.4c-2.6-5.4-7.6-9.4-13-11.9
			c-4.8-2.2-9.9-2.8-14.9-4.6c-2-0.7-3.6-1.4-5.2-1.4C129.2,253.2,127.8,253.7,126.2,255.2z"/>
		<path class="st14" d="M138,295.2c0.9,5.7-0.7,10.3-3.5,10.3c-2.8,0-5.7-4.6-6.6-10.3c-0.9-5.7,0.7-10.3,3.5-10.3
			C134.2,285,137.1,289.6,138,295.2z"/>
		<path class="st7" d="M166.2,283.7c0-0.2,0-0.5,0-0.7c0-0.4-0.1-0.8-0.1-1.2c0-0.2,0-0.3,0-0.5c0-0.5-0.1-0.9-0.1-1.4
			c0-0.1,0-0.2,0-0.2c-0.3-2.1-0.7-4.3-1.4-6.3c-0.1,0.4-0.4,0.7-0.8,0.5c-8.3-2.4-11.7,4.3-13.3,11.3c-0.7,2.8-1.1,5.5-1.7,8.3
			c-0.1,0.7-0.3,1.4-0.5,2c-1.4,9.1-2.4,18.2,0.5,27.2c1.4,4.5,3.2,8.8,4.8,13.2c1.3,3.4,2.5,6.8,3.5,10.2c2.4-0.1,4.7-0.3,7-0.8
			c3-0.5,6.4-1.9,7.8-4.3c-1.9-8.3-3.9-16.4-4.3-24.9c-0.3-7.6-0.9-15.2-1.1-22.9c-0.1-2.3-0.1-4.6-0.1-6.9c0-0.6,0-1.1-0.1-1.7
			C166.3,284.4,166.3,284,166.2,283.7z"/>
		<path class="st15" d="M154.9,340.6c2.4-2.4,4-5.5,4.6-8.8"/>
		<path class="st7" d="M123.9,289.2c0.8,0.9,1.8,1.6,2.9,2.1c5.4,2.4,11.1-3.9,14.3-7.5c3-3.3,6.3-6.8,8.8-10.6
			c2.3-3.5,4.1-9.8,1.5-13.7c-0.2-0.1-0.5-0.2-0.7-0.4c-4.8-2.2-9.9-2.8-14.9-4.6c-3.6-1.3-6.1-2.6-9.6,0.5
			c-2.7,2.4-4.6,6.4-5.2,10.1c-1,5.7,0.2,11.5,1.4,17.1C122.9,284.6,123.4,286.9,123.9,289.2z"/>
		<path class="st4" d="M132.7,240c0,0,1.1,9.2-2.1,14.9c-2.9,5.2,18.8,10,19.3,5.1c0.1-0.5-4.1-8.4,1.1-17.8
			C153.8,237.3,132.7,240,132.7,240z"/>
		<path class="st3" d="M154.5,230.9c0-0.1-0.1-0.2-0.1-0.2c-0.2-0.4-0.5-0.7-0.7-1.1c-0.4-0.9-0.4-1.8-0.2-2.7c0,0,0,0,0-0.1
			c-0.9-3.5-2.1-6.8-3.5-10.1c-0.7-1.6-1.6-2.6-2.7-3.4c-1.4-1-3.2-1.3-5.4-1.5c-9.9-0.8-16.7,7.9-17.6,17.1
			c-0.4,3.6,0.7,7.2,2.7,10.2c5.6,8.7,17.5,13.2,27.1,8.6c0.9-0.4,2-1.1,2.2-2.2c0.3-1.2,0-2.3-0.2-3.4c-0.1-0.8,0.1-1.4,0.2-2.1
			c0.1-0.6-0.1-0.7-0.4-0.8c-0.1-0.3,0.2-0.7,0.3-0.9c-0.8-2-1.4-4.1-1.7-6.2C154.6,231.5,154.6,231.2,154.5,230.9z"/>
		<path class="st16" d="M152,227.7c0.6-0.3,1.2-0.7,1.8-1"/>
		<path class="st3" d="M154.2,230.4l3,3.2c0.3,0.3,0.2,0.7-0.1,1.1l-1.7,1.6L154.2,230.4z"/>
		<path class="st17" d="M153.6,229.4c0.2,0.7,0.2,1.3,0,1.4c-0.2,0-0.4-0.5-0.6-1.2c-0.2-0.7-0.2-1.3,0-1.4
			C153.1,228.2,153.4,228.8,153.6,229.4z"/>
		<path class="st18" d="M154.8,239.9l1.2-1.1c0.1-0.1,0.2-0.1,0.2,0c0.1,0.1,0.1,0.2,0,0.2c0,0,0,0,0,0l-0.1,0L154.8,239.9z"/>
		<path class="st4" d="M148,246.6c-2.3-2.9-3.3-6.3-6.4-8.6c-3.5-2.5-10.9-3.5-15.8-1.3c0.4,0.8,0.8,1.6,1.3,2.4
			c4.9,7.6,14.5,12,23.3,9.9C149.5,248.2,148.7,247.4,148,246.6z"/>
		<path class="st17" d="M150.3,210.9c0.4,0.2-0.4,1-0.6,1.1c-0.5,0.4-1.3,0.3-1.9,0c-1.3-0.6-2.2-1.3-3.7-1.7
			c-3.1-0.8-6.5-0.9-9.6-0.3c-4.3,0.8-8.4,3-11.5,6.1c-1,1-2,2.2-2.5,3.5c-0.5,1.4-0.5,3,0.3,4.2c-2.2,0.9-3.2,3.6-2.8,5.9
			c0.4,2.3,1.9,4.4,3.3,6.2c2.5,3.2,9.2,10.8,9.3,11c1.9,2.4,5.9,2.1,8.6,1.7c1.7-0.2,4.7-0.7,5.9-2c-0.1-0.2-0.1-0.4-0.3-0.6
			c-0.2-0.3-0.6-0.6-0.9-0.8c-4.4-3-6.8-6.2-3.1-7.9c1.5-0.7,5.7,2.9,6.4,1.3c0.8-1.9-2.1-3.5-1.7-5.3c0.2-0.8,0.6-1.5,0.7-2.3
			c0.2-1.1-0.2-2.2-0.6-3.2l-1.8-4.9c1.6-0.3,3.2-0.6,4.8-1.2c1.5-0.6,2.9-1.6,3.8-3C153.9,216.3,153,212.5,150.3,210.9z"/>
		<path class="st19" d="M121.5,229c0.2-0.4,0.4-0.9,0.6-1.3c0.6-1.3,1.3-2.5,1.9-3.7c0.1-0.3,0.5-0.4,0.8-0.3
			c2.5,0.7,5.2,1.5,7.7,0.1c1.6-0.9,2.3-2.4,3.4-3.8c1.1-1.4,2.2-2.5,4-2.9c2.2-0.6,4.4,0,6.6-0.2c2.4-0.2,4.9-1.3,5.6-3.9
			c0-0.1,0-0.2,0.1-0.4c-0.4-0.7-1-1.3-1.7-1.7c0.4,0.2-0.4,1-0.6,1.1c-0.5,0.4-1.3,0.3-1.9,0c-1.3-0.6-2.2-1.3-3.7-1.7
			c-3.1-0.8-6.5-0.9-9.6-0.3c-4.3,0.8-8.4,3-11.5,6.1c-1,1-2,2.2-2.5,3.5c-0.5,1.4-0.5,3,0.3,4.2c-2,0.8-3,3.1-2.9,5.2L121.5,229z"
			/>
		<path class="st3" d="M145.6,244.4c2.7-0.5,1.1-5,0.2-6.4c-0.8-1.2-2.1-2.4-3.5-2.8c-1.1-0.3-2.4,0-3.1,0.8c-0.7,0.8-0.8,2-0.6,3
			c0.3,1,0.9,1.9,1.7,2.6c0.9,0.9,2,1.7,3.2,2.3C144.2,244.3,144.9,244.6,145.6,244.4z"/>
		<path class="st20" d="M141.3,238.7c-0.1-0.3-0.2-0.7,0-0.9c0.3-0.4,0.8-0.3,1.1-0.1c0.7,0.3,1.7,0.9,1.9,1.7
			c-0.5,0.3-0.7,0.9-0.4,1.4c0.2,0.5,0.9,0.7,1.4,0.5"/>
		<path class="st4" d="M170.2,347.5c0,0.1,0,0.2,0,0.4c0.3,3.2,1,6.7-0.6,9.6c0.4,0.6,1.3,0.7,2,0.3c0.6-0.3,1.1-1,1.4-1.6
			c0.6-1.3,0.7-2.6,1.1-3.9c0.4-1.3,0.6-2.5,0.1-3.9c-0.4-0.9-1-1.7-1.9-2c-0.5-0.1-1-0.1-1.5,0.1
			C170.4,347,170.2,347.2,170.2,347.5z M183.3,356.6c-0.8-2.3-1.3-4.8-2.8-6.7c-2.2-2.7-5.6-5.3-7.3-8.5c-1.5,1.1-3.4,2.9-4,5.5
			c-0.2,0.8,0.7,1.5,1.1,2.1c0.7,0.9,1.4,1.9,2,2.9c1.1,2,1.9,4.2,2.3,6.4c0.2,1.2,0.4,2.5,1,3.5c0.9,1.5,2.6,2.2,4.2,2.8
			c1.2,0.5,2.5,0.9,3.7,0.4c0.2-0.1,0.4-0.3,0.5-0.4C184.1,361.9,184.3,359.4,183.3,356.6z"/>
		<path class="st3" d="M183.3,356.6c-0.8-2.3-1.3-4.8-2.8-6.7c-2.2-2.7-5.6-5.3-7.3-8.5c-1.5,1.1-3.4,2.9-4,5.5
			c-0.1,0.6,0.3,1.2,0.8,1.7c-0.1-0.2-0.2-0.5-0.3-0.8c-0.3-1,1.3-1.5,1.6-0.4c0.9,2.8,3.4,3.3,5.4,4.9c1.3,1.1,2.4,2.5,3.3,3.9
			c1.8,2.9,2.6,5.9,2.9,9.1c0.2,0,0.4-0.1,0.6-0.2c0.2-0.1,0.4-0.3,0.5-0.4C184.1,361.9,184.3,359.4,183.3,356.6z"/>
		<path class="st5" d="M169,351c0.3,0.4,0.5,0.8,0.8,1.2c3-0.1,6-1.4,8.2-3.6c0.6-0.6,1.2-1.4,1.2-2.3c0-0.7-0.5-1.3-0.8-1.9
			c-0.1-0.2-1.5-2.1-1.4-2.1c-1.4,1.2-3,2.1-4.6,3c-1.6,0.8-3.4,1.4-5,2.3C167.6,348.8,168.3,349.9,169,351z"/>
		
			<linearGradient id="SVGID_3_" gradientUnits="userSpaceOnUse" x1="161.6952" y1="148.0954" x2="168.8262" y2="268.0164" gradientTransform="matrix(1 0 0 -1 0 510)">
			<stop  offset="0" style="stop-color:#FF8789"/>
			<stop  offset="1" style="stop-color:#FF436C"/>
		</linearGradient>
		<path class="st21" d="M150.7,282.3c0,14.6-0.9,26.5,0.6,33.2c1.2,5.3,11.3,25.3,15.9,34.3c4.4,0.3,9.4-2.2,11.3-6L165,312.9
			c0,0,4.4-41.6-3.3-43c0,0-0.6-0.1-1.5-0.1C157.1,269.8,150.7,271.1,150.7,282.3z"/>
		<path class="st22" d="M152.1,263.5c3.8,2.7,8.9,6,9.9,10.7c1,4.7,0.4,9.1,0.1,13.8c-0.4,5.1-1.4,20.8-0.9,23.4
			c0.5,3,1.6,5.7,3,8.4c4.2,8.5,8.5,16.9,12.7,25.4"/>
		
			<linearGradient id="SVGID_4_" gradientUnits="userSpaceOnUse" x1="123.4943" y1="215.5088" x2="140.1523" y2="262.1508" gradientTransform="matrix(1 0 0 -1 0 510)">
			<stop  offset="0" style="stop-color:#FF8789"/>
			<stop  offset="1" style="stop-color:#FF436C"/>
		</linearGradient>
		<path class="st23" d="M123.9,252.2c-3.5,2-6.2,5.3-7.5,9c-2.2,6.4-0.4,13.7,3.6,19c1.9,2.5,4.5,4.6,7.5,5
			c4.3,0.5,8.1-2.5,11.3-5.4c4.4-3.9,8.9-7.9,12.5-12.6c1-1.3,1.9-2.8,2.2-4.4c0.3-1.6-0.2-3.5-1.6-4.4c-1.5-1-3.6-0.6-5.4-0.4
			c-4,0.5-8.2,0-11.9-1.7c-1.1-0.5-2.5-1-3-2.2c-0.4-1.3,0.6-2.9,0.6-4.6C129.4,250.4,126.7,250.6,123.9,252.2z"/>
		<path class="st5" d="M143.7,259.3c-3.5,0.2-8-0.2-11-2.3c-2-1.4-4.1-3.2-1.1-6.3c-2.9,1-7.4,3.2-8.9,5.2c-5,6.2,5.8,8.2,9.5,8.1
			c5.6,0,15.6-0.2,18.6-5.6C148.8,259.3,145.9,259.2,143.7,259.3z"/>
		<path class="st24" d="M156.2,360.8c3.5-1.6,6-5.2,6.2-9"/>
		<path class="st25" d="M262,7.6c28.8,16.8,51.9,57.1,51.7,90.1c-0.2,32.9-23.6,46-52.2,29.5c-0.1-0.1-0.2-0.1-0.3-0.2
			c-28.8-16.8-51.9-57.1-51.7-90.1c0.2-32.9,23.6-46,52.3-29.5C261.8,7.5,261.9,7.5,262,7.6z M243.6,75.9l0,5l35.7,20.8l0-5
			c0.1-9.7-5.8-21.3-13.7-28c3.8,0.4,6.5-2.3,6.6-7.3c0-6.6-4.6-14.8-10.4-18.2c0,0,0,0,0,0c-5.8-3.3-10.5-0.7-10.5,6
			c0,5,2.6,10.9,6.4,14.9C249.6,61.5,243.7,66.2,243.6,75.9z"/>
		<path class="st26" d="M257.6,64c-7.9-2.5-13.9,2.2-14,11.9l0,5l35.7,20.8l0-5c0.1-9.7-5.8-21.3-13.7-28c-1.2-0.1-2.6-0.6-4-1.4
			l-0.1,0C260.2,66.4,258.8,65.3,257.6,64z M261.7,43.2c-5.8-3.3-10.5-0.7-10.5,6c0,5,2.6,10.9,6.4,14.9c1.2,1.3,2.6,2.4,4,3.2
			l0.1,0c1.4,0.8,2.7,1.3,4,1.4c3.8,0.4,6.5-2.3,6.6-7.3C272.2,54.7,267.6,46.6,261.7,43.2C261.7,43.2,261.7,43.2,261.7,43.2z"/>
		<path class="st27" d="M204.5,132.4l-0.1,14.9l113.5,66.1l0.1-14.9L204.5,132.4z M173.6,91.1l-0.1,14.9l175.6,102.3l0.1-14.9
			L173.6,91.1z"/>
		<path class="st28" d="M191.4,157.5l139.7,81.4c9.9,5.8,17.9,19.6,17.8,31c-0.1,11.3-8.1,15.9-18,10.2c0,0-0.1,0-0.1-0.1
			l-139.7-81.4c-9.9-5.8-17.9-19.7-17.8-31c0.1-11.3,8.1-15.8,18-10.2C191.4,157.4,191.4,157.4,191.4,157.5z M186.4,171.7l-0.1,13.8
			l16.1,9.3l0.1-11.5l0,0l0-3.2c0-5.1-3.5-11.3-8-13.9c-4.4-2.6-8.1-0.6-8.1,4.5L186.4,171.7L186.4,171.7z M329.6,258.2
			c0-2.3-1.6-5.2-3.6-6.3c-2-1.2-3.7-0.2-3.7,2.1c0,2.3,1.6,5.1,3.6,6.3C327.9,261.5,329.5,260.5,329.6,258.2z M315.9,250.4
			c0-2.3-1.6-5.2-3.6-6.3c-2-1.2-3.7-0.2-3.7,2.1c0,2.3,1.6,5.1,3.6,6.3C314.3,253.6,315.9,252.7,315.9,250.4z M302.3,242.5
			c0-2.3-1.6-5.1-3.6-6.3c-2-1.2-3.7-0.2-3.7,2.1c0,2.3,1.6,5.1,3.6,6.3C300.7,245.8,302.3,244.8,302.3,242.5z M288.7,234.6
			c0-2.3-1.6-5.1-3.7-6.3c-2-1.2-3.6-0.2-3.7,2.1c0,2.3,1.6,5.1,3.6,6.3C287,237.9,288.7,236.9,288.7,234.6z M275,226.8
			c0-2.3-1.6-5.1-3.6-6.3c-2-1.2-3.6-0.2-3.7,2.1c0,2.3,1.6,5.1,3.6,6.3C273.4,230,275,229.1,275,226.8z M261.4,218.9
			c0-2.3-1.6-5.2-3.6-6.3c-2-1.2-3.7-0.2-3.7,2.1c0,2.3,1.6,5.1,3.6,6.3C259.8,222.1,261.4,221.2,261.4,218.9z M247.8,211
			c0-2.3-1.6-5.1-3.6-6.3c-2-1.2-3.6-0.2-3.7,2.1c0,2.3,1.6,5.1,3.6,6.3C246.1,214.3,247.8,213.3,247.8,211z M234.1,203.1
			c0-2.3-1.6-5.2-3.6-6.3c-2-1.2-3.7-0.2-3.7,2.1c0,2.3,1.6,5.1,3.6,6.3C232.5,206.4,234.1,205.4,234.1,203.1z M220.5,195.3
			c0-2.3-1.6-5.1-3.6-6.3c-2-1.2-3.7-0.2-3.7,2.1c0,2.3,1.6,5.1,3.7,6.3C218.9,198.5,220.5,197.6,220.5,195.3z M198.2,177.6l0,1
			l-7.3-4.3l0-1c0-2.3,1.7-3.2,3.7-2.1C196.6,172.4,198.2,175.3,198.2,177.6z"/>
		<path class="st27" d="M216.9,188.9c-2-1.2-3.7-0.2-3.7,2.1c0,2.3,1.6,5.1,3.7,6.3c2,1.2,3.7,0.2,3.7-2.1
			C220.5,192.9,218.9,190.1,216.9,188.9z M230.5,196.8c-2-1.2-3.7-0.2-3.7,2.1c0,2.3,1.6,5.1,3.6,6.3c2,1.2,3.6,0.2,3.7-2.1
			C234.1,200.8,232.5,198,230.5,196.8z M244.1,204.7c-2-1.2-3.6-0.2-3.7,2.1c0,2.3,1.6,5.1,3.6,6.3c2,1.2,3.7,0.2,3.7-2.1
			C247.8,208.7,246.1,205.9,244.1,204.7z M257.8,212.6c-2-1.2-3.7-0.2-3.7,2.1c0,2.3,1.6,5.1,3.6,6.3c2,1.2,3.7,0.2,3.7-2.1
			C261.4,216.6,259.8,213.7,257.8,212.6z M271.4,220.4c-2-1.2-3.6-0.2-3.7,2.1c0,2.3,1.6,5.1,3.6,6.3c2,1.2,3.7,0.2,3.7-2.1
			C275,224.4,273.4,221.6,271.4,220.4z M285,228.3c-2-1.2-3.6-0.2-3.7,2.1c0,2.3,1.6,5.1,3.6,6.3c2,1.2,3.7,0.2,3.7-2.1
			C288.7,232.3,287,229.5,285,228.3z M298.6,236.2c-2-1.2-3.7-0.2-3.7,2.1c0,2.3,1.6,5.1,3.6,6.3c2,1.2,3.7,0.2,3.7-2.1
			C302.3,240.2,300.7,237.4,298.6,236.2z M312.3,244.1c-2-1.2-3.7-0.2-3.7,2.1c0,2.3,1.6,5.1,3.6,6.3c2,1.2,3.7,0.2,3.7-2.1
			C316,248,314.3,245.2,312.3,244.1z M325.9,251.9c-2-1.2-3.7-0.2-3.7,2.1c0,2.3,1.6,5.1,3.6,6.3c2,1.2,3.6,0.2,3.7-2.1
			C329.6,255.9,327.9,253.1,325.9,251.9z"/>
		<path class="st29" d="M186.4,171.7l-0.1,13.8l16.1,9.3l0.1-11.5l-4.3-2.5l0-2.2l-7.3-4.3l0,2.2l-4.4-2.5L186.4,171.7L186.4,171.7z
			 M194.6,166.2c-4.4-2.6-8.1-0.6-8.1,4.5l0,1l0,2.2l4.4,2.5l0-2.2l0-1c0-2.3,1.7-3.2,3.7-2.1c2,1.2,3.7,4,3.6,6.4l0,1l0,2.2
			l4.3,2.5l0,0l0-3.2C202.6,175.1,199,168.8,194.6,166.2z"/>
		<path class="st25" d="M217.1,233.5l88.1,51.4c9.9,5.8,17.9,19.6,17.8,31c-0.1,11.3-8.1,15.9-18,10.1c0,0,0,0-0.1,0l-88.1-51.4
			c-9.9-5.8-17.9-19.6-17.8-31c0.1-11.3,8.1-15.8,18-10.2C217,233.4,217,233.4,217.1,233.5z M269.7,288l0-6l-5.8-3.3l0,2.9l2.4,1.4
			v1.4c-0.5,0.1-1.1,0-1.7-0.4c-1.7-1-3.2-3.5-3.2-5.6c0-2,1.5-2.9,3.2-1.8c1,0.6,1.9,1.6,2.5,2.9l2.6-1.1c-1.3-2.3-3.2-4.3-5.1-5.4
			c-3.7-2.1-6.8-0.6-6.8,3.4c0,4,3.1,9.1,6.8,11.3C266.5,288.7,268.4,288.9,269.7,288z M256.6,275.6c0-4-3.1-9.1-6.7-11.2
			c-3.6-2.1-6.7-0.5-6.7,3.4c0,4,3.1,9.1,6.7,11.2C253.5,281.2,256.6,279.6,256.6,275.6z M280.8,282.5l-3.5-2l0,14.2l3.5,2l0-7.6
			l4.8,10.4l3.5,2l0-14.2l-3.5-2l0,7.6L280.8,282.5z M275.1,293.4l0-14.2l-3.5-2l0,14.2L275.1,293.4z M242.1,274.4l0-3.6l-5.8-3.3
			l0-10.6l-3.5-2l0,14.2L242.1,274.4z M253,273.6c0,2-1.5,2.9-3.1,1.9c-1.7-1-3.1-3.5-3.1-5.5c0-2,1.4-2.9,3.1-1.9
			C251.6,269.1,253,271.6,253,273.6z"/>
		<path class="st30" d="M236.4,267.5l5.7,3.3v3.6l-9.2-5.3l0-14.2l3.5,2L236.4,267.5z M256.6,275.6c0,4-3.1,5.6-6.7,3.5
			c-3.6-2.1-6.7-7.2-6.7-11.2c0-4,3.1-5.6,6.7-3.4C253.5,266.5,256.6,271.7,256.6,275.6z M253,273.6c0-2-1.4-4.5-3.1-5.5
			c-1.7-1-3.1-0.1-3.1,1.9c0,2,1.4,4.5,3.1,5.5C251.5,276.5,253,275.6,253,273.6z M269.7,278.4l-2.6,1.1c-0.6-1.3-1.5-2.3-2.5-2.9
			c-1.7-1-3.2-0.2-3.2,1.8c0,2,1.5,4.6,3.2,5.6c0.6,0.4,1.2,0.5,1.7,0.4V283l-2.4-1.4v-2.9l5.8,3.3l0,6c-1.3,0.8-3.2,0.7-5.1-0.4
			c-3.7-2.1-6.8-7.3-6.8-11.3c0-4,3.1-5.5,6.8-3.4C266.5,274.1,268.4,276.1,269.7,278.4z M275.1,293.4l-3.5-2l0-14.2l3.5,2
			L275.1,293.4z M289,301.5l-3.5-2l-4.8-10.4l0,7.6l-3.5-2l0-14.2l3.5,2l4.8,10.4l0-7.6l3.5,2L289,301.5z"/>
		<path class="st0" d="M264.8,351.2L379,417.8c20.5,11.9,36.9,40.6,36.7,64c-0.2,23.4-16.8,32.7-37.1,21c-0.1,0-0.1-0.1-0.2-0.1
			l-114.1-66.5c-20.4-11.9-36.9-40.6-36.7-64c0.2-23.4,16.8-32.7,37.2-21C264.7,351.2,264.8,351.2,264.8,351.2z M377.3,441.6l0-6.2
			L266,371.1l0,6.2L377.3,441.6z M377.3,455.4l0-6.2L266,384.8l0,6.2L377.3,455.4z M377.2,469.1l0-6.2l-111.3-64.3l0,6.2
			L377.2,469.1z M350,467.1l0-6.2L293,428l0,6.2L350,467.1z"/>
		<path class="st1" d="M377.3,435.4L266,371.1l0,6.2l111.3,64.3L377.3,435.4z M377.3,449.1L266,384.8l0,6.2l111.3,64.3L377.3,449.1z
			 M377.3,462.9l-111.3-64.3l0,6.2l111.3,64.3L377.3,462.9z M350.1,460.9L293,428l0,6.2l57,32.9L350.1,460.9z"/>
		<path class="st0" d="M376.5,130.4l101.6,59.2c18.2,10.6,32.8,36.1,32.7,57c-0.1,20.8-14.9,29.1-33.1,18.7c0,0-0.1-0.1-0.1-0.1
			L376,206c-18.2-10.6-32.9-36.1-32.7-57c0.1-20.8,15-29.1,33.1-18.7C376.4,130.3,376.5,130.3,376.5,130.4z M476.7,210.8l0-5.6
			L377.6,148l0,5.6L476.7,210.8z M476.7,223.1l0-5.6l-99.1-57.2l0,5.6L476.7,223.1z M476.6,235.3l0-5.5l-99.1-57.2l0,5.5
			L476.6,235.3z M452.4,233.6l0-5.6l-50.8-29.3l0,5.6L452.4,233.6z"/>
		<path class="st1" d="M476.7,205.3L377.6,148l0,5.6l99.1,57.2L476.7,205.3z M476.7,217.5l-99.1-57.2l0,5.6l99.1,57.2L476.7,217.5z
			 M476.6,229.7l-99.1-57.2l0,5.5l99.1,57.2L476.6,229.7z M452.4,228l-50.8-29.3l0,5.6l50.8,29.3L452.4,228z"/>
		<path class="st31" d="M63.7,126.2c-4.3-4.7-10.8-7.4-17.2-7.2c3.5-0.1,7,1.2,9.6,3.6c2.6,2.4,4.1,5.8,4.3,9.3
			c0.6-3.7-0.5-7.5-2.8-10.4c-2.3-2.9-5.8-4.8-9.5-5c7-1.2,14.6,3,17.1,9.7c-1.7-4.5-2.9-10-9.3-9.6C60,118.2,63.1,121.8,63.7,126.2
			z M51.6,111c3-1.6,6.8-1.6,9.9-0.1c3,1.5,5.3,4.3,6,7.6c-0.6-1.9-2.7-7.4-5.1-6.4c-3.6,1.5,4.6,5.2,5.1,5.5
			C63.4,113.4,57.5,111.1,51.6,111z"/>
	</g>
</g>
</svg>
