<?xml version="1.0" encoding="utf-8"?>
<!-- Generator: Adobe Illustrator 23.0.4, SVG Export Plug-In . SVG Version: 6.00 Build 0)  -->
<svg version="1.1" id="Слой_1" xmlns="http://www.w3.org/2000/svg" xmlns:xlink="http://www.w3.org/1999/xlink" x="0px" y="0px"
	 viewBox="0 0 219 128" style="enable-background:new 0 0 219 128;" xml:space="preserve">
<style type="text/css">
	.st0{opacity:0.4;fill:#ADA6A3;enable-background:new    ;}
	.st1{fill:#B6B5B3;}
	.st2{fill:#937A6A;}
	.st3{fill:#252321;}
	.st4{fill:#312F2C;}
	.st5{fill:#393532;}
	.st6{fill:#F7F6F3;}
	.st7{fill:url(#SVGID_1_);}
	.st8{fill:#F3F2EF;}
	.st9{fill:#F8F5F4;}
	.st10{fill:#E0DED7;}
	.st11{fill-rule:evenodd;clip-rule:evenodd;fill:#3A3737;}
	.st12{opacity:0.6;fill-rule:evenodd;clip-rule:evenodd;fill:#3A3737;enable-background:new    ;}
	.st13{fill:#3A3737;}
	.st14{opacity:0.6;fill:#3A3737;enable-background:new    ;}
	.st15{opacity:0.698;fill-rule:evenodd;clip-rule:evenodd;fill:#788EFF;enable-background:new    ;}
</style>
<g>
	<g>
		<path class="st0" d="M126,127.4L0.1,54.7L88.8,3.5l125.9,72.7l-85,51.2L126,127.4z"/>
		<path class="st1" d="M37.2,38.1l-5.2-3v-2.6l5.2,3V38.1z"/>
		<path class="st2" d="M70.9,18.6L37.2,38.1v-2.6L70.9,16V18.6z"/>
		<path class="st3" d="M129.6,127.3L3.7,54.7V52l125.9,72.7V127.3z"/>
		<path class="st4" d="M218.4,76.1l-88.7,51.2v-2.6l88.7-51.2V76.1z"/>
		<path class="st5" d="M129.6,124.7L3.7,52L92.5,0.8l125.9,72.7L129.6,124.7z"/>
		<path class="st6" d="M38.8,36.4L32,32.5L65.8,13l6.8,3.9c0.2,0.1,0.2,0.5,0,0.6L39.9,36.4C39.6,36.6,39.2,36.6,38.8,36.4z"/>
		
			<linearGradient id="SVGID_1_" gradientUnits="userSpaceOnUse" x1="51.0586" y1="110.0214" x2="53.6372" y2="105.5555" gradientTransform="matrix(1 0 0 -1 0 130)">
			<stop  offset="0" style="stop-color:#F7F6F3"/>
			<stop  offset="1" style="stop-color:#F0EFEC"/>
		</linearGradient>
		<path class="st7" d="M67,10.8L33.8,30c0.3-0.2,0.8-0.2,1.3,0.1c1,0.6,1.8,2,1.8,3.2c0,0.6-0.2,1-0.5,1.2l33.2-19.2
			c0.3-0.2,0.5-0.6,0.5-1.2c0-1.2-0.8-2.6-1.8-3.1c-0.3-0.2-0.6-0.2-0.8-0.2C67.3,10.6,67.2,10.7,67,10.8z"/>
		<path class="st8" d="M68.4,11L35.2,30.2c0.5,0.3,0.9,0.8,1.2,1.3l33.2-19.2C69.3,11.8,68.9,11.3,68.4,11z"/>
		<path class="st5" d="M39.9,35.1c-0.3-0.2-0.9-0.2-1.2,0c-0.3,0.2-0.3,0.5,0,0.7c0.3,0.2,0.9,0.2,1.2,0
			C40.3,35.6,40.3,35.3,39.9,35.1z M71.5,16.8c-0.3-0.2-0.9-0.2-1.2,0c-0.3,0.2-0.3,0.5,0,0.7c0.3,0.2,0.9,0.2,1.2,0
			C71.8,17.3,71.8,17,71.5,16.8z"/>
		<path class="st1" d="M35.1,30.1c-0.7-0.4-1.3-0.3-1.6,0.2L32,32.5l1.2,1l1.7,0.7c0.1,0,0.1,0.1,0.2,0.1c1,0.6,1.8,0.1,1.8-1
			C36.9,32.1,36.1,30.6,35.1,30.1z"/>
		<path class="st9" d="M208.9,73.2l-79.6,46L15.2,53.2l79.6-46L208.9,73.2z"/>
		<path class="st10" d="M78.7,17.9L71,13.5v-1.8c0-0.2-0.1-0.4-0.3-0.5c-0.2-0.1-0.4-0.1-0.6,0l-0.9,0.5c0.6,0.7,1,1.6,1,2.4
			c0,0.1,0,0.2,0,0.4l7.8,4.5L42.1,39.5c-0.1,0.1-0.2,0.1-0.3,0l-8-4.6v-1.4l1.3-0.7c0.5-0.3-0.1-1.4-0.6-1.1l-1.6,0.9
			c-0.2,0.1-0.3,0.3-0.3,0.5v2.2c0,0.2,0.1,0.4,0.3,0.5l8.3,4.8c0.2,0.1,0.5,0.2,0.8,0.2s0.5-0.1,0.8-0.2l36-20.8
			c0.3-0.2,0.6-0.6,0.6-1C79.3,18.5,79.1,18.1,78.7,17.9z"/>
		<path class="st11" d="M58.9,73.2c0,0-8.5-4.9-8.5-4.9l0.1-0.1l70.8-40.9c0.1,0,8.6,4.9,8.6,4.9l-0.1,0.1L58.9,73.2z M50.7,68.3
			l2.5,1.5l17.9-10.3l-2.5-1.5L50.7,68.3z M123.8,29l-2.5-1.5l-16.7,9.6l2.5,1.5L123.8,29z M68.8,57.8l2.5,1.5L107,38.7l-2.6-1.5
			L68.8,57.8z M58.9,73l17.9-10.4l-2.7-1.5L56.2,71.5L58.9,73z M71.3,59.5L53.4,69.8l2.7,1.5L74,61L71.3,59.5z M129.5,32.3l-2.7-1.5
			l-16.7,9.6l2.7,1.5L129.5,32.3z M124,29.1l-16.7,9.6l2.7,1.5l16.7-9.6L124,29.1z M71.5,59.4l2.7,1.5l35.7-20.6l-2.7-1.5L71.5,59.4
			z M77,62.6L112.6,42l-2.7-1.5L74.3,61L77,62.6z"/>
		<path class="st11" d="M79.7,85.2c0,0-8.6-4.9-8.6-4.9l0.1-0.1l70.8-40.9c0,0,8.6,4.9,8.6,4.9l0,0l5.5,3.2l-0.1,0.1l-16.8,9.7l0,0
			l0,0L85.2,88.4C85.2,88.4,82.1,86.6,79.7,85.2L79.7,85.2z M97.9,74.7l2.5,1.5L153,45.8l-2.5-1.5L97.9,74.7z M136.5,55.5l2.6,1.5
			l16.7-9.6l-2.6-1.5L136.5,55.5z M136.3,55.7l-35.6,20.6l2.7,1.5l35.6-20.6L136.3,55.7z M100.5,76.3L82.6,86.7l2.7,1.5l17.9-10.3
			L100.5,76.3z M100.3,76.2l-2.5-1.5L79.8,85.1l2.6,1.5L100.3,76.2z M71.5,80.3l2.5,1.5l17.9-10.3l-2.5-1.5L71.5,80.3z M144.6,41
			l-2.5-1.5l-16.7,9.6l2.5,1.5L144.6,41z M89.6,69.8l2.5,1.5l35.6-20.6l-2.5-1.5L89.6,69.8z M97.6,74.7l-2.7-1.5L77,83.5l2.7,1.5
			L97.6,74.7z M92.1,71.5L74.2,81.8l2.7,1.5L94.8,73L92.1,71.5z M150.2,44.2l-2.7-1.5L95.1,73l2.7,1.5L150.2,44.2z M144.8,41.1
			l-16.7,9.6l2.7,1.5l16.7-9.6L144.8,41.1z M127.9,50.8L92.3,71.4l2.7,1.5l35.7-20.6L127.9,50.8z"/>
		<path class="st11" d="M90.6,91.5l0.1-0.1l70.8-40.9c0,0,7.6,4.4,8.5,4.9l2.8,1.6l-0.1,0.1L120,87.6l0,0l0,0L101.8,98
			c0,0-2.8-1.6-2.8-1.6l0,0C98.4,96,90.6,91.5,90.6,91.5z M90.9,91.5l2.5,1.5l17.9-10.3l-2.5-1.5L90.9,91.5z M164.1,52.2l-2.5-1.5
			l-16.7,9.6l2.5,1.5L164.1,52.2z M109,81.1l2.5,1.5L147.2,62l-2.5-1.5L109,81.1z M99.1,96.2l17.9-10.3l-2.7-1.5L96.5,94.7
			L99.1,96.2z M111.6,82.7L93.7,93.1l2.7,1.5l17.9-10.3L111.6,82.7z M169.7,55.5l-2.7-1.5l-16.7,9.6l2.6,1.5L169.7,55.5z
			 M164.2,52.3L147.6,62l2.7,1.5l16.7-9.6L164.2,52.3z M111.7,82.6l2.7,1.5L150,63.6l-2.6-1.5L111.7,82.6z M117.2,85.8l35.6-20.6
			l-2.6-1.5l-35.7,20.6L117.2,85.8z M101.8,97.8l17.9-10.3l-2.5-1.5L99.3,96.3L101.8,97.8z M172.4,57.1l-2.5-1.5l-52.5,30.3l2.5,1.5
			L172.4,57.1z"/>
		<path class="st12" d="M100.9,28.3L94.7,32l-0.5-0.3l6.3-3.6L100.9,28.3z M54,55.5l-0.5-0.3l8.6-4.9l0.5,0.3L54,55.5z M62.2,55.6
			l-0.5-0.3l8.5-4.9l0.5,0.3L62.2,55.6z M57.8,55.7l-0.5-0.3l9.4-5.4l0.5,0.3L57.8,55.7z M106.6,25l-5.2,3l-0.5-0.3l5.2-3L106.6,25z
			 M57.3,56l-10.1,5.8l-0.5-0.3l10.1-5.8L57.3,56z M61.7,55.9l-10.2,5.9l-0.5-0.3l10.2-5.9L61.7,55.9z M59.2,59.8l-3,1.7l-0.5-0.3
			l3-1.7L59.2,59.8z M102.4,31.8l5.8-3.3l0.5,0.3l-5.8,3.3L102.4,31.8z M102.6,34.7l-6.3,3.6L95.8,38l6.3-3.6L102.6,34.7z
			 M101.8,32.1l0.5,0.3l-6.8,3.9L95,36L101.8,32.1z M53.4,55.8L45,60.6l-0.5-0.3l8.4-4.8L53.4,55.8z M70,48.7l-0.5-0.3l8.7-5
			l0.5,0.3L70,48.7z M93.6,32l0.5,0.3l-3.6,2.1L90,34.1L93.6,32z M80.6,47.4l-8.7,5l-0.5-0.3l8.7-5L80.6,47.4z M69.7,53.7l-0.5-0.3
			l1.7-1l0.5,0.3L69.7,53.7z M108.8,26.3l-7.5,4.4l-0.5-0.3l7.6-4.4L108.8,26.3z M102.6,34.1l5-2.9l0.5,0.3l-5,2.9L102.6,34.1z
			 M94.5,36.3l0.5,0.3l-3,1.8l-0.5-0.3L94.5,36.3z M95.3,38.3l0.5,0.3L89,42.6l-0.5-0.3L95.3,38.3z M59.8,59.5l-0.5-0.3l9.4-5.4
			l0.5,0.3L59.8,59.5z M63,50.2l-0.5-0.3l6.7-3.9l0.5,0.3L63,50.2z M90,34.7l-6.2,3.6L83.2,38l6.2-3.6L90,34.7z M100.7,30.9
			l-6.3,3.6l-0.5-0.3l6.3-3.6L100.7,30.9z M67.7,50l-0.5-0.3l1.7-1l0.5,0.3L67.7,50z M71.3,50.4l-0.5-0.3l6.7-3.9l0.5,0.3L71.3,50.4
			z M93.9,34.9l-6.8,3.9l-0.5-0.3l6.8-3.9L93.9,34.9z M88.5,42.9l-3,1.8l-0.5-0.3l3-1.8L88.5,42.9z M85.3,42.3l-6.8,3.9L78,45.9
			l6.8-3.9L85.3,42.3z M84.4,44.6l0.5,0.3l-3.8,2.2l-0.5-0.3L84.4,44.6z M90.9,38.4l0.5,0.3L85.8,42l-0.5-0.3L90.9,38.4z M86,38.8
			l0.5,0.3l-3,1.7L83,40.6L86,38.8z M82.4,40.9l0.5,0.3l-3.8,2.2L78.7,43L82.4,40.9z M70.3,46.1l-0.5-0.3l6.8-3.9l0.5,0.3L70.3,46.1
			z M82.7,38.3l0.5,0.3l-5.7,3.3L77,41.5L82.7,38.3z"/>
		<path class="st12" d="M136.6,38.8l-2.1,1.2l-0.5-0.3l2.1-1.2L136.6,38.8z M135.4,36.7l0.5,0.3l-1.9,1.1l-0.5-0.3L135.4,36.7z
			 M107.8,51l-0.5-0.3l9-5.2l0.5,0.3L107.8,51z M132.3,34l0.5,0.3l-3.5,2l-0.5-0.3L132.3,34z M118.3,49.4l-9,5.2l-0.5-0.3l9-5.2
			L118.3,49.4z M103.7,57.8l-0.5-0.3l5.1-2.9l0.5,0.3L103.7,57.8z M132.9,38.2l0.5,0.3l-3.1,1.8l-0.5-0.3L132.9,38.2z M133.5,40.1
			l0.5,0.3l-7.1,4.1l-0.5-0.3L133.5,40.1z M97.8,54.5l-0.5-0.3l10-5.8l0.5,0.3L97.8,54.5z M128.7,36.7l-6.4,3.7l-0.5-0.3l6.4-3.7
			L128.7,36.7z M99.7,55.7l-0.5-0.3l7.5-4.4l0.5,0.3L99.7,55.7z M101.7,56.8l-0.5-0.3l14.1-8.2l0.5,0.3L101.7,56.8z M132.5,36.7
			l-7.1,4.1l-0.5-0.3l7-4.1L132.5,36.7z M126.4,44.7l-3.1,1.8l-0.5-0.3l3.1-1.8L126.4,44.7z M123.3,44.3l-7,4l-0.5-0.3l7-4
			L123.3,44.3z M122.2,46.6l0.5,0.3l-3.9,2.2l-0.5-0.3L122.2,46.6z M129.3,40.3l0.5,0.3l-5.8,3.4l-0.5-0.3L129.3,40.3z M124.4,40.8
			l0.5,0.3l-3.1,1.8l-0.5-0.3L124.4,40.8z M120.7,43l0.5,0.3l-3.9,2.2l-0.5-0.3L120.7,43z M108.3,48.5l-0.5-0.3l7-4l0.5,0.3
			L108.3,48.5z M121.3,40.4l0.5,0.3l-5.8,3.4l-0.5-0.3L121.3,40.4z M65.4,72.7l9-5.2l0.5,0.3l-9,5.2L65.4,72.7z M74.9,67.2l3.9-2.2
			l0.5,0.3l-3.9,2.2L74.9,67.2z M79.4,64.7l3.1-1.8l0.5,0.3l-3.1,1.8L79.4,64.7z M83,62.5l7-4.1l0.5,0.3l-7.1,4.1L83,62.5z
			 M94.5,55.9l0.5,0.3l-3.9,2.2l-0.5-0.3L94.5,55.9z M61.9,74.8l3-1.7l0.5,0.3l-3,1.7L61.9,74.8z M76.3,71.4l-10.2,5.9L65.7,77
			l10.2-5.9L76.3,71.4z M91.6,59.8l4.4-2.6l0.5,0.3l-4.4,2.6L91.6,59.8z M64.3,76.2l-0.5-0.3l9.6-5.5l0.5,0.3L64.3,76.2z M81.5,65.7
			l5.8-3.4l0.5,0.3L82,65.9L81.5,65.7z M73.9,70l7-4l0.5,0.3l-7,4L73.9,70z M68.1,78.4l-0.5-0.3l9.6-5.6l0.5,0.3L68.1,78.4z
			 M98.7,60.7l-6.4,3.7l-0.5-0.3l6.4-3.7L98.7,60.7z M98.6,58l0.5,0.3L92.6,62l-0.5-0.3L98.6,58z M87.9,62l3.1-1.8l0.5,0.3l-3.1,1.8
			L87.9,62z M76.9,71.1l-0.5-0.3l3.9-2.2l0.5,0.3L76.9,71.1z M80.8,68.3l3.1-1.8l0.5,0.3l-3.1,1.8L80.8,68.3z M78.3,72.5l-0.5-0.3
			l7-4l0.5,0.3L78.3,72.5z M91.2,64.5l0.5,0.3l-5.8,3.4l-0.5-0.3L91.2,64.5z M84.5,66.1l7.1-4.1l0.5,0.3L85,66.4L84.5,66.1z"/>
		<path class="st12" d="M159.8,75.1l-8.6,5l-0.4-0.2l8.6-5L159.8,75.1z M172.2,65.6l3.6-2.1l0.4,0.2l-3.6,2.1L172.2,65.6z
			 M149.6,79.1l-0.4-0.2l8.1-4.7l0.4,0.2L149.6,79.1z M164,70.4l4.8-2.8l0.4,0.2l-4.8,2.8L164,70.4z M157.8,73.9l5.7-3.3l0.4,0.2
			l-5.7,3.3L157.8,73.9z M152.8,80.9l-0.4-0.2l8.2-4.7l0.4,0.2L152.8,80.9z M177.4,64.4l0.4,0.2l-4.8,2.7l-0.4-0.2L177.4,64.4z
			 M169.2,67.3l2.6-1.5l0.4,0.2l-2.6,1.5L169.2,67.3z M160.2,74.8l-0.4-0.2l3.2-1.8l0.4,0.2L160.2,74.8z M163.5,72.5L166,71l0.4,0.2
			l-2.6,1.5L163.5,72.5z M161.4,76l-0.4-0.2l5.7-3.3l0.4,0.2L161.4,76z M166.5,70.8l5.8-3.3l0.4,0.2l-5.8,3.3L166.5,70.8z
			 M120.6,97.7l-0.4-0.2l7.2-4.2l0.4,0.2L120.6,97.7z M113.9,99.7l-0.4-0.2l5.4-3.1l0.4,0.2L113.9,99.7z M124,97.5l-0.4-0.2l1.5-0.8
			l0.4,0.2L124,97.5z M120.2,97.9l-4.7,2.7l-0.4-0.2l4.7-2.7L120.2,97.9z M123.6,97.8l-6.5,3.8l-0.4-0.2l6.5-3.8L123.6,97.8z
			 M133.3,92.2l-7.3,4.2l-0.4-0.2l7.3-4.2L133.3,92.2z M136.9,87.8l3.7-2.2l0.4,0.2l-3.7,2.2L136.9,87.8z M137,89.6l2.9-1.7l0.4,0.2
			l-2.9,1.7L137,89.6z M136.9,90.1l-3.2,1.8l-0.4-0.2l3.2-1.8L136.9,90.1z M136.9,86.5l-4.8,2.8l-0.4-0.2l4.8-2.8L136.9,86.5z
			 M131.2,89.3l0.4,0.2l-5.7,3.3l-0.4-0.2L131.2,89.3z M136.5,88.1l0.4,0.2l-2.5,1.4l-0.4-0.2L136.5,88.1z M136.9,86l3.4-1.9
			l0.4,0.2l-3.4,1.9L136.9,86z M133.6,89.8L134,90l-5.7,3.3l-0.4-0.2L133.6,89.8z M119.8,96.3l-0.4-0.2l5.7-3.3l0.4,0.2L119.8,96.3z
			"/>
		<path class="st13" d="M123.8,59.7l-2.8-1.6l0.1-0.1l2.8,1.6L123.8,59.7z M141.5,52.6l-2.7-1.6l0.1-0.2l2.7,1.6L141.5,52.6z
			 M119.1,65.5l-2.7-1.6l0.1-0.2l2.7,1.6L119.1,65.5z M168.3,59.6l-2.7-1.6l0.1-0.2l2.7,1.6L168.3,59.6z M88.1,90L88,89.9L158.8,49
			l0.1,0.2L88.1,90z M105.4,100l-0.1-0.1L131.1,85l0.1,0.2L105.4,100z M123.2,110.3l-0.1-0.2l48.1-27.8l0.1,0.2L123.2,110.3z"/>
		<path class="st11" d="M115.5,102.3c0.2,0.1,0.2,0.3,0,0.4c-0.2,0.1-0.6,0.1-0.8,0c-0.2-0.1-0.2-0.3,0-0.4
			C114.9,102.1,115.2,102.1,115.5,102.3z M113.9,101.3c0.2,0.1,0.2,0.3,0,0.5c-0.2,0.1-0.6,0.1-0.8,0c-0.2-0.1-0.2-0.3,0-0.5
			C113.3,101.2,113.7,101.2,113.9,101.3z M112.3,100.4c0.2,0.1,0.2,0.3,0,0.5c-0.2,0.1-0.6,0.1-0.8,0c-0.2-0.1-0.2-0.3,0-0.5
			C111.7,100.3,112.1,100.3,112.3,100.4z M151,81.7c0.2,0.1,0.2,0.3,0,0.4c-0.2,0.1-0.6,0.1-0.8,0c-0.2-0.1-0.2-0.3,0-0.4
			C150.5,81.6,150.8,81.6,151,81.7z M149.4,80.8c0.2,0.1,0.2,0.3,0,0.5c-0.2,0.1-0.6,0.1-0.8,0c-0.2-0.1-0.2-0.3,0-0.5
			C148.9,80.7,149.2,80.7,149.4,80.8z M147.9,79.9c0.2,0.1,0.2,0.3,0,0.5c-0.2,0.1-0.6,0.1-0.8,0c-0.2-0.1-0.2-0.3,0-0.5
			C147.3,79.8,147.6,79.8,147.9,79.9z M146.1,76.5l-0.1-0.2L176.1,59l0.1,0.1L146.1,76.5z M177.3,79l-0.1-0.2l16.5-9.5l0.1,0.1
			L177.3,79z"/>
		<path class="st14" d="M84.6,71.1l-9,5.2l0.5,0.3l9-5.2L84.6,71.1z M75.6,76.9l-0.5-0.3L70,79.5l0.5,0.3L75.6,76.9z M96.5,64.2
			l-5.8,3.3l0.5,0.3l5.8-3.3L96.5,64.2z M85.2,70.8l0.5,0.3l5-2.9l-0.5-0.3L85.2,70.8z M97.4,83l-2.1,1.2l0.5,0.3l2.1-1.2L97.4,83z
			 M95.3,84.8l-0.5-0.3l-8.1,4.7l0.5,0.3L95.3,84.8z M113.2,73.9l-5.8,3.4l0.5,0.3l5.8-3.3L113.2,73.9z M98,82.6l0.5,0.3l8.8-5.1
			l-0.5-0.3L98,82.6z M118.2,90.8l-5.7,3.3l0.5,0.3l5.7-3.3L118.2,90.8z M112.5,94.7l-0.5-0.3l-8.1,4.7l0.5,0.3L112.5,94.7z
			 M118.8,90.5l0.5,0.3l5.3-3l-0.5-0.3L118.8,90.5z M159,67.3l-8.8,5.1l0.5,0.3l8.8-5.1L159,67.3z M150.1,73l-0.5-0.3l-5,2.8
			l0.5,0.3L150.1,73z"/>
		<path class="st11" d="M190.8,68.2C190.8,68.2,190.8,68.2,190.8,68.2c-0.1,0.1-0.1,0.1-0.3,0.1c-1,0.5-1.7,1.2-2.4,1.8
			c-1.5,1.3-2.8,2.6-4.1,4c0,0-0.1,0-0.1,0c-0.1,0-0.1,0-0.1-0.1c0.5-0.7,1-1.5,1.5-2.2c0.2-0.4,0.5-0.7,0.7-1.1
			c0.3-0.4,0.2-0.5,0.2-0.5c0,0,0,0-0.2,0c-0.1,0-1.2,0.9-1.7,1.3c-0.1,0.1-0.1,0.1-0.2,0.2c-0.1,0.2-0.2,0.3-0.3,0.4
			c-0.1,0.3-0.3,0.6-0.6,0.9c0,0-0.1,0-0.2,0c-0.1,0.1-0.2,0.2-0.4,0.3c0,0,0,0.1,0,0.2c-0.1,0.2-0.1,0.6-0.5,0.6
			c-0.1,0-0.1,0-0.1,0c0,0,0-0.1,0-0.1c-0.2,0.3-0.5,0.6-1.1,0.7c0,0-0.1,0-0.1,0l-0.5,0.9c0,0-0.1,0.1-0.1,0.1
			c-0.1,0-0.1,0-0.1-0.1v-0.5c0,0.1-0.1,0.2-0.1,0.3c-0.4,0.7-0.9,1.5-1.9,2c-0.3,0.1-0.5,0.2-0.8,0.2c-0.4,0.1-0.9,0-1.3-0.2
			c-0.4-0.2-0.6-0.4-0.9-0.6c0,0,0-0.1,0-0.1c0,0,0.1,0,0.1,0c0.2,0.2,0.5,0.4,0.9,0.5c0.4,0.2,0.8,0.2,1.1,0.2
			c0.2,0,0.4-0.1,0.7-0.2c0.9-0.5,1.4-1.2,1.8-1.9c0.1-0.1,0.1-0.2,0.1-0.3c-0.2,0.2-0.4,0.3-0.6,0.4c0,0-0.1,0-0.1,0
			c-0.1,0-0.1,0,0-0.1c0.3-0.3,0.6-0.5,0.9-0.8l0-0.4c-0.2,0.2-0.4,0.3-0.7,0.5c-0.1,0.1-0.2,0.2-0.4,0.3l-1.3,2.1c0,0-0.1,0-0.1,0
			c-0.1,0-0.1,0-0.1-0.1l0.9-1.7c-0.8,0.6-1.7,1.2-2.5,1.7c0,0-0.1,0-0.1,0c-0.1,0-0.1-0.1,0-0.1c0.2-0.3,0.6-0.6,0.9-0.8
			c0.7-0.6,1.5-1.1,2.3-1.7l2.9-5.2c0,0,0.1-0.1,0.1,0c0.1,0,0.1,0,0.1,0.1c-0.2,0.6-0.4,1.2-0.6,1.8c-0.2,0.7-0.4,1.4-0.7,2.1
			c0.2-0.2,0.9-0.6,1-0.7c0-0.1,0.1-0.1,0.2-0.2c0,0,0.5-0.5,0.8-0.5c0.2-0.1,0.3-0.2,0.5-0.3c0.7-0.5,1.4-0.9,2-1.4
			c1.2-0.9,2.4-1.8,3.8-2.6c0,0,0.1,0,0.2,0c0,0,0.1,0.1,0,0.1c-1.2,0.9-2.5,1.8-3.7,2.6c-0.2,0.2-1.5,1.2-1.7,1.5
			c0.1-0.1,0.2-0.2,0.3-0.2c0.5-0.4,1.6-1.3,1.7-1.3c0.1,0,0.3-0.1,0.4,0c0.1,0,0.2,0.1-0.1,0.7c-0.2,0.4-0.5,0.7-0.7,1.1
			c-0.3,0.4-0.5,0.8-0.8,1.2c1-1,2.1-2,3.2-3c0.7-0.6,1.5-1.2,2.4-1.8c0,0,0.1-0.1,0.3-0.1C190.7,68.1,190.8,68.2,190.8,68.2z
			 M182.9,72.2c0-0.1,0-0.1,0.1-0.2c-0.3,0.2-0.7,0.5-1,0.7c-0.1,0.1-0.1,0.2-0.2,0.2l-0.1,0.1l-0.1,0.1l0,0.1
			c0.2-0.2,0.4-0.3,0.6-0.4c0.1-0.1,0.2-0.2,0.3-0.2C182.6,72.5,182.8,72.4,182.9,72.2z M182.6,72.8l-0.2,0.2c0,0-0.1,0.1-0.1,0.1
			c0.1,0,0.1-0.1,0.2-0.1C182.5,72.9,182.5,72.8,182.6,72.8z M182.3,73.2c-0.5,0.3-0.9,0.8-1.2,1.2c0.4-0.2,0.6-0.4,0.8-0.7
			C182.1,73.7,182.3,73.2,182.3,73.2z M180.5,74C180.5,74,180.5,73.9,180.5,74L180.5,74z M180.8,74.3c-0.1,0.1-0.2,0.2-0.3,0.3
			l0,0.5C180.5,75,180.8,74.4,180.8,74.3z M180.3,73.8c-0.2,0.2-0.4,0.3-0.6,0.4l-0.1,0.2C179.7,74.3,180,74.1,180.3,73.8z
			 M179.8,73.9c0.1-0.1,0.3-0.2,0.4-0.3l0-0.2C180.1,73.5,180,73.7,179.8,73.9L179.8,73.9z M180,73.3c0.1,0,0.1-0.1,0.3-0.2
			c0,0,0.1,0,0.2,0v0.2c0.1-0.1,0.2-0.1,0.3-0.2c0.3-0.8,0.5-1.6,0.8-2.3c0.1-0.3,0.2-0.5,0.2-0.8L180,73.3z M180.7,73.6
			C180.7,73.6,180.7,73.5,180.7,73.6c0,0-0.1,0-0.2,0.1C180.5,73.7,180.6,73.6,180.7,73.6z M180.7,74.1c0.1-0.1,0.3-0.2,0.4-0.4
			c0.1-0.1,0.1-0.2,0.2-0.3c0-0.1,0.1-0.2,0.1-0.2c-0.1,0.1-0.2,0.2-0.3,0.2c-0.1,0.1-0.2,0.1-0.2,0.2
			C180.8,73.8,180.7,74,180.7,74.1z M181,73.3c0.2-0.1,0.4-0.3,0.5-0.4C181.3,73.1,181.2,73.2,181,73.3z M179,74.7
			c-0.7,0.5-1.3,1-1.9,1.4c-0.1,0.1-0.2,0.1-0.3,0.2c0.7-0.5,1.4-0.9,2.1-1.4L179,74.7z M183.5,71.7c-0.1,0.1-0.2,0.1-0.3,0.3
			C183.3,71.9,183.4,71.8,183.5,71.7z"/>
		<path class="st15" d="M145.6,97.8c4.9,2.8,4.9,7.4,0,10.2c-4.9,2.8-12.8,2.8-17.7,0c-4.9-2.8-4.9-7.4,0-10.2
			C132.8,94.9,140.7,94.9,145.6,97.8z M145.3,97.9c-4.7-2.7-12.3-2.7-17,0c-4.7,2.7-4.7,7.1,0,9.8c4.7,2.7,12.3,2.7,17,0
			C150,105.1,150,100.7,145.3,97.9z M127.9,100.4l-0.3-0.1c-0.1,0-0.2-0.1-0.2-0.1c0-0.1,0-0.1,0-0.2l0.1-0.1
			c0.1-0.1,0.1-0.1,0.2-0.1c0.1,0,0.2,0,0.3,0l0.4,0.1c0.1,0,0.2,0.1,0.2,0.1c0,0,0,0.1,0,0.2l-0.1,0.1c-0.1,0.1-0.1,0.1-0.2,0.1
			C128.1,100.4,128,100.4,127.9,100.4z M130.7,99.4c3.3-1.9,8.7-1.9,12.1,0c3.3,1.9,3.3,5,0,7c-3.3,1.9-8.7,1.9-12.1,0
			C127.4,104.4,127.4,101.3,130.7,99.4z M127.6,101.4l-1-0.2c0,0,0-0.1,0-0.1c0.2-0.3,0.2-0.3,0.3-0.3c-0.1,0-0.1-0.1,0-0.2
			c0.1-0.1,0.1-0.1,0.2-0.2c0.1,0,0.2,0,0.3,0l0.7,0.1c0,0,0,0.1,0,0.1c-0.1,0-0.7-0.1-0.7-0.1c0,0-0.1,0-0.1,0
			c-0.1,0.1-0.1,0.2,0,0.2l0.6,0.1c0,0,0,0.1,0,0.1c-0.1,0-0.7-0.1-0.7-0.1c0,0-0.1,0-0.1,0c-0.1,0.1-0.1,0.2,0,0.2l0.6,0.1
			C127.7,101.2,127.7,101.3,127.6,101.4C127.7,101.4,127.6,101.4,127.6,101.4z M126.7,101.8c-0.1,0-0.2,0-0.2-0.1c0,0,0-0.1,0-0.2
			l0.1-0.2c0.1,0,0.2,0,0.2,0c0,0,0,0.2,0,0.2c0.1,0.1,0.1,0.1,0.2,0l0.2-0.1c0.1,0,0.1-0.1,0.2-0.1c0,0,0.1,0,0.2,0
			c0.2,0,0.3,0.1,0.2,0.2l-0.1,0.2c-0.1,0-0.2,0-0.2,0c0,0,0-0.2,0-0.2c-0.1-0.1-0.1-0.1-0.2,0l-0.2,0.1c-0.1,0-0.1,0.1-0.2,0.1
			C126.8,101.8,126.7,101.8,126.7,101.8z M127,102.5l-0.7,0c0,0,0-0.1,0-0.1c0.1,0,0.8,0,0.8,0c0.1,0,0.1,0,0.1,0
			c0.1-0.2,0-0.2-0.1-0.2l-0.7,0c0,0,0-0.1,0-0.1c0.1,0,1.1,0,1.1,0c0,0,0,0.1,0,0.1c-0.1,0.3-0.1,0.3-0.2,0.3
			S127.1,102.5,127,102.5z M126.2,102.7l0-0.1c0.1,0,1.1,0,1.1,0c0.1,0,0,0.1,0,0.1C127.3,102.8,126.2,102.7,126.2,102.7
			C126.2,102.7,126.2,102.7,126.2,102.7z M126,102.7h-0.2c0,0,0-0.1,0-0.1c0,0,0.2,0,0.2,0C126.1,102.6,126.1,102.7,126,102.7
			C126.1,102.7,126,102.7,126,102.7z M126.6,103.3c-0.1,0-0.2,0-0.3-0.1c-0.1,0-0.1-0.1-0.1-0.2c0-0.1,0-0.1,0.1-0.2
			s0.2-0.1,0.3-0.1c0,0,0.3,0,0.3,0c0,0,0,0.3,0.2,0.2c0,0,0-0.2,0-0.3c0,0,0.1,0,0.2,0l0,0.3c0,0.1,0,0.1-0.1,0.2s-0.2,0.1-0.3,0.1
			L126.6,103.3z M126.5,103.2C126.5,103.2,126.5,103.2,126.5,103.2c0.1,0,0.2,0,0.2,0c0,0,0-0.2,0-0.2
			C126.7,103,126.6,103,126.5,103.2C126.4,103.1,126.5,103.1,126.5,103.2z M126.7,104c-0.1,0-0.2,0-0.3,0s-0.1-0.1-0.1-0.1l0-0.1
			c0-0.1,0-0.1,0-0.2c0.1,0,0.1-0.1,0.2-0.1l0.4,0c0.1,0,0.2,0,0.3,0c0.1,0,0.1,0.1,0.1,0.2l0,0.1c0,0.1,0,0.1-0.1,0.2
			c0,0.1-0.1,0.1-0.2,0.1L126.7,104z M126.6,103.8c0,0,0.1,0,0.1,0c0,0,0.4,0,0.4-0.2c0,0-0.1,0-0.1,0
			C127,103.6,126.6,103.6,126.6,103.8C126.6,103.8,126.6,103.8,126.6,103.8z M126.1,104.3c0,0,0-0.1,0-0.1c0,0,1.4-0.2,1.5-0.2
			c0,0,0,0.1-0.1,0.2c0,0,0.1,0,0.2,0.2c0,0.1,0,0.1,0,0.2c0,0-0.1,0.1-0.2,0.1l-0.4,0.1c-0.1,0-0.2,0-0.3,0c-0.1,0-0.1-0.1-0.1-0.3
			C126.6,104.3,126.1,104.3,126.1,104.3z M126.8,104.4c0,0,0.1,0,0.1,0c0,0,0.4-0.1,0.4-0.2c0-0.1-0.1-0.1-0.2-0.1l-0.3,0
			C126.8,104.2,126.7,104.3,126.8,104.4z M126.6,105.3c0,0-0.1-0.1-0.1-0.1c0,0,1.3-0.3,1.4-0.3c0,0,0.1,0.1,0,0.2c0,0,0.1,0,0.1,0
			c0,0,0.1,0,0.1,0.1c0,0.1,0.1,0.1,0,0.2c0,0-0.1,0.1-0.2,0.1l-0.4,0.1c-0.1,0-0.2,0-0.3,0c-0.1,0-0.1-0.1-0.2-0.3
			C127.1,105.2,126.7,105.3,126.6,105.3z M127.4,105.4C127.4,105.4,127.5,105.4,127.4,105.4c0.1,0,0.5-0.1,0.5-0.2
			c0-0.1-0.1-0.1-0.2,0l-0.3,0.1C127.3,105.2,127.3,105.2,127.4,105.4C127.4,105.3,127.4,105.4,127.4,105.4z M127.9,106.1
			c-0.1,0-0.2,0-0.2-0.1l-0.1-0.1c-0.1-0.1-0.1-0.1-0.1-0.2c0,0,0.1-0.1,0.2-0.1c0,0,0.2-0.1,0.3-0.1c0,0,0.3,0.3,0.4,0.2
			c0,0-0.2-0.2-0.2-0.3c0,0,0.1,0,0.2,0l0.2,0.2c0.1,0.1,0.1,0.1,0.1,0.2c0,0-0.1,0.1-0.2,0.1l-0.4,0.1
			C128,106.1,127.9,106.1,127.9,106.1z M127.9,105.9c0,0,0.1,0,0.2-0.1c0,0-0.2-0.1-0.3,0C127.8,105.8,127.8,105.9,127.9,105.9z
			 M128.4,106.5c-0.1,0-0.1,0-0.2-0.1l-0.2-0.2c0,0,0.1-0.1,0.1-0.1c0.1,0,0.2,0.2,0.2,0.2c0.1,0,0.1,0,0.1,0c0-0.1,0-0.2,0-0.2
			c0,0,0-0.1,0-0.1c0,0,0.1-0.1,0.1-0.1c0.2-0.1,0.3,0,0.4,0.1l0.2,0.2c0,0-0.1,0.1-0.1,0.1c-0.1,0-0.3-0.2-0.3-0.2c0,0-0.1,0-0.1,0
			c0,0.1,0,0.2,0,0.2c0,0,0,0.1,0,0.1c0,0-0.1,0.1-0.1,0.1C128.6,106.5,128.5,106.5,128.4,106.5z M129.4,106.3l0.3,0
			c0,0-0.4,0.2-0.4,0.2c-0.1,0-0.2-0.1-0.2-0.1c0,0,0.1-0.1,0.1-0.1C129.3,106.3,129.4,106.3,129.4,106.3z M129,107.2
			c-0.1,0-0.2-0.1-0.2-0.1c0,0,0.2-0.1,0.2-0.1c0,0-0.1-0.1-0.1-0.1c0,0,0.1-0.1,0.1-0.1c0.1,0,0.2,0.1,0.2,0.1c0,0,0.4-0.2,0.4-0.2
			c-0.1-0.2,0.1-0.2,0.1-0.2c0.1,0,0.1,0.1,0.1,0.1c0.1,0.1,0.1,0.1,0.1,0.2s0,0.1-0.1,0.1l-0.4,0.2c0.1,0.1,0,0.2,0,0.2
			C129.2,107.1,129,107.2,129,107.2z M130.2,106.8c0,0,0.2,0.1,0.2,0.1c0,0-0.7,0.5-0.7,0.5c-0.1,0-0.2-0.1-0.2-0.1
			C129.4,107.2,130.1,106.8,130.2,106.8C130.1,106.8,130.2,106.8,130.2,106.8z M129.3,107.5c-0.1,0-0.2-0.1-0.2-0.1
			c0,0,0.1-0.1,0.1-0.1c0.1,0,0.2,0.1,0.2,0.1C129.5,107.4,129.3,107.5,129.3,107.5z M130.8,107.1l-0.9,0.7c-0.1,0-0.2-0.1-0.2-0.1
			c0,0,0.9-0.7,0.9-0.7C130.6,107,130.8,107.1,130.8,107.1C130.8,107.1,130.8,107.1,130.8,107.1z M131,107.9c-0.1,0-0.2,0-0.3-0.1
			l-0.1-0.1c-0.1,0-0.1-0.1-0.2-0.1c0,0,0-0.1,0.1-0.2c0,0,0.2-0.1,0.2-0.1c0,0,0.4,0.2,0.5,0.1c0,0-0.4-0.2-0.4-0.2
			c0,0,0.1-0.1,0.2-0.1l0.4,0.2c0.1,0,0.1,0.1,0.2,0.1c0,0,0,0.1-0.1,0.2l-0.2,0.2C131.1,107.9,131.1,107.9,131,107.9z M131,107.7
			c0,0-0.2-0.1-0.4,0C130.7,107.7,130.7,107.7,131,107.7z M132.1,108.1c-0.1,0.1-0.1,0.1-0.2,0.1c-0.1,0-0.2,0-0.3,0
			c0,0-0.4-0.1-0.5-0.2l0.5-0.5c0.1-0.1,0.1-0.1,0.2-0.1c0.1,0,0.2,0,0.3,0c0,0,0.4,0.1,0.4,0.2c0,0-0.1,0.1-0.1,0.1l-0.3-0.1
			c0,0-0.1,0-0.2,0c0,0-0.1,0.1-0.1,0.1c0,0,0.1,0,0.1,0c0,0,0.1,0,0.2,0c0.1,0,0.2,0.1,0.2,0.1c0,0,0,0.1-0.1,0.2L132.1,108.1z
			 M131.9,108c0,0,0.2-0.2,0.1-0.3c-0.1,0-0.2,0-0.2,0c0,0-0.2,0.2-0.2,0.2l0.2,0.1C131.8,108.1,131.8,108.1,131.9,108
			C131.8,108.1,131.9,108.1,131.9,108z M132.8,108.5c0,0-0.1,0-0.2,0c-0.3-0.1-0.3-0.2-0.2-0.3l0.3-0.4c0.1,0,0.2,0,0.2,0
			c0,0-0.2,0.4-0.2,0.4c0.2,0.1,0.3,0.1,0.3,0.1l0.3-0.4c0.1,0,0.2,0,0.2,0c0,0-0.4,0.6-0.4,0.6C133,108.6,132.8,108.5,132.8,108.5
			C132.8,108.5,132.8,108.5,132.8,108.5z M133.9,108.1l-0.3,0.6c-0.1,0-0.2,0-0.2,0c0,0,0.3-0.6,0.3-0.6
			C133.6,108,133.8,108.1,133.9,108.1C133.9,108.1,133.9,108.1,133.9,108.1z M133.2,108.7l0.2,0c0,0,0,0.1,0,0.1c-0.1,0-0.2,0-0.2,0
			C133.1,108.8,133.2,108.7,133.2,108.7C133.2,108.7,133.2,108.7,133.2,108.7z M134.4,108.8c-0.1,0-0.2,0-0.3,0l-0.3,0
			c0.1-0.1,0.3-0.1,0.3-0.1c0,0,0.1,0,0.1,0c0.1,0,0.1-0.3,0.1-0.3c-0.1-0.1-0.4-0.1-0.4-0.1c0.1-0.1,0.4-0.1,0.4-0.1
			c0.1,0,0.2,0.1,0.2,0.1c0,0,0.1,0.1,0,0.2l-0.1,0.2C134.5,108.7,134.5,108.7,134.4,108.8z M134.8,108.9l0.2,0c0,0,0,0.1,0,0.1
			c-0.1,0-0.2,0-0.2,0C134.7,109.1,134.7,109,134.8,108.9C134.7,108.9,134.8,108.9,134.8,108.9z M135.2,108.3l-0.2,0.6
			c0,0-0.2,0-0.2,0c0,0,0.1-0.6,0.1-0.6C135,108.2,135.2,108.2,135.2,108.3C135.2,108.2,135.2,108.3,135.2,108.3z M136,108.9
			c-0.1,0-0.1,0-0.3,0l-0.4,0c0-0.1,0.3-0.1,0.3-0.1c0.1,0,0.1,0,0.1,0c0,0,0,0-0.1-0.1l-0.2-0.1c-0.1,0-0.1-0.1-0.1-0.1
			c0,0,0-0.1,0-0.1c0-0.1,0.1-0.2,0.4-0.2l0.4,0c0,0.1-0.4,0.1-0.4,0.1c-0.1,0-0.1,0-0.1,0c0,0,0,0.1,0.1,0.1l0.2,0.1
			c0.1,0,0.1,0.1,0.1,0.1c0,0,0,0.1,0,0.1C136.1,108.8,136,108.9,136,108.9z M136.6,108.3l0,0.6c0,0-0.2,0-0.2,0c-0.1,0,0-0.6,0-0.6
			C136.3,108.3,136.5,108.3,136.6,108.3C136.6,108.3,136.6,108.3,136.6,108.3z M136.3,109.1h0.2c0,0,0,0.1,0,0.1c-0.1,0-0.2,0-0.2,0
			C136.2,109.2,136.2,109.1,136.3,109.1C136.2,109.1,136.3,109.1,136.3,109.1z M137.7,108.9c0,0-0.2,0-0.3,0c0,0-0.1,0-0.2,0
			c-0.1,0-0.2,0-0.3-0.1c-0.1,0-0.1-0.1-0.1-0.2l0-0.2c0-0.1,0-0.1,0.1-0.2c0.1,0,0.1-0.1,0.3-0.1c0.1,0,0.1,0,0.1,0
			c0,0,0.1,0,0.1,0c0,0,0-0.2,0-0.2c0,0,0.2,0,0.2,0C137.7,108.2,137.7,108.9,137.7,108.9z M137.4,108.7l0-0.2
			c0-0.1-0.1-0.1-0.3-0.1c-0.1,0-0.1,0-0.1,0.1c0,0,0,0.2,0.1,0.3c0,0,0.1,0,0.2,0C137.4,108.8,137.4,108.8,137.4,108.7z M138.3,109
			c0.1,0,0.1,0.1,0.1,0.1c0,0-0.2,0-0.2,0c-0.1,0-0.1-0.1-0.1-0.1C138.1,109,138.3,109,138.3,109z M137.9,108.3l0.2,0
			c0.1,0,0.2,0.6,0.2,0.6c0,0-0.2,0-0.2,0C138,108.9,137.9,108.3,137.9,108.3C137.9,108.3,137.9,108.3,137.9,108.3z M139.3,108.3
			l0.1,0.2c0,0.1,0,0.1,0,0.2c0,0-0.1,0.1-0.3,0.1c-0.1,0-0.1,0-0.1,0c0,0-0.1,0-0.1,0c0,0,0.1,0.3,0.1,0.3c0,0-0.2,0-0.2,0
			c0,0-0.3-0.8-0.3-0.9c0,0,0.2,0,0.3,0c0,0,0.1,0,0.2-0.1c0.1,0,0.2,0,0.3,0C139.2,108.2,139.2,108.3,139.3,108.3z M138.9,108.3
			c0,0-0.1,0-0.2,0c-0.1,0-0.1,0.1-0.1,0.1l0.1,0.2c0,0.1,0.1,0.1,0.4,0L138.9,108.3C139,108.4,139,108.3,138.9,108.3z M140.5,108.4
			c0,0.1,0,0.1,0,0.2c0,0-0.1,0.1-0.2,0.1c0,0-0.5,0.1-0.5,0.1c0,0-0.3-0.6-0.3-0.6c0,0,0.2,0,0.3,0c0,0,0.1,0,0.2,0
			c0.1,0,0.2,0,0.3,0c0.1,0,0.1,0.1,0.2,0.1L140.5,108.4z M140,108.2c0,0-0.1,0-0.2,0c-0.1,0-0.1,0.1-0.1,0.1c0,0,0.1,0.2,0.2,0.2
			c0,0,0.2,0,0.3-0.1L140,108.2C140.1,108.2,140.1,108.2,140,108.2z M140.9,107.8l0.4,0.6c0,0-0.2,0.1-0.2,0.1c-0.2,0-0.2,0-0.2,0.1
			c-0.1,0-0.2-0.1-0.2-0.1c0,0,0.2-0.1,0.2-0.1c0.1,0,0.1-0.1,0.1-0.1l-0.3-0.4C140.6,107.8,140.8,107.8,140.9,107.8
			C140.8,107.8,140.9,107.8,140.9,107.8z M142,107.7l0.4,0.4c0,0-0.2,0.1-0.2,0.1c-0.1,0-0.4-0.4-0.4-0.4c-0.1-0.1-0.1-0.1-0.2,0
			c-0.2,0-0.2,0.1-0.1,0.1l0.3,0.3c0,0-0.2,0.1-0.2,0.1c-0.1,0-0.6-0.5-0.6-0.5c0,0,0.2-0.1,0.2-0.1c0.2,0,0.2-0.1,0.2-0.1
			c0.2-0.1,0.2-0.1,0.3-0.1C141.9,107.6,141.9,107.6,142,107.7z M142.9,107.7c0,0,0.1,0.1,0.1,0.1c-0.1,0.1,0,0.2,0,0.2
			c0,0-0.2,0.1-0.2,0.1c-0.1,0-0.2-0.1-0.2-0.1c0,0-0.2,0.1-0.2,0.1c-0.1,0-0.1-0.1-0.1-0.1c0,0,0.1-0.1,0.1-0.1
			c0,0-0.3-0.2-0.3-0.2c-0.1,0-0.2,0-0.2,0c-0.1,0-0.2-0.1-0.2-0.1c0,0,0.1-0.1,0.1-0.1c0.1,0,0.2-0.1,0.3,0c0.1,0,0.2,0,0.2,0.1
			l0.3,0.2C142.9,107.7,142.9,107.7,142.9,107.7z M143.1,107c0.1,0,0.2,0,0.2,0.1l0.3,0.2c0.1,0,0.1,0.1,0.1,0.2
			c0,0.1-0.1,0.1-0.2,0.1l-0.1,0.1c-0.1,0-0.2,0.1-0.3,0.1c-0.1,0-0.2,0-0.2-0.1c0,0-0.2-0.1-0.2-0.2c0,0,0.4-0.2,0.3-0.3
			c0,0-0.1,0-0.1,0c0,0-0.3,0.2-0.4,0.2c0,0-0.1-0.1-0.1-0.1l0.4-0.2C143,107,143.1,107,143.1,107z M143.3,107.3
			C143.3,107.3,143.1,107.4,143.3,107.3C143.4,107.3,143.4,107.3,143.3,107.3z M144.3,106.9c0,0,0.1,0.1,0.1,0.1
			c-0.1,0.1,0.1,0.2,0.1,0.2c0,0-0.1,0.1-0.1,0.1c-0.1,0-0.2-0.1-0.2-0.1c0,0-0.2,0.1-0.2,0.1c-0.1,0-0.2-0.1-0.2-0.1
			c0,0,0.1-0.1,0.1-0.1c0,0-0.3-0.2-0.3-0.2c-0.3,0-0.4,0-0.4,0c0,0,0.1-0.1,0.1-0.1c0.1,0,0.2-0.1,0.3-0.1c0.1,0,0.2,0,0.2,0.1
			l0.3,0.2C144.3,106.9,144.3,106.9,144.3,106.9z M144.4,106.4l0.3,0.2c0.1,0,0.1,0.1,0.1,0.1c0,0.1,0,0.1-0.1,0.2l-0.2,0.2
			c-0.1,0-0.2-0.1-0.2-0.1c0,0,0.2-0.2,0.2-0.2c0-0.1-0.3-0.2-0.3-0.2c-0.2,0-0.4,0.1-0.4,0.1c-0.1,0-0.2-0.1-0.2-0.1
			c0,0,0.2-0.2,0.2-0.2c0.1-0.1,0.2-0.1,0.2-0.1C144.3,106.3,144.4,106.3,144.4,106.4z M145.1,105.9l0.3,0.1c0.1,0,0.2,0.1,0.2,0.1
			c0,0,0,0.1-0.1,0.2l-0.1,0.1c-0.1,0.1-0.1,0.1-0.2,0.1c-0.1,0-0.2,0-0.3,0c0,0-0.2-0.1-0.2-0.1c0,0,0.3-0.3,0.1-0.3
			c0,0-0.3,0.2-0.3,0.2c0,0-0.1-0.1-0.1-0.1l0.3-0.2c0.1-0.1,0.1-0.1,0.2-0.1C144.9,105.8,145,105.8,145.1,105.9z M145.1,106.1
			c0,0-0.2,0.2-0.1,0.2c0,0,0.1,0,0.3-0.1C145.3,106.2,145.3,106.2,145.1,106.1z M145.8,105.5c0.1,0,0.1,0,0.2,0
			c0.1,0,0.1,0.1,0.2,0.1c0,0,0,0.1-0.1,0.2l-0.2,0.2c-0.1,0-0.2,0-0.2,0c0,0,0.1-0.2,0.1-0.2c0-0.1-0.1-0.1-0.1,0l-0.2,0.1
			c-0.1,0-0.1,0-0.2,0c-0.1,0-0.1,0-0.2,0c-0.2-0.1-0.2-0.2-0.1-0.3l0.2-0.2c0.1,0,0.2,0,0.2,0c0,0-0.2,0.2-0.2,0.2
			c0,0.1,0.1,0.1,0.1,0.1l0.2-0.1C145.6,105.6,145.7,105.6,145.8,105.5z M145.7,104.8l0.9,0.2c0,0-0.1,0.1-0.1,0.1
			c-0.1,0-0.1,0.1-0.1,0.1c-0.1,0.2-0.3,0.2-0.5,0.1l-0.7-0.2c0,0,0.1-0.1,0.1-0.1c0.1,0,0.7,0.1,0.7,0.1c0,0,0.1,0,0.1,0
			c0.1-0.1,0.1-0.2,0-0.2l-0.6-0.2C145.5,104.9,145.6,104.8,145.7,104.8C145.6,104.8,145.6,104.8,145.7,104.8z M146.7,104.3
			c0.1,0,0.2,0.1,0.2,0.1c0,0.1,0,0.1,0,0.2l-0.1,0.1c0,0.1-0.1,0.1-0.2,0.1c-0.1,0-0.2,0-0.3,0l-0.4-0.1c-0.1,0-0.2,0-0.2-0.1
			c0-0.1,0-0.1,0-0.2l0.1-0.1c0-0.1,0.1-0.1,0.2-0.1c0.1,0,0.2,0,0.3,0L146.7,104.3z M146.6,104.5l-0.4-0.1c-0.1,0-0.1,0-0.1,0.2
			l0.4,0.1C146.5,104.7,146.6,104.7,146.6,104.5C146.7,104.6,146.7,104.5,146.6,104.5z M146.8,103.8c0.1,0,0.2,0,0.2,0.1
			c0.1,0.1,0.1,0.1,0,0.2l-0.1,0.2c-0.1,0-0.2,0-0.2,0c0,0,0-0.2,0-0.2c-0.1-0.1-0.5-0.1-0.5-0.1c0,0-0.1,0-0.1,0
			c-0.1,0-0.1,0.2-0.1,0.2c-0.1,0-0.2,0-0.2,0c0,0,0-0.2,0-0.2c0-0.1,0.1-0.1,0.1-0.1c0.1,0,0.2,0,0.3,0L146.8,103.8z M146,103.2
			l0.5,0c0,0,0,0.1,0,0.1c0,0-0.2,0-0.2,0c0,0-0.1,0-0.1,0L146,103.2C146,103.2,146,103.2,146,103.2z M147.4,102.9h0.2
			c0,0,0,0.1,0,0.1c-0.1,0-0.3,0-0.3,0c-0.1,0.1-0.2,0.1-0.2,0.1c-0.1-0.2-0.6-0.2-0.6-0.2c-0.1,0-0.1,0-0.1,0
			c-0.1,0.1-0.2,0.1-0.2,0.1c0-0.2,0-0.2,0.1-0.2c0.1,0,0.1-0.1,0.3-0.1l0.5,0C147.2,102.8,147.3,102.8,147.4,102.9
			C147.4,102.9,147.4,102.9,147.4,102.9z M146.9,102.3c0.1,0,0.2,0,0.3,0c0.1,0,0.1,0.1,0.1,0.2l0,0.1c0,0.1,0,0.1-0.1,0.2
			c-0.1,0-0.1,0.1-0.2,0.1c0,0-0.3,0-0.3,0c0,0,0-0.3-0.1-0.3c-0.1,0-0.1,0-0.1,0.1c0,0,0,0.3,0,0.3c0,0-0.1,0-0.2,0l0-0.3
			c0-0.1,0-0.1,0.1-0.2c0.1,0,0.1-0.1,0.3-0.1L146.9,102.3z M147.1,102.4c0,0-0.1,0-0.1,0c0,0-0.1,0-0.1,0c0,0,0,0.2,0,0.2l0.1,0
			C147,102.6,147.1,102.6,147.1,102.4C147.1,102.5,147.1,102.4,147.1,102.4z M146.9,101.2c0.1,0,0.1,0.1,0.1,0.1
			c-0.1,0.1,0,0.1,0,0.1c0,0,0.1,0,0.1,0.1c0,0.1,0,0.2-0.1,0.2c0.1,0,0.2,0.1,0.2,0.1c0,0.1,0,0.2,0,0.2c0,0-0.1,0.1-0.2,0.1
			l-0.7,0.1c-0.1,0-0.1-0.1-0.1-0.1c0,0,0.7-0.1,0.7-0.1c0.1-0.2,0-0.2-0.1-0.2l-0.6,0.1c-0.1,0-0.1-0.1-0.1-0.1
			c0,0,0.7-0.1,0.7-0.1c0.1-0.2,0-0.2-0.1-0.2l-0.7,0.1c-0.1,0-0.1-0.1-0.1-0.1C145.9,101.3,146.9,101.2,146.9,101.2z M146.2,100.7
			c0.1,0,0.2,0,0.3,0c0.1,0,0.1,0.1,0.2,0.1c0,0,0.2,0.3,0.1,0.3c0,0-1,0.2-1,0.2c0,0-0.1-0.1,0-0.1c0,0-0.1,0-0.2-0.1
			c0-0.1,0-0.1,0-0.2c0-0.1,0.1-0.1,0.2-0.1L146.2,100.7z M146.4,100.8C146.4,100.8,146.4,100.8,146.4,100.8c-0.1,0-0.5,0.1-0.5,0.2
			c0,0.1,0.1,0.1,0.2,0.1c0,0,0.4-0.1,0.4-0.1L146.4,100.8C146.5,100.8,146.5,100.8,146.4,100.8z M146.2,99.8c0.1,0,0.2,0.1,0.2,0.1
			c0,0-0.2,0.1-0.2,0.1c0,0,0.1,0.1,0.1,0.1c0,0-0.2,0.1-0.2,0.1c-0.1,0-0.1-0.1-0.1-0.1c0,0-0.5,0.1-0.5,0.1c0,0.2-0.2,0.2-0.2,0.2
			c-0.2-0.2-0.2-0.2-0.2-0.2c0-0.1,0.1-0.1,0.2-0.1l0.4-0.1c0-0.1,0.1-0.1,0.1-0.1C146.1,99.9,146.2,99.8,146.2,99.8z M144.8,99.9
			l0.9-0.3c0.1,0,0.2,0.1,0.2,0.1c0,0-0.9,0.3-0.9,0.3C144.9,100.1,144.8,100,144.8,99.9C144.8,100,144.8,99.9,144.8,99.9z
			 M146.1,99.5c0.1,0,0.2,0.1,0.2,0.1c0,0-0.2,0.1-0.2,0.1c-0.1,0-0.2-0.1-0.2-0.1C145.9,99.6,146.1,99.5,146.1,99.5z M144.3,99.5
			c0,0,0.1-0.1,0.1-0.1c0.1,0,0.3,0.2,0.3,0.2c0,0,0.1,0,0.1,0c0-0.1,0-0.2,0-0.2c0,0,0-0.1,0-0.1c0,0,0.1,0,0.1-0.1
			c0.1,0,0.2-0.1,0.2,0c0.1,0,0.1,0,0.2,0.1l0.2,0.2c0,0-0.1,0.1-0.1,0.1c-0.1,0-0.2-0.2-0.2-0.2c0,0-0.1-0.1-0.1,0
			c0,0.1,0,0.2,0,0.2c0,0.1,0,0.1,0,0.1c0,0-0.1,0-0.1,0.1c-0.2,0.1-0.3,0-0.4-0.1L144.3,99.5z M144.5,98.8c0,0,0.1,0,0.1,0
			c0,0,0.1,0,0.1,0c0.1,0.1-0.1,0.1-0.1,0.1c-0.1,0-0.2-0.1-0.2-0.1c-0.1-0.1-0.1-0.1-0.2,0l-0.5,0.3c-0.1,0-0.2-0.1-0.2-0.1
			c0,0,0.8-0.4,0.8-0.4C144.4,98.6,144.5,98.7,144.5,98.8C144.5,98.8,144.5,98.8,144.5,98.8z M143.7,98.3l0.2,0.1
			c0.1,0,0.1,0.1,0.1,0.1c0,0.1,0,0.1-0.1,0.2l-0.2,0.2c-0.1,0.1-0.1,0.1-0.2,0.1c-0.1,0-0.2,0-0.3-0.1l-0.2-0.1
			c-0.1,0-0.1-0.1-0.2-0.1c0-0.1,0-0.1,0.1-0.2l0.2-0.2c0.1-0.1,0.2-0.1,0.2-0.1C143.5,98.2,143.6,98.2,143.7,98.3z M143.4,98.4
			c0,0-0.2,0.2-0.1,0.3c0,0,0.1,0,0.2,0c0,0,0.2-0.2,0.3-0.2C143.7,98.4,143.7,98.4,143.4,98.4z M143.5,97.8c0,0-0.9,0.7-0.9,0.7
			c-0.1,0-0.2-0.1-0.2-0.1c0,0,0.9-0.7,0.9-0.7C143.3,97.8,143.5,97.8,143.5,97.8z M142.2,98.3c-0.1,0-0.2,0-0.3,0l-0.2-0.1
			c-0.1,0-0.1-0.1-0.2-0.1c0-0.1,0-0.1,0.1-0.2l0.2-0.2c0.1-0.1,0.1-0.1,0.2-0.1c0.1,0,0.2,0,0.3,0l0.2,0.1c0.1,0,0.1,0.1,0.2,0.1
			c0,0.1,0,0.1-0.1,0.2l-0.2,0.2C142.4,98.3,142.3,98.3,142.2,98.3z M142.1,98.2c0,0,0.1,0,0.2,0c0,0,0.2-0.2,0.2-0.3l-0.1,0
			c0,0-0.1,0-0.2,0c0,0-0.2,0.2-0.2,0.2C141.9,98.1,141.9,98.1,142.1,98.2z M140.7,97.7l0.2-0.2c0.1-0.1,0.1-0.1,0.2-0.1
			c0.1,0,0.2,0,0.4,0c0,0,0.1,0,0.1,0.1c0,0,0.2-0.3,0.3-0.3c0,0,0.2,0,0.2,0.1c0,0-0.6,0.8-0.7,0.8c0,0-0.2,0-0.2-0.1
			c0,0-0.1,0-0.1,0c-0.1,0-0.1,0-0.2,0c-0.1,0-0.2-0.1-0.2-0.1C140.6,97.8,140.7,97.7,140.7,97.7z M141.1,97.9c0.1,0,0.2,0,0.2-0.1
			l0.1-0.2c0-0.1,0-0.1-0.2-0.2c0,0-0.1,0-0.2,0l-0.2,0.2C140.9,97.8,140.9,97.8,141.1,97.9z M138.6,97.5l0.3-0.6c0.1,0,0.2,0,0.2,0
			c0.1,0.1,0.1,0,0.1,0c0,0,0.1,0,0.1,0c0.2,0,0.3,0.1,0.3,0.1c0.1-0.1,0.2-0.1,0.3-0.1c0.2,0,0.2,0.1,0.3,0.1c0,0,0,0.1,0,0.2
			l-0.2,0.4c-0.1,0-0.2,0-0.2,0c0,0,0.2-0.4,0.2-0.4c-0.2-0.1-0.3-0.1-0.3,0l-0.2,0.4c-0.1,0-0.2,0-0.2,0c0,0,0.1-0.4,0.1-0.4
			c-0.2-0.1-0.3-0.1-0.3,0l-0.2,0.4C138.8,97.5,138.6,97.5,138.6,97.5C138.6,97.5,138.6,97.5,138.6,97.5z M137.6,97.2l0.1-0.4
			c0.1,0,0.2,0,0.2,0c0,0-0.1,0.4-0.1,0.4c0.3,0.1,0.4,0.1,0.4,0l0.1-0.4c0,0,0.2,0,0.2,0c0,0-0.1,0.6-0.1,0.6c-0.1,0-0.2,0-0.2,0
			c-0.1-0.1-0.1,0-0.1,0c0,0-0.1,0-0.1,0c-0.2,0-0.3,0-0.3-0.1C137.6,97.3,137.6,97.3,137.6,97.2z M136.6,96.9c0-0.1,0-0.1,0.1-0.1
			c0.1,0,0.1,0,0.3,0h0.4c0,0.1-0.3,0.1-0.3,0.1c-0.1,0-0.1,0-0.1,0c0,0,0,0.1,0.1,0.1l0.2,0.1c0.1,0,0.1,0.1,0.2,0.1
			c0,0,0.1,0,0.1,0.1c0,0.1-0.1,0.2-0.4,0.2l-0.4,0c0-0.1,0.4-0.1,0.4-0.1c0.1,0,0.1,0,0.1,0c0,0,0,0-0.1-0.1l-0.2-0.1
			C136.7,97.1,136.7,97.1,136.6,96.9C136.6,97,136.6,97,136.6,96.9z M135.6,96.8c0,0,0.2,0,0.3,0c0,0,0.1,0,0.2,0c0.1,0,0.2,0,0.3,0
			c0.1,0,0.1,0.1,0.1,0.2l0,0.2c0,0.1,0,0.1-0.1,0.2s-0.1,0.1-0.3,0.1c-0.1,0-0.1,0-0.1,0c0,0-0.1,0-0.1-0.1c0,0,0,0.2,0,0.2
			c0,0-0.2,0-0.2,0C135.7,97.6,135.6,96.8,135.6,96.8z M135.9,97l0,0.2c0,0.1,0.1,0.1,0.3,0.1c0,0,0.1,0,0.1-0.1c0,0,0-0.2-0.1-0.3
			c0,0-0.1,0-0.2,0C135.9,96.9,135.9,96.9,135.9,97z M135.2,97.5c-0.1,0-0.2-0.6-0.2-0.6c0,0,0.2-0.1,0.2-0.1c0.1,0,0.2,0.6,0.2,0.6
			C135.4,97.5,135.2,97.5,135.2,97.5z M135,96.8c0,0-0.1-0.1-0.1-0.1c0,0,0.2,0,0.2,0c0.1,0,0.1,0.1,0.1,0.1
			C135.2,96.7,135,96.8,135,96.8z M133.1,97.8l-0.3-0.6c0,0,0.2-0.1,0.2-0.1c0.2,0,0.2,0,0.3-0.1c0.2,0,0.3,0,0.4,0
			c0-0.1,0.1-0.1,0.2-0.1c0.2,0,0.3,0,0.3,0c0.1,0,0.1,0.1,0.2,0.1l0.2,0.4c0,0-0.2,0.1-0.2,0.1c-0.1,0-0.3-0.4-0.3-0.4
			c-0.1-0.1-0.1-0.1-0.2,0c-0.2,0-0.2,0.1-0.2,0.1l0.2,0.4c0,0-0.2,0.1-0.2,0.1c-0.1,0-0.3-0.4-0.3-0.4c-0.1,0-0.1,0-0.2,0
			c-0.2,0-0.2,0.1-0.2,0.1l0.2,0.4C133.4,97.8,133.2,97.8,133.1,97.8C133.2,97.8,133.2,97.8,133.1,97.8z M132.1,97.9l-0.2-0.2
			c-0.1-0.1-0.1-0.1,0-0.2c0,0,0.1-0.1,0.2-0.1l0.2-0.1c0.1,0,0.2,0,0.3,0c0.1,0,0.1,0.1,0.2,0.1c0,0,0.1,0.1,0.1,0.2
			c0,0-0.5,0.1-0.4,0.2c0,0,0.1,0,0.1,0c0,0,0.4-0.1,0.5,0l-0.4,0.1c-0.1,0-0.2,0-0.3,0C132.2,98,132.1,97.9,132.1,97.9z
			 M132.2,97.7c0,0,0.3-0.1,0.2-0.2C132.4,97.5,132.3,97.5,132.2,97.7C132.1,97.6,132.2,97.7,132.2,97.7z M131.6,98.3l-0.5-0.5
			c0,0,0.2-0.1,0.2-0.1c0.2-0.1,0.2-0.1,0.2-0.1c0.1,0,0.2,0.1,0.2,0.1c0,0-0.1,0.1-0.1,0.1c-0.1,0-0.1,0.1,0,0.1l0.3,0.3
			C131.8,98.2,131.7,98.3,131.6,98.3C131.6,98.3,131.6,98.3,131.6,98.3z M130.9,98.5c-0.1,0-0.2,0-0.2-0.1l-0.2-0.2
			c-0.1-0.1-0.1-0.1-0.1-0.2c0,0,0.1-0.1,0.2-0.1l0.2-0.1c0.1,0,0.2-0.1,0.3-0.1c0.1,0,0.2,0,0.2,0.1l0.2,0.2
			c0.1,0.1,0.1,0.1,0.1,0.2c0,0-0.1,0.1-0.2,0.1l-0.2,0.1C131,98.5,130.9,98.6,130.9,98.5z M130.9,98.4c0,0,0.1,0,0.2-0.2
			c0,0-0.2-0.2-0.3-0.2c0,0-0.1,0-0.2,0.2C130.6,98.2,130.8,98.3,130.9,98.4z M130.2,98.9c-0.1,0-1-0.6-1-0.6c0,0,0.1-0.1,0.1-0.1
			c0.1,0,0.8,0.5,0.8,0.5c0,0,0.4-0.2,0.4-0.2c0.1,0,0.2,0.1,0.2,0.1C130.8,98.7,130.2,98.9,130.2,98.9z M132.6,105.3
			c2.3,1.3,6.1,1.3,8.4,0c2.3-1.3,2.3-3.5,0-4.8c-2.3-1.3-6.1-1.3-8.4,0C130.3,101.8,130.3,103.9,132.6,105.3z M128.4,99.9l-0.3-0.1
			c-0.1,0-0.2-0.1-0.2-0.1c0,0,0-0.1,0.1-0.2c0,0,0.1,0,0.1-0.1c0,0,0.1,0,0.1,0c0,0-0.4-0.2-0.4-0.2c0,0,0.1-0.1,0.2-0.1
			c0,0,1.2,0.5,1.2,0.5c0,0-0.1,0.1-0.3,0.3c-0.1,0.1-0.1,0.1-0.2,0.1C128.6,99.9,128.5,99.9,128.4,99.9z M128.3,99.6l0.3,0.1
			c0,0,0.1,0,0.2-0.1c0.1-0.1,0-0.1-0.1-0.1l-0.2-0.1C128.4,99.4,128.4,99.4,128.3,99.6C128.2,99.6,128.2,99.6,128.3,99.6z
			 M127.7,100.1l0.3,0.1c0,0,0.1,0,0.2-0.2l-0.3-0.1C127.8,99.9,127.8,99.9,127.7,100.1C127.7,100.1,127.7,100.1,127.7,100.1z"/>
	</g>
</g>
</svg>
