<?xml version="1.0" encoding="utf-8"?>
<!-- Generator: Adobe Illustrator 23.0.4, SVG Export Plug-In . SVG Version: 6.00 Build 0)  -->
<svg version="1.1" id="Слой_1" xmlns="http://www.w3.org/2000/svg" xmlns:xlink="http://www.w3.org/1999/xlink" x="0px" y="0px"
	 viewBox="0 0 515 576" style="enable-background:new 0 0 515 576;" xml:space="preserve">
<style type="text/css">
	.st0{fill:url(#SVGID_1_);}
	.st1{fill:url(#SVGID_2_);}
	.st2{fill:url(#SVGID_3_);}
	.st3{fill:url(#SVGID_4_);}
	.st4{fill:url(#SVGID_5_);}
	.st5{fill:url(#SVGID_6_);}
	.st6{fill:url(#SVGID_7_);}
	.st7{fill:url(#SVGID_8_);}
	.st8{fill:url(#SVGID_9_);}
	.st9{fill:url(#SVGID_10_);}
	.st10{fill:url(#SVGID_11_);}
	.st11{fill:url(#SVGID_12_);}
	.st12{clip-path:url(#SVGID_14_);}
	.st13{fill:#DAF1F1;}
	.st14{fill-rule:evenodd;clip-rule:evenodd;fill:url(#SVGID_15_);}
	.st15{fill:url(#SVGID_16_);}
	.st16{clip-path:url(#SVGID_18_);}
	.st17{fill:none;stroke:#00BDB7;stroke-width:4;stroke-linecap:round;stroke-linejoin:round;}
	.st18{fill:none;stroke:#007AB7;stroke-width:4;stroke-linecap:round;stroke-linejoin:round;}
	.st19{fill:url(#SVGID_19_);}
	.st20{fill:url(#SVGID_20_);}
	.st21{fill:url(#SVGID_21_);}
	.st22{fill:url(#SVGID_22_);}
	.st23{fill:url(#SVGID_23_);}
	.st24{fill:url(#SVGID_24_);}
	.st25{fill:url(#SVGID_25_);}
	.st26{fill:url(#SVGID_26_);}
	.st27{fill:url(#SVGID_27_);}
	.st28{fill:url(#SVGID_28_);}
	.st29{fill:url(#SVGID_29_);}
	.st30{fill:url(#SVGID_30_);}
	.st31{fill:url(#SVGID_31_);}
	.st32{fill:url(#SVGID_32_);}
	.st33{fill:url(#SVGID_33_);}
	.st34{opacity:0.4;fill:url(#SVGID_34_);enable-background:new    ;}
	.st35{opacity:0.502;fill:url(#SVGID_35_);enable-background:new    ;}
	.st36{fill:url(#SVGID_36_);}
	.st37{fill:url(#SVGID_37_);}
	.st38{fill:url(#SVGID_38_);}
	.st39{fill:url(#SVGID_39_);}
	.st40{fill:url(#SVGID_40_);}
	.st41{fill:none;stroke:#CC5833;stroke-width:2.884;}
	.st42{fill:#D4003C;}
	.st43{fill:#FF335B;}
	.st44{fill:#FFFFFF;}
</style>
<g>
	<g>
		
			<linearGradient id="SVGID_1_" gradientUnits="userSpaceOnUse" x1="284.7917" y1="552.0673" x2="93.6337" y2="11.2293" gradientTransform="matrix(1 0 0 -1 0 578)">
			<stop  offset="0" style="stop-color:#007D73"/>
			<stop  offset="1" style="stop-color:#164186"/>
		</linearGradient>
		<path class="st0" d="M58,0.5c-9.8,0-18.2,4-23.8,10.4c0,0.1-0.1,0.1-0.1,0.2c0,0.1-0.1,0.1-0.1,0.2l-0.1,0.1
			c0,0.1-0.1,0.1-0.1,0.1l-0.1,0.1c0,0.1-0.1,0.1-0.1,0.2c0,0-0.1,0.1-0.1,0.1c0,0.1-0.1,0.1-0.1,0.2c0,0-0.1,0.1-0.1,0.2
			c0,0-0.1,0.1-0.1,0.1c0,0.1-0.1,0.1-0.1,0.2c0,0.1-0.1,0.1-0.1,0.2l-0.1,0.1c0,0.1-0.1,0.1-0.1,0.1c0,0.1-0.1,0.1-0.1,0.1
			c0,0.1-0.1,0.1-0.1,0.2c0,0.1-0.1,0.1-0.1,0.2l-0.1,0.1c0,0.1-0.1,0.1-0.1,0.1l-0.1,0.1c-0.1,0.1-0.1,0.1-0.1,0.2
			c0,0-0.1,0.1-0.1,0.1l-0.1,0.2c0,0-0.1,0.1-0.1,0.2c0,0-0.1,0.1-0.1,0.1c-0.1,0.1-0.1,0.1-0.1,0.2c0,0.1-0.1,0.1-0.1,0.2
			c0,0.1-0.1,0.1-0.1,0.1c0,0.1-0.1,0.1-0.1,0.1c0,0.1-0.1,0.1-0.1,0.1c-0.1,0.1-0.1,0.1-0.1,0.2c0,0.1-0.1,0.1-0.1,0.2l-0.1,0.1
			c0,0.1-0.1,0.1-0.1,0.1c0,0.1-0.1,0.1-0.1,0.1c-0.1,0-0.1,0.1-0.1,0.2c0,0-0.1,0.1-0.1,0.1l-0.1,0.1c0,0.1-0.1,0.1-0.1,0.2
			L29,16.9c0,0.1-0.1,0.1-0.1,0.1l-0.1,0.1c0,0.1-0.1,0.1-0.1,0.1c0,0.1-0.1,0.1-0.1,0.2c-0.1,0-0.1,0.1-0.1,0.1
			c0,0.1-0.1,0.1-0.1,0.1c0,0.1-0.1,0.1-0.1,0.2c0,0-0.1,0.1-0.1,0.1c0,0-0.1,0.1-0.1,0.1c-0.1,0.1-0.1,0.1-0.1,0.1
			c0,0-0.1,0.1-0.1,0.2c0,0-0.1,0.1-0.1,0.1l-0.1,0.1c0,0.1-0.1,0.1-0.1,0.2c-0.1,0-0.1,0.1-0.1,0.1c0,0-0.1,0.1-0.1,0.1
			c0,0-0.1,0.1-0.1,0.2l-0.1,0.1c0,0.1-0.1,0.1-0.1,0.2c-0.1,0-0.1,0.1-0.1,0.1c0,0.1-0.1,0.1-0.1,0.1L26,20.2
			c0,0.1-0.1,0.1-0.1,0.2c0,0.1-0.1,0.1-0.1,0.1c-0.1,0.1-0.1,0.1-0.1,0.1c0,0-0.1,0.1-0.1,0.2c0,0-0.1,0.1-0.1,0.1
			c0,0.1-0.1,0.1-0.1,0.1c0,0.1-0.1,0.1-0.1,0.2L25,21.4c0,0.1-0.1,0.1-0.1,0.1c0,0-0.1,0.1-0.1,0.2l-0.1,0.1c0,0.1-0.1,0.1-0.1,0.2
			c0,0-0.1,0.1-0.1,0.1c0,0-0.1,0.1-0.1,0.1c0,0.1-0.1,0.1-0.1,0.2c0,0-0.1,0.1-0.1,0.1c0,0.1-0.1,0.1-0.1,0.1
			c0,0.1-0.1,0.1-0.1,0.1c-0.1,0-0.1,0.1-0.1,0.2l-0.1,0.1c0,0.1-0.1,0.1-0.1,0.1c0,0.1-0.1,0.1-0.1,0.2c0,0-0.1,0.1-0.1,0.1
			c-0.1,0.1-0.1,0.1-0.1,0.1c0,0-0.1,0.1-0.1,0.2c0,0-0.1,0.1-0.1,0.1c0,0.1-0.1,0.1-0.1,0.2l-0.1,0.1c-0.1,0.1-0.1,0.1-0.1,0.1
			c0,0.1-0.1,0.1-0.1,0.2L22,24.9c0,0.1-0.1,0.1-0.1,0.1c0,0.1-0.1,0.1-0.1,0.1c-0.1,0-0.1,0.1-0.1,0.2c0,0-0.1,0.1-0.1,0.1
			c0,0.1-0.1,0.1-0.1,0.1c0,0.1-0.1,0.1-0.1,0.2c0,0-0.1,0.1-0.1,0.1C21,26,21,26,20.9,26.1c0,0-0.1,0.1-0.1,0.1
			c0,0.1-0.1,0.1-0.1,0.1c0,0.1-0.1,0.1-0.1,0.2l-0.1,0.1c0,0.1-0.1,0.1-0.1,0.1c0,0.1-0.1,0.1-0.1,0.2L20,27.1
			c0,0.1-0.1,0.1-0.1,0.1c0,0.1-0.1,0.1-0.1,0.1c0,0-0.1,0.1-0.1,0.2c0,0-0.1,0.1-0.1,0.1c0,0.1-0.1,0.1-0.1,0.1
			c0,0.1-0.1,0.1-0.1,0.2c0,0-0.1,0.1-0.1,0.1c0,0-0.1,0.1-0.1,0.1c-0.1,0-0.1,0.1-0.1,0.2c0,0-0.1,0.1-0.1,0.1
			c0,0.1-0.1,0.1-0.1,0.2l-0.1,0.1c0,0.1-0.1,0.1-0.1,0.1c-0.1,0.1-0.1,0.1-0.1,0.1c0,0.1-0.1,0.1-0.1,0.2c0,0.1-0.1,0.1-0.1,0.1
			l-0.1,0.1c0,0-0.1,0.1-0.1,0.2c-0.1,0-0.1,0.1-0.1,0.1l-0.1,0.1c0,0.1-0.1,0.1-0.1,0.2c0,0-0.1,0.1-0.1,0.1c0,0.1-0.1,0.1-0.1,0.1
			c-0.1,0-0.1,0.1-0.1,0.2c0,0-0.1,0.1-0.1,0.1c0,0.1-0.1,0.1-0.1,0.2c0,0-0.1,0.1-0.1,0.1c0,0-0.1,0.1-0.1,0.1
			c-0.1,0.1-0.1,0.1-0.1,0.2L16,31.6c0,0.1-0.1,0.1-0.1,0.1l-0.1,0.1c-0.1,0-0.1,0.1-0.1,0.2c-0.1,0-0.1,0.1-0.1,0.1
			c-0.1,0.1-0.1,0.1-0.1,0.1c0,0-0.1,0.1-0.1,0.2l-0.1,0.1c-0.1,0.1-0.1,0.1-0.1,0.2c-0.1,0-0.1,0.1-0.1,0.2c0,0-0.1,0.1-0.1,0.1
			c0,0.1-0.1,0.1-0.1,0.2s-0.1,0.1-0.1,0.1c0,0.1-0.1,0.1-0.1,0.2c-0.1,0.1-0.1,0.1-0.1,0.2c0,0-0.1,0.1-0.1,0.2
			c0,0-0.1,0.1-0.1,0.1l-0.1,0.1c-0.1,0.1-0.1,0.1-0.1,0.2c0,0-0.1,0.1-0.1,0.1l-0.1,0.1c0,0-0.1,0.1-0.1,0.2l-0.1,0.1
			c0,0.1-0.1,0.1-0.1,0.2c-0.1,0-0.1,0.1-0.1,0.2c0,0.1-0.1,0.1-0.1,0.1c0,0.1-0.1,0.1-0.1,0.2l-0.1,0.1c0,0.1-0.1,0.1-0.1,0.2
			c-0.1,0.1-0.1,0.1-0.1,0.2c-0.1,0-0.1,0.1-0.1,0.2c0,0-0.1,0.1-0.1,0.1c0,0.1-0.1,0.1-0.1,0.1c-0.1,0.1-0.1,0.1-0.1,0.2
			c-0.1,0-0.1,0.1-0.1,0.1l-0.1,0.1c0,0-0.1,0.1-0.1,0.2l-0.1,0.1c0,0.1-0.1,0.1-0.1,0.2c-0.1,0-0.1,0.1-0.1,0.2l-0.1,0.1
			c0,0.1-0.1,0.1-0.1,0.2l-0.1,0.1c0,0.1-0.1,0.1-0.1,0.2c-0.1,0.1-0.1,0.1-0.1,0.2c-0.1,0-0.1,0.1-0.1,0.2c0,0-0.1,0.1-0.1,0.1
			c0,0.1-0.1,0.1-0.1,0.1c0,0.1-0.1,0.1-0.1,0.2c0,0-0.1,0.1-0.1,0.1c-0.1,0.1-0.1,0.1-0.1,0.1c0,0-0.1,0.1-0.1,0.2
			c0,0-0.1,0.1-0.1,0.1c0,0.1-0.1,0.1-0.1,0.2c-0.1,0-0.1,0.1-0.1,0.2l-0.1,0.1C8.7,40,8.7,40,8.6,40l-0.1,0.1
			c0,0.1-0.1,0.1-0.1,0.2c-0.1,0.1-0.1,0.1-0.1,0.2c-0.1,0-0.1,0.1-0.1,0.2c0,0-0.1,0.1-0.1,0.1c-5.6,6.4-8.5,15.3-7.2,25.2
			L61.6,540c2.5,19.6,20.4,35.5,40,35.5h224.7c9.8,0,18.2-4,23.8-10.5c0,0,0.1-0.1,0.1-0.1c0,0,0.1-0.1,0.1-0.1
			c0.1-0.1,0.1-0.1,0.1-0.2c0.1,0,0.1-0.1,0.1-0.2c0.1,0,0.1-0.1,0.1-0.2c0,0,0.1-0.1,0.1-0.1c0,0,0.1-0.1,0.1-0.1
			c0.1,0,0.1-0.1,0.1-0.2c0.1,0,0.1-0.1,0.1-0.1c0-0.1,0.1-0.1,0.1-0.2c0,0,0.1-0.1,0.1-0.1c0-0.1,0.1-0.1,0.1-0.1
			c0.1,0,0.1-0.1,0.1-0.2c0-0.1,0.1-0.1,0.1-0.2c0,0,0.1-0.1,0.1-0.2c0,0,0.1-0.1,0.1-0.1c0.1,0,0.1-0.1,0.1-0.1
			c0.1-0.1,0.1-0.1,0.1-0.2c0,0,0.1-0.1,0.1-0.2c0,0,0.1-0.1,0.1-0.2c0,0,0.1-0.1,0.1-0.1c0,0,0.1-0.1,0.1-0.1c0,0,0.1-0.1,0.1-0.2
			c0,0,0.1-0.1,0.1-0.1c0-0.1,0.1-0.1,0.1-0.2s0.1-0.1,0.1-0.1c0-0.1,0.1-0.1,0.1-0.1c0,0,0.1-0.1,0.1-0.2c0-0.1,0.1-0.1,0.1-0.2
			c0,0,0.1-0.1,0.1-0.2c0,0,0.1-0.1,0.1-0.1c0,0,0.1-0.1,0.1-0.1c0-0.1,0.1-0.1,0.1-0.2c0,0,0.1-0.1,0.1-0.2c0,0,0.1-0.1,0.1-0.2
			c0,0,0.1-0.1,0.1-0.1c0,0,0.1-0.1,0.1-0.1c0,0,0.1-0.1,0.1-0.2c0.1,0,0.1-0.1,0.1-0.1c0-0.1,0.1-0.1,0.1-0.2c0,0,0.1-0.1,0.1-0.1
			c0-0.1,0.1-0.1,0.1-0.1c0,0,0.1-0.1,0.1-0.2c0.1-0.1,0.1-0.1,0.1-0.2c0,0,0.1-0.1,0.1-0.2c0,0,0.1-0.1,0.1-0.1
			c0,0,0.1-0.1,0.1-0.1c0-0.1,0.1-0.1,0.1-0.2c0.1,0,0.1-0.1,0.1-0.2c0,0,0.1-0.1,0.1-0.2c0,0,0.1-0.1,0.1-0.1c0,0,0.1-0.1,0.1-0.1
			c0.1,0,0.1-0.1,0.1-0.2c0.1,0,0.1-0.1,0.1-0.1c0-0.1,0.1-0.1,0.1-0.2c0,0,0.1-0.1,0.1-0.1c0-0.1,0.1-0.1,0.1-0.1
			c0.1,0,0.1-0.1,0.1-0.2c0-0.1,0.1-0.1,0.1-0.2c0,0,0.1-0.1,0.1-0.2c0,0,0.1-0.1,0.1-0.1c0,0,0.1-0.1,0.1-0.1
			c0-0.1,0.1-0.1,0.1-0.2s0.1-0.1,0.1-0.2c0,0,0.1-0.1,0.1-0.2c0,0,0.1-0.1,0.1-0.1c0,0,0.1-0.1,0.1-0.1c0,0,0.1-0.1,0.1-0.2
			c0,0,0.1-0.1,0.1-0.1c0-0.1,0.1-0.1,0.1-0.2s0.1-0.1,0.1-0.1c0-0.1,0.1-0.1,0.1-0.1c0,0,0.1-0.1,0.1-0.2c0-0.1,0.1-0.1,0.1-0.2
			c0,0,0.1-0.1,0.1-0.2c0,0,0.1-0.1,0.1-0.1c0,0,0.1-0.1,0.1-0.1c0-0.1,0.1-0.1,0.1-0.2c0,0,0.1-0.1,0.1-0.2c0.1,0,0.1-0.1,0.1-0.2
			c0,0,0.1-0.1,0.1-0.1c0,0,0.1-0.1,0.1-0.1c0,0,0.1-0.1,0.1-0.2c0.1,0,0.1-0.1,0.1-0.1c0-0.1,0.1-0.1,0.1-0.2c0,0,0.1-0.1,0.1-0.1
			c0-0.1,0.1-0.1,0.1-0.1c0,0,0.1-0.1,0.1-0.2c0.1-0.1,0.1-0.1,0.1-0.2c0.1,0,0.1-0.1,0.1-0.2c0,0,0.1-0.1,0.1-0.1
			c0,0,0.1-0.1,0.1-0.1c0-0.1,0.1-0.1,0.1-0.2c0.1,0,0.1-0.1,0.1-0.2c0,0,0.1-0.1,0.1-0.2c0,0,0.1-0.1,0.1-0.1c0,0,0.1-0.1,0.1-0.1
			c0,0,0.1-0.1,0.1-0.2c0,0,0.1-0.1,0.1-0.1c0-0.1,0.1-0.1,0.1-0.2c0,0,0.1-0.1,0.1-0.1c0-0.1,0.1-0.1,0.1-0.1s0.1-0.1,0.1-0.2
			c0-0.1,0.1-0.1,0.1-0.2c0,0,0.1-0.1,0.1-0.2c0,0,0.1-0.1,0.1-0.1c0.1,0,0.1-0.1,0.1-0.1c0-0.1,0.1-0.1,0.1-0.2s0.1-0.1,0.1-0.2
			c0,0,0.1-0.1,0.1-0.2c0,0,0.1-0.1,0.1-0.1c0,0,0.1-0.1,0.1-0.1c0,0,0.1-0.1,0.1-0.2c0,0,0.1-0.1,0.1-0.1c0-0.1,0.1-0.1,0.1-0.2
			c0.1,0,0.1-0.1,0.1-0.1c0-0.1,0.1-0.1,0.1-0.1c0,0,0.1-0.1,0.1-0.2c0-0.1,0.1-0.1,0.1-0.2c0.1,0,0.1-0.1,0.1-0.2
			c0,0,0.1-0.1,0.1-0.1c0,0,0.1-0.1,0.1-0.1c0-0.1,0.1-0.1,0.1-0.2c0,0,0.1-0.1,0.1-0.2c0.1,0,0.1-0.1,0.1-0.2c0,0,0.1-0.1,0.1-0.1
			c0,0,0.1-0.1,0.1-0.1c0,0,0.1-0.1,0.1-0.2c0.1,0,0.1-0.1,0.1-0.1c0-0.1,0.1-0.1,0.1-0.2c0,0,0.1-0.1,0.1-0.1
			c0-0.1,0.1-0.1,0.1-0.1c0,0,0.1-0.1,0.1-0.2c0.1-0.1,0.1-0.1,0.1-0.2c0,0,0.1-0.1,0.1-0.2c0,0,0.1-0.1,0.1-0.1
			c0,0,0.1-0.1,0.1-0.1c0-0.1,0.1-0.1,0.1-0.2s0.1-0.1,0.1-0.2c0,0,0.1-0.1,0.1-0.2c0,0,0.1-0.1,0.1-0.1c0,0,0.1-0.1,0.1-0.1
			c0.1,0,0.1-0.1,0.1-0.2c0,0,0.1-0.1,0.1-0.1c0-0.1,0.1-0.1,0.1-0.2c0,0,0.1-0.1,0.1-0.1c0-0.1,0.1-0.1,0.1-0.1
			c0,0,0.1-0.1,0.1-0.2c0-0.1,0.1-0.1,0.1-0.2c0,0,0.1-0.1,0.1-0.2c0,0,0.1-0.1,0.1-0.1c0.1,0,0.1-0.1,0.1-0.1
			c0-0.1,0.1-0.1,0.1-0.2c0,0,0.1-0.1,0.1-0.2c0,0,0.1-0.1,0.1-0.2c0.1,0,0.1-0.1,0.1-0.1c0,0,0.1-0.1,0.1-0.1c0,0,0.1-0.1,0.1-0.2
			c0,0,0.1-0.1,0.1-0.1c0.1-0.1,0.1-0.1,0.1-0.2c0,0,0.1-0.1,0.1-0.1c0-0.1,0.1-0.1,0.1-0.1c0,0,0.1-0.1,0.1-0.2
			c0.1-0.1,0.1-0.1,0.1-0.2c0.1,0,0.1-0.1,0.1-0.2c0,0,0.1-0.1,0.1-0.1c0,0,0.1-0.1,0.1-0.1c0-0.1,0.1-0.1,0.1-0.2
			c0,0,0.1-0.1,0.1-0.2c0.1,0,0.1-0.1,0.1-0.2c0,0,0.1-0.1,0.1-0.1c0,0,0.1-0.1,0.1-0.1c0,0,0.1-0.1,0.1-0.2c0.1,0,0.1-0.1,0.1-0.1
			c0-0.1,0.1-0.1,0.1-0.2c0,0,0.1-0.1,0.1-0.1c0-0.1,0.1-0.1,0.1-0.1c0,0,0.1-0.1,0.1-0.2c0-0.1,0.1-0.1,0.1-0.2
			c0,0,0.1-0.1,0.1-0.2c0,0,0.1-0.1,0.1-0.1c0,0,0.1-0.1,0.1-0.1c0-0.1,0.1-0.1,0.1-0.2c0,0,0.1-0.1,0.1-0.2c0,0,0.1-0.1,0.1-0.2
			c0,0,0.1-0.1,0.1-0.1c0,0,0.1-0.1,0.1-0.1c0,0,0.1-0.1,0.1-0.2c0,0,0.1-0.1,0.1-0.1c0-0.1,0.1-0.1,0.1-0.2c0,0,0.1-0.1,0.1-0.1
			c0-0.1,0.1-0.1,0.1-0.1c0,0,0.1-0.1,0.1-0.2c0-0.1,0.1-0.1,0.1-0.2c0,0,0.1-0.1,0.1-0.2c0.1,0,0.1-0.1,0.1-0.1
			c0,0,0.1-0.1,0.1-0.1c0-0.1,0.1-0.1,0.1-0.2c0,0,0.1-0.1,0.1-0.2c5.6-6.4,8.5-15.3,7.2-25.2L322.8,36c-2.5-19.6-20.4-35.5-40-35.5
			H58z"/>
		
			<linearGradient id="SVGID_2_" gradientUnits="userSpaceOnUse" x1="339.2949" y1="484.13" x2="339.2949" y2="336.528" gradientTransform="matrix(1 0 0 -1 0 578)">
			<stop  offset="0" style="stop-color:#007D73"/>
			<stop  offset="1" style="stop-color:#164186"/>
		</linearGradient>
		<path class="st1" d="M328.2,154.7l5.8,44.9c0.6,4.6,4.8,8.2,9.3,8.2c4.6,0,7.8-3.7,7.2-8.2l-5.8-44.9c-0.6-4.6-4.8-8.2-9.3-8.2
			S327.6,150.1,328.2,154.7z"/>
		
			<linearGradient id="SVGID_3_" gradientUnits="userSpaceOnUse" x1="228.9697" y1="562.9053" x2="183.8187" y2="69.5853" gradientTransform="matrix(1 0 0 -1 0 578)">
			<stop  offset="0" style="stop-color:#4ADECE"/>
			<stop  offset="1" style="stop-color:#1697D7"/>
		</linearGradient>
		<path class="st2" d="M58,0.5C38.5,0.5,24.6,16.4,27.1,36L88,510c2.5,19.6,20.4,35.5,40,35.5h224.7c19.6,0,33.4-15.9,30.9-35.5
			L322.8,36c-2.5-19.6-20.4-35.5-40-35.5H58z"/>
		
			<linearGradient id="SVGID_4_" gradientUnits="userSpaceOnUse" x1="256.181" y1="604.2505" x2="150.918" y2="-15.6325" gradientTransform="matrix(1 0 0 -1 0 578)">
			<stop  offset="0" style="stop-color:#D3F7FF"/>
			<stop  offset="1" style="stop-color:#B0CFD9"/>
		</linearGradient>
		<path class="st3" d="M68.7,19.2c-13.3,0-22.7,10.8-21,24.1l58.9,459.3c1.7,13.3,13.9,24.1,27.2,24.1h208.3
			c13.3,0,22.7-10.8,21-24.1L304.2,43.3C302.5,30,290.3,19.2,277,19.2H68.7z"/>
		
			<linearGradient id="SVGID_5_" gradientUnits="userSpaceOnUse" x1="246.91" y1="549.54" x2="68.52" y2="549.54" gradientTransform="matrix(1 0 0 -1 0 578)">
			<stop  offset="0" style="stop-color:#007D73"/>
			<stop  offset="1" style="stop-color:#164186"/>
		</linearGradient>
		<path class="st4" d="M107.3,19.2l5.6,9.9c2.9,5.2,8.5,8.6,14.1,8.6h80.7c5.7,0,10.4-3.4,11.9-8.6l3-9.9H107.3z"/>
		
			<linearGradient id="SVGID_6_" gradientUnits="userSpaceOnUse" x1="228.9697" y1="562.9053" x2="183.8187" y2="69.5853" gradientTransform="matrix(1 0 0 -1 0 578)">
			<stop  offset="0" style="stop-color:#4ADECE"/>
			<stop  offset="1" style="stop-color:#1697D7"/>
		</linearGradient>
		<path class="st5" d="M58,0.5C38.5,0.5,24.6,16.4,27.1,36L88,510c2.5,19.6,20.4,35.5,40,35.5h224.7c19.6,0,33.4-15.9,30.9-35.5
			L322.8,36c-2.5-19.6-20.4-35.5-40-35.5H58z"/>
		
			<linearGradient id="SVGID_7_" gradientUnits="userSpaceOnUse" x1="256.181" y1="604.2505" x2="150.918" y2="-15.6325" gradientTransform="matrix(1 0 0 -1 0 578)">
			<stop  offset="0" style="stop-color:#D3F7FF"/>
			<stop  offset="1" style="stop-color:#B0CFD9"/>
		</linearGradient>
		<path class="st6" d="M68.7,19.2c-13.3,0-22.7,10.8-21,24.1l58.9,459.3c1.7,13.3,13.9,24.1,27.2,24.1h208.3
			c13.3,0,22.7-10.8,21-24.1L304.2,43.3C302.5,30,290.3,19.2,277,19.2H68.7z"/>
		
			<linearGradient id="SVGID_8_" gradientUnits="userSpaceOnUse" x1="111.713" y1="418.35" x2="614.083" y2="418.35" gradientTransform="matrix(1 0 0 -1 0 578)">
			<stop  offset="0" style="stop-color:#4ADECE"/>
			<stop  offset="1" style="stop-color:#1697D7"/>
		</linearGradient>
		<path class="st7" d="M96.2,126.5c-14,0-23.9,11.3-22.2,25.3l5.1,41l18.9-15.6h121.7c14,0,23.9-11.3,22.2-25.3
			c-1.8-14-14.5-25.3-28.5-25.3H96.2z"/>
		
			<linearGradient id="SVGID_9_" gradientUnits="userSpaceOnUse" x1="103.211" y1="499.135" x2="605.59" y2="499.135" gradientTransform="matrix(1 0 0 -1 0 578)">
			<stop  offset="0" style="stop-color:#4ADECE"/>
			<stop  offset="1" style="stop-color:#1697D7"/>
		</linearGradient>
		<path class="st8" d="M87.6,45.7c-14,0-23.9,11.3-22.2,25.3l5.1,41l18.9-15.7h121.7c14,0,23.9-11.3,22.2-25.3
			c-1.8-14-14.5-25.3-28.5-25.3H87.6z"/>
		
			<linearGradient id="SVGID_10_" gradientUnits="userSpaceOnUse" x1="-39.408" y1="338.535" x2="284.147" y2="338.535" gradientTransform="matrix(1 0 0 -1 0 578)">
			<stop  offset="0" style="stop-color:#4ADECE"/>
			<stop  offset="1" style="stop-color:#1697D7"/>
		</linearGradient>
		<path class="st9" d="M163.2,206.3c-14,0-23.9,11.3-22.2,25.3c1.8,14,14.5,25.3,28.5,25.3h121.7l22.8,15.6l-5.1-41
			c-1.8-14-14.5-25.3-28.5-25.3H163.2z"/>
		
			<linearGradient id="SVGID_11_" gradientUnits="userSpaceOnUse" x1="131.713" y1="258.725" x2="634.083" y2="258.725" gradientTransform="matrix(1 0 0 -1 0 578)">
			<stop  offset="0" style="stop-color:#4ADECE"/>
			<stop  offset="1" style="stop-color:#1697D7"/>
		</linearGradient>
		<path class="st10" d="M116.3,286.1c-14,0-23.9,11.4-22.2,25.3l5.1,41l18.9-15.6h121.7c14,0,23.9-11.3,22.2-25.3
			c-1.8-14-14.5-25.3-28.5-25.3H116.3z"/>
		
			<linearGradient id="SVGID_12_" gradientUnits="userSpaceOnUse" x1="-19.414" y1="178.91" x2="304.146" y2="178.91" gradientTransform="matrix(1 0 0 -1 0 578)">
			<stop  offset="0" style="stop-color:#4ADECE"/>
			<stop  offset="1" style="stop-color:#1697D7"/>
		</linearGradient>
		<path class="st11" d="M183.2,365.9c-14,0-23.9,11.3-22.2,25.3c1.8,14,14.5,25.3,28.5,25.3h121.7l22.8,15.6l-5.1-41
			c-1.8-14-14.5-25.3-28.5-25.3H183.2z"/>
		<g>
			<defs>
				<path id="SVGID_13_" d="M68.7,19.2c-13.3,0-22.7,10.8-21,24.1l58.9,459.3c1.7,13.3,13.9,24.1,27.2,24.1h208.3
					c13.3,0,22.7-10.8,21-24.1L304.2,43.3C302.5,30,290.3,19.2,277,19.2H68.7z"/>
			</defs>
			<clipPath id="SVGID_14_">
				<use xlink:href="#SVGID_13_"  style="overflow:visible;"/>
			</clipPath>
			<g id="Mask" class="st12">
				<path class="st13" d="M131.6,450.9h184.5c9.9,0,18.9,8,20.1,17.9c1.2,9.9-5.8,17.9-15.6,17.9H136.1c-9.9,0-18.9-8-20.1-17.9
					C114.8,458.9,121.8,450.9,131.6,450.9z"/>
			</g>
		</g>
		
			<linearGradient id="SVGID_15_" gradientUnits="userSpaceOnUse" x1="337.393" y1="109.28" x2="114.937" y2="109.28" gradientTransform="matrix(1 0 0 -1 0 578)">
			<stop  offset="0" style="stop-color:#4ADECE"/>
			<stop  offset="1" style="stop-color:#1697D7"/>
		</linearGradient>
		<path class="st14" d="M316.1,450.9c9.9,0,18.9,8,20.1,17.9c0.1,0.8,0.1,1.5,0.1,2.2c0-0.7,0-1.5-0.1-2.2
			C335,458.9,326,450.9,316.1,450.9z M131.6,450.9h184.5H131.6z M115.9,466.5c0-8.8,6.7-15.6,15.8-15.6
			C122.6,450.9,115.9,457.7,115.9,466.5z M115.9,466.5c0,0.7,0,1.5,0.1,2.2c1.2,9.9,10.2,17.9,20.1,17.9h184.4
			c9.1,0,15.8-6.8,15.8-15.6c0,8.8-6.7,15.6-15.8,15.6H136.1c-9.9,0-18.9-8-20.1-17.9C115.9,468,115.9,467.2,115.9,466.5z"/>
		
			<linearGradient id="SVGID_16_" gradientUnits="userSpaceOnUse" x1="234.7931" y1="-22.9925" x2="323.6821" y2="133.7325" gradientTransform="matrix(1 0 0 -1 0 578)">
			<stop  offset="0" style="stop-color:#4ADECE"/>
			<stop  offset="1" style="stop-color:#1697D7"/>
		</linearGradient>
		<path class="st15" d="M289.7,450.9l4.5,35.7h26.4c9.9,0,16.9-8,15.6-17.9c-1.2-9.9-10.2-17.9-20.1-17.9H289.7z"/>
		<g>
			<defs>
				<path id="SVGID_17_" d="M68.7,19.2c-13.3,0-22.7,10.8-21,24.1l58.9,459.3c1.7,13.3,13.9,24.1,27.2,24.1h208.3
					c13.3,0,22.7-10.8,21-24.1L304.2,43.3C302.5,30,290.3,19.2,277,19.2H68.7z"/>
			</defs>
			<clipPath id="SVGID_18_">
				<use xlink:href="#SVGID_17_"  style="overflow:visible;"/>
			</clipPath>
			<g class="st16">
				<path class="st17" d="M84.4,63.5l133.2-0.1 M86.8,78.4L220,78.2 M91.9,143.4l133.2-0.1 M94.3,158.3l133.2-0.1 M113.6,304.4
					l133.2-0.1 M116,319.3l133.2-0.1"/>
				<path class="st18" d="M159.6,222.8l133.2-0.1 M162,237.6l133.2-0.1 M179.6,382.7l133.2-0.1 M182.1,397.6l133.2-0.1"/>
			</g>
		</g>
		
			<linearGradient id="SVGID_19_" gradientUnits="userSpaceOnUse" x1="176.1747" y1="389.197" x2="176.1747" y2="641.932" gradientTransform="matrix(1 0 0 -1 0 578)">
			<stop  offset="0" style="stop-color:#007D73"/>
			<stop  offset="1" style="stop-color:#164186"/>
		</linearGradient>
		<path class="st19" d="M68.7,19.2c-13.3,0-22.7,10.8-21,24.1l1,8.2l256.2-2.3l-0.8-5.9C302.5,30,290.3,19.2,277,19.2H68.7z"/>
		
			<linearGradient id="SVGID_20_" gradientUnits="userSpaceOnUse" x1="246.91" y1="549.54" x2="68.52" y2="549.54" gradientTransform="matrix(1 0 0 -1 0 578)">
			<stop  offset="0" style="stop-color:#007D73"/>
			<stop  offset="1" style="stop-color:#164186"/>
		</linearGradient>
		<path class="st20" d="M107.3,19.2l5.6,9.9c2.9,5.2,8.5,8.6,14.1,8.6h80.7c5.7,0,10.4-3.4,11.9-8.6l3-9.9H107.3z"/>
		
			<linearGradient id="SVGID_21_" gradientUnits="userSpaceOnUse" x1="314.7953" y1="572.889" x2="314.7953" y2="75.133" gradientTransform="matrix(1 0 0 -1 0 578)">
			<stop  offset="0" style="stop-color:#007D73"/>
			<stop  offset="1" style="stop-color:#164186"/>
		</linearGradient>
		<path class="st21" d="M266.3,19.2c13.3,0,25.5,10.8,27.2,24.1l58.9,459.3c1.7,13.3-7.7,24.1-21,24.1h10.7
			c13.3,0,22.7-10.8,21-24.1L304.2,43.3C302.5,30,290.3,19.2,277,19.2H266.3z"/>
		
			<linearGradient id="SVGID_22_" gradientUnits="userSpaceOnUse" x1="169.8347" y1="568.3961" x2="124.6837" y2="75.0751" gradientTransform="matrix(1 0 0 -1 0 578)">
			<stop  offset="0" style="stop-color:#4ADECE"/>
			<stop  offset="1" style="stop-color:#1697D7"/>
		</linearGradient>
		<path class="st22" d="M105,0.8L105,0.8l15.9,28.4c2.9,5.2,8.5,8.6,14.1,8.6h80.7c5.7,0,10.4-3.4,11.9-8.6l8.6-28.4H105z"/>
		
			<linearGradient id="SVGID_23_" gradientUnits="userSpaceOnUse" x1="246.395" y1="555.45" x2="69.135" y2="555.45" gradientTransform="matrix(1 0 0 -1 0 578)">
			<stop  offset="0" style="stop-color:#007D73"/>
			<stop  offset="1" style="stop-color:#164186"/>
		</linearGradient>
		<path class="st23" d="M135.9,19.2c-1.8,0-3.1,1.5-2.9,3.3c0.2,1.8,1.9,3.3,3.8,3.3h58.7c1.8,0,3.1-1.5,2.9-3.3
			c-0.2-1.8-1.9-3.3-3.8-3.3H135.9z"/>
		
			<linearGradient id="SVGID_24_" gradientUnits="userSpaceOnUse" x1="244.699" y1="555.45" x2="76.761" y2="555.45" gradientTransform="matrix(1 0 0 -1 0 578)">
			<stop  offset="0" style="stop-color:#007D73"/>
			<stop  offset="1" style="stop-color:#164186"/>
		</linearGradient>
		<path class="st24" d="M204.5,22.5c0.3,2.6,2.7,4.7,5.3,4.7c2.6,0,4.4-2.1,4.1-4.7c-0.3-2.6-2.7-4.7-5.3-4.7
			C206,17.8,204.2,20,204.5,22.5z"/>
		
			<linearGradient id="SVGID_25_" gradientUnits="userSpaceOnUse" x1="314.7953" y1="572.889" x2="314.7953" y2="75.133" gradientTransform="matrix(1 0 0 -1 0 578)">
			<stop  offset="0" style="stop-color:#007D73"/>
			<stop  offset="1" style="stop-color:#164186"/>
		</linearGradient>
		<path class="st25" d="M266.3,19.2c13.3,0,25.5,10.8,27.2,24.1l58.9,459.3c1.7,13.3-7.7,24.1-21,24.1h10.7
			c13.3,0,22.7-10.8,21-24.1L304.2,43.3C302.5,30,290.3,19.2,277,19.2H266.3z"/>
		
			<linearGradient id="SVGID_26_" gradientUnits="userSpaceOnUse" x1="427.167" y1="12.7106" x2="23.637" y2="544.4747" gradientTransform="matrix(1 0 0 -1 0 578)">
			<stop  offset="0" style="stop-color:#CACDC2"/>
			<stop  offset="2.000000e-03" style="stop-color:#CACDC2"/>
			<stop  offset="8.400000e-02" style="stop-color:#CDBCB3"/>
			<stop  offset="0.23" style="stop-color:#C59B9F"/>
			<stop  offset="0.39" style="stop-color:#BB6A81"/>
			<stop  offset="0.509" style="stop-color:#9E5574"/>
			<stop  offset="0.658" style="stop-color:#634A66"/>
			<stop  offset="0.86" style="stop-color:#253C4B"/>
			<stop  offset="1" style="stop-color:#052C35"/>
		</linearGradient>
		<path class="st26" d="M68.7,19.2c-12.2,0-21.2,9.1-21.2,20.9v0.2c0,1,0.1,2,0.2,3l58.9,459.3c1.7,13.3,13.9,24.1,27.2,24.1h208.3
			c12.2,0,21.1-9.1,21.2-20.9v-0.4c0-1-0.1-1.9-0.2-2.9L304.2,43.3C302.5,30,290.3,19.2,277,19.2H68.7z"/>
		
			<linearGradient id="SVGID_27_" gradientUnits="userSpaceOnUse" x1="169.8347" y1="568.3961" x2="124.6837" y2="75.0751" gradientTransform="matrix(1 0 0 -1 0 578)">
			<stop  offset="0" style="stop-color:#4ADECE"/>
			<stop  offset="1" style="stop-color:#1697D7"/>
		</linearGradient>
		<path class="st27" d="M105,0.8L105,0.8l15.9,28.4c2.9,5.2,8.5,8.6,14.1,8.6h80.7c5.7,0,10.4-3.4,11.9-8.6l8.6-28.4H105z"/>
		
			<linearGradient id="SVGID_28_" gradientUnits="userSpaceOnUse" x1="246.395" y1="555.45" x2="69.135" y2="555.45" gradientTransform="matrix(1 0 0 -1 0 578)">
			<stop  offset="0" style="stop-color:#007D73"/>
			<stop  offset="1" style="stop-color:#164186"/>
		</linearGradient>
		<path class="st28" d="M135.9,19.2c-1.8,0-3.1,1.5-2.9,3.3c0.2,1.8,1.9,3.3,3.8,3.3h58.7c1.8,0,3.1-1.5,2.9-3.3
			c-0.2-1.8-1.9-3.3-3.8-3.3H135.9z"/>
		
			<linearGradient id="SVGID_29_" gradientUnits="userSpaceOnUse" x1="244.699" y1="555.45" x2="76.761" y2="555.45" gradientTransform="matrix(1 0 0 -1 0 578)">
			<stop  offset="0" style="stop-color:#007D73"/>
			<stop  offset="1" style="stop-color:#164186"/>
		</linearGradient>
		<path class="st29" d="M204.5,22.5c0.3,2.6,2.7,4.7,5.3,4.7c2.6,0,4.4-2.1,4.1-4.7c-0.3-2.6-2.7-4.7-5.3-4.7
			C206,17.8,204.2,20,204.5,22.5z"/>
		
			<linearGradient id="SVGID_30_" gradientUnits="userSpaceOnUse" x1="38.5361" y1="541.119" x2="38.5361" y2="113.957" gradientTransform="matrix(1 0 0 -1 0 578)">
			<stop  offset="0" style="stop-color:#4ADECE"/>
			<stop  offset="1" style="stop-color:#1697D7"/>
		</linearGradient>
		<path class="st30" d="M32,224.3c-4.6,0-7.8,3.7-7.2,8.2l5,39c0.6,4.6,4.8,8.3,9.3,8.3h6c4.6,0,7.8-3.7,7.2-8.3l-5-39
			c-0.6-4.6-4.8-8.2-9.3-8.2H32z"/>
		
			<linearGradient id="SVGID_31_" gradientUnits="userSpaceOnUse" x1="-181.788" y1="325.92" x2="72.446" y2="325.92" gradientTransform="matrix(1 0 0 -1 0 578)">
			<stop  offset="0" style="stop-color:#007D73"/>
			<stop  offset="1" style="stop-color:#164186"/>
		</linearGradient>
		<path class="st31" d="M24.8,232.6l5,39c0.6,4.6,4.8,8.3,9.3,8.3c4.6,0,7.8-3.7,7.2-8.3l-5-39c-0.6-4.6-4.8-8.2-9.3-8.2
			S24.2,228,24.8,232.6z"/>
		
			<linearGradient id="SVGID_32_" gradientUnits="userSpaceOnUse" x1="28.5361" y1="541.119" x2="28.5361" y2="113.957" gradientTransform="matrix(1 0 0 -1 0 578)">
			<stop  offset="0" style="stop-color:#4ADECE"/>
			<stop  offset="1" style="stop-color:#1697D7"/>
		</linearGradient>
		<path class="st32" d="M22,146.4c-4.6,0-7.8,3.7-7.2,8.2l5,39c0.6,4.6,4.8,8.2,9.3,8.2h6c4.6,0,7.8-3.7,7.2-8.2l-5-39
			c-0.6-4.6-4.8-8.2-9.3-8.2H22z"/>
		
			<linearGradient id="SVGID_33_" gradientUnits="userSpaceOnUse" x1="-182.245" y1="403.845" x2="71.989" y2="403.845" gradientTransform="matrix(1 0 0 -1 0 578)">
			<stop  offset="0" style="stop-color:#007D73"/>
			<stop  offset="1" style="stop-color:#164186"/>
		</linearGradient>
		<path class="st33" d="M14.8,154.7l5,39c0.6,4.6,4.8,8.2,9.3,8.2s7.8-3.7,7.2-8.2l-5-39c-0.6-4.6-4.8-8.2-9.3-8.2
			S14.2,150.1,14.8,154.7z"/>
		
			<linearGradient id="SVGID_34_" gradientUnits="userSpaceOnUse" x1="174.613" y1="293.575" x2="397.165" y2="293.575" gradientTransform="matrix(1 0 0 -1 0 578)">
			<stop  offset="0" style="stop-color:#CACDC2"/>
			<stop  offset="2.000000e-03" style="stop-color:#CACDC2"/>
			<stop  offset="8.400000e-02" style="stop-color:#CDBCB3"/>
			<stop  offset="0.23" style="stop-color:#C59B9F"/>
			<stop  offset="0.39" style="stop-color:#BB6A81"/>
			<stop  offset="0.509" style="stop-color:#9E5574"/>
			<stop  offset="0.658" style="stop-color:#634A66"/>
			<stop  offset="0.86" style="stop-color:#253C4B"/>
			<stop  offset="1" style="stop-color:#052C35"/>
		</linearGradient>
		<path class="st34" d="M180.9,182.7c-10.1,0-17.5,7.5-17.5,17.2v0.3c0,0.7,0.1,1.5,0.1,2.2l21.4,183.8l30.9-33.6h147.5l-21.8-169.9
			H180.9z"/>
		
			<linearGradient id="SVGID_35_" gradientUnits="userSpaceOnUse" x1="215.87" y1="312.07" x2="513.41" y2="312.07" gradientTransform="matrix(1 0 0 -1 0 578)">
			<stop  offset="0" style="stop-color:#E8E0E3"/>
			<stop  offset="0.806" style="stop-color:#C5EEFF"/>
			<stop  offset="1" style="stop-color:#C5EEFF"/>
		</linearGradient>
		<path class="st35" d="M251.8,152.8c-19.8,0-35.9,16.1-35.9,35.9v190.4l39.5-34h222.1c19.8,0,35.9-16.1,35.9-35.9V188.7
			c0-19.8-16.1-35.9-35.9-35.9H251.8z"/>
		
			<linearGradient id="SVGID_36_" gradientUnits="userSpaceOnUse" x1="237.1374" y1="428.1764" x2="463.8594" y2="201.4544" gradientTransform="matrix(1 0 0 -1 0 578)">
			<stop  offset="0" style="stop-color:#1697D7"/>
			<stop  offset="1" style="stop-color:#4ADECE"/>
		</linearGradient>
		<path class="st36" d="M251.8,151.8c-20.4,0-36.9,16.5-36.9,36.9v192.6l40.9-35.2h221.8c20.4,0,36.9-16.5,36.9-36.9V188.7
			c0-20.4-16.5-36.9-36.9-36.9v1v1c19.3,0,34.9,15.6,34.9,34.9v120.5c0,19.3-15.6,34.9-34.9,34.9H255l-38.1,32.8V188.7
			c0-19.3,15.6-34.8,34.9-34.9h225.8v-1v-1H251.8z"/>
		
			<linearGradient id="SVGID_37_" gradientUnits="userSpaceOnUse" x1="370.0291" y1="385.4167" x2="333.4211" y2="226.7827" gradientTransform="matrix(1 0 0 -1 0 578)">
			<stop  offset="0" style="stop-color:#F88C57"/>
			<stop  offset="1" style="stop-color:#CE5021"/>
		</linearGradient>
		<path class="st37" d="M264.8,172.7c-10.9,0-19.7,8.8-19.7,19.7v108.4c0,10.9,8.8,19.7,19.7,19.7h185.5c10.9,0,19.7-8.8,19.7-19.7
			V192.4c0-10.9-8.8-19.7-19.7-19.7H264.8z"/>
		
			<linearGradient id="SVGID_38_" gradientUnits="userSpaceOnUse" x1="369.3456" y1="205.3501" x2="369.8746" y2="370.2291" gradientTransform="matrix(1 0 0 -1 0 578)">
			<stop  offset="0" style="stop-color:#F6DE55"/>
			<stop  offset="1" style="stop-color:#F5AE54"/>
		</linearGradient>
		<path class="st38" d="M277,172.7c-10.9,0-19.7,8.8-19.7,19.7v108.4c0,10.9,8.8,19.7,19.7,19.7h185.5c10.9,0,19.7-8.8,19.7-19.7
			V192.4c0-10.9-8.8-19.7-19.7-19.7H277z"/>
		
			<linearGradient id="SVGID_39_" gradientUnits="userSpaceOnUse" x1="339.1876" y1="103.3752" x2="377.8096" y2="303.7042" gradientTransform="matrix(1 0 0 -1 0 578)">
			<stop  offset="0" style="stop-color:#F6DE55"/>
			<stop  offset="1" style="stop-color:#F5AE54"/>
		</linearGradient>
		<path class="st39" d="M262.9,316.1c3,2.8,7.1,4.4,11.5,4.4h190.6c4.4,0,8.4-1.7,11.5-4.4l-106.8-83.3L262.9,316.1z"/>
		
			<linearGradient id="SVGID_40_" gradientUnits="userSpaceOnUse" x1="370.4857" y1="422.0756" x2="365.1537" y2="268.3926" gradientTransform="matrix(1 0 0 -1 0 578)">
			<stop  offset="0" style="stop-color:#F6DE55"/>
			<stop  offset="1" style="stop-color:#F5AE54"/>
		</linearGradient>
		<path class="st40" d="M274.4,172.7c-4.4,0-8.4,1.7-11.5,4.4l106.8,83.3l106.8-83.3c-3-2.8-7.1-4.4-11.5-4.4H274.4z"/>
		<path class="st41" d="M262.9,177.1l106.8,83.3l106.8-83.3"/>
		<path class="st42" d="M507.6,172.7c0,24.4-19.8,44.1-44.1,44.1s-44.1-19.8-44.1-44.1s19.8-44.1,44.1-44.1S507.6,148.3,507.6,172.7
			z"/>
		<path class="st43" d="M513.4,172.7c0,24.4-19.7,44.1-44.1,44.1c-24.4,0-44.1-19.8-44.1-44.1s19.7-44.1,44.1-44.1
			C493.7,128.6,513.4,148.3,513.4,172.7z"/>
		<path class="st42" d="M479.5,194.6H471v-36.3l-8,0.2V152l16.5-1.7V194.6z"/>
		<path class="st44" d="M475.5,194.6h-8.4v-36l-7.9,0.2v-6.5l16.3-1.7V194.6z"/>
	</g>
</g>
</svg>
