<?xml version="1.0" encoding="utf-8"?>
<!-- Generator: Adobe Illustrator 17.1.0, SVG Export Plug-In . SVG Version: 6.00 Build 0)  -->
<!DOCTYPE svg PUBLIC "-//W3C//DTD SVG 1.1//EN" "http://www.w3.org/Graphics/SVG/1.1/DTD/svg11.dtd">
<svg version="1.1" id="Layer_1" xmlns="http://www.w3.org/2000/svg" xmlns:xlink="http://www.w3.org/1999/xlink" x="0px" y="0px"
	 viewBox="0 0 850.4 467.7" enable-background="new 0 0 850.4 467.7" xml:space="preserve">
<g>
	<g>
		<g>
			<g>
				<g>
					<g>
						<g enable-background="new    ">
							<g enable-background="new    ">
								<defs>
									<path id="SVGID_1_" enable-background="new    " d="M548.8,357.8l-67.6-39.3c3.8-2.2,7-7.6,6.9-12l67.6,39.3
										C555.7,350.2,552.6,355.6,548.8,357.8z"/>
								</defs>
								<clipPath id="SVGID_2_">
									<use xlink:href="#SVGID_1_"  overflow="visible"/>
								</clipPath>
								<g clip-path="url(#SVGID_2_)" enable-background="new    ">
									<path fill="#CCCCCC" d="M548.8,357.8l-67.6-39.3c0.8-0.5,1.6-1.1,2.3-1.8l67.6,39.3C550.4,356.7,549.6,357.3,548.8,357.8
										L548.8,357.8z"/>
									<path fill="#C7C7C7" d="M551.1,356l-67.6-39.3c0.3-0.3,0.5-0.5,0.8-0.8l67.6,39.3C551.6,355.5,551.3,355.7,551.1,356
										L551.1,356z"/>
									<path fill="#C2C2C2" d="M551.8,355.2l-67.6-39.3c0.2-0.2,0.4-0.5,0.6-0.7l67.6,39.3C552.2,354.7,552,354.9,551.8,355.2
										L551.8,355.2z"/>
									<path fill="#BDBDBD" d="M552.4,354.5l-67.6-39.3c0.2-0.2,0.3-0.4,0.5-0.6l67.6,39.3C552.7,354.1,552.6,354.3,552.4,354.5
										L552.4,354.5z"/>
									<path fill="#B3B3B3" d="M552.9,353.9l-67.6-39.3c0.1-0.2,0.3-0.4,0.4-0.6l67.6,39.3C553.2,353.5,553,353.7,552.9,353.9
										L552.9,353.9z"/>
									<path fill="#B3B3B3" d="M553.3,353.2L485.7,314c0.1-0.2,0.2-0.4,0.4-0.6l67.6,39.3C553.5,352.9,553.4,353.1,553.3,353.2
										L553.3,353.2z"/>
									<path fill="#ADADAD" d="M553.6,352.7l-67.6-39.3c0.1-0.2,0.2-0.4,0.3-0.6l67.6,39.3C553.9,352.3,553.8,352.5,553.6,352.7
										L553.6,352.7z"/>
									<path fill="#A8A8A8" d="M554,352.1l-67.6-39.3c0.1-0.2,0.2-0.4,0.3-0.6l67.6,39.3C554.2,351.7,554.1,351.9,554,352.1
										L554,352.1z"/>
									<path fill="#A3A3A3" d="M554.3,351.5l-67.6-39.3c0.1-0.2,0.2-0.4,0.3-0.6l67.6,39.3C554.5,351.1,554.4,351.3,554.3,351.5
										L554.3,351.5z"/>
									<path fill="#9E9E9E" d="M554.5,350.9L487,311.6c0.1-0.2,0.2-0.4,0.3-0.6l67.6,39.3C554.7,350.5,554.6,350.7,554.5,350.9
										L554.5,350.9z"/>
									<path fill="#999999" d="M554.8,350.2L487.2,311c0.1-0.2,0.2-0.4,0.2-0.7l67.6,39.3C555,349.8,554.9,350,554.8,350.2
										L554.8,350.2z"/>
									<path fill="#949494" d="M555,349.6l-67.6-39.3c0.1-0.2,0.2-0.5,0.2-0.7l67.6,39.3C555.2,349.1,555.1,349.3,555,349.6
										L555,349.6z"/>
									<path fill="#8F8F8F" d="M555.3,348.9l-67.6-39.3c0.1-0.3,0.1-0.5,0.2-0.8l67.6,39.3C555.4,348.3,555.3,348.6,555.3,348.9
										L555.3,348.9z"/>
									<path fill="#8A8A8A" d="M555.5,348.1l-67.6-39.3c0.1-0.3,0.1-0.6,0.2-1l67.6,39.3C555.6,347.4,555.5,347.8,555.5,348.1
										L555.5,348.1z"/>
									<path fill="#858585" d="M555.6,347.1L488,307.8c0.1-0.5,0.1-0.9,0.1-1.4l67.6,39.3C555.7,346.2,555.7,346.7,555.6,347.1
										L555.6,347.1z"/>
								</g>
							</g>
							<g>
								<polygon fill="#F2F2F2" points="540.7,362.4 473.1,323.1 481.2,318.5 548.8,357.8 								"/>
							</g>
							<g>
								<polygon fill="#888888" points="540.7,365.5 473.1,326.2 473.1,323.1 540.7,362.4 								"/>
							</g>
							<g>
								<polygon fill="#888888" points="555.7,345.8 488.1,306.5 487.9,242.2 555.5,281.4 								"/>
							</g>
							<g>
								<polygon fill="#F2F2F2" points="555.5,281.4 487.9,242.2 490.6,240.6 558.2,279.9 								"/>
							</g>
							<g>
								<path fill="#C5C5C5" d="M558.2,279.9l0.2,64.3c0,6.1-4.3,13.5-9.6,16.6l-8,4.6l0-3.1l8-4.6c3.8-2.2,7-7.6,6.9-12l-0.2-64.3
									L558.2,279.9z"/>
							</g>
						</g>
					</g>
					<g>
						<g enable-background="new    ">
							<g enable-background="new    ">
								<defs>
									<path id="SVGID_3_" enable-background="new    " d="M421.4,358.2l0-3.1c0,1.2,0.8,2.5,2.5,3.4l0,3.1
										C422.3,360.7,421.4,359.5,421.4,358.2z"/>
								</defs>
								<clipPath id="SVGID_4_">
									<use xlink:href="#SVGID_3_"  overflow="visible"/>
								</clipPath>
								<g clip-path="url(#SVGID_4_)" enable-background="new    ">
									<path fill="#858585" d="M423.9,358.6l0,3.1c-1.6-1-2.5-2.2-2.5-3.4l0-3.1C421.4,356.4,422.3,357.7,423.9,358.6L423.9,358.6
										z"/>
								</g>
							</g>
							<g>
								<polygon fill="#C5C5C5" points="541,362.3 540.9,365.3 491.7,394 491.7,390.9 								"/>
							</g>
							<g>
								<polygon fill="#898989" points="479.9,390.9 479.9,394 423.9,361.7 423.9,358.6 								"/>
							</g>
							<g enable-background="new    ">
								<defs>
									<path id="SVGID_5_" enable-background="new    " d="M491.7,390.9l0,3.1c-3.3,1.9-8.5,1.9-11.8,0l0-3.1
										C483.1,392.8,488.4,392.8,491.7,390.9z"/>
								</defs>
								<clipPath id="SVGID_6_">
									<use xlink:href="#SVGID_5_"  overflow="visible"/>
								</clipPath>
								<g clip-path="url(#SVGID_6_)" enable-background="new    ">
									<path fill="#F2F2F2" d="M491.7,390.9l0,3.1c-0.6,0.3-1.2,0.6-1.8,0.8l0-3.1C490.5,391.5,491.1,391.2,491.7,390.9
										L491.7,390.9z"/>
									<path fill="#B3B3B3" d="M489.8,391.7l0,3.1c-0.5,0.2-1,0.3-1.6,0.4l0-3.1C488.8,392,489.3,391.9,489.8,391.7L489.8,391.7z"
										/>
									<path fill="#ADADAD" d="M488.3,392.1l0,3.1c-0.4,0.1-0.7,0.1-1.1,0.1l0-3.1C487.6,392.2,487.9,392.2,488.3,392.1
										L488.3,392.1z"/>
									<path fill="#A8A8A8" d="M487.2,392.3l0,3.1c-0.3,0-0.6,0.1-0.9,0.1l0-3.1C486.6,392.3,486.9,392.3,487.2,392.3L487.2,392.3
										z"/>
									<path fill="#A3A3A3" d="M486.3,392.3l0,3.1c-0.3,0-0.6,0-0.9,0l0-3.1C485.7,392.3,486,392.3,486.3,392.3L486.3,392.3z"/>
									<path fill="#9E9E9E" d="M485.4,392.3l0,3.1c-0.3,0-0.5,0-0.8,0l0-3.1C484.9,392.3,485.1,392.3,485.4,392.3L485.4,392.3z"/>
									<path fill="#999999" d="M484.6,392.3l0,3.1c-0.3,0-0.5-0.1-0.8-0.1l0-3.1C484.1,392.2,484.3,392.3,484.6,392.3L484.6,392.3
										z"/>
									<path fill="#949494" d="M483.8,392.2l0,3.1c-0.3,0-0.6-0.1-0.8-0.1l0-3.1C483.2,392.1,483.5,392.2,483.8,392.2L483.8,392.2
										z"/>
									<path fill="#8F8F8F" d="M483,392.1l0,3.1c-0.3-0.1-0.6-0.1-0.9-0.2l0-3.1C482.4,391.9,482.7,392,483,392.1L483,392.1z"/>
									<path fill="#8A8A8A" d="M482.1,391.8l0,3.1c-0.3-0.1-0.7-0.2-1-0.3l0-3.1C481.4,391.6,481.7,391.7,482.1,391.8L482.1,391.8
										z"/>
									<path fill="#858585" d="M481.1,391.5l0,3.1c-0.4-0.2-0.8-0.4-1.2-0.6l0-3.1C480.2,391.1,480.6,391.3,481.1,391.5
										L481.1,391.5z"/>
								</g>
							</g>
							<g>
								<path fill="#F2F2F2" d="M541,362.3l-49.3,28.6c-3.3,1.9-8.5,1.9-11.8,0l-56-32.3c-3.3-1.9-3.3-5,0-6.8l49.3-28.6L541,362.3z
									"/>
							</g>
						</g>
					</g>
					<g>
						<g enable-background="new    ">
							<g enable-background="new    ">
								<defs>
									<path id="SVGID_7_" enable-background="new    " d="M401.2,19.3l8.9-3.5c2.2-0.9,4.8-0.6,7.5,0.9l-8.9,3.5
										C406,18.7,403.4,18.4,401.2,19.3z"/>
								</defs>
								<clipPath id="SVGID_8_">
									<use xlink:href="#SVGID_7_"  overflow="visible"/>
								</clipPath>
								<g clip-path="url(#SVGID_8_)" enable-background="new    ">
									<path fill="#858585" d="M401.2,19.3l8.9-3.5c0.1,0,0.2-0.1,0.3-0.1l-8.9,3.5C401.4,19.2,401.3,19.2,401.2,19.3L401.2,19.3z
										"/>
									<path fill="#8A8A8A" d="M401.5,19.2l8.9-3.5c0.3-0.1,0.6-0.2,0.9-0.2l-8.9,3.5C402.1,19,401.8,19.1,401.5,19.2L401.5,19.2z
										"/>
									<path fill="#8F8F8F" d="M402.4,18.9l8.9-3.5c0.2,0,0.5-0.1,0.7-0.1l-8.9,3.5C402.9,18.8,402.7,18.9,402.4,18.9L402.4,18.9z
										"/>
									<path fill="#949494" d="M403.1,18.8l8.9-3.5c0.2,0,0.4,0,0.6,0l-8.9,3.5C403.6,18.8,403.4,18.8,403.1,18.8L403.1,18.8z"/>
									<path fill="#999999" d="M403.8,18.8l8.9-3.5c0.2,0,0.4,0,0.6,0l-8.9,3.5C404.2,18.8,404,18.8,403.8,18.8L403.8,18.8z"/>
									<path fill="#9E9E9E" d="M404.4,18.8l8.9-3.5c0.2,0,0.4,0,0.5,0.1l-8.9,3.5C404.7,18.8,404.5,18.8,404.4,18.8L404.4,18.8z"
										/>
									<path fill="#A3A3A3" d="M404.9,18.9l8.9-3.5c0.2,0,0.3,0.1,0.5,0.1l-8.9,3.5C405.2,18.9,405.1,18.9,404.9,18.9L404.9,18.9z
										"/>
									<path fill="#A8A8A8" d="M405.4,18.9l8.9-3.5c0.2,0,0.3,0.1,0.5,0.1l-8.9,3.5C405.7,19,405.6,19,405.4,18.9L405.4,18.9z"/>
									<path fill="#ADADAD" d="M405.9,19.1l8.9-3.5c0.2,0,0.3,0.1,0.5,0.1l-8.9,3.5C406.2,19.1,406.1,19.1,405.9,19.1L405.9,19.1z
										"/>
									<path fill="#B3B3B3" d="M406.4,19.2l8.9-3.5c0.2,0,0.3,0.1,0.5,0.2l-8.9,3.5C406.7,19.3,406.5,19.2,406.4,19.2L406.4,19.2z
										"/>
									<path fill="#F2F2F2" d="M406.9,19.3l8.9-3.5c0.2,0.1,0.3,0.1,0.5,0.2l-8.9,3.5C407.2,19.5,407,19.4,406.9,19.3L406.9,19.3z
										"/>
									<path fill="#BDBDBD" d="M407.3,19.5l8.9-3.5c0.2,0.1,0.3,0.1,0.5,0.2l-8.9,3.5C407.6,19.7,407.5,19.6,407.3,19.5
										L407.3,19.5z"/>
									<path fill="#C2C2C2" d="M407.8,19.7l8.9-3.5c0.2,0.1,0.3,0.2,0.5,0.2l-8.9,3.5C408.1,19.9,408,19.8,407.8,19.7L407.8,19.7z
										"/>
									<path fill="#C7C7C7" d="M408.3,20l8.9-3.5c0.1,0.1,0.3,0.2,0.4,0.2l-8.9,3.5C408.6,20.1,408.4,20.1,408.3,20L408.3,20z"/>
								</g>
							</g>
							<g enable-background="new    ">
								<defs>
									<path id="SVGID_9_" enable-background="new    " d="M628.4,375.5l-8.9,3.5c2.7-1.1,4.7-3.9,5.3-8.1l8.9-3.5
										C633.2,371.5,631.2,374.4,628.4,375.5z"/>
								</defs>
								<clipPath id="SVGID_10_">
									<use xlink:href="#SVGID_9_"  overflow="visible"/>
								</clipPath>
								<g clip-path="url(#SVGID_10_)" enable-background="new    ">
									<path fill="#F2F2F2" d="M624.8,370.9l8.9-3.5c0,0,0,0,0,0L624.8,370.9C624.8,370.9,624.8,370.9,624.8,370.9L624.8,370.9z"
										/>
									<path fill="#B3B3B3" d="M624.8,371l8.9-3.5c0,0.2-0.1,0.4-0.1,0.6l-8.9,3.5C624.7,371.4,624.8,371.2,624.8,371L624.8,371z"
										/>
									<path fill="#ADADAD" d="M624.7,371.5l8.9-3.5c0,0.2-0.1,0.4-0.1,0.6l-8.9,3.5C624.6,371.9,624.7,371.7,624.7,371.5
										L624.7,371.5z"/>
									<path fill="#A8A8A8" d="M624.6,372.1l8.9-3.5c0,0.2-0.1,0.4-0.1,0.6l-8.9,3.5C624.5,372.5,624.6,372.3,624.6,372.1
										L624.6,372.1z"/>
									<path fill="#A3A3A3" d="M624.5,372.7l8.9-3.5c-0.1,0.2-0.1,0.4-0.2,0.6l-8.9,3.5C624.4,373.1,624.4,372.9,624.5,372.7
										L624.5,372.7z"/>
									<path fill="#9E9E9E" d="M624.3,373.3l8.9-3.5c-0.1,0.2-0.1,0.4-0.2,0.6l-8.9,3.5C624.2,373.7,624.2,373.5,624.3,373.3
										L624.3,373.3z"/>
									<path fill="#999999" d="M624.1,373.9l8.9-3.5c-0.1,0.2-0.2,0.4-0.2,0.6l-8.9,3.5C624,374.3,624,374.1,624.1,373.9
										L624.1,373.9z"/>
									<path fill="#949494" d="M623.9,374.5l8.9-3.5c-0.1,0.2-0.2,0.4-0.3,0.6l-8.9,3.5C623.7,374.9,623.8,374.7,623.9,374.5
										L623.9,374.5z"/>
									<path fill="#8F8F8F" d="M623.6,375.1l8.9-3.5c-0.1,0.2-0.3,0.5-0.4,0.7l-8.9,3.5C623.3,375.6,623.5,375.4,623.6,375.1
										L623.6,375.1z"/>
									<path fill="#8A8A8A" d="M623.2,375.8l8.9-3.5c-0.2,0.3-0.4,0.6-0.6,0.8l-8.9,3.5C622.8,376.4,623,376.1,623.2,375.8
										L623.2,375.8z"/>
									<path fill="#858585" d="M622.6,376.6l8.9-3.5c-0.9,1.1-1.9,1.9-3.1,2.4l-8.9,3.5C620.7,378.5,621.8,377.7,622.6,376.6
										L622.6,376.6z"/>
								</g>
							</g>
							<g>
								<polygon fill="#D8D8D8" points="408.7,20.2 417.6,16.7 649.9,150.8 641,154.3 								"/>
							</g>
							<g>
								<polygon fill="#C5C5C5" points="650.3,174.2 659.2,170.7 633.7,367.4 624.8,370.9 								"/>
							</g>
							<g enable-background="new    ">
								<defs>
									<path id="SVGID_11_" enable-background="new    " d="M641,154.3l8.9-3.5c6.1,3.5,10.2,12.4,9.3,19.9l-8.9,3.5
										C651.2,166.8,647.1,157.8,641,154.3z"/>
								</defs>
								<clipPath id="SVGID_12_">
									<use xlink:href="#SVGID_11_"  overflow="visible"/>
								</clipPath>
								<g clip-path="url(#SVGID_12_)" enable-background="new    ">
									<path fill="#C7C7C7" d="M641,154.3l8.9-3.5c0,0,0,0,0,0L641,154.3C641,154.3,641,154.3,641,154.3L641,154.3z"/>
									<path fill="#CCCCCC" d="M641,154.4l8.9-3.5c0.2,0.1,0.3,0.2,0.5,0.3l-8.9,3.5C641.4,154.5,641.2,154.4,641,154.4L641,154.4
										z"/>
									<path fill="#F2F2F2" d="M641.5,154.6l8.9-3.5c0.2,0.1,0.3,0.2,0.5,0.3L642,155C641.8,154.9,641.7,154.7,641.5,154.6
										L641.5,154.6z"/>
									<path fill="#D6D6D6" d="M642,155l8.9-3.5c0.2,0.1,0.3,0.2,0.5,0.4l-8.9,3.5C642.3,155.2,642.2,155.1,642,155L642,155z"/>
									<path fill="#F2F2F2" d="M642.5,155.3l8.9-3.5c0.2,0.1,0.3,0.3,0.5,0.4l-8.9,3.5C642.8,155.6,642.6,155.4,642.5,155.3
										L642.5,155.3z"/>
									<path fill="#E0E0E0" d="M643,155.7l8.9-3.5c0.2,0.1,0.3,0.3,0.5,0.4l-8.9,3.5C643.3,156,643.2,155.9,643,155.7L643,155.7z"
										/>
									<path fill="#E6E6E6" d="M643.5,156.2l8.9-3.5c0.2,0.2,0.4,0.3,0.5,0.5l-8.9,3.5C643.9,156.5,643.7,156.3,643.5,156.2
										L643.5,156.2z"/>
									<path fill="#EBEBEB" d="M644,156.7l8.9-3.5c0.2,0.2,0.4,0.4,0.6,0.6l-8.9,3.5C644.4,157,644.2,156.8,644,156.7L644,156.7z"
										/>
									<path fill="#F0F0F0" d="M644.6,157.2l8.9-3.5c0.2,0.2,0.4,0.4,0.6,0.7l-8.9,3.5C645,157.7,644.8,157.4,644.6,157.2
										L644.6,157.2z"/>
									<path fill="#F5F5F5" d="M645.2,157.9l8.9-3.5c0.2,0.3,0.4,0.5,0.6,0.8l-8.9,3.5C645.6,158.4,645.4,158.2,645.2,157.9
										L645.2,157.9z"/>
									<path fill="#FAFAFA" d="M645.8,158.7l8.9-3.5c0.3,0.3,0.5,0.7,0.7,1l-8.9,3.5C646.3,159.4,646.1,159,645.8,158.7
										L645.8,158.7z"/>
									<path fill="#FFFFFF" d="M646.5,159.7l8.9-3.5c0.4,0.6,0.8,1.3,1.2,2l-8.9,3.5C647.4,161,647,160.3,646.5,159.7L646.5,159.7
										z"/>
									<path fill="#FFFFFF" d="M647.7,161.7l8.9-3.5c0,0.1,0.1,0.2,0.1,0.2l-8.9,3.5C647.8,161.8,647.8,161.8,647.7,161.7
										L647.7,161.7z"/>
									<path fill="#FFFFFF" d="M647.9,161.9l8.9-3.5c0.4,0.8,0.8,1.6,1.1,2.5l-8.9,3.5C648.6,163.5,648.3,162.7,647.9,161.9
										L647.9,161.9z"/>
									<path fill="#FAFAFA" d="M649,164.4l8.9-3.5c0.1,0.4,0.3,0.7,0.4,1.1l-8.9,3.5C649.2,165.1,649.1,164.7,649,164.4L649,164.4
										z"/>
									<path fill="#F5F5F5" d="M649.3,165.5l8.9-3.5c0.1,0.3,0.2,0.6,0.3,0.9l-8.9,3.5C649.5,166.1,649.4,165.8,649.3,165.5
										L649.3,165.5z"/>
									<path fill="#F0F0F0" d="M649.6,166.4l8.9-3.5c0.1,0.3,0.1,0.5,0.2,0.8l-8.9,3.5C649.8,166.9,649.7,166.6,649.6,166.4
										L649.6,166.4z"/>
									<path fill="#EBEBEB" d="M649.8,167.2l8.9-3.5c0.1,0.2,0.1,0.5,0.2,0.8l-8.9,3.5C649.9,167.7,649.9,167.4,649.8,167.2
										L649.8,167.2z"/>
									<path fill="#E6E6E6" d="M650,167.9l8.9-3.5c0,0.2,0.1,0.5,0.1,0.7l-8.9,3.5C650.1,168.4,650,168.2,650,167.9L650,167.9z"/>
									<path fill="#E0E0E0" d="M650.1,168.6l8.9-3.5c0,0.2,0.1,0.5,0.1,0.7l-8.9,3.5C650.2,169.1,650.2,168.9,650.1,168.6
										L650.1,168.6z"/>
									<path fill="#E0E0E0" d="M650.2,169.3l8.9-3.5c0,0.2,0.1,0.4,0.1,0.7l-8.9,3.5C650.3,169.8,650.3,169.6,650.2,169.3
										L650.2,169.3z"/>
									<path fill="#D6D6D6" d="M650.3,170l8.9-3.5c0,0.2,0,0.4,0.1,0.7l-8.9,3.5C650.4,170.4,650.3,170.2,650.3,170L650.3,170z"/>
									<path fill="#D6D6D6" d="M650.4,170.7l8.9-3.5c0,0.2,0,0.4,0,0.6l-8.9,3.5C650.4,171.1,650.4,170.9,650.4,170.7L650.4,170.7
										z"/>
									<path fill="#CCCCCC" d="M650.4,171.3l8.9-3.5c0,0.2,0,0.4,0,0.6l-8.9,3.5C650.4,171.7,650.4,171.5,650.4,171.3L650.4,171.3
										z"/>
									<path fill="#C7C7C7" d="M650.4,171.9l8.9-3.5c0,0.2,0,0.4,0,0.6l-8.9,3.5C650.4,172.3,650.4,172.1,650.4,171.9L650.4,171.9
										z"/>
									<path fill="#C2C2C2" d="M650.4,172.5l8.9-3.5c0,0.2,0,0.4,0,0.6l-8.9,3.5C650.4,172.9,650.4,172.7,650.4,172.5L650.4,172.5
										z"/>
									<path fill="#BDBDBD" d="M650.4,173.1l8.9-3.5c0,0.2,0,0.4,0,0.6l-8.9,3.5C650.4,173.5,650.4,173.3,650.4,173.1L650.4,173.1
										z"/>
									<path fill="#C2C2C2" d="M650.3,173.7l8.9-3.5c0,0.2,0,0.4-0.1,0.5l-8.9,3.5C650.3,174,650.3,173.9,650.3,173.7L650.3,173.7
										z"/>
								</g>
							</g>
							<g>
								<path fill="#F2F2F2" d="M641,154.3c6.1,3.5,10.2,12.4,9.3,19.9l-25.5,196.7c-1,7.5-6.7,10.7-12.8,7.2L379.7,244
									c-6.1-3.5-10.2-12.4-9.3-19.9l25.5-196.7c1-7.5,6.7-10.7,12.8-7.2L641,154.3z"/>
								<path fill="#292E3F" d="M616.9,375.4c-0.9,0-1.8-0.3-2.8-0.9L381.8,240.4c-4.7-2.7-8-10-7.3-15.9L400,27.9
									c0.2-1.2,0.9-5,3.9-5c0.9,0,1.8,0.3,2.8,0.9L639,157.8c4.7,2.7,8,10,7.3,15.9l-25.5,196.7
									C620.6,371.6,619.9,375.4,616.9,375.4z"/>
								<g>
									<path fill="#171C2B" d="M611,363.5L386.8,234.1c-2.4-1.4-4.9-6.1-4.4-9.9l24.4-188.3c0.1-1.1,0.6-2,1.3-2.7
										c-1.7,0.5-3.1,2-3.4,4l-24.4,188.3c-0.5,3.8,2,8.6,4.4,9.9l224.1,129.4c2,1.2,4.4,0.7,5.8-0.8
										C613.5,364.3,612.2,364.2,611,363.5z"/>
									<path fill="#455A82" d="M616,361.2l24.4-188.3c0.5-3.8-2-8.6-4.4-10L411.9,33.6c-1.2-0.7-2.5-0.8-3.7-0.4
										c-0.7,0.7-1.2,1.6-1.3,2.7l-24.4,188.3c-0.5,3.8,2,8.6,4.4,9.9L611,363.5c1.2,0.7,2.5,0.8,3.7,0.4
										C615.4,363.2,615.8,362.3,616,361.2z"/>
								</g>
							</g>
						</g>
					</g>
				</g>
			</g>
			<g>
				<polygon fill="#292E3F" points="531.2,199.2 531.1,200.3 526.3,197.5 525.9,200.4 521.9,198.1 520.4,194.2 523.7,196.2 
					524.9,195.5 				"/>
			</g>
			<g>
				<polygon fill="#292E3F" points="594,285 594.4,285.7 593.1,286.4 593.8,287.9 593.6,289.6 592.1,290.5 590.7,289.7 589.1,286.1 
					589.4,284.4 590.6,287 				"/>
			</g>
			<g>
				<path fill="#292E3F" d="M599.8,293.4l2.5,1.5l1.5,3.1l2.5,1.4l-0.7,0.4l1.7,3.6l-0.8,0.5l-1.4-3l-3.2-1.9l0.3-2.1l-2.5-1.4
					C599.6,295.3,599.8,293.5,599.8,293.4z"/>
			</g>
			<g enable-background="new    ">
				<g>
					<polygon fill="#292E3F" points="601.4,301.9 601.3,303 600.1,303.7 599.8,306 602.5,307.5 603,303.4 604.2,305.9 603.9,308.1 
						605.3,311 603.9,311.7 605.8,315.9 603.9,317 600.5,318.8 598.8,317.8 597.7,318.5 596.2,317.6 596.6,314.8 596.9,312.6 
						593.2,310.4 592.1,311 589.5,309.5 587.9,310.4 586.8,308.1 588.1,308.9 588.5,305.7 587.8,305.3 588.2,302.4 588.5,299.8 
						592.2,301.9 594.1,300.9 595.3,300.2 596.3,302.2 599.2,300.6 					"/>
				</g>
				<g>
					<path fill="#292E3F" d="M610.5,254.6l-2.1-1.2l1.6,3.4l-2,1.1l-2.8-1.6l1.4,3.1l-0.2,1.8l-1.9-4.2l0.4-2.9l-2.7-1.6l-0.2,1.6
						l-3.6-2.1L597,253l-0.2,1.2l2.7,1.5l2.5,5.3l-0.3,2.2l-2.1-1.2l-2.5,1.4l1.6,3.5l-1.4,0.8l-2.6-5.5l-1,0.6l2.5,5.4l-0.6,4.3
						l-1.8-1l-2.2,1.2l-1.1-2.4l-1.6,0.9l3.8,8l-3.6,2l-2.9-6.1l-0.6,5l2.2,4.7l-1.5-0.9l-1.4-3l0.7-5.8l-1.1-0.6l0.4-2.8l-1.4-3
						l-2.2-1.2l-1.2,0.7l-2.2,1.2l-0.5,4L576,274l-0.9-2l0.2-1.7l-0.8-1.6l-0.6-1.4l0.4-3.3l-1.3-2.8l-3.6-2.1l-2.2-4.8l-1.7,1
						l-1.5-3.2l-1.7-1l3,6.5l1.8-1l1.7,3.5l-2.2,1.2l-2.1-1.2l-2.4,1.4l-2.9-6.2l0.4-2.7l-2.3-5l-1.2,0.7l1.4,3l-0.3,2.3l2,4.4
						l-1.1,0.6l2.3,5l2.6-1.4l0.6,1.3l-1.5,0.9l-0.6,4.6l-2.3,1.3l-1,7.6l-3.4,1.9l-0.3,2.6l-1.2,0.6l-0.3,2l-3.6,2l-3.7-2.1
						l-2.2-4.6l0.5-4l-1-2.2l0.2-1.4l1.3-0.7l0.3-2.3l1-0.6l0.3-2.2l-2.1-4.4l0.6-4.3c0-0.1-0.9-1.9-1-2.2c-0.1-0.1-0.3-0.3-0.7-0.5
						c-0.7-0.4-1.7-0.9-1.7-0.9l-1.1,0.6l-5.3-3.1l-2-4.3l0.4-3.1l1.3-0.7l0.2-1.6l-0.9-1.9l0.3-2l6.3-3.5l3.6,2.1l0.3-2.5l2.6,1.5
						l-0.2,1.9l2.3,4.9l2,1.2l0.1-0.8l0.9,0.5l3.8,2.2l2.1,1.2l2.6-1.5l-4.6-2.7l-1.8-3.9l-0.4,3.5l-2.1-4.5l0.3-2.4l-1.9-1.1
						l1.1,2.4l-0.2,1.2l-1.7-3.6l-3.4-2l-1.9-1.1l-0.5,4.1l-4.2-2.4l0.4-3l1.3-0.7l2.4-1.4l0.2-1.6l2.4,1.4l0.3-2.4l3,1.7l0.2-1.7
						l3,1.7l2.3,1.3l-1.5-3.1l2.1-1.2l-0.9-2l-2.4,1.3l-2.4,1.3l-2.1-1.2l0.3-2.2l1.8-1l1.4-0.8l0.3-2.7l3.3,1.9l-0.2,1.5l5,2.9
						l1.3,2.8l-2.4-1.4l-1.3,0.7l2.8,1.6l4,2.3l2.6,5.6l1-0.6l-1.1-2.4l0.5-3.7l2.5-1.4l0.8,1.8l2.2-1.2l1.6,0.9l0.2-1.5l8.2,4.7
						l2.6,5.6l14,8.1l-0.2,1.2l10.9,6.3L610.5,254.6z M565.9,247.9l0.2-1.3l-0.8-1.6l0.1-1.1l-0.9-2l2-1.1l-1.4-0.8l-2.2,1.2
						l1.3,2.9l-0.3,2.6l0.7,0.4l0.6,1.2L565.9,247.9L565.9,247.9z M560.1,242l0.8-0.4l-1.2-2.7l0.1-0.8l-1.3-0.7l-0.9,0.5l0.2-1.4
						l-1.2-0.7l-0.2,1.7l-1.2,0.7l0.8,1.8l0.5,0.3l0.1-1l1.6,0.9l0.5,1.1L560.1,242L560.1,242z"/>
				</g>
			</g>
			<g enable-background="new    ">
				<g>
					<polygon fill="#292E3F" points="484.4,116.6 483.8,121 465.5,110.5 466.1,106.1 					"/>
				</g>
				<g>
					<polygon fill="#292E3F" points="521.8,147.4 521.2,151.8 464.4,119 465,114.6 					"/>
				</g>
				<g>
					<polygon fill="#292E3F" points="538.3,139.5 537.7,143.9 466.5,102.8 467.1,98.4 					"/>
				</g>
			</g>
			<g enable-background="new    ">
				<g>
					<polygon fill="#292E3F" points="506.9,191.3 509.3,196.5 511.4,197.7 512.8,196.9 517.6,199.7 519.2,198.7 520.2,200.8 
						515,203.7 510.7,201.2 510.5,202.9 512.8,207.8 519.5,204.1 520.7,204.7 522.6,208.8 522.2,211.4 522.9,213 522.8,214.3 
						516.3,217.9 513,216 512.7,218.9 509.4,220.8 503.4,217.3 500.3,219 500,221 506,233.8 507.9,232.8 513.5,236.1 515.6,240.6 
						517.3,241.5 520,247.4 521.8,248.4 521.5,250.6 523.4,251.7 522.9,256.3 520.8,257.5 520.3,260.8 516,263.2 515.8,264.5 
						513.2,266 512.6,270.3 510.6,271.4 510.1,275.8 508.4,274.8 511,280.4 509.1,279.4 504.8,270.2 507,253.1 501.6,241.5 
						502.2,237 504.4,235.8 504.7,233.2 500.1,223.4 495.1,220.5 493.4,216.8 493.7,214.4 490,212.3 490.6,208 489.2,204.9 
						489.7,200.5 494.2,198 494.6,194.8 493.3,192.1 493.6,189.8 492.6,187.6 491.5,187 487.2,189.4 485.5,188.4 483.3,189.6 
						482.8,188.3 492.4,183 					"/>
				</g>
				<g>
					<polygon fill="#292E3F" points="544,206.9 543.7,209.4 541.2,208 540.2,208.6 539,209.3 538.6,212.7 535,210.6 534.2,211.1 
						533.1,210.5 529.6,212.5 529.2,211.6 527.6,210.7 528.2,206.1 528.9,205.7 529.4,201.7 527,200.3 527.2,199 531.6,201.5 
						533.1,200.7 					"/>
				</g>
			</g>
			<g>
				<g>
					<polygon fill="#ECECEC" points="479.1,164.9 478.2,171.8 430.6,144.3 431.5,137.3 					"/>
				</g>
				<g>
					<polygon fill="#ECECEC" points="454.8,163.9 453.9,170.8 429,156.4 429.9,149.5 					"/>
				</g>
				<g>
					<path fill="#E8A337" d="M419.2,130.2c4.3,2.5,7.2,8.8,6.6,14.1c-0.7,5.3-4.7,7.5-9,5.1c-4.3-2.5-7.2-8.8-6.6-14.1
						C410.8,130,414.9,127.8,419.2,130.2z"/>
				</g>
				<g>
					<polygon fill="#ECECEC" points="459.9,240.3 459,247.3 420.1,224.9 421,217.9 					"/>
				</g>
				<g>
					<polygon fill="#ECECEC" points="452.6,223.1 451.7,230 421.7,212.7 422.6,205.8 					"/>
				</g>
				<g>
					<polygon fill="#ECECEC" points="464.3,206.1 463.4,213.1 424.6,190.7 425.5,183.7 					"/>
				</g>
				<g>
					<polygon fill="#ECECEC" points="459.6,190.4 458.7,197.3 426.1,178.5 427,171.5 					"/>
				</g>
				<g>
					<path fill="#DF5321" d="M414.7,164.5c4.3,2.5,7.2,8.8,6.6,14.1c-0.7,5.3-4.7,7.5-9,5.1c-4.3-2.5-7.2-8.8-6.6-14.1
						C406.4,164.2,410.4,162,414.7,164.5z"/>
				</g>
				<g>
					<path fill="#E8A337" d="M410.3,198.7c4.3,2.5,7.2,8.8,6.6,14.1c-0.7,5.3-4.7,7.5-9,5.1c-4.3-2.5-7.2-8.8-6.6-14.1
						C402,198.4,406,196.2,410.3,198.7z"/>
				</g>
			</g>
			<g>
				<g>
					<path fill="#838383" d="M586.7,245.4c3.7,2.1,6.6,0.4,6.6-3.8c0-4.2-2.9-9.3-6.6-11.4c-3.7-2.1-6.6-0.4-6.6,3.8
						C580.1,238.2,583.1,243.3,586.7,245.4L586.7,245.4z"/>
				</g>
				<g>
					<g enable-background="new    ">
						<g enable-background="new    ">
							<defs>
								<path id="SVGID_13_" enable-background="new    " d="M578.2,232.1l2.7-1.6c-1.2,0.7-1.9,2.2-1.9,4.2c0,4.2,2.9,9.3,6.6,11.4
									l-2.7,1.6c-3.7-2.1-6.6-7.2-6.6-11.4C576.3,234.3,577,232.8,578.2,232.1z"/>
							</defs>
							<clipPath id="SVGID_14_">
								<use xlink:href="#SVGID_13_"  overflow="visible"/>
							</clipPath>
							<g clip-path="url(#SVGID_14_)" enable-background="new    ">
								<path fill="#976A23" d="M578.2,232.1l2.7-1.6c-1.2,0.7-1.9,2.2-1.9,4.2c0,3.9,2.6,8.6,5.9,11l-2.7,1.6
									c-3.3-2.3-5.9-7-5.9-11C576.3,234.3,577,232.8,578.2,232.1L578.2,232.1z"/>
								<path fill="#C2882E" d="M582.2,247.3l2.7-1.6c0.2,0.2,0.5,0.3,0.7,0.5l-2.7,1.6C582.6,247.6,582.4,247.5,582.2,247.3
									L582.2,247.3z"/>
							</g>
						</g>
						<g enable-background="new    ">
							<defs>
								<path id="SVGID_15_" enable-background="new    " d="M590.3,246.7l-2.7,1.6c-1.2,0.7-2.9,0.6-4.7-0.5l2.7-1.6
									C587.4,247.3,589.1,247.4,590.3,246.7z"/>
							</defs>
							<clipPath id="SVGID_16_">
								<use xlink:href="#SVGID_15_"  overflow="visible"/>
							</clipPath>
							<g clip-path="url(#SVGID_16_)" enable-background="new    ">
								<path fill="#C2882E" d="M582.9,247.8l2.7-1.6c1.8,1.1,3.5,1.2,4.7,0.5l-2.7,1.6C586.4,248.9,584.7,248.8,582.9,247.8
									L582.9,247.8z"/>
							</g>
						</g>
						<g enable-background="new    ">
							<defs>
								<path id="SVGID_17_" enable-background="new    " d="M591.2,251.1l2.7-1.6c-0.4,0.4-8,7-8.4,7.4l-2.7,1.6
									C583.3,258.1,590.9,251.5,591.2,251.1z"/>
							</defs>
							<clipPath id="SVGID_18_">
								<use xlink:href="#SVGID_17_"  overflow="visible"/>
							</clipPath>
							<g clip-path="url(#SVGID_18_)" enable-background="new    ">
								<path fill="#976A23" d="M591.2,251.1l2.7-1.6c-0.4,0.4-8,7-8.4,7.4l-2.7,1.6C583.3,258.1,590.9,251.5,591.2,251.1
									L591.2,251.1z"/>
							</g>
						</g>
						<g enable-background="new    ">
							<defs>
								<path id="SVGID_19_" enable-background="new    " d="M575.9,228.1l2.7-1.6c1.8-1,4.3-0.9,7,0.7l-2.7,1.6
									C580.2,227.2,577.7,227.1,575.9,228.1z"/>
							</defs>
							<clipPath id="SVGID_20_">
								<use xlink:href="#SVGID_19_"  overflow="visible"/>
							</clipPath>
							<g clip-path="url(#SVGID_20_)" enable-background="new    ">
								<path fill="#C2882E" d="M575.9,228.1l2.7-1.6c1.8-1,4.3-0.9,7,0.7l-2.7,1.6C580.2,227.2,577.7,227.1,575.9,228.1
									L575.9,228.1z"/>
							</g>
						</g>
						<g enable-background="new    ">
							<defs>
								<path id="SVGID_21_" enable-background="new    " d="M582.9,228.8l2.7-1.6c5.5,3.2,9.9,10.8,9.9,17.1c0,2.2-0.6,4-1.6,5.2
									l-2.7,1.6c1-1.2,1.6-3,1.6-5.2C592.8,239.6,588.4,232,582.9,228.8z"/>
							</defs>
							<clipPath id="SVGID_22_">
								<use xlink:href="#SVGID_21_"  overflow="visible"/>
							</clipPath>
							<g clip-path="url(#SVGID_22_)" enable-background="new    ">
								<path fill="#C2882E" d="M582.9,228.8l2.7-1.6c0.4,0.2,0.7,0.4,1.1,0.7l-2.7,1.6C583.7,229.2,583.3,229,582.9,228.8
									L582.9,228.8z"/>
								<path fill="#976A23" d="M584,229.5l2.7-1.6c5,3.5,8.8,10.5,8.8,16.4c0,2.2-0.6,4-1.6,5.2l-2.7,1.6c1-1.2,1.6-3,1.6-5.2
									C592.8,240,589,233,584,229.5L584,229.5z"/>
							</g>
						</g>
						<g>
							<path fill="#DC9A34" d="M582.9,228.8c5.5,3.2,9.9,10.8,9.9,17.1c0,2.2-0.6,4-1.6,5.2c-0.4,0.4-8,7-8.4,7.4
								c-0.4-0.8-8-16.1-8.3-17c-1-2.3-1.5-4.7-1.5-7C573,228.2,577.5,225.7,582.9,228.8z M582.9,247.8c3.7,2.1,6.6,0.4,6.6-3.8
								c0-4.2-2.9-9.3-6.6-11.4c-3.7-2.1-6.6-0.4-6.6,3.8C576.3,240.5,579.2,245.7,582.9,247.8L582.9,247.8z"/>
						</g>
					</g>
				</g>
			</g>
			<g>
				<g>
					<g enable-background="new    ">
						<g enable-background="new    ">
							<defs>
								<path id="SVGID_23_" enable-background="new    " d="M505.6,222.9l2.5-1.4c-1.1,0.6-1.8,2-1.8,3.9c0,3.9,2.7,8.6,6.1,10.6
									l-2.5,1.4c-3.4-2-6.1-6.7-6.1-10.6C503.8,224.9,504.5,223.5,505.6,222.9z"/>
							</defs>
							<use xlink:href="#SVGID_23_"  overflow="visible" fill="#993A1D"/>
							<clipPath id="SVGID_24_">
								<use xlink:href="#SVGID_23_"  overflow="visible"/>
							</clipPath>
							<g clip-path="url(#SVGID_24_)" enable-background="new    ">
								<path fill="none" d="M505.6,222.9l2.5-1.4c-1.1,0.6-1.8,2-1.8,3.9c0,3.6,2.4,8,5.4,10.1l-2.5,1.4c-3.1-2.2-5.4-6.5-5.4-10.1
									C503.8,224.9,504.5,223.5,505.6,222.9L505.6,222.9z"/>
								<path fill="#DF5321" d="M509.2,236.9l2.5-1.4c0.2,0.2,0.4,0.3,0.7,0.4l-2.5,1.4C509.7,237.2,509.4,237.1,509.2,236.9
									L509.2,236.9z"/>
							</g>
						</g>
						<g enable-background="new    ">
							<defs>
								<path id="SVGID_25_" enable-background="new    " d="M516.7,236.4l-2.5,1.4c-1.1,0.6-2.7,0.6-4.4-0.4l2.5-1.4
									C514.1,236.9,515.6,237,516.7,236.4z"/>
							</defs>
							<clipPath id="SVGID_26_">
								<use xlink:href="#SVGID_25_"  overflow="visible"/>
							</clipPath>
							<g clip-path="url(#SVGID_26_)">
								<path fill="#DF5321" d="M509.9,237.4l2.5-1.4c1.7,1,3.2,1.1,4.4,0.4l-2.5,1.4C513.1,238.4,511.6,238.4,509.9,237.4
									L509.9,237.4z"/>
							</g>
						</g>
						<g enable-background="new    ">
							<g enable-background="new    ">
								<path fill="#993A1D" d="M517.6,240.4l2.5-1.4c-0.3,0.4-7.4,6.5-7.8,6.8l-2.5,1.4C510.2,246.9,517.3,240.8,517.6,240.4
									L517.6,240.4z"/>
							</g>
						</g>
						<g enable-background="new    ">
							<defs>
								<path id="SVGID_27_" enable-background="new    " d="M503.4,219.2l2.5-1.4c1.7-1,4-0.8,6.5,0.6l-2.5,1.4
									C507.4,218.4,505.1,218.2,503.4,219.2z"/>
							</defs>
							<clipPath id="SVGID_28_">
								<use xlink:href="#SVGID_27_"  overflow="visible"/>
							</clipPath>
							<g clip-path="url(#SVGID_28_)">
								<path fill="#DF5321" d="M503.4,219.2l2.5-1.4c1.7-1,4-0.8,6.5,0.6l-2.5,1.4C507.4,218.4,505.1,218.2,503.4,219.2
									L503.4,219.2z"/>
							</g>
						</g>
						<g enable-background="new    ">
							<defs>
								<path id="SVGID_29_" enable-background="new    " d="M509.9,219.8l2.5-1.4c5,2.9,9.1,10,9.1,15.8c0,2.1-0.5,3.7-1.4,4.8
									l-2.5,1.4c0.9-1.1,1.4-2.7,1.4-4.8C519.1,229.8,515,222.7,509.9,219.8z"/>
							</defs>
							<clipPath id="SVGID_30_">
								<use xlink:href="#SVGID_29_"  overflow="visible"/>
							</clipPath>
							<g clip-path="url(#SVGID_30_)" enable-background="new    ">
								<path fill="#993A1D" d="M509.9,219.8l2.5-1.4c0.3,0.2,0.7,0.4,1,0.6l-2.5,1.4C510.6,220.2,510.3,220,509.9,219.8
									L509.9,219.8z"/>
								<path fill="#993A1D" d="M510.9,220.5l2.5-1.4c4.6,3.2,8.1,9.7,8.1,15.2c0,2.1-0.5,3.7-1.4,4.8l-2.5,1.4
									c0.9-1.1,1.4-2.7,1.4-4.8C519.1,230.2,515.5,223.7,510.9,220.5L510.9,220.5z"/>
							</g>
						</g>
						<g>
							<path fill="#DF5321" d="M509.9,219.8c5,2.9,9.1,10,9.1,15.8c0,2.1-0.5,3.7-1.4,4.8c-0.3,0.4-7.4,6.5-7.8,6.8
								c-0.4-0.7-7.4-14.9-7.7-15.7c-0.9-2.2-1.4-4.4-1.4-6.5C500.8,219.3,504.9,216.9,509.9,219.8z M509.9,237.4
								c3.4,1.9,6.1,0.4,6.1-3.5c0-3.9-2.7-8.6-6.1-10.6c-3.4-2-6.1-0.4-6.1,3.5C503.8,230.7,506.5,235.4,509.9,237.4L509.9,237.4z"
								/>
						</g>
					</g>
				</g>
			</g>
		</g>
		<g>
			<g>
				<path fill="#ECECEC" d="M439.6,64.4c12,6.5,20.4,23.9,18.7,38.9c-1.7,15-12.8,21.9-24.8,15.4c-12-6.5-20.4-23.9-18.7-38.9
					C416.5,64.8,427.6,57.9,439.6,64.4z M434.9,106.6l12.5,6.8c1.2-10.7-2.4-17.2-10.8-21.7c-8.5-4.6-13-2.5-14.2,8.2L434.9,106.6
					L434.9,106.6z M438.6,73c-3.8-2.1-7.3,0.1-7.9,4.9c-0.5,4.7,2.1,10.3,5.9,12.3c3.8,2.1,7.3-0.1,7.9-4.9
					C445.1,80.6,442.4,75.1,438.6,73L438.6,73z"/>
			</g>
		</g>
		<g>
			<polygon fill="#ECECEC" points="537,245 536.8,247.1 524.8,240.2 525.1,238.1 			"/>
		</g>
		<g>
			<polygon fill="#ECECEC" points="534.8,239.7 534.5,241.8 525.3,236.5 525.6,234.3 			"/>
		</g>
		<g>
			<polygon fill="#ECECEC" points="612.2,252.4 611.9,254.5 600,247.6 600.3,245.5 			"/>
		</g>
		<g>
			<polygon fill="#ECECEC" points="610,247.1 609.7,249.2 600.5,243.9 600.7,241.7 			"/>
		</g>
		<g>
			<g>
				<g enable-background="new    ">
					<g>
						<g>
							<g>
								<polygon fill="#A48157" points="443.9,386.3 443.8,406.5 364.6,452.5 364.7,432.3 								"/>
							</g>
						</g>
					</g>
					<g>
						<g>
							<g>
								<polygon fill="#C8A376" points="364.7,432.3 364.6,452.5 285,406.5 285,386.3 								"/>
							</g>
						</g>
					</g>
					<g>
						<g>
							<g>
								<polygon fill="#E3C095" points="443.9,386.3 364.7,432.3 285,386.3 364.2,340.2 								"/>
							</g>
						</g>
					</g>
				</g>
			</g>
			<g>
				<g>
					<g>
						<g>
							<polygon fill="#6B573F" points="430.4,410 430.4,411 440.4,405.2 440.4,404.2 							"/>
						</g>
					</g>
				</g>
				<g>
					<g>
						<g>
							<polygon fill="#6B573F" points="435.3,398.4 430.4,407 433.8,405 433.8,407.5 435.4,406.7 436.9,405.8 436.9,403.2 
								440.3,401.2 							"/>
						</g>
					</g>
				</g>
			</g>
			<g>
				<g enable-background="new    ">
					<g>
						<g>
							<g>
								<polygon fill="#C5C5C5" points="437,385.3 437,385.7 420.9,395.1 420.9,394.6 								"/>
							</g>
						</g>
					</g>
					<g>
						<g>
							<g>
								<polygon fill="#898989" points="420.9,394.6 420.9,395.1 404.7,385.7 404.7,385.3 								"/>
							</g>
						</g>
					</g>
					<g>
						<g>
							<g>
								<polygon fill="#DCDCDC" points="437,385.3 420.9,394.6 404.7,385.3 420.8,375.9 								"/>
							</g>
						</g>
					</g>
				</g>
			</g>
			<g>
				<g enable-background="new    ">
					<g>
						<g>
							<g>
								<polygon fill="#C5C5C5" points="322.3,427 314.7,422.6 314.6,403.4 322.2,407.8 								"/>
							</g>
						</g>
					</g>
					<g>
						<g>
							<g>
								<polygon fill="#F2F2F2" points="322.2,407.8 314.6,403.4 393.9,357.6 401.5,362 								"/>
							</g>
						</g>
					</g>
					<g>
						<g>
							<g>
								<polygon fill="#C5C5C5" points="401.5,362 401.5,362.6 322.7,408.1 322.8,426.7 322.3,427 322.2,407.8 								"/>
							</g>
						</g>
					</g>
				</g>
			</g>
		</g>
		<g>
			<g>
				<g enable-background="new    ">
					<g>
						<g>
							<g>
								<polygon fill="#A48157" points="444.5,365.9 444.5,386.1 365.3,432.2 365.4,411.9 								"/>
							</g>
						</g>
					</g>
					<g>
						<g>
							<g>
								<polygon fill="#C8A376" points="365.4,411.9 365.3,432.2 285.6,386.1 285.7,365.9 								"/>
							</g>
						</g>
					</g>
					<g>
						<g>
							<g>
								<polygon fill="#E3C095" points="444.5,365.9 365.4,411.9 285.7,365.9 364.9,319.9 								"/>
							</g>
						</g>
					</g>
				</g>
			</g>
			<g>
				<g>
					<g>
						<g>
							<polygon fill="#6B573F" points="431.1,389.6 431.1,390.6 441,384.9 441,383.9 							"/>
						</g>
					</g>
				</g>
				<g>
					<g>
						<g>
							<polygon fill="#6B573F" points="436,378 431,386.7 434.5,384.7 434.5,387.2 436,386.3 437.6,385.5 437.5,382.9 441,380.9 
															"/>
						</g>
					</g>
				</g>
			</g>
			<g>
				<g enable-background="new    ">
					<g>
						<g>
							<g>
								<polygon fill="#C5C5C5" points="437.7,365 437.7,365.4 421.6,374.7 421.6,374.3 								"/>
							</g>
						</g>
					</g>
					<g>
						<g>
							<g>
								<polygon fill="#898989" points="421.6,374.3 421.6,374.7 405.4,365.4 405.4,365 								"/>
							</g>
						</g>
					</g>
					<g>
						<g>
							<g>
								<polygon fill="#DCDCDC" points="437.7,365 421.6,374.3 405.4,365 421.5,355.6 								"/>
							</g>
						</g>
					</g>
				</g>
			</g>
			<g>
				<g enable-background="new    ">
					<g>
						<g>
							<g>
								<polygon fill="#C5C5C5" points="322.9,406.7 315.3,402.3 315.3,383 322.9,387.4 								"/>
							</g>
						</g>
					</g>
					<g>
						<g>
							<g>
								<polygon fill="#F2F2F2" points="322.9,387.4 315.3,383 394.6,337.3 402.2,341.7 								"/>
							</g>
						</g>
					</g>
					<g>
						<g>
							<g>
								<polygon fill="#C5C5C5" points="402.2,341.7 402.2,342.3 323.4,387.7 323.5,406.4 322.9,406.7 322.9,387.4 								"/>
							</g>
						</g>
					</g>
				</g>
			</g>
		</g>
		<g>
			<g>
				<g enable-background="new    ">
					<g>
						<polygon fill="#292E3F" points="321.8,343.1 321.8,346.2 257.3,385.1 257.3,382 						"/>
					</g>
					<g>
						<polygon fill="#5B6989" points="257.3,382 257.3,385.1 191.1,348.3 191.1,345.2 						"/>
					</g>
					<g>
						<polygon fill="#8C96AC" points="321.8,343.1 257.3,382 191.1,345.2 255.6,306.3 						"/>
					</g>
				</g>
			</g>
			<g>
				<g enable-background="new    ">
					<g>
						<polygon fill="#292E3F" points="299.6,308.5 300.1,342.7 256.9,368.8 256.4,334.6 						"/>
					</g>
					<g>
						<polygon fill="#5B6989" points="256.4,334.6 256.9,368.8 212.6,344.1 212.1,309.9 						"/>
					</g>
					<g>
						<polygon fill="#8C96AC" points="299.6,308.5 256.4,334.6 212.1,309.9 255.3,283.9 						"/>
					</g>
				</g>
			</g>
			<g>
				<g enable-background="new    ">
					<g>
						<polygon fill="#292E3F" points="257.7,314.8 283.9,298.9 284,310.5 257.8,326.3 						"/>
					</g>
					<g enable-background="new    ">
						<defs>
							<path id="SVGID_31_" enable-background="new    " d="M229.9,286.6l26.2-15.8c2.9-1.7,6.9-1.6,11.4,0.9l-26.2,15.8
								C236.8,285,232.8,284.8,229.9,286.6z"/>
						</defs>
						<clipPath id="SVGID_32_">
							<use xlink:href="#SVGID_31_"  overflow="visible"/>
						</clipPath>
						<g clip-path="url(#SVGID_32_)" enable-background="new    ">
							<path fill="#394256" d="M229.9,286.6l26.2-15.8c1.6-1,3.6-1.3,5.8-1.1l-26.2,15.8C233.5,285.2,231.5,285.6,229.9,286.6
								L229.9,286.6z"/>
							<path fill="#292E3F" d="M235.7,285.5l26.2-15.8c1.3,0.2,2.7,0.6,4.1,1.2l-26.2,15.8C238.4,286.1,237,285.7,235.7,285.5
								L235.7,285.5z"/>
							<path fill="#505C78" d="M239.8,286.7l26.2-15.8c0.5,0.2,1,0.5,1.5,0.8l-26.2,15.8C240.8,287.2,240.3,287,239.8,286.7
								L239.8,286.7z"/>
						</g>
					</g>
					<g enable-background="new    ">
						<defs>
							<path id="SVGID_33_" enable-background="new    " d="M241.3,287.5l26.2-15.8c8.9,4.9,16.2,17.1,16.3,27.3l-26.2,15.8
								C257.5,304.6,250.2,292.4,241.3,287.5z"/>
						</defs>
						<clipPath id="SVGID_34_">
							<use xlink:href="#SVGID_33_"  overflow="visible"/>
						</clipPath>
						<g clip-path="url(#SVGID_34_)" enable-background="new    ">
							<path fill="#505C78" d="M241.3,287.5l26.2-15.8c0.9,0.5,1.9,1.1,2.8,1.8l-26.2,15.8C243.2,288.6,242.2,288,241.3,287.5
								L241.3,287.5z"/>
							<path fill="#5B6989" d="M244.1,289.3l26.2-15.8c1.5,1.1,3,2.5,4.3,4l-26.2,15.8C247,291.8,245.6,290.4,244.1,289.3
								L244.1,289.3z"/>
							<path fill="#8C96AC" d="M248.4,293.2l26.2-15.8c2.5,2.8,4.7,6.1,6.3,9.6l-26.2,15.8C253.1,299.4,250.9,296,248.4,293.2
								L248.4,293.2z"/>
							<path fill="#5B6989" d="M254.7,302.8l26.2-15.8c0.8,1.6,1.4,3.3,1.9,5l-26.2,15.8C256.1,306.1,255.5,304.5,254.7,302.8
								L254.7,302.8z"/>
							<path fill="#505C78" d="M256.6,307.8l26.2-15.8c0.5,1.7,0.8,3.4,1,5.1l-26.2,15.8C257.4,311.2,257.1,309.5,256.6,307.8
								L256.6,307.8z"/>
							<path fill="#292E3F" d="M257.5,312.9l26.2-15.8c0.1,0.6,0.1,1.3,0.1,1.9l-26.2,15.8C257.6,314.1,257.6,313.5,257.5,312.9
								L257.5,312.9z"/>
						</g>
					</g>
					<g>
						<path fill="#5B6989" d="M241.3,287.5c8.9,4.9,16.2,17.1,16.3,27.3l0.2,11.6l-32.2-17.9l-0.2-11.6
							C225.3,286.8,232.4,282.6,241.3,287.5z"/>
					</g>
				</g>
			</g>
			<g>
				<g enable-background="new    ">
					<g>
						<polygon fill="#888888" points="369.9,282 364,278.7 363.3,241.4 369.2,244.7 						"/>
					</g>
					<g>
						<polygon fill="#DBDBDB" points="369.2,244.7 363.3,241.4 366.6,239.4 372.5,242.7 						"/>
					</g>
					<g>
						<polygon fill="#C5C5C5" points="372.5,242.7 373,269.3 369.9,282 369.2,244.7 						"/>
					</g>
				</g>
			</g>
			<g>
				<g>
					<g>
						<polygon fill="#838383" points="317.7,299.3 347,316.3 376.5,299.3 347.2,282.3 						"/>
					</g>
				</g>
				<g>
					<g>
						<g enable-background="new    ">
							<g>
								<g>
									<g>
										<polygon fill="#C8A376" points="317.7,265 317.8,298 347.1,315 347,282 										"/>
									</g>
								</g>
							</g>
							<g>
								<g>
									<g>
										<polygon fill="#A48157" points="347,282 347.1,315 376.6,298 376.5,265 										"/>
									</g>
								</g>
							</g>
							<g>
								<g>
									<g>
										<polygon fill="#E3C095" points="317.7,265 347,282 376.5,265 347.2,248 										"/>
									</g>
								</g>
							</g>
						</g>
					</g>
					<g>
						<g>
							<g>
								<g>
									<polygon fill="#6B573F" points="349.6,311 349.6,312 359.7,306.2 359.7,305.2 									"/>
								</g>
							</g>
						</g>
						<g>
							<g>
								<g>
									<polygon fill="#6B573F" points="354.7,299.3 349.6,308 353.1,306 353.2,308.6 354.7,307.7 356.2,306.8 356.2,304.2 
										359.7,302.2 									"/>
								</g>
							</g>
						</g>
					</g>
					<g>
						<g enable-background="new    ">
							<g>
								<g>
									<g>
										<polygon fill="#808080" points="364.8,275.4 364.3,275.1 364.3,282 364.8,282.2 										"/>
									</g>
								</g>
							</g>
							<g>
								<g>
									<g>
										<polygon fill="#BFBFBF" points="373.6,270.3 373.1,270 364.3,275.1 364.8,275.4 										"/>
									</g>
								</g>
							</g>
							<g>
								<g>
									<g>
										<polygon fill="#D3D3D3" points="364.8,275.4 364.8,282.2 373.6,277.2 373.6,270.3 										"/>
									</g>
								</g>
							</g>
						</g>
					</g>
					<g>
						<g enable-background="new    ">
							<g>
								<g>
									<g>
										<polygon fill="#C5C5C5" points="332,273.3 328.4,271.2 328.5,304.4 332.1,306.6 										"/>
									</g>
								</g>
							</g>
							<g>
								<g>
									<g>
										<polygon fill="#F2F2F2" points="361.9,256 358.3,253.9 328.4,271.2 332,273.3 										"/>
									</g>
								</g>
							</g>
							<g>
								<g>
									<g>
										<polygon fill="#898989" points="332,273.3 332.1,306.6 332.4,306.4 332.3,273.5 361.9,256.4 361.9,256 										"/>
									</g>
								</g>
							</g>
						</g>
					</g>
				</g>
			</g>
			<g>
				<g>
					<g enable-background="new    ">
						<g>
							<polygon fill="#808080" points="337.3,299.4 331.4,296.1 327.9,287.4 333.8,290.7 							"/>
						</g>
						<g>
							<polygon fill="#888888" points="333.8,290.7 327.9,287.4 327.4,260.7 333.3,264.1 							"/>
						</g>
						<g>
							<polygon fill="#DBDBDB" points="333.3,264.1 327.4,260.7 330.7,258.8 336.6,262.1 							"/>
						</g>
						<g>
							<polygon fill="#C5C5C5" points="336.6,262.1 337.3,299.4 333.8,290.7 333.3,264.1 							"/>
						</g>
					</g>
				</g>
				<g>
					<g enable-background="new    ">
						<g>
							<polygon fill="#C2882E" points="376.7,238.5 376.8,241.9 331.8,269 331.7,265.6 							"/>
						</g>
						<g>
							<polygon fill="#875E20" points="331.7,265.6 331.8,269 320.5,262.8 320.5,259.4 							"/>
						</g>
						<g>
							<polygon fill="#D89833" points="376.7,238.5 331.7,265.6 320.5,259.4 365.5,232.2 							"/>
						</g>
					</g>
				</g>
				<g>
					<g enable-background="new    ">
						<g>
							<polygon fill="#865E20" points="371,237.3 367.6,235.4 367.5,229.9 370.9,231.8 							"/>
						</g>
						<g enable-background="new    ">
							<defs>
								<path id="SVGID_35_" enable-background="new    " d="M366.9,228.7l3.4,1.9c0.3,0.2,0.6,0.6,0.6,1.2l-3.4-1.9
									C367.5,229.3,367.3,228.9,366.9,228.7z"/>
							</defs>
							<clipPath id="SVGID_36_">
								<use xlink:href="#SVGID_35_"  overflow="visible"/>
							</clipPath>
							<g clip-path="url(#SVGID_36_)" enable-background="new    ">
								<path fill="#9D6E25" d="M370.9,231.8l-3.4-1.9c0-0.6-0.2-1-0.6-1.2l3.4,1.9C370.7,230.8,370.9,231.2,370.9,231.8
									L370.9,231.8z"/>
							</g>
						</g>
						<g enable-background="new    ">
							<defs>
								<path id="SVGID_37_" enable-background="new    " d="M367.9,226.9l3.4,1.9c-0.6-0.3-1.5-0.3-2.4,0.3l-3.4-1.9
									C366.5,226.6,367.3,226.5,367.9,226.9z"/>
							</defs>
							<clipPath id="SVGID_38_">
								<use xlink:href="#SVGID_37_"  overflow="visible"/>
							</clipPath>
							<g clip-path="url(#SVGID_38_)" enable-background="new    ">
								<path fill="#DC9A34" d="M369,229.1l-3.4-1.9c0.3-0.2,0.7-0.3,1-0.4l3.4,1.9C369.7,228.7,369.4,228.8,369,229.1L369,229.1z"
									/>
								<path fill="#BC842C" d="M370,228.6l-3.4-1.9c0.5-0.1,0.9-0.1,1.3,0.1l3.4,1.9C370.9,228.6,370.5,228.5,370,228.6L370,228.6z
									"/>
								<path fill="#9D6E25" d="M371.3,228.7l-3.4-1.9c0,0,0,0,0.1,0L371.3,228.7C371.4,228.8,371.3,228.8,371.3,228.7L371.3,228.7z
									"/>
							</g>
						</g>
						<g>
							<polygon fill="#865E20" points="358.6,237 355.1,235.1 355.1,233.4 358.5,235.3 							"/>
						</g>
						<g>
							<polygon fill="#D89733" points="358.5,235.3 355.1,233.4 365.6,227.1 369,229.1 							"/>
						</g>
						<g>
							<path fill="#C2882E" d="M369,229.1c1.8-1.1,3.3-0.3,3.4,1.9l0.1,5.5l-1.5,0.9l-0.1-5.5c0-1.2-0.9-1.6-1.9-1l-10.5,6.3l0-1.7
								L369,229.1z"/>
						</g>
					</g>
				</g>
			</g>
			<g>
				<g>
					<g enable-background="new    ">
						<g enable-background="new    ">
							<defs>
								<path id="SVGID_39_" enable-background="new    " d="M338.5,245l15.9-9.6c1-0.6,2.3-0.5,3.7,0.3l-15.9,9.6
									C340.7,244.5,339.4,244.4,338.5,245z"/>
							</defs>
							<clipPath id="SVGID_40_">
								<use xlink:href="#SVGID_39_"  overflow="visible"/>
							</clipPath>
							<g clip-path="url(#SVGID_40_)" enable-background="new    ">
								<path fill="#394256" d="M338.5,245l15.9-9.6c0.5-0.3,1.2-0.4,1.9-0.3l-15.9,9.6C339.6,244.6,339,244.7,338.5,245L338.5,245z
									"/>
								<path fill="#292E3F" d="M340.3,244.7l15.9-9.6c0.4,0.1,0.9,0.2,1.3,0.4l-15.9,9.6C341.2,244.9,340.7,244.7,340.3,244.7
									L340.3,244.7z"/>
								<path fill="#505C78" d="M341.6,245.1l15.9-9.6c0.2,0.1,0.3,0.2,0.5,0.2l-15.9,9.6C342,245.2,341.8,245.1,341.6,245.1
									L341.6,245.1z"/>
							</g>
						</g>
						<g enable-background="new    ">
							<defs>
								<path id="SVGID_41_" enable-background="new    " d="M361.9,247.8l-15.9,9.6c0.5-0.3,0.9-0.8,1.2-1.5
									c0.9-2.5-0.5-6.7-3.3-9.3c-0.6-0.6-1.2-1-1.7-1.3l15.9-9.6c0.6,0.3,1.2,0.8,1.7,1.3c2.7,2.6,4.2,6.8,3.3,9.3
									C362.8,247,362.4,247.5,361.9,247.8z"/>
							</defs>
							<clipPath id="SVGID_42_">
								<use xlink:href="#SVGID_41_"  overflow="visible"/>
							</clipPath>
							<g clip-path="url(#SVGID_42_)" enable-background="new    ">
								<path fill="#505C78" d="M342.1,245.3l15.9-9.6c0.3,0.2,0.6,0.4,0.9,0.6l-15.9,9.6C342.7,245.7,342.4,245.5,342.1,245.3
									L342.1,245.3z"/>
								<path fill="#5B6989" d="M343,245.9l15.9-9.6c0.3,0.2,0.6,0.5,0.9,0.7c0.2,0.2,0.4,0.4,0.5,0.6l-15.9,9.6
									c-0.2-0.2-0.4-0.4-0.5-0.6C343.6,246.3,343.3,246.1,343,245.9L343,245.9z"/>
								<path fill="#8C96AC" d="M344.4,247.2l15.9-9.6c0.8,0.9,1.5,2,2,3.1l-15.9,9.6C345.9,249.2,345.2,248.1,344.4,247.2
									L344.4,247.2z"/>
								<path fill="#5B6989" d="M346.4,250.2l15.9-9.6c0.2,0.5,0.5,1.1,0.6,1.6l-15.9,9.6C346.9,251.3,346.7,250.8,346.4,250.2
									L346.4,250.2z"/>
								<path fill="#505C78" d="M347,251.9l15.9-9.6c0.2,0.6,0.3,1.1,0.3,1.6l-15.9,9.6C347.3,253,347.2,252.4,347,251.9L347,251.9z
									"/>
								<path fill="#292E3F" d="M347.4,253.5l15.9-9.6c0.1,0.5,0,1,0,1.5l-15.9,9.6C347.4,254.6,347.4,254,347.4,253.5L347.4,253.5z
									"/>
								<path fill="#394256" d="M347.3,255l15.9-9.6c0,0.3-0.1,0.6-0.2,0.9c-0.3,0.7-0.7,1.2-1.2,1.5l-15.9,9.6
									c0.5-0.3,0.9-0.8,1.2-1.5C347.2,255.6,347.3,255.3,347.3,255L347.3,255z"/>
							</g>
						</g>
						<g>
							<path fill="#5B6989" d="M342.1,245.3c0.6,0.3,1.2,0.8,1.7,1.3c2.7,2.6,4.2,6.8,3.3,9.3c-0.7,2-2.7,2.4-4.8,1.2
								c-0.6-0.3-1.2-0.8-1.7-1.3c-2.7-2.6-4.2-6.8-3.3-9.3C338,244.5,340,244.1,342.1,245.3z"/>
						</g>
					</g>
				</g>
				<g>
					<g enable-background="new    ">
						<g enable-background="new    ">
							<defs>
								<path id="SVGID_43_" enable-background="new    " d="M310.5,134.7l1.8-1.1c1-0.6,2.5-0.5,4,0.3l-1.8,1.1
									C313,134.2,311.5,134,310.5,134.7z"/>
							</defs>
							<clipPath id="SVGID_44_">
								<use xlink:href="#SVGID_43_"  overflow="visible"/>
							</clipPath>
							<g clip-path="url(#SVGID_44_)" enable-background="new    ">
								<path fill="#C2882E" d="M310.5,134.7l1.8-1.1c0.6-0.3,1.3-0.5,2-0.4l-1.8,1.1C311.8,134.2,311.1,134.3,310.5,134.7
									L310.5,134.7z"/>
								<path fill="#BC842C" d="M312.5,134.3l1.8-1.1c0.5,0.1,1,0.2,1.5,0.4l-1.8,1.1C313.5,134.5,313,134.4,312.5,134.3
									L312.5,134.3z"/>
								<path fill="#DC9A34" d="M314,134.7l1.8-1.1c0.2,0.1,0.3,0.2,0.5,0.3l-1.8,1.1C314.3,134.9,314.2,134.8,314,134.7L314,134.7z
									"/>
							</g>
						</g>
						<g enable-background="new    ">
							<defs>
								<path id="SVGID_45_" enable-background="new    " d="M314.5,135l1.8-1.1c0.7,0.4,1.5,1,2.2,1.7l-1.8,1.1
									C316,136,315.2,135.4,314.5,135z"/>
							</defs>
							<clipPath id="SVGID_46_">
								<use xlink:href="#SVGID_45_"  overflow="visible"/>
							</clipPath>
							<g clip-path="url(#SVGID_46_)" enable-background="new    ">
								<path fill="#DC9A34" d="M314.5,135l1.8-1.1c0.3,0.2,0.6,0.4,1,0.6l-1.8,1.1C315.2,135.4,314.8,135.2,314.5,135L314.5,135z"
									/>
								<path fill="#FBB03B" d="M315.5,135.6l1.8-1.1c0.4,0.3,0.8,0.7,1.2,1.1l-1.8,1.1C316.3,136.3,315.9,135.9,315.5,135.6
									L315.5,135.6z"/>
							</g>
						</g>
						<g>
							<polygon fill="#C2882E" points="316.7,136.7 318.5,135.6 349.3,166.9 347.6,168 							"/>
						</g>
						<g enable-background="new    ">
							<defs>
								<path id="SVGID_47_" enable-background="new    " d="M351.4,178.6l-1.8,1.1c0.5-0.3,0.9-0.8,1.2-1.4
									c1.1-2.6-0.3-7.2-3.2-10.2l1.8-1.1c2.9,3,4.4,7.5,3.2,10.2C352.3,177.8,351.9,178.3,351.4,178.6z"/>
							</defs>
							<clipPath id="SVGID_48_">
								<use xlink:href="#SVGID_47_"  overflow="visible"/>
							</clipPath>
							<g clip-path="url(#SVGID_48_)" enable-background="new    ">
								<path fill="#FBB03B" d="M347.6,168l1.8-1.1c0.1,0.1,0.2,0.2,0.3,0.4l-1.8,1.1C347.8,168.3,347.7,168.1,347.6,168L347.6,168z
									"/>
								<path fill="#FCC876" d="M347.9,168.4l1.8-1.1c0.9,1,1.7,2.2,2.2,3.4l-1.8,1.1C349.6,170.6,348.8,169.4,347.9,168.4
									L347.9,168.4z"/>
								<path fill="#FBB03B" d="M350.1,171.8l1.8-1.1c0.3,0.6,0.5,1.2,0.7,1.8l-1.8,1.1C350.6,172.9,350.4,172.3,350.1,171.8
									L350.1,171.8z"/>
								<path fill="#DC9A34" d="M350.8,173.5l1.8-1.1c0.2,0.6,0.3,1.2,0.4,1.8l-1.8,1.1C351.1,174.8,351,174.1,350.8,173.5
									L350.8,173.5z"/>
								<path fill="#BC842C" d="M351.1,175.3l1.8-1.1c0.1,0.6,0,1.1,0,1.7l-1.8,1.1C351.2,176.5,351.2,175.9,351.1,175.3
									L351.1,175.3z"/>
								<path fill="#C2882E" d="M351.1,177l1.8-1.1c-0.1,0.4-0.2,0.8-0.3,1.2c-0.3,0.6-0.7,1.1-1.2,1.4l-1.8,1.1
									c0.5-0.3,0.9-0.8,1.2-1.4C350.9,177.8,351.1,177.4,351.1,177L351.1,177z"/>
							</g>
						</g>
						<g>
							<path fill="#FBB03B" d="M314.5,135c0.7,0.4,1.5,1,2.2,1.7l30.9,31.3c2.9,3,4.4,7.5,3.2,10.2c-0.9,2-3,2.3-5.2,1.1
								c-0.7-0.4-1.4-1-2.2-1.7l-30.9-31.3c-2.9-3-4.4-7.5-3.2-10.2C310.2,134.1,312.3,133.8,314.5,135z"/>
						</g>
					</g>
				</g>
				<g>
					<g enable-background="new    ">
						<g>
							<polygon fill="#C2882E" points="213.2,169.3 244.9,285 238,281.5 206.3,165.8 							"/>
						</g>
						<g>
							<polygon fill="#FBB03B" points="228.2,166 259.9,281.7 244.9,285 213.2,169.3 							"/>
						</g>
						<g>
							<polygon fill="#7E581E" points="236.3,159.3 268,275 259.9,281.7 228.2,166 							"/>
						</g>
						<g>
							<polygon fill="#AE7A29" points="214.5,159 229.5,155.8 236.3,159.3 228.2,166 213.2,169.3 206.3,165.8 							"/>
						</g>
					</g>
				</g>
				<g>
					<g enable-background="new    ">
						<g>
							<polygon fill="#C2882E" points="328.1,186.9 343.5,242.9 341.3,240.5 325.9,184.5 							"/>
						</g>
						<g>
							<polygon fill="#FBB03B" points="335.8,185.8 351.2,241.8 343.5,242.9 328.1,186.9 							"/>
						</g>
						<g>
							<polygon fill="#7E581E" points="341.3,182.3 356.7,238.4 351.2,241.8 335.8,185.8 							"/>
						</g>
						<g>
							<polygon fill="#AE7A29" points="331.5,181 339.1,179.9 341.3,182.3 335.8,185.8 328.1,186.9 325.9,184.5 							"/>
						</g>
					</g>
				</g>
				<g>
					<g enable-background="new    ">
						<g enable-background="new    ">
							<defs>
								<path id="SVGID_49_" enable-background="new    " d="M200.3,145.8l23.5-14.2c2.1-1.3,5.1-1.1,8.4,0.7l-23.5,14.2
									C205.3,144.7,202.4,144.5,200.3,145.8z"/>
							</defs>
							<clipPath id="SVGID_50_">
								<use xlink:href="#SVGID_49_"  overflow="visible"/>
							</clipPath>
							<g clip-path="url(#SVGID_50_)" enable-background="new    ">
								<path fill="#394256" d="M200.3,145.8l23.5-14.2c1.2-0.7,2.6-1,4.2-0.8L204.5,145C202.9,144.8,201.5,145.1,200.3,145.8
									L200.3,145.8z"/>
								<path fill="#394256" d="M204.5,145l23.5-14.2c1,0.1,2,0.4,3,0.9l-23.5,14.2C206.5,145.5,205.5,145.2,204.5,145L204.5,145z"
									/>
								<path fill="#505C78" d="M207.5,145.9l23.5-14.2c0.4,0.2,0.7,0.3,1.1,0.6l-23.5,14.2C208.3,146.3,207.9,146.1,207.5,145.9
									L207.5,145.9z"/>
							</g>
						</g>
						<g enable-background="new    ">
							<defs>
								<path id="SVGID_51_" enable-background="new    " d="M240.8,159.9l-23.5,14.2c2.1-1.3,3.3-3.9,3.3-7.6
									c-0.1-7.4-5.5-16.4-12-20l23.5-14.2c6.5,3.6,11.9,12.6,12,20C244.2,156.1,242.9,158.7,240.8,159.9z"/>
							</defs>
							<clipPath id="SVGID_52_">
								<use xlink:href="#SVGID_51_"  overflow="visible"/>
							</clipPath>
							<g clip-path="url(#SVGID_52_)" enable-background="new    ">
								<path fill="#505C78" d="M208.6,146.5l23.5-14.2c0.7,0.4,1.4,0.8,2,1.3l-23.5,14.2C210,147.3,209.3,146.9,208.6,146.5
									L208.6,146.5z"/>
								<path fill="#5B6989" d="M210.7,147.8l23.5-14.2c1.1,0.8,2.2,1.8,3.2,2.9l-23.5,14.2C212.8,149.6,211.8,148.7,210.7,147.8
									L210.7,147.8z"/>
								<path fill="#8C96AC" d="M213.8,150.7l23.5-14.2c1.9,2.1,3.5,4.5,4.7,7.1l-23.5,14.2C217.3,155.2,215.7,152.8,213.8,150.7
									L213.8,150.7z"/>
								<path fill="#5B6989" d="M218.5,157.8l23.5-14.2c0.6,1.2,1,2.4,1.4,3.7l-23.5,14.2C219.5,160.2,219,159,218.5,157.8
									L218.5,157.8z"/>
								<path fill="#505C78" d="M219.9,161.4l23.5-14.2c0.4,1.3,0.6,2.5,0.7,3.7l-23.5,14.2C220.5,163.9,220.2,162.7,219.9,161.4
									L219.9,161.4z"/>
								<path fill="#394256" d="M220.6,165.2l23.5-14.2c0,0.5,0.1,0.9,0.1,1.4c0,0.8,0,1.5-0.1,2.1l-23.5,14.2
									c0.1-0.7,0.1-1.4,0.1-2.1C220.7,166.1,220.6,165.6,220.6,165.2L220.6,165.2z"/>
								<path fill="#394256" d="M220.5,168.7l23.5-14.2c-0.4,2.6-1.5,4.4-3.2,5.4l-23.5,14.2C219,173.1,220.2,171.3,220.5,168.7
									L220.5,168.7z"/>
							</g>
						</g>
						<g>
							<path fill="#5B6989" d="M208.6,146.5c6.5,3.6,11.9,12.6,12,20c0.1,7.4-5.1,10.5-11.7,6.9c-6.5-3.6-11.9-12.6-12-20
								C196.9,146,202.1,142.9,208.6,146.5z"/>
						</g>
					</g>
				</g>
				<g>
					<g enable-background="new    ">
						<g>
							<polygon fill="#C2882E" points="231.6,138.5 298.9,140.2 290,145.6 222.7,143.9 							"/>
						</g>
						<g>
							<polygon fill="#FBB03B" points="222.7,143.9 290,145.6 289,158.2 221.7,156.5 							"/>
						</g>
						<g>
							<polygon fill="#C2882E" points="221.7,156.5 289,158.2 296.9,165.5 229.6,163.8 							"/>
						</g>
						<g>
							<polygon fill="#EBA537" points="305.9,160.2 296.9,165.5 289,158.2 290,145.6 298.9,140.2 306.9,147.5 							"/>
						</g>
					</g>
				</g>
				<g>
					<g enable-background="new    ">
						<g enable-background="new    ">
							<defs>
								<path id="SVGID_53_" enable-background="new    " d="M281.9,145.8l23.5-14.2c2.1-1.3,5.1-1.1,8.4,0.7l-23.5,14.2
									C287,144.7,284,144.5,281.9,145.8z"/>
							</defs>
							<clipPath id="SVGID_54_">
								<use xlink:href="#SVGID_53_"  overflow="visible"/>
							</clipPath>
							<g clip-path="url(#SVGID_54_)" enable-background="new    ">
								<path fill="#394256" d="M281.9,145.8l23.5-14.2c1.2-0.7,2.6-1,4.2-0.8L286.2,145C284.6,144.8,283.1,145.1,281.9,145.8
									L281.9,145.8z"/>
								<path fill="#394256" d="M286.2,145l23.5-14.2c1,0.1,2,0.4,3,0.9l-23.5,14.2C288.1,145.5,287.1,145.2,286.2,145L286.2,145z"
									/>
								<path fill="#505C78" d="M289.2,145.9l23.5-14.2c0.4,0.2,0.7,0.3,1.1,0.6l-23.5,14.2C289.9,146.3,289.5,146.1,289.2,145.9
									L289.2,145.9z"/>
							</g>
						</g>
						<g enable-background="new    ">
							<defs>
								<path id="SVGID_55_" enable-background="new    " d="M322.5,159.9L299,174.1c2.1-1.3,3.3-3.9,3.3-7.6
									c-0.1-7.4-5.5-16.4-12-20.1l23.5-14.2c6.5,3.6,11.9,12.6,12,20.1C325.8,156.1,324.6,158.7,322.5,159.9z"/>
							</defs>
							<clipPath id="SVGID_56_">
								<use xlink:href="#SVGID_55_"  overflow="visible"/>
							</clipPath>
							<g clip-path="url(#SVGID_56_)" enable-background="new    ">
								<path fill="#505C78" d="M290.3,146.5l23.5-14.2c0.7,0.4,1.4,0.8,2,1.3l-23.5,14.2C291.7,147.3,291,146.9,290.3,146.5
									L290.3,146.5z"/>
								<path fill="#5B6989" d="M292.3,147.8l23.5-14.2c1.1,0.8,2.2,1.8,3.2,2.9l-23.5,14.2C294.5,149.6,293.4,148.6,292.3,147.8
									L292.3,147.8z"/>
								<path fill="#8C96AC" d="M295.5,150.7l23.5-14.2c1.9,2.1,3.5,4.5,4.7,7.1l-23.5,14.2C298.9,155.2,297.3,152.8,295.5,150.7
									L295.5,150.7z"/>
								<path fill="#5B6989" d="M300.1,157.8l23.5-14.2c0.6,1.2,1,2.4,1.4,3.7l-23.5,14.2C301.2,160.2,300.7,159,300.1,157.8
									L300.1,157.8z"/>
								<path fill="#505C78" d="M301.5,161.4l23.5-14.2c0.4,1.3,0.6,2.5,0.7,3.7l-23.5,14.2C302.1,163.9,301.9,162.7,301.5,161.4
									L301.5,161.4z"/>
								<path fill="#394256" d="M302.2,165.2l23.5-14.2c0,0.5,0.1,0.9,0.1,1.4c0,0.8,0,1.5-0.1,2.1l-23.5,14.2
									c0.1-0.7,0.1-1.4,0.1-2.1C302.3,166.1,302.3,165.6,302.2,165.2L302.2,165.2z"/>
								<path fill="#394256" d="M302.2,168.7l23.5-14.2c-0.4,2.6-1.5,4.4-3.2,5.4L299,174.1C300.7,173.1,301.8,171.3,302.2,168.7
									L302.2,168.7z"/>
							</g>
						</g>
						<g>
							<path fill="#5B6989" d="M290.3,146.5c6.5,3.6,11.9,12.6,12,20.1c0.1,7.4-5.1,10.5-11.7,6.9c-6.5-3.6-11.9-12.6-12-20
								C278.5,145.9,283.7,142.9,290.3,146.5z"/>
						</g>
					</g>
				</g>
				<g>
					<g enable-background="new    ">
						<g enable-background="new    ">
							<defs>
								<path id="SVGID_57_" enable-background="new    " d="M315.2,181.5l24.7-14.9c1-0.6,2.3-0.5,3.7,0.3l-24.7,14.9
									C317.5,181.1,316.2,181,315.2,181.5z"/>
							</defs>
							<clipPath id="SVGID_58_">
								<use xlink:href="#SVGID_57_"  overflow="visible"/>
							</clipPath>
							<g clip-path="url(#SVGID_58_)" enable-background="new    ">
								<path fill="#394256" d="M315.2,181.5l24.7-14.9c0.5-0.3,1.2-0.4,1.9-0.3l-24.7,14.9C316.4,181.1,315.7,181.2,315.2,181.5
									L315.2,181.5z"/>
								<path fill="#394256" d="M317.1,181.2l24.7-14.9c0.4,0.1,0.9,0.2,1.3,0.4l-24.7,14.9C317.9,181.4,317.5,181.3,317.1,181.2
									L317.1,181.2z"/>
								<path fill="#505C78" d="M318.4,181.6l24.7-14.9c0.2,0.1,0.3,0.1,0.5,0.2l-24.7,14.9C318.7,181.7,318.6,181.7,318.4,181.6
									L318.4,181.6z"/>
							</g>
						</g>
						<g enable-background="new    ">
							<defs>
								<path id="SVGID_59_" enable-background="new    " d="M347.4,179l-24.7,14.9c0.5-0.3,0.9-0.8,1.2-1.5
									c0.9-2.5-0.5-6.7-3.3-9.3c-0.6-0.6-1.2-1-1.7-1.3l24.7-14.9c0.6,0.3,1.2,0.8,1.7,1.3c2.7,2.6,4.2,6.8,3.3,9.3
									C348.4,178.2,347.9,178.7,347.4,179z"/>
							</defs>
							<clipPath id="SVGID_60_">
								<use xlink:href="#SVGID_59_"  overflow="visible"/>
							</clipPath>
							<g clip-path="url(#SVGID_60_)" enable-background="new    ">
								<path fill="#505C78" d="M318.9,181.8l24.7-14.9c0.3,0.2,0.6,0.4,0.9,0.6l-24.7,14.9C319.5,182.2,319.2,182,318.9,181.8
									L318.9,181.8z"/>
								<path fill="#5B6989" d="M319.7,182.4l24.7-14.9c0.3,0.2,0.6,0.5,0.9,0.7c0.2,0.2,0.4,0.4,0.5,0.6l-24.7,14.9
									c-0.2-0.2-0.4-0.4-0.5-0.6C320.3,182.9,320,182.6,319.7,182.4L319.7,182.4z"/>
								<path fill="#8C96AC" d="M321.2,183.7l24.7-14.9c0.8,0.9,1.5,2,2,3.1l-24.7,14.9C322.7,185.7,322,184.6,321.2,183.7
									L321.2,183.7z"/>
								<path fill="#5B6989" d="M323.2,186.8l24.7-14.9c0.2,0.5,0.5,1.1,0.6,1.6l-24.7,14.9C323.6,187.9,323.4,187.3,323.2,186.8
									L323.2,186.8z"/>
								<path fill="#505C78" d="M323.8,188.4l24.7-14.9c0.2,0.6,0.3,1.1,0.3,1.6L324.1,190C324.1,189.5,324,188.9,323.8,188.4
									L323.8,188.4z"/>
								<path fill="#394256" d="M324.1,190l24.7-14.9c0.1,0.5,0,1,0,1.5l-24.7,14.9C324.2,191.1,324.2,190.6,324.1,190L324.1,190z"
									/>
								<path fill="#394256" d="M324.1,191.6l24.7-14.9c0,0.3-0.1,0.6-0.2,0.9c-0.3,0.7-0.7,1.2-1.2,1.5l-24.7,14.9
									c0.5-0.3,0.9-0.8,1.2-1.5C324,192.2,324.1,191.9,324.1,191.6L324.1,191.6z"/>
							</g>
						</g>
						<g>
							<path fill="#5B6989" d="M318.9,181.8c0.6,0.3,1.2,0.8,1.7,1.3c2.7,2.6,4.2,6.8,3.3,9.3c-0.7,2-2.7,2.4-4.8,1.2
								c-0.6-0.3-1.2-0.8-1.7-1.3c-2.7-2.6-4.2-6.8-3.3-9.3C314.8,181,316.7,180.6,318.9,181.8z"/>
						</g>
					</g>
				</g>
				<g>
					<g enable-background="new    ">
						<g enable-background="new    ">
							<defs>
								<path id="SVGID_61_" enable-background="new    " d="M284.4,152.4l1.8-1.1c1.1-0.6,2.5-0.5,4,0.3l-1.8,1.1
									C286.9,151.9,285.4,151.8,284.4,152.4z"/>
							</defs>
							<clipPath id="SVGID_62_">
								<use xlink:href="#SVGID_61_"  overflow="visible"/>
							</clipPath>
							<g clip-path="url(#SVGID_62_)" enable-background="new    ">
								<path fill="#C2882E" d="M284.4,152.4l1.8-1.1c0.6-0.3,1.3-0.5,2-0.4l-1.8,1.1C285.7,152,285,152.1,284.4,152.4L284.4,152.4z
									"/>
								<path fill="#BC842C" d="M286.4,152.1l1.8-1.1c0.5,0.1,1,0.2,1.5,0.4l-1.8,1.1C287.4,152.3,286.9,152.1,286.4,152.1
									L286.4,152.1z"/>
								<path fill="#DC9A34" d="M287.9,152.5l1.8-1.1c0.2,0.1,0.3,0.2,0.5,0.3l-1.8,1.1C288.2,152.7,288.1,152.6,287.9,152.5
									L287.9,152.5z"/>
							</g>
						</g>
						<g enable-background="new    ">
							<defs>
								<path id="SVGID_63_" enable-background="new    " d="M288.4,152.8l1.8-1.1c0.7,0.4,1.5,1,2.2,1.7l-1.8,1.1
									C289.9,153.7,289.1,153.2,288.4,152.8z"/>
							</defs>
							<clipPath id="SVGID_64_">
								<use xlink:href="#SVGID_63_"  overflow="visible"/>
							</clipPath>
							<g clip-path="url(#SVGID_64_)" enable-background="new    ">
								<path fill="#DC9A34" d="M288.4,152.8l1.8-1.1c0.3,0.2,0.6,0.4,1,0.6l-1.8,1.1C289.1,153.2,288.7,153,288.4,152.8
									L288.4,152.8z"/>
								<path fill="#FBB03B" d="M289.4,153.4l1.8-1.1c0.4,0.3,0.8,0.7,1.2,1.1l-1.8,1.1C290.2,154.1,289.8,153.7,289.4,153.4
									L289.4,153.4z"/>
							</g>
						</g>
						<g>
							<polygon fill="#C2882E" points="290.6,154.5 292.4,153.4 323.2,184.7 321.5,185.8 							"/>
						</g>
						<g enable-background="new    ">
							<defs>
								<path id="SVGID_65_" enable-background="new    " d="M325.3,196.3l-1.8,1.1c0.5-0.3,0.9-0.8,1.2-1.4
									c1.1-2.7-0.3-7.2-3.2-10.2l1.8-1.1c2.9,3,4.4,7.5,3.2,10.2C326.2,195.5,325.8,196,325.3,196.3z"/>
							</defs>
							<clipPath id="SVGID_66_">
								<use xlink:href="#SVGID_65_"  overflow="visible"/>
							</clipPath>
							<g clip-path="url(#SVGID_66_)" enable-background="new    ">
								<path fill="#FBB03B" d="M321.5,185.8l1.8-1.1c0.1,0.1,0.2,0.2,0.3,0.4l-1.8,1.1C321.7,186,321.6,185.9,321.5,185.8
									L321.5,185.8z"/>
								<path fill="#FCC876" d="M321.8,186.2l1.8-1.1c0.9,1,1.7,2.2,2.2,3.4l-1.8,1.1C323.5,188.3,322.7,187.2,321.8,186.2
									L321.8,186.2z"/>
								<path fill="#FBB03B" d="M324,189.5l1.8-1.1c0.3,0.6,0.5,1.2,0.7,1.8l-1.8,1.1C324.5,190.7,324.3,190.1,324,189.5L324,189.5z
									"/>
								<path fill="#DC9A34" d="M324.7,191.3l1.8-1.1c0.2,0.6,0.3,1.2,0.4,1.8l-1.8,1.1C325,192.5,324.9,191.9,324.7,191.3
									L324.7,191.3z"/>
								<path fill="#BC842C" d="M325,193.1l1.8-1.1c0.1,0.6,0,1.1,0,1.7l-1.8,1.1C325.1,194.2,325.1,193.7,325,193.1L325,193.1z"/>
								<path fill="#C2882E" d="M325,194.8l1.8-1.1c-0.1,0.4-0.2,0.8-0.3,1.2c-0.3,0.6-0.7,1.1-1.2,1.4l-1.8,1.1
									c0.5-0.3,0.9-0.8,1.2-1.4C324.8,195.6,325,195.2,325,194.8L325,194.8z"/>
							</g>
						</g>
						<g>
							<path fill="#FBB03B" d="M288.4,152.8c0.7,0.4,1.5,1,2.2,1.7l30.9,31.3c2.9,3,4.4,7.5,3.2,10.2c-0.9,2-3,2.3-5.2,1.1
								c-0.7-0.4-1.5-1-2.2-1.7l-30.9-31.3c-2.9-3-4.4-7.5-3.2-10.2C284.1,151.9,286.2,151.5,288.4,152.8z"/>
						</g>
					</g>
				</g>
				<g>
					<g enable-background="new    ">
						<g>
							<polygon fill="#FBB03B" points="330,269.3 326.5,267.4 326.4,261.8 329.9,263.8 							"/>
						</g>
						<g>
							<polygon fill="#D89733" points="333.1,257.9 329.6,256 340.1,249.7 343.6,251.7 							"/>
						</g>
						<g enable-background="new    ">
							<defs>
								<path id="SVGID_67_" enable-background="new    " d="M329.9,263.8l-3.4-1.9c0-2.1,1.4-4.7,3.2-5.8l3.4,1.9
									C331.3,259,329.8,261.6,329.9,263.8z"/>
							</defs>
							<clipPath id="SVGID_68_">
								<use xlink:href="#SVGID_67_"  overflow="visible"/>
							</clipPath>
							<g clip-path="url(#SVGID_68_)" enable-background="new    ">
								<path fill="#C2882E" d="M329.9,263.8l-3.4-1.9c0-0.8,0.2-1.7,0.5-2.5l3.4,1.9C330,262.1,329.8,263,329.9,263.8L329.9,263.8z
									"/>
								<path fill="#BC842C" d="M330.4,261.2l-3.4-1.9c0.3-0.7,0.7-1.3,1.1-1.8l3.4,1.9C331.1,259.9,330.7,260.6,330.4,261.2
									L330.4,261.2z"/>
								<path fill="#DC9A34" d="M331.5,259.4l-3.4-1.9c0.5-0.6,1-1.1,1.6-1.4l3.4,1.9C332.5,258.3,332,258.8,331.5,259.4
									L331.5,259.4z"/>
							</g>
						</g>
						<g>
							<path fill="#C2882E" d="M343.6,251.7l0,1.7l-10.5,6.3c-1,0.6-1.8,2.1-1.8,3.3l0.1,5.5l-1.5,0.9l-0.1-5.5
								c0-2.1,1.4-4.7,3.2-5.8L343.6,251.7z"/>
						</g>
					</g>
				</g>
			</g>
		</g>
		<g>
			<g>
				<g enable-background="new    ">
					<g>
						<g>
							<g>
								<polygon fill="#A48157" points="420.1,359.1 420.1,379.4 340.9,425.4 341,405.2 								"/>
							</g>
						</g>
					</g>
					<g>
						<g>
							<g>
								<polygon fill="#C8A376" points="341,405.2 340.9,425.4 261.2,379.4 261.3,359.2 								"/>
							</g>
						</g>
					</g>
					<g>
						<g>
							<g>
								<polygon fill="#E3C095" points="420.1,359.1 341,405.2 261.3,359.2 340.5,313.1 								"/>
							</g>
						</g>
					</g>
				</g>
			</g>
			<g>
				<g>
					<g>
						<g>
							<polygon fill="#6B573F" points="406.7,382.9 406.7,383.9 416.6,378.1 416.6,377.1 							"/>
						</g>
					</g>
				</g>
				<g>
					<g>
						<g>
							<polygon fill="#6B573F" points="411.6,371.3 406.6,379.9 410.1,377.9 410.1,380.4 411.6,379.6 413.2,378.7 413.2,376.1 
								416.6,374.1 							"/>
						</g>
					</g>
				</g>
			</g>
			<g>
				<g enable-background="new    ">
					<g>
						<g>
							<g>
								<polygon fill="#C5C5C5" points="413.3,358.2 413.3,358.6 397.2,368 397.2,367.5 								"/>
							</g>
						</g>
					</g>
					<g>
						<g>
							<g>
								<polygon fill="#898989" points="397.2,367.5 397.2,368 381,358.6 381,358.2 								"/>
							</g>
						</g>
					</g>
					<g>
						<g>
							<g>
								<polygon fill="#DCDCDC" points="413.3,358.2 397.2,367.5 381,358.2 397.1,348.8 								"/>
							</g>
						</g>
					</g>
				</g>
			</g>
			<g>
				<g enable-background="new    ">
					<g>
						<g>
							<g>
								<polygon fill="#C5C5C5" points="298.5,399.9 290.9,395.5 290.9,376.3 298.5,380.7 								"/>
							</g>
						</g>
					</g>
					<g>
						<g>
							<g>
								<polygon fill="#F2F2F2" points="298.5,380.7 290.9,376.3 370.2,330.5 377.8,334.9 								"/>
							</g>
						</g>
					</g>
					<g>
						<g>
							<g>
								<polygon fill="#C5C5C5" points="377.8,334.9 377.8,335.5 299,381 299.1,399.6 298.5,399.9 298.5,380.7 								"/>
							</g>
						</g>
					</g>
				</g>
			</g>
		</g>
	</g>
</g>
</svg>
