<?xml version="1.0" encoding="utf-8"?>
<!-- Generator: Adobe Illustrator 23.0.4, SVG Export Plug-In . SVG Version: 6.00 Build 0)  -->
<svg version="1.1" id="Слой_1" xmlns="http://www.w3.org/2000/svg" xmlns:xlink="http://www.w3.org/1999/xlink" x="0px" y="0px"
	 viewBox="0 0 133 195" style="enable-background:new 0 0 133 195;" xml:space="preserve">
<style type="text/css">
	.st0{fill:#BECDD4;}
	.st1{fill:#FEBFBF;}
	.st2{fill:#FEC7C6;}
	.st3{fill:#C99A6B;}
	.st4{fill:#AE835B;}
	.st5{fill:#E8B687;}
	.st6{fill:#D9AF84;}
	.st7{fill:#EBCBAB;}
	.st8{fill:#D1A986;}
	.st9{fill:#87623F;}
	.st10{fill:#FFDC6E;}
	.st11{fill:#5C6467;}
	.st12{fill:#7282B5;}
	.st13{fill:#E8D0C8;}
	.st14{fill:#504F60;}
	.st15{fill:#A0ABCD;}
	.st16{fill:#FDD249;}
	.st17{fill:#DEDEDE;}
	.st18{fill:#754554;}
	.st19{fill:#725E6D;}
	.st20{fill:#FECB4C;}
	.st21{fill:url(#SVGID_1_);}
	.st22{fill:#FA9698;}
	.st23{fill:#9C9EDB;}
	.st24{fill:#B0B2FF;}
	.st25{fill:#EB66FF;}
	.st26{fill:url(#SVGID_2_);}
	.st27{fill:#F370FF;}
	.st28{fill:#E79BF2;}
	.st29{fill:#FFFFFF;}
	.st30{fill:#FFADB7;}
	.st31{fill:url(#SVGID_3_);}
	.st32{fill:#FF6D67;}
	.st33{fill:url(#SVGID_4_);}
	.st34{fill:url(#SVGID_5_);}
</style>
<g>
	<g>
		<path class="st0" d="M47.5,167.5c-10.9-6.3-28.4-6.3-39.2-0.1c-10.8,6.2-10.7,16.4,0.1,22.6c10.9,6.3,28.4,6.3,39.2,0.1
			S58.4,173.8,47.5,167.5z"/>
		<path class="st1" d="M54.3,56.1c0,0-0.1-1.3-1.1-0.9c-1,0.4-5.4,3.9-5.6,4.4c-0.3,0.5-1,2.4-1.8,3.4c-0.9,1-16.6,7.9-16.8,8.5
			s3.5,5.2,6.7,3.7c3.2-1.5,11.1-7.8,12.4-8.2c1.3-0.4,2.1-0.6,2.8-1.1s2.1-2.2,2.1-2.2s2.7-0.9,3-1.3c0.3-0.4-0.1-0.9-0.5-0.9
			c-0.5,0-3.1,0.8-3.1,0.8l1.3-1.2c0,0,2.6-1.2,2.6-1.8c0-0.5-0.6-1-0.8-1c-0.2,0,0.5-0.3,0.4-1c0-0.7-1-0.9-1-0.9L54.3,56.1z"/>
		<path class="st2" d="M47.9,63.8c0,0,1.4,0.5,1.7-1.2c0.4-1.7-0.4-2.9-0.4-3.8c0-0.9,0.2-1.4,0.2-1.4s0.9-1.1,0.5-2.4
			c-0.4-1.2-1.1,0.2-1.1,0.4c-0.1,0.2-0.7,1.5-0.8,1.7c-0.1,0.3-0.7,2.3-0.8,3C47.1,60.7,45.1,63.5,47.9,63.8z"/>
		<path class="st3" d="M66.3,78.7l-16.4-9.5V50.3l16.4,9.5V78.7z"/>
		<path class="st4" d="M66.3,78.7l16.4-9.5V50.3l-16.4,9.5V78.7z"/>
		<path class="st5" d="M66.3,59.8l16.4-9.5l-16.4-9.5l-16.4,9.5L66.3,59.8z"/>
		<path class="st6" d="M58.9,63l-2.6-1.5V54l2.6,1.5V63z"/>
		<path class="st7" d="M58.9,55.5l16.4-9.5l-2.6-1.5L56.2,54L58.9,55.5z"/>
		<path class="st8" d="M57.6,54.8l16.4-9.5l-0.2-0.1l-16.4,9.5L57.6,54.8z"/>
		<path class="st9" d="M82.7,50.3l-16.4,9.5l8.9-4.7L82.7,50.3z"/>
		<path class="st10" d="M15.5,63c0,0-1.6-1.3-4.6,0c-2.9,1.3-4.2,5-4.5,5.8C6.2,69.7,6,81.1,6,81.1s1.3,3.4,6.7,2
			C18,81.8,15.5,63,15.5,63z"/>
		<path class="st11" d="M20.4,167.1c0.1-0.1,3.1-1.7,5.3-1.7c2.2,0,2,2.7,1.6,4c-0.4,1.2-4.3,4.4-4.3,4.4l-1.8,1.8
			c0,0-1.7,1.9-2.6,2.5c-0.9,0.6-2.5,0.6-3.6,0.1s-1.4-0.8-1.5-0.9s-0.8-2.6,0-5C14.4,170,20.4,167.1,20.4,167.1z"/>
		<path class="st12" d="M13,151c-0.4,4.7-0.4,10.8-0.4,15.4c0,4.7,0.3,7,0.3,7s1.1,1.7,3.6,1.7c0.7,0,1.5-0.2,2.2-0.6
			c1.9-0.8,3.5-2.2,3.7-2.5c0.2-0.5-0.1-3-0.2-3.7c-0.1-0.7-0.9-7.5,0.2-13.8c1.1-6.3,3.5-15.9,3.6-19c0-1-0.1-3-0.3-5.3
			c-0.5-5.1-1.3-11.5-1.3-11.5l-14.2-5.6c0,0-0.5,7.3,2.3,12.3c2.8,4.9,2.3,9.9,2.3,11.8C14.9,138.9,13.4,146.3,13,151z"/>
		<path class="st13" d="M18.8,174.5c1.9-0.8,3.5-2.2,3.7-2.5c0.2-0.5-0.1-3-0.2-3.7c-0.1-0.7-0.9-7.5,0.2-13.8
			c1.1-6.3,3.5-15.9,3.6-19c0-1-0.1-3-0.3-5.3c-1.5-1.5-3.3-2.7-5.4-3.5c0,0,2.8,9.1,1.8,14.7c-1,5.6-2.8,13.8-2.7,19.2
			c0.1,5.5,2,10.3,0,13.1C19.3,173.9,19,174.2,18.8,174.5z"/>
		<path class="st11" d="M44.3,180.4c-0.5,1.1-1.1,2.7-5,3.7c-3.9,1-5.1,0.6-5.9,1c-0.9,0.3-2.5,1.2-3,1.3c-0.5,0.1-3.2,0.6-4.6,0
			c-1.1-0.4-1.6-1.1-1.8-1.6c-0.1-0.1-0.1-0.3-0.1-0.4c0-0.5-0.2-2.9,0.1-3.3c0.3-0.4,8-4.6,8-4.6s6.4,0.3,7.8,0.3
			c1.4,0,3.5,0.1,3.9,0.4c0.3,0.2,0.6,1,0.7,1.8C44.5,179.5,44.5,180,44.3,180.4z"/>
		<path class="st1" d="M32.8,177c0,0,2.7,0,3.4,0.5c0.7,0.5,1.6,2.8-0.5,4.1c-1.6,1-5.8,0.8-6.5,0.9c-0.7,0.1-2-0.1-2.5-0.6
			c-0.4-0.5,2.8-2.7,2.8-2.7L32.8,177z"/>
		<path class="st14" d="M44.3,180.4c-0.5,1.1-1.1,2.7-5,3.7c-3.9,1-5.1,0.6-5.9,1c-0.9,0.3-2.5,1.2-3,1.3c-0.5,0.1-3.2,0.6-4.6,0
			c-1.1-0.4-1.6-1.1-1.8-1.6c0.2,0.1,0.4,0.2,0.6,0.4c1.1,1.2,4.5,0.9,5.7,0.6c3.1-1,4-0.9,4-0.9s2.7-0.4,4.1-0.9
			c1.3-0.4,3.5-1.1,4.7-2.2c1.1-1.1,1.4-2.8,1.4-2.8C44.5,179.5,44.5,180,44.3,180.4z"/>
		<path class="st12" d="M17,125c1.4,2.4,6.2,5.9,6.4,7.7c0.3,1.8,2.1,9.9,1.6,17.3c-0.6,7.4-1.1,10.7-1,18.3
			c0.1,7.6-0.1,13.1-0.1,13.1s1.5,2.1,4.9,1.6c1.9-0.2,3.3-1.2,4.1-2.1c0.6-0.7,1-1.4,1-1.9c0-1.1,1.2-19.8,3-28.8
			c1.7-8.9,4-25.9,2.7-32.2c0-0.2-0.1-0.3-0.2-0.5c-2.4-5.5-23.5,2.1-23.5,2.1S15.6,122.6,17,125z"/>
		<path class="st15" d="M32.1,181.5l0.5,0c-0.6-10.4,0.5-17.7,2-26.9c0.9-5.8,1.9-12.4,2.7-20.9c0.5-5.8,0.8-13.6,0.8-13.7l-0.5,0
			c0,0.1-0.3,7.9-0.8,13.7c-0.8,8.6-1.8,15.1-2.7,20.9C32.6,163.8,31.5,171.1,32.1,181.5z"/>
		<path class="st13" d="M32.9,181c0.6-0.7,1-1.4,1-1.9c0-1.1,1.2-19.8,3-28.8c1.7-8.9,4-25.9,2.7-32.2c0-0.2-0.1-0.3-0.2-0.5
			c-0.5,0.3-1.1,0.7-1.7,1.1c0,0,1.4,5.6,0.4,13c-1,7.4-3.5,22.4-3.8,26C34,160.8,33.3,175.5,32.9,181z"/>
		<path class="st16" d="M10.1,105.1c-0.2,2.4-0.5,8,0.4,9.7c1,1.6,2.2,2,4.9,4.1c2.7,2.1,9.7,4.7,16.3,4.2c3.3-0.2,5.5-1.4,6.9-2.5
			c1.3-1.1,1.9-2.2,1.9-2.2s-2-10.2-1.8-15.1c0.2-4,1.4-15.7,1.1-22.7c-0.1-1.7-0.2-3.2-0.5-4.2c-1.4-5-6.3-7.7-9.1-10.1
			c-2.8-2.4-9.3-4-11.8-4.3c-2.5-0.2-6.9,0.3-7.6,0.9c-0.8,0.7-3.4,3.1-3.2,10.3c0.2,7.2,2.3,16.2,3.2,21.2
			C11.8,99.5,10.3,102.7,10.1,105.1z"/>
		<path class="st17" d="M36,107c0.5,4.6,2.4,6.5,2.7,13.5c1.3-1.1,1.9-2.2,1.9-2.2s-2-10.2-1.8-15.1c0.2-4,1.4-15.7,1.1-22.7
			c-0.3-0.5-0.4-0.8-0.4-0.8l-9-1.3c0,0,5.2,8,5.5,10.5C36.3,91.5,35.5,101.8,36,107z"/>
		<path class="st1" d="M18,50.6c0,0,1.3,5.7,1,7.6c-0.3,1.9-0.6,2.8-1.1,3.4c-0.5,0.6-1,1-1,1s0.2,1.9,4.9,2.7
			c4.7,0.8,6.9,0.8,7.5,1l0.6,0.2l-0.6-0.8c0,0,0.7-5.2,0.9-5.8c0.2-0.6,1.3-0.1,2.7-0.4c1.4-0.3,1.4-1.2,1.5-1.7
			c0.1-0.5,0.7-5.7,0.7-6.2c0-0.4,0.8-1.4,0.8-1.4l-0.8-1.4c0,0,0.7-0.8,0.8-1.8c0-1-0.2-5.2-1.3-6.5c-1.1-1.3-8.3-2.2-10.2-1.6
			C22.5,39.5,17,43.6,18,50.6z"/>
		<path class="st18" d="M34.6,42.5c0,0-0.2,0.2-0.3,0.8c-0.1,0.6,0.5,1.2,0.5,2c0,0.9-0.2,2.6-0.2,2.6s-0.8,0-1.1,0.8
			c-0.3,0.8-0.6,2.1-0.6,2.1l0,0.8L32.1,52c0,0-0.2-2-1.6-1.6c-1.4,0.4-2.7,1.2-3.5,2.9c-0.8,1.6-1,2.9-1.8,3.4
			c-0.8,0.5-3.4,0.5-4.5,0.2c-1-0.3-1.7-0.9-1.7-0.9s-1.6-2.1-3.3-7c-1.7-5-0.7-7.9,0-8.8c0.7-1,2.7-1.7,2.7-1.7s-0.1-2.2,5-3.2
			c5.1-1,11.1,3.3,11.7,4.1c0.7,0.7,0.8,2.7,0.8,2.7L34.6,42.5z"/>
		<path class="st19" d="M32.5,46.2c0,0,6.9-1.5,8.5-2.2c1.1-0.5,1.3-0.9,1-2.5c-0.2-0.9-0.9-2.8-1.8-3.7c-0.9-0.8-2.2-1.4-3-1.4
			c-1.5,0-8.1,0.8-10.1,1.1C25.2,37.9,32.5,46.2,32.5,46.2z"/>
		<path class="st20" d="M15.1,47c0,0,1.4,2.6,7.5,2.5c6-0.1,12.9-4.6,13.1-6.1c0.2-1.5,0.8-5-3.5-7c-4.2-2-8.4-2.3-11.9-1
			C16.8,36.7,13.1,40.5,15.1,47z"/>
		
			<linearGradient id="SVGID_1_" gradientUnits="userSpaceOnUse" x1="29.2951" y1="143.1805" x2="31.3951" y2="143.1025" gradientTransform="matrix(1 0 0 -1 0 196)">
			<stop  offset="0" style="stop-color:#FEB9B8"/>
			<stop  offset="0.122" style="stop-color:#FEB9B8"/>
			<stop  offset="1" style="stop-color:#FFDEDE"/>
		</linearGradient>
		<path class="st21" d="M29.2,52.2c-0.2,1.9,0.1,3.2,0.9,3.6c0.7,0.4,1.1-0.8,1.1-0.8s-0.8-2.3,0.3-3.6c0,0,0.3-0.8-0.2-1.4
			c-0.1-0.1-0.2-0.2-0.4-0.2C30.3,49.8,29.4,50.8,29.2,52.2z"/>
		<path class="st1" d="M36.2,70.8c1.6,0.7,2,0.9,6.1,3.5c7.8,4.8,9.6,6.5,11.8,7.1c2.1,0.7,3,3.3,2.8,5.3c-0.2,2,0,3-4.6,2.1
			c-4.6-0.9-16.6-6.9-20.2-9.4C27.7,76.4,31.1,68.7,36.2,70.8z M76.5,64.3c0,0,0.8-1.2,0.6-1.3s-0.7-1.1-1.6,0
			c-0.9,1.1-3.6,3.8-3.8,3.8C71.6,66.8,71,66,71,66s1.6-2,1.4-3.1c-0.2-1.2-1.9-0.3-2,0c-0.1,0.3-1.1,2.2-1.6,2.9
			c-0.5,0.7-1.5,2-1.8,3.1c-0.3,1.1-0.3,2.9-0.9,3.7c-0.6,0.8-13.7,9.5-13.7,9.5s-0.1,9.6,3.6,6.7c3.7-3,13.6-13.7,14.1-14
			c0.5-0.3,4.7-1.8,5-2.1s1-2.6,1-2.6l0.7-1.9c0,0,0.6-0.9,0.6-1.2c0-0.3,0-1,0-1s0.6-1.1,0-1.4C76.8,64.3,76.5,64.3,76.5,64.3z"/>
		<path class="st22" d="M76.5,64.3l-3.1,3.9l2.2-1.9l1.3-1.8L76.5,64.3z M77.4,65.9l-2.2,2.9l1.1-0.9l1.1-1.5L77.4,65.9z"/>
		<path class="st10" d="M47.7,77.4c0,0,0.6,2.7-1.4,5.3s-3.8,3.8-3.8,3.8s-11-5.5-12.1-8.1c-1-2.2-2.4-6.5,3.4-8.3
			C36.7,69.2,47.7,77.4,47.7,77.4z"/>
		<path class="st0" d="M126.4,127.6c-8.6-5-22.5-5-31-0.1c-8.5,4.9-8.5,12.9,0.1,17.9c8.6,5,22.5,5,31,0.1
			C135.1,140.6,135,132.5,126.4,127.6z"/>
		<path class="st23" d="M98.9,138.3c4.2-2.9,6.2-2.7,6.2-2.7s5.3,0.4,4.7-2.8c-0.5-2.7-1.2-4.4-1.3-5.5c-0.1-0.2-0.1-0.4-0.1-0.5
			c0.2-6.9,3.1-18.1,2.2-23.5c-0.7-4-0.1-8.4,0.6-12.7c0-0.1,0-0.2,0.1-0.3c0.2-1.2,0.4-2.3,0.6-3.5c0-0.1,0-0.2,0.1-0.3
			c0.1-0.7,0.2-1.4,0.3-2.1c0-0.4,0.1-0.7,0.1-1c0.1-0.7,0.2-1.3,0.2-2c0.1-1,0-2,0-2.8c-0.1-0.6-0.2-1.1-0.3-1.6
			c-1.7-6-12.9-7.6-12.9-7.6s-1.1,11.2,0.7,21c2.9,15.1,3.6,33.3,3.7,38.2c0,2-2.6,3.6-3.9,4.4c-1.7,1-5.1,3.2-5.1,3.2
			S94.6,141.2,98.9,138.3z"/>
		<path class="st13" d="M109,83.1c0,0-0.8,8.4-0.4,16c0.3,7.6,0.8,7.1,0.3,12.5c-0.6,5.4-1.6,13.2-1.3,15c0.3,1.8,2,5.3,1.9,7.6
			c0.2-0.4,0.4-0.9,0.3-1.4c-0.4-2.7-1.1-4.4-1.2-5.6c-0.1-0.2-0.1-0.4-0.1-0.5c0.2-6.9,3.1-18.1,2.2-23.5c-0.7-4-0.1-8.4,0.6-12.7
			c0-0.1,0-0.2,0.1-0.3c0.2-1.2,0.4-2.3,0.6-3.5c0-0.1,0-0.2,0.1-0.3c0.1-0.7,0.2-1.4,0.3-2.1c0-0.4,0.1-0.7,0.1-1
			c0.1-0.7,0.2-1.3,0.2-2c0.1-1,0-2,0-2.8c-1.6-0.7-3.7-1-6.4-0.9c0,0-0.3,1.6,1.4,3.9C108.8,83.2,109,83.1,109,83.1z"/>
		<path class="st11" d="M102.3,130.8c-1-0.3-2,1.1-2.7,1.7c0,0-5.4,3.1-5.5,3.6c-0.2,0.4-0.4,1.7-0.2,1.9c0.2,0.2,2,2,4.7,1.1
			c2.7-1,3.7-1.9,5.5-2.3s5.3-1.2,5.8-2.1s-0.1-4.2-0.1-4.2s-0.6-0.2-0.8,0.2c-0.2,0.4-1.3,1.5-2.5,1.9c-0.9,0.3-1.8,0.2-2.7,0.1
			c0.1-0.2,0.2-0.5,0-0.7c-0.1-0.2-0.3-0.2-0.5-0.4c-0.2-0.2-0.4-0.4-0.7-0.5C102.6,130.8,102.5,130.8,102.3,130.8z"/>
		<path class="st23" d="M106.9,80c1.1,1.3,2.6,1.9,2.6,1.9s1.1,20.7,3,25.2c1.9,4.6,3.4,21.3,3.4,22c0,0.7-0.1,4.8-3.4,8
			c-3.2,3.2-4.6,3.8-4.6,4.3c0,0.5,1.5,2.9,4.6,2.4c3.1-0.5,3.9-0.7,5.4-2.3c1.5-1.6,3-2.6,3.3-3.9c0.2-1.2-0.8-3.6-0.2-5.9
			c0,0,0,0,0,0c0-0.1,0.1-0.3,0.1-0.5c0,0,0-0.1,0-0.1c0-0.1,0.1-0.3,0.1-0.5c0.1-0.5,0.2-1.1,0.3-1.9c0.7-5.1,1.5-14.5,1.2-17.5
			c-0.9-8.4-1.9-7.6-1.6-10c0.3-2.4,4.2-14.4,4-28.1c0-0.3-0.1-0.7-0.2-0.9c-2-3.9-18.2,0-18.2,0S105.5,78.1,106.9,80z"/>
		<path class="st24" d="M119.4,134.3c3.9-18.2,1.3-27,0.3-30.3c-0.1-0.4-0.2-0.8-0.3-1c-0.2-1.2,1.5-8.3,2.6-12.9
			c0.5-2.1,0.9-3.8,1.1-4.7c0.6-2.9,0.2-11.7,0.2-12l-0.5,0c0,0.1,0.4,9.1-0.2,11.9c-0.2,0.9-0.6,2.6-1.1,4.7
			c-1.6,6.4-2.8,11.9-2.6,13.1c0.1,0.2,0.2,0.6,0.3,1.1c1,3.3,3.6,12-0.3,30L119.4,134.3z"/>
		<path class="st13" d="M119.2,140c0.8-0.8,1.6-1.5,1.7-2.2c0.2-1.2-0.8-3.6-0.1-5.9c0-0.1,0-0.1,0.1-0.2c0,0,0,0,0,0
			c0-0.1,0.1-0.3,0.1-0.5c0,0,0-0.1,0-0.1c0-0.2,0.1-0.3,0.1-0.5c0.1-0.5,0.2-1.1,0.3-1.9c0.7-5.1,1.5-14.5,1.2-17.5
			c-1-8.4-1.9-7.6-1.6-10c0.3-2.4,4.2-14.4,4-28.1c0-0.3-0.1-0.7-0.2-0.9c-0.6,0.1-1.1,0.3-1.1,0.3s0.7,5,0,11.5
			c-0.7,6.5-3.7,17.2-3.7,18.5c0,1.3,2,5.2,2,12.3c-0.1,7.1-2.2,17.2-2,18.6C119.9,134.4,121.2,136.8,119.2,140z"/>
		<path class="st11" d="M112.9,135.9c0.5-0.2,1.1-0.1,1.7,0c0.7,0.1,1.3,0.4,1.9,0.7c0.6,0.3,0.6,0.5,0.6,1.1c0.8-0.4,3-1.5,3.3-2.3
			c0.2-0.6,0.3-2.3,0.3-2.3s0.1,0.2,0.2,1.2c0.1,1,0.3,3.5,0.3,4.2c0,0.7-3.6,3.6-4.6,4.3c-2.6,1.8-3.4,2.5-7,2.6
			c-3.6,0.1-3.4-2.3-3.3-2.9c0-0.6,3.6-3.6,4.5-4.3c0.6-0.4,1-1.2,1.4-1.8C112.3,136.2,112.6,136,112.9,135.9z"/>
		<path class="st1" d="M106.1,24.1c0,0-2.3-0.4-5.3,4.4c-2.6,4.2-4.5,7.2-7.4,10.2c-3,3-3.8,3.4-4,5.3c-0.1,1.9,0.5,5.5,4.4,4.1
			c3.9-1.5,8.5-9.4,10.2-12.8C105.7,31.9,121.2,24,106.1,24.1z"/>
		<path class="st25" d="M93.5,38.4c0,0,3.1,0.7,5.2,2.2c2.1,1.5,10.7-16.6,9.6-16.9c-1.8-0.4-3.5,0.3-5.1,1.5
			C101.6,26.4,93.5,38.4,93.5,38.4z"/>
		
			<linearGradient id="SVGID_2_" gradientUnits="userSpaceOnUse" x1="123.0131" y1="171.8967" x2="120.7351" y2="196.7558" gradientTransform="matrix(1 0 0 -1 0 196)">
			<stop  offset="0" style="stop-color:#F7413E"/>
			<stop  offset="0.122" style="stop-color:#F7413E"/>
			<stop  offset="0.99" style="stop-color:#FF6D67"/>
			<stop  offset="1" style="stop-color:#FF6D67"/>
		</linearGradient>
		<path class="st26" d="M117.2,3.9c0,0,1,8.9,0.8,14.1c-0.2,5.2-0.8,6.7,1,8.4c1.8,1.7,6.8,2.5,6.8,2.5s-4.2-6.2-0.6-14
			c3.5-7.7,0.5-12.4-2.2-13.8c-0.9-0.4-1.7-0.6-2.4-0.6C117.8,0.5,117.2,3.9,117.2,3.9z"/>
		<path class="st27" d="M98.2,43.6c0,1.2,0.2,2,0.6,2.9v0c0.1,0.2,0.2,0.4,0.2,0.5c0.3,0.6,0.7,1.3,1,2.3c1.1,2.8-1.2,19.5-0.8,20.7
			c0.3,1.2,0.8,2.3,5.9,3.9c5.8,1.8,13.9,1.6,18,0c0.6-0.2,1.2-0.5,1.7-0.9c0,0-1.1-11.8-0.8-16.2c0.2-2.6,1.5-5.9,2.8-9.2
			c0.1-0.1,0.1-0.3,0.2-0.5c0.9-2.2,1.7-4.4,2.2-6.4c2.2-9.1-1.3-10.2-4.1-12.3c-2.4-1.8-4.8-2.8-7.5-3.4c-4.1-1-8.6-1.7-9.8-1.6
			c-1.2,0.1-4.8,1.9-6.3,7.3c-1.3,4.7-2.7,8.7-3.2,11.4c-0.1,0.4-0.1,0.8-0.1,1.2C98.2,43.4,98.2,43.5,98.2,43.6z"/>
		<path class="st28" d="M98.2,43.6c0,1.2,0.2,2,0.6,2.9v0c0.1,0.2,0.2,0.4,0.2,0.5c1.1,0.2,2.4,0.6,3.1,0.8c1.5,0.3,5.1-0.9,5.1-0.9
			l-2.4-1.5c0,0,4-0.9,5.1-1.7c1-0.9,0.7-2.6,0.7-2.6c-2.3-2.5-8.7-0.5-12.2,1c-0.1,0.4-0.1,0.8-0.1,1.2
			C98.2,43.4,98.2,43.5,98.2,43.6z"/>
		<path class="st29" d="M99.2,70c0.3,1.2,0.8,2.3,5.9,3.9c5.8,1.8,13.9,1.6,18,0c0.6-0.2,1.2-0.5,1.7-0.9c0,0-1.1-11.8-0.8-16.2
			c0.2-2.6,1.5-5.9,2.8-9.2c-0.8-4.4-2.1-7.6-4-7.8c-5.6-0.6-0.2,11.4-7.8,11.7c-7.1,0.3-6.7-2.4-10.1-2.9c-3.8-0.5-5.5-0.8-6.3-2.2
			c0.3,0.8,0.8,1.6,1.3,2.8C101.1,52.1,98.8,68.8,99.2,70z"/>
		<path class="st28" d="M107.9,68.3L121,61c0,0,1.8,0.6,2,4.8c0.2,2.8-0.1,5.7,0.2,8c0.6-0.2,1.2-0.5,1.7-0.9c0,0-1.1-11.8-0.8-16.2
			c0.2-2.7,1.6-6.2,3-9.7c-3.4-3.6-6.4-6.5-6.4-6.5s-0.7,4.7-1.6,7.6c-1.2,4-8.4,3-11.2,1.5c2.4,1.8,8.4,2.3,10.7,1.1
			c-0.5,3.1-0.3,6.8-0.3,6.8L107.9,68.3z"/>
		<path class="st1" d="M127.7,31.5c0,0-4.6-1.5-6.4,6c-3,12.3-1.9,18.7-2,19.9c-5,6.2-13.8,11.2-14,11.2c-0.2,0-2.6,0.4-2.9,0.8
			c-0.3,0.4-4.1,2.8-4.3,3.3c-0.2,0.5-3.5,2.1-3.5,2.1l-0.4,0.7c0,0-0.7,0.3-0.7,0.9c0,0.6,0.7,0.7,0.7,0.7s-0.2,1,0.5,1
			c0.8,0.1,3.5-1.1,3.6-1.1c0.1-0.1,0.2,0.1,0.2,0.1s-1,0.6-1.2,1s-0.1,1.3,0.9,0.9c1-0.4,3.5-1.9,4.2-2.4c0.7-0.5,2.9-2.7,3.1-2.9
			c0.2-0.1,0.9-1.7,2.6-2.6c0.7-0.4,1.6-0.8,2.9-1.4c4.8-1.9,12.8-7,13.3-9.4c1.1-5.2,6.4-22.1,5.7-26.2
			C129.7,32,127.7,31.5,127.7,31.5z"/>
		<path class="st22" d="M123.7,60.7c-0.5,0.8-1.3,1.8-5,4.4c-3.6,2.6-10.5,5.5-10.8,5.6c-0.3,0.2-1.5,1.5-1.5,1.5l-0.9,0.1l-1.4-0.8
			l0.1,0.5l0.5,0.7c0,0,0,0.8-0.4,1.3c-0.3,0.5-1.8,2.1-2.1,2.4c-0.3,0.4-3.7,2.3-4.2,2.5c-0.2,0.1-0.6,0.1-0.8-0.1
			c0.1,0.2,0.4,0.4,0.9,0.2c1-0.4,3.5-1.9,4.2-2.4c0.7-0.5,2.9-2.7,3.1-2.9c0.2-0.1,0.9-1.7,2.6-2.6c0.7-0.4,1.6-0.8,2.9-1.4
			c4.3-1.7,11.1-5.9,12.9-8.5C123.8,60.7,123.8,60.5,123.7,60.7z M98.5,77c0,0-0.1,0.1-0.2,0.2C98.4,77.1,98.6,77,98.5,77l2.2-2.1
			l0.2-0.3l-2.4,2.1c0,0-2.7,1.2-3.4,1.1c-0.8,0-0.9-0.1-0.9-0.4c0-0.4,0.2-0.5,0.4-0.8c0.2-0.2,2-0.5,2.4-0.7
			c0.4-0.2,2.2-1.3,2.2-1.3s-1.2,0.7-2.3,1.2c-1.1,0.5-2,0.5-2.2,0.6c-0.2,0.1-0.4,0.5-0.4,0.5l-0.4,0c0,0-0.2-0.3-0.2-0.6
			c0.1-0.3,0.3-0.4,0.3-0.4l2.7-0.9l1.6-1.1l-1.6,0.9c0,0-2.1,0.7-2.5,0.8c-0.2,0.1-0.6,0.3-0.6,0.8c0,0.6,0.7,0.7,0.7,0.7
			s-0.2,1,0.5,1c0.8,0.1,3.5-1.1,3.6-1.1C98.4,76.9,98.5,77,98.5,77z M118.4,58.4c1.4-0.8,0.1,0.3,1.2,0.3c1.2,0,3.2-0.1,3.2-0.1
			l-1.1-0.3c-2.3-0.5-2.5-0.9-2.5-0.9C119,57.7,118.7,58.1,118.4,58.4L118.4,58.4z"/>
		<path class="st1" d="M107.6,75c0,0-0.2-0.9-0.2-1.5c0.1-0.6,0.5-1.2,0.4-2.1c0-0.9-0.4-2.1-1.5-2.4c-1-0.3-1.8-0.6-2.6,0.9
			c-0.7,1.5,1.7,2.1,1.8,2.5c0.1,0.5-0.1,1.3,0.1,2.1C105.9,75.1,107.3,76.3,107.6,75z M109.6,42.2L109.6,42.2c0,0,0.1,0.7-0.1,1.1
			c-0.2,0.4-3.3,1-3.3,1l-3.6,0.9c0,0,2.8,0.4,3.4,0.4c0.5,0,1.9,0.1,1.5,0.9c-0.4,0.8-4.7,0.3-5.9,0.3s-1.7-0.5-3.2-0.5
			c-1.5,0-5.2,3-6.8,2.3c-1.6-0.8-3.1-3.8-1.9-5.9c1.2-2.1,4.1-1.2,5.4-1.2c1.3,0,2.7-0.4,3.4-0.6c0.7-0.2,1.2-1.1,1.3-1.4
			c0.1-0.2,1.4-1.4,1.4-1.4c0.5-0.4,2.6-2.2,2.8-2.4c0.2-0.2,0.5-0.8,0.7-1c0.1-0.2,0.4-0.6,0.8-0.2c0,0,0,0,0,0
			c0.3,0.4,0.1,0.7-0.1,1.4c-0.2,0.7-1.5,1.8-1.5,1.8l-1.3,1.3c0,0,0.2,0.3,0.8,0.5c0.1,0,0.1,0,0.2,0h0c0.3,0,0.8,0,1.4-0.1l0,0
			c1.7-0.2,4.2-0.5,4.8-0.4c0.6,0.1,0.3,0.7,0.3,1.1c0,0.1,0,0.2,0,0.2c0,0,0,0,0.1,0c0.3-0.1,0.7,0.4,0.7,1.1
			c0,0.2-0.1,0.3-0.2,0.4C110.3,42.1,109.7,42.2,109.6,42.2z"/>
		<path class="st30" d="M110.4,17.5c0,0,0.1,5.9-0.3,8.2c-0.3,2.2-1.1,3.6,1.4,4.4c1.4,0.5,6.8-1,9.1-3.5c0.2-0.3-0.4-0.7-0.9-2.4
			c-0.5-1.8-0.9-2.6-0.9-6c0-3.5-0.2-6.6-0.2-6.6L110.4,17.5z"/>
		
			<linearGradient id="SVGID_3_" gradientUnits="userSpaceOnUse" x1="116.8281" y1="172.4165" x2="111.1061" y2="165.1745" gradientTransform="matrix(1 0 0 -1 0 196)">
			<stop  offset="0" style="stop-color:#FCA4B5"/>
			<stop  offset="0.122" style="stop-color:#FCA4B5"/>
			<stop  offset="0.99" style="stop-color:#FFADB7"/>
			<stop  offset="1" style="stop-color:#FFADB7"/>
		</linearGradient>
		<path class="st31" d="M110.3,24.2c0,0.6-0.1,1.1-0.1,1.5c0,0.1,0,0.1,0,0.2c0.4,0,0.9,0,1.7-0.2c3.4-0.9,4.4-1,5.4,0
			c1,1,0.7,2.2-0.5,3.4c1.5-0.6,3-1.5,4-2.5c0.2-0.3-0.4-0.7-0.9-2.5c-0.5-1.8-0.9-2.6-0.9-6v-1.6L110.3,24.2z"/>
		<path class="st1" d="M113.9,1c0,0-5.7,1.2-7.2,5.5c-1.5,4.4-1.2,4.6-1.1,6.3c0.1,1.8-0.5,4.2,0.2,7s1.3,5.2,2.6,5.7
			c1.3,0.4,8.7-1.1,11.3-6.1c2.7-5,5.2-9.6,3.2-14.3C121.4,1.9,116.7,0.3,113.9,1z"/>
		<path class="st32" d="M123.3,5.5c-1.1-2.8-2.5-3.4-2.5-3.4s-1.3-1.5-5.1-1.5c-3.5,0-6.7,1.9-8.2,3.4c-2,2.2-1.2,3.4-1.2,3.4l0,0
			c0.1-0.1,0.4-0.7,1.1-0.4c1,0.4,1.4,1.1,2.2,1.4c5.5,2,6.6,0.5,7.1,3c0.5,2.6,0.7,3.5,1.9,3.1c1.9-0.6,1.8-0.2,2.7,1
			c-0.3,1.2-0.8,2.5-1.2,3.6c0,0,0.1,1.2,2.2-3.5C123,13.7,125.1,11.1,123.3,5.5z"/>
		
			<linearGradient id="SVGID_4_" gradientUnits="userSpaceOnUse" x1="118.7711" y1="178.6714" x2="123.7321" y2="180.9124" gradientTransform="matrix(1 0 0 -1 0 196)">
			<stop  offset="0" style="stop-color:#FEB9B8"/>
			<stop  offset="0.122" style="stop-color:#FEB9B8"/>
			<stop  offset="1" style="stop-color:#FFDEDE"/>
		</linearGradient>
		<path class="st33" d="M119.3,15.1c0.5,1.3-0.5,2.6-0.4,2.8c0.1,0.1,0.6,2.3,2.5,0.5c2-1.9,2.3-3.9,0.5-4.4
			c-0.2-0.1-0.5-0.1-0.7-0.1C119.9,13.9,119.3,15.1,119.3,15.1z"/>
		
			<linearGradient id="SVGID_5_" gradientUnits="userSpaceOnUse" x1="121.2184" y1="180.4508" x2="119.7534" y2="178.5998" gradientTransform="matrix(1 0 0 -1 0 196)">
			<stop  offset="0" style="stop-color:#FCA4B5"/>
			<stop  offset="0.122" style="stop-color:#FCA4B5"/>
			<stop  offset="0.99" style="stop-color:#FFADB7"/>
			<stop  offset="1" style="stop-color:#FFADB7"/>
		</linearGradient>
		<path class="st34" d="M120,15.4c0.6,0.8-0.4,1.3-0.3,1.9c0.1,0.6,1,0.7,1.2,0.4c0.2-0.2,1.9-2.2,0.7-2.9c-0.1-0.1-0.3-0.1-0.4-0.1
			C120.5,14.8,120,15.4,120,15.4z"/>
		<path class="st32" d="M117,12.9c0,0,0.5,2,0.3,3.8c-0.2,1.8,0.4,3.7,0.4,3.7s-0.4-2.3,0-3.6c0.3-1.3,1-2,0.9-2.7
			C118.6,13.3,117,12.9,117,12.9z"/>
		<path class="st22" d="M103.3,39.5c0.1,0,0.1,0,0.2,0l-0.8,0l-1.3-0.5l1.6-0.7c0,0,1.9-2,2.1-2.3c0.1-0.2,0.3-1,0.4-1.5
			c0.3,0.4,0.1,0.7-0.1,1.4c-0.2,0.7-1.5,1.8-1.5,1.8l-1.3,1.3C102.5,39.1,102.7,39.3,103.3,39.5z M107.9,40.8
			c-1.1,0.2-4.4,0.4-4.4,0.4l6.6-1c0,0.1,0,0.2,0,0.2C109.6,40.5,108.7,40.7,107.9,40.8z M110.6,41.9c-0.3,0.2-0.9,0.3-1,0.3l0,0
			c-0.3,0-1.6,0.3-2.7,0.4c-1,0.1-2.8,0.3-3.1,0.3c0.5-0.1,5.8-0.9,6.4-0.9C110.3,42,110.5,41.9,110.6,41.9z"/>
		<path class="st25" d="M128.6,31.2c0,0,1.8,1.5,1.8,3.5c0,2-2,11.3-2.7,13c-3.2,0.4-8.1-1.1-8.2-2c-0.1-1,1.2-7.6,2.3-10.5
			C123,32.2,125.1,29.8,128.6,31.2z"/>
	</g>
</g>
</svg>
