<svg xmlns="http://www.w3.org/2000/svg" width="125" height="44.925" viewBox="0 0 125 44.925">
  <g id="logo" transform="translate(-545.938 -517.971)">
    <g id="Group_3" data-name="Group 3" transform="translate(584.988 529.469)">
      <path id="Path_25" data-name="Path 25" d="M626.511,555.856v-7.334h-5.355v7.334h-3.437v-16.75h3.437v6.608h5.355v-6.608h3.437v16.75Z" transform="translate(-617.719 -539.106)" fill="#545454"/>
      <path id="Path_26" data-name="Path 26" d="M655.26,556.361a1.249,1.249,0,0,0,.7.521l-.7,2.275a3.965,3.965,0,0,1-1.789-.533,2.768,2.768,0,0,1-1.064-1.355,4.087,4.087,0,0,1-3.718,1.936,3.763,3.763,0,0,1-4.021-3.97,3.789,3.789,0,0,1,1.473-3.219,6.918,6.918,0,0,1,4.232-1.114H651.8v-.629a2.143,2.143,0,0,0-.515-1.646,2.543,2.543,0,0,0-1.707-.46,10.457,10.457,0,0,0-3.274.678l-.748-2.3a12.075,12.075,0,0,1,4.583-.944,5.264,5.264,0,0,1,3.718,1.126,4.395,4.395,0,0,1,1.193,3.352v5.18A2.212,2.212,0,0,0,655.26,556.361Zm-3.461-1.053v-2.445h-1.1q-2.69,0-2.69,2.081a1.946,1.946,0,0,0,.41,1.319,1.476,1.476,0,0,0,1.181.473A2.434,2.434,0,0,0,651.8,555.308Z" transform="translate(-630.007 -542.068)" fill="#545454"/>
      <path id="Path_27" data-name="Path 27" d="M686.367,550.966a10.9,10.9,0,0,1-1.555,2.965,5.305,5.305,0,0,1-2.034,1.6,10.179,10.179,0,0,1-2.981.714l-.468-2.421a6.311,6.311,0,0,0,2.385-.762,3.82,3.82,0,0,0,1.356-1.682h-1.122l-5-12.272h3.531l3.624,10.239,3.18-10.239h3.484Z" transform="translate(-644.725 -539.106)" fill="#545454"/>
      <path id="Path_28" data-name="Path 28" d="M714.91,547.381a9.286,9.286,0,0,1,1.134,5,9.894,9.894,0,0,1-.585,3.51,5.5,5.5,0,0,1-1.695,2.432,4.1,4.1,0,0,1-2.631.884,3.82,3.82,0,0,1-3.063-1.38v5.93l-3.321.388V545.989h2.923l.163,1.5a4.625,4.625,0,0,1,1.648-1.416,4.327,4.327,0,0,1,1.953-.472A3.832,3.832,0,0,1,714.91,547.381Zm-2.326,5.022a7.272,7.272,0,0,0-.538-3.292,1.758,1.758,0,0,0-1.637-.968,2.113,2.113,0,0,0-1.3.448,4.044,4.044,0,0,0-1.04,1.2v5.591a2.382,2.382,0,0,0,2.081,1.258Q712.584,556.639,712.585,552.4Z" transform="translate(-657.404 -542.068)" fill="#545454"/>
      <path id="Path_29" data-name="Path 29" d="M739.3,547.405a7.371,7.371,0,0,1,1.567,5,8.4,8.4,0,0,1-.714,3.571,5.455,5.455,0,0,1-2.057,2.383,5.817,5.817,0,0,1-3.168.848,5.489,5.489,0,0,1-4.361-1.8,7.335,7.335,0,0,1-1.578-5,8.393,8.393,0,0,1,.713-3.57,5.452,5.452,0,0,1,2.057-2.384,5.866,5.866,0,0,1,3.191-.847A5.456,5.456,0,0,1,739.3,547.405Zm-6.231,1.791a8.6,8.6,0,0,0,0,6.414,2.194,2.194,0,0,0,3.717,0,6.411,6.411,0,0,0,.62-3.208,6.52,6.52,0,0,0-.608-3.207,2.006,2.006,0,0,0-1.847-1.029A2.052,2.052,0,0,0,733.073,549.2Z" transform="translate(-668.458 -542.068)" fill="#545454"/>
      <path id="Path_30" data-name="Path 30" d="M766.153,546.314l-3.413,5.954,3.741,6.874H762.9l-2.876-5.615h-1.239v5.615h-3.32V546.314h3.32v5.035h1.31l2.783-5.035Z" transform="translate(-680.531 -542.393)" fill="#545454"/>
    </g>
    <path id="Path_31" data-name="Path 31" d="M577.887,577.251l-4.432-6.366s-6.794-1.153-11.474,1.5c-5.217-2.655-11.474-1.5-11.474-1.5l-4.432,6.366a1.006,1.006,0,0,0,.758,1.528h12.751a2.45,2.45,0,1,0,4.795,0h12.751A1.006,1.006,0,0,0,577.887,577.251Z" transform="translate(0 -24.014)" fill="#f48618"/>
    <path id="Path_32" data-name="Path 32" d="M577.169,535.6a10.852,10.852,0,0,0-7.732-10.121,4.395,4.395,0,1,0-6.209,0A10.851,10.851,0,0,0,555.5,535.6h-.015v7.82c1.708-.206,6.625-.555,10.852,1.594,3.836-2.171,9.073-1.794,10.852-1.587V535.6Z" transform="translate(-4.352)" fill="#ffba31"/>
    <g id="Group_4" data-name="Group 4" transform="translate(584.742 553.107)">
      <path id="Path_33" data-name="Path 33" d="M621.157,587.654a3.078,3.078,0,0,1,.585,1.981,3.565,3.565,0,0,1-.267,1.424,2.145,2.145,0,0,1-.771.956,2.1,2.1,0,0,1-1.2.34,2,2,0,0,1-1.647-.729,3.058,3.058,0,0,1-.591-1.982,3.554,3.554,0,0,1,.267-1.424,2.145,2.145,0,0,1,.771-.956,2.114,2.114,0,0,1,1.209-.341A1.987,1.987,0,0,1,621.157,587.654Zm-2.947,1.991q0,1.982,1.295,1.982t1.3-1.992q0-1.982-1.286-1.981Q618.209,587.654,618.21,589.645Z" transform="translate(-617.267 -584.549)" fill="#a8a8a8"/>
      <path id="Path_34" data-name="Path 34" d="M630.5,587.058a2.26,2.26,0,0,1,.714.429l-.429.591a1.987,1.987,0,0,0-.5-.306,1.52,1.52,0,0,0-.562-.1,1.08,1.08,0,0,0-.947.5,2.681,2.681,0,0,0-.338,1.489,2.529,2.529,0,0,0,.333,1.454,1.1,1.1,0,0,0,.952.468,1.442,1.442,0,0,0,.548-.1,2.231,2.231,0,0,0,.529-.325l.419.62a2.33,2.33,0,0,1-1.533.572,1.968,1.968,0,0,1-1.6-.71,2.994,2.994,0,0,1-.586-1.962,3.645,3.645,0,0,1,.267-1.449,2.212,2.212,0,0,1,.757-.966,1.975,1.975,0,0,1,1.167-.345A2.4,2.4,0,0,1,630.5,587.058Z" transform="translate(-621.928 -584.549)" fill="#a8a8a8"/>
      <path id="Path_35" data-name="Path 35" d="M640.13,589.8a1.217,1.217,0,0,1,.314.9,1.292,1.292,0,0,1-.576,1.158,2.76,2.76,0,0,1-1.538.38h-1.809v-5.126a7.964,7.964,0,0,1,1.647-.188,2.678,2.678,0,0,1,1.471.355,1.13,1.13,0,0,1,.548,1.006,1.087,1.087,0,0,1-.233.709,1.43,1.43,0,0,1-.786.424A1.551,1.551,0,0,1,640.13,589.8Zm-2.733-2.118v1.468h.895a1.309,1.309,0,0,0,.738-.177.671.671,0,0,0,.262-.6.628.628,0,0,0-.276-.572,1.575,1.575,0,0,0-.838-.178A5.057,5.057,0,0,0,637.4,587.684Zm1.758,3.681a.661.661,0,0,0,.366-.675.733.733,0,0,0-.3-.685,1.7,1.7,0,0,0-.867-.182H637.4v1.7h.791A2.411,2.411,0,0,0,639.155,591.365Z" transform="translate(-626.047 -584.549)" fill="#a8a8a8"/>
      <path id="Path_36" data-name="Path 36" d="M647.118,582.735a.611.611,0,0,1,.172.443.6.6,0,0,1-.172.439.6.6,0,0,1-.447.172.591.591,0,0,1-.438-.172.6.6,0,0,1-.172-.439.613.613,0,0,1,.172-.443.583.583,0,0,1,.438-.177A.594.594,0,0,1,647.118,582.735Zm-.875,7.512v-5.195h.875v5.195Z" transform="translate(-630.397 -582.558)" fill="#a8a8a8"/>
      <path id="Path_37" data-name="Path 37" d="M652.288,587.882v4.456h-.876v-4.456h-1.657v-.739H654l-.1.739Z" transform="translate(-632.082 -584.649)" fill="#a8a8a8"/>
      <path id="Path_38" data-name="Path 38" d="M660.1,590.051v2.287h-.875v-5.195h.875v2.178h2.086v-2.178h.876v5.195h-.876v-2.287Z" transform="translate(-636.399 -584.649)" fill="#a8a8a8"/>
      <path id="Path_39" data-name="Path 39" d="M670.328,582.735a.61.61,0,0,1,.171.443.6.6,0,0,1-.171.439.6.6,0,0,1-.448.172.592.592,0,0,1-.438-.172.6.6,0,0,1-.171-.439.615.615,0,0,1,.171-.443.584.584,0,0,1,.438-.177A.6.6,0,0,1,670.328,582.735Zm-.876,7.512v-5.195h.876v5.195Z" transform="translate(-640.98 -582.558)" fill="#a8a8a8"/>
      <path id="Path_40" data-name="Path 40" d="M677.578,590.305v-2.346q0-.591.038-1.124t.067-.7l-2.086,4.17H674.54V585.11h.867v2.346q0,.522-.038,1.079c-.026.371-.045.61-.057.714l2.056-4.139h1.077v5.195Zm-2.081-6.65a1.187,1.187,0,0,1-.452-.843l.581-.128a.8.8,0,0,0,.3.454.971.971,0,0,0,.547.138,1.007,1.007,0,0,0,.562-.143.792.792,0,0,0,.314-.448l.581.128a1.175,1.175,0,0,1-.462.843,1.584,1.584,0,0,1-.995.311A1.529,1.529,0,0,1,675.5,583.656Z" transform="translate(-643.383 -582.616)" fill="#a8a8a8"/>
      <path id="Path_41" data-name="Path 41" d="M690.557,587.882v4.456h-.875v-5.195h3.809v5.195h-.876v-4.456Z" transform="translate(-650.287 -584.649)" fill="#a8a8a8"/>
      <path id="Path_42" data-name="Path 42" d="M703.722,587.634a3.754,3.754,0,0,1,.448,2,3.42,3.42,0,0,1-.515,1.971,1.664,1.664,0,0,1-1.457.749,1.594,1.594,0,0,1-1.314-.591v2.464l-.876.109v-7.294h.752l.067.7a1.956,1.956,0,0,1,.666-.607,1.7,1.7,0,0,1,.819-.212A1.546,1.546,0,0,1,703.722,587.634Zm-.5,2q0-1.991-1.133-1.991a1.108,1.108,0,0,0-.676.226,2.22,2.22,0,0,0-.534.582v2.534a1.346,1.346,0,0,0,.477.468,1.249,1.249,0,0,0,.628.163Q703.226,591.617,703.226,589.635Z" transform="translate(-654.996 -584.549)" fill="#a8a8a8"/>
      <path id="Path_43" data-name="Path 43" d="M713.631,587.654a3.078,3.078,0,0,1,.585,1.981,3.564,3.564,0,0,1-.267,1.424,2.146,2.146,0,0,1-.771.956,2.1,2.1,0,0,1-1.2.34,2,2,0,0,1-1.647-.729,3.061,3.061,0,0,1-.591-1.982,3.554,3.554,0,0,1,.267-1.424,2.14,2.14,0,0,1,.771-.956,2.114,2.114,0,0,1,1.209-.341A1.987,1.987,0,0,1,713.631,587.654Zm-2.948,1.991q0,1.982,1.295,1.982t1.3-1.992q0-1.982-1.285-1.981Q710.684,587.654,710.684,589.645Z" transform="translate(-659.434 -584.549)" fill="#a8a8a8"/>
      <path id="Path_44" data-name="Path 44" d="M724.1,589.951h-3.2a2.069,2.069,0,0,0,.419,1.262,1.193,1.193,0,0,0,.933.4,1.972,1.972,0,0,0,.666-.109,2.659,2.659,0,0,0,.638-.344l.381.542a2.717,2.717,0,0,1-1.752.651,2,2,0,0,1-1.633-.71,2.976,2.976,0,0,1-.586-1.952,3.813,3.813,0,0,1,.252-1.434,2.234,2.234,0,0,1,.724-.981,1.794,1.794,0,0,1,1.109-.355,1.835,1.835,0,0,1,1.533.681,2.98,2.98,0,0,1,.533,1.883Q724.114,589.714,724.1,589.951Zm-.848-.73a1.977,1.977,0,0,0-.294-1.173,1.029,1.029,0,0,0-.886-.4q-1.076,0-1.171,1.636h2.351Z" transform="translate(-664.095 -584.549)" fill="#a8a8a8"/>
      <path id="Path_45" data-name="Path 45" d="M734.2,592.338h-1.038l-1.391-2.4h-.638v2.4h-.876v-5.195h.876v2.09h.657l1.266-2.09h.962l-1.523,2.405Z" transform="translate(-668.788 -584.649)" fill="#a8a8a8"/>
      <path id="Path_46" data-name="Path 46" d="M740.3,587.882v4.456h-.875v-4.456h-1.657v-.739h4.247l-.105.739Z" transform="translate(-672.212 -584.649)" fill="#a8a8a8"/>
    </g>
  </g>
</svg>
