<svg xmlns="http://www.w3.org/2000/svg" width="13.974" height="14.402" viewBox="0 0 13.974 14.402">
  <g id="иконка_поиск" data-name="иконка поиск" transform="translate(1447.34 -2028.367)">
    <g id="Group_29" data-name="Group 29">
      <path id="Path_88" data-name="Path 88" d="M-1441.42,2039.957a5.677,5.677,0,0,1-5.67-5.67,5.677,5.677,0,0,1,5.67-5.67,5.677,5.677,0,0,1,5.67,5.67A5.677,5.677,0,0,1-1441.42,2039.957Zm0-10.34a4.675,4.675,0,0,0-4.67,4.67,4.675,4.675,0,0,0,4.67,4.67,4.675,4.675,0,0,0,4.67-4.67A4.675,4.675,0,0,0-1441.42,2029.617Z" fill="#a8a8a8" stroke="#a8a8a8" stroke-width="0.5"/>
    </g>
    <g id="Group_31" data-name="Group 31">
      <g id="Group_30" data-name="Group 30">
        <path id="Path_89" data-name="Path 89" d="M-1438.231,2038.391l3.734,3.973c.441.47,1.148-.238.707-.707l-3.734-3.973c-.442-.47-1.148.238-.707.707Z" fill="#a8a8a8" stroke="#a8a8a8" stroke-width="0.5"/>
      </g>
    </g>
  </g>
</svg>
