<svg width="50" height="50" viewBox="0 0 50 50" fill="none" xmlns="http://www.w3.org/2000/svg">
<circle cx="25" cy="25" r="23" stroke="black" stroke-width="4"/>
<path d="M26.3125 37H21.2148V17.9805H26.3125V37ZM20.916 13.0586C20.916 12.2969 21.168 11.6699 21.6719 11.1777C22.1875 10.6855 22.8848 10.4395 23.7637 10.4395C24.6309 10.4395 25.3223 10.6855 25.8379 11.1777C26.3535 11.6699 26.6113 12.2969 26.6113 13.0586C26.6113 13.832 26.3477 14.4648 25.8203 14.957C25.3047 15.4492 24.6191 15.6953 23.7637 15.6953C22.9082 15.6953 22.2168 15.4492 21.6895 14.957C21.1738 14.4648 20.916 13.832 20.916 13.0586ZM30.7773 34.5039C30.7773 33.6953 31.0469 33.0391 31.5859 32.5352C32.1367 32.0312 32.8223 31.7793 33.6426 31.7793C34.4746 31.7793 35.1602 32.0312 35.6992 32.5352C36.25 33.0391 36.5254 33.6953 36.5254 34.5039C36.5254 35.3008 36.2559 35.9512 35.7168 36.4551C35.1777 36.9473 34.4863 37.1934 33.6426 37.1934C32.8105 37.1934 32.125 36.9473 31.5859 36.4551C31.0469 35.9512 30.7773 35.3008 30.7773 34.5039Z" fill="black"/>
</svg>
