<svg width="100" height="100" viewBox="0 0 100 100" fill="none" xmlns="http://www.w3.org/2000/svg">
<path d="M0.805969 77.9628C0.805969 81.713 3.84597 84.7379 7.58042 84.7379H92.3334C96.0835 84.7379 99.1084 81.6973 99.1084 77.9628V74.5678H0.805969V77.9628Z" fill="#DBDBDB"/>
<path d="M44.8797 84.753H55.0498V98.3181H44.8797V84.753Z" fill="#BCBEC0"/>
<path d="M26.2382 25.4165C26.2382 22.608 23.9541 20.3396 21.1606 20.3396V30.5091C23.9541 30.5091 26.2382 28.2251 26.2382 25.4165Z" fill="#E48E66"/>
<path d="M16.0681 15.247C16.0681 18.0556 18.3521 20.324 21.1456 20.324V10.1695C18.3365 10.1695 16.0681 12.4536 16.0681 15.247Z" fill="#CC7350"/>
<path d="M41.2073 16.9446C43.0899 28.0093 35.6518 38.5031 24.5865 40.3857C23.4604 40.5864 22.303 40.6793 21.1607 40.6793C10.7597 40.6943 2.02486 32.8396 0.929538 22.5152C0.852378 21.79 0.805961 21.0648 0.805961 20.3396C0.728801 20.7254 0.805961 23.3025 0.805961 23.7347V74.5835H49.9572V16.9446H41.2073Z" fill="#FFC67B"/>
<path d="M99.1084 23.7347C99.1084 19.9846 96.0684 16.9597 92.3334 16.9597V23.7347C92.3334 27.4848 89.2934 30.5092 85.5589 30.5092L75.3894 40.6793V30.5092H58.4292C54.679 30.5092 51.6547 27.4692 51.6547 23.7347V16.9446H49.9572V74.5678H99.1084V23.7347Z" fill="#FFD195"/>
<path d="M21.1456 40.6793V30.5091C18.3365 30.5091 16.0681 28.2251 16.0681 25.4322C16.0681 28.2407 18.3521 30.5091 21.1456 30.5091V20.3396C18.3365 20.3396 16.0681 18.0556 16.0681 15.2621C16.0681 12.4693 18.3365 10.1695 21.1456 10.1695V0C9.91091 0 0.805969 9.10494 0.805969 20.3396C0.805969 21.0648 0.836713 21.79 0.929547 22.5152C2.02486 32.8396 10.7597 40.6943 21.1456 40.6793Z" fill="#CC7350"/>
<path d="M21.1456 10.1695C23.9541 10.1695 26.2225 12.4536 26.2225 15.247C26.2382 12.4536 23.9541 10.1695 21.1456 10.1695V20.3396C23.9541 20.3396 26.2225 22.6237 26.2225 25.4165C26.2225 28.21 23.9384 30.4941 21.1456 30.4941V40.6636C32.3797 40.6636 41.4846 31.5586 41.4846 20.324C41.4846 9.08926 32.3797 0 21.1456 0V10.1695Z" fill="#E48E66"/>
<path d="M65.2193 15.247H92.3334V6.77445C92.3334 3.02493 89.2934 0 85.5589 0H58.4292C54.6947 0 51.6547 3.04 51.6547 6.77445V15.247H65.2193Z" fill="#88B337"/>
<path d="M82.1639 15.247H51.6547V23.719C51.6547 27.4691 54.6947 30.4941 58.4292 30.4941H75.3737V40.6636L85.5432 30.4941C89.2934 30.4941 92.3183 27.4535 92.3183 23.719V15.247H82.1639Z" fill="#88B337"/>
<path d="M80.4663 100H19.448C18.5065 100 17.7505 99.2441 17.7505 98.3025C17.7505 97.3609 18.5065 96.6049 19.448 96.6049H80.4663C81.4079 96.6049 82.1639 97.3609 82.1639 98.3025C82.1639 99.2441 81.4079 100 80.4663 100Z" fill="#BCBEC0"/>
<path d="M21.1456 22.0372C17.3954 22.0372 14.3705 18.9972 14.3705 15.2621C14.3705 11.5277 17.4105 8.47198 21.1456 8.47198C24.88 8.47198 27.92 11.5126 27.92 15.247C27.92 16.188 27.1641 16.9446 26.2225 16.9446C25.2809 16.9446 24.525 16.188 24.525 15.247C24.525 13.3795 23.0125 11.852 21.1299 11.852C19.2473 11.852 17.7348 13.3644 17.7348 15.247C17.7348 17.1296 19.2473 18.6421 21.1299 18.6421C22.0715 18.6421 22.8274 19.398 22.8274 20.3396C22.8431 21.2806 22.0866 22.0372 21.1456 22.0372Z" fill="white"/>
<path d="M21.1456 32.2067C17.3954 32.2067 14.3705 29.1667 14.3705 25.4322C14.3705 24.4906 15.127 23.7347 16.068 23.7347C17.0096 23.7347 17.7656 24.4906 17.7656 25.4322C17.7656 27.2991 19.278 28.8273 21.1606 28.8273C23.0432 28.8273 24.5557 27.3148 24.5557 25.4322C24.5557 23.5496 23.0432 22.0372 21.1606 22.0372C20.2196 22.0372 19.4631 21.2806 19.4631 20.3396C19.4631 19.398 20.2196 18.6421 21.1606 18.6421C24.9108 18.6421 27.9357 21.6821 27.9357 25.4165C27.9357 29.151 24.8951 32.2067 21.1456 32.2067Z" fill="white"/>
<path d="M19.4481 6.77444H22.8431V33.8891H19.4481V6.77444Z" fill="white"/>
<path d="M65.2193 16.9446H61.8242C60.8832 16.9446 60.1267 16.188 60.1267 15.247C60.1267 14.3054 60.8832 13.5495 61.8242 13.5495H65.2193C66.1609 13.5495 66.9168 14.3054 66.9168 15.247C66.9168 16.188 66.1452 16.9446 65.2193 16.9446Z" fill="white"/>
<path d="M73.6919 16.9446H70.2968C69.3552 16.9446 68.5993 16.188 68.5993 15.247C68.5993 14.3054 69.3552 13.5495 70.2968 13.5495H73.6919C74.6329 13.5495 75.3894 14.3054 75.3894 15.247C75.3894 16.188 74.6329 16.9446 73.6919 16.9446Z" fill="white"/>
<path d="M82.1639 16.9446H78.7688C77.8272 16.9446 77.0713 16.188 77.0713 15.247C77.0713 14.3054 77.8272 13.5495 78.7688 13.5495H82.1639C83.1055 13.5495 83.8614 14.3054 83.8614 15.247C83.8614 16.188 83.1055 16.9446 82.1639 16.9446Z" fill="white"/>
<path d="M83.8614 57.6232H53.3523C52.4107 57.6232 51.6547 56.8673 51.6547 55.9257C51.6547 54.9847 52.4107 54.2281 53.3523 54.2281H83.8614C84.803 54.2281 85.5589 54.9847 85.5589 55.9257C85.5589 56.8673 84.803 57.6232 83.8614 57.6232Z" fill="white"/>
<path d="M83.8614 64.4133H53.3523C52.4107 64.4133 51.6547 63.6574 51.6547 62.7158C51.6547 61.7748 52.4107 61.0183 53.3523 61.0183H83.8614C84.803 61.0183 85.5589 61.7748 85.5589 62.7158C85.5589 63.6574 84.803 64.4133 83.8614 64.4133Z" fill="white"/>
<path d="M60.1267 50.8488H53.3523C52.4107 50.8488 51.6547 50.0928 51.6547 49.1512C51.6547 48.2096 52.4107 47.4537 53.3523 47.4537H60.1267C61.0683 47.4537 61.8242 48.2096 61.8242 49.1512C61.8242 50.0928 61.0683 50.8488 60.1267 50.8488Z" fill="white"/>
<path d="M83.8614 50.8488H66.9168C65.9758 50.8488 65.2193 50.0928 65.2193 49.1512C65.2193 48.2096 65.9758 47.4537 66.9168 47.4537H83.8614C84.803 47.4537 85.5589 48.2096 85.5589 49.1512C85.5589 50.0928 84.803 50.8488 83.8614 50.8488Z" fill="white"/>
<path d="M17.7656 69.4909H7.59609C6.65449 69.4909 5.89856 68.7343 5.89856 67.7933V57.6232C5.89856 56.6822 6.65449 55.9257 7.59609 55.9257C8.53709 55.9257 9.29362 56.6822 9.29362 57.6232V66.0958H17.7656C18.7072 66.0958 19.4631 66.8517 19.4631 67.7933C19.4631 68.7343 18.6915 69.4909 17.7656 69.4909Z" fill="white"/>
</svg>
