<svg width="100" height="100" viewBox="0 0 100 100" fill="none" xmlns="http://www.w3.org/2000/svg">
<path d="M80 70.8332C86.4433 70.8332 91.6666 65.6099 91.6666 59.1666C91.6666 52.7233 86.4433 47.5 80 47.5C73.5567 47.5 68.3334 52.7233 68.3334 59.1666C68.3334 65.6099 73.5567 70.8332 80 70.8332Z" fill="#FDB62F"/>
<path d="M51.6668 12.5H48.3334V44.1666H51.6668V12.5Z" fill="#6B962A"/>
<path d="M50 12.5H46.6666C40.2232 12.5 35 7.27676 35 0.833405H38.3334C44.7768 0.833405 50 6.05665 50 12.5Z" fill="#88B337"/>
<path d="M58.3334 50.8334H35V57.5H58.3334V50.8334Z" fill="#FFA83D"/>
<path d="M61.6668 57.5H38.3334V64.1666H61.6668V57.5Z" fill="#FDB62F"/>
<path d="M58.3334 64.1666H35V70.8332H58.3334V64.1666Z" fill="#FFA83D"/>
<path d="M61.6668 70.8334H38.3334V77.5H61.6668V70.8334Z" fill="#FDB62F"/>
<path d="M61.6668 77.5H38.3334V84.1666H61.6668V77.5Z" fill="#FFA83D"/>
<path d="M65 84.1666H41.6666V90.8332H65V84.1666Z" fill="#FDB62F"/>
<path d="M61.6668 90.8334H38.3334V97.5H61.6668V90.8334Z" fill="#FFA83D"/>
<path d="M30 17.5H33.3334C42.5385 17.5 50 24.9617 50 34.1666H46.6666C37.4617 34.1666 30 26.7051 30 17.5Z" fill="#88B337"/>
<path d="M65 0.833405H61.6666C55.2232 0.833405 50 6.05665 50 12.5H53.3334C59.7768 12.5 65 7.27676 65 0.833405Z" fill="#6B962A"/>
<path d="M53.3334 34.1666H50C50 24.9615 57.4617 17.5 66.6666 17.5H70C70 26.7051 62.5383 34.1666 53.3334 34.1666Z" fill="#6B962A"/>
<path d="M28.3334 64.1666H5V70.8332H28.3334V64.1666Z" fill="#FDB62F"/>
<path d="M28.3334 70.8334H5V77.5H28.3334V70.8334Z" fill="#FFA83D"/>
<path d="M31.6668 77.5H8.3334V84.1666H31.6668V77.5Z" fill="#FDB62F"/>
<path d="M28.3334 84.1666H5V90.8332H28.3334V84.1666Z" fill="#FFA83D"/>
<path d="M31.6668 90.8334H8.3334V97.5H31.6668V90.8334Z" fill="#FDB62F"/>
<path d="M91.6668 70.8334H68.3334V77.5H91.6668V70.8334Z" fill="#FDB62F"/>
<path d="M95 77.5H71.6666V84.1666H95V77.5Z" fill="#FFA83D"/>
<path d="M95 84.1666H71.6666V90.8332H95V84.1666Z" fill="#FDB62F"/>
<path d="M95 90.8334H71.6666V97.5H95V90.8334Z" fill="#FFA83D"/>
<path d="M80 65.8332C83.6819 65.8332 86.6666 62.8485 86.6666 59.1666C86.6666 55.4847 83.6819 52.5 80 52.5C76.3182 52.5 73.3334 55.4847 73.3334 59.1666C73.3334 62.8485 76.3182 65.8332 80 65.8332Z" fill="#FFA83D"/>
<path d="M80 65.8334V62.5C81.8416 62.5 83.3334 61.0084 83.3334 59.1666H86.6668C86.6666 62.8483 83.6816 65.8334 80 65.8334Z" fill="#FD7B2F"/>
<path d="M76.6666 59.1666H73.3332C73.3332 55.485 76.3181 52.5 79.9998 52.5V55.8334C78.1584 55.8334 76.6666 57.325 76.6666 59.1666Z" fill="#FD7B2F"/>
<path d="M83.3334 17.5C82.7668 14.0801 80.0867 11.4 76.6668 10.8334C80.0867 10.2668 82.7668 7.58673 83.3334 4.16681C83.9 7.58673 86.5801 10.2668 90 10.8334C86.5801 11.4 83.9 14.0801 83.3334 17.5Z" fill="#FDB62F"/>
<path d="M16.6666 54.1666C16.1 50.7467 13.4199 48.0666 10 47.5C13.4199 46.9334 16.1 44.2533 16.6666 40.8334C17.2332 44.2533 19.9133 46.9334 23.3332 47.5C19.9133 48.0666 17.2334 50.7467 16.6666 54.1666Z" fill="#FDB62F"/>
<path d="M61.6668 44.1666H38.3334V50.8332H61.6668V44.1666Z" fill="#FDB62F"/>
<path d="M100 39.1666H95V34.1666H91.6666V39.1666H86.6666V42.5H91.6666V47.5H95V42.5H100V39.1666Z" fill="#FDB62F"/>
<path d="M100 95.8334H0V99.1668H100V95.8334Z" fill="#DBDBDB"/>
<path d="M33.3334 39.1666C27.8102 39.1666 23.3334 34.6898 23.3334 29.1666V27.5H26.6668V29.1666C26.6668 32.8482 29.6518 35.8332 33.3334 35.8332V39.1666Z" fill="#DBDBDB"/>
</svg>
