<svg width="100" height="100" viewBox="0 0 100 100" fill="none" xmlns="http://www.w3.org/2000/svg">
<path d="M96.7188 89.22V96.5948H77.5904V91.0211L77.602 91.0327L87.1894 81.7084L92.6624 83.562C95.0873 84.3835 96.7194 86.6595 96.7188 89.22Z" fill="#CC7350"/>
<path d="M72.5861 76.7121C71.1011 76.0669 69.7724 75.1074 68.6914 73.9014C66.6486 71.6419 65.5085 68.7079 65.4889 65.6616V65.6439C65.4572 65.6378 65.4261 65.6317 65.3961 65.6244C64.0833 65.3497 63.1427 64.1925 63.1427 62.8509C63.1421 62.6221 63.1696 62.395 63.2251 62.1728C63.4424 61.2738 64.2133 60.6177 65.1349 60.5462L65.1032 59.1339L65.4889 59.5184C66.0596 60.0885 66.9263 60.238 67.6545 59.8913C68.0439 59.7082 68.3588 59.3982 68.5474 59.0112C68.7775 58.5327 69.2047 58.1262 69.6979 58.0987C71.7603 57.9834 75.4358 57.7966 79.0394 55.2801C81.8842 58.255 85.8216 59.9383 89.9378 59.9389H90.0703L90.0684 60.5462C90.9901 60.6189 91.7603 61.275 91.9789 62.1728C92.1662 62.9358 92.0289 63.7421 91.6004 64.4C91.1707 65.0574 90.4884 65.5078 89.7151 65.6439V65.6616C89.7151 70.4291 86.7927 74.9256 82.6173 76.7108C81.377 77.2455 80.0403 77.5214 78.6896 77.5232H76.5137C75.1636 77.5214 73.827 77.2461 72.5861 76.7121Z" fill="#F7CAA5"/>
<path d="M91.3825 71.1554C91.8494 73.4192 91.2861 75.774 89.8432 77.5806C88.4003 79.386 86.2293 80.4572 83.9179 80.503L83.8892 80.5897L82.6172 80.1575V76.7109C86.7926 74.9256 89.715 70.4291 89.715 65.6616V65.6439C89.8859 65.6134 90.0544 65.5676 90.2167 65.5066L91.3825 71.1554Z" fill="#4B5D63"/>
<path d="M79.0393 55.2801C75.4358 57.7966 71.7603 57.9834 69.6979 58.0987C69.2047 58.1262 68.7775 58.5327 68.5474 59.0112C68.3588 59.3982 68.0438 59.7082 67.6544 59.8913C66.9263 60.238 66.0596 60.0885 65.4889 59.5184L65.1032 59.1339L65.0904 54.8511C65.0501 50.3497 67.4335 46.1731 71.33 43.9184C75.2258 41.6644 80.0342 41.6797 83.9166 43.9581C87.7991 46.2372 90.1569 50.4272 90.0879 54.9286L90.0702 59.939H89.9377C85.8215 59.9383 81.8842 58.255 79.0393 55.2801Z" fill="#4B5D63"/>
<path d="M84.6857 80.8588L87.1894 81.7084L77.602 91.0328L77.5904 91.0212V85.1477L77.602 85.1593L82.6172 80.1575L83.8892 80.5896L84.6857 80.8588Z" fill="#E2D574"/>
<path d="M77.5904 85.1477L72.5861 80.1575V76.712C73.8269 77.2461 75.1636 77.5214 76.5137 77.5232H78.6896C80.0403 77.5214 81.377 77.2455 82.6173 76.7108V80.1575L77.602 85.1593L77.5904 85.1477Z" fill="#EDB288"/>
<path d="M77.5903 91.0211V96.5948H58.4851V89.22C58.4839 86.6595 60.116 84.3835 62.5415 83.562L68.0115 81.7084L77.5903 91.0211Z" fill="#E48E66"/>
<path d="M70.8185 80.7574L72.5861 80.1575L77.5904 85.1477V91.0211L68.0115 81.7084L70.8185 80.7574Z" fill="#F8EC7D"/>
<path d="M72.5861 76.712V80.1574L70.8185 80.7574C70.8082 80.755 70.7966 80.7532 70.7856 80.7532C68.4998 80.5499 66.4215 79.3475 65.1062 77.4682C63.7909 75.5884 63.3728 73.2239 63.9649 71.0071L65.3961 65.6244C65.4261 65.6317 65.4572 65.6378 65.4889 65.6439V65.6616C65.5085 68.7079 66.6486 71.6418 68.6914 73.9014C69.7724 75.1074 71.1011 76.0669 72.5861 76.712Z" fill="#4B5D63"/>
<path d="M65.0355 15.7983V41.3153H34.6527V15.9412L34.5843 15.849L49.8438 4.73938L64.6058 15.4858L65.0355 15.7983Z" fill="#F8EC7D"/>
<path d="M41.2036 90.3778V96.5948H2.96874V90.3778C2.96569 89.9109 3.01512 89.4458 3.11766 88.9892C3.13659 88.9075 3.15673 88.8251 3.17992 88.7451C3.77684 86.6522 5.38512 84.9994 7.46093 84.3451L16.568 81.3922C20.0116 83.255 24.1626 83.255 27.6056 81.3922L36.7115 84.3451C38.7873 84.9994 40.3961 86.6522 40.9943 88.7451C41.0157 88.8251 41.037 88.9075 41.0547 88.9892C41.1579 89.4446 41.2079 89.9109 41.2036 90.3778Z" fill="#E48E66"/>
<path d="M16.5784 76.3977C13.5297 74.74 11.3879 71.7987 10.7465 68.3874L10.1056 66.1829V66.1652C9.25843 66.0144 8.51075 65.5188 8.04078 64.798C7.5702 64.0771 7.41822 63.1934 7.62147 62.3566C7.8595 61.3745 8.69996 60.6555 9.70704 60.5737V60.6464C9.96094 60.7977 10.2509 60.8783 10.5469 60.8783C11.4349 60.8783 12.1668 60.18 12.207 59.292L12.4127 54.7961C13.8733 54.845 15.3363 54.8071 16.7932 54.6844C23.891 61.0095 34.4708 60.6012 34.4708 60.6012V60.5737C35.4761 60.6573 36.3147 61.3763 36.5509 62.3566C36.7566 63.1934 36.6058 64.0778 36.1359 64.7998C35.6653 65.5212 34.917 66.0156 34.0686 66.1652V66.1829L33.4259 68.3874C32.7447 72.0129 30.3711 75.0946 27.0398 76.6784C23.7079 78.2623 19.8199 78.1579 16.5784 76.3977Z" fill="#F7CAA5"/>
<path d="M34.4709 60.5737V60.6012C34.4709 60.6012 23.891 61.0095 16.7932 54.6845C19.0393 54.5191 21.2659 54.1461 23.4436 53.57C23.4436 53.57 26.9361 58.0621 34.4709 58.548V60.5737Z" fill="#3F4D51"/>
<path d="M23.4436 53.5699C21.2659 54.1461 19.0393 54.519 16.7932 54.6844C15.3363 54.8071 13.8733 54.845 12.4127 54.7961L12.207 59.292C12.1667 60.1801 11.4349 60.8783 10.5469 60.8783C10.2508 60.8783 9.96093 60.7977 9.70702 60.6464V54.2761C9.65148 49.8163 11.9989 45.6695 15.8527 43.4234C19.707 41.1767 24.4714 41.1767 28.3252 43.4234C32.1796 45.6695 34.527 49.8163 34.4708 54.2761V58.548C26.936 58.0621 23.4436 53.5699 23.4436 53.5699Z" fill="#4B5D63"/>
<path d="M27.594 81.3879L27.6056 81.3922C24.1626 83.255 20.0116 83.255 16.568 81.3922L16.5784 81.3879V76.3977C20.0134 78.2623 24.1589 78.2623 27.594 76.3977V81.3879Z" fill="#EDB288"/>
<path d="M81.5216 93.7732H80.3284C79.6808 93.7732 79.1565 93.2483 79.1565 92.6013C79.1565 91.9531 79.6808 91.4294 80.3284 91.4294H81.5216C82.1686 91.4294 82.6935 91.9531 82.6935 92.6013C82.6935 93.2483 82.1686 93.7732 81.5216 93.7732Z" fill="#F8EC7D"/>
<path d="M28.36 21.5521C27.8528 21.5521 27.403 21.2255 27.2455 20.7428C27.0886 20.2606 27.2595 19.7314 27.6697 19.4329L49.1541 3.79208C49.5654 3.49301 50.1221 3.49301 50.5335 3.79208L72.0178 19.4329C72.3603 19.6777 72.5452 20.0872 72.5019 20.5065C72.4579 20.9253 72.1942 21.2884 71.8091 21.4575C71.4234 21.6278 70.9766 21.5777 70.6385 21.3275L49.8438 6.18893L29.0491 21.3275C28.8495 21.474 28.6084 21.5521 28.36 21.5521Z" fill="#E2D574"/>
<path d="M49.8438 25.4175C48.4784 25.4175 47.3712 24.3103 47.3712 22.9449C47.3712 21.579 48.4784 20.4718 49.8438 20.4718C51.2097 20.4718 52.3163 21.579 52.3163 22.9449C52.3163 23.5919 52.8412 24.1168 53.4882 24.1168C54.1352 24.1168 54.6601 23.5919 54.6601 22.9449C54.657 20.7367 53.1568 18.8129 51.0157 18.2733V17.2986C51.0157 16.6516 50.4914 16.1267 49.8438 16.1267C49.1968 16.1267 48.6719 16.6516 48.6719 17.2986V18.2733C46.3129 18.8647 44.765 21.1212 45.0635 23.5352C45.3613 25.9491 47.4121 27.7612 49.8438 27.7612C51.2006 27.7698 52.2968 28.8702 52.2998 30.2271C52.3029 31.5833 51.2116 32.6892 49.8554 32.7033C49.8517 32.7033 49.8474 32.7033 49.8438 32.7033C49.8401 32.7033 49.8365 32.7033 49.8322 32.7033C48.4729 32.6965 47.3743 31.5936 47.3718 30.2338C47.3718 29.5862 46.8469 29.0619 46.2 29.0619C45.5524 29.0619 45.0281 29.5862 45.0281 30.2338C45.0311 32.4408 46.532 34.3634 48.6719 34.903V36.0461C48.6719 36.6937 49.1968 37.218 49.8438 37.218C50.4914 37.218 51.0157 36.6937 51.0157 36.0461V34.903C53.3747 34.3127 54.9225 32.0557 54.6247 29.6417C54.3268 27.2284 52.276 25.4169 49.8438 25.4175Z" fill="#E48E66"/>
</svg>
