<svg width="50" height="50" viewBox="0 0 50 50" fill="none" xmlns="http://www.w3.org/2000/svg">
<g clip-path="url(#clip0)">
<path d="M24.9997 49.9999C38.8067 49.9999 49.9994 38.8071 49.9994 25.0002C49.9994 11.1932 38.8067 0.000488281 24.9997 0.000488281C11.1928 0.000488281 3.05176e-05 11.1932 3.05176e-05 25.0002C3.05176e-05 38.8071 11.1928 49.9999 24.9997 49.9999Z" fill="#41B4E6"/>
<path d="M50 25C50 24.3908 48.5502 23.9594 48.5074 23.361L38.1462 13L9.00009 24.4647L20.1516 35.6163L20.2978 36.1429L20.4872 35.952L20.488 35.9527L20.2978 36.1429L33 48.5C42.5 46 50 35.6113 50 25Z" fill="#0091C8"/>
<path d="M21.1452 28.8145L32.4432 37.3444L38.1462 13L9.00003 24.4648L17.8689 27.4023L34.0547 16.5453L21.1452 28.8145Z" fill="white"/>
<path d="M17.8689 27.4024L20.2979 36.1431L21.1452 28.8145L34.0547 16.5454L17.8689 27.4024Z" fill="#D2D2D7"/>
<path d="M24.8171 31.5867L20.2979 36.143L21.1452 28.8145L24.8171 31.5867Z" fill="#B9B9BE"/>
</g>
<defs>
<clipPath id="clip0">
<rect x="3.05176e-05" width="50" height="50" fill="white"/>
</clipPath>
</defs>
</svg>
