<svg width="50" height="50" viewBox="0 0 50 50" fill="none" xmlns="http://www.w3.org/2000/svg">
<g clip-path="url(#clip0)">
<path d="M25 50C38.8072 50 50 38.8071 50 25C50 11.1929 38.8072 0 25 0C11.1929 0 3.05176e-05 11.1929 3.05176e-05 25C3.05176e-05 38.8071 11.1929 50 25 50Z" fill="#6F3FAA"/>
<path d="M35.8458 13.715C29.7607 12.2453 23.6647 10.5261 17.4242 12.7103C13.3838 14.2254 13.3838 18.6026 13.5522 22.3063C13.5522 23.3163 12.3737 24.6632 12.8787 25.8416C13.8888 29.2086 14.7306 32.5756 18.2659 34.2591C18.771 34.5958 18.2659 35.2692 18.6027 35.7743C18.4343 35.7743 18.0976 35.9426 18.0976 36.111C18.0976 36.9179 18.4597 38.1522 18.2192 38.9479L28.9619 49.6862C40.0059 47.9274 48.6375 38.9373 49.852 27.7212L35.8458 13.715Z" fill="#512D84"/>
<path d="M38.2253 17.5704L38.2171 17.5374C37.5491 14.8369 34.5376 11.9392 31.772 11.3364L31.7408 11.3299C27.2676 10.4766 22.7319 10.4766 18.2597 11.3299L18.2275 11.3364C15.4629 11.9392 12.4513 14.8371 11.7824 17.5374L11.775 17.5704C10.9492 21.3416 10.9492 25.1662 11.775 28.9374L11.7824 28.9704C12.4229 31.5555 15.2101 34.3202 17.8725 35.0804V38.0949C17.8725 39.186 19.2021 39.7218 19.9581 38.9344L23.0123 35.7597C23.6748 35.7967 24.3376 35.8174 25.0002 35.8174C27.2519 35.8174 29.5046 35.6044 31.7407 35.1779L31.7719 35.1714C34.5375 34.5686 37.549 31.6708 38.217 28.9705L38.2252 28.9375C39.051 25.1662 39.051 21.3417 38.2253 17.5704ZM35.8082 28.3906C35.3622 30.1524 33.0757 32.3426 31.2589 32.7473C28.8805 33.1997 26.4831 33.3929 24.0882 33.3266C24.0405 33.3252 23.9947 33.3438 23.9616 33.378C23.6217 33.7268 21.7316 35.6672 21.7316 35.6672L19.3598 38.1016C19.1863 38.2825 18.8816 38.1593 18.8816 37.9098V32.9161C18.8816 32.8335 18.8228 32.7635 18.7417 32.7475C18.7412 32.7473 18.7408 32.7473 18.7403 32.7472C16.9235 32.3425 14.6378 30.1523 14.191 28.3905C13.4478 24.9817 13.4478 21.526 14.191 18.1172C14.6378 16.3554 16.9235 14.1652 18.7403 13.7605C22.8942 12.9705 27.106 12.9705 31.259 13.7605C33.0767 14.1652 35.3623 16.3554 35.8083 18.1172C36.5524 21.5261 36.5523 24.9818 35.8082 28.3906Z" fill="white"/>
<path d="M28.9521 30.6958C28.6728 30.611 28.4067 30.554 28.1594 30.4516C25.5978 29.3888 23.2403 28.0177 21.373 25.9161C20.3111 24.7209 19.48 23.3716 18.7774 21.9437C18.4442 21.2665 18.1635 20.5629 17.8772 19.8637C17.6163 19.2262 18.0007 18.5676 18.4054 18.0871C18.7852 17.6363 19.2739 17.2913 19.8032 17.0369C20.2163 16.8385 20.6237 16.953 20.9255 17.3031C21.5776 18.0601 22.1769 18.8558 22.6618 19.7333C22.9602 20.2731 22.8783 20.9328 22.3376 21.3001C22.2062 21.3894 22.0864 21.4943 21.9641 21.5951C21.8566 21.6834 21.7557 21.7727 21.682 21.8923C21.5476 22.1112 21.5411 22.3695 21.6276 22.6075C22.2943 24.4396 23.4181 25.8644 25.2623 26.6319C25.5574 26.7546 25.8537 26.8975 26.1937 26.8579C26.7631 26.7914 26.9475 26.1668 27.3465 25.8406C27.7364 25.5217 28.2349 25.5175 28.6549 25.7833C29.0751 26.0494 29.4823 26.3347 29.8872 26.6233C30.2847 26.9065 30.6803 27.1833 31.0468 27.5063C31.3993 27.8167 31.5207 28.224 31.3222 28.6452C30.9589 29.4167 30.4301 30.0584 29.6675 30.4682C29.4521 30.5836 29.1949 30.621 28.9521 30.6958C28.6728 30.611 29.1949 30.621 28.9521 30.6958Z" fill="white"/>
<path d="M25.0069 16.1546C28.3574 16.2486 31.1095 18.4721 31.6992 21.7846C31.7997 22.3491 31.8354 22.926 31.8802 23.499C31.899 23.7399 31.7625 23.9688 31.5025 23.972C31.234 23.9752 31.1132 23.7504 31.0956 23.5097C31.0611 23.033 31.0372 22.554 30.9715 22.0813C30.6247 19.5853 28.6345 17.5204 26.1501 17.0773C25.7762 17.0106 25.3937 16.9931 25.0149 16.9534C24.7756 16.9283 24.4621 16.9138 24.4091 16.6162C24.3646 16.3667 24.5752 16.168 24.8128 16.1552C24.8771 16.1514 24.9421 16.1544 25.0069 16.1546C28.3576 16.2486 24.9421 16.1544 25.0069 16.1546Z" fill="white"/>
<path d="M30.0988 22.7555C30.0933 22.7974 30.0904 22.8957 30.0658 22.9883C29.9769 23.3246 29.4668 23.3667 29.3495 23.0274C29.3146 22.9267 29.3095 22.812 29.3093 22.7036C29.3081 21.9941 29.1539 21.2851 28.796 20.6676C28.4281 20.0329 27.866 19.4996 27.2069 19.1767C26.8083 18.9816 26.3773 18.8602 25.9404 18.788C25.7495 18.7564 25.5565 18.7373 25.3646 18.7106C25.1321 18.6782 25.0079 18.5301 25.019 18.301C25.0293 18.0864 25.1862 17.9318 25.4202 17.9451C26.1891 17.9887 26.9318 18.1551 27.6155 18.517C29.0056 19.2532 29.7997 20.4152 30.0315 21.9668C30.042 22.0372 30.0588 22.1068 30.0642 22.1773C30.0772 22.3513 30.0855 22.5256 30.0988 22.7555C30.0933 22.7972 30.0855 22.5256 30.0988 22.7555Z" fill="white"/>
<path d="M28.0148 22.6744C27.7346 22.6795 27.5846 22.5242 27.5556 22.2674C27.5355 22.0883 27.5195 21.9066 27.4768 21.7322C27.3926 21.3888 27.2101 21.0706 26.9212 20.8601C26.7849 20.7608 26.6303 20.6885 26.4685 20.6416C26.2629 20.5821 26.0492 20.5985 25.8442 20.5483C25.6215 20.4937 25.4983 20.3133 25.5333 20.1044C25.5651 19.9141 25.7501 19.7657 25.958 19.7808C27.257 19.8746 28.1854 20.5462 28.318 22.0755C28.3274 22.1834 28.3384 22.2974 28.3144 22.4008C28.2732 22.5772 28.1424 22.6658 28.0148 22.6744C27.7345 22.6794 28.1424 22.6658 28.0148 22.6744Z" fill="white"/>
<path d="M38.2253 17.5707L38.2171 17.5377C37.8427 16.0239 36.7316 14.4483 35.3404 13.2495L33.4596 14.9163C34.578 15.8074 35.5362 17.0419 35.8084 18.1175C36.5526 21.5264 36.5526 24.9819 35.8084 28.3909C35.3624 30.1527 33.0758 32.343 31.2591 32.7477C28.8807 33.2 26.4833 33.3933 24.0884 33.327C24.0408 33.3256 23.995 33.3441 23.9618 33.3783C23.6219 33.7271 21.7319 35.6676 21.7319 35.6676L19.36 38.102C19.1866 38.2828 18.8819 38.1599 18.8819 37.9102V32.9164C18.8819 32.8339 18.823 32.7639 18.7419 32.7479C18.7414 32.7479 18.741 32.7477 18.7406 32.7477C17.708 32.5177 16.5245 31.7107 15.6128 30.7339L13.7544 32.3807C14.9151 33.6433 16.412 34.664 17.8724 35.081V38.0954C17.8724 39.1865 19.202 39.7224 19.958 38.935L23.0122 35.7603C23.6747 35.7973 24.3373 35.818 25.0001 35.818C27.2518 35.818 29.5045 35.605 31.7407 35.1784L31.7718 35.1721C34.5374 34.5692 37.549 31.6716 38.2169 28.9711L38.2251 28.9381C39.051 25.1665 39.051 21.3421 38.2253 17.5707Z" fill="#D1D1D1"/>
<path d="M28.9522 30.6957C29.195 30.6209 28.6729 30.6108 28.9522 30.6957V30.6957Z" fill="white"/>
<path d="M31.047 27.5062C30.6805 27.1834 30.2847 26.9063 29.8874 26.6231C29.4826 26.3346 29.0753 26.0492 28.6551 25.7832C28.2351 25.5174 27.7368 25.5216 27.3467 25.8404C26.9477 26.1667 26.7634 26.7913 26.194 26.8578C25.854 26.8974 25.5576 26.7544 25.2625 26.6317C24.1279 26.1597 23.2669 25.4378 22.6162 24.5264L21.2334 25.752C21.2804 25.8063 21.3252 25.8622 21.373 25.9159C23.2404 28.0176 25.5979 29.3887 28.1593 30.4515C28.4065 30.554 28.6728 30.611 28.9521 30.6957C28.6728 30.6108 29.1951 30.621 28.9521 30.6957C29.1951 30.621 29.4521 30.5834 29.6676 30.468C30.4304 30.0582 30.959 29.4164 31.3223 28.6449C31.5209 28.2238 31.3995 27.8166 31.047 27.5062Z" fill="#D1D1D1"/>
<path d="M25.0155 16.1561C25.0127 16.1561 25.01 16.1558 25.0071 16.1558C25.0044 16.1556 25.0079 16.1558 25.0155 16.1561Z" fill="white"/>
<path d="M25.0072 16.1548C25.01 16.1548 25.0128 16.1551 25.0156 16.1551C25.2015 16.1617 28.2258 16.245 25.0072 16.1548Z" fill="white"/>
<path d="M29.813 18.1484L29.2235 18.671C30.1499 19.5724 30.7888 20.767 30.9714 22.0816C31.037 22.5545 31.0612 23.0333 31.0956 23.5101C31.1131 23.751 31.2338 23.9757 31.5026 23.9726C31.7626 23.9693 31.8991 23.7405 31.8802 23.4995C31.8354 22.9267 31.7997 22.3495 31.6992 21.7852C31.4411 20.3352 30.7686 19.0938 29.813 18.1484Z" fill="#D1D1D1"/>
<path d="M30.0314 21.9672C29.8625 20.8365 29.3935 19.9139 28.6144 19.2109L28.0265 19.7319C28.3305 20.0018 28.5935 20.3187 28.796 20.6682C29.1539 21.2856 29.3081 21.9946 29.3093 22.7042C29.3095 22.8126 29.3147 22.9272 29.3495 23.0281C29.467 23.3677 29.977 23.3256 30.0658 22.9891C30.0905 22.8963 30.0933 22.798 30.0989 22.7563C30.0933 22.7981 30.0854 22.5265 30.0989 22.7563C30.0854 22.5265 30.0772 22.3521 30.064 22.1778C30.0588 22.107 30.0419 22.0375 30.0314 21.9672Z" fill="#D1D1D1"/>
<path d="M30.0989 22.7556C30.0856 22.5257 30.0933 22.7973 30.0989 22.7556V22.7556Z" fill="white"/>
<path d="M28.0149 22.6744C28.0193 22.6741 28.0235 22.6719 28.0277 22.6714C28.0158 22.6714 27.9977 22.6717 27.979 22.6724C27.9911 22.6727 28.0022 22.6745 28.0149 22.6744Z" fill="white"/>
<path d="M28.0149 22.6744C28.0023 22.6746 27.9912 22.6728 27.979 22.6724C27.9184 22.674 27.8558 22.6772 28.0149 22.6744Z" fill="white"/>
<path d="M28.0277 22.6714C28.0233 22.6719 28.0191 22.6741 28.0149 22.6744C28.0477 22.6722 28.0448 22.6714 28.0277 22.6714Z" fill="white"/>
<path d="M27.4233 20.2661L26.8248 20.7966C26.8578 20.8166 26.8902 20.8375 26.9215 20.8603C27.2104 21.0707 27.3929 21.3889 27.4771 21.7323C27.5199 21.9067 27.5357 22.0882 27.5559 22.2675C27.5835 22.5129 27.7229 22.6638 27.9793 22.6726C27.998 22.6721 28.0163 22.6717 28.028 22.6716C28.1514 22.6579 28.2751 22.5714 28.3147 22.4007C28.3386 22.2975 28.3277 22.1833 28.3182 22.0754C28.2438 21.2204 27.9205 20.6338 27.4233 20.2661Z" fill="#D1D1D1"/>
</g>
<defs>
<clipPath id="clip0">
<rect x="3.05176e-05" width="50" height="50" fill="white"/>
</clipPath>
</defs>
</svg>
