<svg width="50" height="50" viewBox="0 0 50 50" fill="none" xmlns="http://www.w3.org/2000/svg">
<g clip-path="url(#clip0)">
<path d="M25 50C38.8072 50 50 38.8071 50 25C50 11.1929 38.8072 0 25 0C11.1929 0 3.05176e-05 11.1929 3.05176e-05 25C3.05176e-05 38.8071 11.1929 50 25 50Z" fill="#75B73B"/>
<path d="M35.1798 14.8268C33.7303 14.4643 31.5987 13.2124 30.2189 12.7105C24.8317 11.027 17.5926 12.3738 15.5724 18.6028C15.404 18.7712 15.0673 18.7712 14.899 18.7712C10.8585 23.485 13.5522 29.2089 13.2155 34.4277C13.1005 36.2675 12.1331 37.8942 10.8882 39.2703L21.365 49.7361C22.5519 49.909 23.7652 50.0001 25 50.0001C37.3473 50.0001 47.6028 41.0484 49.6335 29.2812L35.1798 14.8268Z" fill="#52891D"/>
<path d="M24.3005 10.5904C16.6805 10.9529 10.6673 17.299 10.6903 24.9274C10.6973 27.2509 11.2582 29.4439 12.2479 31.382L10.7286 38.7564C10.6465 39.1555 11.0063 39.5048 11.4026 39.4108L18.6286 37.6989C20.4852 38.6238 22.5704 39.1578 24.7773 39.1915C32.5656 39.3105 39.0596 33.1266 39.3027 25.341C39.5626 16.9955 32.6749 10.1915 24.3005 10.5904ZM32.9229 32.8061C30.8068 34.9223 27.9929 36.0878 25 36.0878C23.2477 36.0878 21.5697 35.6945 20.0131 34.9192L19.007 34.4179L14.5764 35.4674L15.5089 30.9404L15.0133 29.9694C14.2051 28.3868 13.7953 26.6757 13.7953 24.8831C13.7953 21.8901 14.9609 19.0766 17.077 16.9602C19.1742 14.8628 22.0339 13.6786 25.0002 13.6786C27.9928 13.6786 30.8067 14.8441 32.9228 16.9602C35.0389 19.0764 36.2044 21.8902 36.2044 24.8828C36.2046 27.8492 35.0202 30.7088 32.9229 32.8061Z" fill="white"/>
<path d="M31.9449 27.9865L29.173 27.1907C28.8088 27.0863 28.4162 27.1897 28.1507 27.4602L27.4728 28.1506C27.187 28.4421 26.7535 28.5355 26.3751 28.3825C25.0639 27.8518 22.3056 25.3993 21.6016 24.1729C21.3981 23.819 21.4318 23.3768 21.6814 23.0536L22.273 22.288C22.5048 21.9882 22.5536 21.5852 22.4004 21.2385L21.2343 18.601C20.955 17.9694 20.1478 17.7854 19.6203 18.2315C18.8468 18.8859 17.9289 19.8799 17.8175 20.9815C17.6207 22.9236 18.4537 25.3715 21.6029 28.3111C25.2412 31.7074 28.155 32.1557 30.0524 31.6963C31.1285 31.4358 31.9884 30.3911 32.5308 29.5355C32.901 28.9518 32.6084 28.1772 31.9449 27.9865Z" fill="white"/>
<path d="M34.766 14.4248L32.5958 16.6492C32.7063 16.7513 32.8162 16.8539 32.9231 16.9608C35.0393 19.077 36.2047 21.8908 36.2047 24.8834C36.2047 27.8497 35.0203 30.7092 32.9231 32.8066C30.8069 34.9228 27.9931 36.0883 25.0002 36.0883C23.2479 36.0883 21.57 35.695 20.0133 34.9197L19.0072 34.4184L14.5766 35.4679L14.6682 35.0232L10.7449 39.044C10.8315 39.304 11.1068 39.481 11.4026 39.4109L18.6286 37.699C20.4852 38.6239 22.5704 39.1579 24.7773 39.1916C32.5656 39.3106 39.0598 33.1267 39.3027 25.3411C39.4369 21.0312 37.6647 17.1325 34.766 14.4248Z" fill="#D1D1D1"/>
<path d="M31.9449 27.9867L29.173 27.1909C28.8088 27.0865 28.4162 27.1899 28.1507 27.4604L27.4728 28.1509C27.187 28.4423 26.7535 28.5357 26.3751 28.3827C25.6177 28.0762 24.378 27.1283 23.3297 26.146L21.4028 28.1211C21.4689 28.1844 21.5348 28.2476 21.603 28.3113C25.2413 31.7076 28.1551 32.156 30.0525 31.6965C31.1285 31.436 31.9885 30.3913 32.5309 29.5357C32.901 28.9521 32.6084 28.1774 31.9449 27.9867Z" fill="#D1D1D1"/>
</g>
<defs>
<clipPath id="clip0">
<rect x="3.05176e-05" width="50" height="50" fill="white"/>
</clipPath>
</defs>
</svg>
