<svg xmlns="http://www.w3.org/2000/svg" viewBox="0 0 71.13 61"><defs><style>.cls-1{isolation:isolate;}.cls-2{fill:#191414;}.cls-3,.cls-4{fill:#cfd5d5;}.cls-3{opacity:0.1;}.cls-4{opacity:0.2;}.cls-15,.cls-16,.cls-4,.cls-6{mix-blend-mode:screen;}.cls-5{opacity:0.4;}.cls-6{fill:#7b38d4;}.cls-7{fill:#8821d8;}.cls-8{opacity:0.7;}.cls-9{fill:#6811bc;}.cls-10{fill:#f6c2ff;}.cls-11,.cls-12,.cls-14,.cls-15{fill:#ffbbfa;}.cls-11{opacity:0.3;}.cls-12{opacity:0.5;mix-blend-mode:overlay;}.cls-13{fill:#de78ff;}.cls-16{fill:#ffe1fe;}.cls-17{fill:#c858f0;}</style></defs><title>graphic</title><g class="cls-1"><g id="_0" data-name="0"><g id="_3" data-name="3"><path class="cls-2" d="M16,31.42,11.46,34c-.22.13-.24.32-.05.43a.81.81,0,0,0,.74,0l4.51-2.6c.22-.13.24-.32.05-.43A.81.81,0,0,0,16,31.42Z" transform="translate(-1.03 -0.88)"/><path class="cls-2" d="M9.73,35.87a1,1,0,0,1-.9,0,.28.28,0,0,1,0-.53,1,1,0,0,1,.91,0A.28.28,0,0,1,9.73,35.87Z" transform="translate(-1.03 -0.88)"/><path class="cls-3" d="M9,35.8a.72.72,0,0,0,.67,0,.21.21,0,0,0,0-.39.75.75,0,0,0-.67,0C8.77,35.53,8.77,35.7,9,35.8Z" transform="translate(-1.03 -0.88)"/><path class="cls-3" d="M9.1,35.7a.41.41,0,0,0,.36,0c.1-.06.1-.15,0-.21a.4.4,0,0,0-.37,0C9,35.55,9,35.64,9.1,35.7Z" transform="translate(-1.03 -0.88)"/><path class="cls-4" d="M9.21,35.63a.17.17,0,0,0,.14,0s0-.06,0-.08a.15.15,0,0,0-.13,0A0,0,0,0,0,9.21,35.63Z" transform="translate(-1.03 -0.88)"/><g class="cls-5"><path class="cls-6" d="M71.9,46.11,30.45,22.18,3.39,37.8,44.84,61.73a1.38,1.38,0,0,0,1.25,0L71.9,46.83C72.25,46.63,72.25,46.31,71.9,46.11Z" transform="translate(-1.03 -0.88)"/><path class="cls-7" d="M31.23,22.62,4.17,38.25,1.29,36.58a.38.38,0,0,1,0-.72L27.1,21a1.38,1.38,0,0,1,1.25,0Z" transform="translate(-1.03 -0.88)"/></g><g class="cls-8"><path class="cls-6" d="M71.9,40.74,30.45,16.81,3.39,32.43,44.84,56.36a1.38,1.38,0,0,0,1.25,0L71.9,41.46C72.25,41.26,72.25,40.94,71.9,40.74Z" transform="translate(-1.03 -0.88)"/><path class="cls-7" d="M31.23,17.25,4.17,32.88,1.29,31.21a.38.38,0,0,1,0-.72L27.1,15.59a1.38,1.38,0,0,1,1.25,0Z" transform="translate(-1.03 -0.88)"/></g><path class="cls-6" d="M71.9,35.37,30.45,11.43,3.39,27.06,44.84,51a1.38,1.38,0,0,0,1.25,0L71.9,36.09C72.25,35.89,72.25,35.57,71.9,35.37Z" transform="translate(-1.03 -0.88)"/><path class="cls-7" d="M31.23,11.88,4.17,27.5,1.29,25.84a.38.38,0,0,1,0-.72L27.1,10.22a1.38,1.38,0,0,1,1.25,0Z" transform="translate(-1.03 -0.88)"/><polygon class="cls-9" points="23.4 14.12 21.23 15.37 19.07 14.12 21.23 12.87 23.4 14.12"/><polygon class="cls-9" points="26.09 12.56 23.92 13.82 21.75 12.56 23.92 11.31 26.09 12.56"/><path class="cls-10" d="M23.47,13.45,25,14.3l1.48-.85L25,12.59Zm2.46,0L25,14l-1-.56,1-.56Z" transform="translate(-1.03 -0.88)"/><polygon class="cls-9" points="28.77 11.01 26.61 12.27 24.44 11.01 26.61 9.76 28.77 11.01"/><polygon class="cls-10" points="25.33 11.12 26.49 11.12 26.49 11.79 26.86 11.79 26.86 11.12 28.02 11.12 28.02 10.9 26.86 10.9 26.86 10.23 26.49 10.23 26.49 10.9 25.33 10.9 25.33 11.12"/><polygon class="cls-10" points="22.68 14.14 21.3 14.94 21.03 14.79 22.42 13.98 22.68 14.14"/><polygon class="cls-11" points="69.22 34.78 44.39 49.11 5.44 26.62 30.26 12.28 69.22 34.78"/><polygon class="cls-12" points="69.22 34.78 44.39 49.11 5.44 26.62 30.26 12.28 69.22 34.78"/><polygon class="cls-13" points="32.03 13.3 7.2 27.64 5.44 26.62 30.26 12.28 32.03 13.3"/><polygon class="cls-13" points="41.89 47.66 44.39 49.11 69.22 34.78 66.72 33.33 41.89 47.66"/><polygon class="cls-14" points="30.97 17.77 33.52 16.29 33.49 11.71 30.94 13.19 30.97 17.77"/><polygon class="cls-15" points="30.94 13.19 33.49 11.71 30.52 10 27.97 11.48 30.94 13.19"/><polygon class="cls-13" points="27.97 11.48 28 16.05 30.97 17.77 30.94 13.19 27.97 11.48"/><polygon class="cls-14" points="34.42 19.76 36.97 18.28 36.95 11.34 34.4 12.82 34.42 19.76"/><polygon class="cls-15" points="34.4 12.82 36.95 11.34 33.98 9.62 31.43 11.1 34.4 12.82"/><polygon class="cls-13" points="31.43 11.1 31.45 18.04 34.42 19.76 34.4 12.82 31.43 11.1"/><polygon class="cls-14" points="37.87 21.75 40.41 20.27 40.41 9.05 37.86 10.53 37.87 21.75"/><polygon class="cls-16" points="37.86 10.53 40.41 9.05 37.44 7.34 34.89 8.82 37.86 10.53"/><polygon class="cls-13" points="34.89 8.82 34.9 20.04 37.87 21.75 37.86 10.53 34.89 8.82"/><polygon class="cls-14" points="41.32 23.74 43.86 22.26 43.88 1.72 41.34 3.19 41.32 23.74"/><polygon class="cls-16" points="41.34 3.19 43.88 1.72 40.91 0 38.37 1.48 41.34 3.19"/><polygon class="cls-13" points="38.37 1.48 38.35 22.03 41.32 23.74 41.34 3.19 38.37 1.48"/><polygon class="cls-14" points="44.76 25.73 47.31 24.25 47.32 7.55 44.77 9.03 44.76 25.73"/><polygon class="cls-15" points="44.77 9.03 47.32 7.55 44.35 5.83 41.8 7.31 44.77 9.03"/><polygon class="cls-13" points="41.8 7.31 41.8 24.02 44.76 25.73 44.77 9.03 41.8 7.31"/><polygon class="cls-14" points="48.22 27.73 50.72 26.24 50.76 14.04 48.21 15.52 48.22 27.73"/><polygon class="cls-15" points="47.79 12.32 45.24 13.8 48.21 15.52 50.76 14.04 47.79 12.32"/><polygon class="cls-13" points="45.24 13.8 45.24 26.01 48.22 27.73 48.21 15.52 45.24 13.8"/><polygon class="cls-14" points="51.66 29.72 54.21 28.23 54.2 18.92 51.65 20.4 51.66 29.72"/><polygon class="cls-15" points="51.65 20.4 54.2 18.92 51.23 17.21 48.68 18.69 51.65 20.4"/><polygon class="cls-13" points="48.68 18.69 48.69 28 51.66 29.72 51.65 20.4 48.68 18.69"/><polygon class="cls-14" points="55.11 31.71 57.66 30.23 57.63 25.65 55.09 27.13 55.11 31.71"/><polygon class="cls-15" points="55.09 27.13 57.63 25.65 54.66 23.94 52.12 25.42 55.09 27.13"/><polygon class="cls-13" points="52.12 25.42 52.14 29.99 55.11 31.71 55.09 27.13 52.12 25.42"/><polygon class="cls-14" points="58.56 33.7 61.11 32.22 61.09 25.28 58.54 26.76 58.56 33.7"/><polygon class="cls-15" points="58.54 26.76 61.09 25.28 58.12 23.56 55.57 25.05 58.54 26.76"/><polygon class="cls-13" points="55.57 25.05 55.59 31.98 58.56 33.7 58.54 26.76 55.57 25.05"/><polygon class="cls-14" points="62.01 35.69 64.56 34.21 64.55 24.76 62 26.24 62.01 35.69"/><polygon class="cls-15" points="62 26.24 64.55 24.76 61.57 23.04 59.03 24.52 62 26.24"/><polygon class="cls-13" points="59.03 24.52 59.04 33.97 62.01 35.69 62 26.24 59.03 24.52"/><polygon class="cls-14" points="19.04 31.46 18.5 31.77 11.86 27.93 12.4 27.62 19.04 31.46"/><polygon class="cls-17" points="19.62 31.12 19.04 31.46 13.1 28.02 13.68 27.69 19.62 31.12"/><polygon class="cls-14" points="21.2 30.21 20.66 30.52 14.37 26.89 14.91 26.57 21.2 30.21"/><polygon class="cls-17" points="21.78 29.87 21.2 30.21 14.37 26.26 14.95 25.93 21.78 29.87"/><polygon class="cls-14" points="23.37 28.96 22.83 29.27 14.16 24.26 14.7 23.95 23.37 28.96"/><polygon class="cls-17" points="23.95 28.62 23.37 28.95 19.31 26.61 19.89 26.27 23.95 28.62"/><polygon class="cls-14" points="25.54 27.71 24.99 28.02 17.68 23.79 18.22 23.48 25.54 27.71"/><polygon class="cls-17" points="26.12 27.37 25.54 27.71 18.84 23.84 19.42 23.5 26.12 27.37"/><polygon class="cls-14" points="32.04 23.95 31.49 24.27 24.04 19.96 24.58 19.65 32.04 23.95"/><polygon class="cls-17" points="32.62 23.62 32.04 23.95 27.35 21.25 27.93 20.91 32.62 23.62"/><polygon class="cls-14" points="34.2 22.7 33.66 23.02 27.64 19.54 28.18 19.23 34.2 22.7"/><polygon class="cls-17" points="34.78 22.37 34.2 22.7 29.19 19.8 29.77 19.47 34.78 22.37"/><polygon class="cls-14" points="27.7 26.46 27.16 26.77 24.54 25.26 25.08 24.95 27.7 26.46"/><polygon class="cls-17" points="28.28 26.12 27.7 26.45 23.11 23.8 23.69 23.47 28.28 26.12"/><polygon class="cls-14" points="29.87 25.21 29.32 25.52 26.71 24.01 27.25 23.7 29.87 25.21"/><polygon class="cls-17" points="30.45 24.87 29.87 25.21 27.97 24.11 28.55 23.78 30.45 24.87"/><polygon class="cls-7" points="35.97 22.2 18.07 32.54 17.58 32.26 35.48 21.92 35.97 22.2"/><path class="cls-17" d="M27.87,36a5,5,0,0,1-4.5,0,1.37,1.37,0,0,1,0-2.6,5,5,0,0,1,4.5,0A1.37,1.37,0,0,1,27.87,36Z" transform="translate(-1.03 -0.88)"/><path class="cls-7" d="M27.56,33.56a1.19,1.19,0,0,1,0,2.25,4.3,4.3,0,0,1-3.89,0,1.19,1.19,0,0,1,0-2.25A4.3,4.3,0,0,1,27.56,33.56Z" transform="translate(-1.03 -0.88)"/><path class="cls-14" d="M23.67,33.56l2,1.13V33.1A3.92,3.92,0,0,0,23.67,33.56Z" transform="translate(-1.03 -0.88)"/><path class="cls-17" d="M34.51,32.14a4.94,4.94,0,0,1-4.49,0,1.37,1.37,0,0,1,0-2.59,4.94,4.94,0,0,1,4.49,0A1.37,1.37,0,0,1,34.51,32.14Z" transform="translate(-1.03 -0.88)"/><path class="cls-7" d="M34.21,29.72a1.19,1.19,0,0,1,0,2.25,4.3,4.3,0,0,1-3.89,0,1.19,1.19,0,0,1,0-2.25A4.3,4.3,0,0,1,34.21,29.72Z" transform="translate(-1.03 -0.88)"/><path class="cls-14" d="M34.21,29.72a3.91,3.91,0,0,0-1.93-.46,4,4,0,0,0-2,.46l2,1.13H35a1.34,1.34,0,0,0-.79-1.12Z" transform="translate(-1.03 -0.88)"/><path class="cls-17" d="M41.05,28.37a5,5,0,0,1-4.5,0,1.37,1.37,0,0,1,0-2.6,5,5,0,0,1,4.5,0A1.37,1.37,0,0,1,41.05,28.37Z" transform="translate(-1.03 -0.88)"/><path class="cls-7" d="M40.75,26a1.18,1.18,0,0,1,0,2.24,4.3,4.3,0,0,1-3.89,0,1.18,1.18,0,0,1,0-2.24A4.3,4.3,0,0,1,40.75,26Z" transform="translate(-1.03 -0.88)"/><path class="cls-14" d="M36.86,26l3.89,2.24a1.18,1.18,0,0,0,0-2.24A4.3,4.3,0,0,0,36.86,26Z" transform="translate(-1.03 -0.88)"/><path class="cls-17" d="M30.9,37.07c.37.21.37.56,0,.78a1.53,1.53,0,0,1-1.35,0c-.38-.22-.38-.57,0-.78A1.46,1.46,0,0,1,30.9,37.07Z" transform="translate(-1.03 -0.88)"/><path class="cls-17" d="M34.19,39c.38.21.38.56,0,.78a1.53,1.53,0,0,1-1.35,0c-.37-.22-.37-.57,0-.78A1.46,1.46,0,0,1,34.19,39Z" transform="translate(-1.03 -0.88)"/><path class="cls-17" d="M37.44,40.84c.37.22.37.57,0,.78a1.46,1.46,0,0,1-1.35,0c-.38-.21-.38-.56,0-.78A1.53,1.53,0,0,1,37.44,40.84Z" transform="translate(-1.03 -0.88)"/><ellipse class="cls-17" cx="39" cy="42.24" rx="0.96" ry="0.55"/><path class="cls-17" d="M44,44.61c.37.21.37.56,0,.78a1.53,1.53,0,0,1-1.35,0c-.38-.22-.38-.57,0-.78A1.46,1.46,0,0,1,44,44.61Z" transform="translate(-1.03 -0.88)"/><path class="cls-13" d="M39.74,32.79l2.49-1.44L42,31.2l-2.49,1.44Zm-.35.2-.25-.15-6.22,3.59.25.15ZM32.2,36l2-1.19L34,34.65l-2.06,1.18Zm11.14-6.43,2-1.14-.25-.14-2,1.13Zm-2.78,1.6L43,29.74l-.25-.14L40.3,31Zm-6,3.44,5.61-3.24L40,31.21l-5.62,3.24Z" transform="translate(-1.03 -0.88)"/><path class="cls-13" d="M46,31.28l.25.15,1.91-1.1-.25-.15Zm-.09.34-.25-.14-4.08,2.35.25.15Zm.06.84.25.15,1.92-1.11-.25-.15Zm-5,3.19-.25-.14L36,38.23l.26.14Zm.54-1.47L41.26,34,35,37.65l.25.15Zm4.39-1.37-.26-.15-4.58,2.65.25.14Z" transform="translate(-1.03 -0.88)"/><path class="cls-13" d="M47.9,34.08l.25.15,2.44-1.41-.25-.15ZM47.13,36l-.25-.14-3,1.7.26.15Zm-5.28,1.89-.26-.15-3.17,1.84.25.14Zm5.71-3.59-5.62,3.24.25.15,5.62-3.24Zm-3.74,3.61-.25-.15-4.16,2.41.25.14Z" transform="translate(-1.03 -0.88)"/><path class="cls-13" d="M49.47,38.41,51.91,37l-.26-.15-2.44,1.41Zm-.35.19-.25-.14-6.22,3.59.25.15Zm-7.19,3,2-1.19-.25-.15-2.06,1.19Zm8.36-4.83,3.47-2-.25-.14-3.48,2Zm-6,3.44L49.94,37l-.25-.15-5.62,3.24Z" transform="translate(-1.03 -0.88)"/><polygon class="cls-13" points="53.63 36.81 50.95 38.36 51.21 38.51 53.88 36.96 53.63 36.81"/><polygon class="cls-13" points="50.86 38.7 50.61 38.56 43.84 42.47 44.1 42.61 50.86 38.7"/><polygon class="cls-13" points="48.34 41.33 48.08 41.18 44.91 43.02 45.16 43.16 48.34 41.33"/><polygon class="cls-13" points="50.63 39.71 48.43 40.98 48.68 41.13 50.88 39.86 50.63 39.71"/></g></g></g></svg>