<svg id="OBJECTS" xmlns="http://www.w3.org/2000/svg" viewBox="0 0 681.13 425.02"><defs><style>.cls-1{fill:#c6e3f1;}.cls-1,.cls-10,.cls-11,.cls-12,.cls-13,.cls-14,.cls-16,.cls-17,.cls-18,.cls-19,.cls-2,.cls-20,.cls-24,.cls-25,.cls-27,.cls-28,.cls-29,.cls-4,.cls-5,.cls-6,.cls-7,.cls-8,.cls-9{fill-rule:evenodd;}.cls-2,.cls-3{fill:#eef;}.cls-4{fill:#1e1a49;}.cls-5{fill:#e7b3a2;}.cls-6{fill:#d3645e;}.cls-7{fill:#a2323d;}.cls-22,.cls-8{fill:#fff;}.cls-9{fill:#cf8577;}.cls-10{fill:#d58881;}.cls-11{fill:#e9baa8;}.cls-12{fill:#2e2d6b;}.cls-13{fill:#f1d3c8;}.cls-14,.cls-15,.cls-16,.cls-24{fill:none;stroke-linecap:round;stroke-linejoin:round;stroke-width:0.71px;}.cls-14,.cls-15{stroke:#d58881;}.cls-16{stroke:#9a3133;}.cls-17,.cls-21{fill:#9c9dcc;}.cls-18{fill:#c5c5e2;}.cls-19{fill:#6d6faf;}.cls-20{fill:#484d9b;}.cls-23{fill:#6fc1e2;}.cls-24{stroke:#6d6faf;}.cls-25{fill:#32327d;}.cls-26{fill:#e3f1f5;}.cls-27{fill:#c1dee7;}.cls-28{fill:#3d2258;}.cls-29{fill:#6d4d6f;}</style></defs><title>requirements</title><path class="cls-1" d="M630.24,37.49a84.64,84.64,0,0,1,84.39,84.39h0a84.64,84.64,0,0,1-84.39,84.39h0A17,17,0,0,0,613.3,223.2h0a17,17,0,0,0,16.94,16.94H674.4a41.28,41.28,0,0,1,41.16,41.16h0a41.28,41.28,0,0,1-41.16,41.17,35.71,35.71,0,0,0-35.61,35.61h0a65.15,65.15,0,0,1-65,64.95H122.39A84.64,84.64,0,0,1,38,338.65h0a84.64,84.64,0,0,1,84.39-84.39h8.16a17,17,0,0,0,16.93-16.93h0a17,17,0,0,0-16.93-16.94h-55a41.29,41.29,0,0,1-41.16-41.17h0a41.29,41.29,0,0,1,41.08-41.17h44.21a35.71,35.71,0,0,0,35.61-35.6h0a65.15,65.15,0,0,1,65-65Z" transform="translate(-34.44 -37.49)"/><path class="cls-2" d="M471.37,59.1V62h2.92a2.22,2.22,0,0,1,2.21,2.21h0a2.22,2.22,0,0,1-2.21,2.21h-2.92v2.92a2.22,2.22,0,0,1-2.21,2.21h0a2.22,2.22,0,0,1-2.22-2.21V66.44H464a2.22,2.22,0,0,1-2.22-2.21h0A2.22,2.22,0,0,1,464,62h2.91V59.1a2.22,2.22,0,0,1,2.22-2.21h0A2.22,2.22,0,0,1,471.37,59.1Z" transform="translate(-34.44 -37.49)"/><rect class="cls-3" x="639.41" y="42.52" width="8.97" height="8.97" rx="2.09"/><rect class="cls-3" x="622.82" y="42.52" width="8.97" height="8.97" rx="2.09"/><rect class="cls-3" x="606.23" y="42.52" width="8.97" height="8.97" rx="2.09"/><rect class="cls-3" x="589.64" y="42.52" width="8.97" height="8.97" rx="2.09"/><rect class="cls-3" x="573.06" y="42.52" width="8.97" height="8.97" rx="2.09"/><rect class="cls-3" x="556.47" y="42.52" width="8.97" height="8.97" rx="2.09"/><rect class="cls-3" x="605.63" y="24.43" width="8.97" height="8.97" rx="2.09"/><rect class="cls-3" x="589.04" y="24.43" width="8.97" height="8.97" rx="2.09"/><rect class="cls-3" x="572.46" y="24.43" width="8.97" height="8.97" rx="2.09"/><rect class="cls-3" x="589.65" y="61.95" width="8.97" height="8.97" rx="2.09"/><rect class="cls-3" x="573.06" y="61.95" width="8.97" height="8.97" rx="2.09"/><path class="cls-2" d="M159.8,142.77a1.44,1.44,0,1,1,2.88,0v6.5a1.44,1.44,0,0,1-2.88,0v-6.5ZM150,148.05A1.45,1.45,0,0,1,152,146l4.59,4.6a1.44,1.44,0,0,1-2,2l-4.6-4.59Zm-3.23,10.68a1.44,1.44,0,0,1,0-2.88h6.5a1.44,1.44,0,0,1,0,2.88Zm5.28,9.85a1.45,1.45,0,0,1-2.05-2l4.6-4.6a1.44,1.44,0,0,1,2,2l-4.59,4.6Zm10.68,3.23a1.44,1.44,0,0,1-2.88,0v-6.5a1.44,1.44,0,0,1,2.88,0v6.5Zm9.85-5.27a1.45,1.45,0,0,1-2.05,2l-4.59-4.6a1.44,1.44,0,1,1,2-2l4.6,4.6Zm3.23-10.69a1.44,1.44,0,0,1,0,2.88h-6.5a1.44,1.44,0,0,1,0-2.88ZM170.48,146a1.45,1.45,0,0,1,2.05,2.05l-4.6,4.59a1.44,1.44,0,1,1-2-2Z" transform="translate(-34.44 -37.49)"/><path class="cls-2" d="M663.4,267.65a1.45,1.45,0,1,1,2.89,0v6.49a1.45,1.45,0,1,1-2.89,0v-6.49Zm-9.84,5.27a1.45,1.45,0,0,1,0-2,1.43,1.43,0,0,1,2,0l4.6,4.59a1.45,1.45,0,0,1-2.05,2l-4.59-4.59Zm-3.23,10.69a1.45,1.45,0,0,1,0-2.89h6.5a1.45,1.45,0,0,1,0,2.89Zm5.27,9.84a1.44,1.44,0,1,1-2-2l4.59-4.59a1.45,1.45,0,0,1,2.05,2l-4.6,4.59Zm10.69,3.23a1.45,1.45,0,0,1-2.89,0v-6.49a1.45,1.45,0,1,1,2.89,0v6.49Zm9.84-5.27a1.43,1.43,0,0,1,0,2,1.45,1.45,0,0,1-2,0l-4.59-4.59a1.45,1.45,0,0,1,0-2,1.43,1.43,0,0,1,2,0l4.59,4.59Zm3.24-10.69a1.45,1.45,0,0,1,0,2.89h-6.5a1.45,1.45,0,0,1,0-2.89Zm-5.28-9.84a1.44,1.44,0,1,1,2,2l-4.59,4.59a1.43,1.43,0,0,1-2,0,1.45,1.45,0,0,1,0-2Z" transform="translate(-34.44 -37.49)"/><path class="cls-2" d="M89.07,154.39v2.91H92a2.22,2.22,0,0,1,2.21,2.22h0A2.21,2.21,0,0,1,92,161.73H89.07v2.92a2.21,2.21,0,0,1-2.21,2.21h0a2.21,2.21,0,0,1-2.21-2.21v-2.92H81.73a2.21,2.21,0,0,1-2.21-2.21h0a2.22,2.22,0,0,1,2.21-2.22h2.92v-2.91a2.22,2.22,0,0,1,2.21-2.22h0A2.22,2.22,0,0,1,89.07,154.39Z" transform="translate(-34.44 -37.49)"/><path class="cls-2" d="M100.11,340v2.91H103a2.23,2.23,0,0,1,2.22,2.21h0a2.23,2.23,0,0,1-2.22,2.22h-2.91v2.92a2.22,2.22,0,0,1-2.21,2.21h0a2.23,2.23,0,0,1-2.22-2.21v-2.92H92.76a2.23,2.23,0,0,1-2.21-2.22h0a2.22,2.22,0,0,1,2.21-2.21h2.92V340a2.23,2.23,0,0,1,2.22-2.22h0A2.23,2.23,0,0,1,100.11,340Z" transform="translate(-34.44 -37.49)"/><path class="cls-2" d="M203,55.94v2.91h2.91a2.23,2.23,0,0,1,2.22,2.22h0a2.23,2.23,0,0,1-2.22,2.21H203V66.2a2.23,2.23,0,0,1-2.22,2.21h0a2.22,2.22,0,0,1-2.21-2.21V63.28h-2.92a2.22,2.22,0,0,1-2.21-2.21h0a2.22,2.22,0,0,1,2.21-2.22h2.92V55.94a2.22,2.22,0,0,1,2.21-2.22h0A2.23,2.23,0,0,1,203,55.94Z" transform="translate(-34.44 -37.49)"/><rect class="cls-3" x="134.69" y="154.53" width="8.97" height="8.97" rx="2.09"/><rect class="cls-3" x="118.1" y="154.53" width="8.97" height="8.97" rx="2.09"/><rect class="cls-3" x="101.52" y="154.53" width="8.97" height="8.97" rx="2.09"/><rect class="cls-3" x="84.93" y="154.53" width="8.97" height="8.97" rx="2.09"/><rect class="cls-3" x="68.34" y="154.53" width="8.97" height="8.97" rx="2.09"/><rect class="cls-3" x="51.75" y="154.53" width="8.97" height="8.97" rx="2.09"/><path class="cls-4" d="M590.34,199a31.5,31.5,0,0,1,9.83,21c0,.69.07,1.4.07,2.12,0,24.1-20,48.18-50.76,38.71s-27.76,8.14-27.76,8.14c-38.51,3.36-51.93-31.09-34-48.29a18.85,18.85,0,1,1,34.22-10.91v.35c12.38-2.11,26.92-4.37,40.91-7.17A18.84,18.84,0,1,1,590.34,199Z" transform="translate(-34.44 -37.49)"/><path class="cls-4" d="M597.2,138.58a39.47,39.47,0,0,1,12.32,26.3c.05.87.08,1.75.08,2.65,0,30.19-25,60.34-63.58,48.48s-34.77,10.2-34.77,10.2c-48.22,4.21-65-38.94-42.61-60.48a23.61,23.61,0,1,1,42.86-13.66v.43c15.5-2.64,33.72-5.47,51.24-9a23.61,23.61,0,1,1,34.46-4.95Z" transform="translate(-34.44 -37.49)"/><path class="cls-5" d="M464.63,457.9c4-23.69.75-45.9-3.85-78.37-9-17.56-16-49.51-11.18-72.4s5.33-56,5.33-56S500,241.24,504,239.24s4.35-10.38,4.35-10.38l21.07-4.52,21.07,4.52s.36,8.39,4.36,10.38S604,251.17,604,251.17s.53,33.06,5.33,56-2.13,54.84-11.18,72.4c-4.61,32.47-7.89,54.68-3.86,78.37Z" transform="translate(-34.44 -37.49)"/><path class="cls-5" d="M529.46,175.76h0a21.15,21.15,0,0,1,21.09,21.09v40.37a21.15,21.15,0,0,1-21.09,21.08h0a21.15,21.15,0,0,1-21.09-21.08V196.85A21.15,21.15,0,0,1,529.46,175.76Z" transform="translate(-34.44 -37.49)"/><path class="cls-6" d="M554.22,238.83s-8.91,12.77-24.47,12.77-24.47-12.77-24.47-12.77c-1.66-1.88-4.95-.72-11.76,1.73s-20.91,4.56-36.09,7.65a45.61,45.61,0,0,0-10.59,3.52l-1,86.82,7.4,35c3.81,10.21,7.28,19.15,7.51,21.32.51,4.89-1.29,33.32.26,37.56s1.92,6.82,5.88,8.87,16.11-.12,27.95-1.66,34.88-1.55,34.88-1.55,23,0,34.89,1.55,24,3.72,27.94,1.66,4.35-4.62,5.89-8.87-.26-32.67.26-37.56c.23-2.17,3.7-11.11,7.51-21.32l-7.33-27,13.75-94.81a45.3,45.3,0,0,0-10.59-3.52c-15.18-3.09-29.27-5.21-36.08-7.65S555.89,237,554.22,238.83Z" transform="translate(-34.44 -37.49)"/><path class="cls-7" d="M446.7,342.44l6.57,31.11c2.14,5.74,4.17,11.07,5.59,15l6.24.28s66.21-13,80.62-15.72,18.18,1,18.18,1l34.84,30.18c-.11-4.43-.17-8,0-9.49.23-2.17,3.7-11.11,7.51-21.32l-1.15-4.23-5.51-8.18-7.72-16.46L573,336.1l-14.06,11.49-62.61-3.94s-16.81.69-31.35,1.05S446.7,342.44,446.7,342.44Z" transform="translate(-34.44 -37.49)"/><path class="cls-8" d="M554.22,238.83s-8.91,12.77-24.47,12.77-24.47-12.77-24.47-12.77c-1.66-1.88-4.95-.72-11.76,1.73q-.81.28-1.74.57a40.15,40.15,0,0,0,75.94,0c-.62-.19-1.2-.38-1.73-.57C559.17,238.11,555.89,237,554.22,238.83Z" transform="translate(-34.44 -37.49)"/><path class="cls-9" d="M548.43,219.36a38,38,0,0,1-18.67,5h-.59c-7.45-.07-14.53-2.88-20.8-7.42v12.18c-.09,1.36-.66,7-3.35,9.41a2.13,2.13,0,0,1,.26.26,28.14,28.14,0,0,0,3.06,3.48l.6-.24,36.33-14.34,5.28-2.08v-7.58C549.85,218.52,549.15,219,548.43,219.36Z" transform="translate(-34.44 -37.49)"/><path class="cls-10" d="M481.35,160.27c-.33,0-.66.11-1,.18h0a13.43,13.43,0,1,0,11.22,2.62c.37,4-.23,8.87-5.28,9.39l.09-7.74C486.43,161.59,483.5,160.17,481.35,160.27Z" transform="translate(-34.44 -37.49)"/><path class="cls-10" d="M573.14,159.63l1,.16h0A13.41,13.41,0,1,1,563,162.57c-.31,4,.35,8.87,5.42,9.32l-.2-7.73C568.08,161,571,159.56,573.14,159.63Z" transform="translate(-34.44 -37.49)"/><path class="cls-11" d="M527.34,227.49c25,0,45.95-30.92,45.95-55.33V139.74a46.09,46.09,0,0,0-45.95-46h0a46.1,46.1,0,0,0-46,46v31.73C481.38,198.22,499.62,227.49,527.34,227.49Z" transform="translate(-34.44 -37.49)"/><path class="cls-10" d="M565,113.48a46.51,46.51,0,0,0-10-10.36c-15.77,1.77-41.91,4.71-62.86,7.13a45.78,45.78,0,0,0-10.78,29.49v13.61c37.53-.58,72.73-28.82,72.73-28.82l7.41-.85Z" transform="translate(-34.44 -37.49)"/><path class="cls-4" d="M573.14,172.57c-1.26-.61-7-3.95-6.73-14.47,0,0-16.25-4.55-13.77-36.85,0,0-64.6,37.4-83,24.2-8.95-6.41-10.82-24-3.54-40.36C488,55.81,587.67,54.59,581,132.53a51.42,51.42,0,0,1,14.64,8.58l-13.78,17.42c-8.36-3.52-8.48,12.56-8.47,14Z" transform="translate(-34.44 -37.49)"/><path class="cls-12" d="M466.85,103.44c7.65,4.84,18,7.28,31.91,3.52,25.12-6.79,45.9-20.66,65-23.57a46.06,46.06,0,0,1,5.38,5.35c-7.37,1.36-15.74,5-24.62,12.69-22.47,19.42-54.28,42.83-82.36,30.8-1.49-7.87-.33-17.7,3.86-27.14C466.32,104.53,466.59,104,466.85,103.44Z" transform="translate(-34.44 -37.49)"/><path class="cls-10" d="M496.79,187.19a6.37,6.37,0,1,1-6.49,6.25A6.37,6.37,0,0,1,496.79,187.19Z" transform="translate(-34.44 -37.49)"/><path class="cls-10" d="M549.52,188.2a6.37,6.37,0,1,1-6.49,6.25A6.38,6.38,0,0,1,549.52,188.2Z" transform="translate(-34.44 -37.49)"/><path class="cls-4" d="M538.29,153.84a1.92,1.92,0,0,0,1.59,3.5s5.83-2.75,11.37.74a1.93,1.93,0,0,0,2-3.28C546,150.2,538.31,153.83,538.29,153.84Z" transform="translate(-34.44 -37.49)"/><path class="cls-4" d="M492.85,154.69a1.93,1.93,0,0,0,1.87,3.37s5.58-3.22,11.39-.19a1.93,1.93,0,0,0,1.78-3.43C500.22,150.44,492.87,154.68,492.85,154.69Z" transform="translate(-34.44 -37.49)"/><path class="cls-13" d="M521.8,182c-.86,2.43-2.36,6.84-2.23,7.53.18,1,5.27,1.21,6.61-.26.89-1-.22-4.63-1.18-7.06C523.68,178.91,523,178.74,521.8,182Z" transform="translate(-34.44 -37.49)"/><path class="cls-4" d="M500.44,179.21a5.83,5.83,0,0,1-5.83-5.83,5.4,5.4,0,0,1,.14-1.28l-.67-.24a5.75,5.75,0,0,1-2.05-1.29.73.73,0,0,1,0-1,.74.74,0,0,1,1,0,4.43,4.43,0,0,0,2,1.12h0a4.67,4.67,0,0,1-1.81-1.89.72.72,0,0,1,.3-1,.74.74,0,0,1,1,.3,3.33,3.33,0,0,0,1.52,1.47l.05-.06a3.16,3.16,0,0,1-1.06-1.6.73.73,0,0,1,1.4-.4,1.8,1.8,0,0,0,.79,1,5.83,5.83,0,1,1,3.2,10.71Z" transform="translate(-34.44 -37.49)"/><path class="cls-4" d="M545.63,179.21a5.83,5.83,0,0,0,5.83-5.83,6,6,0,0,0-.14-1.28l.67-.24a5.75,5.75,0,0,0,2-1.29.73.73,0,0,0-1-1,4.43,4.43,0,0,1-2,1.12h0a4.73,4.73,0,0,0,1.81-1.89.72.72,0,0,0-.31-1,.73.73,0,0,0-1,.3,3.38,3.38,0,0,1-1.52,1.47l-.06-.06a3.17,3.17,0,0,0,1.07-1.6.73.73,0,0,0-1.4-.4,1.84,1.84,0,0,1-.79,1,5.83,5.83,0,1,0-3.2,10.71Z" transform="translate(-34.44 -37.49)"/><path class="cls-8" d="M513.55,199.8a9.49,9.49,0,0,0,19,0,1.76,1.76,0,0,0-1.75-1.75H515.3A1.75,1.75,0,0,0,513.55,199.8Z" transform="translate(-34.44 -37.49)"/><path class="cls-11" d="M639,323.58s11.64,46.69,11.83,55.4-.85,28.13-12,32.25-24.7-9.44-27.79-20.07-9.95-58-9.95-58Z" transform="translate(-34.44 -37.49)"/><path class="cls-10" d="M604.54,355.9c-1.93-12.22-3.45-22.72-3.45-22.72l36.83-9.33,1.32,7.21-27.4,26.69Z" transform="translate(-34.44 -37.49)"/><path class="cls-6" d="M612.67,251.73S594.22,295.07,598.33,338l3,7.25a6.52,6.52,0,0,0,4.8,1.55c3.09-.18,36.32-16.61,42.56-21.35,0,0,2.46-2.85,1.77-5.25s-19.77-41.95-23.15-49.92S615.84,253.08,612.67,251.73Z" transform="translate(-34.44 -37.49)"/><path class="cls-11" d="M598.52,350.16s36.19,18.36,40.48,22,12.71,10,11.07,19.74-3.45,20.91-17.42,20.91S607.44,397,600.92,388.41s-19.38-24.7-19.38-24.7Z" transform="translate(-34.44 -37.49)"/><path class="cls-10" d="M595.33,381.18c-4.77-6.11-10.08-12.8-12.48-15.82l17.33-16,4.11,10.29Z" transform="translate(-34.44 -37.49)"/><path class="cls-11" d="M562.51,359.35c0,.63.44,2.3,1.62,2.45s2.69.14,2.69.14,12.95,9.61,14.42,9.71,7.55-1.47,7.55-1.47,2.74.69,3.63,0,4.9-3.14,8.53-6,4.9-5.88,4.7-8.24-1.08-10.19-3.23-13.82-7.75-6.87-11.38-7.85-16.62-3.77-19.31-4.26-3.53-.2-4.37,1-4.65,13.87-4.65,13.87-.25.89.83,1.08a3.89,3.89,0,0,0,3.19-.88s2.64.1,3.62-.83,4.07-3.48,4.07-3.48,3.63,4.5,7.06,5.83a1.32,1.32,0,0,0,.3,1.71l-4.91,4s-4.6-.15-5.78-.1S563.88,355.47,562.51,359.35Z" transform="translate(-34.44 -37.49)"/><path class="cls-10" d="M563,344l-.26.87s-.25.89.83,1.08a4.07,4.07,0,0,0,3.12-.8c-1.12-.4-2.36-.79-3.69-1.15Zm11.36,8.21c-1.28,0-2.67-.06-3.24,0-1.1,0-6.44,2.87-8.25,6.4C569.29,356.83,573.46,354.63,574.33,352.22Z" transform="translate(-34.44 -37.49)"/><path class="cls-14" d="M566.82,361.94s18.78-2,21-2.4a5.62,5.62,0,0,0,4.51-2.84c1.08-1.77,5.2-7.75,5.2-7.75" transform="translate(-34.44 -37.49)"/><line class="cls-15" x1="547.05" y1="309.11" x2="550.72" y2="304.79"/><line class="cls-15" x1="547.34" y1="310.82" x2="552.14" y2="308.91"/><path class="cls-14" d="M574.42,340.77a6.08,6.08,0,0,0,1.27-4.07" transform="translate(-34.44 -37.49)"/><path class="cls-14" d="M574.73,341.13a5.76,5.76,0,0,0,3.56-1.1" transform="translate(-34.44 -37.49)"/><line class="cls-15" x1="542.44" y1="314.8" x2="542.78" y2="315.87"/><line class="cls-15" x1="536.75" y1="323.98" x2="546.65" y2="328.97"/><line class="cls-15" x1="554.35" y1="332.69" x2="551.31" y2="331.66"/><path class="cls-14" d="M581.83,360.29s9.8,1.22,11.12,1.36a7.81,7.81,0,0,0,4.07-1.08,12.12,12.12,0,0,0,1.91-2.11" transform="translate(-34.44 -37.49)"/><line class="cls-15" x1="576.34" y1="318.97" x2="601.93" y2="334.32"/><path class="cls-11" d="M563.32,342.87l-.61,2s-.25.89.83,1.08a3.89,3.89,0,0,0,3.19-.88s2.64.1,3.62-.83c.19-.18.44-.41.74-.67v-.71Z" transform="translate(-34.44 -37.49)"/><path class="cls-11" d="M412.23,316.4s-19.52,44-21.21,52.53-4,27.86,6.27,33.84,26-5,30.83-15,19.8-55.4,19.8-55.4Z" transform="translate(-34.44 -37.49)"/><path class="cls-10" d="M440.6,354.18c4-11.71,7.32-21.79,7.32-21.79l-34.67-15.54-2.55,6.87,19.15,60.11Z" transform="translate(-34.44 -37.49)"/><path class="cls-6" d="M450.56,250.16s10.7,45.87-.75,87.4l-4.23,6.63a6.54,6.54,0,0,1-5,.69c-3-.7-32.92-22.61-38.25-28.36,0,0-1.93-3.24-.84-5.48s26.71-37.91,31.42-45.18S447.19,251,450.56,250.16Z" transform="translate(-34.44 -37.49)"/><path class="cls-11" d="M391.42,395.36s-4.58-12.54-2.35-24.2,28.12-50.78,28.12-50.78l18.49,5.88-3.39,10.1-.33,4.09-3.84,47.34Z" transform="translate(-34.44 -37.49)"/><line class="cls-15" x1="378.55" y1="289.39" x2="362.69" y2="320.97"/><path class="cls-10" d="M433.57,300.65a24.51,24.51,0,0,1,.59-4.87c.51-1.67.94-11.64,2.32-14.19s3.42-3.71,6.84-3,2.47,5.53,2.33,8.44-.73,11.56-.73,11.56Z" transform="translate(-34.44 -37.49)"/><path class="cls-16" d="M446.7,342.44a38.39,38.39,0,0,1-.68-16.72c1.76-8.57,9.27-57.6,9.65-67.4m135.24,74.6c-.44-4.5-1.79-19-1.79-27.95,0-10.63,4.45-52.49,4.45-52.49" transform="translate(-34.44 -37.49)"/><path class="cls-10" d="M419.67,300.17A19.92,19.92,0,0,1,423,298c1.31-.56,7.75-5.52,10.06-6s4.11.18,5.5,2.66-2.15,4.44-4,5.88-7.59,5.62-7.59,5.62Z" transform="translate(-34.44 -37.49)"/><path class="cls-11" d="M417.43,300.87a39,39,0,0,0-3.34,4.8c-.36,1,.58,3.42.58,4.58s-1.09,4.87-1.09,5.67,1.09,3.42,1.09,4.3.07,6.25.15,7.41,3,6.84,3.85,8.81,2,2.91,3.71,3.2a46.85,46.85,0,0,0,9.6-.15c3.44-1,3.75-8.41,2.82-10.43,0,0,6.42-1.57,9.18-2.15s2.11-3.93,2.11-3.93a4.51,4.51,0,0,0,2.77-.29c1.23-.66.87-4.29.87-4.29s3-.58,2.62-4.29c0,0,4.14-.8,4.87-2.26a6.28,6.28,0,0,0-.44-5.53c-1-1.82-11.78-13.82-13.38-14.55s-13.24-4.28-15.42-4.72-3.71.07-4.66,1.6-5.89,12.22-5.89,12.22Zm5.53-1.38c1.85-1.53,4.4-4,5.56-3.79s8.08,3.75,8.08,3.75C434.05,299.38,423,299.49,423,299.49Z" transform="translate(-34.44 -37.49)"/><path class="cls-14" d="M438,328.29s-6.27,1.38-7,1.89-4.08,3.28-4.08,3.28" transform="translate(-34.44 -37.49)"/><line class="cls-15" x1="395.97" y1="293.17" x2="396.01" y2="295.75"/><path class="cls-14" d="M446.09,323a2.31,2.31,0,0,0-1.28-.89c-1-.38-7.87-1.42-8.75-1.56S424,321.84,424,321.84" transform="translate(-34.44 -37.49)"/><path class="cls-14" d="M449.73,318.4a2.35,2.35,0,0,0-1-1.07c-.84-.58-11.24-5.79-12.77-6s-13.09-.66-13.09-.66" transform="translate(-34.44 -37.49)"/><path class="cls-14" d="M452.35,314.11s-8.43-9.76-10.76-11.8-3.23-2.37-5-2.86" transform="translate(-34.44 -37.49)"/><path class="cls-2" d="M402.37,203.62a1.45,1.45,0,0,1,2.89,0v6.49a1.45,1.45,0,1,1-2.89,0v-6.49Zm-9.84,5.27a1.44,1.44,0,1,1,2-2l4.6,4.59a1.45,1.45,0,0,1-2.05,2.05l-4.59-4.6Zm-3.23,10.69a1.45,1.45,0,0,1,0-2.89h6.49a1.45,1.45,0,1,1,0,2.89Zm5.27,9.84a1.43,1.43,0,0,1-2,0,1.45,1.45,0,0,1,0-2l4.59-4.59a1.45,1.45,0,0,1,2.05,2l-4.6,4.59Zm10.69,3.24a1.45,1.45,0,0,1-2.89,0v-6.5a1.45,1.45,0,0,1,2.89,0v6.5Zm9.84-5.28a1.44,1.44,0,1,1-2,2l-4.59-4.59a1.44,1.44,0,0,1,2-2l4.59,4.59Zm3.23-10.69a1.45,1.45,0,1,1,0,2.89h-6.49a1.45,1.45,0,0,1,0-2.89Zm-5.27-9.84a1.45,1.45,0,0,1,2,0,1.43,1.43,0,0,1,0,2l-4.59,4.6a1.45,1.45,0,0,1-2-2.05Z" transform="translate(-34.44 -37.49)"/><path class="cls-2" d="M382.79,254.91v2.91h2.91a2.23,2.23,0,0,1,2.22,2.22h0a2.22,2.22,0,0,1-2.22,2.21h-2.91v2.92a2.22,2.22,0,0,1-2.21,2.21h0a2.22,2.22,0,0,1-2.22-2.21v-2.92h-2.92a2.22,2.22,0,0,1-2.21-2.21h0a2.23,2.23,0,0,1,2.21-2.22h2.92v-2.91a2.23,2.23,0,0,1,2.22-2.22h0A2.23,2.23,0,0,1,382.79,254.91Z" transform="translate(-34.44 -37.49)"/><path class="cls-11" d="M371.48,305s11.64,46.68,11.83,55.4-.86,28.13-12,32.25-24.7-9.44-27.78-20.07-9.95-58-9.95-58Z" transform="translate(-34.44 -37.49)"/><path class="cls-10" d="M337,337.32c-1.93-12.22-3.45-22.72-3.45-22.72l36.82-9.33,1.33,7.2-27.4,26.69Z" transform="translate(-34.44 -37.49)"/><path class="cls-17" d="M256,438.75h90.58c-.34-1.63-.94-4-1.72-6.89-6.68.52-11.79.89-11.79.89l-8.92-37.91,2.9-37.81h0a61.73,61.73,0,0,1-.5-11.48c1.79-22.52,22.7-108.3,22.7-108.3-1.07-2-4.11-4.11-4.11-4.11L287.05,208.8,256,220.59h0L225,208.8l-58.09,24.34s-3,2.15-4.11,4.11c0,0,20.91,85.78,22.7,108.3A61.73,61.73,0,0,1,185,357h0l2.9,37.81-8.92,37.91s-5.11-.37-11.79-.89c-.78,2.9-1.38,5.26-1.72,6.89Z" transform="translate(-34.44 -37.49)"/><path class="cls-18" d="M342.36,232l-7.6-3.18L187.34,388.14l.51,6.7-1.31,5.56L342.36,232ZM326,225.11,186.4,376l-.8-10.53,132.77-143.5Z" transform="translate(-34.44 -37.49)"/><path class="cls-19" d="M325.41,378.42,327.05,357h0a61.73,61.73,0,0,1-.5-11.48c.2-2.42.61-5.58,1.2-9.28L319,322l-13.37-5.49-21.27,4.12L245.13,333,216,327.38l-9.88-9.88-22.3,9.61-.38,4.22c1,5.86,1.74,10.78,2,14.22A61.73,61.73,0,0,1,185,357h0l2.9,37.81,22.55-37.71s3.77-5.84,10.46-5.84h62.78c13.89,0,19.38,5.15,23.67,8.92C310,362.61,319.14,371.94,325.41,378.42Z" transform="translate(-34.44 -37.49)"/><path class="cls-17" d="M250.46,331.32,245.13,333l-5.75-1.12-17.95,19.4H232l18.48-20ZM229,329.89,186.4,376l-.8-10.53,34.47-37.26,9,1.72Zm-41.68,58.25.51,6.7,12.25-20.49Z" transform="translate(-34.44 -37.49)"/><path class="cls-20" d="M225,208.8l-15.08,6.32a45.43,45.43,0,0,0,3.88,10,42.41,42.41,0,0,0,24.73,20.51A56.19,56.19,0,0,0,256,248.27c15.52,0,30.07-5.42,39.31-18.38a45,45,0,0,0,6.82-14.77l-15.08-6.32L256,220.59Z" transform="translate(-34.44 -37.49)"/><path class="cls-8" d="M225,208.8l-10.22,4.28a39.78,39.78,0,0,0,3.6,9.61,37.24,37.24,0,0,0,21.76,18,51.32,51.32,0,0,0,15.9,2.36c13.84,0,26.85-4.65,35.08-16.21a39.73,39.73,0,0,0,6.19-13.79l-10.22-4.28L256,220.59Z" transform="translate(-34.44 -37.49)"/><path class="cls-11" d="M279.47,188.73v12c0,4.17,4,6.64,7.57,8,0,0-2.32,23.47-31,23.47a40.58,40.58,0,0,1-12.55-1.82A26.85,26.85,0,0,1,225,208.8c3.55-1.39,7.57-3.86,7.57-8v-12Z" transform="translate(-34.44 -37.49)"/><path class="cls-10" d="M279.47,188.73v12c0,4.17,4,6.64,7.57,8a26.8,26.8,0,0,1-3.89,10.45l-51.34-15.6a6.11,6.11,0,0,0,.72-2.88v-8.43l28.65-3.61Z" transform="translate(-34.44 -37.49)"/><path class="cls-10" d="M310.31,148.82a13.18,13.18,0,0,1-12.26,14l-.61,0a51.36,51.36,0,0,0,1.48-14l-.16-4C298.41,136.58,309.49,136.67,310.31,148.82Z" transform="translate(-34.44 -37.49)"/><path class="cls-10" d="M200.91,153.37a13.2,13.2,0,0,0,13.39,13c.21,0,.41,0,.61,0a51.66,51.66,0,0,1-2.64-13.85l-.17-4C211.76,140.19,200.73,141.2,200.91,153.37Z" transform="translate(-34.44 -37.49)"/><path class="cls-11" d="M252.43,74.67h0c23.83-1,44.17,18.34,45.19,43l1.7,40.72c1,24.63-17.63,45.59-41.46,46.59h0c-23.83,1-44.17-18.35-45.2-43L211,121.25C209.94,96.62,228.6,75.66,252.43,74.67Z" transform="translate(-34.44 -37.49)"/><path class="cls-10" d="M264.58,76c.55.14,1.1.29,1.64.45C270.05,79.83,283.47,92,295.31,105a45.47,45.47,0,0,1,2.31,12.6l1.06,25.41c-24.57-1.42-33.62-19.05-44.88-30-12.52-12.17-23.42-5.71-23.42-5.71Z" transform="translate(-34.44 -37.49)"/><path class="cls-10" d="M231.71,166.3a6.26,6.26,0,1,1-6.47,6A6.27,6.27,0,0,1,231.71,166.3Z" transform="translate(-34.44 -37.49)"/><path class="cls-10" d="M283.47,168.12a6.26,6.26,0,1,1-6.47,6A6.27,6.27,0,0,1,283.47,168.12Z" transform="translate(-34.44 -37.49)"/><path class="cls-13" d="M260.57,162c-.88,2.38-2.42,6.68-2.31,7.36.17,1,5.16,1.28,6.49-.15.89-.95-.13-4.55-1-6.95C262.47,158.94,261.75,158.76,260.57,162Z" transform="translate(-34.44 -37.49)"/><path class="cls-4" d="M272.94,134.9a1.89,1.89,0,1,0,1.5,3.47s5.76-2.61,11.15.9a1.9,1.9,0,0,0,2.07-3.18C280.55,131.45,273,134.9,272.94,134.9Z" transform="translate(-34.44 -37.49)"/><path class="cls-4" d="M228.3,135a1.89,1.89,0,1,0,1.78,3.33s5.53-3.07,11.19,0a1.9,1.9,0,0,0,1.8-3.34C235.6,131,228.32,135,228.3,135Z" transform="translate(-34.44 -37.49)"/><path class="cls-4" d="M206.06,143.33s5.82-.11,6,5.11a18.19,18.19,0,0,0,2.75-12.25s10.57-13.42,9.46-27.88-12.5-17.07-12.5-17.07C185.07,100.25,205,118.62,206.06,143.33Z" transform="translate(-34.44 -37.49)"/><path class="cls-4" d="M304.35,139.23s-5.81.38-5.59,5.6a18.23,18.23,0,0,1-3.77-12s-11.65-12.5-11.74-27,11-18.06,11-18.06C321.68,94.56,303.32,114.52,304.35,139.23Z" transform="translate(-34.44 -37.49)"/><path class="cls-4" d="M220.09,110.82s4,7,7.22,6.45,4.49-5.09,3.07-9.94c31.05-22.15,35.43,30.94,67.2,28.07,21-1.89,38.2-25.51,26.1-50.77S287.8,47.69,254,52s-43.39,24.75-42.22,39.28S220.09,110.82,220.09,110.82Z" transform="translate(-34.44 -37.49)"/><path class="cls-4" d="M279.23,159.55a5.38,5.38,0,1,1,5.46-5.29A5.37,5.37,0,0,1,279.23,159.55Z" transform="translate(-34.44 -37.49)"/><path class="cls-4" d="M235.89,158.86a5.38,5.38,0,1,1,5.46-5.29A5.37,5.37,0,0,1,235.89,158.86Z" transform="translate(-34.44 -37.49)"/><path class="cls-8" d="M247.77,178.39a9.48,9.48,0,1,0,19,.31,1.75,1.75,0,0,0-1.71-1.78l-15.48-.24A1.74,1.74,0,0,0,247.77,178.39Z" transform="translate(-34.44 -37.49)"/><path class="cls-17" d="M345.14,233.14s-18.45,43.34-14.33,86.22l3,7.26a6.57,6.57,0,0,0,4.8,1.54c3.09-.17,36.33-16.6,42.56-21.34,0,0,2.46-2.85,1.78-5.25s-19.78-41.95-23.16-49.92S348.32,234.5,345.14,233.14Z" transform="translate(-34.44 -37.49)"/><rect class="cls-21" x="168.82" y="252.93" width="105.05" height="98.82"/><rect class="cls-22" x="172.17" y="248.81" width="105.06" height="98.82"/><rect class="cls-23" x="182.68" y="261.12" width="84.04" height="74.21"/><path class="cls-2" d="M301.15,328.17h-1.66l-.06-2.18a.65.65,0,0,0-.67-.59h-8.24a.65.65,0,0,0-.67.61v5.12H286.5v-2.35a.56.56,0,0,0-.19-.43.68.68,0,0,0-.48-.18l-3,0a.64.64,0,0,0-.66.6l0,20.66h-3a.7.7,0,0,0-.48.18.54.54,0,0,0-.19.42v4.31H276v-1.11a.64.64,0,0,0-.67-.6H273.9a.65.65,0,0,0-.66.5V332.77a.59.59,0,0,0-.46-.57l-.72-.23-.14-.06c0-.16,0-.45,0-.57,0-.64,0-1.27,0-1.91a.64.64,0,0,0-.65-.58l-1.11,0L270,317a.62.62,0,0,0-.64-.6l-1.16-.05,0-4.54a.64.64,0,0,0-.66-.6H267a9.94,9.94,0,0,1,0-1.06c0-1.22.08-2.45.11-3.67a.59.59,0,0,0-.2-.44.66.66,0,0,0-.47-.18h-9.89a.64.64,0,0,0-.67.6l0,4.71a1.5,1.5,0,0,0-.88.34.56.56,0,0,0-.3.5v4.37l-1.22,0a.63.63,0,0,0-.64.6v11.8l-1.21,0a.64.64,0,0,0-.64.6l0,2.47h-.6a.64.64,0,0,0-.67.6l0,40.26h51.57V328.17Zm-56.54,44.65V342.59c0-.26,0-.53,0-.79a.88.88,0,0,0-.31-.73,1.22,1.22,0,0,0-.67-.2l-.12,0v-2.42a.61.61,0,0,0-.65-.6h-1.1a6.54,6.54,0,0,1-.06-1.13c0-1.24.06-2.48.07-3.73a6.75,6.75,0,0,0-.05-1.27.9.9,0,0,0-.51-.75l-.05,0,0-.12a5.16,5.16,0,0,1-.06-1.05,9.21,9.21,0,0,0,0-1.05.65.65,0,0,0-.68-.54l-4.92.07a.72.72,0,0,0-.58.31c0-.86,0-1.71,0-2.56a.64.64,0,0,0-.66-.57l-5.28,0a.65.65,0,0,0-.68.6l0,4.82-.1,0a2.05,2.05,0,0,0-.81.4.56.56,0,0,0-.24.46l-.08,6.15-1.06.08a.65.65,0,0,0-.61.54l-.31,2.43a1.3,1.3,0,0,0-.32.14,1.06,1.06,0,0,0-.46.82.38.38,0,0,0,0,.1l0,30.87Zm-24.67,0v-4.43a.57.57,0,0,0-.2-.43.68.68,0,0,0-.48-.18l-1.69.06a.66.66,0,0,0-.45.17v4.81Z" transform="translate(-34.44 -37.49)"/><path class="cls-11" d="M331,331.58s36.2,18.36,40.49,22,12.7,10,11.06,19.73-3.44,20.92-17.41,20.92-25.22-15.78-31.73-24.36S314,345.13,314,345.13Z" transform="translate(-34.44 -37.49)"/><path class="cls-10" d="M327.8,362.6c-4.77-6.12-10.07-12.8-12.48-15.82l17.33-16,4.12,10.29Z" transform="translate(-34.44 -37.49)"/><path class="cls-11" d="M295,340.76c0,.64.45,2.31,1.62,2.45s5.66,0,5.66,0,10.24,5.37,11.71,5.46,6.39-.31,6.39-.31,2.75.69,3.63,0,5.8.08,9.43-2.77,12.25-5,10.63-6.69c-6.38-6.73-7-11.74-9.16-15.37s-7.74-6.86-11.37-7.84-9.8-2-12.5-2.46-3.53-.2-4.36,1-11.48,12.08-11.48,12.08-.24.88.83,1.08c.24,0,15.55-3.24,17.58-3.4,6,1.38,3.3,1.63,3,3.75-.22,1.62-4.76,3.82-7.26,6,0,0-4.61-.15-5.79-.09S296.36,336.89,295,340.76Z" transform="translate(-34.44 -37.49)"/><path class="cls-10" d="M295.45,325.42l-.27.88s-.24.88.83,1.08a4.08,4.08,0,0,0,3.13-.8c-1.13-.4-2.36-.79-3.69-1.16Zm11.35,8.21c-1.27,0-2.66-.05-3.24,0-1.1,0-6.43,2.87-8.25,6.4C301.77,338.25,305.94,336,306.8,333.63Z" transform="translate(-34.44 -37.49)"/><path class="cls-14" d="M299.3,343.36s18.77-2,21-2.4a5.63,5.63,0,0,0,4.51-2.85c1.08-1.76,5.2-7.74,5.2-7.74" transform="translate(-34.44 -37.49)"/><path class="cls-14" d="M309.07,324.29a14.43,14.43,0,0,0,3.82-1.94" transform="translate(-34.44 -37.49)"/><line class="cls-15" x1="274.91" y1="296.21" x2="275.25" y2="297.29"/><line class="cls-15" x1="271.99" y1="305.4" x2="281.5" y2="310.06"/><line class="cls-15" x1="287.54" y1="314.04" x2="284.55" y2="312.37"/><path class="cls-14" d="M314.3,341.71s9.8,1.21,11.13,1.36a7.74,7.74,0,0,0,4.06-1.08,11.88,11.88,0,0,0,1.92-2.11" transform="translate(-34.44 -37.49)"/><line class="cls-15" x1="308.81" y1="300.39" x2="334.41" y2="315.74"/><path class="cls-11" d="M140.53,305s-11.64,46.68-11.83,55.4.85,28.13,12,32.25,24.7-9.44,27.79-20.07,9.95-58,9.95-58Z" transform="translate(-34.44 -37.49)"/><path class="cls-10" d="M175,337.32c1.94-12.22,3.46-22.72,3.46-22.72l-36.83-9.33-1.32,7.2,27.4,26.69Z" transform="translate(-34.44 -37.49)"/><path class="cls-17" d="M166.87,233.14s18.44,43.34,14.33,86.22l-3,7.26a6.54,6.54,0,0,1-4.8,1.54c-3.09-.17-36.32-16.6-42.56-21.34,0,0-2.46-2.85-1.77-5.25s19.77-41.95,23.16-49.92S163.69,234.5,166.87,233.14Z" transform="translate(-34.44 -37.49)"/><path class="cls-11" d="M181,331.58s-36.19,18.36-40.48,22-12.71,10-11.07,19.73,3.45,20.92,17.42,20.92,25.21-15.78,31.73-24.36S198,345.13,198,345.13Z" transform="translate(-34.44 -37.49)"/><path class="cls-10" d="M184.2,362.6c4.77-6.12,10.08-12.8,12.48-15.82l-17.33-16-4.11,10.29Z" transform="translate(-34.44 -37.49)"/><path class="cls-11" d="M217,340.76c0,.64-.44,2.31-1.62,2.45a25.54,25.54,0,0,1-2.69.15c-3.89,3.59-15.73,12.44-20.87,8-.55-.47-.19-1-1.14-1.34-3.79-1.48-9.72-2.57-12.12-4.45a12.51,12.51,0,0,1-4.7-9.78c.08-1,2-3.16,3.46-5.53,1.87-3.05,3.45-6.51,4.66-8.55,2.16-3.63,2.86-5.06,6.49-6s16.62-3.77,19.31-4.27,3.53-.19,4.37,1,4.66,13.88,4.66,13.88.24.88-.84,1.08a3.93,3.93,0,0,1-3.18-.88s-2.65.1-3.63-.84-4.07-3.48-4.07-3.48-3.63,4.51-7.06,5.84a1.32,1.32,0,0,1-.3,1.71l4.91,4s4.61-.15,5.78-.09S215.65,336.89,217,340.76Z" transform="translate(-34.44 -37.49)"/><path class="cls-10" d="M216.56,325.42l.27.88s.24.88-.84,1.08a4.07,4.07,0,0,1-3.12-.8c1.12-.41,2.36-.79,3.69-1.16Zm-11.36,8.21c1.27,0,2.67-.05,3.24,0,1.1,0,6.44,2.87,8.25,6.4C210.23,338.25,206.06,336.05,205.2,333.63Z" transform="translate(-34.44 -37.49)"/><path class="cls-14" d="M212.71,343.36s-16.72-3.17-19-3.56-4.72-4.17-5.8-5.93" transform="translate(-34.44 -37.49)"/><line class="cls-15" x1="163.61" y1="290.52" x2="159.94" y2="286.21"/><line class="cls-15" x1="163.32" y1="292.24" x2="158.52" y2="290.33"/><path class="cls-14" d="M205.11,322.18a6.05,6.05,0,0,1-1.27-4.07" transform="translate(-34.44 -37.49)"/><path class="cls-14" d="M204.8,322.55a5.84,5.84,0,0,1-3.56-1.1" transform="translate(-34.44 -37.49)"/><line class="cls-15" x1="168.22" y1="296.21" x2="167.88" y2="297.29"/><line class="cls-15" x1="173.91" y1="305.4" x2="164.01" y2="310.38"/><line class="cls-15" x1="155.66" y1="312.62" x2="159.87" y2="312.11"/><path class="cls-14" d="M203.75,342s-9.8,1.22-11.12,1.37a7.85,7.85,0,0,1-4.07-1.08,11.7,11.7,0,0,1-1.91-2.11" transform="translate(-34.44 -37.49)"/><line class="cls-15" x1="134.32" y1="300.39" x2="108.73" y2="315.74"/><path class="cls-11" d="M299.65,321.78c-.37,1.21-3.44,3.75-3.44,3.75-2.32,3,5.05,3.17,6.29,2.74,3.85-1.34,8.18-5.43,3.57-6.49Z" transform="translate(-34.44 -37.49)"/><path class="cls-11" d="M216.21,324.29c.38,1.21.62,2,.62,2s.24.88-.84,1.08a3.93,3.93,0,0,1-3.18-.88s-2.65.1-3.63-.84l-.74-.66v-.71Z" transform="translate(-34.44 -37.49)"/><path class="cls-12" d="M322,81.39c-8.15,4.4-18.85,6.3-32.76,2.54C266.2,77.69,246.46,66,228.32,60.49a39.74,39.74,0,0,0-7.39,6.05,64.05,64.05,0,0,1,18,11.32c23.69,20.47,56.83,45,86.71,35.2,3-8.34,2.87-18.25-2-28.43Q322.89,83,322,81.39Z" transform="translate(-34.44 -37.49)"/><path class="cls-24" d="M181.2,319.36s2.32-50.36-10.92-77.05" transform="translate(-34.44 -37.49)"/><path class="cls-24" d="M330.81,319.36s-.85-47,10.47-75.72" transform="translate(-34.44 -37.49)"/><path class="cls-4" d="M518.76,435s62.24,5.76,63.84,5.71,5.07,10.63,4.17,17.06l0,.12H450.7l0-.12c-.9-6.43,2.58-17.11,4.18-17.06S518.76,435,518.76,435Z" transform="translate(-34.44 -37.49)"/><path class="cls-4" d="M134.79,439.73H642.06a11.42,11.42,0,0,1,11.39,11.39h0a11.42,11.42,0,0,1-11.39,11.39H134.79a11.43,11.43,0,0,1-11.39-11.39h0A11.42,11.42,0,0,1,134.79,439.73Z" transform="translate(-34.44 -37.49)"/><path class="cls-12" d="M113.08,423H663.77c6.41,0,11.66,6.32,11.66,14.05h0c0,7.72-5.25,14.05-11.66,14.05H113.08c-6.41,0-11.65-6.33-11.65-14.05h0C101.43,429.34,106.67,423,113.08,423Z" transform="translate(-34.44 -37.49)"/><path class="cls-25" d="M131.61,429.58H383.28c2.9,0,5.27,2.86,5.27,6.35h0c0,3.5-2.37,6.35-5.27,6.35H131.61c-2.9,0-5.27-2.85-5.27-6.35h0C126.34,432.44,128.71,429.58,131.61,429.58Z" transform="translate(-34.44 -37.49)"/><path class="cls-8" d="M591.4,365.26a15.67,15.67,0,1,1-11.1,4.59,15.67,15.67,0,0,1,11.1-4.59Zm7.13,8.56a10.09,10.09,0,1,0,3,7.13A10.05,10.05,0,0,0,598.53,373.82Z" transform="translate(-34.44 -37.49)"/><path class="cls-8" d="M570.42,423h17c4.44,0,5-3.44,5-6.27s-2.41-3.67-2.41-8.13V349.57a4.1,4.1,0,0,0-4.08-4.08H554.85a4.1,4.1,0,0,0-4.08,4.08v59.05c0,4.46-2.41,5.3-2.41,8.13s.58,6.27,5,6.27Z" transform="translate(-34.44 -37.49)"/><path class="cls-26" d="M523,343.51h25.93a3.5,3.5,0,0,1,3.5,3.5v26.75a3.49,3.49,0,0,1-3.49,3.49H523a3.49,3.49,0,0,1-3.49-3.49V347A3.49,3.49,0,0,1,523,343.51Z"/><path class="cls-27" d="M574.77,381v23.56a3.51,3.51,0,0,1-3.49,3.5H554v3.19a3.51,3.51,0,0,0,3.5,3.49h25.92a3.5,3.5,0,0,0,3.5-3.49V384.5a3.51,3.51,0,0,0-3.5-3.5Zm-3.62,12.28a1.86,1.86,0,1,1-1.85,1.85,1.85,1.85,0,0,1,1.85-1.85ZM568,398.75a3.71,3.71,0,1,1-3.71,3.7,3.7,3.7,0,0,1,3.71-3.7Zm-6.46.81a1.31,1.31,0,1,1-1.32,1.31A1.31,1.31,0,0,1,561.53,399.56Z" transform="translate(-34.44 -37.49)"/><path class="cls-28" d="M324.8,423h90.67a9.51,9.51,0,0,0,8.37-6.35l2.73-8.54c1.12-3.5-.82-6.35-4.32-6.35H318c-3.49,0-5.44,2.86-4.32,6.35l2.73,8.54A9.51,9.51,0,0,0,324.8,423Z" transform="translate(-34.44 -37.49)"/><path class="cls-29" d="M344,420.33h67.77a7.12,7.12,0,0,0,6.26-4.74l2-6.39c.83-2.6-.62-4.74-3.23-4.74H338.9c-2.61,0-4.06,2.14-3.23,4.74l2,6.39A7.12,7.12,0,0,0,344,420.33Z" transform="translate(-34.44 -37.49)"/><path class="cls-28" d="M235.67,423h65.5a4.29,4.29,0,0,0,3.77-2.86l1.23-3.84a2,2,0,0,0-1.95-2.86h-71.6a2,2,0,0,0-1.94,2.86l1.23,3.84A4.28,4.28,0,0,0,235.67,423Z" transform="translate(-34.44 -37.49)"/><path class="cls-29" d="M260.58,421.2h40.56a2.66,2.66,0,0,0,2.33-1.77l.76-2.38a1.25,1.25,0,0,0-1.2-1.77H258.69a1.25,1.25,0,0,0-1.21,1.77l.76,2.38A2.66,2.66,0,0,0,260.58,421.2Z" transform="translate(-34.44 -37.49)"/><path class="cls-28" d="M477.26,423h28.57c5.62,0,11.68-4.6,13.47-10.21l4.39-13.74c1.8-5.61-1.33-10.2-6.94-10.2h-50.4c-5.61,0-8.74,4.59-6.94,10.2l4.38,13.74C465.59,418.42,471.65,423,477.26,423Z" transform="translate(-34.44 -37.49)"/><path class="cls-29" d="M484.9,417.82h20.16c4,0,8.24-3.24,9.5-7.21l3.1-9.68c1.26-4-.94-7.21-4.9-7.21H477.2c-4,0-6.16,3.25-4.9,7.21l3.1,9.68C476.66,414.58,480.94,417.82,484.9,417.82Z" transform="translate(-34.44 -37.49)"/><path class="cls-8" d="M181.34,362.86a16.34,16.34,0,1,1-11.55,4.78,16.25,16.25,0,0,1,11.55-4.78Zm7.43,8.91a10.51,10.51,0,1,0,3.07,7.42A10.48,10.48,0,0,0,188.77,371.77Z" transform="translate(-34.44 -37.49)"/><path class="cls-8" d="M159.49,423h17.75c4.62,0,5.23-3.58,5.23-6.53S180,412.66,180,408v-61.5a4.27,4.27,0,0,0-4.25-4.26H143.28a4.27,4.27,0,0,0-4.25,4.26V408c0,4.64-2.51,5.52-2.51,8.47s.6,6.53,5.23,6.53Z" transform="translate(-34.44 -37.49)"/><rect class="cls-26" x="107.91" y="320.79" width="34.29" height="56.12" rx="3.64"/><path class="cls-27" d="M164,358.28v45.51a3.65,3.65,0,0,1-3.64,3.64h-18v3.33A3.65,3.65,0,0,0,146,414.4h27a3.65,3.65,0,0,0,3.64-3.64V361.92a3.64,3.64,0,0,0-3.64-3.64ZM160.25,392a1.93,1.93,0,1,1-1.93,1.93,1.93,1.93,0,0,1,1.93-1.93Zm-3.29,5.7a3.86,3.86,0,1,1-3.86,3.86,3.86,3.86,0,0,1,3.86-3.86Zm4.42-18.13A1.37,1.37,0,1,1,160,381a1.38,1.38,0,0,1,1.36-1.37Zm-11.15,19a1.37,1.37,0,1,1-1.37,1.37,1.36,1.36,0,0,1,1.37-1.37Zm9.46-25.51A2.73,2.73,0,1,1,157,375.8,2.74,2.74,0,0,1,159.69,373.07Z" transform="translate(-34.44 -37.49)"/></svg>