<svg xmlns="http://www.w3.org/2000/svg" width="20.313" height="20.304" viewBox="0 0 20.313 20.304">
  <g id="Group_20" data-name="Group 20" transform="translate(0 0)">
    <path id="Path_80" data-name="Path 80" d="M624.438,218.02a5.393,5.393,0,0,0-1.642-3.467,5.633,5.633,0,0,0-3.724-1.512,73.393,73.393,0,0,0-10.046.112,5.126,5.126,0,0,0-4.394,3.945c-.484,1.728-.389,9.693-.106,11.4a5.143,5.143,0,0,0,4.081,4.43c1.6.414,9.476.361,11.243.074a5.15,5.15,0,0,0,4.449-4.063C624.763,227.168,624.6,219.619,624.438,218.02Zm-1.87,10.15a3.438,3.438,0,0,1-3.233,3.068c-1.638.18-8.955.279-10.475-.146a3.333,3.333,0,0,1-2.526-2.87,68,68,0,0,1,0-10.25,3.434,3.434,0,0,1,3.219-3.055,71.585,71.585,0,0,1,10,.041,3.438,3.438,0,0,1,3.062,3.238A72.875,72.875,0,0,1,622.568,228.169Zm-8.12-10.3a5.208,5.208,0,1,0,5.206,5.211A5.208,5.208,0,0,0,614.448,217.871Zm-.036,8.573a3.368,3.368,0,1,1,3.4-3.338A3.368,3.368,0,0,1,614.413,226.444Zm6.666-8.77a1.219,1.219,0,1,1-1.217-1.223A1.219,1.219,0,0,1,621.079,217.674Z" transform="translate(-604.29 -212.926)" fill="#e2e2e2"/>
    <path id="Path_81" data-name="Path 81" d="M624.438,218.02a5.393,5.393,0,0,0-1.642-3.467,5.633,5.633,0,0,0-3.724-1.512,73.393,73.393,0,0,0-10.046.112,5.126,5.126,0,0,0-4.394,3.945c-.484,1.728-.389,9.693-.106,11.4a5.143,5.143,0,0,0,4.081,4.43c1.6.414,9.476.361,11.243.074a5.15,5.15,0,0,0,4.449-4.063C624.763,227.168,624.6,219.619,624.438,218.02Zm-1.87,10.15a3.438,3.438,0,0,1-3.233,3.068c-1.638.18-8.955.279-10.475-.146a3.333,3.333,0,0,1-2.526-2.87,68,68,0,0,1,0-10.25,3.434,3.434,0,0,1,3.219-3.055,71.585,71.585,0,0,1,10,.041,3.438,3.438,0,0,1,3.062,3.238A72.875,72.875,0,0,1,622.568,228.169Zm-8.12-10.3a5.208,5.208,0,1,0,5.206,5.211A5.208,5.208,0,0,0,614.448,217.871Zm-.036,8.573a3.368,3.368,0,1,1,3.4-3.338A3.368,3.368,0,0,1,614.413,226.444Zm6.666-8.77a1.219,1.219,0,1,1-1.217-1.223A1.219,1.219,0,0,1,621.079,217.674Z" transform="translate(-604.29 -212.926)" fill="#e2e2e2"/>
  </g>
</svg>
