<svg xmlns="http://www.w3.org/2000/svg" width="52.306" height="64.791" viewBox="0 0 52.306 64.791">
  <g id="Group_57" data-name="Group 57" transform="translate(-1965.857 -202.383)">
    <path id="Path_77" data-name="Path 77" d="M2017.94,265.831l-7.224-10.377s-11.077-1.88-18.706,2.448c-8.5-4.328-18.7-2.448-18.7-2.448l-7.224,10.377a1.64,1.64,0,0,0,1.235,2.491H1988.1a3.993,3.993,0,1,0,7.816,0H2016.7A1.64,1.64,0,0,0,2017.94,265.831Z" transform="translate(0 -5.96)" fill="#f48618"/>
    <path id="Path_78" data-name="Path 78" d="M2010.755,231.115a17.688,17.688,0,0,0-12.6-16.5,7.163,7.163,0,1,0-10.124,0,17.687,17.687,0,0,0-12.6,16.5h-.025v12.749c2.784-.336,10.8-.9,17.692,2.6,6.252-3.538,14.79-2.923,17.69-2.587V231.115Z" transform="translate(-1.08)" fill="#ffba31"/>
  </g>
</svg>
