<?xml version="1.0" encoding="utf-8"?>
<!-- Generator: Adobe Illustrator 23.0.4, SVG Export Plug-In . SVG Version: 6.00 Build 0)  -->
<svg version="1.1" id="Слой_1" xmlns="http://www.w3.org/2000/svg" xmlns:xlink="http://www.w3.org/1999/xlink" x="0px" y="0px"
	 viewBox="0 0 561.7 374.5" style="enable-background:new 0 0 561.7 374.5;" xml:space="preserve">
<style type="text/css">
	.st0{fill:none;}
	.st1{fill:#FFFFFF;}
	.st2{display:none;}
	.st3{display:inline;fill:#45469A;}
	.st4{display:none;clip-path:url(#SVGID_2_);}
	.st5{display:inline;fill:#88A2D7;}
	.st6{display:none;clip-path:url(#SVGID_4_);}
	.st7{display:inline;fill:#EEFAF9;}
	.st8{display:none;clip-path:url(#SVGID_7_);}
	.st9{display:none;clip-path:url(#SVGID_9_);}
	.st10{display:none;clip-path:url(#SVGID_11_);}
	.st11{display:inline;fill:#DEF5F2;}
	.st12{display:none;clip-path:url(#SVGID_13_);fill:url(#SVGID_14_);}
	.st13{display:none;clip-path:url(#SVGID_16_);}
	.st14{display:inline;fill:#D585FA;}
	.st15{display:none;clip-path:url(#SVGID_18_);}
	.st16{display:none;clip-path:url(#SVGID_20_);}
	.st17{display:inline;}
	.st18{fill:none;stroke:#D585FA;stroke-miterlimit:10;}
	.st19{display:none;clip-path:url(#SVGID_22_);}
	.st20{display:none;clip-path:url(#SVGID_24_);}
	.st21{fill:none;stroke:#DEF5F2;stroke-miterlimit:10;}
	.st22{clip-path:url(#SVGID_26_);}
	.st23{fill:#88A2D7;}
	.st24{clip-path:url(#SVGID_28_);}
	.st25{fill:#95EAB5;}
	.st26{clip-path:url(#SVGID_30_);}
	.st27{fill:#D585FA;}
	.st28{clip-path:url(#SVGID_32_);}
	.st29{clip-path:url(#SVGID_34_);}
	.st30{clip-path:url(#SVGID_36_);}
	.st31{clip-path:url(#SVGID_38_);}
	.st32{fill:none;stroke:#11FFB9;stroke-miterlimit:10;}
	.st33{clip-path:url(#SVGID_40_);}
	.st34{clip-path:url(#SVGID_42_);}
	.st35{clip-path:url(#SVGID_44_);}
	.st36{clip-path:url(#SVGID_46_);}
	.st37{clip-path:url(#SVGID_48_);}
	.st38{display:none;clip-path:url(#SVGID_50_);}
	.st39{display:none;clip-path:url(#SVGID_52_);}
	.st40{display:none;clip-path:url(#SVGID_54_);}
	.st41{display:none;clip-path:url(#SVGID_56_);}
	.st42{display:none;clip-path:url(#SVGID_58_);}
	.st43{display:none;clip-path:url(#SVGID_60_);}
</style>
<pattern  y="374.5" width="28.8" height="28.8" patternUnits="userSpaceOnUse" id="SVGID_5_" viewBox="2.2 -31 28.8 28.8" style="overflow:visible;">
	<g>
		<rect x="2.2" y="-31" class="st0" width="28.8" height="28.8"/>
		<g>
			<rect x="2.2" y="-31" class="st0" width="28.8" height="28.8"/>
			<g>
				<path class="st1" d="M31-33.1c1.2,0,2.2,1,2.2,2.2c0,1.2-1,2.2-2.2,2.2c-1.2,0-2.2-1-2.2-2.2C28.8-32.1,29.8-33.1,31-33.1z"/>
				<path class="st1" d="M16.6-33.1c1.2,0,2.2,1,2.2,2.2c0,1.2-1,2.2-2.2,2.2s-2.2-1-2.2-2.2C14.4-32.1,15.4-33.1,16.6-33.1z"/>
				<path class="st1" d="M31-18.7c1.2,0,2.2,1,2.2,2.2s-1,2.2-2.2,2.2c-1.2,0-2.2-1-2.2-2.2S29.8-18.7,31-18.7z"/>
				<path class="st1" d="M16.6-18.7c1.2,0,2.2,1,2.2,2.2s-1,2.2-2.2,2.2s-2.2-1-2.2-2.2S15.4-18.7,16.6-18.7z"/>
				<path class="st1" d="M9.4-25.9c1.2,0,2.2,1,2.2,2.2c0,1.2-1,2.2-2.2,2.2s-2.2-1-2.2-2.2C7.2-24.9,8.2-25.9,9.4-25.9z"/>
				<path class="st1" d="M23.8-25.9c1.2,0,2.2,1,2.2,2.2c0,1.2-1,2.2-2.2,2.2s-2.2-1-2.2-2.2C21.6-24.9,22.6-25.9,23.8-25.9z"/>
				<path class="st1" d="M9.4-11.5c1.2,0,2.2,1,2.2,2.2s-1,2.2-2.2,2.2s-2.2-1-2.2-2.2S8.2-11.5,9.4-11.5z"/>
				<path class="st1" d="M23.8-11.5c1.2,0,2.2,1,2.2,2.2s-1,2.2-2.2,2.2s-2.2-1-2.2-2.2S22.6-11.5,23.8-11.5z"/>
			</g>
			<g>
				<path class="st1" d="M2.2-33.1c1.2,0,2.2,1,2.2,2.2c0,1.2-1,2.2-2.2,2.2S0-29.8,0-31C0-32.1,1-33.1,2.2-33.1z"/>
				<path class="st1" d="M2.2-18.7c1.2,0,2.2,1,2.2,2.2s-1,2.2-2.2,2.2S0-15.4,0-16.6S1-18.7,2.2-18.7z"/>
			</g>
			<g>
				<path class="st1" d="M31-4.3c1.2,0,2.2,1,2.2,2.2C33.1-1,32.1,0,31,0c-1.2,0-2.2-1-2.2-2.2S29.8-4.3,31-4.3z"/>
				<path class="st1" d="M16.6-4.3c1.2,0,2.2,1,2.2,2.2c0,1.2-1,2.2-2.2,2.2s-2.2-1-2.2-2.2S15.4-4.3,16.6-4.3z"/>
			</g>
			<g>
				<path class="st1" d="M2.2-4.3c1.2,0,2.2,1,2.2,2.2C4.3-1,3.4,0,2.2,0S0-1,0-2.2C0-3.3,1-4.3,2.2-4.3z"/>
			</g>
		</g>
	</g>
</pattern>
<g id="BACKGROUND" class="st2">
	<rect x="-94.2" y="-57.8" class="st3" width="750" height="500"/>
</g>
<g id="OBJECTS">
	<g>
		
			<image style="overflow:visible;opacity:0.88;enable-background:new    ;" width="2496" height="1750" xlink:href="338636C147B99502.png"  transform="matrix(0.2393 0 0 0.2393 -11.7442 -19.2)">
		</image>
		<g>
			<g>
				<g>
					<defs>
						<rect id="SVGID_1_" width="561.7" height="374.5"/>
					</defs>
					<clipPath id="SVGID_2_">
						<use xlink:href="#SVGID_1_"  style="overflow:visible;"/>
					</clipPath>
					<g class="st4">
						<path class="st5" d="M566.5,105.3L566.5,105.3c4.7,3.4,5.7,9.9,2.3,14.6l-72.3,99.7c-3.4,4.7-9.9,5.7-14.5,2.3l0,0
							c-4.7-3.4-5.7-9.9-2.3-14.6l72.3-99.7C555.4,103,561.9,101.9,566.5,105.3z"/>
					</g>
				</g>
				<g>
					<defs>
						<rect id="SVGID_3_" width="561.7" height="374.5"/>
					</defs>
					<clipPath id="SVGID_4_">
						<use xlink:href="#SVGID_3_"  style="overflow:visible;"/>
					</clipPath>
					<g class="st6">
						<path class="st7" d="M168.2,297.3L168.2,297.3c4.7,3.4,5.7,9.9,2.3,14.5l-72.3,99.7c-3.4,4.7-9.9,5.7-14.6,2.3l0,0
							c-4.7-3.4-5.7-9.9-2.3-14.5l72.3-99.7C157.1,295,163.6,294,168.2,297.3z"/>
					</g>
				</g>
				<g>
					<defs>
						<rect id="SVGID_6_" width="561.7" height="374.5"/>
					</defs>
					<clipPath id="SVGID_7_">
						<use xlink:href="#SVGID_6_"  style="overflow:visible;"/>
					</clipPath>
					<g class="st8">
						<path class="st7" d="M619.6-40.8L619.6-40.8c4.7,3.4,5.7,9.9,2.3,14.5l-72.3,99.7c-3.4,4.7-9.9,5.7-14.5,2.3l0,0
							c-4.7-3.4-5.7-9.9-2.3-14.5L605-38.5C608.4-43.2,614.9-44.2,619.6-40.8z"/>
					</g>
				</g>
				<g>
					<defs>
						<rect id="SVGID_8_" width="561.7" height="374.5"/>
					</defs>
					<clipPath id="SVGID_9_">
						<use xlink:href="#SVGID_8_"  style="overflow:visible;"/>
					</clipPath>
					<g class="st9">
						<path class="st5" d="M429.2,221.8L429.2,221.8c0.8,0.6,1,1.8,0.4,2.6L347.3,338c-0.6,0.8-1.8,1-2.6,0.4l0,0
							c-0.8-0.6-1-1.8-0.4-2.6l82.3-113.6C427.2,221.4,428.4,221.2,429.2,221.8z"/>
					</g>
				</g>
				<g>
					<defs>
						<rect id="SVGID_10_" width="561.7" height="374.5"/>
					</defs>
					<clipPath id="SVGID_11_">
						<use xlink:href="#SVGID_10_"  style="overflow:visible;"/>
					</clipPath>
					<g class="st10">
						<circle class="st11" cx="369.7" cy="187.2" r="92.9"/>
					</g>
				</g>
				<g>
					<defs>
						<rect id="SVGID_12_" width="561.7" height="374.5"/>
					</defs>
					<clipPath id="SVGID_13_">
						<use xlink:href="#SVGID_12_"  style="overflow:visible;"/>
					</clipPath>
					<pattern  id="SVGID_14_" xlink:href="#SVGID_5_" patternTransform="matrix(0.7202 0 0 -0.7202 -4445.0469 -11505.0586)">
					</pattern>
					<circle class="st12" cx="412" cy="239.6" r="39.3"/>
				</g>
				<g>
					<defs>
						<rect id="SVGID_15_" width="561.7" height="374.5"/>
					</defs>
					<clipPath id="SVGID_16_">
						<use xlink:href="#SVGID_15_"  style="overflow:visible;"/>
					</clipPath>
					<g class="st13">
						<polygon class="st14" points="246.4,302.3 190,400 302.8,400 246.4,302.3 190,400 302.8,400 						"/>
					</g>
				</g>
				<g>
					<defs>
						<rect id="SVGID_17_" width="561.7" height="374.5"/>
					</defs>
					<clipPath id="SVGID_18_">
						<use xlink:href="#SVGID_17_"  style="overflow:visible;"/>
					</clipPath>
					<g class="st15">
						<polygon class="st7" points="465.2,82.8 367.5,26.3 367.5,139.2 465.2,82.8 367.5,26.3 367.5,139.2 						"/>
					</g>
				</g>
				<g>
					<defs>
						<rect id="SVGID_19_" width="561.7" height="374.5"/>
					</defs>
					<clipPath id="SVGID_20_">
						<use xlink:href="#SVGID_19_"  style="overflow:visible;"/>
					</clipPath>
					<g class="st16">
						<g class="st17">
							<path class="st18" d="M578.8,278.9c-5.8,28.5-31.1,50-61.3,50s-55.5-21.5-61.3-50h-10.5c5.9,34.2,35.9,60.4,71.8,60.4
								c35.9,0,65.8-26.1,71.8-60.4H578.8z"/>
						</g>
					</g>
				</g>
				<g>
					<defs>
						<rect id="SVGID_21_" width="561.7" height="374.5"/>
					</defs>
					<clipPath id="SVGID_22_">
						<use xlink:href="#SVGID_21_"  style="overflow:visible;"/>
					</clipPath>
					<g class="st19">
						<g class="st17">
							<path class="st18" d="M313.3,279.6c-16.7-3.4-29.3-18.2-29.3-35.9s12.6-32.5,29.3-35.9v-6.2c-20.1,3.5-35.4,21-35.4,42.1
								s15.3,38.6,35.4,42.1L313.3,279.6L313.3,279.6z"/>
						</g>
					</g>
				</g>
				<g>
					<defs>
						<rect id="SVGID_23_" width="561.7" height="374.5"/>
					</defs>
					<clipPath id="SVGID_24_">
						<use xlink:href="#SVGID_23_"  style="overflow:visible;"/>
					</clipPath>
					<g class="st20">
						<g class="st17">
							<path class="st21" d="M542.5,4.9c-3.4,16.7-18.2,29.3-35.9,29.3c-17.7,0-32.5-12.6-35.9-29.3h-6.2
								c3.5,20.1,21,35.4,42.1,35.4S545.2,25,548.7,4.9C548.7,4.9,542.5,4.9,542.5,4.9z"/>
						</g>
					</g>
				</g>
				<g>
					<defs>
						<rect id="SVGID_25_" width="561.7" height="374.5"/>
					</defs>
					<clipPath id="SVGID_26_">
						<use xlink:href="#SVGID_25_"  style="overflow:visible;"/>
					</clipPath>
					<g class="st22">
						<path class="st23" d="M410.5,124.8L410.5,124.8c-1.5-1.1-1.8-3.2-0.7-4.6l20.1-27.7c1.1-1.5,3.1-1.8,4.6-0.7l0,0
							c1.5,1.1,1.8,3.2,0.7,4.6l-20.1,27.7C414,125.6,412,125.9,410.5,124.8z"/>
					</g>
				</g>
				<g>
					<defs>
						<rect id="SVGID_27_" width="561.7" height="374.5"/>
					</defs>
					<clipPath id="SVGID_28_">
						<use xlink:href="#SVGID_27_"  style="overflow:visible;"/>
					</clipPath>
					<g class="st24">
						<path class="st25" d="M388.3,313.8L388.3,313.8c-1.5-1.1-1.8-3.1-0.7-4.6l20.1-27.7c1.1-1.5,3.1-1.8,4.6-0.7l0,0
							c1.5,1.1,1.8,3.1,0.7,4.6L393,313.1C391.9,314.6,389.8,314.9,388.3,313.8z"/>
					</g>
				</g>
				<g>
					<defs>
						<rect id="SVGID_29_" width="561.7" height="374.5"/>
					</defs>
					<clipPath id="SVGID_30_">
						<use xlink:href="#SVGID_29_"  style="overflow:visible;"/>
					</clipPath>
					<g class="st26">
						<path class="st27" d="M311.6,47.1L311.6,47.1c-1.5-1.1-1.8-3.2-0.7-4.6l20.1-27.7c1.1-1.5,3.1-1.8,4.6-0.7l0,0
							c1.5,1.1,1.8,3.1,0.7,4.6l-20.1,27.7C315.1,47.8,313,48.2,311.6,47.1z"/>
					</g>
				</g>
				<g>
					<defs>
						<rect id="SVGID_31_" width="561.7" height="374.5"/>
					</defs>
					<clipPath id="SVGID_32_">
						<use xlink:href="#SVGID_31_"  style="overflow:visible;"/>
					</clipPath>
					<g class="st28">
						<path class="st25" d="M206.9,292.2L206.9,292.2c-1.5-1.1-1.8-3.1-0.7-4.6l20.1-27.7c1.1-1.5,3.1-1.8,4.6-0.7l0,0
							c1.5,1.1,1.8,3.1,0.7,4.6l-20.1,27.7C210.5,293,208.4,293.3,206.9,292.2z"/>
					</g>
				</g>
				<g>
					<defs>
						<rect id="SVGID_33_" width="561.7" height="374.5"/>
					</defs>
					<clipPath id="SVGID_34_">
						<use xlink:href="#SVGID_33_"  style="overflow:visible;"/>
					</clipPath>
					<g class="st29">
						<path class="st25" d="M481.4,290.5L481.4,290.5c-1.5-1.1-1.8-3.1-0.7-4.6l20.1-27.7c1.1-1.5,3.1-1.8,4.6-0.7l0,0
							c1.5,1.1,1.8,3.1,0.7,4.6l-20.1,27.7C485,291.2,482.9,291.5,481.4,290.5z"/>
					</g>
				</g>
				<g>
					<defs>
						<rect id="SVGID_35_" width="561.7" height="374.5"/>
					</defs>
					<clipPath id="SVGID_36_">
						<use xlink:href="#SVGID_35_"  style="overflow:visible;"/>
					</clipPath>
					<g class="st30">
						<path class="st25" d="M478.3,125c0,4-3.2,7.2-7.1,7.2c-4,0-7.1-3.2-7.1-7.2c0-3.9,3.2-7.2,7.1-7.2
							C475.1,117.8,478.3,121,478.3,125z"/>
					</g>
				</g>
				<g>
					<defs>
						<rect id="SVGID_37_" width="561.7" height="374.5"/>
					</defs>
					<clipPath id="SVGID_38_">
						<use xlink:href="#SVGID_37_"  style="overflow:visible;"/>
					</clipPath>
					<g class="st31">
						<path class="st32" d="M314.1,322.2c0,4-3.2,7.1-7.1,7.1c-4,0-7.1-3.2-7.1-7.1c0-4,3.2-7.1,7.1-7.1
							C310.9,315.1,314.1,318.3,314.1,322.2z"/>
					</g>
				</g>
				<g>
					<defs>
						<rect id="SVGID_39_" width="561.7" height="374.5"/>
					</defs>
					<clipPath id="SVGID_40_">
						<use xlink:href="#SVGID_39_"  style="overflow:visible;"/>
					</clipPath>
					<g class="st33">
						
							<ellipse transform="matrix(0.2298 -0.9732 0.9732 0.2298 306.7789 576.3117)" class="st32" cx="517.5" cy="94.3" rx="7.2" ry="7.2"/>
					</g>
				</g>
				<g>
					<defs>
						<rect id="SVGID_41_" width="561.7" height="374.5"/>
					</defs>
					<clipPath id="SVGID_42_">
						<use xlink:href="#SVGID_41_"  style="overflow:visible;"/>
					</clipPath>
					<g class="st34">
						<circle class="st23" cx="190" cy="342.4" r="3"/>
					</g>
				</g>
				<g>
					<defs>
						<rect id="SVGID_43_" width="561.7" height="374.5"/>
					</defs>
					<clipPath id="SVGID_44_">
						<use xlink:href="#SVGID_43_"  style="overflow:visible;"/>
					</clipPath>
					<g class="st35">
						<circle class="st27" cx="526.3" cy="297.3" r="3"/>
					</g>
				</g>
				<g>
					<defs>
						<rect id="SVGID_45_" width="561.7" height="374.5"/>
					</defs>
					<clipPath id="SVGID_46_">
						<use xlink:href="#SVGID_45_"  style="overflow:visible;"/>
					</clipPath>
					<g class="st36">
						<path class="st27" d="M342.8,71.2c0,3.2-2.6,5.8-5.8,5.8c-3.2,0-5.8-2.6-5.8-5.8c0-3.2,2.6-5.8,5.8-5.8
							C340.2,65.4,342.8,68,342.8,71.2z"/>
					</g>
				</g>
				<g>
					<defs>
						<rect id="SVGID_47_" width="561.7" height="374.5"/>
					</defs>
					<clipPath id="SVGID_48_">
						<use xlink:href="#SVGID_47_"  style="overflow:visible;"/>
					</clipPath>
					<g class="st37">
						<path class="st32" d="M538.3,212c0,3.2-2.6,5.8-5.8,5.8s-5.8-2.6-5.8-5.8c0-3.2,2.6-5.8,5.8-5.8S538.3,208.8,538.3,212z"/>
					</g>
				</g>
				<g>
					<defs>
						<rect id="SVGID_49_" width="561.7" height="374.5"/>
					</defs>
					<clipPath id="SVGID_50_">
						<use xlink:href="#SVGID_49_"  style="overflow:visible;"/>
					</clipPath>
					<g class="st38">
						
							<ellipse transform="matrix(0.1602 -0.9871 0.9871 0.1602 55.4486 808.0521)" class="st5" cx="502.6" cy="371.4" rx="19.5" ry="19.5"/>
					</g>
				</g>
				<g>
					<defs>
						<rect id="SVGID_51_" width="561.7" height="374.5"/>
					</defs>
					<clipPath id="SVGID_52_">
						<use xlink:href="#SVGID_51_"  style="overflow:visible;"/>
					</clipPath>
					<g class="st39">
						<g class="st17">
							<path class="st25" d="M274.7,103.6c0,1.1-0.9,2-2,2s-2-0.9-2-2c0-1.1,0.9-2,2-2S274.7,102.5,274.7,103.6z"/>
							<path class="st25" d="M284.8,103.6c0,1.1-0.9,2-2,2s-2-0.9-2-2c0-1.1,0.9-2,2-2S284.8,102.5,284.8,103.6z"/>
							<path class="st25" d="M294.9,103.6c0,1.1-0.9,2-2,2s-2-0.9-2-2c0-1.1,0.9-2,2-2C294,101.6,294.9,102.5,294.9,103.6z"/>
							<path class="st25" d="M305,103.6c0,1.1-0.9,2-2,2s-2-0.9-2-2c0-1.1,0.9-2,2-2S305,102.5,305,103.6z"/>
							<path class="st25" d="M315,103.6c0,1.1-0.9,2-2,2s-2-0.9-2-2c0-1.1,0.9-2,2-2C314.2,101.6,315,102.5,315,103.6z"/>
						</g>
						<g class="st17">
							<path class="st25" d="M274.7,112.1c0,1.1-0.9,2-2,2s-2-0.9-2-2c0-1.1,0.9-2,2-2S274.7,111,274.7,112.1z"/>
							<path class="st25" d="M284.8,112.1c0,1.1-0.9,2-2,2s-2-0.9-2-2c0-1.1,0.9-2,2-2S284.8,111,284.8,112.1z"/>
							<path class="st25" d="M294.9,112.1c0,1.1-0.9,2-2,2s-2-0.9-2-2c0-1.1,0.9-2,2-2C294,110.2,294.9,111,294.9,112.1z"/>
							<path class="st25" d="M305,112.1c0,1.1-0.9,2-2,2s-2-0.9-2-2c0-1.1,0.9-2,2-2C304.1,110.2,305,111,305,112.1z"/>
							<path class="st25" d="M315,112.1c0,1.1-0.9,2-2,2s-2-0.9-2-2c0-1.1,0.9-2,2-2C314.2,110.2,315,111,315,112.1z"/>
						</g>
						<g class="st17">
							<circle class="st25" cx="272.7" cy="120.7" r="2"/>
							<circle class="st25" cx="282.8" cy="120.7" r="2"/>
							<path class="st25" d="M294.9,120.7c0,1.1-0.9,2-2,2s-2-0.9-2-2c0-1.1,0.9-2,2-2C294,118.7,294.9,119.6,294.9,120.7z"/>
							<path class="st25" d="M305,120.7c0,1.1-0.9,2-2,2s-2-0.9-2-2c0-1.1,0.9-2,2-2S305,119.6,305,120.7z"/>
							<path class="st25" d="M315,120.7c0,1.1-0.9,2-2,2s-2-0.9-2-2c0-1.1,0.9-2,2-2C314.2,118.7,315,119.6,315,120.7z"/>
						</g>
						<g class="st17">
							<circle class="st25" cx="272.7" cy="129.2" r="2"/>
							<circle class="st25" cx="282.8" cy="129.2" r="2"/>
							<path class="st25" d="M294.9,129.2c0,1.1-0.9,2-2,2s-2-0.9-2-2s0.9-2,2-2C294,127.3,294.9,128.1,294.9,129.2z"/>
							<path class="st25" d="M305,129.2c0,1.1-0.9,2-2,2s-2-0.9-2-2s0.9-2,2-2S305,128.1,305,129.2z"/>
							<path class="st25" d="M315,129.2c0,1.1-0.9,2-2,2s-2-0.9-2-2s0.9-2,2-2C314.2,127.3,315,128.1,315,129.2z"/>
						</g>
						<g class="st17">
							<path class="st25" d="M274.7,137.8c0,1.1-0.9,2-2,2s-2-0.9-2-2s0.9-2,2-2S274.7,136.7,274.7,137.8z"/>
							<path class="st25" d="M284.8,137.8c0,1.1-0.9,2-2,2s-2-0.9-2-2s0.9-2,2-2S284.8,136.7,284.8,137.8z"/>
							<path class="st25" d="M294.9,137.8c0,1.1-0.9,2-2,2s-2-0.9-2-2s0.9-2,2-2C294,135.8,294.9,136.7,294.9,137.8z"/>
							<path class="st25" d="M305,137.8c0,1.1-0.9,2-2,2s-2-0.9-2-2s0.9-2,2-2S305,136.7,305,137.8z"/>
							<path class="st25" d="M315,137.8c0,1.1-0.9,2-2,2s-2-0.9-2-2s0.9-2,2-2C314.2,135.8,315,136.7,315,137.8z"/>
						</g>
						<g class="st17">
							<path class="st25" d="M274.7,146.4c0,1.1-0.9,2-2,2s-2-0.9-2-2s0.9-2,2-2S274.7,145.3,274.7,146.4z"/>
							<path class="st25" d="M284.8,146.4c0,1.1-0.9,2-2,2s-2-0.9-2-2s0.9-2,2-2S284.8,145.3,284.8,146.4z"/>
							<path class="st25" d="M294.9,146.4c0,1.1-0.9,2-2,2s-2-0.9-2-2s0.9-2,2-2C294,144.4,294.9,145.3,294.9,146.4z"/>
							<path class="st25" d="M305,146.4c0,1.1-0.9,2-2,2s-2-0.9-2-2s0.9-2,2-2C304.1,144.4,305,145.3,305,146.4z"/>
							<path class="st25" d="M315,146.4c0,1.1-0.9,2-2,2s-2-0.9-2-2s0.9-2,2-2C314.2,144.4,315,145.3,315,146.4z"/>
						</g>
					</g>
				</g>
				<g>
					<defs>
						<rect id="SVGID_53_" width="561.7" height="374.5"/>
					</defs>
					<clipPath id="SVGID_54_">
						<use xlink:href="#SVGID_53_"  style="overflow:visible;"/>
					</clipPath>
					<g class="st40">
						<g class="st17">
							<g>
								<path class="st23" d="M393.4,338.3c0,1.2-1,2.3-2.3,2.3s-2.3-1-2.3-2.3s1-2.3,2.3-2.3C392.4,336,393.4,337,393.4,338.3z"/>
								<circle class="st23" cx="402.7" cy="338.3" r="2.3"/>
								<circle class="st23" cx="414.3" cy="338.3" r="2.3"/>
								<path class="st23" d="M428.1,338.3c0,1.2-1,2.3-2.3,2.3s-2.3-1-2.3-2.3s1-2.3,2.3-2.3C427.1,336,428.1,337,428.1,338.3z"/>
								<circle class="st23" cx="437.4" cy="338.3" r="2.3"/>
							</g>
							<g>
								<path class="st23" d="M393.4,348.1c0,1.2-1,2.3-2.3,2.3s-2.3-1-2.3-2.3s1-2.3,2.3-2.3C392.4,345.8,393.4,346.9,393.4,348.1z
									"/>
								<path class="st23" d="M405,348.1c0,1.2-1,2.3-2.3,2.3s-2.3-1-2.3-2.3s1-2.3,2.3-2.3S405,346.9,405,348.1z"/>
								<path class="st23" d="M416.5,348.1c0,1.2-1,2.3-2.3,2.3s-2.3-1-2.3-2.3s1-2.3,2.3-2.3S416.5,346.9,416.5,348.1z"/>
								<path class="st23" d="M428.1,348.1c0,1.2-1,2.3-2.3,2.3s-2.3-1-2.3-2.3s1-2.3,2.3-2.3C427.1,345.8,428.1,346.9,428.1,348.1z
									"/>
								<path class="st23" d="M439.6,348.1c0,1.2-1,2.3-2.3,2.3s-2.3-1-2.3-2.3s1-2.3,2.3-2.3S439.6,346.9,439.6,348.1z"/>
							</g>
							<g>
								<path class="st23" d="M393.4,357.9c0,1.2-1,2.3-2.3,2.3s-2.3-1-2.3-2.3s1-2.3,2.3-2.3C392.4,355.6,393.4,356.6,393.4,357.9z
									"/>
								<circle class="st23" cx="402.7" cy="357.9" r="2.3"/>
								<circle class="st23" cx="414.3" cy="357.9" r="2.3"/>
								<path class="st23" d="M428.1,357.9c0,1.2-1,2.3-2.3,2.3s-2.3-1-2.3-2.3s1-2.3,2.3-2.3C427.1,355.6,428.1,356.6,428.1,357.9z
									"/>
								<circle class="st23" cx="437.4" cy="357.9" r="2.3"/>
							</g>
							<g>
								<path class="st23" d="M393.4,367.7c0,1.2-1,2.3-2.3,2.3s-2.3-1-2.3-2.3s1-2.3,2.3-2.3C392.4,365.4,393.4,366.5,393.4,367.7z
									"/>
								<circle class="st23" cx="402.7" cy="367.7" r="2.3"/>
								<circle class="st23" cx="414.3" cy="367.7" r="2.3"/>
								<path class="st23" d="M428.1,367.7c0,1.2-1,2.3-2.3,2.3s-2.3-1-2.3-2.3s1-2.3,2.3-2.3C427.1,365.4,428.1,366.5,428.1,367.7z
									"/>
								<circle class="st23" cx="437.4" cy="367.7" r="2.3"/>
							</g>
							<g>
								<path class="st23" d="M393.4,377.5c0,1.2-1,2.3-2.3,2.3s-2.3-1-2.3-2.3s1-2.3,2.3-2.3C392.4,375.2,393.4,376.3,393.4,377.5z
									"/>
								<circle class="st23" cx="402.7" cy="377.5" r="2.3"/>
								<circle class="st23" cx="414.3" cy="377.5" r="2.3"/>
								<path class="st23" d="M428.1,377.5c0,1.2-1,2.3-2.3,2.3s-2.3-1-2.3-2.3s1-2.3,2.3-2.3C427.1,375.2,428.1,376.3,428.1,377.5z
									"/>
								<circle class="st23" cx="437.4" cy="377.5" r="2.3"/>
							</g>
							<g>
								<path class="st23" d="M393.4,387.3c0,1.2-1,2.3-2.3,2.3s-2.3-1-2.3-2.3s1-2.3,2.3-2.3C392.4,385,393.4,386.1,393.4,387.3z"
									/>
								<circle class="st23" cx="402.7" cy="387.3" r="2.3"/>
								<circle class="st23" cx="414.3" cy="387.3" r="2.3"/>
								<path class="st23" d="M428.1,387.3c0,1.2-1,2.3-2.3,2.3s-2.3-1-2.3-2.3s1-2.3,2.3-2.3C427.1,385,428.1,386.1,428.1,387.3z"
									/>
								<circle class="st23" cx="437.4" cy="387.3" r="2.3"/>
							</g>
						</g>
					</g>
				</g>
				<g>
					<defs>
						<rect id="SVGID_55_" width="561.7" height="374.5"/>
					</defs>
					<clipPath id="SVGID_56_">
						<use xlink:href="#SVGID_55_"  style="overflow:visible;"/>
					</clipPath>
					<g class="st41">
						<g class="st17">
							<g>
								<path class="st23" d="M528.2,246c0,1.1-0.9,2-2,2c-1.1,0-2-0.9-2-2s0.9-2,2-2C527.3,244,528.2,244.9,528.2,246z"/>
								<path class="st23" d="M538.3,246c0,1.1-0.9,2-2,2c-1.1,0-2-0.9-2-2s0.9-2,2-2C537.4,244,538.3,244.9,538.3,246z"/>
								<path class="st23" d="M548.4,246c0,1.1-0.9,2-2,2c-1.1,0-2-0.9-2-2s0.9-2,2-2C547.5,244,548.4,244.9,548.4,246z"/>
								<path class="st23" d="M558.5,246c0,1.1-0.9,2-2,2c-1.1,0-2-0.9-2-2s0.9-2,2-2C557.6,244,558.5,244.9,558.5,246z"/>
								<path class="st23" d="M568.6,246c0,1.1-0.9,2-2,2c-1.1,0-2-0.9-2-2s0.9-2,2-2C567.7,244,568.6,244.9,568.6,246z"/>
							</g>
							<g>
								<path class="st23" d="M528.2,254.5c0,1.1-0.9,2-2,2c-1.1,0-2-0.9-2-2s0.9-2,2-2S528.2,253.4,528.2,254.5z"/>
								<path class="st23" d="M538.3,254.5c0,1.1-0.9,2-2,2c-1.1,0-2-0.9-2-2s0.9-2,2-2C537.4,252.5,538.3,253.4,538.3,254.5z"/>
								<circle class="st23" cx="546.4" cy="254.5" r="2"/>
								<circle class="st23" cx="556.5" cy="254.5" r="2"/>
								<circle class="st23" cx="566.6" cy="254.5" r="2"/>
							</g>
							<g>
								<path class="st23" d="M528.2,263.1c0,1.1-0.9,2-2,2c-1.1,0-2-0.9-2-2s0.9-2,2-2S528.2,262,528.2,263.1z"/>
								<path class="st23" d="M538.3,263.1c0,1.1-0.9,2-2,2c-1.1,0-2-0.9-2-2s0.9-2,2-2C537.4,261.1,538.3,262,538.3,263.1z"/>
								<circle class="st23" cx="546.4" cy="263.1" r="2"/>
								<circle class="st23" cx="556.5" cy="263.1" r="2"/>
								<circle class="st23" cx="566.6" cy="263.1" r="2"/>
							</g>
						</g>
					</g>
				</g>
				<g>
					<defs>
						<rect id="SVGID_57_" width="561.7" height="374.5"/>
					</defs>
					<clipPath id="SVGID_58_">
						<use xlink:href="#SVGID_57_"  style="overflow:visible;"/>
					</clipPath>
					<g class="st42">
						<g class="st17">
							<g>
								<path class="st23" d="M441.5-15.2c-1.1,0-2-0.9-2-2s0.9-2,2-2s2,0.9,2,2C443.5-16.1,442.6-15.2,441.5-15.2z"/>
								<path class="st23" d="M441.5-5.2c-1.1,0-2-0.9-2-2s0.9-2,2-2s2,0.9,2,2C443.5-6.1,442.6-5.2,441.5-5.2z"/>
								<path class="st23" d="M441.5,4.9c-1.1,0-2-0.9-2-2s0.9-2,2-2s2,0.9,2,2C443.5,4,442.6,4.9,441.5,4.9z"/>
								<path class="st23" d="M441.5,15c-1.1,0-2-0.9-2-2s0.9-2,2-2s2,0.9,2,2C443.5,14.1,442.6,15,441.5,15z"/>
								<path class="st23" d="M441.5,25.1c-1.1,0-2-0.9-2-2s0.9-2,2-2s2,0.9,2,2C443.5,24.2,442.6,25.1,441.5,25.1z"/>
							</g>
							<g>
								<path class="st23" d="M433-15.2c-1.1,0-2-0.9-2-2s0.9-2,2-2s2,0.9,2,2S434.1-15.2,433-15.2z"/>
								<path class="st23" d="M433-5.2c-1.1,0-2-0.9-2-2s0.9-2,2-2s2,0.9,2,2C435-6.1,434.1-5.2,433-5.2z"/>
								<path class="st23" d="M433,4.9c-1.1,0-2-0.9-2-2s0.9-2,2-2s2,0.9,2,2S434.1,4.9,433,4.9z"/>
								<path class="st23" d="M433,15c-1.1,0-2-0.9-2-2s0.9-2,2-2s2,0.9,2,2C435,14.1,434.1,15,433,15z"/>
								<path class="st23" d="M433,25.1c-1.1,0-2-0.9-2-2s0.9-2,2-2s2,0.9,2,2S434.1,25.1,433,25.1z"/>
							</g>
							<g>
								<path class="st23" d="M424.4-15.2c-1.1,0-2-0.9-2-2s0.9-2,2-2s2,0.9,2,2S425.5-15.2,424.4-15.2z"/>
								<path class="st23" d="M424.4-5.2c-1.1,0-2-0.9-2-2s0.9-2,2-2s2,0.9,2,2C426.4-6.1,425.5-5.2,424.4-5.2z"/>
								<path class="st23" d="M424.4,4.9c-1.1,0-2-0.9-2-2s0.9-2,2-2s2,0.9,2,2S425.5,4.9,424.4,4.9z"/>
								<path class="st23" d="M424.4,15c-1.1,0-2-0.9-2-2s0.9-2,2-2s2,0.9,2,2C426.4,14.1,425.5,15,424.4,15z"/>
								<path class="st23" d="M424.4,25.1c-1.1,0-2-0.9-2-2s0.9-2,2-2s2,0.9,2,2S425.5,25.1,424.4,25.1z"/>
							</g>
						</g>
					</g>
				</g>
				<g>
					<defs>
						<rect id="SVGID_59_" width="561.7" height="374.5"/>
					</defs>
					<clipPath id="SVGID_60_">
						<use xlink:href="#SVGID_59_"  style="overflow:visible;"/>
					</clipPath>
					<g class="st43">
						<path class="st14" d="M493.6,58.5L493.6,58.5c0.8,0.6,1,1.8,0.4,2.6l-82.3,113.6c-0.6,0.8-1.8,1-2.6,0.4l0,0
							c-0.8-0.6-1-1.8-0.4-2.6L491,58.9C491.6,58.1,492.8,57.9,493.6,58.5z"/>
					</g>
				</g>
			</g>
		</g>
	</g>
</g>
<g id="DESIGNED_BY_FREEPIK" class="st2">
	<g class="st17">
		<g id="XMLID_319_">
			<g id="XMLID_338_">
				<path id="XMLID_346_" d="M290.9,407.7c-0.4,0.4-0.8,0.9-1.1,1.5l-0.5-0.2c-0.1-0.3-0.4-0.5-0.7-0.5c-0.3,0-0.6,0.3-0.5,0.7
					c0,0.3,0.3,0.6,0.7,0.5c0.1,0,0.1,0,0.2,0l0.5,0.2c-0.2,0.5-0.4,1.1-0.5,1.7l0.8,0.1c0.2-1.3,0.9-2.5,1.8-3.5L290.9,407.7z"/>
				<path id="XMLID_345_" d="M296.4,405.4c-0.2,0-0.3,0-0.5,0l-0.1-0.6c0.2-0.1,0.3-0.4,0.3-0.6c0-0.4-0.4-0.7-0.8-0.6
					c-0.4,0-0.7,0.4-0.6,0.8c0,0.2,0.2,0.5,0.4,0.6l0.1,0.6c-0.7,0.1-1.4,0.3-2.1,0.6l0.3,0.7c0.9-0.5,1.9-0.7,3-0.7
					c0.5,0,1,0,1.5,0.2l0.2-0.7C297.5,405.5,297,405.4,296.4,405.4z"/>
				<path id="XMLID_344_" d="M303,407.9c0.3,0,0.6-0.3,0.5-0.7c0-0.3-0.3-0.6-0.7-0.5c-0.3,0-0.5,0.3-0.5,0.6l-0.4,0.4
					c-0.4-0.4-0.9-0.8-1.4-1.1l-0.4,0.6c1.1,0.7,2,1.7,2.6,2.9l0.7-0.3c-0.2-0.5-0.6-1.1-0.9-1.5l0.4-0.4
					C302.9,407.9,303,407.9,303,407.9z"/>
				<path id="XMLID_343_" d="M295.9,415.6c-0.4,0-0.8,0-1.2,0c-0.9,0-1.7-0.1-2.5-0.2c-0.4-0.1-0.9-0.1-1.3-0.3
					c1,1.9,3.1,3.1,5.4,3.1c2.9,0,5.3-1.9,6-4.5c-0.7,0.5-1.5,0.8-2.5,1.1C298.7,415.3,297.3,415.5,295.9,415.6z"/>
				<path id="XMLID_339_" d="M296.4,406.9c-3.4,0-6.1,2.7-6.1,5.9c0,0.4,0,0.9,0.1,1.3c0.7,0.5,2.7,0.9,5.4,0.7
					c2.9-0.2,5.3-1,6.7-2.2c0-0.2,0-0.4,0-0.6C302.1,409.1,299.5,406.9,296.4,406.9z M294.3,413.4c-1,0-1.9-0.8-1.9-1.9
					c0-1,0.8-1.9,1.9-1.9c1,0,1.9,0.8,1.9,1.9C296.1,412.6,295.3,413.4,294.3,413.4z M299,412.5c-0.8,0-1.4-0.6-1.4-1.4
					s0.6-1.4,1.4-1.4s1.4,0.6,1.4,1.4C300.4,411.9,299.8,412.5,299,412.5z"/>
			</g>
			<path id="XMLID_336_" d="M312.4,408.8c-0.3-0.1-0.8-0.3-1.4-0.2c-0.5,0.1-0.8,0.3-0.8,1v0.9h2.2v1.7h-2.2v5.5h-1.9v-5.5H307v-1.7
				h1.3v-0.9c0-1.7,0.9-2.8,2.6-2.8c0.6,0,1.2,0.1,1.6,0.3L312.4,408.8z"/>
			<path id="XMLID_334_" d="M317.1,412.1c-0.2,0-0.4,0-0.5,0c-0.9,0-1.5,0.5-1.5,1.6v3.9h-1.9v-7.2h1.9v0.8c0.5-0.7,1.1-1,2-1
				c0.4,0,0.9,0.1,1.1,0.3L317.1,412.1z"/>
			<path id="XMLID_331_" d="M324.8,414c0,0.2,0,0.5,0,0.6h-5.1c0.2,1,0.9,1.5,1.8,1.5c0.6,0,1.3-0.2,1.8-0.7l1.1,1.2
				c-0.8,0.8-1.9,1.1-3.1,1.1c-2.2,0-3.7-1.5-3.7-3.8c0-2.3,1.5-3.8,3.6-3.8C323.4,410.2,324.8,411.8,324.8,414z M319.7,413.3h3.2
				c-0.2-0.9-0.7-1.4-1.6-1.4C320.4,411.9,319.9,412.4,319.7,413.3z"/>
			<path id="XMLID_328_" d="M332.5,414c0,0.2,0,0.5,0,0.6h-5.1c0.2,1,0.9,1.5,1.8,1.5c0.6,0,1.3-0.2,1.8-0.7l1.1,1.2
				c-0.8,0.8-1.9,1.1-3.1,1.1c-2.2,0-3.7-1.5-3.7-3.8c0-2.3,1.5-3.8,3.6-3.8C331,410.2,332.5,411.8,332.5,414z M327.3,413.3h3.2
				c-0.2-0.9-0.7-1.4-1.6-1.4C328,411.9,327.5,412.4,327.3,413.3z"/>
			<path id="XMLID_325_" d="M340.8,414c0,2.1-1.5,3.8-3.5,3.8c-1,0-1.6-0.4-2.1-0.9v3.7h-1.9v-10.1h1.9v0.8c0.5-0.6,1.1-1,2.1-1
				C339.3,410.2,340.8,411.8,340.8,414z M335.1,414c0,1.1,0.8,2,1.8,2c1.1,0,1.9-0.9,1.9-2s-0.7-2-1.9-2
				C335.9,412,335.1,412.9,335.1,414z"/>
			<path id="XMLID_322_" d="M343.9,408.1c0,0.7-0.5,1.2-1.2,1.2c-0.7,0-1.2-0.5-1.2-1.2s0.5-1.2,1.2-1.2
				C343.4,406.8,343.9,407.4,343.9,408.1z M343.6,417.6h-1.9v-7.2h1.9V417.6z"/>
			<path id="XMLID_320_" d="M346.9,413l2.7-2.5h2.4l-3.5,3.4l3.5,3.8h-2.4l-2.7-2.9v2.9h-1.9v-10.7h1.9L346.9,413L346.9,413z"/>
		</g>
		<g>
			<path d="M215.2,417.5v-1c-0.5,0.7-1.4,1.2-2.4,1.2c-1.9,0-3.1-1.4-3.1-3.7c0-2.3,1.3-3.7,3.1-3.7c0.9,0,1.8,0.5,2.4,1.2v-3.8h1.1
				v9.8L215.2,417.5L215.2,417.5z M215.2,415.6v-3.2c-0.4-0.6-1.2-1.1-2.1-1.1c-1.4,0-2.3,1.2-2.3,2.7c0,1.6,0.9,2.7,2.3,2.7
				C214,416.7,214.9,416.2,215.2,415.6z"/>
			<path d="M217.8,414c0-2,1.5-3.7,3.5-3.7c2.1,0,3.4,1.7,3.4,3.8v0.3h-5.7c0.1,1.3,1,2.5,2.6,2.5c0.8,0,1.6-0.3,2.2-0.9l0.5,0.7
				c-0.7,0.7-1.6,1.1-2.8,1.1C219.3,417.7,217.8,416.2,217.8,414z M221.2,411.2c-1.5,0-2.3,1.3-2.3,2.4h4.6
				C223.6,412.5,222.9,411.2,221.2,411.2z"/>
			<path d="M225.4,416.6l0.6-0.8c0.5,0.5,1.4,1,2.3,1c1.1,0,1.7-0.5,1.7-1.2c0-1.7-4.4-0.7-4.4-3.3c0-1.1,0.9-2,2.6-2
				c1.2,0,2.1,0.5,2.6,1l-0.5,0.8c-0.4-0.5-1.2-0.9-2.1-0.9c-1,0-1.6,0.5-1.6,1.1c0,1.5,4.4,0.5,4.4,3.3c0,1.2-0.9,2.1-2.8,2.1
				C227.1,417.7,226.2,417.3,225.4,416.6z"/>
			<path d="M232.3,408.7c0-0.4,0.3-0.8,0.7-0.8c0.4,0,0.8,0.3,0.8,0.8s-0.3,0.7-0.8,0.7C232.6,409.4,232.3,409.1,232.3,408.7z
				 M232.5,417.5v-7.1h1.1v7.1H232.5z"/>
			<path d="M235.4,419.3l0.6-0.8c0.6,0.7,1.3,1,2.3,1c1.2,0,2.3-0.6,2.3-2.1v-1c-0.5,0.7-1.4,1.3-2.4,1.3c-1.9,0-3.1-1.4-3.1-3.7
				c0-2.3,1.3-3.7,3.1-3.7c0.9,0,1.8,0.5,2.4,1.2v-1.1h1.1v6.9c0,2.3-1.6,3.1-3.4,3.1C237.1,420.4,236.3,420.1,235.4,419.3z
				 M240.6,415.5v-3.1c-0.4-0.6-1.2-1.1-2.1-1.1c-1.4,0-2.3,1.1-2.3,2.7c0,1.5,0.9,2.7,2.3,2.7C239.3,416.6,240.2,416.1,240.6,415.5
				z"/>
			<path d="M248.2,417.5v-4.6c0-1.2-0.6-1.6-1.6-1.6c-0.9,0-1.7,0.5-2.1,1.1v5.2h-1.1v-7.1h1.1v1c0.5-0.6,1.5-1.2,2.5-1.2
				c1.5,0,2.3,0.8,2.3,2.3v5L248.2,417.5L248.2,417.5z"/>
			<path d="M250.8,414c0-2,1.5-3.7,3.5-3.7c2.1,0,3.4,1.7,3.4,3.8v0.3h-5.7c0.1,1.3,1,2.5,2.6,2.5c0.8,0,1.6-0.3,2.2-0.9l0.5,0.7
				c-0.7,0.7-1.7,1.1-2.8,1.1C252.3,417.7,250.8,416.2,250.8,414z M254.2,411.2c-1.5,0-2.3,1.3-2.3,2.4h4.6
				C256.6,412.5,255.9,411.2,254.2,411.2z"/>
			<path d="M264.2,417.5v-1c-0.5,0.7-1.4,1.2-2.4,1.2c-1.9,0-3.1-1.4-3.1-3.7c0-2.3,1.3-3.7,3.1-3.7c1,0,1.8,0.5,2.4,1.2v-3.8h1.1
				v9.8L264.2,417.5L264.2,417.5z M264.2,415.6v-3.2c-0.4-0.6-1.2-1.1-2.1-1.1c-1.4,0-2.3,1.2-2.3,2.7c0,1.6,0.9,2.7,2.3,2.7
				C262.9,416.7,263.8,416.2,264.2,415.6z"/>
			<path d="M270.5,417.5v-9.8h1.1v3.8c0.6-0.8,1.4-1.2,2.4-1.2c1.9,0,3.1,1.5,3.1,3.7c0,2.3-1.3,3.7-3.1,3.7c-1,0-1.9-0.5-2.4-1.2v1
				L270.5,417.5L270.5,417.5z M273.7,416.7c1.4,0,2.3-1.2,2.3-2.7c0-1.6-0.9-2.7-2.3-2.7c-0.9,0-1.7,0.5-2.1,1.1v3.2
				C272,416.2,272.9,416.7,273.7,416.7z"/>
			<path d="M278.4,419.3c0.2,0.1,0.4,0.1,0.6,0.1c0.5,0,0.8-0.2,1-0.8l0.5-1.1l-3-7.1h1.2l2.4,5.8l2.3-5.8h1.2l-3.5,8.5
				c-0.4,1-1.1,1.4-2.1,1.4c-0.2,0-0.6,0-0.8-0.1L278.4,419.3z"/>
		</g>
	</g>
</g>
</svg>
