<?xml version="1.0" encoding="utf-8"?>
<!-- Generator: Adobe Illustrator 23.0.4, SVG Export Plug-In . SVG Version: 6.00 Build 0)  -->
<svg version="1.1" id="Layer_1" xmlns="http://www.w3.org/2000/svg" xmlns:xlink="http://www.w3.org/1999/xlink" x="0px" y="0px"
	 viewBox="0 0 700 450" style="enable-background:new 0 0 700 450;" xml:space="preserve">
<style type="text/css">
	.st0{display:none;fill:#FFFFFF;}
	.st1{opacity:0.1;}
	.st2{fill:#946F47;}
	.st3{fill:#B19255;}
	.st4{fill:#BD9C5B;}
	.st5{fill:#E0B96C;}
	.st6{fill:#E0CCA4;}
	.st7{fill:#94816C;}
	.st8{fill:#6B4D2C;}
	.st9{fill:#F7EECF;}
	.st10{fill:#FFF6D6;}
	.st11{fill:#FFFFFF;}
	.st12{fill:#2C323D;}
	.st13{fill:#BF8B43;}
	.st14{fill:#FFCF5A;}
	.st15{fill:#F29C00;}
	.st16{fill:#FFE092;}
	.st17{fill:#B3B3B3;}
	.st18{fill:#962823;}
	.st19{fill:#961010;}
	.st20{fill:#F3C456;}
	.st21{fill:#DEA24E;}
	.st22{fill:#EDB654;}
	.st23{fill:#F3B63D;}
	.st24{fill:#50994B;}
	.st25{fill:#259940;}
	.st26{opacity:8.000000e-02;}
	.st27{fill:#21599C;}
	.st28{fill:#9C2121;}
	.st29{fill:#D4D4D4;}
	.st30{fill:#3082E3;}
	.st31{fill:#E33030;}
	.st32{fill:#80CDFF;}
	.st33{fill:#2085C7;}
	.st34{fill:#3899D9;}
	.st35{fill:url(#SVGID_1_);}
	.st36{fill:#FAFAFA;}
	.st37{opacity:0.42;fill:url(#SVGID_4_);}
	.st38{fill:url(#SVGID_5_);}
</style>
<rect class="st0" width="700" height="450"/>
<g>
	<path class="st1" d="M576.3,253l-12,5.4l-25.2-12.6c0,0-53.6,22-82,36.6c-1.3,0.6-2.6,1.3-3.9,2l-134.6-67.2l-175.2,69l53.2,30.8
		l-84.4-40.4c-1.1-0.5-2.8-0.5-3.8,0l-89.9,44.1c-1,0.5-1.1,1.4,0,1.9l189.6,102.3c1.1,0.5,2.8,0.5,3.8,0l90.5-46.7l11.1,6.4
		l13.1-6.5v0.1l106.7,53.4l3.6-1.8l43.3,1.2l85.2-39.6c8.5-4,16.9-8.2,25.2-12.7l64-34.9l12.5-28.7l15.8-7.2v-1.5L576.3,253z"/>
	<g>
		<g>
			<g>
				<g>
					<polygon class="st2" points="455.2,286.2 299.3,364.2 299.3,208.2 455.2,130.4 					"/>
					<polygon class="st3" points="299.3,364.2 143.5,286.2 143.5,130.4 299.3,208.3 					"/>
					<polygon class="st4" points="455.2,130.4 299.3,208.3 143.5,130.3 299.3,52.4 					"/>
					<g>
						<polygon class="st5" points="299.3,208.7 143.5,130.7 143.5,130.4 143.8,130.2 299.3,208 						"/>
					</g>
					<g>
						<polygon class="st6" points="299.3,208.7 455.2,130.7 455.2,130.4 454.9,130.2 299.3,208 						"/>
					</g>
					<path class="st7" d="M299.3,208.3l155.9-78L299.3,208.3z"/>
					<g>
						<path class="st2" d="M299.3,227.5v-19.2c0,0-8.9,61.1,0,155.9v-24.4C295.9,288.5,297.6,249.3,299.3,227.5z"/>
						<path class="st8" d="M299.3,355.9l0-144.6C297.6,233.1,295.9,304.7,299.3,355.9z"/>
					</g>
				</g>
				<polygon class="st9" points="227.7,253.5 205.3,242.2 205.3,161.7 227.7,172.9 				"/>
				<polygon class="st10" points="205.2,161.7 227.7,172.9 385.1,95.3 362.6,84 				"/>
			</g>
			<g>
				<polygon class="st11" points="196.3,196.4 157,184.9 152.4,160.4 191.7,171.9 				"/>
				<g>
					<polygon class="st12" points="162.6,182.5 161.6,182.2 158.6,166.3 159.6,166.6 					"/>
					<polygon class="st12" points="163.7,182.8 163.2,182.7 160.2,166.8 160.7,166.9 					"/>
					<polygon class="st12" points="164.8,183.1 164.3,183 161.3,167.1 161.8,167.2 					"/>
					<polygon class="st12" points="165.9,183.5 165.4,183.3 162.4,167.4 162.9,167.5 					"/>
					<polygon class="st12" points="167,183.8 166.5,183.6 163.5,167.7 164,167.9 					"/>
					<polygon class="st12" points="168.6,184.2 167.6,184 164.6,168.1 165.6,168.3 					"/>
					<polygon class="st12" points="172.8,185.5 172.4,185.3 169.4,169.4 169.8,169.6 					"/>
					<polygon class="st12" points="174,185.8 173.5,185.7 170.5,169.8 170.9,169.9 					"/>
					<polygon class="st12" points="175.5,186.3 174.6,186 171.6,170.1 172.5,170.4 					"/>
					<polygon class="st12" points="170.2,184.7 169.2,184.4 166.2,168.5 167.1,168.8 					"/>
					<polygon class="st12" points="171.7,185.2 170.8,184.9 167.8,169 168.7,169.3 					"/>
					<polygon class="st12" points="177.1,186.7 176.2,186.4 173.2,170.5 174.1,170.8 					"/>
					<polygon class="st12" points="178.2,187 177.7,186.9 174.7,171 175.2,171.1 					"/>
					<polygon class="st12" points="179.3,187.4 178.8,187.2 175.8,171.3 176.3,171.5 					"/>
					<polygon class="st12" points="180.4,187.7 180,187.5 176.9,171.6 177.4,171.8 					"/>
					<polygon class="st12" points="181.5,188 181.1,187.9 178,172 178.5,172.1 					"/>
					<polygon class="st12" points="183.1,188.5 182.2,188.2 179.2,172.3 180.1,172.6 					"/>
					<polygon class="st12" points="187.4,189.7 186.9,189.6 183.9,173.7 184.4,173.8 					"/>
					<polygon class="st12" points="188.5,190 188,189.9 185,174 185.5,174.1 					"/>
					<polygon class="st12" points="190.1,190.5 189.1,190.2 186.1,174.3 187.1,174.6 					"/>
					<polygon class="st12" points="184.7,188.9 183.7,188.6 180.7,172.7 181.7,173 					"/>
					<polygon class="st12" points="186.3,189.4 185.3,189.1 182.3,173.2 183.3,173.5 					"/>
				</g>
			</g>
			<polygon class="st11" points="288.3,238.7 239,214 239,190.5 288.3,215.2 			"/>
			<g>
				<g>
					<path class="st12" d="M166.7,271.5l-17.5-8.8c-0.7-0.3-1.2-0.1-1.2,0.6v17.5c0,0.7,0.5,1.4,1.2,1.8l17.5,8.8
						c0.7,0.3,1.2,0.1,1.2-0.6v-17.5C167.9,272.6,167.3,271.8,166.7,271.5z M166.9,289.4c0,0.7-0.5,0.9-1.2,0.6l-15.6-7.8
						c-0.7-0.3-1.2-1.1-1.2-1.8v-15.6c0-0.7,0.5-0.9,1.2-0.6l15.6,7.8c0.7,0.3,1.2,1.1,1.2,1.8V289.4z"/>
					<g>
						<g>
							<polygon class="st12" points="154.7,281.7 153.6,281.1 153.6,269.1 154.7,269.6 							"/>
							<polygon class="st12" points="154.2,267.8 152.6,270 154.2,270.8 155.7,271.6 							"/>
						</g>
						<g>
							<polygon class="st12" points="162.2,285.4 161.1,284.9 161.1,272.8 162.2,273.4 							"/>
							<polygon class="st12" points="161.7,271.5 160.1,273.8 161.7,274.6 163.2,275.3 							"/>
						</g>
					</g>
					<polygon class="st12" points="151.1,281.5 151.1,280.4 164.7,287.2 164.7,288.3 					"/>
				</g>
				<g>
					<path class="st12" d="M190.3,283.3l-17.5-8.8c-0.7-0.3-1.2-0.1-1.2,0.6v17.5c0,0.7,0.5,1.4,1.2,1.8l17.5,8.8
						c0.7,0.3,1.2,0.1,1.2-0.6V285C191.5,284.4,190.9,283.6,190.3,283.3z M190.5,301.2c0,0.7-0.5,0.9-1.2,0.6l-15.6-7.8
						c-0.7-0.3-1.2-1.1-1.2-1.8v-15.6c0-0.7,0.5-0.9,1.2-0.6l15.6,7.8c0.7,0.3,1.2,1.1,1.2,1.8V301.2z"/>
					<g>
						<path class="st12" d="M185.6,292L185.6,292c-1.5-0.7-2.7-2.5-2.7-4v-6.2l5.4,2.7v6.2C188.3,292.2,187.1,292.8,185.6,292z"/>
						<polygon class="st12" points="186,298.4 185.3,298.1 185.3,291.6 186,291.9 						"/>
						<path class="st12" d="M183,297.3L183,297.3c0-0.3,0.3-0.5,0.6-0.3l4.1,2.1c0.3,0.2,0.6,0.6,0.6,0.9l0,0L183,297.3z"/>
						<path class="st12" d="M174.7,277.7v6.2c0,1.5,1.2,3.3,2.7,4l0,0c1.5,0.7,2.7,0.1,2.7-1.3v-6.2L174.7,277.7z M179.5,286.3
							c0,1.2-1,1.7-2.1,1.1c-1.2-0.6-2.1-2-2.1-3.2v-5.6l4.3,2.1V286.3z"/>
						<polygon class="st12" points="177.7,294.3 177.1,293.9 177.1,287.5 177.7,287.8 						"/>
						<path class="st12" d="M174.7,293.2L174.7,293.2c0-0.3,0.3-0.5,0.6-0.3l4.1,2.1c0.3,0.2,0.6,0.6,0.6,0.9l0,0L174.7,293.2z"/>
					</g>
				</g>
				<g>
					<path class="st12" d="M213.9,295.1l-17.5-8.8c-0.7-0.3-1.2-0.1-1.2,0.6v17.5c0,0.7,0.5,1.4,1.2,1.8l17.5,8.8
						c0.7,0.3,1.2,0.1,1.2-0.6v-17.5C215.1,296.2,214.5,295.4,213.9,295.1z M214.1,313c0,0.7-0.5,0.9-1.2,0.6l-15.6-7.8
						c-0.7-0.3-1.2-1.1-1.2-1.8v-15.6c0-0.7,0.5-0.9,1.2-0.6l15.6,7.8c0.7,0.3,1.2,1.1,1.2,1.8V313z"/>
					<g>
						<g>
							<g>
								<path class="st12" d="M201.5,298.5c0.5-0.2,1.2-0.1,1.9,0.2c0.7,0.4,1.4,1,1.9,1.7c0.5-0.2,1.2-0.1,1.9,0.2
									c0.7,0.4,1.4,1,1.9,1.7c0.5-0.2,1.2-0.1,1.9,0.2c0.2,0.1,0.3,0.2,0.5,0.3c-0.3-3.3-2.9-7-6.1-8.6c-3.2-1.6-5.8-0.5-6.1,2.5
									c0.1,0,0.2,0.1,0.3,0.1C200.4,297.2,201,297.8,201.5,298.5z"/>
							</g>
						</g>
						<g>
							<path class="st12" d="M204.1,308.2c-0.9-0.5-1.6-1.5-1.6-2.5v-0.3c0-0.2,0.2-0.3,0.3-0.2c0.2,0.1,0.3,0.3,0.3,0.5v0.3
								c0,0.5,0.4,1.2,1,1.4c0.5,0.3,1,0,1-0.5v-13.6c0-0.2,0.2-0.3,0.3-0.2c0.2,0.1,0.3,0.3,0.3,0.5v13.6
								C205.7,308.2,205,308.6,204.1,308.2z"/>
						</g>
					</g>
				</g>
			</g>
			<g>
				<polygon class="st12" points="307.5,69.6 266,90.4 264.8,89.7 306.2,69 				"/>
				<polygon class="st12" points="311.6,71.7 270.1,92.4 268.8,91.8 310.3,71 				"/>
				<polygon class="st12" points="315.7,73.7 274.2,94.5 272.9,93.8 314.4,73.1 				"/>
				<polygon class="st12" points="319.7,75.7 278.3,96.5 277,95.8 318.4,75.1 				"/>
			</g>
			<g>
				<polygon class="st12" points="314.6,163 273.1,183.8 271.9,183.1 313.3,162.4 				"/>
				<polygon class="st12" points="318.7,165.1 277.2,185.8 275.9,185.2 317.4,164.4 				"/>
				<polygon class="st12" points="322.8,167.1 281.3,187.9 280,187.2 321.5,166.5 				"/>
				<polygon class="st12" points="326.8,169.1 285.4,189.9 284.1,189.2 325.5,168.5 				"/>
			</g>
		</g>
		<g>
			<g>
				<g>
					<g>
						<g>
							<path class="st13" d="M17.8,319.7l92.6-46.3c1.1-0.5,2.8-0.5,3.8,0L308,370.3c0.1,0,0.2,0.1,0.2,0.1l-0.4-0.5l0.9-0.1v1.4
								c0,0.4-0.2,0.7-0.8,1l-92.6,46.3c-1.1,0.5-2.8,0.5-3.8,0L17.8,321.6C16.7,321,16.7,320.2,17.8,319.7z"/>
							<path class="st14" d="M308,370.7L215.4,417c-1.1,0.5-2.8,0.5-3.8,0L17.8,320.1c-1.1-0.5-1-1.4,0-1.9l92.6-46.3
								c1.1-0.5,2.8-0.5,3.8,0L308,368.8C309.1,369.3,309.1,370.2,308,370.7z"/>
						</g>
						<polygon class="st15" points="97.3,309.1 264.3,392.6 265.1,392.2 98,308.7 						"/>
					</g>
					<g>
						<g>
							<path class="st13" d="M146.4,293.9l-31.9-21c-2.3-1.1-3.8,0-3.8,0L64.3,296L18,319.1c0,0-0.5-0.6-0.8-0.3l-0.2-0.2l0,1.9l0,0
								c0,0.3,0.3,0.1,1,0.4l44.4,15.9c2.1,0.8,5.1,0.6,7-0.3l38.1-19.1l38.1-19.1C147.5,297.6,147.9,294.9,146.4,293.9z"/>
							<path class="st16" d="M110.6,271.5l-46.3,23.2L18,317.8c0,0-2.3,0.8,0,1.9l44.4,15.9c2.1,0.8,5.1,0.6,7-0.3l38.1-19.1
								l38.1-19.1c1.9-0.9,2.1-2.4,0.6-3.5l-31.7-22.2C112.1,270.3,110.6,271.5,110.6,271.5z"/>
						</g>
						<g>
							<path class="st17" d="M110.1,308.7c1.7,0.9,1.7,3.1,0,4c-1.7,0.9-4.5,0.9-6.2,0c-1.7-0.9-1.7-3.1,0-4
								C105.6,307.8,108.4,307.8,110.1,308.7z"/>
							<path class="st11" d="M110.1,308.7c1.7,0.9,1.7,2.2,0,3.1c-1.7,0.9-4.5,0.9-6.2,0c-1.7-0.9-1.7-2.2,0-3.1
								C105.6,307.8,108.4,307.8,110.1,308.7z"/>
						</g>
					</g>
				</g>
				<g>
					<path class="st18" d="M63.4,328.7l-19.7-9.9c-0.5-0.2-0.5-0.6,0-0.9l27.5-13.7c0.5-0.2,1.3-0.2,1.7,0l19.7,9.9
						c0.5,0.2,0.5,0.6,0,0.9l-27.5,13.7C64.6,328.9,63.9,328.9,63.4,328.7z"/>
					<path class="st11" d="M91.2,314.9l-26.1,13c-0.5,0.2-1.3,0.2-1.7,0l-18.3-9.2c-0.5-0.2-0.5-0.6,0-0.9l26.1-13
						c0.5-0.2,1.3-0.2,1.7,0l18.3,9.2C91.7,314.3,91.7,314.7,91.2,314.9z"/>
					<g>
						<polygon class="st12" points="70.4,307.5 47.9,318.7 47.3,318.4 69.8,307.2 						"/>
						<polygon class="st12" points="71.8,308.2 49.4,319.5 48.8,319.1 71.2,307.9 						"/>
						<polygon class="st12" points="73.3,309 50.9,320.2 50.2,319.9 72.7,308.7 						"/>
						<polygon class="st12" points="74.8,309.7 52.3,320.9 51.7,320.6 74.1,309.4 						"/>
						<polygon class="st12" points="76.2,310.4 53.8,321.7 53.2,321.3 75.6,310.1 						"/>
					</g>
					<g>
						<polygon class="st12" points="85.6,312.3 71.5,319.4 70.9,319.1 85,312 						"/>
						<polygon class="st12" points="87.1,313.1 72.9,320.1 72.3,319.8 86.5,312.7 						"/>
						<polygon class="st12" points="88.5,313.8 74.4,320.9 73.8,320.5 87.9,313.5 						"/>
						<polygon class="st19" points="81.4,310.4 55.9,323.2 56.2,323.4 81.7,310.6 						"/>
					</g>
				</g>
				<g>
					<path class="st12" d="M262.2,383.6l-14.3-7.1c-0.5-0.2-0.5-0.6,0-0.9l27.7-13.8c0.5-0.2,1.3-0.2,1.7,0l14.3,7.1
						c0.5,0.2,0.5,0.6,0,0.9L264,383.6C263.5,383.9,262.7,383.9,262.2,383.6z"/>
					<path class="st11" d="M290.3,369.8L264,382.9c-0.5,0.2-1.3,0.2-1.7,0l-12.9-6.4c-0.5-0.2-0.5-0.6,0-0.9l26.3-13.2
						c0.5-0.2,1.3-0.2,1.7,0l12.9,6.4C290.8,369.2,290.8,369.6,290.3,369.8z"/>
					<g>
						<g>
							<polygon class="st12" points="264.7,381.1 263.7,381.6 252.2,375.8 253.2,375.3 							"/>
							<polygon class="st12" points="270.7,378 269.7,378.6 258.2,372.8 259.2,372.3 							"/>
							<polygon class="st12" points="271.4,377.7 271.1,377.9 259.6,372.1 259.9,371.9 							"/>
							<polygon class="st12" points="272.1,377.4 271.8,377.5 260.3,371.8 260.6,371.6 							"/>
							<polygon class="st12" points="275.5,375.7 275.1,375.8 263.6,370.1 264,369.9 							"/>
							<polygon class="st12" points="265.8,380.5 265.3,380.8 253.8,375 254.3,374.8 							"/>
							<polygon class="st12" points="273.6,376.6 272.6,377.1 261.1,371.4 262.1,370.9 							"/>
							<polygon class="st12" points="274.7,376.1 274.2,376.3 262.7,370.6 263.2,370.3 							"/>
							<polygon class="st12" points="266.9,380 266.4,380.2 254.9,374.5 255.4,374.2 							"/>
							<polygon class="st12" points="268,379.4 267.5,379.7 256,373.9 256.5,373.7 							"/>
							<polygon class="st12" points="269.1,378.9 268.6,379.1 257.1,373.4 257.6,373.1 							"/>
						</g>
						<g>
							<polygon class="st12" points="275,364.4 276,363.9 287.5,369.7 286.5,370.2 							"/>
							<polygon class="st12" points="269,367.4 270,366.9 281.5,372.7 280.5,373.2 							"/>
							<polygon class="st12" points="268.2,367.8 268.6,367.6 280.1,373.4 279.7,373.5 							"/>
							<polygon class="st12" points="267.6,368.1 267.9,368 279.4,373.7 279.1,373.9 							"/>
							<polygon class="st12" points="264.2,369.8 264.5,369.6 276,375.4 275.7,375.6 							"/>
							<polygon class="st12" points="273.9,365 274.4,364.7 285.9,370.5 285.4,370.7 							"/>
							<polygon class="st12" points="266.1,368.9 267.1,368.4 278.6,374.1 277.6,374.6 							"/>
							<polygon class="st12" points="265,369.4 265.5,369.2 277,374.9 276.5,375.2 							"/>
							<polygon class="st12" points="272.8,365.5 273.3,365.3 284.8,371 284.3,371.3 							"/>
							<polygon class="st12" points="271.7,366.1 272.2,365.8 283.7,371.6 283.2,371.8 							"/>
							<polygon class="st12" points="270.6,366.6 271.1,366.4 282.6,372.1 282.1,372.4 							"/>
						</g>
					</g>
				</g>
			</g>
		</g>
		<g>
			<g>
				<g>
					<path class="st20" d="M647.8,278.2l-67.7,33.9l-40.9-20.5l-174.4,80.9l108.6,49.8l85.2-39.6c8.5-4,16.9-8.2,25.2-12.7l64-34.9
						l19.3-42v-1.5L647.8,278.2z"/>
					<polygon class="st21" points="452.7,399.9 473.4,422.3 429.8,405 					"/>
					<polygon class="st22" points="473.4,422.3 478.8,383.2 452.7,399.9 					"/>
					<polygon class="st22" points="647.8,335.1 641,302.4 667.2,293.1 					"/>
					<g>
						<polygon class="st13" points="560.5,239.8 667.2,293.1 683,286 683,284.5 576.3,232.6 560.5,238.2 						"/>
						<polygon class="st16" points="560.5,238.2 667.2,291.6 683,284.5 576.3,231.1 						"/>
					</g>
					<polygon class="st13" points="452.7,398.4 452.7,399.9 478.8,383.2 641,302.4 667.2,293.1 667.2,291.6 647.8,278.2 
						484.2,337.5 					"/>
					<g>
						<polygon class="st13" points="326.6,356.3 433.3,409.7 452.7,399.9 452.7,398.4 346,346.5 326.6,354.8 						"/>
						<polygon class="st16" points="326.6,354.8 433.3,408.2 452.7,398.4 346,345 						"/>
					</g>
					<path class="st14" d="M364.8,311.1l108.6,54.3l53.6-30.6c20.3-11.6,41.2-22,62.7-31.4l58.2-25.3l-108.6-54.3
						c0,0-53.6,22-82,36.6C425.9,276.5,364.8,311.1,364.8,311.1z"/>
					<polygon class="st23" points="346,345 364.8,311.1 473.4,365.4 452.7,398.4 					"/>
				</g>
				<path class="st24" d="M405.9,387.6l9.1-5.6c1.4-0.9,2.6-2.1,3.4-3.6l16.6-30.7c0.4-0.8,1-1.4,1.8-1.9l13.7-8.3l10.6,4.9l-14.1,9
					c-0.7,0.4-1.3,1-1.7,1.7l-17.2,30.5c-0.7,1.3-1.8,2.4-3,3.2l-8.8,5.8L405.9,387.6z"/>
			</g>
			<g>
				<path class="st12" d="M491,343.5l-19.9-10c-0.7-0.3-0.7-0.9,0-1.2l38.7-19.3c0.7-0.3,1.8-0.3,2.4,0l19.9,10
					c0.7,0.3,0.7,0.9,0,1.2l-38.7,19.3C492.8,343.8,491.7,343.8,491,343.5z"/>
				<path class="st11" d="M530.2,324.1l-36.7,18.4c-0.7,0.3-1.8,0.3-2.4,0l-18-9c-0.7-0.3-0.7-0.9,0-1.2l36.7-18.4
					c0.7-0.3,1.8-0.3,2.4,0l18,9C530.9,323.2,530.9,323.8,530.2,324.1z"/>
				<g>
					<g>
						<polygon class="st12" points="494.5,339.9 493.1,340.6 477,332.5 478.4,331.8 						"/>
						<polygon class="st12" points="502.9,335.7 501.5,336.4 485.4,328.3 486.8,327.6 						"/>
						<polygon class="st12" points="503.9,335.2 503.4,335.4 487.4,327.4 487.8,327.1 						"/>
						<polygon class="st12" points="504.8,334.7 504.4,334.9 488.3,326.9 488.8,326.7 						"/>
						<polygon class="st12" points="509.5,332.4 509.1,332.6 493,324.5 493.5,324.3 						"/>
						<polygon class="st12" points="496,339.1 495.3,339.5 479.3,331.4 480,331.1 						"/>
						<polygon class="st12" points="506.9,333.7 505.5,334.4 489.4,326.3 490.9,325.6 						"/>
						<polygon class="st12" points="508.5,332.9 507.8,333.2 491.7,325.2 492.4,324.9 						"/>
						<polygon class="st12" points="497.6,338.3 496.9,338.7 480.8,330.7 481.5,330.3 						"/>
						<polygon class="st12" points="499.1,337.6 498.4,337.9 482.3,329.9 483,329.5 						"/>
						<polygon class="st12" points="500.7,336.8 499.9,337.1 483.9,329.1 484.6,328.8 						"/>
					</g>
					<g>
						<polygon class="st12" points="508.8,316.6 510.3,315.9 526.3,324 524.9,324.7 						"/>
						<polygon class="st12" points="500.4,320.8 501.8,320.1 517.9,328.2 516.5,328.9 						"/>
						<polygon class="st12" points="499.4,321.3 499.9,321.1 515.9,329.1 515.5,329.4 						"/>
						<polygon class="st12" points="498.5,321.8 499,321.6 515,329.6 514.6,329.8 						"/>
						<polygon class="st12" points="493.8,324.1 494.3,323.9 510.3,332 509.9,332.2 						"/>
						<polygon class="st12" points="507.3,317.4 508,317 524.1,325.1 523.4,325.4 						"/>
						<polygon class="st12" points="496.4,322.8 497.8,322.1 513.9,330.2 512.5,330.9 						"/>
						<polygon class="st12" points="494.9,323.6 495.6,323.3 511.6,331.3 510.9,331.6 						"/>
						<polygon class="st12" points="505.8,318.2 506.5,317.8 522.5,325.8 521.8,326.2 						"/>
						<polygon class="st12" points="504.2,318.9 504.9,318.6 521,326.6 520.3,327 						"/>
						<polygon class="st12" points="502.7,319.7 503.4,319.4 519.4,327.4 518.7,327.7 						"/>
					</g>
				</g>
			</g>
			<g>
				<path class="st19" d="M518,268.6l-27.7-13.9c-0.7-0.3-0.7-0.9,0-1.2l38.7-19.3c0.7-0.3,1.8-0.3,2.4,0l27.7,13.9
					c0.7,0.3,0.7,0.9,0,1.2l-38.7,19.3C519.8,268.9,518.7,268.9,518,268.6z"/>
				<path class="st11" d="M557.2,249.3l-36.7,18.4c-0.7,0.3-1.8,0.3-2.4,0l-25.8-13c-0.7-0.3-0.7-0.9,0-1.2l36.7-18.4
					c0.7-0.3,1.8-0.3,2.4,0l25.8,13C557.9,248.4,557.9,248.9,557.2,249.3z"/>
				<g>
					<polygon class="st12" points="527.9,238.8 496.3,254.6 495.4,254.2 527,238.4 					"/>
					<polygon class="st12" points="530,239.8 498.4,255.6 497.5,255.2 529.1,239.4 					"/>
					<polygon class="st12" points="532,240.9 500.4,256.7 499.6,256.2 531.2,240.4 					"/>
					<polygon class="st12" points="534.1,241.9 502.5,257.7 501.6,257.2 533.2,241.4 					"/>
					<polygon class="st12" points="536.1,242.9 504.5,258.7 503.7,258.3 535.3,242.5 					"/>
				</g>
				<g>
					<polygon class="st12" points="549.4,245.6 529.5,255.5 528.6,255.1 548.5,245.1 					"/>
					<polygon class="st12" points="551.4,246.6 531.5,256.6 530.6,256.1 550.6,246.2 					"/>
					<polygon class="st12" points="553.5,247.6 533.6,257.6 532.7,257.2 552.6,247.2 					"/>
					<polygon class="st19" points="543.4,242.9 507.5,260.9 507.9,261.1 543.9,243.1 					"/>
				</g>
			</g>
			<g>
				<path class="st11" d="M399.7,298.4L399.7,298.4l-1.6-0.3c-0.3,0-0.5,0.1-0.4,0.2l0.6,0.8l-1.6-0.3c-0.3,0-0.5,0.1-0.4,0.2
					l0.6,0.8l-1.6-0.3c-0.3,0-0.5,0.1-0.4,0.2l0.6,0.8l-1.6-0.3c-0.3,0-0.5,0.1-0.4,0.2l0.6,0.8l-1.6-0.3c-0.3,0-0.5,0.1-0.4,0.2
					l0.6,0.8l-1.6-0.3c-0.3,0-0.5,0.1-0.4,0.2l0.6,0.8l-1.6-0.3c-0.3,0-0.5,0.1-0.4,0.2l0.6,0.8l-1.6-0.3c-0.3,0-0.5,0.1-0.4,0.2
					l0.6,0.8l-1.6-0.3c-0.3,0-0.5,0.1-0.4,0.2l0.6,0.8l-1.6-0.3c-0.3,0-0.5,0.1-0.4,0.2l0.6,0.8l-1.6-0.3c-0.3,0-0.5,0.1-0.4,0.2
					l0.6,0.8l-1.6-0.3c-0.3,0-0.5,0.1-0.4,0.2l0.6,0.8l-1.6-0.3c-0.3,0-0.5,0.1-0.4,0.2l0.6,0.8l-1.6-0.3c-0.3,0-0.5,0.1-0.4,0.2
					l0.6,0.8l-1.6-0.3c-0.3,0-0.5,0.1-0.4,0.2l0.6,0.8l-1.6-0.3c-0.3,0-0.5,0.1-0.4,0.2l0.6,0.8l39.8,19.9l1.6,0.3
					c0.3,0,0.5-0.1,0.4-0.2l-0.6-0.8l1.6,0.3c0.3,0,0.5-0.1,0.4-0.2l-0.6-0.8l1.6,0.3c0.3,0,0.5-0.1,0.4-0.2l-0.6-0.8l1.6,0.3
					c0.3,0,0.5-0.1,0.4-0.2l-0.6-0.8l1.6,0.3c0.3,0,0.5-0.1,0.4-0.2l-0.6-0.8l1.6,0.3c0.3,0,0.5-0.1,0.4-0.2l-0.6-0.8l1.6,0.3
					c0.3,0,0.5-0.1,0.4-0.2l-0.6-0.8l1.6,0.3c0.3,0,0.5-0.1,0.4-0.2l-0.6-0.8l1.6,0.3c0.3,0,0.5-0.1,0.4-0.2l-0.6-0.8l1.6,0.3
					c0.3,0,0.5-0.1,0.4-0.2l-0.6-0.8l1.6,0.3c0.3,0,0.5-0.1,0.4-0.2l-0.6-0.8l1.6,0.3c0.3,0,0.5-0.1,0.4-0.2l-0.6-0.8l1.6,0.3
					c0.3,0,0.5-0.1,0.4-0.2l-0.6-0.8l1.6,0.3c0.3,0,0.5-0.1,0.4-0.2l-0.6-0.8l1.6,0.3c0.3,0,0.5-0.1,0.4-0.2l-0.6-0.8l1.6,0.3
					c0.3,0,0.5-0.1,0.4-0.2l-0.6-0.8l0,0L399.7,298.4z"/>
				<g>
					<path class="st25" d="M407.6,313.8c-4.6,2.3-4.6,6,0,8.3c4.6,2.3,12,2.3,16.6,0c4.6-2.3,4.6-6,0-8.3S412.2,311.6,407.6,313.8z
						 M423.3,321.7c-4.1,2.1-10.8,2.1-15,0c-4.1-2.1-4.1-5.4,0-7.5c4.1-2.1,10.8-2.1,15,0C427.5,316.3,427.5,319.7,423.3,321.7z"/>
					<g>
						<polygon class="st25" points="407.8,319.2 407,318.8 417.4,313.5 418.3,314 						"/>
						<polygon class="st25" points="410.1,320.4 409.2,319.9 419.7,314.7 420.6,315.1 						"/>
						<polygon class="st25" points="412.4,321.5 411.5,321 422,315.8 422.9,316.2 						"/>
						<polygon class="st25" points="414.7,322.6 413.8,322.2 424.2,316.9 425.1,317.4 						"/>
					</g>
				</g>
				<g>
					<polygon class="st25" points="389.7,307.9 388.8,307.5 401.2,301.3 402,301.7 					"/>
					<polygon class="st25" points="391.9,309 391,308.6 403.4,302.4 404.3,302.8 					"/>
					<polygon class="st25" points="394.2,310.2 393.3,309.7 405.7,303.5 406.6,304 					"/>
					<polygon class="st25" points="396.5,311.3 395.6,310.9 408,304.7 408.9,305.1 					"/>
				</g>
			</g>
		</g>
		<path class="st26" d="M455.5,261.4l93.9,45.5l-97.3,47.9l-18.6,34l-19.1,9.9v1.5l-87.7-43.9v-1.5L346,345l18.8-33.9
			C364.8,311.1,451.8,262.4,455.5,261.4z"/>
		<path class="st1" d="M261.6,113.5l108.8,59.7v26c0,1.7,1.8,2.8,3.3,2l63.1-31.3c1.5-0.7,2.4-2.2,2.4-3.8v-26.8L261.6,113.5z"/>
		<g>
			<g>
				<g>
					<g>
						<g>
							<polygon class="st27" points="345,88.6 345,155.2 337.6,151.5 337.6,84.9 							"/>
							<polygon class="st27" points="314.4,85.1 314.4,139.9 307,136.2 307,88.8 							"/>
							<polygon class="st28" points="360.3,96.3 360.3,162.9 352.9,159.2 352.9,92.6 							"/>
							<path class="st28" d="M449.9,139c1.1,0.5,0.8,3.4-0.3,3.9l-4.4,2.2v-6.4L449.9,139z"/>
							<path class="st28" d="M391.3,111.8v60.3l-4.3,2.2c-0.8,0.4-2.1,0.5-3.1,0.3v-66.4L391.3,111.8z"/>
							<path class="st28" d="M324.2,80.2c1.1-0.5,2.9-0.5,4,0l1.5,0.8v66.6l-7.4-3.7V81.2L324.2,80.2z"/>
							<polygon class="st27" points="406.6,119.4 406.6,164.4 399.2,168.1 399.2,115.7 							"/>
							<polygon class="st27" points="437.3,134.8 437.3,149.1 429.9,152.8 429.9,131.1 							"/>
							<path class="st28" d="M268,116.7l-6.5-3.2c-1.1-0.5-1.5-3.3-0.4-3.9l6.9-1.4V116.7z"/>
							<polygon class="st27" points="283.4,100.6 283.4,124.4 276,120.7 276,104.3 							"/>
							<polygon class="st28" points="299,92.8 299,132.2 291.3,128.3 291.3,96.7 							"/>
							<polygon class="st28" points="422,127.1 422,156.7 414.6,160.4 414.6,123.4 							"/>
							<polygon class="st27" points="376,104.1 376,170.7 368.3,166.8 368.3,100.2 							"/>
							<polygon class="st29" points="445.2,138.7 445.2,145.1 437.3,149.1 437.3,134.8 							"/>
							<polygon class="st29" points="429.9,131.1 429.9,152.8 422,156.7 422,127.1 							"/>
							<polygon class="st29" points="414.6,123.4 414.6,160.4 406.6,164.4 406.6,119.4 							"/>
							<polygon class="st29" points="399.2,115.7 399.2,168.1 391.3,172.1 391.3,111.8 							"/>
							<path class="st29" d="M383.9,108.1v66.4c-0.3-0.1-0.6-0.2-0.9-0.3l-7.1-3.5v-66.6L383.9,108.1z"/>
							<polygon class="st29" points="368.3,100.2 368.3,166.8 360.3,162.9 360.3,96.3 							"/>
							<polygon class="st29" points="352.9,92.6 352.9,159.2 345,155.2 345,88.6 							"/>
							<polygon class="st29" points="337.6,84.9 337.6,151.5 329.7,147.5 329.7,81 							"/>
							<polygon class="st29" points="322.3,81.2 322.3,143.8 314.4,139.9 314.4,85.1 							"/>
							<polygon class="st29" points="307,88.8 307,136.2 299,132.2 299,92.8 							"/>
							<polygon class="st29" points="291.3,96.7 291.3,128.3 283.4,124.4 283.4,100.6 							"/>
							<polygon class="st29" points="276,104.3 276,120.7 268,116.7 268,108.3 							"/>
						</g>
						<path class="st11" d="M271.5,113.5L383,169.3c1.1,0.5,2.9,0.5,4,0l52.7-26.4c1.1-0.5,1.1-1.4,0-2L328.2,85.1
							c-1.1-0.5-2.9-0.5-4,0l-52.7,26.4C270.4,112.1,270.4,112.9,271.5,113.5z"/>
					</g>
					<g>
						<g>
							<polygon class="st30" points="345,86.5 345,153.1 337.6,149.4 337.6,82.8 							"/>
							<polygon class="st30" points="314.4,83 314.4,137.7 307,134 307,86.7 							"/>
							<polygon class="st31" points="360.3,94.1 360.3,160.7 352.9,157 352.9,90.4 							"/>
							<path class="st31" d="M449.6,138.8c1.1,0.5,1.1,1.4,0,2l-4.4,2.2v-6.4L449.6,138.8z"/>
							<path class="st31" d="M391.3,109.6v60.3l-4.3,2.2c-0.8,0.4-2.1,0.5-3.1,0.3v-66.4L391.3,109.6z"/>
							<path class="st31" d="M324.2,78.1c1.1-0.5,2.9-0.5,4,0l1.5,0.8v66.6l-7.4-3.7V79L324.2,78.1z"/>
							<polygon class="st30" points="406.6,117.3 406.6,162.3 399.2,166 399.2,113.6 							"/>
							<polygon class="st30" points="437.3,132.6 437.3,146.9 429.9,150.6 429.9,128.9 							"/>
							<path class="st31" d="M268,114.6l-6.5-3.2c-1.1-0.5-1.1-1.4,0-2l6.5-3.2V114.6z"/>
							<polygon class="st30" points="283.4,98.5 283.4,122.2 276,118.5 276,102.2 							"/>
							<polygon class="st31" points="299,90.6 299,130.1 291.3,126.2 291.3,94.5 							"/>
							<polygon class="st31" points="422,125 422,154.6 414.6,158.3 414.6,121.3 							"/>
							<polygon class="st30" points="376,102 376,168.6 368.3,164.7 368.3,98.1 							"/>
							<polygon class="st11" points="445.2,136.6 445.2,143 437.3,146.9 437.3,132.6 							"/>
							<polygon class="st11" points="429.9,128.9 429.9,150.6 422,154.6 422,125 							"/>
							<polygon class="st11" points="414.6,121.3 414.6,158.3 406.6,162.3 406.6,117.3 							"/>
							<polygon class="st11" points="399.2,113.6 399.2,166 391.3,169.9 391.3,109.6 							"/>
							<path class="st11" d="M383.9,105.9v66.4c-0.3-0.1-0.6-0.2-0.9-0.3l-7.1-3.5V102L383.9,105.9z"/>
							<polygon class="st11" points="368.3,98.1 368.3,164.7 360.3,160.7 360.3,94.1 							"/>
							<polygon class="st11" points="352.9,90.4 352.9,157 345,153.1 345,86.5 							"/>
							<polygon class="st11" points="337.6,82.8 337.6,149.4 329.7,145.4 329.7,78.8 							"/>
							<polygon class="st11" points="322.3,79 322.3,141.7 314.4,137.7 314.4,83 							"/>
							<polygon class="st11" points="307,86.7 307,134 299,130.1 299,90.6 							"/>
							<polygon class="st11" points="291.3,94.5 291.3,126.2 283.4,122.2 283.4,98.5 							"/>
							<polygon class="st11" points="276,102.2 276,118.5 268,114.6 268,106.1 							"/>
						</g>
						<path class="st11" d="M271.5,111.3L383,167.1c1.1,0.5,2.9,0.5,4,0l52.7-26.4c1.1-0.5,1.1-1.4,0-2L328.2,83
							c-1.1-0.5-2.9-0.5-4,0l-52.7,26.4C270.4,109.9,270.4,110.8,271.5,111.3z"/>
					</g>
				</g>
				<g>
					<polygon class="st27" points="413.5,145.3 427.4,138.3 417.1,133.2 403.2,140.1 					"/>
					<polygon class="st32" points="403.6,140.1 413.5,145.1 427,138.3 417.1,133.4 					"/>
					<path class="st33" d="M421.5,141.1c0,0-6.7-0.8-8.6-2c-2-1.2-2.2-2.5-2.2-2.5l-3.5,1.7l9.9,5L421.5,141.1z"/>
					<path class="st34" d="M417.6,143c0,0-6.3-3-6.7-6.6l-7.4,3.7l9.9,5L417.6,143z"/>
					<g>
						<path class="st11" d="M421.4,137.6c0.5-0.2,1.1-0.2,1.5,0.1c0.4,0.2,0.4,0.5,0.2,0.7c0.2,0,0.4,0.1,0.6,0.2
							c0.3,0.2,0.3,0.5,0,0.7c0,0,0,0,0,0c-0.3,0.2-0.8,0.2-1.1,0L422,139l-0.4-0.2l-0.8-0.4l-0.2-0.1l-0.5-0.2
							c-0.2-0.1-0.3-0.3,0-0.4c0,0,0,0,0,0C420.5,137.4,421.1,137.4,421.4,137.6z"/>
						<path class="st11" d="M415.8,137.9c0.2-0.1,0.5-0.1,0.7,0c0.2,0.1,0.2,0.2,0.1,0.3c0.1,0,0.2,0.1,0.3,0.1
							c0.1,0.1,0.1,0.2,0,0.3c0,0,0,0,0,0c-0.1,0.1-0.4,0.1-0.5,0l-0.3-0.2l-0.2-0.1l-0.4-0.2l-0.1-0.1l-0.2-0.1
							c-0.1-0.1-0.1-0.2,0-0.2c0,0,0,0,0,0C415.3,137.8,415.6,137.8,415.8,137.9z"/>
						<path class="st11" d="M415.6,135.2c0.3-0.1,0.8-0.1,1.1,0c0.3,0.1,0.3,0.4,0.1,0.5c0.2,0,0.3,0.1,0.5,0.2
							c0.2,0.1,0.2,0.4,0,0.5c0,0,0,0,0,0c-0.2,0.1-0.6,0.1-0.8,0l-0.5-0.2l-0.3-0.1l-0.6-0.3l-0.2-0.1l-0.4-0.2
							c-0.2-0.1-0.2-0.2,0-0.3c0,0,0,0,0,0C414.9,135.1,415.4,135.1,415.6,135.2z"/>
					</g>
				</g>
				<g>
					<g>
						<path class="st27" d="M402.6,132.6c-2.2-1.2-5.4-2.5-10.3-3.3c0.2,0,0.3,0,0.4-0.1c0.1-0.1,0-0.2-0.2-0.2
							c5.2,0.9,8.6,2.3,10.8,3.6C403.1,132.6,402.8,132.6,402.6,132.6z"/>
						<path class="st27" d="M392.1,129.1c0,0.1,0,0.1,0.1,0.2c0,0,0.1,0,0.1,0c-4.3-0.7-7.4-1.9-9.7-3c-1.2-0.6-2.1-1.2-2.8-1.7
							c-2.2-1.6-2.8-3-2.8-3c0-0.1,0.1-0.2,0.2-0.2c0.2,0,0.3,0,0.4,0.1c0,0,0.6,1.3,2.7,2.9c2,1.5,5.7,3.4,12.1,4.5
							C392.3,129,392.2,129,392.1,129.1z"/>
						<path class="st27" d="M392.7,129.2c-0.1,0.1-0.2,0.1-0.4,0.1c0,0-0.1,0-0.1,0c-0.1,0-0.1-0.1-0.1-0.2c0.1-0.1,0.2-0.1,0.4-0.1
							C392.6,129,392.7,129.1,392.7,129.2z"/>
						<path class="st27" d="M389,130.9c0.2,0,0.3,0,0.4-0.1c0.1-0.1,0-0.2-0.2-0.2c3.7,0.6,6.5,1.5,8.6,2.5c-0.2,0-0.4,0.1-0.6,0.1
							C395.2,132.4,392.5,131.5,389,130.9z"/>
						<path class="st27" d="M388.8,130.8c0,0.1,0,0.1,0.1,0.2c0,0,0.1,0,0.1,0c-4.3-0.7-7.4-1.9-9.7-3c-1.2-0.6-2.1-1.2-2.8-1.7
							c-2.2-1.6-2.8-3-2.8-3c0-0.1,0.1-0.2,0.2-0.2c0.2,0,0.3,0,0.4,0.1c0,0,0.6,1.3,2.7,2.9c2,1.5,5.7,3.4,12.1,4.5
							C389,130.6,388.8,130.7,388.8,130.8z"/>
						<path class="st27" d="M389.3,130.9c-0.1,0.1-0.2,0.1-0.4,0.1c0,0-0.1,0-0.1,0c-0.1,0-0.1-0.1-0.1-0.2c0.1-0.1,0.2-0.1,0.4-0.1
							C389.3,130.7,389.4,130.8,389.3,130.9z"/>
						<path class="st27" d="M385.6,132.6c0.2,0,0.3,0,0.4-0.1c0.1-0.1,0-0.2-0.2-0.2c3.3,0.6,6,1.4,8,2.2c-0.1,0.1-0.3,0.1-0.4,0.2
							C391.4,133.9,388.9,133.2,385.6,132.6z"/>
						<path class="st27" d="M385.5,132.4c0,0.1,0,0.1,0.1,0.2c0,0,0.1,0,0.1,0c-4.3-0.7-7.4-1.9-9.7-3c-1.2-0.6-2.1-1.2-2.8-1.7
							c-2.2-1.6-2.8-3-2.8-3c0-0.1,0.1-0.2,0.2-0.2c0.2,0,0.3,0,0.4,0.1c0,0,0.6,1.3,2.7,2.9c2,1.5,5.7,3.4,12.1,4.5
							C385.7,132.3,385.5,132.4,385.5,132.4z"/>
						<path class="st27" d="M386,132.5c-0.1,0.1-0.2,0.1-0.4,0.1c0,0-0.1,0-0.1,0c-0.1,0-0.1-0.1-0.1-0.2c0.1-0.1,0.2-0.1,0.4-0.1
							C386,132.4,386.1,132.4,386,132.5z"/>
						<path class="st27" d="M382.7,134.2c0.1-0.1,0-0.2-0.2-0.2c3.8,0.6,6.6,1.6,8.8,2.5c-0.1,0.1-0.2,0.2-0.2,0.3
							c-2.1-1-4.9-1.9-8.7-2.5C382.5,134.3,382.6,134.3,382.7,134.2z"/>
						<path class="st27" d="M367.3,126.5c0.2,0,0.3,0,0.4,0.1c0,0,0.6,1.3,2.7,2.9c2,1.5,5.7,3.4,12.1,4.5c-0.2,0-0.3,0-0.4,0.1
							c0,0.1,0,0.1,0.1,0.2c0,0,0.1,0,0.1,0c-4.3-0.7-7.4-1.9-9.7-3c-1.2-0.6-2.1-1.2-2.8-1.7c-2.2-1.6-2.8-3-2.8-3
							C367,126.6,367.1,126.5,367.3,126.5z"/>
						<path class="st27" d="M382.1,134.1c0.1-0.1,0.2-0.1,0.4-0.1c0.2,0,0.2,0.1,0.2,0.2c-0.1,0.1-0.2,0.1-0.4,0.1c0,0-0.1,0-0.1,0
							C382.1,134.2,382.1,134.2,382.1,134.1z"/>
					</g>
					<g>
						<g>
							<path class="st27" d="M394,134.4c-4.9,2.5-4.9,6.5,0,8.9c4.9,2.5,12.9,2.5,17.9,0c4.9-2.5,4.9-6.5,0-8.9
								C407,132,399,132,394,134.4z M394.5,134.7c4.6-2.3,12.2-2.3,16.8,0c4.6,2.3,4.6,6.1,0,8.4c-4.6,2.3-12.2,2.3-16.8,0
								C389.9,140.8,389.9,137,394.5,134.7z"/>
						</g>
						<g>
							<path class="st27" d="M397.1,136c-3.2,1.6-3.2,4.2,0,5.8c3.2,1.6,8.4,1.6,11.6,0c3.2-1.6,3.2-4.2,0-5.8
								C405.6,134.4,400.3,134.4,397.1,136z M397.7,136.3c2.9-1.5,7.6-1.5,10.5,0c2.9,1.5,2.9,3.8,0,5.3c-2.9,1.5-7.6,1.5-10.5,0
								C394.8,140.1,394.8,137.7,397.7,136.3z"/>
						</g>
						<g>
							<path class="st27" d="M409.5,142.2c-0.3,0.1-0.3,0.4,0,0.5c0.3,0.1,0.7,0.1,1,0c0.3-0.1,0.3-0.4,0-0.5
								C410.2,142,409.8,142,409.5,142.2z"/>
						</g>
						<g>
							<path class="st27" d="M395.4,135.2c-0.3,0.1-0.3,0.4,0,0.5c0.3,0.1,0.7,0.1,1,0c0.3-0.1,0.3-0.4,0-0.5
								C396.1,135,395.7,135,395.4,135.2z"/>
						</g>
						<g>
							<g>
								<path class="st27" d="M407,139.3c-0.3,0.1-0.3,0.4,0,0.5c0.3,0.1,0.7,0.1,1,0c0.3-0.1,0.3-0.4,0-0.5
									C407.7,139.2,407.3,139.2,407,139.3z"/>
							</g>
							<g>
								<path class="st27" d="M404.1,137.9c-0.3,0.1-0.3,0.4,0,0.5c0.3,0.1,0.7,0.1,1,0c0.3-0.1,0.3-0.4,0-0.5
									C404.8,137.7,404.4,137.7,404.1,137.9z"/>
							</g>
							<g>
								<path class="st27" d="M401.2,136.4c-0.3,0.1-0.3,0.4,0,0.5c0.3,0.1,0.7,0.1,1,0c0.3-0.1,0.3-0.4,0-0.5
									C401.9,136.3,401.5,136.3,401.2,136.4z"/>
							</g>
						</g>
						<g>
							<g>
								<path class="st27" d="M403.4,141.1c-0.3,0.1-0.3,0.4,0,0.5c0.3,0.1,0.7,0.1,1,0c0.3-0.1,0.3-0.4,0-0.5
									C404.1,141,403.7,141,403.4,141.1z"/>
							</g>
							<g>
								<path class="st27" d="M400.5,139.7c-0.3,0.1-0.3,0.4,0,0.5c0.3,0.1,0.7,0.1,1,0c0.3-0.1,0.3-0.4,0-0.5
									C401.2,139.5,400.8,139.5,400.5,139.7z"/>
							</g>
							<g>
								<path class="st27" d="M397.6,138.2c-0.3,0.1-0.3,0.4,0,0.5c0.3,0.1,0.7,0.1,1,0c0.3-0.1,0.3-0.4,0-0.5
									C398.3,138.1,397.9,138.1,397.6,138.2z"/>
							</g>
						</g>
					</g>
				</g>
				<g>
					<polygon class="st27" points="323.4,88.4 354.2,103.8 355.2,103.3 324.4,87.9 					"/>
					<polygon class="st27" points="320.4,89.9 351.2,105.3 352.1,104.8 321.4,89.4 					"/>
					<polygon class="st27" points="317.4,91.4 348.2,106.8 349.1,106.3 318.3,90.9 					"/>
					<polygon class="st27" points="314.4,92.9 345.1,108.3 346.1,107.8 315.3,92.4 					"/>
				</g>
				<g>
					<polygon class="st27" points="363.1,140.9 393.9,156.3 394.8,155.8 364.1,140.4 					"/>
					<polygon class="st27" points="360.1,142.4 390.9,157.8 391.8,157.3 361,141.9 					"/>
					<polygon class="st27" points="357.1,143.9 387.8,159.3 388.8,158.8 358,143.4 					"/>
					<polygon class="st27" points="354,145.4 384.8,160.8 385.8,160.4 355,145 					"/>
				</g>
				<g>
					<polygon class="st27" points="331.9,136 332.6,136.3 337.6,133.9 336.9,133.5 					"/>
					<polygon class="st27" points="329.9,135 330.6,135.3 335.6,132.8 334.9,132.5 					"/>
					<polygon class="st27" points="327.9,134 328.6,134.3 330.5,133.4 329.8,133 					"/>
					<polygon class="st27" points="325.9,133 326.6,133.3 328.5,132.4 327.8,132 					"/>
					<polygon class="st27" points="323.9,132 324.6,132.3 326.5,131.4 325.8,131 					"/>
					<polygon class="st27" points="321.9,131 322.6,131.3 324.5,130.4 323.8,130 					"/>
					<polygon class="st27" points="319.9,130 320.6,130.3 322.5,129.4 321.8,129 					"/>
					<polygon class="st27" points="317.9,129 318.6,129.3 320.5,128.4 319.8,128 					"/>
					<polygon class="st27" points="315.9,128 316.6,128.3 321.6,125.8 320.9,125.5 					"/>
					<polygon class="st27" points="313.9,127 314.6,127.3 319.6,124.8 318.9,124.5 					"/>
					<polygon class="st27" points="311.9,126 312.6,126.3 314.5,125.4 313.8,125 					"/>
					<polygon class="st27" points="309.9,125 310.6,125.3 312.5,124.4 311.8,124 					"/>
					<polygon class="st27" points="307.9,124 308.6,124.3 313.6,121.8 312.8,121.5 					"/>
					<polygon class="st27" points="305.9,123 306.6,123.3 308.5,122.4 307.8,122 					"/>
					<polygon class="st27" points="303.9,122 304.6,122.3 309.6,119.8 308.8,119.5 					"/>
					<polygon class="st27" points="301.9,121 302.6,121.3 307.6,118.8 306.8,118.5 					"/>
					<polygon class="st27" points="299.9,120 300.6,120.3 305.6,117.8 304.8,117.5 					"/>
					<polygon class="st27" points="297.9,119 298.6,119.3 303.6,116.8 302.8,116.5 					"/>
					<polygon class="st27" points="295.9,118 296.6,118.3 298.5,117.4 297.7,117 					"/>
					<polygon class="st27" points="293.9,117 294.6,117.3 296.5,116.4 295.7,116 					"/>
					<polygon class="st27" points="291.9,116 292.6,116.3 294.5,115.4 293.7,115 					"/>
					<polygon class="st27" points="289.9,115 290.6,115.3 292.4,114.4 291.7,114 					"/>
					<polygon class="st27" points="287.9,114 288.6,114.3 290.4,113.4 289.7,113 					"/>
					<polygon class="st27" points="285.9,113 286.6,113.3 291.5,110.8 290.8,110.5 					"/>
				</g>
			</g>
		</g>
		<g>
			<polygon class="st1" points="187.2,380.1 228.3,373.8 252.2,340.9 230.5,329.8 			"/>
			<polygon class="st1" points="97.3,319.4 139.5,356.2 157.9,328.9 			"/>
			<g>
				
					<linearGradient id="SVGID_1_" gradientUnits="userSpaceOnUse" x1="172.7551" y1="373.5163" x2="208.2048" y2="338.0667" gradientTransform="matrix(-0.9797 0.2005 0.2005 0.9797 319.9354 -22.6693)">
					<stop  offset="0" style="stop-color:#FFFFFF"/>
					<stop  offset="1" style="stop-color:#858585"/>
				</linearGradient>
				<polygon class="st35" points="228.3,373.8 176.2,361.8 217.6,356.2 				"/>
				<g>
					<polygon class="st36" points="95.7,313 227.1,348.6 250,330.6 231.6,314.3 					"/>
					<g>
						<defs>
							<polygon id="SVGID_2_" points="235.1,317.5 231.6,314.3 173.5,334.1 180.1,335.9 							"/>
						</defs>
						<clipPath id="SVGID_3_">
							<use xlink:href="#SVGID_2_"  style="overflow:visible;"/>
						</clipPath>
						<g style="opacity:0.68;clip-path:url(#SVGID_3_);">
							
								<image style="overflow:visible;" width="262" height="89" xlink:href="D290424C799A43FB.png"  transform="matrix(0.24 0 0 0.24 173.28 314.16)">
							</image>
						</g>
					</g>
				</g>
				<g>
					<polygon class="st36" points="95.7,313 217.6,356.2 187.2,380.1 159.1,375.5 					"/>
					
						<linearGradient id="SVGID_4_" gradientUnits="userSpaceOnUse" x1="223.7758" y1="343.2546" x2="229.662" y2="340.5099" gradientTransform="matrix(-0.9797 0.2005 0.2005 0.9797 319.9354 -22.6693)">
						<stop  offset="0" style="stop-color:#FAFAFA"/>
						<stop  offset="0.4883" style="stop-color:#F8F8F8"/>
						<stop  offset="0.6642" style="stop-color:#F1F1F1"/>
						<stop  offset="0.7895" style="stop-color:#E6E6E6"/>
						<stop  offset="0.8909" style="stop-color:#D5D5D5"/>
						<stop  offset="0.9767" style="stop-color:#BFBFBF"/>
						<stop  offset="1" style="stop-color:#B8B8B8"/>
					</linearGradient>
					<polygon class="st37" points="167.6,338.5 159.1,375.5 165.2,376.5 171.7,339.9 					"/>
				</g>
				<g>
					
						<linearGradient id="SVGID_5_" gradientUnits="userSpaceOnUse" x1="165.4226" y1="326.9594" x2="287.0258" y2="326.9594" gradientTransform="matrix(-0.9797 0.2005 0.2005 0.9797 319.9354 -22.6693)">
						<stop  offset="0" style="stop-color:#F7F7F7"/>
						<stop  offset="1" style="stop-color:#B8B8B8"/>
					</linearGradient>
					<polygon class="st38" points="227.1,348.6 228.3,373.8 217.6,356.2 95.7,313 					"/>
					
						<image style="overflow:visible;" width="29" height="35" xlink:href="D290424C799A43F9.png"  transform="matrix(0.24 0 0 0.24 173.28 334.08)">
					</image>
				</g>
			</g>
		</g>
	</g>
</g>
</svg>
