<?xml version="1.0" encoding="utf-8"?>
<!-- Generator: Adobe Illustrator 23.0.4, SVG Export Plug-In . SVG Version: 6.00 Build 0)  -->
<svg version="1.1" id="Layer_1" xmlns="http://www.w3.org/2000/svg" xmlns:xlink="http://www.w3.org/1999/xlink" x="0px" y="0px"
	 viewBox="0 0 118.3 85.4" style="enable-background:new 0 0 118.3 85.4;" xml:space="preserve">
<style type="text/css">
	.st0{opacity:0.8;}
	.st1{fill:#404040;}
	.st2{fill:#464646;}
	.st3{fill:#555555;}
	.st4{fill:#898989;}
	.st5{fill:url(#SVGID_1_);}
	.st6{opacity:0.6;fill:url(#SVGID_2_);}
	.st7{opacity:0.5;fill:url(#SVGID_3_);}
	.st8{opacity:0.4;fill:#FFFFFF;}
	.st9{opacity:0.4;fill:url(#SVGID_4_);}
	.st10{fill:url(#SVGID_5_);}
	.st11{opacity:0.6;fill:url(#SVGID_6_);}
	.st12{opacity:0.7;fill:url(#SVGID_7_);}
</style>
<g class="st0">
	<g>
		<path class="st1" d="M13.6,56.1c0-0.2-0.2-0.3-0.3-0.1c-1.8,3.9-2.7,8.3-3.5,12.5c-0.7,3.6-1.5,8-0.4,11.6
			c0.1,0.2,0.4,0.1,0.4-0.1c-0.2-4,0.3-8,1-12C11.6,64.1,12.9,60.2,13.6,56.1z"/>
		<path class="st1" d="M13.8,56.4c-1.1,4.1-1.5,8.3-2.3,12.4c-0.7,3.8-1.7,8-0.8,11.9c0,0.1,0.2,0.1,0.3,0c0.1-2,0.1-3.9,0.3-5.9
			c0.2-2,0.6-3.9,1-5.8c0.8-4.1,1.2-8.3,1.9-12.4C14,56.2,13.8,56.2,13.8,56.4z"/>
		<path class="st1" d="M16,67.5c-0.1-2.2-0.1-4.4-0.2-6.6c-0.1-1.5,0.1-3-0.6-4.3c0-0.1-0.2,0-0.2,0.1c0.2,1.2,0.2,2.4,0.2,3.6
			c0-1.5-0.2-2.9-0.4-4.4c0-0.2-0.3-0.2-0.3,0c-0.1,1.9,0.1,3.8,0,5.7c-0.1,2-0.1,4.1-0.2,6.1c-0.1,4.1-0.5,8.3-0.2,12.5
			c0,0.3,0.4,0.3,0.4,0c0.5-3.9,0.4-8,0.5-12c0.1-1.9,0.1-3.9,0.1-5.8c0,1.7,0,3.5,0.1,5.2c0.1,2.1,0.1,4.1,0.1,6.2
			c0,2.2-0.5,4.4-0.3,6.7c0,0.3,0.5,0.3,0.5,0C16.1,76.1,16.2,71.9,16,67.5z"/>
		<path class="st1" d="M17.4,66.7c-0.1-2.3-0.3-4.7-0.7-7c-0.2-1.3-0.2-3-1.2-4c-0.1-0.1-0.4,0-0.3,0.2c1.2,3.4,1.2,7.3,1.4,10.8
			c0.1,2.2,0.3,4.5,0.3,6.7c0,2.3-0.2,4.6-0.4,6.9c0,0.2,0.4,0.4,0.5,0.1c0.6-1.9,0.6-3.9,0.7-5.9C17.7,72,17.6,69.3,17.4,66.7z"/>
		<path class="st2" d="M14.8,57c0-0.1-0.2-0.1-0.2,0c0,0,0,0,0,0c0-0.3-0.2-0.6-0.4-0.7c-0.1-0.1-0.4,0-0.3,0.2
			c0.4,0.8-0.3,2.7-0.5,3.5c-0.4,2.2-0.6,4.5-0.9,6.8c-0.3,2.3-0.4,4.7-0.5,7.1c-0.1,2.1-0.5,4.4,0,6.5c0.1,0.2,0.5,0.2,0.5,0
			c0.3-5,0.5-10.1,1.3-15.1c0.3-2,0.4-4.1,0.7-6.1c0-0.2,0.1-0.6,0.1-0.9c-0.1,3.5-0.6,7.1-0.8,10.6c-0.2,3.8-0.4,7.6-0.6,11.3
			c0,0.2,0.3,0.3,0.4,0.1c0.5-1.6,0.5-3.3,0.6-4.9c0.1-2.1,0.3-4.3,0.4-6.4C14.8,64.9,15.4,60.9,14.8,57z"/>
		<path class="st2" d="M16.7,75.2c0-2.2,0-4.4-0.1-6.6c0-4,0.1-8.8-1.4-12.5c-0.1-0.1-0.2-0.1-0.2,0.1c0,1.8,0.4,3.6,0.6,5.4
			c0.2,2,0.2,4,0.3,6c0.1,4,0.2,8.1,0,12.1c0,0.2,0.3,0.4,0.4,0.1C16.6,78.3,16.7,76.7,16.7,75.2z"/>
		<path class="st2" d="M13.6,56c-0.3,1.8-1.2,3.4-1.7,5.1C11.4,63,11,65,10.7,66.9c-0.6,3.8-1.6,8-1,11.9c0,0.2,0.2,0.2,0.3,0
			c0.3-2,0.2-4,0.6-5.9c0.3-1.9,0.6-3.9,0.9-5.8c0.3-2,0.7-3.9,1.2-5.8c0.5-1.7,1.3-3.4,1.2-5.2C13.9,55.9,13.6,55.9,13.6,56z"/>
		<path class="st3" d="M15.6,62.1c-0.2-2,0-4.2-0.9-6.1c-0.1-0.1-0.3-0.1-0.3,0.1c0,0.2,0.1,0.5,0.1,0.7c-0.1-0.2-0.1-0.3-0.2-0.5
			c0,0,0,0,0,0c0-0.1,0-0.2-0.1-0.3c-0.1-0.1-0.3-0.1-0.3,0.1c0.2,1.4-0.7,2.8-1.2,4c-0.6,1.8-1.1,3.7-1.3,5.6
			c-0.5,4-1.1,8.2-0.9,12.3c0,0.2,0.3,0.2,0.3,0c0.3-4.3,0.9-8.5,1.4-12.7c0.2-1.6,0.6-3.2,1.2-4.7c-0.4,2.7-0.8,5.3-1.1,8
			c-0.4,3.4-0.9,7-0.7,10.4c0,0.1,0.2,0.2,0.3,0c0.6-6.8,1.5-13.5,2.3-20.3c0-0.1,0.1-0.3,0.1-0.4c0,1-0.2,2.1-0.2,3.1
			c0,1.9-0.2,3.8-0.3,5.7c-0.2,3.9-1,7.9-0.9,11.8c0,0.2,0.3,0.2,0.3,0c0.9-3.8,1.2-8,1.3-11.9c0.1-2.1,0.2-4.3,0.3-6.4
			c0-0.4,0-0.9,0-1.3c0.3,2.9,0.3,5.8,0.3,8.6c0.1,4.2,0.2,8.6-0.4,12.7c0,0.2,0.3,0.3,0.4,0.1c0.6-1.6,0.5-3.4,0.5-5.1
			c0-2.2,0.2-4.5,0.2-6.7C15.8,66.7,15.8,64.4,15.6,62.1z"/>
		<path class="st1" d="M16,49.6c-0.1-0.2-0.3-0.1-0.3,0.1c0,0.7-0.1,1.3-0.2,2c0,0.1-0.1,0.3-0.1,0.4c0-0.1,0-0.3,0.1-0.4
			c0.1-0.7,0.2-1.5-0.1-2.1c-0.1-0.2-0.3-0.1-0.3,0.1c0,0.8-0.1,1.5-0.3,2.2c0,0.2-0.1,0.4-0.2,0.7c0-0.4,0.1-0.8,0.1-1.2
			c0.1-0.6,0.1-1.2,0-1.9c0-0.2-0.3-0.2-0.4,0c-0.1,0.7-0.2,1.4-0.3,2.1c0,0,0,0,0,0c-0.1-2.3-0.4-4.7-0.6-7c-0.2-1.5-0.3-3-0.4-4.6
			c-0.1-1.1-0.1-2.2-0.8-3.1c-0.1-0.1-0.4-0.1-0.3,0.1c0.5,2.5,0.4,5.1,0.7,7.6c0.3,2.5,0.4,5,0.5,7.5c-0.1-0.2-0.1-0.5-0.2-0.7
			c-0.2-0.7-0.3-1.4-0.5-2.2c0-0.2-0.3-0.1-0.3,0c-0.1,0.7,0,1.3,0.1,2c0,0.3,0.1,0.6,0.1,0.9c-0.1-0.2-0.2-0.4-0.2-0.6
			c-0.2-0.8-0.3-1.7-0.6-2.5c-0.1-0.2-0.3-0.1-0.3,0c-0.1,0.9,0,1.8,0.2,2.6c0.1,0.7,0.3,1.8,1,2.2c0.2,0.1,0.5-0.1,0.4-0.3
			c0,0,0-0.1,0-0.1c0.1,0,0.3,0,0.3-0.2c0,0,0-0.1,0-0.1c0,0.3,0,0.6,0.1,0.8c0,0.4,0.7,0.5,0.7,0c0-0.1,0-0.2,0-0.4
			c0.1,0.1,0.3,0,0.3-0.1c0,0.1,0,0.1,0,0.2c0,0.3,0.5,0.4,0.6,0.1c0.1-0.1,0.1-0.3,0.2-0.4c0,0.2,0.4,0.2,0.5,0.1
			c0.3-0.5,0.4-1.2,0.5-1.8C16.2,50.9,16.2,50.2,16,49.6z"/>
		<path class="st2" d="M13.4,51.5c-0.1-0.6,0-1.3,0-1.9c0-0.2-0.3-0.2-0.3,0c-0.2,0.6-0.2,1.3-0.2,2c0,0.2,0,0.4,0,0.6
			c-0.1-0.2-0.2-0.4-0.3-0.7c-0.2-0.7-0.4-1.4-0.4-2.1c0-0.2-0.3-0.2-0.3,0c-0.1,0.6,0,1.2,0.1,1.8c0.2,0.6,0.3,1.4,0.8,1.9
			c0.1,0.1,0.3,0,0.3-0.1c0,0.1,0.1,0.2,0.2,0.3c0.1,0.2,0.4,0.1,0.4-0.1C13.7,52.7,13.5,52.1,13.4,51.5z"/>
		<path class="st2" d="M15.4,50c-0.1-0.2-0.4-0.2-0.4,0c-0.1,0.4-0.2,0.8-0.3,1.3c0-0.5,0-1-0.1-1.6c0-0.2-0.3-0.2-0.3,0
			c-0.1,0.6-0.2,1.3-0.2,1.9c-0.1,0.5-0.4,1.1-0.3,1.7c0,0.2,0.3,0.3,0.5,0.1c0.1-0.1,0.1-0.2,0.2-0.3c0,0.1,0,0.1,0,0.2
			c0.1,0.2,0.4,0.3,0.6,0.1c0.3-0.5,0.3-1.1,0.4-1.7C15.5,51.1,15.5,50.5,15.4,50z"/>
		<path class="st3" d="M13.4,53.1c-0.5-1.1-0.6-2.2-0.5-3.4c0-0.2-0.3-0.2-0.3-0.1c-0.2,1-0.4,2.8,0.4,3.7
			C13.1,53.5,13.5,53.3,13.4,53.1z"/>
		<path class="st3" d="M14.5,50c-0.1,0.6-0.3,1.2-0.4,1.7c0-0.1,0-0.2,0-0.3c0-0.5,0-1.1-0.1-1.6c-0.1-0.2-0.3-0.1-0.4,0
			c-0.1,0.5-0.1,1-0.2,1.6c-0.1,0.5-0.2,1-0.1,1.4c0.1,0.3,0.4,0.4,0.5,0.2c0,0.2,0,0.3,0.1,0.4c0.1,0.2,0.4,0.1,0.5,0
			c0.2-0.5,0.1-1.1,0.2-1.5c0.1-0.6,0.2-1.2,0.2-1.8C14.9,49.8,14.6,49.7,14.5,50z"/>
		<path class="st1" d="M15.8,53.4c-1-0.7-2.7-0.2-3.6,0.2c-0.1,0.1-0.1,0.2-0.1,0.3c-0.2,0.2-0.4,0.5-0.4,1c0,0.7,0.2,1.5,0.9,1.8
			c0.7,0.3,1.5,0.1,2.3-0.2c0.6-0.2,1.4-0.6,1.5-1.3C16.4,54.5,16.3,53.8,15.8,53.4z"/>
		<path class="st2" d="M15.4,53.3c-1,0.1-2,0-2.9,0.5c-0.2,0.1,0,0.4,0.2,0.4c0.3-0.1,0.7-0.2,1-0.2c-0.4,0.1-0.8,0.2-1.1,0.2
			c-0.4,0-0.5,0.7,0,0.8c0.2,0,0.3,0,0.5,0c-0.1,0-0.2,0.1-0.3,0.1c-0.4,0.2-0.3,0.8,0.2,0.8c0.5,0,1-0.3,1.6-0.4
			c0,0.2,0.2,0.3,0.4,0.3c0.3,0,0.5-0.1,0.7-0.3c0.2-0.2,0.1-0.5-0.1-0.6c-0.1,0-0.1-0.1-0.2-0.1c0,0,0.1-0.1,0.1-0.1
			c0.1-0.2,0.1-0.4-0.1-0.6c0.1-0.1,0.3-0.2,0.4-0.3C15.9,53.8,15.7,53.3,15.4,53.3z"/>
		<path class="st3" d="M15.2,53.5c-0.3,0-0.6,0.1-0.9,0.2c-0.5,0.1-1,0.2-1.5,0.2c-0.1,0-0.2,0.2,0,0.2c0.8,0.2,1.8,0.1,2.5-0.3
			C15.3,53.7,15.3,53.5,15.2,53.5z"/>
		<path class="st3" d="M15.3,54.1c-0.5,0.1-0.9,0.3-1.4,0.3c-0.4,0-0.9,0-1.3,0c-0.2,0-0.2,0.2,0,0.3c0.8,0.3,2.1,0.3,2.9-0.3
			C15.7,54.3,15.5,54,15.3,54.1z"/>
		<path class="st3" d="M15.5,54.8c-0.3-0.1-0.7,0.2-1.1,0.3c-0.5,0.1-1.1,0.1-1.6,0c-0.1,0-0.3,0.1-0.2,0.2c0.4,0.4,1,0.5,1.5,0.4
			c0.4,0,1.4-0.1,1.5-0.6C15.7,55,15.6,54.9,15.5,54.8z"/>
		<path class="st3" d="M15.4,55.6c-0.3,0.1-0.6,0.3-0.9,0.4c-0.4,0.1-0.8,0.2-1.2,0.2c-0.2,0-0.2,0.3,0,0.3c0.7,0.1,1.8,0,2.4-0.6
			C15.8,55.7,15.6,55.5,15.4,55.6z"/>
		<path class="st4" d="M15.3,59.8c0-0.1-0.2-0.1-0.2,0c0.2,4.2,0.4,8.4,0.6,12.6c0,0,0.1,0,0.1,0C16,68.3,15.8,63.9,15.3,59.8z"/>
		<path class="st4" d="M13.3,60.3C12.1,65.4,11,70.7,11.2,76c0,0.1,0.2,0.1,0.2,0c0.3-5.3,1.3-10.5,2.1-15.7
			C13.4,60.2,13.3,60.2,13.3,60.3z"/>
		<path class="st4" d="M14.2,61.6c-0.5,4.4-0.3,8.9-1.1,13.3c0,0.1,0.1,0.1,0.1,0c0.9-4.4,0.8-8.9,1.1-13.3
			C14.4,61.5,14.3,61.5,14.2,61.6z"/>
		<path class="st4" d="M15.3,54.8c-0.6,0.2-1.2,0.5-1.8,0.5c0,0,0,0.1,0,0.1c0.7,0.1,1.4,0,2-0.4C15.5,54.9,15.4,54.7,15.3,54.8z"/>
		<path class="st4" d="M15.1,54.2c-0.5,0.3-1.1,0.4-1.7,0.3c0,0,0,0,0,0.1c0.6,0.2,1.2,0.1,1.8-0.2C15.3,54.2,15.2,54.1,15.1,54.2z"
			/>
		<path class="st4" d="M12.8,50.8c0-0.1-0.2-0.1-0.2,0c0,0.7,0.2,1.5,0.6,2.1c0.1,0.1,0.2,0,0.1-0.1C13.1,52.1,12.9,51.5,12.8,50.8z
			"/>
		<path class="st4" d="M14,50.7c0-0.1-0.2-0.1-0.2,0c-0.1,0.7-0.1,1.5,0.1,2.2c0,0.1,0.2,0.1,0.2,0C14.1,52.1,14.1,51.4,14,50.7z"/>
		<path class="st4" d="M14.9,50.8c-0.1,0.7-0.2,1.4-0.4,2.1c0,0,0.1,0.1,0.1,0c0.2-0.7,0.4-1.4,0.4-2.1C15.1,50.7,15,50.7,14.9,50.8
			z"/>
	</g>
	<linearGradient id="SVGID_1_" gradientUnits="userSpaceOnUse" x1="2.6909" y1="26.5275" x2="112.9003" y2="26.5275">
		<stop  offset="7.635120e-02" style="stop-color:#212121"/>
		<stop  offset="9.295714e-02" style="stop-color:#252525"/>
		<stop  offset="0.2406" style="stop-color:#454545"/>
		<stop  offset="0.3223" style="stop-color:#515151"/>
		<stop  offset="0.4142" style="stop-color:#656565"/>
		<stop  offset="0.4921" style="stop-color:#717171"/>
		<stop  offset="0.6915" style="stop-color:#3E3E3E"/>
		<stop  offset="0.8347" style="stop-color:#1E1E1E"/>
		<stop  offset="0.8586" style="stop-color:#282828"/>
		<stop  offset="0.9497" style="stop-color:#484848"/>
		<stop  offset="1" style="stop-color:#545454"/>
	</linearGradient>
	<polygon class="st5" points="25.5,46.1 3.3,32.9 2.7,31.6 60.9,7 112.6,33.2 112.9,34.5 94.2,45.3 	"/>
	<linearGradient id="SVGID_2_" gradientUnits="userSpaceOnUse" x1="57.2481" y1="4.0248" x2="57.876" y2="37.3069">
		<stop  offset="0.6758" style="stop-color:#FFFFFF"/>
		<stop  offset="0.7776" style="stop-color:#919191"/>
		<stop  offset="0.8591" style="stop-color:#3E3E3E"/>
		<stop  offset="0.8961" style="stop-color:#1E1E1E"/>
		<stop  offset="0.9111" style="stop-color:#282828"/>
		<stop  offset="0.9684" style="stop-color:#484848"/>
		<stop  offset="1" style="stop-color:#545454"/>
	</linearGradient>
	<path class="st6" d="M112.6,33.2L70.7,12c0.9,0.7,1.7,1.4,2.5,2.1c2.9,2.4,5.6,4.9,8.5,7.2c1.9,1.5,4,2.9,5.6,4.7
		c3.4,3.9-0.6,5.5-4.6,5.3c-8.6-0.4-16.4-4.7-25.1-4.2c-5.1,0.3-9.8,1.4-14.7,2.9c-3.3,1-6.7,2-10.1,2.2c-1.9,0.2-8.8,0.5-7.8-3.3
		c0.7-2.7,3.3-4.6,5.3-6.2c2.8-2.2,5.9-4.1,9.1-5.7c4-2.1,8.1-4,12-6.1L2.7,31.6l0.6,1.3l22.1,13.2l68.8-0.8l18.7-10.8L112.6,33.2z"
		/>
	<radialGradient id="SVGID_3_" cx="25.769" cy="-0.2393" r="126.9581" gradientUnits="userSpaceOnUse">
		<stop  offset="0" style="stop-color:#A1A1A1"/>
		<stop  offset="2.714205e-02" style="stop-color:#999999"/>
		<stop  offset="0.1857" style="stop-color:#6E6E6E"/>
		<stop  offset="0.3467" style="stop-color:#4A4A4A"/>
		<stop  offset="0.5081" style="stop-color:#2E2E2E"/>
		<stop  offset="0.6703" style="stop-color:#1B1B1B"/>
		<stop  offset="0.8336" style="stop-color:#0F0F0F"/>
		<stop  offset="1" style="stop-color:#0B0B0B"/>
	</radialGradient>
	<polygon class="st7" points="112.6,33.2 60.9,7 2.7,31.6 3.3,32.9 60.9,8.6 112.9,34.5 	"/>
	<path class="st8" d="M3.3,32.9l7.1-3.2l7.2-3.1l7.2-3.1l7.2-3l7.2-3c2.4-1,4.8-2,7.2-3l7.2-3.1l7.2-3.1l0.1,0l0.1,0
		c4.3,2.1,8.7,4.2,13,6.4l6.5,3.2l6.5,3.2c2.2,1.1,4.3,2.2,6.5,3.3l6.5,3.3l6.5,3.3l6.4,3.3l0,0.1l-6.6-3.1l-6.5-3.2L93.3,25
		c-2.2-1.1-4.3-2.1-6.5-3.2l-6.5-3.2l-6.5-3.3c-4.3-2.2-8.6-4.4-12.9-6.6l0.2,0l-7.2,3l-7.2,3c-2.4,1-4.8,2-7.2,3.1L32.2,21L25,24
		l-7.2,3l-7.2,3L3.3,32.9L3.3,32.9z"/>
	<linearGradient id="SVGID_4_" gradientUnits="userSpaceOnUse" x1="79.7282" y1="36.0687" x2="87.4737" y2="19.532">
		<stop  offset="0" style="stop-color:#FFFFFF"/>
		<stop  offset="0.1363" style="stop-color:#FCFCFC"/>
		<stop  offset="0.2435" style="stop-color:#F2F2F2"/>
		<stop  offset="0.3409" style="stop-color:#E1E1E1"/>
		<stop  offset="0.4324" style="stop-color:#CACACA"/>
		<stop  offset="0.5199" style="stop-color:#ABABAB"/>
		<stop  offset="0.6042" style="stop-color:#868686"/>
		<stop  offset="0.6862" style="stop-color:#5A5A5A"/>
		<stop  offset="0.7642" style="stop-color:#282828"/>
		<stop  offset="0.7783" style="stop-color:#1E1E1E"/>
		<stop  offset="0.8103" style="stop-color:#282828"/>
		<stop  offset="0.9326" style="stop-color:#484848"/>
		<stop  offset="1" style="stop-color:#545454"/>
	</linearGradient>
	<polygon class="st9" points="60.9,7 61,8.7 80.2,33.1 94.2,45.3 112.9,34.5 112.6,33.2 	"/>
	<linearGradient id="SVGID_5_" gradientUnits="userSpaceOnUse" x1="21.0581" y1="42.1239" x2="97.3045" y2="42.1239">
		<stop  offset="7.635120e-02" style="stop-color:#212121"/>
		<stop  offset="9.295714e-02" style="stop-color:#252525"/>
		<stop  offset="0.2406" style="stop-color:#454545"/>
		<stop  offset="0.3223" style="stop-color:#515151"/>
		<stop  offset="0.4142" style="stop-color:#656565"/>
		<stop  offset="0.4921" style="stop-color:#717171"/>
		<stop  offset="0.6915" style="stop-color:#3E3E3E"/>
		<stop  offset="0.8347" style="stop-color:#1E1E1E"/>
		<stop  offset="0.8586" style="stop-color:#282828"/>
		<stop  offset="0.9497" style="stop-color:#484848"/>
		<stop  offset="1" style="stop-color:#545454"/>
	</linearGradient>
	<path class="st10" d="M21.1,41.7v9.1c0,0,42.1-7.1,75.5,0.3c0,0,1.4-8.8,0.3-12.9c0,0-10.2-6.3-38.9-4.9
		C29.2,34.8,21.1,41.7,21.1,41.7z"/>
	<radialGradient id="SVGID_6_" cx="58.5001" cy="20.125" r="36.7109" gradientUnits="userSpaceOnUse">
		<stop  offset="0" style="stop-color:#A1A1A1"/>
		<stop  offset="3.337187e-02" style="stop-color:#979797"/>
		<stop  offset="0.1909" style="stop-color:#6C6C6C"/>
		<stop  offset="0.3509" style="stop-color:#484848"/>
		<stop  offset="0.5113" style="stop-color:#2C2C2C"/>
		<stop  offset="0.6724" style="stop-color:#191919"/>
		<stop  offset="0.8347" style="stop-color:#0D0D0D"/>
		<stop  offset="1" style="stop-color:#090909"/>
	</radialGradient>
	<path class="st11" d="M34.1,37.4c0,0,20.9-5.8,47.4-2.5c0,0-14.4,1.1-5,2.2c9.4,1.1,8.2,4.7-2.5,4.7c-1.4,0-4.2,1.6,1.7,2.2
		c6,0.6,1.3,2-0.9,2.2c-2.2,0.2,5.5,1.4,8,2c0,0-25.7-3-49.5,0c0,0,3.9-1.6,11.9-2.5c8-0.9-3-1.3-6.4-1.3c-3.5,0,1.7-2,7.4-3.1
		c5.7-1.1-1.1-2.2-5.5-1.7c-4.4,0.5,8.9-3,2.8-2.2C37.4,38.2,34.1,37.4,34.1,37.4z"/>
	<linearGradient id="SVGID_7_" gradientUnits="userSpaceOnUse" x1="59.0546" y1="55.8484" x2="59.2637" y2="33.2413">
		<stop  offset="0.3983" style="stop-color:#FFFFFF"/>
		<stop  offset="0.6465" style="stop-color:#919191"/>
		<stop  offset="0.8453" style="stop-color:#3E3E3E"/>
		<stop  offset="0.9354" style="stop-color:#1E1E1E"/>
	</linearGradient>
	<path class="st12" d="M96.9,38.2c0,0-10.2-6.3-38.9-4.9c-28.7,1.4-36.9,8.3-36.9,8.3v9.1c0,0,2.4-0.4,6.6-0.9
		c0-0.1-0.1-0.3-0.1-0.4c-0.5-3.7,0.4-7.9,4.1-9.5c4.6-2,10.3-2.4,15.2-3c7.1-0.8,14.3-1.1,21.4-1.1c6.1,0,12.1,0.2,17.9,2.3
		c3.6,1.3,4.2,3.8,3.8,7.5c-0.2,1.7-0.9,2.9-1.9,3.9c2.8,0.4,5.7,0.9,8.4,1.5C96.6,51.1,98,42.3,96.9,38.2z"/>
</g>
</svg>
