<?xml version="1.0" encoding="utf-8"?>
<!-- Generator: Adobe Illustrator 23.0.4, SVG Export Plug-In . SVG Version: 6.00 Build 0)  -->
<svg version="1.1" id="Layer_1" xmlns="http://www.w3.org/2000/svg" xmlns:xlink="http://www.w3.org/1999/xlink" x="0px" y="0px"
	 viewBox="0 0 109.45 98.38" style="enable-background:new 0 0 109.45 98.38;" xml:space="preserve">
<style type="text/css">
	.st0{fill:#D1D1D1;}
	.st1{fill:#377000;}
	.st2{fill:#A66400;}
	.st3{fill:#950014;}
	.st4{fill:#007614;}
	.st5{fill:#0B67B5;}
	.st6{fill:#172334;}
	.st7{fill:#C9C9C9;}
	.st8{fill:#DEDEDE;}
	.st9{fill:#E8E8E8;}
	.st10{fill:#005690;}
	.st11{fill:#1D88EF;}
	.st12{fill:#00130E;}
	.st13{fill:#FFFFFF;}
	.st14{fill:#86C3DB;}
	.st15{fill:#A2CDE4;}
	.st16{fill:#B4D6F0;}
	.st17{fill:#59A211;}
	.st18{fill:#D89938;}
	.st19{fill:#C72339;}
	.st20{fill:#0FA829;}
	.st21{fill:#4A9FE7;}
	.st22{fill:#475466;}
	.st23{fill:#ECECEC;}
	.st24{fill:#FB2339;}
</style>
<g>
	<path class="st0" d="M34.83,43.33C34.83,43.33,34.83,43.33,34.83,43.33c0.22,0.04,0.43,0.07,0.65,0.11l0.01,0
		c0.17,0.03,0.33,0.06,0.49,0.09c0.05,0.01,0.09,0.02,0.13,0.02c0.26,0.05,0.5,0.11,0.75,0.16c2.65,0.57,5.1,1.45,6.98,2.53
		c0.1,0.05,0.2,0.11,0.3,0.17c1.12,0.68,2.02,1.41,2.62,2.2c0.33,0.43,0.57,0.86,0.69,1.27c0.28,0.86,0.11,1.67-0.46,2.37
		c0,0.01,0,0.02-0.02,0.03c-0.42,0.53-1.07,1.01-1.92,1.41c-0.59,0.28-1.26,0.52-2.02,0.71c-0.05,0.01-0.09,0.02-0.13,0.03
		c-0.55,0.14-1.16,0.26-1.82,0.35l-0.01,0c-0.8,0.11-1.67,0.18-2.59,0.21c-1.12,0.03-2.27-0.01-3.4-0.1
		c-0.38-0.03-0.75-0.07-1.13-0.11c-0.19-0.03-0.38-0.05-0.58-0.08c-0.63-0.09-1.26-0.19-1.88-0.31c-0.98-0.19-1.93-0.42-2.84-0.69
		c-0.96-0.28-1.87-0.6-2.71-0.95c-0.81-0.33-1.55-0.69-2.22-1.08c-0.08-0.04-0.15-0.09-0.23-0.13c-0.02-0.01-0.02-0.01-0.03-0.02
		l-0.01,0c-0.01,0-0.01-0.01-0.01-0.01c-0.01-0.01-0.01-0.01-0.02-0.01c-0.03-0.01-0.04-0.02-0.06-0.04
		c-0.23-0.14-0.45-0.28-0.66-0.43c0,0-0.01-0.01-0.02-0.01c-0.03-0.01-0.04-0.03-0.07-0.04c-0.02-0.02-0.06-0.04-0.1-0.07l0,0
		c-0.02-0.02-0.06-0.04-0.1-0.07l0,0c-0.07-0.06-0.15-0.11-0.22-0.17c0,0,0,0,0,0c-0.02-0.01-0.03-0.01-0.02-0.02
		c-0.11-0.09-0.23-0.17-0.33-0.27l-0.01,0c-0.06-0.06-0.13-0.12-0.21-0.19c0-0.01-0.01-0.01-0.01-0.02
		c-0.02-0.01-0.02-0.02-0.04-0.03l0,0c-0.27-0.26-0.51-0.52-0.73-0.79c-0.69-0.88-0.94-1.73-0.77-2.51c0.02-0.13,0.06-0.26,0.1-0.39
		c0.08-0.21,0.19-0.42,0.34-0.63c0.41-0.57,1.06-1.08,1.93-1.5c0,0,0,0,0,0c0,0,0.01-0.01,0.02-0.01c0.17-0.09,0.36-0.17,0.55-0.25
		c0.01,0,0.03-0.01,0.04-0.01c0.01-0.01,0.03-0.01,0.04-0.02c0.01-0.01,0.03-0.01,0.04-0.02c0.05-0.02,0.11-0.05,0.16-0.07
		c0.02,0,0.02-0.01,0.04-0.01c0.01,0,0.01-0.01,0.02-0.01c1.49-0.55,3.45-0.89,5.75-0.95C31.03,42.91,32.96,43.04,34.83,43.33z"/>
	<path class="st0" d="M63.47,64.11C63.47,64.11,63.47,64.11,63.47,64.11c0.11-0.05,0.21-0.09,0.31-0.14l0,0
		c0.08-0.04,0.16-0.07,0.24-0.1c0.02-0.01,0.04-0.02,0.06-0.03c0.12-0.05,0.24-0.1,0.36-0.15c1.28-0.54,2.53-0.96,3.56-1.19
		c0.05-0.01,0.11-0.03,0.17-0.04c0.62-0.13,1.15-0.2,1.55-0.17c0.22,0.01,0.4,0.05,0.53,0.11c0.27,0.12,0.34,0.34,0.2,0.64
		c0,0,0,0.01,0,0.01c-0.1,0.22-0.31,0.49-0.62,0.79c-0.21,0.21-0.47,0.43-0.78,0.67c-0.02,0.02-0.04,0.03-0.05,0.04
		c-0.22,0.17-0.48,0.35-0.76,0.53l0,0c-0.34,0.23-0.72,0.46-1.12,0.7c-0.5,0.29-1.02,0.57-1.54,0.83c-0.17,0.09-0.35,0.17-0.53,0.26
		c-0.09,0.04-0.18,0.09-0.27,0.13c-0.3,0.14-0.6,0.27-0.89,0.4c-0.47,0.2-0.94,0.39-1.39,0.56c-0.48,0.18-0.94,0.34-1.38,0.47
		c-0.42,0.13-0.81,0.24-1.18,0.32c-0.04,0.01-0.08,0.02-0.12,0.03c-0.01,0-0.01,0-0.02,0l0,0c0,0,0,0,0,0c0,0,0,0-0.01,0
		c-0.01,0-0.02,0.01-0.03,0.01c-0.12,0.03-0.25,0.05-0.37,0.07c0,0,0,0-0.01,0c-0.01,0-0.02,0-0.04,0.01c-0.01,0-0.03,0-0.06,0.01
		l0,0c-0.01,0-0.03,0-0.06,0.01l0,0c-0.04,0.01-0.09,0.01-0.13,0.02c0,0,0,0,0,0c-0.01,0-0.01,0-0.01,0
		c-0.07,0.01-0.13,0.02-0.19,0.02l0,0c-0.04,0-0.08,0.01-0.13,0.01c0,0-0.01,0-0.01,0c-0.01,0-0.01,0-0.02,0l0,0
		c-0.17,0.01-0.32,0.01-0.46,0.01c-0.46-0.02-0.72-0.15-0.78-0.36c-0.01-0.03-0.02-0.07-0.02-0.11c0-0.07,0.01-0.14,0.04-0.22
		c0.08-0.23,0.29-0.5,0.61-0.82c0,0,0,0,0,0c0,0,0,0,0.01-0.01c0.06-0.06,0.13-0.13,0.2-0.19c0,0,0.01-0.01,0.02-0.01
		c0,0,0.01-0.01,0.02-0.01c0,0,0.01-0.01,0.02-0.01c0.02-0.02,0.04-0.04,0.06-0.05c0.01-0.01,0.01-0.01,0.02-0.01c0,0,0,0,0.01-0.01
		c0.58-0.5,1.39-1.06,2.41-1.65C61.7,64.97,62.59,64.52,63.47,64.11z"/>
	<polygon class="st1" points="86.57,38.01 83.88,32.69 86.57,24.21 91.95,21.04 93.77,22.07 88.39,39.04 	"/>
	<polygon class="st2" points="77.3,35.45 74.61,30.13 77.3,21.65 82.68,18.48 84.5,19.51 79.12,36.48 	"/>
	<polygon class="st3" points="79.29,44.83 77.56,41.4 79.29,35.93 82.76,33.89 84.58,34.92 81.12,45.85 	"/>
	<g>
		<polygon class="st4" points="49.36,84.76 47.59,81.25 49.36,75.67 52.9,73.58 54.73,74.61 51.19,85.78 		"/>
		<polygon class="st5" points="47.5,75.21 44.88,70.03 47.5,61.76 52.73,58.68 54.56,59.7 49.32,76.24 		"/>
		<polygon class="st6" points="55.89,75.81 54.2,72.47 55.89,67.14 59.26,65.16 61.09,66.18 57.71,76.84 		"/>
	</g>
	<g>
		<g>
			<path class="st7" d="M56.2,46.95c0,0,0,0-0.02,0c-0.16,0.23-0.33,0.46-0.51,0.69l-0.01,0.01c-0.14,0.17-0.28,0.34-0.43,0.51
				c-0.04,0.05-0.08,0.09-0.11,0.13c-0.24,0.25-0.47,0.5-0.69,0.74c-2.5,2.62-5.77,4.51-9.38,5.35c-0.18,0.05-0.38,0.09-0.57,0.14
				c-2.25,0.44-4.59,0.51-6.96,0.11c-1.31-0.22-2.56-0.56-3.73-1.03c-2.46-0.94-4.63-2.4-6.37-4.22c-0.03-0.02-0.05-0.03-0.07-0.06
				c-1.33-1.37-2.41-2.96-3.22-4.68c-0.56-1.2-0.99-2.45-1.26-3.76c-0.01-0.08-0.03-0.16-0.04-0.23c-0.2-0.95-0.3-1.93-0.32-2.93
				l0-0.02c-0.02-1.23,0.09-2.48,0.33-3.73c0.3-1.53,0.8-2.99,1.45-4.33c0.21-0.45,0.45-0.89,0.71-1.32
				c0.14-0.22,0.26-0.43,0.41-0.64c0.46-0.7,0.96-1.37,1.5-2.01c0.87-1,1.83-1.9,2.89-2.69c1.1-0.83,2.3-1.55,3.55-2.13
				c1.2-0.56,2.44-0.99,3.75-1.27c0.14-0.04,0.29-0.07,0.43-0.1c0.02-0.01,0.04,0,0.07-0.01l0.01-0.01c0.02,0,0.03,0,0.03,0
				c0.02,0,0.02,0,0.04,0c0.04-0.02,0.07-0.02,0.12-0.02c0.45-0.09,0.93-0.17,1.41-0.22c0,0,0.03,0,0.04,0
				c0.04-0.02,0.08-0.02,0.13-0.03c0.07,0,0.14-0.01,0.22-0.03l0.01,0.01c0.06,0,0.14-0.01,0.22-0.03l0.01,0.01
				c0.18-0.01,0.37-0.03,0.54-0.03c0,0,0,0,0.01,0.01c0.02-0.01,0.04-0.02,0.05-0.01c0.28-0.01,0.56-0.03,0.84-0.03l0.02,0
				c0.18,0.01,0.38,0.01,0.59,0c0.02,0.01,0.04,0.01,0.06,0.01c0.03-0.01,0.06,0,0.09-0.01l0.01,0.01c0.81,0.04,1.62,0.12,2.44,0.26
				c2.67,0.43,5.1,1.41,7.17,2.81c0.36,0.23,0.71,0.48,1.03,0.73c0.56,0.44,1.11,0.9,1.62,1.41c1.43,1.41,2.61,3.05,3.48,4.85
				c0,0,0,0,0.01,0.01c0.01,0.01,0.01,0.02,0.02,0.04c0.18,0.36,0.34,0.73,0.5,1.11c0,0.02,0.01,0.05,0.02,0.07
				c0.01,0.02,0.03,0.06,0.03,0.08c0.01,0.02,0.03,0.06,0.03,0.08c0.04,0.1,0.1,0.22,0.13,0.31c0,0.03,0.02,0.04,0.02,0.07
				c0,0.02,0.01,0.02,0.02,0.04c0.99,2.81,1.25,5.9,0.63,9.04C58.69,42.58,57.64,44.92,56.2,46.95z"/>
			<path class="st8" d="M58.07,44.46c0,0,0,0-0.01,0.01c-0.11,0.25-0.23,0.49-0.35,0.75l0,0.01c-0.09,0.19-0.2,0.37-0.3,0.56
				c-0.02,0.05-0.06,0.1-0.08,0.15c-0.17,0.28-0.34,0.55-0.51,0.83c-1.83,2.91-4.49,5.23-7.64,6.6c-0.16,0.08-0.33,0.15-0.5,0.22
				c-1.97,0.77-4.1,1.18-6.33,1.15c-1.23-0.01-2.43-0.16-3.58-0.44c-2.41-0.54-4.63-1.63-6.54-3.13c-0.03-0.02-0.05-0.03-0.08-0.05
				c-1.45-1.13-2.71-2.5-3.74-4.05c-0.72-1.08-1.33-2.22-1.8-3.45c-0.03-0.08-0.06-0.15-0.08-0.21c-0.35-0.89-0.61-1.82-0.8-2.79
				l-0.01-0.02c-0.23-1.19-0.35-2.42-0.34-3.67c0.01-1.52,0.22-3.01,0.58-4.41c0.12-0.47,0.25-0.93,0.42-1.38
				c0.09-0.23,0.16-0.46,0.26-0.69c0.3-0.75,0.64-1.47,1.03-2.17c0.62-1.1,1.35-2.11,2.18-3.04c0.86-0.97,1.83-1.84,2.88-2.59
				c1-0.72,2.06-1.32,3.2-1.8c0.12-0.06,0.26-0.11,0.38-0.17c0.02-0.02,0.04-0.01,0.06-0.02l0-0.01c0.01-0.01,0.02,0,0.02,0
				c0.01-0.01,0.01-0.01,0.04-0.01c0.03-0.02,0.06-0.03,0.1-0.04c0.4-0.15,0.82-0.3,1.25-0.42c0,0,0.02,0,0.04-0.01
				c0.03-0.02,0.07-0.03,0.12-0.05c0.06-0.01,0.12-0.03,0.2-0.06l0.01,0c0.05-0.01,0.12-0.03,0.2-0.06l0.01,0
				c0.16-0.04,0.33-0.08,0.49-0.11c0,0,0,0,0.01,0.01c0.02-0.02,0.03-0.02,0.04-0.02c0.26-0.06,0.5-0.12,0.76-0.15l0.01-0.01
				c0.17-0.02,0.35-0.05,0.54-0.08c0.02,0.01,0.03,0,0.06,0c0.03-0.01,0.05-0.01,0.08-0.02l0.01,0.01c0.75-0.08,1.5-0.13,2.27-0.12
				c2.52,0.02,4.9,0.6,7.03,1.64c0.37,0.17,0.73,0.35,1.07,0.55c0.59,0.34,1.16,0.71,1.72,1.12c1.55,1.15,2.91,2.56,4.01,4.17
				c0,0,0,0,0.01,0.01c0.01,0.01,0.02,0.02,0.02,0.04c0.23,0.33,0.44,0.66,0.65,1c0.01,0.02,0.02,0.05,0.03,0.07
				s0.04,0.06,0.04,0.07c0.02,0.02,0.04,0.06,0.04,0.07c0.06,0.09,0.12,0.19,0.17,0.28c0,0.03,0.02,0.04,0.03,0.07
				c0.01,0.02,0.02,0.02,0.02,0.04c1.38,2.57,2.16,5.53,2.13,8.67C59.59,39.85,59.04,42.28,58.07,44.46z"/>
			<path class="st0" d="M35.54,52.61c-0.03-0.02-0.05-0.03-0.08-0.05c-1.44-1.12-2.71-2.48-3.73-4.02c-0.72-1.06-1.32-2.2-1.79-3.41
				c-0.03-0.08-0.06-0.15-0.08-0.21c-0.35-0.88-0.6-1.8-0.79-2.75l-0.01-0.02c-0.23-1.17-0.34-2.38-0.33-3.62
				c0.02-1.5,0.23-2.97,0.6-4.35c0.12-0.46,0.26-0.91,0.42-1.36c0.09-0.23,0.16-0.45,0.26-0.67c0.3-0.73,0.64-1.45,1.04-2.13
				c0.63-1.08,1.36-2.08,2.19-2.98c0.87-0.95,1.84-1.81,2.89-2.54c1-0.7,2.06-1.29,3.22-1.75c0.12-0.06,0.26-0.11,0.38-0.16
				c0.02-0.02,0.04-0.01,0.06-0.02l0-0.01c0.01-0.01,0.02,0,0.02,0c0.01-0.01,0.01-0.01,0.04-0.01c0.03-0.02,0.06-0.03,0.1-0.04
				c0.4-0.15,0.82-0.29,1.25-0.41c0,0,0.02,0,0.04-0.01c0.03-0.02,0.07-0.03,0.12-0.04c0.06-0.01,0.12-0.03,0.2-0.06l0.01,0.01
				c0.05-0.01,0.12-0.03,0.2-0.06l0.01,0.01c0.16-0.03,0.33-0.08,0.49-0.1c0,0,0,0,0.01,0c0.02-0.02,0.03-0.02,0.04-0.02
				c0.26-0.05,0.5-0.11,0.77-0.15l0.01-0.01c0.17-0.02,0.35-0.04,0.54-0.08c0.02,0.01,0.03,0,0.06,0c0.03-0.01,0.05-0.01,0.08-0.02
				l0.01,0.01c0.75-0.08,1.5-0.11,2.27-0.1c2.3,0.03,4.48,0.54,6.47,1.42c-0.03-0.02-0.06-0.05-0.09-0.08
				c-0.56-0.41-1.13-0.78-1.72-1.12c-0.34-0.2-0.7-0.38-1.07-0.55c-2.13-1.04-4.51-1.62-7.03-1.64c-0.77-0.01-1.52,0.04-2.27,0.12
				l-0.01-0.01c-0.03,0.01-0.05,0.01-0.08,0.02c-0.02,0-0.04,0.01-0.06,0c-0.19,0.04-0.37,0.06-0.54,0.08l-0.01,0.01
				c-0.26,0.04-0.51,0.1-0.77,0.15c-0.01-0.01-0.02,0-0.04,0.02c-0.01-0.01-0.01-0.01-0.01-0.01c-0.16,0.03-0.33,0.07-0.49,0.11
				l-0.01,0c-0.07,0.03-0.14,0.05-0.2,0.06l-0.01-0.01c-0.07,0.03-0.13,0.05-0.2,0.06c-0.04,0.02-0.08,0.02-0.12,0.05
				c-0.01,0.01-0.04,0.01-0.04,0.01c-0.43,0.12-0.85,0.27-1.25,0.42c-0.04,0.01-0.07,0.02-0.1,0.04c-0.02,0-0.02,0-0.04,0.01
				c0,0-0.01-0.01-0.02,0l0,0.01c-0.02,0.02-0.04,0.01-0.06,0.02c-0.12,0.06-0.26,0.11-0.38,0.17c-1.15,0.47-2.21,1.07-3.2,1.8
				c-1.05,0.75-2.01,1.62-2.88,2.59c-0.83,0.93-1.55,1.94-2.18,3.04c-0.39,0.7-0.73,1.42-1.03,2.17c-0.1,0.23-0.17,0.45-0.26,0.69
				c-0.16,0.46-0.3,0.92-0.42,1.38c-0.36,1.4-0.57,2.89-0.58,4.41c0,1.25,0.11,2.48,0.34,3.67l0.01,0.02
				c0.19,0.97,0.45,1.9,0.8,2.79c0.02,0.06,0.05,0.13,0.08,0.21c0.47,1.23,1.08,2.38,1.8,3.45c1.03,1.55,2.3,2.92,3.74,4.05
				c0.03,0.03,0.05,0.04,0.08,0.05c1.59,1.25,3.4,2.19,5.35,2.79C36.87,53.55,36.18,53.11,35.54,52.61z"/>
			<path class="st9" d="M57.24,45.48c0,0,0,0-0.01,0.01c-0.1,0.2-0.21,0.39-0.32,0.6l0,0.01c-0.09,0.15-0.18,0.3-0.27,0.45
				c-0.02,0.04-0.05,0.08-0.07,0.12c-0.15,0.23-0.3,0.45-0.44,0.66c-1.6,2.35-3.74,4.26-6.14,5.44c-0.12,0.07-0.25,0.13-0.38,0.19
				c-1.5,0.68-3.07,1.08-4.68,1.14c-0.89,0.04-1.74-0.03-2.54-0.21c-1.69-0.33-3.19-1.09-4.42-2.2c-0.02-0.01-0.03-0.02-0.05-0.04
				c-0.94-0.82-1.72-1.85-2.32-3.02c-0.42-0.81-0.74-1.69-0.97-2.63c-0.01-0.06-0.03-0.11-0.04-0.16c-0.17-0.68-0.26-1.4-0.31-2.15
				l0-0.01c-0.06-0.92-0.02-1.87,0.1-2.85c0.15-1.19,0.44-2.36,0.84-3.47c0.13-0.37,0.27-0.73,0.43-1.1
				c0.09-0.18,0.16-0.36,0.25-0.55c0.29-0.59,0.6-1.17,0.95-1.73c0.55-0.88,1.17-1.7,1.86-2.46c0.72-0.79,1.5-1.51,2.32-2.14
				c0.79-0.6,1.61-1.11,2.48-1.52c0.09-0.05,0.19-0.09,0.29-0.14c0.02-0.01,0.03-0.01,0.04-0.02l0-0.01c0.01-0.01,0.02,0,0.02,0
				c0.01-0.01,0.01-0.01,0.03-0.01c0.03-0.02,0.05-0.03,0.08-0.04c0.3-0.14,0.62-0.27,0.94-0.38c0,0,0.02,0,0.03-0.01
				c0.03-0.02,0.06-0.03,0.09-0.04c0.05-0.01,0.09-0.03,0.15-0.05l0.01,0c0.04-0.01,0.09-0.03,0.15-0.05l0.01,0
				c0.12-0.03,0.25-0.08,0.36-0.1c0,0,0,0,0.01,0c0.02-0.01,0.03-0.02,0.03-0.02c0.19-0.05,0.37-0.11,0.57-0.15l0.01-0.01
				c0.12-0.02,0.26-0.05,0.4-0.09c0.01,0.01,0.02,0,0.04,0c0.02-0.01,0.04-0.01,0.06-0.02l0.01,0c0.55-0.09,1.09-0.16,1.65-0.18
				c1.81-0.08,3.48,0.28,4.92,1.01c0.25,0.12,0.49,0.25,0.72,0.39c0.39,0.24,0.77,0.51,1.13,0.81c1.01,0.84,1.85,1.89,2.5,3.11
				c0,0,0,0,0.01,0c0.01,0,0.01,0.02,0.01,0.03c0.13,0.25,0.25,0.5,0.37,0.75c0,0.01,0.01,0.04,0.02,0.05
				c0.01,0.02,0.02,0.04,0.02,0.06c0.01,0.02,0.02,0.04,0.02,0.06c0.03,0.07,0.07,0.15,0.1,0.22c0,0.02,0.01,0.03,0.02,0.05
				c0,0.01,0.01,0.02,0.01,0.03c0.75,1.95,1.03,4.24,0.71,6.69C58.78,41.82,58.15,43.73,57.24,45.48z"/>
			<path class="st10" d="M55.84,45.72C55.84,45.72,55.84,45.72,55.84,45.72c-0.08,0.15-0.15,0.29-0.23,0.43l0,0.01
				c-0.06,0.11-0.12,0.22-0.19,0.32c-0.02,0.03-0.04,0.06-0.05,0.08c-0.1,0.16-0.2,0.32-0.3,0.48c-1.09,1.7-2.51,3.14-4.05,4.08
				c-0.08,0.05-0.16,0.1-0.25,0.15c-0.96,0.54-1.96,0.9-2.95,1.03c-0.55,0.07-1.08,0.07-1.57-0.01c-1.03-0.15-1.93-0.6-2.65-1.3
				c-0.01-0.01-0.02-0.01-0.03-0.02c-0.55-0.52-0.98-1.19-1.3-1.97c-0.22-0.54-0.39-1.13-0.49-1.77c0-0.04-0.01-0.08-0.02-0.11
				c-0.07-0.46-0.1-0.96-0.1-1.47l0-0.01c0.01-0.63,0.07-1.3,0.19-1.98c0.15-0.83,0.38-1.66,0.67-2.44c0.1-0.26,0.2-0.52,0.32-0.78
				c0.06-0.13,0.12-0.26,0.18-0.39c0.2-0.43,0.42-0.84,0.67-1.25c0.38-0.64,0.8-1.24,1.26-1.79c0.48-0.59,1-1.12,1.54-1.6
				c0.52-0.46,1.05-0.85,1.61-1.18c0.06-0.04,0.12-0.08,0.19-0.11c0.01-0.01,0.02-0.01,0.03-0.02l0-0.01c0.01,0,0.01,0,0.01,0
				c0.01,0,0.01,0,0.02-0.01c0.02-0.01,0.03-0.02,0.05-0.03c0.19-0.11,0.4-0.21,0.6-0.31c0,0,0.01,0,0.02-0.01
				c0.02-0.01,0.04-0.02,0.06-0.03c0.03-0.01,0.06-0.02,0.09-0.04l0,0c0.03-0.01,0.06-0.02,0.09-0.04l0,0
				c0.08-0.03,0.16-0.07,0.23-0.09c0,0,0,0,0,0c0.01-0.01,0.02-0.01,0.02-0.01c0.12-0.05,0.24-0.09,0.36-0.13l0.01,0
				c0.08-0.02,0.16-0.05,0.25-0.08c0.01,0,0.02,0,0.03,0c0.01-0.01,0.03-0.01,0.04-0.02l0,0c0.34-0.09,0.69-0.16,1.03-0.21
				c1.13-0.15,2.15,0.02,3.01,0.45c0.15,0.07,0.29,0.15,0.43,0.23c0.23,0.15,0.46,0.31,0.67,0.5c0.59,0.53,1.07,1.21,1.41,2.02
				c0,0,0,0,0,0c0,0,0.01,0.01,0.01,0.02c0.07,0.16,0.14,0.33,0.2,0.5c0,0.01,0,0.03,0.01,0.04c0,0.01,0.01,0.03,0.01,0.04
				c0,0.01,0.01,0.03,0.01,0.04c0.02,0.05,0.04,0.1,0.05,0.14c0,0.01,0.01,0.02,0.01,0.04c0,0.01,0,0.01,0.01,0.02
				c0.38,1.31,0.45,2.88,0.15,4.59C56.96,43.11,56.48,44.47,55.84,45.72z"/>
			<path class="st11" d="M55.85,45.71C55.85,45.71,55.85,45.71,55.85,45.71c-0.07,0.14-0.15,0.27-0.22,0.41l0,0.01
				c-0.06,0.1-0.12,0.2-0.18,0.3c-0.01,0.03-0.03,0.06-0.04,0.08c-0.1,0.15-0.19,0.3-0.29,0.45c-1.03,1.6-2.35,2.94-3.8,3.83
				c-0.07,0.05-0.15,0.1-0.23,0.14c-0.9,0.51-1.83,0.85-2.77,0.96c-0.52,0.06-1.01,0.06-1.47-0.01c-0.97-0.14-1.81-0.56-2.48-1.22
				c-0.01-0.01-0.02-0.01-0.03-0.02c-0.51-0.49-0.92-1.12-1.22-1.85c-0.21-0.51-0.36-1.06-0.46-1.66c0-0.04-0.01-0.07-0.01-0.1
				c-0.07-0.43-0.1-0.9-0.09-1.38l0-0.01c0.01-0.59,0.07-1.22,0.18-1.86c0.14-0.78,0.36-1.55,0.63-2.29
				c0.09-0.25,0.19-0.49,0.3-0.73c0.06-0.12,0.11-0.24,0.17-0.37c0.19-0.4,0.4-0.79,0.62-1.17c0.36-0.6,0.75-1.16,1.18-1.68
				c0.45-0.55,0.93-1.05,1.44-1.5c0.48-0.43,0.98-0.8,1.51-1.11c0.06-0.04,0.12-0.07,0.17-0.11c0.01-0.01,0.02-0.01,0.03-0.02
				l0-0.01c0.01,0,0.01,0,0.01,0c0.01,0,0.01,0,0.02-0.01c0.02-0.01,0.03-0.02,0.05-0.03c0.18-0.1,0.37-0.2,0.56-0.29
				c0,0,0.01,0,0.02-0.01c0.02-0.01,0.03-0.02,0.05-0.03c0.03-0.01,0.05-0.02,0.09-0.04l0,0c0.02-0.01,0.05-0.02,0.09-0.04l0,0
				c0.07-0.03,0.15-0.06,0.22-0.08c0,0,0,0,0,0c0.01-0.01,0.02-0.01,0.02-0.01c0.11-0.04,0.22-0.09,0.34-0.12l0.01,0
				c0.07-0.02,0.15-0.04,0.23-0.07c0.01,0,0.01,0,0.02,0c0.01-0.01,0.02-0.01,0.04-0.02l0,0c0.32-0.09,0.64-0.15,0.97-0.2
				c1.06-0.14,2.01,0.02,2.82,0.42c0.14,0.07,0.28,0.14,0.4,0.22c0.22,0.14,0.43,0.29,0.63,0.47c0.55,0.5,1,1.14,1.32,1.9
				c0,0,0,0,0,0c0,0,0,0.01,0.01,0.02c0.07,0.15,0.13,0.31,0.18,0.47c0,0.01,0,0.02,0.01,0.03c0,0.01,0.01,0.03,0.01,0.04
				c0,0.01,0.01,0.03,0.01,0.04c0.02,0.05,0.04,0.09,0.05,0.14c0,0.01,0.01,0.02,0.01,0.03c0,0.01,0,0.01,0.01,0.02
				c0.36,1.23,0.42,2.7,0.14,4.31C56.9,43.26,56.45,44.53,55.85,45.71z"/>
			<path class="st12" d="M55.3,45.36C55.3,45.36,55.3,45.36,55.3,45.36c-0.04,0.08-0.08,0.16-0.13,0.24l0,0
				c-0.03,0.06-0.07,0.12-0.1,0.18c-0.01,0.02-0.02,0.03-0.03,0.05c-0.06,0.09-0.11,0.18-0.17,0.26c-0.6,0.93-1.37,1.71-2.21,2.22
				c-0.04,0.03-0.09,0.06-0.13,0.08c-0.52,0.3-1.07,0.49-1.61,0.56c-0.3,0.04-0.59,0.04-0.86-0.01c-0.56-0.08-1.05-0.32-1.44-0.71
				c-0.01,0-0.01-0.01-0.02-0.01c-0.3-0.28-0.54-0.65-0.71-1.07c-0.12-0.29-0.21-0.62-0.26-0.96c0-0.02-0.01-0.04-0.01-0.06
				c-0.04-0.25-0.06-0.52-0.05-0.8l0,0c0-0.34,0.04-0.71,0.1-1.08c0.08-0.45,0.21-0.9,0.37-1.33c0.05-0.14,0.11-0.28,0.17-0.43
				c0.03-0.07,0.06-0.14,0.1-0.21c0.11-0.23,0.23-0.46,0.36-0.68c0.21-0.35,0.44-0.67,0.69-0.98c0.26-0.32,0.54-0.61,0.84-0.87
				c0.28-0.25,0.57-0.46,0.88-0.64c0.03-0.02,0.07-0.04,0.1-0.06c0.01-0.01,0.01,0,0.02-0.01l0,0c0,0,0.01,0,0.01,0c0,0,0,0,0.01,0
				c0.01-0.01,0.02-0.01,0.03-0.02c0.11-0.06,0.22-0.12,0.33-0.17c0,0,0.01,0,0.01,0c0.01-0.01,0.02-0.01,0.03-0.02
				c0.02,0,0.03-0.01,0.05-0.02l0,0c0.01-0.01,0.03-0.01,0.05-0.02l0,0c0.04-0.02,0.09-0.04,0.13-0.05c0,0,0,0,0,0
				c0.01-0.01,0.01-0.01,0.01-0.01c0.07-0.03,0.13-0.05,0.2-0.07l0,0c0.04-0.01,0.09-0.03,0.14-0.04c0,0,0.01,0,0.01,0
				c0.01,0,0.01-0.01,0.02-0.01l0,0c0.19-0.05,0.37-0.09,0.56-0.11c0.62-0.08,1.17,0.01,1.64,0.25c0.08,0.04,0.16,0.08,0.23,0.13
				c0.13,0.08,0.25,0.17,0.36,0.27c0.32,0.29,0.58,0.66,0.77,1.1c0,0,0,0,0,0c0,0,0,0.01,0,0.01c0.04,0.09,0.07,0.18,0.11,0.27
				c0,0,0,0.01,0,0.02s0.01,0.02,0.01,0.02c0,0.01,0.01,0.02,0.01,0.02c0.01,0.03,0.02,0.05,0.03,0.08c0,0.01,0,0.01,0,0.02
				c0,0,0,0.01,0,0.01c0.21,0.72,0.25,1.57,0.08,2.5C55.91,43.94,55.65,44.68,55.3,45.36z"/>
			<path class="st13" d="M49.52,42.8c-0.26,0.58-0.45,1.19-0.59,1.81c-0.14,0.65-0.23,1.31-0.1,1.97c-0.05-0.23-0.18-0.45-0.25-0.68
				c-0.31-1.1,0-2.3,0.43-3.32c0.29-0.68,0.68-1.3,1.22-1.81c0.17-0.16,0.33-0.34,0.52-0.47c0.27-0.19,0.58-0.43,0.89-0.57
				c0.31-0.14,0.65-0.2,0.97-0.3c-0.31,0.11-0.62,0.29-0.89,0.48c-0.25,0.17-0.45,0.4-0.67,0.62c-0.38,0.38-0.7,0.8-0.99,1.25
				C49.87,42.1,49.68,42.44,49.52,42.8z"/>
		</g>
		<g>
			<path class="st14" d="M74.34,53C74.34,53,74.34,53,74.34,53c-0.11,0.21-0.21,0.41-0.32,0.62l0,0.01
				c-0.08,0.16-0.17,0.31-0.25,0.47c-0.02,0.04-0.05,0.09-0.06,0.12c-0.14,0.24-0.27,0.47-0.41,0.7c-1.45,2.47-3.23,4.6-5.1,6.08
				c-0.09,0.08-0.2,0.16-0.3,0.24c-1.15,0.86-2.33,1.48-3.47,1.77c-0.63,0.16-1.23,0.23-1.78,0.18c-1.15-0.07-2.11-0.57-2.83-1.44
				c-0.01-0.01-0.02-0.01-0.03-0.03c-0.55-0.65-0.96-1.51-1.23-2.53c-0.19-0.71-0.3-1.5-0.33-2.36c0-0.06,0-0.1,0-0.15
				c-0.03-0.62,0-1.29,0.07-2v-0.01c0.09-0.86,0.24-1.78,0.46-2.73c0.27-1.15,0.64-2.31,1.07-3.42c0.14-0.37,0.29-0.74,0.46-1.11
				c0.09-0.19,0.16-0.37,0.25-0.56c0.28-0.61,0.59-1.2,0.91-1.79c0.51-0.92,1.06-1.79,1.65-2.61c0.62-0.86,1.27-1.66,1.94-2.37
				c0.64-0.69,1.29-1.29,1.97-1.82c0.07-0.06,0.15-0.12,0.22-0.18c0.01-0.02,0.02-0.01,0.03-0.03l0-0.01c0.01-0.01,0.01,0,0.01,0
				c0.01-0.01,0.01-0.01,0.02-0.01c0.02-0.02,0.04-0.03,0.06-0.05c0.23-0.17,0.47-0.34,0.72-0.5c0,0,0.01,0,0.02-0.01
				c0.02-0.02,0.04-0.03,0.07-0.05c0.03-0.01,0.07-0.04,0.11-0.07l0,0c0.03-0.02,0.07-0.04,0.11-0.07l0,0
				c0.09-0.05,0.19-0.11,0.27-0.15c0,0,0,0,0,0c0.01-0.02,0.02-0.02,0.03-0.02c0.14-0.08,0.28-0.16,0.42-0.23l0.01-0.01
				c0.09-0.04,0.19-0.09,0.29-0.14c0.01,0,0.02,0,0.03-0.01c0.02-0.01,0.03-0.02,0.05-0.03l0,0c0.4-0.17,0.8-0.31,1.19-0.41
				c1.3-0.34,2.43-0.24,3.35,0.24c0.16,0.08,0.31,0.16,0.46,0.27c0.25,0.17,0.48,0.37,0.69,0.6c0.6,0.65,1.06,1.53,1.34,2.59
				c0,0,0,0,0,0c0,0,0,0.01,0,0.03c0.06,0.21,0.11,0.43,0.16,0.66c0,0.01,0,0.03,0,0.05s0.01,0.04,0.01,0.05
				c0,0.01,0.01,0.04,0.01,0.05c0.01,0.06,0.03,0.13,0.04,0.19c0,0.02,0,0.02,0,0.05c0,0.01,0,0.01,0,0.02
				c0.27,1.75,0.15,3.88-0.41,6.26C75.93,49.29,75.23,51.21,74.34,53z"/>
			<path class="st15" d="M74.35,52.98C74.35,52.98,74.35,52.98,74.35,52.98c-0.1,0.2-0.2,0.39-0.3,0.58l0,0.01
				c-0.08,0.15-0.16,0.29-0.24,0.44c-0.02,0.04-0.04,0.08-0.06,0.11c-0.13,0.22-0.25,0.44-0.38,0.65c-1.36,2.31-3.03,4.32-4.78,5.7
				c-0.09,0.08-0.19,0.15-0.28,0.22c-1.08,0.81-2.18,1.39-3.26,1.67c-0.59,0.15-1.15,0.21-1.67,0.17c-1.08-0.06-1.98-0.54-2.66-1.35
				c-0.01-0.01-0.02-0.01-0.03-0.03c-0.52-0.61-0.91-1.41-1.15-2.38c-0.17-0.67-0.28-1.4-0.31-2.21c0-0.05,0-0.1,0-0.14
				c-0.02-0.58,0-1.21,0.07-1.87v-0.01c0.08-0.81,0.23-1.67,0.43-2.56c0.25-1.08,0.6-2.17,1-3.21c0.13-0.35,0.28-0.69,0.43-1.04
				c0.08-0.18,0.15-0.35,0.24-0.52c0.27-0.57,0.55-1.13,0.85-1.68c0.48-0.86,1-1.68,1.55-2.45c0.58-0.81,1.19-1.55,1.82-2.23
				c0.6-0.65,1.21-1.21,1.85-1.7c0.07-0.06,0.14-0.11,0.21-0.17c0.01-0.01,0.02-0.01,0.03-0.02l0-0.01c0.01-0.01,0.01,0,0.01,0
				c0.01-0.01,0.01-0.01,0.02-0.01c0.02-0.02,0.04-0.03,0.06-0.04c0.22-0.16,0.44-0.32,0.68-0.47c0,0,0.01,0,0.02-0.01
				c0.02-0.02,0.04-0.03,0.06-0.05c0.03-0.01,0.06-0.04,0.11-0.07l0,0c0.03-0.02,0.06-0.04,0.11-0.07l0,0
				c0.08-0.05,0.17-0.1,0.25-0.14c0,0,0,0,0,0c0.01-0.01,0.02-0.02,0.02-0.02c0.13-0.07,0.26-0.15,0.4-0.21l0.01-0.01
				c0.08-0.04,0.18-0.08,0.27-0.13c0.01,0,0.02,0,0.03-0.01c0.02-0.01,0.03-0.02,0.04-0.03l0,0c0.38-0.16,0.75-0.29,1.12-0.39
				c1.22-0.32,2.28-0.23,3.14,0.22c0.15,0.07,0.29,0.15,0.43,0.25c0.23,0.16,0.45,0.35,0.65,0.56c0.56,0.61,0.99,1.43,1.26,2.43
				c0,0,0,0,0,0c0,0,0,0.01,0,0.02c0.06,0.2,0.11,0.41,0.15,0.62c0,0.01,0,0.03,0,0.04c0,0.01,0.01,0.04,0.01,0.05
				c0,0.01,0.01,0.04,0.01,0.05c0.01,0.06,0.03,0.12,0.04,0.18c0,0.02,0,0.02,0,0.04c0,0.01,0,0.01,0,0.02
				c0.25,1.64,0.14,3.64-0.38,5.87C75.84,49.5,75.18,51.3,74.35,52.98z"/>
			<path class="st16" d="M73.75,52.82C73.75,52.82,73.75,52.82,73.75,52.82c-0.07,0.14-0.14,0.28-0.22,0.42l0,0.01
				c-0.06,0.11-0.11,0.21-0.17,0.31c-0.01,0.03-0.03,0.06-0.04,0.08c-0.09,0.16-0.18,0.32-0.27,0.47c-0.98,1.66-2.18,3.1-3.44,4.1
				c-0.06,0.06-0.13,0.11-0.2,0.16c-0.78,0.58-1.57,1-2.34,1.2c-0.43,0.11-0.83,0.15-1.2,0.12c-0.78-0.05-1.42-0.39-1.91-0.97
				c-0.01,0-0.01-0.01-0.02-0.02c-0.37-0.44-0.65-1.02-0.83-1.71c-0.12-0.48-0.2-1.01-0.22-1.59c0-0.04,0-0.07,0-0.1
				c-0.02-0.42,0-0.87,0.05-1.35v-0.01c0.06-0.58,0.16-1.2,0.31-1.84c0.18-0.78,0.43-1.56,0.72-2.31c0.1-0.25,0.2-0.5,0.31-0.75
				c0.06-0.13,0.11-0.25,0.17-0.38c0.19-0.41,0.4-0.81,0.61-1.21c0.35-0.62,0.72-1.21,1.12-1.76c0.42-0.58,0.85-1.12,1.31-1.6
				c0.43-0.46,0.87-0.87,1.33-1.23c0.05-0.04,0.1-0.08,0.15-0.12c0.01-0.01,0.01-0.01,0.02-0.02l0-0.01c0.01,0,0.01,0,0.01,0
				c0.01,0,0.01,0,0.01-0.01c0.01-0.01,0.03-0.02,0.04-0.03c0.16-0.12,0.32-0.23,0.49-0.34c0,0,0.01,0,0.01-0.01
				c0.01-0.01,0.03-0.02,0.05-0.03c0.02-0.01,0.05-0.03,0.08-0.05l0,0c0.02-0.01,0.05-0.03,0.08-0.05l0,0
				c0.06-0.03,0.12-0.07,0.18-0.1c0,0,0,0,0,0c0.01-0.01,0.01-0.01,0.02-0.01c0.1-0.05,0.19-0.11,0.28-0.15l0.01,0
				c0.06-0.03,0.13-0.06,0.2-0.09c0.01,0,0.01,0,0.02,0c0.01-0.01,0.02-0.01,0.03-0.02l0,0c0.27-0.11,0.54-0.21,0.81-0.28
				c0.87-0.23,1.64-0.16,2.26,0.16c0.11,0.05,0.21,0.11,0.31,0.18c0.17,0.12,0.32,0.25,0.47,0.41c0.4,0.44,0.71,1.03,0.91,1.75
				c0,0,0,0,0,0c0,0,0,0.01,0,0.02c0.04,0.14,0.08,0.29,0.11,0.45c0,0.01,0,0.02,0,0.03c0,0.01,0.01,0.03,0.01,0.03
				c0,0.01,0.01,0.03,0.01,0.03c0.01,0.04,0.02,0.09,0.03,0.13c0,0.01,0,0.02,0,0.03c0,0.01,0,0.01,0,0.02
				c0.18,1.18,0.1,2.62-0.28,4.22C74.82,50.32,74.35,51.61,73.75,52.82z"/>
		</g>
		<polygon class="st17" points="88.39,39.04 85.71,33.72 88.39,25.23 93.77,22.07 96.46,27.39 93.77,35.87 		"/>
		<polygon class="st18" points="79.12,36.48 76.44,31.16 79.12,22.67 84.5,19.51 87.19,24.83 84.5,33.31 		"/>
		<polygon class="st19" points="81.12,45.85 79.38,42.43 81.12,36.96 84.58,34.92 86.31,38.35 84.58,43.82 		"/>
		<g>
			<polygon class="st20" points="51.19,85.78 49.42,82.28 51.19,76.7 54.73,74.61 56.5,78.11 54.73,83.7 			"/>
			<polygon class="st21" points="49.32,76.24 46.7,71.05 49.32,62.79 54.56,59.7 57.18,64.89 54.56,73.15 			"/>
			<polygon class="st22" points="57.71,76.84 56.02,73.5 57.71,68.17 61.09,66.18 62.78,69.52 61.09,74.85 			"/>
		</g>
		<path class="st13" d="M95.18,28.43c0,2-1.79,4.57-3.99,5.75c-2.21,1.17-3.99,0.5-3.99-1.5c0-2,1.79-4.57,3.99-5.75
			C93.39,25.76,95.18,26.43,95.18,28.43z"/>
		<path class="st13" d="M88.96,33.88c0,0,0.42,1.36,0,2.6c-0.42,1.24-0.42,1.24-0.42,1.24s2.76-2.49,2.96-4.15
			C91.68,31.92,88.96,33.88,88.96,33.88z"/>
		<g>
			<path d="M89.34,31.79c0-0.38,0.19-0.75,0.46-0.9c0.27-0.15,0.45,0,0.45,0.38c0,0.36-0.18,0.74-0.46,0.9
				C89.52,32.32,89.34,32.15,89.34,31.79z"/>
			<path d="M90.92,30.88c0-0.38,0.19-0.75,0.46-0.9c0.27-0.15,0.45,0,0.45,0.38c0,0.36-0.18,0.74-0.46,0.9
				C91.11,31.41,90.92,31.24,90.92,30.88z"/>
			<path d="M92.51,29.97c0-0.38,0.19-0.75,0.46-0.9c0.27-0.15,0.45,0,0.45,0.38c0,0.36-0.18,0.74-0.46,0.9
				C92.69,30.5,92.51,30.34,92.51,29.97z"/>
		</g>
		<g>
			<g>
				<path class="st13" d="M50.67,73.39c-0.34,0-0.66-0.08-0.95-0.25c-0.79-0.46-1.25-1.51-1.25-2.88c0-2.57,1.58-5.58,3.53-6.7
					c0.88-0.51,1.73-0.57,2.4-0.19c0.79,0.46,1.25,1.51,1.25,2.88c0,2.57-1.58,5.58-3.53,6.7C51.62,73.24,51.13,73.39,50.67,73.39z
					 M53.45,63.37c-0.41,0-0.86,0.13-1.32,0.4c-1.88,1.08-3.4,3.99-3.4,6.48c0,1.28,0.41,2.25,1.13,2.66
					c0.59,0.34,1.35,0.27,2.15-0.19c1.88-1.08,3.4-3.99,3.4-6.48c0-1.28-0.41-2.25-1.13-2.66C54.03,63.44,53.75,63.37,53.45,63.37z"
					/>
			</g>
			<g>
				<path class="st13" d="M51.64,73.09c-0.15,0-0.29-0.04-0.42-0.12c-0.7-0.4-1.13-1.8-1.13-3.65c0-2.61,0.84-5.15,1.92-5.77
					c0.31-0.18,0.62-0.19,0.91-0.03c0.7,0.4,1.13,1.8,1.13,3.65c0,2.61-0.84,5.15-1.92,5.77C51.96,73.05,51.8,73.09,51.64,73.09z
					 M52.49,63.67c-0.12,0-0.24,0.04-0.36,0.11c-0.99,0.57-1.79,3.06-1.79,5.55c0,1.73,0.4,3.08,1.01,3.43
					c0.2,0.12,0.43,0.11,0.66-0.03c0.99-0.57,1.8-3.06,1.8-5.55c0-1.73-0.4-3.08-1.01-3.43C52.69,63.69,52.59,63.67,52.49,63.67z"/>
			</g>
			<g>
				<path class="st13" d="M49.87,71.55c-0.32,0-0.6-0.06-0.83-0.2c-0.38-0.22-0.57-0.6-0.57-1.1c0-1.4,1.58-3.45,3.53-4.57l0,0
					c1.25-0.72,2.4-0.92,3.08-0.54c0.38,0.22,0.57,0.6,0.57,1.1c0,1.4-1.58,3.45-3.53,4.57C51.29,71.3,50.51,71.55,49.87,71.55z
					 M54.25,65.21c-0.59,0-1.34,0.24-2.13,0.7l0,0c-1.88,1.08-3.4,3.04-3.4,4.35c0,0.41,0.15,0.71,0.45,0.88
					c0.59,0.34,1.67,0.13,2.83-0.54c1.88-1.08,3.4-3.04,3.4-4.35c0-0.41-0.15-0.71-0.45-0.88C54.77,65.26,54.53,65.21,54.25,65.21z"
					/>
			</g>
			<g>
				<rect x="51.94" y="63.67" class="st13" width="0.25" height="9.18"/>
			</g>
			<g>
				<polygon class="st13" points="48.66,70.37 48.53,70.15 55.46,66.14 55.59,66.36 				"/>
			</g>
		</g>
		<path class="st23" d="M80.59,23.67c0.13,0.07,0.18,0.25,0.25,0.39c0.14,0.27,0.28,0.54,0.42,0.81c0.1,0.2,0.21,0.41,0.31,0.61
			c0.08,0.15,0.04,0.39-0.09,0.53c-0.15,0.15-0.3,0.32-0.45,0.48c-0.1,0.11-0.15,0.27-0.15,0.44c0.01,0.16,0.04,0.3,0.08,0.44
			c0.08,0.28,0.22,0.5,0.34,0.73c0.16,0.32,0.32,0.65,0.5,0.96c0.14,0.25,0.3,0.48,0.5,0.63c0.08,0.06,0.18,0.09,0.28-0.02
			c0.05-0.05,0.1-0.14,0.14-0.21c0.11-0.16,0.21-0.32,0.31-0.48c0.09-0.13,0.24-0.15,0.3-0.03c0.12,0.21,0.23,0.43,0.34,0.65
			c0.18,0.35,0.36,0.71,0.55,1.06c0.1,0.18,0.06,0.39-0.1,0.56c-0.03,0.03-0.05,0.05-0.08,0.08c-0.12,0.12-0.25,0.25-0.37,0.37
			c-0.14,0.14-0.29,0.21-0.44,0.26c-0.02,0.01-0.03,0.01-0.05,0.02c-0.08,0.01-0.16,0.02-0.23,0.03c-0.01,0-0.03-0.01-0.04-0.01
			c-0.09-0.01-0.18-0.01-0.27-0.04c-0.37-0.09-0.69-0.3-0.98-0.59c-0.24-0.23-0.46-0.5-0.66-0.81c-0.2-0.32-0.39-0.65-0.57-0.99
			c-0.19-0.36-0.35-0.76-0.5-1.17c-0.18-0.54-0.33-1.1-0.39-1.73c-0.04-0.5-0.03-1.02,0.1-1.55c0.06-0.22,0.12-0.44,0.24-0.62
			c0.12-0.18,0.24-0.36,0.36-0.54c0.07-0.1,0.13-0.21,0.22-0.25C80.53,23.68,80.56,23.67,80.59,23.67z"/>
		<polygon class="st23" points="82,38.24 82,43.33 84.92,39.42 		"/>
		<path class="st13" d="M60.26,69.18c0.2-0.14,0.39-0.27,0.58-0.4c0.17-0.12,0.34-0.24,0.52-0.36c0.1-0.07,0.17-0.02,0.17,0.11
			c0,0.99,0,1.99,0,2.98c0,0.16-0.07,0.3-0.19,0.39c-1.29,0.9-2.59,1.8-3.88,2.69c-0.11,0.08-0.19,0.03-0.19-0.11c0-1,0-2,0-3
			c0-0.13,0.07-0.27,0.17-0.34c0.35-0.24,0.69-0.48,1.04-0.72c0.02-0.01,0.03-0.02,0.05-0.04c0.01-0.13,0.03-0.26,0.03-0.38
			c0.01-0.2,0.12-0.41,0.27-0.52c0.38-0.26,0.76-0.52,1.13-0.79c0.14-0.09,0.25-0.03,0.26,0.14C60.23,68.96,60.25,69.07,60.26,69.18
			z M60.49,70.76c0-0.81-0.51-1.09-1.11-0.66c-0.56,0.4-1.05,1.38-1.06,2.13c-0.01,0.79,0.46,1.14,1.09,0.71
			C60,72.52,60.48,71.55,60.49,70.76z M59.41,72.58c0.45-0.32,0.82-1.05,0.81-1.65c0-0.6-0.37-0.82-0.83-0.5
			c-0.44,0.31-0.8,1.05-0.8,1.64C58.59,72.67,58.96,72.9,59.41,72.58z"/>
		<g>
			<path class="st13" d="M51.1,84.04c-0.03-0.22-0.01-0.43,0.12-0.65c0.28-0.49,0.38-0.97,0.35-1.51c-0.03-0.48-0.02-1,0-1.52
				c0.04-1.06,0.46-2.14,1.06-2.82c0.03-0.03,0.06-0.07,0.08-0.1c0.06-0.66,0.14-0.91,0.37-1.04c0.22-0.13,0.31,0.03,0.35,0.61
				c0.33-0.05,0.62,0.05,0.83,0.37c0.2,0.29,0.31,0.69,0.32,1.2c0.01,0.67,0,1.36,0.01,2.03c0,0.1,0.04,0.19,0.08,0.25
				c0.08,0.11,0.18,0.21,0.28,0.28c0.12,0.08,0.13,0.25,0.1,0.49C53.73,82.43,52.42,83.23,51.1,84.04z"/>
			<path class="st13" d="M52.61,83.73c0.31-0.19,0.61-0.37,0.92-0.56c0,0.42-0.21,0.88-0.46,1.03
				C52.81,84.36,52.61,84.16,52.61,83.73z"/>
		</g>
		<path class="st24" d="M51.73,80.64c0.59-0.42,1.06-1.37,1.06-2.14c0-0.79-0.48-1.07-1.09-0.64c-0.57,0.4-1.04,1.37-1.04,2.13
			C50.67,80.76,51.15,81.05,51.73,80.64z"/>
	</g>
</g>
</svg>
