<?xml version="1.0" encoding="utf-8"?>
<!-- Generator: Adobe Illustrator 23.0.4, SVG Export Plug-In . SVG Version: 6.00 Build 0)  -->
<svg version="1.1" xmlns="http://www.w3.org/2000/svg" xmlns:xlink="http://www.w3.org/1999/xlink" x="0px" y="0px"
	 viewBox="0 0 1100 800" style="enable-background:new 0 0 1100 800;" xml:space="preserve">
<style type="text/css">
	.st0{display:none;}
	.st1{display:inline;fill:#EED5D5;}
	.st2{opacity:0.5;}
	.st3{fill:#FFFFFF;}
	.st4{fill:#D67086;}
	.st5{fill:#D1D3D4;}
	.st6{opacity:0.14;}
	.st7{fill:#1D2B56;}
	.st8{fill:#CCCCCC;}
	.st9{fill:#8CABEF;}
	.st10{fill:#2B2B2B;}
	.st11{fill:#3B3387;}
	.st12{fill:#EFBFA5;}
	.st13{fill:#4D4D4D;}
	.st14{fill:#424DC1;}
	.st15{fill:#B97262;}
	.st16{fill:#2F3789;}
	.st17{fill:#EED5D5;}
	.st18{opacity:0.22;}
</style>
<g id="background" class="st0">
	<rect class="st1" width="1100" height="800"/>
</g>
<g id="object">
	<g class="st2">
		<path class="st3" d="M546.9,618.8c-84.19,1.49-170.05-12.99-253.53,4.94c-56.3,12.09-117.7-2.08-170.85,28.53
			c-56.8,32.72,13.85,46.25,41.15,54.19c73.93,21.5,144.77,13.02,219.83,12.12c50.49-0.61,100.98-1.45,151.32-5.89
			c47.3-4.16,94.78-3.65,142.23-4.34c48.66-0.7,96.99-0.98,145.4,5.43c21.09,2.79,42.55,3.57,63.74,5.43
			c18.97,1.67,37.15-0.57,55.99-2.64c15.82-1.74,31.5-6.44,45.78-14.2c11.31-6.15,31.35-25.04,34.64-39.37
			c9.22-40.19-138.62-37.1-161.32-36.68c-25.39,0.47-50.98,1.75-76.37,1.06c-10.68-0.29-21.23-2.44-31.68-4.8
			c-10.41-2.35-20.86-1.57-31.4-2.47c-43.94-3.75-87.91-2.48-131.94-1.84C575.56,618.48,561.23,618.54,546.9,618.8z"/>
	</g>
	<g>
		<g>
			<path class="st4" d="M501.85,160.57c2.6-1.84,5.7-2.34,8.7-2.79c15.21-2.24,30.49-3.92,45.79-5.02
				c23.43-1.69,47.64-1.89,69.49,8.31c3.6,1.68,7.77,5.09,6.9,9.57c-0.73,3.74-4.48,5.19-7.65,5.9
				c-30.96,6.93-62.74,5.85-94.23,4.74C525.13,181.08,483.13,173.83,501.85,160.57z"/>
		</g>
		<g>
			<g>
				<polygon class="st5" points="593.16,641.44 484.91,640.24 495.61,557.51 584.3,558.49 				"/>
			</g>
			<g class="st6">
				<polygon points="492.53,580.4 586.21,576.42 588.81,600.78 				"/>
			</g>
			<g>
				<path class="st5" d="M254.4,172.68v400.09c0,4.22,3.42,7.64,7.64,7.64h554.92c4.22,0,7.64-3.42,7.64-7.64V172.68
					c0-4.05-3.28-7.33-7.33-7.33H261.72C257.68,165.35,254.4,168.63,254.4,172.68z"/>
			</g>
			<g>
				<path class="st7" d="M254.4,171.52v357.54h570.19V171.52c0-3.76-3.05-6.8-6.8-6.8H261.2
					C257.44,164.72,254.4,167.77,254.4,171.52z"/>
			</g>
			<g>
				<rect x="269.43" y="181.37" class="st3" width="540.13" height="328.31"/>
			</g>
			<g>
				<rect x="453.95" y="630.05" class="st5" width="171.09" height="29.84"/>
			</g>
		</g>
		<g>
			<g>
				<g>
					<rect x="268.99" y="181.37" class="st5" width="540.09" height="27.88"/>
				</g>
			</g>
			<g>
				<g>
					<rect x="626.69" y="188.49" class="st3" width="169.73" height="13.65"/>
				</g>
				<g>
					<polygon class="st8" points="782.51,193.97 791.07,193.97 786.79,197.59 					"/>
				</g>
				<g>
					<g>
						<rect x="775.99" y="189.49" class="st8" width="0.81" height="11.41"/>
					</g>
				</g>
			</g>
			<g>
				<path class="st9" d="M301.98,195.78c0,5.04-4.08,9.12-9.12,9.12c-5.04,0-9.12-4.08-9.12-9.12c0-5.04,4.08-9.12,9.12-9.12
					C297.9,186.66,301.98,190.75,301.98,195.78z"/>
			</g>
		</g>
		<g>
			<g>
				<polygon class="st10" points="263.22,627.19 269.43,632.63 263.97,653.5 257.41,653.5 253.55,638.22 258.66,626.19 				"/>
			</g>
			<g>
				<polygon class="st11" points="185.66,439.34 230.9,447.81 204.95,538.78 259.8,627.06 253.55,638.22 174.79,554.53 
					167.67,533.77 172.61,449.84 				"/>
			</g>
		</g>
		<g>
			<g>
				<polygon class="st11" points="265.19,439.33 253.24,523.48 238.52,650.69 223.3,649.46 215.77,521 220.45,439.81 				"/>
			</g>
		</g>
		<g>
			<path class="st9" d="M154.82,462.47c-0.95,3.74-1.98,7.45-3.08,11.15c-0.24,0.79-0.47,1.66-0.15,2.41
				c0.28,0.64,0.89,1.05,1.49,1.41c7.45,4.44,16.87,5.44,25.09,2.65c4.05-1.37,7.79-3.6,11.9-4.78c6.89-1.98,14.11-0.92,21.14-0.53
				c6.97,0.39,13.04-1.38,19.74-1.93c16.4-1.35,20.79-2.17,36.4,2.74c0-29.55,6.04-52.27,1.55-80.06
				c-4.44-27.44-8.87-54.88-13.31-82.31c-0.75-4.63-1.53-9.35-3.44-13.43c-8.64-18.43-28.98-21.94-47.04-16.67
				c-9.19,2.68-16.51,13.05-21.02,21.1c-5.77,10.3-8.95,21.89-11.23,33.4c-7.15,36.02-7.38,73.13-14.48,109.16
				C157.33,452.04,156.15,457.27,154.82,462.47z"/>
		</g>
		<g>
			<g>
				<g>
					<g>
						<g>
							<path class="st12" d="M216.01,286.97c0.16,0.36,0.37,0.72,0.67,1.06c1.19,1.35,2.9,2.19,4.64,2.57c2.29,0.5,4.67,0.28,7,0.01
								c3.15-0.37,3.17-2.19,3.82-4.98c0.71-3.04,1.07-6.14,1.44-9.23c4.5-0.37,9.85-1.35,11.8-5.96c0.61-1.45,0.78-3.07,0.94-4.66
								c0.65-6.56,1.3-13.13,1.95-19.69c0.22-2.27,0.44-4.61-0.12-6.79c-1-3.82-4.19-6.34-7.4-8.03c-8.18-4.32-18.1-5.09-26.41-0.77
								c-2.21,1.15-4.34,2.69-5.76,4.92c-2.19,3.44-2.36,7.91-2.46,12.1c-0.09,3.87-0.17,7.73-0.26,11.6
								c-0.1,4.45,0.08,9.6,3.23,12.24c1.67,1.4,3.96,1.84,5.35,3.59c1.74,2.19,1.4,5.25,1.29,7.86
								C215.68,284.3,215.47,285.7,216.01,286.97z"/>
						</g>
					</g>
					<g>
						<path class="st10" d="M241.25,238.34c0.18,0.38,0.33,0.76,0.44,1.16c0.56,2.09-0.08,4.37,0.46,6.46
							c0.86,3.33,4.51,5.55,4.84,8.97c0.27,2.8-1.81,5.29-2.17,8.08c-0.39,3.05,1.35,6.08,0.83,9.08c-0.45,2.6-2.38,6.17-4.1,8.16
							c0.53-0.62,4.9-0.07,6.09-0.68c1.82-0.94,2.07-1.6,2.72-3.38c0.65-1.77,0.37-3.58,1.31-5.37c1.15-2.2,3.29-3.72,4.18-6.08
							c1.21-3.23-0.3-6.84,0.09-10.27c0.58-5.19,5.43-9.76,4.16-14.83c-0.75-2.97-3.43-5.03-4.83-7.75
							c-1.06-2.07-1.33-4.44-2.01-6.66c-0.68-2.22-1.96-4.49-4.13-5.31c-1.21-0.45-2.55-0.4-3.8-0.73
							c-2.16-0.57-3.87-2.21-5.93-3.07c-2.94-1.24-8.49,1.43-10.44,3.86c-1.93,2.41-1.21,4.64,0.42,7.01
							C232.08,230.95,239.1,233.91,241.25,238.34z"/>
					</g>
				</g>
				<g>
					<path class="st10" d="M199.28,220.24c-1.9,1.2-4.21,1.99-5.97,3.43c-3.44,2.79-4.4,7.58-4.83,11.99
						c-0.39,3.92-2.36,7.29-2.23,11.42c0.09,2.77,1.06,5.64,3.18,7.43c2.64,2.22,7,2.87,8.01,6.18c1.1,3.59-2.83,7.72-0.86,10.91
						c1.09,1.76,3.45,2.18,5.1,3.43c1.84,1.39,2.67,3.7,3.71,5.77s2.67,4.17,4.97,4.39c0.35-3.5,0.65-6.26-0.62-9.58
						c-0.74-1.93-3.06-5.56-0.94-7.44c1.36-1.59,4.34-1.92,4.57-4.01c0.11-0.98-0.52-1.86-1-2.72c-1.86-3.32-1.77-7.56-0.1-10.99
						c1.67-3.42,4.79-6.03,8.33-7.44c4.15-1.65,3.57-2.68,5.01-6.43c1.33-3.45,3.39-4.14,6.66-5.19c2.94-0.95,3.91-1.6,5.15-4.2
						c0.91-1.9,2.03-4.17,1.07-6.43c-0.76-1.8-2.27-3.15-3.74-4.44c-3.06-2.7-6.51-5.56-10.58-5.56c-2.27,0-4.46,0.91-6.73,0.87
						c-1.51-0.02-2.98-0.46-4.49-0.62c-2.56-0.27-5.33,0.31-7.52,1.69c-2.21,1.39-2.27,3.01-3.59,5.11
						C201.21,218.85,200.3,219.6,199.28,220.24z"/>
				</g>
				<g>
					<path class="st10" d="M209.41,206.5c0.57-2.41,0.55-5.61-1.72-6.6c-1.24-0.54-2.71-0.15-4.02-0.52
						c-2.79-0.78-3.5-4.27-4.81-6.86c-0.2-0.39-0.43-0.78-0.81-0.99c-0.55-0.29-1.21-0.12-1.83-0.09c-2.84,0.14-4.78-2.79-7.36-3.99
						c-3.19-1.48-7.47,0.27-8.7,3.57c-0.51,1.35-0.54,2.85-1.02,4.21c-1.95,5.52-10.38,7.33-11.01,13.15
						c-0.43,3.94,3.16,8,1.4,11.54c-1.13,2.27-4.25,3.64-4.09,6.17c0.1,1.63,1.74,2.84,3.37,2.94c1.63,0.09,3.18-0.69,4.48-1.67
						c2.06-1.56,3.69-3.63,5.67-5.29c1.98-1.66,4.55-2.94,7.09-2.44c2.46,0.49,4.56,2.58,7.05,2.34c1.99-0.19,3.58-1.84,5.55-2.2
						c1.84-0.33,3.68,0.51,5.53,0.76c1.86,0.25,4.22-0.56,4.4-2.42c0.04-0.45-0.05-0.93,0.12-1.35c0.49-1.18,2.54-0.96,3.02-2.14
						c-0.87-1.57-2.28-1.13-2.83-3.14C208.46,209.94,209.05,208.01,209.41,206.5z"/>
				</g>
			</g>
		</g>
		<g>
			<g>
				<g>
					<g>
						<path class="st12" d="M959.01,622.03c-1.95,2.29-3.9,4.58-5.85,6.87c-7.48-5.77-14.59-12.39-21.12-19.67
							c3.91-1.9,6.64-7.38,11.73-3.15C945.41,607.45,958.62,622.48,959.01,622.03z"/>
					</g>
					<g>
						<path class="st13" d="M948.58,626.09c-0.94,1.2-1.4,2.87-1.24,4.6c0.09,1,0.38,2.02,0.3,2.99c-0.08,0.95-0.52,1.76-0.95,2.54
							c-2.25,4.1-10.12,14.83,0.83,15.04c9.95,0.19,16.33-16.31,19.71-24.49c0.22-0.54,0.44-1.11,0.36-1.75
							c-0.09-0.68-0.52-1.29-0.93-1.85c-2.32-3.11-5.79-7.91-9.08-4.64c-1.41,1.39-1.85,3.77-3.44,5.17
							C952.83,624.84,949.43,625.01,948.58,626.09z"/>
					</g>
				</g>
				<g>
					<path class="st14" d="M927.18,441.08c1.9,12.95-0.48,25.63-1.76,38.32c-1.43,14.25-0.03,26.38,2.8,40.54
						c3.1,15.5,6.49,30.96,10.83,46.17c4.52,15.85,11.2,28.44,18.8,42.83c0.65,1.22,1.31,2.53,1.26,3.91
						c-0.18,4.92-21.58,18.48-22.96,15.65c-11.77-24.02-30.67-48.15-40.83-72.98c-17.68-43.22-32.87-87.56-45.42-132.64
						c-1.79-6.44-3.44-13.81-0.25-19.28c2.45-4.19,7.1-6.03,11.5-7.41c11.78-3.7,33.03-11.79,44.82-3.94
						C918.87,400.83,925.05,426.57,927.18,441.08z"/>
				</g>
			</g>
			<g>
				<g>
					<g>
						<path class="st12" d="M863.02,648.93c-2.89-0.06-5.77-0.12-8.66-0.17c-1.04-9.85-1.25-19.97-0.61-30.05
							c3.93,1.9,9.54,0.48,10.04,7.38C863.94,628.32,862.45,648.92,863.02,648.93z"/>
					</g>
					<g>
						<path class="st13" d="M853.22,643.21c-1.46,0.03-2.92,0.77-4,2.04c-0.63,0.74-1.14,1.65-1.86,2.22
							c-0.71,0.56-1.56,0.74-2.39,0.91c-4.34,0.89-17.02,1.64-9.81,10.62c6.55,8.16,22.19,2.39,30.1-0.29
							c0.52-0.18,1.07-0.38,1.44-0.87c0.4-0.52,0.54-1.27,0.65-1.97c0.59-3.93,1.57-9.9-2.89-10.4c-1.9-0.21-3.84,1-5.87,0.64
							C856.93,645.81,854.53,643.18,853.22,643.21z"/>
					</g>
				</g>
				<g>
					<path class="st14" d="M906.86,457.92c-3.5,18.9-14.88,33.49-20.17,51.87c-10.23,35.54-12.39,76.25-17.37,113.13
						c-0.38,2.83-0.34,12.98-0.34,12.98s-13.56,2.72-21.76,1.06c-8.98-73.46-11.29-148.04-6.9-222.21c0.4-6.73,1.24-14.3,5.99-18.43
						c3.65-3.17,8.6-3.37,13.17-3.21c12.23,0.41,34.76-0.17,43.28,11.25C912.07,416.83,909.54,443.39,906.86,457.92z"/>
				</g>
			</g>
		</g>
		<g>
			<g>
				<g>
					<g>
						<path class="st15" d="M857.06,297.33c4.55-0.59,9.1-1.18,13.65-1.76c-0.06-3.66-0.42-7.31-1.07-10.91
							c3.76-1.45,8.1-3.59,8.64-7.58c0.17-1.26-0.08-2.53-0.34-3.78c-1.05-5.15-2.09-10.29-3.14-15.44
							c-0.36-1.78-0.75-3.61-1.76-5.12c-1.79-2.64-5.13-3.72-8.29-4.17c-8.05-1.15-16.73,0.84-22.78,6.27
							c-1.61,1.45-3.06,3.17-3.72,5.23c-1.03,3.17-0.09,6.61,0.86,9.81c0.87,2.95,1.74,5.91,2.61,8.86c1,3.4,2.42,7.25,5.75,8.44
							c1.77,0.63,3.84,0.37,5.45,1.33C855.77,290.23,855.51,294.4,857.06,297.33z"/>
					</g>
					<g>
						<path class="st7" d="M809.3,247.12c-0.83-1.27-1.71-2.49-2.69-3.63c-2.13-2.47-4.72-4.57-6.46-7.33
							c-1.74-2.76-2.43-6.55-0.52-9.2c1.23-1.71,3.28-2.6,5.28-3.26c6.59-2.15,13.77-2.5,20.54-0.99
							c6.45,1.44,12.26,3.97,18.63,1.37c5.99-2.44,10.38-1.65,16.78,0.42c6.92,2.24,16.12,2.54,22.42,5.81
							c2.63,1.36,4.76,3.55,6.45,5.99c5.83,8.45,6.21,20.32,0.94,29.13c-1.18,1.98-2.62,3.79-4.13,5.53
							c-3.13,3.6-6.86,8.04-11.26,9.47c-0.22-3.97,3.02-16.61-0.12-19.78c-5-5.03-15.9-2.9-21.87-1.45
							c-6.51,1.58-12.22,6.4-18.69,7.58c-4.65,0.85-10.69-1.26-14.74-3.56C814.86,260.39,812.31,251.75,809.3,247.12z"/>
					</g>
				</g>
			</g>
			<g>
				<path class="st16" d="M885.94,291.84c9.17,4.86,16.27,13.68,20.98,22.96c18.82,37.16,27.99,78.33,36.83,119.04
					c2.87,13.21,6.27,27.38,16.46,36.26c-9.02,1.68-18.5,2.93-27.24,0.15c-5.72-1.81-10.76-5.24-16.17-7.84
					c-13.54-6.49-29.17-7.6-44.08-5.73c-14.9,1.87-29.29,6.55-43.57,11.21c-1.42-11.05-1.8-20.82-1.18-31.91
					c1.74-31.36,14.3-61.2,14.38-92.76c0.03-11.12-1.51-22.42,0.95-33.27c3.08-13.55,14.53-22.47,28.43-21.99
					C876.9,288.16,881.64,289.56,885.94,291.84z"/>
			</g>
		</g>
		<g>
			<rect x="584.69" y="242.2" class="st9" width="184.96" height="241.16"/>
		</g>
		<g>
			<g>
				<g>
					<path class="st4" d="M212.79,410.34c0.76,0.3,1.58,0.46,2.38,0.6c2.76,0.49,5.58,0.67,8.38,0.8c2.02,0.09,4.05,0.13,6.07,0.13
						c9.37,0,17.01-0.91,17.58-2.06l0.03-0.32c0,0.03,0,0.06,0,0.09c0.01-0.08,0.02-0.16,0.02-0.24v-39.81
						c0-0.37,0.06-0.76-0.1-1.07c-0.07-0.13-0.17-0.25-0.33-0.34c-0.18-0.11-0.38-0.19-0.58-0.26c-1.99-0.71-4.24-0.87-6.33-1.05
						c-3.42-0.31-6.86-0.41-10.29-0.41c-3.43,0-6.88,0.11-10.3,0.41c-2.09,0.19-4.34,0.34-6.33,1.05c-0.58,0.21-1.24,0.49-1.19,1.18
						c0.01,0.16,0,0.32,0,0.48v39.14c0,0.55-0.08,0.95,0.37,1.34C212.35,410.16,212.58,410.26,212.79,410.34z"/>
					<polygon class="st10" points="223.92,656.2 221.66,666.53 232.41,667.64 237.94,657.88 238.52,650.69 223.54,647.66 					"/>
				</g>
				<g>
					<ellipse class="st4" cx="229.54" cy="368.82" rx="17.42" ry="2.12"/>
				</g>
				<g>
					<g>
						<path class="st3" d="M228.95,367.49c-8.15,0-14.82,0.88-15.33,2.19c1.96,0.66,8.19,1.26,15.8,1.26
							c6.57,0,12.28-0.27,14.87-0.99c0.03-0.07,0.7-0.08,0.7-0.15C244.99,368.41,237.43,367.49,228.95,367.49z"/>
					</g>
				</g>
				<g>
					<path class="st4" d="M217.3,379.07c-3.75-3.51-8.63-5.82-13.46-3.91c-3.87,1.53-6.6,5.46-7.13,9.67
						c-1.12,8.88,9.43,16.19,16.58,12.83c2.07-0.97,0.6-4.27-1.49-3.27c-5.29,2.54-12.38-4.03-10.64-9.72
						c2.04-6.7,8.64-6.92,13.4-2.59C216.46,383.8,219.22,380.86,217.3,379.07z"/>
				</g>
			</g>
			<g>
				<g>
					<path class="st3" d="M227.69,339.62c1.57,0.09,1.57-2.35,0-2.45c-3.78-0.22-7.23,2.02-7.67,6c-0.21,1.91,0.4,3.59,1.48,5.14
						c1.98,2.85,7.07,6.12,2.16,9.58c-1.28,0.9-0.05,3.02,1.23,2.11c2.31-1.63,3.68-4.17,3.04-7.06c-0.32-1.45-1.17-2.5-2.14-3.58
						c-0.92-1.02-2.39-1.96-2.84-3.3C221.79,342.53,223.9,339.4,227.69,339.62z"/>
				</g>
				<g>
					<path class="st3" d="M239.3,342.08c1.57,0.09,1.57-2.35,0-2.45c-3.78-0.22-7.23,2.02-7.67,6c-0.21,1.91,0.4,3.59,1.48,5.14
						c1.98,2.85,7.07,6.12,2.16,9.58c-1.28,0.9-0.05,3.02,1.23,2.11c2.31-1.63,3.68-4.17,3.04-7.06c-0.32-1.45-1.17-2.5-2.14-3.58
						c-0.92-1.02-2.39-1.96-2.84-3.3C233.4,345,235.51,341.86,239.3,342.08z"/>
				</g>
			</g>
		</g>
		<g>
			<g>
				<path class="st12" d="M209.26,385.12c-0.05-0.25-0.11-0.49-0.21-0.72c-0.85-2.18-3.19-2.27-4.45-3.88
					c-0.56-0.72-0.41-3.57-1.91-3.03c-0.55,0.21-2.45,0.74-4.33,1.39c-1.61-0.05-3.23-0.03-4.82-0.24
					c-4.02-0.53-11.53-6.52-15.02-1.76c-0.67,0.92-1.36,1.87-1.69,2.95c-0.27,0.88-0.29,1.8-0.27,2.71c0.02,0.7-0.12,1.84,0.37,2.27
					c0.51,0.46,2.3,0.47,3,0.62c2.01,0.41,4.01,0.83,6.02,1.24c1.97,0.41,4.23,1.08,4.8,3.03c0.12,0.43,0.15,0.89,0.34,1.29
					c0.21,0.45,0.59,0.79,0.96,1.09c1.39,1.13,2.91,2.17,4.55,2.92c2.93,1.34,7.5-1.52,10.16-2.94c0.66-0.35,1.34-0.74,1.8-1.34
					c0.76-0.98,0.81-2.28,0.82-3.48C209.39,386.53,209.39,385.8,209.26,385.12z"/>
			</g>
			<g>
				<path class="st9" d="M137.87,347.79c-1.27,3.36-2,6.91-1.77,10.79c0.23,4.03,2.47,7.75,5.4,10.52s6.53,4.73,10.14,6.56
					c10.75,5.43,21.96,9.95,33.48,13.49c1.92-3.91,3.84-7.83,5.75-11.74c0.46-0.95,0.94-2.02,0.6-3.02
					c-0.32-0.95-1.27-1.5-2.15-1.98c-4.18-2.27-8.35-4.54-12.53-6.81c-3.92-2.13-8.08-4.51-10.03-8.52
					c-3.73-7.68,4.81-11.01,9.08-15.37c5.8-5.93,11.81-11.72,17.44-17.82c5.33-5.45,10.8-11.13,13.13-18.22
					c4.64-14.11-0.15-23.96-13.44-18.12c-8.43,3.7-14.74,10.23-23.61,18.34C157.3,316.89,143.7,332.38,137.87,347.79z"/>
			</g>
		</g>
		<g>
			<g>
				<g>
					<g>
						<path class="st16" d="M434.12,259.2c-28.58,0-54.16,12.66-71.49,32.65l71.49,61.95l71.49-61.95
							C488.28,271.85,462.7,259.2,434.12,259.2z"/>
					</g>
					<g>
						<path class="st17" d="M362.73,292.16c-33.7,39.98-28.62,99.61,11.36,133.31c3.5,2.95,7.15,5.58,10.92,7.94l50.06-80.27
							L362.73,292.16z"/>
					</g>
					<g>
						<path class="st9" d="M434.93,447.87c-17.73,0-35.52-4.94-51.14-15.02l51.15-79.58L434.93,447.87z"/>
					</g>
				</g>
			</g>
			<g>
				<g>
					<path class="st4" d="M552.44,332.16c-2.62-18.41-10.53-35.09-22.14-48.49l-71.49,61.95L552.44,332.16z"/>
				</g>
			</g>
			<g>
				<g>
					<g>
						<path class="st14" d="M538.42,346.54L444.78,360v94.6c52.29,0,94.6-42.31,94.6-94.6
							C539.39,355.42,539.05,350.93,538.42,346.54z"/>
					</g>
				</g>
			</g>
		</g>
		<g>
			<g>
				<path class="st7" d="M493.63,619.37c-10.25-5.67-20.32,1.3-27.63,7.88c-14.49,13.02-30.23,24.58-45.68,36.47
					c-5.11-2.89-10.7-6.02-13.25-7.35c-15.64-8.19-31.61-15.88-46.35-25.48c-7.19-4.69-17.04-9.06-26.68-0.73
					c-7.9,6.84-10.77,19.11-8.25,26.57c2.52,7.46,8.94,11.2,15.32,14.31c16.08,7.83,34.93,17.69,52.95,19.66
					c7.85,0.86,16.69,0.32,24.61,0.12c12.46-0.32,26.27-0.9,37.06-7.45c10.97-6.66,21.51-14.01,31.85-21.61
					c6.52-4.79,13.05-10.22,15.43-18.28C505.39,635.41,502.03,624.02,493.63,619.37z"/>
			</g>
			<g>
				<path class="st7" d="M480.02,660.79c-1.19-10.32-6.36-18.51-15.92-23c-7.75-3.64-16.46-4.49-24.95-5.58
					c-18.91-2.43-36.97-4.85-56.06-4.1c-15.27,0.6-24.68,13.63-31.83,26.48c-4.5,8.1-3.25,11.9,2.42,18.68
					c5.23,6.25,11.57,11.57,18.66,15.6c14.03,7.97,35.59,6,51.05,4.28c14.59-1.63,28.87-5.98,41.88-12.78
					C473.63,676,481.18,670.84,480.02,660.79z"/>
			</g>
		</g>
		<g>
			<g>
				<g>
					<g>
						<g>
							<path class="st12" d="M422.2,500.81c5.61,0.54,11.21,1.09,16.82,1.63c0.86-4.94,1.37-9.97,1.52-15.01
								c4.89-0.85,10.63-2.45,12.31-7.67c0.53-1.64,0.55-3.43,0.57-5.18c0.06-7.24,0.13-14.47,0.19-21.71
								c0.02-2.5,0.03-5.08-0.8-7.41c-1.47-4.08-5.21-6.51-8.87-8.05c-9.36-3.92-20.28-3.78-28.93,1.75
								c-2.3,1.47-4.48,3.37-5.81,5.94c-2.05,3.97-1.8,8.88-1.49,13.47c0.29,4.23,0.57,8.47,0.86,12.7
								c0.33,4.87,1.04,10.48,4.74,13.06c1.96,1.37,4.51,1.62,6.2,3.39C422.47,490.86,421.1,496.4,422.2,500.81z"/>
						</g>
					</g>
				</g>
			</g>
			<g>
				<path class="st10" d="M433.58,483.1c1.56,0,3.11-0.22,4.59-0.77c3.15-1.15,5.52-3.58,7.77-5.92c4.22-4.39,8.29-9.56,11.12-14.85
					c3.24-6.06,1.58-13.09,3.89-19.41c2.04-5.58,7-10.21,7.7-16.07c-2.39,0.97-4.97,1.55-7.58,1.71c1.87-1.83,2.92-4.36,2.86-6.88
					c-2.99,2.31-6.37,4.19-9.98,5.55c1.12-1.16,1.56-2.86,1.12-4.36c-2.3,3.36-6.93,4.72-11.23,4.8c-4.29,0.08-8.54-0.86-12.84-0.93
					c-8.96-0.15-17.76,3.91-23.45,10.27c-4.66,5.21-5.93,9.5-6.06,16.38c-0.08,4.32-0.14,8.76,1.53,12.79
					c3.18,7.69,11.79,12.11,20.01,15.24C426.39,481.92,430.04,483.1,433.58,483.1z"/>
			</g>
		</g>
		<g>
			<path class="st14" d="M431.23,495.95c7.19-0.96,14.49-2.26,20.52,0.36c5.1,2.22,5.02,8.67,6.16,13.54
				c3.78,16.12,6.61,32.43,8.83,48.83c1.06,7.84,2.9,16.24,2.85,24.15c-0.04,6.35-1.63,12.53-1.14,19.01
				c0.38,4.98,2.49,10.35,7.05,12.38c2.29,1.02,4.93,1.07,7.22,2.08c2.3,1.01,4.27,3.72,3.11,5.95c-0.55,1.06-1.65,1.7-2.69,2.28
				c-5.68,3.17-11.37,6.34-17.05,9.51c-4.34,2.42-8.7,4.85-13.38,6.53c-6.63,2.38-13.71,3.19-20.74,3.55
				c-18.16,0.92-36.47-1.09-54-5.92c-9.44-2.6-18.56-7.22-16.27-17.9c2.36-10.99,6.91-21.96,11.83-32.02
				c5.95-12.18,7.71-26.86,11.93-39.72c4.27-13.03,8.79-25.98,13.34-38.91c0.02-0.05,0.03-0.1,0.05-0.15
				c1.66-4.73,2.35-9.4,6.01-13.24c5.01-5.25,7.43-1.07,13.12-0.01C422.11,497.03,426.65,496.56,431.23,495.95z"/>
		</g>
		<g>
			<g>
				<path class="st12" d="M500.01,433.79c0.57-0.16,1.08-0.36,1.59-1.22c1-1.69,1.16-4.27,2.05-6.12c1.44-0.71,3.28,0.21,4.08,1.61
					c0.79,1.4,0.79,3.11,0.64,4.71c-0.28,2.99-0.98,5.94-2.09,8.73c-0.15,0.37-0.31,0.75-0.59,1.03c-0.79,0.8-2.21,0.61-3.04,1.37
					c-0.68,0.62-0.77,1.69-1.46,2.3c-0.8,0.72-2.04,0.52-3.08,0.25c-2.49-0.63-6.61-1.2-5.54-4.74c0.56-1.84,4.01-5.67,5.44-6.97
					C498.78,434.05,499.43,433.94,500.01,433.79z"/>
			</g>
			<g>
				<path class="st14" d="M490.05,441.81c5.23-0.42,10.58,0.57,15.3,2.85c-5.08,27.07-15.26,52.87-25.38,78.49
					c-0.36,0.91-0.75,1.86-1.51,2.46c-0.69,0.55-1.6,0.74-2.47,0.9c-9.19,1.69-18.6,2.15-27.91,1.35
					c-4.53-0.39-3.42-24.61-2.35-27.45c3.64-9.71,11.59,0.31,18.09-1.13c5.45-1.2,11.65-21.81,14.05-27.38
					C482.15,461.97,486.21,451.93,490.05,441.81z"/>
			</g>
		</g>
		<g>
			<g>
				<path class="st12" d="M371.86,423.9c-0.53-0.27-0.99-0.57-1.31-1.51c-0.64-1.85-0.28-4.42-0.79-6.41
					c-1.27-0.99-3.26-0.45-4.32,0.77c-1.06,1.22-1.4,2.89-1.57,4.49c-0.33,2.99-0.22,6.02,0.31,8.98c0.07,0.39,0.15,0.79,0.37,1.13
					c0.61,0.94,2.04,1.04,2.7,1.95c0.54,0.74,0.42,1.81,0.97,2.55c0.64,0.86,1.89,0.91,2.97,0.86c2.57-0.13,6.72,0.14,6.37-3.55
					c-0.18-1.92-2.8-6.35-3.94-7.92C373.01,424.4,372.4,424.17,371.86,423.9z"/>
			</g>
			<g>
				<path class="st14" d="M380.02,433.75c-5.04-1.46-10.48-1.55-15.57-0.25c-0.41,27.54,4.42,54.85,9.23,81.97
					c0.17,0.96,0.36,1.97,0.99,2.71c0.57,0.68,1.42,1.04,2.24,1.37c8.66,3.49,17.8,5.81,27.08,6.88c4.52,0.52,8.25-23.44,7.77-26.43
					c-1.63-10.24-11.42-2.01-17.51-4.71c-5.1-2.26-7.07-23.7-8.31-29.63C383.75,455.07,381.77,444.43,380.02,433.75z"/>
			</g>
		</g>
		<g>
			<g>
				<path class="st12" d="M567.32,165.69c0.68-0.31,1.29-0.74,1.75-1.35c0.11-0.15,0.22-0.3,0.25-0.48
					c0.04-0.21-0.02-0.43-0.07-0.63c-0.22-0.79-2.48-6.92-1.98-7.23c3.87-2.15,7.18-5.77,9.09-9.51c3.57-6.99,3.76-14.96,3.06-22.47
					c-1-10.79-4.74-22.61-14.74-26.57c-7.67-3.03-17.29,0.27-23.47,6.01c-7.95,7.38-6.73,19.55-5.05,28.92
					c1.2,6.71,4.08,13.36,8.8,18.34c2.37,2.51,5.23,4.55,8.44,5.82c1.56,0.62,3.02,0.49,3.48,2.04c0.58,1.92,0.29,4.78,0.48,6.83
					c0.03,0.34,0.08,0.72,0.35,0.93c0.2,0.15,0.46,0.16,0.7,0.17c1.68,0.06,3.35,0.05,5.03-0.05
					C564.75,166.39,566.15,166.22,567.32,165.69z"/>
			</g>
			<g>
				<path class="st7" d="M569.39,112.23c3.9,2.29,7.73,6.19,7.01,10.65c2.05-1.02,4.59,0.98,4.89,3.24s-0.96,4.44-2.43,6.2
					c2.29,0.39,4.53-1.26,5.57-3.33c1.04-2.07,1.15-4.47,1.19-6.79c0.12-6.87-0.18-13.93-2.83-20.27s-8.07-11.91-14.86-13
					c-2.09-0.34-4.23-0.25-6.34-0.02c-1.71,0.19-3.46,0.48-4.95,1.34C544.52,97.27,564.34,109.27,569.39,112.23z"/>
			</g>
			<g>
				<path class="st7" d="M541.34,125.77c-2.01,5.35,2.81,11.23,1.56,16.81c-0.78,3.47-3.82,6.3-3.81,9.85
					c0.01,4.59,5.1,7.96,5.15,12.54c-2.91-3.66-8.49-4.54-11.02-8.48c-1.04-1.62-1.43-3.56-2.15-5.35
					c-2.99-7.34-11.06-10.9-17.88-14.96c-0.79-0.47-1.61-0.99-2.07-1.79c-1.03-1.76,0.04-3.94,0.92-5.78
					c2.67-5.58,3.61-11.96,2.68-18.07c-0.89-5.82-3.44-11.61-2.28-17.38c1.03-5.14,5.21-9.51,10.29-10.77
					c4.58-1.14,9.49,0.1,14.08-1.01c3.04-0.73,5.74-2.45,8.58-3.77c6.56-3.06,15.21-3.69,20.31,1.45c4.51,4.54,4.54,12.2,1.58,17.88
					c-1.83,3.51-4.43,6.53-6.28,10.03c-1.42,2.69-2.43,5.64-4.76,7.73C551.76,118.73,543.69,119.52,541.34,125.77z"/>
			</g>
		</g>
		<g>
			<g>
				<path class="st12" d="M581.13,191.44c0.41,0.08,0.84,0.18,1.18,0.43c0.98,0.74,0.69,2.25,0.94,3.45c0.16,0.77,0.59,1.45,1,2.12
					c0.71,1.15,1.43,2.29,2.14,3.44c0.12,0.19,0.25,0.39,0.44,0.51c0.18,0.1,0.39,0.12,0.6,0.14c2.15,0.14,4.45-0.31,6.05-1.77
					c1.55-1.42,2.21-3.58,2.38-5.67c0.11-1.34,0.04-2.7-0.2-4.02c-0.08-0.41-0.17-0.83-0.42-1.17c-0.21-0.27-0.5-0.47-0.79-0.64
					c-1.85-1.12-3.93-1.84-6.08-2.08c-1.22-0.14-2.48-0.14-3.6-0.62c-0.79-0.33-1.46-0.89-2.15-1.4c-1.37-1.04-2.83-1.96-4.36-2.75
					c-0.3-0.16-1.62,6.7-1.65,7.33C576.45,191.59,578.79,190.97,581.13,191.44z"/>
			</g>
			<g>
				<path class="st4" d="M509.73,150.89c-1.72-0.19-3.42-0.32-5.11-0.4c-1.85-0.09-3.74-0.14-5.5,0.41
					c-1.67,0.52-3.13,1.57-4.46,2.7c-5.8,4.95-12.05,14.64-5.32,21.06c2.02,1.92,4.77,2.84,7.45,3.61
					c7.39,2.12,14.97,3.52,22.54,4.92c20.23,3.73,40.45,7.46,60.68,11.19c1.3-4.22,2.6-8.44,3.9-12.66
					c1.06-3.44-27.52-16.85-30.8-18.27C539.96,157.79,524.32,152.48,509.73,150.89z"/>
			</g>
		</g>
		<g>
			<g>
				<g>
					<g>
						
							<rect x="726.87" y="296.48" transform="matrix(-1 -1.224647e-16 1.224647e-16 -1 1472.9283 643.7488)" class="st3" width="19.19" height="50.79"/>
					</g>
					<g>
						
							<rect x="667.27" y="310.26" transform="matrix(-1 -1.224647e-16 1.224647e-16 -1 1353.7252 657.525)" class="st3" width="19.19" height="37.01"/>
					</g>
					<g>
						
							<rect x="607.67" y="295.71" transform="matrix(-1 -1.224647e-16 1.224647e-16 -1 1234.522 642.975)" class="st3" width="19.19" height="51.56"/>
					</g>
					<g>
						
							<rect x="637.47" y="275.65" transform="matrix(-1 -1.224647e-16 1.224647e-16 -1 1294.1235 622.922)" class="st3" width="19.19" height="71.62"/>
					</g>
					<g>
						
							<rect x="697.07" y="256.36" transform="matrix(-1 -1.224647e-16 1.224647e-16 -1 1413.3268 603.6326)" class="st3" width="19.19" height="90.91"/>
					</g>
				</g>
			</g>
			<g class="st18">
				<rect x="604.06" y="366.41" class="st3" width="146.22" height="6.2"/>
			</g>
			<g class="st18">
				<rect x="604.06" y="387.83" class="st3" width="146.22" height="6.2"/>
			</g>
			<g class="st18">
				<rect x="604.06" y="409.25" class="st3" width="146.22" height="6.2"/>
			</g>
			<g class="st18">
				<rect x="604.06" y="430.68" class="st3" width="146.22" height="6.2"/>
			</g>
			<g class="st18">
				<rect x="604.06" y="452.1" class="st3" width="146.22" height="6.2"/>
			</g>
		</g>
		<g>
			<g>
				<path class="st15" d="M741.51,393.93c2.19-2.43,4.38-4.87,6.57-7.3c0.68-0.75,2.17-3.23,3.35-2.28
					c0.57,0.46,2.64,1.83,4.62,3.33c1.99,0.57,3.96,1.24,5.99,1.63c5.15,0.97,17.18-3.04,19.16,3.88c0.38,1.34,0.77,2.71,0.66,4.1
					c-0.09,1.14-0.5,2.22-0.96,3.26c-0.36,0.81-0.73,2.19-1.53,2.5c-0.84,0.33-3.03-0.35-3.95-0.46c-2.65-0.31-5.29-0.62-7.94-0.93
					c-2.59-0.3-5.68-0.42-7.3,1.63c-0.36,0.45-0.61,0.98-1.03,1.37c-0.47,0.45-1.09,0.68-1.7,0.89c-2.23,0.77-4.59,1.37-6.94,1.6
					c-2.15,0.21-3.1-1.21-4.63-2.51c-1.78-1.52-4.06-1.62-5.86-3.08c-1.01-0.83-1.74-2.13-1.52-3.41c0.17-1.04,0.91-1.89,1.62-2.67
					C740.58,394.95,741.04,394.44,741.51,393.93z"/>
			</g>
			<g>
				<path class="st16" d="M837.17,402.94c-4.95,3.14-10.4,5-17.03,5.93c-16.39,2.31-33.14,2.04-49.45-0.78
					c-1.06-7.71-0.57-15.64,1.43-23.17c13.58-0.8,27.09-2.68,40.37-5.62c6.51-1.44,12.03-3.81,14.98-10.19
					c6.56-14.2,12.06-28.89,16.42-43.91c0.97-3.32,1.91-6.73,3.9-9.56c3.66-5.18,10.53-7.55,16.81-6.68
					c6.28,0.87,11.92,4.63,16.02,9.47c2.94,3.47,5.23,7.7,5.43,12.24c0.2,4.7-1.82,9.18-3.94,13.38
					c-9.45,18.72-21.61,36.08-35.99,51.34C843.21,398.48,840.29,400.96,837.17,402.94z"/>
			</g>
		</g>
	</g>
</g>
</svg>
