<svg xmlns="http://www.w3.org/2000/svg" width="8" height="14.75" viewBox="0 0 8 14.75">
  <metadata><?xpacket begin="﻿" id="W5M0MpCehiHzreSzNTczkc9d"?>
<x:xmpmeta xmlns:x="adobe:ns:meta/" x:xmptk="Adobe XMP Core 5.6-c140 79.160451, 2017/05/06-01:08:21        ">
   <rdf:RDF xmlns:rdf="http://www.w3.org/1999/02/22-rdf-syntax-ns#">
      <rdf:Description rdf:about=""/>
   </rdf:RDF>
</x:xmpmeta>
                                                                                                    
                                                                                                    
                                                                                                    
                                                                                                    
                                                                                                    
                                                                                                    
                                                                                                    
                                                                                                    
                                                                                                    
                                                                                                    
                                                                                                    
                                                                                                    
                                                                                                    
                                                                                                    
                                                                                                    
                                                                                                    
                                                                                                    
                                                                                                    
                                                                                                    
                                                                                                    
                           
<?xpacket end="w"?></metadata>
<defs>
    <style>
      .cls-1 {
        fill: #949494;
        fill-rule: evenodd;
      }
    </style>
  </defs>
  <path id="Forma_1" data-name="Forma 1" class="cls-1" d="M1197.7,698.617l-1.92,0a3.365,3.365,0,0,0-3.55,3.635v1.677h-1.93a0.3,0.3,0,0,0-.3.3v2.428a0.3,0.3,0,0,0,.3.3h1.93v6.128a0.3,0.3,0,0,0,.3.3h2.52a0.3,0.3,0,0,0,.3-0.3v-6.128h2.26a0.3,0.3,0,0,0,.3-0.3v-2.428a0.288,0.288,0,0,0-.09-0.213,0.281,0.281,0,0,0-.21-0.088h-2.26v-1.421a0.859,0.859,0,0,1,1.06-1.03h1.29a0.3,0.3,0,0,0,.3-0.3v-2.255A0.3,0.3,0,0,0,1197.7,698.617Z" transform="translate(-1190 -698.625)"/>
</svg>
