<?xml version="1.0" encoding="utf-8"?>
<!-- Generator: Adobe Illustrator 23.0.3, SVG Export Plug-In . SVG Version: 6.00 Build 0)  -->
<svg version="1.1" id="Слой_1" xmlns="http://www.w3.org/2000/svg" xmlns:xlink="http://www.w3.org/1999/xlink" x="0px" y="0px"
	 viewBox="0 0 376.2 109.6" style="enable-background:new 0 0 376.2 109.6;" xml:space="preserve">
<g>
	<defs>
		<path id="SVGID_1_" d="M26.3,85.4c7.4,14.4,22.4,24.2,39.6,24.2c24.6,0,44.5-19.9,44.5-44.5c0-18.6-9.8-35.7-26.1-40.5
			c0.7,0.2-0.3-0.1,0.3,0.1c3.1,6.1,4.9,13,4.9,20.3c0,24.6-19.9,44.5-44.5,44.5C38.4,89.6,32,88.1,26.3,85.4L26.3,85.4z"/>
	</defs>
	<use xlink:href="#SVGID_1_"  style="overflow:visible;fill-rule:evenodd;clip-rule:evenodd;fill:#959595;"/>
	<clipPath id="SVGID_2_">
		<use xlink:href="#SVGID_1_"  style="overflow:visible;"/>
	</clipPath>
</g>
<g>
	<defs>
		<polygon id="SVGID_3_" points="26.9,60.3 26.8,61.1 26.8,61.9 26.7,62.7 26.7,63.5 26.6,64.3 26.6,65.1 26.6,65.7 26.6,66.3 
			26.7,66.9 26.7,67.5 26.7,68.1 26.8,68.7 26.8,69.3 26.9,69.9 27,70.5 27.1,71 27.2,71.6 27.3,72.2 27.4,72.8 27.5,73.3 
			27.6,73.9 27.8,74.5 27.9,75 28,75.6 28.2,76.2 28.4,76.7 28.5,77.3 28.7,77.8 28.9,78.3 29.1,78.9 29.3,79.4 29.5,79.9 
			29.7,80.5 30,81 30.2,81.4 30.4,81.5 30.9,81.7 31.4,81.9 31.9,82.1 32.4,82.3 32.9,82.4 33.4,82.6 33.9,82.7 34.4,82.9 34.9,83 
			35.4,83.2 35.9,83.3 36.5,83.4 37,83.5 37.5,83.6 38,83.7 38.6,83.8 39.1,83.9 39.6,84 40.2,84.1 40.7,84.1 41.2,84.2 41.8,84.2 
			42.3,84.3 42.9,84.3 43.4,84.3 44,84.3 44.5,84.4 45,84.4 47.1,84.3 49.1,84.2 51.1,83.9 53,83.6 54.9,83.1 56.8,82.6 58.6,82 
			60.4,81.3 62.1,80.5 63.8,79.6 65.5,78.7 67.1,77.6 68.6,76.5 70.1,75.4 71.5,74.1 72.9,72.8 74.2,71.5 75.4,70 76.6,68.6 
			77.7,67 78.7,65.4 79.7,63.8 80.5,62.1 81.3,60.3 82,58.6 82.6,56.7 83.2,54.9 83.6,53 84,51 84.2,49.1 84.4,47.1 84.4,45 
			84.4,44.4 84.4,43.8 84.4,43.2 84.3,42.6 84.3,42 84.2,41.4 84.2,40.8 84.1,40.2 84,39.7 84,39.1 83.9,38.5 83.8,37.9 83.7,37.4 
			83.5,36.8 83.4,36.2 83.3,35.6 83.1,35.1 83,34.5 82.8,34 82.7,33.4 82.5,32.9 82.3,32.3 82.1,31.8 81.9,31.2 81.7,30.7 
			81.5,30.2 81.3,29.7 81.1,29.1 80.9,28.7 80.6,28.6 80.1,28.4 79.6,28.2 79.1,28 78.6,27.9 78.1,27.7 77.6,27.5 77.1,27.4 
			76.6,27.2 76.1,27.1 75.6,27 75.1,26.8 74.6,26.7 74,26.6 73.5,26.5 73,26.4 72.5,26.3 71.9,26.2 71.4,26.1 70.9,26.1 70.3,26 
			69.8,26 69.2,25.9 69.2,25.9 69.2,26 69,26.3 68.8,26.6 68.7,27 68.5,27.3 68.3,27.6 68.1,27.9 67.9,28.3 67.8,28.6 67.6,28.9 
			67.4,29.2 67.2,29.6 67,29.9 66.7,30.2 66.5,30.5 66.3,30.8 66.1,31.1 65.9,31.4 65.6,31.8 65.4,32.1 65.2,32.4 64.9,32.7 
			64.1,33.6 63.3,34.6 62.4,35.4 61.5,36.3 60.6,37.1 59.6,37.9 58.7,38.6 57.7,39.3 56.7,39.9 55.6,40.5 54.6,41.1 53.5,41.6 
			52.5,42.1 51.4,42.5 50.3,42.9 49.2,43.3 48,43.6 46.9,43.9 45.8,44.2 44.6,44.4 43.5,44.6 42.3,44.7 41.2,44.8 40,44.9 38.8,45 
			37.7,45 36.5,45 35.3,44.9 34.1,44.8 32.9,44.7 32.4,44.6 32,45.2 31.7,45.8 31.3,46.5 30.9,47.2 30.6,47.9 30.3,48.5 30,49.2 
			29.7,49.9 29.4,50.6 29.1,51.3 28.8,52 28.6,52.8 28.4,53.5 28.1,54.2 27.9,55 27.7,55.7 27.6,56.5 27.4,57.2 27.3,58 27.1,58.8 
			27,59.5 26.9,60.3 		"/>
	</defs>
	<use xlink:href="#SVGID_3_"  style="overflow:visible;fill-rule:evenodd;clip-rule:evenodd;fill:#959595;"/>
	<clipPath id="SVGID_4_">
		<use xlink:href="#SVGID_3_"  style="overflow:visible;"/>
	</clipPath>
</g>
<g>
	<defs>
		<path id="SVGID_5_" d="M19.3,11c12,1.9,21.9,9.1,27.5,18.9c-1.2-7.5,0.7-15.4,5.8-21.7c3.1-3.8,6.9-6.5,11.2-8.2
			c3.2,8.8,1.8,19-4.5,26.7c-7.3,8.9-18.3,11.6-29.5,9.9C15.9,34.5,4.9,25.1,0,13C6,10.8,12.6,10,19.3,11L19.3,11z"/>
	</defs>
	<use xlink:href="#SVGID_5_"  style="overflow:visible;fill-rule:evenodd;clip-rule:evenodd;fill:#959595;"/>
	<clipPath id="SVGID_6_">
		<use xlink:href="#SVGID_5_"  style="overflow:visible;"/>
	</clipPath>
</g>
<g>
	<defs>
		<path id="SVGID_7_" d="M341.2,71.5v16.1c0,1.4-0.4,2.6-1.3,3.4c-0.9,0.9-2.1,1.3-3.5,1.3c-1.4,0-2.6-0.4-3.4-1.3
			c-0.9-0.9-1.3-2-1.3-3.4V71.5c0-4.3,1.5-7.9,4.4-10.8c3-2.9,6.6-4.4,10.9-4.4c1.4,0,2.5,0.4,3.4,1.3c0.9,0.9,1.3,2,1.3,3.4
			c0,2.9-1.6,4.5-4.9,4.8c-1.6,0.1-2.9,0.7-4,1.7C341.7,68.6,341.2,69.9,341.2,71.5L341.2,71.5z M309.6,92.4
			c-5.1,0-9.4-1.7-12.9-5.2c-3.5-3.5-5.2-7.8-5.2-12.9s1.7-9.4,5.2-12.9c3.5-3.5,7.8-5.2,12.9-5.2c5.1,0,9.4,1.7,12.9,5.2
			c3.5,3.5,5.2,7.8,5.2,12.9v13.3c0,1.4-0.4,2.6-1.3,3.5c-0.9,0.9-2.1,1.3-3.5,1.3s-2.6-0.4-3.4-1.3c-0.9-0.9-1.3-2-1.3-3.4V74.4
			c0-2.4-0.8-4.4-2.5-6.1c-1.7-1.7-3.7-2.5-6.1-2.5c-2.4,0-4.4,0.8-6,2.5c-1.7,1.7-2.5,3.7-2.5,6c0,2.4,0.8,4.4,2.5,6.1
			c1.7,1.7,3.7,2.5,6,2.5c1.4,0,2.6,0.4,3.5,1.3c0.9,0.9,1.3,2,1.3,3.4c0,1.4-0.4,2.6-1.3,3.5C312.2,92,311.1,92.4,309.6,92.4
			L309.6,92.4z"/>
	</defs>
	<use xlink:href="#SVGID_7_"  style="overflow:visible;fill:#959595;"/>
	<clipPath id="SVGID_8_">
		<use xlink:href="#SVGID_7_"  style="overflow:visible;"/>
	</clipPath>
</g>
<g>
	<defs>
		<path id="SVGID_9_" d="M355.5,63.1v24.4c0,1.4,0.4,2.6,1.3,3.5c0.9,0.9,2,1.3,3.4,1.3c1.4,0,2.6-0.4,3.5-1.3
			c0.9-0.9,1.3-2.1,1.3-3.5v-3.8h6.4c1.4,0,2.6-0.4,3.4-1.3c0.9-0.9,1.3-2,1.3-3.4c0-3.2-1.6-4.8-4.7-4.8H365v-11
			c0-3.4,0.3-6.1-0.4-7.5c-1.8-3.6-6-2.8-7.7-1C355.4,56.1,355.5,59.2,355.5,63.1L355.5,63.1z"/>
	</defs>
	<use xlink:href="#SVGID_9_"  style="overflow:visible;fill:#959595;"/>
	<clipPath id="SVGID_10_">
		<use xlink:href="#SVGID_9_"  style="overflow:visible;"/>
	</clipPath>
</g>
<g>
	<defs>
		<path id="SVGID_11_" d="M269.6,65.7c-2.4,0-4.4,0.8-6,2.5c-1.7,1.7-2.5,3.7-2.5,6.1c0,2.4,0.8,4.4,2.5,6c1.7,1.7,3.7,2.5,6,2.5
			c2.4,0,4.4-0.8,6.1-2.5c1.7-1.7,2.5-3.7,2.5-6V46.5c0-1.4,0.4-2.5,1.3-3.4c0.9-0.9,2-1.3,3.4-1.3c1.4,0,2.6,0.4,3.5,1.3
			c0.9,0.9,1.3,2,1.3,3.4v27.8c0,5.1-1.8,9.3-5.3,12.8c-3.5,3.5-7.8,5.2-12.9,5.2c-5.1,0-9.3-1.7-12.8-5.2
			c-3.5-3.5-5.2-7.8-5.2-12.8c0-5.1,1.7-9.4,5.2-12.9c3.5-3.5,7.8-5.2,12.9-5.2c1.4,0,2.6,0.4,3.5,1.3c0.9,0.9,1.3,2.1,1.3,3.5
			c0,1.4-0.4,2.6-1.3,3.4C272.2,65.2,271,65.7,269.6,65.7L269.6,65.7z M228,62.6c9-0.6,16.9,7.1,12.9,16.4
			C248.2,67.3,236.9,57.7,228,62.6L228,62.6z M229.5,56.3c5.1,0,9.4,1.7,12.9,5.2c3.5,3.5,5.2,7.8,5.2,12.9s-1.7,9.4-5.2,12.9
			c-3.5,3.5-7.8,5.2-12.9,5.2c-5.1,0-9.4-1.7-12.9-5.2c-3.5-3.5-5.2-7.8-5.2-12.9s1.7-9.4,5.2-12.9C220.2,58,224.5,56.3,229.5,56.3
			L229.5,56.3z M189.5,65.8c-2.4,0-4.4,0.8-6,2.5c-1.7,1.7-2.5,3.7-2.5,6c0,2.4,0.8,4.4,2.5,6.1c1.7,1.7,3.7,2.5,6,2.5
			c2.4,0,4.4-0.8,6.1-2.5c1.7-1.7,2.5-3.7,2.5-6.1c0-2.4-0.8-4.4-2.5-6C193.8,66.6,191.8,65.8,189.5,65.8L189.5,65.8z M189.5,56.3
			c5.1,0,9.4,1.7,12.9,5.2c3.5,3.5,5.2,7.8,5.2,12.9s-1.7,9.4-5.2,12.9c-3.5,3.5-7.8,5.2-12.9,5.2c-5.1,0-9.4-1.7-12.9-5.2
			c-3.5-3.5-5.2-7.8-5.2-12.9s1.7-9.4,5.2-12.9C180.1,58,184.4,56.3,189.5,56.3L189.5,56.3z M162.7,73.3h-12.3v14.2
			c0,1.4-0.4,2.6-1.3,3.4c-0.9,0.9-2.1,1.3-3.5,1.3c-1.4,0-2.6-0.4-3.4-1.3c-0.9-0.9-1.3-2-1.3-3.4V57c0-4.3,1.5-8,4.4-10.9
			c2.9-2.9,6.6-4.4,10.9-4.4h6.6c1.4,0,2.6,0.4,3.5,1.3c0.9,0.9,1.3,2,1.3,3.4c0,1.4-0.4,2.6-1.3,3.5c-0.9,0.9-2.1,1.3-3.5,1.3h-6.6
			c-1.6,0-3,0.6-4.1,1.7c-1.1,1.1-1.7,2.5-1.7,4.1v6.7h12.3c1.4,0,2.6,0.4,3.5,1.3c0.9,0.9,1.3,2,1.3,3.4c0,1.4-0.4,2.6-1.3,3.5
			C165.3,72.9,164.1,73.3,162.7,73.3L162.7,73.3z"/>
	</defs>
	<use xlink:href="#SVGID_11_"  style="overflow:visible;fill:#959595;"/>
	<clipPath id="SVGID_12_">
		<use xlink:href="#SVGID_11_"  style="overflow:visible;"/>
	</clipPath>
</g>
</svg>
