<?xml version="1.0" encoding="utf-8"?>
<!-- Generator: Adobe Illustrator 23.0.3, SVG Export Plug-In . SVG Version: 6.00 Build 0)  -->
<svg version="1.1" xmlns="http://www.w3.org/2000/svg" xmlns:xlink="http://www.w3.org/1999/xlink" x="0px" y="0px"
	 viewBox="0 0 200 236.6" style="enable-background:new 0 0 200 236.6;" xml:space="preserve">
<style type="text/css">
	.st0{fill-rule:evenodd;clip-rule:evenodd;fill:#0E7C36;}
</style>
<g id="Слой_1">
	<path class="st0" d="M100,36.6c55.2,0,100,44.8,100,100s-44.8,100-100,100S0,191.8,0,136.6S44.8,36.6,100,36.6z"/>
</g>
<g id="Слой_2">
	<g>
		<defs>
			<path id="SVGID_1_" d="M28.4,12c13,2,23.7,9.9,29.8,20.5c-1.3-8.1,0.7-16.7,6.3-23.6c3.3-4.1,7.5-7.1,12.1-8.9
				c3.5,9.5,2,20.6-4.9,29c-7.9,9.7-19.8,12.6-32,10.7c-15.1-2.3-27-12.5-32.3-25.6C13.9,11.7,21.1,10.8,28.4,12L28.4,12z"/>
		</defs>
		<use xlink:href="#SVGID_1_"  style="overflow:visible;fill-rule:evenodd;clip-rule:evenodd;fill:#0E7C36;"/>
		<clipPath id="SVGID_2_">
			<use xlink:href="#SVGID_1_"  style="overflow:visible;"/>
		</clipPath>
	</g>
</g>
</svg>
