<?xml version="1.0" encoding="utf-8"?>
<!-- Generator: Adobe Illustrator 23.0.3, SVG Export Plug-In . SVG Version: 6.00 Build 0)  -->
<svg version="1.1" id="_x31__1_" xmlns="http://www.w3.org/2000/svg" xmlns:xlink="http://www.w3.org/1999/xlink" x="0px" y="0px"
	 viewBox="0 0 1113 284.1" style="enable-background:new 0 0 1113 284.1;" xml:space="preserve">
<style type="text/css">
	.st0{fill:#959595;}
	.st1{opacity:0.6;fill:#959595;}
	.st2{opacity:0.7;fill:#959595;}
	.st3{opacity:0.2;fill:#959595;}
</style>
<g id="_x31_">
	<g id="Слой_6">
		
			<image style="display:none;overflow:visible;" width="265" height="241" xlink:href="E62669B3DA190473.png"  transform="matrix(1.2695 0 0 1.2695 -12.5653 -10.0216)">
		</image>
		
			<image style="display:none;overflow:visible;" width="265" height="241" xlink:href="E62669B3DA190471.png"  transform="matrix(1.2695 0 0 1.2695 409.5281 -42.9976)">
		</image>
		<path class="st0" d="M193.1,206.6c0,0-16.4-46.9,11.8-103.9C226.5,58.8,293.5,0,293.5,0s11.1,43-9.3,106.3
			c-6.1,18.8-32.2,44.9-63.4,68.5C200.6,189.9,193.1,206.6,193.1,206.6z"/>
		<path class="st1" d="M261.1,31c-20.3,20.7-44.7,48.3-56.2,71.7c-28.1,57-11.8,103.9-11.8,103.9s7.6-16.7,27.7-31.9
			c10.3-7.8,20.1-15.9,28.8-23.9C277.7,98.8,264.7,35,261.1,31z"/>
		<path class="st0" d="M193.1,206.6c0,0-7.2-35.1,32-85.1C262.7,73.5,293.5,0,293.5,0s11.1,43-9.3,106.3
			c-6.1,18.8-32.2,44.9-63.4,68.5C200.6,189.9,193.1,206.6,193.1,206.6z"/>
		<path class="st0" d="M193.1,206.6c0,0-20.3-19.9,51-70.3C289.4,104.2,293.5,0,293.5,0s11.1,43-9.3,106.3
			c-6.1,18.8-32.2,44.9-63.4,68.5C200.6,189.9,193.1,206.6,193.1,206.6z"/>
		<path class="st2" d="M204.3,173.4c-0.6-5.1-0.7-10.1-0.5-15.2c0.1-4.9,0.5-9.8,0.9-14.6c0.5-5.1,0.9-10.3,1.4-15.4
			c1.2-11.6,2.8-23.2,6-34.4c0.7-2.6,1.6-5.1,2.5-7.7c-3.8,5.7-7.1,11.3-9.8,16.6c-28.1,57-11.8,103.9-11.8,103.9s4-8.8,13.8-19.4
			C205.5,182.8,204.8,178.1,204.3,173.4z"/>
	</g>
	<g id="Слой_8">
		<path class="st0" d="M0.4,11.6c0,0,29.3,37.3,48.9,51.8C72.5,80.6,135,124,151,142.9c46.6,55,30.2,141.2,30.2,141.2
			s-12-24.4-27.4-37.3c-41.4-34.9-95.1-53.9-122.7-103.9C-6.1,75.4,0.4,11.6,0.4,11.6z"/>
		<path class="st0" d="M0.4,11.6c0,0,12.8,65.5,43.4,91.7c27.7,23.6,78.7,41.7,94.8,60.6c46.8,55.2,42.5,120.2,42.5,120.2
			s-12-24.4-27.4-37.3c-41.4-34.9-95.1-53.9-122.7-103.9C-6.1,75.4,0.4,11.6,0.4,11.6z"/>
		<path class="st0" d="M163.2,214.7c-17-24.6-37.1-44.6-91.4-60.3c-25.2-7.3-46.8-28.5-50.6-31.7c2.9,6.7,6.2,13.4,10,20.3
			c27.5,50,81.2,69,122.7,103.9c15.3,12.9,27.4,37.3,27.4,37.3S179.1,235.8,163.2,214.7z"/>
		<path class="st3" d="M148.5,176.9c-1.2-2.5-8.9-12.1-14.5-17.7c-5.2-5.2-26.6-17.4-31.2-20c0.2,1.1,19.7,25.5,23.3,48.5
			c3.9,24.9-2.4,35.3-2.5,36.8c9.6,5.6,30.2,22.2,30.2,22.2S167.4,216,148.5,176.9z"/>
		<path class="st2" d="M151,142.9c-6.8-8.1-22.1-20.6-39.1-33.6c0.1,0.4,0.2,0.7,0.2,1.1c1.3,1.5,2.7,2.9,4.1,4.3
			c4.2,4.2,8.1,8.4,11.4,13.4c1.5,2.3,3,4.7,4.3,7.2c4.2,7.6,7.5,15.6,10.7,23.6c4.9,12.3,8.6,25.1,10.7,38.2
			c1.4,8.7,2.6,17.5,2.8,26.3c0,2.9,0,5.8-0.3,8.7c-0.2,2.6-0.6,5.2-0.9,7.8c-0.3,2.3-0.5,4.8-1.1,7.1
			c15.2,12.9,27.2,37.2,27.2,37.2S197.6,197.9,151,142.9z"/>
		
			<image style="display:none;overflow:visible;" width="297" height="270" xlink:href="E62669B3DA190477.png"  transform="matrix(2.4073 0 0 2.4073 -222.5599 386.745)">
		</image>
	</g>
	<g>
		<path class="st0" d="M430.1,155.9c8.5,0,12.8,5,12.8,14.9c0,14.7-4.3,26.7-12.9,36.1c-8.9,9.8-20.6,14.7-35.2,14.7
			c-16.1,0-29-5.4-38.5-16.3c-9-10.3-13.5-23.5-13.5-39.5c0-16.1,4.9-29.5,14.7-40c9.8-10.5,22.2-15.7,37.3-15.7
			c10.8,0,20.1,2,27.9,5.9c8.7,4.5,13.1,10.2,13.1,17.4c0,3.2-1,5.7-2.9,7.5c-1.9,1.8-4.6,2.7-7.9,2.7c-2.3,0-6.2-1.9-11.8-5.6
			c-5.6-3.7-11.4-5.6-17.3-5.6c-8.2,0-14.8,3.1-19.8,9.4c-5,6.3-7.4,14.2-7.4,23.8c0,9.2,2.1,16.8,6.2,22.9
			c4.9,7,11.7,10.5,20.5,10.5c6.3,0,11.5-1.9,15.6-5.6c4.1-3.8,6.4-8.8,7-15.1h-13.8c-3.9,0-6.8-1-8.9-3c-2.1-2-3.1-4.7-3.1-8.2
			c0-7.5,4-11.3,12-11.3H430.1z"/>
		<path class="st0" d="M458.6,124.6c0-3.9,1.2-6.9,3.5-9c2.3-2.1,5.2-3.2,8.5-3.2h29c10.7,0,19.3,3,25.7,9.1
			c6.4,6,9.7,14.1,9.7,24.1c0,7.9-2.2,14.5-6.5,19.8c-4.4,5.3-10.4,8.7-18.1,10.2l20.9,22.9c1.7,1.8,2.9,3.5,3.8,5.1
			c0.8,1.6,1.3,3.4,1.3,5.3c0,2.5-0.9,4.8-2.7,7c-2.4,2.9-5.6,4.3-9.7,4.3c-3,0-5.1-0.4-6.5-1.3c-1.4-0.8-3-2.4-4.9-4.7L483,176.4
			l-0.3,30.7c0,4.2-1.1,7.4-3.3,9.6c-2.2,2.2-5.1,3.3-8.7,3.3c-3.7,0-6.6-1.1-8.8-3.3c-2.2-2.2-3.3-5.4-3.3-9.7V124.6z M482.7,158.4
			h15.9c3.9,0,6.9-1.1,9.1-3.4c2.2-2.3,3.3-5.1,3.3-8.6c0-3.5-1.2-6.3-3.5-8.4c-2.3-2.1-5.3-3.2-8.8-3.2h-15.9V158.4z"/>
		<path class="st0" d="M551.7,124.6c0-3.9,1.2-6.9,3.5-9c2.3-2.1,5.2-3.2,8.5-3.2h36.8c3.9,0,6.8,1,8.9,3c2.1,2,3.1,4.8,3.1,8.3
			c0,3.5-1,6.2-3.1,8.2c-2.1,2-5,3-8.9,3h-24.8v19.5h22.7c3.8,0,6.7,1,8.8,3c2.1,2,3.2,4.7,3.2,8.2c0,7.5-4,11.3-12,11.3h-22.7v19.9
			h25.7c3.9,0,6.8,1,8.9,3c2.1,2,3.1,4.8,3.1,8.3c0,3.5-1.1,6.2-3.2,8.2c-2.1,2-5.1,3-8.8,3h-37.7c-3.3,0-6.1-1.1-8.5-3.3
			c-2.4-2.2-3.6-5.1-3.6-8.9V124.6z"/>
		<path class="st0" d="M628.2,124.6c0-3.9,1.2-6.9,3.5-9c2.3-2.1,5.2-3.2,8.5-3.2h36.8c3.9,0,6.8,1,8.9,3c2.1,2,3.1,4.8,3.1,8.3
			c0,3.5-1,6.2-3.1,8.2c-2.1,2-5,3-8.9,3h-24.8v19.5H675c3.8,0,6.7,1,8.8,3c2.1,2,3.2,4.7,3.2,8.2c0,7.5-4,11.3-12,11.3h-22.7v19.9
			H678c3.9,0,6.8,1,8.9,3c2.1,2,3.1,4.8,3.1,8.3c0,3.5-1.1,6.2-3.2,8.2c-2.1,2-5.1,3-8.8,3h-37.7c-3.3,0-6.1-1.1-8.5-3.3
			c-2.4-2.2-3.6-5.1-3.6-8.9V124.6z"/>
		<path class="st0" d="M707.2,124.4c0-4.2,1.1-7.4,3.3-9.6s5.1-3.3,8.7-3.3s6.7,1.4,9.5,4.3c1,1,3.4,3.9,7.1,8.8l40,50.5l0.3-50.6
			c0-4.2,1.1-7.4,3.3-9.6c2.2-2.2,5.1-3.3,8.7-3.3c3.7,0,6.6,1.1,8.8,3.3c2.2,2.2,3.3,5.4,3.3,9.7v82.7c0,4.2-1.1,7.4-3.3,9.6
			c-2.2,2.2-5.1,3.3-8.7,3.3c-3.5,0-6.6-1.5-9.5-4.5c-1.1-1.2-3.5-4.1-7.1-8.6l-40-50.5l-0.3,50.6c0,4.2-1.1,7.4-3.3,9.6
			s-5.1,3.3-8.7,3.3c-3.7,0-6.6-1.1-8.8-3.3c-2.2-2.2-3.3-5.4-3.3-9.7V124.4z"/>
		<path class="st0" d="M819.2,124.4c0-4.2,1.1-7.4,3.3-9.6s5.1-3.3,8.7-3.3c3.7,0,6.6,1.1,8.8,3.3c2.2,2.2,3.3,5.4,3.3,9.7v72.2
			h25.8c3.9,0,6.8,1,8.9,3c2.1,2,3.1,4.8,3.1,8.3c0,3.5-1.1,6.2-3.2,8.2c-2.1,2-5.1,3-8.8,3h-37.9c-3.3,0-6.1-1.1-8.5-3.3
			c-2.4-2.2-3.6-5.1-3.6-8.9V124.4z"/>
		<path class="st0" d="M921,207.2c0,4.2-1.1,7.4-3.3,9.6s-5.1,3.3-8.7,3.3c-3.7,0-6.6-1.1-8.8-3.3c-2.2-2.2-3.3-5.4-3.3-9.7v-82.7
			c0-4.2,1.1-7.4,3.3-9.6s5.1-3.3,8.7-3.3c3.7,0,6.6,1.1,8.8,3.3c2.2,2.2,3.3,5.4,3.3,9.7V207.2z"/>
		<path class="st0" d="M940.9,124.4c0-4.2,1.1-7.4,3.3-9.6s5.1-3.3,8.7-3.3s6.7,1.4,9.5,4.3c1,1,3.4,3.9,7.1,8.8l40,50.5l0.3-50.6
			c0-4.2,1.1-7.4,3.3-9.6c2.2-2.2,5.1-3.3,8.7-3.3c3.7,0,6.6,1.1,8.8,3.3c2.2,2.2,3.3,5.4,3.3,9.7v82.7c0,4.2-1.1,7.4-3.3,9.6
			c-2.2,2.2-5.1,3.3-8.7,3.3c-3.5,0-6.6-1.5-9.5-4.5c-1.1-1.2-3.5-4.1-7.1-8.6l-40-50.5l-0.3,50.6c0,4.2-1.1,7.4-3.3,9.6
			s-5.1,3.3-8.7,3.3c-3.7,0-6.6-1.1-8.8-3.3c-2.2-2.2-3.3-5.4-3.3-9.7V124.4z"/>
		<path class="st0" d="M1051.2,124.6c0-3.9,1.2-6.9,3.5-9c2.3-2.1,5.2-3.2,8.5-3.2h36.8c3.9,0,6.8,1,8.9,3c2.1,2,3.1,4.8,3.1,8.3
			c0,3.5-1,6.2-3.1,8.2c-2.1,2-5,3-8.9,3h-24.8v19.5h22.7c3.8,0,6.7,1,8.8,3c2.1,2,3.2,4.7,3.2,8.2c0,7.5-4,11.3-12,11.3h-22.7v19.9
			h25.7c3.9,0,6.8,1,8.9,3c2.1,2,3.1,4.8,3.1,8.3c0,3.5-1.1,6.2-3.2,8.2c-2.1,2-5.1,3-8.8,3h-37.7c-3.3,0-6.1-1.1-8.5-3.3
			c-2.4-2.2-3.6-5.1-3.6-8.9V124.6z"/>
	</g>
</g>
</svg>
