<?xml version="1.0" encoding="utf-8"?>
<!-- Generator: Adobe Illustrator 24.0.2, SVG Export Plug-In . SVG Version: 6.00 Build 0)  -->
<svg version="1.1" id="Слой_1" xmlns="http://www.w3.org/2000/svg" xmlns:xlink="http://www.w3.org/1999/xlink" x="0px" y="0px"
	 viewBox="0 0 198.6 50.2" style="enable-background:new 0 0 198.6 50.2;" xml:space="preserve">
<style type="text/css">
	.st0{fill-rule:evenodd;clip-rule:evenodd;fill:#959595;}
</style>
<g>
	<g>
		<path id="SVGID_1_" class="st0" d="M12,39.1c3.4,6.6,10.2,11,18.1,11c11.2,0,20.3-9.1,20.3-20.3c0-8.5-4.5-16.3-11.9-18.5
			c0.3,0.1-0.1,0,0.1,0c1.4,2.8,2.2,5.9,2.2,9.3c0,11.2-9.1,20.3-20.3,20.3C17.5,41,14.6,40.4,12,39.1L12,39.1z"/>
	</g>
</g>
<g>
	<g>
		<polygon id="SVGID_3_" class="st0" points="12.3,27.5 12.2,27.9 12.2,28.2 12.2,28.6 12.2,29 12.1,29.3 12.1,29.7 12.1,30 
			12.1,30.2 12.2,30.5 12.2,30.8 12.2,31.1 12.2,31.3 12.2,31.6 12.3,31.9 12.3,32.2 12.4,32.4 12.4,32.7 12.5,32.9 12.5,33.2 
			12.5,33.4 12.6,33.7 12.7,34 12.7,34.2 12.8,34.5 12.9,34.8 13,35 13,35.3 13.1,35.5 13.2,35.7 13.3,36 13.4,36.2 13.5,36.5 
			13.5,36.7 13.7,37 13.8,37.1 13.9,37.2 14.1,37.3 14.3,37.4 14.6,37.5 14.8,37.5 15,37.6 15.2,37.7 15.5,37.7 15.7,37.8 
			15.9,37.9 16.1,38 16.4,38 16.7,38 16.9,38.1 17.1,38.1 17.3,38.2 17.6,38.2 17.8,38.3 18.1,38.3 18.3,38.4 18.6,38.4 18.8,38.4 
			19.1,38.4 19.3,38.5 19.6,38.5 19.8,38.5 20.1,38.5 20.3,38.5 20.5,38.5 21.5,38.5 22.4,38.4 23.3,38.3 24.2,38.1 25,37.9 
			25.9,37.7 26.7,37.4 27.6,37.1 28.3,36.7 29.1,36.3 29.9,35.9 30.6,35.4 31.3,34.9 32,34.4 32.6,33.8 33.3,33.2 33.9,32.6 
			34.4,31.9 34.9,31.3 35.4,30.6 35.9,29.8 36.4,29.1 36.7,28.3 37.1,27.5 37.4,26.7 37.7,25.9 38,25 38.1,24.2 38.3,23.3 
			38.4,22.4 38.5,21.5 38.5,20.5 38.5,20.3 38.5,20 38.5,19.7 38.5,19.4 38.5,19.2 38.4,18.9 38.4,18.6 38.4,18.3 38.3,18.1 
			38.3,17.8 38.3,17.6 38.2,17.3 38.2,17.1 38.1,16.8 38,16.5 38,16.2 37.9,16 37.9,15.7 37.8,15.5 37.7,15.2 37.6,15 37.5,14.7 
			37.5,14.5 37.4,14.2 37.3,14 37.2,13.8 37.1,13.5 37,13.3 36.9,13.1 36.8,13 36.5,13 36.3,12.9 36.1,12.8 35.9,12.7 35.6,12.6 
			35.4,12.5 35.2,12.5 34.9,12.4 34.7,12.4 34.5,12.3 34.3,12.2 34,12.2 33.8,12.1 33.5,12.1 33.3,12 33.1,12 32.8,12 32.6,11.9 
			32.3,11.9 32.1,11.9 31.8,11.9 31.6,11.8 31.6,11.8 31.6,11.9 31.5,12 31.4,12.1 31.3,12.3 31.2,12.5 31.2,12.6 31.1,12.7 
			31,12.9 30.9,13 30.8,13.2 30.7,13.3 30.7,13.5 30.6,13.6 30.4,13.8 30.3,13.9 30.2,14.1 30.2,14.2 30.1,14.3 29.9,14.5 
			29.8,14.6 29.7,14.8 29.6,14.9 29.2,15.3 28.9,15.8 28.5,16.1 28.1,16.6 27.6,16.9 27.2,17.3 26.8,17.6 26.3,17.9 25.9,18.2 
			25.4,18.5 24.9,18.7 24.4,19 24,19.2 23.4,19.4 22.9,19.6 22.4,19.8 21.9,19.9 21.4,20 20.9,20.2 20.3,20.3 19.8,20.3 19.3,20.4 
			18.8,20.4 18.2,20.5 17.7,20.5 17.2,20.5 16.7,20.5 16.1,20.5 15.6,20.4 15,20.4 14.8,20.3 14.6,20.6 14.5,20.9 14.3,21.2 
			14.1,21.5 14,21.9 13.8,22.1 13.7,22.4 13.5,22.8 13.4,23.1 13.3,23.4 13.1,23.7 13,24.1 13,24.4 12.8,24.7 12.7,25.1 12.6,25.4 
			12.6,25.8 12.5,26.1 12.5,26.5 12.4,26.8 12.3,27.1 		"/>
	</g>
</g>
<g>
	<g>
		<path id="SVGID_5_" class="st0" d="M8.8,5c5.5,0.9,10,4.2,12.5,8.6c-0.5-3.4,0.3-7,2.6-9.9C25.3,2,27,0.7,29,0
			c1.5,4,0.8,8.7-2.1,12.2c-3.3,4.1-8.3,5.3-13.5,4.5C7.3,15.7,2.2,11.5,0,5.9C2.7,4.9,5.7,4.6,8.8,5L8.8,5z"/>
	</g>
</g>
<path class="st0" d="M192.3,23.4v14.5h-2.7V23.4h-5.7V21H198v2.5H192.3z M178.5,37.9l-4.9-6.6h-3v6.6h-2.7V21h6.2
	c0.8,0,1.6,0.1,2.3,0.4c0.7,0.2,1.3,0.6,1.9,1.1c0.5,0.5,0.9,1.1,1.2,1.6c0.2,0.6,0.5,1.3,0.5,2.1c0,1.2-0.2,2.1-0.8,2.9
	c-0.6,0.8-1.4,1.4-2.5,1.9l5.1,7H178.5z M176.9,26.2c0-0.8-0.2-1.5-0.8-2c-0.5-0.5-1.3-0.8-2.2-0.8h-3.4v5.6h3.4
	c0.9,0,1.8-0.2,2.2-0.8C176.6,27.8,176.9,27.1,176.9,26.2z M159.2,35.1h-7.6l-1.2,2.8h-2.9l7.5-17.3h0.9l7.5,17.3h-2.9L159.2,35.1z
	 M155.3,25.8l-2.8,7h5.6L155.3,25.8z M142.3,35.6c-0.8,0.8-1.8,1.4-2.9,1.8c-1.2,0.5-2.5,0.6-3.9,0.6h-5.3V21h5.3
	c1.4,0,2.7,0.2,3.9,0.6c1.2,0.5,2.1,0.9,2.9,1.8c0.8,0.7,1.4,1.6,1.9,2.7c0.5,1.1,0.7,2.2,0.7,3.4c0,1.3-0.2,2.3-0.7,3.4
	C143.7,34,143,34.8,142.3,35.6z M141.5,26.9c-0.4-0.7-0.7-1.4-1.3-1.9c-0.6-0.5-1.2-0.9-2-1.2s-1.8-0.5-2.7-0.5h-2.6v12.1h2.6
	c1.1,0,1.9-0.1,2.7-0.5c0.8-0.4,1.5-0.7,2-1.3c0.6-0.6,0.9-1.2,1.3-2c0.4-0.7,0.5-1.5,0.5-2.5C142,28.6,141.8,27.8,141.5,26.9z
	 M122.3,35.7c-0.8,0.8-1.8,1.4-2.8,1.9c-1.1,0.5-2.2,0.7-3.5,0.7c-1.3,0-2.5-0.2-3.5-0.7c-1.1-0.5-2-1.1-2.8-1.9
	c-0.8-0.8-1.4-1.8-1.9-2.8c-0.5-1.1-0.7-2.2-0.7-3.5c0-1.3,0.2-2.3,0.7-3.5c0.5-1.1,1.1-2,1.9-2.8s1.8-1.4,2.8-1.9
	c1.1-0.5,2.2-0.7,3.5-0.7c1.3,0,2.3,0.2,3.5,0.7c1.1,0.5,2,1.1,2.8,1.9c0.8,0.8,1.4,1.8,1.9,2.8c0.5,1.1,0.7,2.2,0.7,3.5
	c0,1.3-0.2,2.5-0.7,3.5C123.7,34.1,123.1,35,122.3,35.7z M121.6,26.9c-0.4-0.8-0.7-1.4-1.3-2c-0.6-0.6-1.2-1.1-2-1.3
	c-0.7-0.4-1.5-0.5-2.5-0.5c-0.8,0-1.6,0.1-2.5,0.5s-1.4,0.7-2,1.3c-0.6,0.6-0.9,1.2-1.3,2c-0.4,0.8-0.5,1.6-0.5,2.5
	c0,0.9,0.1,1.8,0.5,2.6c0.4,0.8,0.7,1.4,1.3,2c0.6,0.6,1.2,1.1,2,1.3c0.7,0.4,1.5,0.5,2.5,0.5c0.8,0,1.6-0.1,2.5-0.5
	c0.7-0.4,1.4-0.7,2-1.3c0.6-0.6,0.9-1.2,1.3-2s0.5-1.6,0.5-2.6C122.1,28.6,121.9,27.8,121.6,26.9z M100.2,35.7
	c-0.8,0.8-1.8,1.4-2.8,1.9c-1.1,0.5-2.2,0.7-3.5,0.7s-2.3-0.2-3.5-0.7c-1.1-0.5-2-1.1-2.8-1.9c-0.8-0.8-1.4-1.8-1.9-2.8
	c-0.5-1.1-0.7-2.2-0.7-3.5c0-1.3,0.2-2.3,0.7-3.5c0.5-1.1,1.1-2,1.9-2.8c0.8-0.8,1.8-1.4,2.8-1.9c1.1-0.5,2.2-0.7,3.5-0.7
	s2.3,0.2,3.5,0.7c1.1,0.5,2,1.1,2.8,1.9c0.8,0.8,1.4,1.8,1.9,2.8c0.5,1.1,0.7,2.2,0.7,3.5c0,1.3-0.2,2.5-0.7,3.5
	C101.7,34.1,101,35,100.2,35.7z M99.6,26.9c-0.4-0.8-0.7-1.4-1.3-2c-0.6-0.6-1.2-1.1-2-1.3c-0.7-0.4-1.5-0.5-2.5-0.5
	s-1.6,0.1-2.5,0.5S90,24.4,89.5,25c-0.6,0.6-0.9,1.2-1.3,2c-0.4,0.8-0.5,1.6-0.5,2.5c0,0.9,0.1,1.8,0.5,2.6s0.7,1.4,1.3,2
	c0.6,0.6,1.2,1.1,1.9,1.3c0.7,0.4,1.5,0.5,2.5,0.5s1.6-0.1,2.5-0.5c0.7-0.4,1.4-0.7,2-1.3c0.6-0.6,0.9-1.2,1.3-2s0.5-1.6,0.5-2.6
	C100.1,28.6,99.8,27.8,99.6,26.9z M73.6,28.5h6.8v2.5h-6.8v7h-2.7V21h10.9v2.5h-8.2V28.5z"/>
</svg>
