<?xml version="1.0" encoding="utf-8"?>
<!-- Generator: Adobe Illustrator 23.0.3, SVG Export Plug-In . SVG Version: 6.00 Build 0)  -->
<svg version="1.1" id="Слой_1" xmlns="http://www.w3.org/2000/svg" xmlns:xlink="http://www.w3.org/1999/xlink" x="0px" y="0px"
	 viewBox="0 0 20 28" style="enable-background:new 0 0 20 28;" xml:space="preserve">
<style type="text/css">
	.st0{fill:#9F9F9F;}
</style>
<path class="st0" d="M10,0C4.5,0,0,4.5,0,10v8c0,5.5,4.5,10,10,10c5.5,0,10-4.5,10-10v-8C20,4.5,15.5,0,10,0z M18.1,18
	c0,4.5-3.6,8.1-8.1,8.1c-4.5,0-8.1-3.7-8.1-8.2v-8c0-4.5,3.6-8.2,8.1-8.2c4.5,0,8.1,3.7,8.1,8.2V18z"/>
<path class="st0" d="M10,7.7c-0.5,0-0.9,0.4-0.9,0.9v3.2c0,0.5,0.4,0.9,0.9,0.9c0.5,0,0.9-0.4,0.9-0.9V8.6C10.9,8.1,10.5,7.7,10,7.7
	z"/>
</svg>
