<svg xmlns="http://www.w3.org/2000/svg" width="10" height="16.781" viewBox="0 0 10 16.781">
  <metadata><?xpacket begin="﻿" id="W5M0MpCehiHzreSzNTczkc9d"?>
<x:xmpmeta xmlns:x="adobe:ns:meta/" x:xmptk="Adobe XMP Core 5.6-c140 79.160451, 2017/05/06-01:08:21        ">
   <rdf:RDF xmlns:rdf="http://www.w3.org/1999/02/22-rdf-syntax-ns#">
      <rdf:Description rdf:about=""/>
   </rdf:RDF>
</x:xmpmeta>
                                                                                                    
                                                                                                    
                                                                                                    
                                                                                                    
                                                                                                    
                                                                                                    
                                                                                                    
                                                                                                    
                                                                                                    
                                                                                                    
                                                                                                    
                                                                                                    
                                                                                                    
                                                                                                    
                                                                                                    
                                                                                                    
                                                                                                    
                                                                                                    
                                                                                                    
                                                                                                    
                           
<?xpacket end="w"?></metadata>
<defs>
    <style>
      .cls-1 {
        fill: #949494;
        fill-rule: evenodd;
      }
    </style>
  </defs>
  <path id="Forma_1" data-name="Forma 1" class="cls-1" d="M1249.28,709.211a6.424,6.424,0,0,1-3.45-1.241c-0.13-.1-0.25-0.192-0.37-0.3a1.043,1.043,0,0,1,1.18-1.7,1.9,1.9,0,0,1,.28.17,5.634,5.634,0,0,0,6.28.058,1.634,1.634,0,0,1,.61-0.318,0.96,0.96,0,0,1,1.1.441,0.943,0.943,0,0,1-.07,1.234,5.126,5.126,0,0,1-1.83,1.188,8.51,8.51,0,0,1-2.07.468c0.11,0.116.16,0.174,0.23,0.241,0.96,0.971,1.92,1.938,2.87,2.912a0.958,0.958,0,0,1,.22,1.129,1.147,1.147,0,0,1-1.07.67,1.037,1.037,0,0,1-.67-0.347c-0.72-.734-1.46-1.455-2.17-2.2-0.21-.218-0.31-0.177-0.49.012-0.73.755-1.47,1.5-2.21,2.239a0.925,0.925,0,0,1-1.12.2,1.151,1.151,0,0,1-.66-1.051,1.078,1.078,0,0,1,.36-0.706c0.94-.954,1.89-1.912,2.84-2.869C1249.13,709.377,1249.19,709.31,1249.28,709.211Zm0.79-3.326a4.248,4.248,0,1,1,4.24-4.192A4.227,4.227,0,0,1,1250.07,705.885Zm2.09-4.251a2.06,2.06,0,1,0-2.05,2.083A2.061,2.061,0,0,0,1252.16,701.634Z" transform="translate(-1245.09 -697.375)"/>
</svg>
